<?xml version="1.0" encoding="utf-8" standalone="no"?>
<!DOCTYPE svg PUBLIC "-//W3C//DTD SVG 1.1//EN"
  "http://www.w3.org/Graphics/SVG/1.1/DTD/svg11.dtd">
<svg xmlns:xlink="http://www.w3.org/1999/xlink" width="720pt" height="432pt" viewBox="0 0 720 432" xmlns="http://www.w3.org/2000/svg" version="1.1">
 <metadata>
  <rdf:RDF xmlns:dc="http://purl.org/dc/elements/1.1/" xmlns:cc="http://creativecommons.org/ns#" xmlns:rdf="http://www.w3.org/1999/02/22-rdf-syntax-ns#">
   <cc:Work>
    <dc:type rdf:resource="http://purl.org/dc/dcmitype/StillImage"/>
    <dc:date>2026-07-07T16:17:05.790560</dc:date>
    <dc:format>image/svg+xml</dc:format>
    <dc:creator>
     <cc:Agent>
      <dc:title>Matplotlib v3.10.8, https://matplotlib.org/</dc:title>
     </cc:Agent>
    </dc:creator>
   </cc:Work>
  </rdf:RDF>
 </metadata>
 <defs>
  <style type="text/css">*{stroke-linejoin: round; stroke-linecap: butt}</style>
 </defs>
 <g id="figure_1">
  <g id="patch_1">
   <path d="M 0 432 
L 720 432 
L 720 0 
L 0 0 
z
" style="fill: #ffffff"/>
  </g>
  <g id="axes_1">
   <g id="patch_2">
    <path d="M 50.96 273.056352 
L 709.2 273.056352 
L 709.2 26.88 
L 50.96 26.88 
z
" style="fill: #ffffff"/>
   </g>
   <g id="matplotlib.axis_1">
    <g id="xtick_1">
     <g id="line2d_1">
      <path d="M 80.88 273.056352 
L 80.88 26.88 
" clip-path="url(#pcd43db339c)" style="fill: none; stroke: #b0b0b0; stroke-opacity: 0.3; stroke-width: 0.8; stroke-linecap: square"/>
     </g>
     <g id="line2d_2">
      <defs>
       <path id="mfafe5ff90b" d="M 0 0 
L 0 3.5 
" style="stroke: #000000; stroke-width: 0.8"/>
      </defs>
      <g>
       <use xlink:href="#mfafe5ff90b" x="80.88" y="273.056352" style="stroke: #000000; stroke-width: 0.8"/>
      </g>
     </g>
    </g>
    <g id="xtick_2">
     <g id="line2d_3">
      <path d="M 155.493466 273.056352 
L 155.493466 26.88 
" clip-path="url(#pcd43db339c)" style="fill: none; stroke: #b0b0b0; stroke-opacity: 0.3; stroke-width: 0.8; stroke-linecap: square"/>
     </g>
     <g id="line2d_4">
      <g>
       <use xlink:href="#mfafe5ff90b" x="155.493466" y="273.056352" style="stroke: #000000; stroke-width: 0.8"/>
      </g>
     </g>
    </g>
    <g id="xtick_3">
     <g id="line2d_5">
      <path d="M 230.106933 273.056352 
L 230.106933 26.88 
" clip-path="url(#pcd43db339c)" style="fill: none; stroke: #b0b0b0; stroke-opacity: 0.3; stroke-width: 0.8; stroke-linecap: square"/>
     </g>
     <g id="line2d_6">
      <g>
       <use xlink:href="#mfafe5ff90b" x="230.106933" y="273.056352" style="stroke: #000000; stroke-width: 0.8"/>
      </g>
     </g>
    </g>
    <g id="xtick_4">
     <g id="line2d_7">
      <path d="M 304.720399 273.056352 
L 304.720399 26.88 
" clip-path="url(#pcd43db339c)" style="fill: none; stroke: #b0b0b0; stroke-opacity: 0.3; stroke-width: 0.8; stroke-linecap: square"/>
     </g>
     <g id="line2d_8">
      <g>
       <use xlink:href="#mfafe5ff90b" x="304.720399" y="273.056352" style="stroke: #000000; stroke-width: 0.8"/>
      </g>
     </g>
    </g>
    <g id="xtick_5">
     <g id="line2d_9">
      <path d="M 379.333865 273.056352 
L 379.333865 26.88 
" clip-path="url(#pcd43db339c)" style="fill: none; stroke: #b0b0b0; stroke-opacity: 0.3; stroke-width: 0.8; stroke-linecap: square"/>
     </g>
     <g id="line2d_10">
      <g>
       <use xlink:href="#mfafe5ff90b" x="379.333865" y="273.056352" style="stroke: #000000; stroke-width: 0.8"/>
      </g>
     </g>
    </g>
    <g id="xtick_6">
     <g id="line2d_11">
      <path d="M 453.947332 273.056352 
L 453.947332 26.88 
" clip-path="url(#pcd43db339c)" style="fill: none; stroke: #b0b0b0; stroke-opacity: 0.3; stroke-width: 0.8; stroke-linecap: square"/>
     </g>
     <g id="line2d_12">
      <g>
       <use xlink:href="#mfafe5ff90b" x="453.947332" y="273.056352" style="stroke: #000000; stroke-width: 0.8"/>
      </g>
     </g>
    </g>
    <g id="xtick_7">
     <g id="line2d_13">
      <path d="M 528.560798 273.056352 
L 528.560798 26.88 
" clip-path="url(#pcd43db339c)" style="fill: none; stroke: #b0b0b0; stroke-opacity: 0.3; stroke-width: 0.8; stroke-linecap: square"/>
     </g>
     <g id="line2d_14">
      <g>
       <use xlink:href="#mfafe5ff90b" x="528.560798" y="273.056352" style="stroke: #000000; stroke-width: 0.8"/>
      </g>
     </g>
    </g>
    <g id="xtick_8">
     <g id="line2d_15">
      <path d="M 603.174264 273.056352 
L 603.174264 26.88 
" clip-path="url(#pcd43db339c)" style="fill: none; stroke: #b0b0b0; stroke-opacity: 0.3; stroke-width: 0.8; stroke-linecap: square"/>
     </g>
     <g id="line2d_16">
      <g>
       <use xlink:href="#mfafe5ff90b" x="603.174264" y="273.056352" style="stroke: #000000; stroke-width: 0.8"/>
      </g>
     </g>
    </g>
    <g id="xtick_9">
     <g id="line2d_17">
      <path d="M 677.787731 273.056352 
L 677.787731 26.88 
" clip-path="url(#pcd43db339c)" style="fill: none; stroke: #b0b0b0; stroke-opacity: 0.3; stroke-width: 0.8; stroke-linecap: square"/>
     </g>
     <g id="line2d_18">
      <g>
       <use xlink:href="#mfafe5ff90b" x="677.787731" y="273.056352" style="stroke: #000000; stroke-width: 0.8"/>
      </g>
     </g>
    </g>
   </g>
   <g id="matplotlib.axis_2">
    <g id="ytick_1">
     <g id="line2d_19">
      <path d="M 50.96 270.16183 
L 709.2 270.16183 
" clip-path="url(#pcd43db339c)" style="fill: none; stroke: #b0b0b0; stroke-opacity: 0.3; stroke-width: 0.8; stroke-linecap: square"/>
     </g>
     <g id="line2d_20">
      <defs>
       <path id="m4579e69613" d="M 0 0 
L -3.5 0 
" style="stroke: #000000; stroke-width: 0.8"/>
      </defs>
      <g>
       <use xlink:href="#m4579e69613" x="50.96" y="270.16183" style="stroke: #000000; stroke-width: 0.8"/>
      </g>
     </g>
     <g id="text_1">
      <!-- 40 -->
      <g transform="translate(31.235 273.961049) scale(0.1 -0.1)">
       <defs>
        <path id="DejaVuSans-34" d="M 2419 4116 
L 825 1625 
L 2419 1625 
L 2419 4116 
z
M 2253 4666 
L 3047 4666 
L 3047 1625 
L 3713 1625 
L 3713 1100 
L 3047 1100 
L 3047 0 
L 2419 0 
L 2419 1100 
L 313 1100 
L 313 1709 
L 2253 4666 
z
" transform="scale(0.015625)"/>
        <path id="DejaVuSans-30" d="M 2034 4250 
Q 1547 4250 1301 3770 
Q 1056 3291 1056 2328 
Q 1056 1369 1301 889 
Q 1547 409 2034 409 
Q 2525 409 2770 889 
Q 3016 1369 3016 2328 
Q 3016 3291 2770 3770 
Q 2525 4250 2034 4250 
z
M 2034 4750 
Q 2819 4750 3233 4129 
Q 3647 3509 3647 2328 
Q 3647 1150 3233 529 
Q 2819 -91 2034 -91 
Q 1250 -91 836 529 
Q 422 1150 422 2328 
Q 422 3509 836 4129 
Q 1250 4750 2034 4750 
z
" transform="scale(0.015625)"/>
       </defs>
       <use xlink:href="#DejaVuSans-34"/>
       <use xlink:href="#DejaVuSans-30" transform="translate(63.623047 0)"/>
      </g>
     </g>
    </g>
    <g id="ytick_2">
     <g id="line2d_21">
      <path d="M 50.96 236.716665 
L 709.2 236.716665 
" clip-path="url(#pcd43db339c)" style="fill: none; stroke: #b0b0b0; stroke-opacity: 0.3; stroke-width: 0.8; stroke-linecap: square"/>
     </g>
     <g id="line2d_22">
      <g>
       <use xlink:href="#m4579e69613" x="50.96" y="236.716665" style="stroke: #000000; stroke-width: 0.8"/>
      </g>
     </g>
     <g id="text_2">
      <!-- 60 -->
      <g transform="translate(31.235 240.515883) scale(0.1 -0.1)">
       <defs>
        <path id="DejaVuSans-36" d="M 2113 2584 
Q 1688 2584 1439 2293 
Q 1191 2003 1191 1497 
Q 1191 994 1439 701 
Q 1688 409 2113 409 
Q 2538 409 2786 701 
Q 3034 994 3034 1497 
Q 3034 2003 2786 2293 
Q 2538 2584 2113 2584 
z
M 3366 4563 
L 3366 3988 
Q 3128 4100 2886 4159 
Q 2644 4219 2406 4219 
Q 1781 4219 1451 3797 
Q 1122 3375 1075 2522 
Q 1259 2794 1537 2939 
Q 1816 3084 2150 3084 
Q 2853 3084 3261 2657 
Q 3669 2231 3669 1497 
Q 3669 778 3244 343 
Q 2819 -91 2113 -91 
Q 1303 -91 875 529 
Q 447 1150 447 2328 
Q 447 3434 972 4092 
Q 1497 4750 2381 4750 
Q 2619 4750 2861 4703 
Q 3103 4656 3366 4563 
z
" transform="scale(0.015625)"/>
       </defs>
       <use xlink:href="#DejaVuSans-36"/>
       <use xlink:href="#DejaVuSans-30" transform="translate(63.623047 0)"/>
      </g>
     </g>
    </g>
    <g id="ytick_3">
     <g id="line2d_23">
      <path d="M 50.96 203.271499 
L 709.2 203.271499 
" clip-path="url(#pcd43db339c)" style="fill: none; stroke: #b0b0b0; stroke-opacity: 0.3; stroke-width: 0.8; stroke-linecap: square"/>
     </g>
     <g id="line2d_24">
      <g>
       <use xlink:href="#m4579e69613" x="50.96" y="203.271499" style="stroke: #000000; stroke-width: 0.8"/>
      </g>
     </g>
     <g id="text_3">
      <!-- 80 -->
      <g transform="translate(31.235 207.070718) scale(0.1 -0.1)">
       <defs>
        <path id="DejaVuSans-38" d="M 2034 2216 
Q 1584 2216 1326 1975 
Q 1069 1734 1069 1313 
Q 1069 891 1326 650 
Q 1584 409 2034 409 
Q 2484 409 2743 651 
Q 3003 894 3003 1313 
Q 3003 1734 2745 1975 
Q 2488 2216 2034 2216 
z
M 1403 2484 
Q 997 2584 770 2862 
Q 544 3141 544 3541 
Q 544 4100 942 4425 
Q 1341 4750 2034 4750 
Q 2731 4750 3128 4425 
Q 3525 4100 3525 3541 
Q 3525 3141 3298 2862 
Q 3072 2584 2669 2484 
Q 3125 2378 3379 2068 
Q 3634 1759 3634 1313 
Q 3634 634 3220 271 
Q 2806 -91 2034 -91 
Q 1263 -91 848 271 
Q 434 634 434 1313 
Q 434 1759 690 2068 
Q 947 2378 1403 2484 
z
M 1172 3481 
Q 1172 3119 1398 2916 
Q 1625 2713 2034 2713 
Q 2441 2713 2670 2916 
Q 2900 3119 2900 3481 
Q 2900 3844 2670 4047 
Q 2441 4250 2034 4250 
Q 1625 4250 1398 4047 
Q 1172 3844 1172 3481 
z
" transform="scale(0.015625)"/>
       </defs>
       <use xlink:href="#DejaVuSans-38"/>
       <use xlink:href="#DejaVuSans-30" transform="translate(63.623047 0)"/>
      </g>
     </g>
    </g>
    <g id="ytick_4">
     <g id="line2d_25">
      <path d="M 50.96 169.826334 
L 709.2 169.826334 
" clip-path="url(#pcd43db339c)" style="fill: none; stroke: #b0b0b0; stroke-opacity: 0.3; stroke-width: 0.8; stroke-linecap: square"/>
     </g>
     <g id="line2d_26">
      <g>
       <use xlink:href="#m4579e69613" x="50.96" y="169.826334" style="stroke: #000000; stroke-width: 0.8"/>
      </g>
     </g>
     <g id="text_4">
      <!-- 100 -->
      <g transform="translate(24.8725 173.625553) scale(0.1 -0.1)">
       <defs>
        <path id="DejaVuSans-31" d="M 794 531 
L 1825 531 
L 1825 4091 
L 703 3866 
L 703 4441 
L 1819 4666 
L 2450 4666 
L 2450 531 
L 3481 531 
L 3481 0 
L 794 0 
L 794 531 
z
" transform="scale(0.015625)"/>
       </defs>
       <use xlink:href="#DejaVuSans-31"/>
       <use xlink:href="#DejaVuSans-30" transform="translate(63.623047 0)"/>
       <use xlink:href="#DejaVuSans-30" transform="translate(127.246094 0)"/>
      </g>
     </g>
    </g>
    <g id="ytick_5">
     <g id="line2d_27">
      <path d="M 50.96 136.381169 
L 709.2 136.381169 
" clip-path="url(#pcd43db339c)" style="fill: none; stroke: #b0b0b0; stroke-opacity: 0.3; stroke-width: 0.8; stroke-linecap: square"/>
     </g>
     <g id="line2d_28">
      <g>
       <use xlink:href="#m4579e69613" x="50.96" y="136.381169" style="stroke: #000000; stroke-width: 0.8"/>
      </g>
     </g>
     <g id="text_5">
      <!-- 120 -->
      <g transform="translate(24.8725 140.180388) scale(0.1 -0.1)">
       <defs>
        <path id="DejaVuSans-32" d="M 1228 531 
L 3431 531 
L 3431 0 
L 469 0 
L 469 531 
Q 828 903 1448 1529 
Q 2069 2156 2228 2338 
Q 2531 2678 2651 2914 
Q 2772 3150 2772 3378 
Q 2772 3750 2511 3984 
Q 2250 4219 1831 4219 
Q 1534 4219 1204 4116 
Q 875 4013 500 3803 
L 500 4441 
Q 881 4594 1212 4672 
Q 1544 4750 1819 4750 
Q 2544 4750 2975 4387 
Q 3406 4025 3406 3419 
Q 3406 3131 3298 2873 
Q 3191 2616 2906 2266 
Q 2828 2175 2409 1742 
Q 1991 1309 1228 531 
z
" transform="scale(0.015625)"/>
       </defs>
       <use xlink:href="#DejaVuSans-31"/>
       <use xlink:href="#DejaVuSans-32" transform="translate(63.623047 0)"/>
       <use xlink:href="#DejaVuSans-30" transform="translate(127.246094 0)"/>
      </g>
     </g>
    </g>
    <g id="ytick_6">
     <g id="line2d_29">
      <path d="M 50.96 102.936004 
L 709.2 102.936004 
" clip-path="url(#pcd43db339c)" style="fill: none; stroke: #b0b0b0; stroke-opacity: 0.3; stroke-width: 0.8; stroke-linecap: square"/>
     </g>
     <g id="line2d_30">
      <g>
       <use xlink:href="#m4579e69613" x="50.96" y="102.936004" style="stroke: #000000; stroke-width: 0.8"/>
      </g>
     </g>
     <g id="text_6">
      <!-- 140 -->
      <g transform="translate(24.8725 106.735223) scale(0.1 -0.1)">
       <use xlink:href="#DejaVuSans-31"/>
       <use xlink:href="#DejaVuSans-34" transform="translate(63.623047 0)"/>
       <use xlink:href="#DejaVuSans-30" transform="translate(127.246094 0)"/>
      </g>
     </g>
    </g>
    <g id="ytick_7">
     <g id="line2d_31">
      <path d="M 50.96 69.490839 
L 709.2 69.490839 
" clip-path="url(#pcd43db339c)" style="fill: none; stroke: #b0b0b0; stroke-opacity: 0.3; stroke-width: 0.8; stroke-linecap: square"/>
     </g>
     <g id="line2d_32">
      <g>
       <use xlink:href="#m4579e69613" x="50.96" y="69.490839" style="stroke: #000000; stroke-width: 0.8"/>
      </g>
     </g>
     <g id="text_7">
      <!-- 160 -->
      <g transform="translate(24.8725 73.290057) scale(0.1 -0.1)">
       <use xlink:href="#DejaVuSans-31"/>
       <use xlink:href="#DejaVuSans-36" transform="translate(63.623047 0)"/>
       <use xlink:href="#DejaVuSans-30" transform="translate(127.246094 0)"/>
      </g>
     </g>
    </g>
    <g id="ytick_8">
     <g id="line2d_33">
      <path d="M 50.96 36.045674 
L 709.2 36.045674 
" clip-path="url(#pcd43db339c)" style="fill: none; stroke: #b0b0b0; stroke-opacity: 0.3; stroke-width: 0.8; stroke-linecap: square"/>
     </g>
     <g id="line2d_34">
      <g>
       <use xlink:href="#m4579e69613" x="50.96" y="36.045674" style="stroke: #000000; stroke-width: 0.8"/>
      </g>
     </g>
     <g id="text_8">
      <!-- 180 -->
      <g transform="translate(24.8725 39.844892) scale(0.1 -0.1)">
       <use xlink:href="#DejaVuSans-31"/>
       <use xlink:href="#DejaVuSans-38" transform="translate(63.623047 0)"/>
       <use xlink:href="#DejaVuSans-30" transform="translate(127.246094 0)"/>
      </g>
     </g>
    </g>
    <g id="text_9">
     <!-- speed [km/h] -->
     <g transform="translate(18.792813 183.183801) rotate(-90) scale(0.1 -0.1)">
      <defs>
       <path id="DejaVuSans-73" d="M 2834 3397 
L 2834 2853 
Q 2591 2978 2328 3040 
Q 2066 3103 1784 3103 
Q 1356 3103 1142 2972 
Q 928 2841 928 2578 
Q 928 2378 1081 2264 
Q 1234 2150 1697 2047 
L 1894 2003 
Q 2506 1872 2764 1633 
Q 3022 1394 3022 966 
Q 3022 478 2636 193 
Q 2250 -91 1575 -91 
Q 1294 -91 989 -36 
Q 684 19 347 128 
L 347 722 
Q 666 556 975 473 
Q 1284 391 1588 391 
Q 1994 391 2212 530 
Q 2431 669 2431 922 
Q 2431 1156 2273 1281 
Q 2116 1406 1581 1522 
L 1381 1569 
Q 847 1681 609 1914 
Q 372 2147 372 2553 
Q 372 3047 722 3315 
Q 1072 3584 1716 3584 
Q 2034 3584 2315 3537 
Q 2597 3491 2834 3397 
z
" transform="scale(0.015625)"/>
       <path id="DejaVuSans-70" d="M 1159 525 
L 1159 -1331 
L 581 -1331 
L 581 3500 
L 1159 3500 
L 1159 2969 
Q 1341 3281 1617 3432 
Q 1894 3584 2278 3584 
Q 2916 3584 3314 3078 
Q 3713 2572 3713 1747 
Q 3713 922 3314 415 
Q 2916 -91 2278 -91 
Q 1894 -91 1617 61 
Q 1341 213 1159 525 
z
M 3116 1747 
Q 3116 2381 2855 2742 
Q 2594 3103 2138 3103 
Q 1681 3103 1420 2742 
Q 1159 2381 1159 1747 
Q 1159 1113 1420 752 
Q 1681 391 2138 391 
Q 2594 391 2855 752 
Q 3116 1113 3116 1747 
z
" transform="scale(0.015625)"/>
       <path id="DejaVuSans-65" d="M 3597 1894 
L 3597 1613 
L 953 1613 
Q 991 1019 1311 708 
Q 1631 397 2203 397 
Q 2534 397 2845 478 
Q 3156 559 3463 722 
L 3463 178 
Q 3153 47 2828 -22 
Q 2503 -91 2169 -91 
Q 1331 -91 842 396 
Q 353 884 353 1716 
Q 353 2575 817 3079 
Q 1281 3584 2069 3584 
Q 2775 3584 3186 3129 
Q 3597 2675 3597 1894 
z
M 3022 2063 
Q 3016 2534 2758 2815 
Q 2500 3097 2075 3097 
Q 1594 3097 1305 2825 
Q 1016 2553 972 2059 
L 3022 2063 
z
" transform="scale(0.015625)"/>
       <path id="DejaVuSans-64" d="M 2906 2969 
L 2906 4863 
L 3481 4863 
L 3481 0 
L 2906 0 
L 2906 525 
Q 2725 213 2448 61 
Q 2172 -91 1784 -91 
Q 1150 -91 751 415 
Q 353 922 353 1747 
Q 353 2572 751 3078 
Q 1150 3584 1784 3584 
Q 2172 3584 2448 3432 
Q 2725 3281 2906 2969 
z
M 947 1747 
Q 947 1113 1208 752 
Q 1469 391 1925 391 
Q 2381 391 2643 752 
Q 2906 1113 2906 1747 
Q 2906 2381 2643 2742 
Q 2381 3103 1925 3103 
Q 1469 3103 1208 2742 
Q 947 2381 947 1747 
z
" transform="scale(0.015625)"/>
       <path id="DejaVuSans-20" transform="scale(0.015625)"/>
       <path id="DejaVuSans-5b" d="M 550 4863 
L 1875 4863 
L 1875 4416 
L 1125 4416 
L 1125 -397 
L 1875 -397 
L 1875 -844 
L 550 -844 
L 550 4863 
z
" transform="scale(0.015625)"/>
       <path id="DejaVuSans-6b" d="M 581 4863 
L 1159 4863 
L 1159 1991 
L 2875 3500 
L 3609 3500 
L 1753 1863 
L 3688 0 
L 2938 0 
L 1159 1709 
L 1159 0 
L 581 0 
L 581 4863 
z
" transform="scale(0.015625)"/>
       <path id="DejaVuSans-6d" d="M 3328 2828 
Q 3544 3216 3844 3400 
Q 4144 3584 4550 3584 
Q 5097 3584 5394 3201 
Q 5691 2819 5691 2113 
L 5691 0 
L 5113 0 
L 5113 2094 
Q 5113 2597 4934 2840 
Q 4756 3084 4391 3084 
Q 3944 3084 3684 2787 
Q 3425 2491 3425 1978 
L 3425 0 
L 2847 0 
L 2847 2094 
Q 2847 2600 2669 2842 
Q 2491 3084 2119 3084 
Q 1678 3084 1418 2786 
Q 1159 2488 1159 1978 
L 1159 0 
L 581 0 
L 581 3500 
L 1159 3500 
L 1159 2956 
Q 1356 3278 1631 3431 
Q 1906 3584 2284 3584 
Q 2666 3584 2933 3390 
Q 3200 3197 3328 2828 
z
" transform="scale(0.015625)"/>
       <path id="DejaVuSans-2f" d="M 1625 4666 
L 2156 4666 
L 531 -594 
L 0 -594 
L 1625 4666 
z
" transform="scale(0.015625)"/>
       <path id="DejaVuSans-68" d="M 3513 2113 
L 3513 0 
L 2938 0 
L 2938 2094 
Q 2938 2591 2744 2837 
Q 2550 3084 2163 3084 
Q 1697 3084 1428 2787 
Q 1159 2491 1159 1978 
L 1159 0 
L 581 0 
L 581 4863 
L 1159 4863 
L 1159 2956 
Q 1366 3272 1645 3428 
Q 1925 3584 2291 3584 
Q 2894 3584 3203 3211 
Q 3513 2838 3513 2113 
z
" transform="scale(0.015625)"/>
       <path id="DejaVuSans-5d" d="M 1947 4863 
L 1947 -844 
L 622 -844 
L 622 -397 
L 1369 -397 
L 1369 4416 
L 622 4416 
L 622 4863 
L 1947 4863 
z
" transform="scale(0.015625)"/>
      </defs>
      <use xlink:href="#DejaVuSans-73"/>
      <use xlink:href="#DejaVuSans-70" transform="translate(52.099609 0)"/>
      <use xlink:href="#DejaVuSans-65" transform="translate(115.576172 0)"/>
      <use xlink:href="#DejaVuSans-65" transform="translate(177.099609 0)"/>
      <use xlink:href="#DejaVuSans-64" transform="translate(238.623047 0)"/>
      <use xlink:href="#DejaVuSans-20" transform="translate(302.099609 0)"/>
      <use xlink:href="#DejaVuSans-5b" transform="translate(333.886719 0)"/>
      <use xlink:href="#DejaVuSans-6b" transform="translate(372.900391 0)"/>
      <use xlink:href="#DejaVuSans-6d" transform="translate(430.810547 0)"/>
      <use xlink:href="#DejaVuSans-2f" transform="translate(528.222656 0)"/>
      <use xlink:href="#DejaVuSans-68" transform="translate(561.914062 0)"/>
      <use xlink:href="#DejaVuSans-5d" transform="translate(625.292969 0)"/>
     </g>
    </g>
   </g>
   <g id="line2d_35">
    <path d="M 80.88 57.061129 
L 85.649765 51.810694 
L 90.511864 46.797554 
L 95.462853 42.007551 
L 99.77458 38.069834 
L 100.136648 38.09907 
L 100.499116 39.672209 
L 107.277284 91.419772 
L 110.936978 121.158382 
L 112.81388 136.339476 
L 113.117799 136.856697 
L 114.892712 136.762322 
L 115.181305 136.702982 
L 115.468066 136.4433 
L 116.03647 135.294109 
L 120.423071 124.828893 
L 128.751431 106.554047 
L 132.363006 99.391412 
L 135.791514 93.087006 
L 137.540783 90.080186 
L 139.908238 87.090186 
L 143.835729 80.875583 
L 147.855621 74.96908 
L 151.650755 69.741702 
L 152.933884 68.135682 
L 154.875081 66.277871 
L 157.822441 62.641706 
L 158.152523 63.022394 
L 158.483077 64.881798 
L 163.392477 105.205258 
L 167.093412 137.350877 
L 169.935776 164.253046 
L 172.274907 188.607711 
L 174.166303 210.51839 
L 178.25486 260.606042 
L 178.57886 261.00552 
L 179.19645 261.155427 
L 180.056337 261.416638 
L 181.22465 261.827373 
L 181.468368 261.473841 
L 181.706796 260.218146 
L 182.166748 255.78564 
L 184.677263 228.083365 
L 186.046452 213.26075 
L 187.245346 201.703597 
L 188.470964 192.017781 
L 189.990342 182.031087 
L 191.486067 173.53925 
L 193.278072 164.712178 
L 195.196293 156.428288 
L 197.231269 148.617024 
L 199.375256 141.221671 
L 201.851656 133.51543 
L 203.016139 130.144877 
L 203.251858 129.863076 
L 203.488506 130.555072 
L 203.964426 135.142033 
L 206.352164 160.598446 
L 207.752318 175.578833 
L 213.958996 245.259633 
L 214.287738 246.357826 
L 214.608024 246.552303 
L 215.523133 246.486832 
L 215.95789 246.478939 
L 216.240296 246.277446 
L 216.517304 245.566713 
L 216.924073 243.691162 
L 217.96955 236.986088 
L 221.009094 215.992204 
L 221.875551 210.979609 
L 222.907041 202.78622 
L 224.474389 190.636317 
L 225.905099 181.370657 
L 227.45397 172.766549 
L 229.110056 164.708512 
L 231.06636 156.308954 
L 233.136552 148.410225 
L 235.313383 140.956243 
L 237.823544 133.205366 
L 240.447731 125.854619 
L 243.17943 118.875464 
L 246.012996 112.232642 
L 248.943275 105.89694 
L 252.244762 99.306409 
L 255.650257 93.024149 
L 259.154715 87.026553 
L 262.753501 81.300824 
L 267.69124 74.081858 
L 269.265609 71.882409 
L 269.582209 73.304323 
L 270.216645 79.64163 
L 275.812443 127.94516 
L 278.697696 154.735273 
L 282.339984 189.637529 
L 283.518411 197.388992 
L 284.635168 203.604035 
L 285.06557 204.841244 
L 285.487283 205.284287 
L 286.507428 205.695945 
L 287.485498 205.696896 
L 288.427018 205.464986 
L 289.868424 205.853175 
L 290.215952 205.626987 
L 290.727738 204.784031 
L 293.145388 199.278932 
L 293.755979 197.592747 
L 294.800863 193.367158 
L 295.097634 192.397238 
L 295.246459 192.416275 
L 295.395777 192.788902 
L 295.696439 194.383351 
L 298.67607 213.311845 
L 298.991068 213.471525 
L 299.461275 213.414206 
L 299.928809 213.450442 
L 300.239051 213.262237 
L 300.548226 212.450991 
L 301.010498 210.331202 
L 302.242358 203.531889 
L 302.396911 203.369998 
L 302.551619 204.222021 
L 303.630688 214.741889 
L 303.935631 215.971706 
L 304.238859 216.217444 
L 305.141387 216.275732 
L 305.5904 216.157921 
L 305.889515 215.71767 
L 306.338299 214.373265 
L 306.937369 211.587443 
L 309.358895 198.345969 
L 309.51296 198.358631 
L 309.66749 198.741537 
L 309.977814 200.555695 
L 310.758179 205.928195 
L 311.696803 210.701189 
L 312.009305 211.648291 
L 312.321451 211.919786 
L 313.255475 212.075802 
L 313.565792 211.995609 
L 313.875492 211.397176 
L 314.339058 209.4503 
L 315.11089 205.025811 
L 318.11241 185.314175 
L 320.171182 173.680395 
L 322.023678 164.67186 
L 323.994175 156.246946 
L 326.076286 148.326593 
L 328.263595 140.847498 
L 330.55019 133.758914 
L 333.173778 126.363529 
L 335.904729 119.346242 
L 338.73737 112.670522 
L 341.666586 106.306038 
L 344.966788 99.687172 
L 345.527069 98.482719 
L 345.808282 97.781642 
L 346.090208 98.747205 
L 348.354147 120.115728 
L 353.735591 171.971483 
L 355.675978 189.80648 
L 355.908418 191.217687 
L 356.13861 191.821662 
L 356.592502 192.083827 
L 357.907945 192.091921 
L 358.121226 191.672182 
L 358.543349 190.570367 
L 358.752348 191.036832 
L 360.17746 199.405769 
L 360.7672 202.53424 
L 361.344664 204.204043 
L 361.910413 205.332011 
L 362.280918 205.687218 
L 363.006435 205.961048 
L 363.712746 206.06653 
L 364.059148 205.831277 
L 364.570992 204.97443 
L 366.871954 200.021192 
L 367.354957 198.543032 
L 367.837813 196.834453 
L 367.99899 196.944705 
L 368.321727 198.104692 
L 369.772937 205.520429 
L 370.889481 212.128155 
L 371.205235 212.685021 
L 372.456395 212.575339 
L 372.611857 212.353793 
L 372.922293 211.361482 
L 374.006574 206.194554 
L 375.250057 200.78137 
L 376.033723 198.28219 
L 376.507558 197.462103 
L 377.144095 196.420436 
L 377.625396 195.560405 
L 377.786648 195.970351 
L 378.272449 198.342484 
L 378.597522 198.528258 
L 378.923375 198.622476 
L 379.413378 199.231662 
L 379.74064 199.835825 
L 380.068134 201.105535 
L 380.395513 202.586977 
L 380.722478 203.008191 
L 381.211901 203.172168 
L 382.02507 203.186172 
L 382.349572 202.887038 
L 382.997694 201.839729 
L 383.645293 200.489049 
L 384.617466 197.772631 
L 385.430411 195.473278 
L 385.920206 194.635082 
L 386.41168 194.52983 
L 386.740213 193.969601 
L 387.069537 193.064976 
L 387.731451 190.209949 
L 389.591481 180.040885 
L 391.736753 169.079774 
L 393.652103 160.384167 
L 395.682391 152.220121 
L 397.820106 144.525634 
L 400.0595 137.247718 
L 402.633828 129.666279 
L 405.318075 122.480522 
L 408.10635 115.652422 
L 410.993341 109.149003 
L 413.97422 102.942587 
L 417.327999 96.48572 
L 420.783039 90.325617 
L 424.334526 84.441761 
L 427.978028 78.814838 
L 431.709459 73.454399 
L 436.168827 67.456837 
L 436.491582 67.672061 
L 437.786135 78.432695 
L 443.467204 126.797864 
L 446.384058 153.628891 
L 449.062408 180.501391 
L 450.780044 197.2316 
L 453.212913 218.428281 
L 453.62137 220.417367 
L 454.020041 220.760947 
L 455.163947 220.881661 
L 455.529832 220.812109 
L 455.888739 220.369595 
L 456.415007 219.011111 
L 458.251911 213.244997 
L 458.412605 213.247745 
L 458.730763 214.103066 
L 459.044485 215.452602 
L 459.957674 221.302277 
L 460.398305 221.513128 
L 461.25241 221.579039 
L 461.943719 221.451303 
L 462.216684 221.154076 
L 462.623626 220.097756 
L 463.573179 216.525683 
L 464.541711 212.079196 
L 466.266946 202.887227 
L 467.625815 194.065109 
L 469.562035 181.836958 
L 471.130125 173.370824 
L 472.989578 164.402857 
L 474.965242 156.017873 
L 477.05163 148.112468 
L 479.692954 138.578997 
L 479.919559 138.643217 
L 480.604419 145.526191 
L 482.210196 161.080892 
L 482.893131 165.944093 
L 483.345014 168.11246 
L 483.793864 169.133957 
L 484.461518 169.449996 
L 484.903122 169.46742 
L 485.342161 169.461198 
L 485.560782 169.724165 
L 485.996264 171.144419 
L 486.429289 173.133814 
L 486.859604 175.429386 
L 487.07365 175.802035 
L 487.499492 176.00262 
L 488.551226 176.040393 
L 488.759398 175.739241 
L 489.173695 174.368502 
L 489.37988 174.156019 
L 489.585454 174.507106 
L 489.994724 176.079979 
L 490.401319 178.332305 
L 490.804932 180.987031 
L 491.005508 181.516331 
L 491.404182 181.761623 
L 492.3876 181.839188 
L 492.582382 181.804108 
L 492.776654 181.493955 
L 493.163927 180.426403 
L 493.357089 180.253885 
L 493.742705 180.712911 
L 494.12735 181.182816 
L 494.894216 181.51481 
L 496.422457 181.437187 
L 496.612985 181.121572 
L 497.945208 177.131834 
L 498.516818 175.469008 
L 498.707618 175.326539 
L 498.898564 176.321929 
L 499.471443 180.545433 
L 500.042712 183.27596 
L 500.42206 183.691428 
L 501.365305 183.845525 
L 501.740936 183.700862 
L 502.115915 183.064296 
L 502.86524 180.939058 
L 503.992567 177.80932 
L 504.937887 175.400765 
L 505.317626 174.448534 
L 505.507859 174.524298 
L 505.888929 175.944171 
L 506.842396 179.656377 
L 507.223096 179.942644 
L 508.362858 179.93557 
L 508.742545 179.261836 
L 509.312598 178.272731 
L 509.88382 177.54082 
L 510.456489 177.141261 
L 511.414131 175.632382 
L 512.760755 173.53794 
L 513.532688 172.69026 
L 514.499727 172.094695 
L 515.081124 171.224768 
L 515.663734 169.987915 
L 516.053022 170.181406 
L 516.833374 170.632199 
L 517.419784 170.807427 
L 518.399038 170.65571 
L 518.791555 170.425917 
L 519.578487 169.187077 
L 519.775707 169.308574 
L 519.973114 169.995322 
L 520.565808 174.95298 
L 522.133989 188.345578 
L 522.52047 190.424806 
L 522.904219 191.391062 
L 523.28529 191.720031 
L 524.227493 192.099477 
L 524.600644 192.170368 
L 524.78652 192.081916 
L 524.971981 191.820925 
L 525.341834 190.692403 
L 527.918693 180.954352 
L 528.102923 180.821374 
L 528.287209 181.160691 
L 528.655792 183.216966 
L 529.938576 193.878612 
L 530.120046 194.59816 
L 530.481453 194.945615 
L 531.556505 195.023598 
L 531.734772 194.959715 
L 532.090807 194.393464 
L 532.446403 193.243687 
L 533.335375 189.33949 
L 534.76517 182.795321 
L 536.944684 174.275569 
L 539.609055 162.231205 
L 539.806437 162.175952 
L 540.004762 163.086558 
L 540.403776 167.507316 
L 544.680068 221.539479 
L 545.562194 228.704584 
L 546.886674 237.5269 
L 548.543709 247.514433 
L 548.825352 248.42841 
L 549.101314 248.745337 
L 549.505831 248.897609 
L 550.028449 249.055207 
L 550.407916 249.269609 
L 550.654986 249.090069 
L 550.897426 248.376135 
L 551.36922 245.595455 
L 552.49053 238.533866 
L 552.599908 238.625116 
L 552.926472 240.401778 
L 553.142808 241.36872 
L 553.57253 241.620429 
L 554.426357 241.902316 
L 554.639433 241.830266 
L 554.74605 241.713732 
L 554.959678 240.799663 
L 555.390474 236.998818 
L 556.398228 226.050153 
L 557.610939 212.776561 
L 558.949927 200.620293 
L 560.284623 190.525141 
L 561.736809 181.237438 
L 563.299828 172.611332 
L 564.967122 164.539545 
L 566.934196 156.127946 
L 569.014093 148.221169 
L 571.19977 140.754108 
L 573.485068 133.675329 
L 576.107486 126.288975 
L 578.837461 119.279549 
L 581.931579 111.931502 
L 582.19468 111.401337 
L 582.458571 112.393878 
L 583.519052 124.133188 
L 587.917 169.170216 
L 591.394297 205.61317 
L 592.029494 210.544908 
L 592.236688 211.466416 
L 592.644514 211.937972 
L 593.240953 212.061652 
L 594.199191 212.064427 
L 594.571566 211.867894 
L 594.938497 211.375931 
L 595.479826 210.014292 
L 596.186907 207.456045 
L 597.220573 203.467619 
L 597.558267 202.74494 
L 597.725807 203.113041 
L 598.386503 207.532131 
L 599.031189 207.829209 
L 599.818379 207.943381 
L 600.128551 207.794251 
L 600.436328 207.27011 
L 601.04573 205.465591 
L 602.108926 201.580537 
L 603.04027 198.343501 
L 604.154191 195.393494 
L 604.315404 195.16097 
L 604.477096 195.266863 
L 604.801711 197.410381 
L 605.778552 205.644761 
L 607.065934 215.235577 
L 607.382736 216.526057 
L 607.697298 216.860951 
L 608.320103 217.016926 
L 608.782262 217.153427 
L 609.088336 216.966099 
L 609.393011 216.073387 
L 610.30189 211.561052 
L 611.512245 205.829394 
L 612.424459 201.658258 
L 613.972289 194.509292 
L 614.288535 193.67328 
L 614.447656 193.484423 
L 614.607454 193.547919 
L 614.767923 193.922787 
L 615.415478 197.24287 
L 616.232767 201.082142 
L 616.56069 201.545179 
L 617.381676 201.601095 
L 617.874643 201.515039 
L 618.203248 201.159683 
L 618.696032 200.229386 
L 619.188845 198.907229 
L 620.011317 195.823733 
L 621.003472 191.028387 
L 625.922177 165.222241 
L 627.885558 156.766059 
L 629.96095 148.816059 
L 632.141901 141.355148 
L 634.655716 133.552821 
L 637.282794 126.168778 
L 640.016845 119.161228 
L 641.551262 115.705044 
L 643.114928 112.309268 
L 646.054779 105.954984 
L 649.363171 99.359909 
L 651.911728 94.655003 
L 655.396341 88.958149 
L 658.97492 83.139089 
L 662.950225 77.118085 
L 665.761456 73.189423 
L 666.3926 72.614155 
L 667.026032 72.208253 
L 667.980317 71.087051 
L 673.47843 63.975719 
L 678.446122 58.042934 
L 679.28 57.087615 
L 679.28 57.087615 
" clip-path="url(#pcd43db339c)" style="fill: none; stroke-dasharray: 3.33,1.44; stroke-dashoffset: 0; stroke: #000000; stroke-width: 0.9"/>
   </g>
   <g id="line2d_36">
    <path d="M 80.88 64.882095 
L 86.338773 58.712485 
L 91.565429 53.152648 
L 96.534999 48.17798 
L 100.499116 44.457547 
L 100.861876 44.290275 
L 101.224755 44.265967 
L 101.587578 44.37688 
L 102.312424 44.970797 
L 103.035228 46.015349 
L 103.754936 47.461801 
L 104.826657 50.293019 
L 105.886541 53.810617 
L 107.277284 59.394391 
L 108.638182 65.821429 
L 110.29165 74.80465 
L 112.198359 86.66424 
L 114.309689 100.209337 
L 115.753087 107.759791 
L 116.877828 112.381793 
L 117.70805 115.042895 
L 118.529574 117.093479 
L 119.344694 118.623093 
L 121.759058 122.291213 
L 122.29207 122.773121 
L 122.824998 122.853087 
L 123.358143 122.427201 
L 124.426443 121.017455 
L 124.962106 120.68455 
L 126.036651 120.162915 
L 126.575916 119.620812 
L 127.387927 118.27735 
L 128.751431 115.86466 
L 130.683689 112.759274 
L 133.211353 108.095153 
L 138.719703 98.262529 
L 143.225081 91.170111 
L 144.755417 89.026723 
L 146.60895 86.65977 
L 149.742937 81.892895 
L 154.550211 75.147352 
L 158.152523 70.534147 
L 158.813969 70.009843 
L 159.145015 69.960539 
L 159.476017 70.054171 
L 159.806775 70.287433 
L 160.46688 71.155737 
L 161.124299 72.507448 
L 162.103649 75.1779 
L 163.392477 79.457735 
L 164.343237 83.367595 
L 165.585799 89.612007 
L 167.388354 100.056192 
L 168.828049 109.565811 
L 170.47426 121.942329 
L 172.274907 137.21171 
L 173.93984 153.172661 
L 175.670633 171.848096 
L 177.573629 195.070988 
L 180.056337 226.308108 
L 181.22465 238.022654 
L 182.708372 249.497939 
L 183.216488 251.778308 
L 183.703744 253.281913 
L 183.992062 253.585082 
L 184.184997 253.455764 
L 184.478202 252.864806 
L 185.29313 250.394165 
L 185.610763 248.93356 
L 186.046452 245.727072 
L 189.363705 213.06308 
L 190.640829 203.415178 
L 192.187025 193.461131 
L 193.840761 184.216524 
L 195.594215 175.589953 
L 197.651572 166.621868 
L 199.816534 158.212153 
L 202.082654 150.287531 
L 203.726068 145.029628 
L 204.203376 144.071584 
L 204.68228 143.728482 
L 204.921877 143.762767 
L 205.400565 144.192373 
L 205.877651 145.044014 
L 206.58819 146.987169 
L 207.290221 149.605452 
L 208.208886 154.061566 
L 209.322303 160.907531 
L 210.597543 170.420547 
L 211.990777 182.674147 
L 213.791325 200.869276 
L 215.375024 216.91778 
L 216.517304 226.368575 
L 217.190428 230.322654 
L 218.222573 234.740408 
L 218.841536 236.418997 
L 219.566576 237.429046 
L 219.925362 237.562527 
L 220.164417 237.413887 
L 220.524344 236.857549 
L 221.254128 235.065421 
L 222.001536 232.634385 
L 222.512864 230.106997 
L 223.041147 226.304448 
L 225.576448 205.533978 
L 227.100197 195.391245 
L 228.733199 186.021363 
L 230.467152 177.295512 
L 232.503987 168.23163 
L 234.649529 159.73812 
L 236.897198 151.740741 
L 239.241224 144.18042 
L 241.924792 136.318623 
L 244.712724 128.866164 
L 247.599649 121.789964 
L 250.580683 115.055234 
L 253.651378 108.632579 
L 257.098696 101.95258 
L 260.642999 95.586271 
L 264.279805 89.510026 
L 268.004948 83.704179 
L 269.582209 81.380431 
L 269.899293 81.073087 
L 270.216645 80.943288 
L 270.534075 80.953415 
L 271.168518 81.351931 
L 271.801402 82.203934 
L 272.431644 83.464813 
L 273.369978 86.039293 
L 274.297395 89.319449 
L 275.512853 94.603849 
L 276.699904 100.748418 
L 278.137966 109.40082 
L 279.7888 120.892642 
L 281.601918 135.378866 
L 286.307003 174.683752 
L 287.676566 183.529105 
L 288.611533 188.495543 
L 292.363146 206.678781 
L 294.056923 213.393773 
L 294.504211 214.444604 
L 294.800863 214.651602 
L 295.097634 214.390755 
L 295.395777 213.678694 
L 296.000594 211.273048 
L 296.619757 209.226459 
L 297.091259 208.337837 
L 297.407785 208.039773 
L 297.725196 207.977433 
L 298.042761 208.136484 
L 298.518117 208.749862 
L 300.548226 211.947198 
L 301.010498 212.312378 
L 301.318167 212.36268 
L 301.779752 212.158566 
L 302.396911 211.46665 
L 302.706401 211.241744 
L 303.01571 211.425249 
L 303.477542 212.279437 
L 304.69118 215.090441 
L 305.141387 215.553332 
L 305.739962 215.805991 
L 306.338299 215.874361 
L 306.937369 215.682628 
L 307.537881 215.182407 
L 308.140715 214.379431 
L 308.899413 212.91907 
L 310.133496 210.322435 
L 310.60182 210.039453 
L 311.227549 210.015627 
L 311.853096 210.262089 
L 313.410709 211.406806 
L 314.184637 211.95256 
L 314.647747 212.005302 
L 315.11089 211.780414 
L 315.575024 211.233903 
L 316.197187 210.025738 
L 316.983879 207.871434 
L 317.94865 204.67239 
L 318.610084 201.54897 
L 321.082308 187.572155 
L 322.994565 178.039793 
L 325.021688 169.036567 
L 327.157174 160.550742 
L 329.394828 152.542142 
L 331.729033 144.962948 
L 334.402165 137.070034 
L 337.180006 129.594882 
L 340.057149 122.496341 
L 343.028701 115.739876 
L 346.090208 109.300721 
L 346.655837 108.53531 
L 346.93917 108.384192 
L 347.222602 108.372557 
L 347.505967 108.490621 
L 348.071882 109.08604 
L 348.635773 110.115857 
L 349.47562 112.371912 
L 350.305675 115.362541 
L 351.392888 120.303019 
L 352.713791 127.687815 
L 354.233934 137.754236 
L 356.13861 152.21678 
L 357.476552 161.677341 
L 358.543349 167.900644 
L 360.375473 177.898016 
L 361.534568 184.084415 
L 364.739707 200.109613 
L 365.571127 202.928351 
L 366.22494 204.446687 
L 366.710645 205.174888 
L 367.194056 205.475293 
L 367.515841 205.46667 
L 368.644726 205.007101 
L 369.129008 205.222669 
L 369.61225 205.724473 
L 370.253432 206.840143 
L 371.832668 209.938672 
L 372.767148 211.058751 
L 373.232259 211.384881 
L 373.69681 211.440238 
L 374.161555 211.24671 
L 374.782621 210.678676 
L 375.719448 209.441688 
L 376.984433 207.340793 
L 378.272449 205.043066 
L 379.249905 204.220086 
L 379.74064 204.020967 
L 380.068134 204.022747 
L 380.559058 204.304552 
L 381.862664 205.13993 
L 382.835736 205.516802 
L 383.483405 205.554337 
L 384.131114 205.381487 
L 384.77977 204.984286 
L 385.756753 204.03633 
L 387.565471 202.00403 
L 388.231853 200.590489 
L 389.076559 198.068615 
L 390.28992 193.5918 
L 391.368113 188.863084 
L 394.653443 173.210706 
L 396.738185 164.551264 
L 398.927441 156.34975 
L 401.215618 148.584345 
L 403.840684 140.502323 
L 406.572907 132.856092 
L 409.406681 125.599968 
L 412.336921 118.699138 
L 415.358996 112.122656 
L 418.755578 105.287272 
L 422.251369 98.77728 
L 425.84171 92.567725 
L 429.522331 86.634329 
L 433.289254 80.959916 
L 436.491582 76.418297 
L 437.138505 75.828278 
L 437.462321 75.759567 
L 437.786135 75.826962 
L 438.433116 76.339997 
L 439.078266 77.30497 
L 439.720535 78.666435 
L 440.676496 81.361615 
L 441.621106 84.746208 
L 442.858913 90.156212 
L 444.067743 96.407776 
L 445.532345 105.172661 
L 447.214183 116.777792 
L 448.806227 129.280348 
L 450.780044 146.742976 
L 453.418399 172.27637 
L 454.790689 184.971295 
L 456.241106 196.180261 
L 456.92888 200.231155 
L 458.251911 206.240342 
L 459.353636 211.457861 
L 461.391888 222.218745 
L 462.08041 224.427102 
L 462.488212 225.133637 
L 462.758923 225.291218 
L 463.029538 225.202271 
L 463.436785 224.687703 
L 464.123388 223.236448 
L 465.250216 220.180823 
L 466.414795 216.304676 
L 467.317929 212.560632 
L 468.573428 206.242297 
L 473.766217 178.508734 
L 475.994968 168.687994 
L 478.134456 160.244805 
L 480.147113 153.103815 
L 480.604419 152.128117 
L 481.063413 151.725648 
L 481.293127 151.7111 
L 481.752264 152.007913 
L 482.210196 152.669944 
L 482.893131 154.171781 
L 485.778819 161.37198 
L 486.859604 164.050537 
L 488.759398 169.144159 
L 490.603524 173.785688 
L 492.192258 178.352291 
L 492.970475 180.07081 
L 493.550012 180.862868 
L 494.319328 181.51792 
L 495.27686 181.94743 
L 496.2318 182.43638 
L 497.184021 182.921283 
L 497.754863 182.897601 
L 498.326165 182.58283 
L 499.089586 182.067861 
L 499.471443 182.227738 
L 500.042712 182.893085 
L 501.177173 184.424882 
L 501.928489 185.073501 
L 502.490562 185.210998 
L 503.052703 185.018301 
L 503.804182 184.418382 
L 505.888929 182.426595 
L 506.270432 182.373503 
L 506.842396 182.569833 
L 507.983161 183.031119 
L 508.742545 183.118 
L 509.312598 182.927381 
L 510.265438 182.283461 
L 511.9905 181.146295 
L 515.858292 178.841087 
L 516.833374 178.206616 
L 518.202971 177.641233 
L 519.184652 177.198756 
L 520.17066 176.521242 
L 520.565808 176.58539 
L 520.960356 176.963519 
L 521.549521 178.055209 
L 522.327565 180.15586 
L 523.852286 184.519962 
L 524.971981 187.005379 
L 525.526328 187.762089 
L 526.078733 188.110232 
L 526.630498 188.159228 
L 527.366372 187.939872 
L 528.471517 187.55682 
L 528.839962 187.741187 
L 529.20767 188.222641 
L 529.938576 189.754832 
L 530.841082 191.592817 
L 531.556505 192.539873 
L 532.268641 193.128305 
L 532.801854 193.240766 
L 533.335375 193.057357 
L 533.870046 192.625256 
L 534.76517 191.542413 
L 536.02911 189.68452 
L 536.760428 188.12054 
L 537.501455 185.87571 
L 538.829382 180.879169 
L 540.203927 175.820989 
L 540.604123 175.08304 
L 541.005604 174.898509 
L 541.407041 175.206512 
L 541.807251 175.952013 
L 542.402953 177.808493 
L 542.990379 180.422098 
L 543.75635 184.828167 
L 544.859882 192.654515 
L 547.662625 215.012913 
L 549.769524 231.442746 
L 551.484657 242.529484 
L 552.049468 244.792581 
L 552.49053 245.683914 
L 553.034781 246.5005 
L 553.786401 247.715889 
L 554.213242 248.086566 
L 554.532883 248.157417 
L 554.852781 247.993578 
L 555.174267 247.446117 
L 555.608965 245.967147 
L 556.282813 242.525807 
L 557.35937 235.408592 
L 558.396468 227.56671 
L 560.130394 213.181399 
L 561.736809 201.795655 
L 563.480053 191.120873 
L 565.35114 181.165664 
L 567.341389 171.880355 
L 569.442975 163.186276 
L 571.649044 155.008657 
L 573.953592 147.285472 
L 576.351311 139.966203 
L 579.090771 132.332303 
L 581.931579 125.091536 
L 582.72317 123.332247 
L 583.25361 122.895254 
L 583.519052 122.89159 
L 584.049554 123.26267 
L 584.578558 124.090067 
L 585.105 125.322338 
L 585.887813 127.834695 
L 586.659974 131.033656 
L 587.668932 136.190763 
L 588.890693 143.798915 
L 590.289773 154.210625 
L 592.441672 172.536879 
L 593.820844 183.145583 
L 594.938497 190.103292 
L 596.01159 195.307288 
L 596.879404 198.484861 
L 598.222846 203.32407 
L 599.662338 209.421316 
L 600.589376 212.344413 
L 601.04573 213.157846 
L 601.348524 213.239321 
L 601.651479 212.808349 
L 602.416763 210.799441 
L 603.993473 206.622214 
L 604.801711 204.947452 
L 605.127339 204.722322 
L 605.453173 204.789077 
L 605.778552 205.097939 
L 606.264571 205.944345 
L 607.065934 208.032018 
L 608.628636 212.334248 
L 609.393011 213.856498 
L 609.848075 214.36864 
L 610.30189 214.537608 
L 610.755437 214.432728 
L 611.360728 214.025703 
L 612.119618 213.221797 
L 612.730492 212.215947 
L 613.347285 210.748965 
L 614.288535 207.776205 
L 615.090702 205.438489 
L 615.578454 204.608078 
L 616.068946 204.16344 
L 616.72477 203.941543 
L 617.545992 203.848328 
L 619.188845 203.835109 
L 619.846618 203.468127 
L 620.506391 202.769907 
L 621.169752 201.707294 
L 621.838713 200.234979 
L 623.029815 196.87296 
L 623.902376 193.639216 
L 624.801487 189.113874 
L 626.693639 179.538028 
L 628.702646 170.456177 
L 630.821014 161.893006 
L 633.042463 153.817982 
L 635.361264 146.180883 
L 638.018067 138.242018 
L 640.780336 130.708356 
L 643.378316 124.222823 
L 646.326569 117.45588 
L 650.488817 108.850593 
L 653.932698 102.203099 
L 657.472899 95.890129 
L 659.277092 93.004167 
L 661.1028 90.108939 
L 663.570828 86.222287 
L 667.661678 80.181519 
L 672.171592 74.145163 
L 673.47843 72.681375 
L 675.122215 71.091459 
L 676.445763 69.306952 
L 678.111441 67.22748 
L 679.28 65.847975 
L 679.28 65.847975 
" clip-path="url(#pcd43db339c)" style="fill: none; stroke: #1f77b4; stroke-width: 1.2; stroke-linecap: square"/>
   </g>
   <g id="patch_3">
    <path d="M 50.96 273.056352 
L 50.96 26.88 
" style="fill: none; stroke: #000000; stroke-width: 0.8; stroke-linejoin: miter; stroke-linecap: square"/>
   </g>
   <g id="patch_4">
    <path d="M 709.2 273.056352 
L 709.2 26.88 
" style="fill: none; stroke: #000000; stroke-width: 0.8; stroke-linejoin: miter; stroke-linecap: square"/>
   </g>
   <g id="patch_5">
    <path d="M 50.96 273.056352 
L 709.2 273.056352 
" style="fill: none; stroke: #000000; stroke-width: 0.8; stroke-linejoin: miter; stroke-linecap: square"/>
   </g>
   <g id="patch_6">
    <path d="M 50.96 26.88 
L 709.2 26.88 
" style="fill: none; stroke: #000000; stroke-width: 0.8; stroke-linejoin: miter; stroke-linecap: square"/>
   </g>
   <g id="text_10">
    <!-- speed tracking and lateral offset over the lap -->
    <g transform="translate(244.124688 20.88) scale(0.12 -0.12)">
     <defs>
      <path id="DejaVuSans-74" d="M 1172 4494 
L 1172 3500 
L 2356 3500 
L 2356 3053 
L 1172 3053 
L 1172 1153 
Q 1172 725 1289 603 
Q 1406 481 1766 481 
L 2356 481 
L 2356 0 
L 1766 0 
Q 1100 0 847 248 
Q 594 497 594 1153 
L 594 3053 
L 172 3053 
L 172 3500 
L 594 3500 
L 594 4494 
L 1172 4494 
z
" transform="scale(0.015625)"/>
      <path id="DejaVuSans-72" d="M 2631 2963 
Q 2534 3019 2420 3045 
Q 2306 3072 2169 3072 
Q 1681 3072 1420 2755 
Q 1159 2438 1159 1844 
L 1159 0 
L 581 0 
L 581 3500 
L 1159 3500 
L 1159 2956 
Q 1341 3275 1631 3429 
Q 1922 3584 2338 3584 
Q 2397 3584 2469 3576 
Q 2541 3569 2628 3553 
L 2631 2963 
z
" transform="scale(0.015625)"/>
      <path id="DejaVuSans-61" d="M 2194 1759 
Q 1497 1759 1228 1600 
Q 959 1441 959 1056 
Q 959 750 1161 570 
Q 1363 391 1709 391 
Q 2188 391 2477 730 
Q 2766 1069 2766 1631 
L 2766 1759 
L 2194 1759 
z
M 3341 1997 
L 3341 0 
L 2766 0 
L 2766 531 
Q 2569 213 2275 61 
Q 1981 -91 1556 -91 
Q 1019 -91 701 211 
Q 384 513 384 1019 
Q 384 1609 779 1909 
Q 1175 2209 1959 2209 
L 2766 2209 
L 2766 2266 
Q 2766 2663 2505 2880 
Q 2244 3097 1772 3097 
Q 1472 3097 1187 3025 
Q 903 2953 641 2809 
L 641 3341 
Q 956 3463 1253 3523 
Q 1550 3584 1831 3584 
Q 2591 3584 2966 3190 
Q 3341 2797 3341 1997 
z
" transform="scale(0.015625)"/>
      <path id="DejaVuSans-63" d="M 3122 3366 
L 3122 2828 
Q 2878 2963 2633 3030 
Q 2388 3097 2138 3097 
Q 1578 3097 1268 2742 
Q 959 2388 959 1747 
Q 959 1106 1268 751 
Q 1578 397 2138 397 
Q 2388 397 2633 464 
Q 2878 531 3122 666 
L 3122 134 
Q 2881 22 2623 -34 
Q 2366 -91 2075 -91 
Q 1284 -91 818 406 
Q 353 903 353 1747 
Q 353 2603 823 3093 
Q 1294 3584 2113 3584 
Q 2378 3584 2631 3529 
Q 2884 3475 3122 3366 
z
" transform="scale(0.015625)"/>
      <path id="DejaVuSans-69" d="M 603 3500 
L 1178 3500 
L 1178 0 
L 603 0 
L 603 3500 
z
M 603 4863 
L 1178 4863 
L 1178 4134 
L 603 4134 
L 603 4863 
z
" transform="scale(0.015625)"/>
      <path id="DejaVuSans-6e" d="M 3513 2113 
L 3513 0 
L 2938 0 
L 2938 2094 
Q 2938 2591 2744 2837 
Q 2550 3084 2163 3084 
Q 1697 3084 1428 2787 
Q 1159 2491 1159 1978 
L 1159 0 
L 581 0 
L 581 3500 
L 1159 3500 
L 1159 2956 
Q 1366 3272 1645 3428 
Q 1925 3584 2291 3584 
Q 2894 3584 3203 3211 
Q 3513 2838 3513 2113 
z
" transform="scale(0.015625)"/>
      <path id="DejaVuSans-67" d="M 2906 1791 
Q 2906 2416 2648 2759 
Q 2391 3103 1925 3103 
Q 1463 3103 1205 2759 
Q 947 2416 947 1791 
Q 947 1169 1205 825 
Q 1463 481 1925 481 
Q 2391 481 2648 825 
Q 2906 1169 2906 1791 
z
M 3481 434 
Q 3481 -459 3084 -895 
Q 2688 -1331 1869 -1331 
Q 1566 -1331 1297 -1286 
Q 1028 -1241 775 -1147 
L 775 -588 
Q 1028 -725 1275 -790 
Q 1522 -856 1778 -856 
Q 2344 -856 2625 -561 
Q 2906 -266 2906 331 
L 2906 616 
Q 2728 306 2450 153 
Q 2172 0 1784 0 
Q 1141 0 747 490 
Q 353 981 353 1791 
Q 353 2603 747 3093 
Q 1141 3584 1784 3584 
Q 2172 3584 2450 3431 
Q 2728 3278 2906 2969 
L 2906 3500 
L 3481 3500 
L 3481 434 
z
" transform="scale(0.015625)"/>
      <path id="DejaVuSans-6c" d="M 603 4863 
L 1178 4863 
L 1178 0 
L 603 0 
L 603 4863 
z
" transform="scale(0.015625)"/>
      <path id="DejaVuSans-6f" d="M 1959 3097 
Q 1497 3097 1228 2736 
Q 959 2375 959 1747 
Q 959 1119 1226 758 
Q 1494 397 1959 397 
Q 2419 397 2687 759 
Q 2956 1122 2956 1747 
Q 2956 2369 2687 2733 
Q 2419 3097 1959 3097 
z
M 1959 3584 
Q 2709 3584 3137 3096 
Q 3566 2609 3566 1747 
Q 3566 888 3137 398 
Q 2709 -91 1959 -91 
Q 1206 -91 779 398 
Q 353 888 353 1747 
Q 353 2609 779 3096 
Q 1206 3584 1959 3584 
z
" transform="scale(0.015625)"/>
      <path id="DejaVuSans-66" d="M 2375 4863 
L 2375 4384 
L 1825 4384 
Q 1516 4384 1395 4259 
Q 1275 4134 1275 3809 
L 1275 3500 
L 2222 3500 
L 2222 3053 
L 1275 3053 
L 1275 0 
L 697 0 
L 697 3053 
L 147 3053 
L 147 3500 
L 697 3500 
L 697 3744 
Q 697 4328 969 4595 
Q 1241 4863 1831 4863 
L 2375 4863 
z
" transform="scale(0.015625)"/>
      <path id="DejaVuSans-76" d="M 191 3500 
L 800 3500 
L 1894 563 
L 2988 3500 
L 3597 3500 
L 2284 0 
L 1503 0 
L 191 3500 
z
" transform="scale(0.015625)"/>
     </defs>
     <use xlink:href="#DejaVuSans-73"/>
     <use xlink:href="#DejaVuSans-70" transform="translate(52.099609 0)"/>
     <use xlink:href="#DejaVuSans-65" transform="translate(115.576172 0)"/>
     <use xlink:href="#DejaVuSans-65" transform="translate(177.099609 0)"/>
     <use xlink:href="#DejaVuSans-64" transform="translate(238.623047 0)"/>
     <use xlink:href="#DejaVuSans-20" transform="translate(302.099609 0)"/>
     <use xlink:href="#DejaVuSans-74" transform="translate(333.886719 0)"/>
     <use xlink:href="#DejaVuSans-72" transform="translate(373.095703 0)"/>
     <use xlink:href="#DejaVuSans-61" transform="translate(414.208984 0)"/>
     <use xlink:href="#DejaVuSans-63" transform="translate(475.488281 0)"/>
     <use xlink:href="#DejaVuSans-6b" transform="translate(530.46875 0)"/>
     <use xlink:href="#DejaVuSans-69" transform="translate(588.378906 0)"/>
     <use xlink:href="#DejaVuSans-6e" transform="translate(616.162109 0)"/>
     <use xlink:href="#DejaVuSans-67" transform="translate(679.541016 0)"/>
     <use xlink:href="#DejaVuSans-20" transform="translate(743.017578 0)"/>
     <use xlink:href="#DejaVuSans-61" transform="translate(774.804688 0)"/>
     <use xlink:href="#DejaVuSans-6e" transform="translate(836.083984 0)"/>
     <use xlink:href="#DejaVuSans-64" transform="translate(899.462891 0)"/>
     <use xlink:href="#DejaVuSans-20" transform="translate(962.939453 0)"/>
     <use xlink:href="#DejaVuSans-6c" transform="translate(994.726562 0)"/>
     <use xlink:href="#DejaVuSans-61" transform="translate(1022.509766 0)"/>
     <use xlink:href="#DejaVuSans-74" transform="translate(1083.789062 0)"/>
     <use xlink:href="#DejaVuSans-65" transform="translate(1122.998047 0)"/>
     <use xlink:href="#DejaVuSans-72" transform="translate(1184.521484 0)"/>
     <use xlink:href="#DejaVuSans-61" transform="translate(1225.634766 0)"/>
     <use xlink:href="#DejaVuSans-6c" transform="translate(1286.914062 0)"/>
     <use xlink:href="#DejaVuSans-20" transform="translate(1314.697266 0)"/>
     <use xlink:href="#DejaVuSans-6f" transform="translate(1346.484375 0)"/>
     <use xlink:href="#DejaVuSans-66" transform="translate(1407.666016 0)"/>
     <use xlink:href="#DejaVuSans-66" transform="translate(1442.871094 0)"/>
     <use xlink:href="#DejaVuSans-73" transform="translate(1478.076172 0)"/>
     <use xlink:href="#DejaVuSans-65" transform="translate(1530.175781 0)"/>
     <use xlink:href="#DejaVuSans-74" transform="translate(1591.699219 0)"/>
     <use xlink:href="#DejaVuSans-20" transform="translate(1630.908203 0)"/>
     <use xlink:href="#DejaVuSans-6f" transform="translate(1662.695312 0)"/>
     <use xlink:href="#DejaVuSans-76" transform="translate(1723.876953 0)"/>
     <use xlink:href="#DejaVuSans-65" transform="translate(1783.056641 0)"/>
     <use xlink:href="#DejaVuSans-72" transform="translate(1844.580078 0)"/>
     <use xlink:href="#DejaVuSans-20" transform="translate(1885.693359 0)"/>
     <use xlink:href="#DejaVuSans-74" transform="translate(1917.480469 0)"/>
     <use xlink:href="#DejaVuSans-68" transform="translate(1956.689453 0)"/>
     <use xlink:href="#DejaVuSans-65" transform="translate(2020.068359 0)"/>
     <use xlink:href="#DejaVuSans-20" transform="translate(2081.591797 0)"/>
     <use xlink:href="#DejaVuSans-6c" transform="translate(2113.378906 0)"/>
     <use xlink:href="#DejaVuSans-61" transform="translate(2141.162109 0)"/>
     <use xlink:href="#DejaVuSans-70" transform="translate(2202.441406 0)"/>
    </g>
   </g>
   <g id="legend_1">
    <g id="patch_7">
     <path d="M 528.02375 269.056352 
L 703.6 269.056352 
Q 705.2 269.056352 705.2 267.456352 
L 705.2 244.771352 
Q 705.2 243.171352 703.6 243.171352 
L 528.02375 243.171352 
Q 526.42375 243.171352 526.42375 244.771352 
L 526.42375 267.456352 
Q 526.42375 269.056352 528.02375 269.056352 
z
" style="fill: #ffffff; opacity: 0.8; stroke: #cccccc; stroke-linejoin: miter"/>
    </g>
    <g id="line2d_37">
     <path d="M 529.62375 249.650102 
L 537.62375 249.650102 
L 545.62375 249.650102 
" style="fill: none; stroke-dasharray: 3.33,1.44; stroke-dashoffset: 0; stroke: #000000; stroke-width: 0.9"/>
    </g>
    <g id="text_11">
     <!-- minimum-time reference (previewed) -->
     <g transform="translate(552.02375 252.450102) scale(0.08 -0.08)">
      <defs>
       <path id="DejaVuSans-75" d="M 544 1381 
L 544 3500 
L 1119 3500 
L 1119 1403 
Q 1119 906 1312 657 
Q 1506 409 1894 409 
Q 2359 409 2629 706 
Q 2900 1003 2900 1516 
L 2900 3500 
L 3475 3500 
L 3475 0 
L 2900 0 
L 2900 538 
Q 2691 219 2414 64 
Q 2138 -91 1772 -91 
Q 1169 -91 856 284 
Q 544 659 544 1381 
z
M 1991 3584 
L 1991 3584 
z
" transform="scale(0.015625)"/>
       <path id="DejaVuSans-2d" d="M 313 2009 
L 1997 2009 
L 1997 1497 
L 313 1497 
L 313 2009 
z
" transform="scale(0.015625)"/>
       <path id="DejaVuSans-28" d="M 1984 4856 
Q 1566 4138 1362 3434 
Q 1159 2731 1159 2009 
Q 1159 1288 1364 580 
Q 1569 -128 1984 -844 
L 1484 -844 
Q 1016 -109 783 600 
Q 550 1309 550 2009 
Q 550 2706 781 3412 
Q 1013 4119 1484 4856 
L 1984 4856 
z
" transform="scale(0.015625)"/>
       <path id="DejaVuSans-77" d="M 269 3500 
L 844 3500 
L 1563 769 
L 2278 3500 
L 2956 3500 
L 3675 769 
L 4391 3500 
L 4966 3500 
L 4050 0 
L 3372 0 
L 2619 2869 
L 1863 0 
L 1184 0 
L 269 3500 
z
" transform="scale(0.015625)"/>
       <path id="DejaVuSans-29" d="M 513 4856 
L 1013 4856 
Q 1481 4119 1714 3412 
Q 1947 2706 1947 2009 
Q 1947 1309 1714 600 
Q 1481 -109 1013 -844 
L 513 -844 
Q 928 -128 1133 580 
Q 1338 1288 1338 2009 
Q 1338 2731 1133 3434 
Q 928 4138 513 4856 
z
" transform="scale(0.015625)"/>
      </defs>
      <use xlink:href="#DejaVuSans-6d"/>
      <use xlink:href="#DejaVuSans-69" transform="translate(97.412109 0)"/>
      <use xlink:href="#DejaVuSans-6e" transform="translate(125.195312 0)"/>
      <use xlink:href="#DejaVuSans-69" transform="translate(188.574219 0)"/>
      <use xlink:href="#DejaVuSans-6d" transform="translate(216.357422 0)"/>
      <use xlink:href="#DejaVuSans-75" transform="translate(313.769531 0)"/>
      <use xlink:href="#DejaVuSans-6d" transform="translate(377.148438 0)"/>
      <use xlink:href="#DejaVuSans-2d" transform="translate(474.560547 0)"/>
      <use xlink:href="#DejaVuSans-74" transform="translate(510.644531 0)"/>
      <use xlink:href="#DejaVuSans-69" transform="translate(549.853516 0)"/>
      <use xlink:href="#DejaVuSans-6d" transform="translate(577.636719 0)"/>
      <use xlink:href="#DejaVuSans-65" transform="translate(675.048828 0)"/>
      <use xlink:href="#DejaVuSans-20" transform="translate(736.572266 0)"/>
      <use xlink:href="#DejaVuSans-72" transform="translate(768.359375 0)"/>
      <use xlink:href="#DejaVuSans-65" transform="translate(807.222656 0)"/>
      <use xlink:href="#DejaVuSans-66" transform="translate(868.746094 0)"/>
      <use xlink:href="#DejaVuSans-65" transform="translate(903.951172 0)"/>
      <use xlink:href="#DejaVuSans-72" transform="translate(965.474609 0)"/>
      <use xlink:href="#DejaVuSans-65" transform="translate(1004.337891 0)"/>
      <use xlink:href="#DejaVuSans-6e" transform="translate(1065.861328 0)"/>
      <use xlink:href="#DejaVuSans-63" transform="translate(1129.240234 0)"/>
      <use xlink:href="#DejaVuSans-65" transform="translate(1184.220703 0)"/>
      <use xlink:href="#DejaVuSans-20" transform="translate(1245.744141 0)"/>
      <use xlink:href="#DejaVuSans-28" transform="translate(1277.53125 0)"/>
      <use xlink:href="#DejaVuSans-70" transform="translate(1316.544922 0)"/>
      <use xlink:href="#DejaVuSans-72" transform="translate(1380.021484 0)"/>
      <use xlink:href="#DejaVuSans-65" transform="translate(1418.884766 0)"/>
      <use xlink:href="#DejaVuSans-76" transform="translate(1480.408203 0)"/>
      <use xlink:href="#DejaVuSans-69" transform="translate(1539.587891 0)"/>
      <use xlink:href="#DejaVuSans-65" transform="translate(1567.371094 0)"/>
      <use xlink:href="#DejaVuSans-77" transform="translate(1628.894531 0)"/>
      <use xlink:href="#DejaVuSans-65" transform="translate(1710.681641 0)"/>
      <use xlink:href="#DejaVuSans-64" transform="translate(1772.205078 0)"/>
      <use xlink:href="#DejaVuSans-29" transform="translate(1835.681641 0)"/>
     </g>
    </g>
    <g id="line2d_38">
     <path d="M 529.62375 261.392602 
L 537.62375 261.392602 
L 545.62375 261.392602 
" style="fill: none; stroke: #1f77b4; stroke-width: 1.2; stroke-linecap: square"/>
    </g>
    <g id="text_12">
     <!-- vehicle -->
     <g transform="translate(552.02375 264.192602) scale(0.08 -0.08)">
      <use xlink:href="#DejaVuSans-76"/>
      <use xlink:href="#DejaVuSans-65" transform="translate(59.179688 0)"/>
      <use xlink:href="#DejaVuSans-68" transform="translate(120.703125 0)"/>
      <use xlink:href="#DejaVuSans-69" transform="translate(184.082031 0)"/>
      <use xlink:href="#DejaVuSans-63" transform="translate(211.865234 0)"/>
      <use xlink:href="#DejaVuSans-6c" transform="translate(266.845703 0)"/>
      <use xlink:href="#DejaVuSans-65" transform="translate(294.628906 0)"/>
     </g>
    </g>
   </g>
  </g>
  <g id="axes_2">
   <g id="patch_8">
    <path d="M 50.96 390.04 
L 709.2 390.04 
L 709.2 287.46652 
L 50.96 287.46652 
z
" style="fill: #ffffff"/>
   </g>
   <g id="matplotlib.axis_3">
    <g id="xtick_10">
     <g id="line2d_39">
      <path d="M 80.88 390.04 
L 80.88 287.46652 
" clip-path="url(#pcf6ac91a5b)" style="fill: none; stroke: #b0b0b0; stroke-opacity: 0.3; stroke-width: 0.8; stroke-linecap: square"/>
     </g>
     <g id="line2d_40">
      <g>
       <use xlink:href="#mfafe5ff90b" x="80.88" y="390.04" style="stroke: #000000; stroke-width: 0.8"/>
      </g>
     </g>
     <g id="text_13">
      <!-- 0.0 -->
      <g transform="translate(72.928438 404.638438) scale(0.1 -0.1)">
       <defs>
        <path id="DejaVuSans-2e" d="M 684 794 
L 1344 794 
L 1344 0 
L 684 0 
L 684 794 
z
" transform="scale(0.015625)"/>
       </defs>
       <use xlink:href="#DejaVuSans-30"/>
       <use xlink:href="#DejaVuSans-2e" transform="translate(63.623047 0)"/>
       <use xlink:href="#DejaVuSans-30" transform="translate(95.410156 0)"/>
      </g>
     </g>
    </g>
    <g id="xtick_11">
     <g id="line2d_41">
      <path d="M 155.493466 390.04 
L 155.493466 287.46652 
" clip-path="url(#pcf6ac91a5b)" style="fill: none; stroke: #b0b0b0; stroke-opacity: 0.3; stroke-width: 0.8; stroke-linecap: square"/>
     </g>
     <g id="line2d_42">
      <g>
       <use xlink:href="#mfafe5ff90b" x="155.493466" y="390.04" style="stroke: #000000; stroke-width: 0.8"/>
      </g>
     </g>
     <g id="text_14">
      <!-- 0.5 -->
      <g transform="translate(147.541904 404.638438) scale(0.1 -0.1)">
       <defs>
        <path id="DejaVuSans-35" d="M 691 4666 
L 3169 4666 
L 3169 4134 
L 1269 4134 
L 1269 2991 
Q 1406 3038 1543 3061 
Q 1681 3084 1819 3084 
Q 2600 3084 3056 2656 
Q 3513 2228 3513 1497 
Q 3513 744 3044 326 
Q 2575 -91 1722 -91 
Q 1428 -91 1123 -41 
Q 819 9 494 109 
L 494 744 
Q 775 591 1075 516 
Q 1375 441 1709 441 
Q 2250 441 2565 725 
Q 2881 1009 2881 1497 
Q 2881 1984 2565 2268 
Q 2250 2553 1709 2553 
Q 1456 2553 1204 2497 
Q 953 2441 691 2322 
L 691 4666 
z
" transform="scale(0.015625)"/>
       </defs>
       <use xlink:href="#DejaVuSans-30"/>
       <use xlink:href="#DejaVuSans-2e" transform="translate(63.623047 0)"/>
       <use xlink:href="#DejaVuSans-35" transform="translate(95.410156 0)"/>
      </g>
     </g>
    </g>
    <g id="xtick_12">
     <g id="line2d_43">
      <path d="M 230.106933 390.04 
L 230.106933 287.46652 
" clip-path="url(#pcf6ac91a5b)" style="fill: none; stroke: #b0b0b0; stroke-opacity: 0.3; stroke-width: 0.8; stroke-linecap: square"/>
     </g>
     <g id="line2d_44">
      <g>
       <use xlink:href="#mfafe5ff90b" x="230.106933" y="390.04" style="stroke: #000000; stroke-width: 0.8"/>
      </g>
     </g>
     <g id="text_15">
      <!-- 1.0 -->
      <g transform="translate(222.15537 404.638438) scale(0.1 -0.1)">
       <use xlink:href="#DejaVuSans-31"/>
       <use xlink:href="#DejaVuSans-2e" transform="translate(63.623047 0)"/>
       <use xlink:href="#DejaVuSans-30" transform="translate(95.410156 0)"/>
      </g>
     </g>
    </g>
    <g id="xtick_13">
     <g id="line2d_45">
      <path d="M 304.720399 390.04 
L 304.720399 287.46652 
" clip-path="url(#pcf6ac91a5b)" style="fill: none; stroke: #b0b0b0; stroke-opacity: 0.3; stroke-width: 0.8; stroke-linecap: square"/>
     </g>
     <g id="line2d_46">
      <g>
       <use xlink:href="#mfafe5ff90b" x="304.720399" y="390.04" style="stroke: #000000; stroke-width: 0.8"/>
      </g>
     </g>
     <g id="text_16">
      <!-- 1.5 -->
      <g transform="translate(296.768836 404.638438) scale(0.1 -0.1)">
       <use xlink:href="#DejaVuSans-31"/>
       <use xlink:href="#DejaVuSans-2e" transform="translate(63.623047 0)"/>
       <use xlink:href="#DejaVuSans-35" transform="translate(95.410156 0)"/>
      </g>
     </g>
    </g>
    <g id="xtick_14">
     <g id="line2d_47">
      <path d="M 379.333865 390.04 
L 379.333865 287.46652 
" clip-path="url(#pcf6ac91a5b)" style="fill: none; stroke: #b0b0b0; stroke-opacity: 0.3; stroke-width: 0.8; stroke-linecap: square"/>
     </g>
     <g id="line2d_48">
      <g>
       <use xlink:href="#mfafe5ff90b" x="379.333865" y="390.04" style="stroke: #000000; stroke-width: 0.8"/>
      </g>
     </g>
     <g id="text_17">
      <!-- 2.0 -->
      <g transform="translate(371.382303 404.638438) scale(0.1 -0.1)">
       <use xlink:href="#DejaVuSans-32"/>
       <use xlink:href="#DejaVuSans-2e" transform="translate(63.623047 0)"/>
       <use xlink:href="#DejaVuSans-30" transform="translate(95.410156 0)"/>
      </g>
     </g>
    </g>
    <g id="xtick_15">
     <g id="line2d_49">
      <path d="M 453.947332 390.04 
L 453.947332 287.46652 
" clip-path="url(#pcf6ac91a5b)" style="fill: none; stroke: #b0b0b0; stroke-opacity: 0.3; stroke-width: 0.8; stroke-linecap: square"/>
     </g>
     <g id="line2d_50">
      <g>
       <use xlink:href="#mfafe5ff90b" x="453.947332" y="390.04" style="stroke: #000000; stroke-width: 0.8"/>
      </g>
     </g>
     <g id="text_18">
      <!-- 2.5 -->
      <g transform="translate(445.995769 404.638438) scale(0.1 -0.1)">
       <use xlink:href="#DejaVuSans-32"/>
       <use xlink:href="#DejaVuSans-2e" transform="translate(63.623047 0)"/>
       <use xlink:href="#DejaVuSans-35" transform="translate(95.410156 0)"/>
      </g>
     </g>
    </g>
    <g id="xtick_16">
     <g id="line2d_51">
      <path d="M 528.560798 390.04 
L 528.560798 287.46652 
" clip-path="url(#pcf6ac91a5b)" style="fill: none; stroke: #b0b0b0; stroke-opacity: 0.3; stroke-width: 0.8; stroke-linecap: square"/>
     </g>
     <g id="line2d_52">
      <g>
       <use xlink:href="#mfafe5ff90b" x="528.560798" y="390.04" style="stroke: #000000; stroke-width: 0.8"/>
      </g>
     </g>
     <g id="text_19">
      <!-- 3.0 -->
      <g transform="translate(520.609235 404.638438) scale(0.1 -0.1)">
       <defs>
        <path id="DejaVuSans-33" d="M 2597 2516 
Q 3050 2419 3304 2112 
Q 3559 1806 3559 1356 
Q 3559 666 3084 287 
Q 2609 -91 1734 -91 
Q 1441 -91 1130 -33 
Q 819 25 488 141 
L 488 750 
Q 750 597 1062 519 
Q 1375 441 1716 441 
Q 2309 441 2620 675 
Q 2931 909 2931 1356 
Q 2931 1769 2642 2001 
Q 2353 2234 1838 2234 
L 1294 2234 
L 1294 2753 
L 1863 2753 
Q 2328 2753 2575 2939 
Q 2822 3125 2822 3475 
Q 2822 3834 2567 4026 
Q 2313 4219 1838 4219 
Q 1578 4219 1281 4162 
Q 984 4106 628 3988 
L 628 4550 
Q 988 4650 1302 4700 
Q 1616 4750 1894 4750 
Q 2613 4750 3031 4423 
Q 3450 4097 3450 3541 
Q 3450 3153 3228 2886 
Q 3006 2619 2597 2516 
z
" transform="scale(0.015625)"/>
       </defs>
       <use xlink:href="#DejaVuSans-33"/>
       <use xlink:href="#DejaVuSans-2e" transform="translate(63.623047 0)"/>
       <use xlink:href="#DejaVuSans-30" transform="translate(95.410156 0)"/>
      </g>
     </g>
    </g>
    <g id="xtick_17">
     <g id="line2d_53">
      <path d="M 603.174264 390.04 
L 603.174264 287.46652 
" clip-path="url(#pcf6ac91a5b)" style="fill: none; stroke: #b0b0b0; stroke-opacity: 0.3; stroke-width: 0.8; stroke-linecap: square"/>
     </g>
     <g id="line2d_54">
      <g>
       <use xlink:href="#mfafe5ff90b" x="603.174264" y="390.04" style="stroke: #000000; stroke-width: 0.8"/>
      </g>
     </g>
     <g id="text_20">
      <!-- 3.5 -->
      <g transform="translate(595.222702 404.638438) scale(0.1 -0.1)">
       <use xlink:href="#DejaVuSans-33"/>
       <use xlink:href="#DejaVuSans-2e" transform="translate(63.623047 0)"/>
       <use xlink:href="#DejaVuSans-35" transform="translate(95.410156 0)"/>
      </g>
     </g>
    </g>
    <g id="xtick_18">
     <g id="line2d_55">
      <path d="M 677.787731 390.04 
L 677.787731 287.46652 
" clip-path="url(#pcf6ac91a5b)" style="fill: none; stroke: #b0b0b0; stroke-opacity: 0.3; stroke-width: 0.8; stroke-linecap: square"/>
     </g>
     <g id="line2d_56">
      <g>
       <use xlink:href="#mfafe5ff90b" x="677.787731" y="390.04" style="stroke: #000000; stroke-width: 0.8"/>
      </g>
     </g>
     <g id="text_21">
      <!-- 4.0 -->
      <g transform="translate(669.836168 404.638438) scale(0.1 -0.1)">
       <use xlink:href="#DejaVuSans-34"/>
       <use xlink:href="#DejaVuSans-2e" transform="translate(63.623047 0)"/>
       <use xlink:href="#DejaVuSans-30" transform="translate(95.410156 0)"/>
      </g>
     </g>
    </g>
    <g id="text_22">
     <!-- distance s [km] -->
     <g transform="translate(341.443281 418.316563) scale(0.1 -0.1)">
      <use xlink:href="#DejaVuSans-64"/>
      <use xlink:href="#DejaVuSans-69" transform="translate(63.476562 0)"/>
      <use xlink:href="#DejaVuSans-73" transform="translate(91.259766 0)"/>
      <use xlink:href="#DejaVuSans-74" transform="translate(143.359375 0)"/>
      <use xlink:href="#DejaVuSans-61" transform="translate(182.568359 0)"/>
      <use xlink:href="#DejaVuSans-6e" transform="translate(243.847656 0)"/>
      <use xlink:href="#DejaVuSans-63" transform="translate(307.226562 0)"/>
      <use xlink:href="#DejaVuSans-65" transform="translate(362.207031 0)"/>
      <use xlink:href="#DejaVuSans-20" transform="translate(423.730469 0)"/>
      <use xlink:href="#DejaVuSans-73" transform="translate(455.517578 0)"/>
      <use xlink:href="#DejaVuSans-20" transform="translate(507.617188 0)"/>
      <use xlink:href="#DejaVuSans-5b" transform="translate(539.404297 0)"/>
      <use xlink:href="#DejaVuSans-6b" transform="translate(578.417969 0)"/>
      <use xlink:href="#DejaVuSans-6d" transform="translate(636.328125 0)"/>
      <use xlink:href="#DejaVuSans-5d" transform="translate(733.740234 0)"/>
     </g>
    </g>
   </g>
   <g id="matplotlib.axis_4">
    <g id="ytick_9">
     <g id="line2d_57">
      <path d="M 50.96 376.14487 
L 709.2 376.14487 
" clip-path="url(#pcf6ac91a5b)" style="fill: none; stroke: #b0b0b0; stroke-opacity: 0.3; stroke-width: 0.8; stroke-linecap: square"/>
     </g>
     <g id="line2d_58">
      <g>
       <use xlink:href="#m4579e69613" x="50.96" y="376.14487" style="stroke: #000000; stroke-width: 0.8"/>
      </g>
     </g>
     <g id="text_23">
      <!-- −1 -->
      <g transform="translate(29.217813 379.944089) scale(0.1 -0.1)">
       <defs>
        <path id="DejaVuSans-2212" d="M 678 2272 
L 4684 2272 
L 4684 1741 
L 678 1741 
L 678 2272 
z
" transform="scale(0.015625)"/>
       </defs>
       <use xlink:href="#DejaVuSans-2212"/>
       <use xlink:href="#DejaVuSans-31" transform="translate(83.789062 0)"/>
      </g>
     </g>
    </g>
    <g id="ytick_10">
     <g id="line2d_59">
      <path d="M 50.96 351.723337 
L 709.2 351.723337 
" clip-path="url(#pcf6ac91a5b)" style="fill: none; stroke: #b0b0b0; stroke-opacity: 0.3; stroke-width: 0.8; stroke-linecap: square"/>
     </g>
     <g id="line2d_60">
      <g>
       <use xlink:href="#m4579e69613" x="50.96" y="351.723337" style="stroke: #000000; stroke-width: 0.8"/>
      </g>
     </g>
     <g id="text_24">
      <!-- 0 -->
      <g transform="translate(37.5975 355.522556) scale(0.1 -0.1)">
       <use xlink:href="#DejaVuSans-30"/>
      </g>
     </g>
    </g>
    <g id="ytick_11">
     <g id="line2d_61">
      <path d="M 50.96 327.301805 
L 709.2 327.301805 
" clip-path="url(#pcf6ac91a5b)" style="fill: none; stroke: #b0b0b0; stroke-opacity: 0.3; stroke-width: 0.8; stroke-linecap: square"/>
     </g>
     <g id="line2d_62">
      <g>
       <use xlink:href="#m4579e69613" x="50.96" y="327.301805" style="stroke: #000000; stroke-width: 0.8"/>
      </g>
     </g>
     <g id="text_25">
      <!-- 1 -->
      <g transform="translate(37.5975 331.101023) scale(0.1 -0.1)">
       <use xlink:href="#DejaVuSans-31"/>
      </g>
     </g>
    </g>
    <g id="ytick_12">
     <g id="line2d_63">
      <path d="M 50.96 302.880272 
L 709.2 302.880272 
" clip-path="url(#pcf6ac91a5b)" style="fill: none; stroke: #b0b0b0; stroke-opacity: 0.3; stroke-width: 0.8; stroke-linecap: square"/>
     </g>
     <g id="line2d_64">
      <g>
       <use xlink:href="#m4579e69613" x="50.96" y="302.880272" style="stroke: #000000; stroke-width: 0.8"/>
      </g>
     </g>
     <g id="text_26">
      <!-- 2 -->
      <g transform="translate(37.5975 306.679491) scale(0.1 -0.1)">
       <use xlink:href="#DejaVuSans-32"/>
      </g>
     </g>
    </g>
    <g id="text_27">
     <!-- offset n [m] -->
     <g transform="translate(23.138125 368.093104) rotate(-90) scale(0.1 -0.1)">
      <use xlink:href="#DejaVuSans-6f"/>
      <use xlink:href="#DejaVuSans-66" transform="translate(61.181641 0)"/>
      <use xlink:href="#DejaVuSans-66" transform="translate(96.386719 0)"/>
      <use xlink:href="#DejaVuSans-73" transform="translate(131.591797 0)"/>
      <use xlink:href="#DejaVuSans-65" transform="translate(183.691406 0)"/>
      <use xlink:href="#DejaVuSans-74" transform="translate(245.214844 0)"/>
      <use xlink:href="#DejaVuSans-20" transform="translate(284.423828 0)"/>
      <use xlink:href="#DejaVuSans-6e" transform="translate(316.210938 0)"/>
      <use xlink:href="#DejaVuSans-20" transform="translate(379.589844 0)"/>
      <use xlink:href="#DejaVuSans-5b" transform="translate(411.376953 0)"/>
      <use xlink:href="#DejaVuSans-6d" transform="translate(450.390625 0)"/>
      <use xlink:href="#DejaVuSans-5d" transform="translate(547.802734 0)"/>
     </g>
    </g>
   </g>
   <g id="line2d_65">
    <path d="M 80.88 351.723337 
L 116.31832 351.782369 
L 116.877828 351.928031 
L 117.432393 352.255082 
L 118.256551 353.126217 
L 118.801896 353.611318 
L 119.073586 353.624266 
L 119.344694 353.392452 
L 119.615231 352.850596 
L 120.154454 350.699239 
L 122.025594 340.145952 
L 122.29207 339.617264 
L 122.558526 339.489382 
L 122.824998 339.760859 
L 123.091524 340.419024 
L 123.624902 342.795272 
L 124.426443 348.280128 
L 125.498802 355.325571 
L 126.036651 357.537749 
L 126.306093 358.172548 
L 126.575916 358.458687 
L 126.846145 358.392291 
L 127.116807 357.987195 
L 127.659534 356.324964 
L 129.025823 350.901073 
L 129.576253 349.453229 
L 130.128843 348.48485 
L 130.683689 347.989172 
L 130.962001 347.947018 
L 131.240929 348.046502 
L 131.800683 348.641238 
L 133.780177 351.839793 
L 134.351601 352.170159 
L 134.925619 352.164617 
L 135.791514 351.796308 
L 136.955113 351.321274 
L 137.834578 351.250011 
L 139.015957 351.44116 
L 141.106128 351.955299 
L 142.920596 352.750207 
L 143.225081 352.601816 
L 143.530138 352.246272 
L 144.141814 350.827709 
L 145.679697 346.163773 
L 145.988899 345.734084 
L 146.298653 345.586893 
L 146.60895 345.720129 
L 146.919787 346.111534 
L 147.54311 347.51323 
L 149.111514 351.77066 
L 149.742937 352.684399 
L 150.0595 352.901311 
L 150.376625 352.971397 
L 151.012564 352.75478 
L 151.970696 351.949748 
L 152.933884 351.202667 
L 153.578786 350.945361 
L 154.225869 350.903741 
L 155.200476 351.136928 
L 156.507295 351.720248 
L 158.483077 352.84088 
L 158.813969 352.798448 
L 159.145015 352.560192 
L 159.476017 352.079848 
L 160.137109 350.402501 
L 161.451759 346.540241 
L 161.778245 345.982862 
L 162.103649 345.675995 
L 162.427868 345.62746 
L 162.750805 345.838339 
L 163.072369 346.300578 
L 163.711046 347.894646 
L 165.585799 354.078624 
L 166.195237 355.027212 
L 166.49681 355.170371 
L 166.796216 355.105227 
L 167.093412 354.85323 
L 167.681007 353.904562 
L 169.108751 350.936521 
L 169.662646 350.312026 
L 170.206322 350.157927 
L 170.739565 350.388698 
L 171.77402 351.356437 
L 172.5212 351.905618 
L 173.005399 352.045437 
L 173.710507 351.971219 
L 175.464427 351.557359 
L 176.658132 351.672962 
L 178.088775 351.952473 
L 178.736934 352.33112 
L 179.34499 352.974872 
L 180.591697 354.505775 
L 180.849291 354.57365 
L 181.100875 354.421932 
L 181.347153 353.957031 
L 181.588261 353.052954 
L 181.939661 350.630782 
L 182.278073 346.729303 
L 182.708372 339.107715 
L 183.315205 323.689989 
L 184.282111 299.250202 
L 184.677263 293.657639 
L 184.981816 292.128951 
L 185.084871 292.237232 
L 185.29313 293.493925 
L 185.610763 298.175929 
L 187.117734 329.119024 
L 187.772922 335.741808 
L 188.470964 340.395306 
L 189.210903 343.735776 
L 189.990342 346.158789 
L 190.640829 347.429275 
L 191.143777 347.931643 
L 192.726723 348.946092 
L 194.22205 350.349497 
L 194.999078 350.688738 
L 196.815323 351.097897 
L 198.938069 351.40597 
L 202.314607 351.600408 
L 208.882065 351.871362 
L 210.597543 352.393067 
L 211.006436 352.143556 
L 211.603667 351.367126 
L 212.180975 350.623514 
L 212.554618 350.455712 
L 212.91924 350.63263 
L 213.274836 351.1206 
L 214.124453 352.49745 
L 214.448908 352.691386 
L 214.76515 352.666355 
L 216.240296 352.103409 
L 216.924073 352.154214 
L 217.190428 351.938897 
L 217.453434 351.393846 
L 217.713157 350.400362 
L 218.096481 347.90782 
L 218.596065 342.661403 
L 220.644928 317.2801 
L 221.009094 315.674551 
L 221.254128 315.394863 
L 221.377372 315.513424 
L 221.625377 316.291453 
L 222.001536 318.808489 
L 222.643027 325.770016 
L 223.453118 334.08691 
L 224.026492 337.394882 
L 225.253745 342.029457 
L 226.239549 345.497715 
L 226.925323 346.982874 
L 227.632844 347.972521 
L 228.733199 349.114073 
L 230.073473 350.194197 
L 231.06636 350.752742 
L 232.087697 351.004008 
L 238.528214 351.726841 
L 239.241224 351.675304 
L 241.428944 351.228931 
L 242.424089 351.476625 
L 243.687204 351.733891 
L 244.971157 351.714992 
L 247.333243 351.665335 
L 253.08659 351.711619 
L 266.753662 351.85398 
L 268.004948 352.01392 
L 268.63412 351.907313 
L 269.265609 351.568843 
L 270.851419 350.487626 
L 271.485226 350.435846 
L 272.116916 350.650744 
L 274.60368 351.914967 
L 275.512853 351.944743 
L 279.248071 351.605631 
L 282.818999 351.756377 
L 284.635168 351.831586 
L 285.277478 352.130705 
L 286.104846 352.89063 
L 286.507428 353.206537 
L 286.903327 353.264161 
L 287.29295 352.967549 
L 287.676566 352.267923 
L 288.24131 350.505099 
L 288.97693 347.112873 
L 289.692705 342.668917 
L 290.558378 335.690644 
L 292.363146 320.547329 
L 293.145388 315.826375 
L 293.604484 313.931476 
L 293.906774 313.194032 
L 294.206488 312.962723 
L 294.35555 313.055567 
L 294.6526 313.674853 
L 295.097634 315.659787 
L 295.696439 319.903036 
L 298.042761 338.705883 
L 298.67607 341.544305 
L 299.148106 342.833683 
L 299.617414 343.635169 
L 300.239051 344.239133 
L 300.856554 344.527792 
L 301.318167 344.570147 
L 301.779752 344.358815 
L 302.087987 343.98832 
L 302.551619 342.969515 
L 303.17001 340.700386 
L 303.935631 337.884928 
L 304.238859 337.469112 
L 304.389926 337.501573 
L 304.69118 338.092061 
L 305.141387 340.16657 
L 306.18867 346.004725 
L 306.487974 346.81849 
L 306.787499 347.157936 
L 307.087327 347.094445 
L 307.387569 346.681085 
L 307.838952 345.472629 
L 308.443337 342.908627 
L 309.822457 336.414651 
L 310.133496 335.667769 
L 310.445559 335.434468 
L 310.60182 335.530976 
L 310.914606 336.155434 
L 311.384012 338.034619 
L 312.633225 344.057693 
L 313.100098 345.2561 
L 313.565792 345.832856 
L 314.030125 345.967885 
L 314.339058 345.858148 
L 314.80208 345.389241 
L 315.265439 344.532369 
L 315.730136 343.249282 
L 316.353574 340.831458 
L 317.623928 335.477041 
L 317.94865 335.063775 
L 318.11241 335.157772 
L 318.443054 336.041192 
L 318.947963 338.916071 
L 319.815356 344.381443 
L 320.350957 346.379259 
L 320.714192 347.109636 
L 321.268184 347.692678 
L 322.602718 348.839964 
L 323.791995 349.851672 
L 324.813993 350.381872 
L 326.290385 350.845799 
L 328.263595 351.235529 
L 330.7841 351.48068 
L 334.899605 351.641738 
L 343.854914 351.714455 
L 355.675978 351.630854 
L 356.592502 351.337216 
L 357.476552 350.974202 
L 357.907945 350.969929 
L 358.543349 351.257811 
L 359.574942 351.906447 
L 360.375473 352.263284 
L 360.7672 352.742551 
L 361.153467 353.648592 
L 361.534568 355.067173 
L 362.096332 358.064622 
L 363.537887 366.448018 
L 364.059148 368.309374 
L 364.739707 369.886747 
L 365.571127 371.176199 
L 366.387206 372.076012 
L 367.033074 372.460234 
L 367.676774 372.518576 
L 369.451342 372.249199 
L 369.933379 371.839539 
L 370.253432 371.307102 
L 370.731023 369.936284 
L 371.362544 366.998921 
L 372.456395 361.645651 
L 372.922293 360.392062 
L 373.387136 359.801648 
L 373.69681 359.66785 
L 374.006574 359.720868 
L 374.316633 359.969996 
L 374.782621 360.762387 
L 375.250057 362.11666 
L 376.507558 366.295266 
L 376.825129 366.776654 
L 377.144095 366.919025 
L 377.464558 366.767606 
L 377.948281 366.153912 
L 379.413378 363.93043 
L 379.904376 363.647469 
L 381.0489 363.217047 
L 382.349572 362.281138 
L 382.835736 362.251447 
L 383.483405 362.515845 
L 384.131114 363.096178 
L 384.77977 364.048006 
L 385.59349 365.742631 
L 386.904766 368.547964 
L 387.399851 369.190026 
L 387.731451 369.388869 
L 388.064602 369.395295 
L 388.736838 369.074454 
L 389.247448 368.888904 
L 389.76472 369.015091 
L 390.28992 369.233724 
L 390.644952 369.118087 
L 391.00424 368.562891 
L 391.368113 367.412795 
L 391.922868 364.635826 
L 392.871611 359.860932 
L 393.455232 358.122254 
L 394.04927 357.075997 
L 395.474431 355.251585 
L 396.524913 354.213766 
L 397.601666 353.519407 
L 398.927441 352.966067 
L 400.750325 352.463755 
L 403.113879 352.057853 
L 404.329654 352.042759 
L 406.068429 352.101908 
L 409.669152 351.789563 
L 414.802893 351.745713 
L 422.547014 351.623589 
L 424.034996 351.473571 
L 425.53901 351.625707 
L 427.364565 351.772367 
L 434.244026 351.685546 
L 436.814861 351.541075 
L 437.462321 351.814417 
L 439.078266 352.759948 
L 439.720535 352.827906 
L 440.358977 352.663902 
L 442.858913 351.576648 
L 443.768472 351.532738 
L 448.021833 351.795771 
L 450.542818 351.732593 
L 452.581043 351.760314 
L 453.212913 351.506342 
L 453.82189 350.966782 
L 454.601152 350.214774 
L 454.978266 350.112422 
L 455.347786 350.296802 
L 455.888739 351.050502 
L 456.758785 352.846117 
L 457.432765 354.590197 
L 457.927362 356.532676 
L 458.412605 359.450086 
L 459.044485 364.876286 
L 460.829402 381.90689 
L 461.25241 384.263552 
L 461.530702 385.132494 
L 461.806566 385.377569 
L 461.943719 385.254222 
L 462.216684 384.513231 
L 462.623626 382.27022 
L 463.300757 376.507914 
L 464.123388 369.835355 
L 464.682279 367.289989 
L 465.107377 366.261567 
L 465.537639 365.704177 
L 466.119788 365.380439 
L 467.317929 364.970741 
L 467.937527 364.457919 
L 468.735187 363.444569 
L 469.394184 362.166564 
L 470.246214 359.755801 
L 471.310653 356.779613 
L 472.044939 355.325497 
L 472.608196 354.570686 
L 473.182013 354.163965 
L 473.766217 354.109276 
L 474.561072 354.152406 
L 474.965242 354.006443 
L 475.579801 353.522037 
L 476.625783 352.598683 
L 477.266127 352.366614 
L 477.915835 352.405215 
L 479.019048 352.553778 
L 479.692954 352.423099 
L 481.063413 352.037951 
L 481.752264 352.146541 
L 483.119443 352.568791 
L 483.569823 352.481037 
L 484.23969 352.080123 
L 485.560782 351.10884 
L 486.213095 350.994147 
L 487.07365 351.041998 
L 487.499492 350.828768 
L 487.922385 350.269501 
L 488.342345 349.29851 
L 488.966879 347.099613 
L 490.804932 339.724134 
L 491.799677 337.243044 
L 492.776654 335.209141 
L 493.163927 334.877165 
L 493.357089 334.901322 
L 493.550012 335.07495 
L 493.93515 335.88665 
L 494.511115 337.934039 
L 495.27686 340.620611 
L 495.659126 341.340313 
L 496.041017 341.521121 
L 496.422457 341.296347 
L 497.564567 340.208841 
L 497.945208 340.176034 
L 498.707618 340.277421 
L 499.089586 340.066773 
L 499.471443 339.56181 
L 500.9888 336.991667 
L 501.365305 336.924016 
L 501.740936 337.191047 
L 502.115915 337.756175 
L 502.86524 339.472505 
L 503.616019 341.144165 
L 503.992567 341.623173 
L 504.370022 341.736108 
L 504.748376 341.453588 
L 505.127635 340.819038 
L 506.651845 337.684159 
L 507.223096 337.239284 
L 507.793259 337.179065 
L 508.173022 337.310615 
L 508.55269 337.613764 
L 509.122469 338.444893 
L 509.88382 340.151766 
L 510.456489 341.368447 
L 510.839073 341.82747 
L 511.222296 341.890951 
L 511.606109 341.574745 
L 512.182898 340.637949 
L 513.532688 337.823457 
L 515.081124 334.574537 
L 515.858292 333.448847 
L 516.638098 332.65255 
L 518.007018 331.656239 
L 518.59523 331.403334 
L 518.988022 331.419862 
L 519.381469 331.649859 
L 519.973114 332.407716 
L 521.549521 334.974635 
L 522.327565 335.555873 
L 523.095079 336.166083 
L 523.663867 336.979754 
L 524.227493 338.209659 
L 524.971981 340.469285 
L 526.078733 344.129949 
L 526.446589 344.843566 
L 526.814422 345.090653 
L 526.998373 345.019054 
L 527.366372 344.463061 
L 527.734531 343.378654 
L 529.57405 336.78851 
L 529.938576 336.6107 
L 530.300995 336.961555 
L 530.661464 337.739189 
L 531.378034 340.097487 
L 532.624129 344.503298 
L 533.157445 345.714307 
L 533.513435 346.139993 
L 533.870046 346.203231 
L 534.227441 345.863782 
L 534.585704 345.094924 
L 535.124808 343.169575 
L 536.211155 338.756683 
L 536.576774 338.057715 
L 536.760428 337.961874 
L 536.944684 338.040907 
L 537.315152 338.666893 
L 537.876432 340.37542 
L 538.636908 342.647856 
L 539.022827 343.333226 
L 539.609055 343.838343 
L 540.403776 344.303438 
L 540.804789 344.758882 
L 541.407041 345.855554 
L 542.795661 348.740235 
L 543.376096 349.400531 
L 544.315421 350.001498 
L 545.562194 350.554203 
L 546.071216 350.587534 
L 546.565344 350.397465 
L 547.201682 349.839735 
L 547.813237 349.368452 
L 548.109943 349.338094 
L 548.400629 349.495581 
L 548.685277 349.866007 
L 549.101314 350.811964 
L 549.638274 352.68906 
L 550.282614 355.820894 
L 551.135416 361.25347 
L 552.160412 369.38908 
L 553.465394 380.064358 
L 553.786401 381.433024 
L 553.999931 381.789507 
L 554.106615 381.771877 
L 554.319818 381.321761 
L 554.639433 379.649718 
L 555.174267 374.869375 
L 556.054787 366.912123 
L 556.398228 365.242318 
L 556.750488 364.45675 
L 557.112442 364.267428 
L 557.484562 364.177298 
L 557.738533 363.914504 
L 558.129068 362.97246 
L 558.80921 360.214134 
L 559.528153 357.611155 
L 560.130394 356.191027 
L 560.91594 354.92256 
L 561.736809 354.017449 
L 562.591888 353.39487 
L 563.84433 352.802459 
L 565.35114 352.356032 
L 567.137233 352.078722 
L 570.094113 351.867717 
L 575.381358 351.756249 
L 583.25361 351.791277 
L 585.366959 351.747889 
L 588.407678 351.72822 
L 592.84529 351.870088 
L 593.629265 352.191435 
L 594.386092 352.791333 
L 595.120087 353.344778 
L 595.479826 353.351543 
L 595.835325 353.024694 
L 596.186907 352.292821 
L 596.534837 351.098821 
L 597.05042 348.339862 
L 597.725807 343.053711 
L 599.662338 325.971563 
L 600.128551 324.200576 
L 600.282728 323.992784 
L 600.436328 323.985853 
L 600.589376 324.179055 
L 600.894005 325.138889 
L 601.348524 327.796119 
L 602.727215 337.524551 
L 603.197728 338.945379 
L 603.514397 339.370791 
L 603.993473 339.592285 
L 605.290274 339.878538 
L 606.586605 340.563927 
L 607.224618 341.102839 
L 607.853768 341.9639 
L 610.15069 345.682813 
L 610.453063 345.714417 
L 610.755437 345.463181 
L 611.057959 344.879392 
L 611.512245 343.362832 
L 613.192413 336.611673 
L 613.658606 335.964696 
L 613.972289 335.863078 
L 614.288535 335.967333 
L 614.767923 336.408998 
L 615.252874 337.236901 
L 615.741736 338.575454 
L 617.217384 343.22284 
L 617.545992 343.671583 
L 617.874643 343.858746 
L 618.367522 343.813052 
L 619.024553 343.431557 
L 619.682043 342.783658 
L 620.176164 342.010363 
L 620.837506 340.461941 
L 621.838713 337.29736 
L 622.686376 334.885264 
L 623.029815 334.302488 
L 623.376211 334.075832 
L 623.550658 334.125185 
L 623.902376 334.606821 
L 624.258339 335.652464 
L 624.801487 338.225305 
L 625.922177 344.112653 
L 626.499009 345.92511 
L 627.086377 346.940166 
L 628.088168 347.972034 
L 629.748558 349.471453 
L 630.821014 350.125915 
L 632.141901 350.689612 
L 633.042463 350.873418 
L 634.88997 351.082939 
L 635.598292 351.4557 
L 636.55548 352.008602 
L 637.039466 352.10693 
L 637.772099 351.98051 
L 639.260902 351.531764 
L 640.270509 351.538417 
L 644.439672 352.124998 
L 645.243806 352.321096 
L 645.78371 352.103351 
L 646.326569 351.427531 
L 647.696125 349.09049 
L 647.972178 348.879506 
L 648.248949 348.827965 
L 648.526436 348.936431 
L 649.083546 349.546941 
L 650.488817 351.680269 
L 651.055889 352.132729 
L 651.625755 352.25152 
L 652.198392 352.120246 
L 653.932698 351.435993 
L 654.808905 351.427472 
L 655.691041 351.764758 
L 656.876354 352.379381 
L 657.174306 352.38225 
L 657.472899 352.255683 
L 657.772117 351.972266 
L 658.372352 350.943117 
L 659.579867 348.530326 
L 659.88325 348.211236 
L 660.187238 348.077886 
L 660.491827 348.132374 
L 660.797014 348.360512 
L 661.40919 349.22425 
L 662.950225 351.947772 
L 663.570828 352.604971 
L 664.193791 352.855794 
L 664.819102 352.737233 
L 665.761456 352.143935 
L 666.709034 351.525589 
L 667.343582 351.282571 
L 667.980317 351.213135 
L 668.619214 351.305691 
L 669.260264 351.553443 
L 670.225861 352.222629 
L 671.196298 352.915147 
L 671.520866 352.956749 
L 671.845974 352.793523 
L 672.171592 352.371665 
L 672.824184 350.701498 
L 674.134487 346.250717 
L 674.46325 345.523651 
L 674.792497 345.085924 
L 675.122215 344.948368 
L 675.452397 345.102977 
L 675.783044 345.529286 
L 676.445763 347.0418 
L 678.111441 351.724547 
L 678.781307 352.79945 
L 679.28 353.164013 
L 679.28 353.164013 
" clip-path="url(#pcf6ac91a5b)" style="fill: none; stroke: #d62728; stroke-linecap: square"/>
   </g>
   <g id="line2d_66">
    <path d="M 50.96 351.723337 
L 709.2 351.723337 
" clip-path="url(#pcf6ac91a5b)" style="fill: none; stroke: #000000; stroke-width: 0.6; stroke-linecap: square"/>
   </g>
   <g id="patch_9">
    <path d="M 50.96 390.04 
L 50.96 287.46652 
" style="fill: none; stroke: #000000; stroke-width: 0.8; stroke-linejoin: miter; stroke-linecap: square"/>
   </g>
   <g id="patch_10">
    <path d="M 709.2 390.04 
L 709.2 287.46652 
" style="fill: none; stroke: #000000; stroke-width: 0.8; stroke-linejoin: miter; stroke-linecap: square"/>
   </g>
   <g id="patch_11">
    <path d="M 50.96 390.04 
L 709.2 390.04 
" style="fill: none; stroke: #000000; stroke-width: 0.8; stroke-linejoin: miter; stroke-linecap: square"/>
   </g>
   <g id="patch_12">
    <path d="M 50.96 287.46652 
L 709.2 287.46652 
" style="fill: none; stroke: #000000; stroke-width: 0.8; stroke-linejoin: miter; stroke-linecap: square"/>
   </g>
  </g>
 </g>
 <defs>
  <clipPath id="pcd43db339c">
   <rect x="50.96" y="26.88" width="658.24" height="246.176352"/>
  </clipPath>
  <clipPath id="pcf6ac91a5b">
   <rect x="50.96" y="287.46652" width="658.24" height="102.57348"/>
  </clipPath>
 </defs>
</svg>
