<?xml version="1.0" encoding="utf-8" standalone="no"?>
<!DOCTYPE svg PUBLIC "-//W3C//DTD SVG 1.1//EN"
  "http://www.w3.org/Graphics/SVG/1.1/DTD/svg11.dtd">
<svg xmlns:xlink="http://www.w3.org/1999/xlink" width="720pt" height="288pt" viewBox="0 0 720 288" xmlns="http://www.w3.org/2000/svg" version="1.1">
 <metadata>
  <rdf:RDF xmlns:dc="http://purl.org/dc/elements/1.1/" xmlns:cc="http://creativecommons.org/ns#" xmlns:rdf="http://www.w3.org/1999/02/22-rdf-syntax-ns#">
   <cc:Work>
    <dc:type rdf:resource="http://purl.org/dc/dcmitype/StillImage"/>
    <dc:date>2026-07-07T18:38:57.910175</dc:date>
    <dc:format>image/svg+xml</dc:format>
    <dc:creator>
     <cc:Agent>
      <dc:title>Matplotlib v3.10.8, https://matplotlib.org/</dc:title>
     </cc:Agent>
    </dc:creator>
   </cc:Work>
  </rdf:RDF>
 </metadata>
 <defs>
  <style type="text/css">*{stroke-linejoin: round; stroke-linecap: butt}</style>
 </defs>
 <g id="figure_1">
  <g id="patch_1">
   <path d="M 0 288 
L 720 288 
L 720 0 
L 0 0 
z
" style="fill: #ffffff"/>
  </g>
  <g id="axes_1">
   <g id="patch_2">
    <path d="M 56.09 246.04 
L 709.2 246.04 
L 709.2 26.88 
L 56.09 26.88 
z
" style="fill: #ffffff"/>
   </g>
   <g id="matplotlib.axis_1">
    <g id="xtick_1">
     <g id="line2d_1">
      <path d="M 85.776818 246.04 
L 85.776818 26.88 
" clip-path="url(#p23ff0b668f)" style="fill: none; stroke: #b0b0b0; stroke-opacity: 0.3; stroke-width: 0.8; stroke-linecap: square"/>
     </g>
     <g id="line2d_2">
      <defs>
       <path id="m6a574607ca" d="M 0 0 
L 0 3.5 
" style="stroke: #000000; stroke-width: 0.8"/>
      </defs>
      <g>
       <use xlink:href="#m6a574607ca" x="85.776818" y="246.04" style="stroke: #000000; stroke-width: 0.8"/>
      </g>
     </g>
     <g id="text_1">
      <!-- 0.0 -->
      <g transform="translate(77.825256 260.638438) scale(0.1 -0.1)">
       <defs>
        <path id="DejaVuSans-30" d="M 2034 4250 
Q 1547 4250 1301 3770 
Q 1056 3291 1056 2328 
Q 1056 1369 1301 889 
Q 1547 409 2034 409 
Q 2525 409 2770 889 
Q 3016 1369 3016 2328 
Q 3016 3291 2770 3770 
Q 2525 4250 2034 4250 
z
M 2034 4750 
Q 2819 4750 3233 4129 
Q 3647 3509 3647 2328 
Q 3647 1150 3233 529 
Q 2819 -91 2034 -91 
Q 1250 -91 836 529 
Q 422 1150 422 2328 
Q 422 3509 836 4129 
Q 1250 4750 2034 4750 
z
" transform="scale(0.015625)"/>
        <path id="DejaVuSans-2e" d="M 684 794 
L 1344 794 
L 1344 0 
L 684 0 
L 684 794 
z
" transform="scale(0.015625)"/>
       </defs>
       <use xlink:href="#DejaVuSans-30"/>
       <use xlink:href="#DejaVuSans-2e" transform="translate(63.623047 0)"/>
       <use xlink:href="#DejaVuSans-30" transform="translate(95.410156 0)"/>
      </g>
     </g>
    </g>
    <g id="xtick_2">
     <g id="line2d_3">
      <path d="M 159.808784 246.04 
L 159.808784 26.88 
" clip-path="url(#p23ff0b668f)" style="fill: none; stroke: #b0b0b0; stroke-opacity: 0.3; stroke-width: 0.8; stroke-linecap: square"/>
     </g>
     <g id="line2d_4">
      <g>
       <use xlink:href="#m6a574607ca" x="159.808784" y="246.04" style="stroke: #000000; stroke-width: 0.8"/>
      </g>
     </g>
     <g id="text_2">
      <!-- 0.5 -->
      <g transform="translate(151.857221 260.638438) scale(0.1 -0.1)">
       <defs>
        <path id="DejaVuSans-35" d="M 691 4666 
L 3169 4666 
L 3169 4134 
L 1269 4134 
L 1269 2991 
Q 1406 3038 1543 3061 
Q 1681 3084 1819 3084 
Q 2600 3084 3056 2656 
Q 3513 2228 3513 1497 
Q 3513 744 3044 326 
Q 2575 -91 1722 -91 
Q 1428 -91 1123 -41 
Q 819 9 494 109 
L 494 744 
Q 775 591 1075 516 
Q 1375 441 1709 441 
Q 2250 441 2565 725 
Q 2881 1009 2881 1497 
Q 2881 1984 2565 2268 
Q 2250 2553 1709 2553 
Q 1456 2553 1204 2497 
Q 953 2441 691 2322 
L 691 4666 
z
" transform="scale(0.015625)"/>
       </defs>
       <use xlink:href="#DejaVuSans-30"/>
       <use xlink:href="#DejaVuSans-2e" transform="translate(63.623047 0)"/>
       <use xlink:href="#DejaVuSans-35" transform="translate(95.410156 0)"/>
      </g>
     </g>
    </g>
    <g id="xtick_3">
     <g id="line2d_5">
      <path d="M 233.840749 246.04 
L 233.840749 26.88 
" clip-path="url(#p23ff0b668f)" style="fill: none; stroke: #b0b0b0; stroke-opacity: 0.3; stroke-width: 0.8; stroke-linecap: square"/>
     </g>
     <g id="line2d_6">
      <g>
       <use xlink:href="#m6a574607ca" x="233.840749" y="246.04" style="stroke: #000000; stroke-width: 0.8"/>
      </g>
     </g>
     <g id="text_3">
      <!-- 1.0 -->
      <g transform="translate(225.889187 260.638438) scale(0.1 -0.1)">
       <defs>
        <path id="DejaVuSans-31" d="M 794 531 
L 1825 531 
L 1825 4091 
L 703 3866 
L 703 4441 
L 1819 4666 
L 2450 4666 
L 2450 531 
L 3481 531 
L 3481 0 
L 794 0 
L 794 531 
z
" transform="scale(0.015625)"/>
       </defs>
       <use xlink:href="#DejaVuSans-31"/>
       <use xlink:href="#DejaVuSans-2e" transform="translate(63.623047 0)"/>
       <use xlink:href="#DejaVuSans-30" transform="translate(95.410156 0)"/>
      </g>
     </g>
    </g>
    <g id="xtick_4">
     <g id="line2d_7">
      <path d="M 307.872715 246.04 
L 307.872715 26.88 
" clip-path="url(#p23ff0b668f)" style="fill: none; stroke: #b0b0b0; stroke-opacity: 0.3; stroke-width: 0.8; stroke-linecap: square"/>
     </g>
     <g id="line2d_8">
      <g>
       <use xlink:href="#m6a574607ca" x="307.872715" y="246.04" style="stroke: #000000; stroke-width: 0.8"/>
      </g>
     </g>
     <g id="text_4">
      <!-- 1.5 -->
      <g transform="translate(299.921152 260.638438) scale(0.1 -0.1)">
       <use xlink:href="#DejaVuSans-31"/>
       <use xlink:href="#DejaVuSans-2e" transform="translate(63.623047 0)"/>
       <use xlink:href="#DejaVuSans-35" transform="translate(95.410156 0)"/>
      </g>
     </g>
    </g>
    <g id="xtick_5">
     <g id="line2d_9">
      <path d="M 381.90468 246.04 
L 381.90468 26.88 
" clip-path="url(#p23ff0b668f)" style="fill: none; stroke: #b0b0b0; stroke-opacity: 0.3; stroke-width: 0.8; stroke-linecap: square"/>
     </g>
     <g id="line2d_10">
      <g>
       <use xlink:href="#m6a574607ca" x="381.90468" y="246.04" style="stroke: #000000; stroke-width: 0.8"/>
      </g>
     </g>
     <g id="text_5">
      <!-- 2.0 -->
      <g transform="translate(373.953118 260.638438) scale(0.1 -0.1)">
       <defs>
        <path id="DejaVuSans-32" d="M 1228 531 
L 3431 531 
L 3431 0 
L 469 0 
L 469 531 
Q 828 903 1448 1529 
Q 2069 2156 2228 2338 
Q 2531 2678 2651 2914 
Q 2772 3150 2772 3378 
Q 2772 3750 2511 3984 
Q 2250 4219 1831 4219 
Q 1534 4219 1204 4116 
Q 875 4013 500 3803 
L 500 4441 
Q 881 4594 1212 4672 
Q 1544 4750 1819 4750 
Q 2544 4750 2975 4387 
Q 3406 4025 3406 3419 
Q 3406 3131 3298 2873 
Q 3191 2616 2906 2266 
Q 2828 2175 2409 1742 
Q 1991 1309 1228 531 
z
" transform="scale(0.015625)"/>
       </defs>
       <use xlink:href="#DejaVuSans-32"/>
       <use xlink:href="#DejaVuSans-2e" transform="translate(63.623047 0)"/>
       <use xlink:href="#DejaVuSans-30" transform="translate(95.410156 0)"/>
      </g>
     </g>
    </g>
    <g id="xtick_6">
     <g id="line2d_11">
      <path d="M 455.936646 246.04 
L 455.936646 26.88 
" clip-path="url(#p23ff0b668f)" style="fill: none; stroke: #b0b0b0; stroke-opacity: 0.3; stroke-width: 0.8; stroke-linecap: square"/>
     </g>
     <g id="line2d_12">
      <g>
       <use xlink:href="#m6a574607ca" x="455.936646" y="246.04" style="stroke: #000000; stroke-width: 0.8"/>
      </g>
     </g>
     <g id="text_6">
      <!-- 2.5 -->
      <g transform="translate(447.985083 260.638438) scale(0.1 -0.1)">
       <use xlink:href="#DejaVuSans-32"/>
       <use xlink:href="#DejaVuSans-2e" transform="translate(63.623047 0)"/>
       <use xlink:href="#DejaVuSans-35" transform="translate(95.410156 0)"/>
      </g>
     </g>
    </g>
    <g id="xtick_7">
     <g id="line2d_13">
      <path d="M 529.968611 246.04 
L 529.968611 26.88 
" clip-path="url(#p23ff0b668f)" style="fill: none; stroke: #b0b0b0; stroke-opacity: 0.3; stroke-width: 0.8; stroke-linecap: square"/>
     </g>
     <g id="line2d_14">
      <g>
       <use xlink:href="#m6a574607ca" x="529.968611" y="246.04" style="stroke: #000000; stroke-width: 0.8"/>
      </g>
     </g>
     <g id="text_7">
      <!-- 3.0 -->
      <g transform="translate(522.017049 260.638438) scale(0.1 -0.1)">
       <defs>
        <path id="DejaVuSans-33" d="M 2597 2516 
Q 3050 2419 3304 2112 
Q 3559 1806 3559 1356 
Q 3559 666 3084 287 
Q 2609 -91 1734 -91 
Q 1441 -91 1130 -33 
Q 819 25 488 141 
L 488 750 
Q 750 597 1062 519 
Q 1375 441 1716 441 
Q 2309 441 2620 675 
Q 2931 909 2931 1356 
Q 2931 1769 2642 2001 
Q 2353 2234 1838 2234 
L 1294 2234 
L 1294 2753 
L 1863 2753 
Q 2328 2753 2575 2939 
Q 2822 3125 2822 3475 
Q 2822 3834 2567 4026 
Q 2313 4219 1838 4219 
Q 1578 4219 1281 4162 
Q 984 4106 628 3988 
L 628 4550 
Q 988 4650 1302 4700 
Q 1616 4750 1894 4750 
Q 2613 4750 3031 4423 
Q 3450 4097 3450 3541 
Q 3450 3153 3228 2886 
Q 3006 2619 2597 2516 
z
" transform="scale(0.015625)"/>
       </defs>
       <use xlink:href="#DejaVuSans-33"/>
       <use xlink:href="#DejaVuSans-2e" transform="translate(63.623047 0)"/>
       <use xlink:href="#DejaVuSans-30" transform="translate(95.410156 0)"/>
      </g>
     </g>
    </g>
    <g id="xtick_8">
     <g id="line2d_15">
      <path d="M 604.000577 246.04 
L 604.000577 26.88 
" clip-path="url(#p23ff0b668f)" style="fill: none; stroke: #b0b0b0; stroke-opacity: 0.3; stroke-width: 0.8; stroke-linecap: square"/>
     </g>
     <g id="line2d_16">
      <g>
       <use xlink:href="#m6a574607ca" x="604.000577" y="246.04" style="stroke: #000000; stroke-width: 0.8"/>
      </g>
     </g>
     <g id="text_8">
      <!-- 3.5 -->
      <g transform="translate(596.049014 260.638438) scale(0.1 -0.1)">
       <use xlink:href="#DejaVuSans-33"/>
       <use xlink:href="#DejaVuSans-2e" transform="translate(63.623047 0)"/>
       <use xlink:href="#DejaVuSans-35" transform="translate(95.410156 0)"/>
      </g>
     </g>
    </g>
    <g id="xtick_9">
     <g id="line2d_17">
      <path d="M 678.032542 246.04 
L 678.032542 26.88 
" clip-path="url(#p23ff0b668f)" style="fill: none; stroke: #b0b0b0; stroke-opacity: 0.3; stroke-width: 0.8; stroke-linecap: square"/>
     </g>
     <g id="line2d_18">
      <g>
       <use xlink:href="#m6a574607ca" x="678.032542" y="246.04" style="stroke: #000000; stroke-width: 0.8"/>
      </g>
     </g>
     <g id="text_9">
      <!-- 4.0 -->
      <g transform="translate(670.08098 260.638438) scale(0.1 -0.1)">
       <defs>
        <path id="DejaVuSans-34" d="M 2419 4116 
L 825 1625 
L 2419 1625 
L 2419 4116 
z
M 2253 4666 
L 3047 4666 
L 3047 1625 
L 3713 1625 
L 3713 1100 
L 3047 1100 
L 3047 0 
L 2419 0 
L 2419 1100 
L 313 1100 
L 313 1709 
L 2253 4666 
z
" transform="scale(0.015625)"/>
       </defs>
       <use xlink:href="#DejaVuSans-34"/>
       <use xlink:href="#DejaVuSans-2e" transform="translate(63.623047 0)"/>
       <use xlink:href="#DejaVuSans-30" transform="translate(95.410156 0)"/>
      </g>
     </g>
    </g>
    <g id="text_10">
     <!-- distance s [km] -->
     <g transform="translate(344.008281 274.316562) scale(0.1 -0.1)">
      <defs>
       <path id="DejaVuSans-64" d="M 2906 2969 
L 2906 4863 
L 3481 4863 
L 3481 0 
L 2906 0 
L 2906 525 
Q 2725 213 2448 61 
Q 2172 -91 1784 -91 
Q 1150 -91 751 415 
Q 353 922 353 1747 
Q 353 2572 751 3078 
Q 1150 3584 1784 3584 
Q 2172 3584 2448 3432 
Q 2725 3281 2906 2969 
z
M 947 1747 
Q 947 1113 1208 752 
Q 1469 391 1925 391 
Q 2381 391 2643 752 
Q 2906 1113 2906 1747 
Q 2906 2381 2643 2742 
Q 2381 3103 1925 3103 
Q 1469 3103 1208 2742 
Q 947 2381 947 1747 
z
" transform="scale(0.015625)"/>
       <path id="DejaVuSans-69" d="M 603 3500 
L 1178 3500 
L 1178 0 
L 603 0 
L 603 3500 
z
M 603 4863 
L 1178 4863 
L 1178 4134 
L 603 4134 
L 603 4863 
z
" transform="scale(0.015625)"/>
       <path id="DejaVuSans-73" d="M 2834 3397 
L 2834 2853 
Q 2591 2978 2328 3040 
Q 2066 3103 1784 3103 
Q 1356 3103 1142 2972 
Q 928 2841 928 2578 
Q 928 2378 1081 2264 
Q 1234 2150 1697 2047 
L 1894 2003 
Q 2506 1872 2764 1633 
Q 3022 1394 3022 966 
Q 3022 478 2636 193 
Q 2250 -91 1575 -91 
Q 1294 -91 989 -36 
Q 684 19 347 128 
L 347 722 
Q 666 556 975 473 
Q 1284 391 1588 391 
Q 1994 391 2212 530 
Q 2431 669 2431 922 
Q 2431 1156 2273 1281 
Q 2116 1406 1581 1522 
L 1381 1569 
Q 847 1681 609 1914 
Q 372 2147 372 2553 
Q 372 3047 722 3315 
Q 1072 3584 1716 3584 
Q 2034 3584 2315 3537 
Q 2597 3491 2834 3397 
z
" transform="scale(0.015625)"/>
       <path id="DejaVuSans-74" d="M 1172 4494 
L 1172 3500 
L 2356 3500 
L 2356 3053 
L 1172 3053 
L 1172 1153 
Q 1172 725 1289 603 
Q 1406 481 1766 481 
L 2356 481 
L 2356 0 
L 1766 0 
Q 1100 0 847 248 
Q 594 497 594 1153 
L 594 3053 
L 172 3053 
L 172 3500 
L 594 3500 
L 594 4494 
L 1172 4494 
z
" transform="scale(0.015625)"/>
       <path id="DejaVuSans-61" d="M 2194 1759 
Q 1497 1759 1228 1600 
Q 959 1441 959 1056 
Q 959 750 1161 570 
Q 1363 391 1709 391 
Q 2188 391 2477 730 
Q 2766 1069 2766 1631 
L 2766 1759 
L 2194 1759 
z
M 3341 1997 
L 3341 0 
L 2766 0 
L 2766 531 
Q 2569 213 2275 61 
Q 1981 -91 1556 -91 
Q 1019 -91 701 211 
Q 384 513 384 1019 
Q 384 1609 779 1909 
Q 1175 2209 1959 2209 
L 2766 2209 
L 2766 2266 
Q 2766 2663 2505 2880 
Q 2244 3097 1772 3097 
Q 1472 3097 1187 3025 
Q 903 2953 641 2809 
L 641 3341 
Q 956 3463 1253 3523 
Q 1550 3584 1831 3584 
Q 2591 3584 2966 3190 
Q 3341 2797 3341 1997 
z
" transform="scale(0.015625)"/>
       <path id="DejaVuSans-6e" d="M 3513 2113 
L 3513 0 
L 2938 0 
L 2938 2094 
Q 2938 2591 2744 2837 
Q 2550 3084 2163 3084 
Q 1697 3084 1428 2787 
Q 1159 2491 1159 1978 
L 1159 0 
L 581 0 
L 581 3500 
L 1159 3500 
L 1159 2956 
Q 1366 3272 1645 3428 
Q 1925 3584 2291 3584 
Q 2894 3584 3203 3211 
Q 3513 2838 3513 2113 
z
" transform="scale(0.015625)"/>
       <path id="DejaVuSans-63" d="M 3122 3366 
L 3122 2828 
Q 2878 2963 2633 3030 
Q 2388 3097 2138 3097 
Q 1578 3097 1268 2742 
Q 959 2388 959 1747 
Q 959 1106 1268 751 
Q 1578 397 2138 397 
Q 2388 397 2633 464 
Q 2878 531 3122 666 
L 3122 134 
Q 2881 22 2623 -34 
Q 2366 -91 2075 -91 
Q 1284 -91 818 406 
Q 353 903 353 1747 
Q 353 2603 823 3093 
Q 1294 3584 2113 3584 
Q 2378 3584 2631 3529 
Q 2884 3475 3122 3366 
z
" transform="scale(0.015625)"/>
       <path id="DejaVuSans-65" d="M 3597 1894 
L 3597 1613 
L 953 1613 
Q 991 1019 1311 708 
Q 1631 397 2203 397 
Q 2534 397 2845 478 
Q 3156 559 3463 722 
L 3463 178 
Q 3153 47 2828 -22 
Q 2503 -91 2169 -91 
Q 1331 -91 842 396 
Q 353 884 353 1716 
Q 353 2575 817 3079 
Q 1281 3584 2069 3584 
Q 2775 3584 3186 3129 
Q 3597 2675 3597 1894 
z
M 3022 2063 
Q 3016 2534 2758 2815 
Q 2500 3097 2075 3097 
Q 1594 3097 1305 2825 
Q 1016 2553 972 2059 
L 3022 2063 
z
" transform="scale(0.015625)"/>
       <path id="DejaVuSans-20" transform="scale(0.015625)"/>
       <path id="DejaVuSans-5b" d="M 550 4863 
L 1875 4863 
L 1875 4416 
L 1125 4416 
L 1125 -397 
L 1875 -397 
L 1875 -844 
L 550 -844 
L 550 4863 
z
" transform="scale(0.015625)"/>
       <path id="DejaVuSans-6b" d="M 581 4863 
L 1159 4863 
L 1159 1991 
L 2875 3500 
L 3609 3500 
L 1753 1863 
L 3688 0 
L 2938 0 
L 1159 1709 
L 1159 0 
L 581 0 
L 581 4863 
z
" transform="scale(0.015625)"/>
       <path id="DejaVuSans-6d" d="M 3328 2828 
Q 3544 3216 3844 3400 
Q 4144 3584 4550 3584 
Q 5097 3584 5394 3201 
Q 5691 2819 5691 2113 
L 5691 0 
L 5113 0 
L 5113 2094 
Q 5113 2597 4934 2840 
Q 4756 3084 4391 3084 
Q 3944 3084 3684 2787 
Q 3425 2491 3425 1978 
L 3425 0 
L 2847 0 
L 2847 2094 
Q 2847 2600 2669 2842 
Q 2491 3084 2119 3084 
Q 1678 3084 1418 2786 
Q 1159 2488 1159 1978 
L 1159 0 
L 581 0 
L 581 3500 
L 1159 3500 
L 1159 2956 
Q 1356 3278 1631 3431 
Q 1906 3584 2284 3584 
Q 2666 3584 2933 3390 
Q 3200 3197 3328 2828 
z
" transform="scale(0.015625)"/>
       <path id="DejaVuSans-5d" d="M 1947 4863 
L 1947 -844 
L 622 -844 
L 622 -397 
L 1369 -397 
L 1369 4416 
L 622 4416 
L 622 4863 
L 1947 4863 
z
" transform="scale(0.015625)"/>
      </defs>
      <use xlink:href="#DejaVuSans-64"/>
      <use xlink:href="#DejaVuSans-69" transform="translate(63.476562 0)"/>
      <use xlink:href="#DejaVuSans-73" transform="translate(91.259766 0)"/>
      <use xlink:href="#DejaVuSans-74" transform="translate(143.359375 0)"/>
      <use xlink:href="#DejaVuSans-61" transform="translate(182.568359 0)"/>
      <use xlink:href="#DejaVuSans-6e" transform="translate(243.847656 0)"/>
      <use xlink:href="#DejaVuSans-63" transform="translate(307.226562 0)"/>
      <use xlink:href="#DejaVuSans-65" transform="translate(362.207031 0)"/>
      <use xlink:href="#DejaVuSans-20" transform="translate(423.730469 0)"/>
      <use xlink:href="#DejaVuSans-73" transform="translate(455.517578 0)"/>
      <use xlink:href="#DejaVuSans-20" transform="translate(507.617188 0)"/>
      <use xlink:href="#DejaVuSans-5b" transform="translate(539.404297 0)"/>
      <use xlink:href="#DejaVuSans-6b" transform="translate(578.417969 0)"/>
      <use xlink:href="#DejaVuSans-6d" transform="translate(636.328125 0)"/>
      <use xlink:href="#DejaVuSans-5d" transform="translate(733.740234 0)"/>
     </g>
    </g>
   </g>
   <g id="matplotlib.axis_2">
    <g id="ytick_1">
     <g id="line2d_19">
      <path d="M 56.09 244.78256 
L 709.2 244.78256 
" clip-path="url(#p23ff0b668f)" style="fill: none; stroke: #b0b0b0; stroke-opacity: 0.3; stroke-width: 0.8; stroke-linecap: square"/>
     </g>
     <g id="line2d_20">
      <defs>
       <path id="m1e0979d612" d="M 0 0 
L -3.5 0 
" style="stroke: #000000; stroke-width: 0.8"/>
      </defs>
      <g>
       <use xlink:href="#m1e0979d612" x="56.09" y="244.78256" style="stroke: #000000; stroke-width: 0.8"/>
      </g>
     </g>
     <g id="text_11">
      <!-- −2.0 -->
      <g transform="translate(24.807188 248.581779) scale(0.1 -0.1)">
       <defs>
        <path id="DejaVuSans-2212" d="M 678 2272 
L 4684 2272 
L 4684 1741 
L 678 1741 
L 678 2272 
z
" transform="scale(0.015625)"/>
       </defs>
       <use xlink:href="#DejaVuSans-2212"/>
       <use xlink:href="#DejaVuSans-32" transform="translate(83.789062 0)"/>
       <use xlink:href="#DejaVuSans-2e" transform="translate(147.412109 0)"/>
       <use xlink:href="#DejaVuSans-30" transform="translate(179.199219 0)"/>
      </g>
     </g>
    </g>
    <g id="ytick_2">
     <g id="line2d_21">
      <path d="M 56.09 217.921226 
L 709.2 217.921226 
" clip-path="url(#p23ff0b668f)" style="fill: none; stroke: #b0b0b0; stroke-opacity: 0.3; stroke-width: 0.8; stroke-linecap: square"/>
     </g>
     <g id="line2d_22">
      <g>
       <use xlink:href="#m1e0979d612" x="56.09" y="217.921226" style="stroke: #000000; stroke-width: 0.8"/>
      </g>
     </g>
     <g id="text_12">
      <!-- −1.5 -->
      <g transform="translate(24.807188 221.720445) scale(0.1 -0.1)">
       <use xlink:href="#DejaVuSans-2212"/>
       <use xlink:href="#DejaVuSans-31" transform="translate(83.789062 0)"/>
       <use xlink:href="#DejaVuSans-2e" transform="translate(147.412109 0)"/>
       <use xlink:href="#DejaVuSans-35" transform="translate(179.199219 0)"/>
      </g>
     </g>
    </g>
    <g id="ytick_3">
     <g id="line2d_23">
      <path d="M 56.09 191.059892 
L 709.2 191.059892 
" clip-path="url(#p23ff0b668f)" style="fill: none; stroke: #b0b0b0; stroke-opacity: 0.3; stroke-width: 0.8; stroke-linecap: square"/>
     </g>
     <g id="line2d_24">
      <g>
       <use xlink:href="#m1e0979d612" x="56.09" y="191.059892" style="stroke: #000000; stroke-width: 0.8"/>
      </g>
     </g>
     <g id="text_13">
      <!-- −1.0 -->
      <g transform="translate(24.807188 194.859111) scale(0.1 -0.1)">
       <use xlink:href="#DejaVuSans-2212"/>
       <use xlink:href="#DejaVuSans-31" transform="translate(83.789062 0)"/>
       <use xlink:href="#DejaVuSans-2e" transform="translate(147.412109 0)"/>
       <use xlink:href="#DejaVuSans-30" transform="translate(179.199219 0)"/>
      </g>
     </g>
    </g>
    <g id="ytick_4">
     <g id="line2d_25">
      <path d="M 56.09 164.198558 
L 709.2 164.198558 
" clip-path="url(#p23ff0b668f)" style="fill: none; stroke: #b0b0b0; stroke-opacity: 0.3; stroke-width: 0.8; stroke-linecap: square"/>
     </g>
     <g id="line2d_26">
      <g>
       <use xlink:href="#m1e0979d612" x="56.09" y="164.198558" style="stroke: #000000; stroke-width: 0.8"/>
      </g>
     </g>
     <g id="text_14">
      <!-- −0.5 -->
      <g transform="translate(24.807188 167.997777) scale(0.1 -0.1)">
       <use xlink:href="#DejaVuSans-2212"/>
       <use xlink:href="#DejaVuSans-30" transform="translate(83.789062 0)"/>
       <use xlink:href="#DejaVuSans-2e" transform="translate(147.412109 0)"/>
       <use xlink:href="#DejaVuSans-35" transform="translate(179.199219 0)"/>
      </g>
     </g>
    </g>
    <g id="ytick_5">
     <g id="line2d_27">
      <path d="M 56.09 137.337224 
L 709.2 137.337224 
" clip-path="url(#p23ff0b668f)" style="fill: none; stroke: #b0b0b0; stroke-opacity: 0.3; stroke-width: 0.8; stroke-linecap: square"/>
     </g>
     <g id="line2d_28">
      <g>
       <use xlink:href="#m1e0979d612" x="56.09" y="137.337224" style="stroke: #000000; stroke-width: 0.8"/>
      </g>
     </g>
     <g id="text_15">
      <!-- 0.0 -->
      <g transform="translate(33.186875 141.136443) scale(0.1 -0.1)">
       <use xlink:href="#DejaVuSans-30"/>
       <use xlink:href="#DejaVuSans-2e" transform="translate(63.623047 0)"/>
       <use xlink:href="#DejaVuSans-30" transform="translate(95.410156 0)"/>
      </g>
     </g>
    </g>
    <g id="ytick_6">
     <g id="line2d_29">
      <path d="M 56.09 110.47589 
L 709.2 110.47589 
" clip-path="url(#p23ff0b668f)" style="fill: none; stroke: #b0b0b0; stroke-opacity: 0.3; stroke-width: 0.8; stroke-linecap: square"/>
     </g>
     <g id="line2d_30">
      <g>
       <use xlink:href="#m1e0979d612" x="56.09" y="110.47589" style="stroke: #000000; stroke-width: 0.8"/>
      </g>
     </g>
     <g id="text_16">
      <!-- 0.5 -->
      <g transform="translate(33.186875 114.275109) scale(0.1 -0.1)">
       <use xlink:href="#DejaVuSans-30"/>
       <use xlink:href="#DejaVuSans-2e" transform="translate(63.623047 0)"/>
       <use xlink:href="#DejaVuSans-35" transform="translate(95.410156 0)"/>
      </g>
     </g>
    </g>
    <g id="ytick_7">
     <g id="line2d_31">
      <path d="M 56.09 83.614556 
L 709.2 83.614556 
" clip-path="url(#p23ff0b668f)" style="fill: none; stroke: #b0b0b0; stroke-opacity: 0.3; stroke-width: 0.8; stroke-linecap: square"/>
     </g>
     <g id="line2d_32">
      <g>
       <use xlink:href="#m1e0979d612" x="56.09" y="83.614556" style="stroke: #000000; stroke-width: 0.8"/>
      </g>
     </g>
     <g id="text_17">
      <!-- 1.0 -->
      <g transform="translate(33.186875 87.413775) scale(0.1 -0.1)">
       <use xlink:href="#DejaVuSans-31"/>
       <use xlink:href="#DejaVuSans-2e" transform="translate(63.623047 0)"/>
       <use xlink:href="#DejaVuSans-30" transform="translate(95.410156 0)"/>
      </g>
     </g>
    </g>
    <g id="ytick_8">
     <g id="line2d_33">
      <path d="M 56.09 56.753222 
L 709.2 56.753222 
" clip-path="url(#p23ff0b668f)" style="fill: none; stroke: #b0b0b0; stroke-opacity: 0.3; stroke-width: 0.8; stroke-linecap: square"/>
     </g>
     <g id="line2d_34">
      <g>
       <use xlink:href="#m1e0979d612" x="56.09" y="56.753222" style="stroke: #000000; stroke-width: 0.8"/>
      </g>
     </g>
     <g id="text_18">
      <!-- 1.5 -->
      <g transform="translate(33.186875 60.552441) scale(0.1 -0.1)">
       <use xlink:href="#DejaVuSans-31"/>
       <use xlink:href="#DejaVuSans-2e" transform="translate(63.623047 0)"/>
       <use xlink:href="#DejaVuSans-35" transform="translate(95.410156 0)"/>
      </g>
     </g>
    </g>
    <g id="ytick_9">
     <g id="line2d_35">
      <path d="M 56.09 29.891888 
L 709.2 29.891888 
" clip-path="url(#p23ff0b668f)" style="fill: none; stroke: #b0b0b0; stroke-opacity: 0.3; stroke-width: 0.8; stroke-linecap: square"/>
     </g>
     <g id="line2d_36">
      <g>
       <use xlink:href="#m1e0979d612" x="56.09" y="29.891888" style="stroke: #000000; stroke-width: 0.8"/>
      </g>
     </g>
     <g id="text_19">
      <!-- 2.0 -->
      <g transform="translate(33.186875 33.691107) scale(0.1 -0.1)">
       <use xlink:href="#DejaVuSans-32"/>
       <use xlink:href="#DejaVuSans-2e" transform="translate(63.623047 0)"/>
       <use xlink:href="#DejaVuSans-30" transform="translate(95.410156 0)"/>
      </g>
     </g>
    </g>
    <g id="text_20">
     <!-- tie-rod force [kN] -->
     <g transform="translate(18.7275 179.170156) rotate(-90) scale(0.1 -0.1)">
      <defs>
       <path id="DejaVuSans-2d" d="M 313 2009 
L 1997 2009 
L 1997 1497 
L 313 1497 
L 313 2009 
z
" transform="scale(0.015625)"/>
       <path id="DejaVuSans-72" d="M 2631 2963 
Q 2534 3019 2420 3045 
Q 2306 3072 2169 3072 
Q 1681 3072 1420 2755 
Q 1159 2438 1159 1844 
L 1159 0 
L 581 0 
L 581 3500 
L 1159 3500 
L 1159 2956 
Q 1341 3275 1631 3429 
Q 1922 3584 2338 3584 
Q 2397 3584 2469 3576 
Q 2541 3569 2628 3553 
L 2631 2963 
z
" transform="scale(0.015625)"/>
       <path id="DejaVuSans-6f" d="M 1959 3097 
Q 1497 3097 1228 2736 
Q 959 2375 959 1747 
Q 959 1119 1226 758 
Q 1494 397 1959 397 
Q 2419 397 2687 759 
Q 2956 1122 2956 1747 
Q 2956 2369 2687 2733 
Q 2419 3097 1959 3097 
z
M 1959 3584 
Q 2709 3584 3137 3096 
Q 3566 2609 3566 1747 
Q 3566 888 3137 398 
Q 2709 -91 1959 -91 
Q 1206 -91 779 398 
Q 353 888 353 1747 
Q 353 2609 779 3096 
Q 1206 3584 1959 3584 
z
" transform="scale(0.015625)"/>
       <path id="DejaVuSans-66" d="M 2375 4863 
L 2375 4384 
L 1825 4384 
Q 1516 4384 1395 4259 
Q 1275 4134 1275 3809 
L 1275 3500 
L 2222 3500 
L 2222 3053 
L 1275 3053 
L 1275 0 
L 697 0 
L 697 3053 
L 147 3053 
L 147 3500 
L 697 3500 
L 697 3744 
Q 697 4328 969 4595 
Q 1241 4863 1831 4863 
L 2375 4863 
z
" transform="scale(0.015625)"/>
       <path id="DejaVuSans-4e" d="M 628 4666 
L 1478 4666 
L 3547 763 
L 3547 4666 
L 4159 4666 
L 4159 0 
L 3309 0 
L 1241 3903 
L 1241 0 
L 628 0 
L 628 4666 
z
" transform="scale(0.015625)"/>
      </defs>
      <use xlink:href="#DejaVuSans-74"/>
      <use xlink:href="#DejaVuSans-69" transform="translate(39.208984 0)"/>
      <use xlink:href="#DejaVuSans-65" transform="translate(66.992188 0)"/>
      <use xlink:href="#DejaVuSans-2d" transform="translate(128.515625 0)"/>
      <use xlink:href="#DejaVuSans-72" transform="translate(164.599609 0)"/>
      <use xlink:href="#DejaVuSans-6f" transform="translate(203.462891 0)"/>
      <use xlink:href="#DejaVuSans-64" transform="translate(264.644531 0)"/>
      <use xlink:href="#DejaVuSans-20" transform="translate(328.121094 0)"/>
      <use xlink:href="#DejaVuSans-66" transform="translate(359.908203 0)"/>
      <use xlink:href="#DejaVuSans-6f" transform="translate(395.113281 0)"/>
      <use xlink:href="#DejaVuSans-72" transform="translate(456.294922 0)"/>
      <use xlink:href="#DejaVuSans-63" transform="translate(495.158203 0)"/>
      <use xlink:href="#DejaVuSans-65" transform="translate(550.138672 0)"/>
      <use xlink:href="#DejaVuSans-20" transform="translate(611.662109 0)"/>
      <use xlink:href="#DejaVuSans-5b" transform="translate(643.449219 0)"/>
      <use xlink:href="#DejaVuSans-6b" transform="translate(682.462891 0)"/>
      <use xlink:href="#DejaVuSans-4e" transform="translate(740.373047 0)"/>
      <use xlink:href="#DejaVuSans-5d" transform="translate(815.177734 0)"/>
     </g>
    </g>
   </g>
   <g id="line2d_37">
    <path d="M 85.776818 137.337224 
L 86.115305 136.349015 
L 86.454261 135.954245 
L 87.473934 137.160798 
L 87.814758 136.947329 
L 88.156046 136.594489 
L 88.497798 136.437254 
L 88.840013 136.592489 
L 89.525827 137.272438 
L 90.213479 137.508261 
L 90.902961 137.628477 
L 91.940596 138.103863 
L 92.982295 138.164996 
L 94.377494 138.112277 
L 96.836105 137.529622 
L 100.74247 136.714715 
L 102.53501 136.517663 
L 104.699712 136.409176 
L 106.514828 136.509925 
L 107.974139 136.798972 
L 109.439328 137.412098 
L 110.538468 138.14246 
L 111.633284 139.13094 
L 113.080449 140.840458 
L 114.507164 142.912814 
L 116.253553 145.348816 
L 116.597184 145.629083 
L 116.938808 145.731681 
L 117.278455 145.612605 
L 117.616209 145.133851 
L 117.952159 144.244721 
L 118.618956 141.401534 
L 119.279479 137.896343 
L 119.607596 138.368593 
L 119.934401 141.823125 
L 120.259978 147.485017 
L 121.551523 178.691609 
L 121.872037 174.44021 
L 122.191736 157.561373 
L 122.510721 132.512373 
L 122.829117 119.141805 
L 123.147089 120.75674 
L 124.417589 160.977986 
L 125.366624 174.733958 
L 126.308968 183.080495 
L 128.190634 208.039917 
L 128.504664 208.656028 
L 128.818911 206.037946 
L 129.133361 199.285943 
L 129.447982 187.287268 
L 130.077414 155.116029 
L 130.392106 145.72476 
L 131.021597 140.927245 
L 131.336578 132.886663 
L 131.967397 110.042738 
L 132.283326 103.14414 
L 132.59963 100.456081 
L 132.916326 101.088938 
L 133.550973 106.146835 
L 134.187405 114.030335 
L 136.105546 146.198213 
L 136.747955 159.752788 
L 137.06984 163.830127 
L 137.392183 166.132764 
L 137.714985 167.12434 
L 138.038245 167.301664 
L 138.361961 166.988297 
L 138.686135 166.25542 
L 139.010764 165.006217 
L 139.335852 163.109418 
L 139.987408 157.473422 
L 141.6245 141.57204 
L 142.612438 133.601585 
L 142.942684 131.773755 
L 143.273393 131.373292 
L 143.604566 132.944445 
L 143.936201 136.534004 
L 144.933886 154.321111 
L 145.267365 156.329208 
L 145.601299 150.245683 
L 146.270553 128.146507 
L 146.605903 126.694827 
L 147.27821 135.65073 
L 148.968153 158.912178 
L 150.326476 171.575708 
L 151.00824 175.972687 
L 151.349818 177.335866 
L 151.691847 178.035196 
L 152.034319 177.886334 
L 152.377227 176.719799 
L 152.720567 174.450767 
L 153.40854 166.924143 
L 155.483015 139.500922 
L 156.178107 132.979841 
L 156.875015 129.105575 
L 157.573728 126.857569 
L 158.274228 125.58288 
L 158.625142 125.564547 
L 158.976496 126.703798 
L 159.32829 130.684199 
L 160.032911 144.553222 
L 160.385405 148.174332 
L 160.737798 149.13497 
L 161.089936 147.226991 
L 161.441677 140.152272 
L 161.792893 128.662187 
L 162.143467 123.170755 
L 162.493297 125.337581 
L 163.190345 140.74853 
L 163.537355 143.62588 
L 163.883162 143.183978 
L 164.227586 143.12315 
L 164.570458 144.866856 
L 165.251244 150.318006 
L 165.925238 157.433577 
L 166.592169 166.49828 
L 166.922864 168.046077 
L 167.251643 166.973724 
L 167.578464 163.833566 
L 169.8063 133.285517 
L 170.725685 119.084238 
L 171.027195 116.747141 
L 171.326189 115.820635 
L 171.622642 115.89319 
L 171.91653 116.575579 
L 172.496529 118.950769 
L 173.066045 123.006893 
L 173.624982 129.516064 
L 175.237861 151.519328 
L 176.008194 157.843342 
L 176.754322 161.879314 
L 177.476069 164.543318 
L 177.943576 165.753704 
L 178.845536 167.059369 
L 179.064093 167.110364 
L 179.279861 166.929421 
L 179.703008 166.16498 
L 180.114925 165.318152 
L 180.515578 165.062816 
L 181.095463 163.414401 
L 181.283162 164.109356 
L 181.829607 168.854546 
L 182.006258 169.103607 
L 182.351501 167.631316 
L 182.520196 168.199985 
L 182.686351 171.141901 
L 183.326972 187.956158 
L 183.48165 188.327254 
L 183.785439 187.610082 
L 183.93497 187.844924 
L 184.08324 188.873745 
L 184.37702 193.131012 
L 184.814707 203.150624 
L 185.862793 230.793024 
L 186.176481 233.335719 
L 186.494707 234.351099 
L 186.654255 234.480243 
L 186.812699 234.323469 
L 187.121372 233.170595 
L 187.688083 230.339276 
L 188.073597 229.763066 
L 188.436169 229.347119 
L 188.785849 228.417978 
L 189.594698 225.350541 
L 189.711914 225.869543 
L 189.948436 228.120497 
L 190.067848 226.18024 
L 190.188097 214.158528 
L 190.554466 125.337043 
L 190.931539 161.917629 
L 191.32267 110.013014 
L 191.456359 111.890552 
L 191.86742 132.673919 
L 192.149771 122.126852 
L 192.293424 121.911222 
L 192.884123 137.780469 
L 193.035728 137.215955 
L 193.188867 137.769332 
L 193.657286 144.129517 
L 193.81636 144.750624 
L 193.976869 144.761375 
L 194.13879 144.975573 
L 194.302099 146.077974 
L 194.968829 153.13902 
L 195.310142 155.334862 
L 196.008864 161.569458 
L 196.186904 161.773179 
L 196.366283 161.195805 
L 197.097081 156.909422 
L 199.010871 140.161022 
L 199.607805 137.811806 
L 200.214868 136.47669 
L 201.0397 135.473783 
L 203.836994 132.799329 
L 204.506822 132.44744 
L 204.958256 132.344383 
L 205.642618 132.462554 
L 206.3355 132.993201 
L 207.036762 134.026479 
L 207.745517 135.672491 
L 208.69468 138.425203 
L 210.804455 145.177369 
L 211.263484 147.701289 
L 211.717803 152.389236 
L 212.389281 159.86072 
L 213.047236 163.312999 
L 213.263272 164.51051 
L 213.477574 164.866063 
L 213.690092 163.336942 
L 214.109648 156.516503 
L 214.316637 156.478837 
L 215.125738 171.302542 
L 215.518916 175.509137 
L 216.467812 190.402604 
L 216.651476 191.499665 
L 216.833023 190.869104 
L 217.537942 181.25765 
L 218.210918 191.815681 
L 218.374765 191.187224 
L 218.857407 187.635921 
L 219.015655 188.412959 
L 219.328729 193.258288 
L 220.09502 215.364819 
L 220.397432 216.915394 
L 220.699578 218.240419 
L 221.003019 221.246148 
L 221.77228 229.928273 
L 222.083184 231.447428 
L 222.238466 231.759792 
L 222.393078 231.721084 
L 222.699028 230.708166 
L 223.585049 226.786248 
L 224.296504 225.230603 
L 225.414692 223.142823 
L 225.693989 223.015388 
L 225.973852 223.230623 
L 226.254445 223.992665 
L 226.535903 225.537597 
L 226.96024 227.889722 
L 227.102456 227.074517 
L 227.24518 224.239917 
L 227.677352 204.867722 
L 228.117831 190.494805 
L 228.417729 182.12577 
L 229.194215 149.379584 
L 229.354157 148.962449 
L 229.515583 147.923163 
L 230.175763 137.918367 
L 230.514302 139.475819 
L 230.685635 139.451636 
L 231.032371 138.486719 
L 231.207752 138.745994 
L 231.741829 140.768865 
L 232.104391 141.310494 
L 232.84479 143.742013 
L 233.222486 143.48987 
L 233.798145 142.936216 
L 234.582018 141.843421 
L 235.383922 141.325567 
L 235.996913 141.733108 
L 237.252033 141.331809 
L 237.678845 140.835373 
L 239.42694 138.165029 
L 239.64995 138.015902 
L 240.098906 138.033605 
L 240.779596 138.375048 
L 241.238158 137.066841 
L 241.933032 134.785093 
L 242.166509 134.697452 
L 242.872432 134.939236 
L 243.109562 135.404103 
L 243.826398 138.594895 
L 244.06715 138.946238 
L 244.55133 139.148606 
L 245.039042 139.686667 
L 245.284207 139.615881 
L 245.777126 138.574192 
L 247.024301 135.903411 
L 247.529037 134.933078 
L 248.037077 134.445514 
L 248.54839 134.234845 
L 249.062946 134.229694 
L 249.580714 134.456906 
L 251.152991 135.587019 
L 252.484537 136.396716 
L 253.563416 136.791154 
L 255.203978 137.123201 
L 264.974851 138.124006 
L 265.873514 137.951342 
L 266.777795 137.336217 
L 267.68763 136.755371 
L 267.992132 136.931127 
L 268.297242 137.712815 
L 268.909276 139.865366 
L 269.523714 140.569767 
L 269.831828 140.389161 
L 270.140537 138.56565 
L 270.75973 133.513333 
L 271.070214 132.852382 
L 271.381288 133.508292 
L 272.318026 136.482167 
L 272.945388 138.423547 
L 273.574883 140.41351 
L 274.520925 142.290786 
L 274.836087 142.715426 
L 275.150903 142.901044 
L 275.46523 142.733152 
L 275.778938 142.187187 
L 276.403996 140.351716 
L 277.641603 136.350886 
L 278.252601 134.945149 
L 278.555852 134.552857 
L 278.857505 134.379154 
L 279.157489 134.421807 
L 279.455739 134.647168 
L 280.0468 135.610922 
L 280.630245 137.205578 
L 281.490301 140.533669 
L 284.730266 154.047015 
L 284.984814 154.277425 
L 285.486586 153.632979 
L 285.733824 153.74751 
L 286.461145 155.259287 
L 286.698881 155.457855 
L 286.93432 155.992518 
L 287.167489 157.793829 
L 287.627063 166.444886 
L 288.077711 173.503168 
L 288.299798 173.650059 
L 288.737863 171.521098 
L 288.954003 171.89884 
L 289.380922 175.423311 
L 290.00956 180.791622 
L 290.422163 181.52826 
L 290.626803 184.211163 
L 291.633016 213.336094 
L 292.222764 220.272671 
L 292.802849 231.185422 
L 293.183855 234.591764 
L 293.559706 235.589077 
L 293.745558 235.631826 
L 293.929997 235.438974 
L 295.00649 233.236791 
L 295.696167 232.535606 
L 296.854431 231.175078 
L 297.492073 230.891293 
L 298.418223 230.802939 
L 298.868912 230.996787 
L 299.313032 231.546434 
L 300.047542 232.591918 
L 300.195018 232.084151 
L 300.343065 230.636568 
L 300.641087 222.96836 
L 300.941275 203.925994 
L 301.24311 181.586882 
L 301.394563 178.519422 
L 301.850609 187.309437 
L 302.003087 186.708314 
L 302.615197 177.450131 
L 302.922468 185.266007 
L 303.384356 198.351995 
L 303.692625 202.416194 
L 304.155343 206.678345 
L 305.238905 219.480736 
L 305.550291 220.270595 
L 305.706329 220.432179 
L 305.862515 220.911119 
L 306.330786 224.180094 
L 306.951226 228.180139 
L 307.412326 229.842792 
L 307.565268 230.062263 
L 307.717873 230.061746 
L 307.870162 229.773981 
L 308.022151 229.093515 
L 308.325303 226.119077 
L 309.230874 213.839211 
L 310.444945 205.47659 
L 310.598274 206.067599 
L 310.906184 209.501899 
L 311.682667 219.036628 
L 312.152555 222.225071 
L 312.625393 224.066749 
L 313.101496 225.047486 
L 313.742056 225.766359 
L 314.065028 225.83176 
L 314.227216 225.675267 
L 314.552966 224.78102 
L 314.880215 222.868734 
L 315.373199 217.192571 
L 315.703327 214.062232 
L 316.034698 212.833475 
L 316.367305 211.492231 
L 316.868586 208.411924 
L 317.036366 208.638378 
L 317.373045 211.936297 
L 317.711196 215.19161 
L 318.050763 216.709948 
L 318.562766 218.235868 
L 319.250037 220.975209 
L 319.595378 221.390739 
L 320.639842 221.956582 
L 320.815882 221.883333 
L 320.99276 221.68698 
L 321.170582 221.278706 
L 321.349432 220.484107 
L 321.52938 218.966266 
L 321.710485 216.162325 
L 322.076307 203.346144 
L 323.011689 150.956941 
L 323.393677 140.872525 
L 323.78004 125.140655 
L 323.974859 121.48505 
L 324.170773 121.203209 
L 324.765088 125.357752 
L 325.166752 126.662652 
L 325.572743 130.557989 
L 325.983026 135.157204 
L 326.397563 137.833331 
L 327.239225 141.867805 
L 327.452231 142.230634 
L 327.881314 142.30113 
L 328.53253 142.192274 
L 328.97167 141.605494 
L 330.996044 138.455029 
L 332.388211 136.844949 
L 333.573499 135.926496 
L 334.537781 135.435831 
L 335.762739 135.071944 
L 337.008989 135.021086 
L 338.020977 135.166291 
L 339.563354 135.678954 
L 341.398836 136.646006 
L 344.358808 138.671941 
L 346.288829 139.925103 
L 347.407395 140.417866 
L 348.253662 140.592561 
L 349.106103 140.503589 
L 349.676972 140.247208 
L 350.248291 139.811652 
L 351.103361 138.76632 
L 351.952923 137.178592 
L 352.793931 135.151773 
L 356.027705 126.583076 
L 357.047967 124.063549 
L 357.297998 122.913597 
L 357.791842 119.025583 
L 358.277272 114.151413 
L 358.516838 113.811218 
L 358.989793 116.037813 
L 359.223254 116.366223 
L 359.684334 115.2293 
L 360.137995 113.403859 
L 360.584886 109.767108 
L 360.805982 107.356799 
L 361.46041 94.648096 
L 361.675602 94.093778 
L 362.312128 98.091358 
L 362.521302 98.194944 
L 362.935203 97.214767 
L 363.139963 97.146111 
L 363.343317 97.61076 
L 364.143899 100.813955 
L 364.731201 104.561074 
L 365.682384 108.621909 
L 366.959067 113.012506 
L 367.837787 115.307929 
L 369.027802 117.714071 
L 369.689337 118.688422 
L 370.177297 119.062235 
L 370.817402 119.274646 
L 371.446405 119.28627 
L 371.912121 119.012732 
L 372.528713 118.388516 
L 372.837212 117.088986 
L 373.300878 113.112169 
L 373.765554 109.091005 
L 373.920662 108.795712 
L 374.231222 107.215275 
L 374.697848 105.070151 
L 375.00931 104.471147 
L 375.165102 104.602109 
L 375.476735 105.631909 
L 377.037952 112.574724 
L 377.665908 114.06763 
L 378.767998 115.956995 
L 379.555462 116.893036 
L 380.185673 117.341072 
L 380.659301 117.376172 
L 380.975816 117.192309 
L 381.451971 116.569047 
L 382.569906 114.76003 
L 382.891211 114.582514 
L 385.330436 114.309851 
L 385.824695 114.559323 
L 386.487514 115.170334 
L 387.828403 116.526123 
L 388.507073 116.997744 
L 389.880518 117.660668 
L 390.926432 118.16084 
L 391.279144 118.090604 
L 391.634257 117.71505 
L 393.083631 115.713548 
L 393.641967 115.028961 
L 394.210284 113.800772 
L 394.401976 114.081603 
L 395.180046 116.733342 
L 395.377421 118.709414 
L 396.381517 135.364564 
L 396.585721 136.181034 
L 397.204835 140.174775 
L 397.413342 140.408148 
L 398.902016 137.292906 
L 399.33654 136.020593 
L 399.775067 135.301991 
L 400.663952 134.336001 
L 401.114225 134.30462 
L 402.026222 134.717016 
L 402.720081 135.316471 
L 403.422248 135.258894 
L 404.610636 136.483125 
L 405.821131 138.581341 
L 407.552 137.075026 
L 408.05416 136.892989 
L 408.559645 137.036153 
L 409.324025 137.638166 
L 410.874533 139.320749 
L 411.660463 139.745968 
L 412.453385 139.834302 
L 413.253203 139.673823 
L 417.631719 138.281506 
L 419.604902 137.833831 
L 419.889552 137.836093 
L 420.174886 137.95482 
L 421.034959 138.70328 
L 421.611707 138.382038 
L 422.191123 137.861229 
L 423.065205 136.905403 
L 423.357877 137.054995 
L 424.535058 138.342046 
L 426.320012 139.335602 
L 426.920035 139.22485 
L 427.522545 138.854154 
L 430.264128 136.415956 
L 431.188811 136.138596 
L 431.80822 136.121129 
L 432.429972 136.28678 
L 433.05405 136.660369 
L 434.624311 137.929651 
L 434.940072 137.77257 
L 435.890736 135.341668 
L 436.208744 135.084984 
L 436.527309 135.277625 
L 436.846428 136.148816 
L 437.8071 142.219082 
L 438.128425 142.042037 
L 440.06359 137.728587 
L 441.028717 135.853846 
L 441.668645 134.834634 
L 441.987211 134.691411 
L 442.304701 134.775192 
L 442.621014 135.076431 
L 443.249733 136.395194 
L 444.489169 139.825863 
L 445.098688 140.930907 
L 445.400668 141.287859 
L 445.700716 141.463876 
L 445.99878 141.45014 
L 446.294809 141.265413 
L 446.880576 140.368063 
L 447.457681 138.853465 
L 448.025832 136.849017 
L 449.134281 131.702569 
L 450.980347 123.046334 
L 451.733522 120.847965 
L 451.979418 120.648178 
L 452.46347 120.7008 
L 453.170326 120.199899 
L 453.400845 119.562565 
L 453.854276 116.328079 
L 455.154482 105.773224 
L 455.362484 104.221328 
L 455.568007 103.534081 
L 455.771074 104.500778 
L 456.366372 112.553373 
L 456.560586 109.276792 
L 456.943462 99.178174 
L 457.132361 96.948277 
L 457.319721 96.225486 
L 457.690183 95.903747 
L 458.055566 95.049403 
L 458.236583 94.981697 
L 458.416585 95.623208 
L 458.773801 99.584531 
L 459.304248 105.326194 
L 460.0049 109.579204 
L 460.696006 112.568045 
L 461.203061 113.765706 
L 461.698349 114.43714 
L 463.416668 116.247728 
L 464.590836 117.901469 
L 465.448802 118.710729 
L 465.876405 118.850484 
L 466.162748 118.729236 
L 466.886508 117.988277 
L 467.476158 117.077984 
L 469.000541 113.966911 
L 470.277855 111.453119 
L 470.77156 110.750324 
L 471.105476 110.583459 
L 471.443464 110.631548 
L 471.785748 110.914001 
L 472.483907 111.97618 
L 472.839963 113.590791 
L 473.750403 120.186179 
L 474.498952 128.895309 
L 474.68883 129.108044 
L 474.879792 128.839845 
L 475.071835 128.183946 
L 475.654501 124.370431 
L 476.247199 120.41986 
L 476.647971 119.519873 
L 476.850033 119.573442 
L 477.053198 119.96392 
L 477.462785 121.62496 
L 477.876618 124.298204 
L 478.716678 131.430164 
L 479.573023 135.71932 
L 479.789647 135.828859 
L 480.225936 135.084645 
L 480.44559 135.196399 
L 481.558653 138.489855 
L 481.784155 140.040362 
L 482.695501 148.784948 
L 483.849212 152.958445 
L 484.08041 153.17629 
L 484.542355 152.903872 
L 484.772959 153.407611 
L 485.233242 156.441515 
L 485.921141 162.286787 
L 486.377954 169.686143 
L 487.059769 181.733647 
L 487.511266 186.762637 
L 488.404894 193.556524 
L 489.285107 197.970595 
L 489.720642 202.460797 
L 490.582971 216.504666 
L 491.222118 225.395142 
L 491.854212 230.575071 
L 492.271101 232.542364 
L 492.684222 233.449434 
L 493.093637 233.67164 
L 493.499483 233.884888 
L 494.499381 235.042103 
L 495.090469 234.781758 
L 495.870771 234.853867 
L 496.064646 234.214643 
L 496.451074 230.888089 
L 497.027844 223.993611 
L 497.219503 222.839876 
L 497.410916 222.85732 
L 497.983747 225.130455 
L 498.174224 225.348301 
L 498.364501 225.2521 
L 498.744605 224.369389 
L 499.124371 222.596136 
L 500.264445 215.873449 
L 500.645493 218.734288 
L 501.026719 221.775172 
L 501.407649 223.287204 
L 501.788185 223.751219 
L 502.168314 223.953456 
L 502.737785 224.482463 
L 503.306444 224.503667 
L 503.685175 225.211666 
L 504.063697 225.777911 
L 504.252926 225.643966 
L 504.631499 224.648927 
L 505.58004 221.46367 
L 506.151322 219.641689 
L 506.34217 220.099062 
L 507.107617 224.040309 
L 508.258254 227.363395 
L 508.640475 227.882629 
L 508.831199 227.761012 
L 509.211952 227.338049 
L 509.402033 227.533291 
L 509.971324 228.578026 
L 510.160809 228.63682 
L 510.350201 228.491169 
L 510.728885 227.575904 
L 511.29707 224.946604 
L 511.67618 221.978773 
L 512.245961 215.812276 
L 512.436329 216.458248 
L 513.008842 220.223746 
L 513.200139 220.559451 
L 513.39169 220.55839 
L 513.583501 220.431799 
L 513.775548 220.439488 
L 513.967782 220.75361 
L 514.737646 223.036872 
L 515.122771 223.871253 
L 516.085328 227.252198 
L 516.470233 227.467591 
L 516.855286 227.528451 
L 517.433384 227.815347 
L 517.626261 227.777905 
L 518.398779 227.218326 
L 518.978034 227.549131 
L 519.170896 227.428171 
L 519.556361 226.933389 
L 519.748988 226.909471 
L 520.326525 227.486736 
L 520.518949 227.45521 
L 520.711366 227.22725 
L 521.867131 224.729658 
L 522.253129 222.861438 
L 522.639198 221.39006 
L 522.832088 221.626852 
L 523.217132 222.776789 
L 523.40915 222.940683 
L 523.600776 222.635414 
L 524.172995 220.782125 
L 524.362749 220.604824 
L 524.928749 220.612133 
L 525.116323 220.17853 
L 525.676032 218.368283 
L 526.231612 220.235452 
L 526.415963 219.773731 
L 526.783619 216.622066 
L 527.333339 211.417109 
L 527.51636 211.124785 
L 527.699373 211.505793 
L 527.882426 211.630239 
L 528.065568 210.601373 
L 528.432305 207.174172 
L 528.61597 207.452969 
L 528.983938 211.811142 
L 529.537262 218.386367 
L 530.277249 223.442499 
L 530.832784 226.795812 
L 531.202177 228.061198 
L 531.386422 228.222085 
L 531.570343 228.098556 
L 531.937267 227.310196 
L 532.668182 225.167625 
L 533.214607 223.035607 
L 533.578423 222.214643 
L 533.760287 221.331817 
L 534.124206 217.757792 
L 534.854907 208.849496 
L 535.778979 203.559478 
L 535.965568 204.365585 
L 536.528411 211.699408 
L 537.094525 217.712508 
L 537.663333 221.0155 
L 538.044375 222.229058 
L 538.235596 222.322114 
L 538.427375 221.87887 
L 538.619771 220.740807 
L 539.006644 216.287816 
L 539.988295 199.837353 
L 541.804029 167.934327 
L 542.209555 162.17181 
L 544.195443 120.097122 
L 544.57953 116.790786 
L 545.144891 113.801934 
L 545.514071 111.743392 
L 545.696247 111.277302 
L 545.876786 111.165322 
L 546.232906 111.227677 
L 546.408482 110.924296 
L 546.754684 108.367322 
L 547.261697 103.851476 
L 547.591559 102.836695 
L 547.914966 102.035918 
L 548.388326 100.315449 
L 548.543194 100.164228 
L 549.00048 100.397604 
L 549.300447 99.247847 
L 549.745255 97.153364 
L 549.892448 96.920212 
L 550.039149 96.903513 
L 550.185363 97.162823 
L 550.476447 99.027694 
L 551.197846 105.924106 
L 551.768581 109.266416 
L 553.168116 115.498118 
L 553.716182 117.35401 
L 553.98413 117.819653 
L 554.2472 117.909289 
L 554.505466 117.764156 
L 554.884755 117.275525 
L 555.500187 116.46098 
L 555.7432 116.434334 
L 555.985476 116.606811 
L 556.348525 117.181448 
L 556.834947 117.955516 
L 557.080029 117.923608 
L 557.326645 117.516883 
L 557.69984 116.165847 
L 558.459049 112.806557 
L 558.846649 112.135684 
L 559.375552 111.515393 
L 559.510412 111.801162 
L 559.783786 113.541949 
L 560.346598 117.888603 
L 560.636425 120.299371 
L 561.081801 125.567087 
L 561.385739 126.875764 
L 561.69523 128.175535 
L 562.0102 129.34796 
L 562.169717 129.277163 
L 563.323636 127.218042 
L 563.837819 125.959197 
L 564.363569 125.365109 
L 564.900706 125.267864 
L 565.265019 125.545272 
L 566.008273 126.612849 
L 567.158735 129.229586 
L 569.790779 135.646 
L 571.066697 137.995557 
L 571.937819 139.146003 
L 572.824924 139.960662 
L 573.72766 140.432624 
L 574.414764 140.550212 
L 575.34404 140.471167 
L 576.288036 140.109399 
L 577.246442 139.516017 
L 578.21896 138.797191 
L 579.454018 137.594672 
L 580.710143 136.28072 
L 582.50315 135.560709 
L 583.545328 135.013718 
L 584.071064 135.05298 
L 584.599027 135.330311 
L 585.127766 135.859555 
L 585.655982 136.764732 
L 586.444888 138.590185 
L 587.742957 142.711513 
L 590.477278 151.684363 
L 590.951424 152.372987 
L 592.546783 153.426886 
L 592.766461 153.931152 
L 593.199866 156.062722 
L 593.625596 159.604456 
L 594.043978 165.671878 
L 594.455415 171.777129 
L 594.860367 173.713163 
L 595.060573 174.458704 
L 595.45683 177.950906 
L 595.848186 182.653545 
L 596.042335 183.147851 
L 596.235673 182.6967 
L 596.428359 183.402325 
L 596.81223 192.226667 
L 597.385109 206.867347 
L 598.1408 222.332618 
L 598.512811 229.46322 
L 598.879443 232.949334 
L 599.239865 234.287041 
L 599.417678 234.576943 
L 599.593912 234.650925 
L 599.941777 234.355037 
L 600.620311 233.614499 
L 602.07927 232.599697 
L 602.236774 232.724938 
L 602.549295 233.427694 
L 603.165327 235.122682 
L 603.771348 236.001197 
L 603.921581 236.078182 
L 604.071385 235.943847 
L 604.369883 234.783467 
L 604.815594 231.783265 
L 605.112573 228.303202 
L 605.411347 221.138108 
L 605.713095 207.762644 
L 606.172003 181.969907 
L 606.326615 180.751694 
L 606.950609 189.592869 
L 607.107456 190.731696 
L 607.421548 196.231476 
L 607.89248 205.520891 
L 608.049071 206.807744 
L 608.205341 207.013013 
L 608.5168 206.27928 
L 608.671992 207.032971 
L 609.135523 214.753668 
L 609.442871 218.250008 
L 609.596046 218.788609 
L 609.748904 218.714813 
L 610.205978 217.29704 
L 610.358018 217.555576 
L 611.117899 221.668191 
L 611.422394 220.261543 
L 611.574897 219.562135 
L 611.727601 219.61989 
L 612.033607 221.549617 
L 612.493865 224.350422 
L 612.955287 225.645476 
L 613.418129 226.338273 
L 614.194627 226.97102 
L 614.507639 226.967988 
L 614.980439 226.315145 
L 615.617382 225.494713 
L 616.09999 224.854188 
L 616.424168 224.059115 
L 616.750372 222.567718 
L 617.07871 219.555609 
L 617.575661 214.146797 
L 617.742572 213.589821 
L 617.910122 213.592465 
L 618.756807 214.88777 
L 618.927792 214.979381 
L 619.099299 215.254022 
L 619.443831 216.554934 
L 620.138731 219.133998 
L 621.194876 222.559787 
L 621.728539 223.430744 
L 622.265699 223.843366 
L 622.80658 223.974837 
L 623.351738 223.919583 
L 623.717919 223.530509 
L 624.086691 222.382195 
L 624.458569 220.138741 
L 624.834148 216.604696 
L 625.214058 210.612347 
L 625.598832 199.172389 
L 626.78239 150.679426 
L 627.186122 139.882816 
L 627.594283 128.976664 
L 627.800009 127.056206 
L 628.006822 126.865671 
L 628.423678 127.703703 
L 628.844792 127.965704 
L 629.056928 128.65474 
L 630.791058 138.726391 
L 631.234683 139.578792 
L 631.682255 139.871552 
L 631.9075 139.802671 
L 632.133706 139.412137 
L 633.048019 136.494387 
L 633.510806 135.578532 
L 633.743597 134.931066 
L 633.977315 134.746889 
L 634.211961 135.937195 
L 634.684045 139.183172 
L 634.921483 138.837501 
L 635.399119 136.508177 
L 635.880383 135.437016 
L 636.122345 134.224233 
L 636.608823 130.780655 
L 636.853318 129.809694 
L 637.098644 129.413817 
L 637.839637 129.177533 
L 638.088312 129.264753 
L 638.337829 129.637781 
L 638.839374 131.1764 
L 640.107729 135.742902 
L 640.620783 136.995867 
L 640.878519 137.334815 
L 641.137054 137.475887 
L 641.917422 137.189886 
L 642.441599 137.730509 
L 642.704855 138.298 
L 643.233685 141.679832 
L 643.765576 147.668885 
L 644.032658 148.591997 
L 644.300492 146.358331 
L 645.108492 135.062645 
L 645.379336 134.79492 
L 645.650945 135.03402 
L 645.923327 134.620877 
L 646.196485 135.313794 
L 646.470405 138.833689 
L 647.02042 149.271654 
L 647.296449 152.569024 
L 648.686701 160.844761 
L 648.966833 161.287737 
L 649.247665 160.840666 
L 649.811408 158.610792 
L 650.377891 154.921639 
L 651.232708 146.368919 
L 652.0936 138.425459 
L 652.670885 134.640306 
L 653.250836 132.162097 
L 653.541804 131.664462 
L 653.83343 132.200286 
L 654.125712 133.606028 
L 654.71223 139.118488 
L 655.596849 148.411073 
L 655.893 146.072837 
L 656.487207 134.743011 
L 656.785271 132.779857 
L 657.083983 134.372791 
L 657.383352 136.932197 
L 657.98406 140.364296 
L 659.192754 155.103148 
L 660.105164 159.066156 
L 660.71642 162.591806 
L 661.022955 163.632599 
L 661.330089 163.838067 
L 661.637817 163.180232 
L 661.946136 161.727572 
L 662.564534 156.222423 
L 663.808271 142.798182 
L 664.747054 135.12278 
L 665.37576 132.035395 
L 665.690968 131.309498 
L 666.323087 130.748566 
L 666.957461 130.577016 
L 667.275487 130.831431 
L 667.594067 131.572133 
L 667.9132 132.754309 
L 668.232884 135.51033 
L 669.195208 152.33092 
L 669.839446 157.664724 
L 670.162355 154.910364 
L 670.809765 133.062192 
L 671.134289 130.278652 
L 671.459388 133.884588 
L 672.438361 148.486376 
L 674.079858 164.487702 
L 674.739394 169.470025 
L 675.069916 170.968851 
L 675.400947 171.944727 
L 675.732483 172.059862 
L 676.064514 171.919333 
L 676.397034 172.874444 
L 676.730035 173.178556 
L 677.063511 170.12784 
L 678.066808 153.299726 
L 679.513182 136.912714 
L 679.513182 136.912714 
" clip-path="url(#p23ff0b668f)" style="fill: none; stroke: #2ca02c; stroke-width: 0.9; stroke-linecap: square"/>
   </g>
   <g id="line2d_38">
    <path d="M 85.776818 137.337224 
L 86.115305 136.34891 
L 86.454261 135.953647 
L 87.473934 137.160757 
L 87.814758 136.947039 
L 88.156046 136.593702 
L 88.497798 136.436138 
L 88.840013 136.591541 
L 89.525827 137.272433 
L 90.213479 137.508316 
L 90.902961 137.628515 
L 91.940596 138.103423 
L 92.982295 138.164048 
L 94.377494 138.111163 
L 96.836105 137.529499 
L 100.74247 136.714298 
L 102.53501 136.516698 
L 104.337904 136.413887 
L 106.150999 136.470509 
L 107.608714 136.703936 
L 108.706165 137.079021 
L 109.80595 137.629421 
L 110.904069 138.434246 
L 111.99665 139.529804 
L 113.439277 141.31559 
L 116.253553 145.345482 
L 116.597184 145.62744 
L 116.938808 145.732272 
L 117.278455 145.615377 
L 117.616209 145.139125 
L 117.952159 144.252768 
L 118.618956 141.410863 
L 119.279479 137.896967 
L 119.607596 138.368944 
L 119.934401 141.823092 
L 120.259978 147.465201 
L 121.551523 175.539394 
L 121.872037 171.182325 
L 122.191736 156.563974 
L 122.510721 132.726479 
L 122.829117 119.948409 
L 123.147089 121.198373 
L 123.782449 143.308546 
L 124.417589 160.554071 
L 125.051142 169.492682 
L 125.366624 172.458294 
L 125.681263 173.462463 
L 125.995297 173.603026 
L 126.308968 174.031961 
L 126.622488 174.106721 
L 126.935977 173.476588 
L 127.5631 170.795855 
L 128.190634 167.535139 
L 128.504664 166.354818 
L 128.818911 165.685907 
L 129.133361 165.332447 
L 129.447982 164.092969 
L 129.762698 159.400891 
L 130.392106 144.395905 
L 131.021597 140.586264 
L 131.336578 133.046252 
L 132.283326 100.53926 
L 132.59963 94.015741 
L 132.916326 91.332702 
L 133.233433 92.026177 
L 133.550973 95.394291 
L 134.187405 107.718269 
L 134.825454 122.162458 
L 135.784983 138.702515 
L 136.747955 159.571577 
L 137.06984 162.611156 
L 137.392183 163.766771 
L 137.714985 163.801328 
L 138.361961 162.633519 
L 139.010764 160.754348 
L 139.661398 157.440302 
L 140.640826 149.689383 
L 142.612438 133.644668 
L 142.942684 131.80804 
L 143.273393 131.376431 
L 143.604566 132.929862 
L 143.936201 136.532782 
L 144.933886 154.231128 
L 145.267365 155.962049 
L 145.601299 149.927809 
L 146.270553 128.378966 
L 146.605903 126.898075 
L 147.27821 135.633188 
L 148.968153 158.510232 
L 149.646551 163.578242 
L 150.326476 166.843718 
L 150.667123 167.520879 
L 151.00824 167.698864 
L 151.349818 167.548515 
L 151.691847 167.166001 
L 152.034319 166.56575 
L 152.377227 165.709213 
L 152.720567 164.506937 
L 153.064338 162.834133 
L 153.753178 157.72935 
L 154.789736 146.955331 
L 155.830334 135.930022 
L 156.526334 130.818542 
L 157.224147 127.779018 
L 157.923756 125.871692 
L 158.274228 125.270926 
L 158.625142 125.204104 
L 158.976496 126.36567 
L 159.32829 130.504794 
L 160.032911 144.680075 
L 160.385405 148.293433 
L 160.737798 149.159534 
L 161.089936 147.180867 
L 161.441677 140.149813 
L 161.792893 128.751718 
L 162.143467 123.279338 
L 162.493297 125.353418 
L 163.190345 140.748001 
L 163.537355 143.64518 
L 163.883162 143.198674 
L 164.227586 143.12302 
L 164.570458 144.858338 
L 165.251244 150.286512 
L 165.925238 157.184574 
L 166.592169 165.37804 
L 166.922864 166.532017 
L 167.251643 165.427649 
L 167.578464 162.60439 
L 168.546696 149.801706 
L 171.027195 116.667514 
L 171.326189 115.661789 
L 171.622642 115.688918 
L 171.91653 116.367615 
L 172.496529 118.820793 
L 173.066045 123.009498 
L 173.624982 129.583061 
L 175.237861 151.528683 
L 175.754098 156.04921 
L 176.508311 160.438263 
L 176.997625 162.483429 
L 177.711193 164.523424 
L 178.17321 165.246225 
L 178.845536 166.007476 
L 179.064093 166.035347 
L 179.492835 165.565393 
L 180.114925 164.44148 
L 180.515578 164.229419 
L 181.095463 162.774826 
L 181.283162 163.412587 
L 181.829607 167.596004 
L 182.006258 167.772485 
L 182.351501 166.412117 
L 182.520196 166.86939 
L 182.850022 173.35006 
L 183.170226 179.699746 
L 183.326972 180.378267 
L 183.48165 179.968198 
L 183.93497 178.00879 
L 184.08324 178.005482 
L 184.668857 179.271742 
L 184.814707 179.192861 
L 184.960897 178.700664 
L 185.255643 176.236501 
L 185.862793 170.081537 
L 186.812699 163.230143 
L 187.552711 158.601361 
L 187.948147 157.430368 
L 188.317226 156.973102 
L 188.785849 156.70428 
L 189.131207 156.725687 
L 189.594698 156.818072 
L 189.948436 156.572819 
L 190.067848 156.685693 
L 190.188097 157.255317 
L 190.309241 157.010916 
L 190.554466 128.577765 
L 190.931539 156.591464 
L 191.060273 145.877059 
L 191.32267 111.889428 
L 191.456359 112.02727 
L 191.86742 132.428933 
L 192.149771 121.011548 
L 192.293424 120.605823 
L 192.884123 137.798845 
L 193.035728 137.214113 
L 193.188867 137.777689 
L 193.657286 144.131384 
L 193.81636 144.68852 
L 193.976869 144.64669 
L 194.13879 144.814751 
L 194.302099 145.84613 
L 194.968829 152.209875 
L 195.310142 153.954758 
L 196.008864 158.526652 
L 196.186904 158.483915 
L 196.546997 157.001941 
L 197.097081 154.343069 
L 197.848235 148.261733 
L 198.81418 141.122362 
L 199.407691 138.4401 
L 200.0114 136.849839 
L 200.625106 135.941967 
L 201.881732 134.612261 
L 203.836994 132.740153 
L 204.506822 132.374098 
L 204.958256 132.264823 
L 205.642618 132.382148 
L 206.3355 132.924824 
L 207.036762 133.981968 
L 207.745517 135.658217 
L 208.69468 138.427317 
L 210.804455 145.138428 
L 211.263484 147.627462 
L 211.717803 152.204203 
L 212.389281 159.236791 
L 212.829522 161.250791 
L 213.263272 163.195864 
L 213.477574 163.438335 
L 213.690092 162.051325 
L 214.109648 155.937541 
L 214.316637 155.93036 
L 215.125738 168.981402 
L 215.518916 172.163909 
L 216.09426 178.090072 
L 216.467812 179.699756 
L 216.651476 179.551015 
L 216.833023 178.660301 
L 217.537942 173.124468 
L 218.045412 177.536423 
L 218.210918 177.741457 
L 218.374765 177.327337 
L 218.857407 175.626842 
L 219.015655 175.892095 
L 219.328729 177.336752 
L 219.637754 178.665864 
L 219.790904 177.935212 
L 220.699578 170.001793 
L 221.462762 165.577083 
L 222.999563 158.350993 
L 223.585049 156.673069 
L 224.01399 156.233614 
L 224.437019 156.187817 
L 225.693989 156.376409 
L 226.254445 156.078059 
L 226.818449 155.721272 
L 226.96024 155.749563 
L 227.102456 155.899135 
L 227.388503 156.728581 
L 228.267076 161.200435 
L 228.417729 161.190253 
L 228.569884 159.988874 
L 229.194215 147.508329 
L 229.354157 147.43884 
L 229.515583 146.768763 
L 230.175763 137.899262 
L 230.514302 139.429269 
L 230.685635 139.415634 
L 231.032371 138.474988 
L 231.207752 138.73409 
L 231.741829 140.739099 
L 232.104391 141.267836 
L 232.84479 143.622683 
L 233.222486 143.357989 
L 233.798145 142.808846 
L 234.582018 141.754392 
L 235.383922 141.262164 
L 235.996913 141.667497 
L 237.252033 141.274748 
L 237.678845 140.788348 
L 239.42694 138.160411 
L 239.64995 138.012772 
L 240.098906 138.03138 
L 240.779596 138.372473 
L 241.238158 137.067334 
L 241.933032 134.782604 
L 242.166509 134.691216 
L 242.872432 134.926025 
L 243.109562 135.392595 
L 243.826398 138.599925 
L 244.06715 138.950017 
L 244.55133 139.147497 
L 245.039042 139.678611 
L 245.284207 139.605443 
L 245.777126 138.567811 
L 247.024301 135.904766 
L 247.529037 134.928652 
L 248.037077 134.43242 
L 248.54839 134.214498 
L 249.062946 134.205476 
L 249.580714 134.433343 
L 251.152991 135.576284 
L 252.484537 136.393354 
L 253.563416 136.790029 
L 255.203978 137.123037 
L 264.974851 138.122757 
L 265.873514 137.950405 
L 266.777795 137.336151 
L 267.68763 136.755462 
L 267.992132 136.931075 
L 268.297242 137.712938 
L 268.909276 139.863594 
L 269.523714 140.560651 
L 269.831828 140.377375 
L 270.140537 138.561144 
L 270.75973 133.525276 
L 271.070214 132.85647 
L 271.381288 133.503299 
L 272.318026 136.480179 
L 272.945388 138.427944 
L 273.574883 140.418372 
L 274.520925 142.268112 
L 274.836087 142.681779 
L 275.150903 142.860371 
L 275.46523 142.692397 
L 275.778938 142.153314 
L 276.403996 140.338493 
L 277.641603 136.350662 
L 278.252601 134.945414 
L 278.555852 134.553275 
L 278.857505 134.379909 
L 279.157489 134.423089 
L 279.455739 134.649008 
L 280.0468 135.613012 
L 280.630245 137.205798 
L 281.490301 140.532979 
L 284.473277 153.268596 
L 284.730266 153.991307 
L 284.984814 154.214474 
L 285.486586 153.583837 
L 285.733824 153.693348 
L 286.461145 155.145231 
L 286.698881 155.330245 
L 286.93432 155.838048 
L 287.167489 157.554803 
L 287.627063 165.558123 
L 288.077711 171.42831 
L 288.299798 171.289691 
L 288.737863 169.081892 
L 288.954003 169.170724 
L 290.00956 173.972388 
L 290.422163 173.807572 
L 290.626803 175.071331 
L 291.032862 179.953066 
L 291.234143 180.337195 
L 291.633016 177.532109 
L 292.802849 168.161915 
L 293.559706 163.966718 
L 294.113006 161.899011 
L 294.653376 160.551322 
L 295.525765 159.060113 
L 296.854431 157.20529 
L 297.334219 156.94547 
L 299.313032 156.328202 
L 299.900485 155.848972 
L 300.047542 155.868093 
L 300.195018 156.002131 
L 300.343065 156.288246 
L 300.641087 157.665636 
L 301.092006 161.224021 
L 301.24311 161.068724 
L 301.394563 161.708592 
L 301.850609 167.953332 
L 302.003087 168.547572 
L 302.155786 168.223229 
L 302.461844 166.36106 
L 302.615197 166.675283 
L 303.230302 172.152838 
L 303.384356 171.880293 
L 304.001054 168.687361 
L 305.238905 162.54453 
L 305.706329 161.36928 
L 306.018733 161.245879 
L 306.7967 161.392202 
L 307.105331 161.284281 
L 308.173856 160.506616 
L 308.476525 160.775085 
L 308.929273 161.819308 
L 310.292029 165.709161 
L 310.444945 165.78619 
L 310.598274 165.725588 
L 310.906184 165.107509 
L 311.682667 162.159062 
L 312.625393 158.805393 
L 313.260993 157.388791 
L 313.742056 156.879627 
L 314.065028 156.826238 
L 314.389871 157.06101 
L 314.716436 157.775318 
L 315.538109 160.749757 
L 316.200848 162.866988 
L 316.868586 164.269674 
L 317.036366 164.406834 
L 317.204518 164.369995 
L 317.541941 163.833457 
L 318.734119 160.921522 
L 319.595378 158.971727 
L 320.289821 158.015445 
L 320.99276 157.385291 
L 321.349432 157.340664 
L 321.710485 157.685957 
L 321.892786 158.109761 
L 322.26105 159.380034 
L 322.446997 158.223221 
L 323.393677 140.438725 
L 323.78004 125.789417 
L 323.974859 121.861988 
L 324.170773 121.099842 
L 324.965376 125.237275 
L 325.166752 126.046948 
L 325.572743 130.239112 
L 325.983026 135.091952 
L 326.397563 137.839332 
L 327.239225 141.858286 
L 327.452231 142.201246 
L 327.881314 142.244193 
L 328.53253 142.118376 
L 328.97167 141.54031 
L 330.996044 138.447773 
L 332.388211 136.845517 
L 333.573499 135.923754 
L 334.537781 135.428403 
L 335.762739 135.059411 
L 337.008989 135.006667 
L 338.020977 135.152935 
L 339.563354 135.670499 
L 341.398836 136.644062 
L 344.358808 138.669882 
L 346.288829 139.912238 
L 347.407395 140.397191 
L 348.253662 140.567623 
L 349.106103 140.478465 
L 349.676972 140.226825 
L 350.248291 139.798191 
L 351.103361 138.762334 
L 351.952923 137.178464 
L 352.793931 135.151738 
L 356.027705 126.559972 
L 357.047967 124.013191 
L 357.297998 122.842349 
L 357.791842 118.84137 
L 358.277272 113.686906 
L 358.516838 113.275504 
L 358.989793 115.583853 
L 359.223254 115.907655 
L 359.684334 114.609156 
L 360.137995 112.508979 
L 360.584886 108.253265 
L 360.805982 105.301973 
L 361.24373 92.573485 
L 361.46041 85.888662 
L 361.675602 82.821921 
L 361.889286 83.092591 
L 362.312128 85.732042 
L 362.521302 84.562111 
L 362.935203 77.626259 
L 363.343317 70.568597 
L 363.746083 68.339494 
L 363.945602 65.415097 
L 364.731201 44.718065 
L 365.115906 41.219846 
L 365.494941 39.62279 
L 366.053312 38.28507 
L 367.136828 36.841818 
L 367.313561 36.910667 
L 367.664032 37.462339 
L 368.182375 38.439144 
L 368.692236 38.916703 
L 369.027802 39.695509 
L 369.525128 41.147246 
L 369.852764 41.568675 
L 370.177297 41.613449 
L 370.817402 41.454148 
L 370.975642 41.270858 
L 371.29011 40.366717 
L 371.757353 38.612152 
L 371.912121 38.539895 
L 372.066516 38.847694 
L 372.374654 40.671165 
L 372.837212 45.962563 
L 373.146205 52.602041 
L 373.455664 65.164212 
L 373.920662 86.48984 
L 374.075884 87.893938 
L 374.231222 86.966717 
L 374.853552 79.212249 
L 375.632559 67.440269 
L 376.881324 55.229901 
L 377.351651 52.662697 
L 378.610495 47.856513 
L 379.712952 45.465745 
L 380.02803 45.237507 
L 380.34342 45.295776 
L 380.659301 45.574503 
L 380.975816 46.091086 
L 381.451971 47.413218 
L 382.249455 50.156313 
L 382.569906 50.446467 
L 383.374921 50.675089 
L 383.698507 51.046116 
L 384.348322 52.525242 
L 384.511387 52.442844 
L 385.659692 50.473344 
L 386.155522 50.138066 
L 386.820726 49.431513 
L 388.507073 48.840221 
L 389.362998 48.841797 
L 390.227342 48.729208 
L 390.575902 48.954577 
L 390.926432 49.425404 
L 391.102503 49.851208 
L 391.456386 51.813656 
L 391.991997 55.596357 
L 392.352596 56.734795 
L 392.716365 57.598809 
L 393.083631 59.175937 
L 393.454791 62.178915 
L 393.830269 68.876015 
L 394.210284 82.188481 
L 394.788735 101.570487 
L 395.377421 112.786605 
L 395.976449 131.007369 
L 396.17842 133.995067 
L 397.204835 140.204743 
L 397.413342 140.42295 
L 398.902016 137.292833 
L 399.33654 136.022208 
L 399.775067 135.29902 
L 400.663952 134.317024 
L 401.114225 134.280716 
L 402.026222 134.694476 
L 402.720081 135.301237 
L 403.422248 135.245314 
L 404.610636 136.479554 
L 405.821131 138.581492 
L 407.552 137.075201 
L 408.05416 136.893052 
L 408.559645 137.036036 
L 409.324025 137.638322 
L 410.874533 139.315277 
L 411.660463 139.734567 
L 412.453385 139.819509 
L 413.253203 139.659293 
L 417.631719 138.278982 
L 419.604902 137.833097 
L 419.889552 137.835417 
L 420.174886 137.954012 
L 421.034959 138.700845 
L 421.611707 138.379873 
L 422.191123 137.860228 
L 423.065205 136.905841 
L 423.357877 137.055113 
L 424.535058 138.341647 
L 426.320012 139.328773 
L 426.920035 139.216903 
L 427.522545 138.847652 
L 430.264128 136.415691 
L 431.188811 136.136668 
L 431.80822 136.118525 
L 432.429972 136.284337 
L 433.05405 136.658943 
L 434.624311 137.929859 
L 434.940072 137.772572 
L 435.890736 135.340855 
L 436.208744 135.082428 
L 436.527309 135.273884 
L 436.846428 136.146333 
L 437.8071 142.218297 
L 438.128425 142.031459 
L 440.06359 137.726119 
L 441.028717 135.855058 
L 441.668645 134.834216 
L 441.987211 134.689844 
L 442.304701 134.773187 
L 442.621014 135.074765 
L 443.249733 136.394972 
L 444.489169 139.825785 
L 445.098688 140.932453 
L 445.400668 141.290507 
L 445.700716 141.467763 
L 445.99878 141.455283 
L 446.294809 141.271628 
L 446.880576 140.374829 
L 447.457681 138.857406 
L 448.025832 136.847325 
L 449.40543 130.363819 
L 450.724157 123.995543 
L 451.48504 121.437595 
L 451.733522 120.824902 
L 451.979418 120.620519 
L 452.46347 120.672402 
L 453.170326 120.15105 
L 453.400845 119.49192 
L 453.854276 116.122173 
L 455.568007 101.236992 
L 455.771074 102.204215 
L 456.366372 111.472184 
L 456.560586 107.588114 
L 457.132361 90.140297 
L 458.055566 79.039172 
L 458.595629 62.761978 
L 458.951218 53.635543 
L 459.304248 49.762519 
L 459.65543 47.867562 
L 460.352169 40.915677 
L 460.5246 40.52532 
L 460.696006 40.490277 
L 461.203061 40.956124 
L 462.181732 42.106828 
L 463.266174 42.428868 
L 464.446437 43.429714 
L 465.733702 43.905486 
L 466.019396 44.333812 
L 466.450728 45.692461 
L 466.886508 47.852001 
L 467.327732 52.026873 
L 467.775141 56.099235 
L 468.53532 61.579534 
L 469.314718 70.233847 
L 470.115119 78.744656 
L 471.105476 84.567334 
L 472.307628 96.880809 
L 472.661352 100.903006 
L 474.498952 128.181372 
L 474.68883 128.516657 
L 474.879792 128.308687 
L 475.071835 127.67214 
L 475.459177 125.239144 
L 476.247199 119.159044 
L 476.647971 117.869221 
L 476.850033 117.797504 
L 477.053198 118.14279 
L 477.462785 119.975654 
L 477.876618 123.089383 
L 478.716678 131.139059 
L 479.573023 135.688528 
L 479.789647 135.806972 
L 480.225936 135.063645 
L 480.44559 135.179455 
L 481.558653 138.493311 
L 481.784155 140.044633 
L 482.466294 147.251893 
L 482.925463 149.315541 
L 483.386873 150.687152 
L 483.849212 152.269748 
L 484.08041 152.449386 
L 484.542355 152.20038 
L 484.772959 152.680249 
L 485.233242 155.478128 
L 485.921141 160.56814 
L 486.377954 166.39961 
L 486.83304 171.825148 
L 487.285866 174.114894 
L 487.511266 174.414606 
L 487.735911 174.452946 
L 488.182753 174.242286 
L 488.626169 173.717506 
L 489.285107 172.931882 
L 489.720642 172.560722 
L 489.937327 172.200761 
L 490.368499 170.773711 
L 491.644382 164.991857 
L 492.271101 163.151776 
L 492.889384 162.089906 
L 494.894065 159.433708 
L 495.481634 158.678049 
L 495.870771 158.488166 
L 496.064646 158.565146 
L 496.451074 159.143441 
L 497.983747 162.413834 
L 498.364501 162.751716 
L 498.744605 162.747847 
L 499.314215 162.262636 
L 499.884017 161.793672 
L 500.454903 161.71071 
L 500.836126 161.831642 
L 501.407649 162.059574 
L 501.788185 162.028232 
L 502.168314 161.815426 
L 503.874454 160.406653 
L 504.44218 160.202233 
L 504.820917 160.264338 
L 505.960688 160.908378 
L 506.34217 161.08964 
L 506.724501 160.927886 
L 507.683205 159.980883 
L 508.066758 159.870472 
L 510.350201 159.796739 
L 510.918245 159.832528 
L 511.486575 160.178721 
L 511.865919 160.61673 
L 512.626938 161.779143 
L 513.008842 161.875217 
L 513.583501 161.671924 
L 514.3526 161.214511 
L 517.433384 158.560332 
L 517.819243 158.38983 
L 518.205539 158.469212 
L 519.941555 159.944 
L 520.326525 159.926273 
L 521.481519 159.666512 
L 521.867131 159.692028 
L 522.253129 160.047606 
L 522.832088 161.348997 
L 523.600776 163.015818 
L 524.362749 164.232856 
L 524.928749 164.670686 
L 525.861666 165.007874 
L 526.967033 164.763801 
L 527.51636 164.952766 
L 528.065568 164.886951 
L 528.79985 165.243966 
L 529.168213 164.671226 
L 529.722022 163.21328 
L 530.462521 160.982959 
L 531.017619 160.150238 
L 531.386422 160.030216 
L 531.937267 160.219867 
L 532.485752 160.60438 
L 533.032585 161.25642 
L 533.760287 162.213951 
L 534.488875 163.090372 
L 535.038606 163.780647 
L 536.152719 164.682289 
L 536.340357 164.489313 
L 536.716817 163.677658 
L 537.283805 161.886235 
L 538.235596 158.766832 
L 538.619771 158.173758 
L 538.812843 158.127837 
L 539.006644 158.257859 
L 539.396666 159.038778 
L 539.988295 161.301855 
L 540.387229 162.80522 
L 540.588027 163.253686 
L 540.789648 163.39571 
L 540.991941 163.215 
L 541.804029 161.234285 
L 542.006953 160.294153 
L 542.411718 155.44949 
L 543.412328 135.187216 
L 544.195443 119.992274 
L 544.57953 116.35794 
L 545.144891 112.861104 
L 545.514071 110.401468 
L 545.696247 109.798208 
L 545.876786 109.61072 
L 546.232906 109.604744 
L 546.408482 109.222791 
L 546.754684 106.091892 
L 547.261697 99.934613 
L 548.543194 91.453659 
L 549.00048 90.535616 
L 549.300447 87.303969 
L 550.185363 69.821178 
L 551.197846 44.656352 
L 551.626482 40.890521 
L 551.910268 39.731834 
L 552.192385 39.36006 
L 552.472887 39.615464 
L 553.58041 41.934376 
L 554.116279 43.900822 
L 554.884755 45.356087 
L 555.378253 46.053185 
L 555.621809 46.131706 
L 555.86441 45.81265 
L 556.591198 43.953761 
L 556.712918 44.009856 
L 556.834947 44.343216 
L 557.080029 46.26674 
L 557.326645 50.747924 
L 558.3312 75.223644 
L 558.977437 87.708488 
L 559.375552 90.633837 
L 559.646467 95.958204 
L 560.203808 109.579584 
L 560.783468 119.143643 
L 561.081801 123.952742 
L 561.385739 125.818882 
L 562.0102 128.87636 
L 562.169717 128.843447 
L 562.987351 127.457211 
L 563.323636 126.732334 
L 563.837819 125.339551 
L 564.363569 124.636476 
L 564.900706 124.486647 
L 565.082246 124.566737 
L 565.820652 125.579443 
L 566.57825 127.313608 
L 567.948707 131.003949 
L 568.961233 133.680785 
L 570.21192 136.484886 
L 571.282959 138.322795 
L 572.158111 139.382318 
L 572.824924 139.946136 
L 573.72766 140.407989 
L 574.414764 140.521244 
L 575.34404 140.441536 
L 576.288036 140.084788 
L 577.246442 139.499696 
L 578.21896 138.789038 
L 579.454018 137.59404 
L 580.710143 136.280349 
L 582.50315 135.554501 
L 583.545328 135.002523 
L 584.071064 135.040983 
L 584.599027 135.320539 
L 585.127766 135.853993 
L 585.655982 136.763502 
L 586.444888 138.590782 
L 587.742957 142.703134 
L 590.477278 151.582057 
L 590.951424 152.258753 
L 592.546783 153.29862 
L 592.766461 153.784463 
L 593.199866 155.821271 
L 593.625596 159.139481 
L 594.658672 170.307885 
L 595.060573 170.723125 
L 595.45683 172.492577 
L 595.848186 174.491155 
L 596.042335 174.217789 
L 596.235673 173.470521 
L 596.428359 173.408689 
L 597.003562 176.775534 
L 597.194535 176.41031 
L 597.575174 174.132564 
L 598.696867 166.557195 
L 599.417678 163.548885 
L 600.113489 161.527264 
L 602.236774 156.801965 
L 602.85872 156.064801 
L 603.317671 155.794634 
L 603.771348 155.746096 
L 604.071385 155.88183 
L 604.518664 156.405701 
L 604.963982 156.854217 
L 605.261618 157.278222 
L 605.411347 157.982246 
L 605.713095 160.959239 
L 606.018173 163.377618 
L 606.172003 163.341822 
L 606.326615 164.200998 
L 606.794005 168.429923 
L 607.421548 169.847612 
L 607.578632 169.835657 
L 610.205978 164.33507 
L 610.661922 163.507362 
L 611.270071 162.245911 
L 612.340305 160.853137 
L 614.35093 156.616971 
L 614.664782 156.467482 
L 614.980439 156.536915 
L 615.457449 156.968409 
L 616.587013 158.098723 
L 617.07871 158.761864 
L 618.586351 161.691128 
L 618.927792 161.839221 
L 619.271315 161.720783 
L 619.790322 161.10108 
L 622.625844 157.089424 
L 623.169502 156.585052 
L 623.534531 156.463615 
L 623.901953 156.533652 
L 624.272205 156.815956 
L 624.834148 157.636604 
L 625.214058 158.523396 
L 625.793094 160.445678 
L 625.988589 159.643974 
L 626.78239 148.306754 
L 627.186122 139.651383 
L 627.594283 129.317872 
L 627.800009 127.269237 
L 628.006822 126.889866 
L 628.423678 127.491816 
L 628.633707 127.500441 
L 628.844792 127.642535 
L 629.056928 128.338143 
L 630.791058 138.736742 
L 631.234683 139.58234 
L 631.682255 139.864126 
L 631.9075 139.791615 
L 632.133706 139.400969 
L 633.048019 136.496857 
L 633.510806 135.579297 
L 633.743597 134.928274 
L 633.977315 134.739553 
L 634.211961 135.932144 
L 634.684045 139.189035 
L 634.921483 138.839853 
L 635.399119 136.507267 
L 635.880383 135.43593 
L 636.122345 134.219987 
L 636.608823 130.738685 
L 636.853318 129.731743 
L 637.098644 129.299572 
L 637.839637 128.976771 
L 638.088312 129.047669 
L 638.337829 129.42173 
L 638.839374 131.012362 
L 640.107729 135.722606 
L 640.620783 136.993384 
L 640.878519 137.334908 
L 641.137054 137.476206 
L 641.917422 137.189805 
L 642.441599 137.730516 
L 642.704855 138.297814 
L 643.233685 141.669599 
L 643.765576 147.559444 
L 644.032658 148.404212 
L 644.300492 146.180094 
L 645.108492 135.099376 
L 645.379336 134.82226 
L 645.650945 135.047694 
L 645.923327 134.631032 
L 646.196485 135.316221 
L 646.470405 138.837599 
L 647.02042 149.246401 
L 647.296449 152.408656 
L 648.407271 157.841568 
L 648.686701 158.79613 
L 648.966833 158.851471 
L 649.247665 158.235367 
L 649.811408 156.183663 
L 650.377891 153.162049 
L 650.947092 148.548786 
L 652.0936 138.39807 
L 652.670885 134.670804 
L 653.250836 132.168142 
L 653.541804 131.644039 
L 653.83343 132.163882 
L 654.125712 133.573725 
L 654.71223 139.132433 
L 655.596849 148.346238 
L 655.893 145.971765 
L 656.487207 134.783743 
L 656.785271 132.835328 
L 657.083983 134.391215 
L 657.383352 136.923644 
L 657.98406 140.356327 
L 659.192754 154.701102 
L 660.71642 159.981129 
L 661.022955 160.498204 
L 661.330089 160.395102 
L 661.637817 159.709884 
L 661.946136 158.50311 
L 662.564534 154.153033 
L 664.433557 137.469561 
L 665.061121 133.327104 
L 665.37576 132.054599 
L 665.690968 131.296483 
L 666.323087 130.676631 
L 666.957461 130.47049 
L 667.275487 130.7226 
L 667.594067 131.47669 
L 667.9132 132.684055 
L 668.232884 135.488181 
L 669.195208 152.293638 
L 669.839446 157.001968 
L 670.162355 154.163747 
L 670.809765 133.215256 
L 671.134289 130.477044 
L 671.459388 133.920659 
L 672.438361 148.332922 
L 673.422098 157.224574 
L 674.079858 162.610393 
L 674.409382 164.371801 
L 674.739394 165.269681 
L 675.069916 165.566957 
L 675.400947 165.489733 
L 676.064514 164.425055 
L 676.397034 164.71406 
L 676.730035 164.720487 
L 677.063511 162.887947 
L 678.402205 148.599198 
L 679.07446 142.590781 
L 679.513182 136.917749 
L 679.513182 136.917749 
" clip-path="url(#p23ff0b668f)" style="fill: none; stroke: #d62728; stroke-opacity: 0.8; stroke-width: 0.9; stroke-linecap: square"/>
   </g>
   <g id="patch_3">
    <path d="M 56.09 246.04 
L 56.09 26.88 
" style="fill: none; stroke: #000000; stroke-width: 0.8; stroke-linejoin: miter; stroke-linecap: square"/>
   </g>
   <g id="patch_4">
    <path d="M 709.2 246.04 
L 709.2 26.88 
" style="fill: none; stroke: #000000; stroke-width: 0.8; stroke-linejoin: miter; stroke-linecap: square"/>
   </g>
   <g id="patch_5">
    <path d="M 56.09 246.04 
L 709.2 246.04 
" style="fill: none; stroke: #000000; stroke-width: 0.8; stroke-linejoin: miter; stroke-linecap: square"/>
   </g>
   <g id="patch_6">
    <path d="M 56.09 26.88 
L 709.2 26.88 
" style="fill: none; stroke: #000000; stroke-width: 0.8; stroke-linejoin: miter; stroke-linecap: square"/>
   </g>
   <g id="text_21">
    <!-- steering-link loads over one Anderstorp Raceway lap -->
    <g transform="translate(224.036875 20.88) scale(0.12 -0.12)">
     <defs>
      <path id="DejaVuSans-67" d="M 2906 1791 
Q 2906 2416 2648 2759 
Q 2391 3103 1925 3103 
Q 1463 3103 1205 2759 
Q 947 2416 947 1791 
Q 947 1169 1205 825 
Q 1463 481 1925 481 
Q 2391 481 2648 825 
Q 2906 1169 2906 1791 
z
M 3481 434 
Q 3481 -459 3084 -895 
Q 2688 -1331 1869 -1331 
Q 1566 -1331 1297 -1286 
Q 1028 -1241 775 -1147 
L 775 -588 
Q 1028 -725 1275 -790 
Q 1522 -856 1778 -856 
Q 2344 -856 2625 -561 
Q 2906 -266 2906 331 
L 2906 616 
Q 2728 306 2450 153 
Q 2172 0 1784 0 
Q 1141 0 747 490 
Q 353 981 353 1791 
Q 353 2603 747 3093 
Q 1141 3584 1784 3584 
Q 2172 3584 2450 3431 
Q 2728 3278 2906 2969 
L 2906 3500 
L 3481 3500 
L 3481 434 
z
" transform="scale(0.015625)"/>
      <path id="DejaVuSans-6c" d="M 603 4863 
L 1178 4863 
L 1178 0 
L 603 0 
L 603 4863 
z
" transform="scale(0.015625)"/>
      <path id="DejaVuSans-76" d="M 191 3500 
L 800 3500 
L 1894 563 
L 2988 3500 
L 3597 3500 
L 2284 0 
L 1503 0 
L 191 3500 
z
" transform="scale(0.015625)"/>
      <path id="DejaVuSans-41" d="M 2188 4044 
L 1331 1722 
L 3047 1722 
L 2188 4044 
z
M 1831 4666 
L 2547 4666 
L 4325 0 
L 3669 0 
L 3244 1197 
L 1141 1197 
L 716 0 
L 50 0 
L 1831 4666 
z
" transform="scale(0.015625)"/>
      <path id="DejaVuSans-70" d="M 1159 525 
L 1159 -1331 
L 581 -1331 
L 581 3500 
L 1159 3500 
L 1159 2969 
Q 1341 3281 1617 3432 
Q 1894 3584 2278 3584 
Q 2916 3584 3314 3078 
Q 3713 2572 3713 1747 
Q 3713 922 3314 415 
Q 2916 -91 2278 -91 
Q 1894 -91 1617 61 
Q 1341 213 1159 525 
z
M 3116 1747 
Q 3116 2381 2855 2742 
Q 2594 3103 2138 3103 
Q 1681 3103 1420 2742 
Q 1159 2381 1159 1747 
Q 1159 1113 1420 752 
Q 1681 391 2138 391 
Q 2594 391 2855 752 
Q 3116 1113 3116 1747 
z
" transform="scale(0.015625)"/>
      <path id="DejaVuSans-52" d="M 2841 2188 
Q 3044 2119 3236 1894 
Q 3428 1669 3622 1275 
L 4263 0 
L 3584 0 
L 2988 1197 
Q 2756 1666 2539 1819 
Q 2322 1972 1947 1972 
L 1259 1972 
L 1259 0 
L 628 0 
L 628 4666 
L 2053 4666 
Q 2853 4666 3247 4331 
Q 3641 3997 3641 3322 
Q 3641 2881 3436 2590 
Q 3231 2300 2841 2188 
z
M 1259 4147 
L 1259 2491 
L 2053 2491 
Q 2509 2491 2742 2702 
Q 2975 2913 2975 3322 
Q 2975 3731 2742 3939 
Q 2509 4147 2053 4147 
L 1259 4147 
z
" transform="scale(0.015625)"/>
      <path id="DejaVuSans-77" d="M 269 3500 
L 844 3500 
L 1563 769 
L 2278 3500 
L 2956 3500 
L 3675 769 
L 4391 3500 
L 4966 3500 
L 4050 0 
L 3372 0 
L 2619 2869 
L 1863 0 
L 1184 0 
L 269 3500 
z
" transform="scale(0.015625)"/>
      <path id="DejaVuSans-79" d="M 2059 -325 
Q 1816 -950 1584 -1140 
Q 1353 -1331 966 -1331 
L 506 -1331 
L 506 -850 
L 844 -850 
Q 1081 -850 1212 -737 
Q 1344 -625 1503 -206 
L 1606 56 
L 191 3500 
L 800 3500 
L 1894 763 
L 2988 3500 
L 3597 3500 
L 2059 -325 
z
" transform="scale(0.015625)"/>
     </defs>
     <use xlink:href="#DejaVuSans-73"/>
     <use xlink:href="#DejaVuSans-74" transform="translate(52.099609 0)"/>
     <use xlink:href="#DejaVuSans-65" transform="translate(91.308594 0)"/>
     <use xlink:href="#DejaVuSans-65" transform="translate(152.832031 0)"/>
     <use xlink:href="#DejaVuSans-72" transform="translate(214.355469 0)"/>
     <use xlink:href="#DejaVuSans-69" transform="translate(255.46875 0)"/>
     <use xlink:href="#DejaVuSans-6e" transform="translate(283.251953 0)"/>
     <use xlink:href="#DejaVuSans-67" transform="translate(346.630859 0)"/>
     <use xlink:href="#DejaVuSans-2d" transform="translate(410.107422 0)"/>
     <use xlink:href="#DejaVuSans-6c" transform="translate(446.191406 0)"/>
     <use xlink:href="#DejaVuSans-69" transform="translate(473.974609 0)"/>
     <use xlink:href="#DejaVuSans-6e" transform="translate(501.757812 0)"/>
     <use xlink:href="#DejaVuSans-6b" transform="translate(565.136719 0)"/>
     <use xlink:href="#DejaVuSans-20" transform="translate(623.046875 0)"/>
     <use xlink:href="#DejaVuSans-6c" transform="translate(654.833984 0)"/>
     <use xlink:href="#DejaVuSans-6f" transform="translate(682.617188 0)"/>
     <use xlink:href="#DejaVuSans-61" transform="translate(743.798828 0)"/>
     <use xlink:href="#DejaVuSans-64" transform="translate(805.078125 0)"/>
     <use xlink:href="#DejaVuSans-73" transform="translate(868.554688 0)"/>
     <use xlink:href="#DejaVuSans-20" transform="translate(920.654297 0)"/>
     <use xlink:href="#DejaVuSans-6f" transform="translate(952.441406 0)"/>
     <use xlink:href="#DejaVuSans-76" transform="translate(1013.623047 0)"/>
     <use xlink:href="#DejaVuSans-65" transform="translate(1072.802734 0)"/>
     <use xlink:href="#DejaVuSans-72" transform="translate(1134.326172 0)"/>
     <use xlink:href="#DejaVuSans-20" transform="translate(1175.439453 0)"/>
     <use xlink:href="#DejaVuSans-6f" transform="translate(1207.226562 0)"/>
     <use xlink:href="#DejaVuSans-6e" transform="translate(1268.408203 0)"/>
     <use xlink:href="#DejaVuSans-65" transform="translate(1331.787109 0)"/>
     <use xlink:href="#DejaVuSans-20" transform="translate(1393.310547 0)"/>
     <use xlink:href="#DejaVuSans-41" transform="translate(1425.097656 0)"/>
     <use xlink:href="#DejaVuSans-6e" transform="translate(1493.505859 0)"/>
     <use xlink:href="#DejaVuSans-64" transform="translate(1556.884766 0)"/>
     <use xlink:href="#DejaVuSans-65" transform="translate(1620.361328 0)"/>
     <use xlink:href="#DejaVuSans-72" transform="translate(1681.884766 0)"/>
     <use xlink:href="#DejaVuSans-73" transform="translate(1722.998047 0)"/>
     <use xlink:href="#DejaVuSans-74" transform="translate(1775.097656 0)"/>
     <use xlink:href="#DejaVuSans-6f" transform="translate(1814.306641 0)"/>
     <use xlink:href="#DejaVuSans-72" transform="translate(1875.488281 0)"/>
     <use xlink:href="#DejaVuSans-70" transform="translate(1916.601562 0)"/>
     <use xlink:href="#DejaVuSans-20" transform="translate(1980.078125 0)"/>
     <use xlink:href="#DejaVuSans-52" transform="translate(2011.865234 0)"/>
     <use xlink:href="#DejaVuSans-61" transform="translate(2079.097656 0)"/>
     <use xlink:href="#DejaVuSans-63" transform="translate(2140.376953 0)"/>
     <use xlink:href="#DejaVuSans-65" transform="translate(2195.357422 0)"/>
     <use xlink:href="#DejaVuSans-77" transform="translate(2256.880859 0)"/>
     <use xlink:href="#DejaVuSans-61" transform="translate(2338.667969 0)"/>
     <use xlink:href="#DejaVuSans-79" transform="translate(2399.947266 0)"/>
     <use xlink:href="#DejaVuSans-20" transform="translate(2459.126953 0)"/>
     <use xlink:href="#DejaVuSans-6c" transform="translate(2490.914062 0)"/>
     <use xlink:href="#DejaVuSans-61" transform="translate(2518.697266 0)"/>
     <use xlink:href="#DejaVuSans-70" transform="translate(2579.976562 0)"/>
    </g>
   </g>
   <g id="legend_1">
    <g id="patch_7">
     <path d="M 630.755 56.765 
L 703.6 56.765 
Q 705.2 56.765 705.2 55.165 
L 705.2 32.48 
Q 705.2 30.88 703.6 30.88 
L 630.755 30.88 
Q 629.155 30.88 629.155 32.48 
L 629.155 55.165 
Q 629.155 56.765 630.755 56.765 
z
" style="fill: #ffffff; opacity: 0.8; stroke: #cccccc; stroke-linejoin: miter"/>
    </g>
    <g id="line2d_39">
     <path d="M 632.355 37.35875 
L 640.355 37.35875 
L 648.355 37.35875 
" style="fill: none; stroke: #2ca02c; stroke-width: 0.9; stroke-linecap: square"/>
    </g>
    <g id="text_22">
     <!-- tie rod left -->
     <g transform="translate(654.755 40.15875) scale(0.08 -0.08)">
      <use xlink:href="#DejaVuSans-74"/>
      <use xlink:href="#DejaVuSans-69" transform="translate(39.208984 0)"/>
      <use xlink:href="#DejaVuSans-65" transform="translate(66.992188 0)"/>
      <use xlink:href="#DejaVuSans-20" transform="translate(128.515625 0)"/>
      <use xlink:href="#DejaVuSans-72" transform="translate(160.302734 0)"/>
      <use xlink:href="#DejaVuSans-6f" transform="translate(199.166016 0)"/>
      <use xlink:href="#DejaVuSans-64" transform="translate(260.347656 0)"/>
      <use xlink:href="#DejaVuSans-20" transform="translate(323.824219 0)"/>
      <use xlink:href="#DejaVuSans-6c" transform="translate(355.611328 0)"/>
      <use xlink:href="#DejaVuSans-65" transform="translate(383.394531 0)"/>
      <use xlink:href="#DejaVuSans-66" transform="translate(444.917969 0)"/>
      <use xlink:href="#DejaVuSans-74" transform="translate(478.373047 0)"/>
     </g>
    </g>
    <g id="line2d_40">
     <path d="M 632.355 49.10125 
L 640.355 49.10125 
L 648.355 49.10125 
" style="fill: none; stroke: #d62728; stroke-opacity: 0.8; stroke-width: 0.9; stroke-linecap: square"/>
    </g>
    <g id="text_23">
     <!-- tie rod right -->
     <g transform="translate(654.755 51.90125) scale(0.08 -0.08)">
      <defs>
       <path id="DejaVuSans-68" d="M 3513 2113 
L 3513 0 
L 2938 0 
L 2938 2094 
Q 2938 2591 2744 2837 
Q 2550 3084 2163 3084 
Q 1697 3084 1428 2787 
Q 1159 2491 1159 1978 
L 1159 0 
L 581 0 
L 581 4863 
L 1159 4863 
L 1159 2956 
Q 1366 3272 1645 3428 
Q 1925 3584 2291 3584 
Q 2894 3584 3203 3211 
Q 3513 2838 3513 2113 
z
" transform="scale(0.015625)"/>
      </defs>
      <use xlink:href="#DejaVuSans-74"/>
      <use xlink:href="#DejaVuSans-69" transform="translate(39.208984 0)"/>
      <use xlink:href="#DejaVuSans-65" transform="translate(66.992188 0)"/>
      <use xlink:href="#DejaVuSans-20" transform="translate(128.515625 0)"/>
      <use xlink:href="#DejaVuSans-72" transform="translate(160.302734 0)"/>
      <use xlink:href="#DejaVuSans-6f" transform="translate(199.166016 0)"/>
      <use xlink:href="#DejaVuSans-64" transform="translate(260.347656 0)"/>
      <use xlink:href="#DejaVuSans-20" transform="translate(323.824219 0)"/>
      <use xlink:href="#DejaVuSans-72" transform="translate(355.611328 0)"/>
      <use xlink:href="#DejaVuSans-69" transform="translate(396.724609 0)"/>
      <use xlink:href="#DejaVuSans-67" transform="translate(424.507812 0)"/>
      <use xlink:href="#DejaVuSans-68" transform="translate(487.984375 0)"/>
      <use xlink:href="#DejaVuSans-74" transform="translate(551.363281 0)"/>
     </g>
    </g>
   </g>
  </g>
 </g>
 <defs>
  <clipPath id="p23ff0b668f">
   <rect x="56.09" y="26.88" width="653.11" height="219.16"/>
  </clipPath>
 </defs>
</svg>
