<?xml version="1.0" encoding="utf-8" standalone="no"?>
<!DOCTYPE svg PUBLIC "-//W3C//DTD SVG 1.1//EN"
  "http://www.w3.org/Graphics/SVG/1.1/DTD/svg11.dtd">
<svg xmlns:xlink="http://www.w3.org/1999/xlink" width="720pt" height="288pt" viewBox="0 0 720 288" xmlns="http://www.w3.org/2000/svg" version="1.1">
 <metadata>
  <rdf:RDF xmlns:dc="http://purl.org/dc/elements/1.1/" xmlns:cc="http://creativecommons.org/ns#" xmlns:rdf="http://www.w3.org/1999/02/22-rdf-syntax-ns#">
   <cc:Work>
    <dc:type rdf:resource="http://purl.org/dc/dcmitype/StillImage"/>
    <dc:date>2026-07-08T12:16:59.506373</dc:date>
    <dc:format>image/svg+xml</dc:format>
    <dc:creator>
     <cc:Agent>
      <dc:title>Matplotlib v3.10.8, https://matplotlib.org/</dc:title>
     </cc:Agent>
    </dc:creator>
   </cc:Work>
  </rdf:RDF>
 </metadata>
 <defs>
  <style type="text/css">*{stroke-linejoin: round; stroke-linecap: butt}</style>
 </defs>
 <g id="figure_1">
  <g id="patch_1">
   <path d="M 0 288 
L 720 288 
L 720 0 
L 0 0 
z
" style="fill: #ffffff"/>
  </g>
  <g id="axes_1">
   <g id="patch_2">
    <path d="M 56.09 246.04 
L 709.2 246.04 
L 709.2 26.88 
L 56.09 26.88 
z
" style="fill: #ffffff"/>
   </g>
   <g id="matplotlib.axis_1">
    <g id="xtick_1">
     <g id="line2d_1">
      <path d="M 85.776818 246.04 
L 85.776818 26.88 
" clip-path="url(#pc958d8e9a4)" style="fill: none; stroke: #b0b0b0; stroke-opacity: 0.3; stroke-width: 0.8; stroke-linecap: square"/>
     </g>
     <g id="line2d_2">
      <defs>
       <path id="m7fa56c1361" d="M 0 0 
L 0 3.5 
" style="stroke: #000000; stroke-width: 0.8"/>
      </defs>
      <g>
       <use xlink:href="#m7fa56c1361" x="85.776818" y="246.04" style="stroke: #000000; stroke-width: 0.8"/>
      </g>
     </g>
     <g id="text_1">
      <!-- 0.0 -->
      <g transform="translate(77.825256 260.638438) scale(0.1 -0.1)">
       <defs>
        <path id="DejaVuSans-30" d="M 2034 4250 
Q 1547 4250 1301 3770 
Q 1056 3291 1056 2328 
Q 1056 1369 1301 889 
Q 1547 409 2034 409 
Q 2525 409 2770 889 
Q 3016 1369 3016 2328 
Q 3016 3291 2770 3770 
Q 2525 4250 2034 4250 
z
M 2034 4750 
Q 2819 4750 3233 4129 
Q 3647 3509 3647 2328 
Q 3647 1150 3233 529 
Q 2819 -91 2034 -91 
Q 1250 -91 836 529 
Q 422 1150 422 2328 
Q 422 3509 836 4129 
Q 1250 4750 2034 4750 
z
" transform="scale(0.015625)"/>
        <path id="DejaVuSans-2e" d="M 684 794 
L 1344 794 
L 1344 0 
L 684 0 
L 684 794 
z
" transform="scale(0.015625)"/>
       </defs>
       <use xlink:href="#DejaVuSans-30"/>
       <use xlink:href="#DejaVuSans-2e" transform="translate(63.623047 0)"/>
       <use xlink:href="#DejaVuSans-30" transform="translate(95.410156 0)"/>
      </g>
     </g>
    </g>
    <g id="xtick_2">
     <g id="line2d_3">
      <path d="M 159.834639 246.04 
L 159.834639 26.88 
" clip-path="url(#pc958d8e9a4)" style="fill: none; stroke: #b0b0b0; stroke-opacity: 0.3; stroke-width: 0.8; stroke-linecap: square"/>
     </g>
     <g id="line2d_4">
      <g>
       <use xlink:href="#m7fa56c1361" x="159.834639" y="246.04" style="stroke: #000000; stroke-width: 0.8"/>
      </g>
     </g>
     <g id="text_2">
      <!-- 0.5 -->
      <g transform="translate(151.883077 260.638438) scale(0.1 -0.1)">
       <defs>
        <path id="DejaVuSans-35" d="M 691 4666 
L 3169 4666 
L 3169 4134 
L 1269 4134 
L 1269 2991 
Q 1406 3038 1543 3061 
Q 1681 3084 1819 3084 
Q 2600 3084 3056 2656 
Q 3513 2228 3513 1497 
Q 3513 744 3044 326 
Q 2575 -91 1722 -91 
Q 1428 -91 1123 -41 
Q 819 9 494 109 
L 494 744 
Q 775 591 1075 516 
Q 1375 441 1709 441 
Q 2250 441 2565 725 
Q 2881 1009 2881 1497 
Q 2881 1984 2565 2268 
Q 2250 2553 1709 2553 
Q 1456 2553 1204 2497 
Q 953 2441 691 2322 
L 691 4666 
z
" transform="scale(0.015625)"/>
       </defs>
       <use xlink:href="#DejaVuSans-30"/>
       <use xlink:href="#DejaVuSans-2e" transform="translate(63.623047 0)"/>
       <use xlink:href="#DejaVuSans-35" transform="translate(95.410156 0)"/>
      </g>
     </g>
    </g>
    <g id="xtick_3">
     <g id="line2d_5">
      <path d="M 233.89246 246.04 
L 233.89246 26.88 
" clip-path="url(#pc958d8e9a4)" style="fill: none; stroke: #b0b0b0; stroke-opacity: 0.3; stroke-width: 0.8; stroke-linecap: square"/>
     </g>
     <g id="line2d_6">
      <g>
       <use xlink:href="#m7fa56c1361" x="233.89246" y="246.04" style="stroke: #000000; stroke-width: 0.8"/>
      </g>
     </g>
     <g id="text_3">
      <!-- 1.0 -->
      <g transform="translate(225.940898 260.638438) scale(0.1 -0.1)">
       <defs>
        <path id="DejaVuSans-31" d="M 794 531 
L 1825 531 
L 1825 4091 
L 703 3866 
L 703 4441 
L 1819 4666 
L 2450 4666 
L 2450 531 
L 3481 531 
L 3481 0 
L 794 0 
L 794 531 
z
" transform="scale(0.015625)"/>
       </defs>
       <use xlink:href="#DejaVuSans-31"/>
       <use xlink:href="#DejaVuSans-2e" transform="translate(63.623047 0)"/>
       <use xlink:href="#DejaVuSans-30" transform="translate(95.410156 0)"/>
      </g>
     </g>
    </g>
    <g id="xtick_4">
     <g id="line2d_7">
      <path d="M 307.950282 246.04 
L 307.950282 26.88 
" clip-path="url(#pc958d8e9a4)" style="fill: none; stroke: #b0b0b0; stroke-opacity: 0.3; stroke-width: 0.8; stroke-linecap: square"/>
     </g>
     <g id="line2d_8">
      <g>
       <use xlink:href="#m7fa56c1361" x="307.950282" y="246.04" style="stroke: #000000; stroke-width: 0.8"/>
      </g>
     </g>
     <g id="text_4">
      <!-- 1.5 -->
      <g transform="translate(299.998719 260.638438) scale(0.1 -0.1)">
       <use xlink:href="#DejaVuSans-31"/>
       <use xlink:href="#DejaVuSans-2e" transform="translate(63.623047 0)"/>
       <use xlink:href="#DejaVuSans-35" transform="translate(95.410156 0)"/>
      </g>
     </g>
    </g>
    <g id="xtick_5">
     <g id="line2d_9">
      <path d="M 382.008103 246.04 
L 382.008103 26.88 
" clip-path="url(#pc958d8e9a4)" style="fill: none; stroke: #b0b0b0; stroke-opacity: 0.3; stroke-width: 0.8; stroke-linecap: square"/>
     </g>
     <g id="line2d_10">
      <g>
       <use xlink:href="#m7fa56c1361" x="382.008103" y="246.04" style="stroke: #000000; stroke-width: 0.8"/>
      </g>
     </g>
     <g id="text_5">
      <!-- 2.0 -->
      <g transform="translate(374.05654 260.638438) scale(0.1 -0.1)">
       <defs>
        <path id="DejaVuSans-32" d="M 1228 531 
L 3431 531 
L 3431 0 
L 469 0 
L 469 531 
Q 828 903 1448 1529 
Q 2069 2156 2228 2338 
Q 2531 2678 2651 2914 
Q 2772 3150 2772 3378 
Q 2772 3750 2511 3984 
Q 2250 4219 1831 4219 
Q 1534 4219 1204 4116 
Q 875 4013 500 3803 
L 500 4441 
Q 881 4594 1212 4672 
Q 1544 4750 1819 4750 
Q 2544 4750 2975 4387 
Q 3406 4025 3406 3419 
Q 3406 3131 3298 2873 
Q 3191 2616 2906 2266 
Q 2828 2175 2409 1742 
Q 1991 1309 1228 531 
z
" transform="scale(0.015625)"/>
       </defs>
       <use xlink:href="#DejaVuSans-32"/>
       <use xlink:href="#DejaVuSans-2e" transform="translate(63.623047 0)"/>
       <use xlink:href="#DejaVuSans-30" transform="translate(95.410156 0)"/>
      </g>
     </g>
    </g>
    <g id="xtick_6">
     <g id="line2d_11">
      <path d="M 456.065924 246.04 
L 456.065924 26.88 
" clip-path="url(#pc958d8e9a4)" style="fill: none; stroke: #b0b0b0; stroke-opacity: 0.3; stroke-width: 0.8; stroke-linecap: square"/>
     </g>
     <g id="line2d_12">
      <g>
       <use xlink:href="#m7fa56c1361" x="456.065924" y="246.04" style="stroke: #000000; stroke-width: 0.8"/>
      </g>
     </g>
     <g id="text_6">
      <!-- 2.5 -->
      <g transform="translate(448.114361 260.638438) scale(0.1 -0.1)">
       <use xlink:href="#DejaVuSans-32"/>
       <use xlink:href="#DejaVuSans-2e" transform="translate(63.623047 0)"/>
       <use xlink:href="#DejaVuSans-35" transform="translate(95.410156 0)"/>
      </g>
     </g>
    </g>
    <g id="xtick_7">
     <g id="line2d_13">
      <path d="M 530.123745 246.04 
L 530.123745 26.88 
" clip-path="url(#pc958d8e9a4)" style="fill: none; stroke: #b0b0b0; stroke-opacity: 0.3; stroke-width: 0.8; stroke-linecap: square"/>
     </g>
     <g id="line2d_14">
      <g>
       <use xlink:href="#m7fa56c1361" x="530.123745" y="246.04" style="stroke: #000000; stroke-width: 0.8"/>
      </g>
     </g>
     <g id="text_7">
      <!-- 3.0 -->
      <g transform="translate(522.172182 260.638438) scale(0.1 -0.1)">
       <defs>
        <path id="DejaVuSans-33" d="M 2597 2516 
Q 3050 2419 3304 2112 
Q 3559 1806 3559 1356 
Q 3559 666 3084 287 
Q 2609 -91 1734 -91 
Q 1441 -91 1130 -33 
Q 819 25 488 141 
L 488 750 
Q 750 597 1062 519 
Q 1375 441 1716 441 
Q 2309 441 2620 675 
Q 2931 909 2931 1356 
Q 2931 1769 2642 2001 
Q 2353 2234 1838 2234 
L 1294 2234 
L 1294 2753 
L 1863 2753 
Q 2328 2753 2575 2939 
Q 2822 3125 2822 3475 
Q 2822 3834 2567 4026 
Q 2313 4219 1838 4219 
Q 1578 4219 1281 4162 
Q 984 4106 628 3988 
L 628 4550 
Q 988 4650 1302 4700 
Q 1616 4750 1894 4750 
Q 2613 4750 3031 4423 
Q 3450 4097 3450 3541 
Q 3450 3153 3228 2886 
Q 3006 2619 2597 2516 
z
" transform="scale(0.015625)"/>
       </defs>
       <use xlink:href="#DejaVuSans-33"/>
       <use xlink:href="#DejaVuSans-2e" transform="translate(63.623047 0)"/>
       <use xlink:href="#DejaVuSans-30" transform="translate(95.410156 0)"/>
      </g>
     </g>
    </g>
    <g id="xtick_8">
     <g id="line2d_15">
      <path d="M 604.181566 246.04 
L 604.181566 26.88 
" clip-path="url(#pc958d8e9a4)" style="fill: none; stroke: #b0b0b0; stroke-opacity: 0.3; stroke-width: 0.8; stroke-linecap: square"/>
     </g>
     <g id="line2d_16">
      <g>
       <use xlink:href="#m7fa56c1361" x="604.181566" y="246.04" style="stroke: #000000; stroke-width: 0.8"/>
      </g>
     </g>
     <g id="text_8">
      <!-- 3.5 -->
      <g transform="translate(596.230004 260.638438) scale(0.1 -0.1)">
       <use xlink:href="#DejaVuSans-33"/>
       <use xlink:href="#DejaVuSans-2e" transform="translate(63.623047 0)"/>
       <use xlink:href="#DejaVuSans-35" transform="translate(95.410156 0)"/>
      </g>
     </g>
    </g>
    <g id="xtick_9">
     <g id="line2d_17">
      <path d="M 678.239387 246.04 
L 678.239387 26.88 
" clip-path="url(#pc958d8e9a4)" style="fill: none; stroke: #b0b0b0; stroke-opacity: 0.3; stroke-width: 0.8; stroke-linecap: square"/>
     </g>
     <g id="line2d_18">
      <g>
       <use xlink:href="#m7fa56c1361" x="678.239387" y="246.04" style="stroke: #000000; stroke-width: 0.8"/>
      </g>
     </g>
     <g id="text_9">
      <!-- 4.0 -->
      <g transform="translate(670.287825 260.638438) scale(0.1 -0.1)">
       <defs>
        <path id="DejaVuSans-34" d="M 2419 4116 
L 825 1625 
L 2419 1625 
L 2419 4116 
z
M 2253 4666 
L 3047 4666 
L 3047 1625 
L 3713 1625 
L 3713 1100 
L 3047 1100 
L 3047 0 
L 2419 0 
L 2419 1100 
L 313 1100 
L 313 1709 
L 2253 4666 
z
" transform="scale(0.015625)"/>
       </defs>
       <use xlink:href="#DejaVuSans-34"/>
       <use xlink:href="#DejaVuSans-2e" transform="translate(63.623047 0)"/>
       <use xlink:href="#DejaVuSans-30" transform="translate(95.410156 0)"/>
      </g>
     </g>
    </g>
    <g id="text_10">
     <!-- distance s [km] -->
     <g transform="translate(344.008281 274.316562) scale(0.1 -0.1)">
      <defs>
       <path id="DejaVuSans-64" d="M 2906 2969 
L 2906 4863 
L 3481 4863 
L 3481 0 
L 2906 0 
L 2906 525 
Q 2725 213 2448 61 
Q 2172 -91 1784 -91 
Q 1150 -91 751 415 
Q 353 922 353 1747 
Q 353 2572 751 3078 
Q 1150 3584 1784 3584 
Q 2172 3584 2448 3432 
Q 2725 3281 2906 2969 
z
M 947 1747 
Q 947 1113 1208 752 
Q 1469 391 1925 391 
Q 2381 391 2643 752 
Q 2906 1113 2906 1747 
Q 2906 2381 2643 2742 
Q 2381 3103 1925 3103 
Q 1469 3103 1208 2742 
Q 947 2381 947 1747 
z
" transform="scale(0.015625)"/>
       <path id="DejaVuSans-69" d="M 603 3500 
L 1178 3500 
L 1178 0 
L 603 0 
L 603 3500 
z
M 603 4863 
L 1178 4863 
L 1178 4134 
L 603 4134 
L 603 4863 
z
" transform="scale(0.015625)"/>
       <path id="DejaVuSans-73" d="M 2834 3397 
L 2834 2853 
Q 2591 2978 2328 3040 
Q 2066 3103 1784 3103 
Q 1356 3103 1142 2972 
Q 928 2841 928 2578 
Q 928 2378 1081 2264 
Q 1234 2150 1697 2047 
L 1894 2003 
Q 2506 1872 2764 1633 
Q 3022 1394 3022 966 
Q 3022 478 2636 193 
Q 2250 -91 1575 -91 
Q 1294 -91 989 -36 
Q 684 19 347 128 
L 347 722 
Q 666 556 975 473 
Q 1284 391 1588 391 
Q 1994 391 2212 530 
Q 2431 669 2431 922 
Q 2431 1156 2273 1281 
Q 2116 1406 1581 1522 
L 1381 1569 
Q 847 1681 609 1914 
Q 372 2147 372 2553 
Q 372 3047 722 3315 
Q 1072 3584 1716 3584 
Q 2034 3584 2315 3537 
Q 2597 3491 2834 3397 
z
" transform="scale(0.015625)"/>
       <path id="DejaVuSans-74" d="M 1172 4494 
L 1172 3500 
L 2356 3500 
L 2356 3053 
L 1172 3053 
L 1172 1153 
Q 1172 725 1289 603 
Q 1406 481 1766 481 
L 2356 481 
L 2356 0 
L 1766 0 
Q 1100 0 847 248 
Q 594 497 594 1153 
L 594 3053 
L 172 3053 
L 172 3500 
L 594 3500 
L 594 4494 
L 1172 4494 
z
" transform="scale(0.015625)"/>
       <path id="DejaVuSans-61" d="M 2194 1759 
Q 1497 1759 1228 1600 
Q 959 1441 959 1056 
Q 959 750 1161 570 
Q 1363 391 1709 391 
Q 2188 391 2477 730 
Q 2766 1069 2766 1631 
L 2766 1759 
L 2194 1759 
z
M 3341 1997 
L 3341 0 
L 2766 0 
L 2766 531 
Q 2569 213 2275 61 
Q 1981 -91 1556 -91 
Q 1019 -91 701 211 
Q 384 513 384 1019 
Q 384 1609 779 1909 
Q 1175 2209 1959 2209 
L 2766 2209 
L 2766 2266 
Q 2766 2663 2505 2880 
Q 2244 3097 1772 3097 
Q 1472 3097 1187 3025 
Q 903 2953 641 2809 
L 641 3341 
Q 956 3463 1253 3523 
Q 1550 3584 1831 3584 
Q 2591 3584 2966 3190 
Q 3341 2797 3341 1997 
z
" transform="scale(0.015625)"/>
       <path id="DejaVuSans-6e" d="M 3513 2113 
L 3513 0 
L 2938 0 
L 2938 2094 
Q 2938 2591 2744 2837 
Q 2550 3084 2163 3084 
Q 1697 3084 1428 2787 
Q 1159 2491 1159 1978 
L 1159 0 
L 581 0 
L 581 3500 
L 1159 3500 
L 1159 2956 
Q 1366 3272 1645 3428 
Q 1925 3584 2291 3584 
Q 2894 3584 3203 3211 
Q 3513 2838 3513 2113 
z
" transform="scale(0.015625)"/>
       <path id="DejaVuSans-63" d="M 3122 3366 
L 3122 2828 
Q 2878 2963 2633 3030 
Q 2388 3097 2138 3097 
Q 1578 3097 1268 2742 
Q 959 2388 959 1747 
Q 959 1106 1268 751 
Q 1578 397 2138 397 
Q 2388 397 2633 464 
Q 2878 531 3122 666 
L 3122 134 
Q 2881 22 2623 -34 
Q 2366 -91 2075 -91 
Q 1284 -91 818 406 
Q 353 903 353 1747 
Q 353 2603 823 3093 
Q 1294 3584 2113 3584 
Q 2378 3584 2631 3529 
Q 2884 3475 3122 3366 
z
" transform="scale(0.015625)"/>
       <path id="DejaVuSans-65" d="M 3597 1894 
L 3597 1613 
L 953 1613 
Q 991 1019 1311 708 
Q 1631 397 2203 397 
Q 2534 397 2845 478 
Q 3156 559 3463 722 
L 3463 178 
Q 3153 47 2828 -22 
Q 2503 -91 2169 -91 
Q 1331 -91 842 396 
Q 353 884 353 1716 
Q 353 2575 817 3079 
Q 1281 3584 2069 3584 
Q 2775 3584 3186 3129 
Q 3597 2675 3597 1894 
z
M 3022 2063 
Q 3016 2534 2758 2815 
Q 2500 3097 2075 3097 
Q 1594 3097 1305 2825 
Q 1016 2553 972 2059 
L 3022 2063 
z
" transform="scale(0.015625)"/>
       <path id="DejaVuSans-20" transform="scale(0.015625)"/>
       <path id="DejaVuSans-5b" d="M 550 4863 
L 1875 4863 
L 1875 4416 
L 1125 4416 
L 1125 -397 
L 1875 -397 
L 1875 -844 
L 550 -844 
L 550 4863 
z
" transform="scale(0.015625)"/>
       <path id="DejaVuSans-6b" d="M 581 4863 
L 1159 4863 
L 1159 1991 
L 2875 3500 
L 3609 3500 
L 1753 1863 
L 3688 0 
L 2938 0 
L 1159 1709 
L 1159 0 
L 581 0 
L 581 4863 
z
" transform="scale(0.015625)"/>
       <path id="DejaVuSans-6d" d="M 3328 2828 
Q 3544 3216 3844 3400 
Q 4144 3584 4550 3584 
Q 5097 3584 5394 3201 
Q 5691 2819 5691 2113 
L 5691 0 
L 5113 0 
L 5113 2094 
Q 5113 2597 4934 2840 
Q 4756 3084 4391 3084 
Q 3944 3084 3684 2787 
Q 3425 2491 3425 1978 
L 3425 0 
L 2847 0 
L 2847 2094 
Q 2847 2600 2669 2842 
Q 2491 3084 2119 3084 
Q 1678 3084 1418 2786 
Q 1159 2488 1159 1978 
L 1159 0 
L 581 0 
L 581 3500 
L 1159 3500 
L 1159 2956 
Q 1356 3278 1631 3431 
Q 1906 3584 2284 3584 
Q 2666 3584 2933 3390 
Q 3200 3197 3328 2828 
z
" transform="scale(0.015625)"/>
       <path id="DejaVuSans-5d" d="M 1947 4863 
L 1947 -844 
L 622 -844 
L 622 -397 
L 1369 -397 
L 1369 4416 
L 622 4416 
L 622 4863 
L 1947 4863 
z
" transform="scale(0.015625)"/>
      </defs>
      <use xlink:href="#DejaVuSans-64"/>
      <use xlink:href="#DejaVuSans-69" transform="translate(63.476562 0)"/>
      <use xlink:href="#DejaVuSans-73" transform="translate(91.259766 0)"/>
      <use xlink:href="#DejaVuSans-74" transform="translate(143.359375 0)"/>
      <use xlink:href="#DejaVuSans-61" transform="translate(182.568359 0)"/>
      <use xlink:href="#DejaVuSans-6e" transform="translate(243.847656 0)"/>
      <use xlink:href="#DejaVuSans-63" transform="translate(307.226562 0)"/>
      <use xlink:href="#DejaVuSans-65" transform="translate(362.207031 0)"/>
      <use xlink:href="#DejaVuSans-20" transform="translate(423.730469 0)"/>
      <use xlink:href="#DejaVuSans-73" transform="translate(455.517578 0)"/>
      <use xlink:href="#DejaVuSans-20" transform="translate(507.617188 0)"/>
      <use xlink:href="#DejaVuSans-5b" transform="translate(539.404297 0)"/>
      <use xlink:href="#DejaVuSans-6b" transform="translate(578.417969 0)"/>
      <use xlink:href="#DejaVuSans-6d" transform="translate(636.328125 0)"/>
      <use xlink:href="#DejaVuSans-5d" transform="translate(733.740234 0)"/>
     </g>
    </g>
   </g>
   <g id="matplotlib.axis_2">
    <g id="ytick_1">
     <g id="line2d_19">
      <path d="M 56.09 244.760735 
L 709.2 244.760735 
" clip-path="url(#pc958d8e9a4)" style="fill: none; stroke: #b0b0b0; stroke-opacity: 0.3; stroke-width: 0.8; stroke-linecap: square"/>
     </g>
     <g id="line2d_20">
      <defs>
       <path id="m07fd802be6" d="M 0 0 
L -3.5 0 
" style="stroke: #000000; stroke-width: 0.8"/>
      </defs>
      <g>
       <use xlink:href="#m07fd802be6" x="56.09" y="244.760735" style="stroke: #000000; stroke-width: 0.8"/>
      </g>
     </g>
     <g id="text_11">
      <!-- −2.0 -->
      <g transform="translate(24.807188 248.559953) scale(0.1 -0.1)">
       <defs>
        <path id="DejaVuSans-2212" d="M 678 2272 
L 4684 2272 
L 4684 1741 
L 678 1741 
L 678 2272 
z
" transform="scale(0.015625)"/>
       </defs>
       <use xlink:href="#DejaVuSans-2212"/>
       <use xlink:href="#DejaVuSans-32" transform="translate(83.789062 0)"/>
       <use xlink:href="#DejaVuSans-2e" transform="translate(147.412109 0)"/>
       <use xlink:href="#DejaVuSans-30" transform="translate(179.199219 0)"/>
      </g>
     </g>
    </g>
    <g id="ytick_2">
     <g id="line2d_21">
      <path d="M 56.09 217.706789 
L 709.2 217.706789 
" clip-path="url(#pc958d8e9a4)" style="fill: none; stroke: #b0b0b0; stroke-opacity: 0.3; stroke-width: 0.8; stroke-linecap: square"/>
     </g>
     <g id="line2d_22">
      <g>
       <use xlink:href="#m07fd802be6" x="56.09" y="217.706789" style="stroke: #000000; stroke-width: 0.8"/>
      </g>
     </g>
     <g id="text_12">
      <!-- −1.5 -->
      <g transform="translate(24.807188 221.506007) scale(0.1 -0.1)">
       <use xlink:href="#DejaVuSans-2212"/>
       <use xlink:href="#DejaVuSans-31" transform="translate(83.789062 0)"/>
       <use xlink:href="#DejaVuSans-2e" transform="translate(147.412109 0)"/>
       <use xlink:href="#DejaVuSans-35" transform="translate(179.199219 0)"/>
      </g>
     </g>
    </g>
    <g id="ytick_3">
     <g id="line2d_23">
      <path d="M 56.09 190.652843 
L 709.2 190.652843 
" clip-path="url(#pc958d8e9a4)" style="fill: none; stroke: #b0b0b0; stroke-opacity: 0.3; stroke-width: 0.8; stroke-linecap: square"/>
     </g>
     <g id="line2d_24">
      <g>
       <use xlink:href="#m07fd802be6" x="56.09" y="190.652843" style="stroke: #000000; stroke-width: 0.8"/>
      </g>
     </g>
     <g id="text_13">
      <!-- −1.0 -->
      <g transform="translate(24.807188 194.452061) scale(0.1 -0.1)">
       <use xlink:href="#DejaVuSans-2212"/>
       <use xlink:href="#DejaVuSans-31" transform="translate(83.789062 0)"/>
       <use xlink:href="#DejaVuSans-2e" transform="translate(147.412109 0)"/>
       <use xlink:href="#DejaVuSans-30" transform="translate(179.199219 0)"/>
      </g>
     </g>
    </g>
    <g id="ytick_4">
     <g id="line2d_25">
      <path d="M 56.09 163.598897 
L 709.2 163.598897 
" clip-path="url(#pc958d8e9a4)" style="fill: none; stroke: #b0b0b0; stroke-opacity: 0.3; stroke-width: 0.8; stroke-linecap: square"/>
     </g>
     <g id="line2d_26">
      <g>
       <use xlink:href="#m07fd802be6" x="56.09" y="163.598897" style="stroke: #000000; stroke-width: 0.8"/>
      </g>
     </g>
     <g id="text_14">
      <!-- −0.5 -->
      <g transform="translate(24.807188 167.398115) scale(0.1 -0.1)">
       <use xlink:href="#DejaVuSans-2212"/>
       <use xlink:href="#DejaVuSans-30" transform="translate(83.789062 0)"/>
       <use xlink:href="#DejaVuSans-2e" transform="translate(147.412109 0)"/>
       <use xlink:href="#DejaVuSans-35" transform="translate(179.199219 0)"/>
      </g>
     </g>
    </g>
    <g id="ytick_5">
     <g id="line2d_27">
      <path d="M 56.09 136.544951 
L 709.2 136.544951 
" clip-path="url(#pc958d8e9a4)" style="fill: none; stroke: #b0b0b0; stroke-opacity: 0.3; stroke-width: 0.8; stroke-linecap: square"/>
     </g>
     <g id="line2d_28">
      <g>
       <use xlink:href="#m07fd802be6" x="56.09" y="136.544951" style="stroke: #000000; stroke-width: 0.8"/>
      </g>
     </g>
     <g id="text_15">
      <!-- 0.0 -->
      <g transform="translate(33.186875 140.344169) scale(0.1 -0.1)">
       <use xlink:href="#DejaVuSans-30"/>
       <use xlink:href="#DejaVuSans-2e" transform="translate(63.623047 0)"/>
       <use xlink:href="#DejaVuSans-30" transform="translate(95.410156 0)"/>
      </g>
     </g>
    </g>
    <g id="ytick_6">
     <g id="line2d_29">
      <path d="M 56.09 109.491005 
L 709.2 109.491005 
" clip-path="url(#pc958d8e9a4)" style="fill: none; stroke: #b0b0b0; stroke-opacity: 0.3; stroke-width: 0.8; stroke-linecap: square"/>
     </g>
     <g id="line2d_30">
      <g>
       <use xlink:href="#m07fd802be6" x="56.09" y="109.491005" style="stroke: #000000; stroke-width: 0.8"/>
      </g>
     </g>
     <g id="text_16">
      <!-- 0.5 -->
      <g transform="translate(33.186875 113.290223) scale(0.1 -0.1)">
       <use xlink:href="#DejaVuSans-30"/>
       <use xlink:href="#DejaVuSans-2e" transform="translate(63.623047 0)"/>
       <use xlink:href="#DejaVuSans-35" transform="translate(95.410156 0)"/>
      </g>
     </g>
    </g>
    <g id="ytick_7">
     <g id="line2d_31">
      <path d="M 56.09 82.437059 
L 709.2 82.437059 
" clip-path="url(#pc958d8e9a4)" style="fill: none; stroke: #b0b0b0; stroke-opacity: 0.3; stroke-width: 0.8; stroke-linecap: square"/>
     </g>
     <g id="line2d_32">
      <g>
       <use xlink:href="#m07fd802be6" x="56.09" y="82.437059" style="stroke: #000000; stroke-width: 0.8"/>
      </g>
     </g>
     <g id="text_17">
      <!-- 1.0 -->
      <g transform="translate(33.186875 86.236277) scale(0.1 -0.1)">
       <use xlink:href="#DejaVuSans-31"/>
       <use xlink:href="#DejaVuSans-2e" transform="translate(63.623047 0)"/>
       <use xlink:href="#DejaVuSans-30" transform="translate(95.410156 0)"/>
      </g>
     </g>
    </g>
    <g id="ytick_8">
     <g id="line2d_33">
      <path d="M 56.09 55.383113 
L 709.2 55.383113 
" clip-path="url(#pc958d8e9a4)" style="fill: none; stroke: #b0b0b0; stroke-opacity: 0.3; stroke-width: 0.8; stroke-linecap: square"/>
     </g>
     <g id="line2d_34">
      <g>
       <use xlink:href="#m07fd802be6" x="56.09" y="55.383113" style="stroke: #000000; stroke-width: 0.8"/>
      </g>
     </g>
     <g id="text_18">
      <!-- 1.5 -->
      <g transform="translate(33.186875 59.182331) scale(0.1 -0.1)">
       <use xlink:href="#DejaVuSans-31"/>
       <use xlink:href="#DejaVuSans-2e" transform="translate(63.623047 0)"/>
       <use xlink:href="#DejaVuSans-35" transform="translate(95.410156 0)"/>
      </g>
     </g>
    </g>
    <g id="ytick_9">
     <g id="line2d_35">
      <path d="M 56.09 28.329166 
L 709.2 28.329166 
" clip-path="url(#pc958d8e9a4)" style="fill: none; stroke: #b0b0b0; stroke-opacity: 0.3; stroke-width: 0.8; stroke-linecap: square"/>
     </g>
     <g id="line2d_36">
      <g>
       <use xlink:href="#m07fd802be6" x="56.09" y="28.329166" style="stroke: #000000; stroke-width: 0.8"/>
      </g>
     </g>
     <g id="text_19">
      <!-- 2.0 -->
      <g transform="translate(33.186875 32.128385) scale(0.1 -0.1)">
       <use xlink:href="#DejaVuSans-32"/>
       <use xlink:href="#DejaVuSans-2e" transform="translate(63.623047 0)"/>
       <use xlink:href="#DejaVuSans-30" transform="translate(95.410156 0)"/>
      </g>
     </g>
    </g>
    <g id="text_20">
     <!-- tie-rod force [kN] -->
     <g transform="translate(18.7275 179.170156) rotate(-90) scale(0.1 -0.1)">
      <defs>
       <path id="DejaVuSans-2d" d="M 313 2009 
L 1997 2009 
L 1997 1497 
L 313 1497 
L 313 2009 
z
" transform="scale(0.015625)"/>
       <path id="DejaVuSans-72" d="M 2631 2963 
Q 2534 3019 2420 3045 
Q 2306 3072 2169 3072 
Q 1681 3072 1420 2755 
Q 1159 2438 1159 1844 
L 1159 0 
L 581 0 
L 581 3500 
L 1159 3500 
L 1159 2956 
Q 1341 3275 1631 3429 
Q 1922 3584 2338 3584 
Q 2397 3584 2469 3576 
Q 2541 3569 2628 3553 
L 2631 2963 
z
" transform="scale(0.015625)"/>
       <path id="DejaVuSans-6f" d="M 1959 3097 
Q 1497 3097 1228 2736 
Q 959 2375 959 1747 
Q 959 1119 1226 758 
Q 1494 397 1959 397 
Q 2419 397 2687 759 
Q 2956 1122 2956 1747 
Q 2956 2369 2687 2733 
Q 2419 3097 1959 3097 
z
M 1959 3584 
Q 2709 3584 3137 3096 
Q 3566 2609 3566 1747 
Q 3566 888 3137 398 
Q 2709 -91 1959 -91 
Q 1206 -91 779 398 
Q 353 888 353 1747 
Q 353 2609 779 3096 
Q 1206 3584 1959 3584 
z
" transform="scale(0.015625)"/>
       <path id="DejaVuSans-66" d="M 2375 4863 
L 2375 4384 
L 1825 4384 
Q 1516 4384 1395 4259 
Q 1275 4134 1275 3809 
L 1275 3500 
L 2222 3500 
L 2222 3053 
L 1275 3053 
L 1275 0 
L 697 0 
L 697 3053 
L 147 3053 
L 147 3500 
L 697 3500 
L 697 3744 
Q 697 4328 969 4595 
Q 1241 4863 1831 4863 
L 2375 4863 
z
" transform="scale(0.015625)"/>
       <path id="DejaVuSans-4e" d="M 628 4666 
L 1478 4666 
L 3547 763 
L 3547 4666 
L 4159 4666 
L 4159 0 
L 3309 0 
L 1241 3903 
L 1241 0 
L 628 0 
L 628 4666 
z
" transform="scale(0.015625)"/>
      </defs>
      <use xlink:href="#DejaVuSans-74"/>
      <use xlink:href="#DejaVuSans-69" transform="translate(39.208984 0)"/>
      <use xlink:href="#DejaVuSans-65" transform="translate(66.992188 0)"/>
      <use xlink:href="#DejaVuSans-2d" transform="translate(128.515625 0)"/>
      <use xlink:href="#DejaVuSans-72" transform="translate(164.599609 0)"/>
      <use xlink:href="#DejaVuSans-6f" transform="translate(203.462891 0)"/>
      <use xlink:href="#DejaVuSans-64" transform="translate(264.644531 0)"/>
      <use xlink:href="#DejaVuSans-20" transform="translate(328.121094 0)"/>
      <use xlink:href="#DejaVuSans-66" transform="translate(359.908203 0)"/>
      <use xlink:href="#DejaVuSans-6f" transform="translate(395.113281 0)"/>
      <use xlink:href="#DejaVuSans-72" transform="translate(456.294922 0)"/>
      <use xlink:href="#DejaVuSans-63" transform="translate(495.158203 0)"/>
      <use xlink:href="#DejaVuSans-65" transform="translate(550.138672 0)"/>
      <use xlink:href="#DejaVuSans-20" transform="translate(611.662109 0)"/>
      <use xlink:href="#DejaVuSans-5b" transform="translate(643.449219 0)"/>
      <use xlink:href="#DejaVuSans-6b" transform="translate(682.462891 0)"/>
      <use xlink:href="#DejaVuSans-4e" transform="translate(740.373047 0)"/>
      <use xlink:href="#DejaVuSans-5d" transform="translate(815.177734 0)"/>
     </g>
    </g>
   </g>
   <g id="line2d_37">
    <path d="M 85.776818 136.544951 
L 86.114906 135.481306 
L 86.453465 134.979865 
L 86.792495 135.328706 
L 87.131994 135.949696 
L 87.471962 136.260188 
L 87.812398 136.073126 
L 88.49467 135.292739 
L 88.836504 135.310067 
L 89.864785 136.380149 
L 90.55261 136.480834 
L 90.89721 136.5146 
L 91.587782 136.928986 
L 92.280173 137.429463 
L 92.974373 137.620278 
L 94.019046 137.870963 
L 94.717727 138.022414 
L 95.769073 137.944455 
L 97.530097 137.550363 
L 100.013701 136.43855 
L 101.800469 135.593151 
L 103.597695 134.90053 
L 105.0429 134.557498 
L 106.494617 134.418758 
L 107.952712 134.522908 
L 109.412999 134.886576 
L 110.503827 135.385095 
L 111.586971 136.125042 
L 112.659503 137.152582 
L 113.718939 138.487401 
L 115.107502 140.73896 
L 116.46477 143.391916 
L 117.787762 145.967894 
L 118.758909 147.342643 
L 119.397554 147.982774 
L 119.714497 148.102207 
L 120.029976 148.384397 
L 120.656902 149.831194 
L 121.897044 152.963013 
L 122.20469 151.394982 
L 122.511539 148.480464 
L 122.817686 147.268979 
L 123.12325 149.999061 
L 123.733122 166.680881 
L 124.341814 185.595216 
L 124.645627 190.126082 
L 124.948872 189.290403 
L 125.251444 182.903225 
L 125.854823 166.726481 
L 126.155926 165.800322 
L 126.456842 169.350674 
L 127.359389 184.315237 
L 127.660333 183.745285 
L 127.961385 178.456785 
L 128.564053 154.701622 
L 128.865761 143.083339 
L 129.167735 139.411661 
L 129.772401 145.421931 
L 130.07498 145.817853 
L 131.286658 134.404852 
L 131.59011 132.722516 
L 131.893858 131.962596 
L 132.502356 130.948043 
L 132.807141 130.985038 
L 133.112311 132.085427 
L 134.644626 141.360885 
L 134.952423 140.043264 
L 135.569284 132.957084 
L 135.878349 133.407398 
L 136.497787 138.073198 
L 136.808185 138.557446 
L 137.119048 137.701318 
L 137.74219 135.167355 
L 138.054477 135.16534 
L 138.367246 136.241895 
L 138.994244 138.992594 
L 139.30848 139.732932 
L 139.938437 140.649016 
L 140.570389 142.417539 
L 141.20435 144.296702 
L 141.840328 145.262022 
L 142.798023 146.247264 
L 143.438913 146.765106 
L 144.081721 147.364644 
L 145.373116 149.258357 
L 145.697171 148.817483 
L 146.346737 144.966355 
L 146.672258 145.192331 
L 146.998288 148.630381 
L 148.307673 170.433894 
L 148.63624 169.333703 
L 149.624415 154.186914 
L 149.954688 155.989521 
L 150.6167 162.053879 
L 150.948453 164.025467 
L 151.2807 163.786665 
L 151.613439 160.456175 
L 152.280386 150.316902 
L 152.614595 148.145879 
L 152.949291 148.706002 
L 153.284474 150.236574 
L 153.620141 150.982213 
L 153.95629 150.169132 
L 154.96762 144.261156 
L 155.305687 143.796431 
L 155.644233 143.924589 
L 155.983253 143.884074 
L 156.322749 143.212414 
L 157.34407 139.500036 
L 157.68545 138.88369 
L 158.3696 138.313354 
L 158.712366 137.800835 
L 159.399271 136.54487 
L 159.743409 136.632125 
L 160.433036 137.672096 
L 160.778377 137.58917 
L 161.123855 136.91181 
L 161.469308 135.538191 
L 161.814586 133.344842 
L 162.159558 131.890406 
L 162.504103 134.405375 
L 163.534068 153.339388 
L 163.875741 156.42946 
L 164.216313 157.184305 
L 164.555602 153.785592 
L 165.229928 139.757346 
L 165.564843 140.285314 
L 166.229935 152.039568 
L 166.560003 154.717383 
L 166.888337 152.12106 
L 167.862372 129.954923 
L 168.183217 127.682692 
L 168.502048 127.926318 
L 169.445713 131.188582 
L 169.755792 129.694105 
L 170.368962 124.260649 
L 170.671985 122.955034 
L 170.972603 122.964408 
L 171.859743 125.193558 
L 172.15047 125.328302 
L 172.724311 124.962472 
L 173.007389 125.236097 
L 173.287882 126.006211 
L 173.841066 128.431732 
L 174.651184 132.655336 
L 175.178067 136.520093 
L 176.448723 149.303165 
L 179.005219 174.996547 
L 180.458132 186.156216 
L 180.84874 188.507652 
L 181.040006 189.04064 
L 181.22858 189.030428 
L 181.414455 188.504042 
L 181.778055 186.412683 
L 182.302898 182.198046 
L 182.964235 174.211965 
L 183.122895 174.463723 
L 183.584426 178.465911 
L 183.733969 178.639384 
L 183.881695 178.394761 
L 184.02784 178.657721 
L 184.172652 180.29341 
L 184.459267 188.189063 
L 185.45663 219.134427 
L 185.897629 229.840825 
L 186.199242 233.467008 
L 186.505742 234.820544 
L 186.813476 235.041583 
L 187.93409 234.807178 
L 188.183771 233.399202 
L 188.545231 228.89328 
L 188.899732 222.146988 
L 189.255977 210.029936 
L 189.868302 179.164803 
L 190.122306 177.066396 
L 190.251549 176.591983 
L 190.382343 175.231118 
L 191.059771 161.736568 
L 191.341555 161.243643 
L 191.484715 160.261117 
L 192.072095 153.071721 
L 192.527649 151.297552 
L 192.995619 148.21239 
L 193.154307 148.157419 
L 193.314321 148.354521 
L 193.475647 148.255977 
L 193.967383 146.834032 
L 194.133845 147.342035 
L 194.640704 151.087733 
L 194.812132 151.175786 
L 195.333865 149.553974 
L 195.688059 149.260751 
L 195.867087 149.160392 
L 196.0474 148.897458 
L 196.228994 148.348903 
L 196.596017 146.059186 
L 196.968134 144.01047 
L 197.156073 143.966894 
L 197.535588 144.852012 
L 197.727131 144.918937 
L 198.308787 143.65675 
L 198.504983 143.848498 
L 198.900791 144.602061 
L 199.100386 144.582508 
L 200.321163 142.801311 
L 200.736758 141.704335 
L 202.008811 137.17696 
L 203.762089 130.359024 
L 204.662447 127.773548 
L 205.347799 126.415687 
L 205.809417 125.849372 
L 206.274753 125.571565 
L 206.743763 125.628116 
L 207.216387 126.042967 
L 207.691957 126.765371 
L 208.168924 127.917919 
L 208.64593 129.54079 
L 209.359067 132.84853 
L 210.300911 138.883827 
L 211.684784 149.243668 
L 213.238794 162.898252 
L 214.908221 183.310396 
L 215.305209 188.501811 
L 215.500684 189.443093 
L 215.694169 188.855558 
L 216.075082 186.481109 
L 216.262466 186.735776 
L 216.990951 192.582221 
L 217.167697 192.679011 
L 217.51462 192.433068 
L 217.684847 192.681316 
L 218.019127 194.621102 
L 218.345759 196.429072 
L 218.506446 196.24066 
L 218.979149 192.640998 
L 219.133935 193.004074 
L 219.439917 197.36858 
L 220.040031 206.464738 
L 220.336025 208.038559 
L 220.631047 209.614286 
L 220.926657 215.044243 
L 221.374229 225.529215 
L 221.676107 228.693853 
L 221.980529 230.191799 
L 222.286231 230.902884 
L 222.590488 231.151044 
L 222.891232 231.000524 
L 223.187827 230.45492 
L 223.62621 228.967279 
L 225.641395 221.062751 
L 225.932278 220.634358 
L 226.225184 220.657859 
L 226.668563 220.815881 
L 226.966868 220.671824 
L 227.267391 220.229304 
L 227.570377 219.07955 
L 227.876338 216.697635 
L 228.185938 212.518756 
L 228.499968 205.417282 
L 229.308597 182.498124 
L 230.850175 154.620743 
L 231.207005 150.290707 
L 231.75171 143.281234 
L 232.874403 134.558581 
L 233.258277 132.586174 
L 233.842863 130.946536 
L 234.040003 130.858309 
L 234.839694 131.579959 
L 235.246123 132.251952 
L 237.774298 137.952961 
L 238.650046 138.912572 
L 239.093892 139.15519 
L 239.541655 139.212117 
L 240.220551 138.999381 
L 241.139048 138.416015 
L 241.837705 137.808685 
L 242.072426 137.789783 
L 242.308057 137.937405 
L 242.782035 138.605411 
L 243.020379 138.529715 
L 243.499764 137.649814 
L 244.225538 136.087453 
L 244.713786 135.06196 
L 245.452648 133.093931 
L 246.449706 132.180466 
L 246.953263 131.678544 
L 247.460128 131.853868 
L 248.22656 132.16595 
L 248.741557 132.422875 
L 250.305627 133.926235 
L 253.517072 137.299557 
L 254.611457 138.044549 
L 255.439879 138.37417 
L 256.55446 138.546773 
L 257.397807 138.47374 
L 258.817268 138.103677 
L 262.292885 136.916949 
L 263.472448 136.721072 
L 264.961283 136.730346 
L 267.68054 136.844706 
L 268.291551 136.818485 
L 269.212579 137.075971 
L 269.829579 136.916012 
L 270.138966 136.754041 
L 270.759509 136.0425 
L 271.070662 136.48811 
L 272.321128 141.161531 
L 272.63519 141.76504 
L 272.949816 141.070036 
L 273.580584 137.797795 
L 273.896444 137.243484 
L 274.528257 138.11196 
L 274.843892 137.962592 
L 275.159146 137.080631 
L 276.10128 133.485474 
L 276.413701 132.965429 
L 277.344548 132.245074 
L 278.263765 131.028298 
L 278.567191 130.867294 
L 279.169125 130.96218 
L 280.058767 131.373088 
L 280.642355 132.09257 
L 281.217873 133.409761 
L 282.065264 136.288277 
L 282.619151 138.718593 
L 283.699177 144.859214 
L 287.172838 165.739944 
L 287.630791 167.560579 
L 288.519849 172.639554 
L 288.95189 173.741098 
L 289.165021 174.792225 
L 289.376305 177.306781 
L 290.204659 194.024997 
L 291.010747 203.048108 
L 292.185156 224.561299 
L 293.136229 232.851765 
L 293.509344 234.256718 
L 293.877944 234.884296 
L 294.77968 235.780924 
L 295.30754 236.053494 
L 295.654152 236.027034 
L 295.996607 235.66828 
L 296.502734 235.133867 
L 296.835633 234.8355 
L 297.165586 234.133259 
L 298.626598 229.845192 
L 298.947621 229.225132 
L 299.107625 229.081876 
L 299.267303 229.106465 
L 299.585807 229.654568 
L 301.16276 233.985784 
L 301.472792 233.933125 
L 302.237416 233.279629 
L 302.539792 232.447487 
L 302.990886 229.913574 
L 303.739518 224.031364 
L 304.188846 217.457068 
L 304.489425 213.472367 
L 304.791402 212.280636 
L 304.943053 212.193722 
L 305.095214 211.928426 
L 305.401262 210.398354 
L 306.020729 206.028897 
L 306.489013 204.380013 
L 306.645127 202.942583 
L 306.956816 196.995293 
L 307.267503 190.684709 
L 307.422457 189.589677 
L 307.57716 189.57431 
L 307.731624 189.829059 
L 307.885865 189.780022 
L 308.347471 187.975951 
L 308.50105 188.102781 
L 308.654521 189.219916 
L 311.10864 221.246554 
L 311.571249 223.570793 
L 311.880428 224.220274 
L 312.190453 224.482705 
L 312.501593 224.508698 
L 312.971044 224.246922 
L 313.922888 223.340981 
L 314.243857 223.401932 
L 314.565874 223.756465 
L 315.210622 224.736048 
L 316.176858 225.30771 
L 316.498859 225.348177 
L 316.820972 225.029526 
L 317.143431 224.689058 
L 317.790581 224.529252 
L 318.115823 223.957743 
L 318.771052 222.448959 
L 319.267412 221.831813 
L 319.600919 220.626713 
L 319.93674 218.21711 
L 320.445578 212.525611 
L 320.788931 206.132817 
L 321.136296 194.704224 
L 321.66597 176.055046 
L 322.758433 150.291477 
L 323.131914 146.46111 
L 324.084745 139.800507 
L 324.278539 139.632823 
L 324.47341 139.244983 
L 325.26365 136.037773 
L 325.665214 135.766961 
L 326.071047 135.008224 
L 326.481118 134.27973 
L 326.895398 134.370225 
L 327.736438 134.610421 
L 328.377993 135.426651 
L 330.581405 138.186875 
L 331.261378 138.626043 
L 331.719428 138.678079 
L 332.413506 138.485648 
L 333.115877 137.979457 
L 334.065058 136.862436 
L 337.246858 132.776402 
L 338.001522 132.290113 
L 338.763609 132.084353 
L 339.533014 132.206271 
L 340.309634 132.621732 
L 341.093369 133.328793 
L 342.14925 134.673472 
L 343.486312 136.754059 
L 345.664418 140.269455 
L 346.770947 141.729135 
L 347.888854 142.867864 
L 348.73463 143.397686 
L 349.586294 143.632914 
L 350.155656 143.567254 
L 350.724644 143.298237 
L 351.292079 142.802433 
L 351.856923 142.02275 
L 352.418258 140.917244 
L 352.975269 139.493743 
L 353.801112 136.696993 
L 354.613498 133.242184 
L 356.191494 125.385588 
L 358.899181 111.915135 
L 359.364483 110.53783 
L 359.821828 107.742585 
L 360.493789 101.461658 
L 360.71431 100.465153 
L 361.150652 99.6232 
L 362.006195 96.324124 
L 363.042929 96.037708 
L 363.24582 96.376065 
L 363.647537 99.013737 
L 364.241091 102.864056 
L 364.823788 105.065967 
L 365.582795 107.063163 
L 367.045193 109.799419 
L 370.279825 116.483268 
L 370.605841 116.943001 
L 370.930158 117.068255 
L 371.25254 116.888593 
L 372.365957 115.77911 
L 373.14849 114.963928 
L 373.766826 114.554782 
L 374.982922 114.125511 
L 375.884359 113.317872 
L 376.637252 112.671499 
L 378.328108 112.008813 
L 378.799919 111.226017 
L 379.5943 109.495799 
L 379.914399 109.129477 
L 380.235757 108.992214 
L 380.558358 109.027145 
L 381.044428 109.406627 
L 382.67645 111.429871 
L 383.659452 112.423164 
L 384.479246 113.209387 
L 386.283567 115.383416 
L 387.271282 116.464266 
L 388.099385 117.070854 
L 388.766352 117.289638 
L 391.837712 117.583165 
L 392.542681 117.407057 
L 392.900096 117.148017 
L 393.261463 116.596484 
L 393.627365 115.707415 
L 394.75505 112.32322 
L 394.947296 112.545078 
L 395.140756 113.33886 
L 395.335428 114.966676 
L 395.728398 120.978701 
L 396.32683 130.18773 
L 397.554522 146.332356 
L 398.183156 149.576286 
L 398.607581 151.203746 
L 398.821373 151.680666 
L 399.036207 151.857457 
L 399.252077 151.774413 
L 399.686894 151.259822 
L 400.125764 150.316755 
L 400.568633 148.799097 
L 401.466154 144.518997 
L 403.776629 132.911944 
L 404.487791 130.802138 
L 405.448532 128.760304 
L 405.934171 128.376489 
L 406.669107 128.189237 
L 406.915802 128.353567 
L 407.16335 128.754197 
L 408.666377 132.683422 
L 410.716501 138.941326 
L 411.498524 140.661763 
L 412.287616 141.854117 
L 413.083681 142.597709 
L 413.618218 142.798616 
L 414.155783 142.77446 
L 414.696349 142.559947 
L 415.239887 142.155837 
L 416.060712 141.245911 
L 417.443253 139.25855 
L 419.408634 136.328229 
L 420.261379 135.318564 
L 421.120277 134.710658 
L 421.985256 134.226311 
L 422.565252 134.121481 
L 422.856245 134.25775 
L 424.321064 135.694742 
L 424.911538 135.953457 
L 425.802047 135.957113 
L 426.698257 136.633929 
L 427.298867 136.631168 
L 427.901966 136.660994 
L 429.420475 137.137816 
L 431.571771 137.070801 
L 434.06577 136.52109 
L 436.596452 136.202206 
L 436.915314 136.375493 
L 437.234731 136.686951 
L 437.554702 137.155199 
L 437.875226 137.209741 
L 438.196302 136.480136 
L 438.840089 134.226844 
L 439.485313 132.980547 
L 439.807989 133.3452 
L 440.452647 136.594107 
L 440.774337 137.200253 
L 441.415777 136.938492 
L 441.735285 137.225735 
L 442.053832 137.926954 
L 443.316356 142.130409 
L 443.939323 142.894342 
L 444.555889 143.675291 
L 445.165486 144.574027 
L 445.76761 144.973979 
L 446.361817 144.879111 
L 446.947712 144.584895 
L 447.524954 143.941128 
L 448.093241 142.669482 
L 448.652307 140.827271 
L 449.473095 137.07744 
L 450.271865 132.113011 
L 453.694809 108.749589 
L 454.362563 106.203524 
L 455.629929 102.143168 
L 456.229978 99.315578 
L 456.618439 97.384824 
L 457.185821 93.470557 
L 457.371322 92.958119 
L 457.555211 93.171633 
L 458.454428 97.369023 
L 458.806632 99.897906 
L 459.502835 105.472235 
L 460.191996 108.773296 
L 460.873195 111.144608 
L 461.375607 112.135524 
L 462.031522 112.907082 
L 462.98453 113.61017 
L 464.205125 114.637101 
L 465.095615 115.814165 
L 465.683874 116.433142 
L 466.417453 116.851578 
L 467.448848 117.19245 
L 468.04487 117.200494 
L 468.496719 117.032997 
L 469.107423 116.547756 
L 469.729602 115.833929 
L 470.365373 114.766145 
L 470.852455 113.520609 
L 471.349409 112.068198 
L 471.686593 111.766076 
L 471.85701 111.897906 
L 472.02866 112.246664 
L 472.375692 113.91458 
L 473.812533 124.638177 
L 474.183407 124.907093 
L 474.558749 125.672104 
L 474.748079 125.696645 
L 474.938504 125.197336 
L 475.32265 123.44956 
L 475.516387 123.128323 
L 475.711247 123.689192 
L 476.104362 125.749399 
L 476.502027 126.542651 
L 476.9042 126.808363 
L 477.106953 127.314852 
L 477.515743 129.043046 
L 477.721756 129.436589 
L 477.928831 129.34619 
L 478.556323 128.366288 
L 479.193075 128.718883 
L 479.838979 128.399133 
L 480.056303 128.888043 
L 481.381162 134.424222 
L 483.661008 146.418531 
L 484.122009 150.897759 
L 484.811871 158.499362 
L 485.498099 164.77072 
L 486.18008 172.247345 
L 487.531512 183.444089 
L 488.42004 191.352729 
L 489.728642 207.698027 
L 490.798789 218.493309 
L 491.43322 222.579699 
L 492.682056 229.298137 
L 493.091322 230.714569 
L 493.698471 231.846963 
L 494.098971 232.270238 
L 494.298118 232.275323 
L 494.694506 231.776167 
L 495.677072 229.872716 
L 495.872234 230.03106 
L 496.260866 230.949015 
L 496.646863 231.885128 
L 497.030231 232.289281 
L 497.411199 232.364343 
L 497.790224 232.23072 
L 498.167752 231.759828 
L 498.544209 230.786353 
L 499.295601 228.285719 
L 499.670872 228.026133 
L 500.045983 227.905592 
L 501.359669 226.94592 
L 501.547449 226.529202 
L 501.922976 224.729251 
L 502.486076 222.005574 
L 503.048995 220.82473 
L 503.799233 219.603284 
L 504.174383 219.09477 
L 504.549776 217.899307 
L 504.925653 216.439302 
L 505.113832 216.101025 
L 505.302194 216.311333 
L 505.868476 218.127042 
L 506.247071 218.546337 
L 506.626623 218.953703 
L 507.197975 219.76683 
L 507.388949 219.780656 
L 507.962833 218.659876 
L 508.154188 218.80265 
L 508.91821 220.462627 
L 509.679661 220.577916 
L 510.249565 220.94589 
L 510.439413 220.695421 
L 510.819133 219.83094 
L 511.009034 219.941731 
L 511.578783 221.643101 
L 511.958625 222.440624 
L 512.528591 223.13064 
L 513.289712 224.686256 
L 513.480363 224.737916 
L 513.862166 224.503169 
L 514.053263 224.604834 
L 515.009799 226.119696 
L 516.350015 226.858482 
L 517.117131 226.510699 
L 518.078404 226.95886 
L 518.463306 227.210471 
L 519.231685 228.193065 
L 519.423442 228.230837 
L 520.764049 227.50335 
L 521.530412 226.297974 
L 522.105858 226.339945 
L 522.872235 226.414867 
L 523.633802 226.846677 
L 523.823113 226.448724 
L 524.388033 224.310155 
L 524.575268 224.055428 
L 524.948068 223.868643 
L 525.133649 223.41628 
L 525.503284 221.169227 
L 526.237178 216.027927 
L 526.783647 212.311123 
L 527.14658 209.625389 
L 527.327782 209.177652 
L 527.50889 209.953025 
L 528.052152 213.62785 
L 528.233375 213.825177 
L 528.596295 213.603034 
L 528.778071 213.816788 
L 529.142386 215.291926 
L 529.507801 216.542006 
L 529.69094 216.440031 
L 530.426583 214.216023 
L 530.795581 214.234526 
L 530.980034 214.063274 
L 531.348482 213.055891 
L 531.716024 211.880596 
L 531.899431 211.888459 
L 532.44832 213.035782 
L 532.63088 212.80636 
L 533.177537 211.669753 
L 533.359469 211.864605 
L 534.814158 215.97323 
L 535.545929 219.953423 
L 536.098686 221.173875 
L 536.469184 221.823331 
L 536.654971 221.998305 
L 536.841097 221.97997 
L 537.027565 221.670774 
L 537.401623 220.02214 
L 538.726741 212.723616 
L 539.304847 210.74347 
L 539.69436 209.789848 
L 540.087289 207.56838 
L 540.683161 201.477799 
L 541.286593 192.941387 
L 541.894458 178.750223 
L 544.292139 115.04316 
L 544.869459 108.006614 
L 545.619023 102.787761 
L 545.984388 101.413264 
L 546.343205 100.929257 
L 546.695372 100.796225 
L 547.040842 100.349581 
L 547.546352 99.716765 
L 548.036386 99.617494 
L 548.196284 99.248991 
L 549.121897 95.57954 
L 549.419391 95.532051 
L 549.566502 95.616083 
L 549.712668 95.86053 
L 550.002576 97.039061 
L 551.141894 103.593026 
L 551.705252 105.268386 
L 552.406321 107.36733 
L 553.244725 110.871299 
L 554.203081 114.955525 
L 554.600047 115.658466 
L 554.860141 115.685981 
L 555.244287 115.322074 
L 556.251973 113.985204 
L 556.502934 114.066739 
L 556.879317 114.617423 
L 558.008729 116.695603 
L 558.259689 116.808203 
L 558.511189 116.701768 
L 558.764051 116.321412 
L 559.147856 115.191057 
L 559.807267 112.794371 
L 560.080377 113.198399 
L 560.359629 113.650215 
L 560.501653 114.097786 
L 560.790524 116.460464 
L 561.085719 119.483672 
L 561.387039 120.397926 
L 561.539956 120.790286 
L 561.85021 123.015 
L 562.166217 125.394754 
L 562.487869 126.013751 
L 562.650779 126.190943 
L 562.81506 126.672218 
L 563.316033 129.218919 
L 563.656705 129.612196 
L 563.829023 129.785752 
L 564.710109 131.440736 
L 565.437854 131.549098 
L 565.809151 131.630544 
L 566.951875 131.16589 
L 567.737038 131.035401 
L 568.337797 131.25983 
L 568.948513 131.859535 
L 569.568992 132.689774 
L 570.624328 134.925841 
L 573.714597 142.323087 
L 574.401745 143.315339 
L 575.097388 143.903609 
L 575.565801 144.061034 
L 576.037887 144.012139 
L 576.513605 143.753018 
L 577.233906 143.004249 
L 577.962159 141.852682 
L 578.94532 139.792075 
L 583.011701 130.270781 
L 583.534519 129.679731 
L 584.060393 129.33927 
L 584.588459 129.204357 
L 585.117269 129.290984 
L 585.645522 129.722432 
L 586.172085 130.493705 
L 586.695963 131.60403 
L 587.474845 134.081887 
L 588.243164 137.459283 
L 589.494446 144.490852 
L 591.860133 158.422994 
L 592.748464 162.199634 
L 593.812203 164.977727 
L 594.628876 168.35628 
L 595.026982 170.59112 
L 595.418923 174.193358 
L 595.805263 180.226773 
L 597.682046 216.859243 
L 598.416481 226.940353 
L 598.958123 231.784639 
L 599.313449 233.309347 
L 599.664019 233.96657 
L 600.010031 234.14249 
L 600.521224 234.060252 
L 600.857358 233.797273 
L 601.520385 232.945792 
L 602.496557 232.873673 
L 602.978189 232.273193 
L 603.774718 231.101277 
L 605.832079 229.852545 
L 606.148511 229.547331 
L 606.306723 229.546456 
L 606.622764 229.843267 
L 606.937864 230.167584 
L 607.251774 230.167793 
L 607.875222 229.772292 
L 608.029998 229.533005 
L 608.338089 228.357852 
L 608.948741 224.959247 
L 609.40267 223.487256 
L 609.703756 221.147467 
L 610.303521 215.39192 
L 610.453252 215.165008 
L 610.902798 215.64077 
L 611.052928 215.460725 
L 611.656092 213.580545 
L 611.807735 213.849628 
L 612.418181 216.587504 
L 612.571739 216.39727 
L 613.345168 213.306173 
L 613.501059 213.341073 
L 613.971432 213.906221 
L 614.129178 213.922334 
L 614.605471 213.500282 
L 614.765286 213.68198 
L 615.571904 215.846743 
L 616.061515 215.643776 
L 616.390249 216.064046 
L 616.886781 217.452786 
L 617.890976 220.848393 
L 618.397514 222.624574 
L 618.906283 223.612679 
L 620.101722 225.372926 
L 620.617784 225.628104 
L 621.136339 225.678273 
L 621.657628 225.545194 
L 622.357717 225.082433 
L 623.065079 224.356259 
L 623.601614 223.460903 
L 623.962765 222.421204 
L 624.327217 220.63214 
L 624.695529 217.467326 
L 625.068283 212.280111 
L 625.44606 204.164718 
L 627.208527 158.027197 
L 627.81655 144.096933 
L 628.434268 135.176576 
L 629.272861 125.713439 
L 629.698518 123.319989 
L 630.344847 120.974145 
L 630.78089 120.045606 
L 631.220996 119.847189 
L 631.6651 120.069312 
L 631.888631 120.417793 
L 632.338611 121.761086 
L 633.711443 127.2148 
L 634.41049 130.203267 
L 635.117868 132.382916 
L 635.355501 132.869153 
L 635.59405 133.080123 
L 636.073876 133.127431 
L 636.315131 133.92773 
L 637.044106 138.092655 
L 637.288807 138.424264 
L 637.534357 138.549253 
L 637.780752 138.999675 
L 638.52499 141.536116 
L 638.774748 141.639562 
L 639.276766 141.249883 
L 640.035993 141.24008 
L 640.290706 140.959511 
L 643.145388 135.642296 
L 643.409615 135.518656 
L 644.206905 135.656133 
L 645.01106 135.115088 
L 645.28064 135.842455 
L 645.550992 137.71025 
L 646.640195 149.205177 
L 646.914392 149.550662 
L 648.018069 148.801427 
L 648.573957 147.47691 
L 648.852937 147.256108 
L 649.413 147.473544 
L 649.694083 147.134515 
L 650.54152 144.392624 
L 650.825384 144.30639 
L 651.681091 145.23206 
L 651.967688 145.141386 
L 652.542905 144.60294 
L 653.120799 144.457454 
L 653.410742 144.386994 
L 653.992604 143.884149 
L 654.577081 143.30833 
L 655.164151 143.084995 
L 655.753792 143.143681 
L 656.643036 141.113624 
L 656.940722 141.470939 
L 657.239046 143.422179 
L 657.83762 150.095865 
L 658.137867 153.709673 
L 658.43874 155.414992 
L 658.74022 154.922283 
L 659.344939 149.915812 
L 659.648174 148.954907 
L 660.256421 150.416441 
L 660.561449 150.463882 
L 660.867083 149.995705 
L 661.173321 149.257333 
L 661.480162 148.048558 
L 662.404288 142.627834 
L 662.713524 141.770667 
L 663.023354 141.598411 
L 663.644773 141.68302 
L 663.956353 141.463257 
L 664.581236 140.80466 
L 666.469549 140.453582 
L 667.103498 140.461134 
L 668.378026 140.172984 
L 668.698023 140.503732 
L 669.661253 142.301549 
L 669.983404 142.110347 
L 670.30609 141.723422 
L 670.629312 141.157805 
L 670.953073 140.284694 
L 671.277384 141.411621 
L 671.602261 145.779115 
L 672.25377 157.144719 
L 672.907531 164.417175 
L 673.235147 165.391961 
L 673.563188 162.073262 
L 673.891647 156.864227 
L 674.220541 153.666567 
L 674.549901 154.382979 
L 675.210112 161.733869 
L 675.540983 163.659005 
L 675.872364 162.587096 
L 676.869545 150.848407 
L 677.202947 149.557895 
L 677.536849 150.247983 
L 677.871248 151.353061 
L 678.206143 151.487741 
L 678.541531 150.237782 
L 679.513182 144.606403 
L 679.513182 144.606403 
" clip-path="url(#pc958d8e9a4)" style="fill: none; stroke: #2ca02c; stroke-width: 0.9; stroke-linecap: square"/>
   </g>
   <g id="line2d_38">
    <path d="M 85.776818 136.544951 
L 86.114906 135.481184 
L 86.453465 134.979117 
L 86.792495 135.32773 
L 87.131994 135.949198 
L 87.471962 136.26003 
L 87.812398 136.072693 
L 88.49467 135.290758 
L 88.836504 135.307914 
L 89.864785 136.380003 
L 90.55261 136.480811 
L 90.89721 136.514608 
L 91.587782 136.929076 
L 92.280173 137.429127 
L 92.974373 137.619183 
L 94.019046 137.868553 
L 94.717727 138.019062 
L 95.769073 137.940819 
L 97.530097 137.548032 
L 100.013701 136.438577 
L 101.800469 135.592503 
L 103.597695 134.896875 
L 105.0429 134.551089 
L 106.494617 134.410554 
L 107.952712 134.514992 
L 109.412999 134.882435 
L 110.503827 135.383678 
L 111.586971 136.124987 
L 112.659503 137.152518 
L 113.718939 138.487621 
L 115.107502 140.741516 
L 116.46477 143.399878 
L 117.787762 145.976689 
L 118.758909 147.335229 
L 119.397554 147.95572 
L 119.714497 148.064841 
L 120.029976 148.332647 
L 120.656902 149.724871 
L 121.588519 152.061784 
L 121.897044 152.662392 
L 122.20469 151.127827 
L 122.511539 148.300479 
L 122.817686 147.115343 
L 123.12325 149.739247 
L 124.341814 177.898077 
L 124.645627 178.581116 
L 124.948872 176.257708 
L 125.854823 161.299625 
L 126.155926 160.506541 
L 126.456842 162.638461 
L 127.058518 168.498391 
L 127.359389 170.071806 
L 127.660333 169.891883 
L 127.961385 167.682773 
L 128.262605 162.141201 
L 128.865761 142.662392 
L 129.167735 139.280057 
L 129.772401 145.018531 
L 130.07498 145.466705 
L 130.377675 142.817555 
L 130.983466 136.570778 
L 131.59011 132.735957 
L 131.893858 131.966021 
L 132.502356 130.927479 
L 132.807141 130.954405 
L 133.112311 132.056529 
L 134.644626 141.368998 
L 134.952423 140.040199 
L 135.569284 132.966759 
L 135.878349 133.412855 
L 136.497787 138.068322 
L 136.808185 138.553368 
L 137.119048 137.700273 
L 137.74219 135.166471 
L 138.054477 135.163325 
L 138.367246 136.241414 
L 138.994244 138.993179 
L 139.30848 139.729573 
L 139.938437 140.632419 
L 140.570389 142.37004 
L 141.20435 144.193513 
L 141.840328 145.103244 
L 142.798023 146.012598 
L 143.438913 146.485414 
L 144.081721 147.039463 
L 145.373116 148.793013 
L 145.697171 148.361779 
L 146.346737 144.700624 
L 146.672258 144.924823 
L 146.998288 148.20609 
L 147.979552 164.198257 
L 148.307673 166.550975 
L 148.63624 165.081852 
L 149.624415 152.391491 
L 149.954688 153.854639 
L 150.6167 158.668144 
L 150.948453 160.219772 
L 151.2807 160.113516 
L 151.613439 157.617867 
L 152.280386 149.286402 
L 152.614595 147.420094 
L 152.949291 147.997702 
L 153.284474 149.451042 
L 153.620141 150.174453 
L 153.95629 149.461987 
L 154.96762 144.004377 
L 155.305687 143.579758 
L 155.644233 143.720492 
L 155.983253 143.69681 
L 156.322749 143.060241 
L 157.34407 139.460194 
L 157.68545 138.857399 
L 158.3696 138.299444 
L 158.712366 137.792952 
L 159.399271 136.544605 
L 159.743409 136.632032 
L 160.433036 137.670364 
L 160.778377 137.587769 
L 161.123855 136.911437 
L 161.469308 135.538938 
L 161.814586 133.34528 
L 162.159558 131.88579 
L 162.504103 134.402228 
L 163.534068 153.238571 
L 163.875741 156.169231 
L 164.216313 156.780825 
L 164.555602 153.44511 
L 165.229928 139.775945 
L 165.564843 140.283808 
L 166.229935 151.786983 
L 166.560003 154.378369 
L 166.888337 151.911044 
L 167.862372 129.951823 
L 168.183217 127.682377 
L 168.502048 127.922246 
L 169.445713 131.204588 
L 169.755792 129.713139 
L 170.368962 124.259717 
L 170.671985 122.942698 
L 170.972603 122.955101 
L 171.859743 125.220308 
L 172.15047 125.359198 
L 172.724311 124.99528 
L 173.007389 125.273087 
L 173.287882 126.049631 
L 174.113735 129.826618 
L 174.91595 134.403243 
L 175.694335 141.46965 
L 178.11417 165.953519 
L 178.786612 171.150916 
L 179.434117 174.796706 
L 180.458132 178.600879 
L 180.84874 179.306456 
L 181.040006 179.316496 
L 181.22858 179.093492 
L 181.597617 178.116843 
L 182.302898 175.316953 
L 182.964235 170.53943 
L 183.122895 170.834269 
L 183.584426 173.755752 
L 183.733969 173.790847 
L 183.881695 173.514591 
L 184.02784 173.57792 
L 184.172652 174.535442 
L 184.743433 181.502495 
L 184.88519 181.652043 
L 185.027075 181.102478 
L 185.312484 178.200685 
L 185.897629 170.590812 
L 186.659898 164.358074 
L 187.805604 157.370088 
L 188.060037 156.748305 
L 188.305638 156.558898 
L 188.545231 156.637967 
L 188.781751 156.957549 
L 189.017932 157.651971 
L 189.376213 159.684755 
L 189.619826 160.548389 
L 189.868302 160.128621 
L 189.994576 160.375037 
L 190.251549 161.245226 
L 190.382343 161.173914 
L 190.648628 159.113236 
L 190.921173 156.356012 
L 191.059771 155.966248 
L 191.341555 156.209971 
L 191.484715 155.741628 
L 192.222543 150.630325 
L 192.374399 150.387556 
L 192.682278 148.808091 
L 192.995619 147.308269 
L 193.154307 147.31673 
L 193.314321 147.542134 
L 193.475647 147.488703 
L 193.967383 146.261619 
L 194.133845 146.752561 
L 194.640704 150.183977 
L 194.812132 150.231211 
L 195.333865 148.701289 
L 195.688059 148.431309 
L 195.867087 148.344665 
L 196.0474 148.113775 
L 196.228994 147.625404 
L 196.596017 145.551434 
L 196.968134 143.681845 
L 197.156073 143.663628 
L 197.535588 144.541879 
L 197.727131 144.618348 
L 198.308787 143.435872 
L 198.504983 143.625955 
L 198.900791 144.352875 
L 199.100386 144.333114 
L 200.321163 142.634321 
L 200.736758 141.582899 
L 202.008811 137.17089 
L 203.762089 130.289395 
L 204.662447 127.55719 
L 205.347799 126.070214 
L 205.809417 125.428678 
L 206.274753 125.096993 
L 206.743763 125.132434 
L 207.216387 125.56779 
L 207.691957 126.371794 
L 208.407498 128.441055 
L 209.121836 131.558091 
L 209.831572 135.702664 
L 211.457021 147.34756 
L 213.454261 164.009803 
L 214.089427 170.060915 
L 215.10774 177.392112 
L 215.305209 178.150179 
L 215.500684 178.115811 
L 216.075082 175.748364 
L 216.262466 175.739231 
L 216.812027 177.495107 
L 216.990951 177.628384 
L 217.51462 177.412975 
L 217.684847 177.520933 
L 218.183351 178.309445 
L 218.345759 178.247806 
L 218.506446 177.881737 
L 219.133935 175.815322 
L 219.591291 176.430484 
L 219.741702 176.249301 
L 220.040031 175.233903 
L 220.778674 171.692838 
L 222.438702 160.720205 
L 223.040038 158.14902 
L 223.480773 157.011475 
L 223.771103 156.692457 
L 224.059593 156.691469 
L 224.490352 157.088501 
L 225.064275 157.680487 
L 225.496613 157.827762 
L 225.932278 157.723122 
L 226.372439 157.401864 
L 227.116844 156.811895 
L 227.418549 156.774775 
L 227.722947 156.926862 
L 228.030637 157.316164 
L 228.342348 158.016465 
L 229.144025 160.459438 
L 229.474558 160.71097 
L 229.64188 160.612492 
L 229.810551 160.10029 
L 230.151889 157.317087 
L 230.673671 152.859931 
L 231.027955 150.611669 
L 232.121061 140.192204 
L 233.065746 133.452911 
L 233.64685 131.327434 
L 233.842863 130.889487 
L 234.040003 130.782213 
L 234.839694 131.486636 
L 235.246123 132.173847 
L 237.557883 137.583347 
L 237.991727 138.224582 
L 238.871476 139.053602 
L 239.317286 139.188447 
L 239.766993 139.151878 
L 240.448761 138.863443 
L 241.139048 138.403632 
L 241.837705 137.80217 
L 242.072426 137.783904 
L 242.308057 137.931257 
L 242.782035 138.596335 
L 243.020379 138.520801 
L 243.499764 137.645271 
L 244.225538 136.088583 
L 244.713786 135.063172 
L 245.452648 133.08078 
L 246.449706 132.137851 
L 246.953263 131.61942 
L 247.206284 131.648164 
L 248.22656 132.106612 
L 248.741557 132.368808 
L 250.305627 133.901666 
L 253.517072 137.299822 
L 254.611457 138.041684 
L 255.439879 138.368205 
L 256.55446 138.53805 
L 257.397807 138.464808 
L 258.817268 138.097141 
L 262.292885 136.916472 
L 263.472448 136.720974 
L 264.961283 136.730292 
L 267.68054 136.844553 
L 268.291551 136.818347 
L 269.212579 137.075606 
L 269.829579 136.915754 
L 270.138966 136.753924 
L 270.759509 136.042708 
L 271.070662 136.488087 
L 272.321128 141.144956 
L 272.63519 141.736784 
L 272.949816 141.039328 
L 273.580584 137.791024 
L 273.896444 137.240142 
L 274.528257 138.103636 
L 274.843892 137.956692 
L 275.159146 137.079176 
L 276.10128 133.484928 
L 276.413701 132.962578 
L 277.344548 132.23929 
L 278.263765 131.021405 
L 278.567191 130.861445 
L 279.169125 130.96045 
L 280.058767 131.377558 
L 280.642355 132.100044 
L 281.217873 133.417402 
L 282.065264 136.289036 
L 282.619151 138.715524 
L 283.699177 144.868671 
L 286.705646 162.859525 
L 287.172838 164.693258 
L 287.630791 166.127787 
L 288.519849 169.825418 
L 288.95189 170.299652 
L 289.165021 170.883143 
L 289.376305 172.457514 
L 289.999892 178.90004 
L 290.204659 179.254965 
L 290.408045 178.915845 
L 291.209241 176.424787 
L 291.602735 173.625365 
L 292.185156 169.277308 
L 292.758811 166.672133 
L 293.509344 164.100356 
L 294.241998 162.30706 
L 295.654152 159.434515 
L 298.142815 155.193095 
L 298.465625 155.173134 
L 298.78727 155.508752 
L 299.903304 157.363131 
L 301.318089 158.010682 
L 301.933221 158.547812 
L 302.539792 158.872481 
L 302.990886 159.456023 
L 304.03893 161.499695 
L 304.791402 162.858579 
L 305.247935 163.01808 
L 305.555231 163.099089 
L 305.865059 163.472421 
L 306.489013 165.255655 
L 306.956816 166.602324 
L 307.422457 167.384597 
L 307.885865 168.818322 
L 308.193764 169.111567 
L 308.347471 169.193865 
L 308.654521 169.817274 
L 308.961202 170.647258 
L 309.114437 170.707608 
L 309.267621 170.483159 
L 309.573902 169.443825 
L 310.186726 166.216637 
L 310.954696 162.257875 
L 311.725747 159.362124 
L 312.345865 157.946845 
L 312.814145 157.373107 
L 313.286272 157.130558 
L 313.603563 157.148568 
L 313.922888 157.388491 
L 314.565874 158.416853 
L 315.210622 159.437543 
L 315.693838 159.735866 
L 316.337854 159.790014 
L 317.304886 159.662922 
L 318.115823 159.127982 
L 319.768522 158.054643 
L 320.105618 158.19795 
L 320.445578 158.606362 
L 320.788931 159.430949 
L 321.136296 160.54999 
L 321.311656 160.683036 
L 321.488201 160.380863 
L 321.844982 159.104164 
L 322.206747 156.682952 
L 323.131914 145.612279 
L 323.509809 142.919792 
L 323.892026 140.17797 
L 324.084745 139.709235 
L 324.278539 139.561295 
L 324.47341 139.193422 
L 325.26365 136.041049 
L 325.665214 135.769157 
L 326.071047 135.008333 
L 326.481118 134.273461 
L 326.895398 134.359944 
L 327.736438 134.598498 
L 328.377993 135.420782 
L 330.581405 138.183344 
L 331.261378 138.617322 
L 331.719428 138.667173 
L 332.413506 138.474701 
L 333.115877 137.972079 
L 334.065058 136.861519 
L 337.246858 132.745502 
L 338.001522 132.245036 
L 338.763609 132.029816 
L 339.533014 132.150567 
L 340.309634 132.573168 
L 341.093369 133.293701 
L 342.14925 134.659023 
L 343.486312 136.754489 
L 345.389588 139.834646 
L 346.49324 141.346947 
L 347.608322 142.538318 
L 348.452011 143.13775 
L 349.301888 143.457478 
L 349.870942 143.496071 
L 350.440274 143.356345 
L 351.008623 142.998945 
L 351.574885 142.387946 
L 352.138082 141.48094 
L 352.975269 139.487592 
L 353.801112 136.69716 
L 354.613498 133.24178 
L 356.191494 125.36772 
L 359.132842 110.44353 
L 359.364483 109.556787 
L 359.821828 106.185408 
L 360.71431 95.894263 
L 361.150652 93.461052 
L 361.581225 88.331378 
L 362.006195 83.293283 
L 362.632709 77.82634 
L 362.838568 75.213375 
L 363.24582 65.850643 
L 363.647537 56.546678 
L 364.241091 49.133175 
L 364.823788 43.438648 
L 365.205819 41.481081 
L 365.394922 41.31251 
L 365.769477 41.79345 
L 365.955005 41.652709 
L 367.045193 38.924805 
L 368.4436 37.72044 
L 368.78416 37.622731 
L 369.121495 37.77872 
L 370.279825 38.966147 
L 371.091605 40.645994 
L 371.572887 40.808989 
L 372.208185 40.945751 
L 372.523304 40.599888 
L 373.303723 39.041385 
L 373.458532 39.065165 
L 373.766826 39.441428 
L 374.377905 40.759594 
L 375.58414 43.940258 
L 375.884359 45.944529 
L 376.48619 50.949415 
L 376.940426 52.733024 
L 377.551917 55.186584 
L 378.484922 60.076647 
L 379.275476 66.665785 
L 379.434723 66.830483 
L 379.754193 66.426913 
L 380.720106 64.580351 
L 381.20696 61.907795 
L 382.349212 55.037756 
L 383.003925 52.447011 
L 384.971174 46.426155 
L 385.463101 45.557404 
L 385.9552 45.109435 
L 386.447882 44.920656 
L 386.941497 44.994725 
L 387.436452 45.31883 
L 388.265728 46.001037 
L 390.114823 46.518864 
L 390.626668 47.150845 
L 391.489119 48.231086 
L 392.365299 49.241096 
L 392.720927 50.035013 
L 392.900096 50.961338 
L 393.261463 54.722634 
L 393.627365 61.095219 
L 394.185602 74.914073 
L 396.126172 126.379762 
L 397.34714 144.700952 
L 397.76299 147.430593 
L 398.39484 149.905517 
L 398.821373 150.847111 
L 399.036207 150.938773 
L 399.468975 150.575611 
L 399.905826 149.907633 
L 400.346702 148.811329 
L 401.015445 146.250517 
L 402.149422 140.749369 
L 403.541394 133.854758 
L 404.249833 131.368962 
L 405.207022 129.071823 
L 405.690916 128.310622 
L 406.423269 127.974676 
L 406.669107 127.948873 
L 406.915802 128.113883 
L 407.16335 128.527569 
L 408.666377 132.611884 
L 410.457413 138.276789 
L 411.23706 140.132348 
L 412.023806 141.466057 
L 412.817558 142.323645 
L 413.350569 142.63117 
L 413.886624 142.701813 
L 414.425693 142.57919 
L 414.967748 142.277114 
L 415.786373 141.498777 
L 416.88808 140.057603 
L 420.261379 135.318609 
L 421.120277 134.70653 
L 421.985256 134.216893 
L 422.565252 134.109604 
L 422.856245 134.246047 
L 424.321064 135.691533 
L 424.911538 135.951847 
L 425.802047 135.956214 
L 426.698257 136.633965 
L 427.298867 136.631181 
L 427.901966 136.661004 
L 429.420475 137.137429 
L 431.571771 137.070184 
L 434.06577 136.521077 
L 436.596452 136.202062 
L 436.915314 136.375438 
L 437.234731 136.687 
L 437.554702 137.155373 
L 437.875226 137.209738 
L 438.196302 136.48012 
L 438.840089 134.225475 
L 439.485313 132.972197 
L 439.807989 133.335663 
L 440.452647 136.594771 
L 440.774337 137.201658 
L 441.415777 136.937928 
L 441.735285 137.225478 
L 442.053832 137.927119 
L 443.316356 142.123986 
L 443.939323 142.886317 
L 444.555889 143.667255 
L 445.165486 144.566218 
L 445.76761 144.969979 
L 446.361817 144.882213 
L 446.947712 144.595282 
L 447.524954 143.95814 
L 448.093241 142.690498 
L 448.652307 140.845894 
L 449.473095 137.079695 
L 450.271865 132.108871 
L 451.800967 120.720485 
L 453.236856 110.643196 
L 454.142518 105.705798 
L 455.424993 100.55978 
L 456.032362 96.153312 
L 456.425302 93.220354 
L 456.809498 88.245307 
L 457.555211 74.988021 
L 457.7376 73.707869 
L 458.098337 72.710474 
L 458.276914 70.956244 
L 458.806632 59.196335 
L 459.329551 49.25716 
L 459.848189 44.457173 
L 460.363239 40.993797 
L 460.873195 39.231576 
L 461.375607 38.230662 
L 462.031522 37.381846 
L 462.670862 36.865184 
L 462.98453 36.877508 
L 464.205125 37.582299 
L 464.503535 38.134271 
L 465.683874 41.340763 
L 466.711181 43.991514 
L 467.448848 45.230658 
L 468.19497 47.139924 
L 468.648441 48.786032 
L 469.261806 51.793451 
L 469.729602 54.997405 
L 470.365373 61.371748 
L 470.852455 68.58115 
L 471.349409 79.988522 
L 472.201553 99.643603 
L 473.084533 116.553017 
L 473.62879 122.590117 
L 473.812533 123.421315 
L 474.183407 123.966489 
L 474.558749 124.949572 
L 474.748079 125.021633 
L 474.938504 124.511348 
L 475.516387 122.261941 
L 475.711247 122.859678 
L 476.104362 125.102229 
L 476.502027 125.985014 
L 476.9042 126.304322 
L 477.106953 126.86466 
L 477.515743 128.737301 
L 477.721756 129.170416 
L 477.928831 129.092887 
L 478.556323 128.099652 
L 479.193075 128.473437 
L 479.838979 128.13617 
L 480.056303 128.644958 
L 481.381162 134.388171 
L 483.891551 148.060021 
L 484.811871 157.422524 
L 485.498099 162.475246 
L 486.18008 167.466101 
L 486.858034 169.61015 
L 487.754768 172.242472 
L 488.42004 173.376455 
L 488.640159 173.732219 
L 488.85944 173.818122 
L 489.077904 173.577135 
L 489.512483 172.313346 
L 490.372768 168.524353 
L 491.010891 165.728166 
L 491.43322 164.555949 
L 491.852746 163.880032 
L 492.476052 163.388785 
L 493.294595 162.809012 
L 494.098971 161.921846 
L 495.481426 160.230676 
L 496.066856 159.866014 
L 497.979152 159.550505 
L 500.421094 158.51415 
L 500.796435 158.702955 
L 502.110697 160.023248 
L 503.048995 160.868143 
L 504.362034 161.902805 
L 505.113832 161.995857 
L 505.49075 161.849895 
L 507.388949 160.503073 
L 507.77145 160.679905 
L 508.727462 161.724201 
L 509.299201 161.901153 
L 509.869719 161.882098 
L 511.198948 161.334965 
L 511.958625 160.831003 
L 512.90892 160.058052 
L 513.862166 159.099214 
L 515.009799 158.793481 
L 516.158448 158.673502 
L 517.693605 158.066384 
L 518.078404 158.039108 
L 518.463306 158.289136 
L 519.039809 158.671127 
L 520.189682 158.858818 
L 521.913998 158.777566 
L 522.297681 159.010709 
L 522.680938 159.545816 
L 524.011937 161.745462 
L 524.948068 163.054705 
L 525.687394 163.842283 
L 526.601809 165.011664 
L 527.14658 165.41328 
L 527.50889 165.433482 
L 527.871028 164.989745 
L 530.05815 161.574967 
L 530.242238 161.547951 
L 530.611069 161.933905 
L 531.348482 163.49978 
L 531.899431 164.543222 
L 532.265567 164.745111 
L 533.359469 164.675792 
L 533.723027 164.421709 
L 534.449965 163.565751 
L 534.99662 162.696845 
L 536.841097 159.082889 
L 537.214396 158.739368 
L 537.589288 158.721552 
L 537.966075 158.960369 
L 538.726741 159.854594 
L 539.49918 160.676204 
L 540.483671 161.294811 
L 540.883521 161.754182 
L 541.691644 163.120849 
L 541.894458 162.68998 
L 542.097259 161.557913 
L 542.502248 156.89639 
L 542.905547 148.730763 
L 544.097132 118.477368 
L 544.67837 108.801062 
L 545.433939 100.439691 
L 545.984388 96.10826 
L 546.343205 94.733933 
L 546.868945 93.466228 
L 547.546352 91.151442 
L 548.036386 90.574183 
L 548.196284 89.787077 
L 548.511024 86.190635 
L 549.271224 76.129661 
L 549.712668 69.120868 
L 550.432732 56.537978 
L 551.000613 50.778673 
L 552.686105 41.629695 
L 553.10529 40.436468 
L 553.522489 39.800681 
L 553.797566 39.876443 
L 554.336322 40.529227 
L 554.860141 41.470721 
L 555.371125 42.832099 
L 555.875332 44.786144 
L 556.251973 46.032031 
L 556.502934 46.210945 
L 556.879317 46.4089 
L 557.255684 46.952327 
L 558.259689 49.058862 
L 558.511189 50.512934 
L 558.764051 53.74166 
L 559.147856 62.365242 
L 559.672884 80.138404 
L 560.080377 94.892192 
L 561.085719 115.192548 
L 561.387039 117.258398 
L 561.694354 119.395567 
L 562.166217 124.250503 
L 562.487869 125.134451 
L 562.650779 125.398309 
L 562.980702 126.95992 
L 563.316033 128.846416 
L 563.656705 129.315388 
L 563.829023 129.517432 
L 564.710109 131.303721 
L 565.437854 131.43808 
L 565.809151 131.528118 
L 566.951875 131.055309 
L 567.737038 130.919338 
L 568.337797 131.150081 
L 568.948513 131.769178 
L 569.568992 132.625397 
L 570.624328 134.909754 
L 573.487459 141.860368 
L 574.401745 143.188915 
L 575.097388 143.73788 
L 575.565801 143.879039 
L 576.037887 143.824755 
L 576.513605 143.572021 
L 577.233906 142.852053 
L 577.962159 141.744571 
L 578.94532 139.745604 
L 580.445543 136.023223 
L 581.975557 132.320364 
L 583.011701 130.183794 
L 583.534519 129.559537 
L 584.060393 129.194412 
L 584.588459 129.056122 
L 585.117269 129.158699 
L 585.645522 129.620304 
L 586.172085 130.426333 
L 586.695963 131.567959 
L 587.474845 134.076095 
L 588.243164 137.458718 
L 589.494446 144.485128 
L 591.632724 156.956222 
L 592.529569 160.782291 
L 592.965265 161.877128 
L 593.60343 163.091686 
L 594.42735 165.53285 
L 595.026982 167.731484 
L 595.418923 170.124313 
L 596.375965 177.559216 
L 596.56434 177.560982 
L 596.75198 177.122393 
L 597.125443 175.109846 
L 598.233954 166.36127 
L 598.778676 164.356828 
L 599.313449 163.178964 
L 600.010031 162.19961 
L 601.684485 160.298436 
L 603.615868 157.333894 
L 604.09196 156.99814 
L 604.725273 156.857367 
L 605.515834 156.916343 
L 606.148511 157.112445 
L 606.464834 157.504747 
L 609.251692 162.298111 
L 609.85393 162.978216 
L 610.303521 163.598431 
L 610.603008 163.702715 
L 611.052928 163.465056 
L 611.807735 162.892231 
L 613.034631 161.404356 
L 614.925624 160.836362 
L 616.061515 160.320902 
L 617.219976 160.024537 
L 618.059549 159.626243 
L 620.617784 157.617946 
L 623.065079 155.825878 
L 623.601614 155.868843 
L 624.144544 156.185455 
L 624.695529 156.869046 
L 625.068283 157.629512 
L 625.44606 158.871955 
L 625.829102 160.248039 
L 626.022569 160.531728 
L 626.21729 160.425501 
L 626.413228 160.011061 
L 626.610352 159.299289 
L 626.80863 158.11448 
L 627.208527 153.603898 
L 628.434268 135.219182 
L 629.272861 125.635429 
L 629.698518 122.918105 
L 630.562357 119.277704 
L 631.000439 118.478511 
L 631.442552 118.370594 
L 631.6651 118.51714 
L 631.888631 118.893633 
L 632.338611 120.436184 
L 633.711443 126.698747 
L 634.41049 129.968983 
L 635.117868 132.285864 
L 635.355501 132.795984 
L 635.59405 133.020571 
L 636.073876 133.081235 
L 636.315131 133.897098 
L 637.044106 138.101405 
L 637.288807 138.430731 
L 637.534357 138.552153 
L 637.780752 138.998853 
L 638.52499 141.499072 
L 638.774748 141.590819 
L 639.276766 141.192585 
L 640.035993 141.174654 
L 640.290706 140.898539 
L 643.145388 135.643775 
L 643.409615 135.519312 
L 644.206905 135.654948 
L 645.01106 135.111405 
L 645.28064 135.840744 
L 645.550992 137.712756 
L 646.640195 148.997795 
L 646.914392 149.244588 
L 647.74114 148.424223 
L 648.018069 148.272647 
L 648.573957 146.988215 
L 648.852937 146.783758 
L 649.413 147.019057 
L 649.694083 146.719373 
L 650.54152 144.161242 
L 650.825384 144.090551 
L 651.681091 144.997873 
L 651.967688 144.911187 
L 652.542905 144.393795 
L 653.120799 144.256332 
L 653.410742 144.189964 
L 653.992604 143.70908 
L 654.577081 143.159036 
L 655.164151 142.950737 
L 655.753792 143.014686 
L 656.643036 141.040988 
L 656.940722 141.395043 
L 657.239046 143.308511 
L 657.83762 149.751811 
L 658.137867 153.118528 
L 658.43874 154.583568 
L 658.74022 153.986377 
L 659.344939 149.225162 
L 659.648174 148.308235 
L 660.256421 149.61203 
L 660.561449 149.656466 
L 660.867083 149.248358 
L 661.173321 148.601666 
L 661.480162 147.51602 
L 662.404288 142.457048 
L 662.713524 141.644892 
L 663.023354 141.490512 
L 663.644773 141.592896 
L 663.956353 141.385292 
L 664.581236 140.749512 
L 666.469549 140.41391 
L 667.103498 140.422369 
L 668.378026 140.140268 
L 668.698023 140.467913 
L 669.661253 142.23817 
L 669.983404 142.046111 
L 670.30609 141.662223 
L 670.629312 141.103289 
L 670.953073 140.242368 
L 671.277384 141.352946 
L 671.602261 145.633598 
L 672.25377 156.37811 
L 672.907531 162.296515 
L 673.235147 162.633455 
L 673.563188 159.494853 
L 673.891647 154.942385 
L 674.220541 152.132413 
L 674.549901 152.696139 
L 675.210112 158.674277 
L 675.540983 160.164679 
L 675.872364 159.350351 
L 676.204252 156.569504 
L 676.869545 149.783588 
L 677.202947 148.704776 
L 677.536849 149.391115 
L 677.871248 150.441484 
L 678.206143 150.601984 
L 678.541531 149.494092 
L 679.513182 144.31886 
L 679.513182 144.31886 
" clip-path="url(#pc958d8e9a4)" style="fill: none; stroke: #d62728; stroke-opacity: 0.8; stroke-width: 0.9; stroke-linecap: square"/>
   </g>
   <g id="patch_3">
    <path d="M 56.09 246.04 
L 56.09 26.88 
" style="fill: none; stroke: #000000; stroke-width: 0.8; stroke-linejoin: miter; stroke-linecap: square"/>
   </g>
   <g id="patch_4">
    <path d="M 709.2 246.04 
L 709.2 26.88 
" style="fill: none; stroke: #000000; stroke-width: 0.8; stroke-linejoin: miter; stroke-linecap: square"/>
   </g>
   <g id="patch_5">
    <path d="M 56.09 246.04 
L 709.2 246.04 
" style="fill: none; stroke: #000000; stroke-width: 0.8; stroke-linejoin: miter; stroke-linecap: square"/>
   </g>
   <g id="patch_6">
    <path d="M 56.09 26.88 
L 709.2 26.88 
" style="fill: none; stroke: #000000; stroke-width: 0.8; stroke-linejoin: miter; stroke-linecap: square"/>
   </g>
   <g id="text_21">
    <!-- steering-link loads over one Anderstorp Raceway lap -->
    <g transform="translate(224.036875 20.88) scale(0.12 -0.12)">
     <defs>
      <path id="DejaVuSans-67" d="M 2906 1791 
Q 2906 2416 2648 2759 
Q 2391 3103 1925 3103 
Q 1463 3103 1205 2759 
Q 947 2416 947 1791 
Q 947 1169 1205 825 
Q 1463 481 1925 481 
Q 2391 481 2648 825 
Q 2906 1169 2906 1791 
z
M 3481 434 
Q 3481 -459 3084 -895 
Q 2688 -1331 1869 -1331 
Q 1566 -1331 1297 -1286 
Q 1028 -1241 775 -1147 
L 775 -588 
Q 1028 -725 1275 -790 
Q 1522 -856 1778 -856 
Q 2344 -856 2625 -561 
Q 2906 -266 2906 331 
L 2906 616 
Q 2728 306 2450 153 
Q 2172 0 1784 0 
Q 1141 0 747 490 
Q 353 981 353 1791 
Q 353 2603 747 3093 
Q 1141 3584 1784 3584 
Q 2172 3584 2450 3431 
Q 2728 3278 2906 2969 
L 2906 3500 
L 3481 3500 
L 3481 434 
z
" transform="scale(0.015625)"/>
      <path id="DejaVuSans-6c" d="M 603 4863 
L 1178 4863 
L 1178 0 
L 603 0 
L 603 4863 
z
" transform="scale(0.015625)"/>
      <path id="DejaVuSans-76" d="M 191 3500 
L 800 3500 
L 1894 563 
L 2988 3500 
L 3597 3500 
L 2284 0 
L 1503 0 
L 191 3500 
z
" transform="scale(0.015625)"/>
      <path id="DejaVuSans-41" d="M 2188 4044 
L 1331 1722 
L 3047 1722 
L 2188 4044 
z
M 1831 4666 
L 2547 4666 
L 4325 0 
L 3669 0 
L 3244 1197 
L 1141 1197 
L 716 0 
L 50 0 
L 1831 4666 
z
" transform="scale(0.015625)"/>
      <path id="DejaVuSans-70" d="M 1159 525 
L 1159 -1331 
L 581 -1331 
L 581 3500 
L 1159 3500 
L 1159 2969 
Q 1341 3281 1617 3432 
Q 1894 3584 2278 3584 
Q 2916 3584 3314 3078 
Q 3713 2572 3713 1747 
Q 3713 922 3314 415 
Q 2916 -91 2278 -91 
Q 1894 -91 1617 61 
Q 1341 213 1159 525 
z
M 3116 1747 
Q 3116 2381 2855 2742 
Q 2594 3103 2138 3103 
Q 1681 3103 1420 2742 
Q 1159 2381 1159 1747 
Q 1159 1113 1420 752 
Q 1681 391 2138 391 
Q 2594 391 2855 752 
Q 3116 1113 3116 1747 
z
" transform="scale(0.015625)"/>
      <path id="DejaVuSans-52" d="M 2841 2188 
Q 3044 2119 3236 1894 
Q 3428 1669 3622 1275 
L 4263 0 
L 3584 0 
L 2988 1197 
Q 2756 1666 2539 1819 
Q 2322 1972 1947 1972 
L 1259 1972 
L 1259 0 
L 628 0 
L 628 4666 
L 2053 4666 
Q 2853 4666 3247 4331 
Q 3641 3997 3641 3322 
Q 3641 2881 3436 2590 
Q 3231 2300 2841 2188 
z
M 1259 4147 
L 1259 2491 
L 2053 2491 
Q 2509 2491 2742 2702 
Q 2975 2913 2975 3322 
Q 2975 3731 2742 3939 
Q 2509 4147 2053 4147 
L 1259 4147 
z
" transform="scale(0.015625)"/>
      <path id="DejaVuSans-77" d="M 269 3500 
L 844 3500 
L 1563 769 
L 2278 3500 
L 2956 3500 
L 3675 769 
L 4391 3500 
L 4966 3500 
L 4050 0 
L 3372 0 
L 2619 2869 
L 1863 0 
L 1184 0 
L 269 3500 
z
" transform="scale(0.015625)"/>
      <path id="DejaVuSans-79" d="M 2059 -325 
Q 1816 -950 1584 -1140 
Q 1353 -1331 966 -1331 
L 506 -1331 
L 506 -850 
L 844 -850 
Q 1081 -850 1212 -737 
Q 1344 -625 1503 -206 
L 1606 56 
L 191 3500 
L 800 3500 
L 1894 763 
L 2988 3500 
L 3597 3500 
L 2059 -325 
z
" transform="scale(0.015625)"/>
     </defs>
     <use xlink:href="#DejaVuSans-73"/>
     <use xlink:href="#DejaVuSans-74" transform="translate(52.099609 0)"/>
     <use xlink:href="#DejaVuSans-65" transform="translate(91.308594 0)"/>
     <use xlink:href="#DejaVuSans-65" transform="translate(152.832031 0)"/>
     <use xlink:href="#DejaVuSans-72" transform="translate(214.355469 0)"/>
     <use xlink:href="#DejaVuSans-69" transform="translate(255.46875 0)"/>
     <use xlink:href="#DejaVuSans-6e" transform="translate(283.251953 0)"/>
     <use xlink:href="#DejaVuSans-67" transform="translate(346.630859 0)"/>
     <use xlink:href="#DejaVuSans-2d" transform="translate(410.107422 0)"/>
     <use xlink:href="#DejaVuSans-6c" transform="translate(446.191406 0)"/>
     <use xlink:href="#DejaVuSans-69" transform="translate(473.974609 0)"/>
     <use xlink:href="#DejaVuSans-6e" transform="translate(501.757812 0)"/>
     <use xlink:href="#DejaVuSans-6b" transform="translate(565.136719 0)"/>
     <use xlink:href="#DejaVuSans-20" transform="translate(623.046875 0)"/>
     <use xlink:href="#DejaVuSans-6c" transform="translate(654.833984 0)"/>
     <use xlink:href="#DejaVuSans-6f" transform="translate(682.617188 0)"/>
     <use xlink:href="#DejaVuSans-61" transform="translate(743.798828 0)"/>
     <use xlink:href="#DejaVuSans-64" transform="translate(805.078125 0)"/>
     <use xlink:href="#DejaVuSans-73" transform="translate(868.554688 0)"/>
     <use xlink:href="#DejaVuSans-20" transform="translate(920.654297 0)"/>
     <use xlink:href="#DejaVuSans-6f" transform="translate(952.441406 0)"/>
     <use xlink:href="#DejaVuSans-76" transform="translate(1013.623047 0)"/>
     <use xlink:href="#DejaVuSans-65" transform="translate(1072.802734 0)"/>
     <use xlink:href="#DejaVuSans-72" transform="translate(1134.326172 0)"/>
     <use xlink:href="#DejaVuSans-20" transform="translate(1175.439453 0)"/>
     <use xlink:href="#DejaVuSans-6f" transform="translate(1207.226562 0)"/>
     <use xlink:href="#DejaVuSans-6e" transform="translate(1268.408203 0)"/>
     <use xlink:href="#DejaVuSans-65" transform="translate(1331.787109 0)"/>
     <use xlink:href="#DejaVuSans-20" transform="translate(1393.310547 0)"/>
     <use xlink:href="#DejaVuSans-41" transform="translate(1425.097656 0)"/>
     <use xlink:href="#DejaVuSans-6e" transform="translate(1493.505859 0)"/>
     <use xlink:href="#DejaVuSans-64" transform="translate(1556.884766 0)"/>
     <use xlink:href="#DejaVuSans-65" transform="translate(1620.361328 0)"/>
     <use xlink:href="#DejaVuSans-72" transform="translate(1681.884766 0)"/>
     <use xlink:href="#DejaVuSans-73" transform="translate(1722.998047 0)"/>
     <use xlink:href="#DejaVuSans-74" transform="translate(1775.097656 0)"/>
     <use xlink:href="#DejaVuSans-6f" transform="translate(1814.306641 0)"/>
     <use xlink:href="#DejaVuSans-72" transform="translate(1875.488281 0)"/>
     <use xlink:href="#DejaVuSans-70" transform="translate(1916.601562 0)"/>
     <use xlink:href="#DejaVuSans-20" transform="translate(1980.078125 0)"/>
     <use xlink:href="#DejaVuSans-52" transform="translate(2011.865234 0)"/>
     <use xlink:href="#DejaVuSans-61" transform="translate(2079.097656 0)"/>
     <use xlink:href="#DejaVuSans-63" transform="translate(2140.376953 0)"/>
     <use xlink:href="#DejaVuSans-65" transform="translate(2195.357422 0)"/>
     <use xlink:href="#DejaVuSans-77" transform="translate(2256.880859 0)"/>
     <use xlink:href="#DejaVuSans-61" transform="translate(2338.667969 0)"/>
     <use xlink:href="#DejaVuSans-79" transform="translate(2399.947266 0)"/>
     <use xlink:href="#DejaVuSans-20" transform="translate(2459.126953 0)"/>
     <use xlink:href="#DejaVuSans-6c" transform="translate(2490.914062 0)"/>
     <use xlink:href="#DejaVuSans-61" transform="translate(2518.697266 0)"/>
     <use xlink:href="#DejaVuSans-70" transform="translate(2579.976562 0)"/>
    </g>
   </g>
   <g id="legend_1">
    <g id="patch_7">
     <path d="M 630.755 56.765 
L 703.6 56.765 
Q 705.2 56.765 705.2 55.165 
L 705.2 32.48 
Q 705.2 30.88 703.6 30.88 
L 630.755 30.88 
Q 629.155 30.88 629.155 32.48 
L 629.155 55.165 
Q 629.155 56.765 630.755 56.765 
z
" style="fill: #ffffff; opacity: 0.8; stroke: #cccccc; stroke-linejoin: miter"/>
    </g>
    <g id="line2d_39">
     <path d="M 632.355 37.35875 
L 640.355 37.35875 
L 648.355 37.35875 
" style="fill: none; stroke: #2ca02c; stroke-width: 0.9; stroke-linecap: square"/>
    </g>
    <g id="text_22">
     <!-- tie rod left -->
     <g transform="translate(654.755 40.15875) scale(0.08 -0.08)">
      <use xlink:href="#DejaVuSans-74"/>
      <use xlink:href="#DejaVuSans-69" transform="translate(39.208984 0)"/>
      <use xlink:href="#DejaVuSans-65" transform="translate(66.992188 0)"/>
      <use xlink:href="#DejaVuSans-20" transform="translate(128.515625 0)"/>
      <use xlink:href="#DejaVuSans-72" transform="translate(160.302734 0)"/>
      <use xlink:href="#DejaVuSans-6f" transform="translate(199.166016 0)"/>
      <use xlink:href="#DejaVuSans-64" transform="translate(260.347656 0)"/>
      <use xlink:href="#DejaVuSans-20" transform="translate(323.824219 0)"/>
      <use xlink:href="#DejaVuSans-6c" transform="translate(355.611328 0)"/>
      <use xlink:href="#DejaVuSans-65" transform="translate(383.394531 0)"/>
      <use xlink:href="#DejaVuSans-66" transform="translate(444.917969 0)"/>
      <use xlink:href="#DejaVuSans-74" transform="translate(478.373047 0)"/>
     </g>
    </g>
    <g id="line2d_40">
     <path d="M 632.355 49.10125 
L 640.355 49.10125 
L 648.355 49.10125 
" style="fill: none; stroke: #d62728; stroke-opacity: 0.8; stroke-width: 0.9; stroke-linecap: square"/>
    </g>
    <g id="text_23">
     <!-- tie rod right -->
     <g transform="translate(654.755 51.90125) scale(0.08 -0.08)">
      <defs>
       <path id="DejaVuSans-68" d="M 3513 2113 
L 3513 0 
L 2938 0 
L 2938 2094 
Q 2938 2591 2744 2837 
Q 2550 3084 2163 3084 
Q 1697 3084 1428 2787 
Q 1159 2491 1159 1978 
L 1159 0 
L 581 0 
L 581 4863 
L 1159 4863 
L 1159 2956 
Q 1366 3272 1645 3428 
Q 1925 3584 2291 3584 
Q 2894 3584 3203 3211 
Q 3513 2838 3513 2113 
z
" transform="scale(0.015625)"/>
      </defs>
      <use xlink:href="#DejaVuSans-74"/>
      <use xlink:href="#DejaVuSans-69" transform="translate(39.208984 0)"/>
      <use xlink:href="#DejaVuSans-65" transform="translate(66.992188 0)"/>
      <use xlink:href="#DejaVuSans-20" transform="translate(128.515625 0)"/>
      <use xlink:href="#DejaVuSans-72" transform="translate(160.302734 0)"/>
      <use xlink:href="#DejaVuSans-6f" transform="translate(199.166016 0)"/>
      <use xlink:href="#DejaVuSans-64" transform="translate(260.347656 0)"/>
      <use xlink:href="#DejaVuSans-20" transform="translate(323.824219 0)"/>
      <use xlink:href="#DejaVuSans-72" transform="translate(355.611328 0)"/>
      <use xlink:href="#DejaVuSans-69" transform="translate(396.724609 0)"/>
      <use xlink:href="#DejaVuSans-67" transform="translate(424.507812 0)"/>
      <use xlink:href="#DejaVuSans-68" transform="translate(487.984375 0)"/>
      <use xlink:href="#DejaVuSans-74" transform="translate(551.363281 0)"/>
     </g>
    </g>
   </g>
  </g>
 </g>
 <defs>
  <clipPath id="pc958d8e9a4">
   <rect x="56.09" y="26.88" width="653.11" height="219.16"/>
  </clipPath>
 </defs>
</svg>
