<?xml version="1.0" encoding="utf-8" standalone="no"?>
<!DOCTYPE svg PUBLIC "-//W3C//DTD SVG 1.1//EN"
  "http://www.w3.org/Graphics/SVG/1.1/DTD/svg11.dtd">
<svg xmlns:xlink="http://www.w3.org/1999/xlink" width="720pt" height="288pt" viewBox="0 0 720 288" xmlns="http://www.w3.org/2000/svg" version="1.1">
 <metadata>
  <rdf:RDF xmlns:dc="http://purl.org/dc/elements/1.1/" xmlns:cc="http://creativecommons.org/ns#" xmlns:rdf="http://www.w3.org/1999/02/22-rdf-syntax-ns#">
   <cc:Work>
    <dc:type rdf:resource="http://purl.org/dc/dcmitype/StillImage"/>
    <dc:date>2026-07-07T16:17:05.993615</dc:date>
    <dc:format>image/svg+xml</dc:format>
    <dc:creator>
     <cc:Agent>
      <dc:title>Matplotlib v3.10.8, https://matplotlib.org/</dc:title>
     </cc:Agent>
    </dc:creator>
   </cc:Work>
  </rdf:RDF>
 </metadata>
 <defs>
  <style type="text/css">*{stroke-linejoin: round; stroke-linecap: butt}</style>
 </defs>
 <g id="figure_1">
  <g id="patch_1">
   <path d="M 0 288 
L 720 288 
L 720 0 
L 0 0 
z
" style="fill: #ffffff"/>
  </g>
  <g id="axes_1">
   <g id="patch_2">
    <path d="M 56.09 246.04 
L 709.2 246.04 
L 709.2 26.88 
L 56.09 26.88 
z
" style="fill: #ffffff"/>
   </g>
   <g id="matplotlib.axis_1">
    <g id="xtick_1">
     <g id="line2d_1">
      <path d="M 85.776818 246.04 
L 85.776818 26.88 
" clip-path="url(#p117ac9a238)" style="fill: none; stroke: #b0b0b0; stroke-opacity: 0.3; stroke-width: 0.8; stroke-linecap: square"/>
     </g>
     <g id="line2d_2">
      <defs>
       <path id="m2c3695881f" d="M 0 0 
L 0 3.5 
" style="stroke: #000000; stroke-width: 0.8"/>
      </defs>
      <g>
       <use xlink:href="#m2c3695881f" x="85.776818" y="246.04" style="stroke: #000000; stroke-width: 0.8"/>
      </g>
     </g>
     <g id="text_1">
      <!-- 0.0 -->
      <g transform="translate(77.825256 260.638438) scale(0.1 -0.1)">
       <defs>
        <path id="DejaVuSans-30" d="M 2034 4250 
Q 1547 4250 1301 3770 
Q 1056 3291 1056 2328 
Q 1056 1369 1301 889 
Q 1547 409 2034 409 
Q 2525 409 2770 889 
Q 3016 1369 3016 2328 
Q 3016 3291 2770 3770 
Q 2525 4250 2034 4250 
z
M 2034 4750 
Q 2819 4750 3233 4129 
Q 3647 3509 3647 2328 
Q 3647 1150 3233 529 
Q 2819 -91 2034 -91 
Q 1250 -91 836 529 
Q 422 1150 422 2328 
Q 422 3509 836 4129 
Q 1250 4750 2034 4750 
z
" transform="scale(0.015625)"/>
        <path id="DejaVuSans-2e" d="M 684 794 
L 1344 794 
L 1344 0 
L 684 0 
L 684 794 
z
" transform="scale(0.015625)"/>
       </defs>
       <use xlink:href="#DejaVuSans-30"/>
       <use xlink:href="#DejaVuSans-2e" transform="translate(63.623047 0)"/>
       <use xlink:href="#DejaVuSans-30" transform="translate(95.410156 0)"/>
      </g>
     </g>
    </g>
    <g id="xtick_2">
     <g id="line2d_3">
      <path d="M 159.808784 246.04 
L 159.808784 26.88 
" clip-path="url(#p117ac9a238)" style="fill: none; stroke: #b0b0b0; stroke-opacity: 0.3; stroke-width: 0.8; stroke-linecap: square"/>
     </g>
     <g id="line2d_4">
      <g>
       <use xlink:href="#m2c3695881f" x="159.808784" y="246.04" style="stroke: #000000; stroke-width: 0.8"/>
      </g>
     </g>
     <g id="text_2">
      <!-- 0.5 -->
      <g transform="translate(151.857221 260.638438) scale(0.1 -0.1)">
       <defs>
        <path id="DejaVuSans-35" d="M 691 4666 
L 3169 4666 
L 3169 4134 
L 1269 4134 
L 1269 2991 
Q 1406 3038 1543 3061 
Q 1681 3084 1819 3084 
Q 2600 3084 3056 2656 
Q 3513 2228 3513 1497 
Q 3513 744 3044 326 
Q 2575 -91 1722 -91 
Q 1428 -91 1123 -41 
Q 819 9 494 109 
L 494 744 
Q 775 591 1075 516 
Q 1375 441 1709 441 
Q 2250 441 2565 725 
Q 2881 1009 2881 1497 
Q 2881 1984 2565 2268 
Q 2250 2553 1709 2553 
Q 1456 2553 1204 2497 
Q 953 2441 691 2322 
L 691 4666 
z
" transform="scale(0.015625)"/>
       </defs>
       <use xlink:href="#DejaVuSans-30"/>
       <use xlink:href="#DejaVuSans-2e" transform="translate(63.623047 0)"/>
       <use xlink:href="#DejaVuSans-35" transform="translate(95.410156 0)"/>
      </g>
     </g>
    </g>
    <g id="xtick_3">
     <g id="line2d_5">
      <path d="M 233.840749 246.04 
L 233.840749 26.88 
" clip-path="url(#p117ac9a238)" style="fill: none; stroke: #b0b0b0; stroke-opacity: 0.3; stroke-width: 0.8; stroke-linecap: square"/>
     </g>
     <g id="line2d_6">
      <g>
       <use xlink:href="#m2c3695881f" x="233.840749" y="246.04" style="stroke: #000000; stroke-width: 0.8"/>
      </g>
     </g>
     <g id="text_3">
      <!-- 1.0 -->
      <g transform="translate(225.889187 260.638438) scale(0.1 -0.1)">
       <defs>
        <path id="DejaVuSans-31" d="M 794 531 
L 1825 531 
L 1825 4091 
L 703 3866 
L 703 4441 
L 1819 4666 
L 2450 4666 
L 2450 531 
L 3481 531 
L 3481 0 
L 794 0 
L 794 531 
z
" transform="scale(0.015625)"/>
       </defs>
       <use xlink:href="#DejaVuSans-31"/>
       <use xlink:href="#DejaVuSans-2e" transform="translate(63.623047 0)"/>
       <use xlink:href="#DejaVuSans-30" transform="translate(95.410156 0)"/>
      </g>
     </g>
    </g>
    <g id="xtick_4">
     <g id="line2d_7">
      <path d="M 307.872715 246.04 
L 307.872715 26.88 
" clip-path="url(#p117ac9a238)" style="fill: none; stroke: #b0b0b0; stroke-opacity: 0.3; stroke-width: 0.8; stroke-linecap: square"/>
     </g>
     <g id="line2d_8">
      <g>
       <use xlink:href="#m2c3695881f" x="307.872715" y="246.04" style="stroke: #000000; stroke-width: 0.8"/>
      </g>
     </g>
     <g id="text_4">
      <!-- 1.5 -->
      <g transform="translate(299.921152 260.638438) scale(0.1 -0.1)">
       <use xlink:href="#DejaVuSans-31"/>
       <use xlink:href="#DejaVuSans-2e" transform="translate(63.623047 0)"/>
       <use xlink:href="#DejaVuSans-35" transform="translate(95.410156 0)"/>
      </g>
     </g>
    </g>
    <g id="xtick_5">
     <g id="line2d_9">
      <path d="M 381.90468 246.04 
L 381.90468 26.88 
" clip-path="url(#p117ac9a238)" style="fill: none; stroke: #b0b0b0; stroke-opacity: 0.3; stroke-width: 0.8; stroke-linecap: square"/>
     </g>
     <g id="line2d_10">
      <g>
       <use xlink:href="#m2c3695881f" x="381.90468" y="246.04" style="stroke: #000000; stroke-width: 0.8"/>
      </g>
     </g>
     <g id="text_5">
      <!-- 2.0 -->
      <g transform="translate(373.953118 260.638438) scale(0.1 -0.1)">
       <defs>
        <path id="DejaVuSans-32" d="M 1228 531 
L 3431 531 
L 3431 0 
L 469 0 
L 469 531 
Q 828 903 1448 1529 
Q 2069 2156 2228 2338 
Q 2531 2678 2651 2914 
Q 2772 3150 2772 3378 
Q 2772 3750 2511 3984 
Q 2250 4219 1831 4219 
Q 1534 4219 1204 4116 
Q 875 4013 500 3803 
L 500 4441 
Q 881 4594 1212 4672 
Q 1544 4750 1819 4750 
Q 2544 4750 2975 4387 
Q 3406 4025 3406 3419 
Q 3406 3131 3298 2873 
Q 3191 2616 2906 2266 
Q 2828 2175 2409 1742 
Q 1991 1309 1228 531 
z
" transform="scale(0.015625)"/>
       </defs>
       <use xlink:href="#DejaVuSans-32"/>
       <use xlink:href="#DejaVuSans-2e" transform="translate(63.623047 0)"/>
       <use xlink:href="#DejaVuSans-30" transform="translate(95.410156 0)"/>
      </g>
     </g>
    </g>
    <g id="xtick_6">
     <g id="line2d_11">
      <path d="M 455.936646 246.04 
L 455.936646 26.88 
" clip-path="url(#p117ac9a238)" style="fill: none; stroke: #b0b0b0; stroke-opacity: 0.3; stroke-width: 0.8; stroke-linecap: square"/>
     </g>
     <g id="line2d_12">
      <g>
       <use xlink:href="#m2c3695881f" x="455.936646" y="246.04" style="stroke: #000000; stroke-width: 0.8"/>
      </g>
     </g>
     <g id="text_6">
      <!-- 2.5 -->
      <g transform="translate(447.985083 260.638438) scale(0.1 -0.1)">
       <use xlink:href="#DejaVuSans-32"/>
       <use xlink:href="#DejaVuSans-2e" transform="translate(63.623047 0)"/>
       <use xlink:href="#DejaVuSans-35" transform="translate(95.410156 0)"/>
      </g>
     </g>
    </g>
    <g id="xtick_7">
     <g id="line2d_13">
      <path d="M 529.968611 246.04 
L 529.968611 26.88 
" clip-path="url(#p117ac9a238)" style="fill: none; stroke: #b0b0b0; stroke-opacity: 0.3; stroke-width: 0.8; stroke-linecap: square"/>
     </g>
     <g id="line2d_14">
      <g>
       <use xlink:href="#m2c3695881f" x="529.968611" y="246.04" style="stroke: #000000; stroke-width: 0.8"/>
      </g>
     </g>
     <g id="text_7">
      <!-- 3.0 -->
      <g transform="translate(522.017049 260.638438) scale(0.1 -0.1)">
       <defs>
        <path id="DejaVuSans-33" d="M 2597 2516 
Q 3050 2419 3304 2112 
Q 3559 1806 3559 1356 
Q 3559 666 3084 287 
Q 2609 -91 1734 -91 
Q 1441 -91 1130 -33 
Q 819 25 488 141 
L 488 750 
Q 750 597 1062 519 
Q 1375 441 1716 441 
Q 2309 441 2620 675 
Q 2931 909 2931 1356 
Q 2931 1769 2642 2001 
Q 2353 2234 1838 2234 
L 1294 2234 
L 1294 2753 
L 1863 2753 
Q 2328 2753 2575 2939 
Q 2822 3125 2822 3475 
Q 2822 3834 2567 4026 
Q 2313 4219 1838 4219 
Q 1578 4219 1281 4162 
Q 984 4106 628 3988 
L 628 4550 
Q 988 4650 1302 4700 
Q 1616 4750 1894 4750 
Q 2613 4750 3031 4423 
Q 3450 4097 3450 3541 
Q 3450 3153 3228 2886 
Q 3006 2619 2597 2516 
z
" transform="scale(0.015625)"/>
       </defs>
       <use xlink:href="#DejaVuSans-33"/>
       <use xlink:href="#DejaVuSans-2e" transform="translate(63.623047 0)"/>
       <use xlink:href="#DejaVuSans-30" transform="translate(95.410156 0)"/>
      </g>
     </g>
    </g>
    <g id="xtick_8">
     <g id="line2d_15">
      <path d="M 604.000577 246.04 
L 604.000577 26.88 
" clip-path="url(#p117ac9a238)" style="fill: none; stroke: #b0b0b0; stroke-opacity: 0.3; stroke-width: 0.8; stroke-linecap: square"/>
     </g>
     <g id="line2d_16">
      <g>
       <use xlink:href="#m2c3695881f" x="604.000577" y="246.04" style="stroke: #000000; stroke-width: 0.8"/>
      </g>
     </g>
     <g id="text_8">
      <!-- 3.5 -->
      <g transform="translate(596.049014 260.638438) scale(0.1 -0.1)">
       <use xlink:href="#DejaVuSans-33"/>
       <use xlink:href="#DejaVuSans-2e" transform="translate(63.623047 0)"/>
       <use xlink:href="#DejaVuSans-35" transform="translate(95.410156 0)"/>
      </g>
     </g>
    </g>
    <g id="xtick_9">
     <g id="line2d_17">
      <path d="M 678.032542 246.04 
L 678.032542 26.88 
" clip-path="url(#p117ac9a238)" style="fill: none; stroke: #b0b0b0; stroke-opacity: 0.3; stroke-width: 0.8; stroke-linecap: square"/>
     </g>
     <g id="line2d_18">
      <g>
       <use xlink:href="#m2c3695881f" x="678.032542" y="246.04" style="stroke: #000000; stroke-width: 0.8"/>
      </g>
     </g>
     <g id="text_9">
      <!-- 4.0 -->
      <g transform="translate(670.08098 260.638438) scale(0.1 -0.1)">
       <defs>
        <path id="DejaVuSans-34" d="M 2419 4116 
L 825 1625 
L 2419 1625 
L 2419 4116 
z
M 2253 4666 
L 3047 4666 
L 3047 1625 
L 3713 1625 
L 3713 1100 
L 3047 1100 
L 3047 0 
L 2419 0 
L 2419 1100 
L 313 1100 
L 313 1709 
L 2253 4666 
z
" transform="scale(0.015625)"/>
       </defs>
       <use xlink:href="#DejaVuSans-34"/>
       <use xlink:href="#DejaVuSans-2e" transform="translate(63.623047 0)"/>
       <use xlink:href="#DejaVuSans-30" transform="translate(95.410156 0)"/>
      </g>
     </g>
    </g>
    <g id="text_10">
     <!-- distance s [km] -->
     <g transform="translate(344.008281 274.316562) scale(0.1 -0.1)">
      <defs>
       <path id="DejaVuSans-64" d="M 2906 2969 
L 2906 4863 
L 3481 4863 
L 3481 0 
L 2906 0 
L 2906 525 
Q 2725 213 2448 61 
Q 2172 -91 1784 -91 
Q 1150 -91 751 415 
Q 353 922 353 1747 
Q 353 2572 751 3078 
Q 1150 3584 1784 3584 
Q 2172 3584 2448 3432 
Q 2725 3281 2906 2969 
z
M 947 1747 
Q 947 1113 1208 752 
Q 1469 391 1925 391 
Q 2381 391 2643 752 
Q 2906 1113 2906 1747 
Q 2906 2381 2643 2742 
Q 2381 3103 1925 3103 
Q 1469 3103 1208 2742 
Q 947 2381 947 1747 
z
" transform="scale(0.015625)"/>
       <path id="DejaVuSans-69" d="M 603 3500 
L 1178 3500 
L 1178 0 
L 603 0 
L 603 3500 
z
M 603 4863 
L 1178 4863 
L 1178 4134 
L 603 4134 
L 603 4863 
z
" transform="scale(0.015625)"/>
       <path id="DejaVuSans-73" d="M 2834 3397 
L 2834 2853 
Q 2591 2978 2328 3040 
Q 2066 3103 1784 3103 
Q 1356 3103 1142 2972 
Q 928 2841 928 2578 
Q 928 2378 1081 2264 
Q 1234 2150 1697 2047 
L 1894 2003 
Q 2506 1872 2764 1633 
Q 3022 1394 3022 966 
Q 3022 478 2636 193 
Q 2250 -91 1575 -91 
Q 1294 -91 989 -36 
Q 684 19 347 128 
L 347 722 
Q 666 556 975 473 
Q 1284 391 1588 391 
Q 1994 391 2212 530 
Q 2431 669 2431 922 
Q 2431 1156 2273 1281 
Q 2116 1406 1581 1522 
L 1381 1569 
Q 847 1681 609 1914 
Q 372 2147 372 2553 
Q 372 3047 722 3315 
Q 1072 3584 1716 3584 
Q 2034 3584 2315 3537 
Q 2597 3491 2834 3397 
z
" transform="scale(0.015625)"/>
       <path id="DejaVuSans-74" d="M 1172 4494 
L 1172 3500 
L 2356 3500 
L 2356 3053 
L 1172 3053 
L 1172 1153 
Q 1172 725 1289 603 
Q 1406 481 1766 481 
L 2356 481 
L 2356 0 
L 1766 0 
Q 1100 0 847 248 
Q 594 497 594 1153 
L 594 3053 
L 172 3053 
L 172 3500 
L 594 3500 
L 594 4494 
L 1172 4494 
z
" transform="scale(0.015625)"/>
       <path id="DejaVuSans-61" d="M 2194 1759 
Q 1497 1759 1228 1600 
Q 959 1441 959 1056 
Q 959 750 1161 570 
Q 1363 391 1709 391 
Q 2188 391 2477 730 
Q 2766 1069 2766 1631 
L 2766 1759 
L 2194 1759 
z
M 3341 1997 
L 3341 0 
L 2766 0 
L 2766 531 
Q 2569 213 2275 61 
Q 1981 -91 1556 -91 
Q 1019 -91 701 211 
Q 384 513 384 1019 
Q 384 1609 779 1909 
Q 1175 2209 1959 2209 
L 2766 2209 
L 2766 2266 
Q 2766 2663 2505 2880 
Q 2244 3097 1772 3097 
Q 1472 3097 1187 3025 
Q 903 2953 641 2809 
L 641 3341 
Q 956 3463 1253 3523 
Q 1550 3584 1831 3584 
Q 2591 3584 2966 3190 
Q 3341 2797 3341 1997 
z
" transform="scale(0.015625)"/>
       <path id="DejaVuSans-6e" d="M 3513 2113 
L 3513 0 
L 2938 0 
L 2938 2094 
Q 2938 2591 2744 2837 
Q 2550 3084 2163 3084 
Q 1697 3084 1428 2787 
Q 1159 2491 1159 1978 
L 1159 0 
L 581 0 
L 581 3500 
L 1159 3500 
L 1159 2956 
Q 1366 3272 1645 3428 
Q 1925 3584 2291 3584 
Q 2894 3584 3203 3211 
Q 3513 2838 3513 2113 
z
" transform="scale(0.015625)"/>
       <path id="DejaVuSans-63" d="M 3122 3366 
L 3122 2828 
Q 2878 2963 2633 3030 
Q 2388 3097 2138 3097 
Q 1578 3097 1268 2742 
Q 959 2388 959 1747 
Q 959 1106 1268 751 
Q 1578 397 2138 397 
Q 2388 397 2633 464 
Q 2878 531 3122 666 
L 3122 134 
Q 2881 22 2623 -34 
Q 2366 -91 2075 -91 
Q 1284 -91 818 406 
Q 353 903 353 1747 
Q 353 2603 823 3093 
Q 1294 3584 2113 3584 
Q 2378 3584 2631 3529 
Q 2884 3475 3122 3366 
z
" transform="scale(0.015625)"/>
       <path id="DejaVuSans-65" d="M 3597 1894 
L 3597 1613 
L 953 1613 
Q 991 1019 1311 708 
Q 1631 397 2203 397 
Q 2534 397 2845 478 
Q 3156 559 3463 722 
L 3463 178 
Q 3153 47 2828 -22 
Q 2503 -91 2169 -91 
Q 1331 -91 842 396 
Q 353 884 353 1716 
Q 353 2575 817 3079 
Q 1281 3584 2069 3584 
Q 2775 3584 3186 3129 
Q 3597 2675 3597 1894 
z
M 3022 2063 
Q 3016 2534 2758 2815 
Q 2500 3097 2075 3097 
Q 1594 3097 1305 2825 
Q 1016 2553 972 2059 
L 3022 2063 
z
" transform="scale(0.015625)"/>
       <path id="DejaVuSans-20" transform="scale(0.015625)"/>
       <path id="DejaVuSans-5b" d="M 550 4863 
L 1875 4863 
L 1875 4416 
L 1125 4416 
L 1125 -397 
L 1875 -397 
L 1875 -844 
L 550 -844 
L 550 4863 
z
" transform="scale(0.015625)"/>
       <path id="DejaVuSans-6b" d="M 581 4863 
L 1159 4863 
L 1159 1991 
L 2875 3500 
L 3609 3500 
L 1753 1863 
L 3688 0 
L 2938 0 
L 1159 1709 
L 1159 0 
L 581 0 
L 581 4863 
z
" transform="scale(0.015625)"/>
       <path id="DejaVuSans-6d" d="M 3328 2828 
Q 3544 3216 3844 3400 
Q 4144 3584 4550 3584 
Q 5097 3584 5394 3201 
Q 5691 2819 5691 2113 
L 5691 0 
L 5113 0 
L 5113 2094 
Q 5113 2597 4934 2840 
Q 4756 3084 4391 3084 
Q 3944 3084 3684 2787 
Q 3425 2491 3425 1978 
L 3425 0 
L 2847 0 
L 2847 2094 
Q 2847 2600 2669 2842 
Q 2491 3084 2119 3084 
Q 1678 3084 1418 2786 
Q 1159 2488 1159 1978 
L 1159 0 
L 581 0 
L 581 3500 
L 1159 3500 
L 1159 2956 
Q 1356 3278 1631 3431 
Q 1906 3584 2284 3584 
Q 2666 3584 2933 3390 
Q 3200 3197 3328 2828 
z
" transform="scale(0.015625)"/>
       <path id="DejaVuSans-5d" d="M 1947 4863 
L 1947 -844 
L 622 -844 
L 622 -397 
L 1369 -397 
L 1369 4416 
L 622 4416 
L 622 4863 
L 1947 4863 
z
" transform="scale(0.015625)"/>
      </defs>
      <use xlink:href="#DejaVuSans-64"/>
      <use xlink:href="#DejaVuSans-69" transform="translate(63.476562 0)"/>
      <use xlink:href="#DejaVuSans-73" transform="translate(91.259766 0)"/>
      <use xlink:href="#DejaVuSans-74" transform="translate(143.359375 0)"/>
      <use xlink:href="#DejaVuSans-61" transform="translate(182.568359 0)"/>
      <use xlink:href="#DejaVuSans-6e" transform="translate(243.847656 0)"/>
      <use xlink:href="#DejaVuSans-63" transform="translate(307.226562 0)"/>
      <use xlink:href="#DejaVuSans-65" transform="translate(362.207031 0)"/>
      <use xlink:href="#DejaVuSans-20" transform="translate(423.730469 0)"/>
      <use xlink:href="#DejaVuSans-73" transform="translate(455.517578 0)"/>
      <use xlink:href="#DejaVuSans-20" transform="translate(507.617188 0)"/>
      <use xlink:href="#DejaVuSans-5b" transform="translate(539.404297 0)"/>
      <use xlink:href="#DejaVuSans-6b" transform="translate(578.417969 0)"/>
      <use xlink:href="#DejaVuSans-6d" transform="translate(636.328125 0)"/>
      <use xlink:href="#DejaVuSans-5d" transform="translate(733.740234 0)"/>
     </g>
    </g>
   </g>
   <g id="matplotlib.axis_2">
    <g id="ytick_1">
     <g id="line2d_19">
      <path d="M 56.09 244.533618 
L 709.2 244.533618 
" clip-path="url(#p117ac9a238)" style="fill: none; stroke: #b0b0b0; stroke-opacity: 0.3; stroke-width: 0.8; stroke-linecap: square"/>
     </g>
     <g id="line2d_20">
      <defs>
       <path id="m71427161da" d="M 0 0 
L -3.5 0 
" style="stroke: #000000; stroke-width: 0.8"/>
      </defs>
      <g>
       <use xlink:href="#m71427161da" x="56.09" y="244.533618" style="stroke: #000000; stroke-width: 0.8"/>
      </g>
     </g>
     <g id="text_11">
      <!-- −2.0 -->
      <g transform="translate(24.807188 248.332836) scale(0.1 -0.1)">
       <defs>
        <path id="DejaVuSans-2212" d="M 678 2272 
L 4684 2272 
L 4684 1741 
L 678 1741 
L 678 2272 
z
" transform="scale(0.015625)"/>
       </defs>
       <use xlink:href="#DejaVuSans-2212"/>
       <use xlink:href="#DejaVuSans-32" transform="translate(83.789062 0)"/>
       <use xlink:href="#DejaVuSans-2e" transform="translate(147.412109 0)"/>
       <use xlink:href="#DejaVuSans-30" transform="translate(179.199219 0)"/>
      </g>
     </g>
    </g>
    <g id="ytick_2">
     <g id="line2d_21">
      <path d="M 56.09 217.701242 
L 709.2 217.701242 
" clip-path="url(#p117ac9a238)" style="fill: none; stroke: #b0b0b0; stroke-opacity: 0.3; stroke-width: 0.8; stroke-linecap: square"/>
     </g>
     <g id="line2d_22">
      <g>
       <use xlink:href="#m71427161da" x="56.09" y="217.701242" style="stroke: #000000; stroke-width: 0.8"/>
      </g>
     </g>
     <g id="text_12">
      <!-- −1.5 -->
      <g transform="translate(24.807188 221.500461) scale(0.1 -0.1)">
       <use xlink:href="#DejaVuSans-2212"/>
       <use xlink:href="#DejaVuSans-31" transform="translate(83.789062 0)"/>
       <use xlink:href="#DejaVuSans-2e" transform="translate(147.412109 0)"/>
       <use xlink:href="#DejaVuSans-35" transform="translate(179.199219 0)"/>
      </g>
     </g>
    </g>
    <g id="ytick_3">
     <g id="line2d_23">
      <path d="M 56.09 190.868866 
L 709.2 190.868866 
" clip-path="url(#p117ac9a238)" style="fill: none; stroke: #b0b0b0; stroke-opacity: 0.3; stroke-width: 0.8; stroke-linecap: square"/>
     </g>
     <g id="line2d_24">
      <g>
       <use xlink:href="#m71427161da" x="56.09" y="190.868866" style="stroke: #000000; stroke-width: 0.8"/>
      </g>
     </g>
     <g id="text_13">
      <!-- −1.0 -->
      <g transform="translate(24.807188 194.668085) scale(0.1 -0.1)">
       <use xlink:href="#DejaVuSans-2212"/>
       <use xlink:href="#DejaVuSans-31" transform="translate(83.789062 0)"/>
       <use xlink:href="#DejaVuSans-2e" transform="translate(147.412109 0)"/>
       <use xlink:href="#DejaVuSans-30" transform="translate(179.199219 0)"/>
      </g>
     </g>
    </g>
    <g id="ytick_4">
     <g id="line2d_25">
      <path d="M 56.09 164.03649 
L 709.2 164.03649 
" clip-path="url(#p117ac9a238)" style="fill: none; stroke: #b0b0b0; stroke-opacity: 0.3; stroke-width: 0.8; stroke-linecap: square"/>
     </g>
     <g id="line2d_26">
      <g>
       <use xlink:href="#m71427161da" x="56.09" y="164.03649" style="stroke: #000000; stroke-width: 0.8"/>
      </g>
     </g>
     <g id="text_14">
      <!-- −0.5 -->
      <g transform="translate(24.807188 167.835709) scale(0.1 -0.1)">
       <use xlink:href="#DejaVuSans-2212"/>
       <use xlink:href="#DejaVuSans-30" transform="translate(83.789062 0)"/>
       <use xlink:href="#DejaVuSans-2e" transform="translate(147.412109 0)"/>
       <use xlink:href="#DejaVuSans-35" transform="translate(179.199219 0)"/>
      </g>
     </g>
    </g>
    <g id="ytick_5">
     <g id="line2d_27">
      <path d="M 56.09 137.204114 
L 709.2 137.204114 
" clip-path="url(#p117ac9a238)" style="fill: none; stroke: #b0b0b0; stroke-opacity: 0.3; stroke-width: 0.8; stroke-linecap: square"/>
     </g>
     <g id="line2d_28">
      <g>
       <use xlink:href="#m71427161da" x="56.09" y="137.204114" style="stroke: #000000; stroke-width: 0.8"/>
      </g>
     </g>
     <g id="text_15">
      <!-- 0.0 -->
      <g transform="translate(33.186875 141.003333) scale(0.1 -0.1)">
       <use xlink:href="#DejaVuSans-30"/>
       <use xlink:href="#DejaVuSans-2e" transform="translate(63.623047 0)"/>
       <use xlink:href="#DejaVuSans-30" transform="translate(95.410156 0)"/>
      </g>
     </g>
    </g>
    <g id="ytick_6">
     <g id="line2d_29">
      <path d="M 56.09 110.371738 
L 709.2 110.371738 
" clip-path="url(#p117ac9a238)" style="fill: none; stroke: #b0b0b0; stroke-opacity: 0.3; stroke-width: 0.8; stroke-linecap: square"/>
     </g>
     <g id="line2d_30">
      <g>
       <use xlink:href="#m71427161da" x="56.09" y="110.371738" style="stroke: #000000; stroke-width: 0.8"/>
      </g>
     </g>
     <g id="text_16">
      <!-- 0.5 -->
      <g transform="translate(33.186875 114.170957) scale(0.1 -0.1)">
       <use xlink:href="#DejaVuSans-30"/>
       <use xlink:href="#DejaVuSans-2e" transform="translate(63.623047 0)"/>
       <use xlink:href="#DejaVuSans-35" transform="translate(95.410156 0)"/>
      </g>
     </g>
    </g>
    <g id="ytick_7">
     <g id="line2d_31">
      <path d="M 56.09 83.539362 
L 709.2 83.539362 
" clip-path="url(#p117ac9a238)" style="fill: none; stroke: #b0b0b0; stroke-opacity: 0.3; stroke-width: 0.8; stroke-linecap: square"/>
     </g>
     <g id="line2d_32">
      <g>
       <use xlink:href="#m71427161da" x="56.09" y="83.539362" style="stroke: #000000; stroke-width: 0.8"/>
      </g>
     </g>
     <g id="text_17">
      <!-- 1.0 -->
      <g transform="translate(33.186875 87.338581) scale(0.1 -0.1)">
       <use xlink:href="#DejaVuSans-31"/>
       <use xlink:href="#DejaVuSans-2e" transform="translate(63.623047 0)"/>
       <use xlink:href="#DejaVuSans-30" transform="translate(95.410156 0)"/>
      </g>
     </g>
    </g>
    <g id="ytick_8">
     <g id="line2d_33">
      <path d="M 56.09 56.706986 
L 709.2 56.706986 
" clip-path="url(#p117ac9a238)" style="fill: none; stroke: #b0b0b0; stroke-opacity: 0.3; stroke-width: 0.8; stroke-linecap: square"/>
     </g>
     <g id="line2d_34">
      <g>
       <use xlink:href="#m71427161da" x="56.09" y="56.706986" style="stroke: #000000; stroke-width: 0.8"/>
      </g>
     </g>
     <g id="text_18">
      <!-- 1.5 -->
      <g transform="translate(33.186875 60.506205) scale(0.1 -0.1)">
       <use xlink:href="#DejaVuSans-31"/>
       <use xlink:href="#DejaVuSans-2e" transform="translate(63.623047 0)"/>
       <use xlink:href="#DejaVuSans-35" transform="translate(95.410156 0)"/>
      </g>
     </g>
    </g>
    <g id="ytick_9">
     <g id="line2d_35">
      <path d="M 56.09 29.87461 
L 709.2 29.87461 
" clip-path="url(#p117ac9a238)" style="fill: none; stroke: #b0b0b0; stroke-opacity: 0.3; stroke-width: 0.8; stroke-linecap: square"/>
     </g>
     <g id="line2d_36">
      <g>
       <use xlink:href="#m71427161da" x="56.09" y="29.87461" style="stroke: #000000; stroke-width: 0.8"/>
      </g>
     </g>
     <g id="text_19">
      <!-- 2.0 -->
      <g transform="translate(33.186875 33.673829) scale(0.1 -0.1)">
       <use xlink:href="#DejaVuSans-32"/>
       <use xlink:href="#DejaVuSans-2e" transform="translate(63.623047 0)"/>
       <use xlink:href="#DejaVuSans-30" transform="translate(95.410156 0)"/>
      </g>
     </g>
    </g>
    <g id="text_20">
     <!-- tie-rod force [kN] -->
     <g transform="translate(18.7275 179.170156) rotate(-90) scale(0.1 -0.1)">
      <defs>
       <path id="DejaVuSans-2d" d="M 313 2009 
L 1997 2009 
L 1997 1497 
L 313 1497 
L 313 2009 
z
" transform="scale(0.015625)"/>
       <path id="DejaVuSans-72" d="M 2631 2963 
Q 2534 3019 2420 3045 
Q 2306 3072 2169 3072 
Q 1681 3072 1420 2755 
Q 1159 2438 1159 1844 
L 1159 0 
L 581 0 
L 581 3500 
L 1159 3500 
L 1159 2956 
Q 1341 3275 1631 3429 
Q 1922 3584 2338 3584 
Q 2397 3584 2469 3576 
Q 2541 3569 2628 3553 
L 2631 2963 
z
" transform="scale(0.015625)"/>
       <path id="DejaVuSans-6f" d="M 1959 3097 
Q 1497 3097 1228 2736 
Q 959 2375 959 1747 
Q 959 1119 1226 758 
Q 1494 397 1959 397 
Q 2419 397 2687 759 
Q 2956 1122 2956 1747 
Q 2956 2369 2687 2733 
Q 2419 3097 1959 3097 
z
M 1959 3584 
Q 2709 3584 3137 3096 
Q 3566 2609 3566 1747 
Q 3566 888 3137 398 
Q 2709 -91 1959 -91 
Q 1206 -91 779 398 
Q 353 888 353 1747 
Q 353 2609 779 3096 
Q 1206 3584 1959 3584 
z
" transform="scale(0.015625)"/>
       <path id="DejaVuSans-66" d="M 2375 4863 
L 2375 4384 
L 1825 4384 
Q 1516 4384 1395 4259 
Q 1275 4134 1275 3809 
L 1275 3500 
L 2222 3500 
L 2222 3053 
L 1275 3053 
L 1275 0 
L 697 0 
L 697 3053 
L 147 3053 
L 147 3500 
L 697 3500 
L 697 3744 
Q 697 4328 969 4595 
Q 1241 4863 1831 4863 
L 2375 4863 
z
" transform="scale(0.015625)"/>
       <path id="DejaVuSans-4e" d="M 628 4666 
L 1478 4666 
L 3547 763 
L 3547 4666 
L 4159 4666 
L 4159 0 
L 3309 0 
L 1241 3903 
L 1241 0 
L 628 0 
L 628 4666 
z
" transform="scale(0.015625)"/>
      </defs>
      <use xlink:href="#DejaVuSans-74"/>
      <use xlink:href="#DejaVuSans-69" transform="translate(39.208984 0)"/>
      <use xlink:href="#DejaVuSans-65" transform="translate(66.992188 0)"/>
      <use xlink:href="#DejaVuSans-2d" transform="translate(128.515625 0)"/>
      <use xlink:href="#DejaVuSans-72" transform="translate(164.599609 0)"/>
      <use xlink:href="#DejaVuSans-6f" transform="translate(203.462891 0)"/>
      <use xlink:href="#DejaVuSans-64" transform="translate(264.644531 0)"/>
      <use xlink:href="#DejaVuSans-20" transform="translate(328.121094 0)"/>
      <use xlink:href="#DejaVuSans-66" transform="translate(359.908203 0)"/>
      <use xlink:href="#DejaVuSans-6f" transform="translate(395.113281 0)"/>
      <use xlink:href="#DejaVuSans-72" transform="translate(456.294922 0)"/>
      <use xlink:href="#DejaVuSans-63" transform="translate(495.158203 0)"/>
      <use xlink:href="#DejaVuSans-65" transform="translate(550.138672 0)"/>
      <use xlink:href="#DejaVuSans-20" transform="translate(611.662109 0)"/>
      <use xlink:href="#DejaVuSans-5b" transform="translate(643.449219 0)"/>
      <use xlink:href="#DejaVuSans-6b" transform="translate(682.462891 0)"/>
      <use xlink:href="#DejaVuSans-4e" transform="translate(740.373047 0)"/>
      <use xlink:href="#DejaVuSans-5d" transform="translate(815.177734 0)"/>
     </g>
    </g>
   </g>
   <g id="line2d_37">
    <path d="M 85.776818 137.204114 
L 118.945973 137.240745 
L 119.524452 137.511923 
L 119.810796 137.756119 
L 120.095322 138.30895 
L 120.378122 139.438705 
L 120.938949 143.926827 
L 121.769786 150.406291 
L 122.04434 151.433028 
L 122.317848 150.74978 
L 122.862075 146.240802 
L 123.13297 146.787881 
L 123.403169 152.586719 
L 125.01171 210.838452 
L 125.543009 218.520306 
L 125.808009 220.268614 
L 126.07273 220.461304 
L 126.337285 218.60412 
L 126.601743 214.186919 
L 127.130523 197.544614 
L 128.188587 147.960656 
L 129.249495 97.422864 
L 129.51537 94.645256 
L 129.781497 96.972734 
L 130.581541 107.851947 
L 131.116602 111.152045 
L 131.384726 112.473021 
L 131.653278 114.85848 
L 131.922285 119.773031 
L 132.461784 139.193659 
L 133.003468 157.032178 
L 133.547417 170.130825 
L 134.093556 179.345643 
L 134.367428 182.504895 
L 134.64184 184.341185 
L 134.916812 184.023476 
L 135.192361 181.218276 
L 135.745259 168.847995 
L 136.85859 135.327388 
L 137.419101 129.192027 
L 137.982199 126.340536 
L 138.264718 125.720609 
L 138.547881 125.812437 
L 138.831688 126.681012 
L 139.401232 130.428089 
L 140.260378 137.626639 
L 140.83636 140.49749 
L 141.125315 141.124303 
L 141.414909 141.310125 
L 141.705143 141.142494 
L 142.28752 140.085339 
L 143.459692 137.379694 
L 143.754222 137.182336 
L 144.049331 137.529526 
L 144.345019 138.624306 
L 145.533573 144.350817 
L 145.832164 144.245485 
L 146.431094 140.69068 
L 146.731438 140.279577 
L 147.032373 143.587623 
L 147.636013 158.817508 
L 148.545601 183.629528 
L 148.849772 188.242196 
L 149.154421 190.559438 
L 149.459576 190.661894 
L 149.765262 188.824056 
L 150.071498 185.191568 
L 150.993509 168.384909 
L 151.920389 149.949359 
L 153.164172 119.984034 
L 153.476569 117.145449 
L 153.789538 116.40104 
L 154.103072 117.193963 
L 154.417167 119.066838 
L 155.047033 124.885894 
L 156.631474 141.627369 
L 156.950035 143.458104 
L 157.269149 144.542612 
L 157.588814 144.928503 
L 157.909026 144.701385 
L 158.229778 143.995307 
L 159.195218 140.788139 
L 159.518077 140.233582 
L 159.841457 140.353663 
L 160.165357 140.940269 
L 160.814711 142.804982 
L 161.140163 142.847887 
L 161.46613 141.38779 
L 162.119607 136.614812 
L 162.447117 137.464038 
L 162.775095 142.194388 
L 163.431874 159.974164 
L 164.088477 177.657025 
L 164.416236 183.126799 
L 164.743437 185.557476 
L 165.069968 185.287174 
L 165.395733 182.865604 
L 167.009562 162.591901 
L 167.32862 156.837994 
L 167.646233 148.625304 
L 168.900605 105.574318 
L 169.209796 102.063888 
L 169.5171 101.311441 
L 169.822462 102.329162 
L 170.125829 104.530716 
L 170.726373 111.226893 
L 171.610969 123.228316 
L 172.189406 133.720084 
L 173.039443 150.468394 
L 173.317958 153.575226 
L 173.593999 154.944409 
L 173.867536 154.686924 
L 174.138537 153.098316 
L 174.672824 147.477846 
L 175.70988 135.115496 
L 176.212313 131.363101 
L 176.459438 130.472666 
L 176.703811 130.265741 
L 176.945416 130.671643 
L 177.420258 132.767176 
L 178.336094 137.791047 
L 178.776914 139.125944 
L 178.993023 139.38518 
L 179.206259 139.397629 
L 179.6241 138.865486 
L 180.425208 137.408674 
L 180.618289 137.281104 
L 180.808503 137.398704 
L 181.362021 138.415131 
L 181.716865 139.898633 
L 182.392786 144.233303 
L 182.871103 150.231061 
L 183.327038 157.841223 
L 183.903842 172.217431 
L 184.711411 201.037091 
L 185.58125 230.929632 
L 185.817819 234.229414 
L 186.04887 235.129342 
L 186.162256 235.099967 
L 186.384644 234.639648 
L 187.016595 232.523257 
L 187.510903 230.485971 
L 187.89462 229.19487 
L 188.276706 226.922277 
L 188.765136 224.025715 
L 188.965811 223.699888 
L 189.067316 223.823597 
L 189.272538 224.944271 
L 189.480552 227.431308 
L 189.585593 227.182624 
L 189.691361 219.788214 
L 189.90538 142.066777 
L 190.123655 91.55975 
L 190.234872 95.867348 
L 190.578916 119.014333 
L 190.697078 118.609557 
L 190.938455 115.477322 
L 191.061673 115.975342 
L 191.836669 125.769331 
L 192.108606 126.977906 
L 194.195982 142.854635 
L 194.682226 148.800032 
L 195.181254 154.083618 
L 195.350378 154.677778 
L 195.520875 154.295173 
L 195.865945 151.605417 
L 196.572066 144.285585 
L 197.298915 135.345915 
L 197.48378 134.581104 
L 197.669884 134.466347 
L 198.618656 135.333709 
L 199.597007 136.864089 
L 199.996391 136.982533 
L 202.485132 136.867007 
L 204.228271 137.068219 
L 210.738545 137.376872 
L 211.20186 137.749839 
L 211.660355 138.523623 
L 212.113365 139.874196 
L 212.560289 141.455647 
L 213.218104 142.679944 
L 213.647618 143.070809 
L 213.859526 143.87357 
L 214.069484 145.819974 
L 214.483406 153.854159 
L 215.286335 170.694507 
L 215.481689 172.889151 
L 215.674843 173.629209 
L 215.865782 173.073505 
L 216.240981 169.261962 
L 216.787009 160.402098 
L 217.139833 154.577753 
L 217.31289 153.689029 
L 217.48371 154.755351 
L 217.818662 160.739735 
L 219.223654 190.086537 
L 220.8932 220.276978 
L 221.415123 229.645654 
L 221.797959 232.367911 
L 222.049011 232.699638 
L 222.296819 232.165164 
L 223.501336 228.023132 
L 223.975721 226.426426 
L 224.57251 224.502665 
L 224.813814 224.396886 
L 225.056939 224.906671 
L 225.673519 227.178985 
L 225.798522 226.138042 
L 226.050565 218.645238 
L 226.830031 178.544372 
L 226.964634 178.40375 
L 227.238791 179.615933 
L 227.378438 179.521291 
L 227.662904 177.630635 
L 228.102308 172.57567 
L 228.403546 166.677916 
L 229.507891 136.398895 
L 229.836873 135.760944 
L 230.171543 135.268812 
L 230.34097 135.311589 
L 231.032293 136.605577 
L 231.208462 136.539438 
L 231.564722 135.870352 
L 232.108744 134.654529 
L 232.664069 133.781848 
L 233.613994 131.509672 
L 233.80755 131.404089 
L 234.002275 131.579076 
L 234.593381 133.070417 
L 236.012057 136.994899 
L 236.427265 137.201163 
L 237.270479 137.192899 
L 238.566499 136.839223 
L 239.228181 136.970245 
L 239.898764 137.357601 
L 241.035768 138.143972 
L 241.729353 138.259201 
L 241.962414 138.597205 
L 242.196399 139.263892 
L 242.667124 141.540192 
L 243.380017 145.149375 
L 243.619442 145.680215 
L 243.859757 145.542525 
L 244.343038 144.050035 
L 245.074522 140.654568 
L 245.813783 137.247237 
L 246.310888 136.050358 
L 246.811366 135.471958 
L 247.062859 135.441517 
L 247.315183 135.57414 
L 247.822308 136.181244 
L 248.58913 137.198182 
L 249.104389 137.571362 
L 249.622848 137.686149 
L 250.406474 137.522793 
L 251.994742 137.047564 
L 253.068857 137.049286 
L 256.083757 137.238881 
L 262.956195 137.206337 
L 267.443187 137.263973 
L 268.052011 137.470888 
L 268.66326 138.287991 
L 269.276916 139.119159 
L 269.58464 139.321949 
L 269.89296 139.356221 
L 270.201872 138.988368 
L 270.821465 137.864287 
L 271.132143 138.354444 
L 271.443406 140.131891 
L 272.380673 148.945032 
L 272.694242 151.740868 
L 273.008375 153.362434 
L 273.322987 153.579235 
L 273.637866 152.615838 
L 275.835602 140.447981 
L 276.766624 133.961545 
L 277.074683 132.614678 
L 277.381442 131.915543 
L 277.686813 131.811281 
L 277.990711 132.175106 
L 278.593777 133.709599 
L 279.779013 137.158581 
L 280.360179 138.283656 
L 280.933122 138.793888 
L 281.216387 138.811383 
L 281.776277 138.483539 
L 283.400003 136.962024 
L 283.921684 136.847428 
L 284.685102 137.032888 
L 285.905644 137.663196 
L 286.375825 138.499351 
L 286.835964 139.770604 
L 287.286308 141.900635 
L 288.158652 147.642827 
L 288.789492 150.251006 
L 288.995652 151.628885 
L 289.199877 153.786984 
L 289.602823 162.009831 
L 291.889393 228.305419 
L 292.251943 232.972135 
L 292.60957 235.350548 
L 292.962139 236.075529 
L 293.136489 236.003791 
L 293.481308 235.352276 
L 294.649985 232.646722 
L 295.294886 231.438865 
L 295.76881 231.015434 
L 296.234451 230.848288 
L 296.692378 230.897652 
L 297.143366 231.223981 
L 298.177622 232.348872 
L 298.324945 232.134048 
L 298.47261 231.590697 
L 298.769546 228.857087 
L 299.069493 222.698997 
L 299.526417 206.709833 
L 300.146575 186.473856 
L 300.617091 178.671705 
L 300.932029 176.228281 
L 301.089593 176.835557 
L 301.404535 180.922511 
L 302.8095 203.122128 
L 303.579797 212.212559 
L 304.191727 217.157401 
L 305.107827 222.475075 
L 306.943004 230.459983 
L 307.094063 230.632102 
L 307.244692 230.293298 
L 307.394928 229.187766 
L 307.694403 223.231909 
L 307.992812 210.28923 
L 308.439012 186.459784 
L 308.587506 182.646936 
L 308.735936 181.809155 
L 309.032719 185.111137 
L 309.626514 195.192803 
L 310.966963 222.138254 
L 311.266375 224.608793 
L 311.566638 225.754934 
L 311.867991 226.111106 
L 312.170703 226.108947 
L 312.627925 226.040567 
L 312.93501 226.318132 
L 313.243624 226.717351 
L 313.398346 226.68268 
L 313.553255 226.201977 
L 313.708299 224.970752 
L 314.018647 219.0418 
L 314.484395 200.951104 
L 314.794748 189.900238 
L 315.104815 186.264198 
L 315.259717 186.54192 
L 315.569248 188.548874 
L 316.032811 193.147805 
L 316.649171 202.468932 
L 317.722694 218.665791 
L 318.182227 222.93759 
L 318.642744 225.137501 
L 318.95081 225.754173 
L 319.260059 225.897806 
L 319.570818 225.722013 
L 320.040619 225.358255 
L 320.515844 225.155133 
L 320.67568 224.802693 
L 320.836334 223.84781 
L 320.997871 221.588526 
L 321.160355 216.825144 
L 321.488422 192.795281 
L 322.158965 117.893164 
L 322.329822 116.786164 
L 322.675367 118.518096 
L 323.025937 119.107356 
L 323.203082 119.890618 
L 323.56105 123.681255 
L 324.291534 135.470552 
L 324.66397 137.438394 
L 324.851966 137.517243 
L 325.231486 136.983625 
L 326.004461 135.50074 
L 326.397814 135.129411 
L 326.795676 135.185146 
L 327.400807 135.733619 
L 328.222937 136.408733 
L 328.850777 136.635648 
L 329.918085 136.706166 
L 331.678478 136.872268 
L 333.966302 137.047008 
L 340.848349 137.176775 
L 356.003046 137.176844 
L 356.505907 137.082265 
L 357.244364 136.648428 
L 357.486173 136.220627 
L 358.6618 132.781182 
L 359.116423 132.118598 
L 359.562665 130.905406 
L 359.782844 129.440728 
L 360.217712 122.649806 
L 361.276196 101.7309 
L 361.689616 97.871836 
L 361.894339 97.405809 
L 362.897571 97.071528 
L 363.094041 97.218884 
L 363.289081 97.776276 
L 363.674993 100.497634 
L 364.244102 104.695637 
L 364.984635 108.311433 
L 365.881424 111.478769 
L 366.749007 113.640873 
L 368.89792 117.993815 
L 369.539891 118.649312 
L 369.859483 118.645306 
L 370.17876 118.317615 
L 370.658144 117.355509 
L 371.298847 115.932302 
L 371.779354 115.464764 
L 372.418265 115.108997 
L 372.895015 114.529348 
L 373.368884 113.358501 
L 373.8394 111.42767 
L 374.926378 106.091121 
L 375.23506 105.39756 
L 375.389141 105.414611 
L 375.696896 106.19047 
L 376.311558 109.215359 
L 377.080534 112.737229 
L 377.852699 115.226633 
L 378.474195 116.537715 
L 378.943356 117.127305 
L 379.257779 117.276938 
L 379.573559 117.218058 
L 380.049941 116.781108 
L 380.369521 116.257216 
L 381.012704 114.456726 
L 381.49739 113.322328 
L 381.983573 112.679566 
L 382.308285 112.523138 
L 384.896884 112.291912 
L 385.379259 112.56616 
L 386.02188 113.277702 
L 387.147103 115.052168 
L 388.115521 116.413359 
L 388.602059 116.824177 
L 389.416578 117.100652 
L 390.899776 117.537027 
L 391.571444 117.399196 
L 393.127614 116.867973 
L 393.484102 116.149403 
L 393.845139 115.022011 
L 394.02743 116.664859 
L 394.768497 137.067166 
L 394.95677 137.072325 
L 395.146247 137.257665 
L 395.915992 141.752123 
L 396.111328 141.3211 
L 396.90394 138.268217 
L 397.104865 138.20577 
L 397.509994 138.862163 
L 397.919454 139.469331 
L 398.333199 139.696227 
L 398.751182 139.641712 
L 399.386006 139.210462 
L 400.464594 138.287301 
L 401.123828 138.017471 
L 403.848128 137.325796 
L 405.260761 136.839827 
L 405.738859 136.114227 
L 406.94955 133.528461 
L 407.194301 133.501768 
L 407.439913 133.748162 
L 408.181874 135.285262 
L 409.182958 137.195565 
L 409.688489 137.795481 
L 410.1973 138.077729 
L 410.709362 138.014826 
L 412.789538 137.043042 
L 413.582514 137.04412 
L 416.275065 137.296807 
L 419.884614 137.250761 
L 420.734491 137.501968 
L 421.590544 137.67197 
L 422.164639 137.569334 
L 422.452697 137.484431 
L 422.741425 137.515974 
L 423.03082 137.76289 
L 423.6116 138.901093 
L 424.487706 140.838379 
L 424.781047 141.074726 
L 425.075037 140.986362 
L 425.664952 140.149759 
L 426.852457 138.288953 
L 428.050065 136.578201 
L 428.652611 136.15339 
L 429.257625 136.208973 
L 430.169735 136.736242 
L 431.087296 137.228257 
L 432.010247 137.495192 
L 432.93853 137.485205 
L 434.184431 137.233629 
L 434.810853 136.966876 
L 435.439567 136.355143 
L 436.386898 135.209169 
L 436.703803 135.166547 
L 437.021268 135.573502 
L 437.657873 136.645495 
L 437.977009 136.38242 
L 438.296698 135.283988 
L 438.616938 133.371859 
L 439.580111 125.173915 
L 439.901402 123.787175 
L 440.222528 123.730166 
L 440.54334 124.492539 
L 441.183463 127.030572 
L 442.137988 131.041138 
L 442.769237 134.028914 
L 443.706484 139.647171 
L 444.015984 140.909625 
L 444.323892 141.621748 
L 444.630136 141.811228 
L 444.934645 141.57843 
L 445.538195 140.359185 
L 447.012461 136.868415 
L 447.587242 136.075094 
L 447.871253 135.88456 
L 448.152957 135.830062 
L 448.709295 136.053931 
L 450.835609 137.647305 
L 452.079819 137.773492 
L 452.558665 137.769677 
L 453.256733 137.495696 
L 453.484062 137.349547 
L 453.708727 137.00523 
L 454.150114 135.611647 
L 454.792556 133.545597 
L 455.207951 132.975317 
L 455.613224 132.556418 
L 455.812182 131.867822 
L 456.008788 130.150761 
L 456.395297 122.024885 
L 457.326186 94.852404 
L 457.685708 90.958767 
L 457.862923 91.023146 
L 458.038515 92.046962 
L 458.38509 95.899886 
L 459.062648 104.580376 
L 459.723097 109.510365 
L 460.367119 112.680862 
L 460.838995 114.07119 
L 461.300817 114.731898 
L 461.752109 114.860339 
L 462.192724 115.091502 
L 462.623469 115.581737 
L 464.2764 118.100398 
L 464.545321 118.14051 
L 464.813784 117.844843 
L 465.082508 117.092429 
L 465.487474 115.114277 
L 466.033395 112.464611 
L 466.309545 112.003309 
L 466.448458 112.031901 
L 466.727963 112.475408 
L 468.160247 115.715819 
L 468.602495 116.084762 
L 469.051647 116.211333 
L 469.508526 116.082718 
L 469.97395 115.638322 
L 470.448753 114.767763 
L 471.09782 113.062941 
L 471.263113 113.044435 
L 471.429656 113.580612 
L 471.766533 116.764867 
L 472.807631 130.856273 
L 473.164646 133.697798 
L 473.526532 135.11347 
L 473.709276 135.121208 
L 473.893209 134.481197 
L 474.452076 130.546209 
L 475.021422 125.438306 
L 475.40672 121.502382 
L 475.601072 120.433425 
L 475.796554 120.315565 
L 475.993161 121.045306 
L 476.389732 124.35345 
L 477.400522 135.459543 
L 477.812453 138.159022 
L 478.020025 138.860787 
L 478.22866 139.076992 
L 478.438352 138.702132 
L 478.860881 136.425449 
L 479.71835 131.057407 
L 479.935267 130.337489 
L 480.153193 130.120818 
L 480.372122 130.349305 
L 480.812966 131.747047 
L 482.15881 137.832323 
L 482.385981 138.32508 
L 482.613566 138.444747 
L 482.841398 138.235377 
L 483.52488 136.967554 
L 483.752265 136.918007 
L 483.979243 137.550725 
L 484.205719 139.171804 
L 484.881404 147.828199 
L 486.869295 174.984982 
L 487.520055 179.394905 
L 488.165455 182.982296 
L 488.592416 187.62507 
L 489.227317 198.097919 
L 490.683268 223.748367 
L 491.09305 227.873984 
L 491.703102 231.373269 
L 492.307157 233.258486 
L 492.706009 233.967207 
L 493.101576 234.356251 
L 493.689083 234.569515 
L 494.077329 234.498611 
L 494.463352 234.144615 
L 494.655662 233.742165 
L 495.039263 232.007729 
L 495.421873 227.805574 
L 495.994003 215.681059 
L 496.374421 208.751992 
L 496.56441 207.416541 
L 496.754289 207.478116 
L 497.133761 210.053734 
L 498.080741 218.076326 
L 498.647565 221.207067 
L 499.025158 222.040094 
L 499.402762 221.989586 
L 499.780567 221.859855 
L 499.969612 221.961506 
L 500.348093 222.810201 
L 501.672781 226.911943 
L 502.049173 227.517475 
L 502.236899 227.570696 
L 502.424334 227.411715 
L 502.798401 226.427353 
L 503.357771 223.643383 
L 505.031751 213.595946 
L 505.21824 213.205769 
L 505.404936 213.21561 
L 505.591853 213.660339 
L 505.966367 215.63531 
L 507.095335 223.339608 
L 507.662681 225.465146 
L 508.041225 226.285368 
L 508.419472 226.560539 
L 508.608406 226.477816 
L 508.985878 225.948454 
L 509.551346 224.609988 
L 509.928084 223.116823 
L 510.304812 220.81495 
L 510.870422 215.613327 
L 511.437193 209.969683 
L 511.626433 208.987038 
L 511.815837 208.738174 
L 512.005399 209.36346 
L 512.385001 212.594749 
L 513.146059 219.418156 
L 513.718352 222.615849 
L 514.483036 225.505029 
L 515.057623 226.921636 
L 515.633042 227.683191 
L 516.017126 227.922107 
L 516.593991 227.976198 
L 518.138831 227.654354 
L 520.08071 227.808216 
L 520.470441 227.530425 
L 520.860822 226.837671 
L 521.447856 225.043263 
L 522.035931 223.388874 
L 522.427404 222.989108 
L 522.622688 223.091843 
L 523.011977 223.695633 
L 523.591889 224.670173 
L 523.783958 224.75871 
L 523.975359 224.639346 
L 524.166079 224.286585 
L 524.54549 222.820517 
L 524.922327 220.225289 
L 525.669078 212.579996 
L 526.957791 196.766317 
L 527.140633 196.605619 
L 527.323316 197.45385 
L 527.6884 200.919794 
L 528.235846 208.395566 
L 529.148784 222.022654 
L 529.697155 225.886991 
L 530.610442 229.752145 
L 530.792402 230.212637 
L 530.973966 230.300639 
L 531.155066 229.8508 
L 531.335652 228.757167 
L 531.695246 224.53289 
L 532.409001 210.758952 
L 533.117849 196.699338 
L 533.471109 192.170461 
L 533.823934 189.879761 
L 534.000275 189.716211 
L 534.176615 190.455908 
L 534.529434 194.476784 
L 536.302927 221.404538 
L 536.660262 223.782304 
L 537.018758 225.078534 
L 537.378719 225.726695 
L 537.559345 225.784558 
L 537.740462 225.547673 
L 537.922115 224.832833 
L 538.104338 223.383671 
L 538.47061 217.459179 
L 539.587091 191.659417 
L 539.776173 190.53228 
L 540.157167 189.912483 
L 540.349105 189.614754 
L 540.735899 187.95957 
L 541.126607 184.815675 
L 541.521 179.973938 
L 541.918077 172.791756 
L 542.515665 156.867292 
L 543.30958 135.664468 
L 543.702887 131.423946 
L 543.89822 130.527668 
L 544.092535 130.189683 
L 544.285735 130.276816 
L 544.668447 131.105599 
L 545.232189 132.551289 
L 545.782176 133.299078 
L 546.140668 133.365814 
L 546.492452 133.182665 
L 546.665819 132.808413 
L 547.00752 131.32207 
L 547.671033 126.868048 
L 548.151664 122.611991 
L 548.464218 116.708858 
L 549.3654 95.42165 
L 549.65382 93.224847 
L 549.795785 93.285754 
L 549.93625 94.103427 
L 550.349045 99.623616 
L 550.750409 104.491201 
L 551.268954 108.126974 
L 551.890608 110.740509 
L 552.940246 114.644116 
L 553.711846 117.462875 
L 553.928639 117.781668 
L 554.144391 117.668761 
L 554.997618 116.330563 
L 555.315337 116.385322 
L 555.738283 116.4958 
L 555.949789 116.310874 
L 556.268052 115.573906 
L 557.248326 112.458881 
L 557.360998 112.443696 
L 557.58909 112.770586 
L 558.542741 115.248062 
L 558.666958 115.235848 
L 558.91895 114.698961 
L 559.175942 114.232129 
L 559.306441 115.115598 
L 559.571757 121.207771 
L 559.981282 132.207118 
L 560.404738 136.61932 
L 560.841804 139.332741 
L 560.990463 139.731444 
L 561.140588 139.791308 
L 561.599662 139.219333 
L 561.91287 139.363496 
L 562.231719 139.117169 
L 563.22142 138.019956 
L 563.73448 137.683988 
L 564.436902 137.655863 
L 565.528673 137.866146 
L 566.857979 137.648905 
L 568.446966 137.438163 
L 572.497671 137.274575 
L 581.887172 136.985288 
L 582.403717 136.672358 
L 583.446331 135.932585 
L 583.971889 136.028755 
L 585.024915 136.675947 
L 586.072135 137.292185 
L 586.848848 137.524137 
L 587.614991 137.459428 
L 589.349074 137.129208 
L 590.532028 137.162896 
L 591.661691 137.372396 
L 592.097789 137.579765 
L 592.734847 138.292662 
L 593.148243 139.270297 
L 593.752101 141.829335 
L 594.144681 144.590288 
L 594.908525 152.850381 
L 595.464924 161.745689 
L 596.00917 176.428586 
L 597.412894 220.973506 
L 597.924459 230.164328 
L 598.261249 232.485966 
L 598.594582 233.04171 
L 599.087747 232.942054 
L 600.360539 232.580413 
L 600.670846 232.839293 
L 600.9786 233.561211 
L 601.738089 236.078182 
L 601.888631 235.643672 
L 602.189065 232.27721 
L 603.402667 210.062939 
L 603.557012 209.352469 
L 603.712004 209.228338 
L 603.867626 209.635903 
L 604.180676 211.609186 
L 604.972866 217.447139 
L 605.45412 219.398088 
L 605.93843 220.515019 
L 606.261725 220.843984 
L 606.745642 220.8936 
L 607.226786 220.713994 
L 607.545376 220.303548 
L 607.861917 219.544889 
L 608.17625 218.288844 
L 608.64361 215.22898 
L 609.259594 210.869466 
L 609.564868 209.723422 
L 609.7169 209.498711 
L 609.868557 209.493919 
L 610.170858 210.000185 
L 610.472065 211.255996 
L 610.922631 214.469397 
L 612.273575 225.858526 
L 612.574595 226.670241 
L 613.027321 227.179743 
L 613.482328 227.313514 
L 613.787455 227.225736 
L 614.094314 226.854773 
L 614.403209 226.082092 
L 614.871011 224.083195 
L 615.663728 219.553652 
L 615.985052 216.711717 
L 616.308094 212.118416 
L 616.957308 200.498771 
L 617.11995 199.28371 
L 617.282676 199.058952 
L 617.445477 199.625322 
L 617.771274 202.212258 
L 619.238404 216.575475 
L 619.890348 221.025914 
L 620.542994 224.099177 
L 621.033702 225.406043 
L 621.361768 225.862556 
L 621.690832 226.046672 
L 622.021146 226.034421 
L 622.519564 225.788098 
L 623.530659 225.066018 
L 623.701383 224.694633 
L 623.872838 224.040077 
L 624.045079 222.916722 
L 624.392166 218.053075 
L 624.743174 206.613992 
L 625.098702 184.423482 
L 625.824914 132.016301 
L 626.00964 128.251765 
L 626.3828 125.967377 
L 626.760804 125.065408 
L 626.951587 125.345132 
L 627.14354 126.438859 
L 628.120559 135.452271 
L 628.519283 136.513435 
L 628.720314 136.538008 
L 629.12568 136.144279 
L 629.949455 135.087863 
L 630.5785 134.921779 
L 631.003111 134.867761 
L 631.864701 134.36113 
L 632.964373 134.796582 
L 633.861811 135.167139 
L 634.316312 135.271311 
L 634.54499 135.091128 
L 634.774614 134.424649 
L 635.236678 131.887692 
L 636.171907 125.495014 
L 636.407993 124.839977 
L 636.644978 125.063947 
L 636.882861 125.977861 
L 637.60185 130.946404 
L 638.328773 135.64951 
L 638.81774 138.018785 
L 639.310152 139.418247 
L 639.557638 139.673269 
L 639.805973 139.645375 
L 640.055152 139.382668 
L 640.807712 137.92311 
L 641.313565 137.060138 
L 641.822698 136.600392 
L 642.078483 136.558436 
L 642.335074 136.688888 
L 642.592467 136.98675 
L 642.850657 137.533248 
L 643.629962 140.38413 
L 644.153411 141.965048 
L 644.416298 142.091897 
L 644.679956 141.672049 
L 644.944382 140.840655 
L 645.209575 140.826341 
L 645.475531 142.573682 
L 645.742249 146.019347 
L 647.086949 171.675144 
L 647.358022 173.239919 
L 647.629794 172.940411 
L 647.90227 171.144413 
L 648.449357 163.71466 
L 649.552064 144.104182 
L 650.666105 128.406839 
L 650.946383 126.502189 
L 651.227361 125.836833 
L 651.509036 126.270364 
L 651.791404 127.55816 
L 652.642635 133.812435 
L 653.213537 137.752968 
L 653.787144 140.372876 
L 654.652559 143.087561 
L 655.232802 144.213465 
L 655.523906 144.391315 
L 655.81566 143.976475 
L 656.108063 142.645524 
L 656.69481 139.064866 
L 656.989152 139.491559 
L 657.284139 142.755114 
L 657.876034 154.729335 
L 658.470408 168.276604 
L 658.768478 172.888627 
L 659.067123 175.221445 
L 659.36635 175.230289 
L 659.666167 173.334313 
L 660.2676 165.955757 
L 662.086251 137.785958 
L 662.697266 125.538861 
L 663.003673 121.500767 
L 663.310673 119.308811 
L 663.618263 118.865947 
L 663.926439 119.773541 
L 664.544547 124.058144 
L 666.099995 137.568283 
L 666.726219 141.28984 
L 667.040188 142.470331 
L 667.354715 143.138104 
L 667.66979 143.403125 
L 668.301563 143.336789 
L 668.618254 143.589568 
L 668.93548 144.254155 
L 669.571535 145.952748 
L 669.89036 145.853316 
L 670.209718 144.288883 
L 670.850027 138.579555 
L 671.170984 137.913526 
L 671.49248 140.969825 
L 671.814519 148.302288 
L 672.783717 178.178202 
L 673.107679 184.766502 
L 673.432044 188.846565 
L 673.756827 190.779643 
L 674.082058 190.642434 
L 674.40777 188.315051 
L 675.060652 179.630618 
L 676.372016 160.238249 
L 677.030547 144.591766 
L 677.691108 125.367425 
L 678.022163 119.22165 
L 678.35373 115.955469 
L 678.685803 114.982605 
L 679.018375 115.610286 
L 679.513182 118.405338 
L 679.513182 118.405338 
" clip-path="url(#p117ac9a238)" style="fill: none; stroke: #2ca02c; stroke-width: 0.9; stroke-linecap: square"/>
   </g>
   <g id="line2d_38">
    <path d="M 85.776818 137.204114 
L 118.945973 137.240745 
L 119.524452 137.511941 
L 119.810796 137.756178 
L 120.095322 138.309144 
L 120.378122 139.43932 
L 120.938949 143.927795 
L 121.769786 150.351955 
L 122.04434 151.338006 
L 122.317848 150.63869 
L 122.862075 146.181859 
L 123.13297 146.703638 
L 123.403169 152.309562 
L 124.210166 179.278998 
L 124.477998 182.585813 
L 124.745186 181.234977 
L 125.808009 167.996641 
L 126.337285 164.301112 
L 126.601743 163.258976 
L 127.130523 162.382669 
L 127.394918 161.237093 
L 127.659366 158.300758 
L 127.923907 153.010701 
L 128.188587 144.979707 
L 129.781497 80.581629 
L 130.047883 75.176585 
L 130.314553 72.181944 
L 130.581541 71.618944 
L 130.848882 73.719096 
L 131.116602 78.701576 
L 131.653278 97.631674 
L 132.732343 150.026018 
L 133.275162 164.469437 
L 133.547417 168.114139 
L 133.820218 169.881277 
L 134.093556 170.321905 
L 134.367428 169.988779 
L 134.64184 169.203071 
L 135.192361 166.409332 
L 135.468505 164.116641 
L 135.745259 160.628048 
L 136.300651 148.717658 
L 136.85859 135.392218 
L 137.419101 129.428505 
L 137.982199 126.324562 
L 138.264718 125.530443 
L 138.547881 125.48747 
L 138.831688 126.306219 
L 139.401232 130.19383 
L 140.260378 137.628068 
L 140.83636 140.515774 
L 141.125315 141.128613 
L 141.414909 141.298516 
L 141.705143 141.119695 
L 142.28752 140.061067 
L 143.459692 137.378729 
L 143.754222 137.182084 
L 144.049331 137.529005 
L 144.345019 138.622344 
L 145.533573 144.295583 
L 145.832164 144.171944 
L 146.431094 140.651597 
L 146.731438 140.244057 
L 147.032373 143.491602 
L 147.636013 157.979158 
L 148.241901 171.994124 
L 148.545601 174.847565 
L 148.849772 174.907395 
L 149.154421 173.363795 
L 150.37829 164.285846 
L 151.301923 156.058578 
L 151.920389 147.914229 
L 152.541117 133.223457 
L 153.164172 120.26472 
L 153.476569 116.768663 
L 153.789538 115.312915 
L 154.103072 115.658757 
L 154.417167 117.463781 
L 155.047033 123.922699 
L 156.313469 139.073045 
L 156.950035 143.498487 
L 157.269149 144.529447 
L 157.588814 144.859677 
L 157.909026 144.596151 
L 158.229778 143.880521 
L 159.195218 140.733731 
L 159.518077 140.193925 
L 159.841457 140.318699 
L 160.165357 140.904416 
L 160.814711 142.754622 
L 161.140163 142.79513 
L 161.46613 141.349894 
L 162.119607 136.620038 
L 162.447117 137.462805 
L 162.775095 142.155252 
L 164.088477 173.493331 
L 164.416236 175.940681 
L 164.743437 175.782213 
L 165.069968 174.224944 
L 165.72064 169.241065 
L 167.32862 154.849986 
L 167.646233 147.913332 
L 168.900605 105.648407 
L 169.209796 100.964092 
L 169.5171 98.95744 
L 169.822462 99.183433 
L 170.125829 101.270204 
L 170.726373 109.170797 
L 171.90134 127.954926 
L 173.039443 150.49181 
L 173.317958 153.605053 
L 173.593999 154.937391 
L 173.867536 154.655804 
L 174.138537 153.08273 
L 174.672824 147.529966 
L 175.70988 135.081622 
L 176.212313 131.354903 
L 176.459438 130.48246 
L 176.703811 130.289081 
L 176.945416 130.702748 
L 177.420258 132.795448 
L 178.336094 137.785279 
L 178.776914 139.122643 
L 178.993023 139.385166 
L 179.206259 139.400321 
L 179.6241 138.869758 
L 180.425208 137.408945 
L 180.618289 137.281116 
L 180.808503 137.398869 
L 181.362021 138.415691 
L 181.716865 139.900386 
L 182.392786 144.247844 
L 182.871103 150.245505 
L 183.327038 157.700686 
L 184.581182 182.767611 
L 184.711411 182.954014 
L 184.839998 182.287345 
L 185.092505 178.744468 
L 185.58125 170.755582 
L 186.162256 165.412992 
L 187.117293 159.193045 
L 187.510903 157.606578 
L 187.89462 156.968554 
L 188.180821 156.834135 
L 188.965811 156.953054 
L 189.585593 156.377762 
L 189.797922 157.427277 
L 190.123655 107.03627 
L 190.234872 104.845659 
L 190.462464 113.939526 
L 190.578916 117.489153 
L 190.697078 116.500689 
L 190.938455 111.500828 
L 191.061673 111.668862 
L 191.836669 124.362083 
L 192.108606 125.948365 
L 193.879107 140.628862 
L 194.35662 144.385153 
L 195.013513 151.999504 
L 195.350378 153.443917 
L 195.520875 152.965439 
L 196.040494 148.974192 
L 196.572066 143.880605 
L 197.298915 135.384119 
L 197.48378 134.617022 
L 197.669884 134.486449 
L 198.618656 135.321015 
L 199.597007 136.862832 
L 199.996391 136.98209 
L 202.485132 136.866641 
L 204.228271 137.068163 
L 210.738545 137.376872 
L 211.20186 137.749829 
L 211.660355 138.523565 
L 212.113365 139.873963 
L 212.560289 141.455029 
L 213.218104 142.680792 
L 213.647618 143.074386 
L 213.859526 143.877249 
L 214.069484 145.81888 
L 214.483406 153.765792 
L 215.0888 166.454795 
L 215.481689 170.912323 
L 215.674843 171.254922 
L 215.865782 170.552536 
L 216.240981 167.152913 
L 216.787009 159.559581 
L 217.139833 154.291641 
L 217.31289 153.470929 
L 217.48371 154.503541 
L 217.818662 160.193207 
L 218.618533 174.631055 
L 219.075026 179.021822 
L 219.370609 179.735548 
L 219.515945 179.614826 
L 219.801977 178.734721 
L 220.220243 176.436327 
L 220.627137 173.182211 
L 221.415123 166.49564 
L 222.784078 157.752922 
L 223.144212 156.633431 
L 223.501336 156.181774 
L 223.857085 156.077413 
L 224.935141 156.155397 
L 225.549123 155.826172 
L 225.798522 156.025595 
L 226.050565 156.785387 
L 226.565339 159.316054 
L 226.69697 159.415067 
L 226.830031 159.932149 
L 227.378438 163.535158 
L 227.519813 163.616161 
L 227.662904 163.348195 
L 227.95417 162.148434 
L 228.252103 160.171901 
L 228.556619 155.924489 
L 229.507891 136.431345 
L 229.836873 135.789914 
L 230.171543 135.282548 
L 230.34097 135.31525 
L 231.032293 136.603231 
L 231.208462 136.537103 
L 231.564722 135.866447 
L 232.108744 134.642539 
L 232.664069 133.75345 
L 233.80755 131.298018 
L 234.002275 131.470092 
L 234.395199 132.421784 
L 236.012057 136.993545 
L 236.427265 137.201195 
L 237.270479 137.192909 
L 238.566499 136.838983 
L 239.228181 136.970063 
L 239.898764 137.357669 
L 241.035768 138.142884 
L 241.729353 138.256946 
L 241.962414 138.593704 
L 242.431304 140.256748 
L 243.380017 145.036061 
L 243.619442 145.529324 
L 243.859757 145.369851 
L 244.343038 143.890354 
L 245.074522 140.586009 
L 245.813783 137.245646 
L 246.310888 136.055546 
L 246.811366 135.472396 
L 247.062859 135.43879 
L 247.315183 135.56952 
L 247.822308 136.177391 
L 248.58913 137.198168 
L 249.104389 137.571665 
L 249.622848 137.686089 
L 250.406474 137.52253 
L 251.994742 137.047579 
L 253.068857 137.04925 
L 256.083757 137.238882 
L 262.956195 137.206337 
L 267.443187 137.263973 
L 268.052011 137.470864 
L 268.66326 138.287423 
L 269.276916 139.116156 
L 269.58464 139.317288 
L 269.89296 139.350174 
L 270.201872 138.982662 
L 270.821465 137.862356 
L 271.132143 138.350607 
L 271.443406 140.120186 
L 273.008375 152.873595 
L 273.322987 152.966494 
L 273.637866 151.982647 
L 275.835602 140.40576 
L 276.766624 133.968234 
L 277.074683 132.619499 
L 277.381442 131.915634 
L 277.686813 131.808104 
L 277.990711 132.17173 
L 278.593777 133.71015 
L 279.779013 137.158371 
L 280.360179 138.282888 
L 280.933122 138.794504 
L 281.216387 138.812578 
L 281.776277 138.485068 
L 283.400003 136.961811 
L 283.921684 136.847433 
L 284.685102 137.032987 
L 285.905644 137.66319 
L 286.375825 138.499827 
L 286.835964 139.772747 
L 287.286308 141.90687 
L 288.158652 147.656479 
L 288.789492 150.245429 
L 288.995652 151.598378 
L 289.199877 153.701402 
L 289.602823 161.50654 
L 290.388552 180.176156 
L 290.581087 182.397996 
L 290.772134 183.089882 
L 290.961713 182.220754 
L 291.336592 177.239956 
L 291.889393 169.93921 
L 292.43138 165.54465 
L 292.962139 162.683878 
L 293.651809 160.302848 
L 294.812609 157.581239 
L 295.294886 156.78011 
L 295.76881 156.410684 
L 296.387914 156.22222 
L 297.440744 155.98201 
L 298.177622 155.556448 
L 298.47261 155.70471 
L 298.769546 156.209205 
L 299.220868 157.664546 
L 299.680448 160.730903 
L 300.146575 163.188181 
L 300.4599 164.13246 
L 300.7745 164.621077 
L 300.932029 165.1389 
L 301.24712 167.538862 
L 301.718771 171.520773 
L 302.031916 172.629377 
L 302.188036 172.657941 
L 302.343849 172.408331 
L 302.654578 171.327316 
L 304.191727 164.575281 
L 305.413986 160.891835 
L 305.874413 159.960946 
L 306.181311 159.863543 
L 306.791496 160.078377 
L 307.544817 160.667582 
L 307.843723 161.424467 
L 308.290422 163.505358 
L 308.439012 163.574661 
L 308.587506 163.831266 
L 308.884332 166.366117 
L 309.329543 171.100883 
L 309.626514 172.311604 
L 309.775078 172.116179 
L 310.072407 170.137467 
L 310.966963 162.081266 
L 311.566638 158.739259 
L 312.01916 157.201095 
L 312.47506 156.349755 
L 312.78125 156.200216 
L 313.089156 156.464683 
L 313.398346 157.14074 
L 313.86344 158.809702 
L 314.329151 161.585593 
L 314.794748 164.303779 
L 315.104815 166.02488 
L 315.723872 170.274757 
L 316.032811 171.322982 
L 316.187107 171.473494 
L 316.341272 171.355991 
L 316.649171 170.366787 
L 317.263194 166.719273 
L 318.02899 162.66136 
L 318.95081 159.066077 
L 319.726883 156.974875 
L 320.198367 156.282395 
L 320.515844 156.121077 
L 320.836334 156.254907 
L 321.160355 156.93326 
L 321.488422 158.41371 
L 321.654151 155.297823 
L 322.158965 121.536934 
L 322.329822 119.252981 
L 323.025937 117.830516 
L 323.203082 118.205142 
L 323.381456 119.637476 
L 323.74186 125.634726 
L 324.291534 135.389281 
L 324.66397 137.439372 
L 324.851966 137.520107 
L 325.231486 136.983088 
L 326.004461 135.495998 
L 326.397814 135.120122 
L 326.795676 135.173173 
L 327.400807 135.724537 
L 328.222937 136.40544 
L 328.850777 136.634156 
L 329.918085 136.705386 
L 331.678478 136.871909 
L 333.966302 137.046944 
L 340.848349 137.176777 
L 356.003046 137.176844 
L 356.505907 137.08227 
L 357.244364 136.648506 
L 357.486173 136.220835 
L 358.6618 132.786836 
L 359.116423 132.12795 
L 359.562665 130.917194 
L 359.782844 129.451124 
L 360.217712 122.606521 
L 361.689616 91.751513 
L 362.699687 80.393392 
L 363.094041 72.748307 
L 364.244102 46.070632 
L 364.617018 41.926075 
L 364.984635 39.814916 
L 365.526382 38.234041 
L 366.057187 37.283464 
L 366.405305 36.927683 
L 366.749007 36.841818 
L 367.088547 36.984261 
L 367.59079 37.469525 
L 368.249202 38.475633 
L 369.859483 41.576592 
L 370.338439 43.292987 
L 370.978366 45.542817 
L 371.298847 45.863965 
L 371.619257 45.765058 
L 372.418265 45.188214 
L 372.577457 45.215092 
L 372.736382 45.403558 
L 372.895015 45.856758 
L 373.211286 48.000138 
L 373.526108 52.580018 
L 374.461944 72.127852 
L 374.616954 73.292012 
L 374.771762 73.531551 
L 374.926378 73.011549 
L 375.23506 70.508685 
L 376.92655 52.971615 
L 377.388906 49.948426 
L 377.852699 48.395919 
L 378.162943 47.994511 
L 378.943356 47.521806 
L 379.257779 47.536817 
L 379.573559 48.025479 
L 379.890763 49.139062 
L 381.174076 54.823784 
L 381.49739 55.694782 
L 381.659306 55.895736 
L 381.821374 55.888515 
L 382.145885 55.253443 
L 382.958054 52.951839 
L 383.120324 52.783972 
L 383.282471 52.819241 
L 384.09116 53.630302 
L 384.252522 53.580451 
L 384.574911 53.115536 
L 386.664542 48.539333 
L 387.308143 47.473438 
L 387.792079 47.110585 
L 389.253307 46.731117 
L 389.743794 46.778781 
L 390.072133 47.040974 
L 390.401888 47.55677 
L 390.899776 48.835237 
L 391.911289 51.735336 
L 392.600706 53.341636 
L 392.950974 55.185619 
L 393.305309 59.924816 
L 393.664034 72.21736 
L 394.02743 97.911719 
L 394.395571 126.986525 
L 394.581432 134.575316 
L 394.768497 136.922545 
L 394.95677 136.938512 
L 395.146247 137.2069 
L 395.915992 141.729679 
L 396.111328 141.277025 
L 396.90394 138.260939 
L 397.104865 138.200791 
L 397.509994 138.856156 
L 397.919454 139.459584 
L 398.333199 139.681946 
L 398.751182 139.624787 
L 399.386006 139.195714 
L 400.464594 138.281985 
L 401.123828 138.014731 
L 403.848128 137.325697 
L 405.260761 136.839804 
L 405.738859 136.113404 
L 406.94955 133.507009 
L 407.194301 133.475568 
L 407.439913 133.720519 
L 408.181874 135.269489 
L 409.182958 137.195414 
L 409.688489 137.796504 
L 410.1973 138.077663 
L 410.709362 138.013733 
L 412.789538 137.043079 
L 413.582514 137.044092 
L 416.275065 137.296801 
L 419.884614 137.250761 
L 420.734491 137.501925 
L 421.590544 137.671733 
L 422.164639 137.569092 
L 422.452697 137.484248 
L 422.741425 137.515754 
L 423.03082 137.762418 
L 423.6116 138.898619 
L 424.487706 140.823306 
L 424.781047 141.054053 
L 425.075037 140.962214 
L 425.664952 140.127638 
L 426.852457 138.282022 
L 428.050065 136.579218 
L 428.652611 136.153184 
L 429.257625 136.207536 
L 430.169735 136.73545 
L 431.087296 137.22821 
L 432.010247 137.495211 
L 432.93853 137.485094 
L 434.184431 137.233636 
L 434.810853 136.966908 
L 435.439567 136.354888 
L 436.386898 135.205498 
L 436.703803 135.161596 
L 437.021268 135.568965 
L 437.657873 136.644117 
L 437.977009 136.380123 
L 438.296698 135.277908 
L 438.616938 133.356567 
L 439.580111 125.003291 
L 439.901402 123.526487 
L 440.222528 123.415988 
L 440.54334 124.174331 
L 441.183463 126.799718 
L 442.137988 130.959727 
L 442.769237 134.007912 
L 443.706484 139.648083 
L 444.015984 140.911574 
L 444.323892 141.623407 
L 444.630136 141.81274 
L 444.934645 141.580599 
L 445.538195 140.363015 
L 447.012461 136.867448 
L 447.587242 136.074761 
L 447.871253 135.884872 
L 448.152957 135.830942 
L 448.709295 136.055247 
L 450.835609 137.647286 
L 452.079819 137.773874 
L 452.558665 137.770087 
L 453.256733 137.49592 
L 453.484062 137.349679 
L 453.708727 137.005108 
L 454.150114 135.611663 
L 454.792556 133.549545 
L 455.207951 132.983575 
L 455.613224 132.56907 
L 455.812182 131.882965 
L 456.008788 130.168607 
L 456.395297 122.009053 
L 458.212544 66.800287 
L 459.229296 46.949355 
L 459.723097 41.149638 
L 460.047187 39.626466 
L 460.207677 39.470592 
L 460.367119 39.586405 
L 461.45244 41.35626 
L 461.900146 41.409885 
L 462.905799 41.297263 
L 463.323183 41.106465 
L 463.598046 40.788988 
L 464.006339 39.815899 
L 464.2764 39.208728 
L 464.410963 39.187166 
L 464.545321 39.511027 
L 464.813784 41.618362 
L 465.217176 48.614463 
L 465.759431 57.595722 
L 466.033395 59.093473 
L 466.171192 59.232347 
L 466.309545 59.086856 
L 466.58793 58.239439 
L 467.724181 53.896066 
L 468.014236 53.492098 
L 468.306944 53.500697 
L 468.602495 53.898677 
L 468.901112 54.682302 
L 469.355323 56.763457 
L 469.817809 60.236377 
L 470.28939 65.190227 
L 470.770912 73.117231 
L 471.263113 87.313937 
L 472.281397 121.568344 
L 472.807631 130.287628 
L 473.164646 133.525947 
L 473.526532 135.056713 
L 473.709276 135.077564 
L 473.893209 134.434353 
L 474.452076 130.433154 
L 475.021422 125.064177 
L 475.601072 119.347321 
L 475.796554 119.049051 
L 475.993161 119.727658 
L 476.389732 123.315872 
L 477.400522 135.396588 
L 477.812453 138.172276 
L 478.020025 138.878909 
L 478.22866 139.089053 
L 478.438352 138.706126 
L 478.860881 136.42728 
L 479.71835 131.015397 
L 479.935267 130.261217 
L 480.153193 130.01335 
L 480.372122 130.223077 
L 480.812966 131.631234 
L 482.15881 137.835839 
L 482.385981 138.329622 
L 482.613566 138.44727 
L 482.841398 138.235995 
L 483.52488 136.967666 
L 483.752265 136.917881 
L 483.979243 137.550285 
L 484.205719 139.170593 
L 484.881404 147.776685 
L 486.21302 165.512574 
L 486.651182 168.935873 
L 487.086799 170.520753 
L 487.520055 171.099364 
L 487.950946 171.387652 
L 488.165455 171.715504 
L 489.227317 174.493774 
L 489.437479 174.182312 
L 489.855623 172.232725 
L 491.09305 164.443418 
L 491.703102 161.811449 
L 492.106529 160.78202 
L 492.506996 160.270138 
L 493.493988 159.708784 
L 494.463352 159.353881 
L 494.847606 159.333109 
L 495.230682 159.567034 
L 495.612819 160.320699 
L 495.994003 161.613997 
L 496.944072 165.517108 
L 497.323359 166.166273 
L 497.512865 166.171133 
L 497.702274 165.988113 
L 498.080741 165.183578 
L 499.780567 160.452998 
L 500.15878 160.119337 
L 500.53755 160.052716 
L 500.916586 160.421763 
L 501.484111 161.064427 
L 501.861138 161.200772 
L 502.236899 161.055551 
L 502.985067 160.656188 
L 503.357771 160.687442 
L 503.729827 160.91775 
L 504.101554 161.351405 
L 504.659314 162.383863 
L 505.21824 163.443419 
L 505.591853 163.69703 
L 505.778997 163.615863 
L 506.15396 163.080977 
L 506.718075 161.559659 
L 507.2843 159.926811 
L 507.662681 159.305067 
L 508.041225 159.096537 
L 508.419472 159.220889 
L 509.174443 159.818318 
L 510.116436 160.896685 
L 510.870422 161.976463 
L 512.005399 164.087556 
L 512.195119 164.193144 
L 512.385001 164.150489 
L 512.765237 163.725994 
L 513.146059 162.945932 
L 514.865999 158.711827 
L 515.441141 157.995062 
L 516.017126 157.685704 
L 517.365102 157.431715 
L 518.138831 157.548413 
L 520.470441 158.100077 
L 521.056304 158.277658 
L 521.447856 158.605518 
L 521.83992 159.330955 
L 523.591889 163.565193 
L 524.166079 164.182471 
L 525.296796 165.117892 
L 525.854442 166.17336 
L 526.774734 168.041879 
L 527.6884 169.498597 
L 527.870879 169.354831 
L 528.053355 168.936189 
L 528.418363 167.302713 
L 529.697155 160.28736 
L 530.062865 159.128886 
L 530.428151 158.662374 
L 530.610442 158.658345 
L 530.973966 159.010638 
L 531.335652 159.819261 
L 532.052906 162.128462 
L 533.647558 168.494777 
L 534.529434 170.341127 
L 534.705978 170.308988 
L 534.88265 169.925894 
L 535.236482 168.224316 
L 536.481465 160.875488 
L 537.018758 158.720021 
L 537.559345 157.429324 
L 537.922115 157.114791 
L 538.104338 157.155317 
L 538.287158 157.352212 
L 538.654738 158.265539 
L 539.587091 162.598383 
L 540.157167 165.058184 
L 540.542014 165.788553 
L 540.735899 165.772633 
L 541.126607 165.151892 
L 541.521 164.036641 
L 541.918077 162.024534 
L 542.316428 157.498362 
L 542.714737 149.296825 
L 543.30958 135.671558 
L 543.702887 131.463281 
L 543.89822 130.548779 
L 544.092535 130.191648 
L 544.285735 130.266152 
L 544.668447 131.090533 
L 545.232189 132.546793 
L 545.782176 133.300056 
L 546.140668 133.367765 
L 546.492452 133.185025 
L 546.665819 132.810728 
L 547.00752 131.322616 
L 547.507612 128.104802 
L 548.151664 122.498943 
L 548.464218 116.338892 
L 549.218949 92.237362 
L 550.617813 49.479039 
L 551.012047 43.047505 
L 551.395636 40.012507 
L 551.768618 38.815421 
L 552.011449 38.589378 
L 552.249764 38.647848 
L 552.599276 39.053935 
L 552.940246 39.723623 
L 553.274222 41.014776 
L 554.036649 44.387744 
L 554.359041 44.83893 
L 554.679113 45.010147 
L 554.891573 44.900495 
L 555.10358 44.497404 
L 555.632587 42.944969 
L 555.738283 43.00287 
L 555.844002 43.411475 
L 556.055687 45.680191 
L 556.481685 55.292277 
L 556.805979 61.184585 
L 557.02556 62.918194 
L 557.248326 63.22367 
L 557.474575 62.530052 
L 558.057212 59.927594 
L 558.176919 59.802725 
L 558.297738 59.962063 
L 558.419674 60.517842 
L 558.666958 63.544881 
L 558.91895 70.868167 
L 559.306441 93.789205 
L 559.84321 127.694198 
L 560.120903 133.617351 
L 560.548929 137.752257 
L 560.841804 139.369032 
L 560.990463 139.755375 
L 561.140588 139.800964 
L 561.599662 139.210225 
L 561.91287 139.349435 
L 562.231719 139.103224 
L 563.22142 138.015756 
L 563.73448 137.682383 
L 564.436902 137.655003 
L 565.528673 137.864894 
L 566.857979 137.648138 
L 568.446966 137.43797 
L 572.721048 137.270188 
L 581.630103 137.060789 
L 582.145044 136.855072 
L 583.446331 135.930464 
L 583.971889 136.026332 
L 584.761846 136.484203 
L 585.811345 137.179574 
L 586.848848 137.524149 
L 587.614991 137.459466 
L 589.349074 137.1292 
L 590.532028 137.162908 
L 591.661691 137.372397 
L 592.097789 137.579807 
L 592.734847 138.293051 
L 593.148243 139.271564 
L 593.752101 141.833997 
L 594.144681 144.595821 
L 594.908525 152.760722 
L 595.464924 161.124314 
L 596.542973 180.574481 
L 596.718834 180.435609 
L 596.893725 178.993443 
L 598.093286 164.096546 
L 598.594582 160.507881 
L 598.924335 159.113631 
L 599.411485 158.135583 
L 600.516021 156.510009 
L 601.131575 155.976502 
L 601.587184 155.831888 
L 601.888631 155.941759 
L 602.189065 156.285512 
L 602.48966 156.915135 
L 602.791731 158.292662 
L 603.712004 164.000147 
L 603.867626 164.118716 
L 604.023858 163.945823 
L 604.338059 163.055371 
L 605.132824 160.506026 
L 605.45412 160.013886 
L 605.61534 159.98993 
L 605.93843 160.348016 
L 606.584568 161.767439 
L 607.545376 163.766676 
L 609.564868 167.015707 
L 609.868557 167.179647 
L 610.170858 167.099767 
L 610.472065 166.697885 
L 610.922631 165.534854 
L 611.82283 162.2012 
L 612.876215 158.244374 
L 613.482328 156.793572 
L 613.940649 156.233916 
L 614.248486 156.134086 
L 614.55852 156.255096 
L 614.871011 156.610965 
L 615.344662 157.520087 
L 615.824143 158.906104 
L 616.470104 161.669452 
L 617.282676 165.70334 
L 617.771274 167.192726 
L 617.934251 167.35822 
L 618.097263 167.32974 
L 618.423344 166.761746 
L 619.075425 164.646503 
L 619.890348 162.150806 
L 620.70641 160.289445 
L 622.519564 156.862161 
L 623.022458 156.233411 
L 623.360621 156.062271 
L 623.701383 156.093288 
L 624.045079 156.36862 
L 624.392166 157.002498 
L 624.743174 158.26707 
L 624.920333 159.103671 
L 625.098702 158.917445 
L 625.278334 155.883808 
L 626.00964 129.107783 
L 626.3828 126.317059 
L 626.760804 124.849567 
L 626.951587 124.921716 
L 627.14354 125.940091 
L 628.319362 136.174839 
L 628.519283 136.503653 
L 628.720314 136.531825 
L 629.12568 136.139362 
L 629.949455 135.07821 
L 630.5785 134.907157 
L 631.003111 134.851055 
L 631.864701 134.338343 
L 632.964373 134.777298 
L 633.861811 135.152699 
L 634.316312 135.258774 
L 634.54499 135.077781 
L 634.774614 134.406475 
L 635.236678 131.839654 
L 636.171907 125.175012 
L 636.407993 124.421803 
L 636.644978 124.590556 
L 636.882861 125.506855 
L 637.60185 130.716001 
L 638.328773 135.612626 
L 638.81774 138.025685 
L 639.310152 139.426378 
L 639.557638 139.674215 
L 639.805973 139.639818 
L 640.30517 138.948279 
L 641.313565 137.060225 
L 641.822698 136.600941 
L 642.078483 136.55855 
L 642.335074 136.688693 
L 642.592467 136.986641 
L 642.850657 137.533536 
L 643.629962 140.379004 
L 644.153411 141.938225 
L 644.416298 142.054404 
L 644.679956 141.631046 
L 644.944382 140.804854 
L 645.209575 140.788156 
L 645.475531 142.506924 
L 645.742249 145.876029 
L 646.816574 165.186518 
L 647.086949 167.343586 
L 647.358022 167.542253 
L 647.629794 166.443651 
L 648.175456 162.020627 
L 648.723972 155.054076 
L 650.386531 131.640038 
L 650.946383 126.488666 
L 651.227361 125.65543 
L 651.509036 125.978384 
L 651.791404 127.247145 
L 652.642635 133.725387 
L 653.213537 137.756218 
L 653.787144 140.387873 
L 654.652559 143.042851 
L 655.232802 144.117394 
L 655.523906 144.278087 
L 655.81566 143.862657 
L 656.108063 142.556434 
L 656.69481 139.042112 
L 656.989152 139.4649 
L 657.284139 142.684931 
L 657.876034 154.266399 
L 658.470408 165.908816 
L 658.768478 168.777997 
L 659.067123 169.363293 
L 659.36635 168.237637 
L 659.966582 163.40426 
L 661.477646 147.656877 
L 662.086251 137.715019 
L 662.697266 125.801472 
L 663.003673 121.520027 
L 663.310673 118.891644 
L 663.618263 118.036649 
L 663.926439 118.725778 
L 664.235201 120.573287 
L 665.164985 129.401336 
L 666.099995 137.567379 
L 666.726219 141.3216 
L 667.040188 142.479226 
L 667.354715 143.11403 
L 667.66979 143.349131 
L 668.301563 143.250612 
L 668.618254 143.491349 
L 668.93548 144.138102 
L 669.571535 145.786808 
L 669.89036 145.683034 
L 670.209718 144.155261 
L 670.850027 138.563765 
L 671.170984 137.906115 
L 671.49248 140.923727 
L 671.814519 148.115169 
L 672.460173 167.191145 
L 672.783717 173.39507 
L 673.107679 175.823088 
L 673.432044 175.380104 
L 674.082058 171.255724 
L 675.3878 162.015736 
L 676.043479 157.804015 
L 676.372016 154.906342 
L 676.701034 150.498248 
L 677.030547 143.727838 
L 677.691108 125.921467 
L 678.022163 119.58079 
L 678.35373 115.599783 
L 678.685803 113.802115 
L 679.018375 113.862756 
L 679.513182 116.557073 
L 679.513182 116.557073 
" clip-path="url(#p117ac9a238)" style="fill: none; stroke: #d62728; stroke-opacity: 0.8; stroke-width: 0.9; stroke-linecap: square"/>
   </g>
   <g id="patch_3">
    <path d="M 56.09 246.04 
L 56.09 26.88 
" style="fill: none; stroke: #000000; stroke-width: 0.8; stroke-linejoin: miter; stroke-linecap: square"/>
   </g>
   <g id="patch_4">
    <path d="M 709.2 246.04 
L 709.2 26.88 
" style="fill: none; stroke: #000000; stroke-width: 0.8; stroke-linejoin: miter; stroke-linecap: square"/>
   </g>
   <g id="patch_5">
    <path d="M 56.09 246.04 
L 709.2 246.04 
" style="fill: none; stroke: #000000; stroke-width: 0.8; stroke-linejoin: miter; stroke-linecap: square"/>
   </g>
   <g id="patch_6">
    <path d="M 56.09 26.88 
L 709.2 26.88 
" style="fill: none; stroke: #000000; stroke-width: 0.8; stroke-linejoin: miter; stroke-linecap: square"/>
   </g>
   <g id="text_21">
    <!-- steering-link loads over one Anderstorp Raceway lap -->
    <g transform="translate(224.036875 20.88) scale(0.12 -0.12)">
     <defs>
      <path id="DejaVuSans-67" d="M 2906 1791 
Q 2906 2416 2648 2759 
Q 2391 3103 1925 3103 
Q 1463 3103 1205 2759 
Q 947 2416 947 1791 
Q 947 1169 1205 825 
Q 1463 481 1925 481 
Q 2391 481 2648 825 
Q 2906 1169 2906 1791 
z
M 3481 434 
Q 3481 -459 3084 -895 
Q 2688 -1331 1869 -1331 
Q 1566 -1331 1297 -1286 
Q 1028 -1241 775 -1147 
L 775 -588 
Q 1028 -725 1275 -790 
Q 1522 -856 1778 -856 
Q 2344 -856 2625 -561 
Q 2906 -266 2906 331 
L 2906 616 
Q 2728 306 2450 153 
Q 2172 0 1784 0 
Q 1141 0 747 490 
Q 353 981 353 1791 
Q 353 2603 747 3093 
Q 1141 3584 1784 3584 
Q 2172 3584 2450 3431 
Q 2728 3278 2906 2969 
L 2906 3500 
L 3481 3500 
L 3481 434 
z
" transform="scale(0.015625)"/>
      <path id="DejaVuSans-6c" d="M 603 4863 
L 1178 4863 
L 1178 0 
L 603 0 
L 603 4863 
z
" transform="scale(0.015625)"/>
      <path id="DejaVuSans-76" d="M 191 3500 
L 800 3500 
L 1894 563 
L 2988 3500 
L 3597 3500 
L 2284 0 
L 1503 0 
L 191 3500 
z
" transform="scale(0.015625)"/>
      <path id="DejaVuSans-41" d="M 2188 4044 
L 1331 1722 
L 3047 1722 
L 2188 4044 
z
M 1831 4666 
L 2547 4666 
L 4325 0 
L 3669 0 
L 3244 1197 
L 1141 1197 
L 716 0 
L 50 0 
L 1831 4666 
z
" transform="scale(0.015625)"/>
      <path id="DejaVuSans-70" d="M 1159 525 
L 1159 -1331 
L 581 -1331 
L 581 3500 
L 1159 3500 
L 1159 2969 
Q 1341 3281 1617 3432 
Q 1894 3584 2278 3584 
Q 2916 3584 3314 3078 
Q 3713 2572 3713 1747 
Q 3713 922 3314 415 
Q 2916 -91 2278 -91 
Q 1894 -91 1617 61 
Q 1341 213 1159 525 
z
M 3116 1747 
Q 3116 2381 2855 2742 
Q 2594 3103 2138 3103 
Q 1681 3103 1420 2742 
Q 1159 2381 1159 1747 
Q 1159 1113 1420 752 
Q 1681 391 2138 391 
Q 2594 391 2855 752 
Q 3116 1113 3116 1747 
z
" transform="scale(0.015625)"/>
      <path id="DejaVuSans-52" d="M 2841 2188 
Q 3044 2119 3236 1894 
Q 3428 1669 3622 1275 
L 4263 0 
L 3584 0 
L 2988 1197 
Q 2756 1666 2539 1819 
Q 2322 1972 1947 1972 
L 1259 1972 
L 1259 0 
L 628 0 
L 628 4666 
L 2053 4666 
Q 2853 4666 3247 4331 
Q 3641 3997 3641 3322 
Q 3641 2881 3436 2590 
Q 3231 2300 2841 2188 
z
M 1259 4147 
L 1259 2491 
L 2053 2491 
Q 2509 2491 2742 2702 
Q 2975 2913 2975 3322 
Q 2975 3731 2742 3939 
Q 2509 4147 2053 4147 
L 1259 4147 
z
" transform="scale(0.015625)"/>
      <path id="DejaVuSans-77" d="M 269 3500 
L 844 3500 
L 1563 769 
L 2278 3500 
L 2956 3500 
L 3675 769 
L 4391 3500 
L 4966 3500 
L 4050 0 
L 3372 0 
L 2619 2869 
L 1863 0 
L 1184 0 
L 269 3500 
z
" transform="scale(0.015625)"/>
      <path id="DejaVuSans-79" d="M 2059 -325 
Q 1816 -950 1584 -1140 
Q 1353 -1331 966 -1331 
L 506 -1331 
L 506 -850 
L 844 -850 
Q 1081 -850 1212 -737 
Q 1344 -625 1503 -206 
L 1606 56 
L 191 3500 
L 800 3500 
L 1894 763 
L 2988 3500 
L 3597 3500 
L 2059 -325 
z
" transform="scale(0.015625)"/>
     </defs>
     <use xlink:href="#DejaVuSans-73"/>
     <use xlink:href="#DejaVuSans-74" transform="translate(52.099609 0)"/>
     <use xlink:href="#DejaVuSans-65" transform="translate(91.308594 0)"/>
     <use xlink:href="#DejaVuSans-65" transform="translate(152.832031 0)"/>
     <use xlink:href="#DejaVuSans-72" transform="translate(214.355469 0)"/>
     <use xlink:href="#DejaVuSans-69" transform="translate(255.46875 0)"/>
     <use xlink:href="#DejaVuSans-6e" transform="translate(283.251953 0)"/>
     <use xlink:href="#DejaVuSans-67" transform="translate(346.630859 0)"/>
     <use xlink:href="#DejaVuSans-2d" transform="translate(410.107422 0)"/>
     <use xlink:href="#DejaVuSans-6c" transform="translate(446.191406 0)"/>
     <use xlink:href="#DejaVuSans-69" transform="translate(473.974609 0)"/>
     <use xlink:href="#DejaVuSans-6e" transform="translate(501.757812 0)"/>
     <use xlink:href="#DejaVuSans-6b" transform="translate(565.136719 0)"/>
     <use xlink:href="#DejaVuSans-20" transform="translate(623.046875 0)"/>
     <use xlink:href="#DejaVuSans-6c" transform="translate(654.833984 0)"/>
     <use xlink:href="#DejaVuSans-6f" transform="translate(682.617188 0)"/>
     <use xlink:href="#DejaVuSans-61" transform="translate(743.798828 0)"/>
     <use xlink:href="#DejaVuSans-64" transform="translate(805.078125 0)"/>
     <use xlink:href="#DejaVuSans-73" transform="translate(868.554688 0)"/>
     <use xlink:href="#DejaVuSans-20" transform="translate(920.654297 0)"/>
     <use xlink:href="#DejaVuSans-6f" transform="translate(952.441406 0)"/>
     <use xlink:href="#DejaVuSans-76" transform="translate(1013.623047 0)"/>
     <use xlink:href="#DejaVuSans-65" transform="translate(1072.802734 0)"/>
     <use xlink:href="#DejaVuSans-72" transform="translate(1134.326172 0)"/>
     <use xlink:href="#DejaVuSans-20" transform="translate(1175.439453 0)"/>
     <use xlink:href="#DejaVuSans-6f" transform="translate(1207.226562 0)"/>
     <use xlink:href="#DejaVuSans-6e" transform="translate(1268.408203 0)"/>
     <use xlink:href="#DejaVuSans-65" transform="translate(1331.787109 0)"/>
     <use xlink:href="#DejaVuSans-20" transform="translate(1393.310547 0)"/>
     <use xlink:href="#DejaVuSans-41" transform="translate(1425.097656 0)"/>
     <use xlink:href="#DejaVuSans-6e" transform="translate(1493.505859 0)"/>
     <use xlink:href="#DejaVuSans-64" transform="translate(1556.884766 0)"/>
     <use xlink:href="#DejaVuSans-65" transform="translate(1620.361328 0)"/>
     <use xlink:href="#DejaVuSans-72" transform="translate(1681.884766 0)"/>
     <use xlink:href="#DejaVuSans-73" transform="translate(1722.998047 0)"/>
     <use xlink:href="#DejaVuSans-74" transform="translate(1775.097656 0)"/>
     <use xlink:href="#DejaVuSans-6f" transform="translate(1814.306641 0)"/>
     <use xlink:href="#DejaVuSans-72" transform="translate(1875.488281 0)"/>
     <use xlink:href="#DejaVuSans-70" transform="translate(1916.601562 0)"/>
     <use xlink:href="#DejaVuSans-20" transform="translate(1980.078125 0)"/>
     <use xlink:href="#DejaVuSans-52" transform="translate(2011.865234 0)"/>
     <use xlink:href="#DejaVuSans-61" transform="translate(2079.097656 0)"/>
     <use xlink:href="#DejaVuSans-63" transform="translate(2140.376953 0)"/>
     <use xlink:href="#DejaVuSans-65" transform="translate(2195.357422 0)"/>
     <use xlink:href="#DejaVuSans-77" transform="translate(2256.880859 0)"/>
     <use xlink:href="#DejaVuSans-61" transform="translate(2338.667969 0)"/>
     <use xlink:href="#DejaVuSans-79" transform="translate(2399.947266 0)"/>
     <use xlink:href="#DejaVuSans-20" transform="translate(2459.126953 0)"/>
     <use xlink:href="#DejaVuSans-6c" transform="translate(2490.914062 0)"/>
     <use xlink:href="#DejaVuSans-61" transform="translate(2518.697266 0)"/>
     <use xlink:href="#DejaVuSans-70" transform="translate(2579.976562 0)"/>
    </g>
   </g>
   <g id="legend_1">
    <g id="patch_7">
     <path d="M 630.755 56.765 
L 703.6 56.765 
Q 705.2 56.765 705.2 55.165 
L 705.2 32.48 
Q 705.2 30.88 703.6 30.88 
L 630.755 30.88 
Q 629.155 30.88 629.155 32.48 
L 629.155 55.165 
Q 629.155 56.765 630.755 56.765 
z
" style="fill: #ffffff; opacity: 0.8; stroke: #cccccc; stroke-linejoin: miter"/>
    </g>
    <g id="line2d_39">
     <path d="M 632.355 37.35875 
L 640.355 37.35875 
L 648.355 37.35875 
" style="fill: none; stroke: #2ca02c; stroke-width: 0.9; stroke-linecap: square"/>
    </g>
    <g id="text_22">
     <!-- tie rod left -->
     <g transform="translate(654.755 40.15875) scale(0.08 -0.08)">
      <use xlink:href="#DejaVuSans-74"/>
      <use xlink:href="#DejaVuSans-69" transform="translate(39.208984 0)"/>
      <use xlink:href="#DejaVuSans-65" transform="translate(66.992188 0)"/>
      <use xlink:href="#DejaVuSans-20" transform="translate(128.515625 0)"/>
      <use xlink:href="#DejaVuSans-72" transform="translate(160.302734 0)"/>
      <use xlink:href="#DejaVuSans-6f" transform="translate(199.166016 0)"/>
      <use xlink:href="#DejaVuSans-64" transform="translate(260.347656 0)"/>
      <use xlink:href="#DejaVuSans-20" transform="translate(323.824219 0)"/>
      <use xlink:href="#DejaVuSans-6c" transform="translate(355.611328 0)"/>
      <use xlink:href="#DejaVuSans-65" transform="translate(383.394531 0)"/>
      <use xlink:href="#DejaVuSans-66" transform="translate(444.917969 0)"/>
      <use xlink:href="#DejaVuSans-74" transform="translate(478.373047 0)"/>
     </g>
    </g>
    <g id="line2d_40">
     <path d="M 632.355 49.10125 
L 640.355 49.10125 
L 648.355 49.10125 
" style="fill: none; stroke: #d62728; stroke-opacity: 0.8; stroke-width: 0.9; stroke-linecap: square"/>
    </g>
    <g id="text_23">
     <!-- tie rod right -->
     <g transform="translate(654.755 51.90125) scale(0.08 -0.08)">
      <defs>
       <path id="DejaVuSans-68" d="M 3513 2113 
L 3513 0 
L 2938 0 
L 2938 2094 
Q 2938 2591 2744 2837 
Q 2550 3084 2163 3084 
Q 1697 3084 1428 2787 
Q 1159 2491 1159 1978 
L 1159 0 
L 581 0 
L 581 4863 
L 1159 4863 
L 1159 2956 
Q 1366 3272 1645 3428 
Q 1925 3584 2291 3584 
Q 2894 3584 3203 3211 
Q 3513 2838 3513 2113 
z
" transform="scale(0.015625)"/>
      </defs>
      <use xlink:href="#DejaVuSans-74"/>
      <use xlink:href="#DejaVuSans-69" transform="translate(39.208984 0)"/>
      <use xlink:href="#DejaVuSans-65" transform="translate(66.992188 0)"/>
      <use xlink:href="#DejaVuSans-20" transform="translate(128.515625 0)"/>
      <use xlink:href="#DejaVuSans-72" transform="translate(160.302734 0)"/>
      <use xlink:href="#DejaVuSans-6f" transform="translate(199.166016 0)"/>
      <use xlink:href="#DejaVuSans-64" transform="translate(260.347656 0)"/>
      <use xlink:href="#DejaVuSans-20" transform="translate(323.824219 0)"/>
      <use xlink:href="#DejaVuSans-72" transform="translate(355.611328 0)"/>
      <use xlink:href="#DejaVuSans-69" transform="translate(396.724609 0)"/>
      <use xlink:href="#DejaVuSans-67" transform="translate(424.507812 0)"/>
      <use xlink:href="#DejaVuSans-68" transform="translate(487.984375 0)"/>
      <use xlink:href="#DejaVuSans-74" transform="translate(551.363281 0)"/>
     </g>
    </g>
   </g>
  </g>
 </g>
 <defs>
  <clipPath id="p117ac9a238">
   <rect x="56.09" y="26.88" width="653.11" height="219.16"/>
  </clipPath>
 </defs>
</svg>
