<?xml version="1.0" encoding="utf-8" standalone="no"?>
<!DOCTYPE svg PUBLIC "-//W3C//DTD SVG 1.1//EN"
  "http://www.w3.org/Graphics/SVG/1.1/DTD/svg11.dtd">
<svg xmlns:xlink="http://www.w3.org/1999/xlink" width="720pt" height="288pt" viewBox="0 0 720 288" xmlns="http://www.w3.org/2000/svg" version="1.1">
 <metadata>
  <rdf:RDF xmlns:dc="http://purl.org/dc/elements/1.1/" xmlns:cc="http://creativecommons.org/ns#" xmlns:rdf="http://www.w3.org/1999/02/22-rdf-syntax-ns#">
   <cc:Work>
    <dc:type rdf:resource="http://purl.org/dc/dcmitype/StillImage"/>
    <dc:date>2026-07-08T10:15:09.551213</dc:date>
    <dc:format>image/svg+xml</dc:format>
    <dc:creator>
     <cc:Agent>
      <dc:title>Matplotlib v3.10.8, https://matplotlib.org/</dc:title>
     </cc:Agent>
    </dc:creator>
   </cc:Work>
  </rdf:RDF>
 </metadata>
 <defs>
  <style type="text/css">*{stroke-linejoin: round; stroke-linecap: butt}</style>
 </defs>
 <g id="figure_1">
  <g id="patch_1">
   <path d="M 0 288 
L 720 288 
L 720 0 
L 0 0 
z
" style="fill: #ffffff"/>
  </g>
  <g id="axes_1">
   <g id="patch_2">
    <path d="M 56.09 246.04 
L 709.2 246.04 
L 709.2 26.88 
L 56.09 26.88 
z
" style="fill: #ffffff"/>
   </g>
   <g id="matplotlib.axis_1">
    <g id="xtick_1">
     <g id="line2d_1">
      <path d="M 85.776818 246.04 
L 85.776818 26.88 
" clip-path="url(#p7a30771c12)" style="fill: none; stroke: #b0b0b0; stroke-opacity: 0.3; stroke-width: 0.8; stroke-linecap: square"/>
     </g>
     <g id="line2d_2">
      <defs>
       <path id="m46fea4332e" d="M 0 0 
L 0 3.5 
" style="stroke: #000000; stroke-width: 0.8"/>
      </defs>
      <g>
       <use xlink:href="#m46fea4332e" x="85.776818" y="246.04" style="stroke: #000000; stroke-width: 0.8"/>
      </g>
     </g>
     <g id="text_1">
      <!-- 0.0 -->
      <g transform="translate(77.825256 260.638438) scale(0.1 -0.1)">
       <defs>
        <path id="DejaVuSans-30" d="M 2034 4250 
Q 1547 4250 1301 3770 
Q 1056 3291 1056 2328 
Q 1056 1369 1301 889 
Q 1547 409 2034 409 
Q 2525 409 2770 889 
Q 3016 1369 3016 2328 
Q 3016 3291 2770 3770 
Q 2525 4250 2034 4250 
z
M 2034 4750 
Q 2819 4750 3233 4129 
Q 3647 3509 3647 2328 
Q 3647 1150 3233 529 
Q 2819 -91 2034 -91 
Q 1250 -91 836 529 
Q 422 1150 422 2328 
Q 422 3509 836 4129 
Q 1250 4750 2034 4750 
z
" transform="scale(0.015625)"/>
        <path id="DejaVuSans-2e" d="M 684 794 
L 1344 794 
L 1344 0 
L 684 0 
L 684 794 
z
" transform="scale(0.015625)"/>
       </defs>
       <use xlink:href="#DejaVuSans-30"/>
       <use xlink:href="#DejaVuSans-2e" transform="translate(63.623047 0)"/>
       <use xlink:href="#DejaVuSans-30" transform="translate(95.410156 0)"/>
      </g>
     </g>
    </g>
    <g id="xtick_2">
     <g id="line2d_3">
      <path d="M 159.808784 246.04 
L 159.808784 26.88 
" clip-path="url(#p7a30771c12)" style="fill: none; stroke: #b0b0b0; stroke-opacity: 0.3; stroke-width: 0.8; stroke-linecap: square"/>
     </g>
     <g id="line2d_4">
      <g>
       <use xlink:href="#m46fea4332e" x="159.808784" y="246.04" style="stroke: #000000; stroke-width: 0.8"/>
      </g>
     </g>
     <g id="text_2">
      <!-- 0.5 -->
      <g transform="translate(151.857221 260.638438) scale(0.1 -0.1)">
       <defs>
        <path id="DejaVuSans-35" d="M 691 4666 
L 3169 4666 
L 3169 4134 
L 1269 4134 
L 1269 2991 
Q 1406 3038 1543 3061 
Q 1681 3084 1819 3084 
Q 2600 3084 3056 2656 
Q 3513 2228 3513 1497 
Q 3513 744 3044 326 
Q 2575 -91 1722 -91 
Q 1428 -91 1123 -41 
Q 819 9 494 109 
L 494 744 
Q 775 591 1075 516 
Q 1375 441 1709 441 
Q 2250 441 2565 725 
Q 2881 1009 2881 1497 
Q 2881 1984 2565 2268 
Q 2250 2553 1709 2553 
Q 1456 2553 1204 2497 
Q 953 2441 691 2322 
L 691 4666 
z
" transform="scale(0.015625)"/>
       </defs>
       <use xlink:href="#DejaVuSans-30"/>
       <use xlink:href="#DejaVuSans-2e" transform="translate(63.623047 0)"/>
       <use xlink:href="#DejaVuSans-35" transform="translate(95.410156 0)"/>
      </g>
     </g>
    </g>
    <g id="xtick_3">
     <g id="line2d_5">
      <path d="M 233.840749 246.04 
L 233.840749 26.88 
" clip-path="url(#p7a30771c12)" style="fill: none; stroke: #b0b0b0; stroke-opacity: 0.3; stroke-width: 0.8; stroke-linecap: square"/>
     </g>
     <g id="line2d_6">
      <g>
       <use xlink:href="#m46fea4332e" x="233.840749" y="246.04" style="stroke: #000000; stroke-width: 0.8"/>
      </g>
     </g>
     <g id="text_3">
      <!-- 1.0 -->
      <g transform="translate(225.889187 260.638438) scale(0.1 -0.1)">
       <defs>
        <path id="DejaVuSans-31" d="M 794 531 
L 1825 531 
L 1825 4091 
L 703 3866 
L 703 4441 
L 1819 4666 
L 2450 4666 
L 2450 531 
L 3481 531 
L 3481 0 
L 794 0 
L 794 531 
z
" transform="scale(0.015625)"/>
       </defs>
       <use xlink:href="#DejaVuSans-31"/>
       <use xlink:href="#DejaVuSans-2e" transform="translate(63.623047 0)"/>
       <use xlink:href="#DejaVuSans-30" transform="translate(95.410156 0)"/>
      </g>
     </g>
    </g>
    <g id="xtick_4">
     <g id="line2d_7">
      <path d="M 307.872715 246.04 
L 307.872715 26.88 
" clip-path="url(#p7a30771c12)" style="fill: none; stroke: #b0b0b0; stroke-opacity: 0.3; stroke-width: 0.8; stroke-linecap: square"/>
     </g>
     <g id="line2d_8">
      <g>
       <use xlink:href="#m46fea4332e" x="307.872715" y="246.04" style="stroke: #000000; stroke-width: 0.8"/>
      </g>
     </g>
     <g id="text_4">
      <!-- 1.5 -->
      <g transform="translate(299.921152 260.638438) scale(0.1 -0.1)">
       <use xlink:href="#DejaVuSans-31"/>
       <use xlink:href="#DejaVuSans-2e" transform="translate(63.623047 0)"/>
       <use xlink:href="#DejaVuSans-35" transform="translate(95.410156 0)"/>
      </g>
     </g>
    </g>
    <g id="xtick_5">
     <g id="line2d_9">
      <path d="M 381.90468 246.04 
L 381.90468 26.88 
" clip-path="url(#p7a30771c12)" style="fill: none; stroke: #b0b0b0; stroke-opacity: 0.3; stroke-width: 0.8; stroke-linecap: square"/>
     </g>
     <g id="line2d_10">
      <g>
       <use xlink:href="#m46fea4332e" x="381.90468" y="246.04" style="stroke: #000000; stroke-width: 0.8"/>
      </g>
     </g>
     <g id="text_5">
      <!-- 2.0 -->
      <g transform="translate(373.953118 260.638438) scale(0.1 -0.1)">
       <defs>
        <path id="DejaVuSans-32" d="M 1228 531 
L 3431 531 
L 3431 0 
L 469 0 
L 469 531 
Q 828 903 1448 1529 
Q 2069 2156 2228 2338 
Q 2531 2678 2651 2914 
Q 2772 3150 2772 3378 
Q 2772 3750 2511 3984 
Q 2250 4219 1831 4219 
Q 1534 4219 1204 4116 
Q 875 4013 500 3803 
L 500 4441 
Q 881 4594 1212 4672 
Q 1544 4750 1819 4750 
Q 2544 4750 2975 4387 
Q 3406 4025 3406 3419 
Q 3406 3131 3298 2873 
Q 3191 2616 2906 2266 
Q 2828 2175 2409 1742 
Q 1991 1309 1228 531 
z
" transform="scale(0.015625)"/>
       </defs>
       <use xlink:href="#DejaVuSans-32"/>
       <use xlink:href="#DejaVuSans-2e" transform="translate(63.623047 0)"/>
       <use xlink:href="#DejaVuSans-30" transform="translate(95.410156 0)"/>
      </g>
     </g>
    </g>
    <g id="xtick_6">
     <g id="line2d_11">
      <path d="M 455.936646 246.04 
L 455.936646 26.88 
" clip-path="url(#p7a30771c12)" style="fill: none; stroke: #b0b0b0; stroke-opacity: 0.3; stroke-width: 0.8; stroke-linecap: square"/>
     </g>
     <g id="line2d_12">
      <g>
       <use xlink:href="#m46fea4332e" x="455.936646" y="246.04" style="stroke: #000000; stroke-width: 0.8"/>
      </g>
     </g>
     <g id="text_6">
      <!-- 2.5 -->
      <g transform="translate(447.985083 260.638438) scale(0.1 -0.1)">
       <use xlink:href="#DejaVuSans-32"/>
       <use xlink:href="#DejaVuSans-2e" transform="translate(63.623047 0)"/>
       <use xlink:href="#DejaVuSans-35" transform="translate(95.410156 0)"/>
      </g>
     </g>
    </g>
    <g id="xtick_7">
     <g id="line2d_13">
      <path d="M 529.968611 246.04 
L 529.968611 26.88 
" clip-path="url(#p7a30771c12)" style="fill: none; stroke: #b0b0b0; stroke-opacity: 0.3; stroke-width: 0.8; stroke-linecap: square"/>
     </g>
     <g id="line2d_14">
      <g>
       <use xlink:href="#m46fea4332e" x="529.968611" y="246.04" style="stroke: #000000; stroke-width: 0.8"/>
      </g>
     </g>
     <g id="text_7">
      <!-- 3.0 -->
      <g transform="translate(522.017049 260.638438) scale(0.1 -0.1)">
       <defs>
        <path id="DejaVuSans-33" d="M 2597 2516 
Q 3050 2419 3304 2112 
Q 3559 1806 3559 1356 
Q 3559 666 3084 287 
Q 2609 -91 1734 -91 
Q 1441 -91 1130 -33 
Q 819 25 488 141 
L 488 750 
Q 750 597 1062 519 
Q 1375 441 1716 441 
Q 2309 441 2620 675 
Q 2931 909 2931 1356 
Q 2931 1769 2642 2001 
Q 2353 2234 1838 2234 
L 1294 2234 
L 1294 2753 
L 1863 2753 
Q 2328 2753 2575 2939 
Q 2822 3125 2822 3475 
Q 2822 3834 2567 4026 
Q 2313 4219 1838 4219 
Q 1578 4219 1281 4162 
Q 984 4106 628 3988 
L 628 4550 
Q 988 4650 1302 4700 
Q 1616 4750 1894 4750 
Q 2613 4750 3031 4423 
Q 3450 4097 3450 3541 
Q 3450 3153 3228 2886 
Q 3006 2619 2597 2516 
z
" transform="scale(0.015625)"/>
       </defs>
       <use xlink:href="#DejaVuSans-33"/>
       <use xlink:href="#DejaVuSans-2e" transform="translate(63.623047 0)"/>
       <use xlink:href="#DejaVuSans-30" transform="translate(95.410156 0)"/>
      </g>
     </g>
    </g>
    <g id="xtick_8">
     <g id="line2d_15">
      <path d="M 604.000577 246.04 
L 604.000577 26.88 
" clip-path="url(#p7a30771c12)" style="fill: none; stroke: #b0b0b0; stroke-opacity: 0.3; stroke-width: 0.8; stroke-linecap: square"/>
     </g>
     <g id="line2d_16">
      <g>
       <use xlink:href="#m46fea4332e" x="604.000577" y="246.04" style="stroke: #000000; stroke-width: 0.8"/>
      </g>
     </g>
     <g id="text_8">
      <!-- 3.5 -->
      <g transform="translate(596.049014 260.638438) scale(0.1 -0.1)">
       <use xlink:href="#DejaVuSans-33"/>
       <use xlink:href="#DejaVuSans-2e" transform="translate(63.623047 0)"/>
       <use xlink:href="#DejaVuSans-35" transform="translate(95.410156 0)"/>
      </g>
     </g>
    </g>
    <g id="xtick_9">
     <g id="line2d_17">
      <path d="M 678.032542 246.04 
L 678.032542 26.88 
" clip-path="url(#p7a30771c12)" style="fill: none; stroke: #b0b0b0; stroke-opacity: 0.3; stroke-width: 0.8; stroke-linecap: square"/>
     </g>
     <g id="line2d_18">
      <g>
       <use xlink:href="#m46fea4332e" x="678.032542" y="246.04" style="stroke: #000000; stroke-width: 0.8"/>
      </g>
     </g>
     <g id="text_9">
      <!-- 4.0 -->
      <g transform="translate(670.08098 260.638438) scale(0.1 -0.1)">
       <defs>
        <path id="DejaVuSans-34" d="M 2419 4116 
L 825 1625 
L 2419 1625 
L 2419 4116 
z
M 2253 4666 
L 3047 4666 
L 3047 1625 
L 3713 1625 
L 3713 1100 
L 3047 1100 
L 3047 0 
L 2419 0 
L 2419 1100 
L 313 1100 
L 313 1709 
L 2253 4666 
z
" transform="scale(0.015625)"/>
       </defs>
       <use xlink:href="#DejaVuSans-34"/>
       <use xlink:href="#DejaVuSans-2e" transform="translate(63.623047 0)"/>
       <use xlink:href="#DejaVuSans-30" transform="translate(95.410156 0)"/>
      </g>
     </g>
    </g>
    <g id="text_10">
     <!-- distance s [km] -->
     <g transform="translate(344.008281 274.316562) scale(0.1 -0.1)">
      <defs>
       <path id="DejaVuSans-64" d="M 2906 2969 
L 2906 4863 
L 3481 4863 
L 3481 0 
L 2906 0 
L 2906 525 
Q 2725 213 2448 61 
Q 2172 -91 1784 -91 
Q 1150 -91 751 415 
Q 353 922 353 1747 
Q 353 2572 751 3078 
Q 1150 3584 1784 3584 
Q 2172 3584 2448 3432 
Q 2725 3281 2906 2969 
z
M 947 1747 
Q 947 1113 1208 752 
Q 1469 391 1925 391 
Q 2381 391 2643 752 
Q 2906 1113 2906 1747 
Q 2906 2381 2643 2742 
Q 2381 3103 1925 3103 
Q 1469 3103 1208 2742 
Q 947 2381 947 1747 
z
" transform="scale(0.015625)"/>
       <path id="DejaVuSans-69" d="M 603 3500 
L 1178 3500 
L 1178 0 
L 603 0 
L 603 3500 
z
M 603 4863 
L 1178 4863 
L 1178 4134 
L 603 4134 
L 603 4863 
z
" transform="scale(0.015625)"/>
       <path id="DejaVuSans-73" d="M 2834 3397 
L 2834 2853 
Q 2591 2978 2328 3040 
Q 2066 3103 1784 3103 
Q 1356 3103 1142 2972 
Q 928 2841 928 2578 
Q 928 2378 1081 2264 
Q 1234 2150 1697 2047 
L 1894 2003 
Q 2506 1872 2764 1633 
Q 3022 1394 3022 966 
Q 3022 478 2636 193 
Q 2250 -91 1575 -91 
Q 1294 -91 989 -36 
Q 684 19 347 128 
L 347 722 
Q 666 556 975 473 
Q 1284 391 1588 391 
Q 1994 391 2212 530 
Q 2431 669 2431 922 
Q 2431 1156 2273 1281 
Q 2116 1406 1581 1522 
L 1381 1569 
Q 847 1681 609 1914 
Q 372 2147 372 2553 
Q 372 3047 722 3315 
Q 1072 3584 1716 3584 
Q 2034 3584 2315 3537 
Q 2597 3491 2834 3397 
z
" transform="scale(0.015625)"/>
       <path id="DejaVuSans-74" d="M 1172 4494 
L 1172 3500 
L 2356 3500 
L 2356 3053 
L 1172 3053 
L 1172 1153 
Q 1172 725 1289 603 
Q 1406 481 1766 481 
L 2356 481 
L 2356 0 
L 1766 0 
Q 1100 0 847 248 
Q 594 497 594 1153 
L 594 3053 
L 172 3053 
L 172 3500 
L 594 3500 
L 594 4494 
L 1172 4494 
z
" transform="scale(0.015625)"/>
       <path id="DejaVuSans-61" d="M 2194 1759 
Q 1497 1759 1228 1600 
Q 959 1441 959 1056 
Q 959 750 1161 570 
Q 1363 391 1709 391 
Q 2188 391 2477 730 
Q 2766 1069 2766 1631 
L 2766 1759 
L 2194 1759 
z
M 3341 1997 
L 3341 0 
L 2766 0 
L 2766 531 
Q 2569 213 2275 61 
Q 1981 -91 1556 -91 
Q 1019 -91 701 211 
Q 384 513 384 1019 
Q 384 1609 779 1909 
Q 1175 2209 1959 2209 
L 2766 2209 
L 2766 2266 
Q 2766 2663 2505 2880 
Q 2244 3097 1772 3097 
Q 1472 3097 1187 3025 
Q 903 2953 641 2809 
L 641 3341 
Q 956 3463 1253 3523 
Q 1550 3584 1831 3584 
Q 2591 3584 2966 3190 
Q 3341 2797 3341 1997 
z
" transform="scale(0.015625)"/>
       <path id="DejaVuSans-6e" d="M 3513 2113 
L 3513 0 
L 2938 0 
L 2938 2094 
Q 2938 2591 2744 2837 
Q 2550 3084 2163 3084 
Q 1697 3084 1428 2787 
Q 1159 2491 1159 1978 
L 1159 0 
L 581 0 
L 581 3500 
L 1159 3500 
L 1159 2956 
Q 1366 3272 1645 3428 
Q 1925 3584 2291 3584 
Q 2894 3584 3203 3211 
Q 3513 2838 3513 2113 
z
" transform="scale(0.015625)"/>
       <path id="DejaVuSans-63" d="M 3122 3366 
L 3122 2828 
Q 2878 2963 2633 3030 
Q 2388 3097 2138 3097 
Q 1578 3097 1268 2742 
Q 959 2388 959 1747 
Q 959 1106 1268 751 
Q 1578 397 2138 397 
Q 2388 397 2633 464 
Q 2878 531 3122 666 
L 3122 134 
Q 2881 22 2623 -34 
Q 2366 -91 2075 -91 
Q 1284 -91 818 406 
Q 353 903 353 1747 
Q 353 2603 823 3093 
Q 1294 3584 2113 3584 
Q 2378 3584 2631 3529 
Q 2884 3475 3122 3366 
z
" transform="scale(0.015625)"/>
       <path id="DejaVuSans-65" d="M 3597 1894 
L 3597 1613 
L 953 1613 
Q 991 1019 1311 708 
Q 1631 397 2203 397 
Q 2534 397 2845 478 
Q 3156 559 3463 722 
L 3463 178 
Q 3153 47 2828 -22 
Q 2503 -91 2169 -91 
Q 1331 -91 842 396 
Q 353 884 353 1716 
Q 353 2575 817 3079 
Q 1281 3584 2069 3584 
Q 2775 3584 3186 3129 
Q 3597 2675 3597 1894 
z
M 3022 2063 
Q 3016 2534 2758 2815 
Q 2500 3097 2075 3097 
Q 1594 3097 1305 2825 
Q 1016 2553 972 2059 
L 3022 2063 
z
" transform="scale(0.015625)"/>
       <path id="DejaVuSans-20" transform="scale(0.015625)"/>
       <path id="DejaVuSans-5b" d="M 550 4863 
L 1875 4863 
L 1875 4416 
L 1125 4416 
L 1125 -397 
L 1875 -397 
L 1875 -844 
L 550 -844 
L 550 4863 
z
" transform="scale(0.015625)"/>
       <path id="DejaVuSans-6b" d="M 581 4863 
L 1159 4863 
L 1159 1991 
L 2875 3500 
L 3609 3500 
L 1753 1863 
L 3688 0 
L 2938 0 
L 1159 1709 
L 1159 0 
L 581 0 
L 581 4863 
z
" transform="scale(0.015625)"/>
       <path id="DejaVuSans-6d" d="M 3328 2828 
Q 3544 3216 3844 3400 
Q 4144 3584 4550 3584 
Q 5097 3584 5394 3201 
Q 5691 2819 5691 2113 
L 5691 0 
L 5113 0 
L 5113 2094 
Q 5113 2597 4934 2840 
Q 4756 3084 4391 3084 
Q 3944 3084 3684 2787 
Q 3425 2491 3425 1978 
L 3425 0 
L 2847 0 
L 2847 2094 
Q 2847 2600 2669 2842 
Q 2491 3084 2119 3084 
Q 1678 3084 1418 2786 
Q 1159 2488 1159 1978 
L 1159 0 
L 581 0 
L 581 3500 
L 1159 3500 
L 1159 2956 
Q 1356 3278 1631 3431 
Q 1906 3584 2284 3584 
Q 2666 3584 2933 3390 
Q 3200 3197 3328 2828 
z
" transform="scale(0.015625)"/>
       <path id="DejaVuSans-5d" d="M 1947 4863 
L 1947 -844 
L 622 -844 
L 622 -397 
L 1369 -397 
L 1369 4416 
L 622 4416 
L 622 4863 
L 1947 4863 
z
" transform="scale(0.015625)"/>
      </defs>
      <use xlink:href="#DejaVuSans-64"/>
      <use xlink:href="#DejaVuSans-69" transform="translate(63.476562 0)"/>
      <use xlink:href="#DejaVuSans-73" transform="translate(91.259766 0)"/>
      <use xlink:href="#DejaVuSans-74" transform="translate(143.359375 0)"/>
      <use xlink:href="#DejaVuSans-61" transform="translate(182.568359 0)"/>
      <use xlink:href="#DejaVuSans-6e" transform="translate(243.847656 0)"/>
      <use xlink:href="#DejaVuSans-63" transform="translate(307.226562 0)"/>
      <use xlink:href="#DejaVuSans-65" transform="translate(362.207031 0)"/>
      <use xlink:href="#DejaVuSans-20" transform="translate(423.730469 0)"/>
      <use xlink:href="#DejaVuSans-73" transform="translate(455.517578 0)"/>
      <use xlink:href="#DejaVuSans-20" transform="translate(507.617188 0)"/>
      <use xlink:href="#DejaVuSans-5b" transform="translate(539.404297 0)"/>
      <use xlink:href="#DejaVuSans-6b" transform="translate(578.417969 0)"/>
      <use xlink:href="#DejaVuSans-6d" transform="translate(636.328125 0)"/>
      <use xlink:href="#DejaVuSans-5d" transform="translate(733.740234 0)"/>
     </g>
    </g>
   </g>
   <g id="matplotlib.axis_2">
    <g id="ytick_1">
     <g id="line2d_19">
      <path d="M 56.09 244.545023 
L 709.2 244.545023 
" clip-path="url(#p7a30771c12)" style="fill: none; stroke: #b0b0b0; stroke-opacity: 0.3; stroke-width: 0.8; stroke-linecap: square"/>
     </g>
     <g id="line2d_20">
      <defs>
       <path id="m9e37935253" d="M 0 0 
L -3.5 0 
" style="stroke: #000000; stroke-width: 0.8"/>
      </defs>
      <g>
       <use xlink:href="#m9e37935253" x="56.09" y="244.545023" style="stroke: #000000; stroke-width: 0.8"/>
      </g>
     </g>
     <g id="text_11">
      <!-- −2.0 -->
      <g transform="translate(24.807188 248.344242) scale(0.1 -0.1)">
       <defs>
        <path id="DejaVuSans-2212" d="M 678 2272 
L 4684 2272 
L 4684 1741 
L 678 1741 
L 678 2272 
z
" transform="scale(0.015625)"/>
       </defs>
       <use xlink:href="#DejaVuSans-2212"/>
       <use xlink:href="#DejaVuSans-32" transform="translate(83.789062 0)"/>
       <use xlink:href="#DejaVuSans-2e" transform="translate(147.412109 0)"/>
       <use xlink:href="#DejaVuSans-30" transform="translate(179.199219 0)"/>
      </g>
     </g>
    </g>
    <g id="ytick_2">
     <g id="line2d_21">
      <path d="M 56.09 217.507472 
L 709.2 217.507472 
" clip-path="url(#p7a30771c12)" style="fill: none; stroke: #b0b0b0; stroke-opacity: 0.3; stroke-width: 0.8; stroke-linecap: square"/>
     </g>
     <g id="line2d_22">
      <g>
       <use xlink:href="#m9e37935253" x="56.09" y="217.507472" style="stroke: #000000; stroke-width: 0.8"/>
      </g>
     </g>
     <g id="text_12">
      <!-- −1.5 -->
      <g transform="translate(24.807188 221.306691) scale(0.1 -0.1)">
       <use xlink:href="#DejaVuSans-2212"/>
       <use xlink:href="#DejaVuSans-31" transform="translate(83.789062 0)"/>
       <use xlink:href="#DejaVuSans-2e" transform="translate(147.412109 0)"/>
       <use xlink:href="#DejaVuSans-35" transform="translate(179.199219 0)"/>
      </g>
     </g>
    </g>
    <g id="ytick_3">
     <g id="line2d_23">
      <path d="M 56.09 190.469921 
L 709.2 190.469921 
" clip-path="url(#p7a30771c12)" style="fill: none; stroke: #b0b0b0; stroke-opacity: 0.3; stroke-width: 0.8; stroke-linecap: square"/>
     </g>
     <g id="line2d_24">
      <g>
       <use xlink:href="#m9e37935253" x="56.09" y="190.469921" style="stroke: #000000; stroke-width: 0.8"/>
      </g>
     </g>
     <g id="text_13">
      <!-- −1.0 -->
      <g transform="translate(24.807188 194.269139) scale(0.1 -0.1)">
       <use xlink:href="#DejaVuSans-2212"/>
       <use xlink:href="#DejaVuSans-31" transform="translate(83.789062 0)"/>
       <use xlink:href="#DejaVuSans-2e" transform="translate(147.412109 0)"/>
       <use xlink:href="#DejaVuSans-30" transform="translate(179.199219 0)"/>
      </g>
     </g>
    </g>
    <g id="ytick_4">
     <g id="line2d_25">
      <path d="M 56.09 163.432369 
L 709.2 163.432369 
" clip-path="url(#p7a30771c12)" style="fill: none; stroke: #b0b0b0; stroke-opacity: 0.3; stroke-width: 0.8; stroke-linecap: square"/>
     </g>
     <g id="line2d_26">
      <g>
       <use xlink:href="#m9e37935253" x="56.09" y="163.432369" style="stroke: #000000; stroke-width: 0.8"/>
      </g>
     </g>
     <g id="text_14">
      <!-- −0.5 -->
      <g transform="translate(24.807188 167.231588) scale(0.1 -0.1)">
       <use xlink:href="#DejaVuSans-2212"/>
       <use xlink:href="#DejaVuSans-30" transform="translate(83.789062 0)"/>
       <use xlink:href="#DejaVuSans-2e" transform="translate(147.412109 0)"/>
       <use xlink:href="#DejaVuSans-35" transform="translate(179.199219 0)"/>
      </g>
     </g>
    </g>
    <g id="ytick_5">
     <g id="line2d_27">
      <path d="M 56.09 136.394818 
L 709.2 136.394818 
" clip-path="url(#p7a30771c12)" style="fill: none; stroke: #b0b0b0; stroke-opacity: 0.3; stroke-width: 0.8; stroke-linecap: square"/>
     </g>
     <g id="line2d_28">
      <g>
       <use xlink:href="#m9e37935253" x="56.09" y="136.394818" style="stroke: #000000; stroke-width: 0.8"/>
      </g>
     </g>
     <g id="text_15">
      <!-- 0.0 -->
      <g transform="translate(33.186875 140.194037) scale(0.1 -0.1)">
       <use xlink:href="#DejaVuSans-30"/>
       <use xlink:href="#DejaVuSans-2e" transform="translate(63.623047 0)"/>
       <use xlink:href="#DejaVuSans-30" transform="translate(95.410156 0)"/>
      </g>
     </g>
    </g>
    <g id="ytick_6">
     <g id="line2d_29">
      <path d="M 56.09 109.357267 
L 709.2 109.357267 
" clip-path="url(#p7a30771c12)" style="fill: none; stroke: #b0b0b0; stroke-opacity: 0.3; stroke-width: 0.8; stroke-linecap: square"/>
     </g>
     <g id="line2d_30">
      <g>
       <use xlink:href="#m9e37935253" x="56.09" y="109.357267" style="stroke: #000000; stroke-width: 0.8"/>
      </g>
     </g>
     <g id="text_16">
      <!-- 0.5 -->
      <g transform="translate(33.186875 113.156485) scale(0.1 -0.1)">
       <use xlink:href="#DejaVuSans-30"/>
       <use xlink:href="#DejaVuSans-2e" transform="translate(63.623047 0)"/>
       <use xlink:href="#DejaVuSans-35" transform="translate(95.410156 0)"/>
      </g>
     </g>
    </g>
    <g id="ytick_7">
     <g id="line2d_31">
      <path d="M 56.09 82.319715 
L 709.2 82.319715 
" clip-path="url(#p7a30771c12)" style="fill: none; stroke: #b0b0b0; stroke-opacity: 0.3; stroke-width: 0.8; stroke-linecap: square"/>
     </g>
     <g id="line2d_32">
      <g>
       <use xlink:href="#m9e37935253" x="56.09" y="82.319715" style="stroke: #000000; stroke-width: 0.8"/>
      </g>
     </g>
     <g id="text_17">
      <!-- 1.0 -->
      <g transform="translate(33.186875 86.118934) scale(0.1 -0.1)">
       <use xlink:href="#DejaVuSans-31"/>
       <use xlink:href="#DejaVuSans-2e" transform="translate(63.623047 0)"/>
       <use xlink:href="#DejaVuSans-30" transform="translate(95.410156 0)"/>
      </g>
     </g>
    </g>
    <g id="ytick_8">
     <g id="line2d_33">
      <path d="M 56.09 55.282164 
L 709.2 55.282164 
" clip-path="url(#p7a30771c12)" style="fill: none; stroke: #b0b0b0; stroke-opacity: 0.3; stroke-width: 0.8; stroke-linecap: square"/>
     </g>
     <g id="line2d_34">
      <g>
       <use xlink:href="#m9e37935253" x="56.09" y="55.282164" style="stroke: #000000; stroke-width: 0.8"/>
      </g>
     </g>
     <g id="text_18">
      <!-- 1.5 -->
      <g transform="translate(33.186875 59.081383) scale(0.1 -0.1)">
       <use xlink:href="#DejaVuSans-31"/>
       <use xlink:href="#DejaVuSans-2e" transform="translate(63.623047 0)"/>
       <use xlink:href="#DejaVuSans-35" transform="translate(95.410156 0)"/>
      </g>
     </g>
    </g>
    <g id="ytick_9">
     <g id="line2d_35">
      <path d="M 56.09 28.244612 
L 709.2 28.244612 
" clip-path="url(#p7a30771c12)" style="fill: none; stroke: #b0b0b0; stroke-opacity: 0.3; stroke-width: 0.8; stroke-linecap: square"/>
     </g>
     <g id="line2d_36">
      <g>
       <use xlink:href="#m9e37935253" x="56.09" y="28.244612" style="stroke: #000000; stroke-width: 0.8"/>
      </g>
     </g>
     <g id="text_19">
      <!-- 2.0 -->
      <g transform="translate(33.186875 32.043831) scale(0.1 -0.1)">
       <use xlink:href="#DejaVuSans-32"/>
       <use xlink:href="#DejaVuSans-2e" transform="translate(63.623047 0)"/>
       <use xlink:href="#DejaVuSans-30" transform="translate(95.410156 0)"/>
      </g>
     </g>
    </g>
    <g id="text_20">
     <!-- tie-rod force [kN] -->
     <g transform="translate(18.7275 179.170156) rotate(-90) scale(0.1 -0.1)">
      <defs>
       <path id="DejaVuSans-2d" d="M 313 2009 
L 1997 2009 
L 1997 1497 
L 313 1497 
L 313 2009 
z
" transform="scale(0.015625)"/>
       <path id="DejaVuSans-72" d="M 2631 2963 
Q 2534 3019 2420 3045 
Q 2306 3072 2169 3072 
Q 1681 3072 1420 2755 
Q 1159 2438 1159 1844 
L 1159 0 
L 581 0 
L 581 3500 
L 1159 3500 
L 1159 2956 
Q 1341 3275 1631 3429 
Q 1922 3584 2338 3584 
Q 2397 3584 2469 3576 
Q 2541 3569 2628 3553 
L 2631 2963 
z
" transform="scale(0.015625)"/>
       <path id="DejaVuSans-6f" d="M 1959 3097 
Q 1497 3097 1228 2736 
Q 959 2375 959 1747 
Q 959 1119 1226 758 
Q 1494 397 1959 397 
Q 2419 397 2687 759 
Q 2956 1122 2956 1747 
Q 2956 2369 2687 2733 
Q 2419 3097 1959 3097 
z
M 1959 3584 
Q 2709 3584 3137 3096 
Q 3566 2609 3566 1747 
Q 3566 888 3137 398 
Q 2709 -91 1959 -91 
Q 1206 -91 779 398 
Q 353 888 353 1747 
Q 353 2609 779 3096 
Q 1206 3584 1959 3584 
z
" transform="scale(0.015625)"/>
       <path id="DejaVuSans-66" d="M 2375 4863 
L 2375 4384 
L 1825 4384 
Q 1516 4384 1395 4259 
Q 1275 4134 1275 3809 
L 1275 3500 
L 2222 3500 
L 2222 3053 
L 1275 3053 
L 1275 0 
L 697 0 
L 697 3053 
L 147 3053 
L 147 3500 
L 697 3500 
L 697 3744 
Q 697 4328 969 4595 
Q 1241 4863 1831 4863 
L 2375 4863 
z
" transform="scale(0.015625)"/>
       <path id="DejaVuSans-4e" d="M 628 4666 
L 1478 4666 
L 3547 763 
L 3547 4666 
L 4159 4666 
L 4159 0 
L 3309 0 
L 1241 3903 
L 1241 0 
L 628 0 
L 628 4666 
z
" transform="scale(0.015625)"/>
      </defs>
      <use xlink:href="#DejaVuSans-74"/>
      <use xlink:href="#DejaVuSans-69" transform="translate(39.208984 0)"/>
      <use xlink:href="#DejaVuSans-65" transform="translate(66.992188 0)"/>
      <use xlink:href="#DejaVuSans-2d" transform="translate(128.515625 0)"/>
      <use xlink:href="#DejaVuSans-72" transform="translate(164.599609 0)"/>
      <use xlink:href="#DejaVuSans-6f" transform="translate(203.462891 0)"/>
      <use xlink:href="#DejaVuSans-64" transform="translate(264.644531 0)"/>
      <use xlink:href="#DejaVuSans-20" transform="translate(328.121094 0)"/>
      <use xlink:href="#DejaVuSans-66" transform="translate(359.908203 0)"/>
      <use xlink:href="#DejaVuSans-6f" transform="translate(395.113281 0)"/>
      <use xlink:href="#DejaVuSans-72" transform="translate(456.294922 0)"/>
      <use xlink:href="#DejaVuSans-63" transform="translate(495.158203 0)"/>
      <use xlink:href="#DejaVuSans-65" transform="translate(550.138672 0)"/>
      <use xlink:href="#DejaVuSans-20" transform="translate(611.662109 0)"/>
      <use xlink:href="#DejaVuSans-5b" transform="translate(643.449219 0)"/>
      <use xlink:href="#DejaVuSans-6b" transform="translate(682.462891 0)"/>
      <use xlink:href="#DejaVuSans-4e" transform="translate(740.373047 0)"/>
      <use xlink:href="#DejaVuSans-5d" transform="translate(815.177734 0)"/>
     </g>
    </g>
   </g>
   <g id="line2d_37">
    <path d="M 85.776818 136.394818 
L 86.115305 136.310329 
L 86.454261 135.185668 
L 86.793685 134.55248 
L 87.133576 134.965045 
L 87.473934 135.754738 
L 87.814758 136.184865 
L 88.156046 135.988124 
L 88.840013 135.042341 
L 89.182689 135.064427 
L 90.213478 136.388887 
L 90.557991 136.51 
L 91.248384 136.50683 
L 91.594263 136.65567 
L 92.63461 137.476199 
L 93.330423 137.64626 
L 94.377491 137.827546 
L 95.077754 137.963734 
L 96.13145 137.795924 
L 97.542487 137.434904 
L 99.315989 136.625623 
L 102.534994 135.095751 
L 104.337887 134.495617 
L 105.787551 134.26153 
L 107.243664 134.23006 
L 108.339932 134.364746 
L 109.805916 134.790723 
L 110.904028 135.337781 
L 111.996601 136.164471 
L 113.080392 137.287145 
L 114.152658 138.74861 
L 115.21104 140.608801 
L 116.597142 143.524475 
L 118.286395 147.313449 
L 119.934438 150.320993 
L 120.584417 152.598337 
L 121.551515 156.584842 
L 121.872074 156.926597 
L 122.191845 154.308308 
L 122.510904 150.375864 
L 122.829346 148.504694 
L 123.147294 151.29089 
L 123.782227 168.977078 
L 124.416341 188.376038 
L 124.732902 191.296969 
L 125.048864 187.861917 
L 125.993012 160.834319 
L 126.306952 161.6814 
L 126.620768 168.474619 
L 127.248362 185.172624 
L 127.562232 187.368512 
L 127.876195 184.344327 
L 128.190308 176.01378 
L 128.819244 147.649036 
L 129.134121 140.44043 
L 129.449257 142.703021 
L 130.080049 152.024651 
L 130.395569 151.797902 
L 130.711155 148.572592 
L 131.658799 134.057357 
L 131.975149 132.906903 
L 132.926034 134.063259 
L 133.561689 135.763523 
L 134.518236 139.894792 
L 134.837926 139.943983 
L 135.15801 136.372111 
L 135.47848 131.468518 
L 135.799336 129.980382 
L 136.120581 131.911867 
L 136.442225 135.088057 
L 136.764283 137.017684 
L 137.086764 136.894957 
L 138.056795 132.715631 
L 138.381014 133.513258 
L 139.030788 137.250163 
L 139.35635 138.414323 
L 140.335765 139.886548 
L 141.648103 144.383393 
L 142.307038 145.390854 
L 142.967779 146.440277 
L 143.630305 147.787275 
L 145.294446 151.916201 
L 145.628617 151.490775 
L 146.298306 147.038348 
L 146.633833 146.781847 
L 146.969831 149.821476 
L 147.643301 161.839764 
L 147.980782 168.710056 
L 148.318725 172.131481 
L 148.657074 170.123721 
L 149.334886 155.977182 
L 149.674381 152.858762 
L 150.01431 155.085956 
L 150.695555 163.970859 
L 151.036878 166.639705 
L 151.378661 165.795956 
L 151.720902 161.386565 
L 152.406757 150.166245 
L 152.75037 148.644254 
L 153.09444 150.076304 
L 153.438963 152.133685 
L 153.783938 152.862172 
L 154.129362 151.615119 
L 154.821556 146.194717 
L 155.168325 144.506815 
L 155.515541 144.132405 
L 155.863203 144.38851 
L 156.211309 144.345405 
L 156.55986 143.506287 
L 157.60816 139.228981 
L 157.958471 138.662016 
L 158.660394 138.252268 
L 159.364049 137.35649 
L 159.716466 137.394726 
L 160.421754 138.479716 
L 160.774289 138.39963 
L 161.126548 137.562694 
L 161.478391 135.88626 
L 162.180333 131.604084 
L 162.530224 134.054042 
L 163.574468 153.179712 
L 163.920358 155.468665 
L 164.264882 154.924894 
L 164.607867 150.240249 
L 164.949217 141.3455 
L 165.288882 135.667022 
L 165.62682 137.784584 
L 166.29738 152.049549 
L 166.629911 154.043084 
L 166.96054 150.03799 
L 167.94053 128.136047 
L 168.263074 127.137321 
L 168.901637 130.027937 
L 169.217515 131.530899 
L 169.531053 131.765646 
L 169.84221 129.605738 
L 170.457222 123.702374 
L 170.761025 122.516186 
L 171.062331 122.76915 
L 171.657352 124.574237 
L 171.951021 124.917959 
L 172.242103 124.721519 
L 172.530578 124.278102 
L 172.81643 124.054189 
L 173.099645 124.359635 
L 173.380209 125.14855 
L 174.205911 128.795139 
L 174.742993 131.560699 
L 175.269336 135.492582 
L 176.289777 145.819171 
L 179.729665 181.442057 
L 181.314792 195.213101 
L 181.684995 195.819003 
L 181.866209 195.747669 
L 182.044826 195.455417 
L 182.220841 194.871509 
L 182.565066 192.124348 
L 182.898979 189.380322 
L 183.06215 189.372517 
L 183.69173 192.846834 
L 183.994947 191.971355 
L 184.144486 192.421997 
L 184.293037 194.873225 
L 185.334062 225.337651 
L 185.802643 231.600686 
L 186.128128 233.794332 
L 186.463159 234.8692 
L 186.803041 235.129152 
L 187.135663 234.972991 
L 187.598657 234.657022 
L 187.883759 234.691346 
L 188.020541 234.572409 
L 188.284884 233.704603 
L 188.665445 230.999299 
L 189.037715 226.432504 
L 189.411537 217.661512 
L 189.922811 195.171747 
L 190.18618 186.893213 
L 190.87088 178.358975 
L 191.30022 170.005588 
L 192.045329 161.693888 
L 192.509267 156.409529 
L 193.309264 150.620001 
L 193.972429 147.06134 
L 194.141348 147.10242 
L 194.65544 149.604083 
L 194.829248 149.048038 
L 195.180559 147.078872 
L 195.536936 146.414436 
L 195.898476 145.857951 
L 196.265143 144.711655 
L 197.013681 140.645391 
L 197.203922 140.828841 
L 197.587975 142.320001 
L 197.781758 142.469692 
L 198.17279 141.546705 
L 198.370023 141.477092 
L 198.968486 143.009589 
L 199.170203 143.034495 
L 200.61269 141.321434 
L 201.674808 138.165206 
L 202.542971 134.945043 
L 203.875157 130.174335 
L 204.782737 127.618897 
L 205.473386 126.227524 
L 205.938479 125.611449 
L 206.407248 125.317149 
L 206.879654 125.32865 
L 207.35543 125.669704 
L 207.833259 126.375497 
L 208.311655 127.510458 
L 209.027665 130.173881 
L 209.738819 134.068751 
L 210.906849 142.489443 
L 212.046646 152.044629 
L 213.580435 166.663497 
L 214.417451 177.053958 
L 215.612774 190.770104 
L 215.80511 190.22234 
L 216.183897 188.381584 
L 216.370293 189.29313 
L 217.095355 196.970717 
L 218.120975 202.286836 
L 218.448031 203.941174 
L 218.609207 203.52033 
L 219.084386 199.970273 
L 219.240268 200.399217 
L 219.54881 204.20968 
L 220.15616 214.191382 
L 220.457511 216.200791 
L 220.759424 217.886008 
L 221.682837 229.596763 
L 221.997411 230.739049 
L 222.313263 231.262938 
L 222.627022 231.404102 
L 222.936419 231.202699 
L 223.240833 230.660276 
L 223.689749 229.269958 
L 225.447499 223.133353 
L 225.888071 222.227669 
L 226.183789 222.002851 
L 226.630769 221.920959 
L 227.081885 221.587019 
L 227.385098 221.017348 
L 227.690777 219.644829 
L 227.999593 216.937568 
L 228.312325 212.230896 
L 228.790604 199.705168 
L 229.447932 183.720366 
L 229.955329 173.959713 
L 230.650161 159.337013 
L 231.184692 153.34056 
L 231.914957 142.562482 
L 233.2399 131.528565 
L 233.629137 130.045258 
L 233.825475 129.598146 
L 234.022936 129.434662 
L 234.823863 129.562847 
L 235.230895 130.173618 
L 237.115532 134.642406 
L 238.198983 137.035955 
L 238.861119 138.011871 
L 239.532108 138.570915 
L 240.211795 138.675112 
L 240.900034 138.523819 
L 241.363536 138.164675 
L 241.830728 137.815395 
L 242.065694 137.816061 
L 242.301569 137.982538 
L 242.776031 138.669153 
L 243.014613 138.569133 
L 243.49447 137.604691 
L 243.977896 136.419147 
L 244.464846 135.672645 
L 244.955276 134.351415 
L 245.449144 133.1509 
L 246.196309 132.730402 
L 246.951013 131.831997 
L 247.204237 131.855325 
L 247.968821 132.222774 
L 248.482598 132.299126 
L 248.999584 132.620424 
L 251.364927 134.930931 
L 253.247496 136.84723 
L 254.339602 137.648179 
L 255.166332 138.092974 
L 255.999528 138.310267 
L 257.120374 138.359454 
L 257.968344 138.224805 
L 259.970927 137.563554 
L 261.713586 136.96091 
L 262.888474 136.680358 
L 264.371554 136.579812 
L 266.172064 136.771853 
L 268.607222 137.120213 
L 269.222046 137.31412 
L 269.839247 137.147657 
L 270.148734 136.918286 
L 270.769473 136.102665 
L 271.080723 136.492819 
L 272.331577 140.905094 
L 272.645734 141.310471 
L 272.960455 140.262094 
L 273.591393 136.873459 
L 273.907321 136.516224 
L 274.539243 137.536273 
L 274.854919 137.444627 
L 275.170206 136.571952 
L 275.799071 133.793094 
L 276.112394 132.897869 
L 276.42482 132.49813 
L 277.046545 132.240532 
L 277.355643 131.893447 
L 278.274787 130.484596 
L 278.578177 130.312121 
L 279.180026 130.354395 
L 280.069509 130.58873 
L 280.362229 130.832937 
L 280.941708 131.770397 
L 281.512947 133.291171 
L 282.353673 136.399774 
L 283.174207 140.670046 
L 284.494747 149.362021 
L 287.187606 168.189057 
L 287.873063 172.147889 
L 288.538769 176.653725 
L 288.972395 178.098694 
L 289.186334 179.379357 
L 289.39843 181.934986 
L 290.434338 200.431142 
L 290.838894 203.803445 
L 291.238544 210.505386 
L 291.82956 222.437831 
L 292.218489 226.687554 
L 293.173251 233.323176 
L 293.547653 234.416427 
L 294.100607 235.017916 
L 294.999156 235.874902 
L 295.524718 236.078182 
L 295.869595 235.862467 
L 296.378774 235.29628 
L 296.87913 235.04721 
L 297.208774 234.391575 
L 298.345663 231.10259 
L 299.146919 229.494857 
L 299.306225 229.526789 
L 299.623988 230.05008 
L 300.887826 232.748151 
L 301.200709 233.103266 
L 301.511375 233.032534 
L 302.278718 232.440726 
L 302.582671 231.532176 
L 303.036646 228.883286 
L 303.791119 223.58084 
L 304.699743 213.672841 
L 305.005298 213.583286 
L 305.158809 213.246487 
L 305.467506 211.611963 
L 305.934764 208.304786 
L 306.24813 207.47176 
L 306.405005 207.173733 
L 306.561873 206.553142 
L 306.718642 205.092559 
L 307.499445 192.951632 
L 307.654962 193.170911 
L 307.965436 193.785115 
L 308.120427 193.657634 
L 308.430013 193.045982 
L 308.58465 193.303484 
L 308.893716 196.136472 
L 309.820635 208.030315 
L 311.061446 220.988076 
L 311.528983 223.25466 
L 311.841398 223.893211 
L 312.154565 224.170617 
L 312.626237 224.255395 
L 313.101015 224.115788 
L 314.224439 223.571658 
L 314.549424 223.819781 
L 315.855744 226.062489 
L 316.346888 226.578537 
L 316.674729 226.626374 
L 317.993695 225.779259 
L 319.505805 222.678188 
L 319.847324 221.045167 
L 320.36451 216.799124 
L 320.713378 212.25849 
L 321.066334 203.456132 
L 321.78679 178.837385 
L 323.095675 150.888715 
L 323.868177 143.195101 
L 324.458682 139.20938 
L 325.260943 133.894049 
L 326.287693 130.773619 
L 326.705752 130.11104 
L 327.127962 130.254515 
L 327.984681 130.911706 
L 328.63782 132.30844 
L 330.650264 136.965475 
L 331.338296 138.029219 
L 332.034714 138.701299 
L 332.503586 138.848615 
L 332.976089 138.787912 
L 333.452187 138.558587 
L 334.172995 137.864018 
L 335.146327 136.517985 
L 337.639312 132.963234 
L 338.403393 132.326028 
L 339.17476 132.012718 
L 339.693003 131.979961 
L 340.214409 132.118604 
L 341.002386 132.62099 
L 341.797319 133.432163 
L 342.867891 134.960201 
L 344.222945 137.312729 
L 346.150742 140.651265 
L 347.268066 142.239439 
L 348.396576 143.44856 
L 349.250063 143.970336 
L 349.82122 144.120446 
L 350.392471 144.085209 
L 350.962579 143.805431 
L 351.530457 143.257509 
L 352.095145 142.398263 
L 352.934372 140.46218 
L 353.762076 137.697174 
L 354.844276 132.788235 
L 356.157669 125.514445 
L 358.872941 109.870745 
L 359.339881 108.300123 
L 359.798936 105.532203 
L 360.694849 98.408965 
L 361.132781 98.01411 
L 361.56455 96.542359 
L 361.778167 95.894166 
L 361.990249 95.704026 
L 363.027128 96.076888 
L 363.229862 96.558148 
L 364.419885 103.855376 
L 365.189077 106.179581 
L 365.752928 107.317326 
L 366.48893 108.595597 
L 369.442842 114.505056 
L 370.59081 116.481259 
L 370.914211 116.670366 
L 371.235539 116.529732 
L 373.125294 115.023388 
L 373.897676 114.460151 
L 374.963789 113.891556 
L 376.628643 112.590588 
L 377.860613 112.274744 
L 378.33026 111.850849 
L 378.803468 111.102368 
L 379.598392 109.581248 
L 379.918175 109.351368 
L 380.399767 109.35261 
L 380.883645 109.670616 
L 382.507655 111.44655 
L 383.64964 112.610985 
L 384.467178 113.326423 
L 387.923142 116.827239 
L 388.591372 117.108102 
L 389.603481 117.203098 
L 392.203382 117.151492 
L 392.740197 116.882827 
L 393.102825 116.412536 
L 393.469873 115.565669 
L 394.029852 113.525811 
L 394.409432 112.245631 
L 394.601006 111.96801 
L 394.793768 112.028314 
L 394.987722 112.463139 
L 395.182871 113.391391 
L 395.576749 117.687991 
L 396.378721 129.251938 
L 396.992162 137.808519 
L 397.4066 143.027046 
L 397.825343 145.771321 
L 398.675543 149.459937 
L 398.890704 149.940654 
L 399.106897 150.126309 
L 399.324114 150.078025 
L 399.761594 149.665093 
L 400.203088 148.868867 
L 400.648544 147.486172 
L 401.55114 143.618302 
L 403.873744 133.246273 
L 404.588388 131.45761 
L 405.553661 129.593455 
L 406.041524 129.390579 
L 406.779753 129.242689 
L 407.027536 129.492168 
L 407.525646 130.693474 
L 408.027122 132.050266 
L 408.785568 133.589107 
L 410.065974 137.299638 
L 411.62884 140.477437 
L 412.420846 141.412593 
L 412.952702 141.856958 
L 413.487606 142.070639 
L 414.02553 142.055347 
L 414.838021 141.729453 
L 415.657156 141.041025 
L 416.759522 139.703384 
L 419.849567 135.705754 
L 420.706848 135.002938 
L 422.439613 134.226939 
L 422.730736 134.285338 
L 423.022518 134.527416 
L 423.608049 135.287515 
L 424.196185 135.637866 
L 424.786901 135.838578 
L 425.975987 135.982679 
L 426.574318 136.487825 
L 426.874423 136.588437 
L 427.778466 136.4765 
L 429.297496 136.973007 
L 431.449471 136.833512 
L 434.258611 136.091879 
L 435.522027 135.737956 
L 436.157114 135.532436 
L 436.475495 135.617174 
L 437.113923 136.116406 
L 437.754562 136.924188 
L 438.075709 136.502693 
L 439.042211 133.48425 
L 439.364971 133.106295 
L 439.687728 133.252055 
L 440.010316 134.565783 
L 440.332584 136.587192 
L 440.65439 137.821491 
L 440.975601 137.780313 
L 441.296091 137.240232 
L 441.615744 137.073461 
L 441.934445 137.655999 
L 443.197673 142.320263 
L 443.821036 142.883664 
L 444.130364 143.201914 
L 445.350312 145.183849 
L 445.65064 145.342151 
L 446.539552 145.313151 
L 447.12163 145.077835 
L 447.409386 144.785086 
L 447.97815 143.680731 
L 448.537707 142.028431 
L 449.08783 139.88369 
L 449.894876 135.461933 
L 450.936136 127.909397 
L 453.360571 109.307 
L 454.259148 104.251742 
L 455.735646 98.694296 
L 456.135117 96.891379 
L 456.716968 94.829933 
L 457.094595 93.134463 
L 457.280684 92.839024 
L 457.465129 93.17121 
L 457.829585 95.159173 
L 459.939268 108.088126 
L 460.626713 110.320384 
L 461.134347 111.438448 
L 461.9606 112.580639 
L 462.761551 113.359005 
L 463.844344 114.349818 
L 464.596617 115.184023 
L 465.487454 116.324217 
L 466.078479 116.701233 
L 467.262872 117.143063 
L 468.011399 117.183994 
L 468.46575 117.034207 
L 469.079605 116.559804 
L 469.863021 115.642987 
L 470.505231 114.462269 
L 470.997509 113.051923 
L 471.500025 111.750436 
L 471.669938 111.641548 
L 471.841083 111.708035 
L 472.013472 111.954217 
L 472.362003 113.228696 
L 472.715497 115.764117 
L 473.620327 122.917926 
L 473.804787 123.375413 
L 473.990361 123.442755 
L 474.177043 123.737015 
L 474.553713 125.029824 
L 474.743693 125.21691 
L 474.934763 124.868369 
L 475.320184 123.360246 
L 475.51456 123.18235 
L 475.710069 124.103291 
L 476.104512 126.782008 
L 476.50353 127.48201 
L 476.907067 128.085063 
L 477.52062 129.980697 
L 477.727285 130.02921 
L 478.989118 128.946428 
L 479.633818 128.761868 
L 479.85074 129.157241 
L 480.950348 132.968734 
L 481.847584 137.816574 
L 482.301882 139.721541 
L 483.914027 150.045717 
L 485.06739 162.473777 
L 485.755232 169.47096 
L 486.439401 176.147495 
L 487.569193 185.554718 
L 488.238178 191.118083 
L 490.410761 215.582607 
L 491.04746 220.499539 
L 492.508205 228.01062 
L 493.121409 230.26613 
L 493.72648 231.514835 
L 494.125714 231.771734 
L 494.324264 231.636236 
L 494.719524 230.901303 
L 495.504478 229.185982 
L 495.699643 229.180257 
L 496.088431 229.998994 
L 496.667003 231.491665 
L 497.049529 231.852884 
L 497.42981 231.897862 
L 497.808371 231.690783 
L 498.18558 231.057417 
L 498.561862 229.890904 
L 499.125496 227.774707 
L 499.313238 227.500562 
L 499.688534 227.509781 
L 500.063659 227.459367 
L 500.814108 226.942801 
L 501.189448 226.803014 
L 501.377131 226.535036 
L 501.564855 225.954889 
L 502.31624 221.988363 
L 502.6922 221.517516 
L 503.06825 221.292632 
L 503.444364 220.620404 
L 503.82059 219.943821 
L 504.197036 219.534555 
L 504.573872 218.435771 
L 504.951328 217.102791 
L 505.140334 216.971316 
L 505.329538 217.424397 
L 505.89837 219.287062 
L 506.278646 219.469549 
L 506.65987 219.743364 
L 507.233665 220.589551 
L 507.425387 220.58407 
L 508.001066 219.353608 
L 508.192845 219.61316 
L 508.767013 221.545862 
L 508.957958 221.738059 
L 509.719842 221.76098 
L 510.28987 222.212385 
L 510.47974 221.902085 
L 510.85948 220.935635 
L 511.049363 220.999952 
L 511.998578 223.372156 
L 512.378288 223.528116 
L 512.758286 224.057373 
L 513.138712 224.798556 
L 513.329163 224.949163 
L 513.519814 224.824512 
L 513.901635 224.280115 
L 514.092713 224.414149 
L 514.857265 225.999486 
L 515.23944 226.100554 
L 515.621552 226.217107 
L 516.194793 226.605165 
L 516.385923 226.515557 
L 516.95975 225.830519 
L 517.151221 225.900552 
L 517.726315 226.358703 
L 518.494454 226.32753 
L 519.261664 227.339707 
L 519.453191 227.255768 
L 520.027422 226.496214 
L 520.601479 226.473704 
L 520.792861 226.242288 
L 521.36736 224.910185 
L 521.559004 224.846611 
L 522.134347 225.255803 
L 522.517886 225.106334 
L 522.900872 225.005201 
L 523.663221 225.639961 
L 523.852831 225.095437 
L 524.418887 222.72339 
L 524.606572 222.771023 
L 524.980366 223.230203 
L 525.166486 222.911429 
L 525.537287 220.676323 
L 525.906352 218.092543 
L 526.822628 213.676869 
L 527.187264 211.147366 
L 527.369369 211.163 
L 528.097631 216.016476 
L 528.279877 215.992634 
L 528.644872 215.401625 
L 528.827685 215.519108 
L 529.194049 216.873558 
L 529.561441 218.285716 
L 529.745534 218.064874 
L 530.299549 215.541978 
L 530.484697 215.445363 
L 531.040278 215.965683 
L 531.225258 215.756034 
L 531.778932 214.592609 
L 531.963055 214.94249 
L 532.3307 216.240089 
L 532.514246 216.363018 
L 532.697621 216.026774 
L 533.063923 214.925733 
L 533.246883 214.79796 
L 533.429741 215.101083 
L 534.160781 217.133936 
L 534.70997 217.714973 
L 535.631062 221.371284 
L 536.375106 222.049991 
L 536.749416 222.188017 
L 536.937088 221.996979 
L 537.125112 221.436999 
L 537.502359 219.147801 
L 538.262859 214.652647 
L 539.228551 211.124683 
L 539.620456 210.16671 
L 539.817695 209.356573 
L 540.214752 206.157418 
L 541.018727 195.756378 
L 541.423991 188.685965 
L 542.436351 161.959005 
L 544.21674 115.857498 
L 544.789677 108.057481 
L 545.71473 101.09884 
L 546.073475 99.820873 
L 546.42554 99.515816 
L 546.599053 99.466073 
L 546.941038 98.95947 
L 547.441389 98.154136 
L 547.766475 98.16204 
L 547.926483 98.231902 
L 548.084808 98.158365 
L 548.396512 97.263097 
L 548.701993 96.169919 
L 548.852625 95.967099 
L 549.001999 96.024061 
L 549.297462 96.603305 
L 549.589404 97.598053 
L 550.023018 100.270679 
L 550.597263 103.757363 
L 551.169944 105.797233 
L 552.749901 110.621897 
L 553.763224 114.290323 
L 554.046147 114.763818 
L 554.323424 114.881086 
L 554.59522 114.781201 
L 555.253834 114.160634 
L 556.021204 113.472391 
L 556.274926 113.444157 
L 556.5282 113.690532 
L 557.033433 114.742418 
L 557.78793 116.25814 
L 558.163872 116.450927 
L 558.414681 116.318109 
L 558.666622 115.900692 
L 559.048896 114.617221 
L 559.571997 112.476446 
L 559.705943 112.30594 
L 559.841348 112.370947 
L 560.256817 113.310941 
L 560.541624 114.090552 
L 560.832643 115.689147 
L 561.280534 118.39372 
L 561.741611 119.736355 
L 562.538217 123.534398 
L 562.866422 124.404833 
L 563.538804 127.140276 
L 564.94592 130.26612 
L 565.679656 130.821642 
L 566.43278 131.28642 
L 566.816449 131.397066 
L 567.79584 132.069182 
L 568.599647 132.98118 
L 569.629022 134.753598 
L 571.548403 139.176747 
L 572.650388 141.481051 
L 573.549728 142.906187 
L 574.234366 143.593869 
L 574.927528 143.909667 
L 575.394302 143.897131 
L 575.864761 143.703644 
L 576.338862 143.320284 
L 577.056759 142.430183 
L 578.026343 140.69576 
L 579.257821 137.882158 
L 581.527468 132.479901 
L 582.816931 129.914056 
L 583.33828 129.299751 
L 584.126076 128.877976 
L 584.654103 128.757184 
L 585.182758 128.916059 
L 585.710758 129.39858 
L 586.236984 130.190396 
L 586.760456 131.32913 
L 587.538645 133.844191 
L 588.306228 137.302593 
L 589.309586 143.036814 
L 590.999046 154.223285 
L 592.370162 162.744534 
L 593.243257 166.827885 
L 594.085484 170.420061 
L 595.099173 176.412498 
L 595.493933 180.252065 
L 595.883449 186.881451 
L 596.459879 197.774972 
L 597.219054 210.828962 
L 597.970309 223.815292 
L 598.708858 231.125961 
L 599.071112 233.156069 
L 599.428048 234.101296 
L 599.779799 234.358717 
L 600.469138 234.439407 
L 600.807531 234.188354 
L 601.308571 233.606518 
L 601.802899 233.661204 
L 602.129139 233.643739 
L 602.45299 233.437083 
L 602.935038 232.741909 
L 603.572495 231.546852 
L 603.889455 231.397661 
L 604.363222 231.315262 
L 605.620462 230.48682 
L 606.091179 229.696409 
L 606.404993 229.609426 
L 607.030849 229.856884 
L 607.962152 229.185825 
L 608.116132 228.828638 
L 608.42278 227.053047 
L 608.87974 223.88355 
L 609.18267 223.41385 
L 609.333695 223.224056 
L 609.484451 222.655176 
L 609.785246 219.720774 
L 610.23536 214.361987 
L 610.385352 214.037688 
L 610.9865 215.360301 
L 611.137317 214.89802 
L 611.744042 212.131866 
L 612.049848 214.114381 
L 612.357258 216.044501 
L 612.511511 216.060863 
L 612.66611 215.313618 
L 613.132033 211.686185 
L 613.28809 211.433306 
L 613.444547 211.689848 
L 614.074696 213.570813 
L 614.233381 213.563078 
L 614.552197 213.169869 
L 614.712337 213.29255 
L 615.034052 214.74256 
L 615.357548 216.269197 
L 615.519901 216.581229 
L 615.682647 216.576706 
L 616.009352 216.299561 
L 616.173331 216.413696 
L 616.502566 217.20679 
L 618.004044 222.028762 
L 618.511185 223.390668 
L 619.191887 224.249735 
L 619.877745 225.016241 
L 620.395549 225.222294 
L 621.090736 225.167323 
L 621.791712 224.925633 
L 622.499368 224.403281 
L 623.21518 223.650607 
L 623.576755 222.947717 
L 623.941233 221.796169 
L 624.309122 219.889072 
L 624.681017 216.542036 
L 625.057524 211.099114 
L 625.439217 202.735386 
L 626.615449 172.019003 
L 627.219254 157.60766 
L 627.832733 144.115158 
L 629.0884 126.838383 
L 629.51541 123.827639 
L 630.16375 120.778667 
L 630.601128 119.555657 
L 631.042564 119.078773 
L 631.487998 119.099525 
L 631.712193 119.296994 
L 632.163494 120.330786 
L 633.540222 125.470672 
L 634.476656 129.718107 
L 634.950394 131.277515 
L 635.427792 132.255693 
L 635.90882 132.460015 
L 636.150676 132.90348 
L 637.126739 138.290169 
L 637.372875 138.395923 
L 637.619853 138.660134 
L 638.365824 141.083058 
L 638.616155 141.289645 
L 639.62577 141.116926 
L 640.135498 140.825047 
L 640.906155 139.690438 
L 642.73215 136.913428 
L 643.260883 136.424014 
L 643.792686 136.429977 
L 644.059732 136.594114 
L 644.327536 136.479063 
L 644.865418 135.465878 
L 645.135502 135.405737 
L 645.406356 136.729093 
L 645.677988 139.301783 
L 646.223611 147.077624 
L 646.497587 149.106037 
L 646.77231 149.196835 
L 647.600608 146.70363 
L 647.878039 147.12918 
L 648.156138 147.316824 
L 648.71438 146.12784 
L 648.994543 146.145052 
L 649.275407 146.534397 
L 649.556971 146.665745 
L 649.839232 146.055012 
L 650.405837 144.135149 
L 650.690174 144.05961 
L 651.547289 145.596568 
L 651.834351 145.536336 
L 652.410492 145.066939 
L 652.699566 144.988607 
L 653.279702 145.056322 
L 653.862469 144.677723 
L 654.447845 144.240016 
L 655.035805 144.172361 
L 655.62633 144.278577 
L 655.922546 143.74752 
L 656.516878 141.58471 
L 656.814994 141.367281 
L 657.113745 142.830364 
L 657.713175 149.205372 
L 658.013855 153.209037 
L 658.315164 155.418191 
L 658.617082 154.591291 
L 659.222673 147.966035 
L 659.526338 146.540247 
L 659.830589 147.466057 
L 660.135436 148.974449 
L 660.440886 149.546971 
L 660.74694 149.29639 
L 661.053598 148.616517 
L 661.668715 145.404379 
L 662.286224 142.08705 
L 662.595872 141.410629 
L 662.906112 141.495504 
L 663.21694 141.757462 
L 663.528349 141.788346 
L 663.840335 141.555333 
L 664.466024 140.926528 
L 665.408823 140.801514 
L 666.040188 140.618949 
L 667.309642 140.888714 
L 667.947688 140.896682 
L 668.26753 141.001237 
L 668.587916 141.449493 
L 669.230312 143.267742 
L 669.552317 143.780866 
L 670.197931 143.619685 
L 670.521539 142.408637 
L 670.845685 140.350087 
L 671.17038 140.735181 
L 671.495641 145.283134 
L 672.147939 157.147198 
L 672.802535 165.367481 
L 673.130562 164.723704 
L 673.787856 152.501896 
L 674.117136 150.662559 
L 674.446876 153.335362 
L 675.107846 161.272315 
L 675.439093 163.117033 
L 675.770847 161.668289 
L 676.769135 149.585427 
L 677.1029 149.673885 
L 677.771922 151.533838 
L 678.107173 151.258696 
L 678.442915 149.53285 
L 678.779146 146.52855 
L 679.115866 144.608217 
L 679.513182 146.316759 
L 679.513182 146.316759 
" clip-path="url(#p7a30771c12)" style="fill: none; stroke: #2ca02c; stroke-width: 0.9; stroke-linecap: square"/>
   </g>
   <g id="line2d_38">
    <path d="M 85.776818 136.394818 
L 86.115305 136.310329 
L 86.454261 135.185482 
L 86.793685 134.551362 
L 87.133576 134.963606 
L 87.473934 135.754085 
L 87.814758 136.184791 
L 88.156046 135.987726 
L 88.840013 135.039949 
L 89.182689 135.061868 
L 90.213478 136.388971 
L 90.557991 136.510045 
L 91.248384 136.506845 
L 91.594263 136.655738 
L 92.63461 137.475463 
L 93.330423 137.644554 
L 94.377491 137.824498 
L 95.077754 137.959748 
L 96.13145 137.792078 
L 97.542487 137.432385 
L 99.315989 136.625373 
L 102.534994 135.093985 
L 104.337887 134.49021 
L 105.787551 134.253648 
L 107.243664 134.221146 
L 108.339932 134.356406 
L 109.805916 134.78585 
L 110.904028 135.336056 
L 111.996601 136.164431 
L 113.080392 137.28717 
L 114.152658 138.748625 
L 115.21104 140.609441 
L 116.597142 143.527125 
L 118.286395 147.294566 
L 119.934438 150.197884 
L 120.584417 152.357662 
L 121.551515 156.007382 
L 121.872074 156.255459 
L 122.191845 153.757508 
L 122.510904 150.025384 
L 122.829346 148.22959 
L 123.147294 150.861753 
L 124.416341 178.491116 
L 124.732902 178.001125 
L 125.048864 174.72953 
L 125.993012 157.156786 
L 126.306952 157.686133 
L 127.248362 170.739103 
L 127.562232 171.372029 
L 127.876195 170.201417 
L 128.190308 166.43398 
L 128.504643 158.14708 
L 128.819244 146.638979 
L 129.134121 140.229127 
L 129.449257 142.352344 
L 130.080049 151.063646 
L 130.395569 150.972949 
L 130.711155 148.077257 
L 131.658799 134.087699 
L 131.975149 132.94142 
L 132.926034 134.067123 
L 133.561689 135.764139 
L 134.518236 139.898245 
L 134.837926 139.942045 
L 135.15801 136.37147 
L 135.47848 131.474247 
L 135.799336 129.978264 
L 136.120581 131.903195 
L 136.442225 135.083624 
L 136.764283 137.018625 
L 137.086764 136.897147 
L 138.056795 132.695678 
L 138.381014 133.496871 
L 139.030788 137.25314 
L 139.35635 138.419337 
L 140.335765 139.879324 
L 141.648103 144.28432 
L 142.307038 145.230635 
L 142.967779 146.209707 
L 143.962238 148.204121 
L 145.294446 151.211124 
L 145.628617 150.777933 
L 146.298306 146.601247 
L 146.633833 146.367203 
L 146.969831 149.225922 
L 147.980782 165.408911 
L 148.318725 167.465168 
L 148.657074 165.356679 
L 149.334886 153.856046 
L 149.674381 151.227992 
L 150.01431 153.07924 
L 150.695555 160.129051 
L 151.036878 162.125161 
L 151.378661 161.543413 
L 151.720902 158.266789 
L 152.406757 149.109181 
L 152.75037 147.833425 
L 153.09444 149.194521 
L 153.438963 151.101849 
L 153.783938 151.797138 
L 154.129362 150.707581 
L 155.168325 144.210705 
L 155.515541 143.878957 
L 155.863203 144.145951 
L 156.211309 144.123878 
L 156.55986 143.33127 
L 157.60816 139.190088 
L 157.958471 138.636269 
L 158.660394 138.237582 
L 159.364049 137.351823 
L 159.716466 137.390986 
L 160.421754 138.474025 
L 160.774289 138.394783 
L 161.126548 137.560502 
L 161.478391 135.887056 
L 162.180333 131.604515 
L 162.530224 134.052342 
L 163.574468 153.091214 
L 163.920358 155.268463 
L 164.264882 154.666233 
L 164.607867 150.085213 
L 164.949217 141.355967 
L 165.288882 135.687225 
L 165.62682 137.788654 
L 166.29738 151.874352 
L 166.629911 153.822658 
L 166.96054 149.943365 
L 167.94053 128.132767 
L 168.263074 127.133265 
L 168.901637 130.030467 
L 169.217515 131.542249 
L 169.531053 131.783031 
L 169.84221 129.626662 
L 170.457222 123.70648 
L 170.761025 122.511704 
L 171.062331 122.771004 
L 171.657352 124.602855 
L 171.951021 124.953008 
L 172.242103 124.75803 
L 172.530578 124.313538 
L 172.81643 124.090075 
L 173.099645 124.400385 
L 173.380209 125.196714 
L 174.205911 128.849418 
L 174.742993 131.598467 
L 175.269336 135.498598 
L 176.289777 145.820991 
L 178.427642 167.875448 
L 179.306628 174.394617 
L 180.14182 178.360486 
L 180.740065 180.441926 
L 180.934235 180.744256 
L 181.125808 180.803639 
L 181.501188 180.485568 
L 182.220841 179.430483 
L 182.565066 178.38512 
L 182.898979 177.437549 
L 183.06215 177.555926 
L 183.53753 178.84719 
L 183.69173 178.817194 
L 184.144486 177.967613 
L 184.588418 179.644628 
L 184.73592 178.985671 
L 186.128128 166.877205 
L 187.743287 157.476878 
L 188.154094 156.365831 
L 188.54009 156.05468 
L 188.789898 156.071987 
L 189.037715 156.337371 
L 189.2863 157.016125 
L 189.664843 158.871468 
L 189.922811 160.229863 
L 190.592341 161.813643 
L 190.73083 161.765209 
L 191.012473 160.676834 
L 191.30022 159.336237 
L 191.742978 158.274922 
L 192.198604 155.021026 
L 192.825317 151.505142 
L 193.309264 149.215189 
L 193.972429 146.344371 
L 194.141348 146.429904 
L 194.65544 148.795305 
L 194.829248 148.287144 
L 195.180559 146.486703 
L 195.536936 145.893815 
L 195.898476 145.400705 
L 196.265143 144.353365 
L 197.013681 140.529409 
L 197.203922 140.719018 
L 197.587975 142.186624 
L 197.781758 142.33713 
L 198.17279 141.443371 
L 198.370023 141.377699 
L 198.968486 142.866486 
L 199.170203 142.886095 
L 199.988022 141.997532 
L 200.403404 141.626078 
L 200.82303 140.666926 
L 202.106865 136.646734 
L 204.100612 129.350675 
L 205.012013 126.838853 
L 205.70547 125.501853 
L 206.172407 124.960628 
L 206.642998 124.783764 
L 207.117182 124.966171 
L 207.594188 125.52081 
L 208.072468 126.565258 
L 208.550672 128.079832 
L 209.265398 131.249799 
L 209.974334 135.627599 
L 211.137309 144.289867 
L 213.150578 160.854539 
L 215.024131 176.704241 
L 215.418501 178.256697 
L 215.612774 178.117705 
L 216.183897 176.034929 
L 216.370293 176.256353 
L 216.917207 177.865617 
L 217.271384 177.949908 
L 217.786992 177.920606 
L 218.120975 177.929342 
L 218.448031 177.356557 
L 219.240268 175.164032 
L 219.54881 174.842104 
L 219.853752 173.805772 
L 222.627022 159.363641 
L 223.240833 157.209015 
L 223.689749 156.43799 
L 223.985432 156.358273 
L 224.279123 156.542408 
L 225.155176 157.319561 
L 225.594019 157.319976 
L 226.183789 156.981558 
L 227.081885 156.312686 
L 227.385098 156.282789 
L 227.690777 156.421432 
L 227.999593 156.77353 
L 228.312325 157.387302 
L 228.790604 159.096898 
L 229.281484 160.565633 
L 229.61573 161.057058 
L 229.784866 160.940797 
L 229.955329 160.314171 
L 231.184692 151.003997 
L 232.100609 140.732974 
L 233.43394 130.675393 
L 233.825475 129.511598 
L 234.022936 129.316948 
L 234.62198 129.287267 
L 234.823863 129.386864 
L 235.230895 130.011874 
L 237.330183 135.15998 
L 237.980266 136.661286 
L 238.861119 138.010585 
L 239.532108 138.562577 
L 240.211795 138.662258 
L 240.900034 138.510577 
L 241.363536 138.154138 
L 241.830728 137.807894 
L 242.065694 137.808995 
L 242.301569 137.974974 
L 242.776031 138.658018 
L 243.014613 138.55824 
L 243.49447 137.599157 
L 243.977896 136.419319 
L 244.464846 135.674068 
L 244.955276 134.351274 
L 245.449144 133.140093 
L 246.196309 132.702657 
L 246.951013 131.781469 
L 247.204237 131.801829 
L 247.968821 132.170786 
L 248.482598 132.248203 
L 248.999584 132.575432 
L 251.364927 134.921978 
L 253.247496 136.847705 
L 254.339602 137.646706 
L 255.166332 138.088431 
L 255.999528 138.303041 
L 257.120374 138.350587 
L 257.968344 138.216468 
L 259.970927 137.559595 
L 261.713586 136.959859 
L 262.888474 136.680081 
L 264.371554 136.579736 
L 266.172064 136.771666 
L 268.607222 137.119454 
L 269.222046 137.31291 
L 269.839247 137.146571 
L 270.148734 136.91757 
L 270.769473 136.102941 
L 271.080723 136.492736 
L 272.331577 140.887776 
L 272.645734 141.283774 
L 272.960455 140.237412 
L 273.591393 136.872161 
L 273.907321 136.516122 
L 274.539243 137.53118 
L 274.854919 137.44125 
L 275.170206 136.571678 
L 275.799071 133.793411 
L 276.112394 132.895562 
L 276.42482 132.493462 
L 277.046545 132.23427 
L 277.355643 131.886566 
L 278.274787 130.47589 
L 278.578177 130.304513 
L 279.180026 130.351244 
L 280.069509 130.592488 
L 280.362229 130.838907 
L 280.941708 131.779595 
L 281.512947 133.299772 
L 282.353673 136.40037 
L 283.174207 140.668653 
L 284.751608 151.184832 
L 286.481667 162.903018 
L 287.187606 166.723396 
L 287.873063 169.631212 
L 288.318972 171.843784 
L 288.538769 172.431208 
L 288.972395 172.874747 
L 289.186334 173.425239 
L 289.608758 176.563215 
L 290.024507 179.1274 
L 290.230119 179.079219 
L 290.838894 176.851633 
L 291.238544 175.044892 
L 292.41147 167.621114 
L 293.361023 164.458304 
L 294.100607 162.612596 
L 295.524718 159.806698 
L 296.713209 157.686183 
L 297.861032 155.55347 
L 298.184462 155.180518 
L 298.506547 155.100617 
L 298.827369 155.348802 
L 299.306225 156.246997 
L 299.782508 157.006262 
L 300.099051 157.112757 
L 300.573022 157.183185 
L 301.200709 157.633146 
L 302.126188 158.420682 
L 302.582671 158.717018 
L 303.036646 159.321589 
L 305.005298 162.416442 
L 305.622735 162.560464 
L 305.934764 163.060971 
L 306.875242 165.646187 
L 308.120427 168.773082 
L 308.893716 169.544363 
L 309.048183 169.53212 
L 309.202631 169.295201 
L 309.511548 168.260448 
L 311.685109 159.266727 
L 312.3115 157.959545 
L 312.784107 157.412393 
L 313.260108 157.16875 
L 313.740149 157.158075 
L 314.386753 157.362157 
L 314.712352 157.686669 
L 315.201911 158.239035 
L 315.692177 158.445176 
L 316.346888 158.430355 
L 317.167519 158.252921 
L 317.993695 157.779369 
L 319.505805 156.962847 
L 319.847324 156.953363 
L 320.191377 157.165811 
L 320.538481 157.614884 
L 320.889299 158.429476 
L 321.424013 160.216668 
L 321.604752 160.269245 
L 321.970127 159.681997 
L 322.154743 159.15555 
L 322.340607 158.123469 
L 322.715901 153.629868 
L 323.095675 149.016666 
L 324.260783 140.246219 
L 324.657646 137.733202 
L 325.058776 134.838854 
L 325.464175 133.246402 
L 326.496201 130.231388 
L 326.705752 130.010264 
L 326.91634 130.014966 
L 327.768977 130.532203 
L 328.201393 131.205642 
L 331.108014 137.714247 
L 331.801651 138.526001 
L 332.268693 138.793669 
L 332.739386 138.826767 
L 333.213691 138.680701 
L 333.691573 138.35733 
L 334.415024 137.554959 
L 335.63817 135.749072 
L 337.134023 133.539615 
L 337.89319 132.686233 
L 338.659711 132.142107 
L 339.433484 131.922298 
L 339.953312 131.973003 
L 340.476289 132.201102 
L 341.266595 132.817986 
L 342.063826 133.74738 
L 343.137416 135.388912 
L 346.987678 141.817548 
L 348.11341 143.08206 
L 348.96496 143.688237 
L 349.82122 143.971417 
L 350.392471 143.953568 
L 350.962579 143.70048 
L 351.530457 143.182986 
L 352.095145 142.353178 
L 352.655797 141.178951 
L 353.48759 138.721108 
L 354.306449 135.360106 
L 355.375147 129.955083 
L 357.422828 117.973098 
L 359.107408 107.973609 
L 359.570384 105.429943 
L 360.025583 100.708413 
L 360.694849 92.303735 
L 361.132781 90.1167 
L 361.56455 85.462432 
L 361.990249 80.609785 
L 362.617097 75.720305 
L 362.822892 73.350993 
L 363.229862 63.752408 
L 363.63124 54.126517 
L 364.027847 49.561285 
L 364.807024 43.126802 
L 365.189077 41.399035 
L 365.378223 41.346003 
L 365.752928 42.132669 
L 365.938566 41.989023 
L 367.029838 38.791843 
L 368.940319 37.405973 
L 369.442842 37.714229 
L 370.265612 38.272462 
L 371.075154 39.906477 
L 372.501376 40.372714 
L 373.280468 39.589189 
L 373.589839 39.892947 
L 374.203859 41.046886 
L 375.417284 44.076575 
L 375.71932 45.486962 
L 376.628643 51.716848 
L 377.087323 52.767633 
L 377.549859 54.577565 
L 378.645378 60.081083 
L 379.120601 64.22773 
L 379.279603 64.601332 
L 379.438871 64.493986 
L 380.238977 63.000517 
L 380.560814 62.455757 
L 380.883645 61.280234 
L 382.670548 52.416175 
L 383.486266 50.286376 
L 384.958236 46.330769 
L 385.449663 45.557709 
L 385.941677 45.203198 
L 386.434667 45.050289 
L 386.928956 45.125946 
L 387.424932 45.441085 
L 388.256667 46.096107 
L 389.09586 46.338043 
L 389.773424 46.607369 
L 390.114543 46.788691 
L 390.802334 47.757269 
L 392.381444 49.998708 
L 392.560366 50.423092 
L 392.740197 51.14676 
L 393.102825 54.598432 
L 393.655236 64.69449 
L 394.793768 92.337435 
L 396.378721 128.559716 
L 397.615436 144.655916 
L 398.248341 147.529027 
L 398.675543 148.944921 
L 398.890704 149.32618 
L 399.106897 149.440142 
L 399.542349 149.161571 
L 399.981842 148.596409 
L 400.425324 147.610801 
L 401.09791 145.239129 
L 402.23813 140.226986 
L 403.637332 134.052874 
L 404.349278 131.939919 
L 405.553661 129.476789 
L 406.041524 129.24746 
L 406.779753 129.075103 
L 407.027536 129.328827 
L 407.525646 130.566659 
L 408.027122 131.967033 
L 408.785568 133.550392 
L 410.065974 137.302861 
L 411.62884 140.451783 
L 412.420846 141.3591 
L 412.952702 141.785851 
L 413.487606 141.986885 
L 414.02553 141.966109 
L 414.838021 141.64422 
L 415.657156 140.972392 
L 416.759522 139.66522 
L 420.134646 135.432095 
L 420.993966 134.852831 
L 422.439613 134.218063 
L 422.730736 134.276146 
L 423.022518 134.519125 
L 423.608049 135.283088 
L 424.196185 135.635337 
L 424.786901 135.837207 
L 425.975987 135.982214 
L 426.574318 136.487863 
L 426.874423 136.588527 
L 427.778466 136.476501 
L 429.297496 136.972643 
L 431.449471 136.833067 
L 434.258611 136.091854 
L 435.522027 135.737511 
L 436.157114 135.531536 
L 436.475495 135.616268 
L 437.113923 136.116139 
L 437.754562 136.924572 
L 438.075709 136.502671 
L 439.042211 133.479805 
L 439.364971 133.098887 
L 439.687728 133.24325 
L 440.010316 134.561034 
L 440.332584 136.588101 
L 440.65439 137.824432 
L 440.975601 137.781547 
L 441.296091 137.23991 
L 441.615744 137.073092 
L 441.934445 137.656068 
L 443.197673 142.312099 
L 443.821036 142.874473 
L 444.130364 143.192937 
L 445.350312 145.17382 
L 445.65064 145.334434 
L 446.539552 145.316346 
L 447.12163 145.088691 
L 447.409386 144.799996 
L 447.97815 143.702759 
L 448.537707 142.05203 
L 449.08783 139.900709 
L 449.894876 135.457229 
L 450.936136 127.916932 
L 454.259148 102.530479 
L 455.532203 95.753472 
L 456.716968 84.821255 
L 457.648055 69.19465 
L 457.829585 68.572667 
L 458.009842 68.665999 
L 458.188944 68.290362 
L 458.367001 66.324996 
L 459.419358 45.939862 
L 459.939268 42.890487 
L 460.626713 39.542277 
L 461.134347 38.317128 
L 461.797392 37.54201 
L 462.603342 36.888611 
L 462.918817 36.860892 
L 463.385273 37.193667 
L 463.692084 37.377726 
L 464.146848 37.509226 
L 464.447137 38.015102 
L 465.930794 42.208575 
L 466.669548 44.120079 
L 467.561164 45.539855 
L 468.46575 47.935391 
L 469.079605 50.56823 
L 469.547278 53.21984 
L 470.022177 57.114851 
L 470.505231 62.59652 
L 470.997509 70.768573 
L 473.073855 115.036604 
L 473.620327 121.145668 
L 473.804787 121.889244 
L 473.990361 122.126194 
L 474.177043 122.583742 
L 474.553713 124.193048 
L 474.743693 124.454477 
L 474.934763 124.114466 
L 475.320184 122.502781 
L 475.51456 122.305074 
L 475.710069 123.310123 
L 476.104512 126.241245 
L 476.50353 127.031274 
L 476.907067 127.713144 
L 477.52062 129.764467 
L 477.727285 129.830929 
L 478.989118 128.742685 
L 479.633818 128.542021 
L 479.85074 128.949744 
L 480.950348 132.900824 
L 481.847584 137.826518 
L 482.301882 139.72601 
L 483.451618 146.494059 
L 483.682793 147.731853 
L 484.145195 152.218825 
L 484.837333 159.034699 
L 486.439401 169.150023 
L 487.569193 172.238898 
L 488.459376 173.618079 
L 488.679637 173.803689 
L 488.898977 173.705792 
L 489.117423 173.319779 
L 489.551751 171.904236 
L 491.468658 164.442084 
L 491.886933 163.855909 
L 492.508205 163.419416 
L 493.323991 162.82103 
L 494.125714 161.861622 
L 495.504478 160.172252 
L 496.088431 159.788688 
L 498.18558 159.324512 
L 499.500911 158.692996 
L 500.251195 158.480484 
L 500.626426 158.581086 
L 501.940452 159.593017 
L 504.008778 161.221926 
L 504.573872 161.358247 
L 505.329538 161.289445 
L 506.088397 160.732718 
L 507.233665 160.094283 
L 507.617249 160.229311 
L 508.192845 160.988079 
L 508.575841 161.375556 
L 509.148688 161.528653 
L 509.719842 161.512792 
L 510.28987 161.241066 
L 510.85948 160.93843 
L 511.429092 160.710117 
L 513.138712 159.390997 
L 513.710655 158.850311 
L 514.092713 158.8357 
L 514.666136 158.841036 
L 515.430494 158.88485 
L 516.0037 158.841102 
L 517.918239 158.092235 
L 518.302368 158.197682 
L 519.070045 158.786499 
L 520.410125 159.06121 
L 521.175792 158.953708 
L 522.326155 159.226287 
L 522.709482 159.710273 
L 523.663221 161.204927 
L 525.166486 163.056353 
L 525.722025 163.58041 
L 526.273851 164.172332 
L 527.005037 164.525007 
L 527.369369 164.596765 
L 527.73344 164.236054 
L 529.010741 162.360576 
L 529.929913 161.040255 
L 530.114593 160.967864 
L 530.299549 161.037861 
L 530.669926 161.529227 
L 531.963055 163.587725 
L 532.3307 163.619895 
L 533.795261 163.082895 
L 534.893499 161.836651 
L 535.631062 160.489823 
L 536.562087 158.968454 
L 537.125112 158.400825 
L 537.502359 158.390474 
L 537.881487 158.667815 
L 539.817695 160.57202 
L 540.214752 160.807489 
L 540.615222 161.27375 
L 541.018727 162.280073 
L 541.423991 163.433649 
L 541.626844 163.533559 
L 541.82964 162.978507 
L 542.234519 159.801746 
L 542.637621 153.897651 
L 543.038068 144.134673 
L 543.632238 128.226952 
L 544.600091 109.119551 
L 545.53289 98.180625 
L 546.073475 93.497222 
L 546.42554 92.140267 
L 546.770885 90.961797 
L 547.604779 86.755211 
L 548.084808 85.813713 
L 548.396512 82.910193 
L 550.023018 56.637226 
L 550.453908 49.95205 
L 550.883704 46.182054 
L 551.313067 44.284847 
L 551.886173 42.031571 
L 552.317132 40.393885 
L 552.749901 39.570133 
L 553.03971 39.382612 
L 553.330221 39.507583 
L 554.046147 40.114645 
L 554.323424 39.863731 
L 554.45998 39.904426 
L 554.729198 40.44106 
L 555.894083 43.910272 
L 556.274926 45.082324 
L 557.033433 45.812272 
L 557.53685 47.097822 
L 558.163872 49.26546 
L 558.414681 51.15271 
L 558.666622 54.985024 
L 559.177992 68.939998 
L 560.256817 100.065231 
L 561.129754 112.965387 
L 561.43278 115.174274 
L 561.741611 116.881809 
L 562.376143 121.578001 
L 563.032531 124.206318 
L 563.538804 126.554975 
L 564.76558 129.761602 
L 565.127506 130.250091 
L 566.43278 131.172623 
L 566.816449 131.292114 
L 567.79584 131.99148 
L 568.599647 132.930656 
L 569.629022 134.738463 
L 573.09811 142.175116 
L 573.776985 143.040313 
L 574.46448 143.573762 
L 574.927528 143.725896 
L 575.394302 143.706936 
L 575.864761 143.51734 
L 576.338862 143.148223 
L 577.056759 142.294269 
L 577.782634 141.094469 
L 579.009815 138.47248 
L 582.040848 131.360492 
L 583.077212 129.435696 
L 583.600129 128.980667 
L 584.389923 128.62797 
L 584.918437 128.632555 
L 585.446913 129.005486 
L 585.974157 129.65437 
L 586.499121 130.649854 
L 587.020886 132.05471 
L 587.795795 134.897317 
L 588.811007 140.000555 
L 590.286199 149.315551 
L 591.921395 159.50982 
L 592.591451 162.897202 
L 593.456617 165.847196 
L 594.085484 167.732074 
L 595.493933 173.134832 
L 596.076503 176.92485 
L 596.268599 177.273481 
L 596.459879 176.967245 
L 596.840478 175.248816 
L 597.407672 170.912109 
L 597.970309 167.080624 
L 598.525824 165.026769 
L 599.071112 163.856227 
L 599.779799 162.851682 
L 601.308571 160.91425 
L 601.966333 159.674886 
L 603.094904 157.535069 
L 603.572495 157.001401 
L 604.047574 156.822608 
L 605.149746 156.943216 
L 606.248117 157.106516 
L 606.718321 157.690849 
L 608.116132 160.200359 
L 609.031359 161.842574 
L 609.935367 162.862671 
L 610.385352 163.467906 
L 610.685594 163.451377 
L 612.049848 162.428775 
L 612.66611 161.532269 
L 612.976359 161.457711 
L 613.444547 161.473331 
L 614.552197 161.015044 
L 615.034052 160.758158 
L 615.845794 160.21919 
L 616.999521 159.750291 
L 617.835677 159.127881 
L 619.534171 157.625016 
L 621.967951 155.950309 
L 622.677489 155.598452 
L 623.21518 155.571405 
L 623.758604 155.790178 
L 624.309122 156.275889 
L 624.868654 157.173831 
L 625.247698 158.193198 
L 625.826296 160.204133 
L 626.021781 160.407466 
L 626.218497 160.280587 
L 626.416396 159.960661 
L 626.615449 159.400799 
L 626.815628 158.287695 
L 627.219254 153.308391 
L 628.039358 140.793947 
L 629.30138 125.034559 
L 629.9466 121.019271 
L 630.381928 118.983916 
L 630.821342 117.800395 
L 631.264786 117.37739 
L 631.487998 117.383449 
L 631.712193 117.56667 
L 631.937361 118.010434 
L 632.390587 119.676516 
L 633.772948 126.097814 
L 634.476656 129.4574 
L 634.950394 131.129274 
L 635.427792 132.166869 
L 635.90882 132.394498 
L 636.150676 132.852175 
L 637.126739 138.299701 
L 637.372875 138.40124 
L 637.619853 138.661655 
L 638.365824 141.052856 
L 638.616155 141.247069 
L 639.62577 141.053992 
L 640.135498 140.764711 
L 640.906155 139.651507 
L 642.73215 136.911169 
L 643.260883 136.424015 
L 643.792686 136.429987 
L 644.059732 136.593982 
L 644.327536 136.479043 
L 644.865418 135.465771 
L 645.135502 135.405189 
L 645.406356 136.729284 
L 645.677988 139.301668 
L 646.223611 146.994943 
L 646.497587 148.915637 
L 646.77231 148.918397 
L 647.600608 146.362055 
L 647.878039 146.733166 
L 648.156138 146.883126 
L 648.71438 145.748112 
L 648.994543 145.776125 
L 649.275407 146.161546 
L 649.556971 146.302469 
L 649.839232 145.735263 
L 650.405837 143.919783 
L 650.690174 143.856026 
L 651.547289 145.341134 
L 651.834351 145.280332 
L 652.410492 144.826001 
L 652.699566 144.750499 
L 653.279702 144.816188 
L 653.862469 144.454938 
L 654.447845 144.039707 
L 655.035805 143.981918 
L 655.62633 144.090389 
L 655.922546 143.578108 
L 656.516878 141.48377 
L 656.814994 141.27669 
L 657.113745 142.710407 
L 657.713175 148.873369 
L 658.013855 152.631514 
L 658.315164 154.581035 
L 658.617082 153.681999 
L 659.222673 147.429724 
L 659.526338 146.083932 
L 659.830589 146.937277 
L 660.135436 148.330064 
L 660.440886 148.862562 
L 660.74694 148.650124 
L 661.053598 148.048144 
L 661.668715 145.083463 
L 662.286224 141.94235 
L 662.595872 141.299413 
L 662.906112 141.392428 
L 663.21694 141.656727 
L 663.528349 141.69445 
L 663.840335 141.472847 
L 664.466024 140.865681 
L 665.408823 140.74995 
L 666.040188 140.571939 
L 667.309642 140.839154 
L 667.947688 140.847439 
L 668.26753 140.950608 
L 668.587916 141.392213 
L 669.230312 143.174937 
L 669.552317 143.671054 
L 670.197931 143.498258 
L 670.521539 142.309072 
L 670.845685 140.29165 
L 671.17038 140.671215 
L 671.495641 145.118698 
L 672.147939 156.320088 
L 672.802535 163.043583 
L 673.130562 162.018868 
L 673.787856 151.226901 
L 674.117136 149.571671 
L 674.446876 151.87504 
L 675.107846 158.455692 
L 675.439093 159.909626 
L 675.770847 158.769786 
L 676.769135 148.703218 
L 677.1029 148.84463 
L 677.771922 150.612085 
L 678.107173 150.390951 
L 678.442915 148.839079 
L 678.779146 146.078389 
L 679.115866 144.298166 
L 679.513182 145.952474 
L 679.513182 145.952474 
" clip-path="url(#p7a30771c12)" style="fill: none; stroke: #d62728; stroke-opacity: 0.8; stroke-width: 0.9; stroke-linecap: square"/>
   </g>
   <g id="patch_3">
    <path d="M 56.09 246.04 
L 56.09 26.88 
" style="fill: none; stroke: #000000; stroke-width: 0.8; stroke-linejoin: miter; stroke-linecap: square"/>
   </g>
   <g id="patch_4">
    <path d="M 709.2 246.04 
L 709.2 26.88 
" style="fill: none; stroke: #000000; stroke-width: 0.8; stroke-linejoin: miter; stroke-linecap: square"/>
   </g>
   <g id="patch_5">
    <path d="M 56.09 246.04 
L 709.2 246.04 
" style="fill: none; stroke: #000000; stroke-width: 0.8; stroke-linejoin: miter; stroke-linecap: square"/>
   </g>
   <g id="patch_6">
    <path d="M 56.09 26.88 
L 709.2 26.88 
" style="fill: none; stroke: #000000; stroke-width: 0.8; stroke-linejoin: miter; stroke-linecap: square"/>
   </g>
   <g id="text_21">
    <!-- steering-link loads over one Anderstorp Raceway lap -->
    <g transform="translate(224.036875 20.88) scale(0.12 -0.12)">
     <defs>
      <path id="DejaVuSans-67" d="M 2906 1791 
Q 2906 2416 2648 2759 
Q 2391 3103 1925 3103 
Q 1463 3103 1205 2759 
Q 947 2416 947 1791 
Q 947 1169 1205 825 
Q 1463 481 1925 481 
Q 2391 481 2648 825 
Q 2906 1169 2906 1791 
z
M 3481 434 
Q 3481 -459 3084 -895 
Q 2688 -1331 1869 -1331 
Q 1566 -1331 1297 -1286 
Q 1028 -1241 775 -1147 
L 775 -588 
Q 1028 -725 1275 -790 
Q 1522 -856 1778 -856 
Q 2344 -856 2625 -561 
Q 2906 -266 2906 331 
L 2906 616 
Q 2728 306 2450 153 
Q 2172 0 1784 0 
Q 1141 0 747 490 
Q 353 981 353 1791 
Q 353 2603 747 3093 
Q 1141 3584 1784 3584 
Q 2172 3584 2450 3431 
Q 2728 3278 2906 2969 
L 2906 3500 
L 3481 3500 
L 3481 434 
z
" transform="scale(0.015625)"/>
      <path id="DejaVuSans-6c" d="M 603 4863 
L 1178 4863 
L 1178 0 
L 603 0 
L 603 4863 
z
" transform="scale(0.015625)"/>
      <path id="DejaVuSans-76" d="M 191 3500 
L 800 3500 
L 1894 563 
L 2988 3500 
L 3597 3500 
L 2284 0 
L 1503 0 
L 191 3500 
z
" transform="scale(0.015625)"/>
      <path id="DejaVuSans-41" d="M 2188 4044 
L 1331 1722 
L 3047 1722 
L 2188 4044 
z
M 1831 4666 
L 2547 4666 
L 4325 0 
L 3669 0 
L 3244 1197 
L 1141 1197 
L 716 0 
L 50 0 
L 1831 4666 
z
" transform="scale(0.015625)"/>
      <path id="DejaVuSans-70" d="M 1159 525 
L 1159 -1331 
L 581 -1331 
L 581 3500 
L 1159 3500 
L 1159 2969 
Q 1341 3281 1617 3432 
Q 1894 3584 2278 3584 
Q 2916 3584 3314 3078 
Q 3713 2572 3713 1747 
Q 3713 922 3314 415 
Q 2916 -91 2278 -91 
Q 1894 -91 1617 61 
Q 1341 213 1159 525 
z
M 3116 1747 
Q 3116 2381 2855 2742 
Q 2594 3103 2138 3103 
Q 1681 3103 1420 2742 
Q 1159 2381 1159 1747 
Q 1159 1113 1420 752 
Q 1681 391 2138 391 
Q 2594 391 2855 752 
Q 3116 1113 3116 1747 
z
" transform="scale(0.015625)"/>
      <path id="DejaVuSans-52" d="M 2841 2188 
Q 3044 2119 3236 1894 
Q 3428 1669 3622 1275 
L 4263 0 
L 3584 0 
L 2988 1197 
Q 2756 1666 2539 1819 
Q 2322 1972 1947 1972 
L 1259 1972 
L 1259 0 
L 628 0 
L 628 4666 
L 2053 4666 
Q 2853 4666 3247 4331 
Q 3641 3997 3641 3322 
Q 3641 2881 3436 2590 
Q 3231 2300 2841 2188 
z
M 1259 4147 
L 1259 2491 
L 2053 2491 
Q 2509 2491 2742 2702 
Q 2975 2913 2975 3322 
Q 2975 3731 2742 3939 
Q 2509 4147 2053 4147 
L 1259 4147 
z
" transform="scale(0.015625)"/>
      <path id="DejaVuSans-77" d="M 269 3500 
L 844 3500 
L 1563 769 
L 2278 3500 
L 2956 3500 
L 3675 769 
L 4391 3500 
L 4966 3500 
L 4050 0 
L 3372 0 
L 2619 2869 
L 1863 0 
L 1184 0 
L 269 3500 
z
" transform="scale(0.015625)"/>
      <path id="DejaVuSans-79" d="M 2059 -325 
Q 1816 -950 1584 -1140 
Q 1353 -1331 966 -1331 
L 506 -1331 
L 506 -850 
L 844 -850 
Q 1081 -850 1212 -737 
Q 1344 -625 1503 -206 
L 1606 56 
L 191 3500 
L 800 3500 
L 1894 763 
L 2988 3500 
L 3597 3500 
L 2059 -325 
z
" transform="scale(0.015625)"/>
     </defs>
     <use xlink:href="#DejaVuSans-73"/>
     <use xlink:href="#DejaVuSans-74" transform="translate(52.099609 0)"/>
     <use xlink:href="#DejaVuSans-65" transform="translate(91.308594 0)"/>
     <use xlink:href="#DejaVuSans-65" transform="translate(152.832031 0)"/>
     <use xlink:href="#DejaVuSans-72" transform="translate(214.355469 0)"/>
     <use xlink:href="#DejaVuSans-69" transform="translate(255.46875 0)"/>
     <use xlink:href="#DejaVuSans-6e" transform="translate(283.251953 0)"/>
     <use xlink:href="#DejaVuSans-67" transform="translate(346.630859 0)"/>
     <use xlink:href="#DejaVuSans-2d" transform="translate(410.107422 0)"/>
     <use xlink:href="#DejaVuSans-6c" transform="translate(446.191406 0)"/>
     <use xlink:href="#DejaVuSans-69" transform="translate(473.974609 0)"/>
     <use xlink:href="#DejaVuSans-6e" transform="translate(501.757812 0)"/>
     <use xlink:href="#DejaVuSans-6b" transform="translate(565.136719 0)"/>
     <use xlink:href="#DejaVuSans-20" transform="translate(623.046875 0)"/>
     <use xlink:href="#DejaVuSans-6c" transform="translate(654.833984 0)"/>
     <use xlink:href="#DejaVuSans-6f" transform="translate(682.617188 0)"/>
     <use xlink:href="#DejaVuSans-61" transform="translate(743.798828 0)"/>
     <use xlink:href="#DejaVuSans-64" transform="translate(805.078125 0)"/>
     <use xlink:href="#DejaVuSans-73" transform="translate(868.554688 0)"/>
     <use xlink:href="#DejaVuSans-20" transform="translate(920.654297 0)"/>
     <use xlink:href="#DejaVuSans-6f" transform="translate(952.441406 0)"/>
     <use xlink:href="#DejaVuSans-76" transform="translate(1013.623047 0)"/>
     <use xlink:href="#DejaVuSans-65" transform="translate(1072.802734 0)"/>
     <use xlink:href="#DejaVuSans-72" transform="translate(1134.326172 0)"/>
     <use xlink:href="#DejaVuSans-20" transform="translate(1175.439453 0)"/>
     <use xlink:href="#DejaVuSans-6f" transform="translate(1207.226562 0)"/>
     <use xlink:href="#DejaVuSans-6e" transform="translate(1268.408203 0)"/>
     <use xlink:href="#DejaVuSans-65" transform="translate(1331.787109 0)"/>
     <use xlink:href="#DejaVuSans-20" transform="translate(1393.310547 0)"/>
     <use xlink:href="#DejaVuSans-41" transform="translate(1425.097656 0)"/>
     <use xlink:href="#DejaVuSans-6e" transform="translate(1493.505859 0)"/>
     <use xlink:href="#DejaVuSans-64" transform="translate(1556.884766 0)"/>
     <use xlink:href="#DejaVuSans-65" transform="translate(1620.361328 0)"/>
     <use xlink:href="#DejaVuSans-72" transform="translate(1681.884766 0)"/>
     <use xlink:href="#DejaVuSans-73" transform="translate(1722.998047 0)"/>
     <use xlink:href="#DejaVuSans-74" transform="translate(1775.097656 0)"/>
     <use xlink:href="#DejaVuSans-6f" transform="translate(1814.306641 0)"/>
     <use xlink:href="#DejaVuSans-72" transform="translate(1875.488281 0)"/>
     <use xlink:href="#DejaVuSans-70" transform="translate(1916.601562 0)"/>
     <use xlink:href="#DejaVuSans-20" transform="translate(1980.078125 0)"/>
     <use xlink:href="#DejaVuSans-52" transform="translate(2011.865234 0)"/>
     <use xlink:href="#DejaVuSans-61" transform="translate(2079.097656 0)"/>
     <use xlink:href="#DejaVuSans-63" transform="translate(2140.376953 0)"/>
     <use xlink:href="#DejaVuSans-65" transform="translate(2195.357422 0)"/>
     <use xlink:href="#DejaVuSans-77" transform="translate(2256.880859 0)"/>
     <use xlink:href="#DejaVuSans-61" transform="translate(2338.667969 0)"/>
     <use xlink:href="#DejaVuSans-79" transform="translate(2399.947266 0)"/>
     <use xlink:href="#DejaVuSans-20" transform="translate(2459.126953 0)"/>
     <use xlink:href="#DejaVuSans-6c" transform="translate(2490.914062 0)"/>
     <use xlink:href="#DejaVuSans-61" transform="translate(2518.697266 0)"/>
     <use xlink:href="#DejaVuSans-70" transform="translate(2579.976562 0)"/>
    </g>
   </g>
   <g id="legend_1">
    <g id="patch_7">
     <path d="M 630.755 56.765 
L 703.6 56.765 
Q 705.2 56.765 705.2 55.165 
L 705.2 32.48 
Q 705.2 30.88 703.6 30.88 
L 630.755 30.88 
Q 629.155 30.88 629.155 32.48 
L 629.155 55.165 
Q 629.155 56.765 630.755 56.765 
z
" style="fill: #ffffff; opacity: 0.8; stroke: #cccccc; stroke-linejoin: miter"/>
    </g>
    <g id="line2d_39">
     <path d="M 632.355 37.35875 
L 640.355 37.35875 
L 648.355 37.35875 
" style="fill: none; stroke: #2ca02c; stroke-width: 0.9; stroke-linecap: square"/>
    </g>
    <g id="text_22">
     <!-- tie rod left -->
     <g transform="translate(654.755 40.15875) scale(0.08 -0.08)">
      <use xlink:href="#DejaVuSans-74"/>
      <use xlink:href="#DejaVuSans-69" transform="translate(39.208984 0)"/>
      <use xlink:href="#DejaVuSans-65" transform="translate(66.992188 0)"/>
      <use xlink:href="#DejaVuSans-20" transform="translate(128.515625 0)"/>
      <use xlink:href="#DejaVuSans-72" transform="translate(160.302734 0)"/>
      <use xlink:href="#DejaVuSans-6f" transform="translate(199.166016 0)"/>
      <use xlink:href="#DejaVuSans-64" transform="translate(260.347656 0)"/>
      <use xlink:href="#DejaVuSans-20" transform="translate(323.824219 0)"/>
      <use xlink:href="#DejaVuSans-6c" transform="translate(355.611328 0)"/>
      <use xlink:href="#DejaVuSans-65" transform="translate(383.394531 0)"/>
      <use xlink:href="#DejaVuSans-66" transform="translate(444.917969 0)"/>
      <use xlink:href="#DejaVuSans-74" transform="translate(478.373047 0)"/>
     </g>
    </g>
    <g id="line2d_40">
     <path d="M 632.355 49.10125 
L 640.355 49.10125 
L 648.355 49.10125 
" style="fill: none; stroke: #d62728; stroke-opacity: 0.8; stroke-width: 0.9; stroke-linecap: square"/>
    </g>
    <g id="text_23">
     <!-- tie rod right -->
     <g transform="translate(654.755 51.90125) scale(0.08 -0.08)">
      <defs>
       <path id="DejaVuSans-68" d="M 3513 2113 
L 3513 0 
L 2938 0 
L 2938 2094 
Q 2938 2591 2744 2837 
Q 2550 3084 2163 3084 
Q 1697 3084 1428 2787 
Q 1159 2491 1159 1978 
L 1159 0 
L 581 0 
L 581 4863 
L 1159 4863 
L 1159 2956 
Q 1366 3272 1645 3428 
Q 1925 3584 2291 3584 
Q 2894 3584 3203 3211 
Q 3513 2838 3513 2113 
z
" transform="scale(0.015625)"/>
      </defs>
      <use xlink:href="#DejaVuSans-74"/>
      <use xlink:href="#DejaVuSans-69" transform="translate(39.208984 0)"/>
      <use xlink:href="#DejaVuSans-65" transform="translate(66.992188 0)"/>
      <use xlink:href="#DejaVuSans-20" transform="translate(128.515625 0)"/>
      <use xlink:href="#DejaVuSans-72" transform="translate(160.302734 0)"/>
      <use xlink:href="#DejaVuSans-6f" transform="translate(199.166016 0)"/>
      <use xlink:href="#DejaVuSans-64" transform="translate(260.347656 0)"/>
      <use xlink:href="#DejaVuSans-20" transform="translate(323.824219 0)"/>
      <use xlink:href="#DejaVuSans-72" transform="translate(355.611328 0)"/>
      <use xlink:href="#DejaVuSans-69" transform="translate(396.724609 0)"/>
      <use xlink:href="#DejaVuSans-67" transform="translate(424.507812 0)"/>
      <use xlink:href="#DejaVuSans-68" transform="translate(487.984375 0)"/>
      <use xlink:href="#DejaVuSans-74" transform="translate(551.363281 0)"/>
     </g>
    </g>
   </g>
  </g>
 </g>
 <defs>
  <clipPath id="p7a30771c12">
   <rect x="56.09" y="26.88" width="653.11" height="219.16"/>
  </clipPath>
 </defs>
</svg>
