<?xml version="1.0" encoding="utf-8" standalone="no"?>
<!DOCTYPE svg PUBLIC "-//W3C//DTD SVG 1.1//EN"
  "http://www.w3.org/Graphics/SVG/1.1/DTD/svg11.dtd">
<svg xmlns:xlink="http://www.w3.org/1999/xlink" width="648pt" height="302.4pt" viewBox="0 0 648 302.4" xmlns="http://www.w3.org/2000/svg" version="1.1">
 <metadata>
  <rdf:RDF xmlns:dc="http://purl.org/dc/elements/1.1/" xmlns:cc="http://creativecommons.org/ns#" xmlns:rdf="http://www.w3.org/1999/02/22-rdf-syntax-ns#">
   <cc:Work>
    <dc:type rdf:resource="http://purl.org/dc/dcmitype/StillImage"/>
    <dc:date>2026-07-03T09:36:01.375802</dc:date>
    <dc:format>image/svg+xml</dc:format>
    <dc:creator>
     <cc:Agent>
      <dc:title>Matplotlib v3.10.8, https://matplotlib.org/</dc:title>
     </cc:Agent>
    </dc:creator>
   </cc:Work>
  </rdf:RDF>
 </metadata>
 <defs>
  <style type="text/css">*{stroke-linejoin: round; stroke-linecap: butt}</style>
 </defs>
 <g id="figure_1">
  <g id="patch_1">
   <path d="M 0 302.4 
L 648 302.4 
L 648 0 
L 0 0 
z
" style="fill: #ffffff"/>
  </g>
  <g id="axes_1">
   <g id="patch_2">
    <path d="M 56.09 260.44 
L 637.2 260.44 
L 637.2 26.88 
L 56.09 26.88 
z
" style="fill: #ffffff"/>
   </g>
   <g id="matplotlib.axis_1">
    <g id="xtick_1">
     <g id="line2d_1">
      <path d="M 82.504091 260.44 
L 82.504091 26.88 
" clip-path="url(#p359e03a017)" style="fill: none; stroke: #b0b0b0; stroke-opacity: 0.3; stroke-width: 0.8; stroke-linecap: square"/>
     </g>
     <g id="line2d_2">
      <defs>
       <path id="m5872d80d03" d="M 0 0 
L 0 3.5 
" style="stroke: #000000; stroke-width: 0.8"/>
      </defs>
      <g>
       <use xlink:href="#m5872d80d03" x="82.504091" y="260.44" style="stroke: #000000; stroke-width: 0.8"/>
      </g>
     </g>
     <g id="text_1">
      <!-- 0 -->
      <g transform="translate(79.322841 275.038438) scale(0.1 -0.1)">
       <defs>
        <path id="DejaVuSans-30" d="M 2034 4250 
Q 1547 4250 1301 3770 
Q 1056 3291 1056 2328 
Q 1056 1369 1301 889 
Q 1547 409 2034 409 
Q 2525 409 2770 889 
Q 3016 1369 3016 2328 
Q 3016 3291 2770 3770 
Q 2525 4250 2034 4250 
z
M 2034 4750 
Q 2819 4750 3233 4129 
Q 3647 3509 3647 2328 
Q 3647 1150 3233 529 
Q 2819 -91 2034 -91 
Q 1250 -91 836 529 
Q 422 1150 422 2328 
Q 422 3509 836 4129 
Q 1250 4750 2034 4750 
z
" transform="scale(0.015625)"/>
       </defs>
       <use xlink:href="#DejaVuSans-30"/>
      </g>
     </g>
    </g>
    <g id="xtick_2">
     <g id="line2d_3">
      <path d="M 148.539318 260.44 
L 148.539318 26.88 
" clip-path="url(#p359e03a017)" style="fill: none; stroke: #b0b0b0; stroke-opacity: 0.3; stroke-width: 0.8; stroke-linecap: square"/>
     </g>
     <g id="line2d_4">
      <g>
       <use xlink:href="#m5872d80d03" x="148.539318" y="260.44" style="stroke: #000000; stroke-width: 0.8"/>
      </g>
     </g>
     <g id="text_2">
      <!-- 1 -->
      <g transform="translate(145.358068 275.038438) scale(0.1 -0.1)">
       <defs>
        <path id="DejaVuSans-31" d="M 794 531 
L 1825 531 
L 1825 4091 
L 703 3866 
L 703 4441 
L 1819 4666 
L 2450 4666 
L 2450 531 
L 3481 531 
L 3481 0 
L 794 0 
L 794 531 
z
" transform="scale(0.015625)"/>
       </defs>
       <use xlink:href="#DejaVuSans-31"/>
      </g>
     </g>
    </g>
    <g id="xtick_3">
     <g id="line2d_5">
      <path d="M 214.574545 260.44 
L 214.574545 26.88 
" clip-path="url(#p359e03a017)" style="fill: none; stroke: #b0b0b0; stroke-opacity: 0.3; stroke-width: 0.8; stroke-linecap: square"/>
     </g>
     <g id="line2d_6">
      <g>
       <use xlink:href="#m5872d80d03" x="214.574545" y="260.44" style="stroke: #000000; stroke-width: 0.8"/>
      </g>
     </g>
     <g id="text_3">
      <!-- 2 -->
      <g transform="translate(211.393295 275.038438) scale(0.1 -0.1)">
       <defs>
        <path id="DejaVuSans-32" d="M 1228 531 
L 3431 531 
L 3431 0 
L 469 0 
L 469 531 
Q 828 903 1448 1529 
Q 2069 2156 2228 2338 
Q 2531 2678 2651 2914 
Q 2772 3150 2772 3378 
Q 2772 3750 2511 3984 
Q 2250 4219 1831 4219 
Q 1534 4219 1204 4116 
Q 875 4013 500 3803 
L 500 4441 
Q 881 4594 1212 4672 
Q 1544 4750 1819 4750 
Q 2544 4750 2975 4387 
Q 3406 4025 3406 3419 
Q 3406 3131 3298 2873 
Q 3191 2616 2906 2266 
Q 2828 2175 2409 1742 
Q 1991 1309 1228 531 
z
" transform="scale(0.015625)"/>
       </defs>
       <use xlink:href="#DejaVuSans-32"/>
      </g>
     </g>
    </g>
    <g id="xtick_4">
     <g id="line2d_7">
      <path d="M 280.609773 260.44 
L 280.609773 26.88 
" clip-path="url(#p359e03a017)" style="fill: none; stroke: #b0b0b0; stroke-opacity: 0.3; stroke-width: 0.8; stroke-linecap: square"/>
     </g>
     <g id="line2d_8">
      <g>
       <use xlink:href="#m5872d80d03" x="280.609773" y="260.44" style="stroke: #000000; stroke-width: 0.8"/>
      </g>
     </g>
     <g id="text_4">
      <!-- 3 -->
      <g transform="translate(277.428523 275.038438) scale(0.1 -0.1)">
       <defs>
        <path id="DejaVuSans-33" d="M 2597 2516 
Q 3050 2419 3304 2112 
Q 3559 1806 3559 1356 
Q 3559 666 3084 287 
Q 2609 -91 1734 -91 
Q 1441 -91 1130 -33 
Q 819 25 488 141 
L 488 750 
Q 750 597 1062 519 
Q 1375 441 1716 441 
Q 2309 441 2620 675 
Q 2931 909 2931 1356 
Q 2931 1769 2642 2001 
Q 2353 2234 1838 2234 
L 1294 2234 
L 1294 2753 
L 1863 2753 
Q 2328 2753 2575 2939 
Q 2822 3125 2822 3475 
Q 2822 3834 2567 4026 
Q 2313 4219 1838 4219 
Q 1578 4219 1281 4162 
Q 984 4106 628 3988 
L 628 4550 
Q 988 4650 1302 4700 
Q 1616 4750 1894 4750 
Q 2613 4750 3031 4423 
Q 3450 4097 3450 3541 
Q 3450 3153 3228 2886 
Q 3006 2619 2597 2516 
z
" transform="scale(0.015625)"/>
       </defs>
       <use xlink:href="#DejaVuSans-33"/>
      </g>
     </g>
    </g>
    <g id="xtick_5">
     <g id="line2d_9">
      <path d="M 346.645 260.44 
L 346.645 26.88 
" clip-path="url(#p359e03a017)" style="fill: none; stroke: #b0b0b0; stroke-opacity: 0.3; stroke-width: 0.8; stroke-linecap: square"/>
     </g>
     <g id="line2d_10">
      <g>
       <use xlink:href="#m5872d80d03" x="346.645" y="260.44" style="stroke: #000000; stroke-width: 0.8"/>
      </g>
     </g>
     <g id="text_5">
      <!-- 4 -->
      <g transform="translate(343.46375 275.038438) scale(0.1 -0.1)">
       <defs>
        <path id="DejaVuSans-34" d="M 2419 4116 
L 825 1625 
L 2419 1625 
L 2419 4116 
z
M 2253 4666 
L 3047 4666 
L 3047 1625 
L 3713 1625 
L 3713 1100 
L 3047 1100 
L 3047 0 
L 2419 0 
L 2419 1100 
L 313 1100 
L 313 1709 
L 2253 4666 
z
" transform="scale(0.015625)"/>
       </defs>
       <use xlink:href="#DejaVuSans-34"/>
      </g>
     </g>
    </g>
    <g id="xtick_6">
     <g id="line2d_11">
      <path d="M 412.680227 260.44 
L 412.680227 26.88 
" clip-path="url(#p359e03a017)" style="fill: none; stroke: #b0b0b0; stroke-opacity: 0.3; stroke-width: 0.8; stroke-linecap: square"/>
     </g>
     <g id="line2d_12">
      <g>
       <use xlink:href="#m5872d80d03" x="412.680227" y="260.44" style="stroke: #000000; stroke-width: 0.8"/>
      </g>
     </g>
     <g id="text_6">
      <!-- 5 -->
      <g transform="translate(409.498977 275.038438) scale(0.1 -0.1)">
       <defs>
        <path id="DejaVuSans-35" d="M 691 4666 
L 3169 4666 
L 3169 4134 
L 1269 4134 
L 1269 2991 
Q 1406 3038 1543 3061 
Q 1681 3084 1819 3084 
Q 2600 3084 3056 2656 
Q 3513 2228 3513 1497 
Q 3513 744 3044 326 
Q 2575 -91 1722 -91 
Q 1428 -91 1123 -41 
Q 819 9 494 109 
L 494 744 
Q 775 591 1075 516 
Q 1375 441 1709 441 
Q 2250 441 2565 725 
Q 2881 1009 2881 1497 
Q 2881 1984 2565 2268 
Q 2250 2553 1709 2553 
Q 1456 2553 1204 2497 
Q 953 2441 691 2322 
L 691 4666 
z
" transform="scale(0.015625)"/>
       </defs>
       <use xlink:href="#DejaVuSans-35"/>
      </g>
     </g>
    </g>
    <g id="xtick_7">
     <g id="line2d_13">
      <path d="M 478.715455 260.44 
L 478.715455 26.88 
" clip-path="url(#p359e03a017)" style="fill: none; stroke: #b0b0b0; stroke-opacity: 0.3; stroke-width: 0.8; stroke-linecap: square"/>
     </g>
     <g id="line2d_14">
      <g>
       <use xlink:href="#m5872d80d03" x="478.715455" y="260.44" style="stroke: #000000; stroke-width: 0.8"/>
      </g>
     </g>
     <g id="text_7">
      <!-- 6 -->
      <g transform="translate(475.534205 275.038438) scale(0.1 -0.1)">
       <defs>
        <path id="DejaVuSans-36" d="M 2113 2584 
Q 1688 2584 1439 2293 
Q 1191 2003 1191 1497 
Q 1191 994 1439 701 
Q 1688 409 2113 409 
Q 2538 409 2786 701 
Q 3034 994 3034 1497 
Q 3034 2003 2786 2293 
Q 2538 2584 2113 2584 
z
M 3366 4563 
L 3366 3988 
Q 3128 4100 2886 4159 
Q 2644 4219 2406 4219 
Q 1781 4219 1451 3797 
Q 1122 3375 1075 2522 
Q 1259 2794 1537 2939 
Q 1816 3084 2150 3084 
Q 2853 3084 3261 2657 
Q 3669 2231 3669 1497 
Q 3669 778 3244 343 
Q 2819 -91 2113 -91 
Q 1303 -91 875 529 
Q 447 1150 447 2328 
Q 447 3434 972 4092 
Q 1497 4750 2381 4750 
Q 2619 4750 2861 4703 
Q 3103 4656 3366 4563 
z
" transform="scale(0.015625)"/>
       </defs>
       <use xlink:href="#DejaVuSans-36"/>
      </g>
     </g>
    </g>
    <g id="xtick_8">
     <g id="line2d_15">
      <path d="M 544.750682 260.44 
L 544.750682 26.88 
" clip-path="url(#p359e03a017)" style="fill: none; stroke: #b0b0b0; stroke-opacity: 0.3; stroke-width: 0.8; stroke-linecap: square"/>
     </g>
     <g id="line2d_16">
      <g>
       <use xlink:href="#m5872d80d03" x="544.750682" y="260.44" style="stroke: #000000; stroke-width: 0.8"/>
      </g>
     </g>
     <g id="text_8">
      <!-- 7 -->
      <g transform="translate(541.569432 275.038438) scale(0.1 -0.1)">
       <defs>
        <path id="DejaVuSans-37" d="M 525 4666 
L 3525 4666 
L 3525 4397 
L 1831 0 
L 1172 0 
L 2766 4134 
L 525 4134 
L 525 4666 
z
" transform="scale(0.015625)"/>
       </defs>
       <use xlink:href="#DejaVuSans-37"/>
      </g>
     </g>
    </g>
    <g id="xtick_9">
     <g id="line2d_17">
      <path d="M 610.785909 260.44 
L 610.785909 26.88 
" clip-path="url(#p359e03a017)" style="fill: none; stroke: #b0b0b0; stroke-opacity: 0.3; stroke-width: 0.8; stroke-linecap: square"/>
     </g>
     <g id="line2d_18">
      <g>
       <use xlink:href="#m5872d80d03" x="610.785909" y="260.44" style="stroke: #000000; stroke-width: 0.8"/>
      </g>
     </g>
     <g id="text_9">
      <!-- 8 -->
      <g transform="translate(607.604659 275.038438) scale(0.1 -0.1)">
       <defs>
        <path id="DejaVuSans-38" d="M 2034 2216 
Q 1584 2216 1326 1975 
Q 1069 1734 1069 1313 
Q 1069 891 1326 650 
Q 1584 409 2034 409 
Q 2484 409 2743 651 
Q 3003 894 3003 1313 
Q 3003 1734 2745 1975 
Q 2488 2216 2034 2216 
z
M 1403 2484 
Q 997 2584 770 2862 
Q 544 3141 544 3541 
Q 544 4100 942 4425 
Q 1341 4750 2034 4750 
Q 2731 4750 3128 4425 
Q 3525 4100 3525 3541 
Q 3525 3141 3298 2862 
Q 3072 2584 2669 2484 
Q 3125 2378 3379 2068 
Q 3634 1759 3634 1313 
Q 3634 634 3220 271 
Q 2806 -91 2034 -91 
Q 1263 -91 848 271 
Q 434 634 434 1313 
Q 434 1759 690 2068 
Q 947 2378 1403 2484 
z
M 1172 3481 
Q 1172 3119 1398 2916 
Q 1625 2713 2034 2713 
Q 2441 2713 2670 2916 
Q 2900 3119 2900 3481 
Q 2900 3844 2670 4047 
Q 2441 4250 2034 4250 
Q 1625 4250 1398 4047 
Q 1172 3844 1172 3481 
z
" transform="scale(0.015625)"/>
       </defs>
       <use xlink:href="#DejaVuSans-38"/>
      </g>
     </g>
    </g>
    <g id="text_10">
     <!-- time [s] -->
     <g transform="translate(327.253594 288.716563) scale(0.1 -0.1)">
      <defs>
       <path id="DejaVuSans-74" d="M 1172 4494 
L 1172 3500 
L 2356 3500 
L 2356 3053 
L 1172 3053 
L 1172 1153 
Q 1172 725 1289 603 
Q 1406 481 1766 481 
L 2356 481 
L 2356 0 
L 1766 0 
Q 1100 0 847 248 
Q 594 497 594 1153 
L 594 3053 
L 172 3053 
L 172 3500 
L 594 3500 
L 594 4494 
L 1172 4494 
z
" transform="scale(0.015625)"/>
       <path id="DejaVuSans-69" d="M 603 3500 
L 1178 3500 
L 1178 0 
L 603 0 
L 603 3500 
z
M 603 4863 
L 1178 4863 
L 1178 4134 
L 603 4134 
L 603 4863 
z
" transform="scale(0.015625)"/>
       <path id="DejaVuSans-6d" d="M 3328 2828 
Q 3544 3216 3844 3400 
Q 4144 3584 4550 3584 
Q 5097 3584 5394 3201 
Q 5691 2819 5691 2113 
L 5691 0 
L 5113 0 
L 5113 2094 
Q 5113 2597 4934 2840 
Q 4756 3084 4391 3084 
Q 3944 3084 3684 2787 
Q 3425 2491 3425 1978 
L 3425 0 
L 2847 0 
L 2847 2094 
Q 2847 2600 2669 2842 
Q 2491 3084 2119 3084 
Q 1678 3084 1418 2786 
Q 1159 2488 1159 1978 
L 1159 0 
L 581 0 
L 581 3500 
L 1159 3500 
L 1159 2956 
Q 1356 3278 1631 3431 
Q 1906 3584 2284 3584 
Q 2666 3584 2933 3390 
Q 3200 3197 3328 2828 
z
" transform="scale(0.015625)"/>
       <path id="DejaVuSans-65" d="M 3597 1894 
L 3597 1613 
L 953 1613 
Q 991 1019 1311 708 
Q 1631 397 2203 397 
Q 2534 397 2845 478 
Q 3156 559 3463 722 
L 3463 178 
Q 3153 47 2828 -22 
Q 2503 -91 2169 -91 
Q 1331 -91 842 396 
Q 353 884 353 1716 
Q 353 2575 817 3079 
Q 1281 3584 2069 3584 
Q 2775 3584 3186 3129 
Q 3597 2675 3597 1894 
z
M 3022 2063 
Q 3016 2534 2758 2815 
Q 2500 3097 2075 3097 
Q 1594 3097 1305 2825 
Q 1016 2553 972 2059 
L 3022 2063 
z
" transform="scale(0.015625)"/>
       <path id="DejaVuSans-20" transform="scale(0.015625)"/>
       <path id="DejaVuSans-5b" d="M 550 4863 
L 1875 4863 
L 1875 4416 
L 1125 4416 
L 1125 -397 
L 1875 -397 
L 1875 -844 
L 550 -844 
L 550 4863 
z
" transform="scale(0.015625)"/>
       <path id="DejaVuSans-73" d="M 2834 3397 
L 2834 2853 
Q 2591 2978 2328 3040 
Q 2066 3103 1784 3103 
Q 1356 3103 1142 2972 
Q 928 2841 928 2578 
Q 928 2378 1081 2264 
Q 1234 2150 1697 2047 
L 1894 2003 
Q 2506 1872 2764 1633 
Q 3022 1394 3022 966 
Q 3022 478 2636 193 
Q 2250 -91 1575 -91 
Q 1294 -91 989 -36 
Q 684 19 347 128 
L 347 722 
Q 666 556 975 473 
Q 1284 391 1588 391 
Q 1994 391 2212 530 
Q 2431 669 2431 922 
Q 2431 1156 2273 1281 
Q 2116 1406 1581 1522 
L 1381 1569 
Q 847 1681 609 1914 
Q 372 2147 372 2553 
Q 372 3047 722 3315 
Q 1072 3584 1716 3584 
Q 2034 3584 2315 3537 
Q 2597 3491 2834 3397 
z
" transform="scale(0.015625)"/>
       <path id="DejaVuSans-5d" d="M 1947 4863 
L 1947 -844 
L 622 -844 
L 622 -397 
L 1369 -397 
L 1369 4416 
L 622 4416 
L 622 4863 
L 1947 4863 
z
" transform="scale(0.015625)"/>
      </defs>
      <use xlink:href="#DejaVuSans-74"/>
      <use xlink:href="#DejaVuSans-69" transform="translate(39.208984 0)"/>
      <use xlink:href="#DejaVuSans-6d" transform="translate(66.992188 0)"/>
      <use xlink:href="#DejaVuSans-65" transform="translate(164.404297 0)"/>
      <use xlink:href="#DejaVuSans-20" transform="translate(225.927734 0)"/>
      <use xlink:href="#DejaVuSans-5b" transform="translate(257.714844 0)"/>
      <use xlink:href="#DejaVuSans-73" transform="translate(296.728516 0)"/>
      <use xlink:href="#DejaVuSans-5d" transform="translate(348.828125 0)"/>
     </g>
    </g>
   </g>
   <g id="matplotlib.axis_2">
    <g id="ytick_1">
     <g id="line2d_19">
      <path d="M 56.09 255.039906 
L 637.2 255.039906 
" clip-path="url(#p359e03a017)" style="fill: none; stroke: #b0b0b0; stroke-opacity: 0.3; stroke-width: 0.8; stroke-linecap: square"/>
     </g>
     <g id="line2d_20">
      <defs>
       <path id="mb36e1c300e" d="M 0 0 
L -3.5 0 
" style="stroke: #000000; stroke-width: 0.8"/>
      </defs>
      <g>
       <use xlink:href="#mb36e1c300e" x="56.09" y="255.039906" style="stroke: #000000; stroke-width: 0.8"/>
      </g>
     </g>
     <g id="text_11">
      <!-- −2.0 -->
      <g transform="translate(24.807188 258.839125) scale(0.1 -0.1)">
       <defs>
        <path id="DejaVuSans-2212" d="M 678 2272 
L 4684 2272 
L 4684 1741 
L 678 1741 
L 678 2272 
z
" transform="scale(0.015625)"/>
        <path id="DejaVuSans-2e" d="M 684 794 
L 1344 794 
L 1344 0 
L 684 0 
L 684 794 
z
" transform="scale(0.015625)"/>
       </defs>
       <use xlink:href="#DejaVuSans-2212"/>
       <use xlink:href="#DejaVuSans-32" transform="translate(83.789062 0)"/>
       <use xlink:href="#DejaVuSans-2e" transform="translate(147.412109 0)"/>
       <use xlink:href="#DejaVuSans-30" transform="translate(179.199219 0)"/>
      </g>
     </g>
    </g>
    <g id="ytick_2">
     <g id="line2d_21">
      <path d="M 56.09 227.703842 
L 637.2 227.703842 
" clip-path="url(#p359e03a017)" style="fill: none; stroke: #b0b0b0; stroke-opacity: 0.3; stroke-width: 0.8; stroke-linecap: square"/>
     </g>
     <g id="line2d_22">
      <g>
       <use xlink:href="#mb36e1c300e" x="56.09" y="227.703842" style="stroke: #000000; stroke-width: 0.8"/>
      </g>
     </g>
     <g id="text_12">
      <!-- −1.5 -->
      <g transform="translate(24.807188 231.503061) scale(0.1 -0.1)">
       <use xlink:href="#DejaVuSans-2212"/>
       <use xlink:href="#DejaVuSans-31" transform="translate(83.789062 0)"/>
       <use xlink:href="#DejaVuSans-2e" transform="translate(147.412109 0)"/>
       <use xlink:href="#DejaVuSans-35" transform="translate(179.199219 0)"/>
      </g>
     </g>
    </g>
    <g id="ytick_3">
     <g id="line2d_23">
      <path d="M 56.09 200.367779 
L 637.2 200.367779 
" clip-path="url(#p359e03a017)" style="fill: none; stroke: #b0b0b0; stroke-opacity: 0.3; stroke-width: 0.8; stroke-linecap: square"/>
     </g>
     <g id="line2d_24">
      <g>
       <use xlink:href="#mb36e1c300e" x="56.09" y="200.367779" style="stroke: #000000; stroke-width: 0.8"/>
      </g>
     </g>
     <g id="text_13">
      <!-- −1.0 -->
      <g transform="translate(24.807188 204.166998) scale(0.1 -0.1)">
       <use xlink:href="#DejaVuSans-2212"/>
       <use xlink:href="#DejaVuSans-31" transform="translate(83.789062 0)"/>
       <use xlink:href="#DejaVuSans-2e" transform="translate(147.412109 0)"/>
       <use xlink:href="#DejaVuSans-30" transform="translate(179.199219 0)"/>
      </g>
     </g>
    </g>
    <g id="ytick_4">
     <g id="line2d_25">
      <path d="M 56.09 173.031716 
L 637.2 173.031716 
" clip-path="url(#p359e03a017)" style="fill: none; stroke: #b0b0b0; stroke-opacity: 0.3; stroke-width: 0.8; stroke-linecap: square"/>
     </g>
     <g id="line2d_26">
      <g>
       <use xlink:href="#mb36e1c300e" x="56.09" y="173.031716" style="stroke: #000000; stroke-width: 0.8"/>
      </g>
     </g>
     <g id="text_14">
      <!-- −0.5 -->
      <g transform="translate(24.807188 176.830934) scale(0.1 -0.1)">
       <use xlink:href="#DejaVuSans-2212"/>
       <use xlink:href="#DejaVuSans-30" transform="translate(83.789062 0)"/>
       <use xlink:href="#DejaVuSans-2e" transform="translate(147.412109 0)"/>
       <use xlink:href="#DejaVuSans-35" transform="translate(179.199219 0)"/>
      </g>
     </g>
    </g>
    <g id="ytick_5">
     <g id="line2d_27">
      <path d="M 56.09 145.695652 
L 637.2 145.695652 
" clip-path="url(#p359e03a017)" style="fill: none; stroke: #b0b0b0; stroke-opacity: 0.3; stroke-width: 0.8; stroke-linecap: square"/>
     </g>
     <g id="line2d_28">
      <g>
       <use xlink:href="#mb36e1c300e" x="56.09" y="145.695652" style="stroke: #000000; stroke-width: 0.8"/>
      </g>
     </g>
     <g id="text_15">
      <!-- 0.0 -->
      <g transform="translate(33.186875 149.494871) scale(0.1 -0.1)">
       <use xlink:href="#DejaVuSans-30"/>
       <use xlink:href="#DejaVuSans-2e" transform="translate(63.623047 0)"/>
       <use xlink:href="#DejaVuSans-30" transform="translate(95.410156 0)"/>
      </g>
     </g>
    </g>
    <g id="ytick_6">
     <g id="line2d_29">
      <path d="M 56.09 118.359589 
L 637.2 118.359589 
" clip-path="url(#p359e03a017)" style="fill: none; stroke: #b0b0b0; stroke-opacity: 0.3; stroke-width: 0.8; stroke-linecap: square"/>
     </g>
     <g id="line2d_30">
      <g>
       <use xlink:href="#mb36e1c300e" x="56.09" y="118.359589" style="stroke: #000000; stroke-width: 0.8"/>
      </g>
     </g>
     <g id="text_16">
      <!-- 0.5 -->
      <g transform="translate(33.186875 122.158807) scale(0.1 -0.1)">
       <use xlink:href="#DejaVuSans-30"/>
       <use xlink:href="#DejaVuSans-2e" transform="translate(63.623047 0)"/>
       <use xlink:href="#DejaVuSans-35" transform="translate(95.410156 0)"/>
      </g>
     </g>
    </g>
    <g id="ytick_7">
     <g id="line2d_31">
      <path d="M 56.09 91.023525 
L 637.2 91.023525 
" clip-path="url(#p359e03a017)" style="fill: none; stroke: #b0b0b0; stroke-opacity: 0.3; stroke-width: 0.8; stroke-linecap: square"/>
     </g>
     <g id="line2d_32">
      <g>
       <use xlink:href="#mb36e1c300e" x="56.09" y="91.023525" style="stroke: #000000; stroke-width: 0.8"/>
      </g>
     </g>
     <g id="text_17">
      <!-- 1.0 -->
      <g transform="translate(33.186875 94.822744) scale(0.1 -0.1)">
       <use xlink:href="#DejaVuSans-31"/>
       <use xlink:href="#DejaVuSans-2e" transform="translate(63.623047 0)"/>
       <use xlink:href="#DejaVuSans-30" transform="translate(95.410156 0)"/>
      </g>
     </g>
    </g>
    <g id="ytick_8">
     <g id="line2d_33">
      <path d="M 56.09 63.687462 
L 637.2 63.687462 
" clip-path="url(#p359e03a017)" style="fill: none; stroke: #b0b0b0; stroke-opacity: 0.3; stroke-width: 0.8; stroke-linecap: square"/>
     </g>
     <g id="line2d_34">
      <g>
       <use xlink:href="#mb36e1c300e" x="56.09" y="63.687462" style="stroke: #000000; stroke-width: 0.8"/>
      </g>
     </g>
     <g id="text_18">
      <!-- 1.5 -->
      <g transform="translate(33.186875 67.486681) scale(0.1 -0.1)">
       <use xlink:href="#DejaVuSans-31"/>
       <use xlink:href="#DejaVuSans-2e" transform="translate(63.623047 0)"/>
       <use xlink:href="#DejaVuSans-35" transform="translate(95.410156 0)"/>
      </g>
     </g>
    </g>
    <g id="ytick_9">
     <g id="line2d_35">
      <path d="M 56.09 36.351398 
L 637.2 36.351398 
" clip-path="url(#p359e03a017)" style="fill: none; stroke: #b0b0b0; stroke-opacity: 0.3; stroke-width: 0.8; stroke-linecap: square"/>
     </g>
     <g id="line2d_36">
      <g>
       <use xlink:href="#mb36e1c300e" x="56.09" y="36.351398" style="stroke: #000000; stroke-width: 0.8"/>
      </g>
     </g>
     <g id="text_19">
      <!-- 2.0 -->
      <g transform="translate(33.186875 40.150617) scale(0.1 -0.1)">
       <use xlink:href="#DejaVuSans-32"/>
       <use xlink:href="#DejaVuSans-2e" transform="translate(63.623047 0)"/>
       <use xlink:href="#DejaVuSans-30" transform="translate(95.410156 0)"/>
      </g>
     </g>
    </g>
    <g id="text_20">
     <!-- axial force [kN] -->
     <g transform="translate(18.7275 181.829531) rotate(-90) scale(0.1 -0.1)">
      <defs>
       <path id="DejaVuSans-61" d="M 2194 1759 
Q 1497 1759 1228 1600 
Q 959 1441 959 1056 
Q 959 750 1161 570 
Q 1363 391 1709 391 
Q 2188 391 2477 730 
Q 2766 1069 2766 1631 
L 2766 1759 
L 2194 1759 
z
M 3341 1997 
L 3341 0 
L 2766 0 
L 2766 531 
Q 2569 213 2275 61 
Q 1981 -91 1556 -91 
Q 1019 -91 701 211 
Q 384 513 384 1019 
Q 384 1609 779 1909 
Q 1175 2209 1959 2209 
L 2766 2209 
L 2766 2266 
Q 2766 2663 2505 2880 
Q 2244 3097 1772 3097 
Q 1472 3097 1187 3025 
Q 903 2953 641 2809 
L 641 3341 
Q 956 3463 1253 3523 
Q 1550 3584 1831 3584 
Q 2591 3584 2966 3190 
Q 3341 2797 3341 1997 
z
" transform="scale(0.015625)"/>
       <path id="DejaVuSans-78" d="M 3513 3500 
L 2247 1797 
L 3578 0 
L 2900 0 
L 1881 1375 
L 863 0 
L 184 0 
L 1544 1831 
L 300 3500 
L 978 3500 
L 1906 2253 
L 2834 3500 
L 3513 3500 
z
" transform="scale(0.015625)"/>
       <path id="DejaVuSans-6c" d="M 603 4863 
L 1178 4863 
L 1178 0 
L 603 0 
L 603 4863 
z
" transform="scale(0.015625)"/>
       <path id="DejaVuSans-66" d="M 2375 4863 
L 2375 4384 
L 1825 4384 
Q 1516 4384 1395 4259 
Q 1275 4134 1275 3809 
L 1275 3500 
L 2222 3500 
L 2222 3053 
L 1275 3053 
L 1275 0 
L 697 0 
L 697 3053 
L 147 3053 
L 147 3500 
L 697 3500 
L 697 3744 
Q 697 4328 969 4595 
Q 1241 4863 1831 4863 
L 2375 4863 
z
" transform="scale(0.015625)"/>
       <path id="DejaVuSans-6f" d="M 1959 3097 
Q 1497 3097 1228 2736 
Q 959 2375 959 1747 
Q 959 1119 1226 758 
Q 1494 397 1959 397 
Q 2419 397 2687 759 
Q 2956 1122 2956 1747 
Q 2956 2369 2687 2733 
Q 2419 3097 1959 3097 
z
M 1959 3584 
Q 2709 3584 3137 3096 
Q 3566 2609 3566 1747 
Q 3566 888 3137 398 
Q 2709 -91 1959 -91 
Q 1206 -91 779 398 
Q 353 888 353 1747 
Q 353 2609 779 3096 
Q 1206 3584 1959 3584 
z
" transform="scale(0.015625)"/>
       <path id="DejaVuSans-72" d="M 2631 2963 
Q 2534 3019 2420 3045 
Q 2306 3072 2169 3072 
Q 1681 3072 1420 2755 
Q 1159 2438 1159 1844 
L 1159 0 
L 581 0 
L 581 3500 
L 1159 3500 
L 1159 2956 
Q 1341 3275 1631 3429 
Q 1922 3584 2338 3584 
Q 2397 3584 2469 3576 
Q 2541 3569 2628 3553 
L 2631 2963 
z
" transform="scale(0.015625)"/>
       <path id="DejaVuSans-63" d="M 3122 3366 
L 3122 2828 
Q 2878 2963 2633 3030 
Q 2388 3097 2138 3097 
Q 1578 3097 1268 2742 
Q 959 2388 959 1747 
Q 959 1106 1268 751 
Q 1578 397 2138 397 
Q 2388 397 2633 464 
Q 2878 531 3122 666 
L 3122 134 
Q 2881 22 2623 -34 
Q 2366 -91 2075 -91 
Q 1284 -91 818 406 
Q 353 903 353 1747 
Q 353 2603 823 3093 
Q 1294 3584 2113 3584 
Q 2378 3584 2631 3529 
Q 2884 3475 3122 3366 
z
" transform="scale(0.015625)"/>
       <path id="DejaVuSans-6b" d="M 581 4863 
L 1159 4863 
L 1159 1991 
L 2875 3500 
L 3609 3500 
L 1753 1863 
L 3688 0 
L 2938 0 
L 1159 1709 
L 1159 0 
L 581 0 
L 581 4863 
z
" transform="scale(0.015625)"/>
       <path id="DejaVuSans-4e" d="M 628 4666 
L 1478 4666 
L 3547 763 
L 3547 4666 
L 4159 4666 
L 4159 0 
L 3309 0 
L 1241 3903 
L 1241 0 
L 628 0 
L 628 4666 
z
" transform="scale(0.015625)"/>
      </defs>
      <use xlink:href="#DejaVuSans-61"/>
      <use xlink:href="#DejaVuSans-78" transform="translate(61.279297 0)"/>
      <use xlink:href="#DejaVuSans-69" transform="translate(120.458984 0)"/>
      <use xlink:href="#DejaVuSans-61" transform="translate(148.242188 0)"/>
      <use xlink:href="#DejaVuSans-6c" transform="translate(209.521484 0)"/>
      <use xlink:href="#DejaVuSans-20" transform="translate(237.304688 0)"/>
      <use xlink:href="#DejaVuSans-66" transform="translate(269.091797 0)"/>
      <use xlink:href="#DejaVuSans-6f" transform="translate(304.296875 0)"/>
      <use xlink:href="#DejaVuSans-72" transform="translate(365.478516 0)"/>
      <use xlink:href="#DejaVuSans-63" transform="translate(404.341797 0)"/>
      <use xlink:href="#DejaVuSans-65" transform="translate(459.322266 0)"/>
      <use xlink:href="#DejaVuSans-20" transform="translate(520.845703 0)"/>
      <use xlink:href="#DejaVuSans-5b" transform="translate(552.632812 0)"/>
      <use xlink:href="#DejaVuSans-6b" transform="translate(591.646484 0)"/>
      <use xlink:href="#DejaVuSans-4e" transform="translate(649.556641 0)"/>
      <use xlink:href="#DejaVuSans-5d" transform="translate(724.361328 0)"/>
     </g>
    </g>
   </g>
   <g id="line2d_37">
    <path d="M 82.504091 145.695652 
L 94.654573 145.587353 
L 95.975277 145.30735 
L 97.097876 144.833761 
L 98.088405 144.177969 
L 99.078933 143.261808 
L 100.135497 141.974956 
L 101.258095 140.254745 
L 102.5788 137.799182 
L 104.163645 134.352384 
L 106.672984 128.276785 
L 109.710605 121.060049 
L 111.493556 117.378489 
L 113.078401 114.6011 
L 114.531176 112.495671 
L 115.917916 110.87237 
L 117.23862 109.653788 
L 118.559325 108.722714 
L 119.946065 108.015379 
L 121.39884 107.526353 
L 122.983685 107.234877 
L 124.700601 107.14687 
L 126.681658 107.273176 
L 128.992891 107.651602 
L 131.76637 108.340055 
L 135.398308 109.485799 
L 142.133901 111.893128 
L 146.426191 113.592036 
L 148.671389 114.711936 
L 150.388305 115.814943 
L 151.84108 117.014392 
L 153.161784 118.400831 
L 154.416453 120.056968 
L 155.605087 122.001216 
L 156.793722 124.376579 
L 158.048391 127.415455 
L 159.30306 131.049425 
L 160.6898 135.782474 
L 162.274645 142.05469 
L 164.916055 152.608114 
L 166.566935 158.242669 
L 168.217816 163.077465 
L 169.934732 167.401233 
L 171.783718 171.453939 
L 173.962881 175.690781 
L 177.066536 181.19514 
L 184.06627 193.034833 
L 186.509574 196.797841 
L 188.292525 199.158715 
L 189.811335 200.821317 
L 191.198075 202.014559 
L 192.452744 202.803074 
L 193.575343 203.26131 
L 194.697942 203.477724 
L 195.754506 203.45549 
L 196.811069 203.211249 
L 197.867633 202.743921 
L 198.990232 202.003878 
L 200.178866 200.950731 
L 201.49957 199.464614 
L 202.88631 197.563317 
L 204.471156 194.99555 
L 206.254107 191.663677 
L 208.367234 187.225135 
L 211.272784 180.558923 
L 217.612166 165.879829 
L 220.121505 160.712367 
L 222.366702 156.591704 
L 224.413794 153.285839 
L 226.394851 150.504889 
L 228.243837 148.279426 
L 229.960753 146.538694 
L 231.611634 145.167448 
L 233.19648 144.132007 
L 234.71529 143.396728 
L 236.2341 142.906425 
L 237.75291 142.652965 
L 239.27172 142.626802 
L 240.856566 142.828672 
L 242.507447 143.267837 
L 244.356433 144.001334 
L 246.601631 145.154048 
L 254.922069 149.668561 
L 257.167267 150.449991 
L 259.544535 151.294848 
L 260.733169 151.973326 
L 261.789733 152.849817 
L 262.780261 153.968702 
L 263.836825 155.520779 
L 264.959424 157.591037 
L 266.214093 160.392846 
L 267.732903 164.361228 
L 269.912066 170.749824 
L 274.13832 183.212722 
L 276.185412 188.512536 
L 278.100434 192.876838 
L 280.015456 196.694966 
L 281.996512 200.14723 
L 284.10964 203.374818 
L 286.354837 206.398713 
L 288.798141 209.314908 
L 291.30748 211.966843 
L 293.684748 214.169401 
L 295.86391 215.896356 
L 297.778932 217.141772 
L 299.495848 217.998501 
L 301.014658 218.511837 
L 302.401398 218.743079 
L 303.656067 218.722978 
L 304.778666 218.489975 
L 305.83523 218.056283 
L 306.891793 217.383143 
L 307.948357 216.43397 
L 309.00492 215.165777 
L 310.061484 213.528468 
L 311.118048 211.464335 
L 312.174611 208.907943 
L 313.29721 205.571011 
L 314.419809 201.50194 
L 315.542408 196.602563 
L 316.731042 190.403156 
L 317.985711 182.620924 
L 319.306416 172.964194 
L 320.759191 160.574636 
L 324.655269 125.743953 
L 325.975974 116.568855 
L 327.164608 109.764238 
L 328.287207 104.540211 
L 329.34377 100.608738 
L 330.334299 97.715251 
L 331.258792 95.64738 
L 332.11725 94.232901 
L 332.909673 93.330079 
L 333.63606 92.819638 
L 334.296412 92.600685 
L 334.956765 92.597595 
L 335.683152 92.821657 
L 336.475575 93.308213 
L 337.400068 94.149231 
L 338.522667 95.487341 
L 340.041477 97.682272 
L 343.013062 102.491002 
L 345.654472 106.57307 
L 347.701564 109.331702 
L 349.616585 111.53606 
L 351.465572 113.327197 
L 353.314558 114.813738 
L 355.22958 116.06495 
L 357.144601 117.053722 
L 359.125658 117.829471 
L 361.238785 118.413774 
L 363.682089 118.848597 
L 367.578167 119.515836 
L 368.898872 120.003307 
L 369.955435 120.621604 
L 370.945964 121.46309 
L 371.870457 122.542755 
L 372.79495 123.968135 
L 373.719443 125.795133 
L 374.709972 128.249741 
L 375.766535 131.470783 
L 376.955169 135.834042 
L 378.47398 142.364653 
L 380.389001 150.459724 
L 381.709706 155.113211 
L 382.964375 158.736451 
L 384.153009 161.495433 
L 385.275608 163.550525 
L 386.332172 165.035371 
L 387.3227 166.059233 
L 388.247193 166.71462 
L 389.171686 167.10098 
L 390.09618 167.241159 
L 391.020673 167.160746 
L 392.077236 166.83451 
L 393.26587 166.220627 
L 394.718645 165.200615 
L 396.633667 163.558266 
L 399.605252 160.675818 
L 403.171155 156.925981 
L 405.746528 153.912566 
L 407.991726 150.948249 
L 410.368994 147.422372 
L 416.114059 138.693353 
L 417.89701 136.484747 
L 419.41582 134.932852 
L 420.80256 133.815962 
L 422.123265 133.033867 
L 423.377934 132.548808 
L 424.566568 132.31714 
L 425.821237 132.302832 
L 427.075907 132.508932 
L 428.462647 132.967512 
L 429.981457 133.707905 
L 431.830443 134.871244 
L 434.405817 136.785336 
L 439.358459 140.498693 
L 441.669692 141.915612 
L 443.848855 142.98681 
L 446.094052 143.84176 
L 448.801497 144.62613 
L 453.225857 145.639495 
L 460.489732 147.095861 
L 463.329247 147.422196 
L 465.838585 147.488509 
L 468.347924 147.32757 
L 471.187439 146.911217 
L 481.621005 145.135026 
L 484.72466 144.99151 
L 488.686774 145.053144 
L 497.7336 145.260632 
L 510.74254 145.286619 
L 525.40236 145.802856 
L 573.740147 145.672113 
L 590.7112 145.684262 
L 610.785909 145.697401 
L 610.785909 145.697401 
" clip-path="url(#p359e03a017)" style="fill: none; stroke: #2ca02c; stroke-width: 1.5; stroke-linecap: square"/>
   </g>
   <g id="line2d_38">
    <path d="M 82.504091 145.695652 
L 94.654573 145.587353 
L 95.975277 145.307346 
L 97.097876 144.833724 
L 98.088405 144.177816 
L 99.078933 143.261291 
L 100.135497 141.97337 
L 101.258095 140.250262 
L 102.5788 137.786201 
L 104.163645 134.313735 
L 106.408843 128.792047 
L 110.833203 117.85045 
L 112.946331 113.284327 
L 114.861352 109.662188 
L 116.776374 106.518535 
L 118.691395 103.799009 
L 120.738487 101.279944 
L 122.983685 98.876654 
L 125.493024 96.523286 
L 128.200468 94.289052 
L 130.841877 92.394152 
L 133.15311 91.00594 
L 135.134167 90.071176 
L 136.851083 89.499215 
L 138.369893 89.215023 
L 139.822668 89.170669 
L 141.143373 89.350774 
L 142.398042 89.740578 
L 143.652711 90.367363 
L 144.907381 91.255927 
L 146.16205 92.432264 
L 147.416719 93.923285 
L 148.671389 95.756303 
L 149.992093 98.084805 
L 151.378833 101.001717 
L 152.831608 104.607133 
L 154.350418 109.002497 
L 155.935264 114.280164 
L 157.718215 121.035662 
L 159.699272 129.453174 
L 162.274645 141.448548 
L 164.585878 151.947538 
L 166.236759 158.430958 
L 167.755569 163.534188 
L 169.27438 167.857963 
L 170.727155 171.346778 
L 172.245965 174.417373 
L 173.764775 176.997665 
L 175.34962 179.263699 
L 177.000501 181.244049 
L 178.651382 182.890809 
L 180.302262 184.226688 
L 181.821073 185.180772 
L 183.273848 185.832963 
L 184.594552 186.186046 
L 185.849222 186.300311 
L 187.169926 186.193737 
L 188.556666 185.857276 
L 190.207547 185.216107 
L 192.320674 184.140557 
L 196.480893 181.70863 
L 204.27305 176.966883 
L 206.650318 175.201081 
L 208.763445 173.346086 
L 210.810537 171.241999 
L 212.923665 168.744234 
L 215.366968 165.496269 
L 218.93287 160.336276 
L 223.555336 153.720296 
L 226.064675 150.516101 
L 228.243837 148.083555 
L 230.158859 146.271856 
L 231.875775 144.947006 
L 233.46062 143.992236 
L 235.045466 143.295565 
L 236.564276 142.865681 
L 238.083086 142.662919 
L 239.601897 142.680199 
L 241.186742 142.921654 
L 242.837623 143.396887 
L 244.686609 144.164277 
L 246.997842 145.38117 
L 254.261717 149.389586 
L 256.374844 150.193384 
L 259.874711 151.441855 
L 260.99731 152.144118 
L 261.987839 153.02016 
L 262.978367 154.189425 
L 264.034931 155.792111 
L 265.223565 158.037178 
L 266.610305 161.188506 
L 268.393256 165.84827 
L 272.751581 177.481481 
L 274.270391 180.799216 
L 275.591095 183.172318 
L 276.77973 184.87225 
L 277.902328 186.101383 
L 278.958892 186.941027 
L 280.015456 187.497564 
L 281.072019 187.800061 
L 282.194618 187.878287 
L 283.383252 187.729501 
L 284.703957 187.336337 
L 286.288802 186.621361 
L 288.269859 185.470167 
L 291.30748 183.416193 
L 296.854439 179.659878 
L 299.759989 177.986084 
L 302.401398 176.720642 
L 304.910736 175.763625 
L 307.420075 175.04888 
L 310.325625 174.470285 
L 312.967034 173.900301 
L 314.155668 173.423153 
L 315.080161 172.829331 
L 315.938619 172.00556 
L 316.731042 170.918738 
L 317.523465 169.41555 
L 318.315887 167.380794 
L 319.10831 164.688369 
L 319.900733 161.208012 
L 320.759191 156.404465 
L 321.88179 148.608563 
L 323.928882 134.48272 
L 325.249586 126.97102 
L 326.504256 121.052907 
L 327.82496 115.851395 
L 329.277735 111.005003 
L 331.060686 105.846918 
L 333.437955 99.682646 
L 336.277469 92.931129 
L 338.786808 87.514176 
L 340.96597 83.323088 
L 342.947027 79.986506 
L 344.796014 77.307356 
L 346.51293 75.206986 
L 348.097775 73.603661 
L 349.616585 72.37231 
L 351.06936 71.47815 
L 352.4561 70.889889 
L 353.710769 70.589182 
L 354.965439 70.519293 
L 356.154073 70.678789 
L 357.342707 71.073476 
L 358.465306 71.679081 
L 359.587905 72.529962 
L 360.776539 73.722276 
L 361.965173 75.242694 
L 363.153807 77.12298 
L 364.408476 79.535469 
L 365.729181 82.593225 
L 367.049885 86.226772 
L 368.436625 90.703392 
L 369.8894 96.150547 
L 371.474245 102.980199 
L 373.257197 111.701722 
L 375.436359 123.560369 
L 380.190895 149.915286 
L 381.5116 155.592543 
L 382.700234 159.729529 
L 383.756798 162.652881 
L 384.747326 164.788276 
L 385.671819 166.293524 
L 386.530277 167.305721 
L 387.388735 167.981972 
L 388.181158 168.339184 
L 388.973581 168.469961 
L 389.832039 168.389971 
L 390.822567 168.057389 
L 391.945166 167.43267 
L 393.331906 166.395717 
L 395.312962 164.603522 
L 399.275076 160.635006 
L 404.161683 155.509674 
L 406.604986 152.621067 
L 408.850184 149.612566 
L 411.359523 145.839583 
L 415.321636 139.881789 
L 417.302693 137.312698 
L 418.953574 135.511097 
L 420.472384 134.176456 
L 421.859124 133.253139 
L 423.113793 132.671003 
L 424.368462 132.331688 
L 425.623132 132.230935 
L 426.877801 132.358247 
L 428.198506 132.720317 
L 429.651281 133.357657 
L 431.302161 134.331684 
L 433.415289 135.850313 
L 440.547093 141.196325 
L 442.726256 142.424387 
L 444.905418 143.390521 
L 447.282686 144.19589 
L 450.452377 145.018401 
L 457.518147 146.557247 
L 461.282155 147.213394 
L 463.989599 147.464039 
L 466.432902 147.471731 
L 468.942241 147.258509 
L 471.979861 146.762838 
L 480.3003 145.265626 
L 483.33792 145.02935 
L 486.705717 144.998547 
L 503.016418 145.185902 
L 508.893553 145.219925 
L 515.100865 145.511753 
L 521.902493 145.779477 
L 527.713593 145.778706 
L 541.514956 145.678758 
L 556.504952 145.693328 
L 573.608076 145.671155 
L 590.645165 145.684372 
L 610.785909 145.697401 
L 610.785909 145.697401 
" clip-path="url(#p359e03a017)" style="fill: none; stroke: #d62728; stroke-width: 1.5; stroke-linecap: square"/>
   </g>
   <g id="line2d_39">
    <path d="M 82.504091 145.695652 
L 92.47541 145.585336 
L 93.99422 145.287261 
L 95.116819 144.846347 
L 96.041313 144.2495 
L 96.89977 143.436349 
L 97.758228 142.316336 
L 98.682722 140.714379 
L 99.67325 138.500169 
L 100.729814 135.551638 
L 101.918448 131.535036 
L 103.305188 126.026431 
L 105.154174 117.675524 
L 111.097344 90.052632 
L 112.880295 83.179353 
L 114.531176 77.692236 
L 116.049986 73.380956 
L 117.568797 69.724717 
L 119.087607 66.651759 
L 120.606417 64.08256 
L 122.125227 61.939439 
L 123.710073 60.082174 
L 125.360953 58.489462 
L 127.077869 57.143204 
L 128.86082 56.033777 
L 130.643772 55.190371 
L 132.360687 54.618925 
L 134.011568 54.293721 
L 135.596414 54.197607 
L 137.115224 54.318289 
L 138.634034 54.666417 
L 140.086809 55.235365 
L 141.473549 56.019931 
L 142.860289 57.071684 
L 144.180993 58.3567 
L 145.501698 59.959149 
L 146.822402 61.927782 
L 148.143107 64.320777 
L 149.463811 67.206572 
L 150.784516 70.664112 
L 152.10522 74.782005 
L 153.425925 79.655965 
L 154.74663 85.383815 
L 156.133369 92.417356 
L 157.586144 100.996399 
L 159.104955 111.342532 
L 160.755835 124.14811 
L 163.001033 143.539919 
L 165.048125 160.357386 
L 166.699006 172.093174 
L 168.283851 181.798701 
L 169.868697 190.161839 
L 171.519577 197.688751 
L 173.236493 204.484267 
L 175.08548 210.884313 
L 177.066536 216.942428 
L 179.179664 222.704321 
L 181.226756 227.664578 
L 182.943672 231.219808 
L 184.528517 234.008092 
L 185.981292 236.118713 
L 187.301997 237.643957 
L 188.490631 238.690397 
L 189.61323 239.399391 
L 190.735828 239.846273 
L 191.792392 240.037036 
L 192.848956 240.013405 
L 193.971555 239.76051 
L 195.094153 239.277459 
L 196.282787 238.516771 
L 197.537457 237.434018 
L 198.858161 235.978724 
L 200.244901 234.09452 
L 201.697676 231.720426 
L 203.216486 228.793589 
L 204.801332 225.253886 
L 206.518248 220.871975 
L 208.433269 215.353948 
L 210.612432 208.368589 
L 213.385911 198.670627 
L 221.772385 168.776205 
L 224.083618 161.630721 
L 226.13071 155.995108 
L 227.979697 151.53294 
L 229.630577 148.097964 
L 231.149387 145.439389 
L 232.536127 143.44705 
L 233.790797 142.00907 
L 234.979431 140.961843 
L 236.10203 140.247547 
L 237.224628 139.792682 
L 238.281192 139.594249 
L 239.337756 139.610652 
L 240.460355 139.853309 
L 241.648989 140.348731 
L 242.903658 141.11673 
L 244.356433 142.283779 
L 246.007314 143.906338 
L 248.582687 146.803258 
L 252.412731 151.119036 
L 254.327752 152.937732 
L 259.676606 157.661928 
L 260.667134 159.012966 
L 261.591627 160.64791 
L 262.51612 162.729976 
L 263.506649 165.522551 
L 264.563212 169.17423 
L 265.817882 174.381125 
L 267.336692 181.753865 
L 269.58189 193.956575 
L 272.883651 211.799747 
L 274.666602 220.188058 
L 276.185412 226.327797 
L 277.638187 231.293489 
L 279.024927 235.241932 
L 280.345632 238.349218 
L 281.666336 240.896735 
L 282.987041 242.964312 
L 284.307745 244.628297 
L 285.694485 246.01636 
L 287.14726 247.149389 
L 288.66607 248.052098 
L 290.316951 248.774012 
L 292.099902 249.313132 
L 294.080959 249.675003 
L 296.128051 249.821057 
L 298.109108 249.745638 
L 299.958094 249.460671 
L 301.67501 248.972338 
L 303.19382 248.317785 
L 304.646595 247.448142 
L 305.9673 246.401514 
L 307.221969 245.128082 
L 308.410603 243.612644 
L 309.599237 241.725334 
L 310.721836 239.518896 
L 311.844435 236.797192 
L 312.900999 233.645895 
L 313.957562 229.776241 
L 315.014126 225.00521 
L 316.07069 219.105339 
L 317.061218 212.306448 
L 318.117782 203.405856 
L 319.174345 192.475996 
L 320.230909 179.191733 
L 321.419543 161.193595 
L 324.060952 119.977478 
L 325.447692 102.273286 
L 326.702361 88.940742 
L 327.957031 77.857888 
L 329.2117 68.668135 
L 330.400334 61.457938 
L 331.588968 55.536118 
L 332.777602 50.702772 
L 333.900201 47.01673 
L 334.956765 44.245329 
L 336.013328 42.077091 
L 337.003857 40.52558 
L 337.994385 39.374271 
L 338.984914 38.558756 
L 339.975442 38.016938 
L 341.098041 37.661797 
L 342.35271 37.505699 
L 343.87152 37.547598 
L 345.852577 37.834432 
L 348.361916 38.426023 
L 350.871255 39.240586 
L 352.984382 40.150902 
L 354.899403 41.218691 
L 356.616319 42.431556 
L 358.201165 43.820192 
L 359.719975 45.448509 
L 361.17275 47.33696 
L 362.55949 49.50447 
L 363.94623 52.102943 
L 365.266934 55.062258 
L 366.587639 58.594145 
L 367.842308 62.58815 
L 369.096977 67.325657 
L 370.351647 72.938376 
L 371.606316 79.560627 
L 372.92702 87.753344 
L 374.31376 97.801148 
L 375.83257 110.496942 
L 377.681557 127.982398 
L 380.256931 152.475492 
L 381.577635 162.779245 
L 382.766269 170.435727 
L 383.888868 176.319104 
L 384.945432 180.744572 
L 385.93596 183.98621 
L 386.860453 186.273648 
L 387.652876 187.705404 
L 388.379264 188.619251 
L 389.105651 189.180844 
L 389.766003 189.411055 
L 390.426356 189.398762 
L 391.086708 189.168233 
L 391.879131 188.637799 
L 392.803624 187.721018 
L 393.926223 186.261255 
L 395.312962 184.071539 
L 397.227984 180.603135 
L 400.133534 174.841328 
L 403.23719 168.225614 
L 405.614458 162.645795 
L 407.727585 157.118754 
L 409.906748 150.77197 
L 416.180094 131.912808 
L 417.830975 127.876113 
L 419.28375 124.88992 
L 420.538419 122.789726 
L 421.661018 121.30897 
L 422.717582 120.266986 
L 423.70811 119.600035 
L 424.632603 119.243891 
L 425.491061 119.136904 
L 426.415555 119.252758 
L 427.340048 119.595154 
L 428.330576 120.194992 
L 429.453175 121.137368 
L 430.77388 122.552715 
L 432.358725 124.594776 
L 434.603923 127.88873 
L 439.292424 134.842761 
L 441.273481 137.340256 
L 443.056432 139.247966 
L 444.839383 140.833865 
L 446.688369 142.182023 
L 448.801497 143.44492 
L 451.707047 144.901325 
L 456.197442 146.889763 
L 459.499203 148.173444 
L 461.744401 148.819617 
L 463.659423 149.148875 
L 465.442374 149.236324 
L 467.225325 149.101841 
L 469.140347 148.72464 
L 471.319509 148.057181 
L 474.753341 146.730411 
L 478.055102 145.533568 
L 480.498406 144.870459 
L 482.743603 144.495544 
L 485.054836 144.338506 
L 487.894351 144.385001 
L 498.459987 144.787358 
L 508.299236 144.730908 
L 512.327385 145.0369 
L 521.440247 145.823471 
L 525.534431 145.89291 
L 532.005883 145.725259 
L 540.920639 145.659498 
L 553.599402 145.717629 
L 570.174244 145.599664 
L 586.881157 145.689797 
L 609.795381 145.69755 
L 610.785909 145.698634 
L 610.785909 145.698634 
" clip-path="url(#p359e03a017)" style="fill: none; stroke-dasharray: 3.7,1.6; stroke-dashoffset: 0; stroke: #000000; stroke-opacity: 0.5"/>
   </g>
   <g id="line2d_40">
    <path d="M 56.09 145.695652 
L 637.2 145.695652 
" clip-path="url(#p359e03a017)" style="fill: none; stroke: #000000; stroke-width: 0.4; stroke-linecap: square"/>
   </g>
   <g id="patch_3">
    <path d="M 56.09 260.44 
L 56.09 26.88 
" style="fill: none; stroke: #000000; stroke-width: 0.8; stroke-linejoin: miter; stroke-linecap: square"/>
   </g>
   <g id="patch_4">
    <path d="M 637.2 260.44 
L 637.2 26.88 
" style="fill: none; stroke: #000000; stroke-width: 0.8; stroke-linejoin: miter; stroke-linecap: square"/>
   </g>
   <g id="patch_5">
    <path d="M 56.09 260.44 
L 637.2 260.44 
" style="fill: none; stroke: #000000; stroke-width: 0.8; stroke-linejoin: miter; stroke-linecap: square"/>
   </g>
   <g id="patch_6">
    <path d="M 56.09 26.88 
L 637.2 26.88 
" style="fill: none; stroke: #000000; stroke-width: 0.8; stroke-linejoin: miter; stroke-linecap: square"/>
   </g>
   <g id="text_21">
    <!-- -1.34 kN -->
    <g transform="translate(310.92968 212.763228) scale(0.08 -0.08)">
     <defs>
      <path id="DejaVuSans-2d" d="M 313 2009 
L 1997 2009 
L 1997 1497 
L 313 1497 
L 313 2009 
z
" transform="scale(0.015625)"/>
     </defs>
     <use xlink:href="#DejaVuSans-2d"/>
     <use xlink:href="#DejaVuSans-31" transform="translate(36.083984 0)"/>
     <use xlink:href="#DejaVuSans-2e" transform="translate(99.707031 0)"/>
     <use xlink:href="#DejaVuSans-33" transform="translate(131.494141 0)"/>
     <use xlink:href="#DejaVuSans-34" transform="translate(195.117188 0)"/>
     <use xlink:href="#DejaVuSans-20" transform="translate(258.740234 0)"/>
     <use xlink:href="#DejaVuSans-6b" transform="translate(290.527344 0)"/>
     <use xlink:href="#DejaVuSans-4e" transform="translate(348.4375 0)"/>
    </g>
   </g>
   <g id="text_22">
    <!-- +1.38 kN -->
    <g transform="translate(362.701298 64.51418) scale(0.08 -0.08)">
     <defs>
      <path id="DejaVuSans-2b" d="M 2944 4013 
L 2944 2272 
L 4684 2272 
L 4684 1741 
L 2944 1741 
L 2944 0 
L 2419 0 
L 2419 1741 
L 678 1741 
L 678 2272 
L 2419 2272 
L 2419 4013 
L 2944 4013 
z
" transform="scale(0.015625)"/>
     </defs>
     <use xlink:href="#DejaVuSans-2b"/>
     <use xlink:href="#DejaVuSans-31" transform="translate(83.789062 0)"/>
     <use xlink:href="#DejaVuSans-2e" transform="translate(147.412109 0)"/>
     <use xlink:href="#DejaVuSans-33" transform="translate(179.199219 0)"/>
     <use xlink:href="#DejaVuSans-38" transform="translate(242.822266 0)"/>
     <use xlink:href="#DejaVuSans-20" transform="translate(306.445312 0)"/>
     <use xlink:href="#DejaVuSans-6b" transform="translate(338.232422 0)"/>
     <use xlink:href="#DejaVuSans-4e" transform="translate(396.142578 0)"/>
    </g>
   </g>
   <g id="text_23">
    <!-- Tie-rod / steering-arm axial forces — ISO 3888-1 DLC at 80 km/h -->
    <g transform="translate(153.1975 20.88) scale(0.12 -0.12)">
     <defs>
      <path id="DejaVuSans-54" d="M -19 4666 
L 3928 4666 
L 3928 4134 
L 2272 4134 
L 2272 0 
L 1638 0 
L 1638 4134 
L -19 4134 
L -19 4666 
z
" transform="scale(0.015625)"/>
      <path id="DejaVuSans-64" d="M 2906 2969 
L 2906 4863 
L 3481 4863 
L 3481 0 
L 2906 0 
L 2906 525 
Q 2725 213 2448 61 
Q 2172 -91 1784 -91 
Q 1150 -91 751 415 
Q 353 922 353 1747 
Q 353 2572 751 3078 
Q 1150 3584 1784 3584 
Q 2172 3584 2448 3432 
Q 2725 3281 2906 2969 
z
M 947 1747 
Q 947 1113 1208 752 
Q 1469 391 1925 391 
Q 2381 391 2643 752 
Q 2906 1113 2906 1747 
Q 2906 2381 2643 2742 
Q 2381 3103 1925 3103 
Q 1469 3103 1208 2742 
Q 947 2381 947 1747 
z
" transform="scale(0.015625)"/>
      <path id="DejaVuSans-2f" d="M 1625 4666 
L 2156 4666 
L 531 -594 
L 0 -594 
L 1625 4666 
z
" transform="scale(0.015625)"/>
      <path id="DejaVuSans-6e" d="M 3513 2113 
L 3513 0 
L 2938 0 
L 2938 2094 
Q 2938 2591 2744 2837 
Q 2550 3084 2163 3084 
Q 1697 3084 1428 2787 
Q 1159 2491 1159 1978 
L 1159 0 
L 581 0 
L 581 3500 
L 1159 3500 
L 1159 2956 
Q 1366 3272 1645 3428 
Q 1925 3584 2291 3584 
Q 2894 3584 3203 3211 
Q 3513 2838 3513 2113 
z
" transform="scale(0.015625)"/>
      <path id="DejaVuSans-67" d="M 2906 1791 
Q 2906 2416 2648 2759 
Q 2391 3103 1925 3103 
Q 1463 3103 1205 2759 
Q 947 2416 947 1791 
Q 947 1169 1205 825 
Q 1463 481 1925 481 
Q 2391 481 2648 825 
Q 2906 1169 2906 1791 
z
M 3481 434 
Q 3481 -459 3084 -895 
Q 2688 -1331 1869 -1331 
Q 1566 -1331 1297 -1286 
Q 1028 -1241 775 -1147 
L 775 -588 
Q 1028 -725 1275 -790 
Q 1522 -856 1778 -856 
Q 2344 -856 2625 -561 
Q 2906 -266 2906 331 
L 2906 616 
Q 2728 306 2450 153 
Q 2172 0 1784 0 
Q 1141 0 747 490 
Q 353 981 353 1791 
Q 353 2603 747 3093 
Q 1141 3584 1784 3584 
Q 2172 3584 2450 3431 
Q 2728 3278 2906 2969 
L 2906 3500 
L 3481 3500 
L 3481 434 
z
" transform="scale(0.015625)"/>
      <path id="DejaVuSans-2014" d="M 313 1978 
L 6088 1978 
L 6088 1528 
L 313 1528 
L 313 1978 
z
" transform="scale(0.015625)"/>
      <path id="DejaVuSans-49" d="M 628 4666 
L 1259 4666 
L 1259 0 
L 628 0 
L 628 4666 
z
" transform="scale(0.015625)"/>
      <path id="DejaVuSans-53" d="M 3425 4513 
L 3425 3897 
Q 3066 4069 2747 4153 
Q 2428 4238 2131 4238 
Q 1616 4238 1336 4038 
Q 1056 3838 1056 3469 
Q 1056 3159 1242 3001 
Q 1428 2844 1947 2747 
L 2328 2669 
Q 3034 2534 3370 2195 
Q 3706 1856 3706 1288 
Q 3706 609 3251 259 
Q 2797 -91 1919 -91 
Q 1588 -91 1214 -16 
Q 841 59 441 206 
L 441 856 
Q 825 641 1194 531 
Q 1563 422 1919 422 
Q 2459 422 2753 634 
Q 3047 847 3047 1241 
Q 3047 1584 2836 1778 
Q 2625 1972 2144 2069 
L 1759 2144 
Q 1053 2284 737 2584 
Q 422 2884 422 3419 
Q 422 4038 858 4394 
Q 1294 4750 2059 4750 
Q 2388 4750 2728 4690 
Q 3069 4631 3425 4513 
z
" transform="scale(0.015625)"/>
      <path id="DejaVuSans-4f" d="M 2522 4238 
Q 1834 4238 1429 3725 
Q 1025 3213 1025 2328 
Q 1025 1447 1429 934 
Q 1834 422 2522 422 
Q 3209 422 3611 934 
Q 4013 1447 4013 2328 
Q 4013 3213 3611 3725 
Q 3209 4238 2522 4238 
z
M 2522 4750 
Q 3503 4750 4090 4092 
Q 4678 3434 4678 2328 
Q 4678 1225 4090 567 
Q 3503 -91 2522 -91 
Q 1538 -91 948 565 
Q 359 1222 359 2328 
Q 359 3434 948 4092 
Q 1538 4750 2522 4750 
z
" transform="scale(0.015625)"/>
      <path id="DejaVuSans-44" d="M 1259 4147 
L 1259 519 
L 2022 519 
Q 2988 519 3436 956 
Q 3884 1394 3884 2338 
Q 3884 3275 3436 3711 
Q 2988 4147 2022 4147 
L 1259 4147 
z
M 628 4666 
L 1925 4666 
Q 3281 4666 3915 4102 
Q 4550 3538 4550 2338 
Q 4550 1131 3912 565 
Q 3275 0 1925 0 
L 628 0 
L 628 4666 
z
" transform="scale(0.015625)"/>
      <path id="DejaVuSans-4c" d="M 628 4666 
L 1259 4666 
L 1259 531 
L 3531 531 
L 3531 0 
L 628 0 
L 628 4666 
z
" transform="scale(0.015625)"/>
      <path id="DejaVuSans-43" d="M 4122 4306 
L 4122 3641 
Q 3803 3938 3442 4084 
Q 3081 4231 2675 4231 
Q 1875 4231 1450 3742 
Q 1025 3253 1025 2328 
Q 1025 1406 1450 917 
Q 1875 428 2675 428 
Q 3081 428 3442 575 
Q 3803 722 4122 1019 
L 4122 359 
Q 3791 134 3420 21 
Q 3050 -91 2638 -91 
Q 1578 -91 968 557 
Q 359 1206 359 2328 
Q 359 3453 968 4101 
Q 1578 4750 2638 4750 
Q 3056 4750 3426 4639 
Q 3797 4528 4122 4306 
z
" transform="scale(0.015625)"/>
      <path id="DejaVuSans-68" d="M 3513 2113 
L 3513 0 
L 2938 0 
L 2938 2094 
Q 2938 2591 2744 2837 
Q 2550 3084 2163 3084 
Q 1697 3084 1428 2787 
Q 1159 2491 1159 1978 
L 1159 0 
L 581 0 
L 581 4863 
L 1159 4863 
L 1159 2956 
Q 1366 3272 1645 3428 
Q 1925 3584 2291 3584 
Q 2894 3584 3203 3211 
Q 3513 2838 3513 2113 
z
" transform="scale(0.015625)"/>
     </defs>
     <use xlink:href="#DejaVuSans-54"/>
     <use xlink:href="#DejaVuSans-69" transform="translate(57.958984 0)"/>
     <use xlink:href="#DejaVuSans-65" transform="translate(85.742188 0)"/>
     <use xlink:href="#DejaVuSans-2d" transform="translate(147.265625 0)"/>
     <use xlink:href="#DejaVuSans-72" transform="translate(183.349609 0)"/>
     <use xlink:href="#DejaVuSans-6f" transform="translate(222.212891 0)"/>
     <use xlink:href="#DejaVuSans-64" transform="translate(283.394531 0)"/>
     <use xlink:href="#DejaVuSans-20" transform="translate(346.871094 0)"/>
     <use xlink:href="#DejaVuSans-2f" transform="translate(378.658203 0)"/>
     <use xlink:href="#DejaVuSans-20" transform="translate(412.349609 0)"/>
     <use xlink:href="#DejaVuSans-73" transform="translate(444.136719 0)"/>
     <use xlink:href="#DejaVuSans-74" transform="translate(496.236328 0)"/>
     <use xlink:href="#DejaVuSans-65" transform="translate(535.445312 0)"/>
     <use xlink:href="#DejaVuSans-65" transform="translate(596.96875 0)"/>
     <use xlink:href="#DejaVuSans-72" transform="translate(658.492188 0)"/>
     <use xlink:href="#DejaVuSans-69" transform="translate(699.605469 0)"/>
     <use xlink:href="#DejaVuSans-6e" transform="translate(727.388672 0)"/>
     <use xlink:href="#DejaVuSans-67" transform="translate(790.767578 0)"/>
     <use xlink:href="#DejaVuSans-2d" transform="translate(854.244141 0)"/>
     <use xlink:href="#DejaVuSans-61" transform="translate(890.328125 0)"/>
     <use xlink:href="#DejaVuSans-72" transform="translate(951.607422 0)"/>
     <use xlink:href="#DejaVuSans-6d" transform="translate(990.970703 0)"/>
     <use xlink:href="#DejaVuSans-20" transform="translate(1088.382812 0)"/>
     <use xlink:href="#DejaVuSans-61" transform="translate(1120.169922 0)"/>
     <use xlink:href="#DejaVuSans-78" transform="translate(1181.449219 0)"/>
     <use xlink:href="#DejaVuSans-69" transform="translate(1240.628906 0)"/>
     <use xlink:href="#DejaVuSans-61" transform="translate(1268.412109 0)"/>
     <use xlink:href="#DejaVuSans-6c" transform="translate(1329.691406 0)"/>
     <use xlink:href="#DejaVuSans-20" transform="translate(1357.474609 0)"/>
     <use xlink:href="#DejaVuSans-66" transform="translate(1389.261719 0)"/>
     <use xlink:href="#DejaVuSans-6f" transform="translate(1424.466797 0)"/>
     <use xlink:href="#DejaVuSans-72" transform="translate(1485.648438 0)"/>
     <use xlink:href="#DejaVuSans-63" transform="translate(1524.511719 0)"/>
     <use xlink:href="#DejaVuSans-65" transform="translate(1579.492188 0)"/>
     <use xlink:href="#DejaVuSans-73" transform="translate(1641.015625 0)"/>
     <use xlink:href="#DejaVuSans-20" transform="translate(1693.115234 0)"/>
     <use xlink:href="#DejaVuSans-2014" transform="translate(1724.902344 0)"/>
     <use xlink:href="#DejaVuSans-20" transform="translate(1824.902344 0)"/>
     <use xlink:href="#DejaVuSans-49" transform="translate(1856.689453 0)"/>
     <use xlink:href="#DejaVuSans-53" transform="translate(1886.181641 0)"/>
     <use xlink:href="#DejaVuSans-4f" transform="translate(1949.658203 0)"/>
     <use xlink:href="#DejaVuSans-20" transform="translate(2028.369141 0)"/>
     <use xlink:href="#DejaVuSans-33" transform="translate(2060.15625 0)"/>
     <use xlink:href="#DejaVuSans-38" transform="translate(2123.779297 0)"/>
     <use xlink:href="#DejaVuSans-38" transform="translate(2187.402344 0)"/>
     <use xlink:href="#DejaVuSans-38" transform="translate(2251.025391 0)"/>
     <use xlink:href="#DejaVuSans-2d" transform="translate(2314.648438 0)"/>
     <use xlink:href="#DejaVuSans-31" transform="translate(2350.732422 0)"/>
     <use xlink:href="#DejaVuSans-20" transform="translate(2414.355469 0)"/>
     <use xlink:href="#DejaVuSans-44" transform="translate(2446.142578 0)"/>
     <use xlink:href="#DejaVuSans-4c" transform="translate(2523.144531 0)"/>
     <use xlink:href="#DejaVuSans-43" transform="translate(2578.857422 0)"/>
     <use xlink:href="#DejaVuSans-20" transform="translate(2648.681641 0)"/>
     <use xlink:href="#DejaVuSans-61" transform="translate(2680.46875 0)"/>
     <use xlink:href="#DejaVuSans-74" transform="translate(2741.748047 0)"/>
     <use xlink:href="#DejaVuSans-20" transform="translate(2780.957031 0)"/>
     <use xlink:href="#DejaVuSans-38" transform="translate(2812.744141 0)"/>
     <use xlink:href="#DejaVuSans-30" transform="translate(2876.367188 0)"/>
     <use xlink:href="#DejaVuSans-20" transform="translate(2939.990234 0)"/>
     <use xlink:href="#DejaVuSans-6b" transform="translate(2971.777344 0)"/>
     <use xlink:href="#DejaVuSans-6d" transform="translate(3029.6875 0)"/>
     <use xlink:href="#DejaVuSans-2f" transform="translate(3127.099609 0)"/>
     <use xlink:href="#DejaVuSans-68" transform="translate(3160.791016 0)"/>
    </g>
   </g>
   <g id="legend_1">
    <g id="patch_7">
     <path d="M 499.18625 68.5075 
L 631.6 68.5075 
Q 633.2 68.5075 633.2 66.9075 
L 633.2 32.48 
Q 633.2 30.88 631.6 30.88 
L 499.18625 30.88 
Q 497.58625 30.88 497.58625 32.48 
L 497.58625 66.9075 
Q 497.58625 68.5075 499.18625 68.5075 
z
" style="fill: #ffffff; opacity: 0.8; stroke: #cccccc; stroke-linejoin: miter"/>
    </g>
    <g id="line2d_41">
     <path d="M 500.78625 37.35875 
L 508.78625 37.35875 
L 516.78625 37.35875 
" style="fill: none; stroke: #2ca02c; stroke-width: 1.5; stroke-linecap: square"/>
    </g>
    <g id="text_24">
     <!-- tie rod left -->
     <g transform="translate(523.18625 40.15875) scale(0.08 -0.08)">
      <use xlink:href="#DejaVuSans-74"/>
      <use xlink:href="#DejaVuSans-69" transform="translate(39.208984 0)"/>
      <use xlink:href="#DejaVuSans-65" transform="translate(66.992188 0)"/>
      <use xlink:href="#DejaVuSans-20" transform="translate(128.515625 0)"/>
      <use xlink:href="#DejaVuSans-72" transform="translate(160.302734 0)"/>
      <use xlink:href="#DejaVuSans-6f" transform="translate(199.166016 0)"/>
      <use xlink:href="#DejaVuSans-64" transform="translate(260.347656 0)"/>
      <use xlink:href="#DejaVuSans-20" transform="translate(323.824219 0)"/>
      <use xlink:href="#DejaVuSans-6c" transform="translate(355.611328 0)"/>
      <use xlink:href="#DejaVuSans-65" transform="translate(383.394531 0)"/>
      <use xlink:href="#DejaVuSans-66" transform="translate(444.917969 0)"/>
      <use xlink:href="#DejaVuSans-74" transform="translate(478.373047 0)"/>
     </g>
    </g>
    <g id="line2d_42">
     <path d="M 500.78625 49.10125 
L 508.78625 49.10125 
L 516.78625 49.10125 
" style="fill: none; stroke: #d62728; stroke-width: 1.5; stroke-linecap: square"/>
    </g>
    <g id="text_25">
     <!-- tie rod right -->
     <g transform="translate(523.18625 51.90125) scale(0.08 -0.08)">
      <use xlink:href="#DejaVuSans-74"/>
      <use xlink:href="#DejaVuSans-69" transform="translate(39.208984 0)"/>
      <use xlink:href="#DejaVuSans-65" transform="translate(66.992188 0)"/>
      <use xlink:href="#DejaVuSans-20" transform="translate(128.515625 0)"/>
      <use xlink:href="#DejaVuSans-72" transform="translate(160.302734 0)"/>
      <use xlink:href="#DejaVuSans-6f" transform="translate(199.166016 0)"/>
      <use xlink:href="#DejaVuSans-64" transform="translate(260.347656 0)"/>
      <use xlink:href="#DejaVuSans-20" transform="translate(323.824219 0)"/>
      <use xlink:href="#DejaVuSans-72" transform="translate(355.611328 0)"/>
      <use xlink:href="#DejaVuSans-69" transform="translate(396.724609 0)"/>
      <use xlink:href="#DejaVuSans-67" transform="translate(424.507812 0)"/>
      <use xlink:href="#DejaVuSans-68" transform="translate(487.984375 0)"/>
      <use xlink:href="#DejaVuSans-74" transform="translate(551.363281 0)"/>
     </g>
    </g>
    <g id="line2d_43">
     <path d="M 500.78625 60.84375 
L 508.78625 60.84375 
L 516.78625 60.84375 
" style="fill: none; stroke-dasharray: 3.7,1.6; stroke-dashoffset: 0; stroke: #000000; stroke-opacity: 0.5"/>
    </g>
    <g id="text_26">
     <!-- rack (sum + wheel inertia) -->
     <g transform="translate(523.18625 63.64375) scale(0.08 -0.08)">
      <defs>
       <path id="DejaVuSans-28" d="M 1984 4856 
Q 1566 4138 1362 3434 
Q 1159 2731 1159 2009 
Q 1159 1288 1364 580 
Q 1569 -128 1984 -844 
L 1484 -844 
Q 1016 -109 783 600 
Q 550 1309 550 2009 
Q 550 2706 781 3412 
Q 1013 4119 1484 4856 
L 1984 4856 
z
" transform="scale(0.015625)"/>
       <path id="DejaVuSans-75" d="M 544 1381 
L 544 3500 
L 1119 3500 
L 1119 1403 
Q 1119 906 1312 657 
Q 1506 409 1894 409 
Q 2359 409 2629 706 
Q 2900 1003 2900 1516 
L 2900 3500 
L 3475 3500 
L 3475 0 
L 2900 0 
L 2900 538 
Q 2691 219 2414 64 
Q 2138 -91 1772 -91 
Q 1169 -91 856 284 
Q 544 659 544 1381 
z
M 1991 3584 
L 1991 3584 
z
" transform="scale(0.015625)"/>
       <path id="DejaVuSans-77" d="M 269 3500 
L 844 3500 
L 1563 769 
L 2278 3500 
L 2956 3500 
L 3675 769 
L 4391 3500 
L 4966 3500 
L 4050 0 
L 3372 0 
L 2619 2869 
L 1863 0 
L 1184 0 
L 269 3500 
z
" transform="scale(0.015625)"/>
       <path id="DejaVuSans-29" d="M 513 4856 
L 1013 4856 
Q 1481 4119 1714 3412 
Q 1947 2706 1947 2009 
Q 1947 1309 1714 600 
Q 1481 -109 1013 -844 
L 513 -844 
Q 928 -128 1133 580 
Q 1338 1288 1338 2009 
Q 1338 2731 1133 3434 
Q 928 4138 513 4856 
z
" transform="scale(0.015625)"/>
      </defs>
      <use xlink:href="#DejaVuSans-72"/>
      <use xlink:href="#DejaVuSans-61" transform="translate(41.113281 0)"/>
      <use xlink:href="#DejaVuSans-63" transform="translate(102.392578 0)"/>
      <use xlink:href="#DejaVuSans-6b" transform="translate(157.373047 0)"/>
      <use xlink:href="#DejaVuSans-20" transform="translate(215.283203 0)"/>
      <use xlink:href="#DejaVuSans-28" transform="translate(247.070312 0)"/>
      <use xlink:href="#DejaVuSans-73" transform="translate(286.083984 0)"/>
      <use xlink:href="#DejaVuSans-75" transform="translate(338.183594 0)"/>
      <use xlink:href="#DejaVuSans-6d" transform="translate(401.5625 0)"/>
      <use xlink:href="#DejaVuSans-20" transform="translate(498.974609 0)"/>
      <use xlink:href="#DejaVuSans-2b" transform="translate(530.761719 0)"/>
      <use xlink:href="#DejaVuSans-20" transform="translate(614.550781 0)"/>
      <use xlink:href="#DejaVuSans-77" transform="translate(646.337891 0)"/>
      <use xlink:href="#DejaVuSans-68" transform="translate(728.125 0)"/>
      <use xlink:href="#DejaVuSans-65" transform="translate(791.503906 0)"/>
      <use xlink:href="#DejaVuSans-65" transform="translate(853.027344 0)"/>
      <use xlink:href="#DejaVuSans-6c" transform="translate(914.550781 0)"/>
      <use xlink:href="#DejaVuSans-20" transform="translate(942.333984 0)"/>
      <use xlink:href="#DejaVuSans-69" transform="translate(974.121094 0)"/>
      <use xlink:href="#DejaVuSans-6e" transform="translate(1001.904297 0)"/>
      <use xlink:href="#DejaVuSans-65" transform="translate(1065.283203 0)"/>
      <use xlink:href="#DejaVuSans-72" transform="translate(1126.806641 0)"/>
      <use xlink:href="#DejaVuSans-74" transform="translate(1167.919922 0)"/>
      <use xlink:href="#DejaVuSans-69" transform="translate(1207.128906 0)"/>
      <use xlink:href="#DejaVuSans-61" transform="translate(1234.912109 0)"/>
      <use xlink:href="#DejaVuSans-29" transform="translate(1296.191406 0)"/>
     </g>
    </g>
   </g>
  </g>
 </g>
 <defs>
  <clipPath id="p359e03a017">
   <rect x="56.09" y="26.88" width="581.11" height="233.56"/>
  </clipPath>
 </defs>
</svg>
