<?xml version="1.0" encoding="utf-8" standalone="no"?>
<!DOCTYPE svg PUBLIC "-//W3C//DTD SVG 1.1//EN"
  "http://www.w3.org/Graphics/SVG/1.1/DTD/svg11.dtd">
<svg xmlns:xlink="http://www.w3.org/1999/xlink" width="648pt" height="302.4pt" viewBox="0 0 648 302.4" xmlns="http://www.w3.org/2000/svg" version="1.1">
 <metadata>
  <rdf:RDF xmlns:dc="http://purl.org/dc/elements/1.1/" xmlns:cc="http://creativecommons.org/ns#" xmlns:rdf="http://www.w3.org/1999/02/22-rdf-syntax-ns#">
   <cc:Work>
    <dc:type rdf:resource="http://purl.org/dc/dcmitype/StillImage"/>
    <dc:date>2026-07-07T09:15:34.927590</dc:date>
    <dc:format>image/svg+xml</dc:format>
    <dc:creator>
     <cc:Agent>
      <dc:title>Matplotlib v3.10.8, https://matplotlib.org/</dc:title>
     </cc:Agent>
    </dc:creator>
   </cc:Work>
  </rdf:RDF>
 </metadata>
 <defs>
  <style type="text/css">*{stroke-linejoin: round; stroke-linecap: butt}</style>
 </defs>
 <g id="figure_1">
  <g id="patch_1">
   <path d="M 0 302.4 
L 648 302.4 
L 648 0 
L 0 0 
z
" style="fill: #ffffff"/>
  </g>
  <g id="axes_1">
   <g id="patch_2">
    <path d="M 56.09 260.44 
L 637.2 260.44 
L 637.2 26.88 
L 56.09 26.88 
z
" style="fill: #ffffff"/>
   </g>
   <g id="matplotlib.axis_1">
    <g id="xtick_1">
     <g id="line2d_1">
      <path d="M 82.504091 260.44 
L 82.504091 26.88 
" clip-path="url(#pa9c2c247c7)" style="fill: none; stroke: #b0b0b0; stroke-opacity: 0.3; stroke-width: 0.8; stroke-linecap: square"/>
     </g>
     <g id="line2d_2">
      <defs>
       <path id="mdecf1c62ab" d="M 0 0 
L 0 3.5 
" style="stroke: #000000; stroke-width: 0.8"/>
      </defs>
      <g>
       <use xlink:href="#mdecf1c62ab" x="82.504091" y="260.44" style="stroke: #000000; stroke-width: 0.8"/>
      </g>
     </g>
     <g id="text_1">
      <!-- 0 -->
      <g transform="translate(79.322841 275.038438) scale(0.1 -0.1)">
       <defs>
        <path id="DejaVuSans-30" d="M 2034 4250 
Q 1547 4250 1301 3770 
Q 1056 3291 1056 2328 
Q 1056 1369 1301 889 
Q 1547 409 2034 409 
Q 2525 409 2770 889 
Q 3016 1369 3016 2328 
Q 3016 3291 2770 3770 
Q 2525 4250 2034 4250 
z
M 2034 4750 
Q 2819 4750 3233 4129 
Q 3647 3509 3647 2328 
Q 3647 1150 3233 529 
Q 2819 -91 2034 -91 
Q 1250 -91 836 529 
Q 422 1150 422 2328 
Q 422 3509 836 4129 
Q 1250 4750 2034 4750 
z
" transform="scale(0.015625)"/>
       </defs>
       <use xlink:href="#DejaVuSans-30"/>
      </g>
     </g>
    </g>
    <g id="xtick_2">
     <g id="line2d_3">
      <path d="M 148.539318 260.44 
L 148.539318 26.88 
" clip-path="url(#pa9c2c247c7)" style="fill: none; stroke: #b0b0b0; stroke-opacity: 0.3; stroke-width: 0.8; stroke-linecap: square"/>
     </g>
     <g id="line2d_4">
      <g>
       <use xlink:href="#mdecf1c62ab" x="148.539318" y="260.44" style="stroke: #000000; stroke-width: 0.8"/>
      </g>
     </g>
     <g id="text_2">
      <!-- 1 -->
      <g transform="translate(145.358068 275.038438) scale(0.1 -0.1)">
       <defs>
        <path id="DejaVuSans-31" d="M 794 531 
L 1825 531 
L 1825 4091 
L 703 3866 
L 703 4441 
L 1819 4666 
L 2450 4666 
L 2450 531 
L 3481 531 
L 3481 0 
L 794 0 
L 794 531 
z
" transform="scale(0.015625)"/>
       </defs>
       <use xlink:href="#DejaVuSans-31"/>
      </g>
     </g>
    </g>
    <g id="xtick_3">
     <g id="line2d_5">
      <path d="M 214.574545 260.44 
L 214.574545 26.88 
" clip-path="url(#pa9c2c247c7)" style="fill: none; stroke: #b0b0b0; stroke-opacity: 0.3; stroke-width: 0.8; stroke-linecap: square"/>
     </g>
     <g id="line2d_6">
      <g>
       <use xlink:href="#mdecf1c62ab" x="214.574545" y="260.44" style="stroke: #000000; stroke-width: 0.8"/>
      </g>
     </g>
     <g id="text_3">
      <!-- 2 -->
      <g transform="translate(211.393295 275.038438) scale(0.1 -0.1)">
       <defs>
        <path id="DejaVuSans-32" d="M 1228 531 
L 3431 531 
L 3431 0 
L 469 0 
L 469 531 
Q 828 903 1448 1529 
Q 2069 2156 2228 2338 
Q 2531 2678 2651 2914 
Q 2772 3150 2772 3378 
Q 2772 3750 2511 3984 
Q 2250 4219 1831 4219 
Q 1534 4219 1204 4116 
Q 875 4013 500 3803 
L 500 4441 
Q 881 4594 1212 4672 
Q 1544 4750 1819 4750 
Q 2544 4750 2975 4387 
Q 3406 4025 3406 3419 
Q 3406 3131 3298 2873 
Q 3191 2616 2906 2266 
Q 2828 2175 2409 1742 
Q 1991 1309 1228 531 
z
" transform="scale(0.015625)"/>
       </defs>
       <use xlink:href="#DejaVuSans-32"/>
      </g>
     </g>
    </g>
    <g id="xtick_4">
     <g id="line2d_7">
      <path d="M 280.609773 260.44 
L 280.609773 26.88 
" clip-path="url(#pa9c2c247c7)" style="fill: none; stroke: #b0b0b0; stroke-opacity: 0.3; stroke-width: 0.8; stroke-linecap: square"/>
     </g>
     <g id="line2d_8">
      <g>
       <use xlink:href="#mdecf1c62ab" x="280.609773" y="260.44" style="stroke: #000000; stroke-width: 0.8"/>
      </g>
     </g>
     <g id="text_4">
      <!-- 3 -->
      <g transform="translate(277.428523 275.038438) scale(0.1 -0.1)">
       <defs>
        <path id="DejaVuSans-33" d="M 2597 2516 
Q 3050 2419 3304 2112 
Q 3559 1806 3559 1356 
Q 3559 666 3084 287 
Q 2609 -91 1734 -91 
Q 1441 -91 1130 -33 
Q 819 25 488 141 
L 488 750 
Q 750 597 1062 519 
Q 1375 441 1716 441 
Q 2309 441 2620 675 
Q 2931 909 2931 1356 
Q 2931 1769 2642 2001 
Q 2353 2234 1838 2234 
L 1294 2234 
L 1294 2753 
L 1863 2753 
Q 2328 2753 2575 2939 
Q 2822 3125 2822 3475 
Q 2822 3834 2567 4026 
Q 2313 4219 1838 4219 
Q 1578 4219 1281 4162 
Q 984 4106 628 3988 
L 628 4550 
Q 988 4650 1302 4700 
Q 1616 4750 1894 4750 
Q 2613 4750 3031 4423 
Q 3450 4097 3450 3541 
Q 3450 3153 3228 2886 
Q 3006 2619 2597 2516 
z
" transform="scale(0.015625)"/>
       </defs>
       <use xlink:href="#DejaVuSans-33"/>
      </g>
     </g>
    </g>
    <g id="xtick_5">
     <g id="line2d_9">
      <path d="M 346.645 260.44 
L 346.645 26.88 
" clip-path="url(#pa9c2c247c7)" style="fill: none; stroke: #b0b0b0; stroke-opacity: 0.3; stroke-width: 0.8; stroke-linecap: square"/>
     </g>
     <g id="line2d_10">
      <g>
       <use xlink:href="#mdecf1c62ab" x="346.645" y="260.44" style="stroke: #000000; stroke-width: 0.8"/>
      </g>
     </g>
     <g id="text_5">
      <!-- 4 -->
      <g transform="translate(343.46375 275.038438) scale(0.1 -0.1)">
       <defs>
        <path id="DejaVuSans-34" d="M 2419 4116 
L 825 1625 
L 2419 1625 
L 2419 4116 
z
M 2253 4666 
L 3047 4666 
L 3047 1625 
L 3713 1625 
L 3713 1100 
L 3047 1100 
L 3047 0 
L 2419 0 
L 2419 1100 
L 313 1100 
L 313 1709 
L 2253 4666 
z
" transform="scale(0.015625)"/>
       </defs>
       <use xlink:href="#DejaVuSans-34"/>
      </g>
     </g>
    </g>
    <g id="xtick_6">
     <g id="line2d_11">
      <path d="M 412.680227 260.44 
L 412.680227 26.88 
" clip-path="url(#pa9c2c247c7)" style="fill: none; stroke: #b0b0b0; stroke-opacity: 0.3; stroke-width: 0.8; stroke-linecap: square"/>
     </g>
     <g id="line2d_12">
      <g>
       <use xlink:href="#mdecf1c62ab" x="412.680227" y="260.44" style="stroke: #000000; stroke-width: 0.8"/>
      </g>
     </g>
     <g id="text_6">
      <!-- 5 -->
      <g transform="translate(409.498977 275.038438) scale(0.1 -0.1)">
       <defs>
        <path id="DejaVuSans-35" d="M 691 4666 
L 3169 4666 
L 3169 4134 
L 1269 4134 
L 1269 2991 
Q 1406 3038 1543 3061 
Q 1681 3084 1819 3084 
Q 2600 3084 3056 2656 
Q 3513 2228 3513 1497 
Q 3513 744 3044 326 
Q 2575 -91 1722 -91 
Q 1428 -91 1123 -41 
Q 819 9 494 109 
L 494 744 
Q 775 591 1075 516 
Q 1375 441 1709 441 
Q 2250 441 2565 725 
Q 2881 1009 2881 1497 
Q 2881 1984 2565 2268 
Q 2250 2553 1709 2553 
Q 1456 2553 1204 2497 
Q 953 2441 691 2322 
L 691 4666 
z
" transform="scale(0.015625)"/>
       </defs>
       <use xlink:href="#DejaVuSans-35"/>
      </g>
     </g>
    </g>
    <g id="xtick_7">
     <g id="line2d_13">
      <path d="M 478.715455 260.44 
L 478.715455 26.88 
" clip-path="url(#pa9c2c247c7)" style="fill: none; stroke: #b0b0b0; stroke-opacity: 0.3; stroke-width: 0.8; stroke-linecap: square"/>
     </g>
     <g id="line2d_14">
      <g>
       <use xlink:href="#mdecf1c62ab" x="478.715455" y="260.44" style="stroke: #000000; stroke-width: 0.8"/>
      </g>
     </g>
     <g id="text_7">
      <!-- 6 -->
      <g transform="translate(475.534205 275.038438) scale(0.1 -0.1)">
       <defs>
        <path id="DejaVuSans-36" d="M 2113 2584 
Q 1688 2584 1439 2293 
Q 1191 2003 1191 1497 
Q 1191 994 1439 701 
Q 1688 409 2113 409 
Q 2538 409 2786 701 
Q 3034 994 3034 1497 
Q 3034 2003 2786 2293 
Q 2538 2584 2113 2584 
z
M 3366 4563 
L 3366 3988 
Q 3128 4100 2886 4159 
Q 2644 4219 2406 4219 
Q 1781 4219 1451 3797 
Q 1122 3375 1075 2522 
Q 1259 2794 1537 2939 
Q 1816 3084 2150 3084 
Q 2853 3084 3261 2657 
Q 3669 2231 3669 1497 
Q 3669 778 3244 343 
Q 2819 -91 2113 -91 
Q 1303 -91 875 529 
Q 447 1150 447 2328 
Q 447 3434 972 4092 
Q 1497 4750 2381 4750 
Q 2619 4750 2861 4703 
Q 3103 4656 3366 4563 
z
" transform="scale(0.015625)"/>
       </defs>
       <use xlink:href="#DejaVuSans-36"/>
      </g>
     </g>
    </g>
    <g id="xtick_8">
     <g id="line2d_15">
      <path d="M 544.750682 260.44 
L 544.750682 26.88 
" clip-path="url(#pa9c2c247c7)" style="fill: none; stroke: #b0b0b0; stroke-opacity: 0.3; stroke-width: 0.8; stroke-linecap: square"/>
     </g>
     <g id="line2d_16">
      <g>
       <use xlink:href="#mdecf1c62ab" x="544.750682" y="260.44" style="stroke: #000000; stroke-width: 0.8"/>
      </g>
     </g>
     <g id="text_8">
      <!-- 7 -->
      <g transform="translate(541.569432 275.038438) scale(0.1 -0.1)">
       <defs>
        <path id="DejaVuSans-37" d="M 525 4666 
L 3525 4666 
L 3525 4397 
L 1831 0 
L 1172 0 
L 2766 4134 
L 525 4134 
L 525 4666 
z
" transform="scale(0.015625)"/>
       </defs>
       <use xlink:href="#DejaVuSans-37"/>
      </g>
     </g>
    </g>
    <g id="xtick_9">
     <g id="line2d_17">
      <path d="M 610.785909 260.44 
L 610.785909 26.88 
" clip-path="url(#pa9c2c247c7)" style="fill: none; stroke: #b0b0b0; stroke-opacity: 0.3; stroke-width: 0.8; stroke-linecap: square"/>
     </g>
     <g id="line2d_18">
      <g>
       <use xlink:href="#mdecf1c62ab" x="610.785909" y="260.44" style="stroke: #000000; stroke-width: 0.8"/>
      </g>
     </g>
     <g id="text_9">
      <!-- 8 -->
      <g transform="translate(607.604659 275.038438) scale(0.1 -0.1)">
       <defs>
        <path id="DejaVuSans-38" d="M 2034 2216 
Q 1584 2216 1326 1975 
Q 1069 1734 1069 1313 
Q 1069 891 1326 650 
Q 1584 409 2034 409 
Q 2484 409 2743 651 
Q 3003 894 3003 1313 
Q 3003 1734 2745 1975 
Q 2488 2216 2034 2216 
z
M 1403 2484 
Q 997 2584 770 2862 
Q 544 3141 544 3541 
Q 544 4100 942 4425 
Q 1341 4750 2034 4750 
Q 2731 4750 3128 4425 
Q 3525 4100 3525 3541 
Q 3525 3141 3298 2862 
Q 3072 2584 2669 2484 
Q 3125 2378 3379 2068 
Q 3634 1759 3634 1313 
Q 3634 634 3220 271 
Q 2806 -91 2034 -91 
Q 1263 -91 848 271 
Q 434 634 434 1313 
Q 434 1759 690 2068 
Q 947 2378 1403 2484 
z
M 1172 3481 
Q 1172 3119 1398 2916 
Q 1625 2713 2034 2713 
Q 2441 2713 2670 2916 
Q 2900 3119 2900 3481 
Q 2900 3844 2670 4047 
Q 2441 4250 2034 4250 
Q 1625 4250 1398 4047 
Q 1172 3844 1172 3481 
z
" transform="scale(0.015625)"/>
       </defs>
       <use xlink:href="#DejaVuSans-38"/>
      </g>
     </g>
    </g>
    <g id="text_10">
     <!-- time [s] -->
     <g transform="translate(327.253594 288.716563) scale(0.1 -0.1)">
      <defs>
       <path id="DejaVuSans-74" d="M 1172 4494 
L 1172 3500 
L 2356 3500 
L 2356 3053 
L 1172 3053 
L 1172 1153 
Q 1172 725 1289 603 
Q 1406 481 1766 481 
L 2356 481 
L 2356 0 
L 1766 0 
Q 1100 0 847 248 
Q 594 497 594 1153 
L 594 3053 
L 172 3053 
L 172 3500 
L 594 3500 
L 594 4494 
L 1172 4494 
z
" transform="scale(0.015625)"/>
       <path id="DejaVuSans-69" d="M 603 3500 
L 1178 3500 
L 1178 0 
L 603 0 
L 603 3500 
z
M 603 4863 
L 1178 4863 
L 1178 4134 
L 603 4134 
L 603 4863 
z
" transform="scale(0.015625)"/>
       <path id="DejaVuSans-6d" d="M 3328 2828 
Q 3544 3216 3844 3400 
Q 4144 3584 4550 3584 
Q 5097 3584 5394 3201 
Q 5691 2819 5691 2113 
L 5691 0 
L 5113 0 
L 5113 2094 
Q 5113 2597 4934 2840 
Q 4756 3084 4391 3084 
Q 3944 3084 3684 2787 
Q 3425 2491 3425 1978 
L 3425 0 
L 2847 0 
L 2847 2094 
Q 2847 2600 2669 2842 
Q 2491 3084 2119 3084 
Q 1678 3084 1418 2786 
Q 1159 2488 1159 1978 
L 1159 0 
L 581 0 
L 581 3500 
L 1159 3500 
L 1159 2956 
Q 1356 3278 1631 3431 
Q 1906 3584 2284 3584 
Q 2666 3584 2933 3390 
Q 3200 3197 3328 2828 
z
" transform="scale(0.015625)"/>
       <path id="DejaVuSans-65" d="M 3597 1894 
L 3597 1613 
L 953 1613 
Q 991 1019 1311 708 
Q 1631 397 2203 397 
Q 2534 397 2845 478 
Q 3156 559 3463 722 
L 3463 178 
Q 3153 47 2828 -22 
Q 2503 -91 2169 -91 
Q 1331 -91 842 396 
Q 353 884 353 1716 
Q 353 2575 817 3079 
Q 1281 3584 2069 3584 
Q 2775 3584 3186 3129 
Q 3597 2675 3597 1894 
z
M 3022 2063 
Q 3016 2534 2758 2815 
Q 2500 3097 2075 3097 
Q 1594 3097 1305 2825 
Q 1016 2553 972 2059 
L 3022 2063 
z
" transform="scale(0.015625)"/>
       <path id="DejaVuSans-20" transform="scale(0.015625)"/>
       <path id="DejaVuSans-5b" d="M 550 4863 
L 1875 4863 
L 1875 4416 
L 1125 4416 
L 1125 -397 
L 1875 -397 
L 1875 -844 
L 550 -844 
L 550 4863 
z
" transform="scale(0.015625)"/>
       <path id="DejaVuSans-73" d="M 2834 3397 
L 2834 2853 
Q 2591 2978 2328 3040 
Q 2066 3103 1784 3103 
Q 1356 3103 1142 2972 
Q 928 2841 928 2578 
Q 928 2378 1081 2264 
Q 1234 2150 1697 2047 
L 1894 2003 
Q 2506 1872 2764 1633 
Q 3022 1394 3022 966 
Q 3022 478 2636 193 
Q 2250 -91 1575 -91 
Q 1294 -91 989 -36 
Q 684 19 347 128 
L 347 722 
Q 666 556 975 473 
Q 1284 391 1588 391 
Q 1994 391 2212 530 
Q 2431 669 2431 922 
Q 2431 1156 2273 1281 
Q 2116 1406 1581 1522 
L 1381 1569 
Q 847 1681 609 1914 
Q 372 2147 372 2553 
Q 372 3047 722 3315 
Q 1072 3584 1716 3584 
Q 2034 3584 2315 3537 
Q 2597 3491 2834 3397 
z
" transform="scale(0.015625)"/>
       <path id="DejaVuSans-5d" d="M 1947 4863 
L 1947 -844 
L 622 -844 
L 622 -397 
L 1369 -397 
L 1369 4416 
L 622 4416 
L 622 4863 
L 1947 4863 
z
" transform="scale(0.015625)"/>
      </defs>
      <use xlink:href="#DejaVuSans-74"/>
      <use xlink:href="#DejaVuSans-69" transform="translate(39.208984 0)"/>
      <use xlink:href="#DejaVuSans-6d" transform="translate(66.992188 0)"/>
      <use xlink:href="#DejaVuSans-65" transform="translate(164.404297 0)"/>
      <use xlink:href="#DejaVuSans-20" transform="translate(225.927734 0)"/>
      <use xlink:href="#DejaVuSans-5b" transform="translate(257.714844 0)"/>
      <use xlink:href="#DejaVuSans-73" transform="translate(296.728516 0)"/>
      <use xlink:href="#DejaVuSans-5d" transform="translate(348.828125 0)"/>
     </g>
    </g>
   </g>
   <g id="matplotlib.axis_2">
    <g id="ytick_1">
     <g id="line2d_19">
      <path d="M 56.09 255.232326 
L 637.2 255.232326 
" clip-path="url(#pa9c2c247c7)" style="fill: none; stroke: #b0b0b0; stroke-opacity: 0.3; stroke-width: 0.8; stroke-linecap: square"/>
     </g>
     <g id="line2d_20">
      <defs>
       <path id="m3e6c84c411" d="M 0 0 
L -3.5 0 
" style="stroke: #000000; stroke-width: 0.8"/>
      </defs>
      <g>
       <use xlink:href="#m3e6c84c411" x="56.09" y="255.232326" style="stroke: #000000; stroke-width: 0.8"/>
      </g>
     </g>
     <g id="text_11">
      <!-- −2.0 -->
      <g transform="translate(24.807188 259.031544) scale(0.1 -0.1)">
       <defs>
        <path id="DejaVuSans-2212" d="M 678 2272 
L 4684 2272 
L 4684 1741 
L 678 1741 
L 678 2272 
z
" transform="scale(0.015625)"/>
        <path id="DejaVuSans-2e" d="M 684 794 
L 1344 794 
L 1344 0 
L 684 0 
L 684 794 
z
" transform="scale(0.015625)"/>
       </defs>
       <use xlink:href="#DejaVuSans-2212"/>
       <use xlink:href="#DejaVuSans-32" transform="translate(83.789062 0)"/>
       <use xlink:href="#DejaVuSans-2e" transform="translate(147.412109 0)"/>
       <use xlink:href="#DejaVuSans-30" transform="translate(179.199219 0)"/>
      </g>
     </g>
    </g>
    <g id="ytick_2">
     <g id="line2d_21">
      <path d="M 56.09 227.765973 
L 637.2 227.765973 
" clip-path="url(#pa9c2c247c7)" style="fill: none; stroke: #b0b0b0; stroke-opacity: 0.3; stroke-width: 0.8; stroke-linecap: square"/>
     </g>
     <g id="line2d_22">
      <g>
       <use xlink:href="#m3e6c84c411" x="56.09" y="227.765973" style="stroke: #000000; stroke-width: 0.8"/>
      </g>
     </g>
     <g id="text_12">
      <!-- −1.5 -->
      <g transform="translate(24.807188 231.565192) scale(0.1 -0.1)">
       <use xlink:href="#DejaVuSans-2212"/>
       <use xlink:href="#DejaVuSans-31" transform="translate(83.789062 0)"/>
       <use xlink:href="#DejaVuSans-2e" transform="translate(147.412109 0)"/>
       <use xlink:href="#DejaVuSans-35" transform="translate(179.199219 0)"/>
      </g>
     </g>
    </g>
    <g id="ytick_3">
     <g id="line2d_23">
      <path d="M 56.09 200.29962 
L 637.2 200.29962 
" clip-path="url(#pa9c2c247c7)" style="fill: none; stroke: #b0b0b0; stroke-opacity: 0.3; stroke-width: 0.8; stroke-linecap: square"/>
     </g>
     <g id="line2d_24">
      <g>
       <use xlink:href="#m3e6c84c411" x="56.09" y="200.29962" style="stroke: #000000; stroke-width: 0.8"/>
      </g>
     </g>
     <g id="text_13">
      <!-- −1.0 -->
      <g transform="translate(24.807188 204.098839) scale(0.1 -0.1)">
       <use xlink:href="#DejaVuSans-2212"/>
       <use xlink:href="#DejaVuSans-31" transform="translate(83.789062 0)"/>
       <use xlink:href="#DejaVuSans-2e" transform="translate(147.412109 0)"/>
       <use xlink:href="#DejaVuSans-30" transform="translate(179.199219 0)"/>
      </g>
     </g>
    </g>
    <g id="ytick_4">
     <g id="line2d_25">
      <path d="M 56.09 172.833267 
L 637.2 172.833267 
" clip-path="url(#pa9c2c247c7)" style="fill: none; stroke: #b0b0b0; stroke-opacity: 0.3; stroke-width: 0.8; stroke-linecap: square"/>
     </g>
     <g id="line2d_26">
      <g>
       <use xlink:href="#m3e6c84c411" x="56.09" y="172.833267" style="stroke: #000000; stroke-width: 0.8"/>
      </g>
     </g>
     <g id="text_14">
      <!-- −0.5 -->
      <g transform="translate(24.807188 176.632486) scale(0.1 -0.1)">
       <use xlink:href="#DejaVuSans-2212"/>
       <use xlink:href="#DejaVuSans-30" transform="translate(83.789062 0)"/>
       <use xlink:href="#DejaVuSans-2e" transform="translate(147.412109 0)"/>
       <use xlink:href="#DejaVuSans-35" transform="translate(179.199219 0)"/>
      </g>
     </g>
    </g>
    <g id="ytick_5">
     <g id="line2d_27">
      <path d="M 56.09 145.366914 
L 637.2 145.366914 
" clip-path="url(#pa9c2c247c7)" style="fill: none; stroke: #b0b0b0; stroke-opacity: 0.3; stroke-width: 0.8; stroke-linecap: square"/>
     </g>
     <g id="line2d_28">
      <g>
       <use xlink:href="#m3e6c84c411" x="56.09" y="145.366914" style="stroke: #000000; stroke-width: 0.8"/>
      </g>
     </g>
     <g id="text_15">
      <!-- 0.0 -->
      <g transform="translate(33.186875 149.166133) scale(0.1 -0.1)">
       <use xlink:href="#DejaVuSans-30"/>
       <use xlink:href="#DejaVuSans-2e" transform="translate(63.623047 0)"/>
       <use xlink:href="#DejaVuSans-30" transform="translate(95.410156 0)"/>
      </g>
     </g>
    </g>
    <g id="ytick_6">
     <g id="line2d_29">
      <path d="M 56.09 117.900562 
L 637.2 117.900562 
" clip-path="url(#pa9c2c247c7)" style="fill: none; stroke: #b0b0b0; stroke-opacity: 0.3; stroke-width: 0.8; stroke-linecap: square"/>
     </g>
     <g id="line2d_30">
      <g>
       <use xlink:href="#m3e6c84c411" x="56.09" y="117.900562" style="stroke: #000000; stroke-width: 0.8"/>
      </g>
     </g>
     <g id="text_16">
      <!-- 0.5 -->
      <g transform="translate(33.186875 121.69978) scale(0.1 -0.1)">
       <use xlink:href="#DejaVuSans-30"/>
       <use xlink:href="#DejaVuSans-2e" transform="translate(63.623047 0)"/>
       <use xlink:href="#DejaVuSans-35" transform="translate(95.410156 0)"/>
      </g>
     </g>
    </g>
    <g id="ytick_7">
     <g id="line2d_31">
      <path d="M 56.09 90.434209 
L 637.2 90.434209 
" clip-path="url(#pa9c2c247c7)" style="fill: none; stroke: #b0b0b0; stroke-opacity: 0.3; stroke-width: 0.8; stroke-linecap: square"/>
     </g>
     <g id="line2d_32">
      <g>
       <use xlink:href="#m3e6c84c411" x="56.09" y="90.434209" style="stroke: #000000; stroke-width: 0.8"/>
      </g>
     </g>
     <g id="text_17">
      <!-- 1.0 -->
      <g transform="translate(33.186875 94.233427) scale(0.1 -0.1)">
       <use xlink:href="#DejaVuSans-31"/>
       <use xlink:href="#DejaVuSans-2e" transform="translate(63.623047 0)"/>
       <use xlink:href="#DejaVuSans-30" transform="translate(95.410156 0)"/>
      </g>
     </g>
    </g>
    <g id="ytick_8">
     <g id="line2d_33">
      <path d="M 56.09 62.967856 
L 637.2 62.967856 
" clip-path="url(#pa9c2c247c7)" style="fill: none; stroke: #b0b0b0; stroke-opacity: 0.3; stroke-width: 0.8; stroke-linecap: square"/>
     </g>
     <g id="line2d_34">
      <g>
       <use xlink:href="#m3e6c84c411" x="56.09" y="62.967856" style="stroke: #000000; stroke-width: 0.8"/>
      </g>
     </g>
     <g id="text_18">
      <!-- 1.5 -->
      <g transform="translate(33.186875 66.767075) scale(0.1 -0.1)">
       <use xlink:href="#DejaVuSans-31"/>
       <use xlink:href="#DejaVuSans-2e" transform="translate(63.623047 0)"/>
       <use xlink:href="#DejaVuSans-35" transform="translate(95.410156 0)"/>
      </g>
     </g>
    </g>
    <g id="ytick_9">
     <g id="line2d_35">
      <path d="M 56.09 35.501503 
L 637.2 35.501503 
" clip-path="url(#pa9c2c247c7)" style="fill: none; stroke: #b0b0b0; stroke-opacity: 0.3; stroke-width: 0.8; stroke-linecap: square"/>
     </g>
     <g id="line2d_36">
      <g>
       <use xlink:href="#m3e6c84c411" x="56.09" y="35.501503" style="stroke: #000000; stroke-width: 0.8"/>
      </g>
     </g>
     <g id="text_19">
      <!-- 2.0 -->
      <g transform="translate(33.186875 39.300722) scale(0.1 -0.1)">
       <use xlink:href="#DejaVuSans-32"/>
       <use xlink:href="#DejaVuSans-2e" transform="translate(63.623047 0)"/>
       <use xlink:href="#DejaVuSans-30" transform="translate(95.410156 0)"/>
      </g>
     </g>
    </g>
    <g id="text_20">
     <!-- axial force [kN] -->
     <g transform="translate(18.7275 181.829531) rotate(-90) scale(0.1 -0.1)">
      <defs>
       <path id="DejaVuSans-61" d="M 2194 1759 
Q 1497 1759 1228 1600 
Q 959 1441 959 1056 
Q 959 750 1161 570 
Q 1363 391 1709 391 
Q 2188 391 2477 730 
Q 2766 1069 2766 1631 
L 2766 1759 
L 2194 1759 
z
M 3341 1997 
L 3341 0 
L 2766 0 
L 2766 531 
Q 2569 213 2275 61 
Q 1981 -91 1556 -91 
Q 1019 -91 701 211 
Q 384 513 384 1019 
Q 384 1609 779 1909 
Q 1175 2209 1959 2209 
L 2766 2209 
L 2766 2266 
Q 2766 2663 2505 2880 
Q 2244 3097 1772 3097 
Q 1472 3097 1187 3025 
Q 903 2953 641 2809 
L 641 3341 
Q 956 3463 1253 3523 
Q 1550 3584 1831 3584 
Q 2591 3584 2966 3190 
Q 3341 2797 3341 1997 
z
" transform="scale(0.015625)"/>
       <path id="DejaVuSans-78" d="M 3513 3500 
L 2247 1797 
L 3578 0 
L 2900 0 
L 1881 1375 
L 863 0 
L 184 0 
L 1544 1831 
L 300 3500 
L 978 3500 
L 1906 2253 
L 2834 3500 
L 3513 3500 
z
" transform="scale(0.015625)"/>
       <path id="DejaVuSans-6c" d="M 603 4863 
L 1178 4863 
L 1178 0 
L 603 0 
L 603 4863 
z
" transform="scale(0.015625)"/>
       <path id="DejaVuSans-66" d="M 2375 4863 
L 2375 4384 
L 1825 4384 
Q 1516 4384 1395 4259 
Q 1275 4134 1275 3809 
L 1275 3500 
L 2222 3500 
L 2222 3053 
L 1275 3053 
L 1275 0 
L 697 0 
L 697 3053 
L 147 3053 
L 147 3500 
L 697 3500 
L 697 3744 
Q 697 4328 969 4595 
Q 1241 4863 1831 4863 
L 2375 4863 
z
" transform="scale(0.015625)"/>
       <path id="DejaVuSans-6f" d="M 1959 3097 
Q 1497 3097 1228 2736 
Q 959 2375 959 1747 
Q 959 1119 1226 758 
Q 1494 397 1959 397 
Q 2419 397 2687 759 
Q 2956 1122 2956 1747 
Q 2956 2369 2687 2733 
Q 2419 3097 1959 3097 
z
M 1959 3584 
Q 2709 3584 3137 3096 
Q 3566 2609 3566 1747 
Q 3566 888 3137 398 
Q 2709 -91 1959 -91 
Q 1206 -91 779 398 
Q 353 888 353 1747 
Q 353 2609 779 3096 
Q 1206 3584 1959 3584 
z
" transform="scale(0.015625)"/>
       <path id="DejaVuSans-72" d="M 2631 2963 
Q 2534 3019 2420 3045 
Q 2306 3072 2169 3072 
Q 1681 3072 1420 2755 
Q 1159 2438 1159 1844 
L 1159 0 
L 581 0 
L 581 3500 
L 1159 3500 
L 1159 2956 
Q 1341 3275 1631 3429 
Q 1922 3584 2338 3584 
Q 2397 3584 2469 3576 
Q 2541 3569 2628 3553 
L 2631 2963 
z
" transform="scale(0.015625)"/>
       <path id="DejaVuSans-63" d="M 3122 3366 
L 3122 2828 
Q 2878 2963 2633 3030 
Q 2388 3097 2138 3097 
Q 1578 3097 1268 2742 
Q 959 2388 959 1747 
Q 959 1106 1268 751 
Q 1578 397 2138 397 
Q 2388 397 2633 464 
Q 2878 531 3122 666 
L 3122 134 
Q 2881 22 2623 -34 
Q 2366 -91 2075 -91 
Q 1284 -91 818 406 
Q 353 903 353 1747 
Q 353 2603 823 3093 
Q 1294 3584 2113 3584 
Q 2378 3584 2631 3529 
Q 2884 3475 3122 3366 
z
" transform="scale(0.015625)"/>
       <path id="DejaVuSans-6b" d="M 581 4863 
L 1159 4863 
L 1159 1991 
L 2875 3500 
L 3609 3500 
L 1753 1863 
L 3688 0 
L 2938 0 
L 1159 1709 
L 1159 0 
L 581 0 
L 581 4863 
z
" transform="scale(0.015625)"/>
       <path id="DejaVuSans-4e" d="M 628 4666 
L 1478 4666 
L 3547 763 
L 3547 4666 
L 4159 4666 
L 4159 0 
L 3309 0 
L 1241 3903 
L 1241 0 
L 628 0 
L 628 4666 
z
" transform="scale(0.015625)"/>
      </defs>
      <use xlink:href="#DejaVuSans-61"/>
      <use xlink:href="#DejaVuSans-78" transform="translate(61.279297 0)"/>
      <use xlink:href="#DejaVuSans-69" transform="translate(120.458984 0)"/>
      <use xlink:href="#DejaVuSans-61" transform="translate(148.242188 0)"/>
      <use xlink:href="#DejaVuSans-6c" transform="translate(209.521484 0)"/>
      <use xlink:href="#DejaVuSans-20" transform="translate(237.304688 0)"/>
      <use xlink:href="#DejaVuSans-66" transform="translate(269.091797 0)"/>
      <use xlink:href="#DejaVuSans-6f" transform="translate(304.296875 0)"/>
      <use xlink:href="#DejaVuSans-72" transform="translate(365.478516 0)"/>
      <use xlink:href="#DejaVuSans-63" transform="translate(404.341797 0)"/>
      <use xlink:href="#DejaVuSans-65" transform="translate(459.322266 0)"/>
      <use xlink:href="#DejaVuSans-20" transform="translate(520.845703 0)"/>
      <use xlink:href="#DejaVuSans-5b" transform="translate(552.632812 0)"/>
      <use xlink:href="#DejaVuSans-6b" transform="translate(591.646484 0)"/>
      <use xlink:href="#DejaVuSans-4e" transform="translate(649.556641 0)"/>
      <use xlink:href="#DejaVuSans-5d" transform="translate(724.361328 0)"/>
     </g>
    </g>
   </g>
   <g id="line2d_37">
    <path d="M 82.504091 145.366914 
L 94.654573 145.25867 
L 95.975277 144.976138 
L 97.031841 144.534293 
L 98.022369 143.889273 
L 99.012898 142.982881 
L 100.069461 141.703489 
L 101.19206 139.986106 
L 102.512765 137.52598 
L 104.09761 134.063662 
L 106.606949 127.954784 
L 109.578534 120.869517 
L 111.361485 117.18605 
L 112.880295 114.52694 
L 114.33307 112.425286 
L 115.71981 110.813802 
L 117.040515 109.61167 
L 118.361219 108.699692 
L 119.747959 108.012811 
L 121.200734 107.543391 
L 122.78558 107.26916 
L 124.568531 107.194395 
L 126.615623 107.340358 
L 129.058926 107.750913 
L 132.030511 108.487507 
L 136.322801 109.806852 
L 146.558261 113.24756 
L 148.803459 114.247736 
L 150.45434 115.215852 
L 151.84108 116.275134 
L 153.095749 117.504879 
L 154.284383 118.97925 
L 155.473017 120.826943 
L 156.661651 123.120197 
L 157.850285 125.925591 
L 159.104955 129.499663 
L 160.425659 133.974417 
L 161.878434 139.719387 
L 165.972618 156.622117 
L 167.491428 161.402745 
L 169.076274 165.672616 
L 170.79319 169.667811 
L 172.774247 173.705428 
L 175.283585 178.289775 
L 181.622967 189.190077 
L 185.651116 195.909548 
L 187.632173 198.772991 
L 189.217018 200.692063 
L 190.603758 202.045059 
L 191.858427 202.980439 
L 193.047061 203.598771 
L 194.16966 203.934734 
L 195.226224 204.025665 
L 196.282787 203.894938 
L 197.339351 203.540836 
L 198.46195 202.91958 
L 199.650584 201.988485 
L 200.905253 200.705948 
L 202.225958 199.033792 
L 203.678733 196.832456 
L 205.329614 193.908607 
L 207.244635 190.029646 
L 209.555868 184.810683 
L 213.319876 175.661425 
L 217.215955 166.382416 
L 219.659258 161.129742 
L 221.772385 157.095371 
L 223.753442 153.785423 
L 225.602428 151.111452 
L 227.451415 148.823235 
L 229.234366 146.961529 
L 231.017317 145.419817 
L 232.536127 144.377816 
L 234.120973 143.522151 
L 235.705818 142.909194 
L 237.290664 142.529968 
L 238.875509 142.378752 
L 240.460355 142.450444 
L 242.111235 142.753654 
L 243.828151 143.299529 
L 245.743173 144.150032 
L 248.252511 145.53512 
L 253.865506 148.782953 
L 256.044668 149.742352 
L 260.270923 151.463658 
L 261.327486 152.237581 
L 262.318015 153.232259 
L 263.308543 154.535976 
L 264.365107 156.296123 
L 265.553741 158.732563 
L 266.940481 162.126851 
L 268.723432 167.150038 
L 275.657131 187.407572 
L 277.638187 192.150867 
L 279.553209 196.165795 
L 281.534266 199.797173 
L 283.581358 203.086195 
L 285.76052 206.173307 
L 288.137789 209.154388 
L 290.581092 211.8686 
L 292.95836 214.192479 
L 295.203558 216.082047 
L 297.184615 217.465255 
L 298.901531 218.409159 
L 300.486376 219.032062 
L 301.873116 219.347643 
L 303.127785 219.418171 
L 304.316419 219.266811 
L 305.439018 218.898766 
L 306.495582 218.322093 
L 307.552145 217.48806 
L 308.608709 216.357046 
L 309.665273 214.882413 
L 310.721836 213.009775 
L 311.7784 210.676529 
L 312.834964 207.811842 
L 313.957562 204.098053 
L 315.080161 199.594738 
L 316.268795 193.850296 
L 317.45743 186.985272 
L 318.712099 178.411776 
L 320.032803 167.83285 
L 321.485578 154.350554 
L 324.457164 125.804827 
L 325.711833 116.661039 
L 326.834432 110.004675 
L 327.890995 104.949382 
L 328.947559 100.958229 
L 329.938087 98.086614 
L 330.862581 96.090085 
L 331.655003 94.85789 
L 332.381391 94.087515 
L 333.107778 93.634043 
L 333.768131 93.474114 
L 334.428483 93.532523 
L 335.15487 93.822381 
L 336.013328 94.429096 
L 337.003857 95.421669 
L 338.258526 97.015332 
L 340.107512 99.772132 
L 344.796014 106.905287 
L 346.77707 109.449896 
L 348.626057 111.480845 
L 350.475043 113.190766 
L 352.32403 114.608209 
L 354.239051 115.801554 
L 356.220108 116.773665 
L 358.201165 117.503889 
L 360.248257 118.02437 
L 362.427419 118.343235 
L 365.266934 118.506425 
L 367.710237 118.709525 
L 368.964907 119.025479 
L 370.02147 119.519929 
L 370.945964 120.201343 
L 371.804422 121.105944 
L 372.66288 122.332106 
L 373.587373 124.076557 
L 374.511866 126.319366 
L 375.502394 129.321614 
L 376.624993 133.487163 
L 377.945698 139.338096 
L 381.049353 153.669312 
L 382.171952 157.380097 
L 383.294551 160.352928 
L 384.351115 162.562501 
L 385.407678 164.261845 
L 386.398207 165.431409 
L 387.3227 166.179155 
L 388.181158 166.59593 
L 389.039616 166.76652 
L 389.898074 166.715283 
L 390.822567 166.443915 
L 391.945166 165.866253 
L 393.331906 164.87466 
L 395.378998 163.091912 
L 401.916485 157.234549 
L 404.88807 154.506631 
L 406.869127 152.379962 
L 408.718114 150.057932 
L 410.633135 147.277857 
L 413.60472 142.468232 
L 416.180094 138.499544 
L 417.963045 136.145984 
L 419.481856 134.502445 
L 420.80256 133.384911 
L 422.05723 132.608238 
L 423.245864 132.131782 
L 424.434498 131.902659 
L 425.623132 131.909397 
L 426.877801 132.153499 
L 428.198506 132.645417 
L 429.717316 133.462732 
L 431.566302 134.733176 
L 434.405817 137.001311 
L 437.971719 139.793303 
L 440.084847 141.166972 
L 442.065903 142.191134 
L 444.04696 142.966851 
L 446.358193 143.62421 
L 449.990131 144.386485 
L 455.338984 145.553853 
L 461.150084 146.881786 
L 463.659423 147.197801 
L 465.90462 147.25505 
L 468.149818 147.089608 
L 470.725192 146.669037 
L 475.347658 145.628732 
L 478.583384 145.021801 
L 481.356864 144.710032 
L 484.196378 144.620002 
L 487.894351 144.74443 
L 495.158226 145.022473 
L 500.110868 144.92519 
L 506.978532 144.805232 
L 511.600998 144.98029 
L 522.36474 145.497832 
L 527.779628 145.445786 
L 538.081124 145.30925 
L 559.608608 145.323411 
L 569.513892 145.31435 
L 587.93772 145.366672 
L 610.785909 145.37083 
L 610.785909 145.37083 
" clip-path="url(#pa9c2c247c7)" style="fill: none; stroke: #2ca02c; stroke-width: 1.5; stroke-linecap: square"/>
   </g>
   <g id="line2d_38">
    <path d="M 82.504091 145.366914 
L 94.654573 145.25867 
L 95.975277 144.97613 
L 97.031841 144.534243 
L 98.022369 143.889062 
L 99.012898 142.982186 
L 100.069461 141.701402 
L 101.19206 139.980331 
L 102.44673 137.643629 
L 103.96554 134.324973 
L 106.078667 129.120598 
L 110.965274 116.919996 
L 113.012366 112.484112 
L 114.927388 108.846516 
L 116.842409 105.687675 
L 118.757431 102.951312 
L 120.804523 100.411651 
L 123.04972 97.982764 
L 125.559059 95.59828 
L 128.266503 93.330684 
L 130.841877 91.452615 
L 133.087075 90.07648 
L 135.068132 89.118459 
L 136.785048 88.529885 
L 138.303858 88.233548 
L 139.690598 88.176598 
L 141.011302 88.337867 
L 142.265972 88.709276 
L 143.520641 89.316803 
L 144.77531 90.184946 
L 146.02998 91.339548 
L 147.284649 92.807587 
L 148.539318 94.616755 
L 149.860023 96.920054 
L 151.246762 99.811949 
L 152.699537 103.395323 
L 154.218348 107.776045 
L 155.803193 113.052859 
L 157.520109 119.566171 
L 159.435131 127.723676 
L 161.812399 138.874583 
L 164.98209 153.771634 
L 166.5009 159.587934 
L 167.953675 164.287494 
L 169.40645 168.232693 
L 170.859225 171.527173 
L 172.312 174.277679 
L 173.83081 176.68036 
L 175.415656 178.778594 
L 177.132572 180.679328 
L 178.849488 182.255185 
L 180.500368 183.482429 
L 182.085214 184.38568 
L 183.471953 184.933668 
L 184.792658 185.222974 
L 186.113362 185.276817 
L 187.434067 185.107166 
L 188.952877 184.676698 
L 190.801864 183.904983 
L 193.707414 182.415085 
L 201.301465 178.472318 
L 204.471156 176.703098 
L 206.650318 175.228015 
L 208.56534 173.658349 
L 210.414326 171.8475 
L 212.329348 169.646818 
L 214.442475 166.861706 
L 217.149919 162.890902 
L 223.489301 153.446333 
L 225.800534 150.480979 
L 227.847626 148.201465 
L 229.762648 146.38874 
L 231.479564 145.049283 
L 233.130444 144.019543 
L 234.781325 143.249728 
L 236.432206 142.728322 
L 238.017051 142.456176 
L 239.601897 142.405148 
L 241.186742 142.571739 
L 242.837623 142.967759 
L 244.620574 143.629218 
L 246.667666 144.638519 
L 249.837357 146.499688 
L 253.469294 148.582104 
L 255.714492 149.609041 
L 260.601099 151.655262 
L 261.657662 152.50607 
L 262.648191 153.586987 
L 263.704755 155.085693 
L 264.827353 157.085558 
L 266.082023 159.788647 
L 267.666868 163.766876 
L 273.477968 178.923858 
L 274.864708 181.626416 
L 276.053342 183.489277 
L 277.175941 184.857247 
L 278.232505 185.810092 
L 279.289068 186.461685 
L 280.345632 186.841776 
L 281.402195 186.983685 
L 282.524794 186.911826 
L 283.779464 186.608094 
L 285.298274 185.995498 
L 287.14726 184.994804 
L 289.854705 183.24678 
L 296.524262 178.854887 
L 299.363777 177.307582 
L 301.939151 176.153219 
L 304.382455 175.293334 
L 306.759723 174.685684 
L 309.203026 174.292377 
L 314.089633 173.609835 
L 315.080161 173.165138 
L 315.938619 172.525417 
L 316.731042 171.627326 
L 317.45743 170.452169 
L 318.183817 168.842012 
L 318.910205 166.68962 
L 319.702627 163.588306 
L 320.49505 159.5555 
L 321.353508 153.977505 
L 322.278001 146.419421 
L 323.598706 135.357868 
L 324.721305 127.901673 
L 325.909939 121.506949 
L 327.164608 115.986728 
L 328.551348 110.905165 
L 330.202228 105.743838 
L 332.315356 99.909678 
L 334.824694 93.627849 
L 337.135927 88.417688 
L 339.31509 84.046044 
L 341.362182 80.437375 
L 343.277203 77.503101 
L 345.12619 75.073916 
L 346.843106 73.172249 
L 348.493986 71.666391 
L 350.012797 70.564799 
L 351.465572 69.77324 
L 352.852311 69.26739 
L 354.173016 69.025618 
L 355.427685 69.028018 
L 356.616319 69.255396 
L 357.804953 69.72082 
L 358.927552 70.399015 
L 360.050151 71.331252 
L 361.238785 72.622858 
L 362.427419 74.260041 
L 363.616053 76.278712 
L 364.870723 78.865334 
L 366.125392 81.964404 
L 367.446097 85.827039 
L 368.832836 90.590256 
L 370.285611 96.389478 
L 371.870457 103.6588 
L 373.653408 112.924341 
L 375.964641 126.241128 
L 380.058825 150.078136 
L 381.247459 155.42185 
L 382.370058 159.44959 
L 383.360586 162.243996 
L 384.351115 164.387216 
L 385.275608 165.854171 
L 386.134066 166.801239 
L 386.926489 167.357606 
L 387.718911 167.642449 
L 388.511334 167.689032 
L 389.369792 167.509599 
L 390.36032 167.059164 
L 391.548955 166.257272 
L 393.1338 164.900131 
L 402.576837 156.305555 
L 405.284282 153.847087 
L 407.199303 151.808363 
L 408.982255 149.587571 
L 410.831241 146.924794 
L 417.632869 136.652125 
L 419.217715 134.856335 
L 420.604455 133.599079 
L 421.925159 132.6996 
L 423.113793 132.148324 
L 424.302427 131.842901 
L 425.491061 131.777691 
L 426.679695 131.94066 
L 427.934365 132.34008 
L 429.321105 133.019576 
L 430.971985 134.090832 
L 433.151148 135.793064 
L 438.566036 140.127799 
L 440.613128 141.413968 
L 442.52815 142.358665 
L 444.575242 143.114058 
L 447.018545 143.762451 
L 461.744401 146.980571 
L 464.121669 147.229544 
L 466.366867 147.238985 
L 468.6781 147.020371 
L 471.45158 146.517394 
L 479.573912 144.884457 
L 482.281357 144.657354 
L 485.252942 144.635166 
L 490.073514 144.863513 
L 495.158226 145.022337 
L 500.110868 144.925042 
L 506.978532 144.80495 
L 511.600998 144.980115 
L 522.36474 145.497842 
L 527.779628 145.445774 
L 538.081124 145.309252 
L 559.608608 145.323411 
L 569.513892 145.314351 
L 587.93772 145.366675 
L 610.785909 145.37083 
L 610.785909 145.37083 
" clip-path="url(#pa9c2c247c7)" style="fill: none; stroke: #d62728; stroke-width: 1.5; stroke-linecap: square"/>
   </g>
   <g id="line2d_39">
    <path d="M 82.504091 145.366914 
L 92.47541 145.262713 
L 93.928185 144.978006 
L 95.050784 144.547505 
L 95.975277 143.964221 
L 96.833735 143.166571 
L 97.692193 142.063191 
L 98.616686 140.478109 
L 99.54118 138.441256 
L 100.597743 135.537991 
L 101.786377 131.55677 
L 103.173117 126.06332 
L 104.956068 118.00211 
L 111.229415 88.759243 
L 112.946331 82.216258 
L 114.531176 77.003579 
L 116.049986 72.736271 
L 117.568797 69.124637 
L 119.087607 66.092136 
L 120.606417 63.556027 
L 122.125227 61.436862 
L 123.710073 59.594237 
L 125.360953 58.005907 
L 127.077869 56.653645 
L 128.86082 55.528333 
L 130.643772 54.661112 
L 132.426723 54.042156 
L 134.143639 53.683692 
L 135.794519 53.570105 
L 137.31333 53.681138 
L 138.83214 54.018657 
L 140.284915 54.576997 
L 141.671655 55.351466 
L 142.992359 56.337463 
L 144.313064 57.599834 
L 145.633768 59.179576 
L 146.954473 61.126415 
L 148.209142 63.370286 
L 149.463811 66.059973 
L 150.718481 69.265686 
L 151.97315 73.066912 
L 153.293855 77.807419 
L 154.614559 83.410723 
L 155.935264 89.980293 
L 157.322003 98.014834 
L 158.774778 107.749357 
L 160.359624 119.904874 
L 162.20861 135.918279 
L 165.180195 162.055474 
L 166.699006 172.903329 
L 168.217816 182.176603 
L 169.736626 190.131728 
L 171.321472 197.288959 
L 172.972352 203.75802 
L 174.755303 209.864872 
L 176.73636 215.861809 
L 178.981558 221.937007 
L 181.16072 227.2096 
L 182.877636 230.784375 
L 184.462482 233.606381 
L 185.915257 235.752513 
L 187.235961 237.311023 
L 188.424595 238.389136 
L 189.61323 239.167302 
L 190.735828 239.638974 
L 191.858427 239.867747 
L 192.981026 239.864572 
L 194.103625 239.637154 
L 195.226224 239.189394 
L 196.414858 238.475354 
L 197.669527 237.450101 
L 198.924197 236.138713 
L 200.244901 234.438915 
L 201.631641 232.289194 
L 203.084416 229.623368 
L 204.603226 226.373726 
L 206.254107 222.302955 
L 208.037058 217.293163 
L 210.018115 211.038279 
L 212.395383 202.742633 
L 215.961285 189.358356 
L 220.121505 173.934917 
L 222.564808 165.738478 
L 224.6119 159.618172 
L 226.460886 154.750458 
L 228.177802 150.815052 
L 229.828683 147.566993 
L 231.281458 145.174927 
L 232.668198 143.270271 
L 233.988902 141.827456 
L 235.243572 140.777521 
L 236.432206 140.060649 
L 237.62084 139.606527 
L 238.743439 139.413248 
L 239.866037 139.443726 
L 240.988636 139.691872 
L 242.17727 140.182708 
L 243.43194 140.940429 
L 244.81868 142.037793 
L 246.46956 143.645573 
L 248.846828 146.328774 
L 253.073083 151.202229 
L 254.988105 153.047048 
L 259.280394 157.049979 
L 260.336958 158.409379 
L 261.327486 160.063168 
L 262.25198 162.039701 
L 263.242508 164.700924 
L 264.299072 168.20791 
L 265.487706 172.971959 
L 266.874445 179.500061 
L 268.789467 189.715713 
L 273.147792 213.354547 
L 274.864708 221.247834 
L 276.383518 227.202992 
L 277.770258 231.780358 
L 279.090962 235.420721 
L 280.411667 238.430424 
L 281.732372 240.891652 
L 283.053076 242.888043 
L 284.373781 244.497863 
L 285.76052 245.847775 
L 287.213295 246.960436 
L 288.798141 247.895059 
L 290.515057 248.649448 
L 292.430078 249.241922 
L 294.47717 249.638128 
L 296.524262 249.814027 
L 298.505319 249.768289 
L 300.354306 249.504773 
L 302.005186 249.050015 
L 303.523997 248.40554 
L 304.910736 247.583878 
L 306.231441 246.547184 
L 307.48611 245.280912 
L 308.674744 243.771091 
L 309.863378 241.8891 
L 310.985977 239.687841 
L 312.108576 236.970964 
L 313.16514 233.821731 
L 314.221703 229.946723 
L 315.278267 225.153262 
L 316.268795 219.608931 
L 317.259324 212.797963 
L 318.249852 204.435073 
L 319.240381 194.20729 
L 320.296944 180.887345 
L 321.419543 163.649139 
L 322.740248 139.405352 
L 323.928882 119.467153 
L 325.117516 103.045224 
L 326.30615 89.550882 
L 327.494784 78.45967 
L 328.683418 69.325594 
L 329.872052 61.791118 
L 331.060686 55.661476 
L 332.24932 50.701941 
L 333.371919 46.946946 
L 334.428483 44.152695 
L 335.419011 42.111188 
L 336.40954 40.555424 
L 337.400068 39.410852 
L 338.390597 38.604185 
L 339.44716 38.038903 
L 340.569759 37.691035 
L 341.890464 37.516718 
L 343.60738 37.527966 
L 346.050683 37.786207 
L 349.088303 38.33007 
L 351.597642 38.997189 
L 353.644734 39.769073 
L 355.427685 40.674867 
L 357.078566 41.764097 
L 358.597376 43.030143 
L 360.050151 44.528868 
L 361.436891 46.274919 
L 362.823631 48.390794 
L 364.144335 50.819133 
L 365.46504 53.734686 
L 366.719709 57.050592 
L 367.974378 61.011091 
L 369.229048 65.748755 
L 370.483717 71.414626 
L 371.738386 78.167926 
L 372.993056 86.156263 
L 374.31376 96.013415 
L 375.766535 108.589526 
L 377.483451 125.496415 
L 380.785212 158.586512 
L 381.907811 166.879585 
L 383.03041 173.560261 
L 384.086974 178.539179 
L 385.077502 182.170843 
L 386.001995 184.737888 
L 386.794418 186.354828 
L 387.520806 187.394002 
L 388.181158 187.995937 
L 388.84151 188.296598 
L 389.435827 188.331825 
L 390.09618 188.135714 
L 390.822567 187.668216 
L 391.681025 186.828504 
L 392.737589 185.457919 
L 394.124328 183.268431 
L 396.501597 179.027221 
L 401.916485 169.358624 
L 404.557894 164.444102 
L 406.406881 160.534403 
L 408.123797 156.380224 
L 409.906748 151.453379 
L 411.95384 145.098303 
L 415.387672 134.251943 
L 417.236658 129.136843 
L 418.755468 125.570126 
L 420.076173 123.028845 
L 421.198772 121.3159 
L 422.255335 120.093354 
L 423.179828 119.336096 
L 424.038286 118.891333 
L 424.896744 118.689382 
L 425.755202 118.721321 
L 426.61366 118.975417 
L 427.538153 119.48098 
L 428.594717 120.326621 
L 429.783351 121.575846 
L 431.236126 123.448612 
L 433.151148 126.3121 
L 438.632072 134.733555 
L 440.415023 136.958362 
L 442.065903 138.668023 
L 443.650749 139.999815 
L 445.367665 141.149479 
L 447.348722 142.201295 
L 450.716518 143.686978 
L 455.405019 145.8231 
L 459.82938 147.883758 
L 461.876472 148.584645 
L 463.593387 148.950162 
L 465.244268 149.075032 
L 466.829114 148.97639 
L 468.54603 148.640776 
L 470.461051 148.031483 
L 473.10246 146.933115 
L 477.196644 145.230922 
L 479.375807 144.546236 
L 481.422899 144.138298 
L 483.469991 143.959112 
L 485.847259 143.986655 
L 489.413161 144.285947 
L 493.903557 144.610567 
L 497.205318 144.607386 
L 503.082453 144.306021 
L 506.714391 144.262239 
L 510.016152 144.450874 
L 514.506548 144.962897 
L 519.129014 145.434015 
L 522.694916 145.609361 
L 526.590994 145.563371 
L 538.147159 145.265853 
L 556.835128 145.355077 
L 565.683849 145.222381 
L 610.785909 145.37437 
L 610.785909 145.37437 
" clip-path="url(#pa9c2c247c7)" style="fill: none; stroke-dasharray: 3.7,1.6; stroke-dashoffset: 0; stroke: #000000; stroke-opacity: 0.5"/>
   </g>
   <g id="line2d_40">
    <path d="M 56.09 145.366914 
L 637.2 145.366914 
" clip-path="url(#pa9c2c247c7)" style="fill: none; stroke: #000000; stroke-width: 0.4; stroke-linecap: square"/>
   </g>
   <g id="patch_3">
    <path d="M 56.09 260.44 
L 56.09 26.88 
" style="fill: none; stroke: #000000; stroke-width: 0.8; stroke-linejoin: miter; stroke-linecap: square"/>
   </g>
   <g id="patch_4">
    <path d="M 637.2 260.44 
L 637.2 26.88 
" style="fill: none; stroke: #000000; stroke-width: 0.8; stroke-linejoin: miter; stroke-linecap: square"/>
   </g>
   <g id="patch_5">
    <path d="M 56.09 260.44 
L 637.2 260.44 
" style="fill: none; stroke: #000000; stroke-width: 0.8; stroke-linejoin: miter; stroke-linecap: square"/>
   </g>
   <g id="patch_6">
    <path d="M 56.09 26.88 
L 637.2 26.88 
" style="fill: none; stroke: #000000; stroke-width: 0.8; stroke-linejoin: miter; stroke-linecap: square"/>
   </g>
   <g id="text_21">
    <!-- -1.35 kN -->
    <g transform="translate(310.92968 213.421907) scale(0.08 -0.08)">
     <defs>
      <path id="DejaVuSans-2d" d="M 313 2009 
L 1997 2009 
L 1997 1497 
L 313 1497 
L 313 2009 
z
" transform="scale(0.015625)"/>
     </defs>
     <use xlink:href="#DejaVuSans-2d"/>
     <use xlink:href="#DejaVuSans-31" transform="translate(36.083984 0)"/>
     <use xlink:href="#DejaVuSans-2e" transform="translate(99.707031 0)"/>
     <use xlink:href="#DejaVuSans-33" transform="translate(131.494141 0)"/>
     <use xlink:href="#DejaVuSans-35" transform="translate(195.117188 0)"/>
     <use xlink:href="#DejaVuSans-20" transform="translate(258.740234 0)"/>
     <use xlink:href="#DejaVuSans-6b" transform="translate(290.527344 0)"/>
     <use xlink:href="#DejaVuSans-4e" transform="translate(348.4375 0)"/>
    </g>
   </g>
   <g id="text_22">
    <!-- +1.39 kN -->
    <g transform="translate(362.767333 62.997525) scale(0.08 -0.08)">
     <defs>
      <path id="DejaVuSans-2b" d="M 2944 4013 
L 2944 2272 
L 4684 2272 
L 4684 1741 
L 2944 1741 
L 2944 0 
L 2419 0 
L 2419 1741 
L 678 1741 
L 678 2272 
L 2419 2272 
L 2419 4013 
L 2944 4013 
z
" transform="scale(0.015625)"/>
      <path id="DejaVuSans-39" d="M 703 97 
L 703 672 
Q 941 559 1184 500 
Q 1428 441 1663 441 
Q 2288 441 2617 861 
Q 2947 1281 2994 2138 
Q 2813 1869 2534 1725 
Q 2256 1581 1919 1581 
Q 1219 1581 811 2004 
Q 403 2428 403 3163 
Q 403 3881 828 4315 
Q 1253 4750 1959 4750 
Q 2769 4750 3195 4129 
Q 3622 3509 3622 2328 
Q 3622 1225 3098 567 
Q 2575 -91 1691 -91 
Q 1453 -91 1209 -44 
Q 966 3 703 97 
z
M 1959 2075 
Q 2384 2075 2632 2365 
Q 2881 2656 2881 3163 
Q 2881 3666 2632 3958 
Q 2384 4250 1959 4250 
Q 1534 4250 1286 3958 
Q 1038 3666 1038 3163 
Q 1038 2656 1286 2365 
Q 1534 2075 1959 2075 
z
" transform="scale(0.015625)"/>
     </defs>
     <use xlink:href="#DejaVuSans-2b"/>
     <use xlink:href="#DejaVuSans-31" transform="translate(83.789062 0)"/>
     <use xlink:href="#DejaVuSans-2e" transform="translate(147.412109 0)"/>
     <use xlink:href="#DejaVuSans-33" transform="translate(179.199219 0)"/>
     <use xlink:href="#DejaVuSans-39" transform="translate(242.822266 0)"/>
     <use xlink:href="#DejaVuSans-20" transform="translate(306.445312 0)"/>
     <use xlink:href="#DejaVuSans-6b" transform="translate(338.232422 0)"/>
     <use xlink:href="#DejaVuSans-4e" transform="translate(396.142578 0)"/>
    </g>
   </g>
   <g id="text_23">
    <!-- Tie-rod / steering-arm axial forces — ISO 3888-1 DLC at 80 km/h -->
    <g transform="translate(153.1975 20.88) scale(0.12 -0.12)">
     <defs>
      <path id="DejaVuSans-54" d="M -19 4666 
L 3928 4666 
L 3928 4134 
L 2272 4134 
L 2272 0 
L 1638 0 
L 1638 4134 
L -19 4134 
L -19 4666 
z
" transform="scale(0.015625)"/>
      <path id="DejaVuSans-64" d="M 2906 2969 
L 2906 4863 
L 3481 4863 
L 3481 0 
L 2906 0 
L 2906 525 
Q 2725 213 2448 61 
Q 2172 -91 1784 -91 
Q 1150 -91 751 415 
Q 353 922 353 1747 
Q 353 2572 751 3078 
Q 1150 3584 1784 3584 
Q 2172 3584 2448 3432 
Q 2725 3281 2906 2969 
z
M 947 1747 
Q 947 1113 1208 752 
Q 1469 391 1925 391 
Q 2381 391 2643 752 
Q 2906 1113 2906 1747 
Q 2906 2381 2643 2742 
Q 2381 3103 1925 3103 
Q 1469 3103 1208 2742 
Q 947 2381 947 1747 
z
" transform="scale(0.015625)"/>
      <path id="DejaVuSans-2f" d="M 1625 4666 
L 2156 4666 
L 531 -594 
L 0 -594 
L 1625 4666 
z
" transform="scale(0.015625)"/>
      <path id="DejaVuSans-6e" d="M 3513 2113 
L 3513 0 
L 2938 0 
L 2938 2094 
Q 2938 2591 2744 2837 
Q 2550 3084 2163 3084 
Q 1697 3084 1428 2787 
Q 1159 2491 1159 1978 
L 1159 0 
L 581 0 
L 581 3500 
L 1159 3500 
L 1159 2956 
Q 1366 3272 1645 3428 
Q 1925 3584 2291 3584 
Q 2894 3584 3203 3211 
Q 3513 2838 3513 2113 
z
" transform="scale(0.015625)"/>
      <path id="DejaVuSans-67" d="M 2906 1791 
Q 2906 2416 2648 2759 
Q 2391 3103 1925 3103 
Q 1463 3103 1205 2759 
Q 947 2416 947 1791 
Q 947 1169 1205 825 
Q 1463 481 1925 481 
Q 2391 481 2648 825 
Q 2906 1169 2906 1791 
z
M 3481 434 
Q 3481 -459 3084 -895 
Q 2688 -1331 1869 -1331 
Q 1566 -1331 1297 -1286 
Q 1028 -1241 775 -1147 
L 775 -588 
Q 1028 -725 1275 -790 
Q 1522 -856 1778 -856 
Q 2344 -856 2625 -561 
Q 2906 -266 2906 331 
L 2906 616 
Q 2728 306 2450 153 
Q 2172 0 1784 0 
Q 1141 0 747 490 
Q 353 981 353 1791 
Q 353 2603 747 3093 
Q 1141 3584 1784 3584 
Q 2172 3584 2450 3431 
Q 2728 3278 2906 2969 
L 2906 3500 
L 3481 3500 
L 3481 434 
z
" transform="scale(0.015625)"/>
      <path id="DejaVuSans-2014" d="M 313 1978 
L 6088 1978 
L 6088 1528 
L 313 1528 
L 313 1978 
z
" transform="scale(0.015625)"/>
      <path id="DejaVuSans-49" d="M 628 4666 
L 1259 4666 
L 1259 0 
L 628 0 
L 628 4666 
z
" transform="scale(0.015625)"/>
      <path id="DejaVuSans-53" d="M 3425 4513 
L 3425 3897 
Q 3066 4069 2747 4153 
Q 2428 4238 2131 4238 
Q 1616 4238 1336 4038 
Q 1056 3838 1056 3469 
Q 1056 3159 1242 3001 
Q 1428 2844 1947 2747 
L 2328 2669 
Q 3034 2534 3370 2195 
Q 3706 1856 3706 1288 
Q 3706 609 3251 259 
Q 2797 -91 1919 -91 
Q 1588 -91 1214 -16 
Q 841 59 441 206 
L 441 856 
Q 825 641 1194 531 
Q 1563 422 1919 422 
Q 2459 422 2753 634 
Q 3047 847 3047 1241 
Q 3047 1584 2836 1778 
Q 2625 1972 2144 2069 
L 1759 2144 
Q 1053 2284 737 2584 
Q 422 2884 422 3419 
Q 422 4038 858 4394 
Q 1294 4750 2059 4750 
Q 2388 4750 2728 4690 
Q 3069 4631 3425 4513 
z
" transform="scale(0.015625)"/>
      <path id="DejaVuSans-4f" d="M 2522 4238 
Q 1834 4238 1429 3725 
Q 1025 3213 1025 2328 
Q 1025 1447 1429 934 
Q 1834 422 2522 422 
Q 3209 422 3611 934 
Q 4013 1447 4013 2328 
Q 4013 3213 3611 3725 
Q 3209 4238 2522 4238 
z
M 2522 4750 
Q 3503 4750 4090 4092 
Q 4678 3434 4678 2328 
Q 4678 1225 4090 567 
Q 3503 -91 2522 -91 
Q 1538 -91 948 565 
Q 359 1222 359 2328 
Q 359 3434 948 4092 
Q 1538 4750 2522 4750 
z
" transform="scale(0.015625)"/>
      <path id="DejaVuSans-44" d="M 1259 4147 
L 1259 519 
L 2022 519 
Q 2988 519 3436 956 
Q 3884 1394 3884 2338 
Q 3884 3275 3436 3711 
Q 2988 4147 2022 4147 
L 1259 4147 
z
M 628 4666 
L 1925 4666 
Q 3281 4666 3915 4102 
Q 4550 3538 4550 2338 
Q 4550 1131 3912 565 
Q 3275 0 1925 0 
L 628 0 
L 628 4666 
z
" transform="scale(0.015625)"/>
      <path id="DejaVuSans-4c" d="M 628 4666 
L 1259 4666 
L 1259 531 
L 3531 531 
L 3531 0 
L 628 0 
L 628 4666 
z
" transform="scale(0.015625)"/>
      <path id="DejaVuSans-43" d="M 4122 4306 
L 4122 3641 
Q 3803 3938 3442 4084 
Q 3081 4231 2675 4231 
Q 1875 4231 1450 3742 
Q 1025 3253 1025 2328 
Q 1025 1406 1450 917 
Q 1875 428 2675 428 
Q 3081 428 3442 575 
Q 3803 722 4122 1019 
L 4122 359 
Q 3791 134 3420 21 
Q 3050 -91 2638 -91 
Q 1578 -91 968 557 
Q 359 1206 359 2328 
Q 359 3453 968 4101 
Q 1578 4750 2638 4750 
Q 3056 4750 3426 4639 
Q 3797 4528 4122 4306 
z
" transform="scale(0.015625)"/>
      <path id="DejaVuSans-68" d="M 3513 2113 
L 3513 0 
L 2938 0 
L 2938 2094 
Q 2938 2591 2744 2837 
Q 2550 3084 2163 3084 
Q 1697 3084 1428 2787 
Q 1159 2491 1159 1978 
L 1159 0 
L 581 0 
L 581 4863 
L 1159 4863 
L 1159 2956 
Q 1366 3272 1645 3428 
Q 1925 3584 2291 3584 
Q 2894 3584 3203 3211 
Q 3513 2838 3513 2113 
z
" transform="scale(0.015625)"/>
     </defs>
     <use xlink:href="#DejaVuSans-54"/>
     <use xlink:href="#DejaVuSans-69" transform="translate(57.958984 0)"/>
     <use xlink:href="#DejaVuSans-65" transform="translate(85.742188 0)"/>
     <use xlink:href="#DejaVuSans-2d" transform="translate(147.265625 0)"/>
     <use xlink:href="#DejaVuSans-72" transform="translate(183.349609 0)"/>
     <use xlink:href="#DejaVuSans-6f" transform="translate(222.212891 0)"/>
     <use xlink:href="#DejaVuSans-64" transform="translate(283.394531 0)"/>
     <use xlink:href="#DejaVuSans-20" transform="translate(346.871094 0)"/>
     <use xlink:href="#DejaVuSans-2f" transform="translate(378.658203 0)"/>
     <use xlink:href="#DejaVuSans-20" transform="translate(412.349609 0)"/>
     <use xlink:href="#DejaVuSans-73" transform="translate(444.136719 0)"/>
     <use xlink:href="#DejaVuSans-74" transform="translate(496.236328 0)"/>
     <use xlink:href="#DejaVuSans-65" transform="translate(535.445312 0)"/>
     <use xlink:href="#DejaVuSans-65" transform="translate(596.96875 0)"/>
     <use xlink:href="#DejaVuSans-72" transform="translate(658.492188 0)"/>
     <use xlink:href="#DejaVuSans-69" transform="translate(699.605469 0)"/>
     <use xlink:href="#DejaVuSans-6e" transform="translate(727.388672 0)"/>
     <use xlink:href="#DejaVuSans-67" transform="translate(790.767578 0)"/>
     <use xlink:href="#DejaVuSans-2d" transform="translate(854.244141 0)"/>
     <use xlink:href="#DejaVuSans-61" transform="translate(890.328125 0)"/>
     <use xlink:href="#DejaVuSans-72" transform="translate(951.607422 0)"/>
     <use xlink:href="#DejaVuSans-6d" transform="translate(990.970703 0)"/>
     <use xlink:href="#DejaVuSans-20" transform="translate(1088.382812 0)"/>
     <use xlink:href="#DejaVuSans-61" transform="translate(1120.169922 0)"/>
     <use xlink:href="#DejaVuSans-78" transform="translate(1181.449219 0)"/>
     <use xlink:href="#DejaVuSans-69" transform="translate(1240.628906 0)"/>
     <use xlink:href="#DejaVuSans-61" transform="translate(1268.412109 0)"/>
     <use xlink:href="#DejaVuSans-6c" transform="translate(1329.691406 0)"/>
     <use xlink:href="#DejaVuSans-20" transform="translate(1357.474609 0)"/>
     <use xlink:href="#DejaVuSans-66" transform="translate(1389.261719 0)"/>
     <use xlink:href="#DejaVuSans-6f" transform="translate(1424.466797 0)"/>
     <use xlink:href="#DejaVuSans-72" transform="translate(1485.648438 0)"/>
     <use xlink:href="#DejaVuSans-63" transform="translate(1524.511719 0)"/>
     <use xlink:href="#DejaVuSans-65" transform="translate(1579.492188 0)"/>
     <use xlink:href="#DejaVuSans-73" transform="translate(1641.015625 0)"/>
     <use xlink:href="#DejaVuSans-20" transform="translate(1693.115234 0)"/>
     <use xlink:href="#DejaVuSans-2014" transform="translate(1724.902344 0)"/>
     <use xlink:href="#DejaVuSans-20" transform="translate(1824.902344 0)"/>
     <use xlink:href="#DejaVuSans-49" transform="translate(1856.689453 0)"/>
     <use xlink:href="#DejaVuSans-53" transform="translate(1886.181641 0)"/>
     <use xlink:href="#DejaVuSans-4f" transform="translate(1949.658203 0)"/>
     <use xlink:href="#DejaVuSans-20" transform="translate(2028.369141 0)"/>
     <use xlink:href="#DejaVuSans-33" transform="translate(2060.15625 0)"/>
     <use xlink:href="#DejaVuSans-38" transform="translate(2123.779297 0)"/>
     <use xlink:href="#DejaVuSans-38" transform="translate(2187.402344 0)"/>
     <use xlink:href="#DejaVuSans-38" transform="translate(2251.025391 0)"/>
     <use xlink:href="#DejaVuSans-2d" transform="translate(2314.648438 0)"/>
     <use xlink:href="#DejaVuSans-31" transform="translate(2350.732422 0)"/>
     <use xlink:href="#DejaVuSans-20" transform="translate(2414.355469 0)"/>
     <use xlink:href="#DejaVuSans-44" transform="translate(2446.142578 0)"/>
     <use xlink:href="#DejaVuSans-4c" transform="translate(2523.144531 0)"/>
     <use xlink:href="#DejaVuSans-43" transform="translate(2578.857422 0)"/>
     <use xlink:href="#DejaVuSans-20" transform="translate(2648.681641 0)"/>
     <use xlink:href="#DejaVuSans-61" transform="translate(2680.46875 0)"/>
     <use xlink:href="#DejaVuSans-74" transform="translate(2741.748047 0)"/>
     <use xlink:href="#DejaVuSans-20" transform="translate(2780.957031 0)"/>
     <use xlink:href="#DejaVuSans-38" transform="translate(2812.744141 0)"/>
     <use xlink:href="#DejaVuSans-30" transform="translate(2876.367188 0)"/>
     <use xlink:href="#DejaVuSans-20" transform="translate(2939.990234 0)"/>
     <use xlink:href="#DejaVuSans-6b" transform="translate(2971.777344 0)"/>
     <use xlink:href="#DejaVuSans-6d" transform="translate(3029.6875 0)"/>
     <use xlink:href="#DejaVuSans-2f" transform="translate(3127.099609 0)"/>
     <use xlink:href="#DejaVuSans-68" transform="translate(3160.791016 0)"/>
    </g>
   </g>
   <g id="legend_1">
    <g id="patch_7">
     <path d="M 499.18625 68.5075 
L 631.6 68.5075 
Q 633.2 68.5075 633.2 66.9075 
L 633.2 32.48 
Q 633.2 30.88 631.6 30.88 
L 499.18625 30.88 
Q 497.58625 30.88 497.58625 32.48 
L 497.58625 66.9075 
Q 497.58625 68.5075 499.18625 68.5075 
z
" style="fill: #ffffff; opacity: 0.8; stroke: #cccccc; stroke-linejoin: miter"/>
    </g>
    <g id="line2d_41">
     <path d="M 500.78625 37.35875 
L 508.78625 37.35875 
L 516.78625 37.35875 
" style="fill: none; stroke: #2ca02c; stroke-width: 1.5; stroke-linecap: square"/>
    </g>
    <g id="text_24">
     <!-- tie rod left -->
     <g transform="translate(523.18625 40.15875) scale(0.08 -0.08)">
      <use xlink:href="#DejaVuSans-74"/>
      <use xlink:href="#DejaVuSans-69" transform="translate(39.208984 0)"/>
      <use xlink:href="#DejaVuSans-65" transform="translate(66.992188 0)"/>
      <use xlink:href="#DejaVuSans-20" transform="translate(128.515625 0)"/>
      <use xlink:href="#DejaVuSans-72" transform="translate(160.302734 0)"/>
      <use xlink:href="#DejaVuSans-6f" transform="translate(199.166016 0)"/>
      <use xlink:href="#DejaVuSans-64" transform="translate(260.347656 0)"/>
      <use xlink:href="#DejaVuSans-20" transform="translate(323.824219 0)"/>
      <use xlink:href="#DejaVuSans-6c" transform="translate(355.611328 0)"/>
      <use xlink:href="#DejaVuSans-65" transform="translate(383.394531 0)"/>
      <use xlink:href="#DejaVuSans-66" transform="translate(444.917969 0)"/>
      <use xlink:href="#DejaVuSans-74" transform="translate(478.373047 0)"/>
     </g>
    </g>
    <g id="line2d_42">
     <path d="M 500.78625 49.10125 
L 508.78625 49.10125 
L 516.78625 49.10125 
" style="fill: none; stroke: #d62728; stroke-width: 1.5; stroke-linecap: square"/>
    </g>
    <g id="text_25">
     <!-- tie rod right -->
     <g transform="translate(523.18625 51.90125) scale(0.08 -0.08)">
      <use xlink:href="#DejaVuSans-74"/>
      <use xlink:href="#DejaVuSans-69" transform="translate(39.208984 0)"/>
      <use xlink:href="#DejaVuSans-65" transform="translate(66.992188 0)"/>
      <use xlink:href="#DejaVuSans-20" transform="translate(128.515625 0)"/>
      <use xlink:href="#DejaVuSans-72" transform="translate(160.302734 0)"/>
      <use xlink:href="#DejaVuSans-6f" transform="translate(199.166016 0)"/>
      <use xlink:href="#DejaVuSans-64" transform="translate(260.347656 0)"/>
      <use xlink:href="#DejaVuSans-20" transform="translate(323.824219 0)"/>
      <use xlink:href="#DejaVuSans-72" transform="translate(355.611328 0)"/>
      <use xlink:href="#DejaVuSans-69" transform="translate(396.724609 0)"/>
      <use xlink:href="#DejaVuSans-67" transform="translate(424.507812 0)"/>
      <use xlink:href="#DejaVuSans-68" transform="translate(487.984375 0)"/>
      <use xlink:href="#DejaVuSans-74" transform="translate(551.363281 0)"/>
     </g>
    </g>
    <g id="line2d_43">
     <path d="M 500.78625 60.84375 
L 508.78625 60.84375 
L 516.78625 60.84375 
" style="fill: none; stroke-dasharray: 3.7,1.6; stroke-dashoffset: 0; stroke: #000000; stroke-opacity: 0.5"/>
    </g>
    <g id="text_26">
     <!-- rack (sum + wheel inertia) -->
     <g transform="translate(523.18625 63.64375) scale(0.08 -0.08)">
      <defs>
       <path id="DejaVuSans-28" d="M 1984 4856 
Q 1566 4138 1362 3434 
Q 1159 2731 1159 2009 
Q 1159 1288 1364 580 
Q 1569 -128 1984 -844 
L 1484 -844 
Q 1016 -109 783 600 
Q 550 1309 550 2009 
Q 550 2706 781 3412 
Q 1013 4119 1484 4856 
L 1984 4856 
z
" transform="scale(0.015625)"/>
       <path id="DejaVuSans-75" d="M 544 1381 
L 544 3500 
L 1119 3500 
L 1119 1403 
Q 1119 906 1312 657 
Q 1506 409 1894 409 
Q 2359 409 2629 706 
Q 2900 1003 2900 1516 
L 2900 3500 
L 3475 3500 
L 3475 0 
L 2900 0 
L 2900 538 
Q 2691 219 2414 64 
Q 2138 -91 1772 -91 
Q 1169 -91 856 284 
Q 544 659 544 1381 
z
M 1991 3584 
L 1991 3584 
z
" transform="scale(0.015625)"/>
       <path id="DejaVuSans-77" d="M 269 3500 
L 844 3500 
L 1563 769 
L 2278 3500 
L 2956 3500 
L 3675 769 
L 4391 3500 
L 4966 3500 
L 4050 0 
L 3372 0 
L 2619 2869 
L 1863 0 
L 1184 0 
L 269 3500 
z
" transform="scale(0.015625)"/>
       <path id="DejaVuSans-29" d="M 513 4856 
L 1013 4856 
Q 1481 4119 1714 3412 
Q 1947 2706 1947 2009 
Q 1947 1309 1714 600 
Q 1481 -109 1013 -844 
L 513 -844 
Q 928 -128 1133 580 
Q 1338 1288 1338 2009 
Q 1338 2731 1133 3434 
Q 928 4138 513 4856 
z
" transform="scale(0.015625)"/>
      </defs>
      <use xlink:href="#DejaVuSans-72"/>
      <use xlink:href="#DejaVuSans-61" transform="translate(41.113281 0)"/>
      <use xlink:href="#DejaVuSans-63" transform="translate(102.392578 0)"/>
      <use xlink:href="#DejaVuSans-6b" transform="translate(157.373047 0)"/>
      <use xlink:href="#DejaVuSans-20" transform="translate(215.283203 0)"/>
      <use xlink:href="#DejaVuSans-28" transform="translate(247.070312 0)"/>
      <use xlink:href="#DejaVuSans-73" transform="translate(286.083984 0)"/>
      <use xlink:href="#DejaVuSans-75" transform="translate(338.183594 0)"/>
      <use xlink:href="#DejaVuSans-6d" transform="translate(401.5625 0)"/>
      <use xlink:href="#DejaVuSans-20" transform="translate(498.974609 0)"/>
      <use xlink:href="#DejaVuSans-2b" transform="translate(530.761719 0)"/>
      <use xlink:href="#DejaVuSans-20" transform="translate(614.550781 0)"/>
      <use xlink:href="#DejaVuSans-77" transform="translate(646.337891 0)"/>
      <use xlink:href="#DejaVuSans-68" transform="translate(728.125 0)"/>
      <use xlink:href="#DejaVuSans-65" transform="translate(791.503906 0)"/>
      <use xlink:href="#DejaVuSans-65" transform="translate(853.027344 0)"/>
      <use xlink:href="#DejaVuSans-6c" transform="translate(914.550781 0)"/>
      <use xlink:href="#DejaVuSans-20" transform="translate(942.333984 0)"/>
      <use xlink:href="#DejaVuSans-69" transform="translate(974.121094 0)"/>
      <use xlink:href="#DejaVuSans-6e" transform="translate(1001.904297 0)"/>
      <use xlink:href="#DejaVuSans-65" transform="translate(1065.283203 0)"/>
      <use xlink:href="#DejaVuSans-72" transform="translate(1126.806641 0)"/>
      <use xlink:href="#DejaVuSans-74" transform="translate(1167.919922 0)"/>
      <use xlink:href="#DejaVuSans-69" transform="translate(1207.128906 0)"/>
      <use xlink:href="#DejaVuSans-61" transform="translate(1234.912109 0)"/>
      <use xlink:href="#DejaVuSans-29" transform="translate(1296.191406 0)"/>
     </g>
    </g>
   </g>
  </g>
 </g>
 <defs>
  <clipPath id="pa9c2c247c7">
   <rect x="56.09" y="26.88" width="581.11" height="233.56"/>
  </clipPath>
 </defs>
</svg>
