<?xml version="1.0" encoding="utf-8" standalone="no"?>
<!DOCTYPE svg PUBLIC "-//W3C//DTD SVG 1.1//EN"
  "http://www.w3.org/Graphics/SVG/1.1/DTD/svg11.dtd">
<svg xmlns:xlink="http://www.w3.org/1999/xlink" width="648pt" height="403.2pt" viewBox="0 0 648 403.2" xmlns="http://www.w3.org/2000/svg" version="1.1">
 <metadata>
  <rdf:RDF xmlns:dc="http://purl.org/dc/elements/1.1/" xmlns:cc="http://creativecommons.org/ns#" xmlns:rdf="http://www.w3.org/1999/02/22-rdf-syntax-ns#">
   <cc:Work>
    <dc:type rdf:resource="http://purl.org/dc/dcmitype/StillImage"/>
    <dc:date>2026-07-07T09:15:35.202219</dc:date>
    <dc:format>image/svg+xml</dc:format>
    <dc:creator>
     <cc:Agent>
      <dc:title>Matplotlib v3.10.8, https://matplotlib.org/</dc:title>
     </cc:Agent>
    </dc:creator>
   </cc:Work>
  </rdf:RDF>
 </metadata>
 <defs>
  <style type="text/css">*{stroke-linejoin: round; stroke-linecap: butt}</style>
 </defs>
 <g id="figure_1">
  <g id="patch_1">
   <path d="M 0 403.2 
L 648 403.2 
L 648 0 
L 0 0 
z
" style="fill: #ffffff"/>
  </g>
  <g id="axes_1">
   <g id="patch_2">
    <path d="M 59.24 184.237273 
L 637.2 184.237273 
L 637.2 26.88 
L 59.24 26.88 
z
" style="fill: #ffffff"/>
   </g>
   <g id="matplotlib.axis_1">
    <g id="xtick_1">
     <g id="line2d_1">
      <path d="M 85.510909 184.237273 
L 85.510909 26.88 
" clip-path="url(#p894b40b552)" style="fill: none; stroke: #b0b0b0; stroke-opacity: 0.3; stroke-width: 0.8; stroke-linecap: square"/>
     </g>
     <g id="line2d_2">
      <defs>
       <path id="m82177f2b77" d="M 0 0 
L 0 3.5 
" style="stroke: #000000; stroke-width: 0.8"/>
      </defs>
      <g>
       <use xlink:href="#m82177f2b77" x="85.510909" y="184.237273" style="stroke: #000000; stroke-width: 0.8"/>
      </g>
     </g>
    </g>
    <g id="xtick_2">
     <g id="line2d_3">
      <path d="M 151.188182 184.237273 
L 151.188182 26.88 
" clip-path="url(#p894b40b552)" style="fill: none; stroke: #b0b0b0; stroke-opacity: 0.3; stroke-width: 0.8; stroke-linecap: square"/>
     </g>
     <g id="line2d_4">
      <g>
       <use xlink:href="#m82177f2b77" x="151.188182" y="184.237273" style="stroke: #000000; stroke-width: 0.8"/>
      </g>
     </g>
    </g>
    <g id="xtick_3">
     <g id="line2d_5">
      <path d="M 216.865455 184.237273 
L 216.865455 26.88 
" clip-path="url(#p894b40b552)" style="fill: none; stroke: #b0b0b0; stroke-opacity: 0.3; stroke-width: 0.8; stroke-linecap: square"/>
     </g>
     <g id="line2d_6">
      <g>
       <use xlink:href="#m82177f2b77" x="216.865455" y="184.237273" style="stroke: #000000; stroke-width: 0.8"/>
      </g>
     </g>
    </g>
    <g id="xtick_4">
     <g id="line2d_7">
      <path d="M 282.542727 184.237273 
L 282.542727 26.88 
" clip-path="url(#p894b40b552)" style="fill: none; stroke: #b0b0b0; stroke-opacity: 0.3; stroke-width: 0.8; stroke-linecap: square"/>
     </g>
     <g id="line2d_8">
      <g>
       <use xlink:href="#m82177f2b77" x="282.542727" y="184.237273" style="stroke: #000000; stroke-width: 0.8"/>
      </g>
     </g>
    </g>
    <g id="xtick_5">
     <g id="line2d_9">
      <path d="M 348.22 184.237273 
L 348.22 26.88 
" clip-path="url(#p894b40b552)" style="fill: none; stroke: #b0b0b0; stroke-opacity: 0.3; stroke-width: 0.8; stroke-linecap: square"/>
     </g>
     <g id="line2d_10">
      <g>
       <use xlink:href="#m82177f2b77" x="348.22" y="184.237273" style="stroke: #000000; stroke-width: 0.8"/>
      </g>
     </g>
    </g>
    <g id="xtick_6">
     <g id="line2d_11">
      <path d="M 413.897273 184.237273 
L 413.897273 26.88 
" clip-path="url(#p894b40b552)" style="fill: none; stroke: #b0b0b0; stroke-opacity: 0.3; stroke-width: 0.8; stroke-linecap: square"/>
     </g>
     <g id="line2d_12">
      <g>
       <use xlink:href="#m82177f2b77" x="413.897273" y="184.237273" style="stroke: #000000; stroke-width: 0.8"/>
      </g>
     </g>
    </g>
    <g id="xtick_7">
     <g id="line2d_13">
      <path d="M 479.574545 184.237273 
L 479.574545 26.88 
" clip-path="url(#p894b40b552)" style="fill: none; stroke: #b0b0b0; stroke-opacity: 0.3; stroke-width: 0.8; stroke-linecap: square"/>
     </g>
     <g id="line2d_14">
      <g>
       <use xlink:href="#m82177f2b77" x="479.574545" y="184.237273" style="stroke: #000000; stroke-width: 0.8"/>
      </g>
     </g>
    </g>
    <g id="xtick_8">
     <g id="line2d_15">
      <path d="M 545.251818 184.237273 
L 545.251818 26.88 
" clip-path="url(#p894b40b552)" style="fill: none; stroke: #b0b0b0; stroke-opacity: 0.3; stroke-width: 0.8; stroke-linecap: square"/>
     </g>
     <g id="line2d_16">
      <g>
       <use xlink:href="#m82177f2b77" x="545.251818" y="184.237273" style="stroke: #000000; stroke-width: 0.8"/>
      </g>
     </g>
    </g>
    <g id="xtick_9">
     <g id="line2d_17">
      <path d="M 610.929091 184.237273 
L 610.929091 26.88 
" clip-path="url(#p894b40b552)" style="fill: none; stroke: #b0b0b0; stroke-opacity: 0.3; stroke-width: 0.8; stroke-linecap: square"/>
     </g>
     <g id="line2d_18">
      <g>
       <use xlink:href="#m82177f2b77" x="610.929091" y="184.237273" style="stroke: #000000; stroke-width: 0.8"/>
      </g>
     </g>
    </g>
   </g>
   <g id="matplotlib.axis_2">
    <g id="ytick_1">
     <g id="line2d_19">
      <path d="M 59.24 179.726788 
L 637.2 179.726788 
" clip-path="url(#p894b40b552)" style="fill: none; stroke: #b0b0b0; stroke-opacity: 0.3; stroke-width: 0.8; stroke-linecap: square"/>
     </g>
     <g id="line2d_20">
      <defs>
       <path id="mee0c22c112" d="M 0 0 
L -3.5 0 
" style="stroke: #000000; stroke-width: 0.8"/>
      </defs>
      <g>
       <use xlink:href="#mee0c22c112" x="59.24" y="179.726788" style="stroke: #000000; stroke-width: 0.8"/>
      </g>
     </g>
     <g id="text_1">
      <!-- −100 -->
      <g transform="translate(24.772813 183.526006) scale(0.1 -0.1)">
       <defs>
        <path id="DejaVuSans-2212" d="M 678 2272 
L 4684 2272 
L 4684 1741 
L 678 1741 
L 678 2272 
z
" transform="scale(0.015625)"/>
        <path id="DejaVuSans-31" d="M 794 531 
L 1825 531 
L 1825 4091 
L 703 3866 
L 703 4441 
L 1819 4666 
L 2450 4666 
L 2450 531 
L 3481 531 
L 3481 0 
L 794 0 
L 794 531 
z
" transform="scale(0.015625)"/>
        <path id="DejaVuSans-30" d="M 2034 4250 
Q 1547 4250 1301 3770 
Q 1056 3291 1056 2328 
Q 1056 1369 1301 889 
Q 1547 409 2034 409 
Q 2525 409 2770 889 
Q 3016 1369 3016 2328 
Q 3016 3291 2770 3770 
Q 2525 4250 2034 4250 
z
M 2034 4750 
Q 2819 4750 3233 4129 
Q 3647 3509 3647 2328 
Q 3647 1150 3233 529 
Q 2819 -91 2034 -91 
Q 1250 -91 836 529 
Q 422 1150 422 2328 
Q 422 3509 836 4129 
Q 1250 4750 2034 4750 
z
" transform="scale(0.015625)"/>
       </defs>
       <use xlink:href="#DejaVuSans-2212"/>
       <use xlink:href="#DejaVuSans-31" transform="translate(83.789062 0)"/>
       <use xlink:href="#DejaVuSans-30" transform="translate(147.412109 0)"/>
       <use xlink:href="#DejaVuSans-30" transform="translate(211.035156 0)"/>
      </g>
     </g>
    </g>
    <g id="ytick_2">
     <g id="line2d_21">
      <path d="M 59.24 145.342742 
L 637.2 145.342742 
" clip-path="url(#p894b40b552)" style="fill: none; stroke: #b0b0b0; stroke-opacity: 0.3; stroke-width: 0.8; stroke-linecap: square"/>
     </g>
     <g id="line2d_22">
      <g>
       <use xlink:href="#mee0c22c112" x="59.24" y="145.342742" style="stroke: #000000; stroke-width: 0.8"/>
      </g>
     </g>
     <g id="text_2">
      <!-- −50 -->
      <g transform="translate(31.135313 149.14196) scale(0.1 -0.1)">
       <defs>
        <path id="DejaVuSans-35" d="M 691 4666 
L 3169 4666 
L 3169 4134 
L 1269 4134 
L 1269 2991 
Q 1406 3038 1543 3061 
Q 1681 3084 1819 3084 
Q 2600 3084 3056 2656 
Q 3513 2228 3513 1497 
Q 3513 744 3044 326 
Q 2575 -91 1722 -91 
Q 1428 -91 1123 -41 
Q 819 9 494 109 
L 494 744 
Q 775 591 1075 516 
Q 1375 441 1709 441 
Q 2250 441 2565 725 
Q 2881 1009 2881 1497 
Q 2881 1984 2565 2268 
Q 2250 2553 1709 2553 
Q 1456 2553 1204 2497 
Q 953 2441 691 2322 
L 691 4666 
z
" transform="scale(0.015625)"/>
       </defs>
       <use xlink:href="#DejaVuSans-2212"/>
       <use xlink:href="#DejaVuSans-35" transform="translate(83.789062 0)"/>
       <use xlink:href="#DejaVuSans-30" transform="translate(147.412109 0)"/>
      </g>
     </g>
    </g>
    <g id="ytick_3">
     <g id="line2d_23">
      <path d="M 59.24 110.958696 
L 637.2 110.958696 
" clip-path="url(#p894b40b552)" style="fill: none; stroke: #b0b0b0; stroke-opacity: 0.3; stroke-width: 0.8; stroke-linecap: square"/>
     </g>
     <g id="line2d_24">
      <g>
       <use xlink:href="#mee0c22c112" x="59.24" y="110.958696" style="stroke: #000000; stroke-width: 0.8"/>
      </g>
     </g>
     <g id="text_3">
      <!-- 0 -->
      <g transform="translate(45.8775 114.757914) scale(0.1 -0.1)">
       <use xlink:href="#DejaVuSans-30"/>
      </g>
     </g>
    </g>
    <g id="ytick_4">
     <g id="line2d_25">
      <path d="M 59.24 76.57465 
L 637.2 76.57465 
" clip-path="url(#p894b40b552)" style="fill: none; stroke: #b0b0b0; stroke-opacity: 0.3; stroke-width: 0.8; stroke-linecap: square"/>
     </g>
     <g id="line2d_26">
      <g>
       <use xlink:href="#mee0c22c112" x="59.24" y="76.57465" style="stroke: #000000; stroke-width: 0.8"/>
      </g>
     </g>
     <g id="text_4">
      <!-- 50 -->
      <g transform="translate(39.515 80.373869) scale(0.1 -0.1)">
       <use xlink:href="#DejaVuSans-35"/>
       <use xlink:href="#DejaVuSans-30" transform="translate(63.623047 0)"/>
      </g>
     </g>
    </g>
    <g id="ytick_5">
     <g id="line2d_27">
      <path d="M 59.24 42.190604 
L 637.2 42.190604 
" clip-path="url(#p894b40b552)" style="fill: none; stroke: #b0b0b0; stroke-opacity: 0.3; stroke-width: 0.8; stroke-linecap: square"/>
     </g>
     <g id="line2d_28">
      <g>
       <use xlink:href="#mee0c22c112" x="59.24" y="42.190604" style="stroke: #000000; stroke-width: 0.8"/>
      </g>
     </g>
     <g id="text_5">
      <!-- 100 -->
      <g transform="translate(33.1525 45.989823) scale(0.1 -0.1)">
       <use xlink:href="#DejaVuSans-31"/>
       <use xlink:href="#DejaVuSans-30" transform="translate(63.623047 0)"/>
       <use xlink:href="#DejaVuSans-30" transform="translate(127.246094 0)"/>
      </g>
     </g>
    </g>
    <g id="text_6">
     <!-- handwheel angle [deg] -->
     <g transform="translate(18.693125 163.311761) rotate(-90) scale(0.1 -0.1)">
      <defs>
       <path id="DejaVuSans-68" d="M 3513 2113 
L 3513 0 
L 2938 0 
L 2938 2094 
Q 2938 2591 2744 2837 
Q 2550 3084 2163 3084 
Q 1697 3084 1428 2787 
Q 1159 2491 1159 1978 
L 1159 0 
L 581 0 
L 581 4863 
L 1159 4863 
L 1159 2956 
Q 1366 3272 1645 3428 
Q 1925 3584 2291 3584 
Q 2894 3584 3203 3211 
Q 3513 2838 3513 2113 
z
" transform="scale(0.015625)"/>
       <path id="DejaVuSans-61" d="M 2194 1759 
Q 1497 1759 1228 1600 
Q 959 1441 959 1056 
Q 959 750 1161 570 
Q 1363 391 1709 391 
Q 2188 391 2477 730 
Q 2766 1069 2766 1631 
L 2766 1759 
L 2194 1759 
z
M 3341 1997 
L 3341 0 
L 2766 0 
L 2766 531 
Q 2569 213 2275 61 
Q 1981 -91 1556 -91 
Q 1019 -91 701 211 
Q 384 513 384 1019 
Q 384 1609 779 1909 
Q 1175 2209 1959 2209 
L 2766 2209 
L 2766 2266 
Q 2766 2663 2505 2880 
Q 2244 3097 1772 3097 
Q 1472 3097 1187 3025 
Q 903 2953 641 2809 
L 641 3341 
Q 956 3463 1253 3523 
Q 1550 3584 1831 3584 
Q 2591 3584 2966 3190 
Q 3341 2797 3341 1997 
z
" transform="scale(0.015625)"/>
       <path id="DejaVuSans-6e" d="M 3513 2113 
L 3513 0 
L 2938 0 
L 2938 2094 
Q 2938 2591 2744 2837 
Q 2550 3084 2163 3084 
Q 1697 3084 1428 2787 
Q 1159 2491 1159 1978 
L 1159 0 
L 581 0 
L 581 3500 
L 1159 3500 
L 1159 2956 
Q 1366 3272 1645 3428 
Q 1925 3584 2291 3584 
Q 2894 3584 3203 3211 
Q 3513 2838 3513 2113 
z
" transform="scale(0.015625)"/>
       <path id="DejaVuSans-64" d="M 2906 2969 
L 2906 4863 
L 3481 4863 
L 3481 0 
L 2906 0 
L 2906 525 
Q 2725 213 2448 61 
Q 2172 -91 1784 -91 
Q 1150 -91 751 415 
Q 353 922 353 1747 
Q 353 2572 751 3078 
Q 1150 3584 1784 3584 
Q 2172 3584 2448 3432 
Q 2725 3281 2906 2969 
z
M 947 1747 
Q 947 1113 1208 752 
Q 1469 391 1925 391 
Q 2381 391 2643 752 
Q 2906 1113 2906 1747 
Q 2906 2381 2643 2742 
Q 2381 3103 1925 3103 
Q 1469 3103 1208 2742 
Q 947 2381 947 1747 
z
" transform="scale(0.015625)"/>
       <path id="DejaVuSans-77" d="M 269 3500 
L 844 3500 
L 1563 769 
L 2278 3500 
L 2956 3500 
L 3675 769 
L 4391 3500 
L 4966 3500 
L 4050 0 
L 3372 0 
L 2619 2869 
L 1863 0 
L 1184 0 
L 269 3500 
z
" transform="scale(0.015625)"/>
       <path id="DejaVuSans-65" d="M 3597 1894 
L 3597 1613 
L 953 1613 
Q 991 1019 1311 708 
Q 1631 397 2203 397 
Q 2534 397 2845 478 
Q 3156 559 3463 722 
L 3463 178 
Q 3153 47 2828 -22 
Q 2503 -91 2169 -91 
Q 1331 -91 842 396 
Q 353 884 353 1716 
Q 353 2575 817 3079 
Q 1281 3584 2069 3584 
Q 2775 3584 3186 3129 
Q 3597 2675 3597 1894 
z
M 3022 2063 
Q 3016 2534 2758 2815 
Q 2500 3097 2075 3097 
Q 1594 3097 1305 2825 
Q 1016 2553 972 2059 
L 3022 2063 
z
" transform="scale(0.015625)"/>
       <path id="DejaVuSans-6c" d="M 603 4863 
L 1178 4863 
L 1178 0 
L 603 0 
L 603 4863 
z
" transform="scale(0.015625)"/>
       <path id="DejaVuSans-20" transform="scale(0.015625)"/>
       <path id="DejaVuSans-67" d="M 2906 1791 
Q 2906 2416 2648 2759 
Q 2391 3103 1925 3103 
Q 1463 3103 1205 2759 
Q 947 2416 947 1791 
Q 947 1169 1205 825 
Q 1463 481 1925 481 
Q 2391 481 2648 825 
Q 2906 1169 2906 1791 
z
M 3481 434 
Q 3481 -459 3084 -895 
Q 2688 -1331 1869 -1331 
Q 1566 -1331 1297 -1286 
Q 1028 -1241 775 -1147 
L 775 -588 
Q 1028 -725 1275 -790 
Q 1522 -856 1778 -856 
Q 2344 -856 2625 -561 
Q 2906 -266 2906 331 
L 2906 616 
Q 2728 306 2450 153 
Q 2172 0 1784 0 
Q 1141 0 747 490 
Q 353 981 353 1791 
Q 353 2603 747 3093 
Q 1141 3584 1784 3584 
Q 2172 3584 2450 3431 
Q 2728 3278 2906 2969 
L 2906 3500 
L 3481 3500 
L 3481 434 
z
" transform="scale(0.015625)"/>
       <path id="DejaVuSans-5b" d="M 550 4863 
L 1875 4863 
L 1875 4416 
L 1125 4416 
L 1125 -397 
L 1875 -397 
L 1875 -844 
L 550 -844 
L 550 4863 
z
" transform="scale(0.015625)"/>
       <path id="DejaVuSans-5d" d="M 1947 4863 
L 1947 -844 
L 622 -844 
L 622 -397 
L 1369 -397 
L 1369 4416 
L 622 4416 
L 622 4863 
L 1947 4863 
z
" transform="scale(0.015625)"/>
      </defs>
      <use xlink:href="#DejaVuSans-68"/>
      <use xlink:href="#DejaVuSans-61" transform="translate(63.378906 0)"/>
      <use xlink:href="#DejaVuSans-6e" transform="translate(124.658203 0)"/>
      <use xlink:href="#DejaVuSans-64" transform="translate(188.037109 0)"/>
      <use xlink:href="#DejaVuSans-77" transform="translate(251.513672 0)"/>
      <use xlink:href="#DejaVuSans-68" transform="translate(333.300781 0)"/>
      <use xlink:href="#DejaVuSans-65" transform="translate(396.679688 0)"/>
      <use xlink:href="#DejaVuSans-65" transform="translate(458.203125 0)"/>
      <use xlink:href="#DejaVuSans-6c" transform="translate(519.726562 0)"/>
      <use xlink:href="#DejaVuSans-20" transform="translate(547.509766 0)"/>
      <use xlink:href="#DejaVuSans-61" transform="translate(579.296875 0)"/>
      <use xlink:href="#DejaVuSans-6e" transform="translate(640.576172 0)"/>
      <use xlink:href="#DejaVuSans-67" transform="translate(703.955078 0)"/>
      <use xlink:href="#DejaVuSans-6c" transform="translate(767.431641 0)"/>
      <use xlink:href="#DejaVuSans-65" transform="translate(795.214844 0)"/>
      <use xlink:href="#DejaVuSans-20" transform="translate(856.738281 0)"/>
      <use xlink:href="#DejaVuSans-5b" transform="translate(888.525391 0)"/>
      <use xlink:href="#DejaVuSans-64" transform="translate(927.539062 0)"/>
      <use xlink:href="#DejaVuSans-65" transform="translate(991.015625 0)"/>
      <use xlink:href="#DejaVuSans-67" transform="translate(1052.539062 0)"/>
      <use xlink:href="#DejaVuSans-5d" transform="translate(1116.015625 0)"/>
     </g>
    </g>
   </g>
   <g id="line2d_29">
    <path d="M 85.510909 110.958696 
L 97.267141 110.847835 
L 98.712041 110.572641 
L 99.959909 110.109063 
L 101.076423 109.464397 
L 102.192936 108.567881 
L 103.375127 107.321129 
L 104.622995 105.665113 
L 106.002218 103.4442 
L 107.578473 100.463571 
L 109.614468 96.092413 
L 116.510582 80.845645 
L 118.349545 77.551947 
L 119.991477 75.050757 
L 121.567732 73.046334 
L 123.078309 71.472749 
L 124.588886 70.208996 
L 126.165141 69.181746 
L 127.807073 68.384757 
L 129.514682 67.809662 
L 131.287968 67.45366 
L 133.061255 67.32801 
L 134.768864 67.428163 
L 136.410795 67.746481 
L 137.98705 68.282 
L 139.497627 69.03426 
L 140.942527 69.999407 
L 142.387427 71.230202 
L 143.832327 72.750251 
L 145.342905 74.670995 
L 146.919159 77.056141 
L 148.561091 79.968003 
L 150.2687 83.462229 
L 152.107664 87.742358 
L 154.143659 93.058872 
L 156.573718 100.067428 
L 160.185968 111.279187 
L 164.060927 123.114835 
L 166.1626 128.834926 
L 167.870209 132.87465 
L 169.380786 135.906864 
L 170.825686 138.312343 
L 172.204909 140.18218 
L 173.584132 141.692854 
L 175.160386 143.083783 
L 177.262059 144.615449 
L 181.137018 147.401226 
L 183.173014 149.178944 
L 185.471718 151.510022 
L 188.624227 154.692646 
L 190.069127 155.828734 
L 191.251318 156.488903 
L 192.302155 156.827435 
L 193.287314 156.907445 
L 194.206795 156.761009 
L 195.126277 156.393654 
L 196.111436 155.752218 
L 197.162273 154.788408 
L 198.278786 153.458674 
L 199.526655 151.622231 
L 200.971555 149.078057 
L 202.613486 145.722068 
L 204.649482 141.031133 
L 207.670636 133.440578 
L 212.268045 121.923267 
L 214.501073 116.936941 
L 216.340036 113.336647 
L 217.981968 110.582556 
L 219.492545 108.467474 
L 220.871768 106.899435 
L 222.185314 105.727895 
L 223.433182 104.897013 
L 224.68105 104.325713 
L 225.928918 103.993063 
L 227.242464 103.872462 
L 228.687364 103.971847 
L 230.329295 104.320865 
L 232.299614 104.97752 
L 235.189414 106.203456 
L 252.002795 113.699008 
L 254.695564 114.58151 
L 256.994268 115.109147 
L 262.314127 116.150913 
L 263.430641 116.75303 
L 264.481477 117.579978 
L 265.532314 118.701787 
L 266.648827 120.247338 
L 267.831018 122.295351 
L 269.144564 125.056051 
L 270.655141 128.801099 
L 272.494105 134.010476 
L 275.515259 143.374944 
L 278.733445 153.124045 
L 280.769441 158.595857 
L 282.542727 162.742946 
L 284.184659 166.027162 
L 285.760914 168.681241 
L 287.271491 170.790449 
L 288.716391 172.440263 
L 290.161291 173.760331 
L 291.606191 174.776006 
L 292.985414 175.477891 
L 294.298959 175.909952 
L 295.612505 176.109679 
L 296.860373 176.075731 
L 298.042564 175.829589 
L 299.224755 175.358476 
L 300.406945 174.642065 
L 301.589136 173.656861 
L 302.771327 172.376889 
L 303.953518 170.774435 
L 305.201386 168.70142 
L 306.514932 166.059434 
L 307.828477 162.908285 
L 309.2077 159.013214 
L 310.6526 154.251469 
L 312.163177 148.497322 
L 313.805109 141.326839 
L 315.578395 132.52957 
L 317.548714 121.57155 
L 319.978773 106.688111 
L 326.283791 67.277624 
L 327.925723 58.835898 
L 329.304945 52.833873 
L 330.552814 48.315172 
L 331.735005 44.810975 
L 332.851518 42.14183 
L 333.968032 40.039606 
L 335.018868 38.528763 
L 336.004027 37.481274 
L 336.989186 36.753202 
L 337.908668 36.332629 
L 338.893827 36.132095 
L 339.878986 36.165972 
L 340.929823 36.436792 
L 342.046336 36.966616 
L 343.228527 37.77638 
L 344.542073 38.951699 
L 345.986973 40.553618 
L 347.563227 42.644365 
L 349.270836 45.290156 
L 351.1098 48.565754 
L 353.014441 52.418943 
L 354.984759 56.90483 
L 357.020755 62.089699 
L 359.188105 68.240216 
L 361.421132 75.262687 
L 363.851191 83.663079 
L 366.609636 94.026595 
L 370.878659 111.073279 
L 374.425232 124.869381 
L 376.461227 131.924691 
L 378.037482 136.632574 
L 379.351027 139.897375 
L 380.467541 142.115414 
L 381.4527 143.597677 
L 382.306505 144.496328 
L 383.028955 144.966055 
L 383.685727 145.158782 
L 384.3425 145.129441 
L 384.999273 144.882521 
L 385.721723 144.368991 
L 386.50985 143.536718 
L 387.429332 142.239307 
L 388.545845 140.257187 
L 389.925068 137.328156 
L 391.895386 132.56793 
L 396.755505 120.632278 
L 398.660145 116.652892 
L 400.367755 113.599172 
L 401.944009 111.223151 
L 403.520264 109.244699 
L 405.096518 107.612509 
L 406.804127 106.160093 
L 408.774445 104.78431 
L 411.204505 103.374612 
L 414.094305 101.960497 
L 416.590041 100.968483 
L 418.626036 100.390102 
L 420.333645 100.124988 
L 421.9099 100.097283 
L 423.420477 100.289572 
L 424.931055 100.706386 
L 426.507309 101.376588 
L 428.214918 102.348894 
L 430.250914 103.775072 
L 433.534777 106.397861 
L 436.818641 108.928401 
L 438.920314 110.27174 
L 440.759277 111.192133 
L 442.532564 111.834522 
L 444.30585 112.245219 
L 446.276168 112.467637 
L 448.64055 112.497158 
L 452.778218 112.276811 
L 457.506982 112.108851 
L 467.42425 111.915962 
L 470.970823 111.503356 
L 480.625382 110.227178 
L 483.843568 110.137402 
L 487.587173 110.271963 
L 498.292568 110.795842 
L 505.911132 110.743622 
L 512.150473 110.826164 
L 525.088895 111.106815 
L 551.622514 110.975978 
L 610.929091 110.962107 
L 610.929091 110.962107 
" clip-path="url(#p894b40b552)" style="fill: none; stroke: #1f77b4; stroke-width: 1.3; stroke-linecap: square"/>
   </g>
   <g id="line2d_30">
    <path d="M 85.510909 110.958696 
L 94.443018 110.859297 
L 95.231145 110.523985 
L 96.08495 109.894222 
L 97.004432 108.910869 
L 97.989591 107.516986 
L 99.106105 105.537853 
L 100.41965 102.72772 
L 102.061582 98.638187 
L 104.688673 91.384235 
L 107.578473 83.585689 
L 109.351759 79.412292 
L 110.862336 76.383092 
L 112.307236 73.975281 
L 113.686459 72.11468 
L 115.000005 70.708295 
L 116.31355 69.614117 
L 117.692773 68.746067 
L 119.20335 68.057114 
L 120.910959 67.524198 
L 122.946955 67.12996 
L 125.179982 66.921456 
L 127.347332 66.934461 
L 129.251973 67.16537 
L 130.893905 67.582453 
L 132.404482 68.19119 
L 133.849382 69.014987 
L 135.228605 70.054547 
L 136.607827 71.369761 
L 138.052727 73.069302 
L 139.497627 75.119605 
L 141.008205 77.654893 
L 142.584459 80.737079 
L 144.292068 84.578289 
L 146.131032 89.278522 
L 148.167027 95.105856 
L 150.597086 102.765779 
L 154.6034 116.286392 
L 157.755909 126.59946 
L 159.726227 132.324295 
L 161.302482 136.266317 
L 162.681705 139.141462 
L 163.863895 141.130094 
L 164.980409 142.585101 
L 165.965568 143.527584 
L 166.950727 144.180911 
L 168.067241 144.657769 
L 169.577818 145.038778 
L 172.467618 145.726781 
L 173.715486 146.28037 
L 174.963355 147.087509 
L 176.2769 148.208702 
L 177.787477 149.804148 
L 179.560764 152.013054 
L 181.990823 155.422563 
L 183.895464 158.016118 
L 184.814945 158.858474 
L 185.66875 159.356219 
L 186.456877 159.569718 
L 187.245005 159.547482 
L 188.033132 159.292826 
L 188.886936 158.761815 
L 189.806418 157.905819 
L 190.791577 156.681548 
L 191.973768 154.828891 
L 193.287314 152.337397 
L 194.863568 148.845732 
L 196.833886 143.896761 
L 199.658009 136.127805 
L 204.912191 121.616642 
L 207.145218 116.159474 
L 208.984182 112.230613 
L 210.560436 109.350527 
L 212.005336 107.146217 
L 213.318882 105.521668 
L 214.56675 104.317324 
L 215.748941 103.476342 
L 216.865455 102.939446 
L 217.981968 102.636851 
L 219.164159 102.549064 
L 220.412027 102.683949 
L 221.79125 103.058137 
L 223.498859 103.765946 
L 225.928918 105.041503 
L 231.314455 107.917581 
L 234.663995 109.397074 
L 241.757141 112.454152 
L 246.617259 114.558841 
L 248.981641 115.329352 
L 251.017636 115.757628 
L 252.922277 115.929221 
L 254.826918 115.876632 
L 257.91375 115.703847 
L 258.570523 116.055411 
L 259.292973 116.698495 
L 260.0811 117.706138 
L 261.000582 119.27861 
L 261.985741 121.418351 
L 263.167932 124.556294 
L 264.547155 128.884994 
L 266.386118 135.450637 
L 271.771655 155.155867 
L 273.413586 160.117498 
L 274.924164 164.001189 
L 276.303386 166.968396 
L 277.682609 169.415546 
L 278.996155 171.313081 
L 280.375377 172.914236 
L 281.7546 174.180245 
L 283.1995 175.211634 
L 284.710077 176.02361 
L 286.286332 176.620895 
L 287.862586 176.977843 
L 289.307486 177.084632 
L 290.686709 176.965843 
L 291.934577 176.644133 
L 293.182445 176.086852 
L 294.364636 175.309618 
L 295.546827 174.256802 
L 296.729018 172.894481 
L 297.911209 171.188053 
L 299.159077 168.975319 
L 300.406945 166.300913 
L 301.720491 162.945372 
L 303.099714 158.781963 
L 304.544614 153.673613 
L 306.055191 147.478119 
L 307.631445 140.057566 
L 309.339055 130.922265 
L 311.243695 119.460742 
L 313.476723 104.574805 
L 317.483036 75.938268 
L 319.847418 59.94638 
L 321.423673 50.718701 
L 322.671541 44.663946 
L 323.722377 40.633707 
L 324.576182 38.17066 
L 325.364309 36.51691 
L 326.152436 35.366997 
L 326.874886 34.678629 
L 327.597336 34.270487 
L 328.385464 34.067421 
L 329.4363 34.05073 
L 331.932036 34.331392 
L 333.04855 34.765367 
L 334.559127 35.605823 
L 336.004027 36.660399 
L 337.448927 37.996949 
L 338.959505 39.710584 
L 340.601436 41.933321 
L 342.374723 44.732684 
L 344.279364 48.175016 
L 346.249682 52.199631 
L 348.285677 56.867194 
L 350.321673 62.086268 
L 352.423345 68.095174 
L 354.590695 74.986413 
L 356.8894 83.0666 
L 359.450814 92.929652 
L 362.669 106.288743 
L 368.514277 130.720641 
L 370.418918 137.663756 
L 371.929495 142.3935 
L 373.177364 145.618425 
L 374.2282 147.760727 
L 375.147682 149.148203 
L 375.935809 149.94308 
L 376.592582 150.310614 
L 377.183677 150.403319 
L 377.774773 150.265038 
L 378.365868 149.892875 
L 379.022641 149.20473 
L 379.745091 148.118408 
L 380.598895 146.406691 
L 381.584055 143.913254 
L 382.8976 139.945153 
L 385.261982 131.929702 
L 387.560686 124.421605 
L 389.268295 119.620512 
L 390.84455 115.849177 
L 392.28945 112.953997 
L 393.668673 110.678897 
L 394.982218 108.925991 
L 396.295764 107.531753 
L 397.674986 106.390664 
L 399.185564 105.431478 
L 401.090205 104.500864 
L 412.123986 99.806774 
L 413.765918 99.400647 
L 415.210818 99.275917 
L 416.524364 99.38185 
L 417.837909 99.708031 
L 419.217132 100.288631 
L 420.662032 101.148796 
L 422.303964 102.40362 
L 424.339959 104.262963 
L 430.447945 110.049364 
L 432.155555 111.264656 
L 433.731809 112.118662 
L 435.242386 112.682293 
L 436.752964 113.005784 
L 438.329218 113.117476 
L 440.168182 113.020336 
L 442.795273 112.635358 
L 447.19565 111.989027 
L 449.757064 111.859977 
L 452.712541 111.949219 
L 459.017559 112.21035 
L 461.578973 112.037827 
L 464.337418 111.620973 
L 473.860623 109.950719 
L 476.422036 109.878291 
L 479.377514 110.032634 
L 484.960082 110.621057 
L 488.835041 110.889771 
L 492.512968 110.91109 
L 505.123005 110.755521 
L 517.864395 111.178599 
L 525.482959 110.946418 
L 531.853655 110.861103 
L 585.840373 110.951788 
L 610.929091 110.963086 
L 610.929091 110.963086 
" clip-path="url(#p894b40b552)" style="fill: none; stroke-dasharray: 3.33,1.44; stroke-dashoffset: 0; stroke: #000000; stroke-width: 0.9"/>
   </g>
   <g id="line2d_31">
    <path d="M 59.24 110.958696 
L 637.2 110.958696 
" clip-path="url(#p894b40b552)" style="fill: none; stroke: #000000; stroke-width: 0.4; stroke-linecap: square"/>
   </g>
   <g id="patch_3">
    <path d="M 59.24 184.237273 
L 59.24 26.88 
" style="fill: none; stroke: #000000; stroke-width: 0.8; stroke-linejoin: miter; stroke-linecap: square"/>
   </g>
   <g id="patch_4">
    <path d="M 637.2 184.237273 
L 637.2 26.88 
" style="fill: none; stroke: #000000; stroke-width: 0.8; stroke-linejoin: miter; stroke-linecap: square"/>
   </g>
   <g id="patch_5">
    <path d="M 59.24 184.237273 
L 637.2 184.237273 
" style="fill: none; stroke: #000000; stroke-width: 0.8; stroke-linejoin: miter; stroke-linecap: square"/>
   </g>
   <g id="patch_6">
    <path d="M 59.24 26.88 
L 637.2 26.88 
" style="fill: none; stroke: #000000; stroke-width: 0.8; stroke-linejoin: miter; stroke-linecap: square"/>
   </g>
   <g id="text_7">
    <!-- Manual (unassisted) steering: handwheel angle and steering-feel torque -->
    <g transform="translate(131.171875 20.88) scale(0.12 -0.12)">
     <defs>
      <path id="DejaVuSans-4d" d="M 628 4666 
L 1569 4666 
L 2759 1491 
L 3956 4666 
L 4897 4666 
L 4897 0 
L 4281 0 
L 4281 4097 
L 3078 897 
L 2444 897 
L 1241 4097 
L 1241 0 
L 628 0 
L 628 4666 
z
" transform="scale(0.015625)"/>
      <path id="DejaVuSans-75" d="M 544 1381 
L 544 3500 
L 1119 3500 
L 1119 1403 
Q 1119 906 1312 657 
Q 1506 409 1894 409 
Q 2359 409 2629 706 
Q 2900 1003 2900 1516 
L 2900 3500 
L 3475 3500 
L 3475 0 
L 2900 0 
L 2900 538 
Q 2691 219 2414 64 
Q 2138 -91 1772 -91 
Q 1169 -91 856 284 
Q 544 659 544 1381 
z
M 1991 3584 
L 1991 3584 
z
" transform="scale(0.015625)"/>
      <path id="DejaVuSans-28" d="M 1984 4856 
Q 1566 4138 1362 3434 
Q 1159 2731 1159 2009 
Q 1159 1288 1364 580 
Q 1569 -128 1984 -844 
L 1484 -844 
Q 1016 -109 783 600 
Q 550 1309 550 2009 
Q 550 2706 781 3412 
Q 1013 4119 1484 4856 
L 1984 4856 
z
" transform="scale(0.015625)"/>
      <path id="DejaVuSans-73" d="M 2834 3397 
L 2834 2853 
Q 2591 2978 2328 3040 
Q 2066 3103 1784 3103 
Q 1356 3103 1142 2972 
Q 928 2841 928 2578 
Q 928 2378 1081 2264 
Q 1234 2150 1697 2047 
L 1894 2003 
Q 2506 1872 2764 1633 
Q 3022 1394 3022 966 
Q 3022 478 2636 193 
Q 2250 -91 1575 -91 
Q 1294 -91 989 -36 
Q 684 19 347 128 
L 347 722 
Q 666 556 975 473 
Q 1284 391 1588 391 
Q 1994 391 2212 530 
Q 2431 669 2431 922 
Q 2431 1156 2273 1281 
Q 2116 1406 1581 1522 
L 1381 1569 
Q 847 1681 609 1914 
Q 372 2147 372 2553 
Q 372 3047 722 3315 
Q 1072 3584 1716 3584 
Q 2034 3584 2315 3537 
Q 2597 3491 2834 3397 
z
" transform="scale(0.015625)"/>
      <path id="DejaVuSans-69" d="M 603 3500 
L 1178 3500 
L 1178 0 
L 603 0 
L 603 3500 
z
M 603 4863 
L 1178 4863 
L 1178 4134 
L 603 4134 
L 603 4863 
z
" transform="scale(0.015625)"/>
      <path id="DejaVuSans-74" d="M 1172 4494 
L 1172 3500 
L 2356 3500 
L 2356 3053 
L 1172 3053 
L 1172 1153 
Q 1172 725 1289 603 
Q 1406 481 1766 481 
L 2356 481 
L 2356 0 
L 1766 0 
Q 1100 0 847 248 
Q 594 497 594 1153 
L 594 3053 
L 172 3053 
L 172 3500 
L 594 3500 
L 594 4494 
L 1172 4494 
z
" transform="scale(0.015625)"/>
      <path id="DejaVuSans-29" d="M 513 4856 
L 1013 4856 
Q 1481 4119 1714 3412 
Q 1947 2706 1947 2009 
Q 1947 1309 1714 600 
Q 1481 -109 1013 -844 
L 513 -844 
Q 928 -128 1133 580 
Q 1338 1288 1338 2009 
Q 1338 2731 1133 3434 
Q 928 4138 513 4856 
z
" transform="scale(0.015625)"/>
      <path id="DejaVuSans-72" d="M 2631 2963 
Q 2534 3019 2420 3045 
Q 2306 3072 2169 3072 
Q 1681 3072 1420 2755 
Q 1159 2438 1159 1844 
L 1159 0 
L 581 0 
L 581 3500 
L 1159 3500 
L 1159 2956 
Q 1341 3275 1631 3429 
Q 1922 3584 2338 3584 
Q 2397 3584 2469 3576 
Q 2541 3569 2628 3553 
L 2631 2963 
z
" transform="scale(0.015625)"/>
      <path id="DejaVuSans-3a" d="M 750 794 
L 1409 794 
L 1409 0 
L 750 0 
L 750 794 
z
M 750 3309 
L 1409 3309 
L 1409 2516 
L 750 2516 
L 750 3309 
z
" transform="scale(0.015625)"/>
      <path id="DejaVuSans-2d" d="M 313 2009 
L 1997 2009 
L 1997 1497 
L 313 1497 
L 313 2009 
z
" transform="scale(0.015625)"/>
      <path id="DejaVuSans-66" d="M 2375 4863 
L 2375 4384 
L 1825 4384 
Q 1516 4384 1395 4259 
Q 1275 4134 1275 3809 
L 1275 3500 
L 2222 3500 
L 2222 3053 
L 1275 3053 
L 1275 0 
L 697 0 
L 697 3053 
L 147 3053 
L 147 3500 
L 697 3500 
L 697 3744 
Q 697 4328 969 4595 
Q 1241 4863 1831 4863 
L 2375 4863 
z
" transform="scale(0.015625)"/>
      <path id="DejaVuSans-6f" d="M 1959 3097 
Q 1497 3097 1228 2736 
Q 959 2375 959 1747 
Q 959 1119 1226 758 
Q 1494 397 1959 397 
Q 2419 397 2687 759 
Q 2956 1122 2956 1747 
Q 2956 2369 2687 2733 
Q 2419 3097 1959 3097 
z
M 1959 3584 
Q 2709 3584 3137 3096 
Q 3566 2609 3566 1747 
Q 3566 888 3137 398 
Q 2709 -91 1959 -91 
Q 1206 -91 779 398 
Q 353 888 353 1747 
Q 353 2609 779 3096 
Q 1206 3584 1959 3584 
z
" transform="scale(0.015625)"/>
      <path id="DejaVuSans-71" d="M 947 1747 
Q 947 1113 1208 752 
Q 1469 391 1925 391 
Q 2381 391 2643 752 
Q 2906 1113 2906 1747 
Q 2906 2381 2643 2742 
Q 2381 3103 1925 3103 
Q 1469 3103 1208 2742 
Q 947 2381 947 1747 
z
M 2906 525 
Q 2725 213 2448 61 
Q 2172 -91 1784 -91 
Q 1150 -91 751 415 
Q 353 922 353 1747 
Q 353 2572 751 3078 
Q 1150 3584 1784 3584 
Q 2172 3584 2448 3432 
Q 2725 3281 2906 2969 
L 2906 3500 
L 3481 3500 
L 3481 -1331 
L 2906 -1331 
L 2906 525 
z
" transform="scale(0.015625)"/>
     </defs>
     <use xlink:href="#DejaVuSans-4d"/>
     <use xlink:href="#DejaVuSans-61" transform="translate(86.279297 0)"/>
     <use xlink:href="#DejaVuSans-6e" transform="translate(147.558594 0)"/>
     <use xlink:href="#DejaVuSans-75" transform="translate(210.9375 0)"/>
     <use xlink:href="#DejaVuSans-61" transform="translate(274.316406 0)"/>
     <use xlink:href="#DejaVuSans-6c" transform="translate(335.595703 0)"/>
     <use xlink:href="#DejaVuSans-20" transform="translate(363.378906 0)"/>
     <use xlink:href="#DejaVuSans-28" transform="translate(395.166016 0)"/>
     <use xlink:href="#DejaVuSans-75" transform="translate(434.179688 0)"/>
     <use xlink:href="#DejaVuSans-6e" transform="translate(497.558594 0)"/>
     <use xlink:href="#DejaVuSans-61" transform="translate(560.9375 0)"/>
     <use xlink:href="#DejaVuSans-73" transform="translate(622.216797 0)"/>
     <use xlink:href="#DejaVuSans-73" transform="translate(674.316406 0)"/>
     <use xlink:href="#DejaVuSans-69" transform="translate(726.416016 0)"/>
     <use xlink:href="#DejaVuSans-73" transform="translate(754.199219 0)"/>
     <use xlink:href="#DejaVuSans-74" transform="translate(806.298828 0)"/>
     <use xlink:href="#DejaVuSans-65" transform="translate(845.507812 0)"/>
     <use xlink:href="#DejaVuSans-64" transform="translate(907.03125 0)"/>
     <use xlink:href="#DejaVuSans-29" transform="translate(970.507812 0)"/>
     <use xlink:href="#DejaVuSans-20" transform="translate(1009.521484 0)"/>
     <use xlink:href="#DejaVuSans-73" transform="translate(1041.308594 0)"/>
     <use xlink:href="#DejaVuSans-74" transform="translate(1093.408203 0)"/>
     <use xlink:href="#DejaVuSans-65" transform="translate(1132.617188 0)"/>
     <use xlink:href="#DejaVuSans-65" transform="translate(1194.140625 0)"/>
     <use xlink:href="#DejaVuSans-72" transform="translate(1255.664062 0)"/>
     <use xlink:href="#DejaVuSans-69" transform="translate(1296.777344 0)"/>
     <use xlink:href="#DejaVuSans-6e" transform="translate(1324.560547 0)"/>
     <use xlink:href="#DejaVuSans-67" transform="translate(1387.939453 0)"/>
     <use xlink:href="#DejaVuSans-3a" transform="translate(1451.416016 0)"/>
     <use xlink:href="#DejaVuSans-20" transform="translate(1485.107422 0)"/>
     <use xlink:href="#DejaVuSans-68" transform="translate(1516.894531 0)"/>
     <use xlink:href="#DejaVuSans-61" transform="translate(1580.273438 0)"/>
     <use xlink:href="#DejaVuSans-6e" transform="translate(1641.552734 0)"/>
     <use xlink:href="#DejaVuSans-64" transform="translate(1704.931641 0)"/>
     <use xlink:href="#DejaVuSans-77" transform="translate(1768.408203 0)"/>
     <use xlink:href="#DejaVuSans-68" transform="translate(1850.195312 0)"/>
     <use xlink:href="#DejaVuSans-65" transform="translate(1913.574219 0)"/>
     <use xlink:href="#DejaVuSans-65" transform="translate(1975.097656 0)"/>
     <use xlink:href="#DejaVuSans-6c" transform="translate(2036.621094 0)"/>
     <use xlink:href="#DejaVuSans-20" transform="translate(2064.404297 0)"/>
     <use xlink:href="#DejaVuSans-61" transform="translate(2096.191406 0)"/>
     <use xlink:href="#DejaVuSans-6e" transform="translate(2157.470703 0)"/>
     <use xlink:href="#DejaVuSans-67" transform="translate(2220.849609 0)"/>
     <use xlink:href="#DejaVuSans-6c" transform="translate(2284.326172 0)"/>
     <use xlink:href="#DejaVuSans-65" transform="translate(2312.109375 0)"/>
     <use xlink:href="#DejaVuSans-20" transform="translate(2373.632812 0)"/>
     <use xlink:href="#DejaVuSans-61" transform="translate(2405.419922 0)"/>
     <use xlink:href="#DejaVuSans-6e" transform="translate(2466.699219 0)"/>
     <use xlink:href="#DejaVuSans-64" transform="translate(2530.078125 0)"/>
     <use xlink:href="#DejaVuSans-20" transform="translate(2593.554688 0)"/>
     <use xlink:href="#DejaVuSans-73" transform="translate(2625.341797 0)"/>
     <use xlink:href="#DejaVuSans-74" transform="translate(2677.441406 0)"/>
     <use xlink:href="#DejaVuSans-65" transform="translate(2716.650391 0)"/>
     <use xlink:href="#DejaVuSans-65" transform="translate(2778.173828 0)"/>
     <use xlink:href="#DejaVuSans-72" transform="translate(2839.697266 0)"/>
     <use xlink:href="#DejaVuSans-69" transform="translate(2880.810547 0)"/>
     <use xlink:href="#DejaVuSans-6e" transform="translate(2908.59375 0)"/>
     <use xlink:href="#DejaVuSans-67" transform="translate(2971.972656 0)"/>
     <use xlink:href="#DejaVuSans-2d" transform="translate(3035.449219 0)"/>
     <use xlink:href="#DejaVuSans-66" transform="translate(3071.533203 0)"/>
     <use xlink:href="#DejaVuSans-65" transform="translate(3106.738281 0)"/>
     <use xlink:href="#DejaVuSans-65" transform="translate(3168.261719 0)"/>
     <use xlink:href="#DejaVuSans-6c" transform="translate(3229.785156 0)"/>
     <use xlink:href="#DejaVuSans-20" transform="translate(3257.568359 0)"/>
     <use xlink:href="#DejaVuSans-74" transform="translate(3289.355469 0)"/>
     <use xlink:href="#DejaVuSans-6f" transform="translate(3328.564453 0)"/>
     <use xlink:href="#DejaVuSans-72" transform="translate(3389.746094 0)"/>
     <use xlink:href="#DejaVuSans-71" transform="translate(3429.109375 0)"/>
     <use xlink:href="#DejaVuSans-75" transform="translate(3492.585938 0)"/>
     <use xlink:href="#DejaVuSans-65" transform="translate(3555.964844 0)"/>
    </g>
   </g>
   <g id="legend_1">
    <g id="patch_7">
     <path d="M 471.8925 56.9875 
L 631.6 56.9875 
Q 633.2 56.9875 633.2 55.3875 
L 633.2 32.48 
Q 633.2 30.88 631.6 30.88 
L 471.8925 30.88 
Q 470.2925 30.88 470.2925 32.48 
L 470.2925 55.3875 
Q 470.2925 56.9875 471.8925 56.9875 
z
" style="fill: #ffffff; opacity: 0.8; stroke: #cccccc; stroke-linejoin: miter"/>
    </g>
    <g id="line2d_32">
     <path d="M 473.4925 37.35875 
L 481.4925 37.35875 
L 489.4925 37.35875 
" style="fill: none; stroke: #1f77b4; stroke-width: 1.3; stroke-linecap: square"/>
    </g>
    <g id="text_8">
     <!-- handwheel angle -->
     <g transform="translate(495.8925 40.15875) scale(0.08 -0.08)">
      <use xlink:href="#DejaVuSans-68"/>
      <use xlink:href="#DejaVuSans-61" transform="translate(63.378906 0)"/>
      <use xlink:href="#DejaVuSans-6e" transform="translate(124.658203 0)"/>
      <use xlink:href="#DejaVuSans-64" transform="translate(188.037109 0)"/>
      <use xlink:href="#DejaVuSans-77" transform="translate(251.513672 0)"/>
      <use xlink:href="#DejaVuSans-68" transform="translate(333.300781 0)"/>
      <use xlink:href="#DejaVuSans-65" transform="translate(396.679688 0)"/>
      <use xlink:href="#DejaVuSans-65" transform="translate(458.203125 0)"/>
      <use xlink:href="#DejaVuSans-6c" transform="translate(519.726562 0)"/>
      <use xlink:href="#DejaVuSans-20" transform="translate(547.509766 0)"/>
      <use xlink:href="#DejaVuSans-61" transform="translate(579.296875 0)"/>
      <use xlink:href="#DejaVuSans-6e" transform="translate(640.576172 0)"/>
      <use xlink:href="#DejaVuSans-67" transform="translate(703.955078 0)"/>
      <use xlink:href="#DejaVuSans-6c" transform="translate(767.431641 0)"/>
      <use xlink:href="#DejaVuSans-65" transform="translate(795.214844 0)"/>
     </g>
    </g>
    <g id="line2d_33">
     <path d="M 473.4925 49.10125 
L 481.4925 49.10125 
L 489.4925 49.10125 
" style="fill: none; stroke-dasharray: 3.33,1.44; stroke-dashoffset: 0; stroke: #000000; stroke-width: 0.9"/>
    </g>
    <g id="text_9">
     <!-- driver reference (i_S x command) -->
     <g transform="translate(495.8925 51.90125) scale(0.08 -0.08)">
      <defs>
       <path id="DejaVuSans-76" d="M 191 3500 
L 800 3500 
L 1894 563 
L 2988 3500 
L 3597 3500 
L 2284 0 
L 1503 0 
L 191 3500 
z
" transform="scale(0.015625)"/>
       <path id="DejaVuSans-63" d="M 3122 3366 
L 3122 2828 
Q 2878 2963 2633 3030 
Q 2388 3097 2138 3097 
Q 1578 3097 1268 2742 
Q 959 2388 959 1747 
Q 959 1106 1268 751 
Q 1578 397 2138 397 
Q 2388 397 2633 464 
Q 2878 531 3122 666 
L 3122 134 
Q 2881 22 2623 -34 
Q 2366 -91 2075 -91 
Q 1284 -91 818 406 
Q 353 903 353 1747 
Q 353 2603 823 3093 
Q 1294 3584 2113 3584 
Q 2378 3584 2631 3529 
Q 2884 3475 3122 3366 
z
" transform="scale(0.015625)"/>
       <path id="DejaVuSans-5f" d="M 3263 -1063 
L 3263 -1509 
L -63 -1509 
L -63 -1063 
L 3263 -1063 
z
" transform="scale(0.015625)"/>
       <path id="DejaVuSans-53" d="M 3425 4513 
L 3425 3897 
Q 3066 4069 2747 4153 
Q 2428 4238 2131 4238 
Q 1616 4238 1336 4038 
Q 1056 3838 1056 3469 
Q 1056 3159 1242 3001 
Q 1428 2844 1947 2747 
L 2328 2669 
Q 3034 2534 3370 2195 
Q 3706 1856 3706 1288 
Q 3706 609 3251 259 
Q 2797 -91 1919 -91 
Q 1588 -91 1214 -16 
Q 841 59 441 206 
L 441 856 
Q 825 641 1194 531 
Q 1563 422 1919 422 
Q 2459 422 2753 634 
Q 3047 847 3047 1241 
Q 3047 1584 2836 1778 
Q 2625 1972 2144 2069 
L 1759 2144 
Q 1053 2284 737 2584 
Q 422 2884 422 3419 
Q 422 4038 858 4394 
Q 1294 4750 2059 4750 
Q 2388 4750 2728 4690 
Q 3069 4631 3425 4513 
z
" transform="scale(0.015625)"/>
       <path id="DejaVuSans-78" d="M 3513 3500 
L 2247 1797 
L 3578 0 
L 2900 0 
L 1881 1375 
L 863 0 
L 184 0 
L 1544 1831 
L 300 3500 
L 978 3500 
L 1906 2253 
L 2834 3500 
L 3513 3500 
z
" transform="scale(0.015625)"/>
       <path id="DejaVuSans-6d" d="M 3328 2828 
Q 3544 3216 3844 3400 
Q 4144 3584 4550 3584 
Q 5097 3584 5394 3201 
Q 5691 2819 5691 2113 
L 5691 0 
L 5113 0 
L 5113 2094 
Q 5113 2597 4934 2840 
Q 4756 3084 4391 3084 
Q 3944 3084 3684 2787 
Q 3425 2491 3425 1978 
L 3425 0 
L 2847 0 
L 2847 2094 
Q 2847 2600 2669 2842 
Q 2491 3084 2119 3084 
Q 1678 3084 1418 2786 
Q 1159 2488 1159 1978 
L 1159 0 
L 581 0 
L 581 3500 
L 1159 3500 
L 1159 2956 
Q 1356 3278 1631 3431 
Q 1906 3584 2284 3584 
Q 2666 3584 2933 3390 
Q 3200 3197 3328 2828 
z
" transform="scale(0.015625)"/>
      </defs>
      <use xlink:href="#DejaVuSans-64"/>
      <use xlink:href="#DejaVuSans-72" transform="translate(63.476562 0)"/>
      <use xlink:href="#DejaVuSans-69" transform="translate(104.589844 0)"/>
      <use xlink:href="#DejaVuSans-76" transform="translate(132.373047 0)"/>
      <use xlink:href="#DejaVuSans-65" transform="translate(191.552734 0)"/>
      <use xlink:href="#DejaVuSans-72" transform="translate(253.076172 0)"/>
      <use xlink:href="#DejaVuSans-20" transform="translate(294.189453 0)"/>
      <use xlink:href="#DejaVuSans-72" transform="translate(325.976562 0)"/>
      <use xlink:href="#DejaVuSans-65" transform="translate(364.839844 0)"/>
      <use xlink:href="#DejaVuSans-66" transform="translate(426.363281 0)"/>
      <use xlink:href="#DejaVuSans-65" transform="translate(461.568359 0)"/>
      <use xlink:href="#DejaVuSans-72" transform="translate(523.091797 0)"/>
      <use xlink:href="#DejaVuSans-65" transform="translate(561.955078 0)"/>
      <use xlink:href="#DejaVuSans-6e" transform="translate(623.478516 0)"/>
      <use xlink:href="#DejaVuSans-63" transform="translate(686.857422 0)"/>
      <use xlink:href="#DejaVuSans-65" transform="translate(741.837891 0)"/>
      <use xlink:href="#DejaVuSans-20" transform="translate(803.361328 0)"/>
      <use xlink:href="#DejaVuSans-28" transform="translate(835.148438 0)"/>
      <use xlink:href="#DejaVuSans-69" transform="translate(874.162109 0)"/>
      <use xlink:href="#DejaVuSans-5f" transform="translate(901.945312 0)"/>
      <use xlink:href="#DejaVuSans-53" transform="translate(951.945312 0)"/>
      <use xlink:href="#DejaVuSans-20" transform="translate(1015.421875 0)"/>
      <use xlink:href="#DejaVuSans-78" transform="translate(1047.208984 0)"/>
      <use xlink:href="#DejaVuSans-20" transform="translate(1106.388672 0)"/>
      <use xlink:href="#DejaVuSans-63" transform="translate(1138.175781 0)"/>
      <use xlink:href="#DejaVuSans-6f" transform="translate(1193.15625 0)"/>
      <use xlink:href="#DejaVuSans-6d" transform="translate(1254.337891 0)"/>
      <use xlink:href="#DejaVuSans-6d" transform="translate(1351.75 0)"/>
      <use xlink:href="#DejaVuSans-61" transform="translate(1449.162109 0)"/>
      <use xlink:href="#DejaVuSans-6e" transform="translate(1510.441406 0)"/>
      <use xlink:href="#DejaVuSans-64" transform="translate(1573.820312 0)"/>
      <use xlink:href="#DejaVuSans-29" transform="translate(1637.296875 0)"/>
     </g>
    </g>
   </g>
  </g>
  <g id="axes_2">
   <g id="patch_8">
    <path d="M 59.24 361.24 
L 637.2 361.24 
L 637.2 203.882727 
L 59.24 203.882727 
z
" style="fill: #ffffff"/>
   </g>
   <g id="matplotlib.axis_3">
    <g id="xtick_10">
     <g id="line2d_34">
      <path d="M 85.510909 361.24 
L 85.510909 203.882727 
" clip-path="url(#p486178f998)" style="fill: none; stroke: #b0b0b0; stroke-opacity: 0.3; stroke-width: 0.8; stroke-linecap: square"/>
     </g>
     <g id="line2d_35">
      <g>
       <use xlink:href="#m82177f2b77" x="85.510909" y="361.24" style="stroke: #000000; stroke-width: 0.8"/>
      </g>
     </g>
     <g id="text_10">
      <!-- 0 -->
      <g transform="translate(82.329659 375.838437) scale(0.1 -0.1)">
       <use xlink:href="#DejaVuSans-30"/>
      </g>
     </g>
    </g>
    <g id="xtick_11">
     <g id="line2d_36">
      <path d="M 151.188182 361.24 
L 151.188182 203.882727 
" clip-path="url(#p486178f998)" style="fill: none; stroke: #b0b0b0; stroke-opacity: 0.3; stroke-width: 0.8; stroke-linecap: square"/>
     </g>
     <g id="line2d_37">
      <g>
       <use xlink:href="#m82177f2b77" x="151.188182" y="361.24" style="stroke: #000000; stroke-width: 0.8"/>
      </g>
     </g>
     <g id="text_11">
      <!-- 1 -->
      <g transform="translate(148.006932 375.838437) scale(0.1 -0.1)">
       <use xlink:href="#DejaVuSans-31"/>
      </g>
     </g>
    </g>
    <g id="xtick_12">
     <g id="line2d_38">
      <path d="M 216.865455 361.24 
L 216.865455 203.882727 
" clip-path="url(#p486178f998)" style="fill: none; stroke: #b0b0b0; stroke-opacity: 0.3; stroke-width: 0.8; stroke-linecap: square"/>
     </g>
     <g id="line2d_39">
      <g>
       <use xlink:href="#m82177f2b77" x="216.865455" y="361.24" style="stroke: #000000; stroke-width: 0.8"/>
      </g>
     </g>
     <g id="text_12">
      <!-- 2 -->
      <g transform="translate(213.684205 375.838437) scale(0.1 -0.1)">
       <defs>
        <path id="DejaVuSans-32" d="M 1228 531 
L 3431 531 
L 3431 0 
L 469 0 
L 469 531 
Q 828 903 1448 1529 
Q 2069 2156 2228 2338 
Q 2531 2678 2651 2914 
Q 2772 3150 2772 3378 
Q 2772 3750 2511 3984 
Q 2250 4219 1831 4219 
Q 1534 4219 1204 4116 
Q 875 4013 500 3803 
L 500 4441 
Q 881 4594 1212 4672 
Q 1544 4750 1819 4750 
Q 2544 4750 2975 4387 
Q 3406 4025 3406 3419 
Q 3406 3131 3298 2873 
Q 3191 2616 2906 2266 
Q 2828 2175 2409 1742 
Q 1991 1309 1228 531 
z
" transform="scale(0.015625)"/>
       </defs>
       <use xlink:href="#DejaVuSans-32"/>
      </g>
     </g>
    </g>
    <g id="xtick_13">
     <g id="line2d_40">
      <path d="M 282.542727 361.24 
L 282.542727 203.882727 
" clip-path="url(#p486178f998)" style="fill: none; stroke: #b0b0b0; stroke-opacity: 0.3; stroke-width: 0.8; stroke-linecap: square"/>
     </g>
     <g id="line2d_41">
      <g>
       <use xlink:href="#m82177f2b77" x="282.542727" y="361.24" style="stroke: #000000; stroke-width: 0.8"/>
      </g>
     </g>
     <g id="text_13">
      <!-- 3 -->
      <g transform="translate(279.361477 375.838437) scale(0.1 -0.1)">
       <defs>
        <path id="DejaVuSans-33" d="M 2597 2516 
Q 3050 2419 3304 2112 
Q 3559 1806 3559 1356 
Q 3559 666 3084 287 
Q 2609 -91 1734 -91 
Q 1441 -91 1130 -33 
Q 819 25 488 141 
L 488 750 
Q 750 597 1062 519 
Q 1375 441 1716 441 
Q 2309 441 2620 675 
Q 2931 909 2931 1356 
Q 2931 1769 2642 2001 
Q 2353 2234 1838 2234 
L 1294 2234 
L 1294 2753 
L 1863 2753 
Q 2328 2753 2575 2939 
Q 2822 3125 2822 3475 
Q 2822 3834 2567 4026 
Q 2313 4219 1838 4219 
Q 1578 4219 1281 4162 
Q 984 4106 628 3988 
L 628 4550 
Q 988 4650 1302 4700 
Q 1616 4750 1894 4750 
Q 2613 4750 3031 4423 
Q 3450 4097 3450 3541 
Q 3450 3153 3228 2886 
Q 3006 2619 2597 2516 
z
" transform="scale(0.015625)"/>
       </defs>
       <use xlink:href="#DejaVuSans-33"/>
      </g>
     </g>
    </g>
    <g id="xtick_14">
     <g id="line2d_42">
      <path d="M 348.22 361.24 
L 348.22 203.882727 
" clip-path="url(#p486178f998)" style="fill: none; stroke: #b0b0b0; stroke-opacity: 0.3; stroke-width: 0.8; stroke-linecap: square"/>
     </g>
     <g id="line2d_43">
      <g>
       <use xlink:href="#m82177f2b77" x="348.22" y="361.24" style="stroke: #000000; stroke-width: 0.8"/>
      </g>
     </g>
     <g id="text_14">
      <!-- 4 -->
      <g transform="translate(345.03875 375.838437) scale(0.1 -0.1)">
       <defs>
        <path id="DejaVuSans-34" d="M 2419 4116 
L 825 1625 
L 2419 1625 
L 2419 4116 
z
M 2253 4666 
L 3047 4666 
L 3047 1625 
L 3713 1625 
L 3713 1100 
L 3047 1100 
L 3047 0 
L 2419 0 
L 2419 1100 
L 313 1100 
L 313 1709 
L 2253 4666 
z
" transform="scale(0.015625)"/>
       </defs>
       <use xlink:href="#DejaVuSans-34"/>
      </g>
     </g>
    </g>
    <g id="xtick_15">
     <g id="line2d_44">
      <path d="M 413.897273 361.24 
L 413.897273 203.882727 
" clip-path="url(#p486178f998)" style="fill: none; stroke: #b0b0b0; stroke-opacity: 0.3; stroke-width: 0.8; stroke-linecap: square"/>
     </g>
     <g id="line2d_45">
      <g>
       <use xlink:href="#m82177f2b77" x="413.897273" y="361.24" style="stroke: #000000; stroke-width: 0.8"/>
      </g>
     </g>
     <g id="text_15">
      <!-- 5 -->
      <g transform="translate(410.716023 375.838437) scale(0.1 -0.1)">
       <use xlink:href="#DejaVuSans-35"/>
      </g>
     </g>
    </g>
    <g id="xtick_16">
     <g id="line2d_46">
      <path d="M 479.574545 361.24 
L 479.574545 203.882727 
" clip-path="url(#p486178f998)" style="fill: none; stroke: #b0b0b0; stroke-opacity: 0.3; stroke-width: 0.8; stroke-linecap: square"/>
     </g>
     <g id="line2d_47">
      <g>
       <use xlink:href="#m82177f2b77" x="479.574545" y="361.24" style="stroke: #000000; stroke-width: 0.8"/>
      </g>
     </g>
     <g id="text_16">
      <!-- 6 -->
      <g transform="translate(476.393295 375.838437) scale(0.1 -0.1)">
       <defs>
        <path id="DejaVuSans-36" d="M 2113 2584 
Q 1688 2584 1439 2293 
Q 1191 2003 1191 1497 
Q 1191 994 1439 701 
Q 1688 409 2113 409 
Q 2538 409 2786 701 
Q 3034 994 3034 1497 
Q 3034 2003 2786 2293 
Q 2538 2584 2113 2584 
z
M 3366 4563 
L 3366 3988 
Q 3128 4100 2886 4159 
Q 2644 4219 2406 4219 
Q 1781 4219 1451 3797 
Q 1122 3375 1075 2522 
Q 1259 2794 1537 2939 
Q 1816 3084 2150 3084 
Q 2853 3084 3261 2657 
Q 3669 2231 3669 1497 
Q 3669 778 3244 343 
Q 2819 -91 2113 -91 
Q 1303 -91 875 529 
Q 447 1150 447 2328 
Q 447 3434 972 4092 
Q 1497 4750 2381 4750 
Q 2619 4750 2861 4703 
Q 3103 4656 3366 4563 
z
" transform="scale(0.015625)"/>
       </defs>
       <use xlink:href="#DejaVuSans-36"/>
      </g>
     </g>
    </g>
    <g id="xtick_17">
     <g id="line2d_48">
      <path d="M 545.251818 361.24 
L 545.251818 203.882727 
" clip-path="url(#p486178f998)" style="fill: none; stroke: #b0b0b0; stroke-opacity: 0.3; stroke-width: 0.8; stroke-linecap: square"/>
     </g>
     <g id="line2d_49">
      <g>
       <use xlink:href="#m82177f2b77" x="545.251818" y="361.24" style="stroke: #000000; stroke-width: 0.8"/>
      </g>
     </g>
     <g id="text_17">
      <!-- 7 -->
      <g transform="translate(542.070568 375.838437) scale(0.1 -0.1)">
       <defs>
        <path id="DejaVuSans-37" d="M 525 4666 
L 3525 4666 
L 3525 4397 
L 1831 0 
L 1172 0 
L 2766 4134 
L 525 4134 
L 525 4666 
z
" transform="scale(0.015625)"/>
       </defs>
       <use xlink:href="#DejaVuSans-37"/>
      </g>
     </g>
    </g>
    <g id="xtick_18">
     <g id="line2d_50">
      <path d="M 610.929091 361.24 
L 610.929091 203.882727 
" clip-path="url(#p486178f998)" style="fill: none; stroke: #b0b0b0; stroke-opacity: 0.3; stroke-width: 0.8; stroke-linecap: square"/>
     </g>
     <g id="line2d_51">
      <g>
       <use xlink:href="#m82177f2b77" x="610.929091" y="361.24" style="stroke: #000000; stroke-width: 0.8"/>
      </g>
     </g>
     <g id="text_18">
      <!-- 8 -->
      <g transform="translate(607.747841 375.838437) scale(0.1 -0.1)">
       <defs>
        <path id="DejaVuSans-38" d="M 2034 2216 
Q 1584 2216 1326 1975 
Q 1069 1734 1069 1313 
Q 1069 891 1326 650 
Q 1584 409 2034 409 
Q 2484 409 2743 651 
Q 3003 894 3003 1313 
Q 3003 1734 2745 1975 
Q 2488 2216 2034 2216 
z
M 1403 2484 
Q 997 2584 770 2862 
Q 544 3141 544 3541 
Q 544 4100 942 4425 
Q 1341 4750 2034 4750 
Q 2731 4750 3128 4425 
Q 3525 4100 3525 3541 
Q 3525 3141 3298 2862 
Q 3072 2584 2669 2484 
Q 3125 2378 3379 2068 
Q 3634 1759 3634 1313 
Q 3634 634 3220 271 
Q 2806 -91 2034 -91 
Q 1263 -91 848 271 
Q 434 634 434 1313 
Q 434 1759 690 2068 
Q 947 2378 1403 2484 
z
M 1172 3481 
Q 1172 3119 1398 2916 
Q 1625 2713 2034 2713 
Q 2441 2713 2670 2916 
Q 2900 3119 2900 3481 
Q 2900 3844 2670 4047 
Q 2441 4250 2034 4250 
Q 1625 4250 1398 4047 
Q 1172 3844 1172 3481 
z
" transform="scale(0.015625)"/>
       </defs>
       <use xlink:href="#DejaVuSans-38"/>
      </g>
     </g>
    </g>
    <g id="text_19">
     <!-- time [s] -->
     <g transform="translate(328.828594 389.516562) scale(0.1 -0.1)">
      <use xlink:href="#DejaVuSans-74"/>
      <use xlink:href="#DejaVuSans-69" transform="translate(39.208984 0)"/>
      <use xlink:href="#DejaVuSans-6d" transform="translate(66.992188 0)"/>
      <use xlink:href="#DejaVuSans-65" transform="translate(164.404297 0)"/>
      <use xlink:href="#DejaVuSans-20" transform="translate(225.927734 0)"/>
      <use xlink:href="#DejaVuSans-5b" transform="translate(257.714844 0)"/>
      <use xlink:href="#DejaVuSans-73" transform="translate(296.728516 0)"/>
      <use xlink:href="#DejaVuSans-5d" transform="translate(348.828125 0)"/>
     </g>
    </g>
   </g>
   <g id="matplotlib.axis_4">
    <g id="ytick_6">
     <g id="line2d_52">
      <path d="M 59.24 354.852983 
L 637.2 354.852983 
" clip-path="url(#p486178f998)" style="fill: none; stroke: #b0b0b0; stroke-opacity: 0.3; stroke-width: 0.8; stroke-linecap: square"/>
     </g>
     <g id="line2d_53">
      <g>
       <use xlink:href="#mee0c22c112" x="59.24" y="354.852983" style="stroke: #000000; stroke-width: 0.8"/>
      </g>
     </g>
     <g id="text_20">
      <!-- −10 -->
      <g transform="translate(31.135313 358.652202) scale(0.1 -0.1)">
       <use xlink:href="#DejaVuSans-2212"/>
       <use xlink:href="#DejaVuSans-31" transform="translate(83.789062 0)"/>
       <use xlink:href="#DejaVuSans-30" transform="translate(147.412109 0)"/>
      </g>
     </g>
    </g>
    <g id="ytick_7">
     <g id="line2d_54">
      <path d="M 59.24 319.344524 
L 637.2 319.344524 
" clip-path="url(#p486178f998)" style="fill: none; stroke: #b0b0b0; stroke-opacity: 0.3; stroke-width: 0.8; stroke-linecap: square"/>
     </g>
     <g id="line2d_55">
      <g>
       <use xlink:href="#mee0c22c112" x="59.24" y="319.344524" style="stroke: #000000; stroke-width: 0.8"/>
      </g>
     </g>
     <g id="text_21">
      <!-- −5 -->
      <g transform="translate(37.497813 323.143742) scale(0.1 -0.1)">
       <use xlink:href="#DejaVuSans-2212"/>
       <use xlink:href="#DejaVuSans-35" transform="translate(83.789062 0)"/>
      </g>
     </g>
    </g>
    <g id="ytick_8">
     <g id="line2d_56">
      <path d="M 59.24 283.836064 
L 637.2 283.836064 
" clip-path="url(#p486178f998)" style="fill: none; stroke: #b0b0b0; stroke-opacity: 0.3; stroke-width: 0.8; stroke-linecap: square"/>
     </g>
     <g id="line2d_57">
      <g>
       <use xlink:href="#mee0c22c112" x="59.24" y="283.836064" style="stroke: #000000; stroke-width: 0.8"/>
      </g>
     </g>
     <g id="text_22">
      <!-- 0 -->
      <g transform="translate(45.8775 287.635283) scale(0.1 -0.1)">
       <use xlink:href="#DejaVuSans-30"/>
      </g>
     </g>
    </g>
    <g id="ytick_9">
     <g id="line2d_58">
      <path d="M 59.24 248.327604 
L 637.2 248.327604 
" clip-path="url(#p486178f998)" style="fill: none; stroke: #b0b0b0; stroke-opacity: 0.3; stroke-width: 0.8; stroke-linecap: square"/>
     </g>
     <g id="line2d_59">
      <g>
       <use xlink:href="#mee0c22c112" x="59.24" y="248.327604" style="stroke: #000000; stroke-width: 0.8"/>
      </g>
     </g>
     <g id="text_23">
      <!-- 5 -->
      <g transform="translate(45.8775 252.126823) scale(0.1 -0.1)">
       <use xlink:href="#DejaVuSans-35"/>
      </g>
     </g>
    </g>
    <g id="ytick_10">
     <g id="line2d_60">
      <path d="M 59.24 212.819145 
L 637.2 212.819145 
" clip-path="url(#p486178f998)" style="fill: none; stroke: #b0b0b0; stroke-opacity: 0.3; stroke-width: 0.8; stroke-linecap: square"/>
     </g>
     <g id="line2d_61">
      <g>
       <use xlink:href="#mee0c22c112" x="59.24" y="212.819145" style="stroke: #000000; stroke-width: 0.8"/>
      </g>
     </g>
     <g id="text_24">
      <!-- 10 -->
      <g transform="translate(39.515 216.618364) scale(0.1 -0.1)">
       <use xlink:href="#DejaVuSans-31"/>
       <use xlink:href="#DejaVuSans-30" transform="translate(63.623047 0)"/>
      </g>
     </g>
    </g>
    <g id="text_25">
     <!-- handwheel torque [N.m] -->
     <g transform="translate(25.055625 343.623864) rotate(-90) scale(0.1 -0.1)">
      <defs>
       <path id="DejaVuSans-4e" d="M 628 4666 
L 1478 4666 
L 3547 763 
L 3547 4666 
L 4159 4666 
L 4159 0 
L 3309 0 
L 1241 3903 
L 1241 0 
L 628 0 
L 628 4666 
z
" transform="scale(0.015625)"/>
       <path id="DejaVuSans-2e" d="M 684 794 
L 1344 794 
L 1344 0 
L 684 0 
L 684 794 
z
" transform="scale(0.015625)"/>
      </defs>
      <use xlink:href="#DejaVuSans-68"/>
      <use xlink:href="#DejaVuSans-61" transform="translate(63.378906 0)"/>
      <use xlink:href="#DejaVuSans-6e" transform="translate(124.658203 0)"/>
      <use xlink:href="#DejaVuSans-64" transform="translate(188.037109 0)"/>
      <use xlink:href="#DejaVuSans-77" transform="translate(251.513672 0)"/>
      <use xlink:href="#DejaVuSans-68" transform="translate(333.300781 0)"/>
      <use xlink:href="#DejaVuSans-65" transform="translate(396.679688 0)"/>
      <use xlink:href="#DejaVuSans-65" transform="translate(458.203125 0)"/>
      <use xlink:href="#DejaVuSans-6c" transform="translate(519.726562 0)"/>
      <use xlink:href="#DejaVuSans-20" transform="translate(547.509766 0)"/>
      <use xlink:href="#DejaVuSans-74" transform="translate(579.296875 0)"/>
      <use xlink:href="#DejaVuSans-6f" transform="translate(618.505859 0)"/>
      <use xlink:href="#DejaVuSans-72" transform="translate(679.6875 0)"/>
      <use xlink:href="#DejaVuSans-71" transform="translate(719.050781 0)"/>
      <use xlink:href="#DejaVuSans-75" transform="translate(782.527344 0)"/>
      <use xlink:href="#DejaVuSans-65" transform="translate(845.90625 0)"/>
      <use xlink:href="#DejaVuSans-20" transform="translate(907.429688 0)"/>
      <use xlink:href="#DejaVuSans-5b" transform="translate(939.216797 0)"/>
      <use xlink:href="#DejaVuSans-4e" transform="translate(978.230469 0)"/>
      <use xlink:href="#DejaVuSans-2e" transform="translate(1053.035156 0)"/>
      <use xlink:href="#DejaVuSans-6d" transform="translate(1084.822266 0)"/>
      <use xlink:href="#DejaVuSans-5d" transform="translate(1182.234375 0)"/>
     </g>
    </g>
   </g>
   <g id="line2d_62">
    <path d="M 85.510909 283.836064 
L 94.311664 283.726127 
L 95.034114 283.348482 
L 95.887918 282.6477 
L 97.070109 281.366494 
L 98.580686 279.387273 
L 100.288295 276.772722 
L 101.995905 273.742548 
L 103.834868 269.999571 
L 106.002218 265.049109 
L 114.605941 244.80379 
L 117.233032 239.52022 
L 119.728768 234.988997 
L 121.961795 231.373402 
L 123.932114 228.578629 
L 125.771077 226.348646 
L 127.413009 224.691874 
L 128.989264 223.408972 
L 130.499841 222.462015 
L 131.944741 221.806987 
L 133.455318 221.369695 
L 134.965895 221.166002 
L 136.54215 221.178844 
L 138.249759 221.424688 
L 140.023045 221.907866 
L 141.927686 222.663009 
L 143.832327 223.654554 
L 145.736968 224.893701 
L 147.575932 226.356488 
L 149.283541 227.995393 
L 150.925473 229.885204 
L 152.43605 231.960885 
L 153.88095 234.319709 
L 155.260173 236.986759 
L 156.639395 240.141963 
L 158.018618 243.874152 
L 159.397841 248.273259 
L 160.777064 253.419747 
L 162.221964 259.674523 
L 163.798218 267.524674 
L 165.571505 277.551321 
L 167.410468 287.890995 
L 169.446464 297.967925 
L 171.876523 308.858231 
L 174.372259 319.055231 
L 176.342577 326.229092 
L 178.050186 331.62415 
L 179.626441 335.903463 
L 181.202695 339.546993 
L 182.713273 342.494844 
L 183.5014 343.702288 
L 184.289527 344.491544 
L 185.077655 344.964912 
L 185.931459 345.216376 
L 186.916618 345.269954 
L 188.230164 345.097376 
L 190.857255 344.455111 
L 193.221636 343.992943 
L 195.323309 343.814631 
L 201.628327 343.467556 
L 203.138905 343.03202 
L 204.518127 342.399146 
L 205.831673 341.552557 
L 207.145218 340.442561 
L 208.524441 338.973859 
L 209.969341 337.088881 
L 211.479918 334.735737 
L 213.12185 331.745925 
L 214.960814 327.902015 
L 217.062486 322.961341 
L 219.755255 316.018473 
L 227.176786 296.544453 
L 229.278459 291.804873 
L 231.117423 288.189363 
L 232.693677 285.550564 
L 234.0729 283.644938 
L 235.386445 282.174187 
L 236.634314 281.104567 
L 237.816505 280.367783 
L 238.998695 279.878644 
L 240.246564 279.604854 
L 241.560109 279.556352 
L 242.939332 279.737763 
L 244.449909 280.172212 
L 246.091841 280.879496 
L 248.062159 281.984883 
L 250.820605 283.827714 
L 255.812077 287.256471 
L 257.454009 288.399318 
L 258.176459 289.35033 
L 259.161618 291.044568 
L 260.606518 294.01492 
L 262.708191 298.878185 
L 265.072573 304.915235 
L 267.765341 312.452366 
L 272.428427 325.601264 
L 274.464423 330.597578 
L 276.369064 334.68198 
L 278.273705 338.24805 
L 280.375377 341.702381 
L 282.608405 344.938647 
L 284.775755 347.691456 
L 286.680395 349.766254 
L 288.388005 351.311834 
L 289.964259 352.445859 
L 291.409159 353.224812 
L 292.854059 353.751592 
L 294.233282 354.024231 
L 295.678182 354.080198 
L 297.123082 353.916951 
L 298.699336 353.509497 
L 300.341268 352.85341 
L 302.114555 351.902838 
L 304.019195 350.622509 
L 305.989514 349.027527 
L 308.025509 347.088493 
L 309.995827 344.907579 
L 311.834791 342.550109 
L 313.476723 340.09671 
L 314.921623 337.546723 
L 316.169491 334.910861 
L 317.351682 331.87445 
L 318.402518 328.557296 
L 319.387677 324.734315 
L 320.372836 320.016329 
L 321.357995 314.177506 
L 322.343155 306.986254 
L 323.393991 297.593577 
L 326.086759 271.920898 
L 327.465982 262.103791 
L 329.239268 251.144538 
L 331.669327 237.533814 
L 332.982873 231.4748 
L 334.427773 225.856477 
L 335.675641 221.862701 
L 336.792155 218.984561 
L 337.842991 216.837688 
L 338.893827 215.171007 
L 339.944664 213.908298 
L 341.061177 212.922813 
L 342.243368 212.187364 
L 343.556914 211.642986 
L 345.067491 211.26694 
L 346.840777 211.062894 
L 348.811095 211.061522 
L 350.912768 211.287445 
L 353.014441 211.739837 
L 355.181791 212.43795 
L 357.414818 213.393632 
L 359.713523 214.624772 
L 361.880873 216.035245 
L 363.851191 217.575451 
L 365.624477 219.241449 
L 367.200732 221.02795 
L 368.645632 223.01167 
L 369.959177 225.199711 
L 371.207045 227.719688 
L 372.389236 230.605377 
L 373.571427 234.079869 
L 374.753618 238.24266 
L 376.001486 243.472236 
L 377.315032 249.952899 
L 378.825609 258.585826 
L 383.160309 284.364274 
L 384.867918 292.136361 
L 386.641205 299.21319 
L 388.151782 304.426552 
L 389.333973 307.787534 
L 390.384809 310.141744 
L 391.304291 311.700525 
L 392.158095 312.744839 
L 392.946223 313.387322 
L 393.73435 313.747192 
L 394.522477 313.851988 
L 395.310605 313.729661 
L 396.164409 313.372164 
L 397.149568 312.709539 
L 398.331759 311.619092 
L 399.710982 310.018323 
L 401.352914 307.75078 
L 403.323232 304.624222 
L 405.556259 300.646255 
L 408.051995 295.728505 
L 410.876118 289.653521 
L 416.1303 278.198302 
L 417.903586 275.004601 
L 419.479841 272.598605 
L 420.924741 270.78786 
L 422.238286 269.477285 
L 423.551832 268.477507 
L 424.7997 267.80159 
L 426.047568 267.37721 
L 427.295436 267.189203 
L 428.543305 267.222572 
L 429.85685 267.4799 
L 431.236073 267.974197 
L 432.812327 268.787045 
L 434.585614 269.962528 
L 436.818641 271.723257 
L 446.079136 279.341492 
L 448.706227 281.030013 
L 451.333318 282.450047 
L 454.026086 283.64913 
L 456.521823 284.525531 
L 459.083236 285.227099 
L 461.578973 285.685056 
L 464.074709 285.920843 
L 466.636123 285.93906 
L 469.394568 285.729484 
L 472.612755 285.251854 
L 483.777891 283.385066 
L 487.521495 283.123323 
L 492.381614 283.034014 
L 503.940814 283.128404 
L 511.559377 283.370158 
L 525.023218 283.874779 
L 534.086682 283.873815 
L 550.243291 283.843932 
L 610.929091 283.838995 
L 610.929091 283.838995 
" clip-path="url(#p486178f998)" style="fill: none; stroke: #d62728; stroke-width: 1.4; stroke-linecap: square"/>
   </g>
   <g id="line2d_63">
    <path d="M 59.24 283.836064 
L 637.2 283.836064 
" clip-path="url(#p486178f998)" style="fill: none; stroke: #000000; stroke-width: 0.4; stroke-linecap: square"/>
   </g>
   <g id="patch_9">
    <path d="M 59.24 361.24 
L 59.24 203.882727 
" style="fill: none; stroke: #000000; stroke-width: 0.8; stroke-linejoin: miter; stroke-linecap: square"/>
   </g>
   <g id="patch_10">
    <path d="M 637.2 361.24 
L 637.2 203.882727 
" style="fill: none; stroke: #000000; stroke-width: 0.8; stroke-linejoin: miter; stroke-linecap: square"/>
   </g>
   <g id="patch_11">
    <path d="M 59.24 361.24 
L 637.2 361.24 
" style="fill: none; stroke: #000000; stroke-width: 0.8; stroke-linejoin: miter; stroke-linecap: square"/>
   </g>
   <g id="patch_12">
    <path d="M 59.24 203.882727 
L 637.2 203.882727 
" style="fill: none; stroke: #000000; stroke-width: 0.8; stroke-linejoin: miter; stroke-linecap: square"/>
   </g>
   <g id="text_26">
    <!-- +10.3 N.m -->
    <g transform="translate(355.825936 205.035331) scale(0.08 -0.08)">
     <defs>
      <path id="DejaVuSans-2b" d="M 2944 4013 
L 2944 2272 
L 4684 2272 
L 4684 1741 
L 2944 1741 
L 2944 0 
L 2419 0 
L 2419 1741 
L 678 1741 
L 678 2272 
L 2419 2272 
L 2419 4013 
L 2944 4013 
z
" transform="scale(0.015625)"/>
     </defs>
     <use xlink:href="#DejaVuSans-2b"/>
     <use xlink:href="#DejaVuSans-31" transform="translate(83.789062 0)"/>
     <use xlink:href="#DejaVuSans-30" transform="translate(147.412109 0)"/>
     <use xlink:href="#DejaVuSans-2e" transform="translate(211.035156 0)"/>
     <use xlink:href="#DejaVuSans-33" transform="translate(242.822266 0)"/>
     <use xlink:href="#DejaVuSans-20" transform="translate(306.445312 0)"/>
     <use xlink:href="#DejaVuSans-4e" transform="translate(338.232422 0)"/>
     <use xlink:href="#DejaVuSans-2e" transform="translate(413.037109 0)"/>
     <use xlink:href="#DejaVuSans-6d" transform="translate(444.824219 0)"/>
    </g>
   </g>
  </g>
 </g>
 <defs>
  <clipPath id="p894b40b552">
   <rect x="59.24" y="26.88" width="577.96" height="157.357273"/>
  </clipPath>
  <clipPath id="p486178f998">
   <rect x="59.24" y="203.882727" width="577.96" height="157.357273"/>
  </clipPath>
 </defs>
</svg>
