<?xml version="1.0" encoding="utf-8" standalone="no"?>
<!DOCTYPE svg PUBLIC "-//W3C//DTD SVG 1.1//EN"
  "http://www.w3.org/Graphics/SVG/1.1/DTD/svg11.dtd">
<svg xmlns:xlink="http://www.w3.org/1999/xlink" width="756pt" height="302.4pt" viewBox="0 0 756 302.4" xmlns="http://www.w3.org/2000/svg" version="1.1">
 <metadata>
  <rdf:RDF xmlns:dc="http://purl.org/dc/elements/1.1/" xmlns:cc="http://creativecommons.org/ns#" xmlns:rdf="http://www.w3.org/1999/02/22-rdf-syntax-ns#">
   <cc:Work>
    <dc:type rdf:resource="http://purl.org/dc/dcmitype/StillImage"/>
    <dc:date>2026-07-03T09:28:38.879905</dc:date>
    <dc:format>image/svg+xml</dc:format>
    <dc:creator>
     <cc:Agent>
      <dc:title>Matplotlib v3.10.8, https://matplotlib.org/</dc:title>
     </cc:Agent>
    </dc:creator>
   </cc:Work>
  </rdf:RDF>
 </metadata>
 <defs>
  <style type="text/css">*{stroke-linejoin: round; stroke-linecap: butt}</style>
 </defs>
 <g id="figure_1">
  <g id="patch_1">
   <path d="M 0 302.4 
L 756 302.4 
L 756 0 
L 0 0 
z
" style="fill: #ffffff"/>
  </g>
  <g id="axes_1">
   <g id="line2d_1">
    <path d="M 196.972059 150.691765 
L 206.757353 150.691765 
" clip-path="url(#p60f2ea588b)" style="fill: none; stroke: #1a3380; stroke-width: 1.6; stroke-linecap: square"/>
   </g>
   <g id="line2d_2">
    <path d="M 285.039706 150.691765 
L 294.825 150.691765 
" clip-path="url(#p60f2ea588b)" style="fill: none; stroke: #1a3380; stroke-width: 1.6; stroke-linecap: square"/>
   </g>
   <g id="line2d_3">
    <path d="M 373.107353 150.691765 
L 382.892647 150.691765 
" clip-path="url(#p60f2ea588b)" style="fill: none; stroke: #1a3380; stroke-width: 1.6; stroke-linecap: square"/>
   </g>
   <g id="line2d_4">
    <path d="M 461.175 150.691765 
L 470.960294 150.691765 
" clip-path="url(#p60f2ea588b)" style="fill: none; stroke: #1a3380; stroke-width: 1.6; stroke-linecap: square"/>
   </g>
   <g id="line2d_5">
    <path d="M 549.242647 150.691765 
L 559.027941 150.691765 
" clip-path="url(#p60f2ea588b)" style="fill: none; stroke: #1a3380; stroke-width: 1.6; stroke-linecap: square"/>
   </g>
   <g id="line2d_6">
    <path d="M 598.169118 189.832941 
L 598.169118 240.716471 
L 157.830882 240.716471 
L 157.830882 189.832941 
" clip-path="url(#p60f2ea588b)" style="fill: none; stroke: #00008c; stroke-width: 1.6; stroke-linecap: square"/>
   </g>
   <g id="patch_2">
    <path d="M 118.689706 111.550588 
L 196.972059 111.550588 
L 196.972059 189.832941 
L 118.689706 189.832941 
z
" clip-path="url(#p60f2ea588b)" style="fill: #f5f5eb; stroke: #000000; stroke-width: 0.7; stroke-linejoin: miter"/>
   </g>
   <g id="line2d_7">
    <path d="M 122.603824 166.348235 
L 142.174412 166.348235 
L 153.916765 135.035294 
L 173.487353 135.035294 
L 185.229706 166.348235 
L 193.057941 166.348235 
" clip-path="url(#p60f2ea588b)" style="fill: none; stroke: #0000ff; stroke-width: 0.9; stroke-linecap: round"/>
   </g>
   <g id="patch_3">
    <path d="M 122.603824 160.085647 
L 134.346176 160.085647 
L 134.346176 162.434118 
L 122.603824 162.434118 
L 122.603824 160.085647 
z
" clip-path="url(#p60f2ea588b)" style="fill: none; stroke: #808080; stroke-width: 0.7; stroke-linejoin: miter"/>
   </g>
   <g id="patch_4">
    <path d="M 148.437 128.772706 
L 167.224765 128.772706 
L 167.224765 131.121176 
L 148.437 131.121176 
L 148.437 128.772706 
z
" clip-path="url(#p60f2ea588b)" style="fill: none; stroke: #808080; stroke-width: 0.7; stroke-linejoin: miter"/>
   </g>
   <g id="patch_5">
    <path d="M 181.315588 160.085647 
L 193.057941 160.085647 
L 193.057941 162.434118 
L 181.315588 162.434118 
L 181.315588 160.085647 
z
" clip-path="url(#p60f2ea588b)" style="fill: none; stroke: #808080; stroke-width: 0.7; stroke-linejoin: miter"/>
   </g>
   <g id="patch_6">
    <path d="M 206.757353 189.832941 
L 206.757353 111.550588 
L 285.039706 150.691765 
z
" clip-path="url(#p60f2ea588b)" style="fill: #ffffff; stroke: #00007f; stroke-width: 0.7; stroke-linejoin: miter"/>
   </g>
   <g id="line2d_8">
    <path d="M 314.395588 197.661176 
L 322.223824 189.832941 
" clip-path="url(#p60f2ea588b)" style="fill: none; stroke: #000000; stroke-width: 0.9; stroke-linecap: round"/>
   </g>
   <g id="line2d_9">
    <path d="M 322.223824 197.661176 
L 330.052059 189.832941 
" clip-path="url(#p60f2ea588b)" style="fill: none; stroke: #000000; stroke-width: 0.9; stroke-linecap: round"/>
   </g>
   <g id="line2d_10">
    <path d="M 330.052059 197.661176 
L 337.880294 189.832941 
" clip-path="url(#p60f2ea588b)" style="fill: none; stroke: #000000; stroke-width: 0.9; stroke-linecap: round"/>
   </g>
   <g id="line2d_11">
    <path d="M 337.880294 197.661176 
L 345.708529 189.832941 
" clip-path="url(#p60f2ea588b)" style="fill: none; stroke: #000000; stroke-width: 0.9; stroke-linecap: round"/>
   </g>
   <g id="line2d_12">
    <path d="M 322.223824 189.832941 
L 345.708529 189.832941 
" clip-path="url(#p60f2ea588b)" style="fill: none; stroke: #000000; stroke-width: 0.9; stroke-linecap: round"/>
   </g>
   <g id="patch_7">
    <path d="M 294.825 158.52 
L 373.107353 158.52 
L 373.107353 142.863529 
L 294.825 142.863529 
z
" clip-path="url(#p60f2ea588b)" style="fill: #c0c0c0; stroke: #404040; stroke-width: 0.7; stroke-linejoin: miter"/>
   </g>
   <g id="line2d_13">
    <path d="M 322.223824 163.216941 
L 345.708529 163.216941 
" clip-path="url(#p60f2ea588b)" style="fill: none; stroke: #000000; stroke-width: 0.9; stroke-linecap: round"/>
   </g>
   <g id="line2d_14">
    <path d="M 333.966176 130.338353 
L 333.966176 138.166588 
" clip-path="url(#p60f2ea588b)" style="fill: none; stroke: #000000; stroke-width: 0.9; stroke-linecap: round"/>
   </g>
   <g id="line2d_15">
    <path d="M 322.615235 138.166588 
L 345.708529 138.166588 
" clip-path="url(#p60f2ea588b)" style="fill: none; stroke: #000000; stroke-width: 0.9; stroke-linecap: round"/>
   </g>
   <g id="line2d_16">
    <path d="M 333.966176 163.216941 
L 333.966176 189.832941 
" clip-path="url(#p60f2ea588b)" style="fill: none; stroke: #000000; stroke-width: 0.9; stroke-linecap: round"/>
   </g>
   <g id="patch_8">
    <path d="M 422.033824 178.090588 
C 429.300076 178.090588 436.269701 175.203675 441.407717 170.065659 
C 446.545734 164.927642 449.432647 157.958018 449.432647 150.691765 
C 449.432647 143.425512 446.545734 136.455888 441.407717 131.317871 
C 436.269701 126.179854 429.300076 123.292941 422.033824 123.292941 
C 414.767571 123.292941 407.797946 126.179854 402.65993 131.317871 
C 397.521913 136.455888 394.635 143.425512 394.635 150.691765 
C 394.635 157.958018 397.521913 164.927642 402.65993 170.065659 
C 407.797946 175.203675 414.767571 178.090588 422.033824 178.090588 
z
" clip-path="url(#p60f2ea588b)" style="fill: #f5f5f5; stroke: #000000; stroke-width: 0.7; stroke-linejoin: miter"/>
   </g>
   <g id="line2d_17">
    <path d="M 422.033824 123.292941 
L 422.033824 135.035294 
" clip-path="url(#p60f2ea588b)" style="fill: none; stroke: #000000; stroke-width: 0.9; stroke-linecap: round"/>
   </g>
   <g id="line2d_18">
    <path d="M 430.997153 137.853459 
L 437.768576 128.263871 
" clip-path="url(#p60f2ea588b)" style="fill: none; stroke: #000000; stroke-width: 0.9; stroke-linecap: round"/>
   </g>
   <g id="line2d_19">
    <path d="M 413.070494 137.853459 
L 406.299071 128.263871 
" clip-path="url(#p60f2ea588b)" style="fill: none; stroke: #000000; stroke-width: 0.9; stroke-linecap: round"/>
   </g>
   <g id="line2d_20">
    <path d="M 436.750906 145.329424 
L 447.788718 141.337024 
" clip-path="url(#p60f2ea588b)" style="fill: none; stroke: #000000; stroke-width: 0.9; stroke-linecap: round"/>
   </g>
   <g id="line2d_21">
    <path d="M 407.316741 145.329424 
L 396.278929 141.337024 
" clip-path="url(#p60f2ea588b)" style="fill: none; stroke: #000000; stroke-width: 0.9; stroke-linecap: round"/>
   </g>
   <g id="patch_9">
    <path d="M 422.033824 155.388706 
C 423.279467 155.388706 424.47426 154.893807 425.355062 154.013004 
C 426.235865 153.132201 426.730765 151.937408 426.730765 150.691765 
C 426.730765 149.446121 426.235865 148.251329 425.355062 147.370526 
C 424.47426 146.489723 423.279467 145.994824 422.033824 145.994824 
C 420.78818 145.994824 419.593387 146.489723 418.712585 147.370526 
C 417.831782 148.251329 417.336882 149.446121 417.336882 150.691765 
C 417.336882 151.937408 417.831782 153.132201 418.712585 154.013004 
C 419.593387 154.893807 420.78818 155.388706 422.033824 155.388706 
L 422.033824 155.388706 
z
" clip-path="url(#p60f2ea588b)" style="fill: none; stroke: #404040; stroke-width: 0.7; stroke-linejoin: miter"/>
   </g>
   <g id="patch_10">
    <path d="M 420.076765 150.691765 
L 421.251 127.207059 
L 422.033824 125.25 
L 422.816647 127.207059 
L 423.990882 150.691765 
z
" clip-path="url(#p60f2ea588b)" style="fill: #404040; stroke: #000000; stroke-width: 0.7; stroke-linejoin: miter"/>
   </g>
   <g id="patch_11">
    <path d="M 422.033824 153.431647 
C 422.760449 153.431647 423.457411 153.142956 423.971213 152.629154 
C 424.485015 152.115352 424.773706 151.41839 424.773706 150.691765 
C 424.773706 149.965139 424.485015 149.268177 423.971213 148.754375 
C 423.457411 148.240574 422.760449 147.951882 422.033824 147.951882 
C 421.307198 147.951882 420.610236 148.240574 420.096434 148.754375 
C 419.582632 149.268177 419.293941 149.965139 419.293941 150.691765 
C 419.293941 151.41839 419.582632 152.115352 420.096434 152.629154 
C 420.610236 153.142956 421.307198 153.431647 422.033824 153.431647 
z
" clip-path="url(#p60f2ea588b)" style="fill: #404040; stroke: #000000; stroke-width: 0.7; stroke-linejoin: miter"/>
   </g>
   <g id="line2d_22">
    <path d="M 394.635 150.691765 
L 386.806765 150.691765 
" clip-path="url(#p60f2ea588b)" style="fill: none; stroke: #000000; stroke-width: 0.9; stroke-linecap: round"/>
   </g>
   <g id="line2d_23">
    <path d="M 449.432647 150.691765 
L 457.260882 150.691765 
" clip-path="url(#p60f2ea588b)" style="fill: none; stroke: #000000; stroke-width: 0.9; stroke-linecap: round"/>
   </g>
   <g id="line2d_24">
    <path d="M 390.720882 189.832941 
L 390.720882 150.691765 
" clip-path="url(#p60f2ea588b)" style="fill: none; stroke: #00007f; stroke-width: 0.9; stroke-linecap: round"/>
   </g>
   <g id="patch_12">
    <path d="M 486.616765 162.434118 
C 489.730873 162.434118 492.717855 161.196869 494.919862 158.994862 
C 497.121869 156.792855 498.359118 153.805873 498.359118 150.691765 
C 498.359118 147.577656 497.121869 144.590674 494.919862 142.388667 
C 492.717855 140.18666 489.730873 138.949412 486.616765 138.949412 
C 483.502656 138.949412 480.515674 140.18666 478.313667 142.388667 
C 476.11166 144.590674 474.874412 147.577656 474.874412 150.691765 
C 474.874412 153.805873 476.11166 156.792855 478.313667 158.994862 
C 480.515674 161.196869 483.502656 162.434118 486.616765 162.434118 
L 486.616765 162.434118 
z
" clip-path="url(#p60f2ea588b)" style="fill: none; stroke: #000000; stroke-width: 0.7; stroke-linejoin: miter"/>
   </g>
   <g id="patch_13">
    <path d="M 486.616765 153.040235 
C 487.239586 153.040235 487.836983 152.792786 488.277384 152.352384 
C 488.717786 151.911983 488.965235 151.314586 488.965235 150.691765 
C 488.965235 150.068943 488.717786 149.471547 488.277384 149.031145 
C 487.836983 148.590744 487.239586 148.343294 486.616765 148.343294 
C 485.993943 148.343294 485.396547 148.590744 484.956145 149.031145 
C 484.515744 149.471547 484.268294 150.068943 484.268294 150.691765 
C 484.268294 151.314586 484.515744 151.911983 484.956145 152.352384 
C 485.396547 152.792786 485.993943 153.040235 486.616765 153.040235 
z
" clip-path="url(#p60f2ea588b)" style="fill: #404040; stroke: #000000; stroke-width: 0.7; stroke-linejoin: miter"/>
   </g>
   <g id="patch_14">
    <path d="M 498.359118 148.343294 
L 545.328529 148.343294 
L 545.328529 153.040235 
L 498.359118 153.040235 
z
" clip-path="url(#p60f2ea588b)" style="fill: #c0c0c0; stroke: #404040; stroke-width: 0.7; stroke-linejoin: miter"/>
   </g>
   <g id="patch_15">
    <path d="M 574.684412 119.378824 
L 621.653824 119.378824 
L 621.653824 182.004706 
L 574.684412 182.004706 
z
" clip-path="url(#p60f2ea588b)" style="fill: #ebebf5; stroke: #000000; stroke-width: 0.7; stroke-linejoin: miter"/>
   </g>
   <g id="patch_16">
    <path d="M 575.467235 122.510118 
L 586.426765 122.510118 
L 586.426765 133.469647 
L 575.467235 133.469647 
z
" clip-path="url(#p60f2ea588b)" style="fill: #404040; stroke: #000000; stroke-width: 0.7; stroke-linejoin: miter"/>
   </g>
   <g id="patch_17">
    <path d="M 609.911471 122.510118 
L 620.871 122.510118 
L 620.871 133.469647 
L 609.911471 133.469647 
z
" clip-path="url(#p60f2ea588b)" style="fill: #404040; stroke: #000000; stroke-width: 0.7; stroke-linejoin: miter"/>
   </g>
   <g id="patch_18">
    <path d="M 592.689353 180.439059 
L 603.648882 180.439059 
L 603.648882 169.479529 
L 592.689353 169.479529 
z
" clip-path="url(#p60f2ea588b)" style="fill: #404040; stroke: #000000; stroke-width: 0.7; stroke-linejoin: miter"/>
   </g>
   <g id="text_1">
    <!-- vehicle states  $X,\ Y,\ \psi,\ v_y,\ r$ -->
    <g style="fill: #00008c" transform="translate(324.3 252.287647) scale(0.075 -0.075)">
     <defs>
      <path id="DejaVuSans-76" d="M 191 3500 
L 800 3500 
L 1894 563 
L 2988 3500 
L 3597 3500 
L 2284 0 
L 1503 0 
L 191 3500 
z
" transform="scale(0.015625)"/>
      <path id="DejaVuSans-65" d="M 3597 1894 
L 3597 1613 
L 953 1613 
Q 991 1019 1311 708 
Q 1631 397 2203 397 
Q 2534 397 2845 478 
Q 3156 559 3463 722 
L 3463 178 
Q 3153 47 2828 -22 
Q 2503 -91 2169 -91 
Q 1331 -91 842 396 
Q 353 884 353 1716 
Q 353 2575 817 3079 
Q 1281 3584 2069 3584 
Q 2775 3584 3186 3129 
Q 3597 2675 3597 1894 
z
M 3022 2063 
Q 3016 2534 2758 2815 
Q 2500 3097 2075 3097 
Q 1594 3097 1305 2825 
Q 1016 2553 972 2059 
L 3022 2063 
z
" transform="scale(0.015625)"/>
      <path id="DejaVuSans-68" d="M 3513 2113 
L 3513 0 
L 2938 0 
L 2938 2094 
Q 2938 2591 2744 2837 
Q 2550 3084 2163 3084 
Q 1697 3084 1428 2787 
Q 1159 2491 1159 1978 
L 1159 0 
L 581 0 
L 581 4863 
L 1159 4863 
L 1159 2956 
Q 1366 3272 1645 3428 
Q 1925 3584 2291 3584 
Q 2894 3584 3203 3211 
Q 3513 2838 3513 2113 
z
" transform="scale(0.015625)"/>
      <path id="DejaVuSans-69" d="M 603 3500 
L 1178 3500 
L 1178 0 
L 603 0 
L 603 3500 
z
M 603 4863 
L 1178 4863 
L 1178 4134 
L 603 4134 
L 603 4863 
z
" transform="scale(0.015625)"/>
      <path id="DejaVuSans-63" d="M 3122 3366 
L 3122 2828 
Q 2878 2963 2633 3030 
Q 2388 3097 2138 3097 
Q 1578 3097 1268 2742 
Q 959 2388 959 1747 
Q 959 1106 1268 751 
Q 1578 397 2138 397 
Q 2388 397 2633 464 
Q 2878 531 3122 666 
L 3122 134 
Q 2881 22 2623 -34 
Q 2366 -91 2075 -91 
Q 1284 -91 818 406 
Q 353 903 353 1747 
Q 353 2603 823 3093 
Q 1294 3584 2113 3584 
Q 2378 3584 2631 3529 
Q 2884 3475 3122 3366 
z
" transform="scale(0.015625)"/>
      <path id="DejaVuSans-6c" d="M 603 4863 
L 1178 4863 
L 1178 0 
L 603 0 
L 603 4863 
z
" transform="scale(0.015625)"/>
      <path id="DejaVuSans-20" transform="scale(0.015625)"/>
      <path id="DejaVuSans-73" d="M 2834 3397 
L 2834 2853 
Q 2591 2978 2328 3040 
Q 2066 3103 1784 3103 
Q 1356 3103 1142 2972 
Q 928 2841 928 2578 
Q 928 2378 1081 2264 
Q 1234 2150 1697 2047 
L 1894 2003 
Q 2506 1872 2764 1633 
Q 3022 1394 3022 966 
Q 3022 478 2636 193 
Q 2250 -91 1575 -91 
Q 1294 -91 989 -36 
Q 684 19 347 128 
L 347 722 
Q 666 556 975 473 
Q 1284 391 1588 391 
Q 1994 391 2212 530 
Q 2431 669 2431 922 
Q 2431 1156 2273 1281 
Q 2116 1406 1581 1522 
L 1381 1569 
Q 847 1681 609 1914 
Q 372 2147 372 2553 
Q 372 3047 722 3315 
Q 1072 3584 1716 3584 
Q 2034 3584 2315 3537 
Q 2597 3491 2834 3397 
z
" transform="scale(0.015625)"/>
      <path id="DejaVuSans-74" d="M 1172 4494 
L 1172 3500 
L 2356 3500 
L 2356 3053 
L 1172 3053 
L 1172 1153 
Q 1172 725 1289 603 
Q 1406 481 1766 481 
L 2356 481 
L 2356 0 
L 1766 0 
Q 1100 0 847 248 
Q 594 497 594 1153 
L 594 3053 
L 172 3053 
L 172 3500 
L 594 3500 
L 594 4494 
L 1172 4494 
z
" transform="scale(0.015625)"/>
      <path id="DejaVuSans-61" d="M 2194 1759 
Q 1497 1759 1228 1600 
Q 959 1441 959 1056 
Q 959 750 1161 570 
Q 1363 391 1709 391 
Q 2188 391 2477 730 
Q 2766 1069 2766 1631 
L 2766 1759 
L 2194 1759 
z
M 3341 1997 
L 3341 0 
L 2766 0 
L 2766 531 
Q 2569 213 2275 61 
Q 1981 -91 1556 -91 
Q 1019 -91 701 211 
Q 384 513 384 1019 
Q 384 1609 779 1909 
Q 1175 2209 1959 2209 
L 2766 2209 
L 2766 2266 
Q 2766 2663 2505 2880 
Q 2244 3097 1772 3097 
Q 1472 3097 1187 3025 
Q 903 2953 641 2809 
L 641 3341 
Q 956 3463 1253 3523 
Q 1550 3584 1831 3584 
Q 2591 3584 2966 3190 
Q 3341 2797 3341 1997 
z
" transform="scale(0.015625)"/>
      <path id="DejaVuSans-Oblique-58" d="M 878 4666 
L 1516 4666 
L 2316 2981 
L 3763 4666 
L 4500 4666 
L 2578 2438 
L 3738 0 
L 3103 0 
L 2163 1966 
L 459 0 
L -275 0 
L 1906 2509 
L 878 4666 
z
" transform="scale(0.015625)"/>
      <path id="DejaVuSans-2c" d="M 750 794 
L 1409 794 
L 1409 256 
L 897 -744 
L 494 -744 
L 750 256 
L 750 794 
z
" transform="scale(0.015625)"/>
      <path id="DejaVuSans-Oblique-59" d="M 403 4666 
L 1081 4666 
L 1953 2747 
L 3616 4666 
L 4325 4666 
L 2209 2222 
L 1778 0 
L 1147 0 
L 1575 2222 
L 403 4666 
z
" transform="scale(0.015625)"/>
      <path id="DejaVuSans-Oblique-3c8" d="M 1591 -78 
Q 891 38 616 341 
Q 278 713 425 1472 
L 819 3500 
L 1400 3500 
L 1009 1494 
Q 900 922 1119 684 
Q 1313 478 1691 434 
L 2284 3500 
L 2856 3500 
L 2263 438 
Q 2681 481 2928 688 
Q 3247 950 3353 1497 
L 3741 3500 
L 4322 3500 
L 3928 1475 
Q 3775 688 3300 344 
Q 2872 34 2163 -75 
L 1919 -1331 
L 1347 -1331 
L 1591 -78 
z
" transform="scale(0.015625)"/>
      <path id="DejaVuSans-Oblique-76" d="M 459 3500 
L 1069 3500 
L 1581 525 
L 3256 3500 
L 3866 3500 
L 1875 0 
L 1100 0 
L 459 3500 
z
" transform="scale(0.015625)"/>
      <path id="DejaVuSans-Oblique-79" d="M 1588 -325 
Q 1188 -997 936 -1164 
Q 684 -1331 294 -1331 
L -159 -1331 
L -63 -850 
L 269 -850 
Q 509 -850 678 -719 
Q 847 -588 1056 -206 
L 1234 128 
L 459 3500 
L 1069 3500 
L 1650 819 
L 3256 3500 
L 3859 3500 
L 1588 -325 
z
" transform="scale(0.015625)"/>
      <path id="DejaVuSans-Oblique-72" d="M 2853 2969 
Q 2766 3016 2653 3041 
Q 2541 3066 2413 3066 
Q 1953 3066 1609 2717 
Q 1266 2369 1153 1784 
L 800 0 
L 225 0 
L 909 3500 
L 1484 3500 
L 1375 2956 
Q 1603 3259 1920 3421 
Q 2238 3584 2597 3584 
Q 2691 3584 2781 3573 
Q 2872 3563 2963 3538 
L 2853 2969 
z
" transform="scale(0.015625)"/>
     </defs>
     <use xlink:href="#DejaVuSans-76" transform="translate(0 0.015625)"/>
     <use xlink:href="#DejaVuSans-65" transform="translate(59.179688 0.015625)"/>
     <use xlink:href="#DejaVuSans-68" transform="translate(120.703125 0.015625)"/>
     <use xlink:href="#DejaVuSans-69" transform="translate(184.082031 0.015625)"/>
     <use xlink:href="#DejaVuSans-63" transform="translate(211.865234 0.015625)"/>
     <use xlink:href="#DejaVuSans-6c" transform="translate(266.845703 0.015625)"/>
     <use xlink:href="#DejaVuSans-65" transform="translate(294.628906 0.015625)"/>
     <use xlink:href="#DejaVuSans-20" transform="translate(356.152344 0.015625)"/>
     <use xlink:href="#DejaVuSans-73" transform="translate(387.939453 0.015625)"/>
     <use xlink:href="#DejaVuSans-74" transform="translate(440.039062 0.015625)"/>
     <use xlink:href="#DejaVuSans-61" transform="translate(479.248047 0.015625)"/>
     <use xlink:href="#DejaVuSans-74" transform="translate(540.527344 0.015625)"/>
     <use xlink:href="#DejaVuSans-65" transform="translate(579.736328 0.015625)"/>
     <use xlink:href="#DejaVuSans-73" transform="translate(641.259766 0.015625)"/>
     <use xlink:href="#DejaVuSans-20" transform="translate(693.359375 0.015625)"/>
     <use xlink:href="#DejaVuSans-20" transform="translate(725.146484 0.015625)"/>
     <use xlink:href="#DejaVuSans-Oblique-58" transform="translate(756.933594 0.015625)"/>
     <use xlink:href="#DejaVuSans-2c" transform="translate(825.439453 0.015625)"/>
     <use xlink:href="#DejaVuSans-Oblique-59" transform="translate(909.179363 0.015625)"/>
     <use xlink:href="#DejaVuSans-2c" transform="translate(970.263347 0.015625)"/>
     <use xlink:href="#DejaVuSans-Oblique-3c8" transform="translate(1054.003257 0.015625)"/>
     <use xlink:href="#DejaVuSans-2c" transform="translate(1119.970054 0.015625)"/>
     <use xlink:href="#DejaVuSans-Oblique-76" transform="translate(1203.709963 0.015625)"/>
     <use xlink:href="#DejaVuSans-Oblique-79" transform="translate(1262.889651 -16.390625) scale(0.7)"/>
     <use xlink:href="#DejaVuSans-2c" transform="translate(1307.049807 0.015625)"/>
     <use xlink:href="#DejaVuSans-Oblique-72" transform="translate(1390.789717 0.015625)"/>
    </g>
   </g>
   <g id="text_2">
    <!-- Tricycle.Examples.DoubleLaneChange  —  OpenModelica components -->
    <g transform="translate(163.916797 19.44) scale(0.11 -0.11)">
     <defs>
      <path id="DejaVuSans-Bold-54" d="M 31 4666 
L 4331 4666 
L 4331 3756 
L 2784 3756 
L 2784 0 
L 1581 0 
L 1581 3756 
L 31 3756 
L 31 4666 
z
" transform="scale(0.015625)"/>
      <path id="DejaVuSans-Bold-72" d="M 3138 2547 
Q 2991 2616 2845 2648 
Q 2700 2681 2553 2681 
Q 2122 2681 1889 2404 
Q 1656 2128 1656 1613 
L 1656 0 
L 538 0 
L 538 3500 
L 1656 3500 
L 1656 2925 
Q 1872 3269 2151 3426 
Q 2431 3584 2822 3584 
Q 2878 3584 2943 3579 
Q 3009 3575 3134 3559 
L 3138 2547 
z
" transform="scale(0.015625)"/>
      <path id="DejaVuSans-Bold-69" d="M 538 3500 
L 1656 3500 
L 1656 0 
L 538 0 
L 538 3500 
z
M 538 4863 
L 1656 4863 
L 1656 3950 
L 538 3950 
L 538 4863 
z
" transform="scale(0.015625)"/>
      <path id="DejaVuSans-Bold-63" d="M 3366 3391 
L 3366 2478 
Q 3138 2634 2908 2709 
Q 2678 2784 2431 2784 
Q 1963 2784 1702 2511 
Q 1441 2238 1441 1747 
Q 1441 1256 1702 982 
Q 1963 709 2431 709 
Q 2694 709 2930 787 
Q 3166 866 3366 1019 
L 3366 103 
Q 3103 6 2833 -42 
Q 2563 -91 2291 -91 
Q 1344 -91 809 395 
Q 275 881 275 1747 
Q 275 2613 809 3098 
Q 1344 3584 2291 3584 
Q 2566 3584 2833 3536 
Q 3100 3488 3366 3391 
z
" transform="scale(0.015625)"/>
      <path id="DejaVuSans-Bold-79" d="M 78 3500 
L 1197 3500 
L 2138 1125 
L 2938 3500 
L 4056 3500 
L 2584 -331 
Q 2363 -916 2067 -1148 
Q 1772 -1381 1288 -1381 
L 641 -1381 
L 641 -647 
L 991 -647 
Q 1275 -647 1404 -556 
Q 1534 -466 1606 -231 
L 1638 -134 
L 78 3500 
z
" transform="scale(0.015625)"/>
      <path id="DejaVuSans-Bold-6c" d="M 538 4863 
L 1656 4863 
L 1656 0 
L 538 0 
L 538 4863 
z
" transform="scale(0.015625)"/>
      <path id="DejaVuSans-Bold-65" d="M 4031 1759 
L 4031 1441 
L 1416 1441 
Q 1456 1047 1700 850 
Q 1944 653 2381 653 
Q 2734 653 3104 758 
Q 3475 863 3866 1075 
L 3866 213 
Q 3469 63 3072 -14 
Q 2675 -91 2278 -91 
Q 1328 -91 801 392 
Q 275 875 275 1747 
Q 275 2603 792 3093 
Q 1309 3584 2216 3584 
Q 3041 3584 3536 3087 
Q 4031 2591 4031 1759 
z
M 2881 2131 
Q 2881 2450 2695 2645 
Q 2509 2841 2209 2841 
Q 1884 2841 1681 2658 
Q 1478 2475 1428 2131 
L 2881 2131 
z
" transform="scale(0.015625)"/>
      <path id="DejaVuSans-Bold-2e" d="M 653 1209 
L 1778 1209 
L 1778 0 
L 653 0 
L 653 1209 
z
" transform="scale(0.015625)"/>
      <path id="DejaVuSans-Bold-45" d="M 588 4666 
L 3834 4666 
L 3834 3756 
L 1791 3756 
L 1791 2888 
L 3713 2888 
L 3713 1978 
L 1791 1978 
L 1791 909 
L 3903 909 
L 3903 0 
L 588 0 
L 588 4666 
z
" transform="scale(0.015625)"/>
      <path id="DejaVuSans-Bold-78" d="M 1422 1791 
L 159 3500 
L 1344 3500 
L 2059 2463 
L 2784 3500 
L 3969 3500 
L 2706 1797 
L 4031 0 
L 2847 0 
L 2059 1106 
L 1281 0 
L 97 0 
L 1422 1791 
z
" transform="scale(0.015625)"/>
      <path id="DejaVuSans-Bold-61" d="M 2106 1575 
Q 1756 1575 1579 1456 
Q 1403 1338 1403 1106 
Q 1403 894 1545 773 
Q 1688 653 1941 653 
Q 2256 653 2472 879 
Q 2688 1106 2688 1447 
L 2688 1575 
L 2106 1575 
z
M 3816 1997 
L 3816 0 
L 2688 0 
L 2688 519 
Q 2463 200 2181 54 
Q 1900 -91 1497 -91 
Q 953 -91 614 226 
Q 275 544 275 1050 
Q 275 1666 698 1953 
Q 1122 2241 2028 2241 
L 2688 2241 
L 2688 2328 
Q 2688 2594 2478 2717 
Q 2269 2841 1825 2841 
Q 1466 2841 1156 2769 
Q 847 2697 581 2553 
L 581 3406 
Q 941 3494 1303 3539 
Q 1666 3584 2028 3584 
Q 2975 3584 3395 3211 
Q 3816 2838 3816 1997 
z
" transform="scale(0.015625)"/>
      <path id="DejaVuSans-Bold-6d" d="M 3781 2919 
Q 3994 3244 4286 3414 
Q 4578 3584 4928 3584 
Q 5531 3584 5847 3212 
Q 6163 2841 6163 2131 
L 6163 0 
L 5038 0 
L 5038 1825 
Q 5041 1866 5042 1909 
Q 5044 1953 5044 2034 
Q 5044 2406 4934 2573 
Q 4825 2741 4581 2741 
Q 4263 2741 4089 2478 
Q 3916 2216 3909 1719 
L 3909 0 
L 2784 0 
L 2784 1825 
Q 2784 2406 2684 2573 
Q 2584 2741 2328 2741 
Q 2006 2741 1831 2477 
Q 1656 2213 1656 1722 
L 1656 0 
L 531 0 
L 531 3500 
L 1656 3500 
L 1656 2988 
Q 1863 3284 2130 3434 
Q 2397 3584 2719 3584 
Q 3081 3584 3359 3409 
Q 3638 3234 3781 2919 
z
" transform="scale(0.015625)"/>
      <path id="DejaVuSans-Bold-70" d="M 1656 506 
L 1656 -1331 
L 538 -1331 
L 538 3500 
L 1656 3500 
L 1656 2988 
Q 1888 3294 2169 3439 
Q 2450 3584 2816 3584 
Q 3463 3584 3878 3070 
Q 4294 2556 4294 1747 
Q 4294 938 3878 423 
Q 3463 -91 2816 -91 
Q 2450 -91 2169 54 
Q 1888 200 1656 506 
z
M 2400 2772 
Q 2041 2772 1848 2508 
Q 1656 2244 1656 1747 
Q 1656 1250 1848 986 
Q 2041 722 2400 722 
Q 2759 722 2948 984 
Q 3138 1247 3138 1747 
Q 3138 2247 2948 2509 
Q 2759 2772 2400 2772 
z
" transform="scale(0.015625)"/>
      <path id="DejaVuSans-Bold-73" d="M 3272 3391 
L 3272 2541 
Q 2913 2691 2578 2766 
Q 2244 2841 1947 2841 
Q 1628 2841 1473 2761 
Q 1319 2681 1319 2516 
Q 1319 2381 1436 2309 
Q 1553 2238 1856 2203 
L 2053 2175 
Q 2913 2066 3209 1816 
Q 3506 1566 3506 1031 
Q 3506 472 3093 190 
Q 2681 -91 1863 -91 
Q 1516 -91 1145 -36 
Q 775 19 384 128 
L 384 978 
Q 719 816 1070 734 
Q 1422 653 1784 653 
Q 2113 653 2278 743 
Q 2444 834 2444 1013 
Q 2444 1163 2330 1236 
Q 2216 1309 1875 1350 
L 1678 1375 
Q 931 1469 631 1722 
Q 331 1975 331 2491 
Q 331 3047 712 3315 
Q 1094 3584 1881 3584 
Q 2191 3584 2531 3537 
Q 2872 3491 3272 3391 
z
" transform="scale(0.015625)"/>
      <path id="DejaVuSans-Bold-44" d="M 1791 3756 
L 1791 909 
L 2222 909 
Q 2959 909 3348 1275 
Q 3738 1641 3738 2338 
Q 3738 3031 3350 3393 
Q 2963 3756 2222 3756 
L 1791 3756 
z
M 588 4666 
L 1856 4666 
Q 2919 4666 3439 4514 
Q 3959 4363 4331 4000 
Q 4659 3684 4818 3271 
Q 4978 2859 4978 2338 
Q 4978 1809 4818 1395 
Q 4659 981 4331 666 
Q 3956 303 3431 151 
Q 2906 0 1856 0 
L 588 0 
L 588 4666 
z
" transform="scale(0.015625)"/>
      <path id="DejaVuSans-Bold-6f" d="M 2203 2784 
Q 1831 2784 1636 2517 
Q 1441 2250 1441 1747 
Q 1441 1244 1636 976 
Q 1831 709 2203 709 
Q 2569 709 2762 976 
Q 2956 1244 2956 1747 
Q 2956 2250 2762 2517 
Q 2569 2784 2203 2784 
z
M 2203 3584 
Q 3106 3584 3614 3096 
Q 4122 2609 4122 1747 
Q 4122 884 3614 396 
Q 3106 -91 2203 -91 
Q 1297 -91 786 396 
Q 275 884 275 1747 
Q 275 2609 786 3096 
Q 1297 3584 2203 3584 
z
" transform="scale(0.015625)"/>
      <path id="DejaVuSans-Bold-75" d="M 500 1363 
L 500 3500 
L 1625 3500 
L 1625 3150 
Q 1625 2866 1622 2436 
Q 1619 2006 1619 1863 
Q 1619 1441 1641 1255 
Q 1663 1069 1716 984 
Q 1784 875 1895 815 
Q 2006 756 2150 756 
Q 2500 756 2700 1025 
Q 2900 1294 2900 1772 
L 2900 3500 
L 4019 3500 
L 4019 0 
L 2900 0 
L 2900 506 
Q 2647 200 2364 54 
Q 2081 -91 1741 -91 
Q 1134 -91 817 281 
Q 500 653 500 1363 
z
" transform="scale(0.015625)"/>
      <path id="DejaVuSans-Bold-62" d="M 2400 722 
Q 2759 722 2948 984 
Q 3138 1247 3138 1747 
Q 3138 2247 2948 2509 
Q 2759 2772 2400 2772 
Q 2041 2772 1848 2508 
Q 1656 2244 1656 1747 
Q 1656 1250 1848 986 
Q 2041 722 2400 722 
z
M 1656 2988 
Q 1888 3294 2169 3439 
Q 2450 3584 2816 3584 
Q 3463 3584 3878 3070 
Q 4294 2556 4294 1747 
Q 4294 938 3878 423 
Q 3463 -91 2816 -91 
Q 2450 -91 2169 54 
Q 1888 200 1656 506 
L 1656 0 
L 538 0 
L 538 4863 
L 1656 4863 
L 1656 2988 
z
" transform="scale(0.015625)"/>
      <path id="DejaVuSans-Bold-4c" d="M 588 4666 
L 1791 4666 
L 1791 909 
L 3903 909 
L 3903 0 
L 588 0 
L 588 4666 
z
" transform="scale(0.015625)"/>
      <path id="DejaVuSans-Bold-6e" d="M 4056 2131 
L 4056 0 
L 2931 0 
L 2931 347 
L 2931 1631 
Q 2931 2084 2911 2256 
Q 2891 2428 2841 2509 
Q 2775 2619 2662 2680 
Q 2550 2741 2406 2741 
Q 2056 2741 1856 2470 
Q 1656 2200 1656 1722 
L 1656 0 
L 538 0 
L 538 3500 
L 1656 3500 
L 1656 2988 
Q 1909 3294 2193 3439 
Q 2478 3584 2822 3584 
Q 3428 3584 3742 3212 
Q 4056 2841 4056 2131 
z
" transform="scale(0.015625)"/>
      <path id="DejaVuSans-Bold-43" d="M 4288 256 
Q 3956 84 3597 -3 
Q 3238 -91 2847 -91 
Q 1681 -91 1000 561 
Q 319 1213 319 2328 
Q 319 3447 1000 4098 
Q 1681 4750 2847 4750 
Q 3238 4750 3597 4662 
Q 3956 4575 4288 4403 
L 4288 3438 
Q 3953 3666 3628 3772 
Q 3303 3878 2944 3878 
Q 2300 3878 1931 3465 
Q 1563 3053 1563 2328 
Q 1563 1606 1931 1193 
Q 2300 781 2944 781 
Q 3303 781 3628 887 
Q 3953 994 4288 1222 
L 4288 256 
z
" transform="scale(0.015625)"/>
      <path id="DejaVuSans-Bold-68" d="M 4056 2131 
L 4056 0 
L 2931 0 
L 2931 347 
L 2931 1625 
Q 2931 2084 2911 2256 
Q 2891 2428 2841 2509 
Q 2775 2619 2662 2680 
Q 2550 2741 2406 2741 
Q 2056 2741 1856 2470 
Q 1656 2200 1656 1722 
L 1656 0 
L 538 0 
L 538 4863 
L 1656 4863 
L 1656 2988 
Q 1909 3294 2193 3439 
Q 2478 3584 2822 3584 
Q 3428 3584 3742 3212 
Q 4056 2841 4056 2131 
z
" transform="scale(0.015625)"/>
      <path id="DejaVuSans-Bold-67" d="M 2919 594 
Q 2688 288 2409 144 
Q 2131 0 1766 0 
Q 1125 0 706 504 
Q 288 1009 288 1791 
Q 288 2575 706 3076 
Q 1125 3578 1766 3578 
Q 2131 3578 2409 3434 
Q 2688 3291 2919 2981 
L 2919 3500 
L 4044 3500 
L 4044 353 
Q 4044 -491 3511 -936 
Q 2978 -1381 1966 -1381 
Q 1638 -1381 1331 -1331 
Q 1025 -1281 716 -1178 
L 716 -306 
Q 1009 -475 1290 -558 
Q 1572 -641 1856 -641 
Q 2406 -641 2662 -400 
Q 2919 -159 2919 353 
L 2919 594 
z
M 2181 2772 
Q 1834 2772 1640 2515 
Q 1447 2259 1447 1791 
Q 1447 1309 1634 1061 
Q 1822 813 2181 813 
Q 2531 813 2725 1069 
Q 2919 1325 2919 1791 
Q 2919 2259 2725 2515 
Q 2531 2772 2181 2772 
z
" transform="scale(0.015625)"/>
      <path id="DejaVuSans-Bold-20" transform="scale(0.015625)"/>
      <path id="DejaVuSans-Bold-2014" d="M 344 2156 
L 6056 2156 
L 6056 1350 
L 344 1350 
L 344 2156 
z
" transform="scale(0.015625)"/>
      <path id="DejaVuSans-Bold-4f" d="M 2719 3878 
Q 2169 3878 1866 3472 
Q 1563 3066 1563 2328 
Q 1563 1594 1866 1187 
Q 2169 781 2719 781 
Q 3272 781 3575 1187 
Q 3878 1594 3878 2328 
Q 3878 3066 3575 3472 
Q 3272 3878 2719 3878 
z
M 2719 4750 
Q 3844 4750 4481 4106 
Q 5119 3463 5119 2328 
Q 5119 1197 4481 553 
Q 3844 -91 2719 -91 
Q 1597 -91 958 553 
Q 319 1197 319 2328 
Q 319 3463 958 4106 
Q 1597 4750 2719 4750 
z
" transform="scale(0.015625)"/>
      <path id="DejaVuSans-Bold-4d" d="M 588 4666 
L 2119 4666 
L 3181 2169 
L 4250 4666 
L 5778 4666 
L 5778 0 
L 4641 0 
L 4641 3413 
L 3566 897 
L 2803 897 
L 1728 3413 
L 1728 0 
L 588 0 
L 588 4666 
z
" transform="scale(0.015625)"/>
      <path id="DejaVuSans-Bold-64" d="M 2919 2988 
L 2919 4863 
L 4044 4863 
L 4044 0 
L 2919 0 
L 2919 506 
Q 2688 197 2409 53 
Q 2131 -91 1766 -91 
Q 1119 -91 703 423 
Q 288 938 288 1747 
Q 288 2556 703 3070 
Q 1119 3584 1766 3584 
Q 2128 3584 2408 3439 
Q 2688 3294 2919 2988 
z
M 2181 722 
Q 2541 722 2730 984 
Q 2919 1247 2919 1747 
Q 2919 2247 2730 2509 
Q 2541 2772 2181 2772 
Q 1825 2772 1636 2509 
Q 1447 2247 1447 1747 
Q 1447 1247 1636 984 
Q 1825 722 2181 722 
z
" transform="scale(0.015625)"/>
      <path id="DejaVuSans-Bold-74" d="M 1759 4494 
L 1759 3500 
L 2913 3500 
L 2913 2700 
L 1759 2700 
L 1759 1216 
Q 1759 972 1856 886 
Q 1953 800 2241 800 
L 2816 800 
L 2816 0 
L 1856 0 
Q 1194 0 917 276 
Q 641 553 641 1216 
L 641 2700 
L 84 2700 
L 84 3500 
L 641 3500 
L 641 4494 
L 1759 4494 
z
" transform="scale(0.015625)"/>
     </defs>
     <use xlink:href="#DejaVuSans-Bold-54"/>
     <use xlink:href="#DejaVuSans-Bold-72" transform="translate(57.212891 0)"/>
     <use xlink:href="#DejaVuSans-Bold-69" transform="translate(106.529297 0)"/>
     <use xlink:href="#DejaVuSans-Bold-63" transform="translate(140.806641 0)"/>
     <use xlink:href="#DejaVuSans-Bold-79" transform="translate(200.083984 0)"/>
     <use xlink:href="#DejaVuSans-Bold-63" transform="translate(265.269531 0)"/>
     <use xlink:href="#DejaVuSans-Bold-6c" transform="translate(324.546875 0)"/>
     <use xlink:href="#DejaVuSans-Bold-65" transform="translate(358.824219 0)"/>
     <use xlink:href="#DejaVuSans-Bold-2e" transform="translate(426.646484 0)"/>
     <use xlink:href="#DejaVuSans-Bold-45" transform="translate(464.634766 0)"/>
     <use xlink:href="#DejaVuSans-Bold-78" transform="translate(532.945312 0)"/>
     <use xlink:href="#DejaVuSans-Bold-61" transform="translate(597.447266 0)"/>
     <use xlink:href="#DejaVuSans-Bold-6d" transform="translate(664.927734 0)"/>
     <use xlink:href="#DejaVuSans-Bold-70" transform="translate(769.126953 0)"/>
     <use xlink:href="#DejaVuSans-Bold-6c" transform="translate(840.708984 0)"/>
     <use xlink:href="#DejaVuSans-Bold-65" transform="translate(874.986328 0)"/>
     <use xlink:href="#DejaVuSans-Bold-73" transform="translate(942.808594 0)"/>
     <use xlink:href="#DejaVuSans-Bold-2e" transform="translate(1002.330078 0)"/>
     <use xlink:href="#DejaVuSans-Bold-44" transform="translate(1040.318359 0)"/>
     <use xlink:href="#DejaVuSans-Bold-6f" transform="translate(1123.326172 0)"/>
     <use xlink:href="#DejaVuSans-Bold-75" transform="translate(1192.027344 0)"/>
     <use xlink:href="#DejaVuSans-Bold-62" transform="translate(1263.21875 0)"/>
     <use xlink:href="#DejaVuSans-Bold-6c" transform="translate(1334.800781 0)"/>
     <use xlink:href="#DejaVuSans-Bold-65" transform="translate(1369.078125 0)"/>
     <use xlink:href="#DejaVuSans-Bold-4c" transform="translate(1436.900391 0)"/>
     <use xlink:href="#DejaVuSans-Bold-61" transform="translate(1500.621094 0)"/>
     <use xlink:href="#DejaVuSans-Bold-6e" transform="translate(1568.101562 0)"/>
     <use xlink:href="#DejaVuSans-Bold-65" transform="translate(1639.292969 0)"/>
     <use xlink:href="#DejaVuSans-Bold-43" transform="translate(1707.115234 0)"/>
     <use xlink:href="#DejaVuSans-Bold-68" transform="translate(1780.503906 0)"/>
     <use xlink:href="#DejaVuSans-Bold-61" transform="translate(1851.695312 0)"/>
     <use xlink:href="#DejaVuSans-Bold-6e" transform="translate(1919.175781 0)"/>
     <use xlink:href="#DejaVuSans-Bold-67" transform="translate(1990.367188 0)"/>
     <use xlink:href="#DejaVuSans-Bold-65" transform="translate(2061.949219 0)"/>
     <use xlink:href="#DejaVuSans-Bold-20" transform="translate(2129.771484 0)"/>
     <use xlink:href="#DejaVuSans-Bold-20" transform="translate(2164.585938 0)"/>
     <use xlink:href="#DejaVuSans-Bold-2014" transform="translate(2199.400391 0)"/>
     <use xlink:href="#DejaVuSans-Bold-20" transform="translate(2299.400391 0)"/>
     <use xlink:href="#DejaVuSans-Bold-20" transform="translate(2334.214844 0)"/>
     <use xlink:href="#DejaVuSans-Bold-4f" transform="translate(2369.029297 0)"/>
     <use xlink:href="#DejaVuSans-Bold-70" transform="translate(2454.039062 0)"/>
     <use xlink:href="#DejaVuSans-Bold-65" transform="translate(2525.621094 0)"/>
     <use xlink:href="#DejaVuSans-Bold-6e" transform="translate(2593.443359 0)"/>
     <use xlink:href="#DejaVuSans-Bold-4d" transform="translate(2664.634766 0)"/>
     <use xlink:href="#DejaVuSans-Bold-6f" transform="translate(2764.146484 0)"/>
     <use xlink:href="#DejaVuSans-Bold-64" transform="translate(2832.847656 0)"/>
     <use xlink:href="#DejaVuSans-Bold-65" transform="translate(2904.429688 0)"/>
     <use xlink:href="#DejaVuSans-Bold-6c" transform="translate(2972.251953 0)"/>
     <use xlink:href="#DejaVuSans-Bold-69" transform="translate(3006.529297 0)"/>
     <use xlink:href="#DejaVuSans-Bold-63" transform="translate(3040.806641 0)"/>
     <use xlink:href="#DejaVuSans-Bold-61" transform="translate(3100.083984 0)"/>
     <use xlink:href="#DejaVuSans-Bold-20" transform="translate(3167.564453 0)"/>
     <use xlink:href="#DejaVuSans-Bold-63" transform="translate(3202.378906 0)"/>
     <use xlink:href="#DejaVuSans-Bold-6f" transform="translate(3261.65625 0)"/>
     <use xlink:href="#DejaVuSans-Bold-6d" transform="translate(3330.357422 0)"/>
     <use xlink:href="#DejaVuSans-Bold-70" transform="translate(3434.556641 0)"/>
     <use xlink:href="#DejaVuSans-Bold-6f" transform="translate(3506.138672 0)"/>
     <use xlink:href="#DejaVuSans-Bold-6e" transform="translate(3574.839844 0)"/>
     <use xlink:href="#DejaVuSans-Bold-65" transform="translate(3646.03125 0)"/>
     <use xlink:href="#DejaVuSans-Bold-6e" transform="translate(3713.853516 0)"/>
     <use xlink:href="#DejaVuSans-Bold-74" transform="translate(3785.044922 0)"/>
     <use xlink:href="#DejaVuSans-Bold-73" transform="translate(3832.847656 0)"/>
    </g>
   </g>
   <g id="text_3">
    <!-- ISO 3888-1 -->
    <g transform="translate(141.100257 181.703272) scale(0.06 -0.06)">
     <defs>
      <path id="DejaVuSans-49" d="M 628 4666 
L 1259 4666 
L 1259 0 
L 628 0 
L 628 4666 
z
" transform="scale(0.015625)"/>
      <path id="DejaVuSans-53" d="M 3425 4513 
L 3425 3897 
Q 3066 4069 2747 4153 
Q 2428 4238 2131 4238 
Q 1616 4238 1336 4038 
Q 1056 3838 1056 3469 
Q 1056 3159 1242 3001 
Q 1428 2844 1947 2747 
L 2328 2669 
Q 3034 2534 3370 2195 
Q 3706 1856 3706 1288 
Q 3706 609 3251 259 
Q 2797 -91 1919 -91 
Q 1588 -91 1214 -16 
Q 841 59 441 206 
L 441 856 
Q 825 641 1194 531 
Q 1563 422 1919 422 
Q 2459 422 2753 634 
Q 3047 847 3047 1241 
Q 3047 1584 2836 1778 
Q 2625 1972 2144 2069 
L 1759 2144 
Q 1053 2284 737 2584 
Q 422 2884 422 3419 
Q 422 4038 858 4394 
Q 1294 4750 2059 4750 
Q 2388 4750 2728 4690 
Q 3069 4631 3425 4513 
z
" transform="scale(0.015625)"/>
      <path id="DejaVuSans-4f" d="M 2522 4238 
Q 1834 4238 1429 3725 
Q 1025 3213 1025 2328 
Q 1025 1447 1429 934 
Q 1834 422 2522 422 
Q 3209 422 3611 934 
Q 4013 1447 4013 2328 
Q 4013 3213 3611 3725 
Q 3209 4238 2522 4238 
z
M 2522 4750 
Q 3503 4750 4090 4092 
Q 4678 3434 4678 2328 
Q 4678 1225 4090 567 
Q 3503 -91 2522 -91 
Q 1538 -91 948 565 
Q 359 1222 359 2328 
Q 359 3434 948 4092 
Q 1538 4750 2522 4750 
z
" transform="scale(0.015625)"/>
      <path id="DejaVuSans-33" d="M 2597 2516 
Q 3050 2419 3304 2112 
Q 3559 1806 3559 1356 
Q 3559 666 3084 287 
Q 2609 -91 1734 -91 
Q 1441 -91 1130 -33 
Q 819 25 488 141 
L 488 750 
Q 750 597 1062 519 
Q 1375 441 1716 441 
Q 2309 441 2620 675 
Q 2931 909 2931 1356 
Q 2931 1769 2642 2001 
Q 2353 2234 1838 2234 
L 1294 2234 
L 1294 2753 
L 1863 2753 
Q 2328 2753 2575 2939 
Q 2822 3125 2822 3475 
Q 2822 3834 2567 4026 
Q 2313 4219 1838 4219 
Q 1578 4219 1281 4162 
Q 984 4106 628 3988 
L 628 4550 
Q 988 4650 1302 4700 
Q 1616 4750 1894 4750 
Q 2613 4750 3031 4423 
Q 3450 4097 3450 3541 
Q 3450 3153 3228 2886 
Q 3006 2619 2597 2516 
z
" transform="scale(0.015625)"/>
      <path id="DejaVuSans-38" d="M 2034 2216 
Q 1584 2216 1326 1975 
Q 1069 1734 1069 1313 
Q 1069 891 1326 650 
Q 1584 409 2034 409 
Q 2484 409 2743 651 
Q 3003 894 3003 1313 
Q 3003 1734 2745 1975 
Q 2488 2216 2034 2216 
z
M 1403 2484 
Q 997 2584 770 2862 
Q 544 3141 544 3541 
Q 544 4100 942 4425 
Q 1341 4750 2034 4750 
Q 2731 4750 3128 4425 
Q 3525 4100 3525 3541 
Q 3525 3141 3298 2862 
Q 3072 2584 2669 2484 
Q 3125 2378 3379 2068 
Q 3634 1759 3634 1313 
Q 3634 634 3220 271 
Q 2806 -91 2034 -91 
Q 1263 -91 848 271 
Q 434 634 434 1313 
Q 434 1759 690 2068 
Q 947 2378 1403 2484 
z
M 1172 3481 
Q 1172 3119 1398 2916 
Q 1625 2713 2034 2713 
Q 2441 2713 2670 2916 
Q 2900 3119 2900 3481 
Q 2900 3844 2670 4047 
Q 2441 4250 2034 4250 
Q 1625 4250 1398 4047 
Q 1172 3844 1172 3481 
z
" transform="scale(0.015625)"/>
      <path id="DejaVuSans-2d" d="M 313 2009 
L 1997 2009 
L 1997 1497 
L 313 1497 
L 313 2009 
z
" transform="scale(0.015625)"/>
      <path id="DejaVuSans-31" d="M 794 531 
L 1825 531 
L 1825 4091 
L 703 3866 
L 703 4441 
L 1819 4666 
L 2450 4666 
L 2450 531 
L 3481 531 
L 3481 0 
L 794 0 
L 794 531 
z
" transform="scale(0.015625)"/>
     </defs>
     <use xlink:href="#DejaVuSans-49"/>
     <use xlink:href="#DejaVuSans-53" transform="translate(29.492188 0)"/>
     <use xlink:href="#DejaVuSans-4f" transform="translate(92.96875 0)"/>
     <use xlink:href="#DejaVuSans-20" transform="translate(171.679688 0)"/>
     <use xlink:href="#DejaVuSans-33" transform="translate(203.466797 0)"/>
     <use xlink:href="#DejaVuSans-38" transform="translate(267.089844 0)"/>
     <use xlink:href="#DejaVuSans-38" transform="translate(330.712891 0)"/>
     <use xlink:href="#DejaVuSans-38" transform="translate(394.335938 0)"/>
     <use xlink:href="#DejaVuSans-2d" transform="translate(457.958984 0)"/>
     <use xlink:href="#DejaVuSans-31" transform="translate(494.042969 0)"/>
    </g>
   </g>
   <g id="text_4">
    <!-- phi_ref -->
    <g style="fill: #808080" transform="translate(286.575028 169.877482) scale(0.06 -0.06)">
     <defs>
      <path id="DejaVuSans-70" d="M 1159 525 
L 1159 -1331 
L 581 -1331 
L 581 3500 
L 1159 3500 
L 1159 2969 
Q 1341 3281 1617 3432 
Q 1894 3584 2278 3584 
Q 2916 3584 3314 3078 
Q 3713 2572 3713 1747 
Q 3713 922 3314 415 
Q 2916 -91 2278 -91 
Q 1894 -91 1617 61 
Q 1341 213 1159 525 
z
M 3116 1747 
Q 3116 2381 2855 2742 
Q 2594 3103 2138 3103 
Q 1681 3103 1420 2742 
Q 1159 2381 1159 1747 
Q 1159 1113 1420 752 
Q 1681 391 2138 391 
Q 2594 391 2855 752 
Q 3116 1113 3116 1747 
z
" transform="scale(0.015625)"/>
      <path id="DejaVuSans-5f" d="M 3263 -1063 
L 3263 -1509 
L -63 -1509 
L -63 -1063 
L 3263 -1063 
z
" transform="scale(0.015625)"/>
      <path id="DejaVuSans-72" d="M 2631 2963 
Q 2534 3019 2420 3045 
Q 2306 3072 2169 3072 
Q 1681 3072 1420 2755 
Q 1159 2438 1159 1844 
L 1159 0 
L 581 0 
L 581 3500 
L 1159 3500 
L 1159 2956 
Q 1341 3275 1631 3429 
Q 1922 3584 2338 3584 
Q 2397 3584 2469 3576 
Q 2541 3569 2628 3553 
L 2631 2963 
z
" transform="scale(0.015625)"/>
      <path id="DejaVuSans-66" d="M 2375 4863 
L 2375 4384 
L 1825 4384 
Q 1516 4384 1395 4259 
Q 1275 4134 1275 3809 
L 1275 3500 
L 2222 3500 
L 2222 3053 
L 1275 3053 
L 1275 0 
L 697 0 
L 697 3053 
L 147 3053 
L 147 3500 
L 697 3500 
L 697 3744 
Q 697 4328 969 4595 
Q 1241 4863 1831 4863 
L 2375 4863 
z
" transform="scale(0.015625)"/>
     </defs>
     <use xlink:href="#DejaVuSans-70"/>
     <use xlink:href="#DejaVuSans-68" transform="translate(63.476562 0)"/>
     <use xlink:href="#DejaVuSans-69" transform="translate(126.855469 0)"/>
     <use xlink:href="#DejaVuSans-5f" transform="translate(154.638672 0)"/>
     <use xlink:href="#DejaVuSans-72" transform="translate(204.638672 0)"/>
     <use xlink:href="#DejaVuSans-65" transform="translate(243.501953 0)"/>
     <use xlink:href="#DejaVuSans-66" transform="translate(305.025391 0)"/>
    </g>
   </g>
   <g id="text_5">
    <!-- N.m -->
    <g style="fill: #404040" transform="translate(415.913824 165.65539) scale(0.06 -0.06)">
     <defs>
      <path id="DejaVuSans-4e" d="M 628 4666 
L 1478 4666 
L 3547 763 
L 3547 4666 
L 4159 4666 
L 4159 0 
L 3309 0 
L 1241 3903 
L 1241 0 
L 628 0 
L 628 4666 
z
" transform="scale(0.015625)"/>
      <path id="DejaVuSans-2e" d="M 684 794 
L 1344 794 
L 1344 0 
L 684 0 
L 684 794 
z
" transform="scale(0.015625)"/>
      <path id="DejaVuSans-6d" d="M 3328 2828 
Q 3544 3216 3844 3400 
Q 4144 3584 4550 3584 
Q 5097 3584 5394 3201 
Q 5691 2819 5691 2113 
L 5691 0 
L 5113 0 
L 5113 2094 
Q 5113 2597 4934 2840 
Q 4756 3084 4391 3084 
Q 3944 3084 3684 2787 
Q 3425 2491 3425 1978 
L 3425 0 
L 2847 0 
L 2847 2094 
Q 2847 2600 2669 2842 
Q 2491 3084 2119 3084 
Q 1678 3084 1418 2786 
Q 1159 2488 1159 1978 
L 1159 0 
L 581 0 
L 581 3500 
L 1159 3500 
L 1159 2956 
Q 1356 3278 1631 3431 
Q 1906 3584 2284 3584 
Q 2666 3584 2933 3390 
Q 3200 3197 3328 2828 
z
" transform="scale(0.015625)"/>
     </defs>
     <use xlink:href="#DejaVuSans-4e"/>
     <use xlink:href="#DejaVuSans-2e" transform="translate(74.804688 0)"/>
     <use xlink:href="#DejaVuSans-6d" transform="translate(106.591797 0)"/>
    </g>
   </g>
   <g id="text_6">
    <!-- ISO 3888-1 -->
    <g style="fill: #1f77b4" transform="translate(136.917601 89.067287) scale(0.075 -0.075)">
     <use xlink:href="#DejaVuSans-49"/>
     <use xlink:href="#DejaVuSans-53" transform="translate(29.492188 0)"/>
     <use xlink:href="#DejaVuSans-4f" transform="translate(92.96875 0)"/>
     <use xlink:href="#DejaVuSans-20" transform="translate(171.679688 0)"/>
     <use xlink:href="#DejaVuSans-33" transform="translate(203.466797 0)"/>
     <use xlink:href="#DejaVuSans-38" transform="translate(267.089844 0)"/>
     <use xlink:href="#DejaVuSans-38" transform="translate(330.712891 0)"/>
     <use xlink:href="#DejaVuSans-38" transform="translate(394.335938 0)"/>
     <use xlink:href="#DejaVuSans-2d" transform="translate(457.958984 0)"/>
     <use xlink:href="#DejaVuSans-31" transform="translate(494.042969 0)"/>
    </g>
    <!-- preview driver -->
    <g style="fill: #1f77b4" transform="translate(130.825609 97.465646) scale(0.075 -0.075)">
     <defs>
      <path id="DejaVuSans-77" d="M 269 3500 
L 844 3500 
L 1563 769 
L 2278 3500 
L 2956 3500 
L 3675 769 
L 4391 3500 
L 4966 3500 
L 4050 0 
L 3372 0 
L 2619 2869 
L 1863 0 
L 1184 0 
L 269 3500 
z
" transform="scale(0.015625)"/>
      <path id="DejaVuSans-64" d="M 2906 2969 
L 2906 4863 
L 3481 4863 
L 3481 0 
L 2906 0 
L 2906 525 
Q 2725 213 2448 61 
Q 2172 -91 1784 -91 
Q 1150 -91 751 415 
Q 353 922 353 1747 
Q 353 2572 751 3078 
Q 1150 3584 1784 3584 
Q 2172 3584 2448 3432 
Q 2725 3281 2906 2969 
z
M 947 1747 
Q 947 1113 1208 752 
Q 1469 391 1925 391 
Q 2381 391 2643 752 
Q 2906 1113 2906 1747 
Q 2906 2381 2643 2742 
Q 2381 3103 1925 3103 
Q 1469 3103 1208 2742 
Q 947 2381 947 1747 
z
" transform="scale(0.015625)"/>
     </defs>
     <use xlink:href="#DejaVuSans-70"/>
     <use xlink:href="#DejaVuSans-72" transform="translate(63.476562 0)"/>
     <use xlink:href="#DejaVuSans-65" transform="translate(102.339844 0)"/>
     <use xlink:href="#DejaVuSans-76" transform="translate(163.863281 0)"/>
     <use xlink:href="#DejaVuSans-69" transform="translate(223.042969 0)"/>
     <use xlink:href="#DejaVuSans-65" transform="translate(250.826172 0)"/>
     <use xlink:href="#DejaVuSans-77" transform="translate(312.349609 0)"/>
     <use xlink:href="#DejaVuSans-20" transform="translate(394.136719 0)"/>
     <use xlink:href="#DejaVuSans-64" transform="translate(425.923828 0)"/>
     <use xlink:href="#DejaVuSans-72" transform="translate(489.400391 0)"/>
     <use xlink:href="#DejaVuSans-69" transform="translate(530.513672 0)"/>
     <use xlink:href="#DejaVuSans-76" transform="translate(558.296875 0)"/>
     <use xlink:href="#DejaVuSans-65" transform="translate(617.476562 0)"/>
     <use xlink:href="#DejaVuSans-72" transform="translate(679 0)"/>
    </g>
   </g>
   <g id="text_7">
    <!-- ratio $i_S$ -->
    <g style="fill: #1f77b4" transform="translate(233.223529 97.465646) scale(0.075 -0.075)">
     <defs>
      <path id="DejaVuSans-6f" d="M 1959 3097 
Q 1497 3097 1228 2736 
Q 959 2375 959 1747 
Q 959 1119 1226 758 
Q 1494 397 1959 397 
Q 2419 397 2687 759 
Q 2956 1122 2956 1747 
Q 2956 2369 2687 2733 
Q 2419 3097 1959 3097 
z
M 1959 3584 
Q 2709 3584 3137 3096 
Q 3566 2609 3566 1747 
Q 3566 888 3137 398 
Q 2709 -91 1959 -91 
Q 1206 -91 779 398 
Q 353 888 353 1747 
Q 353 2609 779 3096 
Q 1206 3584 1959 3584 
z
" transform="scale(0.015625)"/>
      <path id="DejaVuSans-Oblique-69" d="M 1172 4863 
L 1747 4863 
L 1606 4134 
L 1031 4134 
L 1172 4863 
z
M 909 3500 
L 1484 3500 
L 800 0 
L 225 0 
L 909 3500 
z
" transform="scale(0.015625)"/>
      <path id="DejaVuSans-Oblique-53" d="M 3859 4513 
L 3738 3897 
Q 3422 4066 3111 4152 
Q 2800 4238 2509 4238 
Q 1944 4238 1609 3991 
Q 1275 3744 1275 3334 
Q 1275 3109 1398 2989 
Q 1522 2869 2034 2731 
L 2413 2638 
Q 3053 2472 3303 2217 
Q 3553 1963 3553 1503 
Q 3553 797 2998 353 
Q 2444 -91 1538 -91 
Q 1166 -91 791 -17 
Q 416 56 38 206 
L 166 856 
Q 513 641 861 531 
Q 1209 422 1556 422 
Q 2147 422 2503 684 
Q 2859 947 2859 1369 
Q 2859 1650 2717 1795 
Q 2575 1941 2106 2059 
L 1728 2156 
Q 1081 2325 845 2545 
Q 609 2766 609 3163 
Q 609 3859 1145 4304 
Q 1681 4750 2541 4750 
Q 2875 4750 3203 4690 
Q 3531 4631 3859 4513 
z
" transform="scale(0.015625)"/>
     </defs>
     <use xlink:href="#DejaVuSans-72" transform="translate(0 0.015625)"/>
     <use xlink:href="#DejaVuSans-61" transform="translate(41.113281 0.015625)"/>
     <use xlink:href="#DejaVuSans-74" transform="translate(102.392578 0.015625)"/>
     <use xlink:href="#DejaVuSans-69" transform="translate(141.601562 0.015625)"/>
     <use xlink:href="#DejaVuSans-6f" transform="translate(169.384766 0.015625)"/>
     <use xlink:href="#DejaVuSans-20" transform="translate(230.566406 0.015625)"/>
     <use xlink:href="#DejaVuSans-Oblique-69" transform="translate(262.353516 0.015625)"/>
     <use xlink:href="#DejaVuSans-Oblique-53" transform="translate(290.136719 -16.390625) scale(0.7)"/>
    </g>
   </g>
   <g id="text_8">
    <!-- driver arm -->
    <g style="fill: #1f77b4" transform="translate(314.315005 89.067287) scale(0.075 -0.075)">
     <use xlink:href="#DejaVuSans-64"/>
     <use xlink:href="#DejaVuSans-72" transform="translate(63.476562 0)"/>
     <use xlink:href="#DejaVuSans-69" transform="translate(104.589844 0)"/>
     <use xlink:href="#DejaVuSans-76" transform="translate(132.373047 0)"/>
     <use xlink:href="#DejaVuSans-65" transform="translate(191.552734 0)"/>
     <use xlink:href="#DejaVuSans-72" transform="translate(253.076172 0)"/>
     <use xlink:href="#DejaVuSans-20" transform="translate(294.189453 0)"/>
     <use xlink:href="#DejaVuSans-61" transform="translate(325.976562 0)"/>
     <use xlink:href="#DejaVuSans-72" transform="translate(387.255859 0)"/>
     <use xlink:href="#DejaVuSans-6d" transform="translate(426.619141 0)"/>
    </g>
    <!-- (2 Hz) -->
    <g style="fill: #1f77b4" transform="translate(322.673989 97.465646) scale(0.075 -0.075)">
     <defs>
      <path id="DejaVuSans-28" d="M 1984 4856 
Q 1566 4138 1362 3434 
Q 1159 2731 1159 2009 
Q 1159 1288 1364 580 
Q 1569 -128 1984 -844 
L 1484 -844 
Q 1016 -109 783 600 
Q 550 1309 550 2009 
Q 550 2706 781 3412 
Q 1013 4119 1484 4856 
L 1984 4856 
z
" transform="scale(0.015625)"/>
      <path id="DejaVuSans-32" d="M 1228 531 
L 3431 531 
L 3431 0 
L 469 0 
L 469 531 
Q 828 903 1448 1529 
Q 2069 2156 2228 2338 
Q 2531 2678 2651 2914 
Q 2772 3150 2772 3378 
Q 2772 3750 2511 3984 
Q 2250 4219 1831 4219 
Q 1534 4219 1204 4116 
Q 875 4013 500 3803 
L 500 4441 
Q 881 4594 1212 4672 
Q 1544 4750 1819 4750 
Q 2544 4750 2975 4387 
Q 3406 4025 3406 3419 
Q 3406 3131 3298 2873 
Q 3191 2616 2906 2266 
Q 2828 2175 2409 1742 
Q 1991 1309 1228 531 
z
" transform="scale(0.015625)"/>
      <path id="DejaVuSans-48" d="M 628 4666 
L 1259 4666 
L 1259 2753 
L 3553 2753 
L 3553 4666 
L 4184 4666 
L 4184 0 
L 3553 0 
L 3553 2222 
L 1259 2222 
L 1259 0 
L 628 0 
L 628 4666 
z
" transform="scale(0.015625)"/>
      <path id="DejaVuSans-7a" d="M 353 3500 
L 3084 3500 
L 3084 2975 
L 922 459 
L 3084 459 
L 3084 0 
L 275 0 
L 275 525 
L 2438 3041 
L 353 3041 
L 353 3500 
z
" transform="scale(0.015625)"/>
      <path id="DejaVuSans-29" d="M 513 4856 
L 1013 4856 
Q 1481 4119 1714 3412 
Q 1947 2706 1947 2009 
Q 1947 1309 1714 600 
Q 1481 -109 1013 -844 
L 513 -844 
Q 928 -128 1133 580 
Q 1338 1288 1338 2009 
Q 1338 2731 1133 3434 
Q 928 4138 513 4856 
z
" transform="scale(0.015625)"/>
     </defs>
     <use xlink:href="#DejaVuSans-28"/>
     <use xlink:href="#DejaVuSans-32" transform="translate(39.013672 0)"/>
     <use xlink:href="#DejaVuSans-20" transform="translate(102.636719 0)"/>
     <use xlink:href="#DejaVuSans-48" transform="translate(134.423828 0)"/>
     <use xlink:href="#DejaVuSans-7a" transform="translate(209.619141 0)"/>
     <use xlink:href="#DejaVuSans-29" transform="translate(262.109375 0)"/>
    </g>
   </g>
   <g id="text_9">
    <!-- torque -->
    <g style="fill: #1f77b4" transform="translate(409.72855 89.067287) scale(0.075 -0.075)">
     <defs>
      <path id="DejaVuSans-71" d="M 947 1747 
Q 947 1113 1208 752 
Q 1469 391 1925 391 
Q 2381 391 2643 752 
Q 2906 1113 2906 1747 
Q 2906 2381 2643 2742 
Q 2381 3103 1925 3103 
Q 1469 3103 1208 2742 
Q 947 2381 947 1747 
z
M 2906 525 
Q 2725 213 2448 61 
Q 2172 -91 1784 -91 
Q 1150 -91 751 415 
Q 353 922 353 1747 
Q 353 2572 751 3078 
Q 1150 3584 1784 3584 
Q 2172 3584 2448 3432 
Q 2725 3281 2906 2969 
L 2906 3500 
L 3481 3500 
L 3481 -1331 
L 2906 -1331 
L 2906 525 
z
" transform="scale(0.015625)"/>
      <path id="DejaVuSans-75" d="M 544 1381 
L 544 3500 
L 1119 3500 
L 1119 1403 
Q 1119 906 1312 657 
Q 1506 409 1894 409 
Q 2359 409 2629 706 
Q 2900 1003 2900 1516 
L 2900 3500 
L 3475 3500 
L 3475 0 
L 2900 0 
L 2900 538 
Q 2691 219 2414 64 
Q 2138 -91 1772 -91 
Q 1169 -91 856 284 
Q 544 659 544 1381 
z
M 1991 3584 
L 1991 3584 
z
" transform="scale(0.015625)"/>
     </defs>
     <use xlink:href="#DejaVuSans-74"/>
     <use xlink:href="#DejaVuSans-6f" transform="translate(39.208984 0)"/>
     <use xlink:href="#DejaVuSans-72" transform="translate(100.390625 0)"/>
     <use xlink:href="#DejaVuSans-71" transform="translate(139.753906 0)"/>
     <use xlink:href="#DejaVuSans-75" transform="translate(203.230469 0)"/>
     <use xlink:href="#DejaVuSans-65" transform="translate(266.609375 0)"/>
    </g>
    <!-- sensor -->
    <g style="fill: #1f77b4" transform="translate(409.606675 97.465646) scale(0.075 -0.075)">
     <defs>
      <path id="DejaVuSans-6e" d="M 3513 2113 
L 3513 0 
L 2938 0 
L 2938 2094 
Q 2938 2591 2744 2837 
Q 2550 3084 2163 3084 
Q 1697 3084 1428 2787 
Q 1159 2491 1159 1978 
L 1159 0 
L 581 0 
L 581 3500 
L 1159 3500 
L 1159 2956 
Q 1366 3272 1645 3428 
Q 1925 3584 2291 3584 
Q 2894 3584 3203 3211 
Q 3513 2838 3513 2113 
z
" transform="scale(0.015625)"/>
     </defs>
     <use xlink:href="#DejaVuSans-73"/>
     <use xlink:href="#DejaVuSans-65" transform="translate(52.099609 0)"/>
     <use xlink:href="#DejaVuSans-6e" transform="translate(113.623047 0)"/>
     <use xlink:href="#DejaVuSans-73" transform="translate(177.001953 0)"/>
     <use xlink:href="#DejaVuSans-6f" transform="translate(229.101562 0)"/>
     <use xlink:href="#DejaVuSans-72" transform="translate(290.283203 0)"/>
    </g>
   </g>
   <g id="text_10">
    <!-- manual rack -->
    <g style="fill: #1f77b4" transform="translate(486.792877 89.067287) scale(0.075 -0.075)">
     <defs>
      <path id="DejaVuSans-6b" d="M 581 4863 
L 1159 4863 
L 1159 1991 
L 2875 3500 
L 3609 3500 
L 1753 1863 
L 3688 0 
L 2938 0 
L 1159 1709 
L 1159 0 
L 581 0 
L 581 4863 
z
" transform="scale(0.015625)"/>
     </defs>
     <use xlink:href="#DejaVuSans-6d"/>
     <use xlink:href="#DejaVuSans-61" transform="translate(97.412109 0)"/>
     <use xlink:href="#DejaVuSans-6e" transform="translate(158.691406 0)"/>
     <use xlink:href="#DejaVuSans-75" transform="translate(222.070312 0)"/>
     <use xlink:href="#DejaVuSans-61" transform="translate(285.449219 0)"/>
     <use xlink:href="#DejaVuSans-6c" transform="translate(346.728516 0)"/>
     <use xlink:href="#DejaVuSans-20" transform="translate(374.511719 0)"/>
     <use xlink:href="#DejaVuSans-72" transform="translate(406.298828 0)"/>
     <use xlink:href="#DejaVuSans-61" transform="translate(447.412109 0)"/>
     <use xlink:href="#DejaVuSans-63" transform="translate(508.691406 0)"/>
     <use xlink:href="#DejaVuSans-6b" transform="translate(563.671875 0)"/>
    </g>
    <!-- ($i_S$=20, unassisted) -->
    <g style="fill: #1f77b4" transform="translate(473.951471 97.465646) scale(0.075 -0.075)">
     <defs>
      <path id="DejaVuSans-3d" d="M 678 2906 
L 4684 2906 
L 4684 2381 
L 678 2381 
L 678 2906 
z
M 678 1631 
L 4684 1631 
L 4684 1100 
L 678 1100 
L 678 1631 
z
" transform="scale(0.015625)"/>
      <path id="DejaVuSans-30" d="M 2034 4250 
Q 1547 4250 1301 3770 
Q 1056 3291 1056 2328 
Q 1056 1369 1301 889 
Q 1547 409 2034 409 
Q 2525 409 2770 889 
Q 3016 1369 3016 2328 
Q 3016 3291 2770 3770 
Q 2525 4250 2034 4250 
z
M 2034 4750 
Q 2819 4750 3233 4129 
Q 3647 3509 3647 2328 
Q 3647 1150 3233 529 
Q 2819 -91 2034 -91 
Q 1250 -91 836 529 
Q 422 1150 422 2328 
Q 422 3509 836 4129 
Q 1250 4750 2034 4750 
z
" transform="scale(0.015625)"/>
     </defs>
     <use xlink:href="#DejaVuSans-28" transform="translate(0 0.015625)"/>
     <use xlink:href="#DejaVuSans-Oblique-69" transform="translate(39.013672 0.015625)"/>
     <use xlink:href="#DejaVuSans-Oblique-53" transform="translate(66.796875 -16.390625) scale(0.7)"/>
     <use xlink:href="#DejaVuSans-3d" transform="translate(113.964844 0.015625)"/>
     <use xlink:href="#DejaVuSans-32" transform="translate(197.753906 0.015625)"/>
     <use xlink:href="#DejaVuSans-30" transform="translate(261.376953 0.015625)"/>
     <use xlink:href="#DejaVuSans-2c" transform="translate(325 0.015625)"/>
     <use xlink:href="#DejaVuSans-20" transform="translate(356.787109 0.015625)"/>
     <use xlink:href="#DejaVuSans-75" transform="translate(388.574219 0.015625)"/>
     <use xlink:href="#DejaVuSans-6e" transform="translate(451.953125 0.015625)"/>
     <use xlink:href="#DejaVuSans-61" transform="translate(515.332031 0.015625)"/>
     <use xlink:href="#DejaVuSans-73" transform="translate(576.611328 0.015625)"/>
     <use xlink:href="#DejaVuSans-73" transform="translate(628.710938 0.015625)"/>
     <use xlink:href="#DejaVuSans-69" transform="translate(680.810547 0.015625)"/>
     <use xlink:href="#DejaVuSans-73" transform="translate(708.59375 0.015625)"/>
     <use xlink:href="#DejaVuSans-74" transform="translate(760.693359 0.015625)"/>
     <use xlink:href="#DejaVuSans-65" transform="translate(799.902344 0.015625)"/>
     <use xlink:href="#DejaVuSans-64" transform="translate(861.425781 0.015625)"/>
     <use xlink:href="#DejaVuSans-29" transform="translate(924.902344 0.015625)"/>
    </g>
   </g>
   <g id="text_11">
    <!-- tricycle -->
    <g style="fill: #1f77b4" transform="translate(584.423024 89.067287) scale(0.075 -0.075)">
     <defs>
      <path id="DejaVuSans-79" d="M 2059 -325 
Q 1816 -950 1584 -1140 
Q 1353 -1331 966 -1331 
L 506 -1331 
L 506 -850 
L 844 -850 
Q 1081 -850 1212 -737 
Q 1344 -625 1503 -206 
L 1606 56 
L 191 3500 
L 800 3500 
L 1894 763 
L 2988 3500 
L 3597 3500 
L 2059 -325 
z
" transform="scale(0.015625)"/>
     </defs>
     <use xlink:href="#DejaVuSans-74"/>
     <use xlink:href="#DejaVuSans-72" transform="translate(39.208984 0)"/>
     <use xlink:href="#DejaVuSans-69" transform="translate(80.322266 0)"/>
     <use xlink:href="#DejaVuSans-63" transform="translate(108.105469 0)"/>
     <use xlink:href="#DejaVuSans-79" transform="translate(163.085938 0)"/>
     <use xlink:href="#DejaVuSans-63" transform="translate(222.265625 0)"/>
     <use xlink:href="#DejaVuSans-6c" transform="translate(277.246094 0)"/>
     <use xlink:href="#DejaVuSans-65" transform="translate(305.029297 0)"/>
    </g>
    <!-- vehicle -->
    <g style="fill: #1f77b4" transform="translate(584.812672 97.465646) scale(0.075 -0.075)">
     <use xlink:href="#DejaVuSans-76"/>
     <use xlink:href="#DejaVuSans-65" transform="translate(59.179688 0)"/>
     <use xlink:href="#DejaVuSans-68" transform="translate(120.703125 0)"/>
     <use xlink:href="#DejaVuSans-69" transform="translate(184.082031 0)"/>
     <use xlink:href="#DejaVuSans-63" transform="translate(211.865234 0)"/>
     <use xlink:href="#DejaVuSans-6c" transform="translate(266.845703 0)"/>
     <use xlink:href="#DejaVuSans-65" transform="translate(294.628906 0)"/>
    </g>
   </g>
   <g id="patch_19">
    <path d="M 194.232176 154.605882 
L 201.277588 150.691765 
L 194.232176 146.777647 
z
" clip-path="url(#p60f2ea588b)" style="fill: #00008c; stroke: #00008c; stroke-linejoin: miter"/>
   </g>
   <g id="patch_20">
    <path d="M 204.017471 154.605882 
L 211.062882 150.691765 
L 204.017471 146.777647 
z
" clip-path="url(#p60f2ea588b)" style="fill: #00008c; stroke: #00008c; stroke-linejoin: miter"/>
   </g>
   <g id="patch_21">
    <path d="M 282.299824 154.605882 
L 289.345235 150.691765 
L 282.299824 146.777647 
z
" clip-path="url(#p60f2ea588b)" style="fill: #00008c; stroke: #00008c; stroke-linejoin: miter"/>
   </g>
   <g id="patch_22">
    <path d="M 292.085118 154.605882 
L 299.130529 150.691765 
L 292.085118 146.777647 
z
" clip-path="url(#p60f2ea588b)" style="fill: #00008c; stroke: #00008c; stroke-linejoin: miter"/>
   </g>
   <g id="patch_23">
    <path d="M 370.367471 154.605882 
L 377.412882 150.691765 
L 370.367471 146.777647 
z
" clip-path="url(#p60f2ea588b)" style="fill: #00008c; stroke: #00008c; stroke-linejoin: miter"/>
   </g>
   <g id="patch_24">
    <path d="M 380.152765 154.605882 
L 387.198176 150.691765 
L 380.152765 146.777647 
z
" clip-path="url(#p60f2ea588b)" style="fill: #00008c; stroke: #00008c; stroke-linejoin: miter"/>
   </g>
   <g id="patch_25">
    <path d="M 458.435118 154.605882 
L 465.480529 150.691765 
L 458.435118 146.777647 
z
" clip-path="url(#p60f2ea588b)" style="fill: #00008c; stroke: #00008c; stroke-linejoin: miter"/>
   </g>
   <g id="patch_26">
    <path d="M 468.220412 154.605882 
L 475.265824 150.691765 
L 468.220412 146.777647 
z
" clip-path="url(#p60f2ea588b)" style="fill: #00008c; stroke: #00008c; stroke-linejoin: miter"/>
   </g>
   <g id="patch_27">
    <path d="M 546.502765 154.605882 
L 553.548176 150.691765 
L 546.502765 146.777647 
z
" clip-path="url(#p60f2ea588b)" style="fill: #00008c; stroke: #00008c; stroke-linejoin: miter"/>
   </g>
   <g id="patch_28">
    <path d="M 556.288059 154.605882 
L 563.333471 150.691765 
L 556.288059 146.777647 
z
" clip-path="url(#p60f2ea588b)" style="fill: #00008c; stroke: #00008c; stroke-linejoin: miter"/>
   </g>
   <g id="patch_29">
    <path d="M 594.255 187.093059 
L 598.169118 194.138471 
L 602.083235 187.093059 
z
" clip-path="url(#p60f2ea588b)" style="fill: #00008c; stroke: #00008c; stroke-linejoin: miter"/>
   </g>
   <g id="patch_30">
    <path d="M 161.745 192.572824 
L 157.830882 185.527412 
L 153.916765 192.572824 
z
" clip-path="url(#p60f2ea588b)" style="fill: #00008c; stroke: #00008c; stroke-linejoin: miter"/>
   </g>
  </g>
 </g>
 <defs>
  <clipPath id="p60f2ea588b">
   <rect x="79.548529" y="25.44" width="596.902941" height="266.16"/>
  </clipPath>
 </defs>
</svg>
