<?xml version="1.0" encoding="utf-8" standalone="no"?>
<!DOCTYPE svg PUBLIC "-//W3C//DTD SVG 1.1//EN"
  "http://www.w3.org/Graphics/SVG/1.1/DTD/svg11.dtd">
<svg xmlns:xlink="http://www.w3.org/1999/xlink" width="648pt" height="403.2pt" viewBox="0 0 648 403.2" xmlns="http://www.w3.org/2000/svg" version="1.1">
 <metadata>
  <rdf:RDF xmlns:dc="http://purl.org/dc/elements/1.1/" xmlns:cc="http://creativecommons.org/ns#" xmlns:rdf="http://www.w3.org/1999/02/22-rdf-syntax-ns#">
   <cc:Work>
    <dc:type rdf:resource="http://purl.org/dc/dcmitype/StillImage"/>
    <dc:date>2026-07-02T19:58:42.794527</dc:date>
    <dc:format>image/svg+xml</dc:format>
    <dc:creator>
     <cc:Agent>
      <dc:title>Matplotlib v3.10.8, https://matplotlib.org/</dc:title>
     </cc:Agent>
    </dc:creator>
   </cc:Work>
  </rdf:RDF>
 </metadata>
 <defs>
  <style type="text/css">*{stroke-linejoin: round; stroke-linecap: butt}</style>
 </defs>
 <g id="figure_1">
  <g id="patch_1">
   <path d="M 0 403.2 
L 648 403.2 
L 648 0 
L 0 0 
L 0 403.2 
z
" style="fill: none"/>
  </g>
  <g id="axes_1">
   <g id="patch_2">
    <path d="M 59.24 184.237273 
L 637.2 184.237273 
L 637.2 26.88 
L 59.24 26.88 
L 59.24 184.237273 
z
" style="fill: none"/>
   </g>
   <g id="matplotlib.axis_1">
    <g id="xtick_1">
     <g id="line2d_1">
      <path d="M 85.510909 184.237273 
L 85.510909 26.88 
" clip-path="url(#p77aadd3dc5)" style="fill: none; stroke: #b0b0b0; stroke-opacity: 0.3; stroke-width: 0.8; stroke-linecap: square"/>
     </g>
     <g id="line2d_2">
      <defs>
       <path id="mcaa970847b" d="M 0 0 
L 0 3.5 
" style="stroke: #000000; stroke-width: 0.8"/>
      </defs>
      <g>
       <use xlink:href="#mcaa970847b" x="85.510909" y="184.237273" style="stroke: #000000; stroke-width: 0.8"/>
      </g>
     </g>
    </g>
    <g id="xtick_2">
     <g id="line2d_3">
      <path d="M 151.188182 184.237273 
L 151.188182 26.88 
" clip-path="url(#p77aadd3dc5)" style="fill: none; stroke: #b0b0b0; stroke-opacity: 0.3; stroke-width: 0.8; stroke-linecap: square"/>
     </g>
     <g id="line2d_4">
      <g>
       <use xlink:href="#mcaa970847b" x="151.188182" y="184.237273" style="stroke: #000000; stroke-width: 0.8"/>
      </g>
     </g>
    </g>
    <g id="xtick_3">
     <g id="line2d_5">
      <path d="M 216.865455 184.237273 
L 216.865455 26.88 
" clip-path="url(#p77aadd3dc5)" style="fill: none; stroke: #b0b0b0; stroke-opacity: 0.3; stroke-width: 0.8; stroke-linecap: square"/>
     </g>
     <g id="line2d_6">
      <g>
       <use xlink:href="#mcaa970847b" x="216.865455" y="184.237273" style="stroke: #000000; stroke-width: 0.8"/>
      </g>
     </g>
    </g>
    <g id="xtick_4">
     <g id="line2d_7">
      <path d="M 282.542727 184.237273 
L 282.542727 26.88 
" clip-path="url(#p77aadd3dc5)" style="fill: none; stroke: #b0b0b0; stroke-opacity: 0.3; stroke-width: 0.8; stroke-linecap: square"/>
     </g>
     <g id="line2d_8">
      <g>
       <use xlink:href="#mcaa970847b" x="282.542727" y="184.237273" style="stroke: #000000; stroke-width: 0.8"/>
      </g>
     </g>
    </g>
    <g id="xtick_5">
     <g id="line2d_9">
      <path d="M 348.22 184.237273 
L 348.22 26.88 
" clip-path="url(#p77aadd3dc5)" style="fill: none; stroke: #b0b0b0; stroke-opacity: 0.3; stroke-width: 0.8; stroke-linecap: square"/>
     </g>
     <g id="line2d_10">
      <g>
       <use xlink:href="#mcaa970847b" x="348.22" y="184.237273" style="stroke: #000000; stroke-width: 0.8"/>
      </g>
     </g>
    </g>
    <g id="xtick_6">
     <g id="line2d_11">
      <path d="M 413.897273 184.237273 
L 413.897273 26.88 
" clip-path="url(#p77aadd3dc5)" style="fill: none; stroke: #b0b0b0; stroke-opacity: 0.3; stroke-width: 0.8; stroke-linecap: square"/>
     </g>
     <g id="line2d_12">
      <g>
       <use xlink:href="#mcaa970847b" x="413.897273" y="184.237273" style="stroke: #000000; stroke-width: 0.8"/>
      </g>
     </g>
    </g>
    <g id="xtick_7">
     <g id="line2d_13">
      <path d="M 479.574545 184.237273 
L 479.574545 26.88 
" clip-path="url(#p77aadd3dc5)" style="fill: none; stroke: #b0b0b0; stroke-opacity: 0.3; stroke-width: 0.8; stroke-linecap: square"/>
     </g>
     <g id="line2d_14">
      <g>
       <use xlink:href="#mcaa970847b" x="479.574545" y="184.237273" style="stroke: #000000; stroke-width: 0.8"/>
      </g>
     </g>
    </g>
    <g id="xtick_8">
     <g id="line2d_15">
      <path d="M 545.251818 184.237273 
L 545.251818 26.88 
" clip-path="url(#p77aadd3dc5)" style="fill: none; stroke: #b0b0b0; stroke-opacity: 0.3; stroke-width: 0.8; stroke-linecap: square"/>
     </g>
     <g id="line2d_16">
      <g>
       <use xlink:href="#mcaa970847b" x="545.251818" y="184.237273" style="stroke: #000000; stroke-width: 0.8"/>
      </g>
     </g>
    </g>
    <g id="xtick_9">
     <g id="line2d_17">
      <path d="M 610.929091 184.237273 
L 610.929091 26.88 
" clip-path="url(#p77aadd3dc5)" style="fill: none; stroke: #b0b0b0; stroke-opacity: 0.3; stroke-width: 0.8; stroke-linecap: square"/>
     </g>
     <g id="line2d_18">
      <g>
       <use xlink:href="#mcaa970847b" x="610.929091" y="184.237273" style="stroke: #000000; stroke-width: 0.8"/>
      </g>
     </g>
    </g>
   </g>
   <g id="matplotlib.axis_2">
    <g id="ytick_1">
     <g id="line2d_19">
      <path d="M 59.24 180.161158 
L 637.2 180.161158 
" clip-path="url(#p77aadd3dc5)" style="fill: none; stroke: #b0b0b0; stroke-opacity: 0.3; stroke-width: 0.8; stroke-linecap: square"/>
     </g>
     <g id="line2d_20">
      <defs>
       <path id="mf6951f5b38" d="M 0 0 
L -3.5 0 
" style="stroke: #000000; stroke-width: 0.8"/>
      </defs>
      <g>
       <use xlink:href="#mf6951f5b38" x="59.24" y="180.161158" style="stroke: #000000; stroke-width: 0.8"/>
      </g>
     </g>
     <g id="text_1">
      <!-- −100 -->
      <g transform="translate(24.772813 183.960377) scale(0.1 -0.1)">
       <defs>
        <path id="DejaVuSans-2212" d="M 678 2272 
L 4684 2272 
L 4684 1741 
L 678 1741 
L 678 2272 
z
" transform="scale(0.015625)"/>
        <path id="DejaVuSans-31" d="M 794 531 
L 1825 531 
L 1825 4091 
L 703 3866 
L 703 4441 
L 1819 4666 
L 2450 4666 
L 2450 531 
L 3481 531 
L 3481 0 
L 794 0 
L 794 531 
z
" transform="scale(0.015625)"/>
        <path id="DejaVuSans-30" d="M 2034 4250 
Q 1547 4250 1301 3770 
Q 1056 3291 1056 2328 
Q 1056 1369 1301 889 
Q 1547 409 2034 409 
Q 2525 409 2770 889 
Q 3016 1369 3016 2328 
Q 3016 3291 2770 3770 
Q 2525 4250 2034 4250 
z
M 2034 4750 
Q 2819 4750 3233 4129 
Q 3647 3509 3647 2328 
Q 3647 1150 3233 529 
Q 2819 -91 2034 -91 
Q 1250 -91 836 529 
Q 422 1150 422 2328 
Q 422 3509 836 4129 
Q 1250 4750 2034 4750 
z
" transform="scale(0.015625)"/>
       </defs>
       <use xlink:href="#DejaVuSans-2212"/>
       <use xlink:href="#DejaVuSans-31" transform="translate(83.789062 0)"/>
       <use xlink:href="#DejaVuSans-30" transform="translate(147.412109 0)"/>
       <use xlink:href="#DejaVuSans-30" transform="translate(211.035156 0)"/>
      </g>
     </g>
    </g>
    <g id="ytick_2">
     <g id="line2d_21">
      <path d="M 59.24 145.799332 
L 637.2 145.799332 
" clip-path="url(#p77aadd3dc5)" style="fill: none; stroke: #b0b0b0; stroke-opacity: 0.3; stroke-width: 0.8; stroke-linecap: square"/>
     </g>
     <g id="line2d_22">
      <g>
       <use xlink:href="#mf6951f5b38" x="59.24" y="145.799332" style="stroke: #000000; stroke-width: 0.8"/>
      </g>
     </g>
     <g id="text_2">
      <!-- −50 -->
      <g transform="translate(31.135313 149.598551) scale(0.1 -0.1)">
       <defs>
        <path id="DejaVuSans-35" d="M 691 4666 
L 3169 4666 
L 3169 4134 
L 1269 4134 
L 1269 2991 
Q 1406 3038 1543 3061 
Q 1681 3084 1819 3084 
Q 2600 3084 3056 2656 
Q 3513 2228 3513 1497 
Q 3513 744 3044 326 
Q 2575 -91 1722 -91 
Q 1428 -91 1123 -41 
Q 819 9 494 109 
L 494 744 
Q 775 591 1075 516 
Q 1375 441 1709 441 
Q 2250 441 2565 725 
Q 2881 1009 2881 1497 
Q 2881 1984 2565 2268 
Q 2250 2553 1709 2553 
Q 1456 2553 1204 2497 
Q 953 2441 691 2322 
L 691 4666 
z
" transform="scale(0.015625)"/>
       </defs>
       <use xlink:href="#DejaVuSans-2212"/>
       <use xlink:href="#DejaVuSans-35" transform="translate(83.789062 0)"/>
       <use xlink:href="#DejaVuSans-30" transform="translate(147.412109 0)"/>
      </g>
     </g>
    </g>
    <g id="ytick_3">
     <g id="line2d_23">
      <path d="M 59.24 111.437506 
L 637.2 111.437506 
" clip-path="url(#p77aadd3dc5)" style="fill: none; stroke: #b0b0b0; stroke-opacity: 0.3; stroke-width: 0.8; stroke-linecap: square"/>
     </g>
     <g id="line2d_24">
      <g>
       <use xlink:href="#mf6951f5b38" x="59.24" y="111.437506" style="stroke: #000000; stroke-width: 0.8"/>
      </g>
     </g>
     <g id="text_3">
      <!-- 0 -->
      <g transform="translate(45.8775 115.236725) scale(0.1 -0.1)">
       <use xlink:href="#DejaVuSans-30"/>
      </g>
     </g>
    </g>
    <g id="ytick_4">
     <g id="line2d_25">
      <path d="M 59.24 77.075681 
L 637.2 77.075681 
" clip-path="url(#p77aadd3dc5)" style="fill: none; stroke: #b0b0b0; stroke-opacity: 0.3; stroke-width: 0.8; stroke-linecap: square"/>
     </g>
     <g id="line2d_26">
      <g>
       <use xlink:href="#mf6951f5b38" x="59.24" y="77.075681" style="stroke: #000000; stroke-width: 0.8"/>
      </g>
     </g>
     <g id="text_4">
      <!-- 50 -->
      <g transform="translate(39.515 80.874899) scale(0.1 -0.1)">
       <use xlink:href="#DejaVuSans-35"/>
       <use xlink:href="#DejaVuSans-30" transform="translate(63.623047 0)"/>
      </g>
     </g>
    </g>
    <g id="ytick_5">
     <g id="line2d_27">
      <path d="M 59.24 42.713855 
L 637.2 42.713855 
" clip-path="url(#p77aadd3dc5)" style="fill: none; stroke: #b0b0b0; stroke-opacity: 0.3; stroke-width: 0.8; stroke-linecap: square"/>
     </g>
     <g id="line2d_28">
      <g>
       <use xlink:href="#mf6951f5b38" x="59.24" y="42.713855" style="stroke: #000000; stroke-width: 0.8"/>
      </g>
     </g>
     <g id="text_5">
      <!-- 100 -->
      <g transform="translate(33.1525 46.513074) scale(0.1 -0.1)">
       <use xlink:href="#DejaVuSans-31"/>
       <use xlink:href="#DejaVuSans-30" transform="translate(63.623047 0)"/>
       <use xlink:href="#DejaVuSans-30" transform="translate(127.246094 0)"/>
      </g>
     </g>
    </g>
    <g id="text_6">
     <!-- handwheel angle [deg] -->
     <g transform="translate(18.693125 163.311761) rotate(-90) scale(0.1 -0.1)">
      <defs>
       <path id="DejaVuSans-68" d="M 3513 2113 
L 3513 0 
L 2938 0 
L 2938 2094 
Q 2938 2591 2744 2837 
Q 2550 3084 2163 3084 
Q 1697 3084 1428 2787 
Q 1159 2491 1159 1978 
L 1159 0 
L 581 0 
L 581 4863 
L 1159 4863 
L 1159 2956 
Q 1366 3272 1645 3428 
Q 1925 3584 2291 3584 
Q 2894 3584 3203 3211 
Q 3513 2838 3513 2113 
z
" transform="scale(0.015625)"/>
       <path id="DejaVuSans-61" d="M 2194 1759 
Q 1497 1759 1228 1600 
Q 959 1441 959 1056 
Q 959 750 1161 570 
Q 1363 391 1709 391 
Q 2188 391 2477 730 
Q 2766 1069 2766 1631 
L 2766 1759 
L 2194 1759 
z
M 3341 1997 
L 3341 0 
L 2766 0 
L 2766 531 
Q 2569 213 2275 61 
Q 1981 -91 1556 -91 
Q 1019 -91 701 211 
Q 384 513 384 1019 
Q 384 1609 779 1909 
Q 1175 2209 1959 2209 
L 2766 2209 
L 2766 2266 
Q 2766 2663 2505 2880 
Q 2244 3097 1772 3097 
Q 1472 3097 1187 3025 
Q 903 2953 641 2809 
L 641 3341 
Q 956 3463 1253 3523 
Q 1550 3584 1831 3584 
Q 2591 3584 2966 3190 
Q 3341 2797 3341 1997 
z
" transform="scale(0.015625)"/>
       <path id="DejaVuSans-6e" d="M 3513 2113 
L 3513 0 
L 2938 0 
L 2938 2094 
Q 2938 2591 2744 2837 
Q 2550 3084 2163 3084 
Q 1697 3084 1428 2787 
Q 1159 2491 1159 1978 
L 1159 0 
L 581 0 
L 581 3500 
L 1159 3500 
L 1159 2956 
Q 1366 3272 1645 3428 
Q 1925 3584 2291 3584 
Q 2894 3584 3203 3211 
Q 3513 2838 3513 2113 
z
" transform="scale(0.015625)"/>
       <path id="DejaVuSans-64" d="M 2906 2969 
L 2906 4863 
L 3481 4863 
L 3481 0 
L 2906 0 
L 2906 525 
Q 2725 213 2448 61 
Q 2172 -91 1784 -91 
Q 1150 -91 751 415 
Q 353 922 353 1747 
Q 353 2572 751 3078 
Q 1150 3584 1784 3584 
Q 2172 3584 2448 3432 
Q 2725 3281 2906 2969 
z
M 947 1747 
Q 947 1113 1208 752 
Q 1469 391 1925 391 
Q 2381 391 2643 752 
Q 2906 1113 2906 1747 
Q 2906 2381 2643 2742 
Q 2381 3103 1925 3103 
Q 1469 3103 1208 2742 
Q 947 2381 947 1747 
z
" transform="scale(0.015625)"/>
       <path id="DejaVuSans-77" d="M 269 3500 
L 844 3500 
L 1563 769 
L 2278 3500 
L 2956 3500 
L 3675 769 
L 4391 3500 
L 4966 3500 
L 4050 0 
L 3372 0 
L 2619 2869 
L 1863 0 
L 1184 0 
L 269 3500 
z
" transform="scale(0.015625)"/>
       <path id="DejaVuSans-65" d="M 3597 1894 
L 3597 1613 
L 953 1613 
Q 991 1019 1311 708 
Q 1631 397 2203 397 
Q 2534 397 2845 478 
Q 3156 559 3463 722 
L 3463 178 
Q 3153 47 2828 -22 
Q 2503 -91 2169 -91 
Q 1331 -91 842 396 
Q 353 884 353 1716 
Q 353 2575 817 3079 
Q 1281 3584 2069 3584 
Q 2775 3584 3186 3129 
Q 3597 2675 3597 1894 
z
M 3022 2063 
Q 3016 2534 2758 2815 
Q 2500 3097 2075 3097 
Q 1594 3097 1305 2825 
Q 1016 2553 972 2059 
L 3022 2063 
z
" transform="scale(0.015625)"/>
       <path id="DejaVuSans-6c" d="M 603 4863 
L 1178 4863 
L 1178 0 
L 603 0 
L 603 4863 
z
" transform="scale(0.015625)"/>
       <path id="DejaVuSans-20" transform="scale(0.015625)"/>
       <path id="DejaVuSans-67" d="M 2906 1791 
Q 2906 2416 2648 2759 
Q 2391 3103 1925 3103 
Q 1463 3103 1205 2759 
Q 947 2416 947 1791 
Q 947 1169 1205 825 
Q 1463 481 1925 481 
Q 2391 481 2648 825 
Q 2906 1169 2906 1791 
z
M 3481 434 
Q 3481 -459 3084 -895 
Q 2688 -1331 1869 -1331 
Q 1566 -1331 1297 -1286 
Q 1028 -1241 775 -1147 
L 775 -588 
Q 1028 -725 1275 -790 
Q 1522 -856 1778 -856 
Q 2344 -856 2625 -561 
Q 2906 -266 2906 331 
L 2906 616 
Q 2728 306 2450 153 
Q 2172 0 1784 0 
Q 1141 0 747 490 
Q 353 981 353 1791 
Q 353 2603 747 3093 
Q 1141 3584 1784 3584 
Q 2172 3584 2450 3431 
Q 2728 3278 2906 2969 
L 2906 3500 
L 3481 3500 
L 3481 434 
z
" transform="scale(0.015625)"/>
       <path id="DejaVuSans-5b" d="M 550 4863 
L 1875 4863 
L 1875 4416 
L 1125 4416 
L 1125 -397 
L 1875 -397 
L 1875 -844 
L 550 -844 
L 550 4863 
z
" transform="scale(0.015625)"/>
       <path id="DejaVuSans-5d" d="M 1947 4863 
L 1947 -844 
L 622 -844 
L 622 -397 
L 1369 -397 
L 1369 4416 
L 622 4416 
L 622 4863 
L 1947 4863 
z
" transform="scale(0.015625)"/>
      </defs>
      <use xlink:href="#DejaVuSans-68"/>
      <use xlink:href="#DejaVuSans-61" transform="translate(63.378906 0)"/>
      <use xlink:href="#DejaVuSans-6e" transform="translate(124.658203 0)"/>
      <use xlink:href="#DejaVuSans-64" transform="translate(188.037109 0)"/>
      <use xlink:href="#DejaVuSans-77" transform="translate(251.513672 0)"/>
      <use xlink:href="#DejaVuSans-68" transform="translate(333.300781 0)"/>
      <use xlink:href="#DejaVuSans-65" transform="translate(396.679688 0)"/>
      <use xlink:href="#DejaVuSans-65" transform="translate(458.203125 0)"/>
      <use xlink:href="#DejaVuSans-6c" transform="translate(519.726562 0)"/>
      <use xlink:href="#DejaVuSans-20" transform="translate(547.509766 0)"/>
      <use xlink:href="#DejaVuSans-61" transform="translate(579.296875 0)"/>
      <use xlink:href="#DejaVuSans-6e" transform="translate(640.576172 0)"/>
      <use xlink:href="#DejaVuSans-67" transform="translate(703.955078 0)"/>
      <use xlink:href="#DejaVuSans-6c" transform="translate(767.431641 0)"/>
      <use xlink:href="#DejaVuSans-65" transform="translate(795.214844 0)"/>
      <use xlink:href="#DejaVuSans-20" transform="translate(856.738281 0)"/>
      <use xlink:href="#DejaVuSans-5b" transform="translate(888.525391 0)"/>
      <use xlink:href="#DejaVuSans-64" transform="translate(927.539062 0)"/>
      <use xlink:href="#DejaVuSans-65" transform="translate(991.015625 0)"/>
      <use xlink:href="#DejaVuSans-67" transform="translate(1052.539062 0)"/>
      <use xlink:href="#DejaVuSans-5d" transform="translate(1116.015625 0)"/>
     </g>
    </g>
   </g>
   <g id="line2d_29">
    <path d="M 85.510909 111.437506 
L 97.267141 111.326772 
L 98.712041 111.051869 
L 99.959909 110.588714 
L 101.076423 109.944561 
L 102.192936 109.048676 
L 103.375127 107.802693 
L 104.622995 106.147537 
L 106.002218 103.927444 
L 107.578473 100.947224 
L 109.614468 96.575056 
L 116.510582 81.30802 
L 118.349545 78.008935 
L 119.991477 75.506205 
L 121.567732 73.504842 
L 123.078309 71.939555 
L 124.588886 70.69013 
L 126.099464 69.720966 
L 127.675718 68.969304 
L 129.31765 68.429937 
L 131.025259 68.100882 
L 132.798545 67.990436 
L 134.506155 68.105639 
L 136.148086 68.43488 
L 137.724341 68.974608 
L 139.234918 69.723044 
L 140.745495 70.725197 
L 142.256073 72.008752 
L 143.76665 73.599901 
L 145.277227 75.521441 
L 146.853482 77.897844 
L 148.495414 80.789432 
L 150.203023 84.249786 
L 152.107664 88.638533 
L 154.209336 94.075743 
L 156.705073 101.197856 
L 160.645709 113.248927 
L 164.126605 123.62897 
L 166.228277 129.230409 
L 168.001564 133.339225 
L 169.577818 136.435809 
L 171.022718 138.80292 
L 172.467618 140.750086 
L 173.978195 142.406422 
L 175.685805 143.936743 
L 178.247218 145.88834 
L 181.596759 148.490171 
L 183.829786 150.527362 
L 189.412355 155.839915 
L 190.660223 156.605868 
L 191.776736 157.031567 
L 192.761895 157.1734 
L 193.681377 157.091434 
L 194.600859 156.792981 
L 195.586018 156.228078 
L 196.636855 155.346637 
L 197.753368 154.102866 
L 199.001236 152.358194 
L 200.380459 150.032554 
L 202.022391 146.794526 
L 203.992709 142.380298 
L 206.816832 135.433988 
L 212.071014 122.4454 
L 214.304041 117.5711 
L 216.143005 114.058262 
L 217.784936 111.369906 
L 219.295514 109.298933 
L 220.740414 107.688252 
L 222.119636 106.485237 
L 223.433182 105.631571 
L 224.746727 105.044631 
L 226.060273 104.700755 
L 227.439495 104.570754 
L 228.950073 104.658697 
L 230.657682 104.989903 
L 232.693677 105.619046 
L 235.452123 106.720745 
L 240.049532 108.829543 
L 251.214668 114.020845 
L 253.841759 114.92773 
L 256.140464 115.491775 
L 258.373491 115.809731 
L 261.197614 116.201467 
L 262.445482 116.618254 
L 263.496318 117.193775 
L 264.547155 118.030617 
L 265.597991 119.169468 
L 266.648827 120.636732 
L 267.831018 122.692541 
L 269.144564 125.467331 
L 270.589464 129.058733 
L 272.428427 134.277322 
L 275.383905 143.475082 
L 278.667768 153.49138 
L 280.703764 158.996097 
L 282.47705 163.160979 
L 284.053305 166.327396 
L 285.563882 168.889122 
L 287.008782 170.925805 
L 288.453682 172.585844 
L 289.832905 173.84672 
L 291.212127 174.815814 
L 292.59135 175.511708 
L 293.904895 175.930643 
L 295.218441 176.113949 
L 296.466309 176.064965 
L 297.714177 175.787617 
L 298.896368 175.299385 
L 300.078559 174.573406 
L 301.26075 173.588212 
L 302.442941 172.31962 
L 303.690809 170.644164 
L 304.938677 168.591576 
L 306.252223 165.987701 
L 307.631445 162.724563 
L 309.010668 158.880581 
L 310.455568 154.193976 
L 311.966145 148.542865 
L 313.608077 141.513221 
L 315.381364 132.90136 
L 317.351682 122.18704 
L 319.781741 107.647037 
L 326.218114 68.337111 
L 327.860045 60.043916 
L 329.304945 53.82343 
L 330.618491 49.096449 
L 331.866359 45.397132 
L 333.04855 42.545629 
L 334.165064 40.386469 
L 335.281577 38.702033 
L 336.332414 37.51377 
L 337.317573 36.721202 
L 338.302732 36.216449 
L 339.222214 35.987517 
L 340.141695 35.978045 
L 341.126855 36.197494 
L 342.177691 36.678633 
L 343.294205 37.453234 
L 344.476395 38.551554 
L 345.789941 40.086012 
L 347.234841 42.129159 
L 348.811095 44.750372 
L 350.584382 48.149961 
L 352.489023 52.293031 
L 354.590695 57.418572 
L 356.823723 63.473689 
L 359.188105 70.549619 
L 361.683841 78.73379 
L 364.442286 88.559795 
L 367.923182 101.847185 
L 373.965491 125.039474 
L 376.067164 132.130602 
L 377.709095 136.91469 
L 379.088318 140.262513 
L 380.270509 142.554422 
L 381.255668 144.009975 
L 382.109473 144.914161 
L 382.8976 145.443587 
L 383.62005 145.668181 
L 384.276823 145.65708 
L 384.999273 145.413119 
L 385.7874 144.880923 
L 386.641205 144.011057 
L 387.626364 142.664839 
L 388.808555 140.635372 
L 390.253455 137.677952 
L 392.28945 132.949857 
L 397.674986 120.211694 
L 399.645305 116.229497 
L 401.418591 113.121933 
L 403.1262 110.566626 
L 404.833809 108.415484 
L 406.541418 106.622732 
L 408.314705 105.080983 
L 410.219345 103.720019 
L 412.255341 102.537863 
L 414.357014 101.57143 
L 416.393009 100.875477 
L 418.29765 100.457024 
L 420.070936 100.294087 
L 421.778545 100.365476 
L 423.420477 100.65979 
L 425.062409 101.180157 
L 426.770018 101.952803 
L 428.674659 103.062215 
L 431.039041 104.715218 
L 438.723282 110.315501 
L 440.759277 111.398751 
L 442.663918 112.161592 
L 444.568559 112.681654 
L 446.538877 112.990204 
L 448.837582 113.118113 
L 451.990091 113.046688 
L 469.657277 112.102141 
L 475.699586 111.28968 
L 480.099964 110.810874 
L 483.580859 110.657919 
L 487.390141 110.722568 
L 502.889977 111.254876 
L 513.201309 111.352303 
L 525.351605 111.568273 
L 571.45705 111.412095 
L 597.793636 111.431953 
L 610.929091 111.444935 
L 610.929091 111.444935 
" clip-path="url(#p77aadd3dc5)" style="fill: none; stroke: #1f77b4; stroke-width: 1.3; stroke-linecap: square"/>
   </g>
   <g id="line2d_30">
    <path d="M 85.510909 111.437506 
L 94.443018 111.338172 
L 95.231145 111.003198 
L 96.08495 110.37435 
L 97.004432 109.391972 
L 97.989591 107.999143 
L 99.106105 106.021184 
L 100.41965 103.212468 
L 102.061582 99.124518 
L 104.688673 91.870154 
L 107.64415 83.897084 
L 109.417436 79.735926 
L 110.928014 76.718919 
L 112.307236 74.422474 
L 113.620782 72.635508 
L 114.934327 71.210493 
L 116.247873 70.105351 
L 117.627095 69.235272 
L 119.137673 68.555726 
L 120.779605 68.062756 
L 122.684245 67.722233 
L 124.851595 67.558089 
L 127.018945 67.609096 
L 128.923586 67.864038 
L 130.631195 68.310538 
L 132.20745 68.954789 
L 133.65235 69.781672 
L 135.09725 70.870402 
L 136.54215 72.252717 
L 137.98705 73.955838 
L 139.43195 76.001345 
L 140.942527 78.522175 
L 142.584459 81.715204 
L 144.292068 85.534325 
L 146.196709 90.369647 
L 148.298382 96.34306 
L 150.859795 104.34713 
L 159.135132 130.85753 
L 160.842741 135.267836 
L 162.287641 138.419408 
L 163.535509 140.653321 
L 164.7177 142.326155 
L 165.834214 143.514291 
L 166.950727 144.368831 
L 168.132918 144.995459 
L 169.709173 145.564791 
L 172.66465 146.592393 
L 174.043873 147.340789 
L 175.423095 148.345643 
L 176.933673 149.736557 
L 178.641282 151.626115 
L 180.808632 154.380267 
L 184.158173 158.677206 
L 185.077655 159.355806 
L 185.931459 159.702085 
L 186.719586 159.777777 
L 187.507714 159.620935 
L 188.295841 159.235983 
L 189.149645 158.569802 
L 190.134805 157.494913 
L 191.251318 155.908655 
L 192.499186 153.720524 
L 193.944086 150.718111 
L 195.717373 146.488366 
L 198.081755 140.220288 
L 205.437609 120.291953 
L 207.473605 115.620131 
L 209.246891 112.095503 
L 210.823145 109.446959 
L 212.268045 107.446527 
L 213.581591 105.99073 
L 214.829459 104.924855 
L 216.01165 104.190342 
L 217.193841 103.708231 
L 218.376032 103.45805 
L 219.6239 103.41796 
L 221.003123 103.601527 
L 222.579377 104.043755 
L 224.549695 104.838665 
L 227.833559 106.443508 
L 233.744514 109.307889 
L 241.625786 113.064379 
L 245.369391 114.76335 
L 247.733773 115.600063 
L 249.769768 116.091453 
L 251.674409 116.329031 
L 253.644727 116.344743 
L 255.7464 116.129842 
L 257.585364 115.940336 
L 258.242136 116.179017 
L 258.964586 116.701479 
L 259.752714 117.582205 
L 260.606518 118.89832 
L 261.591677 120.870077 
L 262.708191 123.653138 
L 264.021736 127.580579 
L 265.663668 133.253343 
L 268.684823 144.709097 
L 271.180559 153.774734 
L 272.953845 159.400993 
L 274.464423 163.494889 
L 275.909323 166.777854 
L 277.288545 169.355687 
L 278.602091 171.350548 
L 279.915636 172.951582 
L 281.229182 174.216627 
L 282.608405 175.242714 
L 284.053305 176.041925 
L 285.563882 176.622228 
L 287.074459 176.968386 
L 288.585036 177.084669 
L 289.964259 176.976193 
L 291.277805 176.658385 
L 292.525673 176.134324 
L 293.773541 175.361674 
L 294.955732 174.368342 
L 296.137923 173.087975 
L 297.320114 171.487229 
L 298.567982 169.412717 
L 299.81585 166.904438 
L 301.129395 163.753989 
L 302.508618 159.838745 
L 303.953518 155.024962 
L 305.464095 149.172322 
L 307.04035 142.142347 
L 308.747959 133.458532 
L 310.586923 122.915068 
L 312.754273 109.100405 
L 315.775427 88.211076 
L 319.256323 64.468305 
L 320.963932 54.336487 
L 322.277477 47.788448 
L 323.393991 43.308544 
L 324.37915 40.261096 
L 325.298632 38.140348 
L 326.152436 36.718428 
L 327.006241 35.734294 
L 327.860045 35.093989 
L 328.779527 34.679154 
L 330.093073 34.352865 
L 332.194745 34.042799 
L 333.179905 34.225831 
L 334.296418 34.672375 
L 335.478609 35.401627 
L 336.6608 36.39512 
L 337.908668 37.733924 
L 339.287891 39.555493 
L 340.798468 41.941005 
L 342.506077 45.084577 
L 344.410718 49.084147 
L 346.512391 54.029407 
L 348.811095 60.027634 
L 351.175477 66.833817 
L 353.605536 74.525879 
L 356.101273 83.175934 
L 358.859718 93.568555 
L 362.340614 107.620775 
L 367.857505 129.928865 
L 369.8935 137.182073 
L 371.469755 142.026176 
L 372.7833 145.379744 
L 373.899814 147.643019 
L 374.819295 149.047597 
L 375.607423 149.891883 
L 376.329873 150.356709 
L 376.986645 150.512454 
L 377.577741 150.429949 
L 378.168836 150.133833 
L 378.825609 149.553933 
L 379.548059 148.614812 
L 380.401864 147.11627 
L 381.387023 144.921042 
L 382.634891 141.573296 
L 384.539532 135.736425 
L 387.95475 125.258578 
L 389.859391 120.197073 
L 391.567 116.2757 
L 393.143255 113.191305 
L 394.653832 110.708268 
L 396.098732 108.737948 
L 397.609309 107.053862 
L 399.185564 105.639293 
L 400.893173 104.412526 
L 402.929168 103.237061 
L 405.556259 101.992079 
L 408.643091 100.771636 
L 411.007473 100.062677 
L 412.846436 99.738443 
L 414.488368 99.677176 
L 415.998945 99.841044 
L 417.509523 100.229906 
L 419.0201 100.848143 
L 420.596355 101.733206 
L 422.369641 102.993169 
L 424.602668 104.87958 
L 431.039041 110.509478 
L 432.878005 111.722364 
L 434.519936 112.551351 
L 436.096191 113.109977 
L 437.738123 113.455312 
L 439.511409 113.592091 
L 441.613082 113.514372 
L 444.831268 113.13632 
L 449.165968 112.671084 
L 452.449832 112.561834 
L 461.119232 112.417888 
L 464.271741 112.027529 
L 474.845782 110.487933 
L 477.735582 110.45571 
L 481.216477 110.65485 
L 490.608327 111.318439 
L 495.205736 111.308242 
L 504.137845 111.245807 
L 511.690732 111.532086 
L 517.404655 111.630181 
L 524.366445 111.485576 
L 532.641782 111.364403 
L 610.929091 111.445294 
L 610.929091 111.445294 
" clip-path="url(#p77aadd3dc5)" style="fill: none; stroke-dasharray: 3.33,1.44; stroke-dashoffset: 0; stroke: #000000; stroke-width: 0.9"/>
   </g>
   <g id="line2d_31">
    <path d="M 59.24 111.437506 
L 637.2 111.437506 
" clip-path="url(#p77aadd3dc5)" style="fill: none; stroke: #000000; stroke-width: 0.4; stroke-linecap: square"/>
   </g>
   <g id="patch_3">
    <path d="M 59.24 184.237273 
L 59.24 26.88 
" style="fill: none; stroke: #000000; stroke-width: 0.8; stroke-linejoin: miter; stroke-linecap: square"/>
   </g>
   <g id="patch_4">
    <path d="M 637.2 184.237273 
L 637.2 26.88 
" style="fill: none; stroke: #000000; stroke-width: 0.8; stroke-linejoin: miter; stroke-linecap: square"/>
   </g>
   <g id="patch_5">
    <path d="M 59.24 184.237273 
L 637.2 184.237273 
" style="fill: none; stroke: #000000; stroke-width: 0.8; stroke-linejoin: miter; stroke-linecap: square"/>
   </g>
   <g id="patch_6">
    <path d="M 59.24 26.88 
L 637.2 26.88 
" style="fill: none; stroke: #000000; stroke-width: 0.8; stroke-linejoin: miter; stroke-linecap: square"/>
   </g>
   <g id="text_7">
    <!-- Manual (unassisted) steering: handwheel angle and steering-feel torque -->
    <g transform="translate(131.171875 20.88) scale(0.12 -0.12)">
     <defs>
      <path id="DejaVuSans-4d" d="M 628 4666 
L 1569 4666 
L 2759 1491 
L 3956 4666 
L 4897 4666 
L 4897 0 
L 4281 0 
L 4281 4097 
L 3078 897 
L 2444 897 
L 1241 4097 
L 1241 0 
L 628 0 
L 628 4666 
z
" transform="scale(0.015625)"/>
      <path id="DejaVuSans-75" d="M 544 1381 
L 544 3500 
L 1119 3500 
L 1119 1403 
Q 1119 906 1312 657 
Q 1506 409 1894 409 
Q 2359 409 2629 706 
Q 2900 1003 2900 1516 
L 2900 3500 
L 3475 3500 
L 3475 0 
L 2900 0 
L 2900 538 
Q 2691 219 2414 64 
Q 2138 -91 1772 -91 
Q 1169 -91 856 284 
Q 544 659 544 1381 
z
M 1991 3584 
L 1991 3584 
z
" transform="scale(0.015625)"/>
      <path id="DejaVuSans-28" d="M 1984 4856 
Q 1566 4138 1362 3434 
Q 1159 2731 1159 2009 
Q 1159 1288 1364 580 
Q 1569 -128 1984 -844 
L 1484 -844 
Q 1016 -109 783 600 
Q 550 1309 550 2009 
Q 550 2706 781 3412 
Q 1013 4119 1484 4856 
L 1984 4856 
z
" transform="scale(0.015625)"/>
      <path id="DejaVuSans-73" d="M 2834 3397 
L 2834 2853 
Q 2591 2978 2328 3040 
Q 2066 3103 1784 3103 
Q 1356 3103 1142 2972 
Q 928 2841 928 2578 
Q 928 2378 1081 2264 
Q 1234 2150 1697 2047 
L 1894 2003 
Q 2506 1872 2764 1633 
Q 3022 1394 3022 966 
Q 3022 478 2636 193 
Q 2250 -91 1575 -91 
Q 1294 -91 989 -36 
Q 684 19 347 128 
L 347 722 
Q 666 556 975 473 
Q 1284 391 1588 391 
Q 1994 391 2212 530 
Q 2431 669 2431 922 
Q 2431 1156 2273 1281 
Q 2116 1406 1581 1522 
L 1381 1569 
Q 847 1681 609 1914 
Q 372 2147 372 2553 
Q 372 3047 722 3315 
Q 1072 3584 1716 3584 
Q 2034 3584 2315 3537 
Q 2597 3491 2834 3397 
z
" transform="scale(0.015625)"/>
      <path id="DejaVuSans-69" d="M 603 3500 
L 1178 3500 
L 1178 0 
L 603 0 
L 603 3500 
z
M 603 4863 
L 1178 4863 
L 1178 4134 
L 603 4134 
L 603 4863 
z
" transform="scale(0.015625)"/>
      <path id="DejaVuSans-74" d="M 1172 4494 
L 1172 3500 
L 2356 3500 
L 2356 3053 
L 1172 3053 
L 1172 1153 
Q 1172 725 1289 603 
Q 1406 481 1766 481 
L 2356 481 
L 2356 0 
L 1766 0 
Q 1100 0 847 248 
Q 594 497 594 1153 
L 594 3053 
L 172 3053 
L 172 3500 
L 594 3500 
L 594 4494 
L 1172 4494 
z
" transform="scale(0.015625)"/>
      <path id="DejaVuSans-29" d="M 513 4856 
L 1013 4856 
Q 1481 4119 1714 3412 
Q 1947 2706 1947 2009 
Q 1947 1309 1714 600 
Q 1481 -109 1013 -844 
L 513 -844 
Q 928 -128 1133 580 
Q 1338 1288 1338 2009 
Q 1338 2731 1133 3434 
Q 928 4138 513 4856 
z
" transform="scale(0.015625)"/>
      <path id="DejaVuSans-72" d="M 2631 2963 
Q 2534 3019 2420 3045 
Q 2306 3072 2169 3072 
Q 1681 3072 1420 2755 
Q 1159 2438 1159 1844 
L 1159 0 
L 581 0 
L 581 3500 
L 1159 3500 
L 1159 2956 
Q 1341 3275 1631 3429 
Q 1922 3584 2338 3584 
Q 2397 3584 2469 3576 
Q 2541 3569 2628 3553 
L 2631 2963 
z
" transform="scale(0.015625)"/>
      <path id="DejaVuSans-3a" d="M 750 794 
L 1409 794 
L 1409 0 
L 750 0 
L 750 794 
z
M 750 3309 
L 1409 3309 
L 1409 2516 
L 750 2516 
L 750 3309 
z
" transform="scale(0.015625)"/>
      <path id="DejaVuSans-2d" d="M 313 2009 
L 1997 2009 
L 1997 1497 
L 313 1497 
L 313 2009 
z
" transform="scale(0.015625)"/>
      <path id="DejaVuSans-66" d="M 2375 4863 
L 2375 4384 
L 1825 4384 
Q 1516 4384 1395 4259 
Q 1275 4134 1275 3809 
L 1275 3500 
L 2222 3500 
L 2222 3053 
L 1275 3053 
L 1275 0 
L 697 0 
L 697 3053 
L 147 3053 
L 147 3500 
L 697 3500 
L 697 3744 
Q 697 4328 969 4595 
Q 1241 4863 1831 4863 
L 2375 4863 
z
" transform="scale(0.015625)"/>
      <path id="DejaVuSans-6f" d="M 1959 3097 
Q 1497 3097 1228 2736 
Q 959 2375 959 1747 
Q 959 1119 1226 758 
Q 1494 397 1959 397 
Q 2419 397 2687 759 
Q 2956 1122 2956 1747 
Q 2956 2369 2687 2733 
Q 2419 3097 1959 3097 
z
M 1959 3584 
Q 2709 3584 3137 3096 
Q 3566 2609 3566 1747 
Q 3566 888 3137 398 
Q 2709 -91 1959 -91 
Q 1206 -91 779 398 
Q 353 888 353 1747 
Q 353 2609 779 3096 
Q 1206 3584 1959 3584 
z
" transform="scale(0.015625)"/>
      <path id="DejaVuSans-71" d="M 947 1747 
Q 947 1113 1208 752 
Q 1469 391 1925 391 
Q 2381 391 2643 752 
Q 2906 1113 2906 1747 
Q 2906 2381 2643 2742 
Q 2381 3103 1925 3103 
Q 1469 3103 1208 2742 
Q 947 2381 947 1747 
z
M 2906 525 
Q 2725 213 2448 61 
Q 2172 -91 1784 -91 
Q 1150 -91 751 415 
Q 353 922 353 1747 
Q 353 2572 751 3078 
Q 1150 3584 1784 3584 
Q 2172 3584 2448 3432 
Q 2725 3281 2906 2969 
L 2906 3500 
L 3481 3500 
L 3481 -1331 
L 2906 -1331 
L 2906 525 
z
" transform="scale(0.015625)"/>
     </defs>
     <use xlink:href="#DejaVuSans-4d"/>
     <use xlink:href="#DejaVuSans-61" transform="translate(86.279297 0)"/>
     <use xlink:href="#DejaVuSans-6e" transform="translate(147.558594 0)"/>
     <use xlink:href="#DejaVuSans-75" transform="translate(210.9375 0)"/>
     <use xlink:href="#DejaVuSans-61" transform="translate(274.316406 0)"/>
     <use xlink:href="#DejaVuSans-6c" transform="translate(335.595703 0)"/>
     <use xlink:href="#DejaVuSans-20" transform="translate(363.378906 0)"/>
     <use xlink:href="#DejaVuSans-28" transform="translate(395.166016 0)"/>
     <use xlink:href="#DejaVuSans-75" transform="translate(434.179688 0)"/>
     <use xlink:href="#DejaVuSans-6e" transform="translate(497.558594 0)"/>
     <use xlink:href="#DejaVuSans-61" transform="translate(560.9375 0)"/>
     <use xlink:href="#DejaVuSans-73" transform="translate(622.216797 0)"/>
     <use xlink:href="#DejaVuSans-73" transform="translate(674.316406 0)"/>
     <use xlink:href="#DejaVuSans-69" transform="translate(726.416016 0)"/>
     <use xlink:href="#DejaVuSans-73" transform="translate(754.199219 0)"/>
     <use xlink:href="#DejaVuSans-74" transform="translate(806.298828 0)"/>
     <use xlink:href="#DejaVuSans-65" transform="translate(845.507812 0)"/>
     <use xlink:href="#DejaVuSans-64" transform="translate(907.03125 0)"/>
     <use xlink:href="#DejaVuSans-29" transform="translate(970.507812 0)"/>
     <use xlink:href="#DejaVuSans-20" transform="translate(1009.521484 0)"/>
     <use xlink:href="#DejaVuSans-73" transform="translate(1041.308594 0)"/>
     <use xlink:href="#DejaVuSans-74" transform="translate(1093.408203 0)"/>
     <use xlink:href="#DejaVuSans-65" transform="translate(1132.617188 0)"/>
     <use xlink:href="#DejaVuSans-65" transform="translate(1194.140625 0)"/>
     <use xlink:href="#DejaVuSans-72" transform="translate(1255.664062 0)"/>
     <use xlink:href="#DejaVuSans-69" transform="translate(1296.777344 0)"/>
     <use xlink:href="#DejaVuSans-6e" transform="translate(1324.560547 0)"/>
     <use xlink:href="#DejaVuSans-67" transform="translate(1387.939453 0)"/>
     <use xlink:href="#DejaVuSans-3a" transform="translate(1451.416016 0)"/>
     <use xlink:href="#DejaVuSans-20" transform="translate(1485.107422 0)"/>
     <use xlink:href="#DejaVuSans-68" transform="translate(1516.894531 0)"/>
     <use xlink:href="#DejaVuSans-61" transform="translate(1580.273438 0)"/>
     <use xlink:href="#DejaVuSans-6e" transform="translate(1641.552734 0)"/>
     <use xlink:href="#DejaVuSans-64" transform="translate(1704.931641 0)"/>
     <use xlink:href="#DejaVuSans-77" transform="translate(1768.408203 0)"/>
     <use xlink:href="#DejaVuSans-68" transform="translate(1850.195312 0)"/>
     <use xlink:href="#DejaVuSans-65" transform="translate(1913.574219 0)"/>
     <use xlink:href="#DejaVuSans-65" transform="translate(1975.097656 0)"/>
     <use xlink:href="#DejaVuSans-6c" transform="translate(2036.621094 0)"/>
     <use xlink:href="#DejaVuSans-20" transform="translate(2064.404297 0)"/>
     <use xlink:href="#DejaVuSans-61" transform="translate(2096.191406 0)"/>
     <use xlink:href="#DejaVuSans-6e" transform="translate(2157.470703 0)"/>
     <use xlink:href="#DejaVuSans-67" transform="translate(2220.849609 0)"/>
     <use xlink:href="#DejaVuSans-6c" transform="translate(2284.326172 0)"/>
     <use xlink:href="#DejaVuSans-65" transform="translate(2312.109375 0)"/>
     <use xlink:href="#DejaVuSans-20" transform="translate(2373.632812 0)"/>
     <use xlink:href="#DejaVuSans-61" transform="translate(2405.419922 0)"/>
     <use xlink:href="#DejaVuSans-6e" transform="translate(2466.699219 0)"/>
     <use xlink:href="#DejaVuSans-64" transform="translate(2530.078125 0)"/>
     <use xlink:href="#DejaVuSans-20" transform="translate(2593.554688 0)"/>
     <use xlink:href="#DejaVuSans-73" transform="translate(2625.341797 0)"/>
     <use xlink:href="#DejaVuSans-74" transform="translate(2677.441406 0)"/>
     <use xlink:href="#DejaVuSans-65" transform="translate(2716.650391 0)"/>
     <use xlink:href="#DejaVuSans-65" transform="translate(2778.173828 0)"/>
     <use xlink:href="#DejaVuSans-72" transform="translate(2839.697266 0)"/>
     <use xlink:href="#DejaVuSans-69" transform="translate(2880.810547 0)"/>
     <use xlink:href="#DejaVuSans-6e" transform="translate(2908.59375 0)"/>
     <use xlink:href="#DejaVuSans-67" transform="translate(2971.972656 0)"/>
     <use xlink:href="#DejaVuSans-2d" transform="translate(3035.449219 0)"/>
     <use xlink:href="#DejaVuSans-66" transform="translate(3071.533203 0)"/>
     <use xlink:href="#DejaVuSans-65" transform="translate(3106.738281 0)"/>
     <use xlink:href="#DejaVuSans-65" transform="translate(3168.261719 0)"/>
     <use xlink:href="#DejaVuSans-6c" transform="translate(3229.785156 0)"/>
     <use xlink:href="#DejaVuSans-20" transform="translate(3257.568359 0)"/>
     <use xlink:href="#DejaVuSans-74" transform="translate(3289.355469 0)"/>
     <use xlink:href="#DejaVuSans-6f" transform="translate(3328.564453 0)"/>
     <use xlink:href="#DejaVuSans-72" transform="translate(3389.746094 0)"/>
     <use xlink:href="#DejaVuSans-71" transform="translate(3429.109375 0)"/>
     <use xlink:href="#DejaVuSans-75" transform="translate(3492.585938 0)"/>
     <use xlink:href="#DejaVuSans-65" transform="translate(3555.964844 0)"/>
    </g>
   </g>
   <g id="legend_1">
    <g id="patch_7">
     <path d="M 471.8925 56.9875 
L 631.6 56.9875 
Q 633.2 56.9875 633.2 55.3875 
L 633.2 32.48 
Q 633.2 30.88 631.6 30.88 
L 471.8925 30.88 
Q 470.2925 30.88 470.2925 32.48 
L 470.2925 55.3875 
Q 470.2925 56.9875 471.8925 56.9875 
z
" style="fill: #ffffff; opacity: 0.8; stroke: #cccccc; stroke-linejoin: miter"/>
    </g>
    <g id="line2d_32">
     <path d="M 473.4925 37.35875 
L 481.4925 37.35875 
L 489.4925 37.35875 
" style="fill: none; stroke: #1f77b4; stroke-width: 1.3; stroke-linecap: square"/>
    </g>
    <g id="text_8">
     <!-- handwheel angle -->
     <g transform="translate(495.8925 40.15875) scale(0.08 -0.08)">
      <use xlink:href="#DejaVuSans-68"/>
      <use xlink:href="#DejaVuSans-61" transform="translate(63.378906 0)"/>
      <use xlink:href="#DejaVuSans-6e" transform="translate(124.658203 0)"/>
      <use xlink:href="#DejaVuSans-64" transform="translate(188.037109 0)"/>
      <use xlink:href="#DejaVuSans-77" transform="translate(251.513672 0)"/>
      <use xlink:href="#DejaVuSans-68" transform="translate(333.300781 0)"/>
      <use xlink:href="#DejaVuSans-65" transform="translate(396.679688 0)"/>
      <use xlink:href="#DejaVuSans-65" transform="translate(458.203125 0)"/>
      <use xlink:href="#DejaVuSans-6c" transform="translate(519.726562 0)"/>
      <use xlink:href="#DejaVuSans-20" transform="translate(547.509766 0)"/>
      <use xlink:href="#DejaVuSans-61" transform="translate(579.296875 0)"/>
      <use xlink:href="#DejaVuSans-6e" transform="translate(640.576172 0)"/>
      <use xlink:href="#DejaVuSans-67" transform="translate(703.955078 0)"/>
      <use xlink:href="#DejaVuSans-6c" transform="translate(767.431641 0)"/>
      <use xlink:href="#DejaVuSans-65" transform="translate(795.214844 0)"/>
     </g>
    </g>
    <g id="line2d_33">
     <path d="M 473.4925 49.10125 
L 481.4925 49.10125 
L 489.4925 49.10125 
" style="fill: none; stroke-dasharray: 3.33,1.44; stroke-dashoffset: 0; stroke: #000000; stroke-width: 0.9"/>
    </g>
    <g id="text_9">
     <!-- driver reference (i_S x command) -->
     <g transform="translate(495.8925 51.90125) scale(0.08 -0.08)">
      <defs>
       <path id="DejaVuSans-76" d="M 191 3500 
L 800 3500 
L 1894 563 
L 2988 3500 
L 3597 3500 
L 2284 0 
L 1503 0 
L 191 3500 
z
" transform="scale(0.015625)"/>
       <path id="DejaVuSans-63" d="M 3122 3366 
L 3122 2828 
Q 2878 2963 2633 3030 
Q 2388 3097 2138 3097 
Q 1578 3097 1268 2742 
Q 959 2388 959 1747 
Q 959 1106 1268 751 
Q 1578 397 2138 397 
Q 2388 397 2633 464 
Q 2878 531 3122 666 
L 3122 134 
Q 2881 22 2623 -34 
Q 2366 -91 2075 -91 
Q 1284 -91 818 406 
Q 353 903 353 1747 
Q 353 2603 823 3093 
Q 1294 3584 2113 3584 
Q 2378 3584 2631 3529 
Q 2884 3475 3122 3366 
z
" transform="scale(0.015625)"/>
       <path id="DejaVuSans-5f" d="M 3263 -1063 
L 3263 -1509 
L -63 -1509 
L -63 -1063 
L 3263 -1063 
z
" transform="scale(0.015625)"/>
       <path id="DejaVuSans-53" d="M 3425 4513 
L 3425 3897 
Q 3066 4069 2747 4153 
Q 2428 4238 2131 4238 
Q 1616 4238 1336 4038 
Q 1056 3838 1056 3469 
Q 1056 3159 1242 3001 
Q 1428 2844 1947 2747 
L 2328 2669 
Q 3034 2534 3370 2195 
Q 3706 1856 3706 1288 
Q 3706 609 3251 259 
Q 2797 -91 1919 -91 
Q 1588 -91 1214 -16 
Q 841 59 441 206 
L 441 856 
Q 825 641 1194 531 
Q 1563 422 1919 422 
Q 2459 422 2753 634 
Q 3047 847 3047 1241 
Q 3047 1584 2836 1778 
Q 2625 1972 2144 2069 
L 1759 2144 
Q 1053 2284 737 2584 
Q 422 2884 422 3419 
Q 422 4038 858 4394 
Q 1294 4750 2059 4750 
Q 2388 4750 2728 4690 
Q 3069 4631 3425 4513 
z
" transform="scale(0.015625)"/>
       <path id="DejaVuSans-78" d="M 3513 3500 
L 2247 1797 
L 3578 0 
L 2900 0 
L 1881 1375 
L 863 0 
L 184 0 
L 1544 1831 
L 300 3500 
L 978 3500 
L 1906 2253 
L 2834 3500 
L 3513 3500 
z
" transform="scale(0.015625)"/>
       <path id="DejaVuSans-6d" d="M 3328 2828 
Q 3544 3216 3844 3400 
Q 4144 3584 4550 3584 
Q 5097 3584 5394 3201 
Q 5691 2819 5691 2113 
L 5691 0 
L 5113 0 
L 5113 2094 
Q 5113 2597 4934 2840 
Q 4756 3084 4391 3084 
Q 3944 3084 3684 2787 
Q 3425 2491 3425 1978 
L 3425 0 
L 2847 0 
L 2847 2094 
Q 2847 2600 2669 2842 
Q 2491 3084 2119 3084 
Q 1678 3084 1418 2786 
Q 1159 2488 1159 1978 
L 1159 0 
L 581 0 
L 581 3500 
L 1159 3500 
L 1159 2956 
Q 1356 3278 1631 3431 
Q 1906 3584 2284 3584 
Q 2666 3584 2933 3390 
Q 3200 3197 3328 2828 
z
" transform="scale(0.015625)"/>
      </defs>
      <use xlink:href="#DejaVuSans-64"/>
      <use xlink:href="#DejaVuSans-72" transform="translate(63.476562 0)"/>
      <use xlink:href="#DejaVuSans-69" transform="translate(104.589844 0)"/>
      <use xlink:href="#DejaVuSans-76" transform="translate(132.373047 0)"/>
      <use xlink:href="#DejaVuSans-65" transform="translate(191.552734 0)"/>
      <use xlink:href="#DejaVuSans-72" transform="translate(253.076172 0)"/>
      <use xlink:href="#DejaVuSans-20" transform="translate(294.189453 0)"/>
      <use xlink:href="#DejaVuSans-72" transform="translate(325.976562 0)"/>
      <use xlink:href="#DejaVuSans-65" transform="translate(364.839844 0)"/>
      <use xlink:href="#DejaVuSans-66" transform="translate(426.363281 0)"/>
      <use xlink:href="#DejaVuSans-65" transform="translate(461.568359 0)"/>
      <use xlink:href="#DejaVuSans-72" transform="translate(523.091797 0)"/>
      <use xlink:href="#DejaVuSans-65" transform="translate(561.955078 0)"/>
      <use xlink:href="#DejaVuSans-6e" transform="translate(623.478516 0)"/>
      <use xlink:href="#DejaVuSans-63" transform="translate(686.857422 0)"/>
      <use xlink:href="#DejaVuSans-65" transform="translate(741.837891 0)"/>
      <use xlink:href="#DejaVuSans-20" transform="translate(803.361328 0)"/>
      <use xlink:href="#DejaVuSans-28" transform="translate(835.148438 0)"/>
      <use xlink:href="#DejaVuSans-69" transform="translate(874.162109 0)"/>
      <use xlink:href="#DejaVuSans-5f" transform="translate(901.945312 0)"/>
      <use xlink:href="#DejaVuSans-53" transform="translate(951.945312 0)"/>
      <use xlink:href="#DejaVuSans-20" transform="translate(1015.421875 0)"/>
      <use xlink:href="#DejaVuSans-78" transform="translate(1047.208984 0)"/>
      <use xlink:href="#DejaVuSans-20" transform="translate(1106.388672 0)"/>
      <use xlink:href="#DejaVuSans-63" transform="translate(1138.175781 0)"/>
      <use xlink:href="#DejaVuSans-6f" transform="translate(1193.15625 0)"/>
      <use xlink:href="#DejaVuSans-6d" transform="translate(1254.337891 0)"/>
      <use xlink:href="#DejaVuSans-6d" transform="translate(1351.75 0)"/>
      <use xlink:href="#DejaVuSans-61" transform="translate(1449.162109 0)"/>
      <use xlink:href="#DejaVuSans-6e" transform="translate(1510.441406 0)"/>
      <use xlink:href="#DejaVuSans-64" transform="translate(1573.820312 0)"/>
      <use xlink:href="#DejaVuSans-29" transform="translate(1637.296875 0)"/>
     </g>
    </g>
   </g>
  </g>
  <g id="axes_2">
   <g id="patch_8">
    <path d="M 59.24 361.24 
L 637.2 361.24 
L 637.2 203.882727 
L 59.24 203.882727 
L 59.24 361.24 
z
" style="fill: none"/>
   </g>
   <g id="matplotlib.axis_3">
    <g id="xtick_10">
     <g id="line2d_34">
      <path d="M 85.510909 361.24 
L 85.510909 203.882727 
" clip-path="url(#p4f0a993e78)" style="fill: none; stroke: #b0b0b0; stroke-opacity: 0.3; stroke-width: 0.8; stroke-linecap: square"/>
     </g>
     <g id="line2d_35">
      <g>
       <use xlink:href="#mcaa970847b" x="85.510909" y="361.24" style="stroke: #000000; stroke-width: 0.8"/>
      </g>
     </g>
     <g id="text_10">
      <!-- 0 -->
      <g transform="translate(82.329659 375.838437) scale(0.1 -0.1)">
       <use xlink:href="#DejaVuSans-30"/>
      </g>
     </g>
    </g>
    <g id="xtick_11">
     <g id="line2d_36">
      <path d="M 151.188182 361.24 
L 151.188182 203.882727 
" clip-path="url(#p4f0a993e78)" style="fill: none; stroke: #b0b0b0; stroke-opacity: 0.3; stroke-width: 0.8; stroke-linecap: square"/>
     </g>
     <g id="line2d_37">
      <g>
       <use xlink:href="#mcaa970847b" x="151.188182" y="361.24" style="stroke: #000000; stroke-width: 0.8"/>
      </g>
     </g>
     <g id="text_11">
      <!-- 1 -->
      <g transform="translate(148.006932 375.838437) scale(0.1 -0.1)">
       <use xlink:href="#DejaVuSans-31"/>
      </g>
     </g>
    </g>
    <g id="xtick_12">
     <g id="line2d_38">
      <path d="M 216.865455 361.24 
L 216.865455 203.882727 
" clip-path="url(#p4f0a993e78)" style="fill: none; stroke: #b0b0b0; stroke-opacity: 0.3; stroke-width: 0.8; stroke-linecap: square"/>
     </g>
     <g id="line2d_39">
      <g>
       <use xlink:href="#mcaa970847b" x="216.865455" y="361.24" style="stroke: #000000; stroke-width: 0.8"/>
      </g>
     </g>
     <g id="text_12">
      <!-- 2 -->
      <g transform="translate(213.684205 375.838437) scale(0.1 -0.1)">
       <defs>
        <path id="DejaVuSans-32" d="M 1228 531 
L 3431 531 
L 3431 0 
L 469 0 
L 469 531 
Q 828 903 1448 1529 
Q 2069 2156 2228 2338 
Q 2531 2678 2651 2914 
Q 2772 3150 2772 3378 
Q 2772 3750 2511 3984 
Q 2250 4219 1831 4219 
Q 1534 4219 1204 4116 
Q 875 4013 500 3803 
L 500 4441 
Q 881 4594 1212 4672 
Q 1544 4750 1819 4750 
Q 2544 4750 2975 4387 
Q 3406 4025 3406 3419 
Q 3406 3131 3298 2873 
Q 3191 2616 2906 2266 
Q 2828 2175 2409 1742 
Q 1991 1309 1228 531 
z
" transform="scale(0.015625)"/>
       </defs>
       <use xlink:href="#DejaVuSans-32"/>
      </g>
     </g>
    </g>
    <g id="xtick_13">
     <g id="line2d_40">
      <path d="M 282.542727 361.24 
L 282.542727 203.882727 
" clip-path="url(#p4f0a993e78)" style="fill: none; stroke: #b0b0b0; stroke-opacity: 0.3; stroke-width: 0.8; stroke-linecap: square"/>
     </g>
     <g id="line2d_41">
      <g>
       <use xlink:href="#mcaa970847b" x="282.542727" y="361.24" style="stroke: #000000; stroke-width: 0.8"/>
      </g>
     </g>
     <g id="text_13">
      <!-- 3 -->
      <g transform="translate(279.361477 375.838437) scale(0.1 -0.1)">
       <defs>
        <path id="DejaVuSans-33" d="M 2597 2516 
Q 3050 2419 3304 2112 
Q 3559 1806 3559 1356 
Q 3559 666 3084 287 
Q 2609 -91 1734 -91 
Q 1441 -91 1130 -33 
Q 819 25 488 141 
L 488 750 
Q 750 597 1062 519 
Q 1375 441 1716 441 
Q 2309 441 2620 675 
Q 2931 909 2931 1356 
Q 2931 1769 2642 2001 
Q 2353 2234 1838 2234 
L 1294 2234 
L 1294 2753 
L 1863 2753 
Q 2328 2753 2575 2939 
Q 2822 3125 2822 3475 
Q 2822 3834 2567 4026 
Q 2313 4219 1838 4219 
Q 1578 4219 1281 4162 
Q 984 4106 628 3988 
L 628 4550 
Q 988 4650 1302 4700 
Q 1616 4750 1894 4750 
Q 2613 4750 3031 4423 
Q 3450 4097 3450 3541 
Q 3450 3153 3228 2886 
Q 3006 2619 2597 2516 
z
" transform="scale(0.015625)"/>
       </defs>
       <use xlink:href="#DejaVuSans-33"/>
      </g>
     </g>
    </g>
    <g id="xtick_14">
     <g id="line2d_42">
      <path d="M 348.22 361.24 
L 348.22 203.882727 
" clip-path="url(#p4f0a993e78)" style="fill: none; stroke: #b0b0b0; stroke-opacity: 0.3; stroke-width: 0.8; stroke-linecap: square"/>
     </g>
     <g id="line2d_43">
      <g>
       <use xlink:href="#mcaa970847b" x="348.22" y="361.24" style="stroke: #000000; stroke-width: 0.8"/>
      </g>
     </g>
     <g id="text_14">
      <!-- 4 -->
      <g transform="translate(345.03875 375.838437) scale(0.1 -0.1)">
       <defs>
        <path id="DejaVuSans-34" d="M 2419 4116 
L 825 1625 
L 2419 1625 
L 2419 4116 
z
M 2253 4666 
L 3047 4666 
L 3047 1625 
L 3713 1625 
L 3713 1100 
L 3047 1100 
L 3047 0 
L 2419 0 
L 2419 1100 
L 313 1100 
L 313 1709 
L 2253 4666 
z
" transform="scale(0.015625)"/>
       </defs>
       <use xlink:href="#DejaVuSans-34"/>
      </g>
     </g>
    </g>
    <g id="xtick_15">
     <g id="line2d_44">
      <path d="M 413.897273 361.24 
L 413.897273 203.882727 
" clip-path="url(#p4f0a993e78)" style="fill: none; stroke: #b0b0b0; stroke-opacity: 0.3; stroke-width: 0.8; stroke-linecap: square"/>
     </g>
     <g id="line2d_45">
      <g>
       <use xlink:href="#mcaa970847b" x="413.897273" y="361.24" style="stroke: #000000; stroke-width: 0.8"/>
      </g>
     </g>
     <g id="text_15">
      <!-- 5 -->
      <g transform="translate(410.716023 375.838437) scale(0.1 -0.1)">
       <use xlink:href="#DejaVuSans-35"/>
      </g>
     </g>
    </g>
    <g id="xtick_16">
     <g id="line2d_46">
      <path d="M 479.574545 361.24 
L 479.574545 203.882727 
" clip-path="url(#p4f0a993e78)" style="fill: none; stroke: #b0b0b0; stroke-opacity: 0.3; stroke-width: 0.8; stroke-linecap: square"/>
     </g>
     <g id="line2d_47">
      <g>
       <use xlink:href="#mcaa970847b" x="479.574545" y="361.24" style="stroke: #000000; stroke-width: 0.8"/>
      </g>
     </g>
     <g id="text_16">
      <!-- 6 -->
      <g transform="translate(476.393295 375.838437) scale(0.1 -0.1)">
       <defs>
        <path id="DejaVuSans-36" d="M 2113 2584 
Q 1688 2584 1439 2293 
Q 1191 2003 1191 1497 
Q 1191 994 1439 701 
Q 1688 409 2113 409 
Q 2538 409 2786 701 
Q 3034 994 3034 1497 
Q 3034 2003 2786 2293 
Q 2538 2584 2113 2584 
z
M 3366 4563 
L 3366 3988 
Q 3128 4100 2886 4159 
Q 2644 4219 2406 4219 
Q 1781 4219 1451 3797 
Q 1122 3375 1075 2522 
Q 1259 2794 1537 2939 
Q 1816 3084 2150 3084 
Q 2853 3084 3261 2657 
Q 3669 2231 3669 1497 
Q 3669 778 3244 343 
Q 2819 -91 2113 -91 
Q 1303 -91 875 529 
Q 447 1150 447 2328 
Q 447 3434 972 4092 
Q 1497 4750 2381 4750 
Q 2619 4750 2861 4703 
Q 3103 4656 3366 4563 
z
" transform="scale(0.015625)"/>
       </defs>
       <use xlink:href="#DejaVuSans-36"/>
      </g>
     </g>
    </g>
    <g id="xtick_17">
     <g id="line2d_48">
      <path d="M 545.251818 361.24 
L 545.251818 203.882727 
" clip-path="url(#p4f0a993e78)" style="fill: none; stroke: #b0b0b0; stroke-opacity: 0.3; stroke-width: 0.8; stroke-linecap: square"/>
     </g>
     <g id="line2d_49">
      <g>
       <use xlink:href="#mcaa970847b" x="545.251818" y="361.24" style="stroke: #000000; stroke-width: 0.8"/>
      </g>
     </g>
     <g id="text_17">
      <!-- 7 -->
      <g transform="translate(542.070568 375.838437) scale(0.1 -0.1)">
       <defs>
        <path id="DejaVuSans-37" d="M 525 4666 
L 3525 4666 
L 3525 4397 
L 1831 0 
L 1172 0 
L 2766 4134 
L 525 4134 
L 525 4666 
z
" transform="scale(0.015625)"/>
       </defs>
       <use xlink:href="#DejaVuSans-37"/>
      </g>
     </g>
    </g>
    <g id="xtick_18">
     <g id="line2d_50">
      <path d="M 610.929091 361.24 
L 610.929091 203.882727 
" clip-path="url(#p4f0a993e78)" style="fill: none; stroke: #b0b0b0; stroke-opacity: 0.3; stroke-width: 0.8; stroke-linecap: square"/>
     </g>
     <g id="line2d_51">
      <g>
       <use xlink:href="#mcaa970847b" x="610.929091" y="361.24" style="stroke: #000000; stroke-width: 0.8"/>
      </g>
     </g>
     <g id="text_18">
      <!-- 8 -->
      <g transform="translate(607.747841 375.838437) scale(0.1 -0.1)">
       <defs>
        <path id="DejaVuSans-38" d="M 2034 2216 
Q 1584 2216 1326 1975 
Q 1069 1734 1069 1313 
Q 1069 891 1326 650 
Q 1584 409 2034 409 
Q 2484 409 2743 651 
Q 3003 894 3003 1313 
Q 3003 1734 2745 1975 
Q 2488 2216 2034 2216 
z
M 1403 2484 
Q 997 2584 770 2862 
Q 544 3141 544 3541 
Q 544 4100 942 4425 
Q 1341 4750 2034 4750 
Q 2731 4750 3128 4425 
Q 3525 4100 3525 3541 
Q 3525 3141 3298 2862 
Q 3072 2584 2669 2484 
Q 3125 2378 3379 2068 
Q 3634 1759 3634 1313 
Q 3634 634 3220 271 
Q 2806 -91 2034 -91 
Q 1263 -91 848 271 
Q 434 634 434 1313 
Q 434 1759 690 2068 
Q 947 2378 1403 2484 
z
M 1172 3481 
Q 1172 3119 1398 2916 
Q 1625 2713 2034 2713 
Q 2441 2713 2670 2916 
Q 2900 3119 2900 3481 
Q 2900 3844 2670 4047 
Q 2441 4250 2034 4250 
Q 1625 4250 1398 4047 
Q 1172 3844 1172 3481 
z
" transform="scale(0.015625)"/>
       </defs>
       <use xlink:href="#DejaVuSans-38"/>
      </g>
     </g>
    </g>
    <g id="text_19">
     <!-- time [s] -->
     <g transform="translate(328.828594 389.516562) scale(0.1 -0.1)">
      <use xlink:href="#DejaVuSans-74"/>
      <use xlink:href="#DejaVuSans-69" transform="translate(39.208984 0)"/>
      <use xlink:href="#DejaVuSans-6d" transform="translate(66.992188 0)"/>
      <use xlink:href="#DejaVuSans-65" transform="translate(164.404297 0)"/>
      <use xlink:href="#DejaVuSans-20" transform="translate(225.927734 0)"/>
      <use xlink:href="#DejaVuSans-5b" transform="translate(257.714844 0)"/>
      <use xlink:href="#DejaVuSans-73" transform="translate(296.728516 0)"/>
      <use xlink:href="#DejaVuSans-5d" transform="translate(348.828125 0)"/>
     </g>
    </g>
   </g>
   <g id="matplotlib.axis_4">
    <g id="ytick_6">
     <g id="line2d_52">
      <path d="M 59.24 354.6984 
L 637.2 354.6984 
" clip-path="url(#p4f0a993e78)" style="fill: none; stroke: #b0b0b0; stroke-opacity: 0.3; stroke-width: 0.8; stroke-linecap: square"/>
     </g>
     <g id="line2d_53">
      <g>
       <use xlink:href="#mf6951f5b38" x="59.24" y="354.6984" style="stroke: #000000; stroke-width: 0.8"/>
      </g>
     </g>
     <g id="text_20">
      <!-- −10 -->
      <g transform="translate(31.135313 358.497619) scale(0.1 -0.1)">
       <use xlink:href="#DejaVuSans-2212"/>
       <use xlink:href="#DejaVuSans-31" transform="translate(83.789062 0)"/>
       <use xlink:href="#DejaVuSans-30" transform="translate(147.412109 0)"/>
      </g>
     </g>
    </g>
    <g id="ytick_7">
     <g id="line2d_54">
      <path d="M 59.24 319.2043 
L 637.2 319.2043 
" clip-path="url(#p4f0a993e78)" style="fill: none; stroke: #b0b0b0; stroke-opacity: 0.3; stroke-width: 0.8; stroke-linecap: square"/>
     </g>
     <g id="line2d_55">
      <g>
       <use xlink:href="#mf6951f5b38" x="59.24" y="319.2043" style="stroke: #000000; stroke-width: 0.8"/>
      </g>
     </g>
     <g id="text_21">
      <!-- −5 -->
      <g transform="translate(37.497813 323.003518) scale(0.1 -0.1)">
       <use xlink:href="#DejaVuSans-2212"/>
       <use xlink:href="#DejaVuSans-35" transform="translate(83.789062 0)"/>
      </g>
     </g>
    </g>
    <g id="ytick_8">
     <g id="line2d_56">
      <path d="M 59.24 283.7102 
L 637.2 283.7102 
" clip-path="url(#p4f0a993e78)" style="fill: none; stroke: #b0b0b0; stroke-opacity: 0.3; stroke-width: 0.8; stroke-linecap: square"/>
     </g>
     <g id="line2d_57">
      <g>
       <use xlink:href="#mf6951f5b38" x="59.24" y="283.7102" style="stroke: #000000; stroke-width: 0.8"/>
      </g>
     </g>
     <g id="text_22">
      <!-- 0 -->
      <g transform="translate(45.8775 287.509418) scale(0.1 -0.1)">
       <use xlink:href="#DejaVuSans-30"/>
      </g>
     </g>
    </g>
    <g id="ytick_9">
     <g id="line2d_58">
      <path d="M 59.24 248.2161 
L 637.2 248.2161 
" clip-path="url(#p4f0a993e78)" style="fill: none; stroke: #b0b0b0; stroke-opacity: 0.3; stroke-width: 0.8; stroke-linecap: square"/>
     </g>
     <g id="line2d_59">
      <g>
       <use xlink:href="#mf6951f5b38" x="59.24" y="248.2161" style="stroke: #000000; stroke-width: 0.8"/>
      </g>
     </g>
     <g id="text_23">
      <!-- 5 -->
      <g transform="translate(45.8775 252.015318) scale(0.1 -0.1)">
       <use xlink:href="#DejaVuSans-35"/>
      </g>
     </g>
    </g>
    <g id="ytick_10">
     <g id="line2d_60">
      <path d="M 59.24 212.721999 
L 637.2 212.721999 
" clip-path="url(#p4f0a993e78)" style="fill: none; stroke: #b0b0b0; stroke-opacity: 0.3; stroke-width: 0.8; stroke-linecap: square"/>
     </g>
     <g id="line2d_61">
      <g>
       <use xlink:href="#mf6951f5b38" x="59.24" y="212.721999" style="stroke: #000000; stroke-width: 0.8"/>
      </g>
     </g>
     <g id="text_24">
      <!-- 10 -->
      <g transform="translate(39.515 216.521218) scale(0.1 -0.1)">
       <use xlink:href="#DejaVuSans-31"/>
       <use xlink:href="#DejaVuSans-30" transform="translate(63.623047 0)"/>
      </g>
     </g>
    </g>
    <g id="text_25">
     <!-- handwheel torque [N.m] -->
     <g transform="translate(25.055625 343.623864) rotate(-90) scale(0.1 -0.1)">
      <defs>
       <path id="DejaVuSans-4e" d="M 628 4666 
L 1478 4666 
L 3547 763 
L 3547 4666 
L 4159 4666 
L 4159 0 
L 3309 0 
L 1241 3903 
L 1241 0 
L 628 0 
L 628 4666 
z
" transform="scale(0.015625)"/>
       <path id="DejaVuSans-2e" d="M 684 794 
L 1344 794 
L 1344 0 
L 684 0 
L 684 794 
z
" transform="scale(0.015625)"/>
      </defs>
      <use xlink:href="#DejaVuSans-68"/>
      <use xlink:href="#DejaVuSans-61" transform="translate(63.378906 0)"/>
      <use xlink:href="#DejaVuSans-6e" transform="translate(124.658203 0)"/>
      <use xlink:href="#DejaVuSans-64" transform="translate(188.037109 0)"/>
      <use xlink:href="#DejaVuSans-77" transform="translate(251.513672 0)"/>
      <use xlink:href="#DejaVuSans-68" transform="translate(333.300781 0)"/>
      <use xlink:href="#DejaVuSans-65" transform="translate(396.679688 0)"/>
      <use xlink:href="#DejaVuSans-65" transform="translate(458.203125 0)"/>
      <use xlink:href="#DejaVuSans-6c" transform="translate(519.726562 0)"/>
      <use xlink:href="#DejaVuSans-20" transform="translate(547.509766 0)"/>
      <use xlink:href="#DejaVuSans-74" transform="translate(579.296875 0)"/>
      <use xlink:href="#DejaVuSans-6f" transform="translate(618.505859 0)"/>
      <use xlink:href="#DejaVuSans-72" transform="translate(679.6875 0)"/>
      <use xlink:href="#DejaVuSans-71" transform="translate(719.050781 0)"/>
      <use xlink:href="#DejaVuSans-75" transform="translate(782.527344 0)"/>
      <use xlink:href="#DejaVuSans-65" transform="translate(845.90625 0)"/>
      <use xlink:href="#DejaVuSans-20" transform="translate(907.429688 0)"/>
      <use xlink:href="#DejaVuSans-5b" transform="translate(939.216797 0)"/>
      <use xlink:href="#DejaVuSans-4e" transform="translate(978.230469 0)"/>
      <use xlink:href="#DejaVuSans-2e" transform="translate(1053.035156 0)"/>
      <use xlink:href="#DejaVuSans-6d" transform="translate(1084.822266 0)"/>
      <use xlink:href="#DejaVuSans-5d" transform="translate(1182.234375 0)"/>
     </g>
    </g>
   </g>
   <g id="line2d_62">
    <path d="M 85.510909 283.7102 
L 94.311664 283.600277 
L 95.034114 283.220782 
L 95.953595 282.455941 
L 97.135786 281.162236 
L 98.646364 279.170994 
L 100.353973 276.544604 
L 102.061582 273.507108 
L 103.900545 269.76673 
L 106.133573 264.680856 
L 114.737295 244.511966 
L 117.364386 239.211088 
L 119.860123 234.659479 
L 122.09315 231.031787 
L 124.063468 228.233972 
L 125.836755 226.080309 
L 127.478686 224.418176 
L 129.054941 223.133255 
L 130.565518 222.187112 
L 132.010418 221.535418 
L 133.455318 221.118088 
L 134.965895 220.913871 
L 136.54215 220.930631 
L 138.184082 221.171996 
L 139.957368 221.662641 
L 141.796332 222.402478 
L 143.700973 223.407948 
L 145.605614 224.667151 
L 147.444577 226.154545 
L 149.152186 227.820597 
L 150.794118 229.739878 
L 152.304695 231.844445 
L 153.749595 234.230369 
L 155.194495 237.058972 
L 156.573718 240.253017 
L 157.952941 244.013747 
L 159.332164 248.423635 
L 160.777064 253.818531 
L 162.287641 260.366473 
L 163.929573 268.549182 
L 169.77485 299.0803 
L 172.270586 310.182784 
L 174.569291 319.463655 
L 176.473932 326.294501 
L 178.181541 331.635803 
L 179.823473 336.05635 
L 181.399727 339.671564 
L 182.910305 342.6038 
L 183.698432 343.726842 
L 184.486559 344.457719 
L 185.274686 344.895879 
L 186.194168 345.139113 
L 187.245005 345.175848 
L 188.689905 344.981918 
L 194.535182 343.957333 
L 197.622014 343.849672 
L 200.249105 343.674324 
L 201.891036 343.345959 
L 203.335936 342.833942 
L 204.715159 342.102757 
L 206.028705 341.154479 
L 207.407927 339.870331 
L 208.78715 338.275225 
L 210.23205 336.263721 
L 211.808305 333.676623 
L 213.515914 330.434324 
L 215.420555 326.332823 
L 217.719259 320.825858 
L 220.871768 312.635706 
L 226.454336 298.080305 
L 228.753041 292.744018 
L 230.657682 288.859245 
L 232.299614 285.9969 
L 233.744514 283.898538 
L 235.058059 282.35575 
L 236.305927 281.213969 
L 237.553795 280.374769 
L 238.735986 279.839779 
L 239.918177 279.536156 
L 241.166045 279.442028 
L 242.479591 279.566086 
L 243.924491 279.932707 
L 245.500745 280.565282 
L 247.339709 281.54919 
L 249.835445 283.164626 
L 256.534527 287.660195 
L 257.388332 288.279668 
L 258.110782 289.190872 
L 259.095941 290.845135 
L 260.540841 293.77375 
L 262.642514 298.59125 
L 265.006895 304.578546 
L 267.699664 312.047378 
L 272.494105 325.434761 
L 274.5301 330.393565 
L 276.500418 334.608025 
L 278.470736 338.302868 
L 280.572409 341.781893 
L 282.805436 345.051804 
L 284.907109 347.747488 
L 286.81175 349.83648 
L 288.519359 351.382898 
L 290.095614 352.50922 
L 291.540514 353.27554 
L 292.919736 353.767891 
L 294.298959 354.032265 
L 295.743859 354.076611 
L 297.188759 353.899164 
L 298.765014 353.473758 
L 300.406945 352.796706 
L 302.180232 351.821225 
L 304.084873 350.511322 
L 306.055191 348.881125 
L 308.025509 346.965586 
L 309.995827 344.734904 
L 311.769114 342.399199 
L 313.411045 339.863214 
L 314.855945 337.205172 
L 316.103814 334.441694 
L 317.220327 331.447434 
L 318.271164 328.014293 
L 319.322 323.79223 
L 320.307159 318.91889 
L 321.292318 312.953754 
L 322.343155 305.1625 
L 323.6567 293.469516 
L 325.627018 276.411995 
L 327.203273 264.764302 
L 329.042236 252.884284 
L 331.406618 239.099683 
L 332.654486 233.006464 
L 333.968032 227.680662 
L 335.2159 223.49765 
L 336.398091 220.275903 
L 337.514605 217.851818 
L 338.565441 216.063164 
L 339.616277 214.685171 
L 340.732791 213.590065 
L 341.914982 212.752471 
L 343.228527 212.104608 
L 344.739105 211.609907 
L 346.578068 211.242903 
L 348.679741 211.050229 
L 350.715736 211.078815 
L 352.686055 211.327371 
L 354.590695 211.791089 
L 356.495336 212.479987 
L 358.465655 213.427928 
L 360.50165 214.66023 
L 362.471968 216.11529 
L 364.310932 217.748291 
L 366.018541 219.568476 
L 367.529118 221.501762 
L 368.908341 223.617759 
L 370.221886 226.037024 
L 371.469755 228.796614 
L 372.717623 232.108103 
L 373.965491 236.074997 
L 375.213359 240.789879 
L 376.526905 246.62953 
L 377.971805 254.101354 
L 379.745091 264.568983 
L 382.043795 278.023805 
L 383.817082 287.044587 
L 385.656045 295.243108 
L 387.297977 301.611418 
L 388.611523 305.907834 
L 389.793714 309.044614 
L 390.84455 311.213341 
L 391.764032 312.635831 
L 392.617836 313.577575 
L 393.405964 314.144065 
L 394.194091 314.442813 
L 394.982218 314.497693 
L 395.770345 314.332772 
L 396.62415 313.933076 
L 397.609309 313.221396 
L 398.725823 312.136244 
L 400.039368 310.542136 
L 401.615623 308.258391 
L 403.454586 305.181262 
L 405.621936 301.092633 
L 408.117673 295.879771 
L 411.204505 288.874522 
L 415.079464 280.125156 
L 417.049782 276.253419 
L 418.757391 273.370357 
L 420.267968 271.241133 
L 421.647191 269.662965 
L 422.960736 268.484298 
L 424.208605 267.64793 
L 425.456473 267.073866 
L 426.704341 266.746624 
L 427.952209 266.650086 
L 429.265755 266.779636 
L 430.644977 267.149444 
L 432.155555 267.800459 
L 433.797486 268.759006 
L 435.767805 270.183348 
L 438.394895 272.387568 
L 445.553718 278.543896 
L 448.180809 280.434127 
L 450.676545 281.961428 
L 453.106605 283.194925 
L 455.799373 284.271499 
L 458.295109 285.02397 
L 460.725168 285.527635 
L 463.220905 285.819051 
L 465.782318 285.894463 
L 468.540764 285.74794 
L 471.693273 285.346871 
L 476.356359 284.496347 
L 481.741895 283.568896 
L 485.551177 283.132913 
L 489.491814 282.910254 
L 494.745995 282.851774 
L 504.794618 283.002468 
L 513.726727 283.34049 
L 524.169414 283.721659 
L 532.050686 283.761585 
L 543.018791 283.72678 
L 590.831845 283.702798 
L 610.929091 283.709059 
L 610.929091 283.709059 
" clip-path="url(#p4f0a993e78)" style="fill: none; stroke: #d62728; stroke-width: 1.4; stroke-linecap: square"/>
   </g>
   <g id="line2d_63">
    <path d="M 59.24 283.7102 
L 637.2 283.7102 
" clip-path="url(#p4f0a993e78)" style="fill: none; stroke: #000000; stroke-width: 0.4; stroke-linecap: square"/>
   </g>
   <g id="patch_9">
    <path d="M 59.24 361.24 
L 59.24 203.882727 
" style="fill: none; stroke: #000000; stroke-width: 0.8; stroke-linejoin: miter; stroke-linecap: square"/>
   </g>
   <g id="patch_10">
    <path d="M 637.2 361.24 
L 637.2 203.882727 
" style="fill: none; stroke: #000000; stroke-width: 0.8; stroke-linejoin: miter; stroke-linecap: square"/>
   </g>
   <g id="patch_11">
    <path d="M 59.24 361.24 
L 637.2 361.24 
" style="fill: none; stroke: #000000; stroke-width: 0.8; stroke-linejoin: miter; stroke-linecap: square"/>
   </g>
   <g id="patch_12">
    <path d="M 59.24 203.882727 
L 637.2 203.882727 
" style="fill: none; stroke: #000000; stroke-width: 0.8; stroke-linejoin: miter; stroke-linecap: square"/>
   </g>
   <g id="text_26">
    <!-- +10.2 N.m -->
    <g transform="translate(357.467868 205.035331) scale(0.08 -0.08)">
     <defs>
      <path id="DejaVuSans-2b" d="M 2944 4013 
L 2944 2272 
L 4684 2272 
L 4684 1741 
L 2944 1741 
L 2944 0 
L 2419 0 
L 2419 1741 
L 678 1741 
L 678 2272 
L 2419 2272 
L 2419 4013 
L 2944 4013 
z
" transform="scale(0.015625)"/>
     </defs>
     <use xlink:href="#DejaVuSans-2b"/>
     <use xlink:href="#DejaVuSans-31" transform="translate(83.789062 0)"/>
     <use xlink:href="#DejaVuSans-30" transform="translate(147.412109 0)"/>
     <use xlink:href="#DejaVuSans-2e" transform="translate(211.035156 0)"/>
     <use xlink:href="#DejaVuSans-32" transform="translate(242.822266 0)"/>
     <use xlink:href="#DejaVuSans-20" transform="translate(306.445312 0)"/>
     <use xlink:href="#DejaVuSans-4e" transform="translate(338.232422 0)"/>
     <use xlink:href="#DejaVuSans-2e" transform="translate(413.037109 0)"/>
     <use xlink:href="#DejaVuSans-6d" transform="translate(444.824219 0)"/>
    </g>
   </g>
  </g>
 </g>
 <defs>
  <clipPath id="p77aadd3dc5">
   <rect x="59.24" y="26.88" width="577.96" height="157.357273"/>
  </clipPath>
  <clipPath id="p4f0a993e78">
   <rect x="59.24" y="203.882727" width="577.96" height="157.357273"/>
  </clipPath>
 </defs>
</svg>
