<?xml version="1.0" encoding="utf-8" standalone="no"?>
<!DOCTYPE svg PUBLIC "-//W3C//DTD SVG 1.1//EN"
  "http://www.w3.org/Graphics/SVG/1.1/DTD/svg11.dtd">
<svg xmlns:xlink="http://www.w3.org/1999/xlink" width="648pt" height="460.8pt" viewBox="0 0 648 460.8" xmlns="http://www.w3.org/2000/svg" version="1.1">
 <metadata>
  <rdf:RDF xmlns:dc="http://purl.org/dc/elements/1.1/" xmlns:cc="http://creativecommons.org/ns#" xmlns:rdf="http://www.w3.org/1999/02/22-rdf-syntax-ns#">
   <cc:Work>
    <dc:type rdf:resource="http://purl.org/dc/dcmitype/StillImage"/>
    <dc:date>2026-07-07T09:15:34.840746</dc:date>
    <dc:format>image/svg+xml</dc:format>
    <dc:creator>
     <cc:Agent>
      <dc:title>Matplotlib v3.10.8, https://matplotlib.org/</dc:title>
     </cc:Agent>
    </dc:creator>
   </cc:Work>
  </rdf:RDF>
 </metadata>
 <defs>
  <style type="text/css">*{stroke-linejoin: round; stroke-linecap: butt}</style>
 </defs>
 <g id="figure_1">
  <g id="patch_1">
   <path d="M 0 460.8 
L 648 460.8 
L 648 0 
L 0 0 
z
" style="fill: #ffffff"/>
  </g>
  <g id="axes_1">
   <g id="patch_2">
    <path d="M 56 148 
L 637.2 148 
L 637.2 26.88 
L 56 26.88 
z
" style="fill: #ffffff"/>
   </g>
   <g id="matplotlib.axis_1">
    <g id="xtick_1">
     <g id="line2d_1">
      <path d="M 82.418182 148 
L 82.418182 26.88 
" clip-path="url(#p99176b13b0)" style="fill: none; stroke: #b0b0b0; stroke-opacity: 0.3; stroke-width: 0.8; stroke-linecap: square"/>
     </g>
     <g id="line2d_2">
      <defs>
       <path id="m48c5c9bd04" d="M 0 0 
L 0 3.5 
" style="stroke: #000000; stroke-width: 0.8"/>
      </defs>
      <g>
       <use xlink:href="#m48c5c9bd04" x="82.418182" y="148" style="stroke: #000000; stroke-width: 0.8"/>
      </g>
     </g>
    </g>
    <g id="xtick_2">
     <g id="line2d_3">
      <path d="M 148.463636 148 
L 148.463636 26.88 
" clip-path="url(#p99176b13b0)" style="fill: none; stroke: #b0b0b0; stroke-opacity: 0.3; stroke-width: 0.8; stroke-linecap: square"/>
     </g>
     <g id="line2d_4">
      <g>
       <use xlink:href="#m48c5c9bd04" x="148.463636" y="148" style="stroke: #000000; stroke-width: 0.8"/>
      </g>
     </g>
    </g>
    <g id="xtick_3">
     <g id="line2d_5">
      <path d="M 214.509091 148 
L 214.509091 26.88 
" clip-path="url(#p99176b13b0)" style="fill: none; stroke: #b0b0b0; stroke-opacity: 0.3; stroke-width: 0.8; stroke-linecap: square"/>
     </g>
     <g id="line2d_6">
      <g>
       <use xlink:href="#m48c5c9bd04" x="214.509091" y="148" style="stroke: #000000; stroke-width: 0.8"/>
      </g>
     </g>
    </g>
    <g id="xtick_4">
     <g id="line2d_7">
      <path d="M 280.554545 148 
L 280.554545 26.88 
" clip-path="url(#p99176b13b0)" style="fill: none; stroke: #b0b0b0; stroke-opacity: 0.3; stroke-width: 0.8; stroke-linecap: square"/>
     </g>
     <g id="line2d_8">
      <g>
       <use xlink:href="#m48c5c9bd04" x="280.554545" y="148" style="stroke: #000000; stroke-width: 0.8"/>
      </g>
     </g>
    </g>
    <g id="xtick_5">
     <g id="line2d_9">
      <path d="M 346.6 148 
L 346.6 26.88 
" clip-path="url(#p99176b13b0)" style="fill: none; stroke: #b0b0b0; stroke-opacity: 0.3; stroke-width: 0.8; stroke-linecap: square"/>
     </g>
     <g id="line2d_10">
      <g>
       <use xlink:href="#m48c5c9bd04" x="346.6" y="148" style="stroke: #000000; stroke-width: 0.8"/>
      </g>
     </g>
    </g>
    <g id="xtick_6">
     <g id="line2d_11">
      <path d="M 412.645455 148 
L 412.645455 26.88 
" clip-path="url(#p99176b13b0)" style="fill: none; stroke: #b0b0b0; stroke-opacity: 0.3; stroke-width: 0.8; stroke-linecap: square"/>
     </g>
     <g id="line2d_12">
      <g>
       <use xlink:href="#m48c5c9bd04" x="412.645455" y="148" style="stroke: #000000; stroke-width: 0.8"/>
      </g>
     </g>
    </g>
    <g id="xtick_7">
     <g id="line2d_13">
      <path d="M 478.690909 148 
L 478.690909 26.88 
" clip-path="url(#p99176b13b0)" style="fill: none; stroke: #b0b0b0; stroke-opacity: 0.3; stroke-width: 0.8; stroke-linecap: square"/>
     </g>
     <g id="line2d_14">
      <g>
       <use xlink:href="#m48c5c9bd04" x="478.690909" y="148" style="stroke: #000000; stroke-width: 0.8"/>
      </g>
     </g>
    </g>
    <g id="xtick_8">
     <g id="line2d_15">
      <path d="M 544.736364 148 
L 544.736364 26.88 
" clip-path="url(#p99176b13b0)" style="fill: none; stroke: #b0b0b0; stroke-opacity: 0.3; stroke-width: 0.8; stroke-linecap: square"/>
     </g>
     <g id="line2d_16">
      <g>
       <use xlink:href="#m48c5c9bd04" x="544.736364" y="148" style="stroke: #000000; stroke-width: 0.8"/>
      </g>
     </g>
    </g>
    <g id="xtick_9">
     <g id="line2d_17">
      <path d="M 610.781818 148 
L 610.781818 26.88 
" clip-path="url(#p99176b13b0)" style="fill: none; stroke: #b0b0b0; stroke-opacity: 0.3; stroke-width: 0.8; stroke-linecap: square"/>
     </g>
     <g id="line2d_18">
      <g>
       <use xlink:href="#m48c5c9bd04" x="610.781818" y="148" style="stroke: #000000; stroke-width: 0.8"/>
      </g>
     </g>
    </g>
   </g>
   <g id="matplotlib.axis_2">
    <g id="ytick_1">
     <g id="line2d_19">
      <path d="M 56 128.079595 
L 637.2 128.079595 
" clip-path="url(#p99176b13b0)" style="fill: none; stroke: #b0b0b0; stroke-opacity: 0.3; stroke-width: 0.8; stroke-linecap: square"/>
     </g>
     <g id="line2d_20">
      <defs>
       <path id="mf948f4e500" d="M 0 0 
L -3.5 0 
" style="stroke: #000000; stroke-width: 0.8"/>
      </defs>
      <g>
       <use xlink:href="#mf948f4e500" x="56" y="128.079595" style="stroke: #000000; stroke-width: 0.8"/>
      </g>
     </g>
     <g id="text_1">
      <!-- −0.5 -->
      <g transform="translate(24.717187 131.878814) scale(0.1 -0.1)">
       <defs>
        <path id="DejaVuSans-2212" d="M 678 2272 
L 4684 2272 
L 4684 1741 
L 678 1741 
L 678 2272 
z
" transform="scale(0.015625)"/>
        <path id="DejaVuSans-30" d="M 2034 4250 
Q 1547 4250 1301 3770 
Q 1056 3291 1056 2328 
Q 1056 1369 1301 889 
Q 1547 409 2034 409 
Q 2525 409 2770 889 
Q 3016 1369 3016 2328 
Q 3016 3291 2770 3770 
Q 2525 4250 2034 4250 
z
M 2034 4750 
Q 2819 4750 3233 4129 
Q 3647 3509 3647 2328 
Q 3647 1150 3233 529 
Q 2819 -91 2034 -91 
Q 1250 -91 836 529 
Q 422 1150 422 2328 
Q 422 3509 836 4129 
Q 1250 4750 2034 4750 
z
" transform="scale(0.015625)"/>
        <path id="DejaVuSans-2e" d="M 684 794 
L 1344 794 
L 1344 0 
L 684 0 
L 684 794 
z
" transform="scale(0.015625)"/>
        <path id="DejaVuSans-35" d="M 691 4666 
L 3169 4666 
L 3169 4134 
L 1269 4134 
L 1269 2991 
Q 1406 3038 1543 3061 
Q 1681 3084 1819 3084 
Q 2600 3084 3056 2656 
Q 3513 2228 3513 1497 
Q 3513 744 3044 326 
Q 2575 -91 1722 -91 
Q 1428 -91 1123 -41 
Q 819 9 494 109 
L 494 744 
Q 775 591 1075 516 
Q 1375 441 1709 441 
Q 2250 441 2565 725 
Q 2881 1009 2881 1497 
Q 2881 1984 2565 2268 
Q 2250 2553 1709 2553 
Q 1456 2553 1204 2497 
Q 953 2441 691 2322 
L 691 4666 
z
" transform="scale(0.015625)"/>
       </defs>
       <use xlink:href="#DejaVuSans-2212"/>
       <use xlink:href="#DejaVuSans-30" transform="translate(83.789062 0)"/>
       <use xlink:href="#DejaVuSans-2e" transform="translate(147.412109 0)"/>
       <use xlink:href="#DejaVuSans-35" transform="translate(179.199219 0)"/>
      </g>
     </g>
    </g>
    <g id="ytick_2">
     <g id="line2d_21">
      <path d="M 56 89.970238 
L 637.2 89.970238 
" clip-path="url(#p99176b13b0)" style="fill: none; stroke: #b0b0b0; stroke-opacity: 0.3; stroke-width: 0.8; stroke-linecap: square"/>
     </g>
     <g id="line2d_22">
      <g>
       <use xlink:href="#mf948f4e500" x="56" y="89.970238" style="stroke: #000000; stroke-width: 0.8"/>
      </g>
     </g>
     <g id="text_2">
      <!-- 0.0 -->
      <g transform="translate(33.096875 93.769457) scale(0.1 -0.1)">
       <use xlink:href="#DejaVuSans-30"/>
       <use xlink:href="#DejaVuSans-2e" transform="translate(63.623047 0)"/>
       <use xlink:href="#DejaVuSans-30" transform="translate(95.410156 0)"/>
      </g>
     </g>
    </g>
    <g id="ytick_3">
     <g id="line2d_23">
      <path d="M 56 51.860881 
L 637.2 51.860881 
" clip-path="url(#p99176b13b0)" style="fill: none; stroke: #b0b0b0; stroke-opacity: 0.3; stroke-width: 0.8; stroke-linecap: square"/>
     </g>
     <g id="line2d_24">
      <g>
       <use xlink:href="#mf948f4e500" x="56" y="51.860881" style="stroke: #000000; stroke-width: 0.8"/>
      </g>
     </g>
     <g id="text_3">
      <!-- 0.5 -->
      <g transform="translate(33.096875 55.6601) scale(0.1 -0.1)">
       <use xlink:href="#DejaVuSans-30"/>
       <use xlink:href="#DejaVuSans-2e" transform="translate(63.623047 0)"/>
       <use xlink:href="#DejaVuSans-35" transform="translate(95.410156 0)"/>
      </g>
     </g>
    </g>
    <g id="text_4">
     <!-- lateral accel [g] -->
     <g transform="translate(18.6375 126.720469) rotate(-90) scale(0.1 -0.1)">
      <defs>
       <path id="DejaVuSans-6c" d="M 603 4863 
L 1178 4863 
L 1178 0 
L 603 0 
L 603 4863 
z
" transform="scale(0.015625)"/>
       <path id="DejaVuSans-61" d="M 2194 1759 
Q 1497 1759 1228 1600 
Q 959 1441 959 1056 
Q 959 750 1161 570 
Q 1363 391 1709 391 
Q 2188 391 2477 730 
Q 2766 1069 2766 1631 
L 2766 1759 
L 2194 1759 
z
M 3341 1997 
L 3341 0 
L 2766 0 
L 2766 531 
Q 2569 213 2275 61 
Q 1981 -91 1556 -91 
Q 1019 -91 701 211 
Q 384 513 384 1019 
Q 384 1609 779 1909 
Q 1175 2209 1959 2209 
L 2766 2209 
L 2766 2266 
Q 2766 2663 2505 2880 
Q 2244 3097 1772 3097 
Q 1472 3097 1187 3025 
Q 903 2953 641 2809 
L 641 3341 
Q 956 3463 1253 3523 
Q 1550 3584 1831 3584 
Q 2591 3584 2966 3190 
Q 3341 2797 3341 1997 
z
" transform="scale(0.015625)"/>
       <path id="DejaVuSans-74" d="M 1172 4494 
L 1172 3500 
L 2356 3500 
L 2356 3053 
L 1172 3053 
L 1172 1153 
Q 1172 725 1289 603 
Q 1406 481 1766 481 
L 2356 481 
L 2356 0 
L 1766 0 
Q 1100 0 847 248 
Q 594 497 594 1153 
L 594 3053 
L 172 3053 
L 172 3500 
L 594 3500 
L 594 4494 
L 1172 4494 
z
" transform="scale(0.015625)"/>
       <path id="DejaVuSans-65" d="M 3597 1894 
L 3597 1613 
L 953 1613 
Q 991 1019 1311 708 
Q 1631 397 2203 397 
Q 2534 397 2845 478 
Q 3156 559 3463 722 
L 3463 178 
Q 3153 47 2828 -22 
Q 2503 -91 2169 -91 
Q 1331 -91 842 396 
Q 353 884 353 1716 
Q 353 2575 817 3079 
Q 1281 3584 2069 3584 
Q 2775 3584 3186 3129 
Q 3597 2675 3597 1894 
z
M 3022 2063 
Q 3016 2534 2758 2815 
Q 2500 3097 2075 3097 
Q 1594 3097 1305 2825 
Q 1016 2553 972 2059 
L 3022 2063 
z
" transform="scale(0.015625)"/>
       <path id="DejaVuSans-72" d="M 2631 2963 
Q 2534 3019 2420 3045 
Q 2306 3072 2169 3072 
Q 1681 3072 1420 2755 
Q 1159 2438 1159 1844 
L 1159 0 
L 581 0 
L 581 3500 
L 1159 3500 
L 1159 2956 
Q 1341 3275 1631 3429 
Q 1922 3584 2338 3584 
Q 2397 3584 2469 3576 
Q 2541 3569 2628 3553 
L 2631 2963 
z
" transform="scale(0.015625)"/>
       <path id="DejaVuSans-20" transform="scale(0.015625)"/>
       <path id="DejaVuSans-63" d="M 3122 3366 
L 3122 2828 
Q 2878 2963 2633 3030 
Q 2388 3097 2138 3097 
Q 1578 3097 1268 2742 
Q 959 2388 959 1747 
Q 959 1106 1268 751 
Q 1578 397 2138 397 
Q 2388 397 2633 464 
Q 2878 531 3122 666 
L 3122 134 
Q 2881 22 2623 -34 
Q 2366 -91 2075 -91 
Q 1284 -91 818 406 
Q 353 903 353 1747 
Q 353 2603 823 3093 
Q 1294 3584 2113 3584 
Q 2378 3584 2631 3529 
Q 2884 3475 3122 3366 
z
" transform="scale(0.015625)"/>
       <path id="DejaVuSans-5b" d="M 550 4863 
L 1875 4863 
L 1875 4416 
L 1125 4416 
L 1125 -397 
L 1875 -397 
L 1875 -844 
L 550 -844 
L 550 4863 
z
" transform="scale(0.015625)"/>
       <path id="DejaVuSans-67" d="M 2906 1791 
Q 2906 2416 2648 2759 
Q 2391 3103 1925 3103 
Q 1463 3103 1205 2759 
Q 947 2416 947 1791 
Q 947 1169 1205 825 
Q 1463 481 1925 481 
Q 2391 481 2648 825 
Q 2906 1169 2906 1791 
z
M 3481 434 
Q 3481 -459 3084 -895 
Q 2688 -1331 1869 -1331 
Q 1566 -1331 1297 -1286 
Q 1028 -1241 775 -1147 
L 775 -588 
Q 1028 -725 1275 -790 
Q 1522 -856 1778 -856 
Q 2344 -856 2625 -561 
Q 2906 -266 2906 331 
L 2906 616 
Q 2728 306 2450 153 
Q 2172 0 1784 0 
Q 1141 0 747 490 
Q 353 981 353 1791 
Q 353 2603 747 3093 
Q 1141 3584 1784 3584 
Q 2172 3584 2450 3431 
Q 2728 3278 2906 2969 
L 2906 3500 
L 3481 3500 
L 3481 434 
z
" transform="scale(0.015625)"/>
       <path id="DejaVuSans-5d" d="M 1947 4863 
L 1947 -844 
L 622 -844 
L 622 -397 
L 1369 -397 
L 1369 4416 
L 622 4416 
L 622 4863 
L 1947 4863 
z
" transform="scale(0.015625)"/>
      </defs>
      <use xlink:href="#DejaVuSans-6c"/>
      <use xlink:href="#DejaVuSans-61" transform="translate(27.783203 0)"/>
      <use xlink:href="#DejaVuSans-74" transform="translate(89.0625 0)"/>
      <use xlink:href="#DejaVuSans-65" transform="translate(128.271484 0)"/>
      <use xlink:href="#DejaVuSans-72" transform="translate(189.794922 0)"/>
      <use xlink:href="#DejaVuSans-61" transform="translate(230.908203 0)"/>
      <use xlink:href="#DejaVuSans-6c" transform="translate(292.1875 0)"/>
      <use xlink:href="#DejaVuSans-20" transform="translate(319.970703 0)"/>
      <use xlink:href="#DejaVuSans-61" transform="translate(351.757812 0)"/>
      <use xlink:href="#DejaVuSans-63" transform="translate(413.037109 0)"/>
      <use xlink:href="#DejaVuSans-63" transform="translate(468.017578 0)"/>
      <use xlink:href="#DejaVuSans-65" transform="translate(522.998047 0)"/>
      <use xlink:href="#DejaVuSans-6c" transform="translate(584.521484 0)"/>
      <use xlink:href="#DejaVuSans-20" transform="translate(612.304688 0)"/>
      <use xlink:href="#DejaVuSans-5b" transform="translate(644.091797 0)"/>
      <use xlink:href="#DejaVuSans-67" transform="translate(683.105469 0)"/>
      <use xlink:href="#DejaVuSans-5d" transform="translate(746.582031 0)"/>
     </g>
    </g>
   </g>
   <g id="line2d_25">
    <path d="M 82.418182 89.970238 
L 95.429136 89.864255 
L 97.146318 89.584876 
L 98.599318 89.119446 
L 99.920227 88.466152 
L 101.241136 87.568559 
L 102.628091 86.35638 
L 104.147136 84.726876 
L 105.930364 82.463782 
L 108.109864 79.310819 
L 111.610273 73.791687 
L 116.233455 66.591536 
L 119.073409 62.584333 
L 121.649182 59.325097 
L 124.092864 56.582506 
L 126.4705 54.242121 
L 128.782091 52.276921 
L 130.961591 50.708452 
L 133.075045 49.459987 
L 135.056409 48.544268 
L 136.971727 47.905599 
L 138.754955 47.541025 
L 140.472136 47.412354 
L 142.123273 47.508147 
L 143.708364 47.817633 
L 145.293455 48.357893 
L 146.8125 49.111775 
L 148.331545 50.119178 
L 149.850591 51.405513 
L 151.369636 52.99888 
L 152.888682 54.928762 
L 154.407727 57.223837 
L 155.992818 60.034704 
L 157.643955 63.434031 
L 159.361136 67.482656 
L 161.276455 72.584868 
L 163.588045 79.421935 
L 169.201909 96.117542 
L 172.306045 104.793894 
L 174.155318 109.238586 
L 176.070636 113.253996 
L 178.118045 117.03091 
L 180.363591 120.708281 
L 182.741227 124.177169 
L 184.920727 126.976096 
L 186.77 129.008888 
L 188.487182 130.572091 
L 190.072273 131.719787 
L 191.591318 132.550816 
L 193.044318 133.103889 
L 194.497318 133.427688 
L 195.950318 133.529855 
L 197.469364 133.407144 
L 198.988409 133.056032 
L 200.5735 132.451332 
L 202.158591 131.607426 
L 203.809727 130.4781 
L 205.592955 128.977149 
L 207.442227 127.120664 
L 209.423591 124.807282 
L 211.537045 121.994366 
L 213.914682 118.44762 
L 216.688591 113.884495 
L 220.387136 107.327154 
L 225.736818 97.855746 
L 228.048409 94.226417 
L 229.963727 91.618748 
L 231.548818 89.807326 
L 233.001818 88.454705 
L 234.388773 87.455898 
L 235.775727 86.7167 
L 237.228727 86.193312 
L 238.681727 85.900453 
L 240.200773 85.814312 
L 241.851909 85.945787 
L 243.635136 86.31434 
L 245.682545 86.974164 
L 248.258318 88.057159 
L 258.363273 92.61338 
L 260.806955 93.677656 
L 262.326 94.581247 
L 263.712955 95.665912 
L 265.099909 97.045356 
L 266.552909 98.822806 
L 268.138 101.129059 
L 270.053318 104.340976 
L 272.629091 109.138387 
L 279.167591 121.489603 
L 281.743364 125.784404 
L 284.054955 129.221309 
L 286.234455 132.080618 
L 288.347909 134.500814 
L 290.461364 136.583215 
L 292.508773 138.289866 
L 294.490136 139.660557 
L 296.4715 140.762543 
L 298.386818 141.575777 
L 300.236091 142.124067 
L 302.019318 142.424689 
L 303.7365 142.488679 
L 305.321591 142.332618 
L 306.840636 141.965363 
L 308.293636 141.385356 
L 309.680591 140.58796 
L 311.0015 139.566478 
L 312.256364 138.313737 
L 313.511227 136.731819 
L 314.700045 134.870932 
L 315.888864 132.592304 
L 317.077682 129.824896 
L 318.2665 126.495371 
L 319.521364 122.296072 
L 320.842273 117.051784 
L 322.229227 110.610505 
L 325.333364 95.654784 
L 330.484909 71.105818 
L 333.192773 58.13153 
L 334.579727 52.786566 
L 335.900636 48.541225 
L 337.221545 45.022689 
L 338.542455 42.133585 
L 339.863364 39.783101 
L 341.184273 37.889326 
L 342.505182 36.379762 
L 343.892136 35.139336 
L 345.279091 34.191027 
L 346.798136 33.427385 
L 348.383227 32.881884 
L 350.100409 32.530151 
L 351.883636 32.388781 
L 353.798955 32.463835 
L 355.714273 32.763552 
L 357.563545 33.271684 
L 359.412818 34.014066 
L 361.13 34.942015 
L 362.781136 36.087796 
L 364.366227 37.465153 
L 365.885273 39.089015 
L 367.338273 40.972261 
L 368.791273 43.233897 
L 370.244273 45.932101 
L 371.697273 49.12287 
L 373.150273 52.852088 
L 374.735364 57.563615 
L 376.452545 63.410447 
L 378.433909 70.988073 
L 383.849636 92.278704 
L 385.897045 99.399621 
L 387.019818 102.62597 
L 388.076545 105.039548 
L 389.133273 106.913489 
L 390.123955 108.243235 
L 391.114636 109.218519 
L 392.105318 109.892559 
L 393.096 110.312591 
L 394.152727 110.526156 
L 395.2755 110.531859 
L 396.530364 110.313408 
L 397.917318 109.838528 
L 399.436364 109.071856 
L 401.021455 108.0166 
L 402.672591 106.645304 
L 404.389773 104.922802 
L 406.173 102.817418 
L 408.154364 100.1269 
L 410.598045 96.404304 
L 416.674227 86.944814 
L 418.391409 84.750905 
L 419.9765 83.068762 
L 421.495545 81.775743 
L 422.948545 80.826852 
L 424.3355 80.17452 
L 425.722455 79.756929 
L 427.175455 79.553631 
L 428.6945 79.573431 
L 430.279591 79.816013 
L 432.062818 80.314495 
L 434.242318 81.169991 
L 437.214364 82.603561 
L 445.734227 86.84182 
L 449.300682 88.294196 
L 452.735045 89.456654 
L 455.905227 90.304352 
L 459.075409 90.936963 
L 462.1135 91.315099 
L 465.085545 91.460393 
L 468.189682 91.387806 
L 471.888227 91.067663 
L 484.965227 89.726266 
L 490.182818 89.566987 
L 501.014273 89.509534 
L 509.996455 89.631267 
L 527.696636 90.001876 
L 570.428045 89.939245 
L 610.781818 89.972819 
L 610.781818 89.972819 
" clip-path="url(#p99176b13b0)" style="fill: none; stroke: #1f77b4; stroke-width: 1.3; stroke-linecap: square"/>
   </g>
   <g id="line2d_26">
    <path d="M 56 89.970238 
L 637.2 89.970238 
" clip-path="url(#p99176b13b0)" style="fill: none; stroke: #000000; stroke-width: 0.4; stroke-linecap: square"/>
   </g>
   <g id="patch_3">
    <path d="M 56 148 
L 56 26.88 
" style="fill: none; stroke: #000000; stroke-width: 0.8; stroke-linejoin: miter; stroke-linecap: square"/>
   </g>
   <g id="patch_4">
    <path d="M 637.2 148 
L 637.2 26.88 
" style="fill: none; stroke: #000000; stroke-width: 0.8; stroke-linejoin: miter; stroke-linecap: square"/>
   </g>
   <g id="patch_5">
    <path d="M 56 148 
L 637.2 148 
" style="fill: none; stroke: #000000; stroke-width: 0.8; stroke-linejoin: miter; stroke-linecap: square"/>
   </g>
   <g id="patch_6">
    <path d="M 56 26.88 
L 637.2 26.88 
" style="fill: none; stroke: #000000; stroke-width: 0.8; stroke-linejoin: miter; stroke-linecap: square"/>
   </g>
   <g id="text_5">
    <!-- Double lane change — vehicle response -->
    <g transform="translate(226.264375 20.88) scale(0.12 -0.12)">
     <defs>
      <path id="DejaVuSans-44" d="M 1259 4147 
L 1259 519 
L 2022 519 
Q 2988 519 3436 956 
Q 3884 1394 3884 2338 
Q 3884 3275 3436 3711 
Q 2988 4147 2022 4147 
L 1259 4147 
z
M 628 4666 
L 1925 4666 
Q 3281 4666 3915 4102 
Q 4550 3538 4550 2338 
Q 4550 1131 3912 565 
Q 3275 0 1925 0 
L 628 0 
L 628 4666 
z
" transform="scale(0.015625)"/>
      <path id="DejaVuSans-6f" d="M 1959 3097 
Q 1497 3097 1228 2736 
Q 959 2375 959 1747 
Q 959 1119 1226 758 
Q 1494 397 1959 397 
Q 2419 397 2687 759 
Q 2956 1122 2956 1747 
Q 2956 2369 2687 2733 
Q 2419 3097 1959 3097 
z
M 1959 3584 
Q 2709 3584 3137 3096 
Q 3566 2609 3566 1747 
Q 3566 888 3137 398 
Q 2709 -91 1959 -91 
Q 1206 -91 779 398 
Q 353 888 353 1747 
Q 353 2609 779 3096 
Q 1206 3584 1959 3584 
z
" transform="scale(0.015625)"/>
      <path id="DejaVuSans-75" d="M 544 1381 
L 544 3500 
L 1119 3500 
L 1119 1403 
Q 1119 906 1312 657 
Q 1506 409 1894 409 
Q 2359 409 2629 706 
Q 2900 1003 2900 1516 
L 2900 3500 
L 3475 3500 
L 3475 0 
L 2900 0 
L 2900 538 
Q 2691 219 2414 64 
Q 2138 -91 1772 -91 
Q 1169 -91 856 284 
Q 544 659 544 1381 
z
M 1991 3584 
L 1991 3584 
z
" transform="scale(0.015625)"/>
      <path id="DejaVuSans-62" d="M 3116 1747 
Q 3116 2381 2855 2742 
Q 2594 3103 2138 3103 
Q 1681 3103 1420 2742 
Q 1159 2381 1159 1747 
Q 1159 1113 1420 752 
Q 1681 391 2138 391 
Q 2594 391 2855 752 
Q 3116 1113 3116 1747 
z
M 1159 2969 
Q 1341 3281 1617 3432 
Q 1894 3584 2278 3584 
Q 2916 3584 3314 3078 
Q 3713 2572 3713 1747 
Q 3713 922 3314 415 
Q 2916 -91 2278 -91 
Q 1894 -91 1617 61 
Q 1341 213 1159 525 
L 1159 0 
L 581 0 
L 581 4863 
L 1159 4863 
L 1159 2969 
z
" transform="scale(0.015625)"/>
      <path id="DejaVuSans-6e" d="M 3513 2113 
L 3513 0 
L 2938 0 
L 2938 2094 
Q 2938 2591 2744 2837 
Q 2550 3084 2163 3084 
Q 1697 3084 1428 2787 
Q 1159 2491 1159 1978 
L 1159 0 
L 581 0 
L 581 3500 
L 1159 3500 
L 1159 2956 
Q 1366 3272 1645 3428 
Q 1925 3584 2291 3584 
Q 2894 3584 3203 3211 
Q 3513 2838 3513 2113 
z
" transform="scale(0.015625)"/>
      <path id="DejaVuSans-68" d="M 3513 2113 
L 3513 0 
L 2938 0 
L 2938 2094 
Q 2938 2591 2744 2837 
Q 2550 3084 2163 3084 
Q 1697 3084 1428 2787 
Q 1159 2491 1159 1978 
L 1159 0 
L 581 0 
L 581 4863 
L 1159 4863 
L 1159 2956 
Q 1366 3272 1645 3428 
Q 1925 3584 2291 3584 
Q 2894 3584 3203 3211 
Q 3513 2838 3513 2113 
z
" transform="scale(0.015625)"/>
      <path id="DejaVuSans-2014" d="M 313 1978 
L 6088 1978 
L 6088 1528 
L 313 1528 
L 313 1978 
z
" transform="scale(0.015625)"/>
      <path id="DejaVuSans-76" d="M 191 3500 
L 800 3500 
L 1894 563 
L 2988 3500 
L 3597 3500 
L 2284 0 
L 1503 0 
L 191 3500 
z
" transform="scale(0.015625)"/>
      <path id="DejaVuSans-69" d="M 603 3500 
L 1178 3500 
L 1178 0 
L 603 0 
L 603 3500 
z
M 603 4863 
L 1178 4863 
L 1178 4134 
L 603 4134 
L 603 4863 
z
" transform="scale(0.015625)"/>
      <path id="DejaVuSans-73" d="M 2834 3397 
L 2834 2853 
Q 2591 2978 2328 3040 
Q 2066 3103 1784 3103 
Q 1356 3103 1142 2972 
Q 928 2841 928 2578 
Q 928 2378 1081 2264 
Q 1234 2150 1697 2047 
L 1894 2003 
Q 2506 1872 2764 1633 
Q 3022 1394 3022 966 
Q 3022 478 2636 193 
Q 2250 -91 1575 -91 
Q 1294 -91 989 -36 
Q 684 19 347 128 
L 347 722 
Q 666 556 975 473 
Q 1284 391 1588 391 
Q 1994 391 2212 530 
Q 2431 669 2431 922 
Q 2431 1156 2273 1281 
Q 2116 1406 1581 1522 
L 1381 1569 
Q 847 1681 609 1914 
Q 372 2147 372 2553 
Q 372 3047 722 3315 
Q 1072 3584 1716 3584 
Q 2034 3584 2315 3537 
Q 2597 3491 2834 3397 
z
" transform="scale(0.015625)"/>
      <path id="DejaVuSans-70" d="M 1159 525 
L 1159 -1331 
L 581 -1331 
L 581 3500 
L 1159 3500 
L 1159 2969 
Q 1341 3281 1617 3432 
Q 1894 3584 2278 3584 
Q 2916 3584 3314 3078 
Q 3713 2572 3713 1747 
Q 3713 922 3314 415 
Q 2916 -91 2278 -91 
Q 1894 -91 1617 61 
Q 1341 213 1159 525 
z
M 3116 1747 
Q 3116 2381 2855 2742 
Q 2594 3103 2138 3103 
Q 1681 3103 1420 2742 
Q 1159 2381 1159 1747 
Q 1159 1113 1420 752 
Q 1681 391 2138 391 
Q 2594 391 2855 752 
Q 3116 1113 3116 1747 
z
" transform="scale(0.015625)"/>
     </defs>
     <use xlink:href="#DejaVuSans-44"/>
     <use xlink:href="#DejaVuSans-6f" transform="translate(77.001953 0)"/>
     <use xlink:href="#DejaVuSans-75" transform="translate(138.183594 0)"/>
     <use xlink:href="#DejaVuSans-62" transform="translate(201.5625 0)"/>
     <use xlink:href="#DejaVuSans-6c" transform="translate(265.039062 0)"/>
     <use xlink:href="#DejaVuSans-65" transform="translate(292.822266 0)"/>
     <use xlink:href="#DejaVuSans-20" transform="translate(354.345703 0)"/>
     <use xlink:href="#DejaVuSans-6c" transform="translate(386.132812 0)"/>
     <use xlink:href="#DejaVuSans-61" transform="translate(413.916016 0)"/>
     <use xlink:href="#DejaVuSans-6e" transform="translate(475.195312 0)"/>
     <use xlink:href="#DejaVuSans-65" transform="translate(538.574219 0)"/>
     <use xlink:href="#DejaVuSans-20" transform="translate(600.097656 0)"/>
     <use xlink:href="#DejaVuSans-63" transform="translate(631.884766 0)"/>
     <use xlink:href="#DejaVuSans-68" transform="translate(686.865234 0)"/>
     <use xlink:href="#DejaVuSans-61" transform="translate(750.244141 0)"/>
     <use xlink:href="#DejaVuSans-6e" transform="translate(811.523438 0)"/>
     <use xlink:href="#DejaVuSans-67" transform="translate(874.902344 0)"/>
     <use xlink:href="#DejaVuSans-65" transform="translate(938.378906 0)"/>
     <use xlink:href="#DejaVuSans-20" transform="translate(999.902344 0)"/>
     <use xlink:href="#DejaVuSans-2014" transform="translate(1031.689453 0)"/>
     <use xlink:href="#DejaVuSans-20" transform="translate(1131.689453 0)"/>
     <use xlink:href="#DejaVuSans-76" transform="translate(1163.476562 0)"/>
     <use xlink:href="#DejaVuSans-65" transform="translate(1222.65625 0)"/>
     <use xlink:href="#DejaVuSans-68" transform="translate(1284.179688 0)"/>
     <use xlink:href="#DejaVuSans-69" transform="translate(1347.558594 0)"/>
     <use xlink:href="#DejaVuSans-63" transform="translate(1375.341797 0)"/>
     <use xlink:href="#DejaVuSans-6c" transform="translate(1430.322266 0)"/>
     <use xlink:href="#DejaVuSans-65" transform="translate(1458.105469 0)"/>
     <use xlink:href="#DejaVuSans-20" transform="translate(1519.628906 0)"/>
     <use xlink:href="#DejaVuSans-72" transform="translate(1551.416016 0)"/>
     <use xlink:href="#DejaVuSans-65" transform="translate(1590.279297 0)"/>
     <use xlink:href="#DejaVuSans-73" transform="translate(1651.802734 0)"/>
     <use xlink:href="#DejaVuSans-70" transform="translate(1703.902344 0)"/>
     <use xlink:href="#DejaVuSans-6f" transform="translate(1767.378906 0)"/>
     <use xlink:href="#DejaVuSans-6e" transform="translate(1828.560547 0)"/>
     <use xlink:href="#DejaVuSans-73" transform="translate(1891.939453 0)"/>
     <use xlink:href="#DejaVuSans-65" transform="translate(1944.039062 0)"/>
    </g>
   </g>
  </g>
  <g id="axes_2">
   <g id="patch_7">
    <path d="M 56 283.42 
L 637.2 283.42 
L 637.2 162.3 
L 56 162.3 
z
" style="fill: #ffffff"/>
   </g>
   <g id="matplotlib.axis_3">
    <g id="xtick_10">
     <g id="line2d_27">
      <path d="M 82.418182 283.42 
L 82.418182 162.3 
" clip-path="url(#p4aba750750)" style="fill: none; stroke: #b0b0b0; stroke-opacity: 0.3; stroke-width: 0.8; stroke-linecap: square"/>
     </g>
     <g id="line2d_28">
      <g>
       <use xlink:href="#m48c5c9bd04" x="82.418182" y="283.42" style="stroke: #000000; stroke-width: 0.8"/>
      </g>
     </g>
    </g>
    <g id="xtick_11">
     <g id="line2d_29">
      <path d="M 148.463636 283.42 
L 148.463636 162.3 
" clip-path="url(#p4aba750750)" style="fill: none; stroke: #b0b0b0; stroke-opacity: 0.3; stroke-width: 0.8; stroke-linecap: square"/>
     </g>
     <g id="line2d_30">
      <g>
       <use xlink:href="#m48c5c9bd04" x="148.463636" y="283.42" style="stroke: #000000; stroke-width: 0.8"/>
      </g>
     </g>
    </g>
    <g id="xtick_12">
     <g id="line2d_31">
      <path d="M 214.509091 283.42 
L 214.509091 162.3 
" clip-path="url(#p4aba750750)" style="fill: none; stroke: #b0b0b0; stroke-opacity: 0.3; stroke-width: 0.8; stroke-linecap: square"/>
     </g>
     <g id="line2d_32">
      <g>
       <use xlink:href="#m48c5c9bd04" x="214.509091" y="283.42" style="stroke: #000000; stroke-width: 0.8"/>
      </g>
     </g>
    </g>
    <g id="xtick_13">
     <g id="line2d_33">
      <path d="M 280.554545 283.42 
L 280.554545 162.3 
" clip-path="url(#p4aba750750)" style="fill: none; stroke: #b0b0b0; stroke-opacity: 0.3; stroke-width: 0.8; stroke-linecap: square"/>
     </g>
     <g id="line2d_34">
      <g>
       <use xlink:href="#m48c5c9bd04" x="280.554545" y="283.42" style="stroke: #000000; stroke-width: 0.8"/>
      </g>
     </g>
    </g>
    <g id="xtick_14">
     <g id="line2d_35">
      <path d="M 346.6 283.42 
L 346.6 162.3 
" clip-path="url(#p4aba750750)" style="fill: none; stroke: #b0b0b0; stroke-opacity: 0.3; stroke-width: 0.8; stroke-linecap: square"/>
     </g>
     <g id="line2d_36">
      <g>
       <use xlink:href="#m48c5c9bd04" x="346.6" y="283.42" style="stroke: #000000; stroke-width: 0.8"/>
      </g>
     </g>
    </g>
    <g id="xtick_15">
     <g id="line2d_37">
      <path d="M 412.645455 283.42 
L 412.645455 162.3 
" clip-path="url(#p4aba750750)" style="fill: none; stroke: #b0b0b0; stroke-opacity: 0.3; stroke-width: 0.8; stroke-linecap: square"/>
     </g>
     <g id="line2d_38">
      <g>
       <use xlink:href="#m48c5c9bd04" x="412.645455" y="283.42" style="stroke: #000000; stroke-width: 0.8"/>
      </g>
     </g>
    </g>
    <g id="xtick_16">
     <g id="line2d_39">
      <path d="M 478.690909 283.42 
L 478.690909 162.3 
" clip-path="url(#p4aba750750)" style="fill: none; stroke: #b0b0b0; stroke-opacity: 0.3; stroke-width: 0.8; stroke-linecap: square"/>
     </g>
     <g id="line2d_40">
      <g>
       <use xlink:href="#m48c5c9bd04" x="478.690909" y="283.42" style="stroke: #000000; stroke-width: 0.8"/>
      </g>
     </g>
    </g>
    <g id="xtick_17">
     <g id="line2d_41">
      <path d="M 544.736364 283.42 
L 544.736364 162.3 
" clip-path="url(#p4aba750750)" style="fill: none; stroke: #b0b0b0; stroke-opacity: 0.3; stroke-width: 0.8; stroke-linecap: square"/>
     </g>
     <g id="line2d_42">
      <g>
       <use xlink:href="#m48c5c9bd04" x="544.736364" y="283.42" style="stroke: #000000; stroke-width: 0.8"/>
      </g>
     </g>
    </g>
    <g id="xtick_18">
     <g id="line2d_43">
      <path d="M 610.781818 283.42 
L 610.781818 162.3 
" clip-path="url(#p4aba750750)" style="fill: none; stroke: #b0b0b0; stroke-opacity: 0.3; stroke-width: 0.8; stroke-linecap: square"/>
     </g>
     <g id="line2d_44">
      <g>
       <use xlink:href="#m48c5c9bd04" x="610.781818" y="283.42" style="stroke: #000000; stroke-width: 0.8"/>
      </g>
     </g>
    </g>
   </g>
   <g id="matplotlib.axis_4">
    <g id="ytick_4">
     <g id="line2d_45">
      <path d="M 56 273.856769 
L 637.2 273.856769 
" clip-path="url(#p4aba750750)" style="fill: none; stroke: #b0b0b0; stroke-opacity: 0.3; stroke-width: 0.8; stroke-linecap: square"/>
     </g>
     <g id="line2d_46">
      <g>
       <use xlink:href="#mf948f4e500" x="56" y="273.856769" style="stroke: #000000; stroke-width: 0.8"/>
      </g>
     </g>
     <g id="text_6">
      <!-- −20 -->
      <g transform="translate(27.895312 277.655987) scale(0.1 -0.1)">
       <defs>
        <path id="DejaVuSans-32" d="M 1228 531 
L 3431 531 
L 3431 0 
L 469 0 
L 469 531 
Q 828 903 1448 1529 
Q 2069 2156 2228 2338 
Q 2531 2678 2651 2914 
Q 2772 3150 2772 3378 
Q 2772 3750 2511 3984 
Q 2250 4219 1831 4219 
Q 1534 4219 1204 4116 
Q 875 4013 500 3803 
L 500 4441 
Q 881 4594 1212 4672 
Q 1544 4750 1819 4750 
Q 2544 4750 2975 4387 
Q 3406 4025 3406 3419 
Q 3406 3131 3298 2873 
Q 3191 2616 2906 2266 
Q 2828 2175 2409 1742 
Q 1991 1309 1228 531 
z
" transform="scale(0.015625)"/>
       </defs>
       <use xlink:href="#DejaVuSans-2212"/>
       <use xlink:href="#DejaVuSans-32" transform="translate(83.789062 0)"/>
       <use xlink:href="#DejaVuSans-30" transform="translate(147.412109 0)"/>
      </g>
     </g>
    </g>
    <g id="ytick_5">
     <g id="line2d_47">
      <path d="M 56 252.109953 
L 637.2 252.109953 
" clip-path="url(#p4aba750750)" style="fill: none; stroke: #b0b0b0; stroke-opacity: 0.3; stroke-width: 0.8; stroke-linecap: square"/>
     </g>
     <g id="line2d_48">
      <g>
       <use xlink:href="#mf948f4e500" x="56" y="252.109953" style="stroke: #000000; stroke-width: 0.8"/>
      </g>
     </g>
     <g id="text_7">
      <!-- −10 -->
      <g transform="translate(27.895312 255.909171) scale(0.1 -0.1)">
       <defs>
        <path id="DejaVuSans-31" d="M 794 531 
L 1825 531 
L 1825 4091 
L 703 3866 
L 703 4441 
L 1819 4666 
L 2450 4666 
L 2450 531 
L 3481 531 
L 3481 0 
L 794 0 
L 794 531 
z
" transform="scale(0.015625)"/>
       </defs>
       <use xlink:href="#DejaVuSans-2212"/>
       <use xlink:href="#DejaVuSans-31" transform="translate(83.789062 0)"/>
       <use xlink:href="#DejaVuSans-30" transform="translate(147.412109 0)"/>
      </g>
     </g>
    </g>
    <g id="ytick_6">
     <g id="line2d_49">
      <path d="M 56 230.363136 
L 637.2 230.363136 
" clip-path="url(#p4aba750750)" style="fill: none; stroke: #b0b0b0; stroke-opacity: 0.3; stroke-width: 0.8; stroke-linecap: square"/>
     </g>
     <g id="line2d_50">
      <g>
       <use xlink:href="#mf948f4e500" x="56" y="230.363136" style="stroke: #000000; stroke-width: 0.8"/>
      </g>
     </g>
     <g id="text_8">
      <!-- 0 -->
      <g transform="translate(42.6375 234.162355) scale(0.1 -0.1)">
       <use xlink:href="#DejaVuSans-30"/>
      </g>
     </g>
    </g>
    <g id="ytick_7">
     <g id="line2d_51">
      <path d="M 56 208.61632 
L 637.2 208.61632 
" clip-path="url(#p4aba750750)" style="fill: none; stroke: #b0b0b0; stroke-opacity: 0.3; stroke-width: 0.8; stroke-linecap: square"/>
     </g>
     <g id="line2d_52">
      <g>
       <use xlink:href="#mf948f4e500" x="56" y="208.61632" style="stroke: #000000; stroke-width: 0.8"/>
      </g>
     </g>
     <g id="text_9">
      <!-- 10 -->
      <g transform="translate(36.275 212.415539) scale(0.1 -0.1)">
       <use xlink:href="#DejaVuSans-31"/>
       <use xlink:href="#DejaVuSans-30" transform="translate(63.623047 0)"/>
      </g>
     </g>
    </g>
    <g id="ytick_8">
     <g id="line2d_53">
      <path d="M 56 186.869504 
L 637.2 186.869504 
" clip-path="url(#p4aba750750)" style="fill: none; stroke: #b0b0b0; stroke-opacity: 0.3; stroke-width: 0.8; stroke-linecap: square"/>
     </g>
     <g id="line2d_54">
      <g>
       <use xlink:href="#mf948f4e500" x="56" y="186.869504" style="stroke: #000000; stroke-width: 0.8"/>
      </g>
     </g>
     <g id="text_10">
      <!-- 20 -->
      <g transform="translate(36.275 190.668723) scale(0.1 -0.1)">
       <use xlink:href="#DejaVuSans-32"/>
       <use xlink:href="#DejaVuSans-30" transform="translate(63.623047 0)"/>
      </g>
     </g>
    </g>
    <g id="ytick_9">
     <g id="line2d_55">
      <path d="M 56 165.122688 
L 637.2 165.122688 
" clip-path="url(#p4aba750750)" style="fill: none; stroke: #b0b0b0; stroke-opacity: 0.3; stroke-width: 0.8; stroke-linecap: square"/>
     </g>
     <g id="line2d_56">
      <g>
       <use xlink:href="#mf948f4e500" x="56" y="165.122688" style="stroke: #000000; stroke-width: 0.8"/>
      </g>
     </g>
     <g id="text_11">
      <!-- 30 -->
      <g transform="translate(36.275 168.921907) scale(0.1 -0.1)">
       <defs>
        <path id="DejaVuSans-33" d="M 2597 2516 
Q 3050 2419 3304 2112 
Q 3559 1806 3559 1356 
Q 3559 666 3084 287 
Q 2609 -91 1734 -91 
Q 1441 -91 1130 -33 
Q 819 25 488 141 
L 488 750 
Q 750 597 1062 519 
Q 1375 441 1716 441 
Q 2309 441 2620 675 
Q 2931 909 2931 1356 
Q 2931 1769 2642 2001 
Q 2353 2234 1838 2234 
L 1294 2234 
L 1294 2753 
L 1863 2753 
Q 2328 2753 2575 2939 
Q 2822 3125 2822 3475 
Q 2822 3834 2567 4026 
Q 2313 4219 1838 4219 
Q 1578 4219 1281 4162 
Q 984 4106 628 3988 
L 628 4550 
Q 988 4650 1302 4700 
Q 1616 4750 1894 4750 
Q 2613 4750 3031 4423 
Q 3450 4097 3450 3541 
Q 3450 3153 3228 2886 
Q 3006 2619 2597 2516 
z
" transform="scale(0.015625)"/>
       </defs>
       <use xlink:href="#DejaVuSans-33"/>
       <use xlink:href="#DejaVuSans-30" transform="translate(63.623047 0)"/>
      </g>
     </g>
    </g>
    <g id="text_12">
     <!-- yaw rate [deg/s] -->
     <g transform="translate(21.815625 263.9225) rotate(-90) scale(0.1 -0.1)">
      <defs>
       <path id="DejaVuSans-79" d="M 2059 -325 
Q 1816 -950 1584 -1140 
Q 1353 -1331 966 -1331 
L 506 -1331 
L 506 -850 
L 844 -850 
Q 1081 -850 1212 -737 
Q 1344 -625 1503 -206 
L 1606 56 
L 191 3500 
L 800 3500 
L 1894 763 
L 2988 3500 
L 3597 3500 
L 2059 -325 
z
" transform="scale(0.015625)"/>
       <path id="DejaVuSans-77" d="M 269 3500 
L 844 3500 
L 1563 769 
L 2278 3500 
L 2956 3500 
L 3675 769 
L 4391 3500 
L 4966 3500 
L 4050 0 
L 3372 0 
L 2619 2869 
L 1863 0 
L 1184 0 
L 269 3500 
z
" transform="scale(0.015625)"/>
       <path id="DejaVuSans-64" d="M 2906 2969 
L 2906 4863 
L 3481 4863 
L 3481 0 
L 2906 0 
L 2906 525 
Q 2725 213 2448 61 
Q 2172 -91 1784 -91 
Q 1150 -91 751 415 
Q 353 922 353 1747 
Q 353 2572 751 3078 
Q 1150 3584 1784 3584 
Q 2172 3584 2448 3432 
Q 2725 3281 2906 2969 
z
M 947 1747 
Q 947 1113 1208 752 
Q 1469 391 1925 391 
Q 2381 391 2643 752 
Q 2906 1113 2906 1747 
Q 2906 2381 2643 2742 
Q 2381 3103 1925 3103 
Q 1469 3103 1208 2742 
Q 947 2381 947 1747 
z
" transform="scale(0.015625)"/>
       <path id="DejaVuSans-2f" d="M 1625 4666 
L 2156 4666 
L 531 -594 
L 0 -594 
L 1625 4666 
z
" transform="scale(0.015625)"/>
      </defs>
      <use xlink:href="#DejaVuSans-79"/>
      <use xlink:href="#DejaVuSans-61" transform="translate(59.179688 0)"/>
      <use xlink:href="#DejaVuSans-77" transform="translate(120.458984 0)"/>
      <use xlink:href="#DejaVuSans-20" transform="translate(202.246094 0)"/>
      <use xlink:href="#DejaVuSans-72" transform="translate(234.033203 0)"/>
      <use xlink:href="#DejaVuSans-61" transform="translate(275.146484 0)"/>
      <use xlink:href="#DejaVuSans-74" transform="translate(336.425781 0)"/>
      <use xlink:href="#DejaVuSans-65" transform="translate(375.634766 0)"/>
      <use xlink:href="#DejaVuSans-20" transform="translate(437.158203 0)"/>
      <use xlink:href="#DejaVuSans-5b" transform="translate(468.945312 0)"/>
      <use xlink:href="#DejaVuSans-64" transform="translate(507.958984 0)"/>
      <use xlink:href="#DejaVuSans-65" transform="translate(571.435547 0)"/>
      <use xlink:href="#DejaVuSans-67" transform="translate(632.958984 0)"/>
      <use xlink:href="#DejaVuSans-2f" transform="translate(696.435547 0)"/>
      <use xlink:href="#DejaVuSans-73" transform="translate(730.126953 0)"/>
      <use xlink:href="#DejaVuSans-5d" transform="translate(782.226562 0)"/>
     </g>
    </g>
   </g>
   <g id="line2d_57">
    <path d="M 82.418182 230.363136 
L 97.476545 230.255684 
L 99.457909 229.982775 
L 101.043 229.538 
L 102.429955 228.920775 
L 103.750864 228.096093 
L 105.137818 226.956441 
L 106.590818 225.453205 
L 108.175909 223.468346 
L 109.959136 220.862891 
L 112.270727 217.063915 
L 119.2055 205.394067 
L 121.318955 202.416905 
L 123.168227 200.176153 
L 124.951455 198.356899 
L 126.668636 196.921113 
L 128.319773 195.822315 
L 129.970909 194.984266 
L 131.622045 194.389814 
L 133.339227 194.012178 
L 135.056409 193.864069 
L 136.839636 193.940294 
L 138.622864 194.242773 
L 140.406091 194.768973 
L 142.189318 195.522246 
L 143.972545 196.51197 
L 145.755773 197.753726 
L 147.539 199.269469 
L 149.322227 201.087531 
L 151.039409 203.155896 
L 152.756591 205.57076 
L 154.473773 208.367868 
L 156.257 211.711913 
L 158.106273 215.678629 
L 160.021591 220.324164 
L 162.201091 226.216277 
L 165.437318 235.720608 
L 168.277273 243.787632 
L 170.0605 248.221432 
L 171.579545 251.436093 
L 173.032545 253.995396 
L 174.485545 256.111278 
L 176.004591 257.92888 
L 177.589682 259.483591 
L 179.372909 260.921821 
L 181.552409 262.382226 
L 184.5905 264.125355 
L 188.024864 265.852954 
L 190.4025 266.819954 
L 192.317818 267.366743 
L 193.968955 267.613303 
L 195.488 267.618974 
L 196.941 267.400104 
L 198.327955 266.968273 
L 199.714909 266.305091 
L 201.101864 265.400751 
L 202.554864 264.188036 
L 204.073909 262.627332 
L 205.725045 260.595148 
L 207.508273 258.022926 
L 209.423591 254.859297 
L 211.669136 250.704577 
L 214.773273 244.437102 
L 219.594591 234.703954 
L 221.708045 230.970037 
L 223.425227 228.370201 
L 224.944273 226.461771 
L 226.331227 225.069736 
L 227.586091 224.106863 
L 228.840955 223.421729 
L 230.029773 223.016448 
L 231.284636 222.82531 
L 232.605545 222.855258 
L 234.124591 223.125609 
L 235.907818 223.681696 
L 238.219409 224.653202 
L 241.785864 226.425269 
L 251.032227 231.092537 
L 254.466591 232.547482 
L 257.2405 233.485527 
L 260.080455 234.202311 
L 263.580864 235.093129 
L 265.165955 235.738661 
L 266.552909 236.546277 
L 267.873818 237.584159 
L 269.194727 238.920293 
L 270.581682 240.660223 
L 272.100727 242.950803 
L 273.817909 245.96716 
L 275.997409 250.278653 
L 283.3945 265.31368 
L 285.375864 268.631971 
L 287.159091 271.194727 
L 288.810227 273.187615 
L 290.395318 274.754121 
L 291.914364 275.943281 
L 293.367364 276.805753 
L 294.820364 277.412304 
L 296.273364 277.776783 
L 297.726364 277.912947 
L 299.245409 277.824957 
L 300.764455 277.513627 
L 302.349545 276.960524 
L 304.000682 276.142427 
L 305.651818 275.076728 
L 307.369 273.69518 
L 309.020136 272.081785 
L 310.671273 270.151812 
L 312.256364 267.94911 
L 313.775409 265.450089 
L 315.228409 262.625626 
L 316.615364 259.446118 
L 318.002318 255.694918 
L 319.389273 251.262667 
L 320.776227 246.039044 
L 322.163182 239.930462 
L 323.748273 231.854198 
L 325.993818 219.094651 
L 329.626318 198.453108 
L 331.211409 190.735014 
L 332.532318 185.344547 
L 333.787182 181.099694 
L 335.042045 177.60006 
L 336.296909 174.750971 
L 337.485727 172.581194 
L 338.674545 170.871426 
L 339.797318 169.63868 
L 340.854045 168.787995 
L 341.910773 168.213241 
L 342.9675 167.892857 
L 344.024227 167.806876 
L 345.147 167.951483 
L 346.335818 168.346722 
L 347.590682 169.008951 
L 348.977636 170.004092 
L 350.496682 171.376519 
L 352.213864 173.24212 
L 354.129182 175.669733 
L 356.242636 178.726846 
L 358.488182 182.376147 
L 360.865818 186.679746 
L 363.243455 191.456748 
L 365.555045 196.607438 
L 367.800591 202.165718 
L 369.980091 208.171381 
L 372.093545 214.647547 
L 374.339091 222.271825 
L 376.914864 231.851526 
L 381.934318 250.750189 
L 383.387318 255.198424 
L 384.576136 258.144002 
L 385.566818 260.037197 
L 386.425409 261.235584 
L 387.217955 261.992431 
L 388.0105 262.441096 
L 388.737 262.603286 
L 389.4635 262.545989 
L 390.256045 262.253282 
L 391.114636 261.688748 
L 392.105318 260.749903 
L 393.228091 259.358963 
L 394.549 257.347204 
L 396.134091 254.510869 
L 398.313591 250.105784 
L 405.380455 235.437806 
L 407.427864 231.879492 
L 409.277136 229.095731 
L 411.060364 226.810507 
L 412.777545 224.96691 
L 414.494727 223.451608 
L 416.145864 222.281577 
L 417.863045 221.337522 
L 419.646273 220.613201 
L 421.495545 220.101179 
L 423.344818 219.818602 
L 425.128045 219.76626 
L 426.911273 219.939361 
L 428.628455 220.3259 
L 430.411682 220.954327 
L 432.327 221.870268 
L 434.5065 223.167776 
L 437.544591 225.265383 
L 442.233818 228.499693 
L 444.545409 229.806318 
L 446.592818 230.709454 
L 448.574182 231.337555 
L 450.621591 231.746046 
L 452.867136 231.959528 
L 455.707091 231.988181 
L 461.453045 231.753793 
L 472.482636 231.174151 
L 477.568136 230.587683 
L 484.238727 229.838395 
L 488.003318 229.658514 
L 492.032091 229.699127 
L 509.864364 230.190478 
L 519.242818 230.322753 
L 530.206364 230.480346 
L 584.495727 230.366776 
L 610.781818 230.36437 
L 610.781818 230.36437 
" clip-path="url(#p4aba750750)" style="fill: none; stroke: #9467bd; stroke-width: 1.3; stroke-linecap: square"/>
   </g>
   <g id="line2d_58">
    <path d="M 56 230.363136 
L 637.2 230.363136 
" clip-path="url(#p4aba750750)" style="fill: none; stroke: #000000; stroke-width: 0.4; stroke-linecap: square"/>
   </g>
   <g id="patch_8">
    <path d="M 56 283.42 
L 56 162.3 
" style="fill: none; stroke: #000000; stroke-width: 0.8; stroke-linejoin: miter; stroke-linecap: square"/>
   </g>
   <g id="patch_9">
    <path d="M 637.2 283.42 
L 637.2 162.3 
" style="fill: none; stroke: #000000; stroke-width: 0.8; stroke-linejoin: miter; stroke-linecap: square"/>
   </g>
   <g id="patch_10">
    <path d="M 56 283.42 
L 637.2 283.42 
" style="fill: none; stroke: #000000; stroke-width: 0.8; stroke-linejoin: miter; stroke-linecap: square"/>
   </g>
   <g id="patch_11">
    <path d="M 56 162.3 
L 637.2 162.3 
" style="fill: none; stroke: #000000; stroke-width: 0.8; stroke-linejoin: miter; stroke-linecap: square"/>
   </g>
  </g>
  <g id="axes_3">
   <g id="patch_12">
    <path d="M 56 418.84 
L 637.2 418.84 
L 637.2 297.72 
L 56 297.72 
z
" style="fill: #ffffff"/>
   </g>
   <g id="matplotlib.axis_5">
    <g id="xtick_19">
     <g id="line2d_59">
      <path d="M 82.418182 418.84 
L 82.418182 297.72 
" clip-path="url(#p298c2eae7e)" style="fill: none; stroke: #b0b0b0; stroke-opacity: 0.3; stroke-width: 0.8; stroke-linecap: square"/>
     </g>
     <g id="line2d_60">
      <g>
       <use xlink:href="#m48c5c9bd04" x="82.418182" y="418.84" style="stroke: #000000; stroke-width: 0.8"/>
      </g>
     </g>
     <g id="text_13">
      <!-- 0 -->
      <g transform="translate(79.236932 433.438437) scale(0.1 -0.1)">
       <use xlink:href="#DejaVuSans-30"/>
      </g>
     </g>
    </g>
    <g id="xtick_20">
     <g id="line2d_61">
      <path d="M 148.463636 418.84 
L 148.463636 297.72 
" clip-path="url(#p298c2eae7e)" style="fill: none; stroke: #b0b0b0; stroke-opacity: 0.3; stroke-width: 0.8; stroke-linecap: square"/>
     </g>
     <g id="line2d_62">
      <g>
       <use xlink:href="#m48c5c9bd04" x="148.463636" y="418.84" style="stroke: #000000; stroke-width: 0.8"/>
      </g>
     </g>
     <g id="text_14">
      <!-- 1 -->
      <g transform="translate(145.282386 433.438437) scale(0.1 -0.1)">
       <use xlink:href="#DejaVuSans-31"/>
      </g>
     </g>
    </g>
    <g id="xtick_21">
     <g id="line2d_63">
      <path d="M 214.509091 418.84 
L 214.509091 297.72 
" clip-path="url(#p298c2eae7e)" style="fill: none; stroke: #b0b0b0; stroke-opacity: 0.3; stroke-width: 0.8; stroke-linecap: square"/>
     </g>
     <g id="line2d_64">
      <g>
       <use xlink:href="#m48c5c9bd04" x="214.509091" y="418.84" style="stroke: #000000; stroke-width: 0.8"/>
      </g>
     </g>
     <g id="text_15">
      <!-- 2 -->
      <g transform="translate(211.327841 433.438437) scale(0.1 -0.1)">
       <use xlink:href="#DejaVuSans-32"/>
      </g>
     </g>
    </g>
    <g id="xtick_22">
     <g id="line2d_65">
      <path d="M 280.554545 418.84 
L 280.554545 297.72 
" clip-path="url(#p298c2eae7e)" style="fill: none; stroke: #b0b0b0; stroke-opacity: 0.3; stroke-width: 0.8; stroke-linecap: square"/>
     </g>
     <g id="line2d_66">
      <g>
       <use xlink:href="#m48c5c9bd04" x="280.554545" y="418.84" style="stroke: #000000; stroke-width: 0.8"/>
      </g>
     </g>
     <g id="text_16">
      <!-- 3 -->
      <g transform="translate(277.373295 433.438437) scale(0.1 -0.1)">
       <use xlink:href="#DejaVuSans-33"/>
      </g>
     </g>
    </g>
    <g id="xtick_23">
     <g id="line2d_67">
      <path d="M 346.6 418.84 
L 346.6 297.72 
" clip-path="url(#p298c2eae7e)" style="fill: none; stroke: #b0b0b0; stroke-opacity: 0.3; stroke-width: 0.8; stroke-linecap: square"/>
     </g>
     <g id="line2d_68">
      <g>
       <use xlink:href="#m48c5c9bd04" x="346.6" y="418.84" style="stroke: #000000; stroke-width: 0.8"/>
      </g>
     </g>
     <g id="text_17">
      <!-- 4 -->
      <g transform="translate(343.41875 433.438437) scale(0.1 -0.1)">
       <defs>
        <path id="DejaVuSans-34" d="M 2419 4116 
L 825 1625 
L 2419 1625 
L 2419 4116 
z
M 2253 4666 
L 3047 4666 
L 3047 1625 
L 3713 1625 
L 3713 1100 
L 3047 1100 
L 3047 0 
L 2419 0 
L 2419 1100 
L 313 1100 
L 313 1709 
L 2253 4666 
z
" transform="scale(0.015625)"/>
       </defs>
       <use xlink:href="#DejaVuSans-34"/>
      </g>
     </g>
    </g>
    <g id="xtick_24">
     <g id="line2d_69">
      <path d="M 412.645455 418.84 
L 412.645455 297.72 
" clip-path="url(#p298c2eae7e)" style="fill: none; stroke: #b0b0b0; stroke-opacity: 0.3; stroke-width: 0.8; stroke-linecap: square"/>
     </g>
     <g id="line2d_70">
      <g>
       <use xlink:href="#m48c5c9bd04" x="412.645455" y="418.84" style="stroke: #000000; stroke-width: 0.8"/>
      </g>
     </g>
     <g id="text_18">
      <!-- 5 -->
      <g transform="translate(409.464205 433.438437) scale(0.1 -0.1)">
       <use xlink:href="#DejaVuSans-35"/>
      </g>
     </g>
    </g>
    <g id="xtick_25">
     <g id="line2d_71">
      <path d="M 478.690909 418.84 
L 478.690909 297.72 
" clip-path="url(#p298c2eae7e)" style="fill: none; stroke: #b0b0b0; stroke-opacity: 0.3; stroke-width: 0.8; stroke-linecap: square"/>
     </g>
     <g id="line2d_72">
      <g>
       <use xlink:href="#m48c5c9bd04" x="478.690909" y="418.84" style="stroke: #000000; stroke-width: 0.8"/>
      </g>
     </g>
     <g id="text_19">
      <!-- 6 -->
      <g transform="translate(475.509659 433.438437) scale(0.1 -0.1)">
       <defs>
        <path id="DejaVuSans-36" d="M 2113 2584 
Q 1688 2584 1439 2293 
Q 1191 2003 1191 1497 
Q 1191 994 1439 701 
Q 1688 409 2113 409 
Q 2538 409 2786 701 
Q 3034 994 3034 1497 
Q 3034 2003 2786 2293 
Q 2538 2584 2113 2584 
z
M 3366 4563 
L 3366 3988 
Q 3128 4100 2886 4159 
Q 2644 4219 2406 4219 
Q 1781 4219 1451 3797 
Q 1122 3375 1075 2522 
Q 1259 2794 1537 2939 
Q 1816 3084 2150 3084 
Q 2853 3084 3261 2657 
Q 3669 2231 3669 1497 
Q 3669 778 3244 343 
Q 2819 -91 2113 -91 
Q 1303 -91 875 529 
Q 447 1150 447 2328 
Q 447 3434 972 4092 
Q 1497 4750 2381 4750 
Q 2619 4750 2861 4703 
Q 3103 4656 3366 4563 
z
" transform="scale(0.015625)"/>
       </defs>
       <use xlink:href="#DejaVuSans-36"/>
      </g>
     </g>
    </g>
    <g id="xtick_26">
     <g id="line2d_73">
      <path d="M 544.736364 418.84 
L 544.736364 297.72 
" clip-path="url(#p298c2eae7e)" style="fill: none; stroke: #b0b0b0; stroke-opacity: 0.3; stroke-width: 0.8; stroke-linecap: square"/>
     </g>
     <g id="line2d_74">
      <g>
       <use xlink:href="#m48c5c9bd04" x="544.736364" y="418.84" style="stroke: #000000; stroke-width: 0.8"/>
      </g>
     </g>
     <g id="text_20">
      <!-- 7 -->
      <g transform="translate(541.555114 433.438437) scale(0.1 -0.1)">
       <defs>
        <path id="DejaVuSans-37" d="M 525 4666 
L 3525 4666 
L 3525 4397 
L 1831 0 
L 1172 0 
L 2766 4134 
L 525 4134 
L 525 4666 
z
" transform="scale(0.015625)"/>
       </defs>
       <use xlink:href="#DejaVuSans-37"/>
      </g>
     </g>
    </g>
    <g id="xtick_27">
     <g id="line2d_75">
      <path d="M 610.781818 418.84 
L 610.781818 297.72 
" clip-path="url(#p298c2eae7e)" style="fill: none; stroke: #b0b0b0; stroke-opacity: 0.3; stroke-width: 0.8; stroke-linecap: square"/>
     </g>
     <g id="line2d_76">
      <g>
       <use xlink:href="#m48c5c9bd04" x="610.781818" y="418.84" style="stroke: #000000; stroke-width: 0.8"/>
      </g>
     </g>
     <g id="text_21">
      <!-- 8 -->
      <g transform="translate(607.600568 433.438437) scale(0.1 -0.1)">
       <defs>
        <path id="DejaVuSans-38" d="M 2034 2216 
Q 1584 2216 1326 1975 
Q 1069 1734 1069 1313 
Q 1069 891 1326 650 
Q 1584 409 2034 409 
Q 2484 409 2743 651 
Q 3003 894 3003 1313 
Q 3003 1734 2745 1975 
Q 2488 2216 2034 2216 
z
M 1403 2484 
Q 997 2584 770 2862 
Q 544 3141 544 3541 
Q 544 4100 942 4425 
Q 1341 4750 2034 4750 
Q 2731 4750 3128 4425 
Q 3525 4100 3525 3541 
Q 3525 3141 3298 2862 
Q 3072 2584 2669 2484 
Q 3125 2378 3379 2068 
Q 3634 1759 3634 1313 
Q 3634 634 3220 271 
Q 2806 -91 2034 -91 
Q 1263 -91 848 271 
Q 434 634 434 1313 
Q 434 1759 690 2068 
Q 947 2378 1403 2484 
z
M 1172 3481 
Q 1172 3119 1398 2916 
Q 1625 2713 2034 2713 
Q 2441 2713 2670 2916 
Q 2900 3119 2900 3481 
Q 2900 3844 2670 4047 
Q 2441 4250 2034 4250 
Q 1625 4250 1398 4047 
Q 1172 3844 1172 3481 
z
" transform="scale(0.015625)"/>
       </defs>
       <use xlink:href="#DejaVuSans-38"/>
      </g>
     </g>
    </g>
    <g id="text_22">
     <!-- time [s] -->
     <g transform="translate(327.208594 447.116562) scale(0.1 -0.1)">
      <defs>
       <path id="DejaVuSans-6d" d="M 3328 2828 
Q 3544 3216 3844 3400 
Q 4144 3584 4550 3584 
Q 5097 3584 5394 3201 
Q 5691 2819 5691 2113 
L 5691 0 
L 5113 0 
L 5113 2094 
Q 5113 2597 4934 2840 
Q 4756 3084 4391 3084 
Q 3944 3084 3684 2787 
Q 3425 2491 3425 1978 
L 3425 0 
L 2847 0 
L 2847 2094 
Q 2847 2600 2669 2842 
Q 2491 3084 2119 3084 
Q 1678 3084 1418 2786 
Q 1159 2488 1159 1978 
L 1159 0 
L 581 0 
L 581 3500 
L 1159 3500 
L 1159 2956 
Q 1356 3278 1631 3431 
Q 1906 3584 2284 3584 
Q 2666 3584 2933 3390 
Q 3200 3197 3328 2828 
z
" transform="scale(0.015625)"/>
      </defs>
      <use xlink:href="#DejaVuSans-74"/>
      <use xlink:href="#DejaVuSans-69" transform="translate(39.208984 0)"/>
      <use xlink:href="#DejaVuSans-6d" transform="translate(66.992188 0)"/>
      <use xlink:href="#DejaVuSans-65" transform="translate(164.404297 0)"/>
      <use xlink:href="#DejaVuSans-20" transform="translate(225.927734 0)"/>
      <use xlink:href="#DejaVuSans-5b" transform="translate(257.714844 0)"/>
      <use xlink:href="#DejaVuSans-73" transform="translate(296.728516 0)"/>
      <use xlink:href="#DejaVuSans-5d" transform="translate(348.828125 0)"/>
     </g>
    </g>
   </g>
   <g id="matplotlib.axis_6">
    <g id="ytick_10">
     <g id="line2d_77">
      <path d="M 56 404.781875 
L 637.2 404.781875 
" clip-path="url(#p298c2eae7e)" style="fill: none; stroke: #b0b0b0; stroke-opacity: 0.3; stroke-width: 0.8; stroke-linecap: square"/>
     </g>
     <g id="line2d_78">
      <g>
       <use xlink:href="#mf948f4e500" x="56" y="404.781875" style="stroke: #000000; stroke-width: 0.8"/>
      </g>
     </g>
     <g id="text_23">
      <!-- −4 -->
      <g transform="translate(34.257812 408.581094) scale(0.1 -0.1)">
       <use xlink:href="#DejaVuSans-2212"/>
       <use xlink:href="#DejaVuSans-34" transform="translate(83.789062 0)"/>
      </g>
     </g>
    </g>
    <g id="ytick_11">
     <g id="line2d_79">
      <path d="M 56 383.609186 
L 637.2 383.609186 
" clip-path="url(#p298c2eae7e)" style="fill: none; stroke: #b0b0b0; stroke-opacity: 0.3; stroke-width: 0.8; stroke-linecap: square"/>
     </g>
     <g id="line2d_80">
      <g>
       <use xlink:href="#mf948f4e500" x="56" y="383.609186" style="stroke: #000000; stroke-width: 0.8"/>
      </g>
     </g>
     <g id="text_24">
      <!-- −2 -->
      <g transform="translate(34.257812 387.408405) scale(0.1 -0.1)">
       <use xlink:href="#DejaVuSans-2212"/>
       <use xlink:href="#DejaVuSans-32" transform="translate(83.789062 0)"/>
      </g>
     </g>
    </g>
    <g id="ytick_12">
     <g id="line2d_81">
      <path d="M 56 362.436498 
L 637.2 362.436498 
" clip-path="url(#p298c2eae7e)" style="fill: none; stroke: #b0b0b0; stroke-opacity: 0.3; stroke-width: 0.8; stroke-linecap: square"/>
     </g>
     <g id="line2d_82">
      <g>
       <use xlink:href="#mf948f4e500" x="56" y="362.436498" style="stroke: #000000; stroke-width: 0.8"/>
      </g>
     </g>
     <g id="text_25">
      <!-- 0 -->
      <g transform="translate(42.6375 366.235717) scale(0.1 -0.1)">
       <use xlink:href="#DejaVuSans-30"/>
      </g>
     </g>
    </g>
    <g id="ytick_13">
     <g id="line2d_83">
      <path d="M 56 341.26381 
L 637.2 341.26381 
" clip-path="url(#p298c2eae7e)" style="fill: none; stroke: #b0b0b0; stroke-opacity: 0.3; stroke-width: 0.8; stroke-linecap: square"/>
     </g>
     <g id="line2d_84">
      <g>
       <use xlink:href="#mf948f4e500" x="56" y="341.26381" style="stroke: #000000; stroke-width: 0.8"/>
      </g>
     </g>
     <g id="text_26">
      <!-- 2 -->
      <g transform="translate(42.6375 345.063028) scale(0.1 -0.1)">
       <use xlink:href="#DejaVuSans-32"/>
      </g>
     </g>
    </g>
    <g id="ytick_14">
     <g id="line2d_85">
      <path d="M 56 320.091121 
L 637.2 320.091121 
" clip-path="url(#p298c2eae7e)" style="fill: none; stroke: #b0b0b0; stroke-opacity: 0.3; stroke-width: 0.8; stroke-linecap: square"/>
     </g>
     <g id="line2d_86">
      <g>
       <use xlink:href="#mf948f4e500" x="56" y="320.091121" style="stroke: #000000; stroke-width: 0.8"/>
      </g>
     </g>
     <g id="text_27">
      <!-- 4 -->
      <g transform="translate(42.6375 323.89034) scale(0.1 -0.1)">
       <use xlink:href="#DejaVuSans-34"/>
      </g>
     </g>
    </g>
    <g id="ytick_15">
     <g id="line2d_87">
      <path d="M 56 298.918433 
L 637.2 298.918433 
" clip-path="url(#p298c2eae7e)" style="fill: none; stroke: #b0b0b0; stroke-opacity: 0.3; stroke-width: 0.8; stroke-linecap: square"/>
     </g>
     <g id="line2d_88">
      <g>
       <use xlink:href="#mf948f4e500" x="56" y="298.918433" style="stroke: #000000; stroke-width: 0.8"/>
      </g>
     </g>
     <g id="text_28">
      <!-- 6 -->
      <g transform="translate(42.6375 302.717651) scale(0.1 -0.1)">
       <use xlink:href="#DejaVuSans-36"/>
      </g>
     </g>
    </g>
    <g id="text_29">
     <!-- [deg] -->
     <g transform="translate(28.178125 371.606562) rotate(-90) scale(0.1 -0.1)">
      <use xlink:href="#DejaVuSans-5b"/>
      <use xlink:href="#DejaVuSans-64" transform="translate(39.013672 0)"/>
      <use xlink:href="#DejaVuSans-65" transform="translate(102.490234 0)"/>
      <use xlink:href="#DejaVuSans-67" transform="translate(164.013672 0)"/>
      <use xlink:href="#DejaVuSans-5d" transform="translate(227.490234 0)"/>
     </g>
    </g>
   </g>
   <g id="line2d_89">
    <path d="M 82.418182 362.436498 
L 91.532455 362.329637 
L 92.391045 362.008883 
L 93.315682 361.425529 
L 94.306364 360.532134 
L 95.429136 359.198062 
L 96.684 357.336399 
L 98.137 354.767292 
L 100.118364 350.76399 
L 105.269909 340.122876 
L 106.987091 337.195285 
L 108.506136 335.020275 
L 109.959136 333.31702 
L 111.346091 332.018532 
L 112.799091 330.964699 
L 114.318136 330.145744 
L 115.969273 329.514631 
L 117.884591 329.030185 
L 120.196182 328.686851 
L 122.771955 328.528089 
L 125.149591 328.591378 
L 127.197 328.860276 
L 128.980227 329.312487 
L 130.631364 329.959278 
L 132.216455 330.825199 
L 133.7355 331.911062 
L 135.254545 333.272524 
L 136.773591 334.929033 
L 138.358682 336.986653 
L 140.009818 339.495275 
L 141.793045 342.621031 
L 143.708364 346.439943 
L 145.887864 351.309354 
L 148.529682 357.800164 
L 156.190955 377.045281 
L 157.974182 380.71272 
L 159.493227 383.338467 
L 160.814136 385.188566 
L 162.002955 386.483503 
L 163.125727 387.379219 
L 164.2485 387.980491 
L 165.503364 388.391662 
L 167.352636 388.727598 
L 169.928409 389.216074 
L 171.381409 389.738071 
L 172.768364 390.482489 
L 174.287409 391.561056 
L 176.004591 393.062215 
L 178.184091 395.283004 
L 181.750545 398.964725 
L 182.741227 399.538321 
L 183.665864 399.818498 
L 184.524455 399.857125 
L 185.383045 399.684843 
L 186.307682 399.269717 
L 187.298364 398.572327 
L 188.421136 397.486875 
L 189.676 395.93745 
L 191.129 393.758245 
L 192.846182 390.748616 
L 195.025682 386.438528 
L 198.658182 378.661287 
L 202.422773 370.770845 
L 204.734364 366.439607 
L 206.649682 363.315898 
L 208.300818 361.030832 
L 209.819864 359.296498 
L 211.206818 358.035294 
L 212.527727 357.122497 
L 213.782591 356.509946 
L 215.037455 356.132777 
L 216.358364 355.969205 
L 217.745318 356.024155 
L 219.330409 356.321196 
L 221.245727 356.924221 
L 224.151727 358.108122 
L 229.171182 360.143889 
L 233.133909 361.463981 
L 239.8045 363.680088 
L 244.757909 365.301278 
L 247.333682 365.90312 
L 249.579227 366.20117 
L 251.758727 366.262194 
L 254.070318 366.094905 
L 255.523318 366.028396 
L 256.315864 366.29178 
L 257.108409 366.800938 
L 257.967 367.630095 
L 258.891636 368.840448 
L 259.948364 370.609521 
L 261.137182 373.049762 
L 262.590182 376.575991 
L 264.571545 382.046181 
L 269.458909 395.793531 
L 271.176091 399.846973 
L 272.695136 402.90332 
L 274.148136 405.348201 
L 275.535091 407.268301 
L 276.922045 408.82609 
L 278.375045 410.124507 
L 279.894091 411.18006 
L 281.479182 412.015569 
L 283.196364 412.67132 
L 284.979591 413.114591 
L 286.696773 413.318323 
L 288.281864 413.293497 
L 289.800909 413.045953 
L 291.187864 412.594038 
L 292.508773 411.929046 
L 293.763636 411.053636 
L 295.0185 409.909507 
L 296.273364 408.465308 
L 297.594273 406.586627 
L 298.915182 404.305524 
L 300.302136 401.44081 
L 301.689091 398.060876 
L 303.142091 393.935678 
L 304.661136 388.958041 
L 306.312273 382.763122 
L 308.0955 375.170761 
L 310.076864 365.721889 
L 312.520545 352.904459 
L 318.332545 321.909867 
L 319.851591 315.269895 
L 321.040409 310.976971 
L 322.031091 308.140172 
L 322.889682 306.288005 
L 323.682227 305.050042 
L 324.474773 304.194117 
L 325.267318 303.651054 
L 326.125909 303.337836 
L 327.116591 303.226317 
L 328.767727 303.317706 
L 330.617 303.553237 
L 332.07 304.075633 
L 333.721136 304.891036 
L 335.306227 305.924992 
L 336.891318 307.227816 
L 338.6085 308.942132 
L 340.457773 311.122876 
L 342.439136 313.821233 
L 344.486545 316.990951 
L 346.6 320.679195 
L 348.713455 324.818736 
L 350.826909 329.443872 
L 353.006409 334.74815 
L 355.318 340.967578 
L 357.893773 348.559302 
L 361.13 358.841973 
L 367.074091 377.842769 
L 368.989409 383.162467 
L 370.508455 386.775758 
L 371.763318 389.2301 
L 372.820045 390.851849 
L 373.744682 391.893454 
L 374.537227 392.481045 
L 375.263727 392.75724 
L 375.924182 392.781975 
L 376.584636 392.58609 
L 377.311136 392.11345 
L 378.103682 391.292816 
L 378.962273 390.0558 
L 379.952955 388.215888 
L 381.273864 385.233168 
L 383.387318 379.795952 
L 386.095182 372.95244 
L 387.812364 369.235232 
L 389.397455 366.311869 
L 390.9165 363.972308 
L 392.3695 362.146538 
L 393.756455 360.752822 
L 395.209455 359.613465 
L 396.7285 358.708292 
L 398.511727 357.914622 
L 401.0875 357.042215 
L 406.965545 355.097762 
L 410.598045 353.919437 
L 412.447318 353.548758 
L 414.032409 353.44425 
L 415.551455 353.56218 
L 417.0705 353.904975 
L 418.655591 354.50079 
L 420.306727 355.362354 
L 422.288091 356.658483 
L 425.524318 359.093297 
L 428.562409 361.279217 
L 430.543773 362.441913 
L 432.327 363.234253 
L 434.044182 363.748261 
L 435.761364 364.025693 
L 437.610636 364.095945 
L 439.856182 363.950215 
L 448.706273 363.130226 
L 452.140636 363.220527 
L 458.084727 363.398626 
L 461.056773 363.225406 
L 464.359045 362.798477 
L 471.954273 361.72762 
L 474.926318 361.602872 
L 478.162545 361.702984 
L 484.040591 362.171647 
L 488.465636 362.394879 
L 492.824636 362.377436 
L 502.995636 362.242626 
L 510.458773 362.519206 
L 516.204727 362.614242 
L 523.337636 362.465719 
L 531.329136 362.361568 
L 600.214545 362.43981 
L 610.781818 362.439877 
L 610.781818 362.439877 
" clip-path="url(#p298c2eae7e)" style="fill: none; stroke-dasharray: 3.7,1.6; stroke-dashoffset: 0; stroke: #000000"/>
   </g>
   <g id="line2d_90">
    <path d="M 82.418182 362.436498 
L 94.438455 362.332272 
L 96.023545 362.06338 
L 97.4105 361.600238 
L 98.665364 360.946397 
L 99.920227 360.038455 
L 101.241136 358.793269 
L 102.628091 357.171518 
L 104.213182 354.961973 
L 106.194545 351.7828 
L 109.827045 345.412622 
L 112.667 340.663333 
L 114.648364 337.761947 
L 116.431591 335.528518 
L 118.082727 333.798959 
L 119.733864 332.385827 
L 121.385 331.263451 
L 123.102182 330.367606 
L 124.885409 329.687586 
L 126.800727 329.197555 
L 128.782091 328.91891 
L 130.763455 328.858838 
L 132.678773 329.016529 
L 134.528045 329.393434 
L 136.245227 329.970081 
L 137.896364 330.759864 
L 139.481455 331.761881 
L 141.066545 333.026947 
L 142.651636 334.575797 
L 144.302773 336.50811 
L 146.019955 338.874276 
L 147.803182 341.717926 
L 149.7185 345.196369 
L 151.898 349.640961 
L 154.473773 355.430667 
L 163.257818 375.6773 
L 165.041045 378.971358 
L 166.626136 381.452712 
L 168.079136 383.337702 
L 169.532136 384.868366 
L 171.051182 386.142467 
L 172.768364 387.283096 
L 175.344136 388.687947 
L 178.712455 390.568445 
L 180.958 392.097287 
L 183.797955 394.345596 
L 186.307682 396.231979 
L 187.826727 397.104422 
L 189.081591 397.58367 
L 190.204364 397.788941 
L 191.261091 397.768507 
L 192.317818 397.529092 
L 193.374545 397.065589 
L 194.497318 396.32857 
L 195.686136 395.281893 
L 197.007045 393.816876 
L 198.526091 391.777481 
L 200.243273 389.084173 
L 202.356727 385.338844 
L 205.592955 379.091478 
L 209.951955 370.757029 
L 212.263545 366.827355 
L 214.178864 363.99399 
L 215.896045 361.841166 
L 217.481136 360.207275 
L 218.934136 359.016346 
L 220.321091 358.150573 
L 221.708045 357.538429 
L 223.095 357.161572 
L 224.548 356.992414 
L 226.133091 357.032367 
L 227.982364 357.313453 
L 230.227909 357.891201 
L 233.728318 359.053131 
L 248.786682 364.235043 
L 252.088955 365.123098 
L 254.730773 365.612898 
L 260.476727 366.524699 
L 261.665545 367.072738 
L 262.788318 367.828802 
L 263.911091 368.851432 
L 265.099909 370.246433 
L 266.354773 372.071512 
L 267.741727 374.487321 
L 269.392864 377.83181 
L 271.572364 382.794916 
L 277.450409 396.447207 
L 279.431773 400.340549 
L 281.215 403.35642 
L 282.866136 405.719445 
L 284.451227 407.61097 
L 286.036318 409.157846 
L 287.621409 410.389412 
L 289.2065 411.333235 
L 290.725545 411.986993 
L 292.244591 412.405072 
L 293.697591 412.584083 
L 295.150591 412.537822 
L 296.537545 412.267576 
L 297.858455 411.785124 
L 299.179364 411.059933 
L 300.500273 410.065813 
L 301.821182 408.774144 
L 303.142091 407.154876 
L 304.463 405.177595 
L 305.849955 402.683772 
L 307.236909 399.730909 
L 308.689909 396.115536 
L 310.208955 391.740247 
L 311.860091 386.279753 
L 313.643318 379.569336 
L 315.624682 371.194635 
L 318.002318 360.110595 
L 324.738955 327.982845 
L 326.324045 321.842417 
L 327.711 317.299467 
L 328.965864 313.891233 
L 330.154682 311.256007 
L 331.3435 309.151175 
L 332.466273 307.605655 
L 333.523 306.503963 
L 334.579727 305.707568 
L 335.636455 305.182878 
L 336.693182 304.900183 
L 337.815955 304.836556 
L 338.938727 304.991833 
L 340.193591 305.398624 
L 341.5145 306.067572 
L 342.9675 307.062529 
L 344.552591 308.431218 
L 346.269773 310.222452 
L 348.119045 312.489273 
L 350.034364 315.193893 
L 352.081773 318.484671 
L 354.195227 322.32363 
L 356.308682 326.625984 
L 358.554227 331.71682 
L 360.931864 337.685224 
L 363.507636 344.771844 
L 366.677818 354.187664 
L 373.414455 374.429369 
L 375.329773 379.377254 
L 376.848818 382.740677 
L 378.169727 385.150186 
L 379.2925 386.757245 
L 380.283182 387.802045 
L 381.141773 388.406308 
L 381.934318 388.708071 
L 382.726864 388.762746 
L 383.519409 388.574511 
L 384.311955 388.15285 
L 385.236591 387.385453 
L 386.293318 386.183253 
L 387.548182 384.380154 
L 389.133273 381.674833 
L 391.775091 376.634027 
L 395.011318 370.568635 
L 396.992682 367.315431 
L 398.775909 364.805295 
L 400.427045 362.851281 
L 402.078182 361.233301 
L 403.795364 359.860893 
L 405.644636 358.665588 
L 407.824136 357.525542 
L 410.598045 356.334537 
L 413.834273 355.185997 
L 416.410045 354.493001 
L 418.5235 354.14841 
L 420.372773 354.06644 
L 422.089955 354.204643 
L 423.807136 354.563025 
L 425.590364 355.164035 
L 427.571727 356.074104 
L 430.081455 357.494385 
L 436.818091 361.450345 
L 438.997591 362.385783 
L 440.978955 363.00017 
L 443.026364 363.399822 
L 445.271909 363.600907 
L 448.045818 363.609527 
L 461.849318 363.326026 
L 466.208318 363.189988 
L 470.303136 362.826528 
L 479.813682 361.870283 
L 483.512227 361.808716 
L 488.135409 361.97537 
L 496.655273 362.303509 
L 503.986318 362.277213 
L 511.5155 362.336017 
L 525.186909 362.544564 
L 547.378182 362.442557 
L 562.766773 362.400773 
L 599.025727 362.432859 
L 610.781818 362.439124 
L 610.781818 362.439124 
" clip-path="url(#p298c2eae7e)" style="fill: none; stroke: #2ca02c; stroke-width: 1.2; stroke-linecap: square"/>
   </g>
   <g id="line2d_91">
    <path d="M 82.418182 362.436498 
L 94.5045 362.327552 
L 96.155636 362.046982 
L 97.608636 361.570636 
L 98.995591 360.871564 
L 100.382545 359.915795 
L 101.901591 358.580205 
L 103.618773 356.748599 
L 105.732227 354.1436 
L 114.053955 343.505561 
L 116.2995 341.193037 
L 118.611091 339.132909 
L 121.120818 337.200111 
L 124.026818 335.247969 
L 127.329091 333.298792 
L 130.235091 331.829014 
L 132.546682 330.895966 
L 134.462 330.347919 
L 136.179182 330.080658 
L 137.764273 330.060632 
L 139.217273 330.261978 
L 140.604227 330.671768 
L 141.991182 331.311399 
L 143.378136 332.194453 
L 144.831136 333.390911 
L 146.350182 334.944141 
L 147.935273 336.892558 
L 149.652455 339.366806 
L 151.567773 342.53504 
L 153.813318 346.7079 
L 156.917455 353.004362 
L 161.804818 362.912273 
L 164.050364 366.92494 
L 166.097773 370.12557 
L 168.079136 372.821489 
L 170.258636 375.407834 
L 173.098591 378.405378 
L 178.382227 383.937449 
L 181.354273 387.441321 
L 186.109545 393.126832 
L 187.760682 394.697723 
L 189.147636 395.717616 
L 190.4025 396.365196 
L 191.525273 396.705872 
L 192.648045 396.814154 
L 193.770818 396.690112 
L 194.893591 396.339545 
L 196.082409 395.733342 
L 197.403318 394.79728 
L 198.856318 393.482564 
L 200.507455 391.681153 
L 202.554864 389.095057 
L 205.328773 385.198449 
L 211.999364 375.702839 
L 214.509091 372.590264 
L 216.754636 370.153542 
L 218.868091 368.183174 
L 220.9155 366.56893 
L 223.028955 365.185535 
L 225.208455 364.02695 
L 227.520045 363.055193 
L 229.963727 362.275698 
L 232.473455 361.710606 
L 234.983182 361.370149 
L 237.492909 361.250041 
L 240.068682 361.352773 
L 242.776545 361.689874 
L 246.012773 362.33015 
L 254.862864 364.213344 
L 259.618136 365.000969 
L 261.005091 365.539941 
L 262.259955 366.272945 
L 263.514818 367.277024 
L 264.769682 368.567815 
L 266.156636 370.321608 
L 267.741727 372.704483 
L 269.657045 376.007586 
L 272.695136 381.765747 
L 276.789955 389.444276 
L 279.299682 393.670096 
L 281.677318 397.240381 
L 284.121 400.500561 
L 286.696773 403.560987 
L 289.338591 406.361273 
L 291.782273 408.645749 
L 293.895727 410.33148 
L 295.678955 411.480017 
L 297.198 412.206582 
L 298.518909 412.609347 
L 299.773773 412.76066 
L 300.896545 412.678465 
L 302.019318 412.366659 
L 303.076045 411.842787 
L 304.132773 411.076397 
L 305.255545 409.976542 
L 306.378318 408.563318 
L 307.567136 406.706463 
L 308.822 404.326693 
L 310.142909 401.342576 
L 311.595909 397.488017 
L 313.181 392.615933 
L 314.964227 386.367634 
L 317.077682 378.103075 
L 324.408727 348.61599 
L 326.258 342.609987 
L 328.041227 337.555456 
L 329.8905 332.981672 
L 331.937909 328.523809 
L 333.985318 324.593835 
L 336.032727 321.142808 
L 338.080136 318.113965 
L 340.127545 315.46953 
L 342.108909 313.268662 
L 343.892136 311.60286 
L 345.543273 310.349083 
L 347.062318 309.464659 
L 348.449273 308.904005 
L 349.770182 308.608588 
L 351.025045 308.560604 
L 352.213864 308.738826 
L 353.402682 309.147839 
L 354.5915 309.7996 
L 355.780318 310.704637 
L 357.035182 311.944227 
L 358.356091 313.572208 
L 359.743045 315.642622 
L 361.262091 318.332631 
L 362.913227 321.743159 
L 364.696455 325.958991 
L 366.743864 331.395548 
L 369.319636 338.911341 
L 375.726045 357.926815 
L 377.509273 362.385063 
L 379.028318 365.610206 
L 380.349227 367.915219 
L 381.538045 369.578039 
L 382.660818 370.792529 
L 383.717545 371.629268 
L 384.774273 372.185837 
L 385.831 372.486035 
L 386.887727 372.559133 
L 388.076545 372.412661 
L 389.4635 372.008242 
L 391.378818 371.19335 
L 398.643818 367.88143 
L 405.842773 364.978037 
L 408.484591 363.568185 
L 411.786864 361.525884 
L 416.013773 358.944119 
L 418.127227 357.915311 
L 419.9765 357.257883 
L 421.693682 356.883417 
L 423.344818 356.746066 
L 425.062 356.825192 
L 426.911273 357.133062 
L 429.156818 357.745127 
L 432.723273 358.992182 
L 436.818091 360.358865 
L 439.592 361.046951 
L 442.431955 361.520875 
L 446.064455 361.884105 
L 464.028818 363.181569 
L 467.595273 363.0615 
L 472.746818 362.633302 
L 478.492773 362.219829 
L 482.917818 362.141003 
L 491.437682 362.293896 
L 498.636636 362.267779 
L 508.147182 362.245405 
L 527.564545 362.457845 
L 540.905727 362.430499 
L 557.483136 362.419873 
L 575.4475 362.437327 
L 610.781818 362.441364 
L 610.781818 362.441364 
" clip-path="url(#p298c2eae7e)" style="fill: none; stroke: #ff7f0e; stroke-opacity: 0.8; stroke-linecap: square"/>
   </g>
   <g id="line2d_92">
    <path d="M 56 362.436498 
L 637.2 362.436498 
" clip-path="url(#p298c2eae7e)" style="fill: none; stroke: #000000; stroke-width: 0.4; stroke-linecap: square"/>
   </g>
   <g id="patch_13">
    <path d="M 56 418.84 
L 56 297.72 
" style="fill: none; stroke: #000000; stroke-width: 0.8; stroke-linejoin: miter; stroke-linecap: square"/>
   </g>
   <g id="patch_14">
    <path d="M 637.2 418.84 
L 637.2 297.72 
" style="fill: none; stroke: #000000; stroke-width: 0.8; stroke-linejoin: miter; stroke-linecap: square"/>
   </g>
   <g id="patch_15">
    <path d="M 56 418.84 
L 637.2 418.84 
" style="fill: none; stroke: #000000; stroke-width: 0.8; stroke-linejoin: miter; stroke-linecap: square"/>
   </g>
   <g id="patch_16">
    <path d="M 56 297.72 
L 637.2 297.72 
" style="fill: none; stroke: #000000; stroke-width: 0.8; stroke-linejoin: miter; stroke-linecap: square"/>
   </g>
   <g id="legend_1">
    <g id="patch_17">
     <path d="M 539.99125 339.3475 
L 631.6 339.3475 
Q 633.2 339.3475 633.2 337.7475 
L 633.2 303.32 
Q 633.2 301.72 631.6 301.72 
L 539.99125 301.72 
Q 538.39125 301.72 538.39125 303.32 
L 538.39125 337.7475 
Q 538.39125 339.3475 539.99125 339.3475 
z
" style="fill: #ffffff; opacity: 0.8; stroke: #cccccc; stroke-linejoin: miter"/>
    </g>
    <g id="line2d_93">
     <path d="M 541.59125 308.19875 
L 549.59125 308.19875 
L 557.59125 308.19875 
" style="fill: none; stroke-dasharray: 3.7,1.6; stroke-dashoffset: 0; stroke: #000000"/>
    </g>
    <g id="text_30">
     <!-- driver command -->
     <g transform="translate(563.99125 310.99875) scale(0.08 -0.08)">
      <use xlink:href="#DejaVuSans-64"/>
      <use xlink:href="#DejaVuSans-72" transform="translate(63.476562 0)"/>
      <use xlink:href="#DejaVuSans-69" transform="translate(104.589844 0)"/>
      <use xlink:href="#DejaVuSans-76" transform="translate(132.373047 0)"/>
      <use xlink:href="#DejaVuSans-65" transform="translate(191.552734 0)"/>
      <use xlink:href="#DejaVuSans-72" transform="translate(253.076172 0)"/>
      <use xlink:href="#DejaVuSans-20" transform="translate(294.189453 0)"/>
      <use xlink:href="#DejaVuSans-63" transform="translate(325.976562 0)"/>
      <use xlink:href="#DejaVuSans-6f" transform="translate(380.957031 0)"/>
      <use xlink:href="#DejaVuSans-6d" transform="translate(442.138672 0)"/>
      <use xlink:href="#DejaVuSans-6d" transform="translate(539.550781 0)"/>
      <use xlink:href="#DejaVuSans-61" transform="translate(636.962891 0)"/>
      <use xlink:href="#DejaVuSans-6e" transform="translate(698.242188 0)"/>
      <use xlink:href="#DejaVuSans-64" transform="translate(761.621094 0)"/>
     </g>
    </g>
    <g id="line2d_94">
     <path d="M 541.59125 319.94125 
L 549.59125 319.94125 
L 557.59125 319.94125 
" style="fill: none; stroke: #2ca02c; stroke-width: 1.2; stroke-linecap: square"/>
    </g>
    <g id="text_31">
     <!-- road wheel (left) -->
     <g transform="translate(563.99125 322.74125) scale(0.08 -0.08)">
      <defs>
       <path id="DejaVuSans-28" d="M 1984 4856 
Q 1566 4138 1362 3434 
Q 1159 2731 1159 2009 
Q 1159 1288 1364 580 
Q 1569 -128 1984 -844 
L 1484 -844 
Q 1016 -109 783 600 
Q 550 1309 550 2009 
Q 550 2706 781 3412 
Q 1013 4119 1484 4856 
L 1984 4856 
z
" transform="scale(0.015625)"/>
       <path id="DejaVuSans-66" d="M 2375 4863 
L 2375 4384 
L 1825 4384 
Q 1516 4384 1395 4259 
Q 1275 4134 1275 3809 
L 1275 3500 
L 2222 3500 
L 2222 3053 
L 1275 3053 
L 1275 0 
L 697 0 
L 697 3053 
L 147 3053 
L 147 3500 
L 697 3500 
L 697 3744 
Q 697 4328 969 4595 
Q 1241 4863 1831 4863 
L 2375 4863 
z
" transform="scale(0.015625)"/>
       <path id="DejaVuSans-29" d="M 513 4856 
L 1013 4856 
Q 1481 4119 1714 3412 
Q 1947 2706 1947 2009 
Q 1947 1309 1714 600 
Q 1481 -109 1013 -844 
L 513 -844 
Q 928 -128 1133 580 
Q 1338 1288 1338 2009 
Q 1338 2731 1133 3434 
Q 928 4138 513 4856 
z
" transform="scale(0.015625)"/>
      </defs>
      <use xlink:href="#DejaVuSans-72"/>
      <use xlink:href="#DejaVuSans-6f" transform="translate(38.863281 0)"/>
      <use xlink:href="#DejaVuSans-61" transform="translate(100.044922 0)"/>
      <use xlink:href="#DejaVuSans-64" transform="translate(161.324219 0)"/>
      <use xlink:href="#DejaVuSans-20" transform="translate(224.800781 0)"/>
      <use xlink:href="#DejaVuSans-77" transform="translate(256.587891 0)"/>
      <use xlink:href="#DejaVuSans-68" transform="translate(338.375 0)"/>
      <use xlink:href="#DejaVuSans-65" transform="translate(401.753906 0)"/>
      <use xlink:href="#DejaVuSans-65" transform="translate(463.277344 0)"/>
      <use xlink:href="#DejaVuSans-6c" transform="translate(524.800781 0)"/>
      <use xlink:href="#DejaVuSans-20" transform="translate(552.583984 0)"/>
      <use xlink:href="#DejaVuSans-28" transform="translate(584.371094 0)"/>
      <use xlink:href="#DejaVuSans-6c" transform="translate(623.384766 0)"/>
      <use xlink:href="#DejaVuSans-65" transform="translate(651.167969 0)"/>
      <use xlink:href="#DejaVuSans-66" transform="translate(712.691406 0)"/>
      <use xlink:href="#DejaVuSans-74" transform="translate(746.146484 0)"/>
      <use xlink:href="#DejaVuSans-29" transform="translate(785.355469 0)"/>
     </g>
    </g>
    <g id="line2d_95">
     <path d="M 541.59125 331.68375 
L 549.59125 331.68375 
L 557.59125 331.68375 
" style="fill: none; stroke: #ff7f0e; stroke-opacity: 0.8; stroke-linecap: square"/>
    </g>
    <g id="text_32">
     <!-- slip angle FL -->
     <g transform="translate(563.99125 334.48375) scale(0.08 -0.08)">
      <defs>
       <path id="DejaVuSans-46" d="M 628 4666 
L 3309 4666 
L 3309 4134 
L 1259 4134 
L 1259 2759 
L 3109 2759 
L 3109 2228 
L 1259 2228 
L 1259 0 
L 628 0 
L 628 4666 
z
" transform="scale(0.015625)"/>
       <path id="DejaVuSans-4c" d="M 628 4666 
L 1259 4666 
L 1259 531 
L 3531 531 
L 3531 0 
L 628 0 
L 628 4666 
z
" transform="scale(0.015625)"/>
      </defs>
      <use xlink:href="#DejaVuSans-73"/>
      <use xlink:href="#DejaVuSans-6c" transform="translate(52.099609 0)"/>
      <use xlink:href="#DejaVuSans-69" transform="translate(79.882812 0)"/>
      <use xlink:href="#DejaVuSans-70" transform="translate(107.666016 0)"/>
      <use xlink:href="#DejaVuSans-20" transform="translate(171.142578 0)"/>
      <use xlink:href="#DejaVuSans-61" transform="translate(202.929688 0)"/>
      <use xlink:href="#DejaVuSans-6e" transform="translate(264.208984 0)"/>
      <use xlink:href="#DejaVuSans-67" transform="translate(327.587891 0)"/>
      <use xlink:href="#DejaVuSans-6c" transform="translate(391.064453 0)"/>
      <use xlink:href="#DejaVuSans-65" transform="translate(418.847656 0)"/>
      <use xlink:href="#DejaVuSans-20" transform="translate(480.371094 0)"/>
      <use xlink:href="#DejaVuSans-46" transform="translate(512.158203 0)"/>
      <use xlink:href="#DejaVuSans-4c" transform="translate(569.677734 0)"/>
     </g>
    </g>
   </g>
  </g>
 </g>
 <defs>
  <clipPath id="p99176b13b0">
   <rect x="56" y="26.88" width="581.2" height="121.12"/>
  </clipPath>
  <clipPath id="p4aba750750">
   <rect x="56" y="162.3" width="581.2" height="121.12"/>
  </clipPath>
  <clipPath id="p298c2eae7e">
   <rect x="56" y="297.72" width="581.2" height="121.12"/>
  </clipPath>
 </defs>
</svg>
