<?xml version="1.0" encoding="utf-8" standalone="no"?>
<!DOCTYPE svg PUBLIC "-//W3C//DTD SVG 1.1//EN"
  "http://www.w3.org/Graphics/SVG/1.1/DTD/svg11.dtd">
<svg xmlns:xlink="http://www.w3.org/1999/xlink" width="720pt" height="288pt" viewBox="0 0 720 288" xmlns="http://www.w3.org/2000/svg" version="1.1">
 <metadata>
  <rdf:RDF xmlns:dc="http://purl.org/dc/elements/1.1/" xmlns:cc="http://creativecommons.org/ns#" xmlns:rdf="http://www.w3.org/1999/02/22-rdf-syntax-ns#">
   <cc:Work>
    <dc:type rdf:resource="http://purl.org/dc/dcmitype/StillImage"/>
    <dc:date>2026-07-12T14:43:01.036101</dc:date>
    <dc:format>image/svg+xml</dc:format>
    <dc:creator>
     <cc:Agent>
      <dc:title>Matplotlib v3.10.8, https://matplotlib.org/</dc:title>
     </cc:Agent>
    </dc:creator>
   </cc:Work>
  </rdf:RDF>
 </metadata>
 <defs>
  <style type="text/css">*{stroke-linejoin: round; stroke-linecap: butt}</style>
 </defs>
 <g id="figure_1">
  <g id="patch_1">
   <path d="M 0 288 
L 720 288 
L 720 0 
L 0 0 
z
" style="fill: #ffffff"/>
  </g>
  <g id="axes_1">
   <g id="patch_2">
    <path d="M 56.09 246.04 
L 709.2 246.04 
L 709.2 28.37625 
L 56.09 28.37625 
z
" style="fill: #ffffff"/>
   </g>
   <g id="matplotlib.axis_1">
    <g id="xtick_1">
     <g id="line2d_1">
      <path d="M 85.776818 246.04 
L 85.776818 28.37625 
" clip-path="url(#p4b9979a307)" style="fill: none; stroke: #b0b0b0; stroke-opacity: 0.3; stroke-width: 0.8; stroke-linecap: square"/>
     </g>
     <g id="line2d_2">
      <defs>
       <path id="mc6a613b9eb" d="M 0 0 
L 0 3.5 
" style="stroke: #000000; stroke-width: 0.8"/>
      </defs>
      <g>
       <use xlink:href="#mc6a613b9eb" x="85.776818" y="246.04" style="stroke: #000000; stroke-width: 0.8"/>
      </g>
     </g>
     <g id="text_1">
      <!-- 0.0 -->
      <g transform="translate(77.825256 260.638438) scale(0.1 -0.1)">
       <defs>
        <path id="DejaVuSans-30" d="M 2034 4250 
Q 1547 4250 1301 3770 
Q 1056 3291 1056 2328 
Q 1056 1369 1301 889 
Q 1547 409 2034 409 
Q 2525 409 2770 889 
Q 3016 1369 3016 2328 
Q 3016 3291 2770 3770 
Q 2525 4250 2034 4250 
z
M 2034 4750 
Q 2819 4750 3233 4129 
Q 3647 3509 3647 2328 
Q 3647 1150 3233 529 
Q 2819 -91 2034 -91 
Q 1250 -91 836 529 
Q 422 1150 422 2328 
Q 422 3509 836 4129 
Q 1250 4750 2034 4750 
z
" transform="scale(0.015625)"/>
        <path id="DejaVuSans-2e" d="M 684 794 
L 1344 794 
L 1344 0 
L 684 0 
L 684 794 
z
" transform="scale(0.015625)"/>
       </defs>
       <use xlink:href="#DejaVuSans-30"/>
       <use xlink:href="#DejaVuSans-2e" transform="translate(63.623047 0)"/>
       <use xlink:href="#DejaVuSans-30" transform="translate(95.410156 0)"/>
      </g>
     </g>
    </g>
    <g id="xtick_2">
     <g id="line2d_3">
      <path d="M 213.374249 246.04 
L 213.374249 28.37625 
" clip-path="url(#p4b9979a307)" style="fill: none; stroke: #b0b0b0; stroke-opacity: 0.3; stroke-width: 0.8; stroke-linecap: square"/>
     </g>
     <g id="line2d_4">
      <g>
       <use xlink:href="#mc6a613b9eb" x="213.374249" y="246.04" style="stroke: #000000; stroke-width: 0.8"/>
      </g>
     </g>
     <g id="text_2">
      <!-- 0.5 -->
      <g transform="translate(205.422686 260.638438) scale(0.1 -0.1)">
       <defs>
        <path id="DejaVuSans-35" d="M 691 4666 
L 3169 4666 
L 3169 4134 
L 1269 4134 
L 1269 2991 
Q 1406 3038 1543 3061 
Q 1681 3084 1819 3084 
Q 2600 3084 3056 2656 
Q 3513 2228 3513 1497 
Q 3513 744 3044 326 
Q 2575 -91 1722 -91 
Q 1428 -91 1123 -41 
Q 819 9 494 109 
L 494 744 
Q 775 591 1075 516 
Q 1375 441 1709 441 
Q 2250 441 2565 725 
Q 2881 1009 2881 1497 
Q 2881 1984 2565 2268 
Q 2250 2553 1709 2553 
Q 1456 2553 1204 2497 
Q 953 2441 691 2322 
L 691 4666 
z
" transform="scale(0.015625)"/>
       </defs>
       <use xlink:href="#DejaVuSans-30"/>
       <use xlink:href="#DejaVuSans-2e" transform="translate(63.623047 0)"/>
       <use xlink:href="#DejaVuSans-35" transform="translate(95.410156 0)"/>
      </g>
     </g>
    </g>
    <g id="xtick_3">
     <g id="line2d_5">
      <path d="M 340.971679 246.04 
L 340.971679 28.37625 
" clip-path="url(#p4b9979a307)" style="fill: none; stroke: #b0b0b0; stroke-opacity: 0.3; stroke-width: 0.8; stroke-linecap: square"/>
     </g>
     <g id="line2d_6">
      <g>
       <use xlink:href="#mc6a613b9eb" x="340.971679" y="246.04" style="stroke: #000000; stroke-width: 0.8"/>
      </g>
     </g>
     <g id="text_3">
      <!-- 1.0 -->
      <g transform="translate(333.020117 260.638438) scale(0.1 -0.1)">
       <defs>
        <path id="DejaVuSans-31" d="M 794 531 
L 1825 531 
L 1825 4091 
L 703 3866 
L 703 4441 
L 1819 4666 
L 2450 4666 
L 2450 531 
L 3481 531 
L 3481 0 
L 794 0 
L 794 531 
z
" transform="scale(0.015625)"/>
       </defs>
       <use xlink:href="#DejaVuSans-31"/>
       <use xlink:href="#DejaVuSans-2e" transform="translate(63.623047 0)"/>
       <use xlink:href="#DejaVuSans-30" transform="translate(95.410156 0)"/>
      </g>
     </g>
    </g>
    <g id="xtick_4">
     <g id="line2d_7">
      <path d="M 468.56911 246.04 
L 468.56911 28.37625 
" clip-path="url(#p4b9979a307)" style="fill: none; stroke: #b0b0b0; stroke-opacity: 0.3; stroke-width: 0.8; stroke-linecap: square"/>
     </g>
     <g id="line2d_8">
      <g>
       <use xlink:href="#mc6a613b9eb" x="468.56911" y="246.04" style="stroke: #000000; stroke-width: 0.8"/>
      </g>
     </g>
     <g id="text_4">
      <!-- 1.5 -->
      <g transform="translate(460.617547 260.638438) scale(0.1 -0.1)">
       <use xlink:href="#DejaVuSans-31"/>
       <use xlink:href="#DejaVuSans-2e" transform="translate(63.623047 0)"/>
       <use xlink:href="#DejaVuSans-35" transform="translate(95.410156 0)"/>
      </g>
     </g>
    </g>
    <g id="xtick_5">
     <g id="line2d_9">
      <path d="M 596.16654 246.04 
L 596.16654 28.37625 
" clip-path="url(#p4b9979a307)" style="fill: none; stroke: #b0b0b0; stroke-opacity: 0.3; stroke-width: 0.8; stroke-linecap: square"/>
     </g>
     <g id="line2d_10">
      <g>
       <use xlink:href="#mc6a613b9eb" x="596.16654" y="246.04" style="stroke: #000000; stroke-width: 0.8"/>
      </g>
     </g>
     <g id="text_5">
      <!-- 2.0 -->
      <g transform="translate(588.214978 260.638438) scale(0.1 -0.1)">
       <defs>
        <path id="DejaVuSans-32" d="M 1228 531 
L 3431 531 
L 3431 0 
L 469 0 
L 469 531 
Q 828 903 1448 1529 
Q 2069 2156 2228 2338 
Q 2531 2678 2651 2914 
Q 2772 3150 2772 3378 
Q 2772 3750 2511 3984 
Q 2250 4219 1831 4219 
Q 1534 4219 1204 4116 
Q 875 4013 500 3803 
L 500 4441 
Q 881 4594 1212 4672 
Q 1544 4750 1819 4750 
Q 2544 4750 2975 4387 
Q 3406 4025 3406 3419 
Q 3406 3131 3298 2873 
Q 3191 2616 2906 2266 
Q 2828 2175 2409 1742 
Q 1991 1309 1228 531 
z
" transform="scale(0.015625)"/>
       </defs>
       <use xlink:href="#DejaVuSans-32"/>
       <use xlink:href="#DejaVuSans-2e" transform="translate(63.623047 0)"/>
       <use xlink:href="#DejaVuSans-30" transform="translate(95.410156 0)"/>
      </g>
     </g>
    </g>
    <g id="text_6">
     <!-- distance s [km] -->
     <g transform="translate(344.008281 274.316562) scale(0.1 -0.1)">
      <defs>
       <path id="DejaVuSans-64" d="M 2906 2969 
L 2906 4863 
L 3481 4863 
L 3481 0 
L 2906 0 
L 2906 525 
Q 2725 213 2448 61 
Q 2172 -91 1784 -91 
Q 1150 -91 751 415 
Q 353 922 353 1747 
Q 353 2572 751 3078 
Q 1150 3584 1784 3584 
Q 2172 3584 2448 3432 
Q 2725 3281 2906 2969 
z
M 947 1747 
Q 947 1113 1208 752 
Q 1469 391 1925 391 
Q 2381 391 2643 752 
Q 2906 1113 2906 1747 
Q 2906 2381 2643 2742 
Q 2381 3103 1925 3103 
Q 1469 3103 1208 2742 
Q 947 2381 947 1747 
z
" transform="scale(0.015625)"/>
       <path id="DejaVuSans-69" d="M 603 3500 
L 1178 3500 
L 1178 0 
L 603 0 
L 603 3500 
z
M 603 4863 
L 1178 4863 
L 1178 4134 
L 603 4134 
L 603 4863 
z
" transform="scale(0.015625)"/>
       <path id="DejaVuSans-73" d="M 2834 3397 
L 2834 2853 
Q 2591 2978 2328 3040 
Q 2066 3103 1784 3103 
Q 1356 3103 1142 2972 
Q 928 2841 928 2578 
Q 928 2378 1081 2264 
Q 1234 2150 1697 2047 
L 1894 2003 
Q 2506 1872 2764 1633 
Q 3022 1394 3022 966 
Q 3022 478 2636 193 
Q 2250 -91 1575 -91 
Q 1294 -91 989 -36 
Q 684 19 347 128 
L 347 722 
Q 666 556 975 473 
Q 1284 391 1588 391 
Q 1994 391 2212 530 
Q 2431 669 2431 922 
Q 2431 1156 2273 1281 
Q 2116 1406 1581 1522 
L 1381 1569 
Q 847 1681 609 1914 
Q 372 2147 372 2553 
Q 372 3047 722 3315 
Q 1072 3584 1716 3584 
Q 2034 3584 2315 3537 
Q 2597 3491 2834 3397 
z
" transform="scale(0.015625)"/>
       <path id="DejaVuSans-74" d="M 1172 4494 
L 1172 3500 
L 2356 3500 
L 2356 3053 
L 1172 3053 
L 1172 1153 
Q 1172 725 1289 603 
Q 1406 481 1766 481 
L 2356 481 
L 2356 0 
L 1766 0 
Q 1100 0 847 248 
Q 594 497 594 1153 
L 594 3053 
L 172 3053 
L 172 3500 
L 594 3500 
L 594 4494 
L 1172 4494 
z
" transform="scale(0.015625)"/>
       <path id="DejaVuSans-61" d="M 2194 1759 
Q 1497 1759 1228 1600 
Q 959 1441 959 1056 
Q 959 750 1161 570 
Q 1363 391 1709 391 
Q 2188 391 2477 730 
Q 2766 1069 2766 1631 
L 2766 1759 
L 2194 1759 
z
M 3341 1997 
L 3341 0 
L 2766 0 
L 2766 531 
Q 2569 213 2275 61 
Q 1981 -91 1556 -91 
Q 1019 -91 701 211 
Q 384 513 384 1019 
Q 384 1609 779 1909 
Q 1175 2209 1959 2209 
L 2766 2209 
L 2766 2266 
Q 2766 2663 2505 2880 
Q 2244 3097 1772 3097 
Q 1472 3097 1187 3025 
Q 903 2953 641 2809 
L 641 3341 
Q 956 3463 1253 3523 
Q 1550 3584 1831 3584 
Q 2591 3584 2966 3190 
Q 3341 2797 3341 1997 
z
" transform="scale(0.015625)"/>
       <path id="DejaVuSans-6e" d="M 3513 2113 
L 3513 0 
L 2938 0 
L 2938 2094 
Q 2938 2591 2744 2837 
Q 2550 3084 2163 3084 
Q 1697 3084 1428 2787 
Q 1159 2491 1159 1978 
L 1159 0 
L 581 0 
L 581 3500 
L 1159 3500 
L 1159 2956 
Q 1366 3272 1645 3428 
Q 1925 3584 2291 3584 
Q 2894 3584 3203 3211 
Q 3513 2838 3513 2113 
z
" transform="scale(0.015625)"/>
       <path id="DejaVuSans-63" d="M 3122 3366 
L 3122 2828 
Q 2878 2963 2633 3030 
Q 2388 3097 2138 3097 
Q 1578 3097 1268 2742 
Q 959 2388 959 1747 
Q 959 1106 1268 751 
Q 1578 397 2138 397 
Q 2388 397 2633 464 
Q 2878 531 3122 666 
L 3122 134 
Q 2881 22 2623 -34 
Q 2366 -91 2075 -91 
Q 1284 -91 818 406 
Q 353 903 353 1747 
Q 353 2603 823 3093 
Q 1294 3584 2113 3584 
Q 2378 3584 2631 3529 
Q 2884 3475 3122 3366 
z
" transform="scale(0.015625)"/>
       <path id="DejaVuSans-65" d="M 3597 1894 
L 3597 1613 
L 953 1613 
Q 991 1019 1311 708 
Q 1631 397 2203 397 
Q 2534 397 2845 478 
Q 3156 559 3463 722 
L 3463 178 
Q 3153 47 2828 -22 
Q 2503 -91 2169 -91 
Q 1331 -91 842 396 
Q 353 884 353 1716 
Q 353 2575 817 3079 
Q 1281 3584 2069 3584 
Q 2775 3584 3186 3129 
Q 3597 2675 3597 1894 
z
M 3022 2063 
Q 3016 2534 2758 2815 
Q 2500 3097 2075 3097 
Q 1594 3097 1305 2825 
Q 1016 2553 972 2059 
L 3022 2063 
z
" transform="scale(0.015625)"/>
       <path id="DejaVuSans-20" transform="scale(0.015625)"/>
       <path id="DejaVuSans-5b" d="M 550 4863 
L 1875 4863 
L 1875 4416 
L 1125 4416 
L 1125 -397 
L 1875 -397 
L 1875 -844 
L 550 -844 
L 550 4863 
z
" transform="scale(0.015625)"/>
       <path id="DejaVuSans-6b" d="M 581 4863 
L 1159 4863 
L 1159 1991 
L 2875 3500 
L 3609 3500 
L 1753 1863 
L 3688 0 
L 2938 0 
L 1159 1709 
L 1159 0 
L 581 0 
L 581 4863 
z
" transform="scale(0.015625)"/>
       <path id="DejaVuSans-6d" d="M 3328 2828 
Q 3544 3216 3844 3400 
Q 4144 3584 4550 3584 
Q 5097 3584 5394 3201 
Q 5691 2819 5691 2113 
L 5691 0 
L 5113 0 
L 5113 2094 
Q 5113 2597 4934 2840 
Q 4756 3084 4391 3084 
Q 3944 3084 3684 2787 
Q 3425 2491 3425 1978 
L 3425 0 
L 2847 0 
L 2847 2094 
Q 2847 2600 2669 2842 
Q 2491 3084 2119 3084 
Q 1678 3084 1418 2786 
Q 1159 2488 1159 1978 
L 1159 0 
L 581 0 
L 581 3500 
L 1159 3500 
L 1159 2956 
Q 1356 3278 1631 3431 
Q 1906 3584 2284 3584 
Q 2666 3584 2933 3390 
Q 3200 3197 3328 2828 
z
" transform="scale(0.015625)"/>
       <path id="DejaVuSans-5d" d="M 1947 4863 
L 1947 -844 
L 622 -844 
L 622 -397 
L 1369 -397 
L 1369 4416 
L 622 4416 
L 622 4863 
L 1947 4863 
z
" transform="scale(0.015625)"/>
      </defs>
      <use xlink:href="#DejaVuSans-64"/>
      <use xlink:href="#DejaVuSans-69" transform="translate(63.476562 0)"/>
      <use xlink:href="#DejaVuSans-73" transform="translate(91.259766 0)"/>
      <use xlink:href="#DejaVuSans-74" transform="translate(143.359375 0)"/>
      <use xlink:href="#DejaVuSans-61" transform="translate(182.568359 0)"/>
      <use xlink:href="#DejaVuSans-6e" transform="translate(243.847656 0)"/>
      <use xlink:href="#DejaVuSans-63" transform="translate(307.226562 0)"/>
      <use xlink:href="#DejaVuSans-65" transform="translate(362.207031 0)"/>
      <use xlink:href="#DejaVuSans-20" transform="translate(423.730469 0)"/>
      <use xlink:href="#DejaVuSans-73" transform="translate(455.517578 0)"/>
      <use xlink:href="#DejaVuSans-20" transform="translate(507.617188 0)"/>
      <use xlink:href="#DejaVuSans-5b" transform="translate(539.404297 0)"/>
      <use xlink:href="#DejaVuSans-6b" transform="translate(578.417969 0)"/>
      <use xlink:href="#DejaVuSans-6d" transform="translate(636.328125 0)"/>
      <use xlink:href="#DejaVuSans-5d" transform="translate(733.740234 0)"/>
     </g>
    </g>
   </g>
   <g id="matplotlib.axis_2">
    <g id="ytick_1">
     <g id="line2d_11">
      <path d="M 56.09 232.233798 
L 709.2 232.233798 
" clip-path="url(#p4b9979a307)" style="fill: none; stroke: #b0b0b0; stroke-opacity: 0.3; stroke-width: 0.8; stroke-linecap: square"/>
     </g>
     <g id="line2d_12">
      <defs>
       <path id="m172173d4d1" d="M 0 0 
L -3.5 0 
" style="stroke: #000000; stroke-width: 0.8"/>
      </defs>
      <g>
       <use xlink:href="#m172173d4d1" x="56.09" y="232.233798" style="stroke: #000000; stroke-width: 0.8"/>
      </g>
     </g>
     <g id="text_7">
      <!-- −1.5 -->
      <g transform="translate(24.807188 236.033017) scale(0.1 -0.1)">
       <defs>
        <path id="DejaVuSans-2212" d="M 678 2272 
L 4684 2272 
L 4684 1741 
L 678 1741 
L 678 2272 
z
" transform="scale(0.015625)"/>
       </defs>
       <use xlink:href="#DejaVuSans-2212"/>
       <use xlink:href="#DejaVuSans-31" transform="translate(83.789062 0)"/>
       <use xlink:href="#DejaVuSans-2e" transform="translate(147.412109 0)"/>
       <use xlink:href="#DejaVuSans-35" transform="translate(179.199219 0)"/>
      </g>
     </g>
    </g>
    <g id="ytick_2">
     <g id="line2d_13">
      <path d="M 56.09 200.679921 
L 709.2 200.679921 
" clip-path="url(#p4b9979a307)" style="fill: none; stroke: #b0b0b0; stroke-opacity: 0.3; stroke-width: 0.8; stroke-linecap: square"/>
     </g>
     <g id="line2d_14">
      <g>
       <use xlink:href="#m172173d4d1" x="56.09" y="200.679921" style="stroke: #000000; stroke-width: 0.8"/>
      </g>
     </g>
     <g id="text_8">
      <!-- −1.0 -->
      <g transform="translate(24.807188 204.479139) scale(0.1 -0.1)">
       <use xlink:href="#DejaVuSans-2212"/>
       <use xlink:href="#DejaVuSans-31" transform="translate(83.789062 0)"/>
       <use xlink:href="#DejaVuSans-2e" transform="translate(147.412109 0)"/>
       <use xlink:href="#DejaVuSans-30" transform="translate(179.199219 0)"/>
      </g>
     </g>
    </g>
    <g id="ytick_3">
     <g id="line2d_15">
      <path d="M 56.09 169.126043 
L 709.2 169.126043 
" clip-path="url(#p4b9979a307)" style="fill: none; stroke: #b0b0b0; stroke-opacity: 0.3; stroke-width: 0.8; stroke-linecap: square"/>
     </g>
     <g id="line2d_16">
      <g>
       <use xlink:href="#m172173d4d1" x="56.09" y="169.126043" style="stroke: #000000; stroke-width: 0.8"/>
      </g>
     </g>
     <g id="text_9">
      <!-- −0.5 -->
      <g transform="translate(24.807188 172.925262) scale(0.1 -0.1)">
       <use xlink:href="#DejaVuSans-2212"/>
       <use xlink:href="#DejaVuSans-30" transform="translate(83.789062 0)"/>
       <use xlink:href="#DejaVuSans-2e" transform="translate(147.412109 0)"/>
       <use xlink:href="#DejaVuSans-35" transform="translate(179.199219 0)"/>
      </g>
     </g>
    </g>
    <g id="ytick_4">
     <g id="line2d_17">
      <path d="M 56.09 137.572165 
L 709.2 137.572165 
" clip-path="url(#p4b9979a307)" style="fill: none; stroke: #b0b0b0; stroke-opacity: 0.3; stroke-width: 0.8; stroke-linecap: square"/>
     </g>
     <g id="line2d_18">
      <g>
       <use xlink:href="#m172173d4d1" x="56.09" y="137.572165" style="stroke: #000000; stroke-width: 0.8"/>
      </g>
     </g>
     <g id="text_10">
      <!-- 0.0 -->
      <g transform="translate(33.186875 141.371384) scale(0.1 -0.1)">
       <use xlink:href="#DejaVuSans-30"/>
       <use xlink:href="#DejaVuSans-2e" transform="translate(63.623047 0)"/>
       <use xlink:href="#DejaVuSans-30" transform="translate(95.410156 0)"/>
      </g>
     </g>
    </g>
    <g id="ytick_5">
     <g id="line2d_19">
      <path d="M 56.09 106.018287 
L 709.2 106.018287 
" clip-path="url(#p4b9979a307)" style="fill: none; stroke: #b0b0b0; stroke-opacity: 0.3; stroke-width: 0.8; stroke-linecap: square"/>
     </g>
     <g id="line2d_20">
      <g>
       <use xlink:href="#m172173d4d1" x="56.09" y="106.018287" style="stroke: #000000; stroke-width: 0.8"/>
      </g>
     </g>
     <g id="text_11">
      <!-- 0.5 -->
      <g transform="translate(33.186875 109.817506) scale(0.1 -0.1)">
       <use xlink:href="#DejaVuSans-30"/>
       <use xlink:href="#DejaVuSans-2e" transform="translate(63.623047 0)"/>
       <use xlink:href="#DejaVuSans-35" transform="translate(95.410156 0)"/>
      </g>
     </g>
    </g>
    <g id="ytick_6">
     <g id="line2d_21">
      <path d="M 56.09 74.46441 
L 709.2 74.46441 
" clip-path="url(#p4b9979a307)" style="fill: none; stroke: #b0b0b0; stroke-opacity: 0.3; stroke-width: 0.8; stroke-linecap: square"/>
     </g>
     <g id="line2d_22">
      <g>
       <use xlink:href="#m172173d4d1" x="56.09" y="74.46441" style="stroke: #000000; stroke-width: 0.8"/>
      </g>
     </g>
     <g id="text_12">
      <!-- 1.0 -->
      <g transform="translate(33.186875 78.263628) scale(0.1 -0.1)">
       <use xlink:href="#DejaVuSans-31"/>
       <use xlink:href="#DejaVuSans-2e" transform="translate(63.623047 0)"/>
       <use xlink:href="#DejaVuSans-30" transform="translate(95.410156 0)"/>
      </g>
     </g>
    </g>
    <g id="ytick_7">
     <g id="line2d_23">
      <path d="M 56.09 42.910532 
L 709.2 42.910532 
" clip-path="url(#p4b9979a307)" style="fill: none; stroke: #b0b0b0; stroke-opacity: 0.3; stroke-width: 0.8; stroke-linecap: square"/>
     </g>
     <g id="line2d_24">
      <g>
       <use xlink:href="#m172173d4d1" x="56.09" y="42.910532" style="stroke: #000000; stroke-width: 0.8"/>
      </g>
     </g>
     <g id="text_13">
      <!-- 1.5 -->
      <g transform="translate(33.186875 46.709751) scale(0.1 -0.1)">
       <use xlink:href="#DejaVuSans-31"/>
       <use xlink:href="#DejaVuSans-2e" transform="translate(63.623047 0)"/>
       <use xlink:href="#DejaVuSans-35" transform="translate(95.410156 0)"/>
      </g>
     </g>
    </g>
    <g id="text_14">
     <!-- tie-rod force [kN] -->
     <g transform="translate(18.7275 179.918281) rotate(-90) scale(0.1 -0.1)">
      <defs>
       <path id="DejaVuSans-2d" d="M 313 2009 
L 1997 2009 
L 1997 1497 
L 313 1497 
L 313 2009 
z
" transform="scale(0.015625)"/>
       <path id="DejaVuSans-72" d="M 2631 2963 
Q 2534 3019 2420 3045 
Q 2306 3072 2169 3072 
Q 1681 3072 1420 2755 
Q 1159 2438 1159 1844 
L 1159 0 
L 581 0 
L 581 3500 
L 1159 3500 
L 1159 2956 
Q 1341 3275 1631 3429 
Q 1922 3584 2338 3584 
Q 2397 3584 2469 3576 
Q 2541 3569 2628 3553 
L 2631 2963 
z
" transform="scale(0.015625)"/>
       <path id="DejaVuSans-6f" d="M 1959 3097 
Q 1497 3097 1228 2736 
Q 959 2375 959 1747 
Q 959 1119 1226 758 
Q 1494 397 1959 397 
Q 2419 397 2687 759 
Q 2956 1122 2956 1747 
Q 2956 2369 2687 2733 
Q 2419 3097 1959 3097 
z
M 1959 3584 
Q 2709 3584 3137 3096 
Q 3566 2609 3566 1747 
Q 3566 888 3137 398 
Q 2709 -91 1959 -91 
Q 1206 -91 779 398 
Q 353 888 353 1747 
Q 353 2609 779 3096 
Q 1206 3584 1959 3584 
z
" transform="scale(0.015625)"/>
       <path id="DejaVuSans-66" d="M 2375 4863 
L 2375 4384 
L 1825 4384 
Q 1516 4384 1395 4259 
Q 1275 4134 1275 3809 
L 1275 3500 
L 2222 3500 
L 2222 3053 
L 1275 3053 
L 1275 0 
L 697 0 
L 697 3053 
L 147 3053 
L 147 3500 
L 697 3500 
L 697 3744 
Q 697 4328 969 4595 
Q 1241 4863 1831 4863 
L 2375 4863 
z
" transform="scale(0.015625)"/>
       <path id="DejaVuSans-4e" d="M 628 4666 
L 1478 4666 
L 3547 763 
L 3547 4666 
L 4159 4666 
L 4159 0 
L 3309 0 
L 1241 3903 
L 1241 0 
L 628 0 
L 628 4666 
z
" transform="scale(0.015625)"/>
      </defs>
      <use xlink:href="#DejaVuSans-74"/>
      <use xlink:href="#DejaVuSans-69" transform="translate(39.208984 0)"/>
      <use xlink:href="#DejaVuSans-65" transform="translate(66.992188 0)"/>
      <use xlink:href="#DejaVuSans-2d" transform="translate(128.515625 0)"/>
      <use xlink:href="#DejaVuSans-72" transform="translate(164.599609 0)"/>
      <use xlink:href="#DejaVuSans-6f" transform="translate(203.462891 0)"/>
      <use xlink:href="#DejaVuSans-64" transform="translate(264.644531 0)"/>
      <use xlink:href="#DejaVuSans-20" transform="translate(328.121094 0)"/>
      <use xlink:href="#DejaVuSans-66" transform="translate(359.908203 0)"/>
      <use xlink:href="#DejaVuSans-6f" transform="translate(395.113281 0)"/>
      <use xlink:href="#DejaVuSans-72" transform="translate(456.294922 0)"/>
      <use xlink:href="#DejaVuSans-63" transform="translate(495.158203 0)"/>
      <use xlink:href="#DejaVuSans-65" transform="translate(550.138672 0)"/>
      <use xlink:href="#DejaVuSans-20" transform="translate(611.662109 0)"/>
      <use xlink:href="#DejaVuSans-5b" transform="translate(643.449219 0)"/>
      <use xlink:href="#DejaVuSans-6b" transform="translate(682.462891 0)"/>
      <use xlink:href="#DejaVuSans-4e" transform="translate(740.373047 0)"/>
      <use xlink:href="#DejaVuSans-5d" transform="translate(815.177734 0)"/>
     </g>
    </g>
   </g>
   <g id="line2d_25">
    <path d="M 85.776818 137.572165 
L 86.059777 107.490734 
L 86.272058 101.597584 
L 86.413597 100.919576 
L 86.555142 101.461473 
L 86.979777 105.310232 
L 87.475148 110.848389 
L 87.687464 115.783382 
L 87.970605 130.205154 
L 88.395473 154.212662 
L 88.749651 160.124912 
L 89.103893 162.570056 
L 89.316458 163.17388 
L 89.387317 163.138276 
L 89.529042 162.355997 
L 89.670781 159.851061 
L 89.883427 149.898418 
L 90.379839 115.42267 
L 90.66365 110.950831 
L 90.947539 109.865474 
L 91.30247 109.519773 
L 91.586452 109.439529 
L 91.728454 109.582587 
L 91.870466 110.139943 
L 92.012493 111.686603 
L 92.225571 118.187503 
L 92.438715 133.606757 
L 92.794135 159.515085 
L 93.149776 169.104275 
L 93.57677 174.42848 
L 93.861539 176.232564 
L 93.932744 176.368167 
L 94.003955 176.299794 
L 94.146394 175.291222 
L 94.360103 170.357737 
L 94.645166 154.385721 
L 95.287113 110.906348 
L 95.572638 105.390986 
L 95.715439 104.626469 
L 95.786849 104.691807 
L 95.929686 105.784968 
L 96.143988 110.457217 
L 96.358351 120.452459 
L 97.216593 174.277391 
L 97.574547 180.960014 
L 97.861022 183.273959 
L 98.004292 183.580352 
L 98.075935 183.492323 
L 98.219237 182.730765 
L 98.434233 179.653022 
L 98.720984 170.345316 
L 99.079599 148.598185 
L 99.582027 117.113174 
L 99.869309 110.26587 
L 100.012993 109.257232 
L 100.084845 109.310916 
L 100.228571 110.558937 
L 100.444213 115.584939 
L 100.731843 129.391847 
L 101.379511 165.770835 
L 101.739613 173.612905 
L 102.027819 175.636611 
L 102.099887 175.61955 
L 102.24404 174.909038 
L 102.460319 171.870652 
L 102.748786 163.089225 
L 103.109547 143.327056 
L 103.542745 119.343217 
L 103.831712 112.307361 
L 104.048519 110.679437 
L 104.120804 110.73871 
L 104.265394 111.732204 
L 104.482336 115.510789 
L 104.771703 125.36755 
L 105.568171 159.160501 
L 105.858044 162.846712 
L 106.003026 163.159169 
L 106.148038 162.446687 
L 106.365612 159.262889 
L 106.65582 150.479379 
L 107.527261 116.601892 
L 107.818008 113.890358 
L 107.890714 113.7944 
L 108.036149 114.239208 
L 108.25436 116.489513 
L 108.545419 122.648108 
L 108.982256 138.504504 
L 109.346521 149.776903 
L 109.638083 153.88025 
L 109.783912 154.4741 
L 109.856838 154.415876 
L 110.002714 153.575606 
L 110.221589 150.427429 
L 110.513535 142.609191 
L 111.170903 122.571468 
L 111.46328 118.957585 
L 111.682646 118.290469 
L 111.828929 118.734555 
L 112.04841 120.709228 
L 112.341162 125.827416 
L 112.85379 140.225953 
L 113.220199 147.887608 
L 113.513472 150.299856 
L 113.586811 150.4033 
L 113.660157 150.30827 
L 113.806872 149.521597 
L 114.027005 146.855705 
L 114.394054 138.831412 
L 114.908264 127.188316 
L 115.202274 123.946292 
L 115.422845 123.245718 
L 115.569889 123.581485 
L 115.790436 125.273264 
L 116.08442 129.654797 
L 117.111374 148.318132 
L 117.330749 149.081957 
L 117.403803 149.016198 
L 117.549794 148.408158 
L 117.768475 146.348526 
L 118.132055 140.377015 
L 118.783388 129.311232 
L 119.071474 127.457556 
L 119.215177 127.401769 
L 119.358647 127.926457 
L 119.573407 129.754153 
L 119.930125 135.122631 
L 120.638808 146.537632 
L 120.920436 148.361861 
L 121.060843 148.512012 
L 121.200973 148.154687 
L 121.410642 146.718516 
L 121.758705 142.355454 
L 122.51941 131.821976 
L 122.794219 130.678353 
L 122.862761 130.695706 
L 122.999644 131.08965 
L 123.20446 132.522955 
L 123.612182 137.680765 
L 124.21875 145.309226 
L 124.486328 146.671899 
L 124.619643 146.736898 
L 124.752639 146.38696 
L 125.01767 144.5302 
L 125.478366 138.704102 
L 126.000197 132.566012 
L 126.259314 131.333993 
L 126.38841 131.280655 
L 126.517195 131.596481 
L 126.773819 133.223032 
L 127.34656 139.383956 
L 127.724762 142.255753 
L 127.912769 142.693045 
L 128.037702 142.570405 
L 128.224494 141.773092 
L 128.534204 139.028882 
L 129.390946 130.218369 
L 129.632892 129.557589 
L 129.753391 129.647023 
L 129.933553 130.264755 
L 130.232295 132.296225 
L 130.941673 137.511998 
L 131.117313 137.809002 
L 131.234027 137.686581 
L 131.408533 137.038863 
L 131.755572 134.412386 
L 132.442036 129.027384 
L 132.668543 128.473602 
L 132.781359 128.509269 
L 132.950042 128.932004 
L 133.229781 130.429589 
L 134.00417 135.025853 
L 134.16835 135.187003 
L 134.331899 134.945728 
L 134.603103 133.834602 
L 135.353931 130.316703 
L 135.566103 130.178762 
L 135.724515 130.423621 
L 135.987177 131.428541 
L 136.919723 135.879398 
L 137.073165 135.927225 
L 137.27682 135.657975 
L 138.130987 133.988553 
L 138.279942 134.072443 
L 138.47767 134.461535 
L 138.821183 135.807876 
L 139.498838 138.546099 
L 139.785807 138.864089 
L 140.070584 138.84939 
L 140.54002 138.800939 
L 140.818632 139.020102 
L 141.049245 139.531393 
L 141.415359 141.086936 
L 142.001726 143.531524 
L 142.883794 145.581656 
L 144.036298 150.109397 
L 144.699305 153.465996 
L 145.18573 155.551223 
L 147.659387 168.563697 
L 148.604052 171.763983 
L 149.274696 172.948864 
L 149.599911 174.780608 
L 149.886642 175.923976 
L 149.981125 175.747676 
L 150.168709 174.569816 
L 150.659811 170.750955 
L 150.689968 170.783845 
L 150.809883 171.352875 
L 151.046323 174.047535 
L 151.564563 180.096654 
L 152.332583 184.974221 
L 152.648471 190.91502 
L 154.064355 221.831331 
L 154.572926 226.854732 
L 155.016846 229.318681 
L 155.451023 230.572099 
L 155.783644 230.968164 
L 156.020847 230.969213 
L 156.283306 230.725924 
L 156.65482 230.020996 
L 157.266065 228.273307 
L 158.548708 224.54366 
L 159.226741 223.29902 
L 159.905668 222.505103 
L 160.732664 221.883059 
L 161.939809 221.026121 
L 162.143392 220.459348 
L 162.31943 219.154798 
L 162.496948 215.874664 
L 162.706037 206.966668 
L 163.008711 181.97895 
L 163.440693 149.268476 
L 163.53451 147.801085 
L 163.597296 148.134475 
L 163.755109 152.552565 
L 164.268419 169.336041 
L 164.366095 169.848563 
L 164.398754 169.796727 
L 164.497031 168.970711 
L 164.661829 165.302076 
L 164.928099 153.480525 
L 165.401627 132.208823 
L 165.470036 131.738076 
L 165.538631 131.963237 
L 165.676369 134.2177 
L 166.410842 150.370535 
L 166.481731 150.252913 
L 166.623982 148.943189 
L 166.910342 143.087553 
L 167.30804 136.081077 
L 167.380828 135.885777 
L 167.417277 135.932296 
L 167.526836 136.616864 
L 167.894331 141.73092 
L 168.153659 143.809937 
L 168.228064 143.905612 
L 168.265318 143.868495 
L 168.377287 143.43752 
L 168.602148 141.433874 
L 169.131563 136.387624 
L 169.322236 135.9919 
L 169.43704 136.085 
L 169.937973 136.952778 
L 169.976737 136.924007 
L 170.132122 136.566824 
L 170.99606 133.777646 
L 171.754729 132.824904 
L 172.280404 132.113236 
L 172.565648 132.030899 
L 173.347497 132.05054 
L 174.014393 131.770066 
L 174.350708 131.966564 
L 175.370924 132.761158 
L 176.017007 133.138527 
L 176.713214 133.857446 
L 177.593589 134.721588 
L 178.171776 135.211522 
L 178.664621 136.161184 
L 179.025114 136.602285 
L 179.705641 136.909946 
L 180.070995 137.68853 
L 181.548076 141.360611 
L 181.92037 141.757633 
L 182.15333 142.498172 
L 182.572827 144.807009 
L 183.318583 148.693762 
L 184.94944 157.58902 
L 186.345325 168.366519 
L 187.45835 173.625946 
L 188.792056 182.564744 
L 189.288937 184.925908 
L 190.482096 193.472558 
L 191.427672 204.031703 
L 192.06481 211.605924 
L 192.73999 219.126032 
L 193.12031 221.13103 
L 193.45988 221.961577 
L 193.715403 222.15003 
L 194.31368 222.287856 
L 194.527801 222.896326 
L 194.827625 224.764349 
L 195.974835 233.279233 
L 196.390854 234.600413 
L 196.75928 235.140032 
L 197.041717 235.234775 
L 197.320698 235.107702 
L 197.713801 234.639102 
L 198.331727 233.484292 
L 199.505955 231.286543 
L 200.109238 230.626404 
L 200.754504 230.252342 
L 201.718323 229.740369 
L 202.069802 229.196581 
L 202.383972 228.265945 
L 202.659931 226.706975 
L 202.976102 223.402831 
L 203.371764 216.510005 
L 204.082941 204.04735 
L 204.358561 202.519763 
L 204.476437 202.475474 
L 204.633354 202.82181 
L 205.335935 204.914849 
L 205.491328 204.800631 
L 205.685221 204.227109 
L 205.956032 202.537071 
L 206.264608 198.812419 
L 206.648909 190.736636 
L 207.260523 177.887733 
L 207.450889 177.016933 
L 207.526941 177.140842 
L 207.678884 178.074017 
L 207.982153 181.846089 
L 208.962904 195.108977 
L 209.226086 196.156955 
L 209.413985 196.261509 
L 209.601872 196.01772 
L 210.015464 195.401453 
L 210.16604 195.520169 
L 210.354462 196.109715 
L 210.618728 197.801579 
L 211.111382 202.844901 
L 212.453374 217.455465 
L 213.035691 220.933718 
L 213.777933 224.017706 
L 214.601687 226.615854 
L 215.268473 228.027144 
L 215.855221 228.803629 
L 216.400639 229.184061 
L 216.904999 229.267339 
L 217.407661 229.117929 
L 217.986157 228.70328 
L 218.564019 228.018636 
L 219.220422 226.861644 
L 219.685837 225.665475 
L 220.036122 224.095601 
L 220.387423 221.296512 
L 220.778642 216.015251 
L 221.365781 204.200379 
L 222.029583 186.325576 
L 222.729543 161.396419 
L 223.619265 127.610023 
L 223.812112 126.261202 
L 223.889213 126.21341 
L 223.927755 126.245555 
L 224.158902 126.495226 
L 224.197409 126.456119 
L 224.312897 126.067702 
L 224.50527 124.419049 
L 225.349763 115.275016 
L 225.464649 115.256976 
L 225.617726 115.60244 
L 226.457195 118.864442 
L 226.874998 121.136879 
L 229.066281 134.857215 
L 229.444418 136.281325 
L 246.106515 136.265311 
L 248.238325 129.770587 
L 248.639111 129.247632 
L 248.920327 129.16827 
L 249.202102 129.323624 
L 249.605792 129.863112 
L 250.295548 131.236052 
L 251.817678 134.316095 
L 252.568831 135.290294 
L 253.367083 135.971159 
L 254.001182 136.281325 
L 255.28683 136.213958 
L 255.679045 135.629181 
L 256.206965 134.350509 
L 257.732601 130.300707 
L 258.005584 130.126174 
L 258.188082 130.235574 
L 258.416773 130.685773 
L 258.692042 131.794327 
L 259.199094 135.065519 
L 259.662723 137.396924 
L 259.942116 137.88838 
L 260.550617 138.483185 
L 260.880057 139.405922 
L 261.828193 142.490367 
L 262.01904 142.566087 
L 262.258167 142.353485 
L 263.075886 141.365674 
L 263.366208 141.426103 
L 264.340321 141.868124 
L 264.634449 141.608848 
L 265.670674 140.419619 
L 265.968653 140.484707 
L 266.867632 140.847974 
L 267.269583 140.642423 
L 267.723531 140.456851 
L 268.077876 140.581626 
L 268.789889 141.216101 
L 269.660379 141.946301 
L 270.433783 142.410858 
L 271.108064 143.281839 
L 272.888868 145.631256 
L 273.735413 146.910557 
L 276.956633 152.449751 
L 277.936683 154.275494 
L 278.31942 154.533892 
L 279.527929 154.979408 
L 279.969434 155.660823 
L 280.35662 156.167431 
L 280.633675 156.179042 
L 281.244649 156.00141 
L 281.634512 156.399721 
L 282.137065 157.229009 
L 282.416966 158.112381 
L 282.866022 160.559546 
L 283.712538 165.109273 
L 284.966347 170.582823 
L 285.714513 175.671204 
L 286.874596 185.033004 
L 288.276887 197.403685 
L 288.920565 200.802248 
L 289.856091 204.514216 
L 291.784987 210.768587 
L 292.311184 211.850942 
L 292.720441 212.286689 
L 293.07125 212.357577 
L 293.363623 212.195719 
L 293.714558 211.692229 
L 294.124206 210.619051 
L 295.062237 207.988102 
L 295.76732 206.821985 
L 296.179102 206.535173 
L 296.473404 206.574347 
L 296.885598 206.912211 
L 297.710339 208.024552 
L 298.535124 208.994742 
L 299.123961 209.370178 
L 299.418183 209.376324 
L 299.653423 209.155274 
L 299.888541 208.620249 
L 300.182298 207.339948 
L 300.534685 204.654972 
L 300.94579 199.623289 
L 301.592313 188.22687 
L 302.181136 179.213495 
L 302.476027 177.143581 
L 302.653122 176.881495 
L 302.771252 177.088469 
L 303.007668 178.24998 
L 304.014608 184.491643 
L 304.133295 184.482115 
L 304.311416 183.932503 
L 304.549084 182.073215 
L 304.846454 177.64721 
L 305.263331 167.127915 
L 306.218962 140.014232 
L 306.39861 139.231955 
L 306.518458 139.940612 
L 306.758345 143.885395 
L 307.720224 164.039204 
L 307.961222 165.230278 
L 308.021503 165.214846 
L 308.142098 164.806938 
L 308.323074 163.259864 
L 308.624908 158.351052 
L 309.592564 139.615724 
L 309.653142 139.446043 
L 309.713734 139.469213 
L 309.834957 140.074445 
L 310.077569 143.160145 
L 310.989658 157.708585 
L 311.233584 158.531562 
L 311.355666 158.270544 
L 311.53894 157.058832 
L 311.844794 153.144486 
L 312.764365 139.87249 
L 312.887018 139.673943 
L 313.009653 140.055864 
L 313.254823 142.3486 
L 314.295056 154.798039 
L 314.417211 154.962125 
L 314.53928 154.735043 
L 314.722194 153.683011 
L 315.02645 150.280631 
L 315.933307 138.666744 
L 316.113438 138.328976 
L 316.233278 138.618211 
L 316.472357 140.228554 
L 317.420383 148.583559 
L 317.537947 148.647914 
L 317.655301 148.37091 
L 317.889367 146.833634 
L 318.296891 141.849788 
L 318.874378 135.100373 
L 319.10384 134.163323 
L 319.218241 134.141674 
L 319.389423 134.602181 
L 319.673599 136.324002 
L 320.293759 140.180888 
L 320.461702 140.313923 
L 320.629139 139.878561 
L 320.851593 138.450451 
L 321.895547 130.060066 
L 322.058467 129.992339 
L 322.220869 130.342325 
L 322.544095 131.922777 
L 323.131132 134.845809 
L 323.342817 135.034496 
L 323.500967 134.791792 
L 323.815699 133.643964 
L 324.38715 131.556521 
L 324.593142 131.401789 
L 324.747004 131.576549 
L 325.002252 132.432647 
L 325.458001 135.129016 
L 325.958692 137.620523 
L 326.256196 138.163102 
L 326.551549 138.253685 
L 326.893463 138.338469 
L 327.135898 138.65637 
L 327.376821 139.334003 
L 327.711562 141.052096 
L 328.512382 145.463581 
L 328.929379 146.346493 
L 329.56829 147.631039 
L 330.062194 149.052103 
L 330.723926 152.124124 
L 331.114402 153.293312 
L 332.422128 155.739201 
L 333.313962 158.452142 
L 333.86546 159.753683 
L 334.17488 159.979156 
L 334.781176 160.194266 
L 335.078128 160.679551 
L 335.443435 161.826985 
L 336.535407 165.706057 
L 336.941162 165.827477 
L 337.107578 166.333045 
L 337.338273 167.906903 
L 337.823788 173.605555 
L 339.340454 193.16056 
L 340.011373 209.07566 
L 340.68428 222.729859 
L 341.204042 229.304645 
L 341.689476 232.967297 
L 342.166777 234.989037 
L 342.575376 235.862512 
L 342.91794 236.133574 
L 343.225391 236.090324 
L 343.581023 235.772414 
L 344.035115 235.038471 
L 344.633062 233.60706 
L 345.489629 230.922944 
L 347.529789 224.356756 
L 348.524646 221.988264 
L 349.293856 220.656304 
L 349.96698 219.909828 
L 350.670084 219.457768 
L 351.408513 218.996829 
L 351.571298 218.600102 
L 351.735562 217.443889 
L 351.901251 214.044921 
L 352.096329 203.305504 
L 352.349946 173.59388 
L 352.77934 125.141155 
L 352.866129 123.934429 
L 352.895122 124.167043 
L 353.011405 128.062847 
L 353.659565 161.861909 
L 353.689351 161.734244 
L 353.808757 159.811301 
L 354.018727 151.720094 
L 354.473129 133.880519 
L 354.503647 133.790992 
L 354.534193 133.861646 
L 354.626001 134.967841 
L 354.841214 141.423003 
L 355.307093 154.581327 
L 355.558305 157.237988 
L 355.71636 157.557479 
L 355.748073 157.548678 
L 356.003069 157.451879 
L 356.131473 157.919434 
L 356.325289 159.88864 
L 356.651752 166.424094 
L 357.798461 192.079319 
L 358.751529 206.306393 
L 359.364415 212.67799 
L 359.980468 216.7915 
L 360.525032 219.064234 
L 360.997446 220.191633 
L 361.361214 220.562654 
L 361.616172 220.542428 
L 361.871568 220.260698 
L 362.237664 219.465437 
L 362.753276 217.774135 
L 363.160838 215.652986 
L 363.719888 211.336091 
L 364.20723 205.958486 
L 364.65906 198.106741 
L 365.340482 181.627753 
L 367.22847 134.133108 
L 367.424641 133.675119 
L 367.582114 133.87207 
L 367.819228 134.078387 
L 367.938195 133.834553 
L 368.137082 132.718882 
L 369.102068 125.750162 
L 369.264513 125.662756 
L 369.468203 125.878712 
L 370.289884 127.120644 
L 370.538512 127.032796 
L 371.711473 126.135152 
L 372.263342 125.976542 
L 372.519749 125.632391 
L 372.820388 124.79946 
L 373.865854 121.36051 
L 374.087051 121.296385 
L 374.309542 121.480421 
L 374.623239 122.10191 
L 375.076036 123.574621 
L 375.76474 126.659435 
L 377.211297 133.211679 
L 378.107217 136.281325 
L 384.410241 136.288623 
L 385.772237 129.503642 
L 386.055921 128.894754 
L 386.198008 128.937192 
L 386.387709 129.439358 
L 386.910836 131.303066 
L 387.006174 131.154659 
L 387.19706 130.175916 
L 388.107858 123.97553 
L 388.300549 123.765003 
L 388.445304 123.903865 
L 388.638643 124.514685 
L 388.929421 126.426579 
L 389.807843 133.324157 
L 389.906021 133.104017 
L 390.102726 131.923434 
L 390.943912 125.667132 
L 391.143009 125.424141 
L 391.292611 125.663306 
L 391.492446 126.550347 
L 391.843147 129.39695 
L 392.396694 133.67543 
L 392.54816 133.864626 
L 392.699838 133.492954 
L 392.953102 131.910838 
L 393.6143 127.444351 
L 393.818521 127.103114 
L 393.971925 127.256229 
L 394.176779 127.94488 
L 394.69048 130.926733 
L 395.051393 132.33525 
L 395.206402 132.441025 
L 395.361608 132.230835 
L 395.620722 131.323951 
L 396.401324 128.233768 
L 396.610302 128.144293 
L 396.767259 128.35688 
L 397.02928 129.148527 
L 397.818503 131.866244 
L 398.029759 131.961276 
L 398.241346 131.708415 
L 398.61242 130.743279 
L 399.090993 129.67971 
L 399.304222 129.618763 
L 399.517774 129.863654 
L 399.838708 130.681162 
L 400.590362 132.726428 
L 400.859756 132.913821 
L 401.075629 132.782059 
L 401.454165 132.156483 
L 401.833664 131.71064 
L 402.05095 131.755179 
L 402.322995 132.137228 
L 402.813898 133.370101 
L 403.635543 135.50955 
L 403.965411 135.780245 
L 404.682486 136.007881 
L 404.959141 136.502102 
L 405.346967 137.762065 
L 406.509935 142.073181 
L 407.724426 145.27424 
L 408.437633 147.491634 
L 408.928899 148.326335 
L 409.417236 148.750505 
L 410.224291 149.086777 
L 410.43794 149.04257 
L 410.650785 148.756036 
L 410.968489 147.835373 
L 412.118186 143.106096 
L 413.140071 137.344453 
L 414.728454 127.139417 
L 415.405514 122.8537 
L 416.212691 119.685019 
L 417.187172 116.546168 
L 418.001582 114.63041 
L 418.357091 114.185608 
L 418.620918 114.164316 
L 419.398211 114.322784 
L 419.694536 114.068178 
L 420.725251 112.883707 
L 421.165489 112.800819 
L 421.441163 112.316098 
L 421.905872 111.486955 
L 422.135058 111.450133 
L 422.624913 111.673922 
L 422.958139 111.607938 
L 423.104713 111.797127 
L 423.323064 112.60175 
L 424.112459 116.353914 
L 424.777731 118.331438 
L 425.053469 119.703551 
L 426.587221 129.628941 
L 427.499595 133.786608 
L 428.203522 136.070876 
L 428.369949 136.281325 
L 441.835989 136.391005 
L 442.422826 136.80067 
L 442.522257 136.753889 
L 442.756055 134.334095 
L 443.368862 128.519004 
L 443.507321 128.162907 
L 443.542064 128.189014 
L 443.646601 128.629445 
L 443.821844 130.827905 
L 444.390983 140.405559 
L 444.426967 140.29907 
L 444.571374 138.836576 
L 445.26721 129.06789 
L 445.341358 129.115188 
L 445.490141 129.858266 
L 445.827186 133.475546 
L 446.167242 136.310506 
L 446.357431 136.695716 
L 446.471974 136.532998 
L 446.702014 135.620533 
L 447.282507 133.195538 
L 447.438565 133.103129 
L 447.595146 133.401893 
L 447.870413 134.672937 
L 448.385806 137.029905 
L 448.585465 137.143844 
L 448.785911 136.849838 
L 449.229646 136.120144 
L 449.391936 136.194435 
L 449.595493 136.644737 
L 450.500234 139.300268 
L 450.791183 139.298718 
L 451.083603 139.346509 
L 451.503878 139.759231 
L 452.396045 140.627874 
L 453.08439 141.060401 
L 453.518326 141.06866 
L 454.438773 140.915195 
L 455.192868 140.991267 
L 455.595297 140.723942 
L 456.31613 140.210298 
L 457.824314 139.60977 
L 458.752158 139.092946 
L 461.837214 138.234498 
L 464.875212 137.607681 
L 466.226169 137.27645 
L 469.235091 136.442766 
L 470.637296 135.639925 
L 471.003353 135.099363 
L 472.689726 131.816042 
L 473.327464 130.227457 
L 475.572144 123.406091 
L 476.481036 121.559251 
L 477.015278 120.814222 
L 477.549048 120.473951 
L 478.88035 119.931268 
L 479.410962 119.920658 
L 479.781581 120.210779 
L 480.309904 121.004819 
L 480.626235 121.352617 
L 480.994378 121.837547 
L 481.623558 123.103634 
L 482.825537 126.121274 
L 486.286049 134.548801 
L 487.078016 136.281325 
L 499.092906 136.33652 
L 500.749429 127.836166 
L 500.85339 128.00977 
L 501.009442 129.102813 
L 501.217732 132.909937 
L 501.896625 149.026868 
L 502.053747 149.629386 
L 502.158594 149.209945 
L 502.316014 147.167267 
L 502.578761 140.054164 
L 502.94724 130.05314 
L 503.158026 128.685996 
L 503.26346 129.368175 
L 503.421643 132.312347 
L 503.738082 144.616539 
L 504.265656 162.368019 
L 504.635114 167.912815 
L 504.846289 168.72598 
L 504.95189 168.52698 
L 505.163123 167.04155 
L 506.008428 158.672216 
L 506.114129 159.057819 
L 506.32555 161.296864 
L 506.695583 168.582542 
L 507.594179 186.804203 
L 508.069585 192.296422 
L 508.491788 194.944258 
L 508.860515 196.188172 
L 509.175843 196.646203 
L 509.490625 196.719543 
L 509.962014 196.854449 
L 510.432289 197.223236 
L 510.74509 197.833346 
L 511.057276 199.018093 
L 513.118017 209.649104 
L 515.042566 222.343851 
L 515.850414 226.22303 
L 516.354875 227.77814 
L 516.657108 228.185537 
L 516.858344 228.149633 
L 517.05936 227.822526 
L 517.36048 226.763941 
L 517.761305 224.322148 
L 518.311402 219.156423 
L 518.711169 216.103009 
L 518.911145 215.750349 
L 519.061208 216.049266 
L 519.311503 217.352438 
L 520.26506 223.187407 
L 520.617202 224.060322 
L 520.919216 224.345661 
L 521.221171 224.359397 
L 522.421145 224.112278 
L 522.816019 224.452213 
L 523.30553 225.233863 
L 524.17717 226.712051 
L 524.369649 226.740405 
L 524.561835 226.50794 
L 524.801766 225.704808 
L 525.089416 223.744914 
L 525.472824 219.273347 
L 526.288594 209.211774 
L 526.529033 208.421992 
L 526.625284 208.465908 
L 526.817917 209.043968 
L 527.88088 213.476284 
L 528.074899 213.520262 
L 528.317761 213.300202 
L 528.65836 212.611762 
L 529.048361 211.296855 
L 529.341291 209.577579 
L 529.634527 206.547027 
L 529.976962 200.357113 
L 530.466592 186.324256 
L 531.004828 172.573379 
L 531.200203 171.263418 
L 531.297793 171.582152 
L 531.492756 173.96485 
L 531.930204 184.028509 
L 532.510294 196.013904 
L 532.942538 200.732883 
L 533.229205 202.025537 
L 533.419626 202.145645 
L 533.562074 201.860934 
L 533.798786 200.700893 
L 534.175703 197.323704 
L 535.154413 187.504499 
L 535.293013 187.367533 
L 535.431333 187.729596 
L 535.661275 189.283049 
L 536.073417 194.074012 
L 537.11702 206.982254 
L 537.521677 209.288133 
L 537.790318 209.881743 
L 537.968919 209.91652 
L 538.147117 209.660364 
L 538.413653 208.748394 
L 539.427644 204.363995 
L 539.559152 204.518752 
L 539.77803 205.361442 
L 540.127522 207.93144 
L 542.164315 225.236995 
L 543.064429 230.084071 
L 543.788025 232.879609 
L 544.295444 234.071891 
L 544.674079 234.480517 
L 544.925592 234.468234 
L 545.176394 234.172566 
L 545.468136 233.366508 
L 545.841955 231.45364 
L 547.203555 223.280064 
L 547.491583 222.927303 
L 547.820856 222.900915 
L 548.397878 222.892915 
L 548.811101 222.611199 
L 550.016874 221.62128 
L 550.519043 221.549091 
L 550.89672 221.694667 
L 551.317233 222.110639 
L 551.906979 223.054271 
L 553.339967 225.465426 
L 553.929031 225.988177 
L 554.433305 226.160896 
L 555.02144 226.108261 
L 558.517869 225.09463 
L 558.939806 224.592786 
L 559.361889 223.701812 
L 559.826735 222.092216 
L 561.358067 216.093901 
L 561.572495 216.045112 
L 561.830416 216.262743 
L 563.385266 218.004422 
L 564.205671 218.598989 
L 564.550664 218.59692 
L 564.809363 218.3763 
L 565.111228 217.773819 
L 565.45641 216.495132 
L 565.888416 213.912351 
L 566.88582 207.356484 
L 567.190761 206.722743 
L 567.365339 206.719834 
L 567.583903 207.009284 
L 568.022184 208.107737 
L 568.770919 209.84873 
L 570.192795 212.718725 
L 570.729339 214.344073 
L 572.468475 220.328323 
L 572.777984 220.605508 
L 572.998439 220.540424 
L 573.262329 220.177987 
L 573.613133 219.228185 
L 574.180933 216.834165 
L 575.050196 213.34225 
L 575.699842 210.988782 
L 576.132404 208.425295 
L 576.565 204.600959 
L 577.041431 198.313153 
L 578.656237 174.521871 
L 578.788503 174.227177 
L 578.832656 174.260231 
L 578.965324 174.785123 
L 579.187181 176.981717 
L 580.356867 191.52739 
L 581.087866 197.317584 
L 582.318615 208.271443 
L 582.632159 209.281809 
L 582.810171 209.323103 
L 582.987412 208.957207 
L 583.20803 207.893817 
L 583.5156 205.229546 
L 583.997491 198.677241 
L 584.875515 186.682275 
L 585.140473 185.448238 
L 585.67327 184.313037 
L 585.896465 182.644547 
L 586.210132 178.07098 
L 586.61542 167.895746 
L 587.524011 142.994814 
L 587.615459 142.601535 
L 587.661223 142.615414 
L 587.798668 143.405105 
L 588.074256 147.17446 
L 588.535626 153.013613 
L 588.720889 153.587525 
L 588.813673 153.400289 
L 588.999544 152.110042 
L 589.325787 147.693593 
L 589.793973 141.610554 
L 589.981943 140.959956 
L 590.076076 141.134758 
L 590.264639 142.337475 
L 591.165689 149.842573 
L 591.30877 149.919424 
L 591.452069 149.648014 
L 591.691388 148.58076 
L 592.461269 144.679201 
L 592.606305 144.732041 
L 592.800022 145.329375 
L 593.725345 149.25464 
L 593.872223 149.209859 
L 594.068386 148.813338 
L 594.412562 147.443846 
L 595.005198 145.073192 
L 595.253099 144.822548 
L 595.451829 144.997308 
L 596.250348 146.16087 
L 596.450871 145.971359 
L 596.752321 145.21278 
L 597.864416 141.682919 
L 598.118641 141.606142 
L 598.884563 141.715434 
L 599.140948 141.363548 
L 599.552279 140.335594 
L 600.223602 138.6718 
L 600.534654 138.369402 
L 600.846466 138.354648 
L 601.472363 138.425994 
L 601.786441 138.18896 
L 602.469513 137.228358 
L 602.891603 136.853609 
L 603.209034 136.823301 
L 603.739724 137.059884 
L 604.219085 137.186941 
L 604.64656 137.060501 
L 605.505367 136.74351 
L 605.936685 136.890946 
L 607.02051 137.406324 
L 608.715843 137.623785 
L 609.653371 138.032345 
L 610.540744 138.060716 
L 611.265264 138.205807 
L 612.554766 138.55521 
L 614.478634 138.72773 
L 615.448334 138.833798 
L 617.171979 138.907531 
L 618.504006 138.999285 
L 619.903562 139.074417 
L 622.43518 139.278625 
L 626.499922 139.783332 
L 637.095414 141.780732 
L 637.976429 142.169593 
L 638.417928 142.040376 
L 638.986534 141.611162 
L 639.429531 140.934009 
L 640.12699 139.305556 
L 641.144442 136.851762 
L 641.399379 136.755959 
L 642.165779 136.967898 
L 642.485947 137.198431 
L 642.742507 137.690847 
L 643.063836 138.885405 
L 643.579657 141.871703 
L 644.880144 149.5922 
L 645.470801 152.084198 
L 645.997832 153.58516 
L 646.195702 153.760077 
L 646.32762 153.644034 
L 646.525445 153.030881 
L 646.920807 150.670727 
L 647.578615 146.708781 
L 647.84131 146.231589 
L 647.972562 146.388342 
L 648.169323 147.117253 
L 648.627944 150.194296 
L 649.086103 152.683938 
L 649.413276 153.333074 
L 649.609606 153.346487 
L 649.805985 153.101958 
L 650.067928 152.395618 
L 650.461136 150.570279 
L 651.840576 143.020694 
L 652.038084 142.918525 
L 652.235706 143.056528 
L 652.63129 143.720038 
L 653.02733 144.292735 
L 653.22552 144.2646 
L 653.423823 143.928745 
L 653.75458 142.695568 
L 654.815089 137.77327 
L 655.014286 137.60068 
L 655.213592 137.761834 
L 655.479506 138.379829 
L 656.411738 140.884139 
L 656.611812 140.927048 
L 656.811995 140.717731 
L 657.145874 139.88589 
L 658.015366 137.374543 
L 658.216305 137.268322 
L 658.41735 137.422971 
L 658.685576 137.974632 
L 659.827647 140.854693 
L 660.029543 140.856644 
L 660.298901 140.561129 
L 660.838179 139.404614 
L 661.310659 138.618583 
L 661.580902 138.569687 
L 661.851331 138.86579 
L 662.325026 139.925155 
L 662.934891 141.149109 
L 663.206241 141.314959 
L 663.409873 141.236909 
L 663.749488 140.771222 
L 664.633814 139.254007 
L 664.906299 139.17617 
L 665.178962 139.361795 
L 665.588293 140.020381 
L 666.339768 141.26721 
L 666.681785 141.425646 
L 667.024073 141.299818 
L 668.258501 140.512265 
L 668.601997 140.654648 
L 669.083326 141.200599 
L 669.565165 141.695035 
L 669.840733 141.734111 
L 670.11647 141.550126 
L 670.599424 140.867069 
L 671.221145 140.090958 
L 671.566928 139.981912 
L 671.912985 140.156328 
L 673.022187 141.061814 
L 673.299916 140.902008 
L 673.716825 140.344628 
L 674.830416 138.663459 
L 675.248693 138.484313 
L 676.226098 138.319388 
L 676.715544 137.82114 
L 677.345554 137.185652 
L 677.625818 137.159864 
L 677.976371 137.416536 
L 678.607989 138.262725 
L 679.513182 139.894567 
L 679.513182 139.894567 
" clip-path="url(#p4b9979a307)" style="fill: none; stroke: #2ca02c; stroke-width: 0.9; stroke-linecap: square"/>
   </g>
   <g id="line2d_26">
    <path d="M 85.776818 137.572165 
L 86.059777 106.620179 
L 86.342826 96.13757 
L 86.69669 90.252931 
L 87.050546 87.084281 
L 87.121314 86.882856 
L 87.192081 86.948232 
L 87.333614 88.241395 
L 87.545917 94.607725 
L 87.829025 113.917495 
L 88.537134 170.387762 
L 88.891342 179.115232 
L 89.103893 180.699917 
L 89.174746 180.670232 
L 89.316458 179.654144 
L 89.529042 174.94229 
L 89.741658 164.253183 
L 90.025223 136.46674 
L 90.379839 106.299601 
L 90.734616 93.814933 
L 91.089504 89.112767 
L 91.30247 88.206357 
L 91.444457 88.235715 
L 91.586452 88.870526 
L 91.799458 91.606034 
L 92.012493 98.232542 
L 92.296611 117.596292 
L 92.936367 171.187307 
L 93.220926 177.047753 
L 93.434415 178.055767 
L 93.50559 178.011673 
L 93.647954 177.527115 
L 93.932744 175.289509 
L 94.217623 170.764361 
L 94.502616 160.946746 
L 94.787754 141.848429 
L 95.144395 118.961379 
L 95.429862 111.767284 
L 95.715439 109.281919 
L 95.786849 109.213413 
L 95.929686 109.819635 
L 96.072548 111.70697 
L 96.286889 118.222048 
L 96.572788 137.502774 
L 96.930366 159.750001 
L 97.216593 165.719857 
L 97.431345 166.829564 
L 97.574547 166.824486 
L 97.789395 166.303041 
L 98.219237 164.440582 
L 98.50591 162.168962 
L 98.720984 158.745209 
L 99.007859 149.370779 
L 99.725653 119.662794 
L 100.012993 116.75432 
L 100.084845 116.576044 
L 100.156705 116.632567 
L 100.300445 117.564035 
L 100.516109 121.680731 
L 100.803771 134.485541 
L 101.235524 155.979835 
L 101.523529 161.735159 
L 101.811655 163.738824 
L 101.955758 163.956576 
L 102.099887 163.803355 
L 102.316127 162.870053 
L 102.532425 160.743619 
L 102.748786 156.595294 
L 103.037378 146.070551 
L 103.614975 120.722006 
L 103.903974 115.887904 
L 104.120804 114.664472 
L 104.193095 114.705427 
L 104.3377 115.549286 
L 104.554666 119.09912 
L 104.844066 129.120453 
L 105.495722 156.261693 
L 105.785564 160.318689 
L 105.930531 160.906057 
L 106.003026 160.877469 
L 106.148038 160.174426 
L 106.365612 157.354978 
L 106.65582 149.558801 
L 107.599935 116.101423 
L 107.890714 113.710171 
L 107.963428 113.653519 
L 108.108879 114.21467 
L 108.327113 116.881618 
L 108.618204 124.18097 
L 109.56518 153.89172 
L 109.783912 155.069159 
L 109.856838 154.960129 
L 110.002714 153.998304 
L 110.221589 150.664284 
L 110.586542 140.064973 
L 111.170903 121.98524 
L 111.46328 117.842955 
L 111.682646 116.857839 
L 111.755784 116.927878 
L 111.902081 117.674975 
L 112.121586 120.346064 
L 112.487586 128.805335 
L 113.220199 148.548742 
L 113.513472 151.006917 
L 113.586811 151.07647 
L 113.73351 150.583636 
L 113.95362 148.30789 
L 114.247211 142.618136 
L 115.055253 124.737544 
L 115.349321 122.619645 
L 115.422845 122.519046 
L 115.496368 122.592413 
L 115.643408 123.260965 
L 115.863943 125.551581 
L 116.231355 132.437813 
L 116.964958 147.263636 
L 117.257659 149.199479 
L 117.330749 149.270621 
L 117.476818 148.927665 
L 117.695624 147.246363 
L 118.059432 141.766771 
L 118.855493 128.609302 
L 119.071474 127.421653 
L 119.215177 127.361856 
L 119.358647 127.887347 
L 119.573407 129.72509 
L 119.930125 135.115659 
L 120.638808 146.539278 
L 120.920436 148.352455 
L 121.060843 148.497136 
L 121.200973 148.137102 
L 121.410642 146.703903 
L 121.758705 142.354066 
L 122.51941 131.82423 
L 122.794219 130.681028 
L 122.862761 130.697577 
L 122.999644 131.08922 
L 123.20446 132.518776 
L 123.612182 137.677357 
L 124.21875 145.314048 
L 124.486328 146.67771 
L 124.619643 146.744404 
L 124.752639 146.39732 
L 124.951533 145.143099 
L 125.347144 140.57283 
L 126.000197 132.550466 
L 126.259314 131.318839 
L 126.38841 131.265948 
L 126.517195 131.582261 
L 126.773819 133.210739 
L 127.34656 139.38522 
L 127.724762 142.263895 
L 127.912769 142.702745 
L 128.037702 142.580371 
L 128.224494 141.782062 
L 128.534204 139.031959 
L 129.390946 130.223207 
L 129.632892 129.568136 
L 129.753391 129.66028 
L 129.933553 130.281705 
L 130.232295 132.316325 
L 130.941673 137.517234 
L 131.117313 137.811065 
L 131.234027 137.689333 
L 131.408533 137.047168 
L 131.755572 134.436384 
L 132.442036 129.07018 
L 132.668543 128.51878 
L 132.781359 128.556225 
L 132.950042 128.982307 
L 133.229781 130.483958 
L 134.00417 135.062536 
L 134.16835 135.221555 
L 134.331899 134.981199 
L 134.603103 133.875553 
L 135.353931 130.357763 
L 135.566103 130.220084 
L 135.724515 130.466394 
L 135.987177 131.47342 
L 136.919723 135.899323 
L 137.073165 135.945522 
L 137.27682 135.67655 
L 138.130987 134.008303 
L 138.279942 134.091362 
L 138.47767 134.478964 
L 138.821183 135.819369 
L 139.498838 138.54084 
L 139.785807 138.858427 
L 140.070584 138.844475 
L 140.54002 138.798049 
L 140.818632 139.018584 
L 141.049245 139.531166 
L 141.415359 141.089547 
L 142.001726 143.539951 
L 142.883794 145.584984 
L 144.036298 150.020518 
L 144.658333 153.027845 
L 145.225839 155.231221 
L 146.362367 160.193444 
L 147.002721 162.383196 
L 147.333779 162.904429 
L 147.908919 163.261413 
L 148.190032 163.349281 
L 148.432617 163.129513 
L 148.807789 162.446385 
L 149.142594 161.973997 
L 149.307544 162.133938 
L 149.791648 162.825574 
L 149.823374 162.785339 
L 149.981125 162.24254 
L 150.538482 159.502103 
L 150.599285 159.540858 
L 150.750069 160.032431 
L 151.075569 162.293904 
L 151.364722 163.802441 
L 151.450531 163.774072 
L 151.593025 163.2469 
L 152.822554 156.015589 
L 154.82751 140.268774 
L 155.173228 138.863006 
L 163.008711 138.779196 
L 163.254375 138.340966 
L 163.53451 137.967354 
L 163.691838 138.045778 
L 163.850383 139.503477 
L 164.59576 147.532229 
L 164.661829 147.623914 
L 164.694939 147.58871 
L 164.794566 147.084979 
L 164.961606 144.60204 
L 165.504311 133.51761 
L 165.538631 133.597819 
L 165.641866 134.527091 
L 165.884314 139.931851 
L 166.269538 147.068414 
L 166.446267 147.804361 
L 166.552778 147.38956 
L 166.731078 145.380979 
L 167.380828 136.104482 
L 167.417277 136.141491 
L 167.526836 136.733936 
L 167.857423 140.843251 
L 168.153659 143.10799 
L 168.228064 143.192692 
L 168.265318 143.160866 
L 168.377287 142.786651 
L 168.602148 141.032859 
L 169.169631 136.346356 
L 169.36047 136.10759 
L 169.513742 136.313492 
L 169.937973 136.975122 
L 170.054364 136.81822 
L 170.288031 135.979155 
L 170.837814 133.991454 
L 171.194592 133.499168 
L 171.553964 132.969428 
L 172.402465 131.545722 
L 172.688361 131.485825 
L 173.18198 131.459417 
L 173.679984 131.051057 
L 174.014393 130.925248 
L 174.308565 131.084552 
L 175.628585 132.194221 
L 176.190379 132.710742 
L 178.440193 135.555712 
L 178.934829 136.483382 
L 179.206005 136.573156 
L 179.523587 136.666507 
L 179.796824 137.042734 
L 180.300176 138.3115 
L 181.548076 141.324106 
L 181.92037 141.670834 
L 182.15333 142.363108 
L 182.619438 144.767896 
L 183.225367 147.494159 
L 184.297235 151.464641 
L 184.763125 152.99696 
L 185.787384 156.792011 
L 186.019946 156.948409 
L 186.252387 156.817436 
L 186.623996 156.248638 
L 187.689537 154.466109 
L 188.196827 153.675477 
L 188.380745 153.449211 
L 188.518316 153.643905 
L 189.0187 154.609967 
L 189.601882 155.279288 
L 190.132681 155.693039 
L 190.827869 157.115975 
L 190.999721 156.919522 
L 191.427672 156.248085 
L 192.022501 156.490737 
L 192.276083 156.292388 
L 192.529173 155.727533 
L 192.782176 154.476832 
L 193.544981 148.836059 
L 194.613473 141.980167 
L 195.255129 138.863006 
L 204.633354 138.931569 
L 205.297047 143.066077 
L 205.994658 146.035526 
L 206.687251 148.086987 
L 207.069806 148.664819 
L 207.450889 149.179176 
L 208.435623 150.930331 
L 208.699456 150.898861 
L 209.075721 150.57444 
L 209.639452 149.758803 
L 210.354462 148.313735 
L 211.149395 146.182864 
L 213.738767 138.863006 
L 221.912625 138.852395 
L 222.535424 143.455125 
L 222.729543 143.922599 
L 222.807119 143.80012 
L 222.962144 142.794718 
L 223.194373 138.978646 
L 223.696421 129.776286 
L 223.966292 128.351895 
L 224.23591 127.566741 
L 224.428337 126.032604 
L 224.735922 121.19818 
L 225.541203 107.566906 
L 226.381077 98.760723 
L 227.442701 78.48435 
L 228.3488 62.884389 
L 228.990702 55.528545 
L 229.595767 50.967112 
L 230.314757 47.149476 
L 231.070389 44.312655 
L 231.710605 42.689141 
L 232.236236 41.900976 
L 232.760605 41.498565 
L 233.284044 41.373324 
L 233.918866 41.463845 
L 234.553125 41.773659 
L 235.336394 42.430513 
L 237.278314 44.150346 
L 238.027719 44.449443 
L 240.016869 45.107819 
L 240.542154 45.714193 
L 241.030361 46.617134 
L 241.444117 47.867759 
L 241.858797 49.950019 
L 242.312664 53.514189 
L 243.340205 62.067326 
L 243.646001 62.944159 
L 243.952148 63.213517 
L 244.335169 63.493633 
L 244.603505 64.078775 
L 244.910485 65.425343 
L 245.256427 68.155027 
L 245.71912 74.073684 
L 246.848832 90.380492 
L 247.085158 91.174 
L 247.243194 91.164512 
L 247.44125 90.744056 
L 248.118337 88.338937 
L 249.444144 84.01463 
L 250.132826 83.339418 
L 250.417777 82.449518 
L 250.867519 80.18166 
L 252.610708 70.597818 
L 253.114402 69.193458 
L 253.493621 68.672493 
L 253.789402 68.592122 
L 254.043597 68.751775 
L 254.34117 69.235146 
L 254.640175 70.195542 
L 254.94088 72.047291 
L 255.28683 75.734003 
L 255.810488 84.32578 
L 257.234686 108.962151 
L 259.384242 135.737296 
L 259.709225 137.494622 
L 259.988771 137.978298 
L 260.503656 138.475748 
L 260.832917 139.356132 
L 261.780545 142.369983 
L 261.97129 142.447803 
L 262.16244 142.299376 
L 263.172561 141.118927 
L 263.511701 141.242686 
L 264.193583 141.579873 
L 264.487277 141.452213 
L 264.880217 140.983582 
L 265.472491 140.299824 
L 265.769906 140.233119 
L 266.167775 140.416498 
L 266.71728 140.665891 
L 267.068424 140.587788 
L 267.824659 140.314563 
L 268.179322 140.496407 
L 270.175431 141.907152 
L 270.64086 142.308297 
L 275.390701 147.482809 
L 276.252631 148.243047 
L 277.827493 149.740166 
L 278.209977 149.774885 
L 279.638205 149.567306 
L 280.522804 149.914621 
L 281.355953 149.683145 
L 281.969375 150.050519 
L 282.360942 150.53391 
L 282.809804 151.613607 
L 283.373178 152.841149 
L 283.769201 153.233138 
L 284.223596 153.320522 
L 284.966347 153.193158 
L 285.426157 152.897605 
L 285.887861 152.281722 
L 286.467411 151.059264 
L 287.28284 148.76399 
L 289.213055 142.996123 
L 290.089816 141.208207 
L 290.849542 140.144515 
L 291.609583 139.450681 
L 292.311184 139.084009 
L 293.07125 138.938304 
L 293.890084 139.014291 
L 294.768814 139.338165 
L 297.710339 140.612903 
L 298.594024 140.660434 
L 299.477005 140.477835 
L 300.475959 140.277218 
L 300.887054 140.408111 
L 301.29832 140.772128 
L 301.827697 141.561575 
L 302.476027 142.936561 
L 303.125952 144.957804 
L 304.192656 148.278508 
L 304.667993 149.230132 
L 304.905967 149.370282 
L 305.084586 149.16691 
L 305.263331 148.556564 
L 305.501859 146.917173 
L 305.979663 141.335043 
L 306.278828 138.786862 
L 306.39861 138.636461 
L 306.518458 139.103702 
L 306.758345 141.701512 
L 307.5998 153.157084 
L 307.900954 154.543654 
L 308.081794 154.645384 
L 308.262738 154.200843 
L 308.504144 152.687166 
L 308.866559 148.36339 
L 309.531998 139.507332 
L 309.653142 139.100352 
L 309.713734 139.122625 
L 309.834957 139.611537 
L 310.077569 142.070419 
L 310.928725 152.251953 
L 311.172573 152.962866 
L 311.294615 152.882491 
L 311.477829 152.242663 
L 311.783584 149.892693 
L 312.887018 139.368255 
L 313.009653 139.70093 
L 313.254823 141.673431 
L 314.233949 151.851727 
L 314.417211 152.229432 
L 314.53928 152.111248 
L 314.722194 151.381227 
L 315.02645 148.780914 
L 315.993399 138.427547 
L 316.113438 138.313537 
L 316.233278 138.592361 
L 316.472357 140.151028 
L 317.420383 148.221423 
L 317.537947 148.297637 
L 317.655301 148.051192 
L 317.889367 146.616472 
L 318.238838 142.604176 
L 318.874378 135.106489 
L 319.10384 134.169221 
L 319.218241 134.144256 
L 319.389423 134.597975 
L 319.673599 136.31319 
L 320.293759 140.181075 
L 320.461702 140.315633 
L 320.629139 139.881549 
L 320.851593 138.452986 
L 321.895547 130.059525 
L 322.058467 129.990788 
L 322.220869 130.341469 
L 322.544095 131.928901 
L 323.131132 134.862005 
L 323.342817 135.051359 
L 323.500967 134.808922 
L 323.815699 133.660744 
L 324.38715 131.568045 
L 324.593142 131.413253 
L 324.747004 131.589471 
L 325.002252 132.449524 
L 325.458001 135.146203 
L 325.958692 137.619084 
L 326.256196 138.156186 
L 326.551549 138.245293 
L 326.893463 138.330238 
L 327.135898 138.648463 
L 327.376821 139.326629 
L 327.711562 141.047158 
L 328.512382 145.465061 
L 328.929379 146.346142 
L 329.613484 147.720568 
L 330.106737 149.164776 
L 331.157496 153.019086 
L 332.256726 154.618458 
L 333.073763 156.511894 
L 333.709181 157.797213 
L 334.020694 158.032813 
L 334.366138 157.987104 
L 334.781176 157.983474 
L 335.078128 158.235139 
L 335.443435 158.940037 
L 336.432482 161.028468 
L 336.671702 160.977109 
L 336.974563 160.932839 
L 337.173749 161.216445 
L 337.403726 162.002633 
L 338.140642 165.239583 
L 338.390537 165.509368 
L 338.545312 165.417523 
L 338.729869 165.000585 
L 338.97455 163.7597 
L 339.523296 158.983413 
L 340.500622 150.41786 
L 341.204042 146.234252 
L 341.869621 143.52044 
L 342.51757 141.734187 
L 343.169952 140.544621 
L 343.876137 139.71504 
L 344.913363 138.863006 
L 352.293315 138.7733 
L 352.463663 138.268041 
L 353.011405 136.025204 
L 353.040554 136.097428 
L 353.128186 137.123312 
L 353.778866 149.508646 
L 353.838675 149.345401 
L 353.958605 147.949273 
L 354.169503 142.075106 
L 354.473129 134.540993 
L 354.503647 134.441983 
L 354.534193 134.474866 
L 354.626001 135.344444 
L 354.841214 140.967182 
L 355.27583 151.607022 
L 355.526793 153.55216 
L 355.621427 153.607006 
L 355.653037 153.569283 
L 355.875278 152.916457 
L 356.099313 152.502216 
L 356.195913 152.629364 
L 356.39023 153.447991 
L 356.849832 155.490724 
L 356.949525 155.443591 
L 357.116684 154.876272 
L 357.420836 152.743094 
L 359.003268 140.264828 
L 359.328244 138.863006 
L 365.416511 138.756893 
L 365.492614 138.729954 
L 366.29659 142.082124 
L 366.412251 141.894454 
L 366.605517 140.933379 
L 366.955051 137.489388 
L 367.267645 135.185314 
L 367.503318 134.755386 
L 367.819228 134.689105 
L 367.977912 134.225245 
L 368.216849 132.556361 
L 369.223859 123.824581 
L 369.468203 123.41861 
L 369.67259 123.432297 
L 370.124672 123.566322 
L 370.331255 123.362064 
L 370.621602 122.697547 
L 371.458354 120.531728 
L 371.880767 120.120148 
L 372.263342 119.69823 
L 372.519749 118.974758 
L 372.820388 117.250766 
L 373.209548 113.500559 
L 374.578263 99.135145 
L 375.672369 87.739355 
L 376.882604 75.581246 
L 378.2017 63.38112 
L 378.862615 59.553271 
L 379.660008 56.202116 
L 380.539726 53.353574 
L 381.044717 52.327441 
L 381.273722 52.189551 
L 381.456802 52.336921 
L 381.639849 52.816074 
L 381.868718 54.060748 
L 382.189472 57.369154 
L 382.602787 64.48322 
L 383.479823 80.722371 
L 383.758176 82.635337 
L 383.944117 82.943302 
L 384.083764 82.829028 
L 384.410241 82.028442 
L 384.737613 81.446365 
L 384.878188 81.535298 
L 385.065873 82.126039 
L 385.30088 83.805786 
L 385.583479 87.603276 
L 385.913997 95.252242 
L 386.958496 123.25589 
L 387.006174 123.235046 
L 387.149312 122.261442 
L 387.436069 117.569862 
L 387.963567 108.954936 
L 388.204159 107.654065 
L 388.300549 107.734017 
L 388.445304 108.527991 
L 388.687041 111.592529 
L 389.12382 121.081331 
L 389.611831 130.278892 
L 389.807843 131.169215 
L 389.906021 130.899388 
L 390.102726 129.214412 
L 390.943912 119.962567 
L 391.093195 119.711318 
L 391.19285 119.873569 
L 391.392476 120.992611 
L 391.692694 124.367042 
L 392.396694 132.666411 
L 392.54816 132.957304 
L 392.649255 132.74612 
L 392.851726 131.509408 
L 393.716365 124.683692 
L 393.869633 124.590758 
L 394.023105 124.945253 
L 394.27934 126.36261 
L 395.051393 131.33506 
L 395.206402 131.480371 
L 395.361608 131.238633 
L 395.620722 130.150418 
L 396.401324 126.285897 
L 396.610302 126.147656 
L 396.767259 126.401296 
L 397.02928 127.387558 
L 397.818503 130.797044 
L 398.029759 130.928529 
L 398.188418 130.744188 
L 398.506296 129.855163 
L 399.090993 128.19625 
L 399.304222 128.12734 
L 399.517774 128.436965 
L 399.838708 129.45581 
L 400.590362 131.975959 
L 400.859756 132.221604 
L 401.075629 132.087552 
L 401.454165 131.392674 
L 401.833664 130.905603 
L 402.05095 130.974456 
L 402.322995 131.436928 
L 402.813898 132.882301 
L 403.635543 135.32013 
L 403.965411 135.629919 
L 404.682486 135.901879 
L 404.959141 136.437217 
L 405.346967 137.76859 
L 406.399279 141.831548 
L 407.173228 143.499608 
L 407.669403 144.897812 
L 408.437633 147.073659 
L 408.928899 147.792526 
L 409.471299 148.186835 
L 410.331212 148.443709 
L 410.544466 148.322114 
L 410.80987 147.830207 
L 411.231866 146.404381 
L 412.37573 141.675707 
L 413.742596 133.600368 
L 414.97162 125.335659 
L 415.549062 122.033927 
L 417.278588 114.603273 
L 418.224281 110.985988 
L 418.577109 110.370726 
L 419.098506 110.008709 
L 419.398211 109.639659 
L 419.736589 108.759758 
L 420.400024 106.10135 
L 420.846116 104.725384 
L 421.244624 103.611801 
L 421.519266 102.01581 
L 421.982488 97.473737 
L 424.076998 75.727404 
L 425.361921 55.094409 
L 425.907886 52.412616 
L 426.519416 49.228656 
L 428.170173 39.365232 
L 428.568886 38.561539 
L 428.898357 38.293852 
L 429.224981 38.307177 
L 429.612966 38.581888 
L 430.154974 39.272098 
L 434.510254 46.046065 
L 436.285943 48.90483 
L 437.318944 50.143703 
L 438.361731 51.056512 
L 439.780114 51.971869 
L 440.437023 52.484535 
L 440.679726 52.975586 
L 440.893975 54.066208 
L 441.079131 56.278026 
L 441.297063 61.979267 
L 441.580581 76.867909 
L 442.225345 114.904532 
L 442.323855 115.873644 
L 442.356794 115.839846 
L 442.455918 114.833984 
L 442.78966 106.935436 
L 443.060361 103.133581 
L 443.128554 103.013342 
L 443.162728 103.090306 
L 443.265561 103.88799 
L 443.437989 107.209558 
L 443.716546 117.912256 
L 444.283318 141.42816 
L 444.355047 141.812401 
L 444.390983 141.751418 
L 444.499076 140.667732 
L 444.75293 134.587122 
L 445.119411 127.484924 
L 445.26721 126.807166 
L 445.304264 126.837462 
L 445.415669 127.362621 
L 445.639556 129.929156 
L 446.167242 136.129669 
L 446.357431 136.585964 
L 446.471974 136.409062 
L 446.702014 135.399868 
L 447.282507 132.727609 
L 447.438565 132.631188 
L 447.595146 132.97097 
L 447.870413 134.394116 
L 448.385806 136.990022 
L 448.54547 137.132846 
L 448.705639 136.962226 
L 449.310729 136.044744 
L 449.473266 136.263733 
L 449.717997 137.059691 
L 450.293318 139.113976 
L 450.541708 139.344735 
L 451.335412 139.555016 
L 452.481684 140.579239 
L 453.127655 140.895109 
L 453.561876 140.857446 
L 454.35058 140.687998 
L 455.326766 140.704283 
L 456.861243 139.938209 
L 457.50201 139.698887 
L 459.12616 138.934477 
L 460.447859 138.496073 
L 461.355805 138.282508 
L 462.807268 138.017093 
L 469.235091 136.430676 
L 470.637296 135.603452 
L 471.003353 135.044735 
L 472.477781 132.063562 
L 473.487311 129.05907 
L 478.028929 110.203398 
L 478.774073 106.102455 
L 479.516922 100.556507 
L 481.151878 88.877861 
L 483.608656 74.028781 
L 484.549918 64.710981 
L 485.442472 56.727911 
L 486.180471 51.999893 
L 486.919685 48.611314 
L 487.867867 45.426223 
L 488.756772 43.147139 
L 489.482835 41.835881 
L 490.101039 41.142391 
L 490.613621 40.869809 
L 491.124264 40.851122 
L 491.735001 41.077221 
L 492.546232 41.64058 
L 493.807105 42.824601 
L 495.568716 44.76854 
L 495.973318 45.57707 
L 496.277498 46.663569 
L 496.582322 48.633705 
L 496.887767 52.111064 
L 497.295923 59.883414 
L 498.680715 90.834931 
L 498.835195 91.098752 
L 498.938243 90.844701 
L 499.196076 89.167 
L 499.764381 85.335382 
L 499.867864 85.239056 
L 499.971395 85.440645 
L 500.12678 86.376739 
L 500.334128 89.029367 
L 500.593593 95.249072 
L 500.905392 108.193878 
L 501.896625 156.399306 
L 501.94898 156.53152 
L 502.001354 156.395784 
L 502.158594 154.453363 
L 502.421059 146.809098 
L 502.999925 128.046153 
L 503.105319 127.39534 
L 503.158026 127.464276 
L 503.26346 128.405067 
L 503.474378 133.583719 
L 504.318427 161.542716 
L 504.529542 162.991394 
L 504.635114 163.075938 
L 504.740696 162.832877 
L 504.95189 161.595922 
L 505.374394 157.300723 
L 505.849891 152.837601 
L 506.061277 152.294224 
L 506.166982 152.444086 
L 506.378408 153.382045 
L 506.907043 156.047943 
L 507.118498 156.225542 
L 507.277078 156.003105 
L 507.594179 154.971027 
L 508.807895 150.448505 
L 509.490625 148.445345 
L 510.22343 146.436745 
L 510.849222 145.298653 
L 511.472468 144.607284 
L 511.989454 144.330732 
L 512.555256 144.285194 
L 512.964859 144.396157 
L 513.474363 145.167887 
L 513.880198 145.45773 
L 514.234397 145.462429 
L 514.588094 145.229213 
L 514.992073 144.680443 
L 515.547502 143.490691 
L 516.405276 140.983638 
L 517.159786 138.863006 
L 528.70707 138.863006 
L 530.319681 144.552033 
L 530.809234 145.704502 
L 531.151382 146.490374 
L 531.492756 148.077416 
L 532.124004 151.107778 
L 532.510294 151.911695 
L 533.03823 152.456075 
L 533.467144 152.633137 
L 533.846024 152.566648 
L 534.363315 152.204597 
L 535.936279 150.589895 
L 536.483418 149.670264 
L 537.790318 147.412021 
L 539.252067 145.415827 
L 540.824131 143.706357 
L 542.207321 142.181752 
L 543.021709 140.830759 
L 544.168864 138.863006 
L 549.267072 138.956128 
L 549.68308 139.297354 
L 550.016874 139.315819 
L 550.393344 139.087952 
L 550.770736 138.863006 
L 568.726746 138.941543 
L 569.213557 139.487324 
L 569.568827 139.584922 
L 569.925056 139.4242 
L 570.729339 138.863006 
L 574.180933 138.960864 
L 574.833275 139.845603 
L 575.786372 141.572066 
L 579.053951 148.197756 
L 579.678821 150.047117 
L 579.949052 150.284951 
L 580.220614 150.211033 
L 580.538994 149.822883 
L 580.904578 148.993457 
L 581.408948 147.204274 
L 582.22854 143.24954 
L 583.119894 139.243496 
L 583.339996 138.863006 
L 584.787391 138.846277 
L 585.361988 141.179944 
L 586.525164 146.27096 
L 586.66059 146.303426 
L 586.796265 145.997107 
L 587.022939 144.645463 
L 587.615459 140.613091 
L 587.707012 140.799083 
L 587.890427 142.019805 
L 588.674535 148.81783 
L 588.767268 148.913319 
L 588.813673 148.881272 
L 588.953038 148.46514 
L 589.185818 146.80279 
L 589.934913 140.425618 
L 590.028997 140.451603 
L 590.170308 140.974296 
L 590.500896 143.645225 
L 590.975258 147.171516 
L 591.213358 147.756661 
L 591.356512 147.697978 
L 591.547724 147.228516 
L 591.931313 145.416011 
L 592.364697 143.63792 
L 592.557936 143.503911 
L 592.703116 143.736683 
L 592.994118 144.832492 
L 593.529835 146.818843 
L 593.774281 147.03605 
L 593.970258 146.847687 
L 594.264919 146.095539 
L 595.10429 143.614803 
L 595.302748 143.578159 
L 595.551329 143.863927 
L 596.150219 144.703036 
L 596.350565 144.679239 
L 596.601496 144.346452 
L 596.953729 143.41614 
L 597.712143 141.333121 
L 597.966041 141.12946 
L 598.271436 141.196592 
L 598.78216 141.351728 
L 599.03833 141.158401 
L 599.397869 140.494812 
L 600.379033 138.425262 
L 600.690465 138.29716 
L 601.681665 138.271604 
L 602.101269 137.75753 
L 602.785957 136.919789 
L 603.156078 136.820617 
L 603.580303 136.978609 
L 604.165742 137.186228 
L 604.593055 137.084329 
L 605.505367 136.736521 
L 605.936685 136.884562 
L 607.02051 137.404944 
L 608.715843 137.623952 
L 609.653371 138.03284 
L 610.540744 138.059648 
L 611.265264 138.202867 
L 612.554766 138.546244 
L 614.478634 138.711826 
L 615.448334 138.814072 
L 617.171979 138.883817 
L 618.562126 138.970791 
L 619.962088 139.051093 
L 622.316755 139.229708 
L 626.198547 139.672836 
L 632.298582 140.713377 
L 634.219677 140.962444 
L 635.466367 141.179453 
L 636.467753 141.369704 
L 637.032586 141.523063 
L 638.03946 141.902971 
L 638.481053 141.745935 
L 639.049779 141.304699 
L 639.492869 140.621233 
L 640.253975 138.890647 
L 641.080744 136.949309 
L 641.335622 136.784546 
L 641.782257 136.881022 
L 642.421869 137.133819 
L 642.678328 137.539127 
L 642.935214 138.322822 
L 643.385963 140.626 
L 644.880144 149.160662 
L 645.405033 150.906837 
L 645.865961 151.747059 
L 646.063784 151.834264 
L 646.261663 151.634897 
L 646.525445 150.757266 
L 647.052489 147.673093 
L 647.578615 145.031218 
L 647.84131 144.562857 
L 647.972562 144.636949 
L 648.169323 145.119548 
L 648.627944 147.193889 
L 649.020667 148.616305 
L 649.347839 149.087629 
L 649.609606 149.116546 
L 649.871458 148.878327 
L 650.198956 148.217414 
L 650.59229 146.868319 
L 651.774765 142.195636 
L 651.972235 142.078228 
L 652.169819 142.176181 
L 652.499378 142.652312 
L 653.093381 143.495891 
L 653.291609 143.425276 
L 653.48995 143.075506 
L 653.820769 141.905121 
L 654.815089 137.761918 
L 655.014286 137.599632 
L 655.213592 137.752137 
L 655.479506 138.341282 
L 656.411738 140.758119 
L 656.611812 140.804911 
L 656.811995 140.608705 
L 657.145874 139.813322 
L 658.015366 137.379038 
L 658.216305 137.274766 
L 658.41735 137.425831 
L 658.685576 137.967504 
L 659.760372 140.741691 
L 659.962233 140.809834 
L 660.164198 140.67858 
L 660.501043 140.117115 
L 661.310659 138.596531 
L 661.580902 138.548637 
L 661.851331 138.837413 
L 662.325026 139.867929 
L 662.867083 140.965663 
L 663.206241 141.20285 
L 663.477773 141.061524 
L 663.817445 140.544244 
L 664.633814 139.201435 
L 664.906299 139.126158 
L 665.178962 139.305414 
L 665.588293 139.940737 
L 666.339768 141.137257 
L 666.681785 141.286368 
L 667.024073 141.162987 
L 668.258501 140.403247 
L 668.601997 140.538423 
L 669.083326 141.057192 
L 669.565165 141.522152 
L 669.840733 141.554637 
L 670.11647 141.375433 
L 670.599424 140.721517 
L 671.221145 139.981694 
L 671.566928 139.878106 
L 671.912985 140.04498 
L 673.022187 140.910705 
L 673.299916 140.760032 
L 673.716825 140.231568 
L 674.830416 138.627447 
L 675.248693 138.456652 
L 676.226098 138.301388 
L 676.715544 137.816107 
L 677.345554 137.190879 
L 677.625818 137.16458 
L 677.976371 137.417785 
L 678.607989 138.258962 
L 679.513182 139.884082 
L 679.513182 139.884082 
" clip-path="url(#p4b9979a307)" style="fill: none; stroke: #d62728; stroke-opacity: 0.8; stroke-width: 0.9; stroke-linecap: square"/>
   </g>
   <g id="patch_3">
    <path d="M 56.09 246.04 
L 56.09 28.37625 
" style="fill: none; stroke: #000000; stroke-width: 0.8; stroke-linejoin: miter; stroke-linecap: square"/>
   </g>
   <g id="patch_4">
    <path d="M 709.2 246.04 
L 709.2 28.37625 
" style="fill: none; stroke: #000000; stroke-width: 0.8; stroke-linejoin: miter; stroke-linecap: square"/>
   </g>
   <g id="patch_5">
    <path d="M 56.09 246.04 
L 709.2 246.04 
" style="fill: none; stroke: #000000; stroke-width: 0.8; stroke-linejoin: miter; stroke-linecap: square"/>
   </g>
   <g id="patch_6">
    <path d="M 56.09 28.37625 
L 709.2 28.37625 
" style="fill: none; stroke: #000000; stroke-width: 0.8; stroke-linejoin: miter; stroke-linecap: square"/>
   </g>
   <g id="text_15">
    <!-- steering-link loads over one Gelleråsen Arena lap -->
    <g transform="translate(234.435625 22.37625) scale(0.12 -0.12)">
     <defs>
      <path id="DejaVuSans-67" d="M 2906 1791 
Q 2906 2416 2648 2759 
Q 2391 3103 1925 3103 
Q 1463 3103 1205 2759 
Q 947 2416 947 1791 
Q 947 1169 1205 825 
Q 1463 481 1925 481 
Q 2391 481 2648 825 
Q 2906 1169 2906 1791 
z
M 3481 434 
Q 3481 -459 3084 -895 
Q 2688 -1331 1869 -1331 
Q 1566 -1331 1297 -1286 
Q 1028 -1241 775 -1147 
L 775 -588 
Q 1028 -725 1275 -790 
Q 1522 -856 1778 -856 
Q 2344 -856 2625 -561 
Q 2906 -266 2906 331 
L 2906 616 
Q 2728 306 2450 153 
Q 2172 0 1784 0 
Q 1141 0 747 490 
Q 353 981 353 1791 
Q 353 2603 747 3093 
Q 1141 3584 1784 3584 
Q 2172 3584 2450 3431 
Q 2728 3278 2906 2969 
L 2906 3500 
L 3481 3500 
L 3481 434 
z
" transform="scale(0.015625)"/>
      <path id="DejaVuSans-6c" d="M 603 4863 
L 1178 4863 
L 1178 0 
L 603 0 
L 603 4863 
z
" transform="scale(0.015625)"/>
      <path id="DejaVuSans-76" d="M 191 3500 
L 800 3500 
L 1894 563 
L 2988 3500 
L 3597 3500 
L 2284 0 
L 1503 0 
L 191 3500 
z
" transform="scale(0.015625)"/>
      <path id="DejaVuSans-47" d="M 3809 666 
L 3809 1919 
L 2778 1919 
L 2778 2438 
L 4434 2438 
L 4434 434 
Q 4069 175 3628 42 
Q 3188 -91 2688 -91 
Q 1594 -91 976 548 
Q 359 1188 359 2328 
Q 359 3472 976 4111 
Q 1594 4750 2688 4750 
Q 3144 4750 3555 4637 
Q 3966 4525 4313 4306 
L 4313 3634 
Q 3963 3931 3569 4081 
Q 3175 4231 2741 4231 
Q 1884 4231 1454 3753 
Q 1025 3275 1025 2328 
Q 1025 1384 1454 906 
Q 1884 428 2741 428 
Q 3075 428 3337 486 
Q 3600 544 3809 666 
z
" transform="scale(0.015625)"/>
      <path id="DejaVuSans-e5" d="M 2194 1759 
Q 1497 1759 1228 1600 
Q 959 1441 959 1056 
Q 959 750 1161 570 
Q 1363 391 1709 391 
Q 2188 391 2477 730 
Q 2766 1069 2766 1631 
L 2766 1759 
L 2194 1759 
z
M 3341 1997 
L 3341 0 
L 2766 0 
L 2766 531 
Q 2569 213 2275 61 
Q 1981 -91 1556 -91 
Q 1019 -91 701 211 
Q 384 513 384 1019 
Q 384 1609 779 1909 
Q 1175 2209 1959 2209 
L 2766 2209 
L 2766 2266 
Q 2766 2663 2505 2880 
Q 2244 3097 1772 3097 
Q 1472 3097 1187 3025 
Q 903 2953 641 2809 
L 641 3341 
Q 956 3463 1253 3523 
Q 1550 3584 1831 3584 
Q 2591 3584 2966 3190 
Q 3341 2797 3341 1997 
z
M 2331 4763 
Q 2331 4959 2193 5096 
Q 2056 5234 1856 5234 
Q 1653 5234 1517 5098 
Q 1381 4963 1381 4763 
Q 1381 4559 1517 4423 
Q 1653 4288 1856 4288 
Q 2056 4288 2193 4425 
Q 2331 4563 2331 4763 
z
M 2712 4763 
Q 2712 4403 2463 4153 
Q 2215 3903 1856 3903 
Q 1497 3903 1248 4153 
Q 1000 4403 1000 4763 
Q 1000 5122 1248 5370 
Q 1497 5619 1856 5619 
Q 2215 5619 2463 5370 
Q 2712 5122 2712 4763 
z
" transform="scale(0.015625)"/>
      <path id="DejaVuSans-41" d="M 2188 4044 
L 1331 1722 
L 3047 1722 
L 2188 4044 
z
M 1831 4666 
L 2547 4666 
L 4325 0 
L 3669 0 
L 3244 1197 
L 1141 1197 
L 716 0 
L 50 0 
L 1831 4666 
z
" transform="scale(0.015625)"/>
      <path id="DejaVuSans-70" d="M 1159 525 
L 1159 -1331 
L 581 -1331 
L 581 3500 
L 1159 3500 
L 1159 2969 
Q 1341 3281 1617 3432 
Q 1894 3584 2278 3584 
Q 2916 3584 3314 3078 
Q 3713 2572 3713 1747 
Q 3713 922 3314 415 
Q 2916 -91 2278 -91 
Q 1894 -91 1617 61 
Q 1341 213 1159 525 
z
M 3116 1747 
Q 3116 2381 2855 2742 
Q 2594 3103 2138 3103 
Q 1681 3103 1420 2742 
Q 1159 2381 1159 1747 
Q 1159 1113 1420 752 
Q 1681 391 2138 391 
Q 2594 391 2855 752 
Q 3116 1113 3116 1747 
z
" transform="scale(0.015625)"/>
     </defs>
     <use xlink:href="#DejaVuSans-73"/>
     <use xlink:href="#DejaVuSans-74" transform="translate(52.099609 0)"/>
     <use xlink:href="#DejaVuSans-65" transform="translate(91.308594 0)"/>
     <use xlink:href="#DejaVuSans-65" transform="translate(152.832031 0)"/>
     <use xlink:href="#DejaVuSans-72" transform="translate(214.355469 0)"/>
     <use xlink:href="#DejaVuSans-69" transform="translate(255.46875 0)"/>
     <use xlink:href="#DejaVuSans-6e" transform="translate(283.251953 0)"/>
     <use xlink:href="#DejaVuSans-67" transform="translate(346.630859 0)"/>
     <use xlink:href="#DejaVuSans-2d" transform="translate(410.107422 0)"/>
     <use xlink:href="#DejaVuSans-6c" transform="translate(446.191406 0)"/>
     <use xlink:href="#DejaVuSans-69" transform="translate(473.974609 0)"/>
     <use xlink:href="#DejaVuSans-6e" transform="translate(501.757812 0)"/>
     <use xlink:href="#DejaVuSans-6b" transform="translate(565.136719 0)"/>
     <use xlink:href="#DejaVuSans-20" transform="translate(623.046875 0)"/>
     <use xlink:href="#DejaVuSans-6c" transform="translate(654.833984 0)"/>
     <use xlink:href="#DejaVuSans-6f" transform="translate(682.617188 0)"/>
     <use xlink:href="#DejaVuSans-61" transform="translate(743.798828 0)"/>
     <use xlink:href="#DejaVuSans-64" transform="translate(805.078125 0)"/>
     <use xlink:href="#DejaVuSans-73" transform="translate(868.554688 0)"/>
     <use xlink:href="#DejaVuSans-20" transform="translate(920.654297 0)"/>
     <use xlink:href="#DejaVuSans-6f" transform="translate(952.441406 0)"/>
     <use xlink:href="#DejaVuSans-76" transform="translate(1013.623047 0)"/>
     <use xlink:href="#DejaVuSans-65" transform="translate(1072.802734 0)"/>
     <use xlink:href="#DejaVuSans-72" transform="translate(1134.326172 0)"/>
     <use xlink:href="#DejaVuSans-20" transform="translate(1175.439453 0)"/>
     <use xlink:href="#DejaVuSans-6f" transform="translate(1207.226562 0)"/>
     <use xlink:href="#DejaVuSans-6e" transform="translate(1268.408203 0)"/>
     <use xlink:href="#DejaVuSans-65" transform="translate(1331.787109 0)"/>
     <use xlink:href="#DejaVuSans-20" transform="translate(1393.310547 0)"/>
     <use xlink:href="#DejaVuSans-47" transform="translate(1425.097656 0)"/>
     <use xlink:href="#DejaVuSans-65" transform="translate(1502.587891 0)"/>
     <use xlink:href="#DejaVuSans-6c" transform="translate(1564.111328 0)"/>
     <use xlink:href="#DejaVuSans-6c" transform="translate(1591.894531 0)"/>
     <use xlink:href="#DejaVuSans-65" transform="translate(1619.677734 0)"/>
     <use xlink:href="#DejaVuSans-72" transform="translate(1681.201172 0)"/>
     <use xlink:href="#DejaVuSans-e5" transform="translate(1722.314453 0)"/>
     <use xlink:href="#DejaVuSans-73" transform="translate(1783.59375 0)"/>
     <use xlink:href="#DejaVuSans-65" transform="translate(1835.693359 0)"/>
     <use xlink:href="#DejaVuSans-6e" transform="translate(1897.216797 0)"/>
     <use xlink:href="#DejaVuSans-20" transform="translate(1960.595703 0)"/>
     <use xlink:href="#DejaVuSans-41" transform="translate(1992.382812 0)"/>
     <use xlink:href="#DejaVuSans-72" transform="translate(2060.791016 0)"/>
     <use xlink:href="#DejaVuSans-65" transform="translate(2099.654297 0)"/>
     <use xlink:href="#DejaVuSans-6e" transform="translate(2161.177734 0)"/>
     <use xlink:href="#DejaVuSans-61" transform="translate(2224.556641 0)"/>
     <use xlink:href="#DejaVuSans-20" transform="translate(2285.835938 0)"/>
     <use xlink:href="#DejaVuSans-6c" transform="translate(2317.623047 0)"/>
     <use xlink:href="#DejaVuSans-61" transform="translate(2345.40625 0)"/>
     <use xlink:href="#DejaVuSans-70" transform="translate(2406.685547 0)"/>
    </g>
   </g>
   <g id="legend_1">
    <g id="patch_7">
     <path d="M 630.755 58.26125 
L 703.6 58.26125 
Q 705.2 58.26125 705.2 56.66125 
L 705.2 33.97625 
Q 705.2 32.37625 703.6 32.37625 
L 630.755 32.37625 
Q 629.155 32.37625 629.155 33.97625 
L 629.155 56.66125 
Q 629.155 58.26125 630.755 58.26125 
z
" style="fill: #ffffff; opacity: 0.8; stroke: #cccccc; stroke-linejoin: miter"/>
    </g>
    <g id="line2d_27">
     <path d="M 632.355 38.855 
L 640.355 38.855 
L 648.355 38.855 
" style="fill: none; stroke: #2ca02c; stroke-width: 0.9; stroke-linecap: square"/>
    </g>
    <g id="text_16">
     <!-- tie rod left -->
     <g transform="translate(654.755 41.655) scale(0.08 -0.08)">
      <use xlink:href="#DejaVuSans-74"/>
      <use xlink:href="#DejaVuSans-69" transform="translate(39.208984 0)"/>
      <use xlink:href="#DejaVuSans-65" transform="translate(66.992188 0)"/>
      <use xlink:href="#DejaVuSans-20" transform="translate(128.515625 0)"/>
      <use xlink:href="#DejaVuSans-72" transform="translate(160.302734 0)"/>
      <use xlink:href="#DejaVuSans-6f" transform="translate(199.166016 0)"/>
      <use xlink:href="#DejaVuSans-64" transform="translate(260.347656 0)"/>
      <use xlink:href="#DejaVuSans-20" transform="translate(323.824219 0)"/>
      <use xlink:href="#DejaVuSans-6c" transform="translate(355.611328 0)"/>
      <use xlink:href="#DejaVuSans-65" transform="translate(383.394531 0)"/>
      <use xlink:href="#DejaVuSans-66" transform="translate(444.917969 0)"/>
      <use xlink:href="#DejaVuSans-74" transform="translate(478.373047 0)"/>
     </g>
    </g>
    <g id="line2d_28">
     <path d="M 632.355 50.5975 
L 640.355 50.5975 
L 648.355 50.5975 
" style="fill: none; stroke: #d62728; stroke-opacity: 0.8; stroke-width: 0.9; stroke-linecap: square"/>
    </g>
    <g id="text_17">
     <!-- tie rod right -->
     <g transform="translate(654.755 53.3975) scale(0.08 -0.08)">
      <defs>
       <path id="DejaVuSans-68" d="M 3513 2113 
L 3513 0 
L 2938 0 
L 2938 2094 
Q 2938 2591 2744 2837 
Q 2550 3084 2163 3084 
Q 1697 3084 1428 2787 
Q 1159 2491 1159 1978 
L 1159 0 
L 581 0 
L 581 4863 
L 1159 4863 
L 1159 2956 
Q 1366 3272 1645 3428 
Q 1925 3584 2291 3584 
Q 2894 3584 3203 3211 
Q 3513 2838 3513 2113 
z
" transform="scale(0.015625)"/>
      </defs>
      <use xlink:href="#DejaVuSans-74"/>
      <use xlink:href="#DejaVuSans-69" transform="translate(39.208984 0)"/>
      <use xlink:href="#DejaVuSans-65" transform="translate(66.992188 0)"/>
      <use xlink:href="#DejaVuSans-20" transform="translate(128.515625 0)"/>
      <use xlink:href="#DejaVuSans-72" transform="translate(160.302734 0)"/>
      <use xlink:href="#DejaVuSans-6f" transform="translate(199.166016 0)"/>
      <use xlink:href="#DejaVuSans-64" transform="translate(260.347656 0)"/>
      <use xlink:href="#DejaVuSans-20" transform="translate(323.824219 0)"/>
      <use xlink:href="#DejaVuSans-72" transform="translate(355.611328 0)"/>
      <use xlink:href="#DejaVuSans-69" transform="translate(396.724609 0)"/>
      <use xlink:href="#DejaVuSans-67" transform="translate(424.507812 0)"/>
      <use xlink:href="#DejaVuSans-68" transform="translate(487.984375 0)"/>
      <use xlink:href="#DejaVuSans-74" transform="translate(551.363281 0)"/>
     </g>
    </g>
   </g>
  </g>
 </g>
 <defs>
  <clipPath id="p4b9979a307">
   <rect x="56.09" y="28.37625" width="653.11" height="217.66375"/>
  </clipPath>
 </defs>
</svg>
