<?xml version="1.0" encoding="utf-8" standalone="no"?>
<!DOCTYPE svg PUBLIC "-//W3C//DTD SVG 1.1//EN"
  "http://www.w3.org/Graphics/SVG/1.1/DTD/svg11.dtd">
<svg xmlns:xlink="http://www.w3.org/1999/xlink" width="720pt" height="288pt" viewBox="0 0 720 288" xmlns="http://www.w3.org/2000/svg" version="1.1">
 <metadata>
  <rdf:RDF xmlns:dc="http://purl.org/dc/elements/1.1/" xmlns:cc="http://creativecommons.org/ns#" xmlns:rdf="http://www.w3.org/1999/02/22-rdf-syntax-ns#">
   <cc:Work>
    <dc:type rdf:resource="http://purl.org/dc/dcmitype/StillImage"/>
    <dc:date>2026-07-08T14:49:55.303164</dc:date>
    <dc:format>image/svg+xml</dc:format>
    <dc:creator>
     <cc:Agent>
      <dc:title>Matplotlib v3.10.8, https://matplotlib.org/</dc:title>
     </cc:Agent>
    </dc:creator>
   </cc:Work>
  </rdf:RDF>
 </metadata>
 <defs>
  <style type="text/css">*{stroke-linejoin: round; stroke-linecap: butt}</style>
 </defs>
 <g id="figure_1">
  <g id="patch_1">
   <path d="M 0 288 
L 720 288 
L 720 0 
L 0 0 
z
" style="fill: #ffffff"/>
  </g>
  <g id="axes_1">
   <g id="patch_2">
    <path d="M 56.09 246.04 
L 709.2 246.04 
L 709.2 28.37625 
L 56.09 28.37625 
z
" style="fill: #ffffff"/>
   </g>
   <g id="matplotlib.axis_1">
    <g id="xtick_1">
     <g id="line2d_1">
      <path d="M 85.776818 246.04 
L 85.776818 28.37625 
" clip-path="url(#p393f0ff282)" style="fill: none; stroke: #b0b0b0; stroke-opacity: 0.3; stroke-width: 0.8; stroke-linecap: square"/>
     </g>
     <g id="line2d_2">
      <defs>
       <path id="m455fa1fb7d" d="M 0 0 
L 0 3.5 
" style="stroke: #000000; stroke-width: 0.8"/>
      </defs>
      <g>
       <use xlink:href="#m455fa1fb7d" x="85.776818" y="246.04" style="stroke: #000000; stroke-width: 0.8"/>
      </g>
     </g>
     <g id="text_1">
      <!-- 0.0 -->
      <g transform="translate(77.825256 260.638438) scale(0.1 -0.1)">
       <defs>
        <path id="DejaVuSans-30" d="M 2034 4250 
Q 1547 4250 1301 3770 
Q 1056 3291 1056 2328 
Q 1056 1369 1301 889 
Q 1547 409 2034 409 
Q 2525 409 2770 889 
Q 3016 1369 3016 2328 
Q 3016 3291 2770 3770 
Q 2525 4250 2034 4250 
z
M 2034 4750 
Q 2819 4750 3233 4129 
Q 3647 3509 3647 2328 
Q 3647 1150 3233 529 
Q 2819 -91 2034 -91 
Q 1250 -91 836 529 
Q 422 1150 422 2328 
Q 422 3509 836 4129 
Q 1250 4750 2034 4750 
z
" transform="scale(0.015625)"/>
        <path id="DejaVuSans-2e" d="M 684 794 
L 1344 794 
L 1344 0 
L 684 0 
L 684 794 
z
" transform="scale(0.015625)"/>
       </defs>
       <use xlink:href="#DejaVuSans-30"/>
       <use xlink:href="#DejaVuSans-2e" transform="translate(63.623047 0)"/>
       <use xlink:href="#DejaVuSans-30" transform="translate(95.410156 0)"/>
      </g>
     </g>
    </g>
    <g id="xtick_2">
     <g id="line2d_3">
      <path d="M 213.374249 246.04 
L 213.374249 28.37625 
" clip-path="url(#p393f0ff282)" style="fill: none; stroke: #b0b0b0; stroke-opacity: 0.3; stroke-width: 0.8; stroke-linecap: square"/>
     </g>
     <g id="line2d_4">
      <g>
       <use xlink:href="#m455fa1fb7d" x="213.374249" y="246.04" style="stroke: #000000; stroke-width: 0.8"/>
      </g>
     </g>
     <g id="text_2">
      <!-- 0.5 -->
      <g transform="translate(205.422686 260.638438) scale(0.1 -0.1)">
       <defs>
        <path id="DejaVuSans-35" d="M 691 4666 
L 3169 4666 
L 3169 4134 
L 1269 4134 
L 1269 2991 
Q 1406 3038 1543 3061 
Q 1681 3084 1819 3084 
Q 2600 3084 3056 2656 
Q 3513 2228 3513 1497 
Q 3513 744 3044 326 
Q 2575 -91 1722 -91 
Q 1428 -91 1123 -41 
Q 819 9 494 109 
L 494 744 
Q 775 591 1075 516 
Q 1375 441 1709 441 
Q 2250 441 2565 725 
Q 2881 1009 2881 1497 
Q 2881 1984 2565 2268 
Q 2250 2553 1709 2553 
Q 1456 2553 1204 2497 
Q 953 2441 691 2322 
L 691 4666 
z
" transform="scale(0.015625)"/>
       </defs>
       <use xlink:href="#DejaVuSans-30"/>
       <use xlink:href="#DejaVuSans-2e" transform="translate(63.623047 0)"/>
       <use xlink:href="#DejaVuSans-35" transform="translate(95.410156 0)"/>
      </g>
     </g>
    </g>
    <g id="xtick_3">
     <g id="line2d_5">
      <path d="M 340.971679 246.04 
L 340.971679 28.37625 
" clip-path="url(#p393f0ff282)" style="fill: none; stroke: #b0b0b0; stroke-opacity: 0.3; stroke-width: 0.8; stroke-linecap: square"/>
     </g>
     <g id="line2d_6">
      <g>
       <use xlink:href="#m455fa1fb7d" x="340.971679" y="246.04" style="stroke: #000000; stroke-width: 0.8"/>
      </g>
     </g>
     <g id="text_3">
      <!-- 1.0 -->
      <g transform="translate(333.020117 260.638438) scale(0.1 -0.1)">
       <defs>
        <path id="DejaVuSans-31" d="M 794 531 
L 1825 531 
L 1825 4091 
L 703 3866 
L 703 4441 
L 1819 4666 
L 2450 4666 
L 2450 531 
L 3481 531 
L 3481 0 
L 794 0 
L 794 531 
z
" transform="scale(0.015625)"/>
       </defs>
       <use xlink:href="#DejaVuSans-31"/>
       <use xlink:href="#DejaVuSans-2e" transform="translate(63.623047 0)"/>
       <use xlink:href="#DejaVuSans-30" transform="translate(95.410156 0)"/>
      </g>
     </g>
    </g>
    <g id="xtick_4">
     <g id="line2d_7">
      <path d="M 468.56911 246.04 
L 468.56911 28.37625 
" clip-path="url(#p393f0ff282)" style="fill: none; stroke: #b0b0b0; stroke-opacity: 0.3; stroke-width: 0.8; stroke-linecap: square"/>
     </g>
     <g id="line2d_8">
      <g>
       <use xlink:href="#m455fa1fb7d" x="468.56911" y="246.04" style="stroke: #000000; stroke-width: 0.8"/>
      </g>
     </g>
     <g id="text_4">
      <!-- 1.5 -->
      <g transform="translate(460.617547 260.638438) scale(0.1 -0.1)">
       <use xlink:href="#DejaVuSans-31"/>
       <use xlink:href="#DejaVuSans-2e" transform="translate(63.623047 0)"/>
       <use xlink:href="#DejaVuSans-35" transform="translate(95.410156 0)"/>
      </g>
     </g>
    </g>
    <g id="xtick_5">
     <g id="line2d_9">
      <path d="M 596.16654 246.04 
L 596.16654 28.37625 
" clip-path="url(#p393f0ff282)" style="fill: none; stroke: #b0b0b0; stroke-opacity: 0.3; stroke-width: 0.8; stroke-linecap: square"/>
     </g>
     <g id="line2d_10">
      <g>
       <use xlink:href="#m455fa1fb7d" x="596.16654" y="246.04" style="stroke: #000000; stroke-width: 0.8"/>
      </g>
     </g>
     <g id="text_5">
      <!-- 2.0 -->
      <g transform="translate(588.214978 260.638438) scale(0.1 -0.1)">
       <defs>
        <path id="DejaVuSans-32" d="M 1228 531 
L 3431 531 
L 3431 0 
L 469 0 
L 469 531 
Q 828 903 1448 1529 
Q 2069 2156 2228 2338 
Q 2531 2678 2651 2914 
Q 2772 3150 2772 3378 
Q 2772 3750 2511 3984 
Q 2250 4219 1831 4219 
Q 1534 4219 1204 4116 
Q 875 4013 500 3803 
L 500 4441 
Q 881 4594 1212 4672 
Q 1544 4750 1819 4750 
Q 2544 4750 2975 4387 
Q 3406 4025 3406 3419 
Q 3406 3131 3298 2873 
Q 3191 2616 2906 2266 
Q 2828 2175 2409 1742 
Q 1991 1309 1228 531 
z
" transform="scale(0.015625)"/>
       </defs>
       <use xlink:href="#DejaVuSans-32"/>
       <use xlink:href="#DejaVuSans-2e" transform="translate(63.623047 0)"/>
       <use xlink:href="#DejaVuSans-30" transform="translate(95.410156 0)"/>
      </g>
     </g>
    </g>
    <g id="text_6">
     <!-- distance s [km] -->
     <g transform="translate(344.008281 274.316562) scale(0.1 -0.1)">
      <defs>
       <path id="DejaVuSans-64" d="M 2906 2969 
L 2906 4863 
L 3481 4863 
L 3481 0 
L 2906 0 
L 2906 525 
Q 2725 213 2448 61 
Q 2172 -91 1784 -91 
Q 1150 -91 751 415 
Q 353 922 353 1747 
Q 353 2572 751 3078 
Q 1150 3584 1784 3584 
Q 2172 3584 2448 3432 
Q 2725 3281 2906 2969 
z
M 947 1747 
Q 947 1113 1208 752 
Q 1469 391 1925 391 
Q 2381 391 2643 752 
Q 2906 1113 2906 1747 
Q 2906 2381 2643 2742 
Q 2381 3103 1925 3103 
Q 1469 3103 1208 2742 
Q 947 2381 947 1747 
z
" transform="scale(0.015625)"/>
       <path id="DejaVuSans-69" d="M 603 3500 
L 1178 3500 
L 1178 0 
L 603 0 
L 603 3500 
z
M 603 4863 
L 1178 4863 
L 1178 4134 
L 603 4134 
L 603 4863 
z
" transform="scale(0.015625)"/>
       <path id="DejaVuSans-73" d="M 2834 3397 
L 2834 2853 
Q 2591 2978 2328 3040 
Q 2066 3103 1784 3103 
Q 1356 3103 1142 2972 
Q 928 2841 928 2578 
Q 928 2378 1081 2264 
Q 1234 2150 1697 2047 
L 1894 2003 
Q 2506 1872 2764 1633 
Q 3022 1394 3022 966 
Q 3022 478 2636 193 
Q 2250 -91 1575 -91 
Q 1294 -91 989 -36 
Q 684 19 347 128 
L 347 722 
Q 666 556 975 473 
Q 1284 391 1588 391 
Q 1994 391 2212 530 
Q 2431 669 2431 922 
Q 2431 1156 2273 1281 
Q 2116 1406 1581 1522 
L 1381 1569 
Q 847 1681 609 1914 
Q 372 2147 372 2553 
Q 372 3047 722 3315 
Q 1072 3584 1716 3584 
Q 2034 3584 2315 3537 
Q 2597 3491 2834 3397 
z
" transform="scale(0.015625)"/>
       <path id="DejaVuSans-74" d="M 1172 4494 
L 1172 3500 
L 2356 3500 
L 2356 3053 
L 1172 3053 
L 1172 1153 
Q 1172 725 1289 603 
Q 1406 481 1766 481 
L 2356 481 
L 2356 0 
L 1766 0 
Q 1100 0 847 248 
Q 594 497 594 1153 
L 594 3053 
L 172 3053 
L 172 3500 
L 594 3500 
L 594 4494 
L 1172 4494 
z
" transform="scale(0.015625)"/>
       <path id="DejaVuSans-61" d="M 2194 1759 
Q 1497 1759 1228 1600 
Q 959 1441 959 1056 
Q 959 750 1161 570 
Q 1363 391 1709 391 
Q 2188 391 2477 730 
Q 2766 1069 2766 1631 
L 2766 1759 
L 2194 1759 
z
M 3341 1997 
L 3341 0 
L 2766 0 
L 2766 531 
Q 2569 213 2275 61 
Q 1981 -91 1556 -91 
Q 1019 -91 701 211 
Q 384 513 384 1019 
Q 384 1609 779 1909 
Q 1175 2209 1959 2209 
L 2766 2209 
L 2766 2266 
Q 2766 2663 2505 2880 
Q 2244 3097 1772 3097 
Q 1472 3097 1187 3025 
Q 903 2953 641 2809 
L 641 3341 
Q 956 3463 1253 3523 
Q 1550 3584 1831 3584 
Q 2591 3584 2966 3190 
Q 3341 2797 3341 1997 
z
" transform="scale(0.015625)"/>
       <path id="DejaVuSans-6e" d="M 3513 2113 
L 3513 0 
L 2938 0 
L 2938 2094 
Q 2938 2591 2744 2837 
Q 2550 3084 2163 3084 
Q 1697 3084 1428 2787 
Q 1159 2491 1159 1978 
L 1159 0 
L 581 0 
L 581 3500 
L 1159 3500 
L 1159 2956 
Q 1366 3272 1645 3428 
Q 1925 3584 2291 3584 
Q 2894 3584 3203 3211 
Q 3513 2838 3513 2113 
z
" transform="scale(0.015625)"/>
       <path id="DejaVuSans-63" d="M 3122 3366 
L 3122 2828 
Q 2878 2963 2633 3030 
Q 2388 3097 2138 3097 
Q 1578 3097 1268 2742 
Q 959 2388 959 1747 
Q 959 1106 1268 751 
Q 1578 397 2138 397 
Q 2388 397 2633 464 
Q 2878 531 3122 666 
L 3122 134 
Q 2881 22 2623 -34 
Q 2366 -91 2075 -91 
Q 1284 -91 818 406 
Q 353 903 353 1747 
Q 353 2603 823 3093 
Q 1294 3584 2113 3584 
Q 2378 3584 2631 3529 
Q 2884 3475 3122 3366 
z
" transform="scale(0.015625)"/>
       <path id="DejaVuSans-65" d="M 3597 1894 
L 3597 1613 
L 953 1613 
Q 991 1019 1311 708 
Q 1631 397 2203 397 
Q 2534 397 2845 478 
Q 3156 559 3463 722 
L 3463 178 
Q 3153 47 2828 -22 
Q 2503 -91 2169 -91 
Q 1331 -91 842 396 
Q 353 884 353 1716 
Q 353 2575 817 3079 
Q 1281 3584 2069 3584 
Q 2775 3584 3186 3129 
Q 3597 2675 3597 1894 
z
M 3022 2063 
Q 3016 2534 2758 2815 
Q 2500 3097 2075 3097 
Q 1594 3097 1305 2825 
Q 1016 2553 972 2059 
L 3022 2063 
z
" transform="scale(0.015625)"/>
       <path id="DejaVuSans-20" transform="scale(0.015625)"/>
       <path id="DejaVuSans-5b" d="M 550 4863 
L 1875 4863 
L 1875 4416 
L 1125 4416 
L 1125 -397 
L 1875 -397 
L 1875 -844 
L 550 -844 
L 550 4863 
z
" transform="scale(0.015625)"/>
       <path id="DejaVuSans-6b" d="M 581 4863 
L 1159 4863 
L 1159 1991 
L 2875 3500 
L 3609 3500 
L 1753 1863 
L 3688 0 
L 2938 0 
L 1159 1709 
L 1159 0 
L 581 0 
L 581 4863 
z
" transform="scale(0.015625)"/>
       <path id="DejaVuSans-6d" d="M 3328 2828 
Q 3544 3216 3844 3400 
Q 4144 3584 4550 3584 
Q 5097 3584 5394 3201 
Q 5691 2819 5691 2113 
L 5691 0 
L 5113 0 
L 5113 2094 
Q 5113 2597 4934 2840 
Q 4756 3084 4391 3084 
Q 3944 3084 3684 2787 
Q 3425 2491 3425 1978 
L 3425 0 
L 2847 0 
L 2847 2094 
Q 2847 2600 2669 2842 
Q 2491 3084 2119 3084 
Q 1678 3084 1418 2786 
Q 1159 2488 1159 1978 
L 1159 0 
L 581 0 
L 581 3500 
L 1159 3500 
L 1159 2956 
Q 1356 3278 1631 3431 
Q 1906 3584 2284 3584 
Q 2666 3584 2933 3390 
Q 3200 3197 3328 2828 
z
" transform="scale(0.015625)"/>
       <path id="DejaVuSans-5d" d="M 1947 4863 
L 1947 -844 
L 622 -844 
L 622 -397 
L 1369 -397 
L 1369 4416 
L 622 4416 
L 622 4863 
L 1947 4863 
z
" transform="scale(0.015625)"/>
      </defs>
      <use xlink:href="#DejaVuSans-64"/>
      <use xlink:href="#DejaVuSans-69" transform="translate(63.476562 0)"/>
      <use xlink:href="#DejaVuSans-73" transform="translate(91.259766 0)"/>
      <use xlink:href="#DejaVuSans-74" transform="translate(143.359375 0)"/>
      <use xlink:href="#DejaVuSans-61" transform="translate(182.568359 0)"/>
      <use xlink:href="#DejaVuSans-6e" transform="translate(243.847656 0)"/>
      <use xlink:href="#DejaVuSans-63" transform="translate(307.226562 0)"/>
      <use xlink:href="#DejaVuSans-65" transform="translate(362.207031 0)"/>
      <use xlink:href="#DejaVuSans-20" transform="translate(423.730469 0)"/>
      <use xlink:href="#DejaVuSans-73" transform="translate(455.517578 0)"/>
      <use xlink:href="#DejaVuSans-20" transform="translate(507.617188 0)"/>
      <use xlink:href="#DejaVuSans-5b" transform="translate(539.404297 0)"/>
      <use xlink:href="#DejaVuSans-6b" transform="translate(578.417969 0)"/>
      <use xlink:href="#DejaVuSans-6d" transform="translate(636.328125 0)"/>
      <use xlink:href="#DejaVuSans-5d" transform="translate(733.740234 0)"/>
     </g>
    </g>
   </g>
   <g id="matplotlib.axis_2">
    <g id="ytick_1">
     <g id="line2d_11">
      <path d="M 56.09 240.899869 
L 709.2 240.899869 
" clip-path="url(#p393f0ff282)" style="fill: none; stroke: #b0b0b0; stroke-opacity: 0.3; stroke-width: 0.8; stroke-linecap: square"/>
     </g>
     <g id="line2d_12">
      <defs>
       <path id="m42d87d5c31" d="M 0 0 
L -3.5 0 
" style="stroke: #000000; stroke-width: 0.8"/>
      </defs>
      <g>
       <use xlink:href="#m42d87d5c31" x="56.09" y="240.899869" style="stroke: #000000; stroke-width: 0.8"/>
      </g>
     </g>
     <g id="text_7">
      <!-- −1.5 -->
      <g transform="translate(24.807188 244.699088) scale(0.1 -0.1)">
       <defs>
        <path id="DejaVuSans-2212" d="M 678 2272 
L 4684 2272 
L 4684 1741 
L 678 1741 
L 678 2272 
z
" transform="scale(0.015625)"/>
       </defs>
       <use xlink:href="#DejaVuSans-2212"/>
       <use xlink:href="#DejaVuSans-31" transform="translate(83.789062 0)"/>
       <use xlink:href="#DejaVuSans-2e" transform="translate(147.412109 0)"/>
       <use xlink:href="#DejaVuSans-35" transform="translate(179.199219 0)"/>
      </g>
     </g>
    </g>
    <g id="ytick_2">
     <g id="line2d_13">
      <path d="M 56.09 206.03749 
L 709.2 206.03749 
" clip-path="url(#p393f0ff282)" style="fill: none; stroke: #b0b0b0; stroke-opacity: 0.3; stroke-width: 0.8; stroke-linecap: square"/>
     </g>
     <g id="line2d_14">
      <g>
       <use xlink:href="#m42d87d5c31" x="56.09" y="206.03749" style="stroke: #000000; stroke-width: 0.8"/>
      </g>
     </g>
     <g id="text_8">
      <!-- −1.0 -->
      <g transform="translate(24.807188 209.836708) scale(0.1 -0.1)">
       <use xlink:href="#DejaVuSans-2212"/>
       <use xlink:href="#DejaVuSans-31" transform="translate(83.789062 0)"/>
       <use xlink:href="#DejaVuSans-2e" transform="translate(147.412109 0)"/>
       <use xlink:href="#DejaVuSans-30" transform="translate(179.199219 0)"/>
      </g>
     </g>
    </g>
    <g id="ytick_3">
     <g id="line2d_15">
      <path d="M 56.09 171.17511 
L 709.2 171.17511 
" clip-path="url(#p393f0ff282)" style="fill: none; stroke: #b0b0b0; stroke-opacity: 0.3; stroke-width: 0.8; stroke-linecap: square"/>
     </g>
     <g id="line2d_16">
      <g>
       <use xlink:href="#m42d87d5c31" x="56.09" y="171.17511" style="stroke: #000000; stroke-width: 0.8"/>
      </g>
     </g>
     <g id="text_9">
      <!-- −0.5 -->
      <g transform="translate(24.807188 174.974329) scale(0.1 -0.1)">
       <use xlink:href="#DejaVuSans-2212"/>
       <use xlink:href="#DejaVuSans-30" transform="translate(83.789062 0)"/>
       <use xlink:href="#DejaVuSans-2e" transform="translate(147.412109 0)"/>
       <use xlink:href="#DejaVuSans-35" transform="translate(179.199219 0)"/>
      </g>
     </g>
    </g>
    <g id="ytick_4">
     <g id="line2d_17">
      <path d="M 56.09 136.312731 
L 709.2 136.312731 
" clip-path="url(#p393f0ff282)" style="fill: none; stroke: #b0b0b0; stroke-opacity: 0.3; stroke-width: 0.8; stroke-linecap: square"/>
     </g>
     <g id="line2d_18">
      <g>
       <use xlink:href="#m42d87d5c31" x="56.09" y="136.312731" style="stroke: #000000; stroke-width: 0.8"/>
      </g>
     </g>
     <g id="text_10">
      <!-- 0.0 -->
      <g transform="translate(33.186875 140.11195) scale(0.1 -0.1)">
       <use xlink:href="#DejaVuSans-30"/>
       <use xlink:href="#DejaVuSans-2e" transform="translate(63.623047 0)"/>
       <use xlink:href="#DejaVuSans-30" transform="translate(95.410156 0)"/>
      </g>
     </g>
    </g>
    <g id="ytick_5">
     <g id="line2d_19">
      <path d="M 56.09 101.450352 
L 709.2 101.450352 
" clip-path="url(#p393f0ff282)" style="fill: none; stroke: #b0b0b0; stroke-opacity: 0.3; stroke-width: 0.8; stroke-linecap: square"/>
     </g>
     <g id="line2d_20">
      <g>
       <use xlink:href="#m42d87d5c31" x="56.09" y="101.450352" style="stroke: #000000; stroke-width: 0.8"/>
      </g>
     </g>
     <g id="text_11">
      <!-- 0.5 -->
      <g transform="translate(33.186875 105.24957) scale(0.1 -0.1)">
       <use xlink:href="#DejaVuSans-30"/>
       <use xlink:href="#DejaVuSans-2e" transform="translate(63.623047 0)"/>
       <use xlink:href="#DejaVuSans-35" transform="translate(95.410156 0)"/>
      </g>
     </g>
    </g>
    <g id="ytick_6">
     <g id="line2d_21">
      <path d="M 56.09 66.587972 
L 709.2 66.587972 
" clip-path="url(#p393f0ff282)" style="fill: none; stroke: #b0b0b0; stroke-opacity: 0.3; stroke-width: 0.8; stroke-linecap: square"/>
     </g>
     <g id="line2d_22">
      <g>
       <use xlink:href="#m42d87d5c31" x="56.09" y="66.587972" style="stroke: #000000; stroke-width: 0.8"/>
      </g>
     </g>
     <g id="text_12">
      <!-- 1.0 -->
      <g transform="translate(33.186875 70.387191) scale(0.1 -0.1)">
       <use xlink:href="#DejaVuSans-31"/>
       <use xlink:href="#DejaVuSans-2e" transform="translate(63.623047 0)"/>
       <use xlink:href="#DejaVuSans-30" transform="translate(95.410156 0)"/>
      </g>
     </g>
    </g>
    <g id="ytick_7">
     <g id="line2d_23">
      <path d="M 56.09 31.725593 
L 709.2 31.725593 
" clip-path="url(#p393f0ff282)" style="fill: none; stroke: #b0b0b0; stroke-opacity: 0.3; stroke-width: 0.8; stroke-linecap: square"/>
     </g>
     <g id="line2d_24">
      <g>
       <use xlink:href="#m42d87d5c31" x="56.09" y="31.725593" style="stroke: #000000; stroke-width: 0.8"/>
      </g>
     </g>
     <g id="text_13">
      <!-- 1.5 -->
      <g transform="translate(33.186875 35.524812) scale(0.1 -0.1)">
       <use xlink:href="#DejaVuSans-31"/>
       <use xlink:href="#DejaVuSans-2e" transform="translate(63.623047 0)"/>
       <use xlink:href="#DejaVuSans-35" transform="translate(95.410156 0)"/>
      </g>
     </g>
    </g>
    <g id="text_14">
     <!-- tie-rod force [kN] -->
     <g transform="translate(18.7275 179.918281) rotate(-90) scale(0.1 -0.1)">
      <defs>
       <path id="DejaVuSans-2d" d="M 313 2009 
L 1997 2009 
L 1997 1497 
L 313 1497 
L 313 2009 
z
" transform="scale(0.015625)"/>
       <path id="DejaVuSans-72" d="M 2631 2963 
Q 2534 3019 2420 3045 
Q 2306 3072 2169 3072 
Q 1681 3072 1420 2755 
Q 1159 2438 1159 1844 
L 1159 0 
L 581 0 
L 581 3500 
L 1159 3500 
L 1159 2956 
Q 1341 3275 1631 3429 
Q 1922 3584 2338 3584 
Q 2397 3584 2469 3576 
Q 2541 3569 2628 3553 
L 2631 2963 
z
" transform="scale(0.015625)"/>
       <path id="DejaVuSans-6f" d="M 1959 3097 
Q 1497 3097 1228 2736 
Q 959 2375 959 1747 
Q 959 1119 1226 758 
Q 1494 397 1959 397 
Q 2419 397 2687 759 
Q 2956 1122 2956 1747 
Q 2956 2369 2687 2733 
Q 2419 3097 1959 3097 
z
M 1959 3584 
Q 2709 3584 3137 3096 
Q 3566 2609 3566 1747 
Q 3566 888 3137 398 
Q 2709 -91 1959 -91 
Q 1206 -91 779 398 
Q 353 888 353 1747 
Q 353 2609 779 3096 
Q 1206 3584 1959 3584 
z
" transform="scale(0.015625)"/>
       <path id="DejaVuSans-66" d="M 2375 4863 
L 2375 4384 
L 1825 4384 
Q 1516 4384 1395 4259 
Q 1275 4134 1275 3809 
L 1275 3500 
L 2222 3500 
L 2222 3053 
L 1275 3053 
L 1275 0 
L 697 0 
L 697 3053 
L 147 3053 
L 147 3500 
L 697 3500 
L 697 3744 
Q 697 4328 969 4595 
Q 1241 4863 1831 4863 
L 2375 4863 
z
" transform="scale(0.015625)"/>
       <path id="DejaVuSans-4e" d="M 628 4666 
L 1478 4666 
L 3547 763 
L 3547 4666 
L 4159 4666 
L 4159 0 
L 3309 0 
L 1241 3903 
L 1241 0 
L 628 0 
L 628 4666 
z
" transform="scale(0.015625)"/>
      </defs>
      <use xlink:href="#DejaVuSans-74"/>
      <use xlink:href="#DejaVuSans-69" transform="translate(39.208984 0)"/>
      <use xlink:href="#DejaVuSans-65" transform="translate(66.992188 0)"/>
      <use xlink:href="#DejaVuSans-2d" transform="translate(128.515625 0)"/>
      <use xlink:href="#DejaVuSans-72" transform="translate(164.599609 0)"/>
      <use xlink:href="#DejaVuSans-6f" transform="translate(203.462891 0)"/>
      <use xlink:href="#DejaVuSans-64" transform="translate(264.644531 0)"/>
      <use xlink:href="#DejaVuSans-20" transform="translate(328.121094 0)"/>
      <use xlink:href="#DejaVuSans-66" transform="translate(359.908203 0)"/>
      <use xlink:href="#DejaVuSans-6f" transform="translate(395.113281 0)"/>
      <use xlink:href="#DejaVuSans-72" transform="translate(456.294922 0)"/>
      <use xlink:href="#DejaVuSans-63" transform="translate(495.158203 0)"/>
      <use xlink:href="#DejaVuSans-65" transform="translate(550.138672 0)"/>
      <use xlink:href="#DejaVuSans-20" transform="translate(611.662109 0)"/>
      <use xlink:href="#DejaVuSans-5b" transform="translate(643.449219 0)"/>
      <use xlink:href="#DejaVuSans-6b" transform="translate(682.462891 0)"/>
      <use xlink:href="#DejaVuSans-4e" transform="translate(740.373047 0)"/>
      <use xlink:href="#DejaVuSans-5d" transform="translate(815.177734 0)"/>
     </g>
    </g>
   </g>
   <g id="line2d_25">
    <path d="M 85.776818 136.312731 
L 86.354797 135.945194 
L 86.933467 135.91489 
L 88.092873 136.682436 
L 88.673605 136.753161 
L 90.419898 135.862678 
L 91.003355 136.157134 
L 91.587489 136.668701 
L 92.172296 136.995318 
L 92.757777 136.8614 
L 93.930745 135.969871 
L 94.518229 135.997171 
L 95.695185 137.012099 
L 96.284653 137.178439 
L 96.874777 136.821988 
L 97.465556 136.260428 
L 98.056986 135.966662 
L 98.649066 136.195956 
L 99.835165 137.172317 
L 100.42918 137.092981 
L 101.619126 136.034081 
L 102.215052 135.931907 
L 102.811612 136.340542 
L 103.408801 136.90749 
L 104.006618 137.115971 
L 104.605061 136.759867 
L 105.204126 136.111277 
L 105.803811 135.685061 
L 106.404114 135.828965 
L 107.606564 136.864559 
L 108.208706 136.791566 
L 109.414812 135.476107 
L 110.018771 135.241763 
L 110.62333 135.618574 
L 111.228487 136.222679 
L 111.83424 136.448685 
L 112.440586 136.017462 
L 113.047523 135.174317 
L 113.655048 134.543487 
L 114.263159 134.549489 
L 115.481128 135.563828 
L 116.090981 135.438227 
L 117.312411 133.701083 
L 117.923983 133.238763 
L 118.536121 133.482399 
L 119.148825 134.065545 
L 119.762091 134.320646 
L 120.375917 133.818108 
L 121.605127 131.89719 
L 122.219905 131.669492 
L 123.447307 132.701111 
L 124.059089 132.714198 
L 124.669074 131.919058 
L 125.276905 130.780249 
L 125.882246 130.042443 
L 126.484784 130.156295 
L 127.680294 131.748292 
L 128.272736 131.840574 
L 128.86131 131.144859 
L 129.44579 130.249555 
L 130.025963 129.926302 
L 130.601631 130.597679 
L 131.738728 133.353656 
L 132.299821 133.969814 
L 132.855738 133.798938 
L 133.406332 133.470438 
L 133.951466 133.800287 
L 134.491009 135.195629 
L 135.552838 139.470696 
L 136.074898 140.799683 
L 136.590912 141.392265 
L 137.100777 141.76073 
L 137.604396 142.565379 
L 138.101672 144.263827 
L 139.554492 150.493209 
L 140.025465 151.483576 
L 140.946922 152.742319 
L 141.397222 153.792879 
L 143.127147 159.758539 
L 143.541526 160.352839 
L 143.948579 160.512658 
L 144.348283 160.518532 
L 144.740618 160.723554 
L 145.12555 161.282439 
L 146.235857 163.322476 
L 146.591355 163.59577 
L 146.939808 163.570795 
L 147.281427 163.2172 
L 147.616438 162.476888 
L 148.267608 160.600358 
L 148.584256 160.628049 
L 149.501239 163.122197 
L 149.796672 162.603309 
L 150.087471 161.444757 
L 150.374077 160.907986 
L 150.656978 162.082623 
L 151.21377 169.127191 
L 152.037423 185.886705 
L 153.727837 223.202042 
L 154.312112 229.709929 
L 154.882015 233.226527 
L 155.414419 234.995236 
L 155.665794 235.410786 
L 155.908214 235.521807 
L 156.142632 235.330207 
L 156.59092 234.349399 
L 157.016984 232.569033 
L 157.626325 228.434404 
L 158.778128 219.752436 
L 159.339584 217.581812 
L 159.905762 216.425952 
L 162.397962 212.58466 
L 163.089688 211.921579 
L 163.564977 211.682825 
L 164.29923 211.625999 
L 164.802421 211.755818 
L 165.314674 212.142165 
L 165.833334 213.098676 
L 166.094362 211.302529 
L 166.356428 197.22217 
L 167.150931 90.581846 
L 167.419286 89.115296 
L 167.690063 95.559847 
L 168.52254 124.324116 
L 168.807289 124.628625 
L 169.095544 127.050392 
L 169.6819 133.337676 
L 169.979539 134.845587 
L 170.279834 135.045008 
L 170.58257 135.045008 
L 170.88757 134.795841 
L 171.50382 133.856456 
L 171.814889 133.722941 
L 172.442756 133.750183 
L 172.759579 133.50752 
L 173.078336 133.54636 
L 173.399014 134.367884 
L 173.721614 134.235596 
L 174.701292 125.519226 
L 175.031962 128.717377 
L 175.699856 154.308121 
L 176.037153 158.829937 
L 176.376679 156.809445 
L 177.062436 140.931891 
L 177.408621 143.01885 
L 178.107443 161.571305 
L 178.459991 165.781648 
L 178.814559 164.893805 
L 179.171116 159.033294 
L 179.890102 143.403813 
L 180.252472 143.935885 
L 180.982123 155.588312 
L 181.348365 157.130222 
L 181.71485 153.369607 
L 182.44679 137.42715 
L 182.811463 136.019941 
L 183.536472 147.466946 
L 183.896184 149.774957 
L 184.253673 146.8146 
L 184.961202 134.80944 
L 185.310965 134.828448 
L 186.002012 145.073661 
L 186.343133 146.943965 
L 186.68121 144.579056 
L 187.347843 136.646997 
L 187.676244 137.544823 
L 188.323191 146.082948 
L 188.641882 147.827935 
L 188.957557 146.690511 
L 189.270388 144.366035 
L 189.580556 143.693849 
L 189.888242 146.842874 
L 190.798601 162.256469 
L 191.098682 163.995815 
L 191.397492 164.914027 
L 191.695246 166.844525 
L 191.9921 170.973949 
L 193.756224 206.522205 
L 194.622152 217.6195 
L 195.18979 223.142445 
L 195.747489 226.085217 
L 196.022122 226.701587 
L 196.293829 226.96439 
L 196.562675 226.952632 
L 196.828851 226.704677 
L 197.354517 225.627805 
L 198.390002 222.370801 
L 199.165033 220.196478 
L 199.949711 218.718487 
L 200.752263 217.766482 
L 201.577024 217.144043 
L 202.137927 216.824947 
L 202.421191 216.400634 
L 202.706121 214.975278 
L 202.992573 210.806127 
L 203.28034 201.34029 
L 204.148836 151.392443 
L 204.439375 147.165975 
L 205.021276 157.096728 
L 205.312656 156.129186 
L 205.60449 146.112238 
L 205.896982 129.572438 
L 206.190302 120.826231 
L 206.484485 122.680001 
L 207.074929 144.860974 
L 207.370809 148.796016 
L 207.666968 145.348335 
L 207.96343 138.477034 
L 208.260259 136.604001 
L 208.557502 144.43404 
L 209.15321 164.331718 
L 209.451598 168.577318 
L 209.75031 169.561921 
L 210.049353 169.067306 
L 210.348739 169.629513 
L 210.648472 173.126522 
L 212.451963 209.17589 
L 213.052532 214.733233 
L 213.650683 218.268842 
L 214.245524 220.422412 
L 214.836233 221.518157 
L 215.129853 221.783056 
L 215.422286 221.882106 
L 215.713578 221.836461 
L 216.293088 221.40159 
L 217.156962 220.234806 
L 218.307688 218.607296 
L 219.177909 217.673562 
L 219.76321 217.261401 
L 220.352815 217.065835 
L 220.649133 217.04821 
L 220.946315 217.352334 
L 221.244083 217.821406 
L 221.542242 217.849284 
L 221.840714 216.45612 
L 222.139492 212.1408 
L 222.438572 202.964816 
L 223.037966 168.721653 
L 223.639621 137.129323 
L 223.941217 135.677123 
L 224.243273 140.535453 
L 224.545797 141.255167 
L 224.848789 131.040082 
L 225.152237 116.827064 
L 225.456069 109.578587 
L 225.760215 109.266579 
L 226.675148 116.952752 
L 227.288231 119.289073 
L 228.831451 127.475124 
L 230.066042 132.172602 
L 230.978833 134.802098 
L 231.279789 135.045008 
L 246.730602 135.06234 
L 247.032692 133.905659 
L 248.263325 127.666988 
L 248.57644 126.753037 
L 248.891725 126.316608 
L 249.209195 126.220043 
L 249.528864 126.291089 
L 249.850713 126.232669 
L 250.17471 125.727254 
L 250.829015 123.897179 
L 251.159289 123.40521 
L 251.491623 123.486155 
L 251.825971 123.872766 
L 252.16226 124.064225 
L 252.500437 123.804173 
L 253.182313 122.597057 
L 253.52595 122.27445 
L 253.871341 122.314765 
L 254.567531 123.069961 
L 255.271596 124.575536 
L 255.626779 125.484666 
L 255.984102 125.999874 
L 256.343602 125.951958 
L 256.705296 125.620216 
L 257.069169 125.448795 
L 257.435143 125.81369 
L 257.803115 126.89844 
L 258.544791 130.087448 
L 258.918445 130.915743 
L 259.671295 131.038626 
L 260.050453 131.680037 
L 261.198754 136.741671 
L 261.585103 136.98987 
L 262.363117 135.791906 
L 262.754761 136.110444 
L 263.543271 138.44628 
L 263.940115 138.803152 
L 264.338671 138.218407 
L 264.738928 137.217459 
L 265.140873 136.629424 
L 265.544494 136.934952 
L 266.356725 138.422689 
L 266.765313 138.305859 
L 267.587378 136.770908 
L 268.000833 136.585838 
L 268.41589 137.114039 
L 268.832539 137.897334 
L 269.250769 138.342453 
L 269.670571 138.172533 
L 270.091935 137.616906 
L 270.514851 137.265032 
L 270.93931 137.532365 
L 271.792821 139.088858 
L 272.221853 139.466934 
L 272.652393 139.338542 
L 273.08443 139.063155 
L 273.517955 139.107899 
L 273.952959 139.651666 
L 274.827369 141.227209 
L 275.266755 141.530192 
L 276.149839 141.347927 
L 276.593513 141.561165 
L 277.932874 143.540164 
L 278.381953 143.747381 
L 278.832201 143.777383 
L 279.283542 143.922879 
L 279.735914 144.266776 
L 280.64357 145.402111 
L 281.55493 147.041848 
L 282.011974 148.201828 
L 282.469929 150.236496 
L 285.702292 175.310833 
L 286.633014 185.340355 
L 288.030912 201.727241 
L 288.96221 208.681432 
L 289.892591 213.264939 
L 290.822086 216.340225 
L 291.750397 218.443166 
L 292.677855 219.727834 
L 293.604768 220.499437 
L 294.53067 220.99346 
L 298.213442 222.44819 
L 299.587923 222.804533 
L 300.505983 222.890638 
L 300.966604 222.729903 
L 301.428624 222.119807 
L 301.891916 220.47753 
L 302.356194 216.936345 
L 302.821215 210.720704 
L 304.219351 185.968794 
L 304.686815 182.014011 
L 305.155288 179.829876 
L 305.624897 176.940732 
L 306.095809 170.303584 
L 306.568124 156.519644 
L 307.041822 135.057362 
L 307.516886 120.219352 
L 307.993326 119.493089 
L 308.471162 129.336575 
L 308.950396 142.318925 
L 309.431045 145.153186 
L 309.91313 135.483767 
L 310.396655 122.019789 
L 310.881575 116.326037 
L 311.367806 117.090129 
L 311.85528 123.323482 
L 312.343966 134.383219 
L 312.833848 141.175224 
L 313.324899 136.633887 
L 313.8171 125.864926 
L 314.310424 119.755534 
L 314.804839 119.875647 
L 315.300334 126.187729 
L 315.796928 137.727828 
L 316.294626 144.030325 
L 316.79342 140.423779 
L 317.293138 129.419828 
L 317.793298 122.395025 
L 318.293406 122.962315 
L 318.793027 131.859186 
L 319.291774 144.299661 
L 319.789274 148.711211 
L 320.285171 143.497999 
L 320.779137 131.57283 
L 321.270851 124.582979 
L 321.76001 127.193969 
L 322.729613 149.455226 
L 323.209567 152.138657 
L 323.685972 146.219439 
L 324.15861 135.322919 
L 324.627269 129.165997 
L 325.09174 132.712723 
L 326.007381 153.325732 
L 326.458191 156.192628 
L 326.904098 152.17119 
L 327.780627 137.927529 
L 328.210975 139.679963 
L 329.055209 156.490869 
L 329.468867 161.041433 
L 329.876754 160.268647 
L 330.674966 149.480464 
L 331.06521 147.274202 
L 331.449506 150.425067 
L 332.200208 161.979525 
L 332.56662 164.141166 
L 332.927097 162.572166 
L 333.63047 153.985031 
L 333.973515 152.264047 
L 334.310904 154.252156 
L 334.969197 162.141785 
L 335.290366 163.685117 
L 335.606413 162.832133 
L 336.224032 158.847085 
L 336.526103 159.236501 
L 336.824039 162.330916 
L 337.696194 175.588895 
L 338.543644 184.009109 
L 339.100163 194.768699 
L 340.205189 221.571781 
L 340.753207 228.502518 
L 341.293712 232.372012 
L 341.820489 234.559519 
L 342.327671 235.71409 
L 342.812827 236.144901 
L 343.046976 236.146193 
L 343.499393 235.804318 
L 343.932908 235.097669 
L 344.552641 233.592104 
L 345.516473 230.59963 
L 346.236865 227.697683 
L 347.092235 223.164581 
L 348.086816 217.932657 
L 348.754225 215.598028 
L 349.446496 213.878018 
L 350.376546 212.147616 
L 351.187597 211.115597 
L 351.616238 210.873065 
L 351.83544 210.900492 
L 352.057232 211.072633 
L 352.281014 211.505593 
L 352.731699 213.241063 
L 352.957321 213.143534 
L 353.182636 207.32482 
L 353.407602 186.765384 
L 353.856994 110.715779 
L 354.081885 100.266435 
L 354.307407 106.331308 
L 354.762328 147.915798 
L 354.992338 146.238848 
L 355.458795 113.211149 
L 355.695899 112.517142 
L 355.935808 115.57155 
L 356.17864 123.017002 
L 356.673265 149.181607 
L 356.92502 150.521552 
L 357.437501 141.320028 
L 357.698107 145.926305 
L 358.226759 169.006692 
L 358.762357 182.205892 
L 359.569846 192.95882 
L 360.64493 207.006728 
L 361.181579 210.741796 
L 361.449917 211.68614 
L 361.718402 212.215124 
L 361.987136 212.453712 
L 362.525564 212.483626 
L 363.065576 212.442652 
L 363.607935 212.640002 
L 364.984266 213.543196 
L 365.265307 213.29503 
L 365.548835 212.372088 
L 365.83503 210.123194 
L 366.124089 205.528353 
L 366.416144 197.427511 
L 367.613539 148.039732 
L 367.919506 145.324832 
L 368.227936 144.895749 
L 368.538837 141.35629 
L 369.167927 121.819144 
L 369.485742 117.044778 
L 369.805358 116.973254 
L 370.771932 124.177822 
L 371.096111 123.429772 
L 371.747126 119.82621 
L 372.073898 119.292156 
L 372.40155 119.545551 
L 373.059952 120.886215 
L 373.391028 120.963462 
L 374.057865 119.525191 
L 374.393798 119.321808 
L 374.731406 119.807434 
L 375.41156 122.039012 
L 378.159182 133.42816 
L 378.845841 135.045008 
L 385.356088 135.050465 
L 386.783471 127.897306 
L 387.144873 127.122303 
L 387.508242 127.763606 
L 388.241115 132.026402 
L 388.610652 132.060339 
L 388.98225 130.266955 
L 389.355892 129.026482 
L 389.731541 130.296652 
L 390.870171 142.583754 
L 391.253491 141.445867 
L 392.025612 135.288212 
L 392.414367 136.276548 
L 393.197167 143.08964 
L 393.591182 143.43086 
L 393.986921 140.616259 
L 394.384374 136.408094 
L 394.783533 134.025136 
L 395.184389 134.894356 
L 395.58693 137.770421 
L 395.991147 139.740381 
L 396.397027 138.952204 
L 397.213746 132.713456 
L 397.624565 131.957223 
L 398.037012 133.672375 
L 398.451076 136.386617 
L 398.866746 137.750398 
L 399.284012 136.659755 
L 399.702862 134.159321 
L 400.123289 132.517637 
L 400.545283 133.03105 
L 401.393927 137.802823 
L 401.820558 138.483477 
L 402.248713 137.181779 
L 402.678385 135.236309 
L 403.109564 134.540637 
L 403.542241 135.8064 
L 403.976406 138.139333 
L 404.412048 139.727196 
L 404.849158 139.556564 
L 405.727743 136.31504 
L 406.169202 136.069796 
L 407.056382 139.071849 
L 407.50177 139.587722 
L 407.947743 138.470986 
L 408.83956 134.743597 
L 409.284543 134.634576 
L 409.72837 135.580333 
L 410.170671 136.21102 
L 410.611093 135.380634 
L 411.917813 128.264375 
L 412.347569 127.432569 
L 413.19691 127.091806 
L 413.616134 125.959252 
L 414.443063 122.037033 
L 414.850572 120.723483 
L 415.253979 120.254264 
L 416.048129 120.651933 
L 416.438717 120.388795 
L 417.583564 117.51381 
L 417.955977 117.243955 
L 418.323694 117.489526 
L 418.686648 117.866445 
L 419.044772 117.961338 
L 419.398012 117.669858 
L 419.746315 116.992144 
L 420.428273 115.19657 
L 421.416794 113.292932 
L 422.369174 107.971786 
L 422.679794 107.389674 
L 422.987405 107.553078 
L 423.292241 108.138333 
L 423.894466 110.043232 
L 424.488212 113.381264 
L 425.65655 121.53354 
L 426.517849 125.63203 
L 427.642606 129.592461 
L 428.461564 131.918968 
L 429.251225 133.417336 
L 430.008082 134.360141 
L 430.733908 134.915526 
L 431.202465 135.045008 
L 442.269535 135.045021 
L 442.52607 135.201956 
L 442.786067 136.051043 
L 443.049561 137.612394 
L 443.316593 140.869853 
L 443.587255 140.97917 
L 443.86159 134.255935 
L 444.139561 131.845221 
L 444.994302 167.222334 
L 445.285653 171.508853 
L 445.579909 171.393006 
L 445.876937 166.583529 
L 446.478926 152.477318 
L 446.783729 152.487169 
L 447.400579 162.15476 
L 447.712502 163.628338 
L 448.026704 160.306741 
L 448.34317 151.629934 
L 448.982897 130.544473 
L 449.306154 130.333665 
L 449.959432 140.729494 
L 450.289436 139.393218 
L 450.956127 125.292934 
L 451.292787 122.740989 
L 451.631627 124.279026 
L 452.315766 132.083254 
L 452.661024 132.305172 
L 453.357799 125.963273 
L 453.709262 124.792517 
L 454.062743 126.188257 
L 454.775689 133.344906 
L 455.135129 134.608841 
L 455.496527 132.799084 
L 455.859868 130.211098 
L 456.225135 129.359528 
L 456.592315 131.256425 
L 457.332382 138.759255 
L 457.705255 139.392355 
L 458.456626 135.075031 
L 458.835101 134.870421 
L 459.215419 137.386008 
L 459.597572 140.759373 
L 459.981548 142.633034 
L 460.367337 142.107444 
L 461.144299 137.996701 
L 461.535447 138.143344 
L 462.323012 142.453008 
L 462.719404 143.177383 
L 463.117519 141.950032 
L 463.517344 139.6813 
L 463.918867 138.112121 
L 464.322077 138.407507 
L 465.133506 141.423356 
L 465.541702 141.36943 
L 465.951538 139.728979 
L 466.363003 137.562705 
L 466.776087 136.419041 
L 467.190778 136.916276 
L 467.607067 138.236837 
L 468.024943 138.983191 
L 468.444397 138.268391 
L 469.287997 134.495875 
L 469.712124 133.884168 
L 470.13779 134.546929 
L 470.564986 135.551715 
L 470.993699 135.628131 
L 471.423808 134.356565 
L 471.854925 132.522766 
L 472.286585 131.197246 
L 472.718358 130.960636 
L 473.580698 132.109287 
L 474.010569 131.669703 
L 475.291386 127.701189 
L 475.714558 127.596634 
L 476.135492 128.041008 
L 476.554006 128.318217 
L 476.969957 127.858697 
L 478.202292 124.692042 
L 479.0117 123.993835 
L 479.413078 122.860677 
L 480.999427 115.980828 
L 481.783049 114.498554 
L 482.172918 114.027285 
L 482.56162 113.783629 
L 482.94926 113.740186 
L 483.335957 113.890725 
L 483.721831 114.398108 
L 484.106979 115.415139 
L 484.875399 118.758629 
L 486.783133 128.22051 
L 487.91007 132.917151 
L 488.281609 134.224861 
L 488.651078 135.045008 
L 498.073348 135.058178 
L 498.447149 135.340049 
L 498.821954 135.78937 
L 499.19787 136.54043 
L 499.575079 134.987735 
L 499.953787 130.243673 
L 500.334168 128.543247 
L 500.716366 139.159026 
L 501.100522 156.031996 
L 501.486708 166.796737 
L 501.874903 172.159092 
L 502.265063 172.695558 
L 502.657158 168.546749 
L 503.051153 162.425051 
L 503.446998 159.555281 
L 503.844569 162.771295 
L 504.642802 175.991925 
L 505.042359 179.441595 
L 505.441607 179.027186 
L 505.840186 173.900711 
L 507.029827 143.365527 
L 507.424115 144.68479 
L 508.209402 157.933681 
L 508.600463 157.843635 
L 508.990539 150.744882 
L 509.379727 138.971852 
L 509.768092 130.67013 
L 510.155607 132.032543 
L 510.927383 148.190231 
L 511.311208 149.414363 
L 511.693409 144.511903 
L 512.073862 137.794127 
L 512.452556 136.752194 
L 512.829631 144.513203 
L 513.579709 164.039753 
L 513.953015 168.644847 
L 515.067031 175.647506 
L 515.802918 184.124811 
L 517.248084 203.852744 
L 517.957264 211.25814 
L 518.659034 216.399549 
L 519.35451 220.523894 
L 520.043924 222.879231 
L 520.386261 223.449165 
L 520.726909 223.771477 
L 521.402653 224.00687 
L 524.041736 223.982347 
L 524.696267 223.68898 
L 525.353365 223.160925 
L 526.346039 222.009605 
L 527.348523 220.640617 
L 527.68521 220.011338 
L 528.023468 218.997551 
L 528.363419 217.042238 
L 528.705189 213.172997 
L 529.048902 206.194588 
L 529.742546 182.320648 
L 530.09256 169.724855 
L 530.444703 161.326489 
L 530.798817 158.069858 
L 531.154654 157.444998 
L 531.511787 155.284575 
L 531.869805 148.251593 
L 532.587254 125.111873 
L 532.94614 122.860469 
L 533.304796 127.842281 
L 533.663007 136.658366 
L 534.020586 142.131902 
L 534.377399 141.077407 
L 534.733392 135.781216 
L 535.088578 132.391999 
L 535.44298 135.548804 
L 536.149484 151.854877 
L 536.501573 155.744566 
L 536.852868 156.117596 
L 537.203381 154.817996 
L 537.553148 154.584294 
L 537.902222 157.334119 
L 539.292232 177.73977 
L 541.017254 196.345278 
L 542.380358 215.192216 
L 543.051035 220.982067 
L 543.713754 224.778622 
L 544.368871 227.286594 
L 545.017328 228.756976 
L 545.339443 229.138481 
L 545.660322 229.300924 
L 545.9799 229.263 
L 546.29802 229.04064 
L 546.929555 228.209071 
L 547.866104 226.433318 
L 550.637442 220.382978 
L 551.25253 219.658506 
L 551.868591 219.245418 
L 554.347523 218.086978 
L 556.859578 216.133922 
L 557.808253 215.576029 
L 558.76106 214.656901 
L 559.399576 213.80834 
L 561.009599 211.161163 
L 561.333926 210.859187 
L 561.658906 210.790993 
L 562.638184 211.202518 
L 564.623423 211.965829 
L 564.95865 211.803483 
L 565.295178 211.385528 
L 565.633038 210.622428 
L 566.312837 207.866751 
L 566.997968 204.62323 
L 567.34239 203.452216 
L 567.68797 202.675105 
L 568.382513 201.901272 
L 568.731361 201.643931 
L 569.080984 201.533807 
L 569.431047 201.666712 
L 570.131284 202.263884 
L 570.480931 202.299447 
L 570.829954 201.889637 
L 571.871726 199.132383 
L 572.216643 199.017692 
L 572.560059 199.591199 
L 573.241821 201.175164 
L 573.580063 201.061723 
L 573.916565 199.710178 
L 574.251352 196.866095 
L 574.584459 192.385617 
L 575.245682 179.063709 
L 575.573848 171.989887 
L 575.900519 167.448426 
L 576.225826 167.211116 
L 577.19495 177.092103 
L 577.516227 177.17942 
L 577.836903 174.724571 
L 578.477152 166.948649 
L 578.797058 167.649895 
L 580.398615 193.898244 
L 581.359821 203.810711 
L 581.997103 210.420464 
L 582.62983 214.278565 
L 582.944987 215.382019 
L 583.259959 215.967017 
L 583.575286 216.023236 
L 583.89141 215.452635 
L 584.208692 214.122688 
L 584.527482 211.725643 
L 584.848008 207.847712 
L 585.494476 195.163145 
L 587.813298 138.954504 
L 588.151765 133.821242 
L 588.492127 131.623014 
L 589.178621 130.279923 
L 590.222865 126.183628 
L 590.574796 126.234239 
L 590.928636 127.23369 
L 591.641995 129.830801 
L 592.001493 130.296457 
L 592.726075 130.188876 
L 593.091141 130.909538 
L 594.197342 135.867192 
L 594.569722 136.440085 
L 594.943912 136.354234 
L 595.319905 136.403769 
L 595.697692 137.193026 
L 596.458613 139.817107 
L 596.841729 140.362461 
L 597.2266 140.100624 
L 597.613217 139.467072 
L 598.00157 139.116327 
L 598.391647 139.379085 
L 598.78344 139.98903 
L 599.176937 140.371986 
L 599.572127 140.127284 
L 600.767762 137.792331 
L 601.169631 137.801401 
L 601.573146 138.061002 
L 601.978299 138.04737 
L 602.385081 137.482095 
L 603.203494 135.742015 
L 603.615109 135.440322 
L 604.443111 135.839877 
L 604.85948 135.744431 
L 606.117956 134.186835 
L 606.540541 134.251313 
L 607.390296 134.882315 
L 607.817448 134.817624 
L 608.676258 134.098373 
L 609.107898 134.037658 
L 609.541015 134.326762 
L 609.975603 134.753602 
L 610.411651 135.011073 
L 610.849152 134.942835 
L 611.728476 134.499432 
L 612.170284 134.615603 
L 613.058148 135.376389 
L 613.504188 135.527185 
L 614.850648 135.092872 
L 615.302221 135.291312 
L 616.209452 135.918607 
L 616.665095 135.930487 
L 617.580396 135.527213 
L 618.04004 135.535442 
L 619.426859 136.213918 
L 619.891737 136.108253 
L 620.825358 135.746527 
L 621.294087 135.839051 
L 622.235349 136.328377 
L 622.707867 136.367108 
L 624.132892 135.998379 
L 626.050109 136.633756 
L 627.015966 136.380068 
L 627.500684 136.46451 
L 628.961924 137.190878 
L 630.433663 137.092274 
L 630.926547 137.311185 
L 631.915735 137.951428 
L 632.412028 138.087453 
L 633.407981 138.055182 
L 633.907629 138.185381 
L 635.413186 139.078558 
L 636.422327 139.092061 
L 636.928498 139.090308 
L 637.435715 139.218575 
L 639.474772 140.315906 
L 641.529832 140.064841 
L 642.046091 140.138859 
L 642.563379 141.047174 
L 643.08174 143.684264 
L 645.690112 166.836874 
L 646.21428 169.436976 
L 646.738731 170.045328 
L 647.78846 166.95597 
L 648.314038 166.902008 
L 648.840383 168.90233 
L 650.425037 179.253855 
L 650.955051 179.951798 
L 651.485901 177.233185 
L 652.017563 170.278129 
L 653.083384 146.598258 
L 653.617577 139.577955 
L 654.15264 142.254633 
L 654.688583 149.676862 
L 655.225405 153.822087 
L 655.763104 150.570557 
L 656.84119 126.030561 
L 657.381599 121.843891 
L 657.922917 126.280652 
L 658.465148 136.194487 
L 659.008288 142.376091 
L 659.552325 138.973851 
L 660.097258 128.388452 
L 660.643084 121.063743 
L 661.189789 120.339411 
L 661.737362 125.920709 
L 662.285807 136.067751 
L 662.835122 142.170085 
L 663.385294 138.917223 
L 663.936324 129.048066 
L 664.488209 122.619849 
L 665.040933 123.038598 
L 665.594493 130.736705 
L 666.148898 142.203117 
L 666.704142 146.849037 
L 667.260216 142.785695 
L 667.817122 132.479426 
L 668.374857 126.479153 
L 668.933407 129.309338 
L 670.052935 149.680219 
L 670.613901 151.138808 
L 671.175661 144.293546 
L 671.738225 132.719898 
L 672.301591 127.689281 
L 672.865749 132.821727 
L 673.430701 144.629012 
L 673.996443 151.883079 
L 674.562959 150.823573 
L 675.130247 141.213328 
L 675.698313 129.085539 
L 676.267152 125.756978 
L 676.836754 132.524833 
L 677.407125 144.649223 
L 677.978258 150.458308 
L 678.550138 146.988583 
L 679.513182 126.935564 
L 679.513182 126.935564 
" clip-path="url(#p393f0ff282)" style="fill: none; stroke: #2ca02c; stroke-width: 0.9; stroke-linecap: square"/>
   </g>
   <g id="line2d_26">
    <path d="M 85.776818 136.312731 
L 86.354797 135.945135 
L 86.933467 135.914666 
L 88.092873 136.682713 
L 88.673605 136.753357 
L 90.419898 135.862471 
L 91.003355 136.157067 
L 91.587489 136.668699 
L 92.172296 136.994854 
L 92.757777 136.860681 
L 93.930745 135.970388 
L 94.518229 135.997562 
L 95.695185 137.01086 
L 96.284653 137.176412 
L 96.874777 136.820646 
L 97.465556 136.260541 
L 98.056986 135.967462 
L 98.649066 136.196159 
L 99.835165 137.16988 
L 100.42918 137.090421 
L 101.619126 136.034909 
L 102.215052 135.932831 
L 102.811612 136.340481 
L 103.408801 136.906107 
L 104.006618 137.113877 
L 104.605061 136.758697 
L 105.204126 136.111707 
L 105.803811 135.686028 
L 106.404114 135.829333 
L 107.606564 136.864251 
L 108.208706 136.791258 
L 109.414812 135.475694 
L 110.018771 135.240058 
L 110.62333 135.616889 
L 111.228487 136.222521 
L 111.83424 136.449129 
L 112.440586 136.01651 
L 113.047523 135.169058 
L 113.655048 134.532308 
L 114.263159 134.535444 
L 115.481128 135.556841 
L 116.090981 135.42918 
L 117.923983 133.184065 
L 118.536121 133.425737 
L 119.148825 134.017549 
L 119.762091 134.275598 
L 120.375917 133.755719 
L 121.605127 131.756041 
L 122.219905 131.51523 
L 123.447307 132.595465 
L 124.059089 132.61825 
L 124.669074 131.808214 
L 125.276905 130.64552 
L 125.882246 129.898974 
L 126.484784 130.033792 
L 127.680294 131.697534 
L 128.272736 131.804278 
L 128.86131 131.110748 
L 129.44579 130.216519 
L 130.025963 129.903589 
L 130.601631 130.595243 
L 131.738728 133.373025 
L 132.299821 133.988168 
L 132.855738 133.818172 
L 133.406332 133.491616 
L 133.951466 133.819658 
L 134.491009 135.204814 
L 135.552838 139.456352 
L 136.074898 140.790502 
L 136.590912 141.394684 
L 137.100777 141.778805 
L 137.604396 142.603797 
L 138.101672 144.329364 
L 139.554492 150.635588 
L 140.025465 151.648146 
L 140.946922 152.952706 
L 141.397222 154.004024 
L 142.70548 158.64232 
L 143.127147 159.637795 
L 143.541526 160.154549 
L 143.948579 160.273633 
L 144.348283 160.251219 
L 144.740618 160.397359 
L 145.12555 160.839688 
L 145.873131 162.006229 
L 146.235857 162.351349 
L 146.591355 162.471265 
L 146.939808 162.332581 
L 147.281427 161.92143 
L 147.945083 160.227205 
L 148.267608 159.441965 
L 148.584256 159.341522 
L 149.501239 160.881969 
L 149.796672 160.358742 
L 150.087471 159.35941 
L 150.374077 158.835862 
L 150.656978 159.594076 
L 151.21377 163.911604 
L 151.763314 167.921237 
L 152.037423 168.43465 
L 152.31214 167.440631 
L 152.867886 161.615509 
L 153.727837 152.502443 
L 154.600846 145.586096 
L 155.414419 140.727055 
L 156.142632 137.580454 
L 166.356428 137.580419 
L 166.619726 137.074164 
L 166.884503 135.410343 
L 167.150931 130.838792 
L 167.96394 109.402982 
L 168.52254 116.699359 
L 168.807289 107.379535 
L 169.387153 80.931833 
L 169.6819 74.086041 
L 169.979539 70.523415 
L 170.279834 68.892174 
L 170.58257 68.320513 
L 170.88757 68.26802 
L 171.50382 68.379322 
L 171.814889 68.861336 
L 172.127866 71.36012 
L 172.442756 78.784904 
L 173.399014 126.25228 
L 173.721614 128.695228 
L 174.372711 113.811755 
L 174.701292 113.661656 
L 175.031962 124.066174 
L 175.364796 145.307175 
L 175.699856 157.986906 
L 176.037153 159.536994 
L 176.376679 154.869623 
L 177.062436 140.182079 
L 177.408621 141.645307 
L 177.756969 147.966456 
L 178.107443 152.103028 
L 178.459991 152.999922 
L 178.814559 151.960022 
L 179.171116 149.202305 
L 179.890102 141.001974 
L 180.252472 141.461133 
L 180.982123 149.076463 
L 181.348365 150.491279 
L 181.71485 148.77914 
L 182.44679 137.306299 
L 182.811463 136.062009 
L 183.536472 146.512833 
L 183.896184 148.722973 
L 184.253673 146.19842 
L 184.961202 134.846839 
L 185.310965 134.855396 
L 186.002012 144.911586 
L 186.343133 146.734097 
L 186.68121 144.45175 
L 187.347843 136.652135 
L 187.676244 137.549589 
L 188.323191 145.971772 
L 188.641882 147.652675 
L 188.957557 146.53004 
L 189.270388 144.258422 
L 189.580556 143.597545 
L 189.888242 146.622928 
L 190.497009 156.988302 
L 190.798601 159.754329 
L 191.098682 160.507272 
L 191.397492 160.436285 
L 191.695246 160.804103 
L 192.288165 162.809032 
L 192.583488 162.2305 
L 193.171786 157.16823 
L 194.046506 149.148339 
L 194.907095 142.862588 
L 195.747489 138.290392 
L 196.022122 137.580454 
L 203.569127 137.546973 
L 203.858697 137.277871 
L 204.148836 137.736228 
L 204.439375 138.9047 
L 205.312656 148.264229 
L 205.60449 143.70698 
L 206.190302 122.330539 
L 206.484485 123.146056 
L 207.074929 144.942497 
L 207.370809 148.912909 
L 207.666968 145.344332 
L 207.96343 138.408124 
L 208.260259 136.564791 
L 209.15321 160.674364 
L 209.451598 162.000321 
L 209.75031 160.7634 
L 210.348739 157.302078 
L 210.94854 155.927429 
L 211.549529 152.057169 
L 212.451963 145.98444 
L 213.351968 141.267454 
L 214.245524 137.64763 
L 214.836233 137.580454 
L 222.438572 137.580454 
L 222.738011 138.061434 
L 223.037966 139.913778 
L 223.33851 139.61275 
L 223.639621 136.633377 
L 223.941217 135.742392 
L 224.243273 138.914986 
L 224.545797 140.018454 
L 224.848789 131.629034 
L 225.456069 107.763947 
L 225.760215 102.402777 
L 226.0647 101.120343 
L 226.369629 101.833734 
L 226.675148 101.177946 
L 226.981344 97.272347 
L 228.52182 66.911304 
L 229.141159 59.895709 
L 229.758833 55.099361 
L 230.371867 51.75026 
L 231.578948 47.033945 
L 232.171633 45.312769 
L 232.757173 44.437841 
L 233.336314 44.198177 
L 233.909561 44.359146 
L 234.759041 44.959731 
L 235.597439 45.840107 
L 237.251679 47.720348 
L 238.617445 48.893563 
L 240.520092 50.470921 
L 241.336926 51.638318 
L 242.434011 53.624944 
L 243.545555 56.203558 
L 244.677881 59.154745 
L 244.965037 60.311996 
L 245.254052 62.105995 
L 245.545033 64.870907 
L 246.133335 73.712843 
L 247.032692 90.545445 
L 247.643615 98.052041 
L 248.57644 108.348089 
L 249.209195 114.718413 
L 249.528864 116.862662 
L 249.850713 118.00468 
L 250.17471 117.79574 
L 251.159289 113.858454 
L 251.491623 113.932921 
L 251.825971 114.598884 
L 252.16226 114.79321 
L 252.500437 113.894799 
L 253.871341 106.265054 
L 254.218505 105.686355 
L 254.567531 105.634183 
L 254.918532 106.449827 
L 255.984102 113.070825 
L 256.343602 113.521434 
L 256.705296 113.45909 
L 257.069169 114.133521 
L 257.435143 116.3163 
L 258.544791 127.162691 
L 258.918445 128.870165 
L 259.293953 129.377087 
L 259.671295 129.683383 
L 260.050453 130.721364 
L 261.198754 136.778833 
L 261.585103 137.032596 
L 262.363117 135.775122 
L 262.754761 136.106861 
L 263.543271 138.447018 
L 263.940115 138.783388 
L 264.338671 138.192602 
L 264.738928 137.203087 
L 265.140873 136.624618 
L 265.544494 136.923921 
L 266.356725 138.378153 
L 266.765313 138.262661 
L 267.587378 136.762489 
L 268.000833 136.581419 
L 268.41589 137.10068 
L 268.832539 137.87021 
L 269.250769 138.306067 
L 269.670571 138.138093 
L 270.091935 137.592839 
L 270.514851 137.24779 
L 270.93931 137.509414 
L 271.792821 139.022554 
L 272.221853 139.381028 
L 272.652393 139.247166 
L 273.08443 138.973271 
L 273.517955 139.008826 
L 273.952959 139.520348 
L 274.827369 140.980513 
L 275.266755 141.239602 
L 276.149839 141.022664 
L 276.593513 141.197773 
L 277.932874 142.906347 
L 278.381953 143.059397 
L 279.283542 143.163579 
L 279.735914 143.441397 
L 280.64357 144.367408 
L 281.55493 145.670361 
L 282.011974 146.564229 
L 282.469929 148.103636 
L 283.388678 153.17698 
L 283.849523 154.839468 
L 284.311352 155.506098 
L 284.774139 155.560689 
L 285.237822 155.232888 
L 285.702292 154.397279 
L 286.167408 152.970651 
L 287.09893 148.968052 
L 288.496683 143.024553 
L 289.427496 140.03022 
L 290.357479 137.865033 
L 290.822086 137.580454 
L 303.752754 137.575296 
L 304.219351 138.130552 
L 306.095809 146.743167 
L 306.568124 145.545784 
L 307.516886 124.986153 
L 307.993326 122.686485 
L 308.471162 129.890374 
L 308.950396 142.167433 
L 309.431045 145.235945 
L 309.91313 135.451074 
L 310.396655 120.564435 
L 310.881575 112.533254 
L 311.367806 112.406881 
L 311.85528 120.389515 
L 312.343966 134.102319 
L 312.833848 142.005496 
L 313.324899 136.674331 
L 313.8171 123.972546 
L 314.310424 115.842121 
L 314.804839 115.739208 
L 315.300334 124.110888 
L 315.796928 137.952484 
L 316.294626 145.115709 
L 316.79342 140.825417 
L 317.293138 128.732673 
L 317.793298 120.838446 
L 318.293406 121.603172 
L 318.793027 131.572343 
L 319.291774 144.681883 
L 319.789274 149.083784 
L 320.285171 143.567106 
L 320.779137 131.530896 
L 321.270851 124.482782 
L 321.76001 127.126393 
L 322.729613 149.423096 
L 323.209567 151.99001 
L 323.685972 146.130361 
L 324.15861 135.322 
L 324.627269 129.203385 
L 325.09174 132.716656 
L 326.007381 153.116623 
L 326.458191 155.831725 
L 326.904098 151.979712 
L 327.780627 137.987708 
L 328.210975 139.76179 
L 329.055209 156.158308 
L 329.468867 160.287235 
L 329.876754 159.553556 
L 330.674966 149.595071 
L 331.06521 147.486159 
L 331.449506 150.53072 
L 332.200208 160.88628 
L 332.56662 162.57059 
L 332.927097 161.186261 
L 333.63047 153.732833 
L 333.973515 152.154685 
L 334.310904 153.905111 
L 334.969197 160.368813 
L 335.290366 161.414402 
L 335.606413 160.598444 
L 336.224032 157.213966 
L 336.526103 157.400307 
L 336.824039 159.588917 
L 337.408741 164.985745 
L 337.696194 166.205952 
L 337.980891 166.422047 
L 338.263241 166.06914 
L 338.543644 165.44803 
L 338.822476 164.469173 
L 339.100163 162.7824 
L 340.205189 153.739613 
L 341.024732 149.267873 
L 341.820489 146.291789 
L 342.573065 144.236378 
L 343.275724 142.819859 
L 343.932908 141.900432 
L 345.32985 140.310505 
L 346.060354 138.808724 
L 346.583846 137.698764 
L 346.924111 137.580454 
L 353.407602 137.553085 
L 353.632324 136.746157 
L 354.307407 122.519437 
L 354.534081 128.684572 
L 354.762328 145.307835 
L 354.992338 145.416156 
L 355.458795 107.971994 
L 355.695899 101.050545 
L 355.935808 103.064147 
L 356.17864 116.374318 
L 356.673265 153.946742 
L 356.92502 154.49757 
L 357.437501 141.475136 
L 357.698107 146.085751 
L 357.961319 156.545377 
L 358.226759 161.72898 
L 358.493951 160.849994 
L 360.107774 142.958591 
L 360.64493 139.336682 
L 360.913283 138.03867 
L 361.181579 137.580454 
L 366.711235 137.549227 
L 367.009276 137.363714 
L 367.310093 137.761789 
L 368.227936 140.195434 
L 368.538837 139.317439 
L 368.852208 132.909151 
L 369.485742 117.502706 
L 369.805358 114.578067 
L 370.126438 115.311458 
L 370.448689 118.100261 
L 370.771932 119.661241 
L 371.096111 117.649969 
L 371.747126 108.39332 
L 372.073898 105.679001 
L 372.40155 105.240825 
L 373.059952 107.747714 
L 373.391028 107.507953 
L 373.723619 104.743469 
L 375.070714 87.094788 
L 376.096219 77.32924 
L 378.159182 61.312225 
L 378.845841 58.51937 
L 379.528883 57.166666 
L 380.2073 56.4273 
L 381.558841 55.377474 
L 381.89785 55.225591 
L 382.237828 55.241706 
L 382.578876 55.577807 
L 382.921085 56.444329 
L 383.264544 58.079809 
L 383.609347 60.655965 
L 384.303336 68.52334 
L 385.356088 81.527125 
L 386.066238 88.546024 
L 386.783471 98.86138 
L 387.508242 114.99555 
L 387.873645 123.527469 
L 388.241115 129.051665 
L 388.610652 129.776296 
L 388.98225 127.566001 
L 389.355892 126.344193 
L 389.731541 128.60968 
L 390.488712 140.515124 
L 390.870171 143.15076 
L 391.253491 141.672514 
L 391.638645 137.895914 
L 392.025612 135.299384 
L 392.414367 136.28326 
L 393.197167 142.735381 
L 393.591182 142.979086 
L 393.986921 140.341978 
L 394.384374 136.406212 
L 394.783533 134.142158 
L 395.184389 134.95047 
L 395.58693 137.715606 
L 395.991147 139.628048 
L 396.397027 138.8808 
L 397.213746 132.744374 
L 397.624565 131.944907 
L 398.037012 133.642668 
L 398.451076 136.387915 
L 398.866746 137.774532 
L 399.284012 136.665645 
L 399.702862 134.11529 
L 400.123289 132.422122 
L 400.545283 132.940533 
L 401.393927 137.835756 
L 401.820558 138.519424 
L 402.248713 137.190731 
L 402.678385 135.225255 
L 403.109564 134.526394 
L 403.542241 135.803891 
L 403.976406 138.139889 
L 404.412048 139.705403 
L 404.849158 139.515664 
L 405.727743 136.316147 
L 406.169202 136.07496 
L 407.056382 139.008801 
L 407.50177 139.50697 
L 407.947743 138.421313 
L 408.83956 134.766456 
L 409.284543 134.650111 
L 409.72837 135.583203 
L 410.170671 136.210561 
L 410.611093 135.381431 
L 411.917813 128.184973 
L 412.347569 127.316685 
L 413.19691 126.948891 
L 413.616134 125.775653 
L 414.850572 120.186397 
L 415.253979 119.651809 
L 416.048129 120.069213 
L 416.438717 119.773115 
L 416.824874 118.778423 
L 417.583564 116.463968 
L 417.955977 116.131153 
L 418.323694 116.408697 
L 418.686648 116.850677 
L 419.044772 116.96965 
L 419.398012 116.635283 
L 419.746315 115.831659 
L 420.762187 112.714151 
L 421.091623 111.965703 
L 421.416794 110.642316 
L 421.737934 108.018113 
L 422.679794 97.720996 
L 423.594525 91.20763 
L 424.192282 83.982323 
L 424.782475 72.812458 
L 425.65655 55.939443 
L 426.232225 49.249212 
L 426.801861 45.191938 
L 427.364434 42.54977 
L 427.918379 40.786023 
L 428.728349 39.153058 
L 429.251225 38.499856 
L 429.759408 38.270057 
L 430.253291 38.499086 
L 430.733908 39.180153 
L 431.432575 40.813145 
L 434.029021 47.786712 
L 437.482273 55.694447 
L 438.536303 57.450807 
L 439.637086 58.834904 
L 440.324046 59.470677 
L 440.794224 59.718152 
L 441.2748 59.672346 
L 441.51913 59.646205 
L 441.76626 60.333375 
L 442.016331 64.022137 
L 442.269535 75.438103 
L 443.049561 152.780025 
L 443.316593 156.306445 
L 443.587255 146.778348 
L 443.86159 132.400337 
L 444.139561 130.226972 
L 444.70604 156.302188 
L 444.994302 158.275412 
L 445.579909 153.083167 
L 446.478926 143.679961 
L 446.783729 143.593639 
L 447.400579 147.037399 
L 447.712502 147.879684 
L 448.026704 147.465351 
L 448.34317 144.619941 
L 448.982897 132.292541 
L 449.306154 131.733482 
L 449.959432 140.107086 
L 450.289436 139.108084 
L 450.956127 125.23598 
L 451.292787 121.78792 
L 451.631627 122.783172 
L 452.315766 131.418581 
L 452.661024 131.625702 
L 453.357799 123.404058 
L 453.709262 121.606888 
L 454.062743 123.390971 
L 454.775689 132.732696 
L 455.135129 134.306134 
L 455.496527 132.181309 
L 455.859868 129.151538 
L 456.225135 128.222066 
L 456.592315 130.547985 
L 457.332382 138.973427 
L 457.705255 139.587905 
L 458.456626 135.034771 
L 458.835101 134.843264 
L 459.215419 137.394326 
L 459.597572 140.723672 
L 459.981548 142.475119 
L 460.367337 141.884291 
L 461.144299 137.918681 
L 461.535447 138.052015 
L 462.323012 142.035471 
L 462.719404 142.661485 
L 463.117519 141.51696 
L 463.517344 139.435702 
L 463.918867 137.991901 
L 464.322077 138.270327 
L 465.133506 141.070704 
L 465.541702 141.024573 
L 465.951538 139.513146 
L 466.363003 137.494867 
L 466.776087 136.415786 
L 467.190778 136.890428 
L 467.607067 138.158973 
L 468.024943 138.883286 
L 468.444397 138.204339 
L 469.287997 134.531262 
L 469.712124 133.911833 
L 470.13779 134.55361 
L 470.564986 135.550367 
L 470.993699 135.624344 
L 471.423808 134.33264 
L 472.286585 131.054473 
L 472.718358 130.781445 
L 473.580698 131.960983 
L 474.010569 131.504215 
L 475.291386 127.333708 
L 475.714558 127.228774 
L 476.135492 127.713213 
L 476.554006 128.023166 
L 476.969957 127.551344 
L 478.202292 124.145572 
L 479.0117 123.314695 
L 479.413078 121.998793 
L 480.20981 117.32842 
L 480.999427 112.707828 
L 482.172918 106.877441 
L 482.94926 101.887779 
L 483.721831 94.396609 
L 484.875399 79.810577 
L 486.023208 64.627638 
L 486.783133 56.82955 
L 487.53642 51.59225 
L 488.281609 48.399626 
L 489.018574 46.663478 
L 489.384218 46.141197 
L 489.748173 45.826924 
L 490.110654 45.708998 
L 490.471892 45.768444 
L 490.832103 45.988268 
L 491.5499 46.82393 
L 492.621576 48.670051 
L 493.690114 50.542639 
L 494.404923 51.375296 
L 495.125224 51.764976 
L 495.853213 51.69748 
L 496.219961 51.545272 
L 496.588319 51.517812 
L 496.958011 52.326356 
L 497.328766 55.840299 
L 497.700544 65.180681 
L 498.073348 82.61364 
L 498.821954 127.387039 
L 499.19787 137.003945 
L 499.575079 132.166855 
L 499.953787 123.763932 
L 500.334168 124.215592 
L 501.100522 157.633288 
L 501.486708 162.574293 
L 501.874903 160.413041 
L 503.051153 148.796643 
L 503.446998 146.801081 
L 503.844569 147.131622 
L 504.642802 149.700234 
L 505.441607 151.511102 
L 505.840186 151.870006 
L 506.237834 150.358788 
L 507.029827 141.490787 
L 507.424115 142.708549 
L 508.209402 152.533737 
L 508.600463 153.002266 
L 508.990539 148.357702 
L 509.768092 131.140625 
L 510.155607 132.274143 
L 510.927383 147.565008 
L 511.311208 148.780559 
L 511.693409 144.22627 
L 512.073862 137.759643 
L 512.452556 136.751356 
L 512.829631 144.328628 
L 513.205293 154.612137 
L 513.579709 161.462285 
L 513.953015 164.005663 
L 514.325353 164.141025 
L 515.067031 162.688219 
L 515.435883 161.396169 
L 516.167801 156.943237 
L 517.248084 149.341593 
L 517.957264 145.763839 
L 518.659034 143.25146 
L 519.35451 141.499208 
L 520.386261 139.689106 
L 521.737566 137.620627 
L 522.731458 137.580454 
L 529.742546 137.522307 
L 530.09256 137.344774 
L 531.511787 145.214549 
L 531.869805 143.824602 
L 532.587254 126.741847 
L 532.94614 123.815326 
L 533.304796 127.954476 
L 533.663007 136.676277 
L 534.020586 142.278943 
L 534.377399 141.185933 
L 534.733392 135.739579 
L 535.088578 132.280863 
L 535.44298 135.529828 
L 536.149484 151.592036 
L 536.501573 154.766009 
L 536.852868 154.508681 
L 537.203381 152.876223 
L 537.553148 152.20822 
L 537.902222 153.734449 
L 538.598437 158.354385 
L 538.945623 158.825894 
L 539.292232 158.136417 
L 539.983876 155.055119 
L 541.701835 146.301858 
L 542.380358 143.839855 
L 543.38338 141.16956 
L 544.693855 138.670978 
L 545.339443 137.659173 
L 545.9799 137.580454 
L 567.34239 137.580454 
L 567.68797 137.761707 
L 568.731361 140.131485 
L 570.131284 143.558099 
L 570.829954 144.647572 
L 572.216643 146.354744 
L 573.241821 148.282721 
L 574.915902 151.845331 
L 575.245682 152.128769 
L 575.900519 151.481582 
L 576.225826 152.066287 
L 576.872897 154.931522 
L 577.19495 155.717114 
L 577.516227 155.862661 
L 577.836903 155.357241 
L 578.477152 153.023327 
L 578.797058 153.09912 
L 579.117016 154.229237 
L 579.437129 154.696826 
L 579.75745 154.102454 
L 580.398615 151.457041 
L 581.679028 144.644829 
L 582.62983 139.684553 
L 582.944987 138.379551 
L 583.259959 137.580454 
L 585.494476 137.579559 
L 585.82044 138.709123 
L 586.477702 141.843238 
L 586.808925 142.881555 
L 587.141909 142.880111 
L 587.476691 141.237967 
L 588.151765 134.472797 
L 588.492127 132.510507 
L 589.178621 130.627617 
L 590.222865 125.02998 
L 590.574796 124.613724 
L 590.928636 125.490591 
L 591.641995 128.462885 
L 592.001493 129.028848 
L 592.362857 128.926236 
L 592.726075 128.971846 
L 593.091141 129.930232 
L 594.197342 135.82193 
L 594.569722 136.447162 
L 594.943912 136.353118 
L 595.319905 136.40543 
L 595.697692 137.216708 
L 596.458613 139.803874 
L 596.841729 140.288221 
L 597.2266 139.987272 
L 597.613217 139.347166 
L 598.00157 138.993438 
L 598.391647 139.228341 
L 598.78344 139.789967 
L 599.176937 140.13738 
L 599.572127 139.902074 
L 600.767762 137.718965 
L 601.169631 137.732874 
L 601.573146 137.986687 
L 601.978299 137.98096 
L 602.385081 137.443563 
L 603.203494 135.753695 
L 603.615109 135.452879 
L 604.443111 135.841729 
L 604.85948 135.744422 
L 606.117956 134.156709 
L 606.540541 134.214033 
L 607.390296 134.850059 
L 607.817448 134.781345 
L 608.676258 134.036073 
L 609.107898 133.97065 
L 609.541015 134.267597 
L 609.975603 134.708091 
L 610.411651 134.974309 
L 610.849152 134.905003 
L 611.728476 134.45068 
L 612.170284 134.5714 
L 613.058148 135.35519 
L 613.504188 135.510783 
L 614.850648 135.071211 
L 615.302221 135.274414 
L 616.209452 135.913428 
L 616.665095 135.925938 
L 617.580396 135.518925 
L 618.04004 135.527726 
L 619.426859 136.213312 
L 619.891737 136.106986 
L 620.825358 135.743253 
L 621.294087 135.836465 
L 622.235349 136.328407 
L 622.707867 136.367272 
L 624.132892 135.997514 
L 626.050109 136.633876 
L 627.015966 136.380039 
L 627.500684 136.464356 
L 628.961924 137.187137 
L 630.433663 137.0865 
L 631.420573 137.638524 
L 631.915735 137.931485 
L 632.412028 138.06254 
L 633.407981 138.024889 
L 633.907629 138.149504 
L 635.413186 139.006622 
L 636.422327 139.008417 
L 636.928498 139.001882 
L 637.435715 139.120862 
L 639.474772 140.147867 
L 641.529832 139.884807 
L 642.046091 139.950689 
L 642.563379 140.801991 
L 643.08174 143.249683 
L 644.643647 155.123118 
L 645.16647 157.22176 
L 645.690112 157.762887 
L 646.21428 156.852688 
L 646.738731 154.808124 
L 647.78846 150.120307 
L 648.314038 148.782635 
L 648.840383 148.220175 
L 649.367655 148.150348 
L 649.895889 148.326356 
L 650.955051 149.074948 
L 651.485901 149.460211 
L 652.017563 149.219734 
L 652.55005 147.057757 
L 653.617577 138.506373 
L 654.15264 140.514839 
L 654.688583 145.942581 
L 655.225405 149.26993 
L 655.763104 147.579878 
L 656.301692 138.673416 
L 656.84119 127.142066 
L 657.381599 122.799166 
L 657.922917 126.465269 
L 658.465148 136.20014 
L 659.008288 142.518877 
L 659.552325 139.056123 
L 660.097258 127.962039 
L 660.643084 119.573156 
L 661.189789 118.229145 
L 661.737362 124.590365 
L 662.285807 136.066196 
L 662.835122 142.768778 
L 663.385294 139.115804 
L 663.936324 128.380767 
L 664.488209 121.043423 
L 665.040933 121.45833 
L 665.594493 130.229823 
L 666.148898 142.648223 
L 666.704142 147.467424 
L 667.260216 142.989696 
L 667.817122 132.378225 
L 668.374857 126.221858 
L 668.933407 129.157565 
L 669.492767 140.489049 
L 670.052935 149.490181 
L 670.613901 150.528852 
L 671.175661 143.898947 
L 671.738225 132.898047 
L 672.301591 128.107118 
L 672.865749 132.945793 
L 673.430701 144.212933 
L 673.996443 150.765286 
L 674.562959 149.650696 
L 675.130247 140.895042 
L 675.698313 129.513369 
L 676.267152 126.248537 
L 676.836754 132.621324 
L 677.407125 144.365637 
L 677.978258 149.810275 
L 678.550138 146.488546 
L 679.513182 127.213092 
L 679.513182 127.213092 
" clip-path="url(#p393f0ff282)" style="fill: none; stroke: #d62728; stroke-opacity: 0.8; stroke-width: 0.9; stroke-linecap: square"/>
   </g>
   <g id="patch_3">
    <path d="M 56.09 246.04 
L 56.09 28.37625 
" style="fill: none; stroke: #000000; stroke-width: 0.8; stroke-linejoin: miter; stroke-linecap: square"/>
   </g>
   <g id="patch_4">
    <path d="M 709.2 246.04 
L 709.2 28.37625 
" style="fill: none; stroke: #000000; stroke-width: 0.8; stroke-linejoin: miter; stroke-linecap: square"/>
   </g>
   <g id="patch_5">
    <path d="M 56.09 246.04 
L 709.2 246.04 
" style="fill: none; stroke: #000000; stroke-width: 0.8; stroke-linejoin: miter; stroke-linecap: square"/>
   </g>
   <g id="patch_6">
    <path d="M 56.09 28.37625 
L 709.2 28.37625 
" style="fill: none; stroke: #000000; stroke-width: 0.8; stroke-linejoin: miter; stroke-linecap: square"/>
   </g>
   <g id="text_15">
    <!-- steering-link loads over one Gelleråsen Arena lap -->
    <g transform="translate(234.435625 22.37625) scale(0.12 -0.12)">
     <defs>
      <path id="DejaVuSans-67" d="M 2906 1791 
Q 2906 2416 2648 2759 
Q 2391 3103 1925 3103 
Q 1463 3103 1205 2759 
Q 947 2416 947 1791 
Q 947 1169 1205 825 
Q 1463 481 1925 481 
Q 2391 481 2648 825 
Q 2906 1169 2906 1791 
z
M 3481 434 
Q 3481 -459 3084 -895 
Q 2688 -1331 1869 -1331 
Q 1566 -1331 1297 -1286 
Q 1028 -1241 775 -1147 
L 775 -588 
Q 1028 -725 1275 -790 
Q 1522 -856 1778 -856 
Q 2344 -856 2625 -561 
Q 2906 -266 2906 331 
L 2906 616 
Q 2728 306 2450 153 
Q 2172 0 1784 0 
Q 1141 0 747 490 
Q 353 981 353 1791 
Q 353 2603 747 3093 
Q 1141 3584 1784 3584 
Q 2172 3584 2450 3431 
Q 2728 3278 2906 2969 
L 2906 3500 
L 3481 3500 
L 3481 434 
z
" transform="scale(0.015625)"/>
      <path id="DejaVuSans-6c" d="M 603 4863 
L 1178 4863 
L 1178 0 
L 603 0 
L 603 4863 
z
" transform="scale(0.015625)"/>
      <path id="DejaVuSans-76" d="M 191 3500 
L 800 3500 
L 1894 563 
L 2988 3500 
L 3597 3500 
L 2284 0 
L 1503 0 
L 191 3500 
z
" transform="scale(0.015625)"/>
      <path id="DejaVuSans-47" d="M 3809 666 
L 3809 1919 
L 2778 1919 
L 2778 2438 
L 4434 2438 
L 4434 434 
Q 4069 175 3628 42 
Q 3188 -91 2688 -91 
Q 1594 -91 976 548 
Q 359 1188 359 2328 
Q 359 3472 976 4111 
Q 1594 4750 2688 4750 
Q 3144 4750 3555 4637 
Q 3966 4525 4313 4306 
L 4313 3634 
Q 3963 3931 3569 4081 
Q 3175 4231 2741 4231 
Q 1884 4231 1454 3753 
Q 1025 3275 1025 2328 
Q 1025 1384 1454 906 
Q 1884 428 2741 428 
Q 3075 428 3337 486 
Q 3600 544 3809 666 
z
" transform="scale(0.015625)"/>
      <path id="DejaVuSans-e5" d="M 2194 1759 
Q 1497 1759 1228 1600 
Q 959 1441 959 1056 
Q 959 750 1161 570 
Q 1363 391 1709 391 
Q 2188 391 2477 730 
Q 2766 1069 2766 1631 
L 2766 1759 
L 2194 1759 
z
M 3341 1997 
L 3341 0 
L 2766 0 
L 2766 531 
Q 2569 213 2275 61 
Q 1981 -91 1556 -91 
Q 1019 -91 701 211 
Q 384 513 384 1019 
Q 384 1609 779 1909 
Q 1175 2209 1959 2209 
L 2766 2209 
L 2766 2266 
Q 2766 2663 2505 2880 
Q 2244 3097 1772 3097 
Q 1472 3097 1187 3025 
Q 903 2953 641 2809 
L 641 3341 
Q 956 3463 1253 3523 
Q 1550 3584 1831 3584 
Q 2591 3584 2966 3190 
Q 3341 2797 3341 1997 
z
M 2331 4763 
Q 2331 4959 2193 5096 
Q 2056 5234 1856 5234 
Q 1653 5234 1517 5098 
Q 1381 4963 1381 4763 
Q 1381 4559 1517 4423 
Q 1653 4288 1856 4288 
Q 2056 4288 2193 4425 
Q 2331 4563 2331 4763 
z
M 2712 4763 
Q 2712 4403 2463 4153 
Q 2215 3903 1856 3903 
Q 1497 3903 1248 4153 
Q 1000 4403 1000 4763 
Q 1000 5122 1248 5370 
Q 1497 5619 1856 5619 
Q 2215 5619 2463 5370 
Q 2712 5122 2712 4763 
z
" transform="scale(0.015625)"/>
      <path id="DejaVuSans-41" d="M 2188 4044 
L 1331 1722 
L 3047 1722 
L 2188 4044 
z
M 1831 4666 
L 2547 4666 
L 4325 0 
L 3669 0 
L 3244 1197 
L 1141 1197 
L 716 0 
L 50 0 
L 1831 4666 
z
" transform="scale(0.015625)"/>
      <path id="DejaVuSans-70" d="M 1159 525 
L 1159 -1331 
L 581 -1331 
L 581 3500 
L 1159 3500 
L 1159 2969 
Q 1341 3281 1617 3432 
Q 1894 3584 2278 3584 
Q 2916 3584 3314 3078 
Q 3713 2572 3713 1747 
Q 3713 922 3314 415 
Q 2916 -91 2278 -91 
Q 1894 -91 1617 61 
Q 1341 213 1159 525 
z
M 3116 1747 
Q 3116 2381 2855 2742 
Q 2594 3103 2138 3103 
Q 1681 3103 1420 2742 
Q 1159 2381 1159 1747 
Q 1159 1113 1420 752 
Q 1681 391 2138 391 
Q 2594 391 2855 752 
Q 3116 1113 3116 1747 
z
" transform="scale(0.015625)"/>
     </defs>
     <use xlink:href="#DejaVuSans-73"/>
     <use xlink:href="#DejaVuSans-74" transform="translate(52.099609 0)"/>
     <use xlink:href="#DejaVuSans-65" transform="translate(91.308594 0)"/>
     <use xlink:href="#DejaVuSans-65" transform="translate(152.832031 0)"/>
     <use xlink:href="#DejaVuSans-72" transform="translate(214.355469 0)"/>
     <use xlink:href="#DejaVuSans-69" transform="translate(255.46875 0)"/>
     <use xlink:href="#DejaVuSans-6e" transform="translate(283.251953 0)"/>
     <use xlink:href="#DejaVuSans-67" transform="translate(346.630859 0)"/>
     <use xlink:href="#DejaVuSans-2d" transform="translate(410.107422 0)"/>
     <use xlink:href="#DejaVuSans-6c" transform="translate(446.191406 0)"/>
     <use xlink:href="#DejaVuSans-69" transform="translate(473.974609 0)"/>
     <use xlink:href="#DejaVuSans-6e" transform="translate(501.757812 0)"/>
     <use xlink:href="#DejaVuSans-6b" transform="translate(565.136719 0)"/>
     <use xlink:href="#DejaVuSans-20" transform="translate(623.046875 0)"/>
     <use xlink:href="#DejaVuSans-6c" transform="translate(654.833984 0)"/>
     <use xlink:href="#DejaVuSans-6f" transform="translate(682.617188 0)"/>
     <use xlink:href="#DejaVuSans-61" transform="translate(743.798828 0)"/>
     <use xlink:href="#DejaVuSans-64" transform="translate(805.078125 0)"/>
     <use xlink:href="#DejaVuSans-73" transform="translate(868.554688 0)"/>
     <use xlink:href="#DejaVuSans-20" transform="translate(920.654297 0)"/>
     <use xlink:href="#DejaVuSans-6f" transform="translate(952.441406 0)"/>
     <use xlink:href="#DejaVuSans-76" transform="translate(1013.623047 0)"/>
     <use xlink:href="#DejaVuSans-65" transform="translate(1072.802734 0)"/>
     <use xlink:href="#DejaVuSans-72" transform="translate(1134.326172 0)"/>
     <use xlink:href="#DejaVuSans-20" transform="translate(1175.439453 0)"/>
     <use xlink:href="#DejaVuSans-6f" transform="translate(1207.226562 0)"/>
     <use xlink:href="#DejaVuSans-6e" transform="translate(1268.408203 0)"/>
     <use xlink:href="#DejaVuSans-65" transform="translate(1331.787109 0)"/>
     <use xlink:href="#DejaVuSans-20" transform="translate(1393.310547 0)"/>
     <use xlink:href="#DejaVuSans-47" transform="translate(1425.097656 0)"/>
     <use xlink:href="#DejaVuSans-65" transform="translate(1502.587891 0)"/>
     <use xlink:href="#DejaVuSans-6c" transform="translate(1564.111328 0)"/>
     <use xlink:href="#DejaVuSans-6c" transform="translate(1591.894531 0)"/>
     <use xlink:href="#DejaVuSans-65" transform="translate(1619.677734 0)"/>
     <use xlink:href="#DejaVuSans-72" transform="translate(1681.201172 0)"/>
     <use xlink:href="#DejaVuSans-e5" transform="translate(1722.314453 0)"/>
     <use xlink:href="#DejaVuSans-73" transform="translate(1783.59375 0)"/>
     <use xlink:href="#DejaVuSans-65" transform="translate(1835.693359 0)"/>
     <use xlink:href="#DejaVuSans-6e" transform="translate(1897.216797 0)"/>
     <use xlink:href="#DejaVuSans-20" transform="translate(1960.595703 0)"/>
     <use xlink:href="#DejaVuSans-41" transform="translate(1992.382812 0)"/>
     <use xlink:href="#DejaVuSans-72" transform="translate(2060.791016 0)"/>
     <use xlink:href="#DejaVuSans-65" transform="translate(2099.654297 0)"/>
     <use xlink:href="#DejaVuSans-6e" transform="translate(2161.177734 0)"/>
     <use xlink:href="#DejaVuSans-61" transform="translate(2224.556641 0)"/>
     <use xlink:href="#DejaVuSans-20" transform="translate(2285.835938 0)"/>
     <use xlink:href="#DejaVuSans-6c" transform="translate(2317.623047 0)"/>
     <use xlink:href="#DejaVuSans-61" transform="translate(2345.40625 0)"/>
     <use xlink:href="#DejaVuSans-70" transform="translate(2406.685547 0)"/>
    </g>
   </g>
   <g id="legend_1">
    <g id="patch_7">
     <path d="M 630.755 58.26125 
L 703.6 58.26125 
Q 705.2 58.26125 705.2 56.66125 
L 705.2 33.97625 
Q 705.2 32.37625 703.6 32.37625 
L 630.755 32.37625 
Q 629.155 32.37625 629.155 33.97625 
L 629.155 56.66125 
Q 629.155 58.26125 630.755 58.26125 
z
" style="fill: #ffffff; opacity: 0.8; stroke: #cccccc; stroke-linejoin: miter"/>
    </g>
    <g id="line2d_27">
     <path d="M 632.355 38.855 
L 640.355 38.855 
L 648.355 38.855 
" style="fill: none; stroke: #2ca02c; stroke-width: 0.9; stroke-linecap: square"/>
    </g>
    <g id="text_16">
     <!-- tie rod left -->
     <g transform="translate(654.755 41.655) scale(0.08 -0.08)">
      <use xlink:href="#DejaVuSans-74"/>
      <use xlink:href="#DejaVuSans-69" transform="translate(39.208984 0)"/>
      <use xlink:href="#DejaVuSans-65" transform="translate(66.992188 0)"/>
      <use xlink:href="#DejaVuSans-20" transform="translate(128.515625 0)"/>
      <use xlink:href="#DejaVuSans-72" transform="translate(160.302734 0)"/>
      <use xlink:href="#DejaVuSans-6f" transform="translate(199.166016 0)"/>
      <use xlink:href="#DejaVuSans-64" transform="translate(260.347656 0)"/>
      <use xlink:href="#DejaVuSans-20" transform="translate(323.824219 0)"/>
      <use xlink:href="#DejaVuSans-6c" transform="translate(355.611328 0)"/>
      <use xlink:href="#DejaVuSans-65" transform="translate(383.394531 0)"/>
      <use xlink:href="#DejaVuSans-66" transform="translate(444.917969 0)"/>
      <use xlink:href="#DejaVuSans-74" transform="translate(478.373047 0)"/>
     </g>
    </g>
    <g id="line2d_28">
     <path d="M 632.355 50.5975 
L 640.355 50.5975 
L 648.355 50.5975 
" style="fill: none; stroke: #d62728; stroke-opacity: 0.8; stroke-width: 0.9; stroke-linecap: square"/>
    </g>
    <g id="text_17">
     <!-- tie rod right -->
     <g transform="translate(654.755 53.3975) scale(0.08 -0.08)">
      <defs>
       <path id="DejaVuSans-68" d="M 3513 2113 
L 3513 0 
L 2938 0 
L 2938 2094 
Q 2938 2591 2744 2837 
Q 2550 3084 2163 3084 
Q 1697 3084 1428 2787 
Q 1159 2491 1159 1978 
L 1159 0 
L 581 0 
L 581 4863 
L 1159 4863 
L 1159 2956 
Q 1366 3272 1645 3428 
Q 1925 3584 2291 3584 
Q 2894 3584 3203 3211 
Q 3513 2838 3513 2113 
z
" transform="scale(0.015625)"/>
      </defs>
      <use xlink:href="#DejaVuSans-74"/>
      <use xlink:href="#DejaVuSans-69" transform="translate(39.208984 0)"/>
      <use xlink:href="#DejaVuSans-65" transform="translate(66.992188 0)"/>
      <use xlink:href="#DejaVuSans-20" transform="translate(128.515625 0)"/>
      <use xlink:href="#DejaVuSans-72" transform="translate(160.302734 0)"/>
      <use xlink:href="#DejaVuSans-6f" transform="translate(199.166016 0)"/>
      <use xlink:href="#DejaVuSans-64" transform="translate(260.347656 0)"/>
      <use xlink:href="#DejaVuSans-20" transform="translate(323.824219 0)"/>
      <use xlink:href="#DejaVuSans-72" transform="translate(355.611328 0)"/>
      <use xlink:href="#DejaVuSans-69" transform="translate(396.724609 0)"/>
      <use xlink:href="#DejaVuSans-67" transform="translate(424.507812 0)"/>
      <use xlink:href="#DejaVuSans-68" transform="translate(487.984375 0)"/>
      <use xlink:href="#DejaVuSans-74" transform="translate(551.363281 0)"/>
     </g>
    </g>
   </g>
  </g>
 </g>
 <defs>
  <clipPath id="p393f0ff282">
   <rect x="56.09" y="28.37625" width="653.11" height="217.66375"/>
  </clipPath>
 </defs>
</svg>
