<?xml version="1.0" encoding="utf-8" standalone="no"?>
<!DOCTYPE svg PUBLIC "-//W3C//DTD SVG 1.1//EN"
  "http://www.w3.org/Graphics/SVG/1.1/DTD/svg11.dtd">
<svg xmlns:xlink="http://www.w3.org/1999/xlink" width="720pt" height="288pt" viewBox="0 0 720 288" xmlns="http://www.w3.org/2000/svg" version="1.1">
 <metadata>
  <rdf:RDF xmlns:dc="http://purl.org/dc/elements/1.1/" xmlns:cc="http://creativecommons.org/ns#" xmlns:rdf="http://www.w3.org/1999/02/22-rdf-syntax-ns#">
   <cc:Work>
    <dc:type rdf:resource="http://purl.org/dc/dcmitype/StillImage"/>
    <dc:date>2026-07-08T14:50:38.541647</dc:date>
    <dc:format>image/svg+xml</dc:format>
    <dc:creator>
     <cc:Agent>
      <dc:title>Matplotlib v3.10.8, https://matplotlib.org/</dc:title>
     </cc:Agent>
    </dc:creator>
   </cc:Work>
  </rdf:RDF>
 </metadata>
 <defs>
  <style type="text/css">*{stroke-linejoin: round; stroke-linecap: butt}</style>
 </defs>
 <g id="figure_1">
  <g id="patch_1">
   <path d="M 0 288 
L 720 288 
L 720 0 
L 0 0 
z
" style="fill: #ffffff"/>
  </g>
  <g id="axes_1">
   <g id="patch_2">
    <path d="M 56.09 246.04 
L 709.2 246.04 
L 709.2 26.88 
L 56.09 26.88 
z
" style="fill: #ffffff"/>
   </g>
   <g id="matplotlib.axis_1">
    <g id="xtick_1">
     <g id="line2d_1">
      <path d="M 85.776818 246.04 
L 85.776818 26.88 
" clip-path="url(#p9ef705d99e)" style="fill: none; stroke: #b0b0b0; stroke-opacity: 0.3; stroke-width: 0.8; stroke-linecap: square"/>
     </g>
     <g id="line2d_2">
      <defs>
       <path id="ma1112d30fb" d="M 0 0 
L 0 3.5 
" style="stroke: #000000; stroke-width: 0.8"/>
      </defs>
      <g>
       <use xlink:href="#ma1112d30fb" x="85.776818" y="246.04" style="stroke: #000000; stroke-width: 0.8"/>
      </g>
     </g>
     <g id="text_1">
      <!-- 0.0 -->
      <g transform="translate(77.825256 260.638438) scale(0.1 -0.1)">
       <defs>
        <path id="DejaVuSans-30" d="M 2034 4250 
Q 1547 4250 1301 3770 
Q 1056 3291 1056 2328 
Q 1056 1369 1301 889 
Q 1547 409 2034 409 
Q 2525 409 2770 889 
Q 3016 1369 3016 2328 
Q 3016 3291 2770 3770 
Q 2525 4250 2034 4250 
z
M 2034 4750 
Q 2819 4750 3233 4129 
Q 3647 3509 3647 2328 
Q 3647 1150 3233 529 
Q 2819 -91 2034 -91 
Q 1250 -91 836 529 
Q 422 1150 422 2328 
Q 422 3509 836 4129 
Q 1250 4750 2034 4750 
z
" transform="scale(0.015625)"/>
        <path id="DejaVuSans-2e" d="M 684 794 
L 1344 794 
L 1344 0 
L 684 0 
L 684 794 
z
" transform="scale(0.015625)"/>
       </defs>
       <use xlink:href="#DejaVuSans-30"/>
       <use xlink:href="#DejaVuSans-2e" transform="translate(63.623047 0)"/>
       <use xlink:href="#DejaVuSans-30" transform="translate(95.410156 0)"/>
      </g>
     </g>
    </g>
    <g id="xtick_2">
     <g id="line2d_3">
      <path d="M 230.456472 246.04 
L 230.456472 26.88 
" clip-path="url(#p9ef705d99e)" style="fill: none; stroke: #b0b0b0; stroke-opacity: 0.3; stroke-width: 0.8; stroke-linecap: square"/>
     </g>
     <g id="line2d_4">
      <g>
       <use xlink:href="#ma1112d30fb" x="230.456472" y="246.04" style="stroke: #000000; stroke-width: 0.8"/>
      </g>
     </g>
     <g id="text_2">
      <!-- 0.5 -->
      <g transform="translate(222.50491 260.638438) scale(0.1 -0.1)">
       <defs>
        <path id="DejaVuSans-35" d="M 691 4666 
L 3169 4666 
L 3169 4134 
L 1269 4134 
L 1269 2991 
Q 1406 3038 1543 3061 
Q 1681 3084 1819 3084 
Q 2600 3084 3056 2656 
Q 3513 2228 3513 1497 
Q 3513 744 3044 326 
Q 2575 -91 1722 -91 
Q 1428 -91 1123 -41 
Q 819 9 494 109 
L 494 744 
Q 775 591 1075 516 
Q 1375 441 1709 441 
Q 2250 441 2565 725 
Q 2881 1009 2881 1497 
Q 2881 1984 2565 2268 
Q 2250 2553 1709 2553 
Q 1456 2553 1204 2497 
Q 953 2441 691 2322 
L 691 4666 
z
" transform="scale(0.015625)"/>
       </defs>
       <use xlink:href="#DejaVuSans-30"/>
       <use xlink:href="#DejaVuSans-2e" transform="translate(63.623047 0)"/>
       <use xlink:href="#DejaVuSans-35" transform="translate(95.410156 0)"/>
      </g>
     </g>
    </g>
    <g id="xtick_3">
     <g id="line2d_5">
      <path d="M 375.136126 246.04 
L 375.136126 26.88 
" clip-path="url(#p9ef705d99e)" style="fill: none; stroke: #b0b0b0; stroke-opacity: 0.3; stroke-width: 0.8; stroke-linecap: square"/>
     </g>
     <g id="line2d_6">
      <g>
       <use xlink:href="#ma1112d30fb" x="375.136126" y="246.04" style="stroke: #000000; stroke-width: 0.8"/>
      </g>
     </g>
     <g id="text_3">
      <!-- 1.0 -->
      <g transform="translate(367.184563 260.638438) scale(0.1 -0.1)">
       <defs>
        <path id="DejaVuSans-31" d="M 794 531 
L 1825 531 
L 1825 4091 
L 703 3866 
L 703 4441 
L 1819 4666 
L 2450 4666 
L 2450 531 
L 3481 531 
L 3481 0 
L 794 0 
L 794 531 
z
" transform="scale(0.015625)"/>
       </defs>
       <use xlink:href="#DejaVuSans-31"/>
       <use xlink:href="#DejaVuSans-2e" transform="translate(63.623047 0)"/>
       <use xlink:href="#DejaVuSans-30" transform="translate(95.410156 0)"/>
      </g>
     </g>
    </g>
    <g id="xtick_4">
     <g id="line2d_7">
      <path d="M 519.81578 246.04 
L 519.81578 26.88 
" clip-path="url(#p9ef705d99e)" style="fill: none; stroke: #b0b0b0; stroke-opacity: 0.3; stroke-width: 0.8; stroke-linecap: square"/>
     </g>
     <g id="line2d_8">
      <g>
       <use xlink:href="#ma1112d30fb" x="519.81578" y="246.04" style="stroke: #000000; stroke-width: 0.8"/>
      </g>
     </g>
     <g id="text_4">
      <!-- 1.5 -->
      <g transform="translate(511.864217 260.638438) scale(0.1 -0.1)">
       <use xlink:href="#DejaVuSans-31"/>
       <use xlink:href="#DejaVuSans-2e" transform="translate(63.623047 0)"/>
       <use xlink:href="#DejaVuSans-35" transform="translate(95.410156 0)"/>
      </g>
     </g>
    </g>
    <g id="xtick_5">
     <g id="line2d_9">
      <path d="M 664.495434 246.04 
L 664.495434 26.88 
" clip-path="url(#p9ef705d99e)" style="fill: none; stroke: #b0b0b0; stroke-opacity: 0.3; stroke-width: 0.8; stroke-linecap: square"/>
     </g>
     <g id="line2d_10">
      <g>
       <use xlink:href="#ma1112d30fb" x="664.495434" y="246.04" style="stroke: #000000; stroke-width: 0.8"/>
      </g>
     </g>
     <g id="text_5">
      <!-- 2.0 -->
      <g transform="translate(656.543871 260.638438) scale(0.1 -0.1)">
       <defs>
        <path id="DejaVuSans-32" d="M 1228 531 
L 3431 531 
L 3431 0 
L 469 0 
L 469 531 
Q 828 903 1448 1529 
Q 2069 2156 2228 2338 
Q 2531 2678 2651 2914 
Q 2772 3150 2772 3378 
Q 2772 3750 2511 3984 
Q 2250 4219 1831 4219 
Q 1534 4219 1204 4116 
Q 875 4013 500 3803 
L 500 4441 
Q 881 4594 1212 4672 
Q 1544 4750 1819 4750 
Q 2544 4750 2975 4387 
Q 3406 4025 3406 3419 
Q 3406 3131 3298 2873 
Q 3191 2616 2906 2266 
Q 2828 2175 2409 1742 
Q 1991 1309 1228 531 
z
" transform="scale(0.015625)"/>
       </defs>
       <use xlink:href="#DejaVuSans-32"/>
       <use xlink:href="#DejaVuSans-2e" transform="translate(63.623047 0)"/>
       <use xlink:href="#DejaVuSans-30" transform="translate(95.410156 0)"/>
      </g>
     </g>
    </g>
    <g id="text_6">
     <!-- distance s [km] -->
     <g transform="translate(344.008281 274.316562) scale(0.1 -0.1)">
      <defs>
       <path id="DejaVuSans-64" d="M 2906 2969 
L 2906 4863 
L 3481 4863 
L 3481 0 
L 2906 0 
L 2906 525 
Q 2725 213 2448 61 
Q 2172 -91 1784 -91 
Q 1150 -91 751 415 
Q 353 922 353 1747 
Q 353 2572 751 3078 
Q 1150 3584 1784 3584 
Q 2172 3584 2448 3432 
Q 2725 3281 2906 2969 
z
M 947 1747 
Q 947 1113 1208 752 
Q 1469 391 1925 391 
Q 2381 391 2643 752 
Q 2906 1113 2906 1747 
Q 2906 2381 2643 2742 
Q 2381 3103 1925 3103 
Q 1469 3103 1208 2742 
Q 947 2381 947 1747 
z
" transform="scale(0.015625)"/>
       <path id="DejaVuSans-69" d="M 603 3500 
L 1178 3500 
L 1178 0 
L 603 0 
L 603 3500 
z
M 603 4863 
L 1178 4863 
L 1178 4134 
L 603 4134 
L 603 4863 
z
" transform="scale(0.015625)"/>
       <path id="DejaVuSans-73" d="M 2834 3397 
L 2834 2853 
Q 2591 2978 2328 3040 
Q 2066 3103 1784 3103 
Q 1356 3103 1142 2972 
Q 928 2841 928 2578 
Q 928 2378 1081 2264 
Q 1234 2150 1697 2047 
L 1894 2003 
Q 2506 1872 2764 1633 
Q 3022 1394 3022 966 
Q 3022 478 2636 193 
Q 2250 -91 1575 -91 
Q 1294 -91 989 -36 
Q 684 19 347 128 
L 347 722 
Q 666 556 975 473 
Q 1284 391 1588 391 
Q 1994 391 2212 530 
Q 2431 669 2431 922 
Q 2431 1156 2273 1281 
Q 2116 1406 1581 1522 
L 1381 1569 
Q 847 1681 609 1914 
Q 372 2147 372 2553 
Q 372 3047 722 3315 
Q 1072 3584 1716 3584 
Q 2034 3584 2315 3537 
Q 2597 3491 2834 3397 
z
" transform="scale(0.015625)"/>
       <path id="DejaVuSans-74" d="M 1172 4494 
L 1172 3500 
L 2356 3500 
L 2356 3053 
L 1172 3053 
L 1172 1153 
Q 1172 725 1289 603 
Q 1406 481 1766 481 
L 2356 481 
L 2356 0 
L 1766 0 
Q 1100 0 847 248 
Q 594 497 594 1153 
L 594 3053 
L 172 3053 
L 172 3500 
L 594 3500 
L 594 4494 
L 1172 4494 
z
" transform="scale(0.015625)"/>
       <path id="DejaVuSans-61" d="M 2194 1759 
Q 1497 1759 1228 1600 
Q 959 1441 959 1056 
Q 959 750 1161 570 
Q 1363 391 1709 391 
Q 2188 391 2477 730 
Q 2766 1069 2766 1631 
L 2766 1759 
L 2194 1759 
z
M 3341 1997 
L 3341 0 
L 2766 0 
L 2766 531 
Q 2569 213 2275 61 
Q 1981 -91 1556 -91 
Q 1019 -91 701 211 
Q 384 513 384 1019 
Q 384 1609 779 1909 
Q 1175 2209 1959 2209 
L 2766 2209 
L 2766 2266 
Q 2766 2663 2505 2880 
Q 2244 3097 1772 3097 
Q 1472 3097 1187 3025 
Q 903 2953 641 2809 
L 641 3341 
Q 956 3463 1253 3523 
Q 1550 3584 1831 3584 
Q 2591 3584 2966 3190 
Q 3341 2797 3341 1997 
z
" transform="scale(0.015625)"/>
       <path id="DejaVuSans-6e" d="M 3513 2113 
L 3513 0 
L 2938 0 
L 2938 2094 
Q 2938 2591 2744 2837 
Q 2550 3084 2163 3084 
Q 1697 3084 1428 2787 
Q 1159 2491 1159 1978 
L 1159 0 
L 581 0 
L 581 3500 
L 1159 3500 
L 1159 2956 
Q 1366 3272 1645 3428 
Q 1925 3584 2291 3584 
Q 2894 3584 3203 3211 
Q 3513 2838 3513 2113 
z
" transform="scale(0.015625)"/>
       <path id="DejaVuSans-63" d="M 3122 3366 
L 3122 2828 
Q 2878 2963 2633 3030 
Q 2388 3097 2138 3097 
Q 1578 3097 1268 2742 
Q 959 2388 959 1747 
Q 959 1106 1268 751 
Q 1578 397 2138 397 
Q 2388 397 2633 464 
Q 2878 531 3122 666 
L 3122 134 
Q 2881 22 2623 -34 
Q 2366 -91 2075 -91 
Q 1284 -91 818 406 
Q 353 903 353 1747 
Q 353 2603 823 3093 
Q 1294 3584 2113 3584 
Q 2378 3584 2631 3529 
Q 2884 3475 3122 3366 
z
" transform="scale(0.015625)"/>
       <path id="DejaVuSans-65" d="M 3597 1894 
L 3597 1613 
L 953 1613 
Q 991 1019 1311 708 
Q 1631 397 2203 397 
Q 2534 397 2845 478 
Q 3156 559 3463 722 
L 3463 178 
Q 3153 47 2828 -22 
Q 2503 -91 2169 -91 
Q 1331 -91 842 396 
Q 353 884 353 1716 
Q 353 2575 817 3079 
Q 1281 3584 2069 3584 
Q 2775 3584 3186 3129 
Q 3597 2675 3597 1894 
z
M 3022 2063 
Q 3016 2534 2758 2815 
Q 2500 3097 2075 3097 
Q 1594 3097 1305 2825 
Q 1016 2553 972 2059 
L 3022 2063 
z
" transform="scale(0.015625)"/>
       <path id="DejaVuSans-20" transform="scale(0.015625)"/>
       <path id="DejaVuSans-5b" d="M 550 4863 
L 1875 4863 
L 1875 4416 
L 1125 4416 
L 1125 -397 
L 1875 -397 
L 1875 -844 
L 550 -844 
L 550 4863 
z
" transform="scale(0.015625)"/>
       <path id="DejaVuSans-6b" d="M 581 4863 
L 1159 4863 
L 1159 1991 
L 2875 3500 
L 3609 3500 
L 1753 1863 
L 3688 0 
L 2938 0 
L 1159 1709 
L 1159 0 
L 581 0 
L 581 4863 
z
" transform="scale(0.015625)"/>
       <path id="DejaVuSans-6d" d="M 3328 2828 
Q 3544 3216 3844 3400 
Q 4144 3584 4550 3584 
Q 5097 3584 5394 3201 
Q 5691 2819 5691 2113 
L 5691 0 
L 5113 0 
L 5113 2094 
Q 5113 2597 4934 2840 
Q 4756 3084 4391 3084 
Q 3944 3084 3684 2787 
Q 3425 2491 3425 1978 
L 3425 0 
L 2847 0 
L 2847 2094 
Q 2847 2600 2669 2842 
Q 2491 3084 2119 3084 
Q 1678 3084 1418 2786 
Q 1159 2488 1159 1978 
L 1159 0 
L 581 0 
L 581 3500 
L 1159 3500 
L 1159 2956 
Q 1356 3278 1631 3431 
Q 1906 3584 2284 3584 
Q 2666 3584 2933 3390 
Q 3200 3197 3328 2828 
z
" transform="scale(0.015625)"/>
       <path id="DejaVuSans-5d" d="M 1947 4863 
L 1947 -844 
L 622 -844 
L 622 -397 
L 1369 -397 
L 1369 4416 
L 622 4416 
L 622 4863 
L 1947 4863 
z
" transform="scale(0.015625)"/>
      </defs>
      <use xlink:href="#DejaVuSans-64"/>
      <use xlink:href="#DejaVuSans-69" transform="translate(63.476562 0)"/>
      <use xlink:href="#DejaVuSans-73" transform="translate(91.259766 0)"/>
      <use xlink:href="#DejaVuSans-74" transform="translate(143.359375 0)"/>
      <use xlink:href="#DejaVuSans-61" transform="translate(182.568359 0)"/>
      <use xlink:href="#DejaVuSans-6e" transform="translate(243.847656 0)"/>
      <use xlink:href="#DejaVuSans-63" transform="translate(307.226562 0)"/>
      <use xlink:href="#DejaVuSans-65" transform="translate(362.207031 0)"/>
      <use xlink:href="#DejaVuSans-20" transform="translate(423.730469 0)"/>
      <use xlink:href="#DejaVuSans-73" transform="translate(455.517578 0)"/>
      <use xlink:href="#DejaVuSans-20" transform="translate(507.617188 0)"/>
      <use xlink:href="#DejaVuSans-5b" transform="translate(539.404297 0)"/>
      <use xlink:href="#DejaVuSans-6b" transform="translate(578.417969 0)"/>
      <use xlink:href="#DejaVuSans-6d" transform="translate(636.328125 0)"/>
      <use xlink:href="#DejaVuSans-5d" transform="translate(733.740234 0)"/>
     </g>
    </g>
   </g>
   <g id="matplotlib.axis_2">
    <g id="ytick_1">
     <g id="line2d_11">
      <path d="M 56.09 245.402651 
L 709.2 245.402651 
" clip-path="url(#p9ef705d99e)" style="fill: none; stroke: #b0b0b0; stroke-opacity: 0.3; stroke-width: 0.8; stroke-linecap: square"/>
     </g>
     <g id="line2d_12">
      <defs>
       <path id="m5c370bec22" d="M 0 0 
L -3.5 0 
" style="stroke: #000000; stroke-width: 0.8"/>
      </defs>
      <g>
       <use xlink:href="#m5c370bec22" x="56.09" y="245.402651" style="stroke: #000000; stroke-width: 0.8"/>
      </g>
     </g>
     <g id="text_7">
      <!-- −1.5 -->
      <g transform="translate(24.807188 249.20187) scale(0.1 -0.1)">
       <defs>
        <path id="DejaVuSans-2212" d="M 678 2272 
L 4684 2272 
L 4684 1741 
L 678 1741 
L 678 2272 
z
" transform="scale(0.015625)"/>
       </defs>
       <use xlink:href="#DejaVuSans-2212"/>
       <use xlink:href="#DejaVuSans-31" transform="translate(83.789062 0)"/>
       <use xlink:href="#DejaVuSans-2e" transform="translate(147.412109 0)"/>
       <use xlink:href="#DejaVuSans-35" transform="translate(179.199219 0)"/>
      </g>
     </g>
    </g>
    <g id="ytick_2">
     <g id="line2d_13">
      <path d="M 56.09 209.249496 
L 709.2 209.249496 
" clip-path="url(#p9ef705d99e)" style="fill: none; stroke: #b0b0b0; stroke-opacity: 0.3; stroke-width: 0.8; stroke-linecap: square"/>
     </g>
     <g id="line2d_14">
      <g>
       <use xlink:href="#m5c370bec22" x="56.09" y="209.249496" style="stroke: #000000; stroke-width: 0.8"/>
      </g>
     </g>
     <g id="text_8">
      <!-- −1.0 -->
      <g transform="translate(24.807188 213.048714) scale(0.1 -0.1)">
       <use xlink:href="#DejaVuSans-2212"/>
       <use xlink:href="#DejaVuSans-31" transform="translate(83.789062 0)"/>
       <use xlink:href="#DejaVuSans-2e" transform="translate(147.412109 0)"/>
       <use xlink:href="#DejaVuSans-30" transform="translate(179.199219 0)"/>
      </g>
     </g>
    </g>
    <g id="ytick_3">
     <g id="line2d_15">
      <path d="M 56.09 173.09634 
L 709.2 173.09634 
" clip-path="url(#p9ef705d99e)" style="fill: none; stroke: #b0b0b0; stroke-opacity: 0.3; stroke-width: 0.8; stroke-linecap: square"/>
     </g>
     <g id="line2d_16">
      <g>
       <use xlink:href="#m5c370bec22" x="56.09" y="173.09634" style="stroke: #000000; stroke-width: 0.8"/>
      </g>
     </g>
     <g id="text_9">
      <!-- −0.5 -->
      <g transform="translate(24.807188 176.895559) scale(0.1 -0.1)">
       <use xlink:href="#DejaVuSans-2212"/>
       <use xlink:href="#DejaVuSans-30" transform="translate(83.789062 0)"/>
       <use xlink:href="#DejaVuSans-2e" transform="translate(147.412109 0)"/>
       <use xlink:href="#DejaVuSans-35" transform="translate(179.199219 0)"/>
      </g>
     </g>
    </g>
    <g id="ytick_4">
     <g id="line2d_17">
      <path d="M 56.09 136.943185 
L 709.2 136.943185 
" clip-path="url(#p9ef705d99e)" style="fill: none; stroke: #b0b0b0; stroke-opacity: 0.3; stroke-width: 0.8; stroke-linecap: square"/>
     </g>
     <g id="line2d_18">
      <g>
       <use xlink:href="#m5c370bec22" x="56.09" y="136.943185" style="stroke: #000000; stroke-width: 0.8"/>
      </g>
     </g>
     <g id="text_10">
      <!-- 0.0 -->
      <g transform="translate(33.186875 140.742403) scale(0.1 -0.1)">
       <use xlink:href="#DejaVuSans-30"/>
       <use xlink:href="#DejaVuSans-2e" transform="translate(63.623047 0)"/>
       <use xlink:href="#DejaVuSans-30" transform="translate(95.410156 0)"/>
      </g>
     </g>
    </g>
    <g id="ytick_5">
     <g id="line2d_19">
      <path d="M 56.09 100.790029 
L 709.2 100.790029 
" clip-path="url(#p9ef705d99e)" style="fill: none; stroke: #b0b0b0; stroke-opacity: 0.3; stroke-width: 0.8; stroke-linecap: square"/>
     </g>
     <g id="line2d_20">
      <g>
       <use xlink:href="#m5c370bec22" x="56.09" y="100.790029" style="stroke: #000000; stroke-width: 0.8"/>
      </g>
     </g>
     <g id="text_11">
      <!-- 0.5 -->
      <g transform="translate(33.186875 104.589248) scale(0.1 -0.1)">
       <use xlink:href="#DejaVuSans-30"/>
       <use xlink:href="#DejaVuSans-2e" transform="translate(63.623047 0)"/>
       <use xlink:href="#DejaVuSans-35" transform="translate(95.410156 0)"/>
      </g>
     </g>
    </g>
    <g id="ytick_6">
     <g id="line2d_21">
      <path d="M 56.09 64.636874 
L 709.2 64.636874 
" clip-path="url(#p9ef705d99e)" style="fill: none; stroke: #b0b0b0; stroke-opacity: 0.3; stroke-width: 0.8; stroke-linecap: square"/>
     </g>
     <g id="line2d_22">
      <g>
       <use xlink:href="#m5c370bec22" x="56.09" y="64.636874" style="stroke: #000000; stroke-width: 0.8"/>
      </g>
     </g>
     <g id="text_12">
      <!-- 1.0 -->
      <g transform="translate(33.186875 68.436092) scale(0.1 -0.1)">
       <use xlink:href="#DejaVuSans-31"/>
       <use xlink:href="#DejaVuSans-2e" transform="translate(63.623047 0)"/>
       <use xlink:href="#DejaVuSans-30" transform="translate(95.410156 0)"/>
      </g>
     </g>
    </g>
    <g id="ytick_7">
     <g id="line2d_23">
      <path d="M 56.09 28.483718 
L 709.2 28.483718 
" clip-path="url(#p9ef705d99e)" style="fill: none; stroke: #b0b0b0; stroke-opacity: 0.3; stroke-width: 0.8; stroke-linecap: square"/>
     </g>
     <g id="line2d_24">
      <g>
       <use xlink:href="#m5c370bec22" x="56.09" y="28.483718" style="stroke: #000000; stroke-width: 0.8"/>
      </g>
     </g>
     <g id="text_13">
      <!-- 1.5 -->
      <g transform="translate(33.186875 32.282937) scale(0.1 -0.1)">
       <use xlink:href="#DejaVuSans-31"/>
       <use xlink:href="#DejaVuSans-2e" transform="translate(63.623047 0)"/>
       <use xlink:href="#DejaVuSans-35" transform="translate(95.410156 0)"/>
      </g>
     </g>
    </g>
    <g id="text_14">
     <!-- tie-rod force [kN] -->
     <g transform="translate(18.7275 179.170156) rotate(-90) scale(0.1 -0.1)">
      <defs>
       <path id="DejaVuSans-2d" d="M 313 2009 
L 1997 2009 
L 1997 1497 
L 313 1497 
L 313 2009 
z
" transform="scale(0.015625)"/>
       <path id="DejaVuSans-72" d="M 2631 2963 
Q 2534 3019 2420 3045 
Q 2306 3072 2169 3072 
Q 1681 3072 1420 2755 
Q 1159 2438 1159 1844 
L 1159 0 
L 581 0 
L 581 3500 
L 1159 3500 
L 1159 2956 
Q 1341 3275 1631 3429 
Q 1922 3584 2338 3584 
Q 2397 3584 2469 3576 
Q 2541 3569 2628 3553 
L 2631 2963 
z
" transform="scale(0.015625)"/>
       <path id="DejaVuSans-6f" d="M 1959 3097 
Q 1497 3097 1228 2736 
Q 959 2375 959 1747 
Q 959 1119 1226 758 
Q 1494 397 1959 397 
Q 2419 397 2687 759 
Q 2956 1122 2956 1747 
Q 2956 2369 2687 2733 
Q 2419 3097 1959 3097 
z
M 1959 3584 
Q 2709 3584 3137 3096 
Q 3566 2609 3566 1747 
Q 3566 888 3137 398 
Q 2709 -91 1959 -91 
Q 1206 -91 779 398 
Q 353 888 353 1747 
Q 353 2609 779 3096 
Q 1206 3584 1959 3584 
z
" transform="scale(0.015625)"/>
       <path id="DejaVuSans-66" d="M 2375 4863 
L 2375 4384 
L 1825 4384 
Q 1516 4384 1395 4259 
Q 1275 4134 1275 3809 
L 1275 3500 
L 2222 3500 
L 2222 3053 
L 1275 3053 
L 1275 0 
L 697 0 
L 697 3053 
L 147 3053 
L 147 3500 
L 697 3500 
L 697 3744 
Q 697 4328 969 4595 
Q 1241 4863 1831 4863 
L 2375 4863 
z
" transform="scale(0.015625)"/>
       <path id="DejaVuSans-4e" d="M 628 4666 
L 1478 4666 
L 3547 763 
L 3547 4666 
L 4159 4666 
L 4159 0 
L 3309 0 
L 1241 3903 
L 1241 0 
L 628 0 
L 628 4666 
z
" transform="scale(0.015625)"/>
      </defs>
      <use xlink:href="#DejaVuSans-74"/>
      <use xlink:href="#DejaVuSans-69" transform="translate(39.208984 0)"/>
      <use xlink:href="#DejaVuSans-65" transform="translate(66.992188 0)"/>
      <use xlink:href="#DejaVuSans-2d" transform="translate(128.515625 0)"/>
      <use xlink:href="#DejaVuSans-72" transform="translate(164.599609 0)"/>
      <use xlink:href="#DejaVuSans-6f" transform="translate(203.462891 0)"/>
      <use xlink:href="#DejaVuSans-64" transform="translate(264.644531 0)"/>
      <use xlink:href="#DejaVuSans-20" transform="translate(328.121094 0)"/>
      <use xlink:href="#DejaVuSans-66" transform="translate(359.908203 0)"/>
      <use xlink:href="#DejaVuSans-6f" transform="translate(395.113281 0)"/>
      <use xlink:href="#DejaVuSans-72" transform="translate(456.294922 0)"/>
      <use xlink:href="#DejaVuSans-63" transform="translate(495.158203 0)"/>
      <use xlink:href="#DejaVuSans-65" transform="translate(550.138672 0)"/>
      <use xlink:href="#DejaVuSans-20" transform="translate(611.662109 0)"/>
      <use xlink:href="#DejaVuSans-5b" transform="translate(643.449219 0)"/>
      <use xlink:href="#DejaVuSans-6b" transform="translate(682.462891 0)"/>
      <use xlink:href="#DejaVuSans-4e" transform="translate(740.373047 0)"/>
      <use xlink:href="#DejaVuSans-5d" transform="translate(815.177734 0)"/>
     </g>
    </g>
   </g>
   <g id="line2d_25">
    <path d="M 85.776818 136.943185 
L 86.320602 152.285225 
L 86.865676 154.353229 
L 87.412032 140.055352 
L 87.959684 121.856373 
L 88.508611 116.934336 
L 89.058794 124.261363 
L 89.610259 141.521933 
L 90.163014 150.963417 
L 90.717039 146.323855 
L 91.272334 128.346852 
L 91.828892 116.272193 
L 92.386665 114.324047 
L 92.945623 119.549267 
L 94.067164 142.737281 
L 94.629749 141.072702 
L 95.193529 128.229257 
L 95.758485 118.880781 
L 96.324573 116.779856 
L 96.891768 120.714883 
L 98.029574 144.280004 
L 98.600238 145.615315 
L 99.74488 123.625776 
L 100.318106 120.128621 
L 100.891206 125.956844 
L 101.46374 141.788733 
L 102.035312 152.882374 
L 102.60553 153.406421 
L 103.17404 143.536194 
L 103.740519 130.020636 
L 104.304639 127.016209 
L 104.866097 137.343313 
L 105.424631 153.05045 
L 105.979981 161.974219 
L 106.53188 161.987599 
L 107.080093 153.793717 
L 107.624406 142.447587 
L 108.164608 137.955509 
L 108.700496 145.504921 
L 109.231885 158.240635 
L 109.758581 167.569755 
L 110.280389 170.423064 
L 110.797141 166.627312 
L 111.814836 150.746019 
L 112.315494 150.28725 
L 112.810488 157.672088 
L 113.299659 167.587117 
L 113.782864 174.910292 
L 114.26003 177.9682 
L 114.731157 176.688933 
L 115.196307 171.757381 
L 115.655578 165.369453 
L 116.109136 161.590856 
L 116.557194 163.713962 
L 117.870342 183.379304 
L 118.298363 185.571886 
L 118.721955 184.891957 
L 119.557079 180.579577 
L 119.969204 180.684587 
L 120.378113 183.129542 
L 121.588947 193.131661 
L 121.988498 195.772649 
L 122.386709 199.277844 
L 123.97304 218.312447 
L 124.763841 223.46158 
L 125.942263 229.668523 
L 126.714897 232.775071 
L 127.47237 234.613292 
L 128.213963 235.632865 
L 128.579138 235.935574 
L 128.940971 236.078182 
L 129.299852 236.056128 
L 129.656172 235.86193 
L 130.0103 235.496749 
L 130.713293 234.283019 
L 131.41109 232.533036 
L 133.140617 227.798505 
L 133.827576 226.526664 
L 134.51237 225.722735 
L 135.195774 225.252659 
L 137.600107 224.069131 
L 138.645056 223.124429 
L 139.347723 222.228802 
L 140.056126 220.891719 
L 140.412735 219.875827 
L 140.771078 218.488537 
L 141.493405 214.296315 
L 143.707721 197.934841 
L 144.836927 193.398015 
L 145.215874 191.296146 
L 145.977281 185.229313 
L 146.359687 182.105834 
L 146.743171 180.446561 
L 147.127669 181.26565 
L 147.899486 188.132302 
L 148.674725 194.435576 
L 149.452959 197.851584 
L 150.233701 201.209273 
L 152.19197 213.105058 
L 152.9757 216.481525 
L 153.758553 218.896065 
L 154.540245 220.424651 
L 155.32076 221.496244 
L 156.489945 222.624165 
L 157.658627 223.405332 
L 158.828276 223.907991 
L 159.610299 224.033889 
L 161.183311 224.084694 
L 163.562764 224.804651 
L 164.357802 224.979305 
L 165.153272 224.834669 
L 165.551426 224.614795 
L 165.950137 224.26589 
L 166.349592 223.7038 
L 166.749913 222.821929 
L 167.553455 220.194225 
L 169.994259 211.832092 
L 170.406317 210.823508 
L 170.820053 210.28943 
L 171.652567 209.764966 
L 172.07138 209.273138 
L 173.763513 206.42579 
L 174.190554 206.042585 
L 175.049038 205.767254 
L 175.480378 205.795958 
L 175.913037 206.058692 
L 176.346965 206.703293 
L 177.21844 208.415689 
L 177.655902 208.937984 
L 178.09447 209.183929 
L 178.974878 209.244138 
L 179.859754 209.111579 
L 181.642756 208.593615 
L 182.091122 208.942456 
L 183.441832 211.225457 
L 183.893891 211.641456 
L 184.800766 212.03839 
L 185.255667 212.044179 
L 185.711566 211.858303 
L 186.168436 211.416011 
L 186.626285 210.666044 
L 188.005767 207.434333 
L 188.467578 207.085443 
L 189.85907 207.164366 
L 190.325126 206.815561 
L 190.792562 205.847826 
L 191.261491 203.920078 
L 191.731998 200.575766 
L 192.204192 195.181369 
L 193.631385 171.560014 
L 194.110235 169.610101 
L 194.590512 171.553364 
L 195.07225 174.258736 
L 195.555447 175.264257 
L 196.040212 173.218103 
L 196.52674 166.993619 
L 197.505599 143.430202 
L 197.998005 137.223997 
L 198.492401 141.155388 
L 198.988723 149.55525 
L 199.486872 154.67341 
L 199.986754 152.945887 
L 200.488302 144.128306 
L 200.991494 132.496672 
L 201.496319 127.810657 
L 202.002753 131.76239 
L 202.510786 141.017737 
L 203.020404 146.615756 
L 203.531587 144.964026 
L 204.558636 129.092367 
L 205.074495 128.037949 
L 205.591898 133.762043 
L 206.110837 142.28248 
L 206.631294 145.940273 
L 207.153255 142.808557 
L 207.676716 134.779241 
L 208.201676 129.242462 
L 208.728128 130.018832 
L 209.785469 143.016436 
L 210.316335 144.143106 
L 210.84865 138.988664 
L 211.382416 131.213998 
L 211.917627 127.564207 
L 212.454276 129.547612 
L 212.992357 135.417261 
L 213.531864 140.015762 
L 214.072785 138.743952 
L 215.15885 126.412808 
L 215.703977 124.593242 
L 216.250485 126.984699 
L 216.798366 131.656586 
L 217.347614 134.600374 
L 217.898215 132.645311 
L 218.45015 127.581852 
L 219.003394 123.574359 
L 219.557918 122.639607 
L 220.113676 124.561777 
L 220.670621 127.443005 
L 221.228703 128.051673 
L 221.787868 125.016843 
L 222.34792 120.590944 
L 222.908532 117.408181 
L 223.469411 116.271129 
L 224.030296 116.797898 
L 224.590906 118.133589 
L 225.150938 118.978355 
L 225.710074 118.368433 
L 226.267985 117.297356 
L 226.824324 117.216456 
L 227.37875 118.128189 
L 229.028988 121.827903 
L 230.117381 123.57513 
L 231.195007 124.651298 
L 232.259459 125.241377 
L 233.309495 125.555049 
L 234.857523 125.969179 
L 235.87193 126.588713 
L 238.828132 129.217444 
L 239.783778 129.674955 
L 241.649438 130.016894 
L 242.560155 129.99806 
L 243.902152 129.842582 
L 244.783586 130.038789 
L 245.220981 130.316495 
L 246.090034 131.269591 
L 246.952259 132.652718 
L 248.659903 135.628524 
L 258.300978 135.527281 
L 259.584992 129.196555 
L 260.01657 127.116824 
L 260.450092 126.000563 
L 260.885651 128.599365 
L 261.323323 137.24633 
L 261.763139 142.077638 
L 262.205082 136.519491 
L 262.649122 125.954522 
L 263.09521 120.621355 
L 263.543302 121.142498 
L 263.993391 128.738819 
L 264.445479 141.770946 
L 264.899535 146.642197 
L 265.355504 140.624679 
L 265.813349 128.089284 
L 266.27304 122.269571 
L 266.734556 124.699534 
L 267.66307 145.425415 
L 268.130062 147.748009 
L 268.598858 141.580894 
L 269.069463 131.060211 
L 269.541874 126.921117 
L 270.016079 131.649947 
L 270.492071 143.347994 
L 270.96978 151.461817 
L 271.448929 152.584147 
L 271.929214 147.10237 
L 272.410509 138.822007 
L 272.892744 135.920947 
L 273.375848 142.050811 
L 273.859757 151.443423 
L 274.344412 157.591147 
L 274.829782 158.433035 
L 275.315866 154.504454 
L 275.802694 148.848882 
L 276.290319 146.933413 
L 276.778802 151.713499 
L 277.758524 166.716147 
L 278.249847 170.62033 
L 278.742198 172.112989 
L 279.235622 172.85925 
L 279.730094 174.585039 
L 280.225474 177.876396 
L 280.721508 182.628321 
L 283.190561 211.598394 
L 284.162221 218.847598 
L 285.121836 224.109478 
L 286.069781 227.979679 
L 287.007305 230.561472 
L 287.935776 232.220779 
L 288.856389 233.255006 
L 289.314132 233.511332 
L 289.770378 233.602872 
L 290.225295 233.537896 
L 291.131735 233.031302 
L 293.375248 231.272607 
L 293.818551 231.096175 
L 294.259779 231.050709 
L 294.699121 231.155313 
L 295.572739 231.7136 
L 298.156612 233.708292 
L 299.003419 234.144619 
L 299.423903 234.131226 
L 299.8426 233.950127 
L 300.675115 233.200245 
L 301.501418 232.023526 
L 303.136598 228.902024 
L 303.947149 227.018447 
L 305.961252 221.495695 
L 306.764628 219.296697 
L 307.568142 216.747383 
L 307.970248 215.971105 
L 308.372715 215.855763 
L 311.202861 218.517018 
L 312.421678 220.045756 
L 315.676258 222.324834 
L 316.892633 222.638705 
L 318.908615 222.795582 
L 319.71541 222.626009 
L 320.119748 222.376259 
L 320.524874 221.9337 
L 320.93086 221.232438 
L 321.337785 220.205066 
L 321.745744 218.79258 
L 322.565208 214.715888 
L 323.804779 206.256994 
L 324.639444 198.324457 
L 325.481978 186.373811 
L 326.33321 167.88722 
L 327.193903 146.034573 
L 327.627946 139.267973 
L 328.064444 137.506456 
L 328.503354 137.877562 
L 328.944607 135.976011 
L 329.833699 124.80875 
L 330.281299 121.769206 
L 330.730824 121.673812 
L 331.18221 123.434588 
L 331.635424 125.718805 
L 332.090497 126.879906 
L 332.547481 125.900538 
L 333.467174 122.054024 
L 333.929865 121.620969 
L 334.394449 122.293592 
L 335.329203 125.056042 
L 335.799247 125.821059 
L 336.271015 125.425465 
L 337.696836 121.531825 
L 338.175639 121.307366 
L 339.138648 121.456155 
L 339.622711 121.292399 
L 340.594688 120.602813 
L 341.081665 120.524489 
L 342.541841 120.779235 
L 343.51172 120.639958 
L 345.913062 120.009678 
L 346.388724 120.134747 
L 346.86285 120.411455 
L 347.806599 121.379203 
L 348.744465 122.794043 
L 353.353393 130.741134 
L 356.501547 135.306857 
L 356.945064 135.628524 
L 370.032288 135.548405 
L 372.567439 130.709971 
L 373.808502 128.633442 
L 374.625292 127.745331 
L 375.434612 127.25914 
L 376.237685 127.02474 
L 378.621972 126.532125 
L 380.20281 125.966019 
L 380.995993 125.868178 
L 381.394347 125.945025 
L 381.794091 126.149578 
L 382.195349 126.521849 
L 383.001904 127.816305 
L 383.810413 129.658033 
L 386.210139 135.628524 
L 391.326796 135.634841 
L 391.724281 135.171034 
L 392.524597 132.227224 
L 392.927286 131.282017 
L 393.331074 130.927238 
L 393.735442 132.217364 
L 394.139945 137.129991 
L 394.947676 151.830956 
L 395.350127 156.458682 
L 395.751211 158.501018 
L 396.548377 159.109625 
L 396.94413 160.726086 
L 397.729509 166.548634 
L 398.119085 168.326235 
L 398.506631 168.638756 
L 398.892248 168.019245 
L 399.276065 167.175592 
L 399.658246 166.658623 
L 400.038989 166.822285 
L 401.175405 169.275363 
L 401.553486 170.4175 
L 402.310987 175.14154 
L 403.072363 179.586806 
L 403.838864 183.280346 
L 404.223958 186.305107 
L 404.996888 196.03471 
L 406.154971 212.732742 
L 406.918456 219.845365 
L 407.669941 224.678769 
L 408.407465 228.200279 
L 409.131879 230.611661 
L 409.845232 231.919914 
L 410.198505 232.250839 
L 410.549947 232.387671 
L 410.899814 232.33491 
L 411.248309 232.102307 
L 411.941865 231.18284 
L 412.975616 229.164649 
L 414.002399 227.17707 
L 414.682858 226.191714 
L 415.360245 225.541589 
L 416.035272 225.194293 
L 418.054653 224.518733 
L 419.066034 223.846654 
L 420.760698 222.349179 
L 422.129611 221.27787 
L 423.516701 220.459802 
L 423.867323 219.927512 
L 424.219805 218.904815 
L 424.574303 217.011363 
L 424.930963 213.754975 
L 425.289945 208.664496 
L 426.751043 179.77131 
L 427.874194 170.027144 
L 428.253917 162.432624 
L 429.021478 137.952654 
L 429.409286 131.858255 
L 429.79972 134.983717 
L 430.192742 142.442822 
L 430.588315 146.368753 
L 430.986402 144.023677 
L 431.789946 130.162338 
L 432.195309 129.636024 
L 432.602989 135.036156 
L 433.012924 142.777867 
L 433.42504 146.667888 
L 433.839246 145.571209 
L 434.67366 137.657433 
L 435.093847 139.242075 
L 435.940192 150.263807 
L 436.366457 152.470077 
L 436.794933 150.743989 
L 437.658715 142.384421 
L 438.09401 142.541239 
L 438.971349 149.904536 
L 439.413328 150.788 
L 439.857426 148.149131 
L 440.751734 139.028232 
L 441.201866 138.446428 
L 442.10799 143.67795 
L 442.56394 143.823647 
L 443.021796 140.867633 
L 443.481546 136.412854 
L 443.943178 133.741789 
L 444.406678 134.379751 
L 445.33924 139.570709 
L 445.808277 139.279569 
L 446.751806 133.683525 
L 447.226275 133.03171 
L 447.70253 135.060906 
L 448.180561 138.28848 
L 448.660357 140.217717 
L 449.141903 139.843257 
L 449.625114 137.930382 
L 450.109662 136.655117 
L 450.595099 137.795209 
L 451.56691 144.023133 
L 452.052469 145.706672 
L 452.537301 145.586752 
L 453.021041 144.772946 
L 453.503316 145.077624 
L 453.983743 147.406878 
L 454.937579 154.555618 
L 455.410319 156.70657 
L 455.879875 157.486681 
L 456.345991 157.772176 
L 456.808454 158.582498 
L 457.267091 160.338268 
L 459.059534 169.989758 
L 460.35477 173.662213 
L 462.417087 183.778168 
L 463.210623 186.027054 
L 464.370581 188.468143 
L 464.749802 189.217494 
L 465.125676 189.704282 
L 465.868451 190.304218 
L 466.235984 190.77384 
L 466.601488 191.566681 
L 466.965475 192.834711 
L 467.690808 196.808417 
L 468.415442 202.517029 
L 470.600329 223.066968 
L 471.323821 227.679277 
L 472.037144 231.166968 
L 472.736677 233.289636 
L 473.080737 233.865677 
L 473.42109 234.191567 
L 473.757887 234.351157 
L 474.091318 234.34102 
L 474.421636 234.149997 
L 474.74915 233.78268 
L 475.396983 232.573239 
L 476.354923 229.950742 
L 477.616136 226.431052 
L 478.243396 225.180861 
L 478.870386 224.327073 
L 479.812705 223.532886 
L 481.711273 222.153349 
L 483.646345 220.463123 
L 483.974792 220.005405 
L 484.305285 219.226677 
L 484.637963 217.780146 
L 484.972976 215.093276 
L 485.310473 210.486593 
L 486.686186 182.728867 
L 487.036405 181.351178 
L 487.389194 181.582426 
L 487.744541 181.383637 
L 488.102471 179.403016 
L 488.463043 174.660602 
L 489.560841 148.719078 
L 489.932002 149.279314 
L 490.681737 163.052737 
L 491.060154 166.542664 
L 491.440828 166.082501 
L 492.208519 158.705573 
L 492.59536 157.806062 
L 492.984154 160.934164 
L 493.767475 170.513235 
L 494.16196 173.479367 
L 494.558384 174.629175 
L 494.956862 173.901734 
L 495.760233 169.443287 
L 496.165075 168.84692 
L 496.572015 170.346199 
L 497.392178 175.169487 
L 497.80536 176.143527 
L 498.2206 175.480722 
L 498.637941 173.114929 
L 499.479335 164.389955 
L 499.903527 160.018004 
L 500.330024 157.606279 
L 500.758793 157.443684 
L 501.189748 158.328483 
L 501.62272 158.750952 
L 502.057576 157.705996 
L 502.494278 154.787108 
L 503.373195 147.103769 
L 503.815398 146.017191 
L 504.259442 147.607294 
L 504.705381 149.96483 
L 505.153322 150.684037 
L 505.603347 148.690496 
L 506.509778 141.094923 
L 506.966207 139.882457 
L 507.424724 141.472752 
L 507.885276 143.848864 
L 508.347819 144.490618 
L 508.812296 142.486301 
L 509.746879 135.775718 
L 510.216931 135.372863 
L 511.162452 139.449883 
L 511.63789 139.645396 
L 512.115093 137.614203 
L 512.59405 134.824277 
L 513.074747 133.489891 
L 513.55717 134.457313 
L 514.527118 139.118913 
L 515.014615 139.422636 
L 515.994608 136.797102 
L 516.48711 136.818819 
L 516.981285 138.672983 
L 517.477139 141.058672 
L 517.974674 142.168408 
L 518.473891 141.259917 
L 518.974781 139.126251 
L 519.477336 137.543605 
L 519.981545 137.716771 
L 520.994844 140.719355 
L 521.503898 140.726479 
L 522.014531 139.123911 
L 522.526731 136.914819 
L 523.040488 135.603622 
L 523.555792 135.961105 
L 524.072633 137.366008 
L 524.591002 138.357888 
L 525.110891 137.908938 
L 526.155195 134.642305 
L 526.679594 134.310292 
L 527.205479 135.428243 
L 527.732843 137.207834 
L 528.261676 138.401265 
L 528.791974 138.336093 
L 529.323728 137.444607 
L 529.856932 136.951891 
L 530.391577 137.855247 
L 531.465142 141.614543 
L 532.00404 141.826672 
L 533.086025 138.80377 
L 533.629103 138.486187 
L 534.173563 139.835477 
L 534.719403 141.635049 
L 535.266613 142.415738 
L 535.815187 141.557936 
L 536.91639 138.110318 
L 537.469004 138.063048 
L 538.578219 140.571408 
L 539.134806 140.75403 
L 539.692702 139.554162 
L 540.2519 137.755569 
L 540.812394 136.722889 
L 541.374177 137.254191 
L 542.501574 140.384931 
L 543.067174 141.150597 
L 544.202136 141.37368 
L 544.771478 142.407417 
L 545.913803 146.435512 
L 546.486754 147.301004 
L 547.060892 146.219922 
L 547.636221 144.450172 
L 548.212751 143.818925 
L 548.790491 145.021864 
L 549.36945 147.007076 
L 549.949622 148.253189 
L 550.530988 148.101085 
L 551.113534 146.645583 
L 551.69725 144.628472 
L 552.282127 143.237453 
L 552.868156 143.309216 
L 554.043638 145.529684 
L 554.633074 145.376286 
L 555.223631 143.89508 
L 555.815303 141.962614 
L 556.408085 140.677106 
L 557.001972 140.866429 
L 558.193044 143.39686 
L 558.790237 144.397602 
L 559.388558 145.642763 
L 559.988029 147.42103 
L 561.793336 155.32589 
L 562.39722 156.31889 
L 563.002024 155.30722 
L 563.607716 152.978628 
L 564.214307 151.325784 
L 564.821827 151.708058 
L 566.650268 157.452023 
L 567.261695 157.727363 
L 567.874063 156.903127 
L 568.48736 155.592645 
L 569.101567 155.17956 
L 569.716666 156.470761 
L 570.332633 158.651164 
L 570.949455 159.981701 
L 571.567162 158.572525 
L 572.805358 150.975771 
L 573.425931 149.637271 
L 574.047538 151.10529 
L 575.293746 156.003616 
L 575.918208 156.711714 
L 576.543529 154.997909 
L 577.796722 147.674165 
L 578.424588 147.214555 
L 579.683028 152.431067 
L 580.313704 152.54604 
L 580.945387 149.972741 
L 581.578076 146.349601 
L 582.211762 144.126992 
L 582.84643 144.713775 
L 584.11855 149.972607 
L 584.755927 150.356662 
L 585.394144 148.213639 
L 586.033173 145.322538 
L 586.673006 144.596713 
L 587.313651 147.110806 
L 587.955117 151.140444 
L 588.597412 154.299588 
L 589.240569 154.868346 
L 589.884624 152.335279 
L 590.529592 148.27338 
L 591.175473 145.744339 
L 591.822238 147.26884 
L 593.118262 155.881976 
L 593.767439 157.443961 
L 594.417352 156.405063 
L 595.068022 154.266246 
L 595.719496 152.940894 
L 596.371818 153.832785 
L 597.679071 160.01434 
L 598.333968 161.695459 
L 598.989675 161.937497 
L 599.646163 161.844071 
L 600.303401 162.698897 
L 600.961341 165.721484 
L 602.278956 174.678112 
L 602.938386 177.584221 
L 603.598104 178.978846 
L 604.258073 178.92823 
L 604.918327 177.340304 
L 605.578947 175.118889 
L 606.240049 173.438651 
L 606.901765 172.897839 
L 607.5642 173.281489 
L 609.55562 175.594331 
L 610.220572 174.604634 
L 610.886031 171.462295 
L 611.552008 166.489982 
L 612.885858 155.33512 
L 613.553926 152.045674 
L 614.222828 151.564644 
L 614.892555 153.046885 
L 615.563092 153.980226 
L 616.23441 152.186198 
L 616.906477 147.310033 
L 617.579278 141.137298 
L 618.252814 136.984484 
L 618.927086 137.032305 
L 619.602097 139.841184 
L 620.277845 141.66519 
L 620.954329 139.94119 
L 622.309511 130.272191 
L 622.98821 129.151526 
L 623.667644 131.664078 
L 624.347812 135.693197 
L 625.028709 137.598254 
L 625.710323 135.41919 
L 626.392446 131.100075 
L 627.074576 128.326617 
L 627.756216 129.227525 
L 628.436909 133.300396 
L 629.116208 136.644631 
L 629.793694 134.569648 
L 631.141716 121.486568 
L 631.81152 118.340966 
L 632.478084 118.969857 
L 633.141204 122.773345 
L 633.800734 127.652561 
L 634.456495 129.27004 
L 635.108283 125.087839 
L 635.755908 118.180227 
L 636.399169 113.129556 
L 637.037803 111.589666 
L 637.67157 113.295474 
L 638.9239 121.130493 
L 639.542242 121.642904 
L 640.155245 118.058188 
L 640.762813 112.997594 
L 641.364853 109.323619 
L 641.961367 108.102324 
L 642.552466 109.105913 
L 643.719229 113.23616 
L 644.295414 113.599292 
L 644.867117 112.429912 
L 645.434554 110.950894 
L 645.997915 110.320684 
L 646.557325 110.585109 
L 647.112923 111.440095 
L 647.664896 112.542416 
L 648.213487 113.293679 
L 648.759012 113.318634 
L 649.301861 112.833152 
L 649.84245 112.541809 
L 650.381163 112.926046 
L 650.918334 113.885144 
L 651.989156 116.744543 
L 653.588713 122.001547 
L 656.221799 130.792432 
L 657.25236 133.745139 
L 657.761886 135.022376 
L 658.267824 135.628524 
L 667.689348 135.657221 
L 668.692284 131.471396 
L 669.701209 127.244852 
L 670.208271 127.352672 
L 670.71716 133.286066 
L 671.227867 144.376944 
L 671.740366 150.182045 
L 672.254613 149.571502 
L 673.288152 139.051505 
L 673.807367 142.357616 
L 674.85055 158.600971 
L 675.374472 161.14888 
L 675.899911 157.948039 
L 676.955287 141.401858 
L 677.485198 138.718263 
L 678.016571 143.301543 
L 678.549398 149.479705 
L 679.08367 151.600731 
L 679.513182 148.750542 
L 679.513182 148.750542 
" clip-path="url(#p9ef705d99e)" style="fill: none; stroke: #2ca02c; stroke-width: 0.9; stroke-linecap: square"/>
   </g>
   <g id="line2d_26">
    <path d="M 85.776818 136.943185 
L 86.320602 152.098 
L 86.865676 153.591788 
L 87.412032 139.914235 
L 87.959684 122.704913 
L 88.508611 117.721756 
L 89.058794 124.373686 
L 89.610259 141.466683 
L 90.163014 150.957131 
L 90.717039 146.383655 
L 91.272334 128.082123 
L 91.828892 114.222132 
L 92.386665 110.308796 
L 92.945623 116.032759 
L 94.067164 143.729598 
L 94.629749 141.696925 
L 95.758485 114.132607 
L 96.324573 110.304975 
L 96.891768 115.91988 
L 98.029574 145.654434 
L 98.600238 146.929438 
L 99.74488 121.77556 
L 100.318106 117.7028 
L 100.891206 124.798378 
L 101.46374 142.086643 
L 102.035312 153.629902 
L 102.60553 153.642079 
L 103.17404 143.495682 
L 103.740519 130.067845 
L 104.304639 127.113923 
L 104.866097 137.33842 
L 105.424631 152.628117 
L 105.979981 160.630731 
L 106.53188 160.319997 
L 107.080093 152.947894 
L 107.624406 142.380863 
L 108.164608 138.020756 
L 108.700496 145.345151 
L 109.231885 156.922948 
L 109.758581 164.355647 
L 110.280389 166.165336 
L 110.797141 163.214453 
L 111.814836 150.281292 
L 112.315494 149.90278 
L 113.782864 168.118314 
L 114.26003 169.356581 
L 114.731157 168.260396 
L 115.196307 165.247586 
L 115.655578 161.137886 
L 116.109136 158.456031 
L 116.557194 159.712752 
L 117.437615 166.342492 
L 117.870342 167.223962 
L 118.298363 166.705159 
L 119.969204 162.151328 
L 120.378113 161.821241 
L 120.784137 161.330946 
L 121.588947 159.257977 
L 123.180744 154.057091 
L 125.551319 145.586201 
L 127.47237 138.370548 
L 128.213963 138.257845 
L 142.962277 138.257845 
L 143.334179 138.48977 
L 144.836927 144.551233 
L 145.596 146.689525 
L 145.977281 147.371792 
L 147.127669 148.594222 
L 147.513125 148.94342 
L 147.899486 149.045332 
L 148.286703 148.873047 
L 149.063496 148.011836 
L 149.843051 146.708576 
L 151.016313 144.076246 
L 152.583909 140.420513 
L 153.758553 138.352225 
L 154.540245 138.257845 
L 170.406317 138.257845 
L 170.820053 138.60178 
L 171.652567 139.805673 
L 172.491914 140.432064 
L 173.338021 140.55483 
L 174.619078 140.205543 
L 175.480378 140.064135 
L 176.346965 140.171902 
L 177.655902 140.425055 
L 178.534127 140.415149 
L 179.416751 140.13067 
L 181.195394 139.255023 
L 182.091122 139.097587 
L 183.441832 139.179772 
L 184.800766 139.305123 
L 185.711566 139.166209 
L 187.085126 138.83701 
L 188.005767 138.926385 
L 188.9304 139.354784 
L 189.85907 140.070741 
L 191.731998 141.886392 
L 193.631385 144.227833 
L 194.110235 145.208576 
L 195.555447 149.931561 
L 196.040212 150.780488 
L 196.52674 150.308588 
L 197.015183 147.105507 
L 197.505599 141.086292 
L 197.998005 137.173731 
L 198.492401 140.00801 
L 198.988723 146.133763 
L 199.486872 149.984694 
L 199.986754 149.253887 
L 200.488302 142.902503 
L 200.991494 133.067308 
L 201.496319 128.721063 
L 202.002753 132.077489 
L 202.510786 140.824373 
L 203.020404 146.19238 
L 203.531587 144.657411 
L 204.558636 129.195795 
L 205.074495 128.024041 
L 205.591898 133.732138 
L 206.110837 142.304399 
L 206.631294 145.895256 
L 207.153255 142.735932 
L 207.676716 134.79595 
L 208.201676 129.273028 
L 208.728128 129.993683 
L 209.785469 143.006623 
L 210.316335 144.081734 
L 210.84865 138.96709 
L 211.382416 131.228742 
L 211.917627 127.469355 
L 212.454276 129.387991 
L 212.992357 135.378455 
L 213.531864 140.09483 
L 214.072785 138.792463 
L 215.15885 125.81449 
L 215.703977 123.592847 
L 216.250485 126.052215 
L 216.798366 131.174682 
L 217.347614 134.406052 
L 217.898215 132.221735 
L 219.003394 121.33606 
L 219.557918 119.814498 
L 220.113676 122.00974 
L 220.670621 125.539867 
L 221.228703 126.224283 
L 221.787868 122.127675 
L 222.908532 109.463968 
L 223.469411 105.842424 
L 224.030296 105.18959 
L 224.590906 106.547467 
L 225.150938 107.042943 
L 225.710074 103.684125 
L 227.931038 76.216464 
L 228.48114 72.50972 
L 229.028988 70.051606 
L 230.657668 64.969632 
L 231.195007 62.411723 
L 233.309495 47.527214 
L 233.829005 45.234032 
L 234.344991 43.557987 
L 234.857523 42.321422 
L 235.87193 40.704584 
L 236.872021 39.833657 
L 239.783778 38.007902 
L 240.724146 37.189852 
L 241.188657 36.932688 
L 241.649438 36.841818 
L 242.560155 37.065353 
L 243.457699 37.607399 
L 245.656412 39.496607 
L 246.521951 40.345031 
L 247.381062 41.61942 
L 248.659903 44.191391 
L 249.084225 44.493145 
L 249.507783 44.468462 
L 250.352874 44.244405 
L 250.774433 44.370063 
L 251.195247 44.771965 
L 252.034087 46.22169 
L 253.28457 48.555196 
L 254.114411 49.408853 
L 254.943726 49.914046 
L 255.359044 50.599026 
L 255.775248 52.271987 
L 256.192608 55.655973 
L 256.611309 61.187257 
L 257.453095 75.024586 
L 257.87626 79.841818 
L 258.300978 81.944789 
L 258.727297 82.087537 
L 259.155271 82.103911 
L 259.584992 83.77936 
L 260.01657 88.795926 
L 260.450092 99.382484 
L 261.323323 137.568805 
L 261.763139 145.134085 
L 262.205082 136.290011 
L 262.649122 121.380805 
L 263.09521 113.841009 
L 263.543302 115.643839 
L 263.993391 126.803168 
L 264.445479 142.569061 
L 264.899535 147.954438 
L 265.355504 140.946892 
L 265.813349 127.213052 
L 266.27304 120.436192 
L 266.734556 123.145972 
L 267.66307 146.156459 
L 268.130062 148.407321 
L 268.598858 141.723078 
L 269.069463 130.85908 
L 269.541874 126.57547 
L 270.016079 131.509064 
L 270.492071 143.400461 
L 270.96978 151.148779 
L 271.448929 151.754134 
L 271.929214 146.428042 
L 272.410509 138.712907 
L 272.892744 136.009438 
L 273.375848 141.674845 
L 273.859757 149.821972 
L 274.344412 154.429447 
L 274.829782 154.57463 
L 275.315866 151.306546 
L 275.802694 146.823696 
L 276.290319 145.254324 
L 276.778802 148.793579 
L 277.26819 154.072055 
L 277.758524 157.327033 
L 278.249847 158.177819 
L 278.742198 157.639206 
L 280.721508 153.853647 
L 283.677876 146.218114 
L 286.539749 139.875115 
L 287.472598 138.257845 
L 302.729749 138.308977 
L 303.947149 139.190747 
L 305.961252 140.875665 
L 307.166307 141.466766 
L 308.372715 141.786066 
L 309.178947 141.78083 
L 310.391892 141.522015 
L 311.202861 141.10159 
L 312.015196 140.382218 
L 314.048826 138.257845 
L 324.221189 138.257845 
L 324.639444 138.875425 
L 325.906458 143.53646 
L 326.33321 144.361583 
L 326.762332 143.706723 
L 327.627946 138.286066 
L 328.064444 137.276917 
L 328.503354 137.605828 
L 328.944607 136.104701 
L 330.281299 120.935434 
L 330.730824 119.470993 
L 331.18221 120.50282 
L 331.635424 122.723073 
L 332.090497 123.783677 
L 332.547481 121.912056 
L 333.467174 114.542796 
L 333.929865 113.134949 
L 334.394449 113.968291 
L 335.329203 118.706001 
L 335.799247 120.019464 
L 336.271015 119.312038 
L 337.696836 111.284806 
L 338.175639 110.35095 
L 338.656251 110.066035 
L 339.138648 109.381536 
L 339.622711 107.868006 
L 341.081665 100.458602 
L 342.055562 97.769928 
L 343.027304 95.424658 
L 344.957054 89.804378 
L 345.913062 86.003917 
L 347.806599 78.33817 
L 351.064577 65.449046 
L 354.260307 52.993255 
L 355.161574 50.774987 
L 356.056494 49.164973 
L 356.945064 48.039418 
L 358.267586 46.728684 
L 359.144731 46.077236 
L 360.020517 45.660293 
L 360.89645 45.459369 
L 362.211702 45.456336 
L 363.963511 45.778839 
L 365.70891 46.488259 
L 369.174707 47.643851 
L 371.72961 48.457019 
L 372.567439 49.08897 
L 373.396988 49.933988 
L 374.2179 51.19287 
L 374.625292 52.204895 
L 375.434612 55.292765 
L 377.035817 62.154358 
L 378.621972 66.924662 
L 379.807431 69.568041 
L 380.598881 72.122239 
L 380.995993 72.779456 
L 381.394347 72.499348 
L 381.794091 70.995633 
L 383.406257 60.099752 
L 384.213759 56.869881 
L 385.016475 54.341917 
L 385.813477 52.456368 
L 386.60572 51.374099 
L 387.000343 51.09319 
L 387.394173 50.977988 
L 387.78744 51.035366 
L 388.180305 51.266453 
L 388.572847 51.683466 
L 388.965138 52.337275 
L 389.357343 53.383142 
L 389.749715 55.138591 
L 390.142567 58.092639 
L 390.536191 62.825951 
L 390.930852 69.951944 
L 391.724281 91.241536 
L 392.524597 111.994674 
L 393.331074 123.643964 
L 393.735442 129.145263 
L 394.947676 153.214989 
L 395.350127 156.581872 
L 395.751211 157.129434 
L 396.548377 155.767968 
L 396.94413 156.25178 
L 397.729509 158.440449 
L 398.119085 158.657217 
L 398.506631 158.205538 
L 399.276065 156.768132 
L 399.658246 156.319194 
L 400.038989 156.244421 
L 401.553486 157.326573 
L 402.310987 158.373964 
L 402.69107 158.477027 
L 403.072363 158.183009 
L 403.838864 157.036186 
L 404.610097 155.442983 
L 405.383731 152.71104 
L 407.669941 143.915159 
L 408.77118 140.384962 
L 409.489799 138.461669 
L 409.845232 138.257845 
L 426.381919 138.208779 
L 426.751043 139.158773 
L 427.874194 145.492991 
L 428.253917 146.134284 
L 428.636345 143.710232 
L 429.021478 137.593445 
L 429.409286 133.374841 
L 429.79972 135.385268 
L 430.192742 141.456468 
L 430.588315 144.981353 
L 430.986402 143.245111 
L 431.789946 130.468396 
L 432.195309 129.771421 
L 432.602989 135.038815 
L 433.012924 142.75152 
L 433.42504 146.512208 
L 433.839246 145.315462 
L 434.67366 137.627446 
L 435.093847 139.133791 
L 435.940192 148.814965 
L 436.366457 150.259917 
L 436.794933 148.514009 
L 437.658715 141.53158 
L 438.09401 141.639439 
L 438.971349 147.363463 
L 439.413328 147.984305 
L 439.857426 146.000494 
L 440.751734 138.74113 
L 441.201866 138.26168 
L 442.10799 142.91027 
L 442.56394 143.108176 
L 443.021796 140.527816 
L 443.481546 136.448901 
L 443.943178 133.912773 
L 444.406678 134.473522 
L 445.33924 139.518651 
L 445.808277 139.247145 
L 446.751806 133.679545 
L 447.226275 132.994979 
L 447.70253 135.035358 
L 448.180561 138.30623 
L 448.660357 140.249585 
L 449.141903 139.855921 
L 449.625114 137.929287 
L 450.109662 136.655069 
L 450.595099 137.791272 
L 451.56691 143.860404 
L 452.052469 145.414493 
L 452.537301 145.237908 
L 453.021041 144.431759 
L 453.503316 144.697733 
L 453.983743 146.84066 
L 454.937579 153.119646 
L 455.410319 154.840925 
L 455.879875 155.376843 
L 456.345991 155.51511 
L 456.808454 156.073147 
L 457.267091 157.324253 
L 458.618138 162.060983 
L 459.059534 162.922515 
L 459.496183 163.315324 
L 459.927956 163.483736 
L 460.35477 163.797093 
L 461.193717 164.695262 
L 461.606073 164.751996 
L 462.013828 164.488735 
L 462.815972 163.521062 
L 465.125676 160.199831 
L 466.235984 159.142743 
L 466.965475 158.525773 
L 467.690808 157.509892 
L 468.415442 155.797957 
L 469.506391 152.324273 
L 470.963085 146.754202 
L 473.080737 138.54264 
L 473.42109 138.257845 
L 486.686186 138.185528 
L 488.463043 147.796853 
L 488.826306 147.6851 
L 489.560841 143.15033 
L 489.932002 143.887897 
L 490.681737 150.931599 
L 491.060154 152.406056 
L 491.440828 152.279932 
L 492.208519 149.212437 
L 492.59536 148.743926 
L 493.767475 152.1352 
L 494.16196 152.058443 
L 494.558384 151.48104 
L 495.760233 148.696032 
L 496.165075 148.292141 
L 496.572015 148.403544 
L 497.392178 149.001529 
L 497.80536 149.150156 
L 498.2206 149.166088 
L 498.637941 148.993989 
L 499.057484 148.533193 
L 499.903527 146.907815 
L 500.330024 146.570538 
L 500.758793 147.038987 
L 501.62272 148.742829 
L 502.057576 148.874211 
L 502.494278 147.96564 
L 503.373195 144.168363 
L 503.815398 143.677848 
L 504.259442 145.019275 
L 504.705381 146.887244 
L 505.153322 147.546557 
L 505.603347 146.204587 
L 506.509778 140.428008 
L 506.966207 139.461674 
L 507.424724 140.851674 
L 507.885276 142.932758 
L 508.347819 143.555042 
L 508.812296 141.88857 
L 509.746879 135.858208 
L 510.216931 135.458151 
L 511.162452 139.360889 
L 511.63789 139.568819 
L 512.115093 137.600643 
L 512.59405 134.849716 
L 513.074747 133.500967 
L 513.55717 134.44736 
L 514.527118 139.134423 
L 515.014615 139.435093 
L 515.994608 136.795702 
L 516.48711 136.81889 
L 516.981285 138.664027 
L 517.477139 141.000455 
L 517.974674 142.039111 
L 518.473891 141.117889 
L 518.974781 139.048169 
L 519.477336 137.524648 
L 519.981545 137.688467 
L 520.994844 140.554187 
L 521.503898 140.563491 
L 522.014531 139.039824 
L 522.526731 136.915723 
L 523.040488 135.638067 
L 523.555792 135.979044 
L 524.072633 137.359488 
L 524.591002 138.342356 
L 525.110891 137.901609 
L 526.155195 134.639442 
L 526.679594 134.293738 
L 527.205479 135.413903 
L 527.732843 137.210841 
L 528.261676 138.415988 
L 528.791974 138.347193 
L 529.323728 137.446879 
L 529.856932 136.95132 
L 530.391577 137.856289 
L 531.465142 141.546205 
L 532.00404 141.707191 
L 533.086025 138.741083 
L 533.629103 138.429591 
L 534.173563 139.711287 
L 534.719403 141.406549 
L 535.266613 142.128156 
L 535.815187 141.315484 
L 536.91639 138.060608 
L 537.469004 138.018615 
L 538.578219 140.431499 
L 539.134806 140.610882 
L 539.692702 139.463724 
L 540.2519 137.731835 
L 540.812394 136.728989 
L 541.374177 137.247148 
L 542.501574 140.304797 
L 543.067174 141.046399 
L 544.202136 141.240006 
L 544.771478 142.207855 
L 545.913803 145.828661 
L 546.486754 146.457768 
L 547.060892 145.345354 
L 547.636221 143.685619 
L 548.212751 143.066754 
L 548.790491 144.045767 
L 549.36945 145.663949 
L 549.949622 146.643722 
L 550.530988 146.491852 
L 551.113534 145.297126 
L 551.69725 143.634741 
L 552.282127 142.482913 
L 552.868156 142.580679 
L 554.043638 144.571248 
L 554.633074 144.465433 
L 555.223631 143.195702 
L 555.815303 141.504692 
L 556.408085 140.367244 
L 557.001972 140.55776 
L 558.193044 142.90209 
L 559.388558 144.957961 
L 559.988029 146.523515 
L 561.190455 151.077322 
L 561.793336 152.446987 
L 562.39722 152.641081 
L 563.002024 151.33549 
L 563.607716 149.239368 
L 564.214307 147.765393 
L 564.821827 147.773075 
L 566.650268 151.018704 
L 567.261695 151.278838 
L 567.874063 150.957224 
L 568.48736 150.333045 
L 569.101567 150.218809 
L 569.716666 151.103131 
L 570.332633 152.374342 
L 570.949455 152.933326 
L 571.567162 151.840944 
L 572.805358 146.954465 
L 573.425931 146.092222 
L 574.047538 147.1096 
L 575.293746 150.505589 
L 575.918208 151.173386 
L 576.543529 150.317111 
L 577.796722 145.530665 
L 578.424588 145.301697 
L 579.683028 149.341343 
L 580.313704 149.398059 
L 580.945387 147.474002 
L 581.578076 144.708923 
L 582.211762 142.977106 
L 582.84643 143.506133 
L 584.11855 147.872466 
L 584.755927 148.241602 
L 585.394144 146.579235 
L 586.033173 144.240159 
L 586.673006 143.671153 
L 587.313651 145.82748 
L 587.955117 149.116002 
L 588.597412 151.459445 
L 589.240569 151.641549 
L 589.884624 149.504507 
L 590.529592 146.261651 
L 591.175473 144.220543 
L 591.822238 145.369687 
L 593.118262 151.514641 
L 593.767439 152.461613 
L 594.417352 151.708259 
L 595.068022 150.235721 
L 595.719496 149.299514 
L 596.371818 149.862788 
L 597.679071 153.380671 
L 598.333968 153.918423 
L 598.989675 153.591833 
L 599.646163 153.100634 
L 600.303401 153.079842 
L 600.961341 153.91965 
L 601.619901 154.959547 
L 602.278956 155.269777 
L 602.938386 154.813652 
L 603.598104 153.920659 
L 605.578947 150.583496 
L 606.240049 149.830603 
L 606.901765 149.503457 
L 607.5642 149.565971 
L 608.227369 149.930498 
L 610.220572 151.799688 
L 610.886031 151.878454 
L 611.552008 151.222252 
L 612.218584 149.748841 
L 612.885858 147.907747 
L 613.553926 146.626993 
L 614.222828 146.754034 
L 614.892555 148.050429 
L 615.563092 149.042779 
L 616.23441 148.285693 
L 616.906477 145.15913 
L 617.579278 140.484923 
L 618.252814 136.97759 
L 618.927086 137.017625 
L 619.602097 139.617626 
L 620.277845 141.374957 
L 620.954329 139.810849 
L 622.309511 130.35257 
L 622.98821 129.104125 
L 623.667644 131.564284 
L 624.347812 135.667989 
L 625.028709 137.621041 
L 625.710323 135.371605 
L 626.392446 130.860315 
L 627.074576 127.902365 
L 627.756216 128.847674 
L 628.436909 133.159634 
L 629.116208 136.640938 
L 629.793694 134.51 
L 631.141716 120.767638 
L 631.81152 117.198705 
L 632.478084 117.749709 
L 633.141204 121.930853 
L 633.800734 127.277951 
L 634.456495 129.029421 
L 635.108283 124.496727 
L 635.755908 116.575889 
L 636.399169 110.204802 
L 637.037803 108.025829 
L 637.67157 110.276953 
L 638.9239 120.154146 
L 639.542242 120.807065 
L 640.155245 116.607969 
L 641.364853 104.873247 
L 641.961367 102.651318 
L 642.552466 103.769332 
L 643.719229 109.193312 
L 644.295414 109.259174 
L 644.867117 106.740018 
L 645.434554 103.083365 
L 645.997915 100.289019 
L 646.557325 99.044262 
L 647.112923 99.244536 
L 647.664896 100.310792 
L 648.213487 100.708172 
L 648.759012 99.167002 
L 649.301861 95.411178 
L 650.381163 85.632667 
L 650.918334 81.804023 
L 651.989156 76.535391 
L 652.523206 73.961165 
L 653.056424 70.644604 
L 654.119793 61.666016 
L 655.176388 52.630799 
L 655.700782 49.069427 
L 656.221799 46.309367 
L 656.739028 44.263248 
L 657.25236 42.773872 
L 657.761886 41.702044 
L 658.770486 40.382891 
L 659.270241 39.987701 
L 659.767479 39.764081 
L 660.262607 39.70646 
L 660.756065 39.800865 
L 661.248362 40.033754 
L 662.231486 40.869503 
L 663.215787 42.115871 
L 664.204309 43.832918 
L 664.70027 45.122265 
L 665.196985 47.162866 
L 665.694214 50.582699 
L 666.19199 56.127959 
L 666.690392 64.252704 
L 667.689348 84.503783 
L 668.190183 91.981389 
L 668.692284 96.329915 
L 669.195914 99.722596 
L 669.701209 105.04229 
L 670.208271 114.956424 
L 671.227867 147.44246 
L 671.740366 153.630961 
L 672.254613 151.002519 
L 672.770553 143.858945 
L 673.288152 139.050012 
L 673.807367 142.002633 
L 674.328172 149.198252 
L 674.85055 154.032406 
L 675.374472 154.789445 
L 675.899911 152.180391 
L 676.955287 140.489133 
L 677.485198 138.398723 
L 678.016571 142.085032 
L 678.549398 146.983772 
L 679.08367 148.767741 
L 679.513182 146.739387 
L 679.513182 146.739387 
" clip-path="url(#p9ef705d99e)" style="fill: none; stroke: #d62728; stroke-opacity: 0.8; stroke-width: 0.9; stroke-linecap: square"/>
   </g>
   <g id="patch_3">
    <path d="M 56.09 246.04 
L 56.09 26.88 
" style="fill: none; stroke: #000000; stroke-width: 0.8; stroke-linejoin: miter; stroke-linecap: square"/>
   </g>
   <g id="patch_4">
    <path d="M 709.2 246.04 
L 709.2 26.88 
" style="fill: none; stroke: #000000; stroke-width: 0.8; stroke-linejoin: miter; stroke-linecap: square"/>
   </g>
   <g id="patch_5">
    <path d="M 56.09 246.04 
L 709.2 246.04 
" style="fill: none; stroke: #000000; stroke-width: 0.8; stroke-linejoin: miter; stroke-linecap: square"/>
   </g>
   <g id="patch_6">
    <path d="M 56.09 26.88 
L 709.2 26.88 
" style="fill: none; stroke: #000000; stroke-width: 0.8; stroke-linejoin: miter; stroke-linecap: square"/>
   </g>
   <g id="text_15">
    <!-- steering-link loads over one Kinnekulle Ring lap -->
    <g transform="translate(239.711875 20.88) scale(0.12 -0.12)">
     <defs>
      <path id="DejaVuSans-67" d="M 2906 1791 
Q 2906 2416 2648 2759 
Q 2391 3103 1925 3103 
Q 1463 3103 1205 2759 
Q 947 2416 947 1791 
Q 947 1169 1205 825 
Q 1463 481 1925 481 
Q 2391 481 2648 825 
Q 2906 1169 2906 1791 
z
M 3481 434 
Q 3481 -459 3084 -895 
Q 2688 -1331 1869 -1331 
Q 1566 -1331 1297 -1286 
Q 1028 -1241 775 -1147 
L 775 -588 
Q 1028 -725 1275 -790 
Q 1522 -856 1778 -856 
Q 2344 -856 2625 -561 
Q 2906 -266 2906 331 
L 2906 616 
Q 2728 306 2450 153 
Q 2172 0 1784 0 
Q 1141 0 747 490 
Q 353 981 353 1791 
Q 353 2603 747 3093 
Q 1141 3584 1784 3584 
Q 2172 3584 2450 3431 
Q 2728 3278 2906 2969 
L 2906 3500 
L 3481 3500 
L 3481 434 
z
" transform="scale(0.015625)"/>
      <path id="DejaVuSans-6c" d="M 603 4863 
L 1178 4863 
L 1178 0 
L 603 0 
L 603 4863 
z
" transform="scale(0.015625)"/>
      <path id="DejaVuSans-76" d="M 191 3500 
L 800 3500 
L 1894 563 
L 2988 3500 
L 3597 3500 
L 2284 0 
L 1503 0 
L 191 3500 
z
" transform="scale(0.015625)"/>
      <path id="DejaVuSans-4b" d="M 628 4666 
L 1259 4666 
L 1259 2694 
L 3353 4666 
L 4166 4666 
L 1850 2491 
L 4331 0 
L 3500 0 
L 1259 2247 
L 1259 0 
L 628 0 
L 628 4666 
z
" transform="scale(0.015625)"/>
      <path id="DejaVuSans-75" d="M 544 1381 
L 544 3500 
L 1119 3500 
L 1119 1403 
Q 1119 906 1312 657 
Q 1506 409 1894 409 
Q 2359 409 2629 706 
Q 2900 1003 2900 1516 
L 2900 3500 
L 3475 3500 
L 3475 0 
L 2900 0 
L 2900 538 
Q 2691 219 2414 64 
Q 2138 -91 1772 -91 
Q 1169 -91 856 284 
Q 544 659 544 1381 
z
M 1991 3584 
L 1991 3584 
z
" transform="scale(0.015625)"/>
      <path id="DejaVuSans-52" d="M 2841 2188 
Q 3044 2119 3236 1894 
Q 3428 1669 3622 1275 
L 4263 0 
L 3584 0 
L 2988 1197 
Q 2756 1666 2539 1819 
Q 2322 1972 1947 1972 
L 1259 1972 
L 1259 0 
L 628 0 
L 628 4666 
L 2053 4666 
Q 2853 4666 3247 4331 
Q 3641 3997 3641 3322 
Q 3641 2881 3436 2590 
Q 3231 2300 2841 2188 
z
M 1259 4147 
L 1259 2491 
L 2053 2491 
Q 2509 2491 2742 2702 
Q 2975 2913 2975 3322 
Q 2975 3731 2742 3939 
Q 2509 4147 2053 4147 
L 1259 4147 
z
" transform="scale(0.015625)"/>
      <path id="DejaVuSans-70" d="M 1159 525 
L 1159 -1331 
L 581 -1331 
L 581 3500 
L 1159 3500 
L 1159 2969 
Q 1341 3281 1617 3432 
Q 1894 3584 2278 3584 
Q 2916 3584 3314 3078 
Q 3713 2572 3713 1747 
Q 3713 922 3314 415 
Q 2916 -91 2278 -91 
Q 1894 -91 1617 61 
Q 1341 213 1159 525 
z
M 3116 1747 
Q 3116 2381 2855 2742 
Q 2594 3103 2138 3103 
Q 1681 3103 1420 2742 
Q 1159 2381 1159 1747 
Q 1159 1113 1420 752 
Q 1681 391 2138 391 
Q 2594 391 2855 752 
Q 3116 1113 3116 1747 
z
" transform="scale(0.015625)"/>
     </defs>
     <use xlink:href="#DejaVuSans-73"/>
     <use xlink:href="#DejaVuSans-74" transform="translate(52.099609 0)"/>
     <use xlink:href="#DejaVuSans-65" transform="translate(91.308594 0)"/>
     <use xlink:href="#DejaVuSans-65" transform="translate(152.832031 0)"/>
     <use xlink:href="#DejaVuSans-72" transform="translate(214.355469 0)"/>
     <use xlink:href="#DejaVuSans-69" transform="translate(255.46875 0)"/>
     <use xlink:href="#DejaVuSans-6e" transform="translate(283.251953 0)"/>
     <use xlink:href="#DejaVuSans-67" transform="translate(346.630859 0)"/>
     <use xlink:href="#DejaVuSans-2d" transform="translate(410.107422 0)"/>
     <use xlink:href="#DejaVuSans-6c" transform="translate(446.191406 0)"/>
     <use xlink:href="#DejaVuSans-69" transform="translate(473.974609 0)"/>
     <use xlink:href="#DejaVuSans-6e" transform="translate(501.757812 0)"/>
     <use xlink:href="#DejaVuSans-6b" transform="translate(565.136719 0)"/>
     <use xlink:href="#DejaVuSans-20" transform="translate(623.046875 0)"/>
     <use xlink:href="#DejaVuSans-6c" transform="translate(654.833984 0)"/>
     <use xlink:href="#DejaVuSans-6f" transform="translate(682.617188 0)"/>
     <use xlink:href="#DejaVuSans-61" transform="translate(743.798828 0)"/>
     <use xlink:href="#DejaVuSans-64" transform="translate(805.078125 0)"/>
     <use xlink:href="#DejaVuSans-73" transform="translate(868.554688 0)"/>
     <use xlink:href="#DejaVuSans-20" transform="translate(920.654297 0)"/>
     <use xlink:href="#DejaVuSans-6f" transform="translate(952.441406 0)"/>
     <use xlink:href="#DejaVuSans-76" transform="translate(1013.623047 0)"/>
     <use xlink:href="#DejaVuSans-65" transform="translate(1072.802734 0)"/>
     <use xlink:href="#DejaVuSans-72" transform="translate(1134.326172 0)"/>
     <use xlink:href="#DejaVuSans-20" transform="translate(1175.439453 0)"/>
     <use xlink:href="#DejaVuSans-6f" transform="translate(1207.226562 0)"/>
     <use xlink:href="#DejaVuSans-6e" transform="translate(1268.408203 0)"/>
     <use xlink:href="#DejaVuSans-65" transform="translate(1331.787109 0)"/>
     <use xlink:href="#DejaVuSans-20" transform="translate(1393.310547 0)"/>
     <use xlink:href="#DejaVuSans-4b" transform="translate(1425.097656 0)"/>
     <use xlink:href="#DejaVuSans-69" transform="translate(1490.673828 0)"/>
     <use xlink:href="#DejaVuSans-6e" transform="translate(1518.457031 0)"/>
     <use xlink:href="#DejaVuSans-6e" transform="translate(1581.835938 0)"/>
     <use xlink:href="#DejaVuSans-65" transform="translate(1645.214844 0)"/>
     <use xlink:href="#DejaVuSans-6b" transform="translate(1706.738281 0)"/>
     <use xlink:href="#DejaVuSans-75" transform="translate(1761.523438 0)"/>
     <use xlink:href="#DejaVuSans-6c" transform="translate(1824.902344 0)"/>
     <use xlink:href="#DejaVuSans-6c" transform="translate(1852.685547 0)"/>
     <use xlink:href="#DejaVuSans-65" transform="translate(1880.46875 0)"/>
     <use xlink:href="#DejaVuSans-20" transform="translate(1941.992188 0)"/>
     <use xlink:href="#DejaVuSans-52" transform="translate(1973.779297 0)"/>
     <use xlink:href="#DejaVuSans-69" transform="translate(2043.261719 0)"/>
     <use xlink:href="#DejaVuSans-6e" transform="translate(2071.044922 0)"/>
     <use xlink:href="#DejaVuSans-67" transform="translate(2134.423828 0)"/>
     <use xlink:href="#DejaVuSans-20" transform="translate(2197.900391 0)"/>
     <use xlink:href="#DejaVuSans-6c" transform="translate(2229.6875 0)"/>
     <use xlink:href="#DejaVuSans-61" transform="translate(2257.470703 0)"/>
     <use xlink:href="#DejaVuSans-70" transform="translate(2318.75 0)"/>
    </g>
   </g>
   <g id="legend_1">
    <g id="patch_7">
     <path d="M 61.69 56.765 
L 134.535 56.765 
Q 136.135 56.765 136.135 55.165 
L 136.135 32.48 
Q 136.135 30.88 134.535 30.88 
L 61.69 30.88 
Q 60.09 30.88 60.09 32.48 
L 60.09 55.165 
Q 60.09 56.765 61.69 56.765 
z
" style="fill: #ffffff; opacity: 0.8; stroke: #cccccc; stroke-linejoin: miter"/>
    </g>
    <g id="line2d_27">
     <path d="M 63.29 37.35875 
L 71.29 37.35875 
L 79.29 37.35875 
" style="fill: none; stroke: #2ca02c; stroke-width: 0.9; stroke-linecap: square"/>
    </g>
    <g id="text_16">
     <!-- tie rod left -->
     <g transform="translate(85.69 40.15875) scale(0.08 -0.08)">
      <use xlink:href="#DejaVuSans-74"/>
      <use xlink:href="#DejaVuSans-69" transform="translate(39.208984 0)"/>
      <use xlink:href="#DejaVuSans-65" transform="translate(66.992188 0)"/>
      <use xlink:href="#DejaVuSans-20" transform="translate(128.515625 0)"/>
      <use xlink:href="#DejaVuSans-72" transform="translate(160.302734 0)"/>
      <use xlink:href="#DejaVuSans-6f" transform="translate(199.166016 0)"/>
      <use xlink:href="#DejaVuSans-64" transform="translate(260.347656 0)"/>
      <use xlink:href="#DejaVuSans-20" transform="translate(323.824219 0)"/>
      <use xlink:href="#DejaVuSans-6c" transform="translate(355.611328 0)"/>
      <use xlink:href="#DejaVuSans-65" transform="translate(383.394531 0)"/>
      <use xlink:href="#DejaVuSans-66" transform="translate(444.917969 0)"/>
      <use xlink:href="#DejaVuSans-74" transform="translate(478.373047 0)"/>
     </g>
    </g>
    <g id="line2d_28">
     <path d="M 63.29 49.10125 
L 71.29 49.10125 
L 79.29 49.10125 
" style="fill: none; stroke: #d62728; stroke-opacity: 0.8; stroke-width: 0.9; stroke-linecap: square"/>
    </g>
    <g id="text_17">
     <!-- tie rod right -->
     <g transform="translate(85.69 51.90125) scale(0.08 -0.08)">
      <defs>
       <path id="DejaVuSans-68" d="M 3513 2113 
L 3513 0 
L 2938 0 
L 2938 2094 
Q 2938 2591 2744 2837 
Q 2550 3084 2163 3084 
Q 1697 3084 1428 2787 
Q 1159 2491 1159 1978 
L 1159 0 
L 581 0 
L 581 4863 
L 1159 4863 
L 1159 2956 
Q 1366 3272 1645 3428 
Q 1925 3584 2291 3584 
Q 2894 3584 3203 3211 
Q 3513 2838 3513 2113 
z
" transform="scale(0.015625)"/>
      </defs>
      <use xlink:href="#DejaVuSans-74"/>
      <use xlink:href="#DejaVuSans-69" transform="translate(39.208984 0)"/>
      <use xlink:href="#DejaVuSans-65" transform="translate(66.992188 0)"/>
      <use xlink:href="#DejaVuSans-20" transform="translate(128.515625 0)"/>
      <use xlink:href="#DejaVuSans-72" transform="translate(160.302734 0)"/>
      <use xlink:href="#DejaVuSans-6f" transform="translate(199.166016 0)"/>
      <use xlink:href="#DejaVuSans-64" transform="translate(260.347656 0)"/>
      <use xlink:href="#DejaVuSans-20" transform="translate(323.824219 0)"/>
      <use xlink:href="#DejaVuSans-72" transform="translate(355.611328 0)"/>
      <use xlink:href="#DejaVuSans-69" transform="translate(396.724609 0)"/>
      <use xlink:href="#DejaVuSans-67" transform="translate(424.507812 0)"/>
      <use xlink:href="#DejaVuSans-68" transform="translate(487.984375 0)"/>
      <use xlink:href="#DejaVuSans-74" transform="translate(551.363281 0)"/>
     </g>
    </g>
   </g>
  </g>
 </g>
 <defs>
  <clipPath id="p9ef705d99e">
   <rect x="56.09" y="26.88" width="653.11" height="219.16"/>
  </clipPath>
 </defs>
</svg>
