<?xml version="1.0" encoding="utf-8" standalone="no"?>
<!DOCTYPE svg PUBLIC "-//W3C//DTD SVG 1.1//EN"
  "http://www.w3.org/Graphics/SVG/1.1/DTD/svg11.dtd">
<svg xmlns:xlink="http://www.w3.org/1999/xlink" width="720pt" height="288pt" viewBox="0 0 720 288" xmlns="http://www.w3.org/2000/svg" version="1.1">
 <metadata>
  <rdf:RDF xmlns:dc="http://purl.org/dc/elements/1.1/" xmlns:cc="http://creativecommons.org/ns#" xmlns:rdf="http://www.w3.org/1999/02/22-rdf-syntax-ns#">
   <cc:Work>
    <dc:type rdf:resource="http://purl.org/dc/dcmitype/StillImage"/>
    <dc:date>2026-07-12T14:43:22.410738</dc:date>
    <dc:format>image/svg+xml</dc:format>
    <dc:creator>
     <cc:Agent>
      <dc:title>Matplotlib v3.10.8, https://matplotlib.org/</dc:title>
     </cc:Agent>
    </dc:creator>
   </cc:Work>
  </rdf:RDF>
 </metadata>
 <defs>
  <style type="text/css">*{stroke-linejoin: round; stroke-linecap: butt}</style>
 </defs>
 <g id="figure_1">
  <g id="patch_1">
   <path d="M 0 288 
L 720 288 
L 720 0 
L 0 0 
z
" style="fill: #ffffff"/>
  </g>
  <g id="axes_1">
   <g id="patch_2">
    <path d="M 56.09 246.04 
L 709.2 246.04 
L 709.2 26.88 
L 56.09 26.88 
z
" style="fill: #ffffff"/>
   </g>
   <g id="matplotlib.axis_1">
    <g id="xtick_1">
     <g id="line2d_1">
      <path d="M 85.776818 246.04 
L 85.776818 26.88 
" clip-path="url(#pb58a19bd7e)" style="fill: none; stroke: #b0b0b0; stroke-opacity: 0.3; stroke-width: 0.8; stroke-linecap: square"/>
     </g>
     <g id="line2d_2">
      <defs>
       <path id="m3fd9c97a49" d="M 0 0 
L 0 3.5 
" style="stroke: #000000; stroke-width: 0.8"/>
      </defs>
      <g>
       <use xlink:href="#m3fd9c97a49" x="85.776818" y="246.04" style="stroke: #000000; stroke-width: 0.8"/>
      </g>
     </g>
     <g id="text_1">
      <!-- 0.0 -->
      <g transform="translate(77.825256 260.638438) scale(0.1 -0.1)">
       <defs>
        <path id="DejaVuSans-30" d="M 2034 4250 
Q 1547 4250 1301 3770 
Q 1056 3291 1056 2328 
Q 1056 1369 1301 889 
Q 1547 409 2034 409 
Q 2525 409 2770 889 
Q 3016 1369 3016 2328 
Q 3016 3291 2770 3770 
Q 2525 4250 2034 4250 
z
M 2034 4750 
Q 2819 4750 3233 4129 
Q 3647 3509 3647 2328 
Q 3647 1150 3233 529 
Q 2819 -91 2034 -91 
Q 1250 -91 836 529 
Q 422 1150 422 2328 
Q 422 3509 836 4129 
Q 1250 4750 2034 4750 
z
" transform="scale(0.015625)"/>
        <path id="DejaVuSans-2e" d="M 684 794 
L 1344 794 
L 1344 0 
L 684 0 
L 684 794 
z
" transform="scale(0.015625)"/>
       </defs>
       <use xlink:href="#DejaVuSans-30"/>
       <use xlink:href="#DejaVuSans-2e" transform="translate(63.623047 0)"/>
       <use xlink:href="#DejaVuSans-30" transform="translate(95.410156 0)"/>
      </g>
     </g>
    </g>
    <g id="xtick_2">
     <g id="line2d_3">
      <path d="M 230.456472 246.04 
L 230.456472 26.88 
" clip-path="url(#pb58a19bd7e)" style="fill: none; stroke: #b0b0b0; stroke-opacity: 0.3; stroke-width: 0.8; stroke-linecap: square"/>
     </g>
     <g id="line2d_4">
      <g>
       <use xlink:href="#m3fd9c97a49" x="230.456472" y="246.04" style="stroke: #000000; stroke-width: 0.8"/>
      </g>
     </g>
     <g id="text_2">
      <!-- 0.5 -->
      <g transform="translate(222.50491 260.638438) scale(0.1 -0.1)">
       <defs>
        <path id="DejaVuSans-35" d="M 691 4666 
L 3169 4666 
L 3169 4134 
L 1269 4134 
L 1269 2991 
Q 1406 3038 1543 3061 
Q 1681 3084 1819 3084 
Q 2600 3084 3056 2656 
Q 3513 2228 3513 1497 
Q 3513 744 3044 326 
Q 2575 -91 1722 -91 
Q 1428 -91 1123 -41 
Q 819 9 494 109 
L 494 744 
Q 775 591 1075 516 
Q 1375 441 1709 441 
Q 2250 441 2565 725 
Q 2881 1009 2881 1497 
Q 2881 1984 2565 2268 
Q 2250 2553 1709 2553 
Q 1456 2553 1204 2497 
Q 953 2441 691 2322 
L 691 4666 
z
" transform="scale(0.015625)"/>
       </defs>
       <use xlink:href="#DejaVuSans-30"/>
       <use xlink:href="#DejaVuSans-2e" transform="translate(63.623047 0)"/>
       <use xlink:href="#DejaVuSans-35" transform="translate(95.410156 0)"/>
      </g>
     </g>
    </g>
    <g id="xtick_3">
     <g id="line2d_5">
      <path d="M 375.136126 246.04 
L 375.136126 26.88 
" clip-path="url(#pb58a19bd7e)" style="fill: none; stroke: #b0b0b0; stroke-opacity: 0.3; stroke-width: 0.8; stroke-linecap: square"/>
     </g>
     <g id="line2d_6">
      <g>
       <use xlink:href="#m3fd9c97a49" x="375.136126" y="246.04" style="stroke: #000000; stroke-width: 0.8"/>
      </g>
     </g>
     <g id="text_3">
      <!-- 1.0 -->
      <g transform="translate(367.184563 260.638438) scale(0.1 -0.1)">
       <defs>
        <path id="DejaVuSans-31" d="M 794 531 
L 1825 531 
L 1825 4091 
L 703 3866 
L 703 4441 
L 1819 4666 
L 2450 4666 
L 2450 531 
L 3481 531 
L 3481 0 
L 794 0 
L 794 531 
z
" transform="scale(0.015625)"/>
       </defs>
       <use xlink:href="#DejaVuSans-31"/>
       <use xlink:href="#DejaVuSans-2e" transform="translate(63.623047 0)"/>
       <use xlink:href="#DejaVuSans-30" transform="translate(95.410156 0)"/>
      </g>
     </g>
    </g>
    <g id="xtick_4">
     <g id="line2d_7">
      <path d="M 519.81578 246.04 
L 519.81578 26.88 
" clip-path="url(#pb58a19bd7e)" style="fill: none; stroke: #b0b0b0; stroke-opacity: 0.3; stroke-width: 0.8; stroke-linecap: square"/>
     </g>
     <g id="line2d_8">
      <g>
       <use xlink:href="#m3fd9c97a49" x="519.81578" y="246.04" style="stroke: #000000; stroke-width: 0.8"/>
      </g>
     </g>
     <g id="text_4">
      <!-- 1.5 -->
      <g transform="translate(511.864217 260.638438) scale(0.1 -0.1)">
       <use xlink:href="#DejaVuSans-31"/>
       <use xlink:href="#DejaVuSans-2e" transform="translate(63.623047 0)"/>
       <use xlink:href="#DejaVuSans-35" transform="translate(95.410156 0)"/>
      </g>
     </g>
    </g>
    <g id="xtick_5">
     <g id="line2d_9">
      <path d="M 664.495434 246.04 
L 664.495434 26.88 
" clip-path="url(#pb58a19bd7e)" style="fill: none; stroke: #b0b0b0; stroke-opacity: 0.3; stroke-width: 0.8; stroke-linecap: square"/>
     </g>
     <g id="line2d_10">
      <g>
       <use xlink:href="#m3fd9c97a49" x="664.495434" y="246.04" style="stroke: #000000; stroke-width: 0.8"/>
      </g>
     </g>
     <g id="text_5">
      <!-- 2.0 -->
      <g transform="translate(656.543871 260.638438) scale(0.1 -0.1)">
       <defs>
        <path id="DejaVuSans-32" d="M 1228 531 
L 3431 531 
L 3431 0 
L 469 0 
L 469 531 
Q 828 903 1448 1529 
Q 2069 2156 2228 2338 
Q 2531 2678 2651 2914 
Q 2772 3150 2772 3378 
Q 2772 3750 2511 3984 
Q 2250 4219 1831 4219 
Q 1534 4219 1204 4116 
Q 875 4013 500 3803 
L 500 4441 
Q 881 4594 1212 4672 
Q 1544 4750 1819 4750 
Q 2544 4750 2975 4387 
Q 3406 4025 3406 3419 
Q 3406 3131 3298 2873 
Q 3191 2616 2906 2266 
Q 2828 2175 2409 1742 
Q 1991 1309 1228 531 
z
" transform="scale(0.015625)"/>
       </defs>
       <use xlink:href="#DejaVuSans-32"/>
       <use xlink:href="#DejaVuSans-2e" transform="translate(63.623047 0)"/>
       <use xlink:href="#DejaVuSans-30" transform="translate(95.410156 0)"/>
      </g>
     </g>
    </g>
    <g id="text_6">
     <!-- distance s [km] -->
     <g transform="translate(344.008281 274.316562) scale(0.1 -0.1)">
      <defs>
       <path id="DejaVuSans-64" d="M 2906 2969 
L 2906 4863 
L 3481 4863 
L 3481 0 
L 2906 0 
L 2906 525 
Q 2725 213 2448 61 
Q 2172 -91 1784 -91 
Q 1150 -91 751 415 
Q 353 922 353 1747 
Q 353 2572 751 3078 
Q 1150 3584 1784 3584 
Q 2172 3584 2448 3432 
Q 2725 3281 2906 2969 
z
M 947 1747 
Q 947 1113 1208 752 
Q 1469 391 1925 391 
Q 2381 391 2643 752 
Q 2906 1113 2906 1747 
Q 2906 2381 2643 2742 
Q 2381 3103 1925 3103 
Q 1469 3103 1208 2742 
Q 947 2381 947 1747 
z
" transform="scale(0.015625)"/>
       <path id="DejaVuSans-69" d="M 603 3500 
L 1178 3500 
L 1178 0 
L 603 0 
L 603 3500 
z
M 603 4863 
L 1178 4863 
L 1178 4134 
L 603 4134 
L 603 4863 
z
" transform="scale(0.015625)"/>
       <path id="DejaVuSans-73" d="M 2834 3397 
L 2834 2853 
Q 2591 2978 2328 3040 
Q 2066 3103 1784 3103 
Q 1356 3103 1142 2972 
Q 928 2841 928 2578 
Q 928 2378 1081 2264 
Q 1234 2150 1697 2047 
L 1894 2003 
Q 2506 1872 2764 1633 
Q 3022 1394 3022 966 
Q 3022 478 2636 193 
Q 2250 -91 1575 -91 
Q 1294 -91 989 -36 
Q 684 19 347 128 
L 347 722 
Q 666 556 975 473 
Q 1284 391 1588 391 
Q 1994 391 2212 530 
Q 2431 669 2431 922 
Q 2431 1156 2273 1281 
Q 2116 1406 1581 1522 
L 1381 1569 
Q 847 1681 609 1914 
Q 372 2147 372 2553 
Q 372 3047 722 3315 
Q 1072 3584 1716 3584 
Q 2034 3584 2315 3537 
Q 2597 3491 2834 3397 
z
" transform="scale(0.015625)"/>
       <path id="DejaVuSans-74" d="M 1172 4494 
L 1172 3500 
L 2356 3500 
L 2356 3053 
L 1172 3053 
L 1172 1153 
Q 1172 725 1289 603 
Q 1406 481 1766 481 
L 2356 481 
L 2356 0 
L 1766 0 
Q 1100 0 847 248 
Q 594 497 594 1153 
L 594 3053 
L 172 3053 
L 172 3500 
L 594 3500 
L 594 4494 
L 1172 4494 
z
" transform="scale(0.015625)"/>
       <path id="DejaVuSans-61" d="M 2194 1759 
Q 1497 1759 1228 1600 
Q 959 1441 959 1056 
Q 959 750 1161 570 
Q 1363 391 1709 391 
Q 2188 391 2477 730 
Q 2766 1069 2766 1631 
L 2766 1759 
L 2194 1759 
z
M 3341 1997 
L 3341 0 
L 2766 0 
L 2766 531 
Q 2569 213 2275 61 
Q 1981 -91 1556 -91 
Q 1019 -91 701 211 
Q 384 513 384 1019 
Q 384 1609 779 1909 
Q 1175 2209 1959 2209 
L 2766 2209 
L 2766 2266 
Q 2766 2663 2505 2880 
Q 2244 3097 1772 3097 
Q 1472 3097 1187 3025 
Q 903 2953 641 2809 
L 641 3341 
Q 956 3463 1253 3523 
Q 1550 3584 1831 3584 
Q 2591 3584 2966 3190 
Q 3341 2797 3341 1997 
z
" transform="scale(0.015625)"/>
       <path id="DejaVuSans-6e" d="M 3513 2113 
L 3513 0 
L 2938 0 
L 2938 2094 
Q 2938 2591 2744 2837 
Q 2550 3084 2163 3084 
Q 1697 3084 1428 2787 
Q 1159 2491 1159 1978 
L 1159 0 
L 581 0 
L 581 3500 
L 1159 3500 
L 1159 2956 
Q 1366 3272 1645 3428 
Q 1925 3584 2291 3584 
Q 2894 3584 3203 3211 
Q 3513 2838 3513 2113 
z
" transform="scale(0.015625)"/>
       <path id="DejaVuSans-63" d="M 3122 3366 
L 3122 2828 
Q 2878 2963 2633 3030 
Q 2388 3097 2138 3097 
Q 1578 3097 1268 2742 
Q 959 2388 959 1747 
Q 959 1106 1268 751 
Q 1578 397 2138 397 
Q 2388 397 2633 464 
Q 2878 531 3122 666 
L 3122 134 
Q 2881 22 2623 -34 
Q 2366 -91 2075 -91 
Q 1284 -91 818 406 
Q 353 903 353 1747 
Q 353 2603 823 3093 
Q 1294 3584 2113 3584 
Q 2378 3584 2631 3529 
Q 2884 3475 3122 3366 
z
" transform="scale(0.015625)"/>
       <path id="DejaVuSans-65" d="M 3597 1894 
L 3597 1613 
L 953 1613 
Q 991 1019 1311 708 
Q 1631 397 2203 397 
Q 2534 397 2845 478 
Q 3156 559 3463 722 
L 3463 178 
Q 3153 47 2828 -22 
Q 2503 -91 2169 -91 
Q 1331 -91 842 396 
Q 353 884 353 1716 
Q 353 2575 817 3079 
Q 1281 3584 2069 3584 
Q 2775 3584 3186 3129 
Q 3597 2675 3597 1894 
z
M 3022 2063 
Q 3016 2534 2758 2815 
Q 2500 3097 2075 3097 
Q 1594 3097 1305 2825 
Q 1016 2553 972 2059 
L 3022 2063 
z
" transform="scale(0.015625)"/>
       <path id="DejaVuSans-20" transform="scale(0.015625)"/>
       <path id="DejaVuSans-5b" d="M 550 4863 
L 1875 4863 
L 1875 4416 
L 1125 4416 
L 1125 -397 
L 1875 -397 
L 1875 -844 
L 550 -844 
L 550 4863 
z
" transform="scale(0.015625)"/>
       <path id="DejaVuSans-6b" d="M 581 4863 
L 1159 4863 
L 1159 1991 
L 2875 3500 
L 3609 3500 
L 1753 1863 
L 3688 0 
L 2938 0 
L 1159 1709 
L 1159 0 
L 581 0 
L 581 4863 
z
" transform="scale(0.015625)"/>
       <path id="DejaVuSans-6d" d="M 3328 2828 
Q 3544 3216 3844 3400 
Q 4144 3584 4550 3584 
Q 5097 3584 5394 3201 
Q 5691 2819 5691 2113 
L 5691 0 
L 5113 0 
L 5113 2094 
Q 5113 2597 4934 2840 
Q 4756 3084 4391 3084 
Q 3944 3084 3684 2787 
Q 3425 2491 3425 1978 
L 3425 0 
L 2847 0 
L 2847 2094 
Q 2847 2600 2669 2842 
Q 2491 3084 2119 3084 
Q 1678 3084 1418 2786 
Q 1159 2488 1159 1978 
L 1159 0 
L 581 0 
L 581 3500 
L 1159 3500 
L 1159 2956 
Q 1356 3278 1631 3431 
Q 1906 3584 2284 3584 
Q 2666 3584 2933 3390 
Q 3200 3197 3328 2828 
z
" transform="scale(0.015625)"/>
       <path id="DejaVuSans-5d" d="M 1947 4863 
L 1947 -844 
L 622 -844 
L 622 -397 
L 1369 -397 
L 1369 4416 
L 622 4416 
L 622 4863 
L 1947 4863 
z
" transform="scale(0.015625)"/>
      </defs>
      <use xlink:href="#DejaVuSans-64"/>
      <use xlink:href="#DejaVuSans-69" transform="translate(63.476562 0)"/>
      <use xlink:href="#DejaVuSans-73" transform="translate(91.259766 0)"/>
      <use xlink:href="#DejaVuSans-74" transform="translate(143.359375 0)"/>
      <use xlink:href="#DejaVuSans-61" transform="translate(182.568359 0)"/>
      <use xlink:href="#DejaVuSans-6e" transform="translate(243.847656 0)"/>
      <use xlink:href="#DejaVuSans-63" transform="translate(307.226562 0)"/>
      <use xlink:href="#DejaVuSans-65" transform="translate(362.207031 0)"/>
      <use xlink:href="#DejaVuSans-20" transform="translate(423.730469 0)"/>
      <use xlink:href="#DejaVuSans-73" transform="translate(455.517578 0)"/>
      <use xlink:href="#DejaVuSans-20" transform="translate(507.617188 0)"/>
      <use xlink:href="#DejaVuSans-5b" transform="translate(539.404297 0)"/>
      <use xlink:href="#DejaVuSans-6b" transform="translate(578.417969 0)"/>
      <use xlink:href="#DejaVuSans-6d" transform="translate(636.328125 0)"/>
      <use xlink:href="#DejaVuSans-5d" transform="translate(733.740234 0)"/>
     </g>
    </g>
   </g>
   <g id="matplotlib.axis_2">
    <g id="ytick_1">
     <g id="line2d_11">
      <path d="M 56.09 228.393486 
L 709.2 228.393486 
" clip-path="url(#pb58a19bd7e)" style="fill: none; stroke: #b0b0b0; stroke-opacity: 0.3; stroke-width: 0.8; stroke-linecap: square"/>
     </g>
     <g id="line2d_12">
      <defs>
       <path id="m792e85b7be" d="M 0 0 
L -3.5 0 
" style="stroke: #000000; stroke-width: 0.8"/>
      </defs>
      <g>
       <use xlink:href="#m792e85b7be" x="56.09" y="228.393486" style="stroke: #000000; stroke-width: 0.8"/>
      </g>
     </g>
     <g id="text_7">
      <!-- −1.5 -->
      <g transform="translate(24.807188 232.192704) scale(0.1 -0.1)">
       <defs>
        <path id="DejaVuSans-2212" d="M 678 2272 
L 4684 2272 
L 4684 1741 
L 678 1741 
L 678 2272 
z
" transform="scale(0.015625)"/>
       </defs>
       <use xlink:href="#DejaVuSans-2212"/>
       <use xlink:href="#DejaVuSans-31" transform="translate(83.789062 0)"/>
       <use xlink:href="#DejaVuSans-2e" transform="translate(147.412109 0)"/>
       <use xlink:href="#DejaVuSans-35" transform="translate(179.199219 0)"/>
      </g>
     </g>
    </g>
    <g id="ytick_2">
     <g id="line2d_13">
      <path d="M 56.09 198.537023 
L 709.2 198.537023 
" clip-path="url(#pb58a19bd7e)" style="fill: none; stroke: #b0b0b0; stroke-opacity: 0.3; stroke-width: 0.8; stroke-linecap: square"/>
     </g>
     <g id="line2d_14">
      <g>
       <use xlink:href="#m792e85b7be" x="56.09" y="198.537023" style="stroke: #000000; stroke-width: 0.8"/>
      </g>
     </g>
     <g id="text_8">
      <!-- −1.0 -->
      <g transform="translate(24.807188 202.336242) scale(0.1 -0.1)">
       <use xlink:href="#DejaVuSans-2212"/>
       <use xlink:href="#DejaVuSans-31" transform="translate(83.789062 0)"/>
       <use xlink:href="#DejaVuSans-2e" transform="translate(147.412109 0)"/>
       <use xlink:href="#DejaVuSans-30" transform="translate(179.199219 0)"/>
      </g>
     </g>
    </g>
    <g id="ytick_3">
     <g id="line2d_15">
      <path d="M 56.09 168.680561 
L 709.2 168.680561 
" clip-path="url(#pb58a19bd7e)" style="fill: none; stroke: #b0b0b0; stroke-opacity: 0.3; stroke-width: 0.8; stroke-linecap: square"/>
     </g>
     <g id="line2d_16">
      <g>
       <use xlink:href="#m792e85b7be" x="56.09" y="168.680561" style="stroke: #000000; stroke-width: 0.8"/>
      </g>
     </g>
     <g id="text_9">
      <!-- −0.5 -->
      <g transform="translate(24.807188 172.479779) scale(0.1 -0.1)">
       <use xlink:href="#DejaVuSans-2212"/>
       <use xlink:href="#DejaVuSans-30" transform="translate(83.789062 0)"/>
       <use xlink:href="#DejaVuSans-2e" transform="translate(147.412109 0)"/>
       <use xlink:href="#DejaVuSans-35" transform="translate(179.199219 0)"/>
      </g>
     </g>
    </g>
    <g id="ytick_4">
     <g id="line2d_17">
      <path d="M 56.09 138.824098 
L 709.2 138.824098 
" clip-path="url(#pb58a19bd7e)" style="fill: none; stroke: #b0b0b0; stroke-opacity: 0.3; stroke-width: 0.8; stroke-linecap: square"/>
     </g>
     <g id="line2d_18">
      <g>
       <use xlink:href="#m792e85b7be" x="56.09" y="138.824098" style="stroke: #000000; stroke-width: 0.8"/>
      </g>
     </g>
     <g id="text_10">
      <!-- 0.0 -->
      <g transform="translate(33.186875 142.623317) scale(0.1 -0.1)">
       <use xlink:href="#DejaVuSans-30"/>
       <use xlink:href="#DejaVuSans-2e" transform="translate(63.623047 0)"/>
       <use xlink:href="#DejaVuSans-30" transform="translate(95.410156 0)"/>
      </g>
     </g>
    </g>
    <g id="ytick_5">
     <g id="line2d_19">
      <path d="M 56.09 108.967636 
L 709.2 108.967636 
" clip-path="url(#pb58a19bd7e)" style="fill: none; stroke: #b0b0b0; stroke-opacity: 0.3; stroke-width: 0.8; stroke-linecap: square"/>
     </g>
     <g id="line2d_20">
      <g>
       <use xlink:href="#m792e85b7be" x="56.09" y="108.967636" style="stroke: #000000; stroke-width: 0.8"/>
      </g>
     </g>
     <g id="text_11">
      <!-- 0.5 -->
      <g transform="translate(33.186875 112.766854) scale(0.1 -0.1)">
       <use xlink:href="#DejaVuSans-30"/>
       <use xlink:href="#DejaVuSans-2e" transform="translate(63.623047 0)"/>
       <use xlink:href="#DejaVuSans-35" transform="translate(95.410156 0)"/>
      </g>
     </g>
    </g>
    <g id="ytick_6">
     <g id="line2d_21">
      <path d="M 56.09 79.111173 
L 709.2 79.111173 
" clip-path="url(#pb58a19bd7e)" style="fill: none; stroke: #b0b0b0; stroke-opacity: 0.3; stroke-width: 0.8; stroke-linecap: square"/>
     </g>
     <g id="line2d_22">
      <g>
       <use xlink:href="#m792e85b7be" x="56.09" y="79.111173" style="stroke: #000000; stroke-width: 0.8"/>
      </g>
     </g>
     <g id="text_12">
      <!-- 1.0 -->
      <g transform="translate(33.186875 82.910392) scale(0.1 -0.1)">
       <use xlink:href="#DejaVuSans-31"/>
       <use xlink:href="#DejaVuSans-2e" transform="translate(63.623047 0)"/>
       <use xlink:href="#DejaVuSans-30" transform="translate(95.410156 0)"/>
      </g>
     </g>
    </g>
    <g id="ytick_7">
     <g id="line2d_23">
      <path d="M 56.09 49.25471 
L 709.2 49.25471 
" clip-path="url(#pb58a19bd7e)" style="fill: none; stroke: #b0b0b0; stroke-opacity: 0.3; stroke-width: 0.8; stroke-linecap: square"/>
     </g>
     <g id="line2d_24">
      <g>
       <use xlink:href="#m792e85b7be" x="56.09" y="49.25471" style="stroke: #000000; stroke-width: 0.8"/>
      </g>
     </g>
     <g id="text_13">
      <!-- 1.5 -->
      <g transform="translate(33.186875 53.053929) scale(0.1 -0.1)">
       <use xlink:href="#DejaVuSans-31"/>
       <use xlink:href="#DejaVuSans-2e" transform="translate(63.623047 0)"/>
       <use xlink:href="#DejaVuSans-35" transform="translate(95.410156 0)"/>
      </g>
     </g>
    </g>
    <g id="text_14">
     <!-- tie-rod force [kN] -->
     <g transform="translate(18.7275 179.170156) rotate(-90) scale(0.1 -0.1)">
      <defs>
       <path id="DejaVuSans-2d" d="M 313 2009 
L 1997 2009 
L 1997 1497 
L 313 1497 
L 313 2009 
z
" transform="scale(0.015625)"/>
       <path id="DejaVuSans-72" d="M 2631 2963 
Q 2534 3019 2420 3045 
Q 2306 3072 2169 3072 
Q 1681 3072 1420 2755 
Q 1159 2438 1159 1844 
L 1159 0 
L 581 0 
L 581 3500 
L 1159 3500 
L 1159 2956 
Q 1341 3275 1631 3429 
Q 1922 3584 2338 3584 
Q 2397 3584 2469 3576 
Q 2541 3569 2628 3553 
L 2631 2963 
z
" transform="scale(0.015625)"/>
       <path id="DejaVuSans-6f" d="M 1959 3097 
Q 1497 3097 1228 2736 
Q 959 2375 959 1747 
Q 959 1119 1226 758 
Q 1494 397 1959 397 
Q 2419 397 2687 759 
Q 2956 1122 2956 1747 
Q 2956 2369 2687 2733 
Q 2419 3097 1959 3097 
z
M 1959 3584 
Q 2709 3584 3137 3096 
Q 3566 2609 3566 1747 
Q 3566 888 3137 398 
Q 2709 -91 1959 -91 
Q 1206 -91 779 398 
Q 353 888 353 1747 
Q 353 2609 779 3096 
Q 1206 3584 1959 3584 
z
" transform="scale(0.015625)"/>
       <path id="DejaVuSans-66" d="M 2375 4863 
L 2375 4384 
L 1825 4384 
Q 1516 4384 1395 4259 
Q 1275 4134 1275 3809 
L 1275 3500 
L 2222 3500 
L 2222 3053 
L 1275 3053 
L 1275 0 
L 697 0 
L 697 3053 
L 147 3053 
L 147 3500 
L 697 3500 
L 697 3744 
Q 697 4328 969 4595 
Q 1241 4863 1831 4863 
L 2375 4863 
z
" transform="scale(0.015625)"/>
       <path id="DejaVuSans-4e" d="M 628 4666 
L 1478 4666 
L 3547 763 
L 3547 4666 
L 4159 4666 
L 4159 0 
L 3309 0 
L 1241 3903 
L 1241 0 
L 628 0 
L 628 4666 
z
" transform="scale(0.015625)"/>
      </defs>
      <use xlink:href="#DejaVuSans-74"/>
      <use xlink:href="#DejaVuSans-69" transform="translate(39.208984 0)"/>
      <use xlink:href="#DejaVuSans-65" transform="translate(66.992188 0)"/>
      <use xlink:href="#DejaVuSans-2d" transform="translate(128.515625 0)"/>
      <use xlink:href="#DejaVuSans-72" transform="translate(164.599609 0)"/>
      <use xlink:href="#DejaVuSans-6f" transform="translate(203.462891 0)"/>
      <use xlink:href="#DejaVuSans-64" transform="translate(264.644531 0)"/>
      <use xlink:href="#DejaVuSans-20" transform="translate(328.121094 0)"/>
      <use xlink:href="#DejaVuSans-66" transform="translate(359.908203 0)"/>
      <use xlink:href="#DejaVuSans-6f" transform="translate(395.113281 0)"/>
      <use xlink:href="#DejaVuSans-72" transform="translate(456.294922 0)"/>
      <use xlink:href="#DejaVuSans-63" transform="translate(495.158203 0)"/>
      <use xlink:href="#DejaVuSans-65" transform="translate(550.138672 0)"/>
      <use xlink:href="#DejaVuSans-20" transform="translate(611.662109 0)"/>
      <use xlink:href="#DejaVuSans-5b" transform="translate(643.449219 0)"/>
      <use xlink:href="#DejaVuSans-6b" transform="translate(682.462891 0)"/>
      <use xlink:href="#DejaVuSans-4e" transform="translate(740.373047 0)"/>
      <use xlink:href="#DejaVuSans-5d" transform="translate(815.177734 0)"/>
     </g>
    </g>
   </g>
   <g id="line2d_25">
    <path d="M 85.776818 138.824098 
L 86.072766 168.148889 
L 86.368894 177.821687 
L 86.739223 183.011261 
L 87.035572 184.868814 
L 87.10967 184.843388 
L 87.25788 183.651207 
L 87.406111 180.147016 
L 87.628515 168.735032 
L 88.07359 126.777057 
L 88.444783 105.790425 
L 88.741899 98.524817 
L 89.039125 95.690045 
L 89.187771 95.427279 
L 89.336439 95.868071 
L 89.559482 98.133301 
L 89.782588 103.554702 
L 90.005777 114.701769 
L 90.899702 172.5184 
L 91.198064 176.259216 
L 91.421928 177.198012 
L 91.496565 177.2324 
L 91.645862 176.827985 
L 91.795188 175.550306 
L 92.01924 170.649643 
L 92.243381 159.088783 
L 92.991259 107.585658 
L 93.215668 105.469114 
L 93.365249 105.362453 
L 93.589562 106.061401 
L 94.485611 110.588096 
L 94.783731 112.839991 
L 95.007135 116.406726 
L 95.230399 123.478382 
L 96.047711 157.18335 
L 96.344219 159.487914 
L 96.418277 159.478706 
L 96.566307 158.556149 
L 96.714225 155.965338 
L 96.935898 147.131253 
L 97.525745 115.872926 
L 97.81981 112.536603 
L 98.039911 112.161091 
L 98.2596 112.388941 
L 99.641233 114.922785 
L 99.857697 116.980318 
L 100.073677 121.96592 
L 100.360946 135.13563 
L 100.718935 152.011026 
L 101.075613 158.689017 
L 101.288946 159.631671 
L 101.430879 158.833495 
L 101.643345 154.576836 
L 101.8553 145.108283 
L 102.418102 115.34174 
L 102.767924 109.101191 
L 103.046596 107.37353 
L 103.254882 107.104395 
L 103.393398 107.38195 
L 103.600674 108.78364 
L 103.807381 112.177058 
L 104.082134 122.156812 
L 104.968161 166.666577 
L 105.238612 170.040541 
L 105.373467 170.356328 
L 105.508087 169.638613 
L 105.70958 166.249635 
L 105.977401 156.571177 
L 106.840814 117.745902 
L 107.038505 116.630566 
L 107.169991 117.673697 
L 107.366773 122.153303 
L 107.628305 134.170326 
L 108.277715 168.527629 
L 108.664237 177.725876 
L 108.920655 179.934549 
L 108.98461 180.018962 
L 109.112343 179.615482 
L 109.303485 177.523971 
L 109.55746 171.905022 
L 110.062278 153.856088 
L 110.500573 141.150164 
L 110.687495 139.858431 
L 110.811816 140.759416 
L 110.997847 144.547269 
L 111.429697 159.918712 
L 112.04082 179.327055 
L 112.404119 185.307632 
L 112.704868 187.217783 
L 112.824646 187.26749 
L 112.944124 186.933905 
L 113.182169 185.197272 
L 113.536913 180.436971 
L 114.295714 169.595416 
L 114.526457 168.635081 
L 114.641345 168.770347 
L 114.813076 169.695846 
L 115.097695 172.843603 
L 115.661042 182.491493 
L 116.656601 199.272496 
L 117.308353 206.574675 
L 117.844604 210.347952 
L 118.269023 211.971132 
L 118.688943 212.812963 
L 119.923016 214.776595 
L 120.426489 216.809528 
L 121.02242 219.089787 
L 122.190593 221.246073 
L 123.000012 223.639839 
L 123.189418 223.662698 
L 123.426158 223.407444 
L 123.805214 222.619775 
L 124.565574 220.981423 
L 124.756308 220.922766 
L 124.947316 221.112318 
L 125.18642 221.735269 
L 125.569506 223.501352 
L 126.621055 228.677142 
L 127.142287 230.080821 
L 127.612092 230.787879 
L 128.077592 231.127154 
L 128.584512 231.211848 
L 129.131659 231.072418 
L 129.852902 230.635857 
L 130.655321 229.874791 
L 131.27469 228.982728 
L 131.847478 227.762161 
L 132.46305 225.902638 
L 134.090265 220.612019 
L 134.619208 219.758909 
L 135.546444 218.795334 
L 136.918839 217.271497 
L 137.585211 216.190188 
L 138.432676 214.257727 
L 139.150027 212.86556 
L 139.826086 212.039515 
L 140.596786 211.451562 
L 141.693313 210.618555 
L 142.245361 209.869771 
L 142.846261 208.654858 
L 144.103808 205.973339 
L 144.478966 205.663685 
L 144.808221 205.654799 
L 145.138418 205.871943 
L 146.087144 206.966579 
L 147.284388 208.398062 
L 150.063547 212.558482 
L 151.204998 214.867491 
L 152.206387 216.604065 
L 153.822524 218.855512 
L 154.7363 219.807862 
L 155.499215 220.27759 
L 156.518103 220.610725 
L 157.232618 220.656964 
L 157.897504 220.473186 
L 158.666381 220.010357 
L 159.951842 218.937018 
L 160.467614 218.227955 
L 160.984423 217.123875 
L 161.969766 214.322052 
L 163.799992 209.174763 
L 164.327018 208.255793 
L 164.644148 208.054335 
L 164.961963 208.138628 
L 165.493114 208.629398 
L 165.972583 208.95132 
L 166.292918 208.919444 
L 166.667332 208.641178 
L 167.418558 208.038113 
L 167.741546 208.045636 
L 168.11917 208.278906 
L 169.094243 209.288287 
L 169.965657 210.36711 
L 170.457579 211.393451 
L 172.213611 215.504294 
L 173.367069 217.29421 
L 174.354769 218.510714 
L 175.013044 218.994023 
L 175.561742 219.12549 
L 177.04548 219.282224 
L 177.706237 219.287698 
L 178.423027 219.049474 
L 179.251396 218.532184 
L 179.915128 217.859755 
L 180.469104 216.981471 
L 181.024037 215.681044 
L 182.47252 211.925011 
L 184.717733 209.025078 
L 185.225211 207.761504 
L 185.733488 205.871596 
L 186.355968 202.65049 
L 187.662772 195.426181 
L 187.947898 194.897811 
L 188.176273 194.847755 
L 188.519287 195.108674 
L 188.920142 195.359766 
L 189.2069 195.336221 
L 189.494009 195.084481 
L 189.781466 194.526881 
L 190.126874 193.279082 
L 190.4728 191.146913 
L 190.934899 186.669601 
L 191.804319 174.996927 
L 192.386385 168.705849 
L 192.678225 167.24287 
L 192.853596 167.101899 
L 193.029169 167.532054 
L 193.32223 169.192798 
L 194.086593 173.909429 
L 194.322445 174.389909 
L 194.440488 174.358256 
L 194.617698 173.944212 
L 194.854246 172.722987 
L 195.268931 169.003736 
L 196.280062 158.844871 
L 196.578659 157.700664 
L 196.758103 157.555014 
L 196.937766 157.758953 
L 197.237696 158.657802 
L 197.960094 161.055753 
L 198.141275 161.136792 
L 198.322692 160.896398 
L 198.564946 160.078053 
L 198.989879 157.590371 
L 199.904523 151.869815 
L 200.149328 151.366904 
L 200.333169 151.41331 
L 200.578606 151.933029 
L 201.440425 154.216292 
L 201.625654 154.153219 
L 201.811075 153.787179 
L 202.120534 152.570815 
L 203.238954 147.321343 
L 203.426019 147.18473 
L 203.613272 147.304598 
L 203.925776 147.903341 
L 204.677888 149.482887 
L 204.866375 149.554494 
L 205.055046 149.404565 
L 205.30689 148.861263 
L 205.811548 146.996131 
L 206.380829 145.160924 
L 206.697801 144.756122 
L 206.951739 144.775744 
L 207.269612 145.117478 
L 207.906851 145.90606 
L 208.098409 145.887764 
L 208.354096 145.577993 
L 208.738218 144.58384 
L 209.830427 141.414926 
L 210.152753 141.105121 
L 210.41097 141.131586 
L 211.1227 141.386827 
L 211.382104 141.127727 
L 211.706804 140.41614 
L 212.357691 138.215108 
L 212.945192 136.583839 
L 213.337759 136.049751 
L 214.322332 135.14104 
L 214.783346 134.182572 
L 216.570787 129.9741 
L 217.103213 129.594473 
L 217.770533 129.169968 
L 218.238816 128.548252 
L 220.120657 125.490448 
L 221.200032 124.35902 
L 222.750602 122.416393 
L 223.0871 122.386759 
L 223.423376 122.568305 
L 223.826681 123.048746 
L 224.565496 124.370375 
L 225.504358 126.451142 
L 226.440854 129.221927 
L 228.505906 135.39011 
L 229.238137 136.890732 
L 229.770127 137.602697 
L 249.034395 137.494789 
L 249.912243 136.081437 
L 250.55785 135.418281 
L 251.08639 135.18957 
L 251.555534 135.243284 
L 252.023204 135.526385 
L 252.66282 136.195057 
L 253.92975 137.602697 
L 256.101214 137.494 
L 256.904307 136.100102 
L 258.634191 132.989865 
L 259.212711 132.392139 
L 259.734129 132.133556 
L 260.372845 132.076278 
L 261.773551 132.256826 
L 262.53723 132.59882 
L 264.131318 133.629907 
L 265.85519 134.777428 
L 266.394548 134.836282 
L 266.876183 134.662922 
L 267.420428 134.207907 
L 268.028106 133.387487 
L 268.699652 132.101763 
L 269.619147 130.254156 
L 269.803397 130.196516 
L 269.987734 130.403288 
L 270.233637 131.267447 
L 270.541178 133.564723 
L 271.649424 143.825226 
L 271.83427 143.976597 
L 272.019153 143.811317 
L 272.327368 143.483058 
L 272.450681 143.574016 
L 272.635678 144.180283 
L 272.882387 146.017511 
L 273.31421 151.435553 
L 274.178092 162.411235 
L 274.610216 165.365845 
L 274.980748 166.461448 
L 275.784109 167.891873 
L 276.093346 169.463025 
L 276.526597 173.131939 
L 277.208285 181.363155 
L 278.201856 192.622512 
L 279.821356 207.577982 
L 280.756772 214.103456 
L 282.06094 221.55352 
L 283.287971 227.513085 
L 284.194955 230.768513 
L 285.030809 232.952404 
L 285.798321 234.387318 
L 286.500174 235.28292 
L 287.196553 235.822692 
L 287.830792 236.049645 
L 288.461688 236.054457 
L 289.146744 235.831068 
L 289.885839 235.336405 
L 290.735634 234.475693 
L 292.652064 232.087603 
L 294.664776 229.424422 
L 295.832392 228.203304 
L 296.608488 226.991639 
L 297.493113 225.143055 
L 298.319187 222.868486 
L 299.415349 219.765383 
L 299.90691 219.039262 
L 302.729853 216.261664 
L 303.43205 215.582105 
L 303.917696 214.718756 
L 304.834454 212.989166 
L 305.104014 212.901661 
L 305.373541 213.086903 
L 305.750809 213.708696 
L 307.635751 217.367498 
L 308.442848 219.264634 
L 309.410299 221.398491 
L 310.429193 223.029577 
L 311.976076 225.115346 
L 312.664962 225.708822 
L 313.350855 226.009791 
L 314.766629 226.332515 
L 315.702933 226.321063 
L 316.683086 226.084256 
L 317.858551 225.561332 
L 318.722886 224.950867 
L 319.281829 224.273191 
L 319.739523 223.328555 
L 320.197833 221.793092 
L 320.758943 219.014059 
L 322.19276 211.440204 
L 322.604255 210.52065 
L 322.965066 210.187405 
L 324.15661 209.471383 
L 324.573813 208.756956 
L 324.992723 207.58824 
L 325.413521 205.760503 
L 325.889438 202.567966 
L 326.421763 197.232278 
L 327.174249 186.923887 
L 328.155302 173.955253 
L 329.989624 153.395661 
L 330.89057 140.402647 
L 331.343055 136.98852 
L 331.91051 134.741597 
L 332.309205 132.770191 
L 333.686371 124.813289 
L 334.033161 124.269838 
L 334.43901 124.082322 
L 335.254484 124.00786 
L 335.605279 124.24755 
L 336.426506 124.897752 
L 337.429289 125.132057 
L 337.903392 125.63851 
L 338.677005 126.862271 
L 339.574265 128.738282 
L 342.102384 134.358665 
L 342.766306 135.189496 
L 343.36968 135.622915 
L 344.092831 135.846317 
L 345.054839 135.876318 
L 346.133781 135.960121 
L 347.030347 136.245766 
L 348.043952 136.823949 
L 349.292388 137.602697 
L 366.747342 137.501636 
L 367.373735 136.861572 
L 368.111007 136.449318 
L 369.461566 136.029442 
L 371.125663 135.470394 
L 372.108512 134.877022 
L 373.131428 134.27885 
L 373.716822 134.201342 
L 374.350098 134.35026 
L 375.030265 134.747146 
L 375.962948 135.582153 
L 377.600336 137.060231 
L 378.310636 137.394678 
L 378.968055 137.449474 
L 379.624112 137.279148 
L 380.531839 136.784526 
L 381.592978 136.240602 
L 382.099453 136.222844 
L 382.55583 136.42407 
L 383.113711 136.936953 
L 383.82183 137.602697 
L 393.894772 137.698393 
L 393.943967 137.721424 
L 394.632104 135.028852 
L 394.779443 135.060589 
L 394.975845 135.422142 
L 395.270356 136.624367 
L 395.564775 138.939938 
L 395.957225 144.158106 
L 396.692834 158.048997 
L 397.379071 168.741711 
L 398.01578 175.038223 
L 398.798289 182.515736 
L 399.383819 190.785824 
L 401.025254 215.464969 
L 401.689812 220.754309 
L 402.394785 224.622531 
L 403.139862 227.461509 
L 403.971387 229.720329 
L 405.025854 231.976626 
L 405.754495 233.07238 
L 406.388527 233.652512 
L 406.973997 233.886332 
L 407.511424 233.870127 
L 408.134679 233.613663 
L 408.842311 233.059849 
L 409.677272 232.103124 
L 413.654689 227.050856 
L 414.884771 226.06132 
L 416.51528 224.806363 
L 416.913126 224.142768 
L 417.26741 223.08653 
L 417.578037 221.46023 
L 417.933937 218.290104 
L 418.38046 211.966087 
L 419.234864 199.279003 
L 419.551694 197.548116 
L 419.733196 197.396908 
L 419.914998 197.674559 
L 420.370609 199.117045 
L 420.918905 200.526354 
L 421.285025 200.931053 
L 421.559768 200.968362 
L 421.834559 200.786456 
L 422.155147 200.255412 
L 422.521509 199.157497 
L 423.667121 195.161769 
L 423.804826 195.254178 
L 424.034525 195.839476 
L 424.40264 197.643333 
L 425.605858 204.114475 
L 426.118971 205.501381 
L 426.634899 206.252513 
L 427.201203 206.717938 
L 427.580899 206.811454 
L 427.914645 206.660669 
L 428.297893 206.180074 
L 428.731484 205.2341 
L 429.313766 203.360088 
L 431.289522 195.748289 
L 431.791578 192.132349 
L 432.347291 186.298069 
L 432.855378 178.189945 
L 433.981712 158.538982 
L 434.34234 155.711371 
L 434.704088 154.516559 
L 435.223 153.219254 
L 435.535603 151.480367 
L 435.953983 147.512333 
L 436.956028 137.04608 
L 437.221847 136.261317 
L 437.435142 136.197201 
L 438.132172 136.500132 
L 438.347798 136.135215 
L 438.726427 134.872786 
L 439.488426 132.186219 
L 439.816843 131.758778 
L 440.036378 131.757882 
L 440.311449 131.99708 
L 441.307557 133.100421 
L 441.641599 133.093955 
L 442.144512 132.806514 
L 442.70588 132.554336 
L 442.987571 132.65113 
L 443.32648 133.033095 
L 444.177912 134.233071 
L 444.405955 134.189532 
L 444.748801 133.829066 
L 445.609974 132.820364 
L 446.129438 132.545899 
L 446.941559 132.25849 
L 447.291113 131.704795 
L 447.934275 130.074627 
L 448.52152 128.836196 
L 448.933859 128.441068 
L 449.583152 128.216437 
L 450.114968 127.959242 
L 450.528659 127.4848 
L 451.178604 126.642166 
L 451.355822 126.696372 
L 451.592083 127.035834 
L 452.064493 128.310717 
L 453.539633 132.814614 
L 454.070129 135.711222 
L 455.186796 143.7009 
L 455.828729 148.930522 
L 457.377578 162.998591 
L 458.773294 173.554397 
L 459.91338 184.668857 
L 460.602531 193.580291 
L 462.452585 219.147797 
L 463.1014 224.431524 
L 463.740506 227.87687 
L 464.321624 229.980784 
L 464.846665 231.120706 
L 465.411207 231.830468 
L 465.782907 232.270931 
L 466.960752 234.295811 
L 467.182604 234.174833 
L 468.455166 232.930972 
L 468.977908 232.774749 
L 469.587282 232.85404 
L 470.415331 233.217699 
L 471.113283 233.425279 
L 471.679959 233.356629 
L 472.201969 233.06938 
L 472.808674 232.465709 
L 473.584074 231.332332 
L 476.341737 226.912219 
L 477.263996 226.062797 
L 478.728162 224.785097 
L 479.147334 224.078076 
L 479.525372 222.949081 
L 479.862207 221.210472 
L 480.284527 217.708671 
L 481.647622 205.080671 
L 481.948232 204.40636 
L 482.163423 204.349858 
L 482.681439 204.368215 
L 482.941298 204.051999 
L 483.288637 203.25292 
L 483.724252 201.65851 
L 484.205438 198.967655 
L 484.777193 194.276517 
L 485.575368 187.766454 
L 485.843227 186.837445 
L 485.977449 186.812205 
L 486.111845 187.087876 
L 486.381105 188.400191 
L 488.006674 198.358955 
L 488.642581 200.523626 
L 489.190263 201.640261 
L 490.758793 204.168214 
L 492.353365 207.707929 
L 492.872506 208.318852 
L 493.203842 208.424969 
L 493.488512 208.297925 
L 493.773866 207.929249 
L 494.107778 207.124377 
L 494.490997 205.564234 
L 494.876374 203.017668 
L 495.361514 198.176722 
L 496.441277 186.668276 
L 497.236842 181.530549 
L 497.68808 177.797745 
L 498.141981 172.027131 
L 498.751571 160.750288 
L 499.469951 147.822072 
L 499.780345 145.214402 
L 499.988092 144.720391 
L 500.092204 144.767485 
L 500.353173 145.335539 
L 500.667613 145.924205 
L 500.825336 145.853641 
L 501.036127 145.226698 
L 501.353287 143.241083 
L 502.097252 138.128999 
L 502.364205 137.620522 
L 502.524685 137.715317 
L 502.792663 138.338745 
L 503.708463 140.865101 
L 504.033372 141.119105 
L 504.35918 141.060422 
L 505.452616 140.606792 
L 505.78313 140.847557 
L 506.447798 141.753227 
L 506.893657 142.168404 
L 507.341651 142.261148 
L 507.904513 142.122139 
L 508.527211 141.996763 
L 508.925296 142.182721 
L 509.66815 142.573549 
L 510.069999 142.472686 
L 511.283018 141.896827 
L 512.44841 141.882743 
L 513.093443 141.751207 
L 513.800267 141.978421 
L 514.510217 142.378682 
L 515.163636 143.05931 
L 515.759756 143.598581 
L 516.118404 143.660428 
L 516.717826 143.724079 
L 517.198937 144.067494 
L 517.741986 144.392653 
L 518.044552 144.317054 
L 518.40848 143.971163 
L 519.261305 143.078186 
L 519.68966 143.01349 
L 520.858693 143.069469 
L 521.291619 142.712989 
L 522.223124 141.858982 
L 523.03449 141.553945 
L 524.101048 141.058557 
L 525.998221 140.123513 
L 527.849859 140.316541 
L 528.363578 140.749577 
L 529.201009 141.465468 
L 530.365921 142.176468 
L 531.146062 142.756931 
L 531.537241 142.79291 
L 531.994584 142.578856 
L 533.043881 141.942437 
L 533.372896 142.033441 
L 534.032479 142.554805 
L 534.495403 142.767216 
L 534.826665 142.701487 
L 535.224831 142.388684 
L 536.156584 141.52837 
L 536.490256 141.524111 
L 537.025109 141.819549 
L 537.561161 142.042447 
L 537.896798 141.93235 
L 538.300173 141.536849 
L 539.243963 140.527085 
L 539.852583 140.296291 
L 540.394821 140.321362 
L 541.414654 140.522467 
L 542.507011 140.338673 
L 542.849352 140.707811 
L 543.329434 141.672439 
L 544.36142 143.774694 
L 544.913669 144.408637 
L 545.46721 144.665861 
L 546.16089 144.777621 
L 546.508409 144.601562 
L 547.274417 144.099495 
L 547.623246 144.128857 
L 548.11226 144.431321 
L 549.092497 145.255913 
L 549.373097 145.156182 
L 549.935023 144.578655 
L 550.497947 144.133698 
L 550.920809 144.101394 
L 551.556183 144.351266 
L 552.122047 144.494928 
L 552.54712 144.374284 
L 553.114779 143.936163 
L 554.467052 142.727168 
L 554.966699 142.665686 
L 555.467119 142.61464 
L 555.825039 142.301463 
L 556.97309 140.968373 
L 557.404726 140.893132 
L 557.76493 141.05798 
L 558.125625 141.451568 
L 558.559178 142.327832 
L 559.138621 144.120804 
L 560.595178 148.791667 
L 561.034553 149.557343 
L 562.284421 150.944456 
L 562.505473 150.919381 
L 562.80031 150.584809 
L 563.168962 149.746086 
L 564.127732 147.279726 
L 564.349003 147.141623 
L 564.570272 147.242242 
L 564.865299 147.676329 
L 566.046042 149.845125 
L 566.341613 149.953094 
L 566.711437 149.808544 
L 567.675303 149.246852 
L 568.04703 149.354381 
L 568.41937 149.749859 
L 568.867049 150.642407 
L 570.065283 153.4167 
L 570.365673 153.585707 
L 570.591114 153.441506 
L 570.816644 153.00554 
L 571.11742 151.879114 
L 572.245682 146.765299 
L 572.471396 146.631274 
L 572.621884 146.788566 
L 572.922888 147.618416 
L 574.052107 151.524927 
L 574.278094 151.54824 
L 574.504167 151.283994 
L 574.881193 150.41083 
L 575.560779 148.864415 
L 575.863249 148.601187 
L 576.165989 148.618489 
L 576.544792 148.954187 
L 577.227696 149.984043 
L 578.064197 151.173224 
L 578.521276 151.494231 
L 578.749997 151.452708 
L 579.055119 151.116625 
L 579.436751 150.252626 
L 580.506465 147.475784 
L 580.735897 147.433756 
L 580.965406 147.67213 
L 581.348104 148.563548 
L 582.267561 150.925854 
L 582.574373 151.134647 
L 582.804596 151.02361 
L 583.111724 150.574685 
L 584.496303 148.047434 
L 584.727486 148.111677 
L 585.035926 148.524805 
L 585.421801 149.48815 
L 586.736624 153.263368 
L 587.046635 153.507453 
L 587.356884 153.42993 
L 587.822696 152.971221 
L 588.28902 152.567997 
L 588.600171 152.539619 
L 589.145128 152.785104 
L 589.924469 153.101138 
L 590.626606 153.127077 
L 591.485652 153.146413 
L 592.111082 153.439217 
L 594.30568 154.965871 
L 595.88091 157.276216 
L 596.275889 157.321988 
L 596.829663 157.104641 
L 598.336883 156.398753 
L 598.575344 156.646139 
L 598.893506 157.324841 
L 599.450877 159.205249 
L 601.52789 166.95645 
L 601.928445 167.687521 
L 602.24905 167.945325 
L 602.56976 167.968619 
L 603.211369 167.69281 
L 603.772838 167.573979 
L 604.494567 167.456033 
L 605.055682 167.370521 
L 605.776844 167.594927 
L 606.257487 167.609831 
L 606.657966 167.39181 
L 607.058428 166.888708 
L 607.539027 165.858094 
L 608.901822 162.284321 
L 609.222857 162.122513 
L 610.267398 161.931797 
L 610.669644 161.442374 
L 611.152714 160.460452 
L 611.797415 158.542294 
L 612.442749 155.811639 
L 613.735063 150.052658 
L 614.139332 149.309351 
L 614.381992 149.233387 
L 614.624729 149.394664 
L 615.677489 150.498011 
L 615.920649 150.396151 
L 616.244994 149.919469 
L 616.650641 148.792008 
L 618.194386 143.72239 
L 618.519853 143.517085 
L 618.845483 143.635422 
L 619.823355 144.312582 
L 620.149638 144.173783 
L 620.476084 143.738618 
L 620.884369 142.788087 
L 622.110744 139.516862 
L 622.438161 139.227699 
L 622.76574 139.234882 
L 623.17544 139.515023 
L 623.995593 140.127781 
L 624.406044 140.126936 
L 624.816745 139.854929 
L 625.721157 138.811826 
L 626.214974 138.400923 
L 626.626753 138.330357 
L 627.038768 138.520365 
L 628.111072 139.212051 
L 628.441296 139.154627 
L 628.771629 138.839501 
L 629.102053 138.217873 
L 629.597828 136.719412 
L 630.837604 132.658895 
L 631.415858 131.519733 
L 631.993701 130.837559 
L 633.395885 129.737296 
L 633.973214 129.405978 
L 634.38564 128.828457 
L 634.798068 127.80126 
L 635.457462 125.362479 
L 636.19801 122.795249 
L 636.936747 121.060385 
L 637.427587 120.335331 
L 641.539757 116.416247 
L 641.935489 116.384937 
L 642.329594 116.579871 
L 642.800377 117.058252 
L 643.424576 118.042613 
L 644.122363 119.580786 
L 647.176711 127.009863 
L 648.078842 128.149818 
L 648.30326 128.324279 
L 648.601659 128.236969 
L 649.564052 127.625185 
L 650.004929 127.685246 
L 650.662497 126.972299 
L 651.170787 126.599062 
L 651.387906 126.710559 
L 651.676964 127.244385 
L 652.254469 129.070551 
L 654.202622 135.019641 
L 655.210821 137.602697 
L 668.544576 137.521851 
L 669.935215 134.516643 
L 670.842788 133.068192 
L 671.542897 132.239326 
L 671.683123 132.294274 
L 671.893589 132.773523 
L 672.174438 134.395658 
L 672.877611 139.320621 
L 673.01842 138.8997 
L 673.229739 136.884209 
L 674.217494 124.906324 
L 674.570849 123.405322 
L 674.924487 122.760632 
L 675.066019 122.74545 
L 675.207596 122.943167 
L 675.420047 123.883385 
L 675.632608 126.123166 
L 675.916206 132.380953 
L 676.626226 152.43494 
L 676.910664 155.102119 
L 677.052976 155.386473 
L 677.19535 154.880545 
L 677.409031 152.372467 
L 677.694166 145.298869 
L 678.336671 126.298479 
L 678.622638 123.662866 
L 678.694168 123.561035 
L 678.765713 123.681911 
L 678.908849 124.616355 
L 679.123668 127.908269 
L 679.410314 136.298733 
L 679.513182 140.387834 
L 679.513182 140.387834 
" clip-path="url(#pb58a19bd7e)" style="fill: none; stroke: #2ca02c; stroke-width: 0.9; stroke-linecap: square"/>
   </g>
   <g id="line2d_26">
    <path d="M 85.776818 138.824098 
L 86.072766 167.311164 
L 86.294848 172.699327 
L 86.442947 173.245533 
L 86.591074 172.676833 
L 87.035572 169.002359 
L 87.406111 164.743359 
L 87.628515 158.956809 
L 87.851003 146.965966 
L 88.222036 123.357763 
L 88.51905 116.698702 
L 88.8905 113.151779 
L 89.410781 110.311086 
L 89.559482 109.953679 
L 89.633843 110.023341 
L 89.782588 111.165618 
L 89.93137 114.673342 
L 90.154628 127.23665 
L 90.601514 160.399444 
L 90.899702 167.608601 
L 91.198064 170.159321 
L 91.421928 170.794585 
L 91.57121 170.809123 
L 91.720521 170.403257 
L 91.869863 169.252682 
L 92.01924 166.654422 
L 92.243381 157.330589 
L 93.066066 104.198869 
L 93.440029 97.536783 
L 93.963192 92.197966 
L 94.261824 90.474537 
L 94.411034 90.339624 
L 94.560168 91.119261 
L 94.783731 95.051557 
L 95.007135 103.62719 
L 95.379168 128.467039 
L 95.825057 158.112062 
L 96.121879 166.491095 
L 96.344219 168.115017 
L 96.492306 166.934267 
L 96.714225 160.974226 
L 97.009735 142.71573 
L 97.525745 105.518602 
L 97.966589 90.232475 
L 98.332738 83.85374 
L 98.697752 80.832859 
L 98.916219 80.396874 
L 99.061628 80.782778 
L 99.27937 82.724975 
L 99.496649 86.933308 
L 99.785597 97.398017 
L 100.217409 123.994608 
L 100.790379 158.798461 
L 101.075613 165.334712 
L 101.217892 166.066662 
L 101.359941 165.051161 
L 101.57258 159.896007 
L 101.8553 145.353546 
L 102.488193 106.827207 
L 102.837693 96.91574 
L 103.116093 93.678716 
L 103.185522 93.467087 
L 103.254882 93.504054 
L 103.393398 94.378245 
L 103.600674 97.988597 
L 103.876161 108.055546 
L 104.287551 135.134276 
L 104.696686 161.443798 
L 105.035868 171.519885 
L 105.238612 173.487868 
L 105.30607 173.535252 
L 105.440806 172.728743 
L 105.642475 169.201041 
L 105.910537 159.865944 
L 106.906774 116.951873 
L 107.038505 116.570346 
L 107.169991 117.636082 
L 107.366773 122.153077 
L 107.628305 134.162496 
L 108.213066 165.383352 
L 108.535656 172.7385 
L 108.792567 174.645683 
L 108.856641 174.711252 
L 108.920655 174.636744 
L 109.112343 173.683548 
L 109.367074 170.831 
L 109.684059 164.486764 
L 110.687495 140.075294 
L 110.811816 140.950332 
L 111.059734 146.250335 
L 111.858219 166.81819 
L 112.162204 169.185908 
L 112.343749 169.527868 
L 112.464417 169.48006 
L 112.704868 168.963462 
L 113.122772 167.288427 
L 113.654532 164.151594 
L 114.35352 159.950728 
L 114.583941 159.559161 
L 114.698669 159.625587 
L 114.927163 160.161418 
L 115.661042 162.287516 
L 115.828563 162.311185 
L 116.050904 162.012708 
L 116.382301 161.054251 
L 118.057349 155.427073 
L 118.479563 154.790761 
L 119.25897 153.853509 
L 119.668844 153.227789 
L 120.024232 153.091603 
L 120.824697 152.899121 
L 121.464323 152.371494 
L 121.998183 152.74192 
L 122.477609 152.961498 
L 122.668005 152.802656 
L 122.905254 152.155947 
L 123.378804 149.909171 
L 124.422706 145.191924 
L 125.4737 141.392403 
L 126.000528 140.045499 
L 186.923211 140.119789 
L 189.14952 143.368317 
L 190.126874 144.297265 
L 191.630099 145.360713 
L 192.561423 145.96221 
L 192.912098 146.56486 
L 193.439603 148.054762 
L 194.145527 149.902799 
L 194.617698 150.562142 
L 194.91343 150.665897 
L 195.150355 150.546998 
L 195.446938 150.133161 
L 196.518892 148.226047 
L 196.758103 148.290488 
L 197.057664 148.691173 
L 198.141275 150.480307 
L 198.383216 150.434426 
L 198.686228 150.062117 
L 199.111514 149.072909 
L 199.904523 147.075292 
L 200.149328 146.938364 
L 200.333169 147.0757 
L 200.640021 147.674038 
L 201.378725 149.291851 
L 201.625654 149.391589 
L 201.811075 149.244998 
L 202.120534 148.600597 
L 202.803203 146.281368 
L 203.176641 145.436724 
L 203.426019 145.320823 
L 203.675731 145.534404 
L 204.113526 146.365207 
L 204.677888 147.294442 
L 204.929245 147.366584 
L 205.180928 147.135166 
L 205.495986 146.457262 
L 206.507558 143.963488 
L 206.761255 143.823248 
L 207.015274 143.921473 
L 207.460575 144.453902 
L 207.906851 144.911995 
L 208.162301 144.880569 
L 208.418067 144.57422 
L 208.802308 143.691856 
L 209.830427 141.16487 
L 210.152753 140.90089 
L 210.41097 140.936149 
L 211.1227 141.201908 
L 211.382104 140.973337 
L 211.706804 140.320902 
L 212.292513 138.460443 
L 212.879834 136.783762 
L 213.337759 136.106303 
L 214.322332 135.119863 
L 214.783346 134.091777 
L 215.509789 131.841674 
L 216.305055 129.598026 
L 216.83684 128.742018 
L 217.971111 127.23918 
L 218.43979 126.01273 
L 221.469904 116.168806 
L 222.14429 112.424783 
L 224.09543 100.992842 
L 224.766842 97.454333 
L 225.303349 93.268845 
L 226.173563 84.274026 
L 227.307785 73.114948 
L 228.17307 66.790378 
L 229.238137 60.821787 
L 230.632587 54.202135 
L 232.078791 48.406417 
L 233.116493 45.117833 
L 233.951501 43.146999 
L 234.780718 41.73285 
L 235.730322 40.557137 
L 238.646005 37.394477 
L 239.434685 36.950398 
L 240.035886 36.842636 
L 240.572939 36.972944 
L 241.16533 37.369623 
L 241.753155 38.032079 
L 242.394703 39.107199 
L 243.031751 40.616648 
L 243.723042 42.845954 
L 244.526893 46.239946 
L 248.917632 66.600919 
L 249.385107 67.697413 
L 249.795 68.171714 
L 250.14688 68.258413 
L 250.499121 68.109281 
L 251.08639 67.551913 
L 252.372623 66.184357 
L 252.66282 66.228864 
L 253.009876 66.503362 
L 253.413237 67.109641 
L 253.815146 68.141639 
L 254.273074 70.099852 
L 254.958383 74.336278 
L 255.70077 78.593211 
L 256.101214 79.899176 
L 256.387685 80.287477 
L 256.617142 80.278394 
L 256.904307 79.934519 
L 257.537343 79.092056 
L 257.825615 79.071026 
L 258.056441 79.289763 
L 258.402988 80.005394 
L 258.92336 81.717552 
L 259.502276 84.387956 
L 260.198473 88.850156 
L 260.722022 91.756671 
L 261.013477 92.369691 
L 261.130185 92.335279 
L 261.305395 91.99342 
L 261.597829 90.778861 
L 262.243103 86.679481 
L 263.067644 81.839246 
L 263.717218 79.271552 
L 264.190528 78.118176 
L 264.54606 77.709213 
L 264.783362 77.6921 
L 265.020922 77.913283 
L 265.318309 78.589884 
L 265.675974 80.113096 
L 266.154508 83.364126 
L 268.27197 99.946119 
L 269.005762 103.972514 
L 269.434995 108.127019 
L 269.926279 115.648076 
L 270.541178 129.060627 
L 271.218262 142.508292 
L 271.526214 144.879202 
L 271.711035 145.213615 
L 271.83427 145.116469 
L 272.389023 144.036114 
L 272.450681 144.078752 
L 272.635678 144.640242 
L 272.882387 146.457802 
L 273.437601 153.125988 
L 273.93123 157.920689 
L 274.239814 159.323683 
L 274.486735 159.610324 
L 274.671961 159.443491 
L 274.980748 158.704183 
L 275.907783 156.243908 
L 276.40277 155.689807 
L 276.89829 155.080214 
L 277.270312 154.233408 
L 277.953236 151.942309 
L 279.696612 146.030378 
L 280.881371 142.608847 
L 281.751486 140.726369 
L 282.246163 140.045499 
L 301.104546 140.131878 
L 302.080661 141.159422 
L 302.837951 141.650186 
L 303.486027 141.823158 
L 304.349171 141.798463 
L 306.397343 141.471204 
L 308.012462 140.84968 
L 308.980518 140.227495 
L 309.356597 140.045499 
L 326.314977 140.14778 
L 327.066194 141.304644 
L 327.93597 143.120026 
L 329.318151 146.029736 
L 329.541511 146.147842 
L 329.709347 146.043271 
L 329.933516 145.570202 
L 330.214304 144.373108 
L 330.834097 140.253978 
L 331.399704 137.168369 
L 332.309205 133.39221 
L 332.881089 129.062596 
L 333.686371 123.208707 
L 334.264911 120.645521 
L 336.603009 111.555672 
L 337.488475 105.154274 
L 340.174576 86.523663 
L 341.016997 81.76022 
L 342.524873 75.228683 
L 343.85192 70.066587 
L 344.694408 67.663733 
L 347.448026 61.065586 
L 349.114291 57.575477 
L 349.885444 56.497704 
L 350.536773 55.950166 
L 351.128099 55.72925 
L 351.659818 55.749297 
L 353.313835 56.050276 
L 354.082759 55.776654 
L 355.326045 55.040309 
L 358.154385 53.12172 
L 359.435799 52.174629 
L 359.957473 52.041634 
L 360.362428 52.167297 
L 360.766831 52.573451 
L 361.2285 53.42803 
L 361.805088 55.04371 
L 363.130261 59.007445 
L 363.59104 59.712983 
L 363.994112 59.989667 
L 364.454528 60.019297 
L 365.259187 59.762571 
L 366.290494 59.501227 
L 369.125372 58.992796 
L 369.573399 58.680063 
L 370.019525 58.038527 
L 370.574313 56.746811 
L 371.564072 53.668637 
L 372.48715 51.116213 
L 373.131428 49.876743 
L 373.663802 49.272109 
L 374.139604 49.02253 
L 374.56001 49.030426 
L 374.926003 49.247243 
L 375.342266 49.754924 
L 375.859792 50.749192 
L 376.682122 52.924231 
L 378.259989 56.979938 
L 378.7154 57.615317 
L 379.270976 57.99214 
L 380.632766 58.779421 
L 381.542374 59.316973 
L 381.896771 59.243735 
L 382.30224 58.884795 
L 383.569333 57.233374 
L 386.014678 54.095759 
L 386.751506 53.662521 
L 387.484729 53.492878 
L 388.361531 53.491958 
L 389.042204 53.70896 
L 390.015018 54.280497 
L 390.94248 55.035428 
L 391.481779 55.766693 
L 391.825839 56.614311 
L 392.121153 57.945564 
L 392.416724 60.273556 
L 392.761734 64.851719 
L 393.15607 73.132902 
L 393.648699 88.631027 
L 394.730334 124.6477 
L 395.270356 134.217788 
L 395.957225 145.842669 
L 396.839919 161.858088 
L 397.134038 163.894484 
L 397.33007 164.164445 
L 397.477064 163.915796 
L 397.721991 162.88772 
L 398.26048 159.331703 
L 399.675975 149.807673 
L 400.929766 145.848299 
L 401.878484 143.657432 
L 403.694887 140.045499 
L 420.644585 140.045499 
L 421.376597 142.32749 
L 421.788759 142.972475 
L 422.155147 143.162849 
L 422.475714 143.086393 
L 422.933694 142.724819 
L 425.280697 140.543543 
L 426.21256 140.12345 
L 426.729024 140.045499 
L 431.139511 140.091263 
L 431.892354 141.636787 
L 433.417167 144.98567 
L 433.776118 145.177384 
L 434.290755 145.401555 
L 434.652338 145.86916 
L 435.170992 146.542908 
L 435.37918 146.514314 
L 435.587799 146.165316 
L 435.84921 145.176148 
L 436.216473 142.75735 
L 437.00912 137.150394 
L 437.275118 136.577144 
L 437.488554 136.536227 
L 438.07835 136.694792 
L 438.293841 136.38478 
L 438.618082 135.390036 
L 439.707251 131.445781 
L 439.98145 131.200523 
L 440.201334 131.252323 
L 440.587232 131.668716 
L 441.196431 132.289308 
L 441.530141 132.313435 
L 441.920723 132.06935 
L 442.70588 131.535351 
L 442.987571 131.643591 
L 443.32648 132.101239 
L 444.177912 133.563881 
L 444.405955 133.52971 
L 444.691595 133.219246 
L 445.667591 131.965368 
L 446.129438 131.711092 
L 446.883388 131.43805 
L 447.174495 130.971825 
L 447.58309 129.853934 
L 448.639239 126.705765 
L 449.051816 126.167553 
L 450.410467 124.867237 
L 451.296751 123.236754 
L 451.473957 123.422006 
L 451.769255 124.235416 
L 453.303749 130.2469 
L 453.89334 133.876549 
L 455.420822 145.786607 
L 456.118524 152.066594 
L 456.865622 158.257068 
L 457.434159 161.1514 
L 458.10821 163.439036 
L 458.497185 164.236944 
L 459.211485 164.915712 
L 459.482959 164.795005 
L 459.752545 164.40363 
L 460.126762 163.409733 
L 460.602531 161.392495 
L 462.60318 151.721606 
L 463.49585 148.935575 
L 464.417631 146.779828 
L 465.411207 145.015418 
L 465.736662 144.716058 
L 465.967196 144.910711 
L 466.648073 145.643585 
L 466.871691 145.579241 
L 467.093988 145.255686 
L 469.587282 140.045499 
L 483.680615 140.094152 
L 484.249294 141.199414 
L 485.042355 142.212063 
L 486.786027 144.048468 
L 487.237269 144.165226 
L 487.689569 144.053201 
L 488.142716 143.686789 
L 488.688121 142.925106 
L 490.526355 140.045499 
L 496.046745 140.109442 
L 496.937495 142.580072 
L 498.243219 146.21223 
L 498.496933 146.411901 
L 498.6496 146.330275 
L 498.8537 145.941875 
L 499.212445 144.570265 
L 499.728509 142.588086 
L 499.936096 142.404925 
L 500.092204 142.556871 
L 500.457834 143.426962 
L 500.772726 143.932447 
L 500.930663 143.862591 
L 501.141723 143.339304 
L 501.459243 141.737626 
L 502.150591 138.046727 
L 502.364205 137.728825 
L 502.524685 137.801523 
L 502.792663 138.367372 
L 503.762553 140.88458 
L 504.08761 141.080833 
L 504.413572 140.994404 
L 505.397646 140.553471 
L 505.727962 140.74414 
L 506.225693 141.359022 
L 506.781988 141.962513 
L 507.17341 142.089629 
L 507.678991 142.020315 
L 508.583996 141.81911 
L 509.039284 142.053236 
L 509.610847 142.330134 
L 510.012514 142.268046 
L 511.399118 141.720084 
L 512.272986 141.756373 
L 513.211024 141.60655 
L 514.095706 141.929304 
L 514.688179 142.327976 
L 515.938987 143.348346 
L 516.958201 143.505707 
L 517.802449 143.938374 
L 518.105142 143.81339 
L 518.590795 143.30853 
L 519.200217 142.729904 
L 519.628387 142.635307 
L 520.982267 142.63702 
L 521.539521 142.152818 
L 522.223124 141.641324 
L 523.097056 141.363971 
L 524.226933 140.880227 
L 525.998221 140.078728 
L 527.849859 140.279246 
L 528.363578 140.702899 
L 529.136475 141.363883 
L 530.495744 142.177048 
L 531.146062 142.597788 
L 531.537241 142.615834 
L 531.994584 142.395373 
L 532.978141 141.775461 
L 533.372896 141.849885 
L 534.6941 142.506214 
L 535.092031 142.289329 
L 536.289996 141.352599 
L 536.690685 141.458515 
L 537.628251 141.875501 
L 537.963981 141.732656 
L 538.434779 141.248175 
L 539.17643 140.496827 
L 539.784886 140.252147 
L 540.326977 140.251872 
L 541.550941 140.435452 
L 542.438599 140.264675 
L 542.712359 140.477404 
L 543.123569 141.154792 
L 544.499361 143.792667 
L 544.982791 144.218017 
L 545.605794 144.400771 
L 546.23036 144.387715 
L 546.647535 144.092391 
L 547.274417 143.685699 
L 547.693059 143.706363 
L 548.182181 143.983184 
L 549.022384 144.603292 
L 549.302925 144.554217 
L 549.794449 144.137842 
L 550.427526 143.639454 
L 550.850292 143.584331 
L 551.414877 143.774783 
L 552.122047 143.983293 
L 552.54712 143.886909 
L 553.114779 143.506675 
L 554.538383 142.415076 
L 555.109597 142.402473 
L 555.538671 142.312576 
L 555.896671 141.983129 
L 556.901213 140.880884 
L 557.332741 140.773994 
L 557.692851 140.895374 
L 558.053445 141.227825 
L 558.414567 141.833452 
L 558.921136 143.177794 
L 560.595178 148.086665 
L 560.96125 148.599363 
L 561.842621 149.22762 
L 562.210756 149.383652 
L 562.505473 149.25183 
L 562.80031 148.843809 
L 563.316445 147.628639 
L 564.053974 145.900462 
L 564.349003 145.664886 
L 564.570272 145.714613 
L 564.865299 146.020888 
L 566.119914 147.681757 
L 566.48949 147.734189 
L 567.155852 147.485794 
L 567.675303 147.393025 
L 568.04703 147.53641 
L 568.41937 147.899041 
L 568.941756 148.794587 
L 569.915194 150.580572 
L 570.215445 150.775327 
L 570.440808 150.734075 
L 570.666283 150.498583 
L 570.967026 149.815638 
L 571.41824 148.058615 
L 572.095219 145.545965 
L 572.396156 145.164905 
L 572.546639 145.205613 
L 572.772381 145.539934 
L 573.148668 146.613737 
L 573.826186 148.546821 
L 574.127428 148.832911 
L 574.353442 148.780029 
L 574.654939 148.427209 
L 575.71198 146.8507 
L 576.014585 146.805824 
L 576.39322 147.025367 
L 576.99991 147.750491 
L 578.064197 149.025577 
L 578.521276 149.261012 
L 578.826261 149.168365 
L 579.131426 148.821218 
L 579.589468 147.869022 
L 580.353552 146.159734 
L 580.659412 145.959251 
L 580.888894 146.072836 
L 581.194997 146.530864 
L 582.344248 148.702693 
L 582.651103 148.76967 
L 582.958136 148.546946 
L 583.419046 147.837595 
L 584.188249 146.626254 
L 584.496303 146.463153 
L 584.727486 146.530981 
L 585.035926 146.879748 
L 585.499021 147.851697 
L 586.581709 150.351643 
L 586.96911 150.658879 
L 587.2793 150.607119 
L 587.745025 150.222873 
L 588.366789 149.734066 
L 588.833659 149.698478 
L 590.080443 149.765154 
L 591.876475 149.576934 
L 592.737138 149.916326 
L 594.462875 150.792266 
L 595.565271 151.89643 
L 596.038844 151.999084 
L 596.592218 151.839158 
L 597.780982 151.153753 
L 598.257426 150.96977 
L 598.575344 151.065415 
L 598.973085 151.489978 
L 599.929216 153.065265 
L 600.727735 154.120772 
L 601.287692 154.538411 
L 601.688081 154.570782 
L 602.088732 154.382835 
L 602.730145 153.776087 
L 604.093644 152.415676 
L 605.215964 151.565923 
L 606.257487 151.194304 
L 607.779374 150.640982 
L 608.580949 150.329909 
L 608.982066 150.436297 
L 609.624387 150.902363 
L 610.347825 151.359376 
L 610.830622 151.425901 
L 611.313826 151.26499 
L 611.797415 150.853793 
L 612.28136 150.11154 
L 613.007883 148.450204 
L 613.735063 146.88386 
L 614.058462 146.558641 
L 614.301097 146.525741 
L 614.624729 146.745011 
L 615.758533 147.868237 
L 616.082802 147.761178 
L 616.407223 147.353981 
L 616.812969 146.452879 
L 618.113045 143.160423 
L 618.438471 142.941473 
L 618.76406 143.021906 
L 619.986476 143.754324 
L 620.312841 143.528467 
L 620.721025 142.855674 
L 621.374646 141.124611 
L 622.028915 139.597702 
L 622.356292 139.247375 
L 622.68383 139.192155 
L 623.09348 139.418868 
L 624.077663 140.10875 
L 624.488164 140.058885 
L 624.898914 139.752307 
L 626.379657 138.344591 
L 626.791531 138.381837 
L 627.286089 138.715116 
L 628.028536 139.193695 
L 628.358729 139.189854 
L 628.689037 138.945994 
L 629.01944 138.406672 
L 629.515189 137.002711 
L 631.002859 132.172267 
L 631.663557 130.961568 
L 632.571186 129.925807 
L 633.478356 129.034246 
L 633.973214 128.574467 
L 634.38564 127.799196 
L 634.798068 126.479949 
L 635.375093 123.78598 
L 636.444538 118.706272 
L 637.182339 116.319381 
L 637.998693 114.512371 
L 638.649155 112.856242 
L 639.538804 109.854607 
L 640.34324 106.543119 
L 641.460415 100.715209 
L 645.505538 79.437263 
L 647.025658 73.503768 
L 647.853985 70.226809 
L 648.601659 66.475672 
L 651.098329 51.131995 
L 651.532483 49.856732 
L 651.82138 49.547703 
L 652.110118 49.566772 
L 652.54315 49.867904 
L 653.048302 50.558214 
L 653.553409 51.650435 
L 654.923103 55.033786 
L 655.210821 55.110114 
L 655.498136 54.844005 
L 655.856556 54.130302 
L 656.49913 52.244216 
L 657.631712 48.963379 
L 658.263111 47.791816 
L 658.821154 47.174566 
L 659.307224 46.939437 
L 659.791464 46.95429 
L 660.342924 47.20817 
L 661.098528 47.833132 
L 663.63501 50.396029 
L 664.04797 51.215175 
L 664.392651 52.404648 
L 664.737742 54.390102 
L 665.152209 58.215937 
L 665.774333 66.661046 
L 666.535392 76.613383 
L 666.881556 78.720044 
L 667.089305 78.975217 
L 667.227821 78.756738 
L 667.504889 77.58726 
L 668.891653 70.062131 
L 669.169585 69.647336 
L 669.378198 69.600892 
L 669.586953 69.771578 
L 669.865528 70.356744 
L 670.144386 71.448311 
L 670.493367 73.882569 
L 670.842788 78.244486 
L 671.19263 85.566612 
L 671.613001 99.34129 
L 672.666506 138.48353 
L 672.877611 139.951458 
L 673.01842 138.934219 
L 673.229739 134.706211 
L 674.429473 102.970517 
L 674.712271 101.234201 
L 674.782999 101.205473 
L 674.924487 101.652255 
L 675.136802 103.682441 
L 675.420047 109.355897 
L 675.77438 122.148473 
L 676.626226 157.89814 
L 676.839531 160.332256 
L 676.910664 160.568875 
L 676.981812 160.533516 
L 677.124155 159.667932 
L 677.337788 156.414269 
L 677.694166 145.964783 
L 678.336671 125.151445 
L 678.622638 122.327691 
L 678.694168 122.248514 
L 678.837274 122.845721 
L 679.052046 125.719466 
L 679.338628 133.52878 
L 679.513182 140.422082 
L 679.513182 140.422082 
" clip-path="url(#pb58a19bd7e)" style="fill: none; stroke: #d62728; stroke-opacity: 0.8; stroke-width: 0.9; stroke-linecap: square"/>
   </g>
   <g id="patch_3">
    <path d="M 56.09 246.04 
L 56.09 26.88 
" style="fill: none; stroke: #000000; stroke-width: 0.8; stroke-linejoin: miter; stroke-linecap: square"/>
   </g>
   <g id="patch_4">
    <path d="M 709.2 246.04 
L 709.2 26.88 
" style="fill: none; stroke: #000000; stroke-width: 0.8; stroke-linejoin: miter; stroke-linecap: square"/>
   </g>
   <g id="patch_5">
    <path d="M 56.09 246.04 
L 709.2 246.04 
" style="fill: none; stroke: #000000; stroke-width: 0.8; stroke-linejoin: miter; stroke-linecap: square"/>
   </g>
   <g id="patch_6">
    <path d="M 56.09 26.88 
L 709.2 26.88 
" style="fill: none; stroke: #000000; stroke-width: 0.8; stroke-linejoin: miter; stroke-linecap: square"/>
   </g>
   <g id="text_15">
    <!-- steering-link loads over one Kinnekulle Ring lap -->
    <g transform="translate(239.711875 20.88) scale(0.12 -0.12)">
     <defs>
      <path id="DejaVuSans-67" d="M 2906 1791 
Q 2906 2416 2648 2759 
Q 2391 3103 1925 3103 
Q 1463 3103 1205 2759 
Q 947 2416 947 1791 
Q 947 1169 1205 825 
Q 1463 481 1925 481 
Q 2391 481 2648 825 
Q 2906 1169 2906 1791 
z
M 3481 434 
Q 3481 -459 3084 -895 
Q 2688 -1331 1869 -1331 
Q 1566 -1331 1297 -1286 
Q 1028 -1241 775 -1147 
L 775 -588 
Q 1028 -725 1275 -790 
Q 1522 -856 1778 -856 
Q 2344 -856 2625 -561 
Q 2906 -266 2906 331 
L 2906 616 
Q 2728 306 2450 153 
Q 2172 0 1784 0 
Q 1141 0 747 490 
Q 353 981 353 1791 
Q 353 2603 747 3093 
Q 1141 3584 1784 3584 
Q 2172 3584 2450 3431 
Q 2728 3278 2906 2969 
L 2906 3500 
L 3481 3500 
L 3481 434 
z
" transform="scale(0.015625)"/>
      <path id="DejaVuSans-6c" d="M 603 4863 
L 1178 4863 
L 1178 0 
L 603 0 
L 603 4863 
z
" transform="scale(0.015625)"/>
      <path id="DejaVuSans-76" d="M 191 3500 
L 800 3500 
L 1894 563 
L 2988 3500 
L 3597 3500 
L 2284 0 
L 1503 0 
L 191 3500 
z
" transform="scale(0.015625)"/>
      <path id="DejaVuSans-4b" d="M 628 4666 
L 1259 4666 
L 1259 2694 
L 3353 4666 
L 4166 4666 
L 1850 2491 
L 4331 0 
L 3500 0 
L 1259 2247 
L 1259 0 
L 628 0 
L 628 4666 
z
" transform="scale(0.015625)"/>
      <path id="DejaVuSans-75" d="M 544 1381 
L 544 3500 
L 1119 3500 
L 1119 1403 
Q 1119 906 1312 657 
Q 1506 409 1894 409 
Q 2359 409 2629 706 
Q 2900 1003 2900 1516 
L 2900 3500 
L 3475 3500 
L 3475 0 
L 2900 0 
L 2900 538 
Q 2691 219 2414 64 
Q 2138 -91 1772 -91 
Q 1169 -91 856 284 
Q 544 659 544 1381 
z
M 1991 3584 
L 1991 3584 
z
" transform="scale(0.015625)"/>
      <path id="DejaVuSans-52" d="M 2841 2188 
Q 3044 2119 3236 1894 
Q 3428 1669 3622 1275 
L 4263 0 
L 3584 0 
L 2988 1197 
Q 2756 1666 2539 1819 
Q 2322 1972 1947 1972 
L 1259 1972 
L 1259 0 
L 628 0 
L 628 4666 
L 2053 4666 
Q 2853 4666 3247 4331 
Q 3641 3997 3641 3322 
Q 3641 2881 3436 2590 
Q 3231 2300 2841 2188 
z
M 1259 4147 
L 1259 2491 
L 2053 2491 
Q 2509 2491 2742 2702 
Q 2975 2913 2975 3322 
Q 2975 3731 2742 3939 
Q 2509 4147 2053 4147 
L 1259 4147 
z
" transform="scale(0.015625)"/>
      <path id="DejaVuSans-70" d="M 1159 525 
L 1159 -1331 
L 581 -1331 
L 581 3500 
L 1159 3500 
L 1159 2969 
Q 1341 3281 1617 3432 
Q 1894 3584 2278 3584 
Q 2916 3584 3314 3078 
Q 3713 2572 3713 1747 
Q 3713 922 3314 415 
Q 2916 -91 2278 -91 
Q 1894 -91 1617 61 
Q 1341 213 1159 525 
z
M 3116 1747 
Q 3116 2381 2855 2742 
Q 2594 3103 2138 3103 
Q 1681 3103 1420 2742 
Q 1159 2381 1159 1747 
Q 1159 1113 1420 752 
Q 1681 391 2138 391 
Q 2594 391 2855 752 
Q 3116 1113 3116 1747 
z
" transform="scale(0.015625)"/>
     </defs>
     <use xlink:href="#DejaVuSans-73"/>
     <use xlink:href="#DejaVuSans-74" transform="translate(52.099609 0)"/>
     <use xlink:href="#DejaVuSans-65" transform="translate(91.308594 0)"/>
     <use xlink:href="#DejaVuSans-65" transform="translate(152.832031 0)"/>
     <use xlink:href="#DejaVuSans-72" transform="translate(214.355469 0)"/>
     <use xlink:href="#DejaVuSans-69" transform="translate(255.46875 0)"/>
     <use xlink:href="#DejaVuSans-6e" transform="translate(283.251953 0)"/>
     <use xlink:href="#DejaVuSans-67" transform="translate(346.630859 0)"/>
     <use xlink:href="#DejaVuSans-2d" transform="translate(410.107422 0)"/>
     <use xlink:href="#DejaVuSans-6c" transform="translate(446.191406 0)"/>
     <use xlink:href="#DejaVuSans-69" transform="translate(473.974609 0)"/>
     <use xlink:href="#DejaVuSans-6e" transform="translate(501.757812 0)"/>
     <use xlink:href="#DejaVuSans-6b" transform="translate(565.136719 0)"/>
     <use xlink:href="#DejaVuSans-20" transform="translate(623.046875 0)"/>
     <use xlink:href="#DejaVuSans-6c" transform="translate(654.833984 0)"/>
     <use xlink:href="#DejaVuSans-6f" transform="translate(682.617188 0)"/>
     <use xlink:href="#DejaVuSans-61" transform="translate(743.798828 0)"/>
     <use xlink:href="#DejaVuSans-64" transform="translate(805.078125 0)"/>
     <use xlink:href="#DejaVuSans-73" transform="translate(868.554688 0)"/>
     <use xlink:href="#DejaVuSans-20" transform="translate(920.654297 0)"/>
     <use xlink:href="#DejaVuSans-6f" transform="translate(952.441406 0)"/>
     <use xlink:href="#DejaVuSans-76" transform="translate(1013.623047 0)"/>
     <use xlink:href="#DejaVuSans-65" transform="translate(1072.802734 0)"/>
     <use xlink:href="#DejaVuSans-72" transform="translate(1134.326172 0)"/>
     <use xlink:href="#DejaVuSans-20" transform="translate(1175.439453 0)"/>
     <use xlink:href="#DejaVuSans-6f" transform="translate(1207.226562 0)"/>
     <use xlink:href="#DejaVuSans-6e" transform="translate(1268.408203 0)"/>
     <use xlink:href="#DejaVuSans-65" transform="translate(1331.787109 0)"/>
     <use xlink:href="#DejaVuSans-20" transform="translate(1393.310547 0)"/>
     <use xlink:href="#DejaVuSans-4b" transform="translate(1425.097656 0)"/>
     <use xlink:href="#DejaVuSans-69" transform="translate(1490.673828 0)"/>
     <use xlink:href="#DejaVuSans-6e" transform="translate(1518.457031 0)"/>
     <use xlink:href="#DejaVuSans-6e" transform="translate(1581.835938 0)"/>
     <use xlink:href="#DejaVuSans-65" transform="translate(1645.214844 0)"/>
     <use xlink:href="#DejaVuSans-6b" transform="translate(1706.738281 0)"/>
     <use xlink:href="#DejaVuSans-75" transform="translate(1761.523438 0)"/>
     <use xlink:href="#DejaVuSans-6c" transform="translate(1824.902344 0)"/>
     <use xlink:href="#DejaVuSans-6c" transform="translate(1852.685547 0)"/>
     <use xlink:href="#DejaVuSans-65" transform="translate(1880.46875 0)"/>
     <use xlink:href="#DejaVuSans-20" transform="translate(1941.992188 0)"/>
     <use xlink:href="#DejaVuSans-52" transform="translate(1973.779297 0)"/>
     <use xlink:href="#DejaVuSans-69" transform="translate(2043.261719 0)"/>
     <use xlink:href="#DejaVuSans-6e" transform="translate(2071.044922 0)"/>
     <use xlink:href="#DejaVuSans-67" transform="translate(2134.423828 0)"/>
     <use xlink:href="#DejaVuSans-20" transform="translate(2197.900391 0)"/>
     <use xlink:href="#DejaVuSans-6c" transform="translate(2229.6875 0)"/>
     <use xlink:href="#DejaVuSans-61" transform="translate(2257.470703 0)"/>
     <use xlink:href="#DejaVuSans-70" transform="translate(2318.75 0)"/>
    </g>
   </g>
   <g id="legend_1">
    <g id="patch_7">
     <path d="M 61.69 56.765 
L 134.535 56.765 
Q 136.135 56.765 136.135 55.165 
L 136.135 32.48 
Q 136.135 30.88 134.535 30.88 
L 61.69 30.88 
Q 60.09 30.88 60.09 32.48 
L 60.09 55.165 
Q 60.09 56.765 61.69 56.765 
z
" style="fill: #ffffff; opacity: 0.8; stroke: #cccccc; stroke-linejoin: miter"/>
    </g>
    <g id="line2d_27">
     <path d="M 63.29 37.35875 
L 71.29 37.35875 
L 79.29 37.35875 
" style="fill: none; stroke: #2ca02c; stroke-width: 0.9; stroke-linecap: square"/>
    </g>
    <g id="text_16">
     <!-- tie rod left -->
     <g transform="translate(85.69 40.15875) scale(0.08 -0.08)">
      <use xlink:href="#DejaVuSans-74"/>
      <use xlink:href="#DejaVuSans-69" transform="translate(39.208984 0)"/>
      <use xlink:href="#DejaVuSans-65" transform="translate(66.992188 0)"/>
      <use xlink:href="#DejaVuSans-20" transform="translate(128.515625 0)"/>
      <use xlink:href="#DejaVuSans-72" transform="translate(160.302734 0)"/>
      <use xlink:href="#DejaVuSans-6f" transform="translate(199.166016 0)"/>
      <use xlink:href="#DejaVuSans-64" transform="translate(260.347656 0)"/>
      <use xlink:href="#DejaVuSans-20" transform="translate(323.824219 0)"/>
      <use xlink:href="#DejaVuSans-6c" transform="translate(355.611328 0)"/>
      <use xlink:href="#DejaVuSans-65" transform="translate(383.394531 0)"/>
      <use xlink:href="#DejaVuSans-66" transform="translate(444.917969 0)"/>
      <use xlink:href="#DejaVuSans-74" transform="translate(478.373047 0)"/>
     </g>
    </g>
    <g id="line2d_28">
     <path d="M 63.29 49.10125 
L 71.29 49.10125 
L 79.29 49.10125 
" style="fill: none; stroke: #d62728; stroke-opacity: 0.8; stroke-width: 0.9; stroke-linecap: square"/>
    </g>
    <g id="text_17">
     <!-- tie rod right -->
     <g transform="translate(85.69 51.90125) scale(0.08 -0.08)">
      <defs>
       <path id="DejaVuSans-68" d="M 3513 2113 
L 3513 0 
L 2938 0 
L 2938 2094 
Q 2938 2591 2744 2837 
Q 2550 3084 2163 3084 
Q 1697 3084 1428 2787 
Q 1159 2491 1159 1978 
L 1159 0 
L 581 0 
L 581 4863 
L 1159 4863 
L 1159 2956 
Q 1366 3272 1645 3428 
Q 1925 3584 2291 3584 
Q 2894 3584 3203 3211 
Q 3513 2838 3513 2113 
z
" transform="scale(0.015625)"/>
      </defs>
      <use xlink:href="#DejaVuSans-74"/>
      <use xlink:href="#DejaVuSans-69" transform="translate(39.208984 0)"/>
      <use xlink:href="#DejaVuSans-65" transform="translate(66.992188 0)"/>
      <use xlink:href="#DejaVuSans-20" transform="translate(128.515625 0)"/>
      <use xlink:href="#DejaVuSans-72" transform="translate(160.302734 0)"/>
      <use xlink:href="#DejaVuSans-6f" transform="translate(199.166016 0)"/>
      <use xlink:href="#DejaVuSans-64" transform="translate(260.347656 0)"/>
      <use xlink:href="#DejaVuSans-20" transform="translate(323.824219 0)"/>
      <use xlink:href="#DejaVuSans-72" transform="translate(355.611328 0)"/>
      <use xlink:href="#DejaVuSans-69" transform="translate(396.724609 0)"/>
      <use xlink:href="#DejaVuSans-67" transform="translate(424.507812 0)"/>
      <use xlink:href="#DejaVuSans-68" transform="translate(487.984375 0)"/>
      <use xlink:href="#DejaVuSans-74" transform="translate(551.363281 0)"/>
     </g>
    </g>
   </g>
  </g>
 </g>
 <defs>
  <clipPath id="pb58a19bd7e">
   <rect x="56.09" y="26.88" width="653.11" height="219.16"/>
  </clipPath>
 </defs>
</svg>
