<?xml version="1.0" encoding="utf-8" standalone="no"?>
<!DOCTYPE svg PUBLIC "-//W3C//DTD SVG 1.1//EN"
  "http://www.w3.org/Graphics/SVG/1.1/DTD/svg11.dtd">
<svg xmlns:xlink="http://www.w3.org/1999/xlink" width="720pt" height="288pt" viewBox="0 0 720 288" xmlns="http://www.w3.org/2000/svg" version="1.1">
 <metadata>
  <rdf:RDF xmlns:dc="http://purl.org/dc/elements/1.1/" xmlns:cc="http://creativecommons.org/ns#" xmlns:rdf="http://www.w3.org/1999/02/22-rdf-syntax-ns#">
   <cc:Work>
    <dc:type rdf:resource="http://purl.org/dc/dcmitype/StillImage"/>
    <dc:date>2026-07-12T14:42:20.864550</dc:date>
    <dc:format>image/svg+xml</dc:format>
    <dc:creator>
     <cc:Agent>
      <dc:title>Matplotlib v3.10.8, https://matplotlib.org/</dc:title>
     </cc:Agent>
    </dc:creator>
   </cc:Work>
  </rdf:RDF>
 </metadata>
 <defs>
  <style type="text/css">*{stroke-linejoin: round; stroke-linecap: butt}</style>
 </defs>
 <g id="figure_1">
  <g id="patch_1">
   <path d="M 0 288 
L 720 288 
L 720 0 
L 0 0 
z
" style="fill: #ffffff"/>
  </g>
  <g id="axes_1">
   <g id="patch_2">
    <path d="M 56.09 246.04 
L 709.2 246.04 
L 709.2 26.88 
L 56.09 26.88 
z
" style="fill: #ffffff"/>
   </g>
   <g id="matplotlib.axis_1">
    <g id="xtick_1">
     <g id="line2d_1">
      <path d="M 85.776818 246.04 
L 85.776818 26.88 
" clip-path="url(#p88d59e9cb0)" style="fill: none; stroke: #b0b0b0; stroke-opacity: 0.3; stroke-width: 0.8; stroke-linecap: square"/>
     </g>
     <g id="line2d_2">
      <defs>
       <path id="m1a7bd5e4a6" d="M 0 0 
L 0 3.5 
" style="stroke: #000000; stroke-width: 0.8"/>
      </defs>
      <g>
       <use xlink:href="#m1a7bd5e4a6" x="85.776818" y="246.04" style="stroke: #000000; stroke-width: 0.8"/>
      </g>
     </g>
     <g id="text_1">
      <!-- 0.0 -->
      <g transform="translate(77.825256 260.638438) scale(0.1 -0.1)">
       <defs>
        <path id="DejaVuSans-30" d="M 2034 4250 
Q 1547 4250 1301 3770 
Q 1056 3291 1056 2328 
Q 1056 1369 1301 889 
Q 1547 409 2034 409 
Q 2525 409 2770 889 
Q 3016 1369 3016 2328 
Q 3016 3291 2770 3770 
Q 2525 4250 2034 4250 
z
M 2034 4750 
Q 2819 4750 3233 4129 
Q 3647 3509 3647 2328 
Q 3647 1150 3233 529 
Q 2819 -91 2034 -91 
Q 1250 -91 836 529 
Q 422 1150 422 2328 
Q 422 3509 836 4129 
Q 1250 4750 2034 4750 
z
" transform="scale(0.015625)"/>
        <path id="DejaVuSans-2e" d="M 684 794 
L 1344 794 
L 1344 0 
L 684 0 
L 684 794 
z
" transform="scale(0.015625)"/>
       </defs>
       <use xlink:href="#DejaVuSans-30"/>
       <use xlink:href="#DejaVuSans-2e" transform="translate(63.623047 0)"/>
       <use xlink:href="#DejaVuSans-30" transform="translate(95.410156 0)"/>
      </g>
     </g>
    </g>
    <g id="xtick_2">
     <g id="line2d_3">
      <path d="M 159.834639 246.04 
L 159.834639 26.88 
" clip-path="url(#p88d59e9cb0)" style="fill: none; stroke: #b0b0b0; stroke-opacity: 0.3; stroke-width: 0.8; stroke-linecap: square"/>
     </g>
     <g id="line2d_4">
      <g>
       <use xlink:href="#m1a7bd5e4a6" x="159.834639" y="246.04" style="stroke: #000000; stroke-width: 0.8"/>
      </g>
     </g>
     <g id="text_2">
      <!-- 0.5 -->
      <g transform="translate(151.883077 260.638438) scale(0.1 -0.1)">
       <defs>
        <path id="DejaVuSans-35" d="M 691 4666 
L 3169 4666 
L 3169 4134 
L 1269 4134 
L 1269 2991 
Q 1406 3038 1543 3061 
Q 1681 3084 1819 3084 
Q 2600 3084 3056 2656 
Q 3513 2228 3513 1497 
Q 3513 744 3044 326 
Q 2575 -91 1722 -91 
Q 1428 -91 1123 -41 
Q 819 9 494 109 
L 494 744 
Q 775 591 1075 516 
Q 1375 441 1709 441 
Q 2250 441 2565 725 
Q 2881 1009 2881 1497 
Q 2881 1984 2565 2268 
Q 2250 2553 1709 2553 
Q 1456 2553 1204 2497 
Q 953 2441 691 2322 
L 691 4666 
z
" transform="scale(0.015625)"/>
       </defs>
       <use xlink:href="#DejaVuSans-30"/>
       <use xlink:href="#DejaVuSans-2e" transform="translate(63.623047 0)"/>
       <use xlink:href="#DejaVuSans-35" transform="translate(95.410156 0)"/>
      </g>
     </g>
    </g>
    <g id="xtick_3">
     <g id="line2d_5">
      <path d="M 233.89246 246.04 
L 233.89246 26.88 
" clip-path="url(#p88d59e9cb0)" style="fill: none; stroke: #b0b0b0; stroke-opacity: 0.3; stroke-width: 0.8; stroke-linecap: square"/>
     </g>
     <g id="line2d_6">
      <g>
       <use xlink:href="#m1a7bd5e4a6" x="233.89246" y="246.04" style="stroke: #000000; stroke-width: 0.8"/>
      </g>
     </g>
     <g id="text_3">
      <!-- 1.0 -->
      <g transform="translate(225.940898 260.638438) scale(0.1 -0.1)">
       <defs>
        <path id="DejaVuSans-31" d="M 794 531 
L 1825 531 
L 1825 4091 
L 703 3866 
L 703 4441 
L 1819 4666 
L 2450 4666 
L 2450 531 
L 3481 531 
L 3481 0 
L 794 0 
L 794 531 
z
" transform="scale(0.015625)"/>
       </defs>
       <use xlink:href="#DejaVuSans-31"/>
       <use xlink:href="#DejaVuSans-2e" transform="translate(63.623047 0)"/>
       <use xlink:href="#DejaVuSans-30" transform="translate(95.410156 0)"/>
      </g>
     </g>
    </g>
    <g id="xtick_4">
     <g id="line2d_7">
      <path d="M 307.950282 246.04 
L 307.950282 26.88 
" clip-path="url(#p88d59e9cb0)" style="fill: none; stroke: #b0b0b0; stroke-opacity: 0.3; stroke-width: 0.8; stroke-linecap: square"/>
     </g>
     <g id="line2d_8">
      <g>
       <use xlink:href="#m1a7bd5e4a6" x="307.950282" y="246.04" style="stroke: #000000; stroke-width: 0.8"/>
      </g>
     </g>
     <g id="text_4">
      <!-- 1.5 -->
      <g transform="translate(299.998719 260.638438) scale(0.1 -0.1)">
       <use xlink:href="#DejaVuSans-31"/>
       <use xlink:href="#DejaVuSans-2e" transform="translate(63.623047 0)"/>
       <use xlink:href="#DejaVuSans-35" transform="translate(95.410156 0)"/>
      </g>
     </g>
    </g>
    <g id="xtick_5">
     <g id="line2d_9">
      <path d="M 382.008103 246.04 
L 382.008103 26.88 
" clip-path="url(#p88d59e9cb0)" style="fill: none; stroke: #b0b0b0; stroke-opacity: 0.3; stroke-width: 0.8; stroke-linecap: square"/>
     </g>
     <g id="line2d_10">
      <g>
       <use xlink:href="#m1a7bd5e4a6" x="382.008103" y="246.04" style="stroke: #000000; stroke-width: 0.8"/>
      </g>
     </g>
     <g id="text_5">
      <!-- 2.0 -->
      <g transform="translate(374.05654 260.638438) scale(0.1 -0.1)">
       <defs>
        <path id="DejaVuSans-32" d="M 1228 531 
L 3431 531 
L 3431 0 
L 469 0 
L 469 531 
Q 828 903 1448 1529 
Q 2069 2156 2228 2338 
Q 2531 2678 2651 2914 
Q 2772 3150 2772 3378 
Q 2772 3750 2511 3984 
Q 2250 4219 1831 4219 
Q 1534 4219 1204 4116 
Q 875 4013 500 3803 
L 500 4441 
Q 881 4594 1212 4672 
Q 1544 4750 1819 4750 
Q 2544 4750 2975 4387 
Q 3406 4025 3406 3419 
Q 3406 3131 3298 2873 
Q 3191 2616 2906 2266 
Q 2828 2175 2409 1742 
Q 1991 1309 1228 531 
z
" transform="scale(0.015625)"/>
       </defs>
       <use xlink:href="#DejaVuSans-32"/>
       <use xlink:href="#DejaVuSans-2e" transform="translate(63.623047 0)"/>
       <use xlink:href="#DejaVuSans-30" transform="translate(95.410156 0)"/>
      </g>
     </g>
    </g>
    <g id="xtick_6">
     <g id="line2d_11">
      <path d="M 456.065924 246.04 
L 456.065924 26.88 
" clip-path="url(#p88d59e9cb0)" style="fill: none; stroke: #b0b0b0; stroke-opacity: 0.3; stroke-width: 0.8; stroke-linecap: square"/>
     </g>
     <g id="line2d_12">
      <g>
       <use xlink:href="#m1a7bd5e4a6" x="456.065924" y="246.04" style="stroke: #000000; stroke-width: 0.8"/>
      </g>
     </g>
     <g id="text_6">
      <!-- 2.5 -->
      <g transform="translate(448.114361 260.638438) scale(0.1 -0.1)">
       <use xlink:href="#DejaVuSans-32"/>
       <use xlink:href="#DejaVuSans-2e" transform="translate(63.623047 0)"/>
       <use xlink:href="#DejaVuSans-35" transform="translate(95.410156 0)"/>
      </g>
     </g>
    </g>
    <g id="xtick_7">
     <g id="line2d_13">
      <path d="M 530.123745 246.04 
L 530.123745 26.88 
" clip-path="url(#p88d59e9cb0)" style="fill: none; stroke: #b0b0b0; stroke-opacity: 0.3; stroke-width: 0.8; stroke-linecap: square"/>
     </g>
     <g id="line2d_14">
      <g>
       <use xlink:href="#m1a7bd5e4a6" x="530.123745" y="246.04" style="stroke: #000000; stroke-width: 0.8"/>
      </g>
     </g>
     <g id="text_7">
      <!-- 3.0 -->
      <g transform="translate(522.172182 260.638438) scale(0.1 -0.1)">
       <defs>
        <path id="DejaVuSans-33" d="M 2597 2516 
Q 3050 2419 3304 2112 
Q 3559 1806 3559 1356 
Q 3559 666 3084 287 
Q 2609 -91 1734 -91 
Q 1441 -91 1130 -33 
Q 819 25 488 141 
L 488 750 
Q 750 597 1062 519 
Q 1375 441 1716 441 
Q 2309 441 2620 675 
Q 2931 909 2931 1356 
Q 2931 1769 2642 2001 
Q 2353 2234 1838 2234 
L 1294 2234 
L 1294 2753 
L 1863 2753 
Q 2328 2753 2575 2939 
Q 2822 3125 2822 3475 
Q 2822 3834 2567 4026 
Q 2313 4219 1838 4219 
Q 1578 4219 1281 4162 
Q 984 4106 628 3988 
L 628 4550 
Q 988 4650 1302 4700 
Q 1616 4750 1894 4750 
Q 2613 4750 3031 4423 
Q 3450 4097 3450 3541 
Q 3450 3153 3228 2886 
Q 3006 2619 2597 2516 
z
" transform="scale(0.015625)"/>
       </defs>
       <use xlink:href="#DejaVuSans-33"/>
       <use xlink:href="#DejaVuSans-2e" transform="translate(63.623047 0)"/>
       <use xlink:href="#DejaVuSans-30" transform="translate(95.410156 0)"/>
      </g>
     </g>
    </g>
    <g id="xtick_8">
     <g id="line2d_15">
      <path d="M 604.181566 246.04 
L 604.181566 26.88 
" clip-path="url(#p88d59e9cb0)" style="fill: none; stroke: #b0b0b0; stroke-opacity: 0.3; stroke-width: 0.8; stroke-linecap: square"/>
     </g>
     <g id="line2d_16">
      <g>
       <use xlink:href="#m1a7bd5e4a6" x="604.181566" y="246.04" style="stroke: #000000; stroke-width: 0.8"/>
      </g>
     </g>
     <g id="text_8">
      <!-- 3.5 -->
      <g transform="translate(596.230004 260.638438) scale(0.1 -0.1)">
       <use xlink:href="#DejaVuSans-33"/>
       <use xlink:href="#DejaVuSans-2e" transform="translate(63.623047 0)"/>
       <use xlink:href="#DejaVuSans-35" transform="translate(95.410156 0)"/>
      </g>
     </g>
    </g>
    <g id="xtick_9">
     <g id="line2d_17">
      <path d="M 678.239387 246.04 
L 678.239387 26.88 
" clip-path="url(#p88d59e9cb0)" style="fill: none; stroke: #b0b0b0; stroke-opacity: 0.3; stroke-width: 0.8; stroke-linecap: square"/>
     </g>
     <g id="line2d_18">
      <g>
       <use xlink:href="#m1a7bd5e4a6" x="678.239387" y="246.04" style="stroke: #000000; stroke-width: 0.8"/>
      </g>
     </g>
     <g id="text_9">
      <!-- 4.0 -->
      <g transform="translate(670.287825 260.638438) scale(0.1 -0.1)">
       <defs>
        <path id="DejaVuSans-34" d="M 2419 4116 
L 825 1625 
L 2419 1625 
L 2419 4116 
z
M 2253 4666 
L 3047 4666 
L 3047 1625 
L 3713 1625 
L 3713 1100 
L 3047 1100 
L 3047 0 
L 2419 0 
L 2419 1100 
L 313 1100 
L 313 1709 
L 2253 4666 
z
" transform="scale(0.015625)"/>
       </defs>
       <use xlink:href="#DejaVuSans-34"/>
       <use xlink:href="#DejaVuSans-2e" transform="translate(63.623047 0)"/>
       <use xlink:href="#DejaVuSans-30" transform="translate(95.410156 0)"/>
      </g>
     </g>
    </g>
    <g id="text_10">
     <!-- distance s [km] -->
     <g transform="translate(344.008281 274.316562) scale(0.1 -0.1)">
      <defs>
       <path id="DejaVuSans-64" d="M 2906 2969 
L 2906 4863 
L 3481 4863 
L 3481 0 
L 2906 0 
L 2906 525 
Q 2725 213 2448 61 
Q 2172 -91 1784 -91 
Q 1150 -91 751 415 
Q 353 922 353 1747 
Q 353 2572 751 3078 
Q 1150 3584 1784 3584 
Q 2172 3584 2448 3432 
Q 2725 3281 2906 2969 
z
M 947 1747 
Q 947 1113 1208 752 
Q 1469 391 1925 391 
Q 2381 391 2643 752 
Q 2906 1113 2906 1747 
Q 2906 2381 2643 2742 
Q 2381 3103 1925 3103 
Q 1469 3103 1208 2742 
Q 947 2381 947 1747 
z
" transform="scale(0.015625)"/>
       <path id="DejaVuSans-69" d="M 603 3500 
L 1178 3500 
L 1178 0 
L 603 0 
L 603 3500 
z
M 603 4863 
L 1178 4863 
L 1178 4134 
L 603 4134 
L 603 4863 
z
" transform="scale(0.015625)"/>
       <path id="DejaVuSans-73" d="M 2834 3397 
L 2834 2853 
Q 2591 2978 2328 3040 
Q 2066 3103 1784 3103 
Q 1356 3103 1142 2972 
Q 928 2841 928 2578 
Q 928 2378 1081 2264 
Q 1234 2150 1697 2047 
L 1894 2003 
Q 2506 1872 2764 1633 
Q 3022 1394 3022 966 
Q 3022 478 2636 193 
Q 2250 -91 1575 -91 
Q 1294 -91 989 -36 
Q 684 19 347 128 
L 347 722 
Q 666 556 975 473 
Q 1284 391 1588 391 
Q 1994 391 2212 530 
Q 2431 669 2431 922 
Q 2431 1156 2273 1281 
Q 2116 1406 1581 1522 
L 1381 1569 
Q 847 1681 609 1914 
Q 372 2147 372 2553 
Q 372 3047 722 3315 
Q 1072 3584 1716 3584 
Q 2034 3584 2315 3537 
Q 2597 3491 2834 3397 
z
" transform="scale(0.015625)"/>
       <path id="DejaVuSans-74" d="M 1172 4494 
L 1172 3500 
L 2356 3500 
L 2356 3053 
L 1172 3053 
L 1172 1153 
Q 1172 725 1289 603 
Q 1406 481 1766 481 
L 2356 481 
L 2356 0 
L 1766 0 
Q 1100 0 847 248 
Q 594 497 594 1153 
L 594 3053 
L 172 3053 
L 172 3500 
L 594 3500 
L 594 4494 
L 1172 4494 
z
" transform="scale(0.015625)"/>
       <path id="DejaVuSans-61" d="M 2194 1759 
Q 1497 1759 1228 1600 
Q 959 1441 959 1056 
Q 959 750 1161 570 
Q 1363 391 1709 391 
Q 2188 391 2477 730 
Q 2766 1069 2766 1631 
L 2766 1759 
L 2194 1759 
z
M 3341 1997 
L 3341 0 
L 2766 0 
L 2766 531 
Q 2569 213 2275 61 
Q 1981 -91 1556 -91 
Q 1019 -91 701 211 
Q 384 513 384 1019 
Q 384 1609 779 1909 
Q 1175 2209 1959 2209 
L 2766 2209 
L 2766 2266 
Q 2766 2663 2505 2880 
Q 2244 3097 1772 3097 
Q 1472 3097 1187 3025 
Q 903 2953 641 2809 
L 641 3341 
Q 956 3463 1253 3523 
Q 1550 3584 1831 3584 
Q 2591 3584 2966 3190 
Q 3341 2797 3341 1997 
z
" transform="scale(0.015625)"/>
       <path id="DejaVuSans-6e" d="M 3513 2113 
L 3513 0 
L 2938 0 
L 2938 2094 
Q 2938 2591 2744 2837 
Q 2550 3084 2163 3084 
Q 1697 3084 1428 2787 
Q 1159 2491 1159 1978 
L 1159 0 
L 581 0 
L 581 3500 
L 1159 3500 
L 1159 2956 
Q 1366 3272 1645 3428 
Q 1925 3584 2291 3584 
Q 2894 3584 3203 3211 
Q 3513 2838 3513 2113 
z
" transform="scale(0.015625)"/>
       <path id="DejaVuSans-63" d="M 3122 3366 
L 3122 2828 
Q 2878 2963 2633 3030 
Q 2388 3097 2138 3097 
Q 1578 3097 1268 2742 
Q 959 2388 959 1747 
Q 959 1106 1268 751 
Q 1578 397 2138 397 
Q 2388 397 2633 464 
Q 2878 531 3122 666 
L 3122 134 
Q 2881 22 2623 -34 
Q 2366 -91 2075 -91 
Q 1284 -91 818 406 
Q 353 903 353 1747 
Q 353 2603 823 3093 
Q 1294 3584 2113 3584 
Q 2378 3584 2631 3529 
Q 2884 3475 3122 3366 
z
" transform="scale(0.015625)"/>
       <path id="DejaVuSans-65" d="M 3597 1894 
L 3597 1613 
L 953 1613 
Q 991 1019 1311 708 
Q 1631 397 2203 397 
Q 2534 397 2845 478 
Q 3156 559 3463 722 
L 3463 178 
Q 3153 47 2828 -22 
Q 2503 -91 2169 -91 
Q 1331 -91 842 396 
Q 353 884 353 1716 
Q 353 2575 817 3079 
Q 1281 3584 2069 3584 
Q 2775 3584 3186 3129 
Q 3597 2675 3597 1894 
z
M 3022 2063 
Q 3016 2534 2758 2815 
Q 2500 3097 2075 3097 
Q 1594 3097 1305 2825 
Q 1016 2553 972 2059 
L 3022 2063 
z
" transform="scale(0.015625)"/>
       <path id="DejaVuSans-20" transform="scale(0.015625)"/>
       <path id="DejaVuSans-5b" d="M 550 4863 
L 1875 4863 
L 1875 4416 
L 1125 4416 
L 1125 -397 
L 1875 -397 
L 1875 -844 
L 550 -844 
L 550 4863 
z
" transform="scale(0.015625)"/>
       <path id="DejaVuSans-6b" d="M 581 4863 
L 1159 4863 
L 1159 1991 
L 2875 3500 
L 3609 3500 
L 1753 1863 
L 3688 0 
L 2938 0 
L 1159 1709 
L 1159 0 
L 581 0 
L 581 4863 
z
" transform="scale(0.015625)"/>
       <path id="DejaVuSans-6d" d="M 3328 2828 
Q 3544 3216 3844 3400 
Q 4144 3584 4550 3584 
Q 5097 3584 5394 3201 
Q 5691 2819 5691 2113 
L 5691 0 
L 5113 0 
L 5113 2094 
Q 5113 2597 4934 2840 
Q 4756 3084 4391 3084 
Q 3944 3084 3684 2787 
Q 3425 2491 3425 1978 
L 3425 0 
L 2847 0 
L 2847 2094 
Q 2847 2600 2669 2842 
Q 2491 3084 2119 3084 
Q 1678 3084 1418 2786 
Q 1159 2488 1159 1978 
L 1159 0 
L 581 0 
L 581 3500 
L 1159 3500 
L 1159 2956 
Q 1356 3278 1631 3431 
Q 1906 3584 2284 3584 
Q 2666 3584 2933 3390 
Q 3200 3197 3328 2828 
z
" transform="scale(0.015625)"/>
       <path id="DejaVuSans-5d" d="M 1947 4863 
L 1947 -844 
L 622 -844 
L 622 -397 
L 1369 -397 
L 1369 4416 
L 622 4416 
L 622 4863 
L 1947 4863 
z
" transform="scale(0.015625)"/>
      </defs>
      <use xlink:href="#DejaVuSans-64"/>
      <use xlink:href="#DejaVuSans-69" transform="translate(63.476562 0)"/>
      <use xlink:href="#DejaVuSans-73" transform="translate(91.259766 0)"/>
      <use xlink:href="#DejaVuSans-74" transform="translate(143.359375 0)"/>
      <use xlink:href="#DejaVuSans-61" transform="translate(182.568359 0)"/>
      <use xlink:href="#DejaVuSans-6e" transform="translate(243.847656 0)"/>
      <use xlink:href="#DejaVuSans-63" transform="translate(307.226562 0)"/>
      <use xlink:href="#DejaVuSans-65" transform="translate(362.207031 0)"/>
      <use xlink:href="#DejaVuSans-20" transform="translate(423.730469 0)"/>
      <use xlink:href="#DejaVuSans-73" transform="translate(455.517578 0)"/>
      <use xlink:href="#DejaVuSans-20" transform="translate(507.617188 0)"/>
      <use xlink:href="#DejaVuSans-5b" transform="translate(539.404297 0)"/>
      <use xlink:href="#DejaVuSans-6b" transform="translate(578.417969 0)"/>
      <use xlink:href="#DejaVuSans-6d" transform="translate(636.328125 0)"/>
      <use xlink:href="#DejaVuSans-5d" transform="translate(733.740234 0)"/>
     </g>
    </g>
   </g>
   <g id="matplotlib.axis_2">
    <g id="ytick_1">
     <g id="line2d_19">
      <path d="M 56.09 224.354608 
L 709.2 224.354608 
" clip-path="url(#p88d59e9cb0)" style="fill: none; stroke: #b0b0b0; stroke-opacity: 0.3; stroke-width: 0.8; stroke-linecap: square"/>
     </g>
     <g id="line2d_20">
      <defs>
       <path id="m5b0d99c429" d="M 0 0 
L -3.5 0 
" style="stroke: #000000; stroke-width: 0.8"/>
      </defs>
      <g>
       <use xlink:href="#m5b0d99c429" x="56.09" y="224.354608" style="stroke: #000000; stroke-width: 0.8"/>
      </g>
     </g>
     <g id="text_11">
      <!-- −1.5 -->
      <g transform="translate(24.807188 228.153827) scale(0.1 -0.1)">
       <defs>
        <path id="DejaVuSans-2212" d="M 678 2272 
L 4684 2272 
L 4684 1741 
L 678 1741 
L 678 2272 
z
" transform="scale(0.015625)"/>
       </defs>
       <use xlink:href="#DejaVuSans-2212"/>
       <use xlink:href="#DejaVuSans-31" transform="translate(83.789062 0)"/>
       <use xlink:href="#DejaVuSans-2e" transform="translate(147.412109 0)"/>
       <use xlink:href="#DejaVuSans-35" transform="translate(179.199219 0)"/>
      </g>
     </g>
    </g>
    <g id="ytick_2">
     <g id="line2d_21">
      <path d="M 56.09 195.217607 
L 709.2 195.217607 
" clip-path="url(#p88d59e9cb0)" style="fill: none; stroke: #b0b0b0; stroke-opacity: 0.3; stroke-width: 0.8; stroke-linecap: square"/>
     </g>
     <g id="line2d_22">
      <g>
       <use xlink:href="#m5b0d99c429" x="56.09" y="195.217607" style="stroke: #000000; stroke-width: 0.8"/>
      </g>
     </g>
     <g id="text_12">
      <!-- −1.0 -->
      <g transform="translate(24.807188 199.016825) scale(0.1 -0.1)">
       <use xlink:href="#DejaVuSans-2212"/>
       <use xlink:href="#DejaVuSans-31" transform="translate(83.789062 0)"/>
       <use xlink:href="#DejaVuSans-2e" transform="translate(147.412109 0)"/>
       <use xlink:href="#DejaVuSans-30" transform="translate(179.199219 0)"/>
      </g>
     </g>
    </g>
    <g id="ytick_3">
     <g id="line2d_23">
      <path d="M 56.09 166.080605 
L 709.2 166.080605 
" clip-path="url(#p88d59e9cb0)" style="fill: none; stroke: #b0b0b0; stroke-opacity: 0.3; stroke-width: 0.8; stroke-linecap: square"/>
     </g>
     <g id="line2d_24">
      <g>
       <use xlink:href="#m5b0d99c429" x="56.09" y="166.080605" style="stroke: #000000; stroke-width: 0.8"/>
      </g>
     </g>
     <g id="text_13">
      <!-- −0.5 -->
      <g transform="translate(24.807188 169.879824) scale(0.1 -0.1)">
       <use xlink:href="#DejaVuSans-2212"/>
       <use xlink:href="#DejaVuSans-30" transform="translate(83.789062 0)"/>
       <use xlink:href="#DejaVuSans-2e" transform="translate(147.412109 0)"/>
       <use xlink:href="#DejaVuSans-35" transform="translate(179.199219 0)"/>
      </g>
     </g>
    </g>
    <g id="ytick_4">
     <g id="line2d_25">
      <path d="M 56.09 136.943604 
L 709.2 136.943604 
" clip-path="url(#p88d59e9cb0)" style="fill: none; stroke: #b0b0b0; stroke-opacity: 0.3; stroke-width: 0.8; stroke-linecap: square"/>
     </g>
     <g id="line2d_26">
      <g>
       <use xlink:href="#m5b0d99c429" x="56.09" y="136.943604" style="stroke: #000000; stroke-width: 0.8"/>
      </g>
     </g>
     <g id="text_14">
      <!-- 0.0 -->
      <g transform="translate(33.186875 140.742823) scale(0.1 -0.1)">
       <use xlink:href="#DejaVuSans-30"/>
       <use xlink:href="#DejaVuSans-2e" transform="translate(63.623047 0)"/>
       <use xlink:href="#DejaVuSans-30" transform="translate(95.410156 0)"/>
      </g>
     </g>
    </g>
    <g id="ytick_5">
     <g id="line2d_27">
      <path d="M 56.09 107.806603 
L 709.2 107.806603 
" clip-path="url(#p88d59e9cb0)" style="fill: none; stroke: #b0b0b0; stroke-opacity: 0.3; stroke-width: 0.8; stroke-linecap: square"/>
     </g>
     <g id="line2d_28">
      <g>
       <use xlink:href="#m5b0d99c429" x="56.09" y="107.806603" style="stroke: #000000; stroke-width: 0.8"/>
      </g>
     </g>
     <g id="text_15">
      <!-- 0.5 -->
      <g transform="translate(33.186875 111.605822) scale(0.1 -0.1)">
       <use xlink:href="#DejaVuSans-30"/>
       <use xlink:href="#DejaVuSans-2e" transform="translate(63.623047 0)"/>
       <use xlink:href="#DejaVuSans-35" transform="translate(95.410156 0)"/>
      </g>
     </g>
    </g>
    <g id="ytick_6">
     <g id="line2d_29">
      <path d="M 56.09 78.669602 
L 709.2 78.669602 
" clip-path="url(#p88d59e9cb0)" style="fill: none; stroke: #b0b0b0; stroke-opacity: 0.3; stroke-width: 0.8; stroke-linecap: square"/>
     </g>
     <g id="line2d_30">
      <g>
       <use xlink:href="#m5b0d99c429" x="56.09" y="78.669602" style="stroke: #000000; stroke-width: 0.8"/>
      </g>
     </g>
     <g id="text_16">
      <!-- 1.0 -->
      <g transform="translate(33.186875 82.46882) scale(0.1 -0.1)">
       <use xlink:href="#DejaVuSans-31"/>
       <use xlink:href="#DejaVuSans-2e" transform="translate(63.623047 0)"/>
       <use xlink:href="#DejaVuSans-30" transform="translate(95.410156 0)"/>
      </g>
     </g>
    </g>
    <g id="ytick_7">
     <g id="line2d_31">
      <path d="M 56.09 49.5326 
L 709.2 49.5326 
" clip-path="url(#p88d59e9cb0)" style="fill: none; stroke: #b0b0b0; stroke-opacity: 0.3; stroke-width: 0.8; stroke-linecap: square"/>
     </g>
     <g id="line2d_32">
      <g>
       <use xlink:href="#m5b0d99c429" x="56.09" y="49.5326" style="stroke: #000000; stroke-width: 0.8"/>
      </g>
     </g>
     <g id="text_17">
      <!-- 1.5 -->
      <g transform="translate(33.186875 53.331819) scale(0.1 -0.1)">
       <use xlink:href="#DejaVuSans-31"/>
       <use xlink:href="#DejaVuSans-2e" transform="translate(63.623047 0)"/>
       <use xlink:href="#DejaVuSans-35" transform="translate(95.410156 0)"/>
      </g>
     </g>
    </g>
    <g id="text_18">
     <!-- tie-rod force [kN] -->
     <g transform="translate(18.7275 179.170156) rotate(-90) scale(0.1 -0.1)">
      <defs>
       <path id="DejaVuSans-2d" d="M 313 2009 
L 1997 2009 
L 1997 1497 
L 313 1497 
L 313 2009 
z
" transform="scale(0.015625)"/>
       <path id="DejaVuSans-72" d="M 2631 2963 
Q 2534 3019 2420 3045 
Q 2306 3072 2169 3072 
Q 1681 3072 1420 2755 
Q 1159 2438 1159 1844 
L 1159 0 
L 581 0 
L 581 3500 
L 1159 3500 
L 1159 2956 
Q 1341 3275 1631 3429 
Q 1922 3584 2338 3584 
Q 2397 3584 2469 3576 
Q 2541 3569 2628 3553 
L 2631 2963 
z
" transform="scale(0.015625)"/>
       <path id="DejaVuSans-6f" d="M 1959 3097 
Q 1497 3097 1228 2736 
Q 959 2375 959 1747 
Q 959 1119 1226 758 
Q 1494 397 1959 397 
Q 2419 397 2687 759 
Q 2956 1122 2956 1747 
Q 2956 2369 2687 2733 
Q 2419 3097 1959 3097 
z
M 1959 3584 
Q 2709 3584 3137 3096 
Q 3566 2609 3566 1747 
Q 3566 888 3137 398 
Q 2709 -91 1959 -91 
Q 1206 -91 779 398 
Q 353 888 353 1747 
Q 353 2609 779 3096 
Q 1206 3584 1959 3584 
z
" transform="scale(0.015625)"/>
       <path id="DejaVuSans-66" d="M 2375 4863 
L 2375 4384 
L 1825 4384 
Q 1516 4384 1395 4259 
Q 1275 4134 1275 3809 
L 1275 3500 
L 2222 3500 
L 2222 3053 
L 1275 3053 
L 1275 0 
L 697 0 
L 697 3053 
L 147 3053 
L 147 3500 
L 697 3500 
L 697 3744 
Q 697 4328 969 4595 
Q 1241 4863 1831 4863 
L 2375 4863 
z
" transform="scale(0.015625)"/>
       <path id="DejaVuSans-4e" d="M 628 4666 
L 1478 4666 
L 3547 763 
L 3547 4666 
L 4159 4666 
L 4159 0 
L 3309 0 
L 1241 3903 
L 1241 0 
L 628 0 
L 628 4666 
z
" transform="scale(0.015625)"/>
      </defs>
      <use xlink:href="#DejaVuSans-74"/>
      <use xlink:href="#DejaVuSans-69" transform="translate(39.208984 0)"/>
      <use xlink:href="#DejaVuSans-65" transform="translate(66.992188 0)"/>
      <use xlink:href="#DejaVuSans-2d" transform="translate(128.515625 0)"/>
      <use xlink:href="#DejaVuSans-72" transform="translate(164.599609 0)"/>
      <use xlink:href="#DejaVuSans-6f" transform="translate(203.462891 0)"/>
      <use xlink:href="#DejaVuSans-64" transform="translate(264.644531 0)"/>
      <use xlink:href="#DejaVuSans-20" transform="translate(328.121094 0)"/>
      <use xlink:href="#DejaVuSans-66" transform="translate(359.908203 0)"/>
      <use xlink:href="#DejaVuSans-6f" transform="translate(395.113281 0)"/>
      <use xlink:href="#DejaVuSans-72" transform="translate(456.294922 0)"/>
      <use xlink:href="#DejaVuSans-63" transform="translate(495.158203 0)"/>
      <use xlink:href="#DejaVuSans-65" transform="translate(550.138672 0)"/>
      <use xlink:href="#DejaVuSans-20" transform="translate(611.662109 0)"/>
      <use xlink:href="#DejaVuSans-5b" transform="translate(643.449219 0)"/>
      <use xlink:href="#DejaVuSans-6b" transform="translate(682.462891 0)"/>
      <use xlink:href="#DejaVuSans-4e" transform="translate(740.373047 0)"/>
      <use xlink:href="#DejaVuSans-5d" transform="translate(815.177734 0)"/>
     </g>
    </g>
   </g>
   <g id="line2d_33">
    <path d="M 85.776818 136.943604 
L 85.985526 169.999446 
L 86.236031 179.985819 
L 86.653431 187.410929 
L 86.695156 187.656073 
L 86.736879 187.610709 
L 86.820319 186.192896 
L 86.94547 179.055041 
L 87.154061 151.569238 
L 87.529627 103.867353 
L 87.821776 92.893577 
L 87.988704 91.351429 
L 88.072162 91.786577 
L 88.197346 94.586657 
L 88.364265 105.55472 
L 88.572972 139.092293 
L 88.823562 169.431458 
L 89.074283 178.199325 
L 89.283274 179.803715 
L 89.366878 179.647325 
L 89.492289 178.380007 
L 89.617709 174.694577 
L 89.784966 160.752369 
L 90.287177 103.05781 
L 90.370945 102.572006 
L 90.412833 102.660667 
L 90.580413 104.065741 
L 91.292878 112.98017 
L 91.460606 119.269271 
L 91.712326 141.781136 
L 91.964199 154.072375 
L 92.174181 156.703335 
L 92.216185 156.749896 
L 92.300201 156.238954 
L 92.426244 153.082058 
L 92.594346 140.164111 
L 92.846619 118.567347 
L 93.056952 115.376558 
L 93.141106 115.393751 
L 93.856672 117.336225 
L 93.982985 117.972351 
L 94.109318 119.757698 
L 94.277804 126.649327 
L 94.783642 155.529957 
L 94.994562 157.744644 
L 95.036756 157.690604 
L 95.121154 156.843068 
L 95.247777 152.845043 
L 95.416667 139.767596 
L 95.7124 117.217238 
L 95.966045 112.225122 
L 96.092912 111.829563 
L 96.177505 112.118066 
L 96.304418 113.613392 
L 96.473682 119.105082 
L 96.685356 136.290512 
L 96.981906 158.144823 
L 97.236274 164.565184 
L 97.363514 165.358559 
L 97.405935 165.249096 
L 97.533224 163.514228 
L 97.703004 156.90373 
L 98.000306 132.784539 
L 98.297849 117.795478 
L 98.425435 116.44758 
L 98.467972 116.572495 
L 98.595608 118.725515 
L 98.76585 126.32332 
L 99.447583 165.094654 
L 99.618199 166.541664 
L 99.703532 166.163546 
L 99.831561 164.069493 
L 100.045029 155.949436 
L 100.728905 122.718883 
L 100.771686 122.699664 
L 100.857261 123.50661 
L 101.028464 128.511044 
L 101.842674 160.587945 
L 101.885572 160.645329 
L 101.928473 160.522674 
L 102.057201 159.049408 
L 102.271833 152.791382 
L 103.045434 124.91161 
L 103.131479 125.562782 
L 103.303622 129.353938 
L 104.079156 152.638589 
L 104.122283 152.654684 
L 104.20855 152.194431 
L 104.381136 149.326836 
L 104.683328 139.047671 
L 105.072184 127.47391 
L 105.245124 126.473143 
L 105.33162 126.927886 
L 105.504665 129.593706 
L 106.327593 146.841819 
L 106.414309 146.462305 
L 106.587791 144.212059 
L 106.978379 134.481446 
L 107.282414 129.506296 
L 107.412779 129.09272 
L 107.499711 129.397622 
L 107.673626 131.294124 
L 108.065185 139.450988 
L 108.36997 143.778847 
L 108.500655 144.249345 
L 108.544225 144.21272 
L 108.674961 143.546999 
L 108.892936 140.853773 
L 109.503824 132.69433 
L 109.59116 132.609294 
L 109.678513 132.868779 
L 109.853269 134.339152 
L 110.684249 143.694163 
L 110.771805 143.622657 
L 110.946965 142.749642 
L 111.297474 139.164809 
L 111.648236 136.30769 
L 111.779837 136.124142 
L 111.911473 136.501863 
L 112.130943 138.164453 
L 112.78993 143.627135 
L 112.921829 143.799181 
L 112.965802 143.767283 
L 113.097745 143.422931 
L 113.361731 141.882178 
L 113.846047 139.001744 
L 113.97821 138.826888 
L 114.022271 138.849349 
L 114.154477 139.149355 
L 114.418987 140.553087 
L 114.992526 143.654049 
L 115.169117 143.827146 
L 115.301596 143.656129 
L 115.566646 142.715992 
L 116.141335 140.565081 
L 116.274036 140.521218 
L 116.451017 140.805541 
L 116.805137 142.122882 
L 117.203767 143.391033 
L 117.381018 143.499732 
L 117.558318 143.298206 
L 117.913065 142.353408 
L 118.312383 141.511284 
L 118.489935 141.445519 
L 118.667534 141.652971 
L 118.934018 142.440027 
L 119.689611 144.81712 
L 119.823033 144.82162 
L 119.956479 144.531643 
L 120.223445 143.126356 
L 120.846741 139.427709 
L 121.069476 139.061074 
L 121.203151 139.090053 
L 121.470578 139.519159 
L 121.648925 139.60364 
L 121.782724 139.38338 
L 122.720592 137.081173 
L 122.854916 137.246099 
L 123.034278 137.945256 
L 123.304064 140.31432 
L 123.80149 147.491732 
L 124.440713 157.878919 
L 124.578346 158.182627 
L 124.670133 157.821823 
L 124.853659 155.708705 
L 125.174127 148.098301 
L 125.674709 136.659574 
L 125.765334 136.295316 
L 125.810609 136.389483 
L 125.946289 137.730749 
L 126.217028 144.009973 
L 126.936612 161.59441 
L 127.161237 163.178115 
L 127.251078 163.124368 
L 127.385832 162.30918 
L 127.610425 159.151178 
L 128.014708 149.221495 
L 128.553586 136.969366 
L 128.688262 136.464715 
L 128.778038 136.899665 
L 128.957578 139.282918 
L 129.541044 148.262848 
L 129.675721 148.610796 
L 129.765527 148.429403 
L 129.945206 147.202413 
L 130.259905 143.037736 
L 130.755218 136.710004 
L 130.935584 136.10352 
L 131.02581 136.129651 
L 131.206339 136.611554 
L 131.838936 138.727549 
L 131.929387 138.67559 
L 132.110338 138.11523 
L 132.789577 135.204984 
L 132.925586 135.443504 
L 133.152408 136.566752 
L 134.244191 143.334674 
L 134.426604 143.422003 
L 134.563451 143.273999 
L 134.745908 142.718657 
L 135.019523 140.853397 
L 135.520878 137.277766 
L 135.611993 137.280464 
L 135.74864 137.780743 
L 136.02185 140.109719 
L 136.613577 145.214263 
L 136.841191 145.716525 
L 136.977781 145.586907 
L 137.159928 144.968326 
L 137.569879 142.441471 
L 137.934435 140.619749 
L 138.116771 140.417225 
L 138.253549 140.609351 
L 138.527168 141.616974 
L 139.074665 143.632713 
L 139.25724 143.710521 
L 139.439852 143.419981 
L 139.759512 142.285334 
L 140.262066 140.554078 
L 140.490592 140.384124 
L 140.673454 140.56147 
L 141.588309 141.959732 
L 141.771387 141.800828 
L 142.091859 141.13687 
L 142.549863 140.293385 
L 142.778947 140.250231 
L 143.008086 140.536569 
L 143.55824 141.367541 
L 143.741694 141.223304 
L 143.971059 140.668995 
L 144.843134 138.121174 
L 145.118689 137.959468 
L 145.440279 137.832635 
L 146.359961 137.097503 
L 146.590235 137.22495 
L 146.774647 137.602535 
L 147.051681 138.831319 
L 147.468289 141.896529 
L 148.165781 148.015123 
L 148.259 148.003367 
L 148.398855 147.442169 
L 148.631905 145.193835 
L 149.375738 136.435776 
L 149.468472 136.42704 
L 149.60749 137.065353 
L 149.885235 140.132585 
L 150.486067 147.005781 
L 150.763202 148.055494 
L 150.855581 148.013796 
L 150.99416 147.569034 
L 151.225154 145.913429 
L 152.010873 139.207533 
L 152.149592 139.060135 
L 152.288329 139.308312 
L 152.565862 140.595443 
L 153.028589 142.648178 
L 153.213739 142.757487 
L 153.352624 142.500201 
L 153.630451 141.274795 
L 154.325345 137.789377 
L 154.510728 137.641851 
L 154.649787 137.800852 
L 154.974329 138.712289 
L 155.391743 139.715445 
L 155.577312 139.747771 
L 155.762914 139.476249 
L 156.087793 138.474961 
L 156.598513 136.972301 
L 156.830736 136.836523 
L 157.063008 137.045041 
L 158.039075 138.437525 
L 158.271596 138.379005 
L 158.643729 137.988418 
L 159.155608 137.470066 
L 159.574588 137.440821 
L 159.900565 137.341063 
L 160.226634 136.920505 
L 160.739212 136.239867 
L 161.344868 135.850683 
L 161.623912 135.633642 
L 162.180038 134.955744 
L 162.226236 134.999456 
L 162.364681 135.351328 
L 162.594912 136.68316 
L 163.508826 142.728688 
L 163.825779 143.501287 
L 164.006123 143.562593 
L 164.140987 143.38795 
L 164.320248 142.758908 
L 164.543399 141.062999 
L 165.162773 135.468199 
L 165.250614 135.537898 
L 165.38208 136.189377 
L 165.643972 139.084223 
L 166.249799 146.469825 
L 166.378664 146.845017 
L 166.421543 146.835332 
L 166.549951 146.401744 
L 166.76319 144.428086 
L 167.647919 134.353809 
L 167.731239 134.403049 
L 167.897379 135.068116 
L 168.595922 139.332728 
L 168.636624 139.303911 
L 168.758465 138.956817 
L 169.081457 136.944578 
L 169.560973 134.39698 
L 169.837843 133.905414 
L 169.995092 133.977541 
L 170.229645 134.46927 
L 170.694029 135.527294 
L 170.809157 135.488375 
L 171.000198 135.046447 
L 171.679442 132.966948 
L 171.828585 133.075099 
L 172.051118 133.670852 
L 172.601235 135.293049 
L 172.74644 135.290081 
L 172.927096 134.984256 
L 173.640177 133.429045 
L 173.816097 133.658974 
L 174.165161 134.711135 
L 174.47611 135.365788 
L 174.613359 135.306313 
L 174.886143 134.699733 
L 175.156576 134.281647 
L 175.324396 134.339856 
L 175.524599 134.691338 
L 175.888337 135.958272 
L 176.409588 137.498893 
L 177.04846 139.806338 
L 177.362587 141.769211 
L 179.028533 155.200124 
L 180.618449 170.25307 
L 181.291639 176.104778 
L 181.631916 179.718521 
L 182.46502 189.9139 
L 182.972363 191.509682 
L 183.113973 191.712631 
L 183.137423 191.701244 
L 183.254029 191.412226 
L 183.415538 190.269375 
L 183.733014 185.815905 
L 184.368928 175.919084 
L 184.433579 175.879927 
L 184.455103 175.914541 
L 184.562521 176.434704 
L 184.797856 179.125924 
L 185.246749 184.650202 
L 185.268268 184.637726 
L 185.354643 184.233111 
L 185.662273 181.88812 
L 185.729473 182.082767 
L 185.842545 183.499299 
L 186.049428 189.539858 
L 186.810656 214.531954 
L 187.187669 219.146421 
L 187.610367 221.696657 
L 188.025848 223.046052 
L 188.283985 223.315703 
L 188.478451 223.238488 
L 188.709181 222.848367 
L 188.996408 221.862748 
L 189.246394 220.121772 
L 189.440328 216.937416 
L 189.636285 209.049842 
L 189.874709 188.115082 
L 190.280583 154.567419 
L 190.301137 154.441991 
L 190.342318 154.704532 
L 190.466425 158.398246 
L 190.780337 167.165401 
L 190.801443 167.172448 
L 190.82257 167.090125 
L 190.928518 165.317858 
L 191.120509 156.631605 
L 191.487589 139.356866 
L 191.509358 139.365118 
L 191.596621 140.755049 
L 192.215713 156.543844 
L 192.238087 156.52605 
L 192.350222 155.98952 
L 192.780314 152.977053 
L 192.825947 153.062728 
L 192.940319 153.85544 
L 193.193365 157.828772 
L 193.494785 161.545539 
L 193.588005 161.742838 
L 193.634695 161.694124 
L 193.798523 161.044687 
L 194.104406 160.00679 
L 194.293599 159.943653 
L 194.650218 160.003926 
L 194.817537 159.565319 
L 195.057662 158.083255 
L 195.396494 154.307141 
L 196.036152 146.938364 
L 196.919251 138.395704 
L 197.305141 135.596352 
L 197.564529 135.065672 
L 197.851724 134.679808 
L 198.167228 133.598485 
L 198.484983 132.83797 
L 198.618036 132.862144 
L 198.804951 133.193109 
L 199.370137 134.331168 
L 199.559995 134.24062 
L 199.859802 134.115737 
L 200.02408 134.324708 
L 200.326612 135.215791 
L 200.686393 136.091115 
L 200.881117 136.126815 
L 201.356893 135.961756 
L 201.610406 136.32245 
L 202.035411 136.916016 
L 202.2348 136.883194 
L 202.606854 136.47112 
L 202.894595 136.31283 
L 203.707337 136.255222 
L 204.353117 135.708813 
L 204.886116 135.586652 
L 205.453183 135.180651 
L 205.873914 134.88728 
L 206.115422 134.617359 
L 206.936303 132.978034 
L 208.604262 126.34714 
L 209.104885 124.61129 
L 209.418936 124.189588 
L 209.765144 124.083248 
L 210.080452 123.941834 
L 210.364617 123.779386 
L 210.522621 124.054032 
L 210.807229 125.261257 
L 211.819541 130.847279 
L 212.356709 136.740087 
L 212.830417 143.534419 
L 214.961782 186.734293 
L 216.244225 220.147445 
L 216.75245 227.437885 
L 217.194671 231.016531 
L 217.652187 233.044984 
L 218.070721 234.042185 
L 218.47863 234.49757 
L 218.753596 234.526033 
L 219.024617 234.289539 
L 219.340465 233.683043 
L 219.652277 232.584563 
L 219.961017 230.659677 
L 220.291394 226.948235 
L 220.906225 219.395985 
L 221.001789 219.318266 
L 221.025745 219.345138 
L 221.194241 219.841911 
L 221.610163 221.035209 
L 221.884773 221.253183 
L 222.188623 221.191333 
L 222.799473 221.028054 
L 223.151227 221.221932 
L 223.619931 221.460542 
L 223.814517 221.317838 
L 224.03171 220.80599 
L 224.271211 219.57181 
L 224.580359 216.566967 
L 225.14731 208.116015 
L 225.641995 202.122671 
L 226.0188 199.818398 
L 226.324747 199.193746 
L 226.559791 198.647558 
L 226.958511 196.93748 
L 227.426542 193.958835 
L 227.966439 190.741443 
L 228.202996 190.317853 
L 228.393525 190.35018 
L 228.827476 190.507994 
L 228.998363 190.286517 
L 229.219803 189.549071 
L 229.567783 187.472321 
L 230.944334 178.397945 
L 231.178565 177.241178 
L 231.440326 174.43972 
L 231.96843 165.475487 
L 232.60993 154.543031 
L 233.205304 147.087185 
L 233.945326 136.697342 
L 234.221853 135.623514 
L 234.471843 134.697831 
L 234.834832 132.031354 
L 235.143739 130.563943 
L 235.312919 130.446639 
L 235.510913 130.648612 
L 235.880415 131.017737 
L 236.080355 130.922215 
L 236.568762 130.572055 
L 236.742093 130.739903 
L 237.032072 131.410832 
L 237.498851 132.395662 
L 237.851179 132.599119 
L 238.116671 132.837161 
L 238.472303 133.553397 
L 239.009231 134.593587 
L 239.399574 134.835061 
L 239.822316 135.147401 
L 240.522085 135.750375 
L 241.012678 135.772763 
L 241.382627 135.892443 
L 241.971789 136.399347 
L 243.004675 137.229337 
L 243.668349 137.07049 
L 244.177509 136.972108 
L 244.882534 136.849725 
L 245.625554 136.392265 
L 246.211112 136.409688 
L 247.161831 135.999295 
L 247.855827 136.183565 
L 248.687983 136.095867 
L 249.593887 136.364972 
L 250.337451 136.375003 
L 251.290728 136.589921 
L 252.113899 136.615965 
L 252.907951 136.728402 
L 253.951165 136.742096 
L 254.756619 136.761972 
L 255.743686 136.770069 
L 256.880376 136.747535 
L 261.258539 136.76435 
L 265.869565 136.709388 
L 268.754052 136.47219 
L 269.251713 136.172342 
L 270.019722 135.818655 
L 270.481892 135.753369 
L 270.867796 135.841118 
L 271.215677 136.256157 
L 271.680334 136.737046 
L 272.807048 137.071057 
L 273.118852 136.510258 
L 273.548334 135.814819 
L 273.782971 135.795535 
L 274.017867 136.088194 
L 274.56696 136.868677 
L 274.802704 136.851441 
L 275.038694 136.553874 
L 275.748103 135.421073 
L 275.945538 135.538115 
L 276.499221 136.066657 
L 276.697271 135.873604 
L 277.014485 135.169451 
L 277.729704 133.418955 
L 278.566685 132.286422 
L 279.00618 130.700387 
L 279.606525 128.637473 
L 279.886823 128.367948 
L 280.127056 128.485385 
L 280.447316 128.616581 
L 280.687407 128.388411 
L 281.007303 128.194699 
L 281.246849 128.317328 
L 281.485867 128.722633 
L 281.764022 129.850476 
L 282.19935 132.811978 
L 283.604238 144.916811 
L 284.785201 158.685659 
L 285.789999 167.450184 
L 287.235345 182.405103 
L 287.693633 187.61584 
L 290.260655 221.13322 
L 290.677567 223.980056 
L 291.372336 227.786249 
L 291.903157 228.921938 
L 292.213698 229.139458 
L 292.523062 229.345016 
L 292.738922 229.885673 
L 293.13811 231.71279 
L 293.80717 234.539183 
L 294.287238 235.754051 
L 294.613696 236.065018 
L 294.878659 236.022493 
L 295.199943 235.681936 
L 295.69114 234.746159 
L 296.40223 233.453852 
L 296.849843 233.063822 
L 297.263978 232.988131 
L 297.754088 233.146265 
L 298.263581 233.582752 
L 298.686371 233.823396 
L 298.973949 233.715112 
L 299.593585 233.113465 
L 300.051548 232.399462 
L 300.428971 231.378165 
L 300.753129 229.856727 
L 301.074881 227.139887 
L 301.468311 221.437349 
L 302.055222 213.439661 
L 302.494194 210.389935 
L 302.859882 209.24868 
L 303.323405 207.974458 
L 303.665484 206.205181 
L 304.130983 202.088437 
L 304.376832 200.877473 
L 304.450732 200.924171 
L 304.574065 201.441141 
L 304.846139 203.913002 
L 305.54286 210.241876 
L 306.168009 213.707657 
L 307.062635 217.451566 
L 307.432115 218.227578 
L 307.604081 218.238468 
L 307.751329 217.981049 
L 307.972105 217.002236 
L 308.266807 214.464477 
L 308.88517 208.967758 
L 309.160127 208.322525 
L 309.462413 208.196754 
L 309.997524 207.991856 
L 310.38453 207.907383 
L 310.64449 208.091266 
L 310.931901 208.616658 
L 311.404209 210.065491 
L 312.268601 212.676527 
L 312.63328 213.210025 
L 312.893017 213.262323 
L 313.100482 213.062001 
L 313.359616 212.432585 
L 313.696557 210.91164 
L 314.294359 206.859659 
L 314.922842 203.098354 
L 315.292095 202.078358 
L 315.689597 201.623482 
L 315.982207 201.541801 
L 316.51629 201.601089 
L 316.918268 201.414614 
L 317.106179 201.666408 
L 317.374869 202.507195 
L 318.153962 206.099048 
L 320.345024 216.112253 
L 320.709916 216.842869 
L 320.866842 216.842008 
L 321.024315 216.497963 
L 321.208894 215.429523 
L 321.447811 212.434367 
L 321.742663 205.067055 
L 322.563414 181.292429 
L 322.785625 180.280606 
L 323.008854 179.920734 
L 323.148856 178.964228 
L 323.345441 175.601747 
L 323.599098 166.139835 
L 324.223207 137.896856 
L 324.251716 138.0521 
L 324.365877 140.13813 
L 324.882082 152.060288 
L 324.939692 151.984843 
L 325.055067 150.74678 
L 325.286438 144.456611 
L 325.664195 134.534212 
L 325.722508 134.433736 
L 325.751684 134.546636 
L 325.86852 135.949701 
L 326.426328 144.840539 
L 326.514828 144.483635 
L 326.692173 142.172451 
L 327.16734 135.043917 
L 327.197147 135.009021 
L 327.226965 135.036651 
L 327.346367 135.71764 
L 327.916278 141.249297 
L 327.97653 141.1578 
L 328.127379 140.203644 
L 328.703424 135.204349 
L 328.733865 135.221272 
L 328.855753 135.637469 
L 329.437381 139.101867 
L 329.529616 138.963975 
L 329.71441 138.030719 
L 330.178281 135.496458 
L 330.271377 135.505143 
L 330.426774 135.95439 
L 330.98864 138.15865 
L 331.019966 138.150712 
L 331.145386 137.939926 
L 331.491247 136.583129 
L 331.74366 136.038386 
L 331.870142 136.130033 
L 332.091926 136.766634 
L 332.505288 137.927386 
L 332.664781 137.902252 
L 332.888543 137.441003 
L 333.273408 136.652415 
L 333.43424 136.685646 
L 333.65987 137.09339 
L 334.112742 137.930685 
L 334.275001 137.886708 
L 334.535178 137.487985 
L 334.894048 137.019436 
L 335.090343 137.085339 
L 335.451213 137.610912 
L 335.747424 137.85682 
L 335.945372 137.764241 
L 336.674399 137.18465 
L 336.974083 137.43996 
L 337.374957 137.702004 
L 337.643021 137.578797 
L 338.248536 137.183257 
L 338.552514 137.32124 
L 339.060937 137.552068 
L 339.401121 137.398885 
L 339.879026 137.184617 
L 340.221554 137.295353 
L 340.771608 137.47112 
L 341.254915 137.291195 
L 341.670659 137.237624 
L 342.785906 137.358475 
L 343.347084 137.26005 
L 345.579231 137.732013 
L 346.187582 137.952659 
L 347.411774 138.181202 
L 347.882448 138.219469 
L 348.682202 137.982904 
L 349.047056 137.973801 
L 350.036265 138.346273 
L 350.735924 139.092547 
L 351.179303 139.834769 
L 351.698012 141.471932 
L 352.441642 143.505948 
L 353.524648 145.347945 
L 353.935879 145.468607 
L 354.085392 145.279418 
L 354.309633 144.405805 
L 355.393046 137.765594 
L 355.691831 135.339589 
L 356.401431 126.519957 
L 356.998398 120.103729 
L 357.591828 116.5501 
L 358.178519 113.93027 
L 358.469022 113.440792 
L 358.649619 113.49608 
L 358.865353 113.8872 
L 359.222526 115.122582 
L 359.752462 117.87709 
L 360.992988 124.925001 
L 361.793198 126.665363 
L 362.087559 126.708255 
L 362.249661 127.029253 
L 363.109408 129.438832 
L 363.914048 131.590015 
L 365.416387 135.751636 
L 373.626822 135.696002 
L 374.532624 133.413531 
L 374.935086 132.889272 
L 375.212066 132.833996 
L 375.489284 133.022298 
L 375.917853 133.633703 
L 376.574757 134.977304 
L 377.005553 135.751636 
L 394.504758 135.762764 
L 394.726021 134.323095 
L 395.565083 129.358407 
L 395.7064 129.135789 
L 395.734716 129.15756 
L 395.848154 129.521692 
L 396.075874 131.38615 
L 396.276036 132.560719 
L 396.304698 132.546485 
L 396.39078 132.159935 
L 396.592197 129.706845 
L 396.968214 125.48228 
L 397.055333 125.336955 
L 397.084401 125.379101 
L 397.20081 126.034366 
L 397.405053 129.102162 
L 397.874342 136.943527 
L 397.93324 136.817344 
L 398.080713 135.228296 
L 398.554792 128.997578 
L 398.614281 129.010824 
L 398.733411 129.73307 
L 398.972276 133.382793 
L 399.332084 138.462928 
L 399.392227 138.59186 
L 399.452421 138.48199 
L 399.603123 137.305274 
L 400.087455 132.774318 
L 400.148218 132.830387 
L 400.269892 133.469253 
L 400.544373 136.623448 
L 400.850509 139.207417 
L 400.911882 139.28021 
L 400.942587 139.257344 
L 401.065527 138.808818 
L 401.652116 135.295266 
L 401.714113 135.390368 
L 401.869314 136.116831 
L 402.430481 139.268444 
L 402.524379 139.167328 
L 402.71249 138.403106 
L 403.153043 136.42631 
L 403.279331 136.455187 
L 403.437449 136.915102 
L 404.009033 138.742912 
L 404.13655 138.562089 
L 404.424119 137.547095 
L 404.74469 136.67122 
L 404.905381 136.661472 
L 405.130796 137.031712 
L 405.518415 137.635883 
L 405.680364 137.54196 
L 405.940017 136.983851 
L 406.428627 136.014562 
L 406.592011 136.035572 
L 406.853979 136.39903 
L 407.215331 136.842078 
L 407.413004 136.793655 
L 407.776456 136.349209 
L 408.108031 136.089866 
L 408.340787 136.203504 
L 409.075716 136.802866 
L 409.411438 136.566729 
L 409.748176 136.405518 
L 410.018294 136.546643 
L 410.662388 136.996759 
L 411.002821 136.857265 
L 411.446852 136.664843 
L 411.755224 136.782916 
L 412.339843 137.034418 
L 412.754186 136.885913 
L 413.204603 136.759298 
L 413.656615 136.920192 
L 414.11021 136.996289 
L 415.374471 136.896872 
L 415.904736 136.95045 
L 417.078421 136.871318 
L 417.722672 136.921237 
L 418.802691 136.868321 
L 419.635934 136.917274 
L 420.949089 136.840963 
L 422.790708 136.845192 
L 423.421594 137.117798 
L 424.428509 137.173303 
L 424.840377 137.242223 
L 425.328276 137.03052 
L 425.74207 136.956226 
L 426.87512 137.131357 
L 427.596191 136.860278 
L 428.205492 137.013128 
L 428.663707 137.007929 
L 429.660117 136.833356 
L 430.661404 136.982185 
L 431.551166 136.897417 
L 432.756275 137.052959 
L 433.498172 137.049788 
L 434.281775 137.145591 
L 435.146853 137.117332 
L 436.054698 137.51618 
L 436.688294 137.692913 
L 437.244051 137.817654 
L 437.761214 137.97734 
L 438.04011 137.768861 
L 438.878485 136.952909 
L 439.639193 136.980333 
L 439.879888 137.230325 
L 440.482694 137.920883 
L 440.683972 137.865807 
L 441.127386 137.371541 
L 441.490781 137.16186 
L 441.773779 137.225736 
L 443.799385 138.551347 
L 444.40478 140.055911 
L 445.606494 143.567192 
L 446.280287 146.633317 
L 446.947772 149.438789 
L 447.37588 150.373834 
L 448.602565 151.959429 
L 448.753747 151.938473 
L 448.90441 151.647386 
L 449.166885 150.499153 
L 450.309839 143.768781 
L 450.922774 138.697841 
L 451.349619 133.317833 
L 452.326794 120.908473 
L 453.076425 114.635489 
L 453.578273 111.939461 
L 453.941364 110.989851 
L 454.137605 110.915994 
L 454.332543 111.131224 
L 454.654511 111.958396 
L 455.256341 114.348117 
L 455.937101 117.835156 
L 456.568871 121.183033 
L 457.065558 122.757433 
L 457.380371 123.395744 
L 457.802041 124.164026 
L 458.188908 125.299825 
L 458.56946 125.874532 
L 458.730794 126.738805 
L 459.878849 135.751636 
L 473.987453 135.644812 
L 474.939776 133.007087 
L 476.095371 129.744682 
L 476.374231 129.525131 
L 476.767496 129.564086 
L 477.021972 129.681303 
L 477.192319 130.019779 
L 477.420279 131.064052 
L 477.792612 134.075691 
L 478.16716 136.558276 
L 478.398702 136.86829 
L 478.601958 137.101194 
L 478.805839 137.86621 
L 479.509762 141.124615 
L 479.686963 141.140541 
L 479.983428 141.113143 
L 480.161996 141.426646 
L 480.640697 143.003147 
L 481.092746 144.218643 
L 481.395814 144.399108 
L 481.639222 144.661548 
L 482.159205 145.72585 
L 483.116858 147.917786 
L 483.490801 148.621425 
L 483.803773 149.80912 
L 484.212422 152.439292 
L 484.876569 156.50392 
L 485.353797 159.435045 
L 485.865257 164.375992 
L 486.733438 172.276052 
L 487.509146 179.588944 
L 488.511997 190.657045 
L 490.095838 209.750076 
L 490.838401 215.398292 
L 491.770542 220.836841 
L 492.34529 222.896088 
L 493.076235 224.687649 
L 493.677767 225.654793 
L 494.497323 226.474794 
L 495.279071 227.005127 
L 495.496667 226.850444 
L 495.744818 226.355194 
L 496.116348 224.982874 
L 497.075616 221.154348 
L 497.509412 220.345778 
L 498.128967 219.267877 
L 498.500237 218.105759 
L 498.871068 216.092898 
L 499.985296 209.326383 
L 500.140732 209.247815 
L 500.296354 209.49062 
L 500.607941 210.609356 
L 501.417565 213.665704 
L 501.820431 214.329359 
L 502.190973 214.562023 
L 502.468122 214.485323 
L 502.744743 214.146988 
L 503.26637 213.014213 
L 503.572968 212.62114 
L 503.756908 212.696324 
L 504.00219 213.124992 
L 505.168998 215.548655 
L 506.984974 219.157803 
L 507.779066 221.351943 
L 508.325422 222.126644 
L 508.809759 222.476686 
L 509.232943 222.520059 
L 509.685599 222.343375 
L 510.167643 221.901137 
L 510.558884 221.209873 
L 511.251011 219.349333 
L 512.400978 216.303881 
L 512.735992 215.959745 
L 513.071685 215.926769 
L 513.407691 215.831973 
L 514.478828 215.159477 
L 515.000695 215.007913 
L 515.492683 214.891065 
L 515.985012 215.099563 
L 516.385276 215.150097 
L 517.125066 215.067283 
L 517.464471 215.458665 
L 518.019641 216.062804 
L 518.574243 216.633287 
L 519.496752 217.833058 
L 520.23227 218.200859 
L 520.599262 218.218765 
L 520.874309 218.005484 
L 521.669031 217.18098 
L 521.975013 217.280358 
L 522.37287 217.66427 
L 522.800877 218.436103 
L 524.103756 221.180529 
L 524.4332 221.177191 
L 524.761207 220.939834 
L 525.028614 220.451741 
L 525.383994 219.222685 
L 526.621233 214.406741 
L 527.505175 211.512958 
L 527.771657 211.500671 
L 528.546013 211.678195 
L 528.845564 212.079352 
L 529.295509 213.130525 
L 529.774537 214.095901 
L 530.043254 214.24857 
L 530.281594 214.15184 
L 530.519411 213.786868 
L 530.875334 212.763762 
L 531.556657 210.742489 
L 531.734509 210.680503 
L 531.91246 210.89293 
L 532.446666 211.656741 
L 532.654438 211.590751 
L 532.891902 211.229239 
L 533.218489 210.242118 
L 533.574977 208.378082 
L 534.021245 204.665651 
L 534.529194 200.687757 
L 534.619177 200.575259 
L 534.649196 200.595728 
L 534.769404 200.94818 
L 535.040616 202.820381 
L 535.707257 207.402376 
L 536.528346 211.067856 
L 537.25277 213.61546 
L 537.492682 213.841733 
L 537.642349 213.675036 
L 537.851611 212.949581 
L 538.209986 210.557617 
L 538.628454 208.155089 
L 538.778172 207.981541 
L 538.808135 207.99619 
L 538.95805 208.278721 
L 539.288475 209.667537 
L 539.710109 211.158519 
L 540.072136 211.656242 
L 540.887212 212.465799 
L 541.429635 213.271097 
L 541.549858 213.108834 
L 541.729905 212.305096 
L 541.969359 209.797285 
L 542.297424 203.38156 
L 543.038413 188.36573 
L 543.656501 178.05443 
L 543.920367 166.673748 
L 544.300711 137.818272 
L 544.592643 122.153426 
L 544.738266 120.517148 
L 544.767349 120.556078 
L 544.883487 121.510861 
L 545.143404 123.886584 
L 545.172154 123.843066 
L 545.258245 123.144716 
L 545.458257 118.694552 
L 545.910824 108.866553 
L 546.022824 108.437948 
L 546.07865 108.492559 
L 546.189954 109.051454 
L 546.493963 112.405655 
L 547.571044 122.645298 
L 548.064548 125.474129 
L 548.46843 126.660854 
L 548.931771 127.301415 
L 549.446646 128.085315 
L 549.89762 129.255651 
L 550.595245 131.820426 
L 551.671098 135.751636 
L 559.014056 135.758311 
L 559.648204 131.279387 
L 560.851411 126.267882 
L 560.984851 126.348198 
L 561.209044 126.92532 
L 561.458174 127.300799 
L 561.595157 127.08725 
L 562.103615 126.025699 
L 562.26733 126.265198 
L 563.147174 128.0938 
L 563.388972 128.158214 
L 563.583607 128.236539 
L 563.754776 128.611776 
L 564.025375 129.897559 
L 564.522429 132.147704 
L 564.975331 133.37684 
L 566.000365 137.56945 
L 566.391278 138.137913 
L 566.970946 139.14058 
L 567.183581 139.111532 
L 568.016683 138.709114 
L 568.343018 138.559258 
L 568.864024 137.961749 
L 569.334601 137.608897 
L 570.034064 137.131314 
L 570.599896 136.794778 
L 571.950967 136.45763 
L 573.479619 136.486367 
L 576.359898 136.672494 
L 579.347074 136.648924 
L 581.383644 136.182159 
L 582.236524 135.866748 
L 582.864256 135.751046 
L 583.295908 135.682436 
L 584.735874 136.042878 
L 585.107193 135.766449 
L 586.330664 133.977552 
L 587.221939 131.795315 
L 587.877062 130.737367 
L 588.084465 130.711699 
L 588.292 131.010436 
L 589.053027 132.681962 
L 589.433424 134.755309 
L 590.055775 140.232642 
L 590.470655 144.361179 
L 591.645821 160.485482 
L 592.867834 178.364132 
L 593.497842 186.487778 
L 594.214974 200.188947 
L 595.043852 214.797475 
L 595.723864 222.848059 
L 596.114552 225.807616 
L 596.351712 226.315296 
L 597.141205 227.168807 
L 597.488232 228.221092 
L 599.255738 234.46066 
L 599.619448 234.814418 
L 599.89719 234.810369 
L 600.20068 234.547493 
L 600.584048 233.888932 
L 601.045745 232.62362 
L 601.55802 230.487104 
L 602.176093 226.813018 
L 602.9829 222.281658 
L 603.440406 220.984437 
L 604.058074 219.210876 
L 605.150438 215.299557 
L 605.811768 212.678009 
L 605.970074 212.631387 
L 606.154555 212.889265 
L 606.653942 214.198869 
L 608.156461 218.265877 
L 608.513289 218.408245 
L 608.842904 218.615038 
L 609.77451 219.442087 
L 611.939692 218.777174 
L 612.776362 219.021995 
L 613.129694 218.811773 
L 613.431679 218.364206 
L 613.733225 217.488394 
L 614.135576 215.475939 
L 615.35031 208.747394 
L 615.8343 206.004619 
L 616.447921 201.245172 
L 617.014006 196.989472 
L 617.19516 196.730501 
L 617.324871 196.91501 
L 617.58505 197.880053 
L 618.370737 201.017237 
L 618.686465 201.429635 
L 619.081964 201.861769 
L 619.398928 202.590671 
L 619.7957 204.171941 
L 621.066773 209.524975 
L 621.832152 211.740423 
L 622.462959 212.961457 
L 622.777705 213.193774 
L 623.039873 213.149075 
L 623.275878 212.887546 
L 623.590877 212.114163 
L 623.985671 210.500622 
L 624.355931 208.060992 
L 624.728724 203.974273 
L 625.158865 196.429053 
L 627.474019 148.779968 
L 627.703273 148.1749 
L 627.90459 147.896525 
L 628.077675 147.111452 
L 628.454351 143.809118 
L 628.804041 141.7811 
L 628.979595 141.588146 
L 629.12625 141.783701 
L 629.509071 142.486102 
L 629.538609 142.46642 
L 629.686493 142.143739 
L 630.430726 139.814464 
L 630.610536 139.998784 
L 630.971541 140.374086 
L 631.122507 140.238833 
L 631.395053 139.538355 
L 631.790518 138.601016 
L 631.973736 138.593816 
L 632.280051 138.969181 
L 632.556731 139.136797 
L 632.77257 138.98622 
L 633.330183 138.489484 
L 633.579223 138.654065 
L 634.079558 139.011862 
L 634.29943 138.869465 
L 634.646226 138.256387 
L 634.99461 137.806599 
L 635.664037 137.4057 
L 636.145554 136.749059 
L 636.306602 136.845885 
L 636.629397 137.445364 
L 636.920664 137.796159 
L 637.115225 137.714941 
L 637.700828 137.24662 
L 637.896694 137.41342 
L 638.68369 138.362589 
L 639.046355 138.169849 
L 639.344008 138.109264 
L 639.609284 138.305171 
L 640.141797 138.747399 
L 640.409025 138.652144 
L 641.113552 138.261539 
L 642.195517 138.290285 
L 643.218919 137.464181 
L 643.974907 136.497102 
L 644.527624 136.109978 
L 645.013295 135.596637 
L 645.187231 135.746388 
L 645.39631 136.328826 
L 645.71069 138.02291 
L 646.201701 140.701911 
L 646.307242 140.614576 
L 646.518665 139.811106 
L 646.836632 138.808492 
L 646.942825 138.841226 
L 647.120015 139.27995 
L 647.617304 140.758733 
L 647.724062 140.662707 
L 647.937765 139.99531 
L 648.401572 138.54743 
L 648.580249 138.466626 
L 648.759097 138.675144 
L 649.332657 139.583213 
L 649.476364 139.445429 
L 649.69217 138.795513 
L 650.341399 136.501837 
L 650.486045 136.518202 
L 650.667044 136.843324 
L 651.102306 137.732386 
L 651.247664 137.67427 
L 651.465952 137.21639 
L 651.976467 136.010529 
L 652.15919 136.034782 
L 652.378732 136.429771 
L 652.928889 137.510634 
L 653.112684 137.442721 
L 653.886849 136.741861 
L 654.182707 137.159722 
L 654.553251 137.590252 
L 654.738822 137.467249 
L 655.036149 136.84383 
L 655.520392 135.890464 
L 655.744349 135.84521 
L 655.968598 136.104106 
L 656.343033 136.500489 
L 656.568145 136.440131 
L 656.868894 136.34761 
L 657.057267 136.58073 
L 657.321558 137.448999 
L 657.662405 139.458395 
L 658.11885 142.006402 
L 658.233289 142.036036 
L 658.38605 141.669381 
L 658.806875 139.606216 
L 659.113177 138.617264 
L 659.22806 138.624248 
L 659.381251 138.969351 
L 659.802602 140.853612 
L 660.109103 141.839482 
L 660.224057 141.822807 
L 660.377346 141.359018 
L 661.067937 138.587921 
L 661.183215 138.672423 
L 661.413938 139.238301 
L 661.76044 140.011691 
L 661.876051 139.981129 
L 662.030287 139.630513 
L 662.339052 138.132091 
L 662.725564 136.496986 
L 662.919055 136.38045 
L 663.073966 136.630986 
L 663.850233 138.378961 
L 664.005847 138.169943 
L 664.746707 136.654121 
L 664.785776 136.678506 
L 664.981235 136.983542 
L 665.725621 138.501735 
L 665.92193 138.40338 
L 666.669444 137.732726 
L 666.906001 138.034441 
L 667.815005 139.664157 
L 668.013072 139.484149 
L 668.647975 138.654105 
L 668.886489 138.769811 
L 669.204867 138.930751 
L 669.364209 138.763894 
L 669.683204 137.960813 
L 670.122504 137.046922 
L 670.442534 136.794843 
L 670.682888 136.847961 
L 670.963707 137.213244 
L 671.245078 138.031145 
L 671.648254 140.181701 
L 672.012628 141.603111 
L 672.297029 141.960122 
L 672.500656 142.274187 
L 672.704634 143.065754 
L 673.154126 145.535441 
L 673.235876 145.437161 
L 673.399335 144.38828 
L 674.093028 137.91099 
L 674.133773 137.973917 
L 674.296701 138.832484 
L 674.663118 142.737073 
L 675.029495 145.719587 
L 675.151658 145.928801 
L 675.192386 145.893677 
L 675.314593 145.463629 
L 675.559118 143.289099 
L 676.171229 137.026016 
L 676.252939 136.911597 
L 676.293802 136.936055 
L 676.416427 137.318928 
L 676.702752 139.452178 
L 677.071304 141.720064 
L 677.194259 141.799971 
L 677.317267 141.471872 
L 677.563437 139.779056 
L 678.138638 135.375034 
L 678.26204 135.269185 
L 678.385492 135.546093 
L 678.63255 136.973201 
L 679.086014 139.688653 
L 679.251078 139.86045 
L 679.374935 139.621806 
L 679.513182 139.029861 
L 679.513182 139.029861 
" clip-path="url(#p88d59e9cb0)" style="fill: none; stroke: #2ca02c; stroke-width: 0.9; stroke-linecap: square"/>
   </g>
   <g id="line2d_34">
    <path d="M 85.776818 136.943604 
L 85.985526 168.34456 
L 86.110777 171.224459 
L 86.152529 171.195111 
L 86.277781 169.818819 
L 86.987186 157.230652 
L 87.154061 146.566337 
L 87.487892 120.729657 
L 87.780041 116.053127 
L 88.239074 112.655577 
L 88.322533 113.631953 
L 88.447737 120.441734 
L 88.94891 163.63337 
L 89.199674 166.023013 
L 89.450484 166.963676 
L 89.492289 166.949809 
L 89.575901 166.497601 
L 89.701332 163.240534 
L 89.826788 152.516806 
L 90.245299 103.659266 
L 90.538515 95.743374 
L 90.957554 90.339597 
L 91.041375 90.059754 
L 91.083287 90.176785 
L 91.167117 91.205029 
L 91.292878 95.752743 
L 91.502548 114.515049 
L 92.00619 165.497563 
L 92.174181 168.198364 
L 92.258192 167.301806 
L 92.384227 162.436719 
L 92.552315 146.650954 
L 92.972809 99.489431 
L 93.267354 89.281627 
L 93.519894 86.471209 
L 93.604082 86.348661 
L 93.688275 86.689914 
L 93.814571 88.388033 
L 93.982985 94.197194 
L 94.193554 110.48562 
L 94.783642 166.391376 
L 94.910185 168.143503 
L 94.952372 168.061087 
L 95.078953 165.753075 
L 95.247777 156.958029 
L 96.008331 103.095672 
L 96.092912 102.713079 
L 96.135207 102.852053 
L 96.262111 104.767446 
L 96.431361 111.907984 
L 96.685356 136.17854 
L 96.981906 161.052196 
L 97.193868 166.180632 
L 97.278683 166.472347 
L 97.321096 166.326172 
L 97.448361 164.787411 
L 97.660552 158.003886 
L 97.915337 140.480818 
L 98.212813 121.348734 
L 98.425435 117.767173 
L 98.467972 117.834884 
L 98.595608 119.690993 
L 98.76585 126.737358 
L 99.362301 159.575186 
L 99.532883 160.885476 
L 99.618199 160.735615 
L 99.746204 159.654868 
L 99.959629 155.256287 
L 100.215885 144.187013 
L 100.643356 125.613017 
L 100.771686 124.718996 
L 100.857261 125.278901 
L 101.028464 129.393303 
L 101.799781 156.144522 
L 101.842674 156.251553 
L 101.885572 156.232429 
L 102.014288 155.428322 
L 102.185968 152.506717 
L 102.443617 143.648986 
L 102.916399 126.875255 
L 103.045434 126.162004 
L 103.131479 126.639361 
L 103.303622 129.907325 
L 104.122283 151.234611 
L 104.20855 150.80912 
L 104.381136 148.267609 
L 104.683328 138.921437 
L 105.072184 127.959237 
L 105.245124 126.897671 
L 105.33162 127.272191 
L 105.504665 129.760617 
L 105.850968 139.658019 
L 106.154214 145.840069 
L 106.327593 146.607455 
L 106.414309 146.225363 
L 106.587791 144.029193 
L 106.934963 135.609226 
L 107.282414 129.580817 
L 107.412779 129.134677 
L 107.499711 129.415381 
L 107.673626 131.281189 
L 108.065185 139.45746 
L 108.36997 143.761959 
L 108.500655 144.207359 
L 108.544225 144.163314 
L 108.674961 143.484196 
L 108.936544 140.103494 
L 109.460162 132.903092 
L 109.59116 132.64041 
L 109.678513 132.894027 
L 109.853269 134.351466 
L 110.684249 143.564168 
L 110.771805 143.480168 
L 110.946965 142.608114 
L 111.341306 138.640373 
L 111.648236 136.32547 
L 111.779837 136.146094 
L 111.911473 136.513821 
L 112.130943 138.134394 
L 112.745971 143.223535 
L 112.921829 143.504325 
L 113.053761 143.278002 
L 113.273721 142.227429 
L 113.890097 138.819747 
L 114.022271 138.767767 
L 114.154477 139.052588 
L 114.418987 140.381082 
L 114.948386 143.15528 
L 115.169117 143.405822 
L 115.301596 143.237476 
L 115.566646 142.353973 
L 116.141335 140.349874 
L 116.318277 140.342514 
L 116.495271 140.688405 
L 117.381018 143.039821 
L 117.558318 142.849227 
L 117.957422 141.86113 
L 118.312383 141.203983 
L 118.53433 141.16725 
L 118.711941 141.426078 
L 119.067299 142.518674 
L 119.645142 144.148915 
L 119.823033 144.190223 
L 120.000967 143.769101 
L 120.312454 142.064374 
L 120.802202 139.388271 
L 121.069476 138.921445 
L 121.247715 138.993332 
L 121.648925 139.437152 
L 121.827331 139.121324 
L 122.586396 137.107199 
L 122.765351 137.104135 
L 122.899725 137.348164 
L 123.079175 138.195846 
L 123.349128 140.761832 
L 123.846917 147.994921 
L 124.349032 155.582189 
L 124.48658 156.075807 
L 124.532458 156.044488 
L 124.670133 155.38296 
L 124.89951 152.502949 
L 125.311035 143.23633 
L 125.674709 136.77598 
L 125.765334 136.449216 
L 125.810609 136.52582 
L 125.946289 137.671293 
L 126.262081 143.831612 
L 126.756871 152.731297 
L 127.026468 154.517216 
L 127.161237 154.658429 
L 127.295996 154.369975 
L 127.520587 152.998367 
L 127.835028 149.196858 
L 128.688262 136.541401 
L 128.778038 136.896317 
L 128.957578 138.898146 
L 129.541044 146.353978 
L 129.675721 146.693658 
L 129.720621 146.675957 
L 129.855354 146.25995 
L 130.080034 144.49656 
L 130.935584 136.15342 
L 131.02581 136.174252 
L 131.206339 136.625788 
L 131.838936 138.673094 
L 131.929387 138.626417 
L 132.110338 138.087239 
L 132.789577 135.222079 
L 132.925586 135.454449 
L 133.152408 136.568338 
L 134.244191 143.243626 
L 134.426604 143.29976 
L 134.609068 143.031603 
L 134.837124 142.084172 
L 135.201877 139.113197 
L 135.520878 137.274938 
L 135.611993 137.276222 
L 135.74864 137.753759 
L 136.02185 139.963503 
L 136.568059 144.465169 
L 136.795664 145.05939 
L 136.932249 145.013851 
L 137.114389 144.542211 
L 137.433209 142.884612 
L 137.934435 140.37542 
L 138.116771 140.190745 
L 138.253549 140.370487 
L 138.527168 141.304786 
L 139.074665 143.152494 
L 139.25724 143.220855 
L 139.439852 142.954271 
L 139.759512 141.917511 
L 140.262066 140.329475 
L 140.490592 140.176494 
L 140.673454 140.345731 
L 141.588309 141.66549 
L 141.817162 141.456949 
L 142.275034 140.511498 
L 142.595675 140.095292 
L 142.82477 140.119293 
L 143.05392 140.448057 
L 143.512382 141.147481 
L 143.695827 141.077896 
L 143.925182 140.627506 
L 144.934977 137.98701 
L 145.256498 137.90345 
L 145.532186 137.714603 
L 146.175882 137.122918 
L 146.452044 137.115668 
L 146.63632 137.284558 
L 146.866932 137.911102 
L 147.190405 139.676442 
L 147.56106 142.770342 
L 148.119181 147.572834 
L 148.212388 147.654407 
L 148.259 147.590252 
L 148.398855 146.989896 
L 148.631905 144.787078 
L 149.375738 136.481947 
L 149.468472 136.471461 
L 149.60749 137.070412 
L 149.885235 139.91704 
L 150.439874 145.741672 
L 150.717013 146.845849 
L 150.855581 146.836406 
L 150.99416 146.439831 
L 151.271358 144.62008 
L 152.010873 139.044483 
L 152.149592 138.913258 
L 152.288329 139.1476 
L 152.565862 140.351059 
L 153.028589 142.270316 
L 153.213739 142.380523 
L 153.352624 142.149903 
L 153.630451 141.025271 
L 154.325345 137.755116 
L 154.510728 137.61543 
L 154.696144 137.861301 
L 155.577312 139.664023 
L 155.762914 139.405005 
L 156.087793 138.437739 
L 156.598513 136.972216 
L 156.830736 136.837911 
L 157.063008 137.043739 
L 158.039075 138.421561 
L 158.271596 138.364358 
L 158.643729 137.97862 
L 159.155608 137.46578 
L 159.574588 137.436895 
L 159.900565 137.337958 
L 160.226634 136.920553 
L 160.739212 136.244239 
L 161.344868 135.853425 
L 161.623912 135.634487 
L 162.180038 134.950834 
L 162.226236 134.994392 
L 162.364681 135.347006 
L 162.594912 136.683576 
L 163.508826 142.731416 
L 163.825779 143.49489 
L 164.006123 143.552331 
L 164.140987 143.376788 
L 164.320248 142.750693 
L 164.543399 141.065817 
L 165.162773 135.472502 
L 165.250614 135.540014 
L 165.38208 136.189274 
L 165.643972 139.090214 
L 166.249799 146.431139 
L 166.421543 146.794099 
L 166.549951 146.37192 
L 166.76319 144.43278 
L 167.647919 134.331006 
L 167.731239 134.37974 
L 167.897379 135.047666 
L 168.595922 139.346129 
L 168.636624 139.317181 
L 168.758465 138.968271 
L 169.081457 136.945522 
L 169.560973 134.396019 
L 169.837843 133.909353 
L 169.995092 133.98406 
L 170.229645 134.478112 
L 170.694029 135.535587 
L 170.809157 135.497001 
L 171.000198 135.05718 
L 171.679442 132.988217 
L 171.828585 133.096716 
L 172.051118 133.690942 
L 172.601235 135.305354 
L 172.74644 135.301925 
L 172.927096 134.996945 
L 173.640177 133.446717 
L 173.816097 133.675815 
L 174.165161 134.724373 
L 174.47611 135.375674 
L 174.613359 135.31593 
L 174.886143 134.710741 
L 175.156576 134.293655 
L 175.324396 134.351596 
L 175.524599 134.701679 
L 175.888337 135.963664 
L 176.409588 137.496084 
L 177.04846 139.802745 
L 177.362587 141.770093 
L 179.865344 159.988196 
L 180.591024 162.063868 
L 180.809377 162.195658 
L 180.998435 162.042075 
L 181.318055 161.375471 
L 181.939959 159.59627 
L 183.01974 155.491364 
L 183.254029 155.558912 
L 183.643061 155.845905 
L 184.626822 159.136822 
L 185.053962 161.142108 
L 185.139489 161.078001 
L 185.268268 160.413136 
L 185.551318 157.005455 
L 186.283991 149.133845 
L 187.279152 139.015534 
L 187.480098 138.135572 
L 189.975199 138.041878 
L 190.301137 137.56767 
L 190.321716 137.71629 
L 190.612281 142.541207 
L 190.94977 147.073234 
L 190.992333 147.173696 
L 191.034977 147.0939 
L 191.141942 145.944438 
L 191.487589 138.635805 
L 191.574777 139.31668 
L 191.816077 145.669495 
L 192.081848 150.098819 
L 192.193357 150.390219 
L 192.215713 150.364325 
L 192.327759 149.927862 
L 192.825947 147.269531 
L 192.871646 147.311783 
L 193.00914 147.801425 
L 193.425012 149.485604 
L 193.541368 149.320499 
L 193.845447 148.223986 
L 194.175272 147.461056 
L 194.483483 147.286065 
L 194.841489 147.082602 
L 195.129981 146.588081 
L 195.445205 145.51837 
L 196.791555 139.127561 
L 197.382786 135.49253 
L 197.668739 135.07016 
L 197.877929 134.664427 
L 198.591395 132.632094 
L 198.644692 132.669324 
L 198.831714 133.01966 
L 199.370137 134.132353 
L 199.559995 134.033444 
L 199.859802 133.904141 
L 200.02408 134.136214 
L 200.326612 135.106483 
L 200.686393 136.047964 
L 200.881117 136.090356 
L 201.356893 135.930402 
L 201.610406 136.30656 
L 202.035411 136.915704 
L 202.2348 136.882509 
L 202.606854 136.466988 
L 202.894595 136.308142 
L 203.707337 136.249921 
L 204.382619 135.691305 
L 204.886116 135.562676 
L 205.453183 135.139511 
L 205.873914 134.829768 
L 206.115422 134.545633 
L 206.905742 132.911065 
L 208.044471 128.071789 
L 208.729163 123.614334 
L 209.29323 120.4535 
L 209.828165 118.783466 
L 210.206706 117.332436 
L 210.427808 116.776799 
L 210.522621 116.929655 
L 210.712334 117.972983 
L 211.50335 124.943408 
L 212.009172 131.585377 
L 213.051229 148.77202 
L 213.554302 157.244378 
L 213.928015 160.312703 
L 214.297556 161.491112 
L 214.480469 161.551336 
L 214.631904 161.229221 
L 214.872268 159.978066 
L 215.228444 156.617144 
L 215.87087 150.869289 
L 216.4148 147.897276 
L 217.002455 145.840697 
L 217.705127 144.208819 
L 219.219511 140.922769 
L 220.409206 138.135572 
L 226.301225 138.155612 
L 226.700646 139.888869 
L 227.005346 140.427894 
L 227.239366 140.473265 
L 227.590459 140.238166 
L 228.084523 139.965475 
L 228.393525 140.052534 
L 228.754607 140.426151 
L 229.517829 141.663129 
L 230.40296 142.89045 
L 232.021567 144.793087 
L 232.288131 144.633371 
L 232.60993 144.510706 
L 232.852648 144.368854 
L 233.042236 143.879736 
L 233.287031 142.450357 
L 234.221853 135.773274 
L 234.471843 134.867477 
L 234.778841 132.578972 
L 235.143739 130.359533 
L 235.341163 130.064759 
L 235.510913 130.131019 
L 235.880415 130.318879 
L 236.080355 130.120039 
L 236.568762 129.556726 
L 236.742093 129.728323 
L 237.003012 130.420486 
L 237.528139 131.755982 
L 238.353551 132.850443 
L 239.069145 134.461374 
L 239.58045 134.807825 
L 240.064977 135.342967 
L 240.491526 135.694956 
L 240.920458 135.737286 
L 241.320851 135.828739 
L 241.816348 136.239697 
L 243.004675 137.231687 
L 243.668349 137.070724 
L 244.177509 136.972125 
L 244.882534 136.849939 
L 245.625554 136.391735 
L 246.211112 136.407058 
L 247.194773 136.002302 
L 247.822675 136.180077 
L 248.721403 136.098031 
L 249.560203 136.361495 
L 250.371363 136.380611 
L 251.256551 136.590218 
L 252.113899 136.613897 
L 252.907951 136.727379 
L 253.951165 136.741359 
L 254.756619 136.761423 
L 255.743686 136.769601 
L 256.880376 136.747038 
L 261.258539 136.76391 
L 265.869565 136.708769 
L 268.754052 136.470213 
L 269.251713 136.168382 
L 270.019722 135.809687 
L 270.481892 135.741095 
L 270.867796 135.827653 
L 271.215677 136.247205 
L 271.680334 136.734492 
L 272.807048 137.071702 
L 273.118852 136.508055 
L 273.548334 135.810836 
L 273.782971 135.791686 
L 274.017867 136.085295 
L 274.56696 136.868501 
L 274.802704 136.851267 
L 275.038694 136.552276 
L 275.748103 135.406598 
L 275.945538 135.522916 
L 276.499221 136.055523 
L 276.697271 135.859119 
L 277.014485 135.141895 
L 277.769498 133.284778 
L 278.486855 132.324629 
L 278.846279 131.07852 
L 279.726655 127.709822 
L 279.966903 127.544251 
L 280.52736 127.58978 
L 281.007303 127.070021 
L 281.206959 127.19534 
L 281.446071 127.644176 
L 281.72433 128.876673 
L 282.159878 132.173656 
L 283.79663 147.530966 
L 284.483169 155.401567 
L 284.935471 158.148749 
L 285.605656 160.706147 
L 286.010109 161.810396 
L 286.156254 161.769978 
L 286.555552 161.492708 
L 286.80744 160.807529 
L 287.270788 158.745185 
L 287.903433 155.027153 
L 288.492225 151.750802 
L 289.004239 149.765821 
L 289.24033 149.594225 
L 289.440946 149.47577 
L 289.870451 148.973961 
L 290.325131 149.241393 
L 290.485753 148.838538 
L 290.677567 148.51521 
L 291.089572 148.328307 
L 291.246856 147.969036 
L 291.716241 145.471167 
L 292.831248 140.136597 
L 293.473808 138.153185 
L 293.716504 138.135572 
L 302.518572 138.201401 
L 303.152563 140.485836 
L 303.518804 141.144892 
L 303.812299 141.272313 
L 304.130983 141.145401 
L 304.549382 140.724383 
L 305.019795 139.869867 
L 305.942935 138.135572 
L 315.92894 138.23321 
L 316.302365 138.814818 
L 316.650166 138.986142 
L 316.971939 138.910016 
L 317.347991 138.572389 
L 317.831807 138.135572 
L 322.702173 138.239649 
L 323.486241 145.368679 
L 323.599098 145.59371 
L 323.627342 145.551916 
L 323.740434 144.862973 
L 323.938801 141.526717 
L 324.223207 137.557506 
L 324.308771 138.191219 
L 324.537492 142.829409 
L 324.853296 147.599998 
L 324.939692 147.768926 
L 324.968516 147.704907 
L 325.083943 146.813045 
L 325.286438 142.881191 
L 325.693345 134.781923 
L 325.751684 134.864313 
L 325.86852 136.063081 
L 326.426328 144.012385 
L 326.455815 143.971116 
L 326.573892 143.228767 
L 326.810659 139.638537 
L 327.137547 135.261963 
L 327.197147 135.130307 
L 327.256797 135.23204 
L 327.406144 136.373347 
L 327.916278 141.047219 
L 328.006675 140.856212 
L 328.187806 139.478185 
L 328.672995 135.274339 
L 328.733865 135.26667 
L 328.764319 135.317221 
L 328.91677 136.038578 
L 329.437381 139.066194 
L 329.529616 138.931281 
L 329.71441 138.01473 
L 330.178281 135.507317 
L 330.271377 135.513527 
L 330.426774 135.957772 
L 330.98864 138.15587 
L 331.019966 138.147834 
L 331.145386 137.937234 
L 331.491247 136.583734 
L 331.74366 136.038763 
L 331.870142 136.129812 
L 332.091926 136.766478 
L 332.505288 137.926393 
L 332.664781 137.900312 
L 332.888543 137.43953 
L 333.273408 136.653312 
L 333.43424 136.686412 
L 333.65987 137.09296 
L 334.112742 137.925535 
L 334.275001 137.881011 
L 334.535178 137.484336 
L 334.894048 137.01907 
L 335.090343 137.084495 
L 335.451213 137.60604 
L 335.747424 137.849317 
L 335.945372 137.75715 
L 336.674399 137.182772 
L 336.974083 137.435957 
L 337.374957 137.695566 
L 337.643021 137.573372 
L 338.248536 137.181492 
L 338.552514 137.318498 
L 339.060937 137.547611 
L 339.401121 137.395644 
L 339.879026 137.183102 
L 340.221554 137.293195 
L 340.771608 137.467825 
L 341.254915 137.289104 
L 341.670659 137.235945 
L 342.785906 137.35599 
L 343.347084 137.258239 
L 345.579231 137.726009 
L 346.187582 137.943025 
L 347.411774 138.163569 
L 347.882448 138.198974 
L 348.71865 137.953522 
L 349.083586 137.965798 
L 350.109776 138.383552 
L 350.662139 138.954838 
L 351.216302 139.860991 
L 352.702621 143.476495 
L 353.188163 144.177531 
L 353.524648 144.532306 
L 353.935879 144.568463 
L 354.085392 144.383434 
L 354.309633 143.605221 
L 355.056878 139.404944 
L 355.654484 135.784904 
L 356.177339 129.692859 
L 357.62871 112.360374 
L 359.470731 91.091146 
L 359.927447 83.262341 
L 361.495555 53.111212 
L 362.152517 47.044649 
L 362.50713 45.58705 
L 363.359164 42.679024 
L 364.309629 39.211028 
L 364.911288 37.692737 
L 365.327679 37.125965 
L 365.798596 36.87537 
L 366.321875 36.850832 
L 366.895425 36.997991 
L 367.320705 37.392052 
L 368.021893 38.384585 
L 368.770364 39.917199 
L 369.674404 41.635801 
L 370.617809 43.007407 
L 371.096141 44.467051 
L 371.675301 46.967067 
L 372.814668 53.165232 
L 374.306334 64.649577 
L 374.708656 65.777911 
L 374.960254 65.99167 
L 375.212066 65.91159 
L 375.539697 65.81456 
L 375.842204 66.067536 
L 376.018755 66.09945 
L 376.170211 65.830556 
L 376.397649 64.839153 
L 377.893417 56.850658 
L 378.597777 54.746892 
L 379.096577 53.857342 
L 379.444801 53.634811 
L 379.69355 53.714935 
L 379.992474 54.091603 
L 380.392174 55.031546 
L 381.096133 57.404525 
L 383.069912 65.034529 
L 383.905059 69.070848 
L 384.168445 69.39887 
L 384.379991 69.326102 
L 384.725275 68.864898 
L 385.366668 67.997425 
L 386.281094 67.379023 
L 386.87573 66.405189 
L 387.444443 65.031124 
L 388.471681 62.370664 
L 389.117553 61.46674 
L 389.546803 61.172712 
L 389.787869 61.258371 
L 390.108957 61.68597 
L 390.670301 62.381182 
L 391.124211 62.55637 
L 391.524067 62.473224 
L 391.976202 62.149922 
L 392.45415 61.826633 
L 392.640141 61.947257 
L 392.826376 62.375597 
L 393.066377 63.621857 
L 393.334113 66.310203 
L 393.684509 72.476997 
L 394.422047 86.2274 
L 394.670609 87.394172 
L 394.976181 88.25334 
L 395.171666 89.935683 
L 395.396071 94.173461 
L 395.678102 104.350761 
L 396.276036 128.044749 
L 396.333376 128.173137 
L 396.36207 128.04834 
L 396.505782 125.912473 
L 396.99724 117.331508 
L 397.055333 117.533902 
L 397.20081 119.571467 
L 397.492787 128.621448 
L 397.815496 136.685462 
L 397.874342 136.9429 
L 397.93324 136.795663 
L 398.080713 134.873745 
L 398.554792 127.508044 
L 398.614281 127.55768 
L 398.733411 128.49817 
L 398.972276 132.896221 
L 399.332084 138.611787 
L 399.392227 138.743781 
L 399.422318 138.71056 
L 399.542805 137.985152 
L 400.087455 132.516435 
L 400.148218 132.582077 
L 400.269892 133.273114 
L 400.574932 137.006461 
L 400.850509 139.277269 
L 400.911882 139.345409 
L 400.942587 139.318493 
L 401.065527 138.847565 
L 401.652116 135.278994 
L 401.714113 135.375951 
L 401.869314 136.110637 
L 402.430481 139.259612 
L 402.524379 139.154469 
L 402.71249 138.390539 
L 403.153043 136.431686 
L 403.279331 136.460067 
L 403.437449 136.915278 
L 404.009033 138.719148 
L 404.13655 138.539673 
L 404.424119 137.538965 
L 404.74469 136.674556 
L 404.905381 136.664552 
L 405.130796 137.030848 
L 405.518415 137.62955 
L 405.680364 137.536794 
L 405.940017 136.983637 
L 406.428627 136.016932 
L 406.592011 136.036233 
L 406.853979 136.398125 
L 407.215331 136.841859 
L 407.413004 136.793103 
L 407.776456 136.345225 
L 408.108031 136.082597 
L 408.340787 136.196679 
L 409.075716 136.801781 
L 409.411438 136.563919 
L 409.748176 136.40177 
L 410.018294 136.544113 
L 410.662388 136.99694 
L 411.002821 136.856998 
L 411.446852 136.664056 
L 411.755224 136.782525 
L 412.339843 137.03455 
L 412.754186 136.885856 
L 413.204603 136.759095 
L 413.656615 136.920181 
L 414.11021 136.996322 
L 415.374471 136.89684 
L 415.904736 136.950445 
L 417.078421 136.871257 
L 417.722672 136.92123 
L 418.802691 136.868256 
L 419.635934 136.917263 
L 420.949089 136.840877 
L 422.790708 136.844996 
L 423.421594 137.118117 
L 424.428509 137.173334 
L 424.840377 137.241897 
L 425.328276 137.030375 
L 425.74207 136.956236 
L 426.87512 137.13086 
L 427.596191 136.86039 
L 428.205492 137.013081 
L 428.663707 137.007902 
L 429.660117 136.833325 
L 430.661404 136.982192 
L 431.551166 136.897407 
L 432.756275 137.052924 
L 433.498172 137.049714 
L 434.281775 137.145291 
L 435.146853 137.117007 
L 436.054698 137.514462 
L 436.688294 137.68949 
L 437.244051 137.812081 
L 437.761214 137.968385 
L 438.04011 137.760958 
L 438.878485 136.952929 
L 439.639193 136.980011 
L 439.879888 137.22857 
L 440.482694 137.916636 
L 440.683972 137.861988 
L 441.127386 137.369936 
L 441.490781 137.161132 
L 441.773779 137.224714 
L 443.799385 138.537539 
L 444.40478 140.022972 
L 445.646294 143.586566 
L 446.437932 147.053934 
L 446.986816 148.982913 
L 447.37588 149.648874 
L 448.64041 150.882333 
L 448.791461 150.813668 
L 448.979554 150.370545 
L 449.502042 148.08228 
L 450.127657 144.745543 
L 450.671561 140.918262 
L 451.136821 136.222415 
L 452.703567 116.974571 
L 454.493985 99.598722 
L 455.256341 93.712889 
L 455.629927 88.146382 
L 456.179969 75.897754 
L 457.180616 55.552492 
L 457.6904 49.923125 
L 457.968579 48.646423 
L 458.730794 46.089055 
L 458.811201 46.19249 
L 459.078592 47.205543 
L 459.718694 49.750411 
L 459.825446 49.630966 
L 460.012438 48.834563 
L 460.842767 44.479535 
L 461.217436 43.774879 
L 461.457553 43.682643 
L 461.696919 43.834515 
L 462.094139 44.426233 
L 463.142835 46.098025 
L 464.049068 47.306472 
L 464.43596 48.453435 
L 465.056247 51.161193 
L 465.939963 55.016375 
L 467.312219 59.759352 
L 467.849779 62.792201 
L 468.940344 69.708516 
L 469.142092 69.837695 
L 469.595023 69.661589 
L 470.900661 69.100105 
L 471.457756 69.580247 
L 472.048126 69.985073 
L 472.648923 70.282057 
L 472.913381 70.796199 
L 473.233125 72.026963 
L 473.690031 74.820805 
L 474.394623 80.673693 
L 475.021738 87.293354 
L 475.597509 96.67191 
L 476.908714 121.648786 
L 477.505998 128.957432 
L 478.109398 136.216868 
L 478.340742 136.812536 
L 478.601958 137.112112 
L 478.805839 137.924884 
L 479.480277 141.046336 
L 479.657394 141.046003 
L 479.983428 140.924872 
L 480.161996 141.184443 
L 480.670736 142.629616 
L 481.092746 143.521292 
L 481.365448 143.593763 
L 481.60875 143.730915 
L 482.097839 144.405222 
L 483.085777 145.883528 
L 483.490801 146.283414 
L 483.772421 146.916368 
L 484.243938 148.704734 
L 484.686326 150.003736 
L 485.194469 150.67388 
L 485.929356 151.505396 
L 486.121865 151.384147 
L 486.411203 150.886004 
L 488.382631 146.178517 
L 489.287944 143.467929 
L 490.386537 139.375034 
L 490.806146 138.135572 
L 534.559175 138.226434 
L 535.161468 138.719435 
L 535.616106 138.809174 
L 535.981014 138.655003 
L 536.31572 138.25762 
L 536.497999 138.135572 
L 542.564887 138.200242 
L 543.097438 140.726751 
L 543.920367 145.595045 
L 543.978935 145.467722 
L 544.096008 144.258719 
L 544.271481 138.824078 
L 544.650927 125.322563 
L 544.854484 123.65301 
L 544.941423 123.895242 
L 545.114628 124.503783 
L 545.143404 124.452493 
L 545.229574 123.810487 
L 545.401228 120.094262 
L 546.438904 90.939283 
L 546.849093 86.040028 
L 547.172658 78.483721 
L 548.141165 53.619151 
L 548.616707 47.864379 
L 549.074381 44.695694 
L 549.673917 42.185038 
L 550.509278 39.693563 
L 550.978773 38.837881 
L 551.294896 38.652863 
L 551.546015 38.749307 
L 551.920507 39.202384 
L 552.293279 39.984653 
L 552.810265 41.700157 
L 554.727664 48.686605 
L 555.408962 49.881401 
L 556.121902 51.227864 
L 556.59582 52.617381 
L 556.951113 54.382772 
L 557.28669 57.266632 
L 557.661869 62.652748 
L 559.338958 92.588904 
L 559.731577 104.206965 
L 560.06906 112.015746 
L 560.175823 112.431579 
L 560.2187 112.33565 
L 560.369537 111.217527 
L 560.71882 108.651625 
L 560.785008 108.686444 
L 560.895799 109.221233 
L 561.119104 111.788322 
L 561.435417 114.946729 
L 561.480951 114.987063 
L 561.52657 114.908155 
L 561.66393 114.075591 
L 562.103615 110.847403 
L 562.126947 110.860704 
L 562.220461 111.165532 
L 562.431945 112.986483 
L 562.978911 117.676799 
L 563.388972 119.808456 
L 563.63243 121.072326 
L 563.926747 124.220428 
L 564.472431 130.024045 
L 565.97443 137.576618 
L 566.417463 138.219454 
L 566.944436 139.098643 
L 567.156948 139.077204 
L 568.098067 138.626342 
L 568.424933 138.425983 
L 569.50167 137.50871 
L 570.146788 137.03902 
L 570.685245 136.769463 
L 572.271414 136.452387 
L 574.890789 136.610243 
L 576.545474 136.676181 
L 579.41106 136.636366 
L 581.383644 136.176591 
L 582.236524 135.854275 
L 582.864256 135.733021 
L 583.295908 135.660338 
L 584.735874 136.026559 
L 585.107193 135.74597 
L 586.29651 134.00359 
L 587.428496 131.088866 
L 587.980742 130.164387 
L 588.119047 130.202723 
L 588.361192 130.618528 
L 589.053027 132.305431 
L 589.433424 134.588189 
L 590.263213 142.237309 
L 592.159556 160.34967 
L 592.397058 160.96467 
L 592.532139 160.946649 
L 592.700344 160.603889 
L 593.001312 159.360806 
L 593.530723 156.049317 
L 594.7597 147.830558 
L 595.386648 146.515399 
L 595.540702 146.761707 
L 595.905161 147.319836 
L 596.025064 147.193167 
L 596.203714 146.570318 
L 597.054139 142.841709 
L 598.434628 138.184892 
L 598.577023 138.135572 
L 606.811139 138.209157 
L 607.410206 139.067184 
L 607.694453 139.105431 
L 607.977239 138.901045 
L 608.487869 138.17918 
L 608.640242 138.135572 
L 617.065711 138.237447 
L 617.558987 139.337533 
L 617.924716 139.69719 
L 618.213132 139.699407 
L 618.52852 139.45688 
L 619.029182 138.736885 
L 619.504677 138.135572 
L 625.567003 138.123606 
L 626.538295 144.20664 
L 626.79182 144.814721 
L 626.933238 144.781888 
L 627.160289 144.300176 
L 627.445426 143.8289 
L 627.588534 143.917699 
L 627.962231 144.36823 
L 627.991072 144.343226 
L 628.135478 143.994565 
L 628.454351 142.294125 
L 628.804041 140.94247 
L 628.979595 140.860194 
L 629.15562 141.143381 
L 629.509071 141.786775 
L 629.627301 141.667728 
L 629.834699 141.023721 
L 630.281237 139.622543 
L 630.460662 139.584091 
L 630.730665 139.927854 
L 631.001709 140.111942 
L 631.182984 139.901871 
L 631.607737 138.794136 
L 631.851543 138.47919 
L 632.034904 138.562731 
L 632.587531 139.037295 
L 632.834341 138.834636 
L 633.299106 138.434601 
L 633.548052 138.570367 
L 634.079558 138.947242 
L 634.29943 138.809313 
L 634.646226 138.216769 
L 634.99461 137.782231 
L 635.664037 137.394847 
L 636.145554 136.751751 
L 636.306602 136.84678 
L 636.629397 137.440649 
L 636.920664 137.790325 
L 637.115225 137.710533 
L 637.733449 137.258402 
L 637.962058 137.508214 
L 638.584998 138.346487 
L 638.848383 138.278721 
L 639.344008 138.090178 
L 639.609284 138.279917 
L 640.141797 138.706373 
L 640.409025 138.611082 
L 641.113552 138.229159 
L 642.22949 138.236483 
L 643.218919 137.454604 
L 644.00938 136.484996 
L 644.4584 136.203907 
L 645.048061 135.598794 
L 645.22205 135.804154 
L 645.466091 136.617712 
L 645.815698 138.793523 
L 646.166546 140.67451 
L 646.236868 140.717023 
L 646.272049 140.682812 
L 646.44814 140.118938 
L 646.836632 138.786082 
L 646.942825 138.813941 
L 647.120015 139.234473 
L 647.617304 140.614306 
L 647.724062 140.509709 
L 647.973405 139.720587 
L 648.401572 138.469385 
L 648.580249 138.391785 
L 648.759097 138.590012 
L 649.368571 139.455217 
L 649.512311 139.270369 
L 649.764171 138.431923 
L 650.305258 136.546261 
L 650.486045 136.526035 
L 650.667044 136.844492 
L 651.102306 137.724417 
L 651.247664 137.667935 
L 651.465952 137.214643 
L 652.012995 135.990998 
L 652.15919 136.034649 
L 652.378732 136.429006 
L 652.928889 137.511714 
L 653.112684 137.443448 
L 653.886849 136.741687 
L 654.182707 137.159774 
L 654.553251 137.589263 
L 654.738822 137.466022 
L 655.036149 136.844142 
L 655.520392 135.892322 
L 655.744349 135.845636 
L 655.968598 136.103253 
L 656.343033 136.499277 
L 656.568145 136.438149 
L 656.868894 136.343995 
L 657.057267 136.578271 
L 657.321558 137.453284 
L 657.662405 139.474079 
L 658.11885 141.97876 
L 658.233289 141.987648 
L 658.38605 141.599719 
L 659.189765 138.543935 
L 659.22806 138.569413 
L 659.381251 138.893656 
L 659.802602 140.654425 
L 660.109103 141.552281 
L 660.224057 141.528196 
L 660.377346 141.089047 
L 661.067937 138.501906 
L 661.221654 138.646576 
L 661.837508 139.878098 
L 661.914601 139.798378 
L 662.107441 139.23794 
L 662.880344 136.375451 
L 663.035228 136.552254 
L 663.345326 137.456659 
L 663.733602 138.350226 
L 663.889125 138.333072 
L 664.0837 137.972715 
L 664.668591 136.650493 
L 664.824853 136.717955 
L 665.05947 137.177798 
L 665.647146 138.462798 
L 665.843386 138.456492 
L 666.118409 138.135915 
L 666.551254 137.694625 
L 666.74827 137.789066 
L 667.02437 138.268025 
L 667.696243 139.591781 
L 667.894212 139.563842 
L 668.171643 139.158228 
L 668.568522 138.628699 
L 668.806959 138.66199 
L 669.244693 138.853776 
L 669.443919 138.557833 
L 670.282458 136.886838 
L 670.562675 136.791398 
L 670.803179 136.957759 
L 671.084219 137.487246 
L 671.365866 138.56397 
L 672.053206 141.61844 
L 672.663814 142.691823 
L 673.154126 145.076655 
L 673.235876 144.947307 
L 673.399335 143.91169 
L 674.093028 137.853814 
L 674.215247 138.200357 
L 674.459573 140.116897 
L 675.029495 144.841518 
L 675.151658 145.015083 
L 675.192386 144.982028 
L 675.314593 144.602233 
L 675.559118 142.692807 
L 676.171229 137.021773 
L 676.252939 136.91206 
L 676.293802 136.934659 
L 676.416427 137.296222 
L 676.702752 139.314379 
L 677.071304 141.471892 
L 677.194259 141.554601 
L 677.317267 141.252183 
L 677.563437 139.658332 
L 678.138638 135.41992 
L 678.26204 135.312181 
L 678.385492 135.577706 
L 678.63255 136.972292 
L 679.086014 139.642234 
L 679.251078 139.811595 
L 679.374935 139.577743 
L 679.513182 138.996905 
L 679.513182 138.996905 
" clip-path="url(#p88d59e9cb0)" style="fill: none; stroke: #d62728; stroke-opacity: 0.8; stroke-width: 0.9; stroke-linecap: square"/>
   </g>
   <g id="patch_3">
    <path d="M 56.09 246.04 
L 56.09 26.88 
" style="fill: none; stroke: #000000; stroke-width: 0.8; stroke-linejoin: miter; stroke-linecap: square"/>
   </g>
   <g id="patch_4">
    <path d="M 709.2 246.04 
L 709.2 26.88 
" style="fill: none; stroke: #000000; stroke-width: 0.8; stroke-linejoin: miter; stroke-linecap: square"/>
   </g>
   <g id="patch_5">
    <path d="M 56.09 246.04 
L 709.2 246.04 
" style="fill: none; stroke: #000000; stroke-width: 0.8; stroke-linejoin: miter; stroke-linecap: square"/>
   </g>
   <g id="patch_6">
    <path d="M 56.09 26.88 
L 709.2 26.88 
" style="fill: none; stroke: #000000; stroke-width: 0.8; stroke-linejoin: miter; stroke-linecap: square"/>
   </g>
   <g id="text_19">
    <!-- steering-link loads over one Anderstorp Raceway lap -->
    <g transform="translate(224.036875 20.88) scale(0.12 -0.12)">
     <defs>
      <path id="DejaVuSans-67" d="M 2906 1791 
Q 2906 2416 2648 2759 
Q 2391 3103 1925 3103 
Q 1463 3103 1205 2759 
Q 947 2416 947 1791 
Q 947 1169 1205 825 
Q 1463 481 1925 481 
Q 2391 481 2648 825 
Q 2906 1169 2906 1791 
z
M 3481 434 
Q 3481 -459 3084 -895 
Q 2688 -1331 1869 -1331 
Q 1566 -1331 1297 -1286 
Q 1028 -1241 775 -1147 
L 775 -588 
Q 1028 -725 1275 -790 
Q 1522 -856 1778 -856 
Q 2344 -856 2625 -561 
Q 2906 -266 2906 331 
L 2906 616 
Q 2728 306 2450 153 
Q 2172 0 1784 0 
Q 1141 0 747 490 
Q 353 981 353 1791 
Q 353 2603 747 3093 
Q 1141 3584 1784 3584 
Q 2172 3584 2450 3431 
Q 2728 3278 2906 2969 
L 2906 3500 
L 3481 3500 
L 3481 434 
z
" transform="scale(0.015625)"/>
      <path id="DejaVuSans-6c" d="M 603 4863 
L 1178 4863 
L 1178 0 
L 603 0 
L 603 4863 
z
" transform="scale(0.015625)"/>
      <path id="DejaVuSans-76" d="M 191 3500 
L 800 3500 
L 1894 563 
L 2988 3500 
L 3597 3500 
L 2284 0 
L 1503 0 
L 191 3500 
z
" transform="scale(0.015625)"/>
      <path id="DejaVuSans-41" d="M 2188 4044 
L 1331 1722 
L 3047 1722 
L 2188 4044 
z
M 1831 4666 
L 2547 4666 
L 4325 0 
L 3669 0 
L 3244 1197 
L 1141 1197 
L 716 0 
L 50 0 
L 1831 4666 
z
" transform="scale(0.015625)"/>
      <path id="DejaVuSans-70" d="M 1159 525 
L 1159 -1331 
L 581 -1331 
L 581 3500 
L 1159 3500 
L 1159 2969 
Q 1341 3281 1617 3432 
Q 1894 3584 2278 3584 
Q 2916 3584 3314 3078 
Q 3713 2572 3713 1747 
Q 3713 922 3314 415 
Q 2916 -91 2278 -91 
Q 1894 -91 1617 61 
Q 1341 213 1159 525 
z
M 3116 1747 
Q 3116 2381 2855 2742 
Q 2594 3103 2138 3103 
Q 1681 3103 1420 2742 
Q 1159 2381 1159 1747 
Q 1159 1113 1420 752 
Q 1681 391 2138 391 
Q 2594 391 2855 752 
Q 3116 1113 3116 1747 
z
" transform="scale(0.015625)"/>
      <path id="DejaVuSans-52" d="M 2841 2188 
Q 3044 2119 3236 1894 
Q 3428 1669 3622 1275 
L 4263 0 
L 3584 0 
L 2988 1197 
Q 2756 1666 2539 1819 
Q 2322 1972 1947 1972 
L 1259 1972 
L 1259 0 
L 628 0 
L 628 4666 
L 2053 4666 
Q 2853 4666 3247 4331 
Q 3641 3997 3641 3322 
Q 3641 2881 3436 2590 
Q 3231 2300 2841 2188 
z
M 1259 4147 
L 1259 2491 
L 2053 2491 
Q 2509 2491 2742 2702 
Q 2975 2913 2975 3322 
Q 2975 3731 2742 3939 
Q 2509 4147 2053 4147 
L 1259 4147 
z
" transform="scale(0.015625)"/>
      <path id="DejaVuSans-77" d="M 269 3500 
L 844 3500 
L 1563 769 
L 2278 3500 
L 2956 3500 
L 3675 769 
L 4391 3500 
L 4966 3500 
L 4050 0 
L 3372 0 
L 2619 2869 
L 1863 0 
L 1184 0 
L 269 3500 
z
" transform="scale(0.015625)"/>
      <path id="DejaVuSans-79" d="M 2059 -325 
Q 1816 -950 1584 -1140 
Q 1353 -1331 966 -1331 
L 506 -1331 
L 506 -850 
L 844 -850 
Q 1081 -850 1212 -737 
Q 1344 -625 1503 -206 
L 1606 56 
L 191 3500 
L 800 3500 
L 1894 763 
L 2988 3500 
L 3597 3500 
L 2059 -325 
z
" transform="scale(0.015625)"/>
     </defs>
     <use xlink:href="#DejaVuSans-73"/>
     <use xlink:href="#DejaVuSans-74" transform="translate(52.099609 0)"/>
     <use xlink:href="#DejaVuSans-65" transform="translate(91.308594 0)"/>
     <use xlink:href="#DejaVuSans-65" transform="translate(152.832031 0)"/>
     <use xlink:href="#DejaVuSans-72" transform="translate(214.355469 0)"/>
     <use xlink:href="#DejaVuSans-69" transform="translate(255.46875 0)"/>
     <use xlink:href="#DejaVuSans-6e" transform="translate(283.251953 0)"/>
     <use xlink:href="#DejaVuSans-67" transform="translate(346.630859 0)"/>
     <use xlink:href="#DejaVuSans-2d" transform="translate(410.107422 0)"/>
     <use xlink:href="#DejaVuSans-6c" transform="translate(446.191406 0)"/>
     <use xlink:href="#DejaVuSans-69" transform="translate(473.974609 0)"/>
     <use xlink:href="#DejaVuSans-6e" transform="translate(501.757812 0)"/>
     <use xlink:href="#DejaVuSans-6b" transform="translate(565.136719 0)"/>
     <use xlink:href="#DejaVuSans-20" transform="translate(623.046875 0)"/>
     <use xlink:href="#DejaVuSans-6c" transform="translate(654.833984 0)"/>
     <use xlink:href="#DejaVuSans-6f" transform="translate(682.617188 0)"/>
     <use xlink:href="#DejaVuSans-61" transform="translate(743.798828 0)"/>
     <use xlink:href="#DejaVuSans-64" transform="translate(805.078125 0)"/>
     <use xlink:href="#DejaVuSans-73" transform="translate(868.554688 0)"/>
     <use xlink:href="#DejaVuSans-20" transform="translate(920.654297 0)"/>
     <use xlink:href="#DejaVuSans-6f" transform="translate(952.441406 0)"/>
     <use xlink:href="#DejaVuSans-76" transform="translate(1013.623047 0)"/>
     <use xlink:href="#DejaVuSans-65" transform="translate(1072.802734 0)"/>
     <use xlink:href="#DejaVuSans-72" transform="translate(1134.326172 0)"/>
     <use xlink:href="#DejaVuSans-20" transform="translate(1175.439453 0)"/>
     <use xlink:href="#DejaVuSans-6f" transform="translate(1207.226562 0)"/>
     <use xlink:href="#DejaVuSans-6e" transform="translate(1268.408203 0)"/>
     <use xlink:href="#DejaVuSans-65" transform="translate(1331.787109 0)"/>
     <use xlink:href="#DejaVuSans-20" transform="translate(1393.310547 0)"/>
     <use xlink:href="#DejaVuSans-41" transform="translate(1425.097656 0)"/>
     <use xlink:href="#DejaVuSans-6e" transform="translate(1493.505859 0)"/>
     <use xlink:href="#DejaVuSans-64" transform="translate(1556.884766 0)"/>
     <use xlink:href="#DejaVuSans-65" transform="translate(1620.361328 0)"/>
     <use xlink:href="#DejaVuSans-72" transform="translate(1681.884766 0)"/>
     <use xlink:href="#DejaVuSans-73" transform="translate(1722.998047 0)"/>
     <use xlink:href="#DejaVuSans-74" transform="translate(1775.097656 0)"/>
     <use xlink:href="#DejaVuSans-6f" transform="translate(1814.306641 0)"/>
     <use xlink:href="#DejaVuSans-72" transform="translate(1875.488281 0)"/>
     <use xlink:href="#DejaVuSans-70" transform="translate(1916.601562 0)"/>
     <use xlink:href="#DejaVuSans-20" transform="translate(1980.078125 0)"/>
     <use xlink:href="#DejaVuSans-52" transform="translate(2011.865234 0)"/>
     <use xlink:href="#DejaVuSans-61" transform="translate(2079.097656 0)"/>
     <use xlink:href="#DejaVuSans-63" transform="translate(2140.376953 0)"/>
     <use xlink:href="#DejaVuSans-65" transform="translate(2195.357422 0)"/>
     <use xlink:href="#DejaVuSans-77" transform="translate(2256.880859 0)"/>
     <use xlink:href="#DejaVuSans-61" transform="translate(2338.667969 0)"/>
     <use xlink:href="#DejaVuSans-79" transform="translate(2399.947266 0)"/>
     <use xlink:href="#DejaVuSans-20" transform="translate(2459.126953 0)"/>
     <use xlink:href="#DejaVuSans-6c" transform="translate(2490.914062 0)"/>
     <use xlink:href="#DejaVuSans-61" transform="translate(2518.697266 0)"/>
     <use xlink:href="#DejaVuSans-70" transform="translate(2579.976562 0)"/>
    </g>
   </g>
   <g id="legend_1">
    <g id="patch_7">
     <path d="M 630.755 56.765 
L 703.6 56.765 
Q 705.2 56.765 705.2 55.165 
L 705.2 32.48 
Q 705.2 30.88 703.6 30.88 
L 630.755 30.88 
Q 629.155 30.88 629.155 32.48 
L 629.155 55.165 
Q 629.155 56.765 630.755 56.765 
z
" style="fill: #ffffff; opacity: 0.8; stroke: #cccccc; stroke-linejoin: miter"/>
    </g>
    <g id="line2d_35">
     <path d="M 632.355 37.35875 
L 640.355 37.35875 
L 648.355 37.35875 
" style="fill: none; stroke: #2ca02c; stroke-width: 0.9; stroke-linecap: square"/>
    </g>
    <g id="text_20">
     <!-- tie rod left -->
     <g transform="translate(654.755 40.15875) scale(0.08 -0.08)">
      <use xlink:href="#DejaVuSans-74"/>
      <use xlink:href="#DejaVuSans-69" transform="translate(39.208984 0)"/>
      <use xlink:href="#DejaVuSans-65" transform="translate(66.992188 0)"/>
      <use xlink:href="#DejaVuSans-20" transform="translate(128.515625 0)"/>
      <use xlink:href="#DejaVuSans-72" transform="translate(160.302734 0)"/>
      <use xlink:href="#DejaVuSans-6f" transform="translate(199.166016 0)"/>
      <use xlink:href="#DejaVuSans-64" transform="translate(260.347656 0)"/>
      <use xlink:href="#DejaVuSans-20" transform="translate(323.824219 0)"/>
      <use xlink:href="#DejaVuSans-6c" transform="translate(355.611328 0)"/>
      <use xlink:href="#DejaVuSans-65" transform="translate(383.394531 0)"/>
      <use xlink:href="#DejaVuSans-66" transform="translate(444.917969 0)"/>
      <use xlink:href="#DejaVuSans-74" transform="translate(478.373047 0)"/>
     </g>
    </g>
    <g id="line2d_36">
     <path d="M 632.355 49.10125 
L 640.355 49.10125 
L 648.355 49.10125 
" style="fill: none; stroke: #d62728; stroke-opacity: 0.8; stroke-width: 0.9; stroke-linecap: square"/>
    </g>
    <g id="text_21">
     <!-- tie rod right -->
     <g transform="translate(654.755 51.90125) scale(0.08 -0.08)">
      <defs>
       <path id="DejaVuSans-68" d="M 3513 2113 
L 3513 0 
L 2938 0 
L 2938 2094 
Q 2938 2591 2744 2837 
Q 2550 3084 2163 3084 
Q 1697 3084 1428 2787 
Q 1159 2491 1159 1978 
L 1159 0 
L 581 0 
L 581 4863 
L 1159 4863 
L 1159 2956 
Q 1366 3272 1645 3428 
Q 1925 3584 2291 3584 
Q 2894 3584 3203 3211 
Q 3513 2838 3513 2113 
z
" transform="scale(0.015625)"/>
      </defs>
      <use xlink:href="#DejaVuSans-74"/>
      <use xlink:href="#DejaVuSans-69" transform="translate(39.208984 0)"/>
      <use xlink:href="#DejaVuSans-65" transform="translate(66.992188 0)"/>
      <use xlink:href="#DejaVuSans-20" transform="translate(128.515625 0)"/>
      <use xlink:href="#DejaVuSans-72" transform="translate(160.302734 0)"/>
      <use xlink:href="#DejaVuSans-6f" transform="translate(199.166016 0)"/>
      <use xlink:href="#DejaVuSans-64" transform="translate(260.347656 0)"/>
      <use xlink:href="#DejaVuSans-20" transform="translate(323.824219 0)"/>
      <use xlink:href="#DejaVuSans-72" transform="translate(355.611328 0)"/>
      <use xlink:href="#DejaVuSans-69" transform="translate(396.724609 0)"/>
      <use xlink:href="#DejaVuSans-67" transform="translate(424.507812 0)"/>
      <use xlink:href="#DejaVuSans-68" transform="translate(487.984375 0)"/>
      <use xlink:href="#DejaVuSans-74" transform="translate(551.363281 0)"/>
     </g>
    </g>
   </g>
  </g>
 </g>
 <defs>
  <clipPath id="p88d59e9cb0">
   <rect x="56.09" y="26.88" width="653.11" height="219.16"/>
  </clipPath>
 </defs>
</svg>
