<?xml version="1.0" encoding="utf-8" standalone="no"?>
<!DOCTYPE svg PUBLIC "-//W3C//DTD SVG 1.1//EN"
  "http://www.w3.org/Graphics/SVG/1.1/DTD/svg11.dtd">
<svg xmlns:xlink="http://www.w3.org/1999/xlink" width="720pt" height="288pt" viewBox="0 0 720 288" xmlns="http://www.w3.org/2000/svg" version="1.1">
 <metadata>
  <rdf:RDF xmlns:dc="http://purl.org/dc/elements/1.1/" xmlns:cc="http://creativecommons.org/ns#" xmlns:rdf="http://www.w3.org/1999/02/22-rdf-syntax-ns#">
   <cc:Work>
    <dc:type rdf:resource="http://purl.org/dc/dcmitype/StillImage"/>
    <dc:date>2026-07-08T14:49:31.526120</dc:date>
    <dc:format>image/svg+xml</dc:format>
    <dc:creator>
     <cc:Agent>
      <dc:title>Matplotlib v3.10.8, https://matplotlib.org/</dc:title>
     </cc:Agent>
    </dc:creator>
   </cc:Work>
  </rdf:RDF>
 </metadata>
 <defs>
  <style type="text/css">*{stroke-linejoin: round; stroke-linecap: butt}</style>
 </defs>
 <g id="figure_1">
  <g id="patch_1">
   <path d="M 0 288 
L 720 288 
L 720 0 
L 0 0 
z
" style="fill: #ffffff"/>
  </g>
  <g id="axes_1">
   <g id="patch_2">
    <path d="M 56.09 246.04 
L 709.2 246.04 
L 709.2 26.88 
L 56.09 26.88 
z
" style="fill: #ffffff"/>
   </g>
   <g id="matplotlib.axis_1">
    <g id="xtick_1">
     <g id="line2d_1">
      <path d="M 85.776818 246.04 
L 85.776818 26.88 
" clip-path="url(#p359fb68315)" style="fill: none; stroke: #b0b0b0; stroke-opacity: 0.3; stroke-width: 0.8; stroke-linecap: square"/>
     </g>
     <g id="line2d_2">
      <defs>
       <path id="mc3fa4a64e4" d="M 0 0 
L 0 3.5 
" style="stroke: #000000; stroke-width: 0.8"/>
      </defs>
      <g>
       <use xlink:href="#mc3fa4a64e4" x="85.776818" y="246.04" style="stroke: #000000; stroke-width: 0.8"/>
      </g>
     </g>
     <g id="text_1">
      <!-- 0.0 -->
      <g transform="translate(77.825256 260.638438) scale(0.1 -0.1)">
       <defs>
        <path id="DejaVuSans-30" d="M 2034 4250 
Q 1547 4250 1301 3770 
Q 1056 3291 1056 2328 
Q 1056 1369 1301 889 
Q 1547 409 2034 409 
Q 2525 409 2770 889 
Q 3016 1369 3016 2328 
Q 3016 3291 2770 3770 
Q 2525 4250 2034 4250 
z
M 2034 4750 
Q 2819 4750 3233 4129 
Q 3647 3509 3647 2328 
Q 3647 1150 3233 529 
Q 2819 -91 2034 -91 
Q 1250 -91 836 529 
Q 422 1150 422 2328 
Q 422 3509 836 4129 
Q 1250 4750 2034 4750 
z
" transform="scale(0.015625)"/>
        <path id="DejaVuSans-2e" d="M 684 794 
L 1344 794 
L 1344 0 
L 684 0 
L 684 794 
z
" transform="scale(0.015625)"/>
       </defs>
       <use xlink:href="#DejaVuSans-30"/>
       <use xlink:href="#DejaVuSans-2e" transform="translate(63.623047 0)"/>
       <use xlink:href="#DejaVuSans-30" transform="translate(95.410156 0)"/>
      </g>
     </g>
    </g>
    <g id="xtick_2">
     <g id="line2d_3">
      <path d="M 230.505846 246.04 
L 230.505846 26.88 
" clip-path="url(#p359fb68315)" style="fill: none; stroke: #b0b0b0; stroke-opacity: 0.3; stroke-width: 0.8; stroke-linecap: square"/>
     </g>
     <g id="line2d_4">
      <g>
       <use xlink:href="#mc3fa4a64e4" x="230.505846" y="246.04" style="stroke: #000000; stroke-width: 0.8"/>
      </g>
     </g>
     <g id="text_2">
      <!-- 0.5 -->
      <g transform="translate(222.554283 260.638438) scale(0.1 -0.1)">
       <defs>
        <path id="DejaVuSans-35" d="M 691 4666 
L 3169 4666 
L 3169 4134 
L 1269 4134 
L 1269 2991 
Q 1406 3038 1543 3061 
Q 1681 3084 1819 3084 
Q 2600 3084 3056 2656 
Q 3513 2228 3513 1497 
Q 3513 744 3044 326 
Q 2575 -91 1722 -91 
Q 1428 -91 1123 -41 
Q 819 9 494 109 
L 494 744 
Q 775 591 1075 516 
Q 1375 441 1709 441 
Q 2250 441 2565 725 
Q 2881 1009 2881 1497 
Q 2881 1984 2565 2268 
Q 2250 2553 1709 2553 
Q 1456 2553 1204 2497 
Q 953 2441 691 2322 
L 691 4666 
z
" transform="scale(0.015625)"/>
       </defs>
       <use xlink:href="#DejaVuSans-30"/>
       <use xlink:href="#DejaVuSans-2e" transform="translate(63.623047 0)"/>
       <use xlink:href="#DejaVuSans-35" transform="translate(95.410156 0)"/>
      </g>
     </g>
    </g>
    <g id="xtick_3">
     <g id="line2d_5">
      <path d="M 375.234874 246.04 
L 375.234874 26.88 
" clip-path="url(#p359fb68315)" style="fill: none; stroke: #b0b0b0; stroke-opacity: 0.3; stroke-width: 0.8; stroke-linecap: square"/>
     </g>
     <g id="line2d_6">
      <g>
       <use xlink:href="#mc3fa4a64e4" x="375.234874" y="246.04" style="stroke: #000000; stroke-width: 0.8"/>
      </g>
     </g>
     <g id="text_3">
      <!-- 1.0 -->
      <g transform="translate(367.283311 260.638438) scale(0.1 -0.1)">
       <defs>
        <path id="DejaVuSans-31" d="M 794 531 
L 1825 531 
L 1825 4091 
L 703 3866 
L 703 4441 
L 1819 4666 
L 2450 4666 
L 2450 531 
L 3481 531 
L 3481 0 
L 794 0 
L 794 531 
z
" transform="scale(0.015625)"/>
       </defs>
       <use xlink:href="#DejaVuSans-31"/>
       <use xlink:href="#DejaVuSans-2e" transform="translate(63.623047 0)"/>
       <use xlink:href="#DejaVuSans-30" transform="translate(95.410156 0)"/>
      </g>
     </g>
    </g>
    <g id="xtick_4">
     <g id="line2d_7">
      <path d="M 519.963901 246.04 
L 519.963901 26.88 
" clip-path="url(#p359fb68315)" style="fill: none; stroke: #b0b0b0; stroke-opacity: 0.3; stroke-width: 0.8; stroke-linecap: square"/>
     </g>
     <g id="line2d_8">
      <g>
       <use xlink:href="#mc3fa4a64e4" x="519.963901" y="246.04" style="stroke: #000000; stroke-width: 0.8"/>
      </g>
     </g>
     <g id="text_4">
      <!-- 1.5 -->
      <g transform="translate(512.012339 260.638438) scale(0.1 -0.1)">
       <use xlink:href="#DejaVuSans-31"/>
       <use xlink:href="#DejaVuSans-2e" transform="translate(63.623047 0)"/>
       <use xlink:href="#DejaVuSans-35" transform="translate(95.410156 0)"/>
      </g>
     </g>
    </g>
    <g id="xtick_5">
     <g id="line2d_9">
      <path d="M 664.692929 246.04 
L 664.692929 26.88 
" clip-path="url(#p359fb68315)" style="fill: none; stroke: #b0b0b0; stroke-opacity: 0.3; stroke-width: 0.8; stroke-linecap: square"/>
     </g>
     <g id="line2d_10">
      <g>
       <use xlink:href="#mc3fa4a64e4" x="664.692929" y="246.04" style="stroke: #000000; stroke-width: 0.8"/>
      </g>
     </g>
     <g id="text_5">
      <!-- 2.0 -->
      <g transform="translate(656.741367 260.638438) scale(0.1 -0.1)">
       <defs>
        <path id="DejaVuSans-32" d="M 1228 531 
L 3431 531 
L 3431 0 
L 469 0 
L 469 531 
Q 828 903 1448 1529 
Q 2069 2156 2228 2338 
Q 2531 2678 2651 2914 
Q 2772 3150 2772 3378 
Q 2772 3750 2511 3984 
Q 2250 4219 1831 4219 
Q 1534 4219 1204 4116 
Q 875 4013 500 3803 
L 500 4441 
Q 881 4594 1212 4672 
Q 1544 4750 1819 4750 
Q 2544 4750 2975 4387 
Q 3406 4025 3406 3419 
Q 3406 3131 3298 2873 
Q 3191 2616 2906 2266 
Q 2828 2175 2409 1742 
Q 1991 1309 1228 531 
z
" transform="scale(0.015625)"/>
       </defs>
       <use xlink:href="#DejaVuSans-32"/>
       <use xlink:href="#DejaVuSans-2e" transform="translate(63.623047 0)"/>
       <use xlink:href="#DejaVuSans-30" transform="translate(95.410156 0)"/>
      </g>
     </g>
    </g>
    <g id="text_6">
     <!-- distance s [km] -->
     <g transform="translate(344.008281 274.316562) scale(0.1 -0.1)">
      <defs>
       <path id="DejaVuSans-64" d="M 2906 2969 
L 2906 4863 
L 3481 4863 
L 3481 0 
L 2906 0 
L 2906 525 
Q 2725 213 2448 61 
Q 2172 -91 1784 -91 
Q 1150 -91 751 415 
Q 353 922 353 1747 
Q 353 2572 751 3078 
Q 1150 3584 1784 3584 
Q 2172 3584 2448 3432 
Q 2725 3281 2906 2969 
z
M 947 1747 
Q 947 1113 1208 752 
Q 1469 391 1925 391 
Q 2381 391 2643 752 
Q 2906 1113 2906 1747 
Q 2906 2381 2643 2742 
Q 2381 3103 1925 3103 
Q 1469 3103 1208 2742 
Q 947 2381 947 1747 
z
" transform="scale(0.015625)"/>
       <path id="DejaVuSans-69" d="M 603 3500 
L 1178 3500 
L 1178 0 
L 603 0 
L 603 3500 
z
M 603 4863 
L 1178 4863 
L 1178 4134 
L 603 4134 
L 603 4863 
z
" transform="scale(0.015625)"/>
       <path id="DejaVuSans-73" d="M 2834 3397 
L 2834 2853 
Q 2591 2978 2328 3040 
Q 2066 3103 1784 3103 
Q 1356 3103 1142 2972 
Q 928 2841 928 2578 
Q 928 2378 1081 2264 
Q 1234 2150 1697 2047 
L 1894 2003 
Q 2506 1872 2764 1633 
Q 3022 1394 3022 966 
Q 3022 478 2636 193 
Q 2250 -91 1575 -91 
Q 1294 -91 989 -36 
Q 684 19 347 128 
L 347 722 
Q 666 556 975 473 
Q 1284 391 1588 391 
Q 1994 391 2212 530 
Q 2431 669 2431 922 
Q 2431 1156 2273 1281 
Q 2116 1406 1581 1522 
L 1381 1569 
Q 847 1681 609 1914 
Q 372 2147 372 2553 
Q 372 3047 722 3315 
Q 1072 3584 1716 3584 
Q 2034 3584 2315 3537 
Q 2597 3491 2834 3397 
z
" transform="scale(0.015625)"/>
       <path id="DejaVuSans-74" d="M 1172 4494 
L 1172 3500 
L 2356 3500 
L 2356 3053 
L 1172 3053 
L 1172 1153 
Q 1172 725 1289 603 
Q 1406 481 1766 481 
L 2356 481 
L 2356 0 
L 1766 0 
Q 1100 0 847 248 
Q 594 497 594 1153 
L 594 3053 
L 172 3053 
L 172 3500 
L 594 3500 
L 594 4494 
L 1172 4494 
z
" transform="scale(0.015625)"/>
       <path id="DejaVuSans-61" d="M 2194 1759 
Q 1497 1759 1228 1600 
Q 959 1441 959 1056 
Q 959 750 1161 570 
Q 1363 391 1709 391 
Q 2188 391 2477 730 
Q 2766 1069 2766 1631 
L 2766 1759 
L 2194 1759 
z
M 3341 1997 
L 3341 0 
L 2766 0 
L 2766 531 
Q 2569 213 2275 61 
Q 1981 -91 1556 -91 
Q 1019 -91 701 211 
Q 384 513 384 1019 
Q 384 1609 779 1909 
Q 1175 2209 1959 2209 
L 2766 2209 
L 2766 2266 
Q 2766 2663 2505 2880 
Q 2244 3097 1772 3097 
Q 1472 3097 1187 3025 
Q 903 2953 641 2809 
L 641 3341 
Q 956 3463 1253 3523 
Q 1550 3584 1831 3584 
Q 2591 3584 2966 3190 
Q 3341 2797 3341 1997 
z
" transform="scale(0.015625)"/>
       <path id="DejaVuSans-6e" d="M 3513 2113 
L 3513 0 
L 2938 0 
L 2938 2094 
Q 2938 2591 2744 2837 
Q 2550 3084 2163 3084 
Q 1697 3084 1428 2787 
Q 1159 2491 1159 1978 
L 1159 0 
L 581 0 
L 581 3500 
L 1159 3500 
L 1159 2956 
Q 1366 3272 1645 3428 
Q 1925 3584 2291 3584 
Q 2894 3584 3203 3211 
Q 3513 2838 3513 2113 
z
" transform="scale(0.015625)"/>
       <path id="DejaVuSans-63" d="M 3122 3366 
L 3122 2828 
Q 2878 2963 2633 3030 
Q 2388 3097 2138 3097 
Q 1578 3097 1268 2742 
Q 959 2388 959 1747 
Q 959 1106 1268 751 
Q 1578 397 2138 397 
Q 2388 397 2633 464 
Q 2878 531 3122 666 
L 3122 134 
Q 2881 22 2623 -34 
Q 2366 -91 2075 -91 
Q 1284 -91 818 406 
Q 353 903 353 1747 
Q 353 2603 823 3093 
Q 1294 3584 2113 3584 
Q 2378 3584 2631 3529 
Q 2884 3475 3122 3366 
z
" transform="scale(0.015625)"/>
       <path id="DejaVuSans-65" d="M 3597 1894 
L 3597 1613 
L 953 1613 
Q 991 1019 1311 708 
Q 1631 397 2203 397 
Q 2534 397 2845 478 
Q 3156 559 3463 722 
L 3463 178 
Q 3153 47 2828 -22 
Q 2503 -91 2169 -91 
Q 1331 -91 842 396 
Q 353 884 353 1716 
Q 353 2575 817 3079 
Q 1281 3584 2069 3584 
Q 2775 3584 3186 3129 
Q 3597 2675 3597 1894 
z
M 3022 2063 
Q 3016 2534 2758 2815 
Q 2500 3097 2075 3097 
Q 1594 3097 1305 2825 
Q 1016 2553 972 2059 
L 3022 2063 
z
" transform="scale(0.015625)"/>
       <path id="DejaVuSans-20" transform="scale(0.015625)"/>
       <path id="DejaVuSans-5b" d="M 550 4863 
L 1875 4863 
L 1875 4416 
L 1125 4416 
L 1125 -397 
L 1875 -397 
L 1875 -844 
L 550 -844 
L 550 4863 
z
" transform="scale(0.015625)"/>
       <path id="DejaVuSans-6b" d="M 581 4863 
L 1159 4863 
L 1159 1991 
L 2875 3500 
L 3609 3500 
L 1753 1863 
L 3688 0 
L 2938 0 
L 1159 1709 
L 1159 0 
L 581 0 
L 581 4863 
z
" transform="scale(0.015625)"/>
       <path id="DejaVuSans-6d" d="M 3328 2828 
Q 3544 3216 3844 3400 
Q 4144 3584 4550 3584 
Q 5097 3584 5394 3201 
Q 5691 2819 5691 2113 
L 5691 0 
L 5113 0 
L 5113 2094 
Q 5113 2597 4934 2840 
Q 4756 3084 4391 3084 
Q 3944 3084 3684 2787 
Q 3425 2491 3425 1978 
L 3425 0 
L 2847 0 
L 2847 2094 
Q 2847 2600 2669 2842 
Q 2491 3084 2119 3084 
Q 1678 3084 1418 2786 
Q 1159 2488 1159 1978 
L 1159 0 
L 581 0 
L 581 3500 
L 1159 3500 
L 1159 2956 
Q 1356 3278 1631 3431 
Q 1906 3584 2284 3584 
Q 2666 3584 2933 3390 
Q 3200 3197 3328 2828 
z
" transform="scale(0.015625)"/>
       <path id="DejaVuSans-5d" d="M 1947 4863 
L 1947 -844 
L 622 -844 
L 622 -397 
L 1369 -397 
L 1369 4416 
L 622 4416 
L 622 4863 
L 1947 4863 
z
" transform="scale(0.015625)"/>
      </defs>
      <use xlink:href="#DejaVuSans-64"/>
      <use xlink:href="#DejaVuSans-69" transform="translate(63.476562 0)"/>
      <use xlink:href="#DejaVuSans-73" transform="translate(91.259766 0)"/>
      <use xlink:href="#DejaVuSans-74" transform="translate(143.359375 0)"/>
      <use xlink:href="#DejaVuSans-61" transform="translate(182.568359 0)"/>
      <use xlink:href="#DejaVuSans-6e" transform="translate(243.847656 0)"/>
      <use xlink:href="#DejaVuSans-63" transform="translate(307.226562 0)"/>
      <use xlink:href="#DejaVuSans-65" transform="translate(362.207031 0)"/>
      <use xlink:href="#DejaVuSans-20" transform="translate(423.730469 0)"/>
      <use xlink:href="#DejaVuSans-73" transform="translate(455.517578 0)"/>
      <use xlink:href="#DejaVuSans-20" transform="translate(507.617188 0)"/>
      <use xlink:href="#DejaVuSans-5b" transform="translate(539.404297 0)"/>
      <use xlink:href="#DejaVuSans-6b" transform="translate(578.417969 0)"/>
      <use xlink:href="#DejaVuSans-6d" transform="translate(636.328125 0)"/>
      <use xlink:href="#DejaVuSans-5d" transform="translate(733.740234 0)"/>
     </g>
    </g>
   </g>
   <g id="matplotlib.axis_2">
    <g id="ytick_1">
     <g id="line2d_11">
      <path d="M 56.09 237.718421 
L 709.2 237.718421 
" clip-path="url(#p359fb68315)" style="fill: none; stroke: #b0b0b0; stroke-opacity: 0.3; stroke-width: 0.8; stroke-linecap: square"/>
     </g>
     <g id="line2d_12">
      <defs>
       <path id="m056664744e" d="M 0 0 
L -3.5 0 
" style="stroke: #000000; stroke-width: 0.8"/>
      </defs>
      <g>
       <use xlink:href="#m056664744e" x="56.09" y="237.718421" style="stroke: #000000; stroke-width: 0.8"/>
      </g>
     </g>
     <g id="text_7">
      <!-- −1.5 -->
      <g transform="translate(24.807188 241.51764) scale(0.1 -0.1)">
       <defs>
        <path id="DejaVuSans-2212" d="M 678 2272 
L 4684 2272 
L 4684 1741 
L 678 1741 
L 678 2272 
z
" transform="scale(0.015625)"/>
       </defs>
       <use xlink:href="#DejaVuSans-2212"/>
       <use xlink:href="#DejaVuSans-31" transform="translate(83.789062 0)"/>
       <use xlink:href="#DejaVuSans-2e" transform="translate(147.412109 0)"/>
       <use xlink:href="#DejaVuSans-35" transform="translate(179.199219 0)"/>
      </g>
     </g>
    </g>
    <g id="ytick_2">
     <g id="line2d_13">
      <path d="M 56.09 203.116667 
L 709.2 203.116667 
" clip-path="url(#p359fb68315)" style="fill: none; stroke: #b0b0b0; stroke-opacity: 0.3; stroke-width: 0.8; stroke-linecap: square"/>
     </g>
     <g id="line2d_14">
      <g>
       <use xlink:href="#m056664744e" x="56.09" y="203.116667" style="stroke: #000000; stroke-width: 0.8"/>
      </g>
     </g>
     <g id="text_8">
      <!-- −1.0 -->
      <g transform="translate(24.807188 206.915885) scale(0.1 -0.1)">
       <use xlink:href="#DejaVuSans-2212"/>
       <use xlink:href="#DejaVuSans-31" transform="translate(83.789062 0)"/>
       <use xlink:href="#DejaVuSans-2e" transform="translate(147.412109 0)"/>
       <use xlink:href="#DejaVuSans-30" transform="translate(179.199219 0)"/>
      </g>
     </g>
    </g>
    <g id="ytick_3">
     <g id="line2d_15">
      <path d="M 56.09 168.514912 
L 709.2 168.514912 
" clip-path="url(#p359fb68315)" style="fill: none; stroke: #b0b0b0; stroke-opacity: 0.3; stroke-width: 0.8; stroke-linecap: square"/>
     </g>
     <g id="line2d_16">
      <g>
       <use xlink:href="#m056664744e" x="56.09" y="168.514912" style="stroke: #000000; stroke-width: 0.8"/>
      </g>
     </g>
     <g id="text_9">
      <!-- −0.5 -->
      <g transform="translate(24.807188 172.314131) scale(0.1 -0.1)">
       <use xlink:href="#DejaVuSans-2212"/>
       <use xlink:href="#DejaVuSans-30" transform="translate(83.789062 0)"/>
       <use xlink:href="#DejaVuSans-2e" transform="translate(147.412109 0)"/>
       <use xlink:href="#DejaVuSans-35" transform="translate(179.199219 0)"/>
      </g>
     </g>
    </g>
    <g id="ytick_4">
     <g id="line2d_17">
      <path d="M 56.09 133.913158 
L 709.2 133.913158 
" clip-path="url(#p359fb68315)" style="fill: none; stroke: #b0b0b0; stroke-opacity: 0.3; stroke-width: 0.8; stroke-linecap: square"/>
     </g>
     <g id="line2d_18">
      <g>
       <use xlink:href="#m056664744e" x="56.09" y="133.913158" style="stroke: #000000; stroke-width: 0.8"/>
      </g>
     </g>
     <g id="text_10">
      <!-- 0.0 -->
      <g transform="translate(33.186875 137.712376) scale(0.1 -0.1)">
       <use xlink:href="#DejaVuSans-30"/>
       <use xlink:href="#DejaVuSans-2e" transform="translate(63.623047 0)"/>
       <use xlink:href="#DejaVuSans-30" transform="translate(95.410156 0)"/>
      </g>
     </g>
    </g>
    <g id="ytick_5">
     <g id="line2d_19">
      <path d="M 56.09 99.311403 
L 709.2 99.311403 
" clip-path="url(#p359fb68315)" style="fill: none; stroke: #b0b0b0; stroke-opacity: 0.3; stroke-width: 0.8; stroke-linecap: square"/>
     </g>
     <g id="line2d_20">
      <g>
       <use xlink:href="#m056664744e" x="56.09" y="99.311403" style="stroke: #000000; stroke-width: 0.8"/>
      </g>
     </g>
     <g id="text_11">
      <!-- 0.5 -->
      <g transform="translate(33.186875 103.110622) scale(0.1 -0.1)">
       <use xlink:href="#DejaVuSans-30"/>
       <use xlink:href="#DejaVuSans-2e" transform="translate(63.623047 0)"/>
       <use xlink:href="#DejaVuSans-35" transform="translate(95.410156 0)"/>
      </g>
     </g>
    </g>
    <g id="ytick_6">
     <g id="line2d_21">
      <path d="M 56.09 64.709649 
L 709.2 64.709649 
" clip-path="url(#p359fb68315)" style="fill: none; stroke: #b0b0b0; stroke-opacity: 0.3; stroke-width: 0.8; stroke-linecap: square"/>
     </g>
     <g id="line2d_22">
      <g>
       <use xlink:href="#m056664744e" x="56.09" y="64.709649" style="stroke: #000000; stroke-width: 0.8"/>
      </g>
     </g>
     <g id="text_12">
      <!-- 1.0 -->
      <g transform="translate(33.186875 68.508868) scale(0.1 -0.1)">
       <use xlink:href="#DejaVuSans-31"/>
       <use xlink:href="#DejaVuSans-2e" transform="translate(63.623047 0)"/>
       <use xlink:href="#DejaVuSans-30" transform="translate(95.410156 0)"/>
      </g>
     </g>
    </g>
    <g id="ytick_7">
     <g id="line2d_23">
      <path d="M 56.09 30.107894 
L 709.2 30.107894 
" clip-path="url(#p359fb68315)" style="fill: none; stroke: #b0b0b0; stroke-opacity: 0.3; stroke-width: 0.8; stroke-linecap: square"/>
     </g>
     <g id="line2d_24">
      <g>
       <use xlink:href="#m056664744e" x="56.09" y="30.107894" style="stroke: #000000; stroke-width: 0.8"/>
      </g>
     </g>
     <g id="text_13">
      <!-- 1.5 -->
      <g transform="translate(33.186875 33.907113) scale(0.1 -0.1)">
       <use xlink:href="#DejaVuSans-31"/>
       <use xlink:href="#DejaVuSans-2e" transform="translate(63.623047 0)"/>
       <use xlink:href="#DejaVuSans-35" transform="translate(95.410156 0)"/>
      </g>
     </g>
    </g>
    <g id="text_14">
     <!-- tie-rod force [kN] -->
     <g transform="translate(18.7275 179.170156) rotate(-90) scale(0.1 -0.1)">
      <defs>
       <path id="DejaVuSans-2d" d="M 313 2009 
L 1997 2009 
L 1997 1497 
L 313 1497 
L 313 2009 
z
" transform="scale(0.015625)"/>
       <path id="DejaVuSans-72" d="M 2631 2963 
Q 2534 3019 2420 3045 
Q 2306 3072 2169 3072 
Q 1681 3072 1420 2755 
Q 1159 2438 1159 1844 
L 1159 0 
L 581 0 
L 581 3500 
L 1159 3500 
L 1159 2956 
Q 1341 3275 1631 3429 
Q 1922 3584 2338 3584 
Q 2397 3584 2469 3576 
Q 2541 3569 2628 3553 
L 2631 2963 
z
" transform="scale(0.015625)"/>
       <path id="DejaVuSans-6f" d="M 1959 3097 
Q 1497 3097 1228 2736 
Q 959 2375 959 1747 
Q 959 1119 1226 758 
Q 1494 397 1959 397 
Q 2419 397 2687 759 
Q 2956 1122 2956 1747 
Q 2956 2369 2687 2733 
Q 2419 3097 1959 3097 
z
M 1959 3584 
Q 2709 3584 3137 3096 
Q 3566 2609 3566 1747 
Q 3566 888 3137 398 
Q 2709 -91 1959 -91 
Q 1206 -91 779 398 
Q 353 888 353 1747 
Q 353 2609 779 3096 
Q 1206 3584 1959 3584 
z
" transform="scale(0.015625)"/>
       <path id="DejaVuSans-66" d="M 2375 4863 
L 2375 4384 
L 1825 4384 
Q 1516 4384 1395 4259 
Q 1275 4134 1275 3809 
L 1275 3500 
L 2222 3500 
L 2222 3053 
L 1275 3053 
L 1275 0 
L 697 0 
L 697 3053 
L 147 3053 
L 147 3500 
L 697 3500 
L 697 3744 
Q 697 4328 969 4595 
Q 1241 4863 1831 4863 
L 2375 4863 
z
" transform="scale(0.015625)"/>
       <path id="DejaVuSans-4e" d="M 628 4666 
L 1478 4666 
L 3547 763 
L 3547 4666 
L 4159 4666 
L 4159 0 
L 3309 0 
L 1241 3903 
L 1241 0 
L 628 0 
L 628 4666 
z
" transform="scale(0.015625)"/>
      </defs>
      <use xlink:href="#DejaVuSans-74"/>
      <use xlink:href="#DejaVuSans-69" transform="translate(39.208984 0)"/>
      <use xlink:href="#DejaVuSans-65" transform="translate(66.992188 0)"/>
      <use xlink:href="#DejaVuSans-2d" transform="translate(128.515625 0)"/>
      <use xlink:href="#DejaVuSans-72" transform="translate(164.599609 0)"/>
      <use xlink:href="#DejaVuSans-6f" transform="translate(203.462891 0)"/>
      <use xlink:href="#DejaVuSans-64" transform="translate(264.644531 0)"/>
      <use xlink:href="#DejaVuSans-20" transform="translate(328.121094 0)"/>
      <use xlink:href="#DejaVuSans-66" transform="translate(359.908203 0)"/>
      <use xlink:href="#DejaVuSans-6f" transform="translate(395.113281 0)"/>
      <use xlink:href="#DejaVuSans-72" transform="translate(456.294922 0)"/>
      <use xlink:href="#DejaVuSans-63" transform="translate(495.158203 0)"/>
      <use xlink:href="#DejaVuSans-65" transform="translate(550.138672 0)"/>
      <use xlink:href="#DejaVuSans-20" transform="translate(611.662109 0)"/>
      <use xlink:href="#DejaVuSans-5b" transform="translate(643.449219 0)"/>
      <use xlink:href="#DejaVuSans-6b" transform="translate(682.462891 0)"/>
      <use xlink:href="#DejaVuSans-4e" transform="translate(740.373047 0)"/>
      <use xlink:href="#DejaVuSans-5d" transform="translate(815.177734 0)"/>
     </g>
    </g>
   </g>
   <g id="line2d_25">
    <path d="M 85.776818 133.913158 
L 86.361357 133.703804 
L 86.947009 133.654551 
L 88.71061 134.131548 
L 90.484115 133.635257 
L 91.077467 133.741177 
L 92.267428 134.190824 
L 92.864029 134.192205 
L 94.660264 133.731006 
L 96.466065 134.25643 
L 97.070106 134.163669 
L 98.281322 133.750421 
L 98.88849 133.770308 
L 100.105922 134.174649 
L 100.716178 134.210967 
L 102.553057 133.679019 
L 103.167373 133.784971 
L 104.399011 134.163882 
L 105.016326 134.113298 
L 106.253924 133.690914 
L 106.874199 133.650238 
L 108.740878 134.139747 
L 109.365042 134.029942 
L 110.616248 133.639735 
L 111.243283 133.677185 
L 112.500195 134.094374 
L 113.130064 134.1399 
L 115.025271 133.644771 
L 115.65886 133.757225 
L 116.928794 134.178303 
L 117.56513 134.152106 
L 118.840521 133.735249 
L 119.479568 133.69926 
L 121.402065 134.25036 
L 122.04467 134.145372 
L 123.332514 133.740715 
L 123.977746 133.792722 
L 125.27081 134.253808 
L 125.918634 134.288154 
L 127.867228 133.76259 
L 128.518454 133.908847 
L 129.823426 134.342157 
L 130.477164 134.261404 
L 131.787126 133.782861 
L 132.443343 133.790625 
L 133.758229 134.266588 
L 134.41689 134.325452 
L 136.397708 133.667512 
L 137.05958 133.771808 
L 138.3857 134.226995 
L 139.049942 134.153112 
L 140.38077 133.533818 
L 141.04735 133.436744 
L 143.051711 133.949328 
L 143.72136 133.725155 
L 145.062931 133.013877 
L 145.734847 133.015103 
L 147.08092 133.439356 
L 147.755071 133.32797 
L 149.105586 132.452204 
L 149.781943 132.24303 
L 150.459028 132.376051 
L 151.136838 132.649657 
L 151.81537 132.744776 
L 152.49462 132.481124 
L 153.855261 131.503446 
L 154.536645 131.367122 
L 155.90131 131.802057 
L 156.583821 131.769202 
L 157.265707 131.346988 
L 157.946476 130.768579 
L 158.625664 130.395006 
L 159.30284 130.417843 
L 160.649561 130.985065 
L 161.318369 130.899837 
L 162.645204 130.056423 
L 163.302617 129.953893 
L 163.955649 130.332493 
L 165.247531 131.498216 
L 165.885897 131.659781 
L 167.146365 131.491375 
L 167.768055 131.830492 
L 168.383795 132.681745 
L 169.596717 134.789346 
L 170.193566 135.383888 
L 171.367279 136.078256 
L 171.943889 136.797696 
L 174.17976 141.415688 
L 175.780918 142.907162 
L 176.812165 144.901881 
L 177.317103 145.931917 
L 177.815023 146.591826 
L 178.306009 146.817392 
L 178.790168 146.906017 
L 179.267643 147.189809 
L 179.738624 147.796373 
L 180.661908 149.284031 
L 181.114585 149.637315 
L 182.002946 149.559541 
L 182.438925 150.125436 
L 182.869654 152.576596 
L 184.132534 167.166666 
L 184.544607 169.547912 
L 184.952756 170.556053 
L 185.357292 171.8531 
L 185.758473 175.150921 
L 186.156475 181.166065 
L 187.718623 211.868948 
L 188.481252 220.989608 
L 189.228156 226.917603 
L 189.955242 230.965434 
L 190.660897 233.632421 
L 191.346289 235.2674 
L 191.682104 235.747615 
L 192.013805 236.015877 
L 192.341758 236.078182 
L 192.666305 235.944345 
L 193.306266 235.205961 
L 194.551248 233.399828 
L 195.154141 233.150037 
L 196.02576 233.181948 
L 196.306479 232.977105 
L 196.58219 232.444207 
L 196.853019 231.307764 
L 197.119225 229.1237 
L 197.381203 225.328515 
L 197.894669 211.742261 
L 198.39868 195.480814 
L 198.648905 190.567035 
L 198.898788 188.798714 
L 199.148877 189.067761 
L 199.399681 189.644354 
L 199.651655 189.148508 
L 199.905161 186.818784 
L 200.417749 176.317386 
L 200.677218 170.202458 
L 200.938984 166.750429 
L 201.203075 167.95197 
L 201.737873 179.523961 
L 202.280142 190.688177 
L 202.827374 198.42278 
L 203.650105 206.434913 
L 204.192897 210.042637 
L 204.725983 212.310127 
L 205.247925 213.314592 
L 205.505167 213.457784 
L 205.760424 213.393782 
L 206.267004 212.777283 
L 207.280471 210.732526 
L 207.79646 209.320991 
L 208.058417 208.014955 
L 208.323481 205.605992 
L 208.591908 201.170453 
L 209.13941 183.639176 
L 209.701236 162.665643 
L 209.98739 156.852544 
L 210.276909 154.406822 
L 210.569685 152.896797 
L 210.865681 149.460684 
L 211.164884 142.239233 
L 211.772801 124.997302 
L 212.08142 124.047361 
L 213.025547 134.378226 
L 213.346253 132.077411 
L 213.669904 128.31967 
L 213.996473 126.498154 
L 214.325931 127.86748 
L 214.993416 136.443642 
L 215.331398 138.177248 
L 215.67218 137.08789 
L 216.015749 135.002979 
L 216.362083 134.632524 
L 216.711116 137.055703 
L 217.415761 143.491564 
L 217.770129 144.307307 
L 218.125154 143.328386 
L 218.480436 141.789157 
L 218.83562 141.408701 
L 219.190448 142.92743 
L 219.898571 147.024799 
L 220.251789 147.176648 
L 220.956542 145.45863 
L 221.308047 145.972519 
L 222.358985 151.683671 
L 223.057075 153.464157 
L 223.405651 155.426734 
L 224.102574 163.652966 
L 224.800108 171.991527 
L 225.848954 181.089394 
L 226.549861 190.477332 
L 227.251033 200.924405 
L 227.950994 207.648907 
L 228.648993 211.114819 
L 229.345969 212.964921 
L 230.044488 213.990928 
L 230.395336 214.224346 
L 230.747696 214.228518 
L 231.101841 213.924226 
L 231.458041 213.121922 
L 231.81649 211.441514 
L 232.177293 208.259855 
L 232.540499 202.868339 
L 233.274105 185.314958 
L 234.016731 168.006595 
L 235.147008 152.992218 
L 235.528146 144.865552 
L 236.297289 125.551191 
L 236.685383 122.836795 
L 237.075846 124.57249 
L 237.468669 127.930092 
L 237.863818 129.661188 
L 238.261252 128.268135 
L 238.660934 125.354083 
L 239.062827 123.490342 
L 239.466896 123.96541 
L 239.873103 126.814136 
L 240.69183 134.891322 
L 241.104305 136.896711 
L 241.51885 137.858838 
L 241.93548 139.431598 
L 242.3542 142.686618 
L 245.339272 173.972335 
L 247.075348 188.471285 
L 247.948776 198.347638 
L 248.386404 201.808914 
L 248.824418 204.297682 
L 249.700812 207.48689 
L 250.576388 209.476469 
L 253.634762 215.363195 
L 254.074003 215.91361 
L 254.514769 216.081875 
L 254.957327 215.375945 
L 255.401841 212.764929 
L 255.848373 206.704399 
L 256.296982 196.035207 
L 258.113518 138.712443 
L 259.034449 124.353063 
L 259.962459 107.828068 
L 260.428218 107.510145 
L 262.297644 123.941444 
L 262.767033 126.513316 
L 263.237484 128.443566 
L 263.709018 129.802997 
L 264.181579 130.644449 
L 264.655044 131.028761 
L 265.129267 131.040104 
L 266.079487 130.426185 
L 266.555347 130.089917 
L 267.031735 129.902862 
L 267.508714 129.934787 
L 267.986332 130.19313 
L 268.943699 131.166296 
L 269.904124 132.241231 
L 270.385477 132.654912 
L 278.653149 132.624252 
L 279.640186 130.412257 
L 281.628749 125.545745 
L 282.129269 124.800147 
L 282.631208 124.434783 
L 283.134545 124.657492 
L 283.639193 125.112142 
L 284.145014 124.693588 
L 285.159661 122.317631 
L 285.668359 121.720209 
L 286.177984 121.325894 
L 286.688652 121.423456 
L 287.200478 123.920223 
L 288.227843 138.817729 
L 288.743467 138.257497 
L 289.260453 131.161658 
L 289.778838 127.374334 
L 290.298616 135.183677 
L 290.8198 152.333645 
L 291.342272 165.805703 
L 291.865688 174.261017 
L 292.389648 179.620211 
L 292.913709 183.042441 
L 293.43739 185.573773 
L 293.960251 188.705532 
L 294.481916 193.480839 
L 296.036828 211.68748 
L 296.551078 215.796396 
L 297.063124 218.602311 
L 297.572932 220.463376 
L 298.080502 221.698095 
L 298.585867 222.47951 
L 299.089079 222.917895 
L 299.590163 223.085349 
L 301.080875 223.128038 
L 302.063328 223.800085 
L 304.001573 225.330243 
L 304.958324 226.358759 
L 305.905045 227.893462 
L 308.219163 231.943515 
L 308.673546 232.47229 
L 309.125419 232.814705 
L 309.574877 232.938691 
L 310.467142 232.764801 
L 311.349256 232.288717 
L 312.219317 231.594727 
L 313.077575 230.677063 
L 314.351028 228.846877 
L 315.619739 226.562127 
L 318.156183 221.808208 
L 318.998695 220.689862 
L 320.694854 218.989813 
L 321.125018 217.591986 
L 321.558378 213.643613 
L 321.994874 204.250719 
L 322.434414 187.098163 
L 323.322124 138.00733 
L 323.769676 123.330805 
L 324.219342 125.02023 
L 324.671055 136.450155 
L 325.124822 141.452892 
L 325.580682 129.915842 
L 326.038673 113.398133 
L 326.498768 109.017967 
L 326.960706 111.577007 
L 327.888123 117.469398 
L 328.352686 119.488236 
L 328.817293 120.978572 
L 329.281619 121.696348 
L 329.745367 121.570722 
L 332.50281 118.578192 
L 332.957284 118.245086 
L 333.410396 118.104416 
L 334.312795 118.185571 
L 334.762134 118.318047 
L 335.210164 118.628545 
L 336.102106 119.777782 
L 337.4298 121.555459 
L 338.746117 123.115941 
L 339.618369 124.457805 
L 341.350001 127.651173 
L 343.909192 132.654912 
L 351.870115 132.658068 
L 352.301939 132.76985 
L 352.735381 132.625613 
L 353.607268 129.570412 
L 354.045837 127.297489 
L 354.486268 126.870362 
L 354.928655 133.816074 
L 355.373076 146.62756 
L 355.819571 155.450099 
L 356.268125 159.097534 
L 356.718713 157.499145 
L 357.625893 147.801086 
L 358.08241 149.150966 
L 359.001063 161.166164 
L 359.463098 164.168006 
L 359.926879 162.968986 
L 360.392385 157.245019 
L 361.328576 139.581711 
L 361.799266 136.841662 
L 362.271688 140.336158 
L 362.74584 144.865342 
L 363.22167 145.450348 
L 363.698801 140.112956 
L 364.176675 130.310094 
L 364.654747 123.382496 
L 365.132503 122.316313 
L 365.609472 125.900498 
L 366.085219 130.467979 
L 366.559327 131.080061 
L 367.031404 126.506328 
L 367.50109 120.505937 
L 367.968044 116.849949 
L 368.431948 116.75624 
L 368.892514 119.629496 
L 369.349488 123.364398 
L 369.802644 124.929641 
L 370.251795 122.873803 
L 371.13745 115.728919 
L 371.573668 115.058632 
L 372.005323 116.954118 
L 372.854678 122.813064 
L 373.272331 122.671187 
L 374.094056 117.443896 
L 374.498496 116.153348 
L 374.898828 116.869655 
L 375.687367 121.012118 
L 376.075617 121.218524 
L 376.459855 119.099933 
L 377.216357 113.689927 
L 377.588642 112.736577 
L 377.957019 112.553879 
L 378.321644 111.842502 
L 378.682771 109.691631 
L 379.395675 104.905125 
L 379.747962 104.51416 
L 380.097764 105.402356 
L 380.790656 108.936846 
L 382.823649 121.404225 
L 383.482456 123.937331 
L 384.129003 125.755662 
L 385.074592 127.760631 
L 386.287698 129.848084 
L 387.443985 131.501291 
L 388.273175 132.433145 
L 388.542667 132.654912 
L 399.642689 132.65717 
L 399.944137 133.041524 
L 400.248429 134.373103 
L 400.555512 137.621471 
L 400.865456 142.523126 
L 401.178484 143.965264 
L 401.494854 135.800782 
L 401.81467 131.729142 
L 402.795228 171.604302 
L 403.129009 176.987277 
L 403.466044 179.108458 
L 403.806236 178.104123 
L 404.149514 173.668464 
L 404.845059 159.731707 
L 405.197173 156.577384 
L 405.552078 157.818501 
L 405.909708 160.749192 
L 406.270005 162.056888 
L 406.632921 159.712407 
L 406.998429 152.61967 
L 407.737161 129.953214 
L 408.110351 126.532547 
L 408.486065 130.21131 
L 408.864289 136.173072 
L 409.245006 137.655901 
L 409.628194 132.846172 
L 410.01383 125.860859 
L 410.401882 122.126386 
L 410.792318 122.706451 
L 411.97754 133.966715 
L 412.376451 132.013712 
L 412.776367 128.373287 
L 413.176722 126.580078 
L 413.577007 128.453277 
L 414.375606 139.497918 
L 414.773148 141.623555 
L 415.169057 140.338451 
L 415.563028 138.003244 
L 415.954792 137.835256 
L 416.344124 141.000227 
L 417.114801 149.274335 
L 417.49589 150.401455 
L 417.87404 149.317368 
L 418.249211 147.612033 
L 418.621364 147.208592 
L 418.990443 148.901817 
L 419.71902 154.436597 
L 420.078322 155.651661 
L 420.434186 155.324515 
L 420.786518 154.271943 
L 421.135209 153.966339 
L 421.480164 155.308816 
L 422.821394 165.48638 
L 423.46847 169.883365 
L 424.410434 179.550558 
L 425.322649 191.042912 
L 426.794379 212.34561 
L 427.367336 217.331145 
L 427.931142 220.730298 
L 428.760042 224.14661 
L 429.569978 226.357055 
L 430.101065 227.322272 
L 430.625244 227.903102 
L 431.141963 228.160641 
L 431.650033 228.163391 
L 432.146302 227.953096 
L 432.865069 227.321774 
L 433.555094 226.318541 
L 434.220971 224.893123 
L 435.081282 222.361188 
L 436.549054 217.827014 
L 437.587597 215.410716 
L 438.419842 213.99307 
L 439.258079 212.934845 
L 440.321207 211.981217 
L 441.410236 211.019844 
L 443.476117 208.565473 
L 443.717219 208.07378 
L 443.961223 207.243907 
L 444.208304 205.589835 
L 444.458656 202.132881 
L 444.712479 195.465531 
L 445.764988 152.969247 
L 446.037578 151.613888 
L 446.313946 151.919667 
L 446.594059 149.744195 
L 446.877851 142.490101 
L 447.456171 121.89042 
L 447.750535 120.204445 
L 448.048261 123.688253 
L 448.34929 129.354032 
L 448.653569 132.669483 
L 448.961042 130.897437 
L 449.271653 126.679595 
L 449.585344 124.014922 
L 449.902071 124.331361 
L 450.221801 127.465199 
L 450.870176 135.434465 
L 451.198773 135.146522 
L 451.864666 130.3501 
L 452.201913 131.230377 
L 452.884905 139.059608 
L 453.230613 140.553454 
L 453.579099 139.276272 
L 453.930338 136.690098 
L 454.284306 135.136094 
L 454.640977 135.956674 
L 455.362327 140.14393 
L 455.72687 140.106343 
L 456.093625 138.010229 
L 456.462101 135.040647 
L 456.831741 133.138651 
L 457.202017 133.326416 
L 457.572448 134.719068 
L 457.9426 135.405446 
L 458.312079 134.102938 
L 459.04765 128.432268 
L 459.413126 127.022773 
L 459.776701 127.016398 
L 460.138169 127.428113 
L 460.497363 127.03888 
L 460.85414 125.383678 
L 461.559974 120.944133 
L 461.908867 119.56069 
L 462.939263 117.471902 
L 463.6134 114.943439 
L 464.278432 112.520661 
L 464.607866 111.955003 
L 465.908141 110.938602 
L 466.229612 110.535589 
L 466.550073 110.421271 
L 466.869815 110.787614 
L 467.189108 111.660934 
L 467.827171 114.550929 
L 470.378598 128.200929 
L 471.313677 131.793217 
L 471.61897 132.654912 
L 480.483307 132.676983 
L 480.805805 132.995241 
L 481.131133 133.694603 
L 481.459206 135.001784 
L 481.790056 135.30805 
L 482.460369 128.265 
L 482.799917 133.553519 
L 483.48802 157.07051 
L 483.836569 161.869409 
L 484.188044 161.574081 
L 484.542403 156.296496 
L 484.899608 148.967043 
L 485.259601 145.463568 
L 485.622324 148.498194 
L 486.355736 159.005181 
L 486.726316 159.516348 
L 487.099419 155.295699 
L 487.853108 137.356968 
L 488.23366 133.061019 
L 488.616657 135.934955 
L 489.002082 141.350428 
L 489.389917 143.828572 
L 489.780143 141.165664 
L 490.567721 127.847313 
L 490.965045 126.697164 
L 491.364607 130.318953 
L 491.765885 135.865568 
L 492.168204 138.436567 
L 492.57096 136.443383 
L 492.973627 131.68644 
L 493.375726 128.796774 
L 493.776821 130.267524 
L 494.574446 140.42359 
L 494.970281 142.012804 
L 495.363721 140.208376 
L 495.754511 137.20906 
L 496.142435 136.214193 
L 496.527311 138.614783 
L 497.287327 145.822903 
L 497.66226 146.477893 
L 498.033738 144.976056 
L 498.401745 142.920272 
L 498.766277 142.222117 
L 499.127339 143.641327 
L 499.839118 148.522395 
L 500.189918 149.360565 
L 500.537472 148.885641 
L 500.881968 148.204507 
L 501.22361 148.673728 
L 501.562609 150.893434 
L 502.897304 163.571561 
L 503.556237 169.460084 
L 504.212348 177.01077 
L 504.866629 187.012303 
L 506.17064 209.425839 
L 506.817214 216.975512 
L 507.455392 221.663323 
L 508.082172 224.301261 
L 508.390672 225.018676 
L 508.695752 225.400133 
L 508.99741 225.530462 
L 509.295733 225.463574 
L 509.590866 225.204689 
L 510.172372 224.153032 
L 511.026521 221.627107 
L 512.420862 217.202324 
L 513.255941 215.439249 
L 514.101885 214.292749 
L 515.554508 212.863475 
L 516.449031 212.164031 
L 517.053123 211.950016 
L 517.663852 211.937959 
L 517.972093 211.718898 
L 518.282452 210.603372 
L 518.595167 207.011602 
L 518.910537 198.491421 
L 519.550421 163.454201 
L 519.875267 145.195791 
L 520.203454 136.635074 
L 520.535032 139.990086 
L 520.870087 147.110453 
L 521.208659 148.384838 
L 521.550738 139.459029 
L 521.896288 123.10379 
L 522.245237 114.654921 
L 522.597462 114.488937 
L 522.952838 119.40912 
L 523.672619 135.026898 
L 524.036784 134.656682 
L 524.773196 123.595788 
L 525.145329 122.852742 
L 525.52003 126.443926 
L 526.277093 140.114177 
L 526.659444 141.147278 
L 527.044354 137.455693 
L 527.431821 132.34769 
L 527.821822 131.309196 
L 528.214315 135.772241 
L 528.609262 142.068626 
L 529.006624 145.818311 
L 529.406365 145.63589 
L 530.212905 138.018932 
L 530.619651 137.019233 
L 531.028676 140.119357 
L 531.439958 144.510139 
L 531.853471 147.06847 
L 532.269184 146.524875 
L 533.107088 139.957454 
L 533.529227 138.88868 
L 533.953432 141.077102 
L 534.379632 144.682724 
L 534.807741 147.302314 
L 535.237524 147.863338 
L 535.668392 146.692594 
L 536.099714 145.160438 
L 536.530942 145.08877 
L 536.961562 147.440112 
L 537.819354 155.230258 
L 538.245967 157.525062 
L 538.670855 157.787134 
L 539.093986 156.23206 
L 539.515367 153.75063 
L 539.934891 152.060065 
L 540.35241 152.524391 
L 541.180777 157.59412 
L 541.591392 158.751086 
L 541.99955 157.492093 
L 542.808111 150.866333 
L 543.20819 149.804143 
L 543.605316 151.680308 
L 544.39043 157.821615 
L 544.778286 159.005711 
L 545.162954 158.807472 
L 545.544455 158.247615 
L 545.92282 158.644484 
L 546.29807 160.977029 
L 547.039226 170.216796 
L 547.76789 178.518362 
L 549.189513 188.718223 
L 549.884547 198.993817 
L 550.569957 209.925744 
L 551.245146 217.308421 
L 551.909476 221.479742 
L 552.562729 224.054884 
L 553.205012 225.847425 
L 553.836628 227.127998 
L 554.458016 227.89721 
L 554.765061 228.054655 
L 555.372301 227.963238 
L 555.971055 227.440037 
L 556.562401 226.454178 
L 557.727918 224.343644 
L 558.01594 224.083453 
L 558.302447 224.014956 
L 558.587283 224.136931 
L 559.151376 224.826781 
L 560.254397 226.88852 
L 561.057841 228.239354 
L 561.581868 228.641015 
L 561.840495 228.635092 
L 562.096947 228.449382 
L 562.351305 227.991463 
L 562.603653 227.055416 
L 562.8541 225.240441 
L 563.102816 221.878567 
L 563.35004 216.097776 
L 563.841263 196.02032 
L 564.330605 175.691775 
L 564.575573 171.899733 
L 564.821338 172.323949 
L 565.068383 174.077988 
L 565.317197 174.47649 
L 565.568296 172.403674 
L 566.3401 160.494472 
L 566.604627 161.745539 
L 567.978313 184.119245 
L 569.393953 197.029537 
L 569.958186 200.515076 
L 570.51995 202.466886 
L 570.800389 202.975927 
L 571.080875 203.215042 
L 571.361676 203.200763 
L 571.643063 202.929888 
L 571.925316 202.373492 
L 572.208717 201.457239 
L 572.493548 200.063647 
L 573.068619 195.234029 
L 573.652445 187.178159 
L 576.094326 147.338995 
L 576.733303 140.673011 
L 577.057132 138.691574 
L 577.383848 137.584912 
L 578.381156 135.401105 
L 578.719236 134.453323 
L 579.060093 133.868148 
L 579.403695 133.804616 
L 579.750007 133.979893 
L 580.099 133.944494 
L 580.450646 133.554447 
L 581.161812 132.54981 
L 582.247585 132.110606 
L 583.719951 129.867194 
L 584.089524 129.829816 
L 584.458854 129.654968 
L 584.827583 129.028048 
L 585.926906 126.004096 
L 586.290072 125.501369 
L 587.009953 124.778913 
L 587.366254 123.971784 
L 587.719928 122.560809 
L 589.106911 115.338245 
L 590.116956 112.125474 
L 590.776063 109.384208 
L 591.101596 108.540006 
L 591.424517 108.249211 
L 591.744853 108.491817 
L 593.002034 110.594891 
L 593.61785 111.700499 
L 594.226712 113.542313 
L 596.038841 120.434556 
L 597.553153 126.683052 
L 598.746076 131.591617 
L 599.037774 132.601088 
L 599.891386 132.654912 
L 607.845022 132.668954 
L 608.147103 132.802135 
L 608.452737 133.08012 
L 609.074758 131.10199 
L 609.391236 129.922206 
L 609.711359 130.051297 
L 610.035058 134.737256 
L 610.692777 149.620572 
L 611.026602 153.213199 
L 611.363609 153.772875 
L 611.703731 152.701213 
L 612.046917 152.601137 
L 612.393124 155.206299 
L 613.449528 168.409844 
L 613.80752 170.926662 
L 614.532292 173.61865 
L 614.89903 174.918018 
L 615.640615 178.881475 
L 616.391879 182.887285 
L 617.151629 185.800235 
L 617.918925 187.933234 
L 618.693176 189.560392 
L 619.082828 190.057746 
L 619.474154 190.270848 
L 619.867127 190.25909 
L 620.657784 189.913061 
L 621.055311 189.619286 
L 621.45423 189.136983 
L 621.854527 188.270356 
L 622.256202 186.613835 
L 622.659305 183.689056 
L 623.47027 174.445198 
L 624.288342 165.547859 
L 624.700266 162.749496 
L 625.948286 157.579995 
L 627.215274 149.005509 
L 627.641848 147.726284 
L 628.070514 147.627923 
L 629.368824 149.865135 
L 629.805584 149.749335 
L 630.244299 149.295488 
L 630.684964 149.198109 
L 631.127545 150.084907 
L 632.018141 154.287626 
L 632.465984 156.30499 
L 632.915424 157.624217 
L 633.366409 158.398677 
L 633.818909 158.776467 
L 634.272909 158.723208 
L 634.728414 158.926885 
L 635.185432 160.199439 
L 636.104014 164.3253 
L 637.028616 167.685724 
L 637.493095 170.411312 
L 637.958922 173.978345 
L 639.831605 192.821306 
L 640.301056 195.67329 
L 640.771023 197.586296 
L 641.241996 198.199133 
L 641.714536 196.760571 
L 642.188859 193.225704 
L 643.143217 184.729314 
L 643.623163 182.589852 
L 644.104757 182.601325 
L 644.587938 183.080918 
L 645.072606 182.255469 
L 645.558712 178.653602 
L 646.046263 170.46926 
L 646.535293 155.819079 
L 647.025857 136.346249 
L 647.517997 123.840285 
L 648.011737 125.483895 
L 648.507102 136.968697 
L 649.004106 145.502189 
L 649.50274 143.59446 
L 650.50494 118.357421 
L 651.008516 114.803327 
L 651.513715 118.132487 
L 652.52897 135.924947 
L 653.038998 136.452109 
L 654.063778 120.514634 
L 654.578504 118.094777 
L 655.094758 121.083543 
L 656.131847 138.609811 
L 656.652668 139.99016 
L 657.174991 133.244303 
L 657.698816 124.95092 
L 658.22413 122.439238 
L 658.750919 126.973893 
L 659.279183 137.251822 
L 659.808918 144.0932 
L 660.340108 143.548026 
L 661.406829 127.782439 
L 661.942348 126.404429 
L 662.479293 132.750689 
L 663.017657 141.982589 
L 663.557426 146.207953 
L 664.098583 143.779013 
L 665.185046 129.71164 
L 665.730344 130.700948 
L 666.825027 146.409822 
L 667.374385 149.02555 
L 667.925075 145.509719 
L 669.030476 130.276785 
L 669.58518 131.266244 
L 670.698566 146.056579 
L 671.257235 147.289291 
L 671.817203 141.911858 
L 672.378467 132.550492 
L 672.941024 127.22602 
L 673.504863 129.370988 
L 674.069979 136.902247 
L 674.636368 142.497425 
L 675.204017 141.901996 
L 676.34308 127.135104 
L 676.914485 124.803464 
L 677.487127 128.794187 
L 678.061004 136.462719 
L 678.63611 140.697963 
L 679.212434 138.459494 
L 679.513182 134.941938 
L 679.513182 134.941938 
" clip-path="url(#p359fb68315)" style="fill: none; stroke: #2ca02c; stroke-width: 0.9; stroke-linecap: square"/>
   </g>
   <g id="line2d_26">
    <path d="M 85.776818 133.913158 
L 86.361357 133.703787 
L 86.947009 133.654464 
L 88.71061 134.131649 
L 90.484115 133.635095 
L 91.077467 133.741071 
L 92.267428 134.190865 
L 92.864029 134.192144 
L 94.06045 133.78965 
L 94.660264 133.731071 
L 96.466065 134.256139 
L 97.070106 134.163407 
L 98.281322 133.750569 
L 98.88849 133.770407 
L 100.105922 134.174439 
L 100.716178 134.210684 
L 102.553057 133.679141 
L 103.167373 133.785002 
L 104.399011 134.163791 
L 105.016326 134.113209 
L 106.253924 133.690945 
L 106.874199 133.650201 
L 108.740878 134.139773 
L 109.365042 134.029941 
L 110.616248 133.63965 
L 111.243283 133.677064 
L 112.500195 134.094444 
L 113.130064 134.139941 
L 115.025271 133.644686 
L 115.65886 133.757161 
L 116.928794 134.178325 
L 117.56513 134.152066 
L 118.840521 133.735279 
L 119.479568 133.69927 
L 121.402065 134.250193 
L 122.04467 134.145207 
L 123.332514 133.740825 
L 123.977746 133.792782 
L 125.27081 134.25352 
L 125.918634 134.287733 
L 127.867228 133.762748 
L 128.518454 133.908831 
L 129.823426 134.341555 
L 130.477164 134.260847 
L 131.787126 133.783043 
L 132.443343 133.790767 
L 133.758229 134.266104 
L 134.41689 134.324807 
L 136.397708 133.66779 
L 137.05958 133.771913 
L 138.3857 134.226737 
L 139.049942 134.152912 
L 140.38077 133.533901 
L 141.04735 133.436578 
L 143.051711 133.949372 
L 143.72136 133.72489 
L 145.062931 133.011067 
L 145.734847 133.011483 
L 147.08092 133.436968 
L 147.755071 133.324612 
L 149.105586 132.440088 
L 149.781943 132.226665 
L 150.459028 132.359062 
L 151.136838 132.634588 
L 151.81537 132.72987 
L 152.49462 132.461067 
L 153.855261 131.461049 
L 154.536645 131.317777 
L 155.90131 131.757911 
L 156.583821 131.725394 
L 157.265707 131.295776 
L 157.946476 130.707502 
L 158.625664 130.33009 
L 159.30284 130.359319 
L 160.649561 130.950226 
L 161.318369 130.870154 
L 162.645204 130.030355 
L 163.302617 129.934223 
L 163.955649 130.32259 
L 165.247531 131.501745 
L 165.885897 131.665717 
L 167.146365 131.500939 
L 167.768055 131.840227 
L 168.383795 132.688458 
L 169.596717 134.784798 
L 170.193566 135.378439 
L 171.367279 136.077427 
L 171.943889 136.802116 
L 173.076098 139.383436 
L 173.63153 140.609082 
L 174.17976 141.480272 
L 175.780918 143.033322 
L 176.812165 145.06396 
L 177.317103 146.103657 
L 177.815023 146.769096 
L 178.306009 146.999266 
L 178.790168 147.08877 
L 179.267643 147.362706 
L 179.738624 147.941901 
L 180.661908 149.322552 
L 181.114585 149.617079 
L 182.002946 149.441425 
L 182.438925 149.909908 
L 182.869654 152.076257 
L 183.71621 160.282223 
L 184.132534 162.908923 
L 184.544607 163.611505 
L 186.156475 161.637627 
L 186.551388 159.863346 
L 188.101668 147.601949 
L 188.856937 143.125673 
L 189.594374 140.396764 
L 190.31071 139.076273 
L 190.660897 138.758837 
L 191.005997 138.629438 
L 191.346289 138.662978 
L 192.013805 139.132724 
L 192.666305 139.987543 
L 194.551248 142.885464 
L 195.154141 143.428735 
L 195.449403 143.532676 
L 195.740028 143.499032 
L 196.306479 143.000735 
L 197.639473 141.140213 
L 197.894669 141.179563 
L 198.147498 141.507741 
L 198.648905 142.988121 
L 199.148877 145.428 
L 200.160456 151.112694 
L 200.417749 151.335305 
L 200.938984 150.034173 
L 201.203075 150.349072 
L 201.469421 151.167286 
L 201.737873 151.411932 
L 202.008211 150.850129 
L 202.553323 148.510956 
L 203.376341 143.893678 
L 204.725983 136.148998 
L 204.988295 135.171403 
L 209.13941 135.148378 
L 209.418552 135.033555 
L 209.701236 135.186987 
L 210.569685 139.661942 
L 210.865681 140.333404 
L 211.164884 138.428715 
L 211.772801 127.238543 
L 212.08142 125.628618 
L 212.3931 128.065787 
L 212.707818 132.416885 
L 213.025547 134.388352 
L 213.346253 132.004865 
L 213.669904 127.878507 
L 213.996473 125.688803 
L 214.325931 127.138221 
L 214.993416 136.688861 
L 215.331398 138.498773 
L 215.67218 137.242946 
L 216.015749 135.024809 
L 216.362083 134.636194 
L 216.711116 137.031063 
L 217.415761 142.899619 
L 217.770129 143.447915 
L 218.125154 142.45044 
L 218.480436 141.040017 
L 218.83562 140.696614 
L 219.190448 142.028097 
L 219.544785 144.098484 
L 219.898571 145.471313 
L 220.251789 145.551291 
L 220.956542 144.073948 
L 221.308047 144.487924 
L 222.358985 148.788669 
L 223.057075 149.679176 
L 223.405651 150.715285 
L 224.102574 154.228913 
L 224.451211 155.028074 
L 224.800108 154.727156 
L 225.149341 153.621469 
L 225.848954 150.343662 
L 227.950994 139.139323 
L 228.648993 136.472733 
L 228.997482 135.400597 
L 229.345969 135.171403 
L 233.644326 135.173312 
L 234.768077 140.265042 
L 235.147008 141.034842 
L 235.528146 139.510697 
L 236.297289 127.689111 
L 236.685383 124.663975 
L 237.075846 125.27397 
L 237.468669 127.966972 
L 237.863818 129.489514 
L 238.261252 127.770707 
L 238.660934 124.139451 
L 239.062827 121.50842 
L 239.466896 121.822987 
L 239.873103 125.339818 
L 240.69183 135.048014 
L 241.104305 137.274377 
L 241.51885 138.225069 
L 241.93548 139.756447 
L 242.775016 146.767706 
L 243.197916 150.298384 
L 243.622818 152.804029 
L 244.049569 154.003441 
L 244.478007 153.952278 
L 244.907968 152.931653 
L 245.771752 149.21677 
L 247.075348 143.354129 
L 247.948776 140.212622 
L 248.824418 137.856249 
L 249.700812 136.171499 
L 250.138781 135.485985 
L 250.576388 135.171403 
L 256.747771 135.124753 
L 257.200818 134.883063 
L 257.656091 135.93739 
L 258.113518 135.204127 
L 258.573008 132.609693 
L 259.034449 127.856967 
L 259.962459 109.319764 
L 260.428218 100.372414 
L 260.894619 93.779775 
L 261.3616 89.162097 
L 263.237484 74.607434 
L 264.181579 67.416401 
L 264.655044 64.909378 
L 265.129267 63.216172 
L 265.604115 62.245827 
L 266.079487 61.799928 
L 266.555347 61.652506 
L 267.508714 61.695536 
L 267.986332 61.862408 
L 269.423523 62.956883 
L 269.904124 62.8393 
L 270.385477 61.972821 
L 271.833307 57.862851 
L 272.316899 57.090147 
L 272.800887 56.612267 
L 274.740701 55.484791 
L 275.22696 55.245678 
L 275.713941 55.312822 
L 276.201702 56.110895 
L 276.690284 58.20614 
L 277.179707 61.986649 
L 278.161115 72.064544 
L 278.653149 74.956291 
L 279.146141 74.844338 
L 280.135399 71.574703 
L 280.631861 71.352782 
L 281.129627 72.46678 
L 281.628749 75.111044 
L 282.129269 79.974576 
L 283.639193 103.893388 
L 284.145014 104.277678 
L 285.668359 88.795153 
L 286.177984 89.573506 
L 286.688652 96.400631 
L 287.200478 110.916071 
L 287.713526 129.817108 
L 288.227843 141.616378 
L 288.743467 139.836071 
L 289.260453 130.279598 
L 289.778838 125.962554 
L 290.298616 135.323486 
L 290.8198 153.227633 
L 291.342272 162.49638 
L 291.865688 162.261198 
L 294.481916 144.370035 
L 295.520451 139.721783 
L 296.551078 136.405556 
L 297.063124 135.270998 
L 298.080502 135.171403 
L 322.434414 135.157608 
L 322.876923 134.857203 
L 323.322124 134.288243 
L 323.769676 131.305098 
L 324.219342 129.940129 
L 325.124822 139.51294 
L 325.580682 130.465708 
L 326.038673 112.763752 
L 326.498768 100.045198 
L 326.960706 92.592274 
L 327.423984 88.983903 
L 327.888123 88.927064 
L 328.352686 91.898135 
L 328.817293 95.732815 
L 329.281619 97.289555 
L 329.745367 94.99853 
L 331.130478 80.704798 
L 331.589447 78.691069 
L 332.046885 78.625019 
L 332.50281 80.1816 
L 333.410396 84.87977 
L 333.862215 86.401402 
L 334.312795 86.334461 
L 334.762134 84.316089 
L 336.102106 74.71299 
L 336.546024 72.542637 
L 336.988585 71.074188 
L 337.4298 70.256746 
L 337.86972 69.757379 
L 338.308453 68.945497 
L 338.746117 67.247761 
L 340.052934 60.632291 
L 341.77995 53.802255 
L 342.635936 51.246089 
L 343.486317 49.569478 
L 344.330436 48.549051 
L 345.168108 48.017241 
L 346.000244 47.862987 
L 346.828756 47.980718 
L 348.070136 48.509875 
L 349.739403 49.331996 
L 350.161399 49.990627 
L 350.585537 51.682823 
L 351.011781 55.696393 
L 351.440015 63.735176 
L 352.301939 93.269244 
L 352.735381 108.363734 
L 353.170472 116.934793 
L 353.607268 118.382925 
L 354.045837 117.665399 
L 354.486268 121.264046 
L 355.819571 156.539848 
L 356.268125 156.303574 
L 356.718713 152.399966 
L 357.171313 147.251144 
L 357.625893 143.675144 
L 358.08241 143.916899 
L 358.540816 146.457592 
L 359.001063 148.381768 
L 359.463098 148.905611 
L 359.926879 148.30045 
L 360.392385 146.305308 
L 361.328576 137.712402 
L 361.799266 136.014392 
L 362.271688 138.62899 
L 362.74584 142.129368 
L 363.22167 142.941738 
L 363.698801 139.129713 
L 364.654747 124.116955 
L 365.132503 122.622053 
L 365.609472 125.856563 
L 366.085219 130.41285 
L 366.559327 131.029257 
L 367.031404 126.231055 
L 367.50109 119.68943 
L 367.968044 115.43423 
L 368.431948 115.210242 
L 368.892514 118.521252 
L 369.349488 122.771395 
L 369.802644 124.540861 
L 370.251795 122.33961 
L 371.13745 114.287561 
L 371.573668 113.521676 
L 372.005323 115.801953 
L 372.854678 122.481955 
L 373.272331 122.355615 
L 374.498496 115.01141 
L 374.898828 115.792527 
L 375.687367 120.446537 
L 376.075617 120.670944 
L 376.459855 118.286833 
L 377.216357 111.796128 
L 377.588642 110.474617 
L 377.957019 110.075517 
L 378.321644 108.921136 
L 378.682771 105.538335 
L 379.747962 89.880423 
L 380.445266 83.77353 
L 380.790656 81.080318 
L 381.134141 77.272318 
L 381.815909 65.201904 
L 382.490071 52.964937 
L 383.154519 45.501636 
L 383.80731 41.654978 
L 384.447494 39.515443 
L 385.074592 38.214961 
L 385.6881 37.429521 
L 386.287698 36.997405 
L 386.87311 36.841818 
L 387.443985 36.93235 
L 388.000306 37.294605 
L 388.542667 37.968086 
L 389.072112 38.914565 
L 389.590053 40.173848 
L 390.349077 42.623394 
L 391.820846 47.642496 
L 393.021656 50.790269 
L 394.474168 53.84866 
L 395.732433 55.98059 
L 396.787863 57.280966 
L 397.3343 57.739566 
L 397.893555 57.946727 
L 398.177849 57.905446 
L 398.75532 57.555751 
L 399.048323 58.084921 
L 399.344101 62.398586 
L 399.642689 77.2821 
L 400.555512 164.155312 
L 400.865456 164.404778 
L 401.178484 152.807377 
L 401.494854 135.640412 
L 401.81467 131.368544 
L 402.137974 144.701097 
L 402.464837 153.477433 
L 402.795228 152.669148 
L 403.466044 147.309413 
L 404.149514 143.850473 
L 404.845059 141.07706 
L 405.197173 140.644099 
L 405.552078 141.336212 
L 406.270005 143.761144 
L 406.632921 144.221987 
L 406.998429 142.909511 
L 407.366513 138.21067 
L 407.737161 131.244403 
L 408.110351 128.434768 
L 408.486065 130.851024 
L 408.864289 135.846919 
L 409.245006 137.313813 
L 409.628194 132.901033 
L 410.01383 125.872786 
L 410.401882 121.477999 
L 410.792318 121.546722 
L 411.185113 125.751525 
L 411.580246 131.384013 
L 411.97754 133.993297 
L 412.376451 131.802959 
L 412.776367 127.727292 
L 413.176722 125.77531 
L 413.577007 127.976763 
L 414.375606 139.732203 
L 414.773148 141.795664 
L 415.169057 140.368658 
L 415.563028 137.980267 
L 415.954792 137.799612 
L 416.344124 140.884182 
L 417.114801 148.593673 
L 417.49589 149.490972 
L 417.87404 148.412772 
L 418.249211 146.822616 
L 418.621364 146.423191 
L 418.990443 147.875232 
L 419.71902 152.354547 
L 420.078322 153.198955 
L 420.434186 152.8394 
L 420.786518 151.949452 
L 421.135209 151.667529 
L 421.480164 152.65612 
L 422.491954 157.90073 
L 423.46847 160.508357 
L 423.786169 161.297177 
L 424.100097 161.757445 
L 424.410434 161.696743 
L 424.717444 161.075973 
L 425.021416 159.943504 
L 425.621413 156.526796 
L 426.504448 151.359347 
L 427.367336 147.870183 
L 428.209662 145.419674 
L 429.301903 142.966307 
L 430.364073 141.08592 
L 431.397244 139.671051 
L 432.628845 138.385226 
L 434.868464 136.387442 
L 435.71394 135.930743 
L 436.756956 135.40658 
L 437.17233 135.171403 
L 444.969946 135.154774 
L 445.496186 134.778408 
L 445.764988 135.581606 
L 446.594059 140.02534 
L 446.877851 138.363752 
L 447.456171 125.048719 
L 447.750535 122.336464 
L 448.048261 124.204955 
L 448.653569 132.579801 
L 448.961042 130.591283 
L 449.585344 121.909904 
L 449.902071 122.014171 
L 450.221801 125.956852 
L 450.870176 135.711923 
L 451.198773 135.330165 
L 451.864666 129.952643 
L 452.201913 130.994573 
L 452.884905 139.226047 
L 453.230613 140.563202 
L 453.579099 139.148318 
L 453.930338 136.580401 
L 454.284306 135.080082 
L 454.640977 135.844191 
L 455.362327 139.634354 
L 455.72687 139.56072 
L 456.093625 137.666534 
L 456.462101 134.963209 
L 456.831741 133.187466 
L 457.202017 133.353277 
L 457.572448 134.687583 
L 457.9426 135.362584 
L 458.312079 134.098932 
L 459.04765 128.436555 
L 459.413126 126.967265 
L 459.776701 126.914143 
L 460.138169 127.305621 
L 460.497363 126.887246 
L 460.85414 125.151715 
L 461.559974 120.364212 
L 461.908867 118.785244 
L 462.939263 116.112519 
L 463.6134 112.614535 
L 464.278432 108.494313 
L 464.935425 105.801524 
L 465.585415 102.950354 
L 466.229612 97.4413 
L 468.146236 74.981504 
L 469.743345 54.619796 
L 470.378598 49.796924 
L 471.005069 47.222087 
L 471.313677 46.546112 
L 471.61897 46.173456 
L 471.921004 46.010815 
L 472.219924 46.008171 
L 472.515953 46.160043 
L 473.10049 46.878552 
L 473.964211 48.648596 
L 475.677467 52.365529 
L 476.540312 53.737866 
L 477.41491 54.80714 
L 478.307576 55.542646 
L 479.222893 56.056863 
L 479.533563 56.994819 
L 479.847166 60.052242 
L 480.163746 67.970845 
L 480.483307 83.548362 
L 481.131133 128.657014 
L 481.459206 140.412004 
L 481.790056 137.741778 
L 482.123759 128.166247 
L 482.460369 124.635366 
L 482.799917 133.432698 
L 483.142456 148.636 
L 483.48802 155.552151 
L 483.836569 155.367002 
L 484.188044 152.279831 
L 484.899608 143.134863 
L 485.259601 140.913614 
L 485.622324 142.304329 
L 485.987721 144.94136 
L 486.355736 146.607519 
L 486.726316 146.867086 
L 487.099419 145.461954 
L 487.475021 141.684071 
L 487.853108 136.281626 
L 488.23366 133.30926 
L 488.616657 135.461246 
L 489.002082 139.731068 
L 489.389917 141.890135 
L 489.780143 140.016055 
L 490.567721 128.35931 
L 490.965045 127.05237 
L 491.364607 130.383679 
L 491.765885 135.852242 
L 492.168204 138.442389 
L 492.57096 136.453663 
L 492.973627 131.661593 
L 493.375726 128.723671 
L 493.776821 130.21808 
L 494.574446 140.442911 
L 494.970281 141.977138 
L 495.363721 140.14952 
L 495.754511 137.175445 
L 496.142435 136.19752 
L 496.527311 138.568387 
L 497.287327 145.538215 
L 497.66226 146.127739 
L 498.033738 144.680365 
L 498.401745 142.716064 
L 498.766277 142.050303 
L 499.127339 143.40191 
L 499.839118 147.910086 
L 500.189918 148.625259 
L 500.881968 147.484125 
L 501.22361 147.852795 
L 501.562609 149.723926 
L 502.233632 155.008054 
L 502.897304 158.100881 
L 503.22722 159.002505 
L 503.556237 159.574524 
L 503.884562 159.707303 
L 504.212348 159.297535 
L 504.539684 158.235439 
L 505.193216 154.203025 
L 506.17064 147.154118 
L 507.137566 141.567201 
L 508.082172 137.290745 
L 508.695752 135.171403 
L 519.228878 135.144297 
L 519.550421 134.868356 
L 519.875267 134.346541 
L 520.203454 134.358213 
L 520.535032 135.685572 
L 520.870087 139.414434 
L 521.208659 141.832787 
L 521.550738 137.841204 
L 522.245237 115.849115 
L 522.597462 112.865642 
L 522.952838 116.65677 
L 523.672619 135.342792 
L 524.036784 134.881044 
L 524.773196 120.473824 
L 525.145329 119.510745 
L 525.52003 124.580832 
L 526.277093 141.00514 
L 526.659444 141.828437 
L 527.431821 132.292027 
L 527.821822 131.285191 
L 528.214315 135.758928 
L 528.609262 141.751497 
L 529.006624 144.945605 
L 529.406365 144.468245 
L 530.212905 137.569967 
L 530.619651 136.679335 
L 531.028676 139.337738 
L 531.439958 142.936575 
L 531.853471 144.853558 
L 532.269184 144.295573 
L 533.107088 138.992943 
L 533.529227 138.130479 
L 533.953432 139.945179 
L 534.379632 142.839693 
L 534.807741 144.832471 
L 535.237524 145.223753 
L 536.099714 143.243328 
L 536.530942 143.277387 
L 536.961562 145.209154 
L 537.819354 150.996498 
L 538.245967 152.447323 
L 538.670855 152.48169 
L 539.093986 151.364526 
L 539.515367 149.671342 
L 539.934891 148.529838 
L 540.35241 148.900794 
L 541.180777 152.366035 
L 541.591392 153.150267 
L 541.99955 152.454619 
L 542.808111 148.188275 
L 543.20819 147.547349 
L 543.605316 149.123054 
L 544.39043 153.807724 
L 544.778286 154.667612 
L 545.162954 154.534666 
L 545.544455 154.1159 
L 545.92282 154.304273 
L 546.29807 155.661683 
L 547.039226 159.779341 
L 547.405116 160.747333 
L 547.76789 160.665057 
L 548.1276 159.83085 
L 548.838265 157.101678 
L 549.884547 151.692567 
L 550.908878 146.938757 
L 551.909476 143.646206 
L 554.765061 135.718594 
L 555.06979 135.171403 
L 559.151376 135.189039 
L 559.70727 136.329623 
L 560.254397 137.0877 
L 560.792354 137.544123 
L 561.321 137.672768 
L 561.840495 137.480296 
L 563.102816 136.601487 
L 563.35004 136.69501 
L 563.596074 137.081897 
L 564.085976 138.942693 
L 564.575573 141.653434 
L 565.568296 149.1213 
L 565.822193 149.579163 
L 566.3401 148.460655 
L 566.604627 149.074509 
L 566.872901 150.364675 
L 567.144764 151.120716 
L 567.419923 150.906933 
L 567.978313 148.654203 
L 569.958186 138.451518 
L 570.51995 136.655032 
L 571.080875 135.554197 
L 571.361676 135.224187 
L 572.208717 135.171403 
L 572.780094 135.171403 
L 573.068619 135.317595 
L 573.652445 136.298907 
L 574.54726 138.796866 
L 575.157522 140.365225 
L 575.466913 140.752668 
L 575.779177 140.725407 
L 576.094326 140.212819 
L 577.383848 136.692018 
L 578.045881 135.926885 
L 579.060093 133.870561 
L 579.403695 133.809273 
L 579.750007 133.977877 
L 580.099 133.943908 
L 580.450646 133.560154 
L 581.161812 132.554065 
L 582.247585 132.0865 
L 583.719951 129.728477 
L 584.089524 129.679527 
L 584.458854 129.492442 
L 584.827583 128.834914 
L 585.926906 125.641503 
L 586.290072 125.107143 
L 587.009953 124.346335 
L 587.366254 123.486624 
L 587.719928 121.961981 
L 589.446516 112.207791 
L 589.783194 110.778266 
L 590.44788 106.350324 
L 591.424517 99.112258 
L 591.744853 97.717437 
L 592.37804 95.976374 
L 592.691118 94.493198 
L 593.310903 89.221196 
L 595.434676 67.163536 
L 596.341485 57.180152 
L 596.947723 51.968561 
L 597.553153 48.28728 
L 598.153921 45.946035 
L 598.746076 44.742329 
L 599.037774 44.538357 
L 599.326031 44.545712 
L 599.610602 44.718632 
L 600.16848 45.566249 
L 600.713185 46.994197 
L 602.56835 52.697598 
L 603.362359 54.128247 
L 604.166322 55.089831 
L 606.383199 57.354071 
L 606.669824 58.261839 
L 606.959078 60.19308 
L 607.251196 64.125261 
L 607.546436 71.262348 
L 608.147103 96.094408 
L 608.761939 118.29338 
L 609.074758 121.643604 
L 609.391236 122.666607 
L 609.711359 126.102274 
L 610.692777 151.772209 
L 611.026602 152.656413 
L 612.046917 146.862878 
L 612.393124 147.166755 
L 612.742315 148.062386 
L 613.094457 148.443445 
L 613.449528 148.151737 
L 614.532292 145.975974 
L 616.770757 141.826585 
L 617.534381 140.785268 
L 618.305202 140.057998 
L 619.082828 139.584877 
L 619.867127 139.334048 
L 620.657784 139.269691 
L 621.45423 139.359401 
L 622.256202 139.659978 
L 623.063949 140.331976 
L 624.288342 141.781674 
L 625.114205 143.207171 
L 625.530201 143.980755 
L 625.948286 144.438852 
L 626.368486 144.347744 
L 627.215274 143.146016 
L 627.641848 142.90399 
L 628.070514 143.209135 
L 628.934034 144.760189 
L 629.368824 145.215636 
L 629.805584 145.203729 
L 630.244299 144.92949 
L 630.684964 144.851756 
L 631.127545 145.368716 
L 632.465984 148.452147 
L 632.915424 148.782695 
L 633.366409 148.75004 
L 633.818909 148.474929 
L 634.728414 147.652378 
L 635.185432 147.729961 
L 636.104014 148.210017 
L 637.028616 148.208142 
L 637.493095 148.281542 
L 637.958922 148.210609 
L 638.425936 147.82269 
L 638.893894 146.92107 
L 639.831605 144.054674 
L 641.241996 139.4162 
L 641.714536 138.230023 
L 642.188859 137.445174 
L 642.665061 137.112284 
L 643.143217 137.222674 
L 643.623163 137.757394 
L 644.104757 138.681639 
L 645.072606 141.496121 
L 645.558712 143.165792 
L 646.046263 144.356687 
L 646.535293 142.928356 
L 647.517997 127.440023 
L 648.011737 127.658675 
L 649.004106 143.640721 
L 649.50274 142.533463 
L 650.50494 118.392229 
L 651.008516 113.3466 
L 651.513715 116.035911 
L 652.52897 136.233713 
L 653.038998 136.81591 
L 654.063778 117.724494 
L 654.578504 114.172085 
L 655.094758 118.074837 
L 656.131847 139.330378 
L 656.652668 140.742577 
L 657.698816 124.018911 
L 658.22413 121.229664 
L 658.750919 126.384192 
L 659.279183 137.446057 
L 659.808918 144.501776 
L 660.340108 143.670347 
L 661.406829 127.814188 
L 661.942348 126.437756 
L 662.479293 132.751946 
L 663.017657 141.812064 
L 663.557426 145.707958 
L 664.098583 143.270608 
L 665.185046 129.905946 
L 665.730344 130.832252 
L 666.825027 145.561568 
L 667.374385 147.654987 
L 667.925075 144.374917 
L 669.030476 130.599081 
L 669.58518 131.475229 
L 670.698566 144.805836 
L 671.257235 145.792843 
L 671.817203 141.122361 
L 672.378467 132.658569 
L 672.941024 127.683836 
L 673.504863 129.588145 
L 674.069979 136.774645 
L 674.636368 142.126513 
L 675.204017 141.573167 
L 676.34308 127.266921 
L 676.914485 124.834877 
L 677.487127 128.748552 
L 678.061004 136.487205 
L 678.63611 140.753637 
L 679.212434 138.479201 
L 679.513182 134.942053 
L 679.513182 134.942053 
" clip-path="url(#p359fb68315)" style="fill: none; stroke: #d62728; stroke-opacity: 0.8; stroke-width: 0.9; stroke-linecap: square"/>
   </g>
   <g id="patch_3">
    <path d="M 56.09 246.04 
L 56.09 26.88 
" style="fill: none; stroke: #000000; stroke-width: 0.8; stroke-linejoin: miter; stroke-linecap: square"/>
   </g>
   <g id="patch_4">
    <path d="M 709.2 246.04 
L 709.2 26.88 
" style="fill: none; stroke: #000000; stroke-width: 0.8; stroke-linejoin: miter; stroke-linecap: square"/>
   </g>
   <g id="patch_5">
    <path d="M 56.09 246.04 
L 709.2 246.04 
" style="fill: none; stroke: #000000; stroke-width: 0.8; stroke-linejoin: miter; stroke-linecap: square"/>
   </g>
   <g id="patch_6">
    <path d="M 56.09 26.88 
L 709.2 26.88 
" style="fill: none; stroke: #000000; stroke-width: 0.8; stroke-linejoin: miter; stroke-linecap: square"/>
   </g>
   <g id="text_15">
    <!-- steering-link loads over one Ring Knutstorp lap -->
    <g transform="translate(241.40875 20.88) scale(0.12 -0.12)">
     <defs>
      <path id="DejaVuSans-67" d="M 2906 1791 
Q 2906 2416 2648 2759 
Q 2391 3103 1925 3103 
Q 1463 3103 1205 2759 
Q 947 2416 947 1791 
Q 947 1169 1205 825 
Q 1463 481 1925 481 
Q 2391 481 2648 825 
Q 2906 1169 2906 1791 
z
M 3481 434 
Q 3481 -459 3084 -895 
Q 2688 -1331 1869 -1331 
Q 1566 -1331 1297 -1286 
Q 1028 -1241 775 -1147 
L 775 -588 
Q 1028 -725 1275 -790 
Q 1522 -856 1778 -856 
Q 2344 -856 2625 -561 
Q 2906 -266 2906 331 
L 2906 616 
Q 2728 306 2450 153 
Q 2172 0 1784 0 
Q 1141 0 747 490 
Q 353 981 353 1791 
Q 353 2603 747 3093 
Q 1141 3584 1784 3584 
Q 2172 3584 2450 3431 
Q 2728 3278 2906 2969 
L 2906 3500 
L 3481 3500 
L 3481 434 
z
" transform="scale(0.015625)"/>
      <path id="DejaVuSans-6c" d="M 603 4863 
L 1178 4863 
L 1178 0 
L 603 0 
L 603 4863 
z
" transform="scale(0.015625)"/>
      <path id="DejaVuSans-76" d="M 191 3500 
L 800 3500 
L 1894 563 
L 2988 3500 
L 3597 3500 
L 2284 0 
L 1503 0 
L 191 3500 
z
" transform="scale(0.015625)"/>
      <path id="DejaVuSans-52" d="M 2841 2188 
Q 3044 2119 3236 1894 
Q 3428 1669 3622 1275 
L 4263 0 
L 3584 0 
L 2988 1197 
Q 2756 1666 2539 1819 
Q 2322 1972 1947 1972 
L 1259 1972 
L 1259 0 
L 628 0 
L 628 4666 
L 2053 4666 
Q 2853 4666 3247 4331 
Q 3641 3997 3641 3322 
Q 3641 2881 3436 2590 
Q 3231 2300 2841 2188 
z
M 1259 4147 
L 1259 2491 
L 2053 2491 
Q 2509 2491 2742 2702 
Q 2975 2913 2975 3322 
Q 2975 3731 2742 3939 
Q 2509 4147 2053 4147 
L 1259 4147 
z
" transform="scale(0.015625)"/>
      <path id="DejaVuSans-4b" d="M 628 4666 
L 1259 4666 
L 1259 2694 
L 3353 4666 
L 4166 4666 
L 1850 2491 
L 4331 0 
L 3500 0 
L 1259 2247 
L 1259 0 
L 628 0 
L 628 4666 
z
" transform="scale(0.015625)"/>
      <path id="DejaVuSans-75" d="M 544 1381 
L 544 3500 
L 1119 3500 
L 1119 1403 
Q 1119 906 1312 657 
Q 1506 409 1894 409 
Q 2359 409 2629 706 
Q 2900 1003 2900 1516 
L 2900 3500 
L 3475 3500 
L 3475 0 
L 2900 0 
L 2900 538 
Q 2691 219 2414 64 
Q 2138 -91 1772 -91 
Q 1169 -91 856 284 
Q 544 659 544 1381 
z
M 1991 3584 
L 1991 3584 
z
" transform="scale(0.015625)"/>
      <path id="DejaVuSans-70" d="M 1159 525 
L 1159 -1331 
L 581 -1331 
L 581 3500 
L 1159 3500 
L 1159 2969 
Q 1341 3281 1617 3432 
Q 1894 3584 2278 3584 
Q 2916 3584 3314 3078 
Q 3713 2572 3713 1747 
Q 3713 922 3314 415 
Q 2916 -91 2278 -91 
Q 1894 -91 1617 61 
Q 1341 213 1159 525 
z
M 3116 1747 
Q 3116 2381 2855 2742 
Q 2594 3103 2138 3103 
Q 1681 3103 1420 2742 
Q 1159 2381 1159 1747 
Q 1159 1113 1420 752 
Q 1681 391 2138 391 
Q 2594 391 2855 752 
Q 3116 1113 3116 1747 
z
" transform="scale(0.015625)"/>
     </defs>
     <use xlink:href="#DejaVuSans-73"/>
     <use xlink:href="#DejaVuSans-74" transform="translate(52.099609 0)"/>
     <use xlink:href="#DejaVuSans-65" transform="translate(91.308594 0)"/>
     <use xlink:href="#DejaVuSans-65" transform="translate(152.832031 0)"/>
     <use xlink:href="#DejaVuSans-72" transform="translate(214.355469 0)"/>
     <use xlink:href="#DejaVuSans-69" transform="translate(255.46875 0)"/>
     <use xlink:href="#DejaVuSans-6e" transform="translate(283.251953 0)"/>
     <use xlink:href="#DejaVuSans-67" transform="translate(346.630859 0)"/>
     <use xlink:href="#DejaVuSans-2d" transform="translate(410.107422 0)"/>
     <use xlink:href="#DejaVuSans-6c" transform="translate(446.191406 0)"/>
     <use xlink:href="#DejaVuSans-69" transform="translate(473.974609 0)"/>
     <use xlink:href="#DejaVuSans-6e" transform="translate(501.757812 0)"/>
     <use xlink:href="#DejaVuSans-6b" transform="translate(565.136719 0)"/>
     <use xlink:href="#DejaVuSans-20" transform="translate(623.046875 0)"/>
     <use xlink:href="#DejaVuSans-6c" transform="translate(654.833984 0)"/>
     <use xlink:href="#DejaVuSans-6f" transform="translate(682.617188 0)"/>
     <use xlink:href="#DejaVuSans-61" transform="translate(743.798828 0)"/>
     <use xlink:href="#DejaVuSans-64" transform="translate(805.078125 0)"/>
     <use xlink:href="#DejaVuSans-73" transform="translate(868.554688 0)"/>
     <use xlink:href="#DejaVuSans-20" transform="translate(920.654297 0)"/>
     <use xlink:href="#DejaVuSans-6f" transform="translate(952.441406 0)"/>
     <use xlink:href="#DejaVuSans-76" transform="translate(1013.623047 0)"/>
     <use xlink:href="#DejaVuSans-65" transform="translate(1072.802734 0)"/>
     <use xlink:href="#DejaVuSans-72" transform="translate(1134.326172 0)"/>
     <use xlink:href="#DejaVuSans-20" transform="translate(1175.439453 0)"/>
     <use xlink:href="#DejaVuSans-6f" transform="translate(1207.226562 0)"/>
     <use xlink:href="#DejaVuSans-6e" transform="translate(1268.408203 0)"/>
     <use xlink:href="#DejaVuSans-65" transform="translate(1331.787109 0)"/>
     <use xlink:href="#DejaVuSans-20" transform="translate(1393.310547 0)"/>
     <use xlink:href="#DejaVuSans-52" transform="translate(1425.097656 0)"/>
     <use xlink:href="#DejaVuSans-69" transform="translate(1494.580078 0)"/>
     <use xlink:href="#DejaVuSans-6e" transform="translate(1522.363281 0)"/>
     <use xlink:href="#DejaVuSans-67" transform="translate(1585.742188 0)"/>
     <use xlink:href="#DejaVuSans-20" transform="translate(1649.21875 0)"/>
     <use xlink:href="#DejaVuSans-4b" transform="translate(1681.005859 0)"/>
     <use xlink:href="#DejaVuSans-6e" transform="translate(1746.582031 0)"/>
     <use xlink:href="#DejaVuSans-75" transform="translate(1809.960938 0)"/>
     <use xlink:href="#DejaVuSans-74" transform="translate(1873.339844 0)"/>
     <use xlink:href="#DejaVuSans-73" transform="translate(1912.548828 0)"/>
     <use xlink:href="#DejaVuSans-74" transform="translate(1964.648438 0)"/>
     <use xlink:href="#DejaVuSans-6f" transform="translate(2003.857422 0)"/>
     <use xlink:href="#DejaVuSans-72" transform="translate(2065.039062 0)"/>
     <use xlink:href="#DejaVuSans-70" transform="translate(2106.152344 0)"/>
     <use xlink:href="#DejaVuSans-20" transform="translate(2169.628906 0)"/>
     <use xlink:href="#DejaVuSans-6c" transform="translate(2201.416016 0)"/>
     <use xlink:href="#DejaVuSans-61" transform="translate(2229.199219 0)"/>
     <use xlink:href="#DejaVuSans-70" transform="translate(2290.478516 0)"/>
    </g>
   </g>
   <g id="legend_1">
    <g id="patch_7">
     <path d="M 630.755 56.765 
L 703.6 56.765 
Q 705.2 56.765 705.2 55.165 
L 705.2 32.48 
Q 705.2 30.88 703.6 30.88 
L 630.755 30.88 
Q 629.155 30.88 629.155 32.48 
L 629.155 55.165 
Q 629.155 56.765 630.755 56.765 
z
" style="fill: #ffffff; opacity: 0.8; stroke: #cccccc; stroke-linejoin: miter"/>
    </g>
    <g id="line2d_27">
     <path d="M 632.355 37.35875 
L 640.355 37.35875 
L 648.355 37.35875 
" style="fill: none; stroke: #2ca02c; stroke-width: 0.9; stroke-linecap: square"/>
    </g>
    <g id="text_16">
     <!-- tie rod left -->
     <g transform="translate(654.755 40.15875) scale(0.08 -0.08)">
      <use xlink:href="#DejaVuSans-74"/>
      <use xlink:href="#DejaVuSans-69" transform="translate(39.208984 0)"/>
      <use xlink:href="#DejaVuSans-65" transform="translate(66.992188 0)"/>
      <use xlink:href="#DejaVuSans-20" transform="translate(128.515625 0)"/>
      <use xlink:href="#DejaVuSans-72" transform="translate(160.302734 0)"/>
      <use xlink:href="#DejaVuSans-6f" transform="translate(199.166016 0)"/>
      <use xlink:href="#DejaVuSans-64" transform="translate(260.347656 0)"/>
      <use xlink:href="#DejaVuSans-20" transform="translate(323.824219 0)"/>
      <use xlink:href="#DejaVuSans-6c" transform="translate(355.611328 0)"/>
      <use xlink:href="#DejaVuSans-65" transform="translate(383.394531 0)"/>
      <use xlink:href="#DejaVuSans-66" transform="translate(444.917969 0)"/>
      <use xlink:href="#DejaVuSans-74" transform="translate(478.373047 0)"/>
     </g>
    </g>
    <g id="line2d_28">
     <path d="M 632.355 49.10125 
L 640.355 49.10125 
L 648.355 49.10125 
" style="fill: none; stroke: #d62728; stroke-opacity: 0.8; stroke-width: 0.9; stroke-linecap: square"/>
    </g>
    <g id="text_17">
     <!-- tie rod right -->
     <g transform="translate(654.755 51.90125) scale(0.08 -0.08)">
      <defs>
       <path id="DejaVuSans-68" d="M 3513 2113 
L 3513 0 
L 2938 0 
L 2938 2094 
Q 2938 2591 2744 2837 
Q 2550 3084 2163 3084 
Q 1697 3084 1428 2787 
Q 1159 2491 1159 1978 
L 1159 0 
L 581 0 
L 581 4863 
L 1159 4863 
L 1159 2956 
Q 1366 3272 1645 3428 
Q 1925 3584 2291 3584 
Q 2894 3584 3203 3211 
Q 3513 2838 3513 2113 
z
" transform="scale(0.015625)"/>
      </defs>
      <use xlink:href="#DejaVuSans-74"/>
      <use xlink:href="#DejaVuSans-69" transform="translate(39.208984 0)"/>
      <use xlink:href="#DejaVuSans-65" transform="translate(66.992188 0)"/>
      <use xlink:href="#DejaVuSans-20" transform="translate(128.515625 0)"/>
      <use xlink:href="#DejaVuSans-72" transform="translate(160.302734 0)"/>
      <use xlink:href="#DejaVuSans-6f" transform="translate(199.166016 0)"/>
      <use xlink:href="#DejaVuSans-64" transform="translate(260.347656 0)"/>
      <use xlink:href="#DejaVuSans-20" transform="translate(323.824219 0)"/>
      <use xlink:href="#DejaVuSans-72" transform="translate(355.611328 0)"/>
      <use xlink:href="#DejaVuSans-69" transform="translate(396.724609 0)"/>
      <use xlink:href="#DejaVuSans-67" transform="translate(424.507812 0)"/>
      <use xlink:href="#DejaVuSans-68" transform="translate(487.984375 0)"/>
      <use xlink:href="#DejaVuSans-74" transform="translate(551.363281 0)"/>
     </g>
    </g>
   </g>
  </g>
 </g>
 <defs>
  <clipPath id="p359fb68315">
   <rect x="56.09" y="26.88" width="653.11" height="219.16"/>
  </clipPath>
 </defs>
</svg>
