<?xml version="1.0" encoding="utf-8" standalone="no"?>
<!DOCTYPE svg PUBLIC "-//W3C//DTD SVG 1.1//EN"
  "http://www.w3.org/Graphics/SVG/1.1/DTD/svg11.dtd">
<svg xmlns:xlink="http://www.w3.org/1999/xlink" width="720pt" height="288pt" viewBox="0 0 720 288" xmlns="http://www.w3.org/2000/svg" version="1.1">
 <metadata>
  <rdf:RDF xmlns:dc="http://purl.org/dc/elements/1.1/" xmlns:cc="http://creativecommons.org/ns#" xmlns:rdf="http://www.w3.org/1999/02/22-rdf-syntax-ns#">
   <cc:Work>
    <dc:type rdf:resource="http://purl.org/dc/dcmitype/StillImage"/>
    <dc:date>2026-07-12T14:41:22.920791</dc:date>
    <dc:format>image/svg+xml</dc:format>
    <dc:creator>
     <cc:Agent>
      <dc:title>Matplotlib v3.10.8, https://matplotlib.org/</dc:title>
     </cc:Agent>
    </dc:creator>
   </cc:Work>
  </rdf:RDF>
 </metadata>
 <defs>
  <style type="text/css">*{stroke-linejoin: round; stroke-linecap: butt}</style>
 </defs>
 <g id="figure_1">
  <g id="patch_1">
   <path d="M 0 288 
L 720 288 
L 720 0 
L 0 0 
z
" style="fill: #ffffff"/>
  </g>
  <g id="axes_1">
   <g id="patch_2">
    <path d="M 56.09 246.04 
L 709.2 246.04 
L 709.2 26.88 
L 56.09 26.88 
z
" style="fill: #ffffff"/>
   </g>
   <g id="matplotlib.axis_1">
    <g id="xtick_1">
     <g id="line2d_1">
      <path d="M 85.776818 246.04 
L 85.776818 26.88 
" clip-path="url(#p98da03b00d)" style="fill: none; stroke: #b0b0b0; stroke-opacity: 0.3; stroke-width: 0.8; stroke-linecap: square"/>
     </g>
     <g id="line2d_2">
      <defs>
       <path id="m317895bffc" d="M 0 0 
L 0 3.5 
" style="stroke: #000000; stroke-width: 0.8"/>
      </defs>
      <g>
       <use xlink:href="#m317895bffc" x="85.776818" y="246.04" style="stroke: #000000; stroke-width: 0.8"/>
      </g>
     </g>
     <g id="text_1">
      <!-- 0.0 -->
      <g transform="translate(77.825256 260.638438) scale(0.1 -0.1)">
       <defs>
        <path id="DejaVuSans-30" d="M 2034 4250 
Q 1547 4250 1301 3770 
Q 1056 3291 1056 2328 
Q 1056 1369 1301 889 
Q 1547 409 2034 409 
Q 2525 409 2770 889 
Q 3016 1369 3016 2328 
Q 3016 3291 2770 3770 
Q 2525 4250 2034 4250 
z
M 2034 4750 
Q 2819 4750 3233 4129 
Q 3647 3509 3647 2328 
Q 3647 1150 3233 529 
Q 2819 -91 2034 -91 
Q 1250 -91 836 529 
Q 422 1150 422 2328 
Q 422 3509 836 4129 
Q 1250 4750 2034 4750 
z
" transform="scale(0.015625)"/>
        <path id="DejaVuSans-2e" d="M 684 794 
L 1344 794 
L 1344 0 
L 684 0 
L 684 794 
z
" transform="scale(0.015625)"/>
       </defs>
       <use xlink:href="#DejaVuSans-30"/>
       <use xlink:href="#DejaVuSans-2e" transform="translate(63.623047 0)"/>
       <use xlink:href="#DejaVuSans-30" transform="translate(95.410156 0)"/>
      </g>
     </g>
    </g>
    <g id="xtick_2">
     <g id="line2d_3">
      <path d="M 230.505846 246.04 
L 230.505846 26.88 
" clip-path="url(#p98da03b00d)" style="fill: none; stroke: #b0b0b0; stroke-opacity: 0.3; stroke-width: 0.8; stroke-linecap: square"/>
     </g>
     <g id="line2d_4">
      <g>
       <use xlink:href="#m317895bffc" x="230.505846" y="246.04" style="stroke: #000000; stroke-width: 0.8"/>
      </g>
     </g>
     <g id="text_2">
      <!-- 0.5 -->
      <g transform="translate(222.554283 260.638438) scale(0.1 -0.1)">
       <defs>
        <path id="DejaVuSans-35" d="M 691 4666 
L 3169 4666 
L 3169 4134 
L 1269 4134 
L 1269 2991 
Q 1406 3038 1543 3061 
Q 1681 3084 1819 3084 
Q 2600 3084 3056 2656 
Q 3513 2228 3513 1497 
Q 3513 744 3044 326 
Q 2575 -91 1722 -91 
Q 1428 -91 1123 -41 
Q 819 9 494 109 
L 494 744 
Q 775 591 1075 516 
Q 1375 441 1709 441 
Q 2250 441 2565 725 
Q 2881 1009 2881 1497 
Q 2881 1984 2565 2268 
Q 2250 2553 1709 2553 
Q 1456 2553 1204 2497 
Q 953 2441 691 2322 
L 691 4666 
z
" transform="scale(0.015625)"/>
       </defs>
       <use xlink:href="#DejaVuSans-30"/>
       <use xlink:href="#DejaVuSans-2e" transform="translate(63.623047 0)"/>
       <use xlink:href="#DejaVuSans-35" transform="translate(95.410156 0)"/>
      </g>
     </g>
    </g>
    <g id="xtick_3">
     <g id="line2d_5">
      <path d="M 375.234874 246.04 
L 375.234874 26.88 
" clip-path="url(#p98da03b00d)" style="fill: none; stroke: #b0b0b0; stroke-opacity: 0.3; stroke-width: 0.8; stroke-linecap: square"/>
     </g>
     <g id="line2d_6">
      <g>
       <use xlink:href="#m317895bffc" x="375.234874" y="246.04" style="stroke: #000000; stroke-width: 0.8"/>
      </g>
     </g>
     <g id="text_3">
      <!-- 1.0 -->
      <g transform="translate(367.283311 260.638438) scale(0.1 -0.1)">
       <defs>
        <path id="DejaVuSans-31" d="M 794 531 
L 1825 531 
L 1825 4091 
L 703 3866 
L 703 4441 
L 1819 4666 
L 2450 4666 
L 2450 531 
L 3481 531 
L 3481 0 
L 794 0 
L 794 531 
z
" transform="scale(0.015625)"/>
       </defs>
       <use xlink:href="#DejaVuSans-31"/>
       <use xlink:href="#DejaVuSans-2e" transform="translate(63.623047 0)"/>
       <use xlink:href="#DejaVuSans-30" transform="translate(95.410156 0)"/>
      </g>
     </g>
    </g>
    <g id="xtick_4">
     <g id="line2d_7">
      <path d="M 519.963901 246.04 
L 519.963901 26.88 
" clip-path="url(#p98da03b00d)" style="fill: none; stroke: #b0b0b0; stroke-opacity: 0.3; stroke-width: 0.8; stroke-linecap: square"/>
     </g>
     <g id="line2d_8">
      <g>
       <use xlink:href="#m317895bffc" x="519.963901" y="246.04" style="stroke: #000000; stroke-width: 0.8"/>
      </g>
     </g>
     <g id="text_4">
      <!-- 1.5 -->
      <g transform="translate(512.012339 260.638438) scale(0.1 -0.1)">
       <use xlink:href="#DejaVuSans-31"/>
       <use xlink:href="#DejaVuSans-2e" transform="translate(63.623047 0)"/>
       <use xlink:href="#DejaVuSans-35" transform="translate(95.410156 0)"/>
      </g>
     </g>
    </g>
    <g id="xtick_5">
     <g id="line2d_9">
      <path d="M 664.692929 246.04 
L 664.692929 26.88 
" clip-path="url(#p98da03b00d)" style="fill: none; stroke: #b0b0b0; stroke-opacity: 0.3; stroke-width: 0.8; stroke-linecap: square"/>
     </g>
     <g id="line2d_10">
      <g>
       <use xlink:href="#m317895bffc" x="664.692929" y="246.04" style="stroke: #000000; stroke-width: 0.8"/>
      </g>
     </g>
     <g id="text_5">
      <!-- 2.0 -->
      <g transform="translate(656.741367 260.638438) scale(0.1 -0.1)">
       <defs>
        <path id="DejaVuSans-32" d="M 1228 531 
L 3431 531 
L 3431 0 
L 469 0 
L 469 531 
Q 828 903 1448 1529 
Q 2069 2156 2228 2338 
Q 2531 2678 2651 2914 
Q 2772 3150 2772 3378 
Q 2772 3750 2511 3984 
Q 2250 4219 1831 4219 
Q 1534 4219 1204 4116 
Q 875 4013 500 3803 
L 500 4441 
Q 881 4594 1212 4672 
Q 1544 4750 1819 4750 
Q 2544 4750 2975 4387 
Q 3406 4025 3406 3419 
Q 3406 3131 3298 2873 
Q 3191 2616 2906 2266 
Q 2828 2175 2409 1742 
Q 1991 1309 1228 531 
z
" transform="scale(0.015625)"/>
       </defs>
       <use xlink:href="#DejaVuSans-32"/>
       <use xlink:href="#DejaVuSans-2e" transform="translate(63.623047 0)"/>
       <use xlink:href="#DejaVuSans-30" transform="translate(95.410156 0)"/>
      </g>
     </g>
    </g>
    <g id="text_6">
     <!-- distance s [km] -->
     <g transform="translate(344.008281 274.316562) scale(0.1 -0.1)">
      <defs>
       <path id="DejaVuSans-64" d="M 2906 2969 
L 2906 4863 
L 3481 4863 
L 3481 0 
L 2906 0 
L 2906 525 
Q 2725 213 2448 61 
Q 2172 -91 1784 -91 
Q 1150 -91 751 415 
Q 353 922 353 1747 
Q 353 2572 751 3078 
Q 1150 3584 1784 3584 
Q 2172 3584 2448 3432 
Q 2725 3281 2906 2969 
z
M 947 1747 
Q 947 1113 1208 752 
Q 1469 391 1925 391 
Q 2381 391 2643 752 
Q 2906 1113 2906 1747 
Q 2906 2381 2643 2742 
Q 2381 3103 1925 3103 
Q 1469 3103 1208 2742 
Q 947 2381 947 1747 
z
" transform="scale(0.015625)"/>
       <path id="DejaVuSans-69" d="M 603 3500 
L 1178 3500 
L 1178 0 
L 603 0 
L 603 3500 
z
M 603 4863 
L 1178 4863 
L 1178 4134 
L 603 4134 
L 603 4863 
z
" transform="scale(0.015625)"/>
       <path id="DejaVuSans-73" d="M 2834 3397 
L 2834 2853 
Q 2591 2978 2328 3040 
Q 2066 3103 1784 3103 
Q 1356 3103 1142 2972 
Q 928 2841 928 2578 
Q 928 2378 1081 2264 
Q 1234 2150 1697 2047 
L 1894 2003 
Q 2506 1872 2764 1633 
Q 3022 1394 3022 966 
Q 3022 478 2636 193 
Q 2250 -91 1575 -91 
Q 1294 -91 989 -36 
Q 684 19 347 128 
L 347 722 
Q 666 556 975 473 
Q 1284 391 1588 391 
Q 1994 391 2212 530 
Q 2431 669 2431 922 
Q 2431 1156 2273 1281 
Q 2116 1406 1581 1522 
L 1381 1569 
Q 847 1681 609 1914 
Q 372 2147 372 2553 
Q 372 3047 722 3315 
Q 1072 3584 1716 3584 
Q 2034 3584 2315 3537 
Q 2597 3491 2834 3397 
z
" transform="scale(0.015625)"/>
       <path id="DejaVuSans-74" d="M 1172 4494 
L 1172 3500 
L 2356 3500 
L 2356 3053 
L 1172 3053 
L 1172 1153 
Q 1172 725 1289 603 
Q 1406 481 1766 481 
L 2356 481 
L 2356 0 
L 1766 0 
Q 1100 0 847 248 
Q 594 497 594 1153 
L 594 3053 
L 172 3053 
L 172 3500 
L 594 3500 
L 594 4494 
L 1172 4494 
z
" transform="scale(0.015625)"/>
       <path id="DejaVuSans-61" d="M 2194 1759 
Q 1497 1759 1228 1600 
Q 959 1441 959 1056 
Q 959 750 1161 570 
Q 1363 391 1709 391 
Q 2188 391 2477 730 
Q 2766 1069 2766 1631 
L 2766 1759 
L 2194 1759 
z
M 3341 1997 
L 3341 0 
L 2766 0 
L 2766 531 
Q 2569 213 2275 61 
Q 1981 -91 1556 -91 
Q 1019 -91 701 211 
Q 384 513 384 1019 
Q 384 1609 779 1909 
Q 1175 2209 1959 2209 
L 2766 2209 
L 2766 2266 
Q 2766 2663 2505 2880 
Q 2244 3097 1772 3097 
Q 1472 3097 1187 3025 
Q 903 2953 641 2809 
L 641 3341 
Q 956 3463 1253 3523 
Q 1550 3584 1831 3584 
Q 2591 3584 2966 3190 
Q 3341 2797 3341 1997 
z
" transform="scale(0.015625)"/>
       <path id="DejaVuSans-6e" d="M 3513 2113 
L 3513 0 
L 2938 0 
L 2938 2094 
Q 2938 2591 2744 2837 
Q 2550 3084 2163 3084 
Q 1697 3084 1428 2787 
Q 1159 2491 1159 1978 
L 1159 0 
L 581 0 
L 581 3500 
L 1159 3500 
L 1159 2956 
Q 1366 3272 1645 3428 
Q 1925 3584 2291 3584 
Q 2894 3584 3203 3211 
Q 3513 2838 3513 2113 
z
" transform="scale(0.015625)"/>
       <path id="DejaVuSans-63" d="M 3122 3366 
L 3122 2828 
Q 2878 2963 2633 3030 
Q 2388 3097 2138 3097 
Q 1578 3097 1268 2742 
Q 959 2388 959 1747 
Q 959 1106 1268 751 
Q 1578 397 2138 397 
Q 2388 397 2633 464 
Q 2878 531 3122 666 
L 3122 134 
Q 2881 22 2623 -34 
Q 2366 -91 2075 -91 
Q 1284 -91 818 406 
Q 353 903 353 1747 
Q 353 2603 823 3093 
Q 1294 3584 2113 3584 
Q 2378 3584 2631 3529 
Q 2884 3475 3122 3366 
z
" transform="scale(0.015625)"/>
       <path id="DejaVuSans-65" d="M 3597 1894 
L 3597 1613 
L 953 1613 
Q 991 1019 1311 708 
Q 1631 397 2203 397 
Q 2534 397 2845 478 
Q 3156 559 3463 722 
L 3463 178 
Q 3153 47 2828 -22 
Q 2503 -91 2169 -91 
Q 1331 -91 842 396 
Q 353 884 353 1716 
Q 353 2575 817 3079 
Q 1281 3584 2069 3584 
Q 2775 3584 3186 3129 
Q 3597 2675 3597 1894 
z
M 3022 2063 
Q 3016 2534 2758 2815 
Q 2500 3097 2075 3097 
Q 1594 3097 1305 2825 
Q 1016 2553 972 2059 
L 3022 2063 
z
" transform="scale(0.015625)"/>
       <path id="DejaVuSans-20" transform="scale(0.015625)"/>
       <path id="DejaVuSans-5b" d="M 550 4863 
L 1875 4863 
L 1875 4416 
L 1125 4416 
L 1125 -397 
L 1875 -397 
L 1875 -844 
L 550 -844 
L 550 4863 
z
" transform="scale(0.015625)"/>
       <path id="DejaVuSans-6b" d="M 581 4863 
L 1159 4863 
L 1159 1991 
L 2875 3500 
L 3609 3500 
L 1753 1863 
L 3688 0 
L 2938 0 
L 1159 1709 
L 1159 0 
L 581 0 
L 581 4863 
z
" transform="scale(0.015625)"/>
       <path id="DejaVuSans-6d" d="M 3328 2828 
Q 3544 3216 3844 3400 
Q 4144 3584 4550 3584 
Q 5097 3584 5394 3201 
Q 5691 2819 5691 2113 
L 5691 0 
L 5113 0 
L 5113 2094 
Q 5113 2597 4934 2840 
Q 4756 3084 4391 3084 
Q 3944 3084 3684 2787 
Q 3425 2491 3425 1978 
L 3425 0 
L 2847 0 
L 2847 2094 
Q 2847 2600 2669 2842 
Q 2491 3084 2119 3084 
Q 1678 3084 1418 2786 
Q 1159 2488 1159 1978 
L 1159 0 
L 581 0 
L 581 3500 
L 1159 3500 
L 1159 2956 
Q 1356 3278 1631 3431 
Q 1906 3584 2284 3584 
Q 2666 3584 2933 3390 
Q 3200 3197 3328 2828 
z
" transform="scale(0.015625)"/>
       <path id="DejaVuSans-5d" d="M 1947 4863 
L 1947 -844 
L 622 -844 
L 622 -397 
L 1369 -397 
L 1369 4416 
L 622 4416 
L 622 4863 
L 1947 4863 
z
" transform="scale(0.015625)"/>
      </defs>
      <use xlink:href="#DejaVuSans-64"/>
      <use xlink:href="#DejaVuSans-69" transform="translate(63.476562 0)"/>
      <use xlink:href="#DejaVuSans-73" transform="translate(91.259766 0)"/>
      <use xlink:href="#DejaVuSans-74" transform="translate(143.359375 0)"/>
      <use xlink:href="#DejaVuSans-61" transform="translate(182.568359 0)"/>
      <use xlink:href="#DejaVuSans-6e" transform="translate(243.847656 0)"/>
      <use xlink:href="#DejaVuSans-63" transform="translate(307.226562 0)"/>
      <use xlink:href="#DejaVuSans-65" transform="translate(362.207031 0)"/>
      <use xlink:href="#DejaVuSans-20" transform="translate(423.730469 0)"/>
      <use xlink:href="#DejaVuSans-73" transform="translate(455.517578 0)"/>
      <use xlink:href="#DejaVuSans-20" transform="translate(507.617188 0)"/>
      <use xlink:href="#DejaVuSans-5b" transform="translate(539.404297 0)"/>
      <use xlink:href="#DejaVuSans-6b" transform="translate(578.417969 0)"/>
      <use xlink:href="#DejaVuSans-6d" transform="translate(636.328125 0)"/>
      <use xlink:href="#DejaVuSans-5d" transform="translate(733.740234 0)"/>
     </g>
    </g>
   </g>
   <g id="matplotlib.axis_2">
    <g id="ytick_1">
     <g id="line2d_11">
      <path d="M 56.09 224.241891 
L 709.2 224.241891 
" clip-path="url(#p98da03b00d)" style="fill: none; stroke: #b0b0b0; stroke-opacity: 0.3; stroke-width: 0.8; stroke-linecap: square"/>
     </g>
     <g id="line2d_12">
      <defs>
       <path id="mbf0d7b1c5a" d="M 0 0 
L -3.5 0 
" style="stroke: #000000; stroke-width: 0.8"/>
      </defs>
      <g>
       <use xlink:href="#mbf0d7b1c5a" x="56.09" y="224.241891" style="stroke: #000000; stroke-width: 0.8"/>
      </g>
     </g>
     <g id="text_7">
      <!-- −1.5 -->
      <g transform="translate(24.807188 228.04111) scale(0.1 -0.1)">
       <defs>
        <path id="DejaVuSans-2212" d="M 678 2272 
L 4684 2272 
L 4684 1741 
L 678 1741 
L 678 2272 
z
" transform="scale(0.015625)"/>
       </defs>
       <use xlink:href="#DejaVuSans-2212"/>
       <use xlink:href="#DejaVuSans-31" transform="translate(83.789062 0)"/>
       <use xlink:href="#DejaVuSans-2e" transform="translate(147.412109 0)"/>
       <use xlink:href="#DejaVuSans-35" transform="translate(179.199219 0)"/>
      </g>
     </g>
    </g>
    <g id="ytick_2">
     <g id="line2d_13">
      <path d="M 56.09 194.13808 
L 709.2 194.13808 
" clip-path="url(#p98da03b00d)" style="fill: none; stroke: #b0b0b0; stroke-opacity: 0.3; stroke-width: 0.8; stroke-linecap: square"/>
     </g>
     <g id="line2d_14">
      <g>
       <use xlink:href="#mbf0d7b1c5a" x="56.09" y="194.13808" style="stroke: #000000; stroke-width: 0.8"/>
      </g>
     </g>
     <g id="text_8">
      <!-- −1.0 -->
      <g transform="translate(24.807188 197.937299) scale(0.1 -0.1)">
       <use xlink:href="#DejaVuSans-2212"/>
       <use xlink:href="#DejaVuSans-31" transform="translate(83.789062 0)"/>
       <use xlink:href="#DejaVuSans-2e" transform="translate(147.412109 0)"/>
       <use xlink:href="#DejaVuSans-30" transform="translate(179.199219 0)"/>
      </g>
     </g>
    </g>
    <g id="ytick_3">
     <g id="line2d_15">
      <path d="M 56.09 164.034269 
L 709.2 164.034269 
" clip-path="url(#p98da03b00d)" style="fill: none; stroke: #b0b0b0; stroke-opacity: 0.3; stroke-width: 0.8; stroke-linecap: square"/>
     </g>
     <g id="line2d_16">
      <g>
       <use xlink:href="#mbf0d7b1c5a" x="56.09" y="164.034269" style="stroke: #000000; stroke-width: 0.8"/>
      </g>
     </g>
     <g id="text_9">
      <!-- −0.5 -->
      <g transform="translate(24.807188 167.833488) scale(0.1 -0.1)">
       <use xlink:href="#DejaVuSans-2212"/>
       <use xlink:href="#DejaVuSans-30" transform="translate(83.789062 0)"/>
       <use xlink:href="#DejaVuSans-2e" transform="translate(147.412109 0)"/>
       <use xlink:href="#DejaVuSans-35" transform="translate(179.199219 0)"/>
      </g>
     </g>
    </g>
    <g id="ytick_4">
     <g id="line2d_17">
      <path d="M 56.09 133.930458 
L 709.2 133.930458 
" clip-path="url(#p98da03b00d)" style="fill: none; stroke: #b0b0b0; stroke-opacity: 0.3; stroke-width: 0.8; stroke-linecap: square"/>
     </g>
     <g id="line2d_18">
      <g>
       <use xlink:href="#mbf0d7b1c5a" x="56.09" y="133.930458" style="stroke: #000000; stroke-width: 0.8"/>
      </g>
     </g>
     <g id="text_10">
      <!-- 0.0 -->
      <g transform="translate(33.186875 137.729677) scale(0.1 -0.1)">
       <use xlink:href="#DejaVuSans-30"/>
       <use xlink:href="#DejaVuSans-2e" transform="translate(63.623047 0)"/>
       <use xlink:href="#DejaVuSans-30" transform="translate(95.410156 0)"/>
      </g>
     </g>
    </g>
    <g id="ytick_5">
     <g id="line2d_19">
      <path d="M 56.09 103.826647 
L 709.2 103.826647 
" clip-path="url(#p98da03b00d)" style="fill: none; stroke: #b0b0b0; stroke-opacity: 0.3; stroke-width: 0.8; stroke-linecap: square"/>
     </g>
     <g id="line2d_20">
      <g>
       <use xlink:href="#mbf0d7b1c5a" x="56.09" y="103.826647" style="stroke: #000000; stroke-width: 0.8"/>
      </g>
     </g>
     <g id="text_11">
      <!-- 0.5 -->
      <g transform="translate(33.186875 107.625866) scale(0.1 -0.1)">
       <use xlink:href="#DejaVuSans-30"/>
       <use xlink:href="#DejaVuSans-2e" transform="translate(63.623047 0)"/>
       <use xlink:href="#DejaVuSans-35" transform="translate(95.410156 0)"/>
      </g>
     </g>
    </g>
    <g id="ytick_6">
     <g id="line2d_21">
      <path d="M 56.09 73.722837 
L 709.2 73.722837 
" clip-path="url(#p98da03b00d)" style="fill: none; stroke: #b0b0b0; stroke-opacity: 0.3; stroke-width: 0.8; stroke-linecap: square"/>
     </g>
     <g id="line2d_22">
      <g>
       <use xlink:href="#mbf0d7b1c5a" x="56.09" y="73.722837" style="stroke: #000000; stroke-width: 0.8"/>
      </g>
     </g>
     <g id="text_12">
      <!-- 1.0 -->
      <g transform="translate(33.186875 77.522055) scale(0.1 -0.1)">
       <use xlink:href="#DejaVuSans-31"/>
       <use xlink:href="#DejaVuSans-2e" transform="translate(63.623047 0)"/>
       <use xlink:href="#DejaVuSans-30" transform="translate(95.410156 0)"/>
      </g>
     </g>
    </g>
    <g id="ytick_7">
     <g id="line2d_23">
      <path d="M 56.09 43.619026 
L 709.2 43.619026 
" clip-path="url(#p98da03b00d)" style="fill: none; stroke: #b0b0b0; stroke-opacity: 0.3; stroke-width: 0.8; stroke-linecap: square"/>
     </g>
     <g id="line2d_24">
      <g>
       <use xlink:href="#mbf0d7b1c5a" x="56.09" y="43.619026" style="stroke: #000000; stroke-width: 0.8"/>
      </g>
     </g>
     <g id="text_13">
      <!-- 1.5 -->
      <g transform="translate(33.186875 47.418245) scale(0.1 -0.1)">
       <use xlink:href="#DejaVuSans-31"/>
       <use xlink:href="#DejaVuSans-2e" transform="translate(63.623047 0)"/>
       <use xlink:href="#DejaVuSans-35" transform="translate(95.410156 0)"/>
      </g>
     </g>
    </g>
    <g id="text_14">
     <!-- tie-rod force [kN] -->
     <g transform="translate(18.7275 179.170156) rotate(-90) scale(0.1 -0.1)">
      <defs>
       <path id="DejaVuSans-2d" d="M 313 2009 
L 1997 2009 
L 1997 1497 
L 313 1497 
L 313 2009 
z
" transform="scale(0.015625)"/>
       <path id="DejaVuSans-72" d="M 2631 2963 
Q 2534 3019 2420 3045 
Q 2306 3072 2169 3072 
Q 1681 3072 1420 2755 
Q 1159 2438 1159 1844 
L 1159 0 
L 581 0 
L 581 3500 
L 1159 3500 
L 1159 2956 
Q 1341 3275 1631 3429 
Q 1922 3584 2338 3584 
Q 2397 3584 2469 3576 
Q 2541 3569 2628 3553 
L 2631 2963 
z
" transform="scale(0.015625)"/>
       <path id="DejaVuSans-6f" d="M 1959 3097 
Q 1497 3097 1228 2736 
Q 959 2375 959 1747 
Q 959 1119 1226 758 
Q 1494 397 1959 397 
Q 2419 397 2687 759 
Q 2956 1122 2956 1747 
Q 2956 2369 2687 2733 
Q 2419 3097 1959 3097 
z
M 1959 3584 
Q 2709 3584 3137 3096 
Q 3566 2609 3566 1747 
Q 3566 888 3137 398 
Q 2709 -91 1959 -91 
Q 1206 -91 779 398 
Q 353 888 353 1747 
Q 353 2609 779 3096 
Q 1206 3584 1959 3584 
z
" transform="scale(0.015625)"/>
       <path id="DejaVuSans-66" d="M 2375 4863 
L 2375 4384 
L 1825 4384 
Q 1516 4384 1395 4259 
Q 1275 4134 1275 3809 
L 1275 3500 
L 2222 3500 
L 2222 3053 
L 1275 3053 
L 1275 0 
L 697 0 
L 697 3053 
L 147 3053 
L 147 3500 
L 697 3500 
L 697 3744 
Q 697 4328 969 4595 
Q 1241 4863 1831 4863 
L 2375 4863 
z
" transform="scale(0.015625)"/>
       <path id="DejaVuSans-4e" d="M 628 4666 
L 1478 4666 
L 3547 763 
L 3547 4666 
L 4159 4666 
L 4159 0 
L 3309 0 
L 1241 3903 
L 1241 0 
L 628 0 
L 628 4666 
z
" transform="scale(0.015625)"/>
      </defs>
      <use xlink:href="#DejaVuSans-74"/>
      <use xlink:href="#DejaVuSans-69" transform="translate(39.208984 0)"/>
      <use xlink:href="#DejaVuSans-65" transform="translate(66.992188 0)"/>
      <use xlink:href="#DejaVuSans-2d" transform="translate(128.515625 0)"/>
      <use xlink:href="#DejaVuSans-72" transform="translate(164.599609 0)"/>
      <use xlink:href="#DejaVuSans-6f" transform="translate(203.462891 0)"/>
      <use xlink:href="#DejaVuSans-64" transform="translate(264.644531 0)"/>
      <use xlink:href="#DejaVuSans-20" transform="translate(328.121094 0)"/>
      <use xlink:href="#DejaVuSans-66" transform="translate(359.908203 0)"/>
      <use xlink:href="#DejaVuSans-6f" transform="translate(395.113281 0)"/>
      <use xlink:href="#DejaVuSans-72" transform="translate(456.294922 0)"/>
      <use xlink:href="#DejaVuSans-63" transform="translate(495.158203 0)"/>
      <use xlink:href="#DejaVuSans-65" transform="translate(550.138672 0)"/>
      <use xlink:href="#DejaVuSans-20" transform="translate(611.662109 0)"/>
      <use xlink:href="#DejaVuSans-5b" transform="translate(643.449219 0)"/>
      <use xlink:href="#DejaVuSans-6b" transform="translate(682.462891 0)"/>
      <use xlink:href="#DejaVuSans-4e" transform="translate(740.373047 0)"/>
      <use xlink:href="#DejaVuSans-5d" transform="translate(815.177734 0)"/>
     </g>
    </g>
   </g>
   <g id="line2d_25">
    <path d="M 85.776818 133.930458 
L 86.061 103.893452 
L 86.274272 98.902816 
L 86.345383 98.654283 
L 86.416502 98.803956 
L 86.629897 100.544669 
L 88.407941 118.603459 
L 88.692249 121.987356 
L 88.976584 129.685201 
L 89.332065 141.07993 
L 89.687591 144.958341 
L 90.327516 148.474975 
L 90.967404 151.840711 
L 91.038516 151.69786 
L 91.180762 149.572224 
L 91.323047 143.037711 
L 91.750203 115.915977 
L 92.035236 111.432627 
L 92.463117 108.568641 
L 93.248256 104.885263 
L 93.391081 104.68272 
L 93.462503 104.872652 
L 93.605372 106.634978 
L 93.748281 112.069295 
L 93.962747 132.460117 
L 94.248941 158.359554 
L 94.535417 168.191178 
L 94.893854 173.77574 
L 95.467937 178.867262 
L 96.258157 184.375762 
L 96.330045 184.419173 
L 96.47385 183.579261 
L 96.6177 180.875627 
L 96.833573 171.923619 
L 97.193661 143.740165 
L 97.626275 110.728075 
L 97.987148 99.822689 
L 98.203799 97.817192 
L 98.276035 97.851949 
L 98.420536 99.14508 
L 98.637359 105.148541 
L 98.85428 118.466812 
L 99.578228 175.103645 
L 99.940705 184.337959 
L 100.303443 188.446559 
L 100.666384 190.237627 
L 100.956854 190.754459 
L 101.102124 190.71081 
L 101.247417 190.355066 
L 101.465403 188.781491 
L 101.683452 184.868065 
L 101.901578 176.965064 
L 102.192562 158.147908 
L 102.920925 104.079716 
L 103.212615 97.297711 
L 103.431492 95.95982 
L 103.504471 96.150129 
L 103.650459 97.549805 
L 103.869519 102.772573 
L 104.161762 118.227152 
L 104.820117 164.560662 
L 105.186336 172.983659 
L 105.479507 175.436152 
L 105.62615 175.683038 
L 105.77283 175.242557 
L 105.919547 173.916219 
L 106.139695 169.420805 
L 106.359942 160.292099 
L 106.653786 138.51797 
L 107.021418 111.395136 
L 107.315782 102.192006 
L 107.610354 99.197636 
L 107.684026 99.053436 
L 107.75771 99.094139 
L 107.905112 99.680094 
L 108.126299 101.858237 
L 108.347592 106.180909 
L 108.642832 117.614387 
L 109.455939 158.30457 
L 109.752021 161.827522 
L 109.900133 162.258978 
L 109.974206 162.140995 
L 110.122387 161.12097 
L 110.344747 156.978551 
L 110.567221 148.332201 
L 111.384055 108.260206 
L 111.681503 105.358399 
L 111.830301 105.066081 
L 111.979146 105.293138 
L 112.202501 106.506342 
L 112.425963 109.031174 
L 112.724086 115.895998 
L 113.022426 129.034938 
L 113.470365 149.490301 
L 113.769264 155.163999 
L 113.993572 156.821829 
L 114.068366 156.935449 
L 114.143171 156.815633 
L 114.29282 155.786887 
L 114.517386 151.772706 
L 114.816991 140.302126 
L 115.341837 116.050094 
L 115.642053 110.410174 
L 115.86735 108.803241 
L 116.01761 108.619367 
L 116.167918 109.057308 
L 116.39347 110.969585 
L 116.619133 114.848246 
L 116.9202 124.382034 
L 117.598404 150.896211 
L 117.900177 155.177639 
L 118.126639 156.026487 
L 118.277675 155.449256 
L 118.504324 152.549714 
L 118.806702 144.044445 
L 119.639363 114.800477 
L 119.942547 112.188452 
L 120.018374 112.088737 
L 120.094214 112.196404 
L 120.245931 113.040843 
L 120.473601 116.012527 
L 120.77734 123.752067 
L 121.689843 152.667885 
L 121.99443 155.086266 
L 122.070607 155.159185 
L 122.223 154.644327 
L 122.451682 152.079355 
L 122.756769 144.937278 
L 123.673299 117.719757 
L 123.902726 115.984203 
L 123.979227 115.864617 
L 124.05574 115.967661 
L 124.208805 116.842112 
L 124.438496 119.876629 
L 124.74493 127.294796 
L 125.511934 149.100211 
L 125.819097 152.347542 
L 125.972753 152.763527 
L 126.049599 152.669726 
L 126.203329 151.862094 
L 126.434016 149.035931 
L 126.741775 142.222513 
L 127.589175 120.806426 
L 127.820554 119.048455 
L 127.897705 118.884833 
L 127.974869 118.927074 
L 128.129233 119.622962 
L 128.360874 122.188383 
L 128.669906 128.366229 
L 129.443379 146.347046 
L 129.753121 149.069205 
L 129.908066 149.335303 
L 130.06306 148.865918 
L 130.295642 146.764385 
L 130.605925 141.428328 
L 131.537979 122.517054 
L 131.771275 121.226939 
L 131.849065 121.155425 
L 132.004681 121.538075 
L 132.238198 123.39531 
L 132.549728 128.106405 
L 133.485512 144.628638 
L 133.719735 145.843563 
L 133.797833 145.927909 
L 133.875944 145.851254 
L 134.032201 145.215515 
L 134.266678 143.077634 
L 134.657717 136.751065 
L 135.284017 125.853741 
L 135.597462 123.454005 
L 135.754257 123.148978 
L 135.9111 123.430934 
L 136.146456 124.914255 
L 136.460432 128.678129 
L 137.403528 142.055073 
L 137.639573 143.083203 
L 137.796995 143.088534 
L 137.954466 142.552227 
L 138.19076 140.774109 
L 138.584822 135.659306 
L 139.215945 127.156528 
L 139.531792 125.290436 
L 139.689787 125.0865 
L 139.84783 125.365461 
L 140.084981 126.647717 
L 140.480471 130.733726 
L 141.272337 139.853626 
L 141.589412 141.094094 
L 141.748019 141.044158 
L 141.906673 140.552242 
L 142.144741 139.039489 
L 142.621191 133.941816 
L 143.17758 128.388459 
L 143.495772 127.024772 
L 143.654938 126.934426 
L 143.814149 127.23615 
L 144.053053 128.378736 
L 144.451456 131.757604 
L 145.169306 138.306088 
L 145.488649 139.480909 
L 145.648388 139.531024 
L 145.808173 139.222928 
L 146.047935 138.132718 
L 146.447765 135.009264 
L 147.168175 129.326968 
L 147.488651 128.382133 
L 147.648956 128.381215 
L 147.809307 128.689129 
L 148.049917 129.681954 
L 148.531439 133.034836 
L 149.093724 136.909125 
L 149.415274 137.935004 
L 149.576115 138.027398 
L 149.737001 137.836025 
L 149.978412 137.050708 
L 150.380983 134.708286 
L 151.106205 130.270446 
L 151.428552 129.439319 
L 151.589696 129.389098 
L 151.750805 129.583151 
L 151.992379 130.300025 
L 152.394647 132.364839 
L 153.116992 136.301124 
L 153.437064 137.025533 
L 153.596833 137.054523 
L 153.75641 136.861855 
L 153.995396 136.191155 
L 154.471909 133.873077 
L 155.104124 130.80947 
L 155.419116 130.145991 
L 155.576333 130.104667 
L 155.733349 130.254633 
L 155.968477 130.807444 
L 156.359245 132.383589 
L 157.136346 135.641758 
L 157.368268 136.016113 
L 157.522562 136.034577 
L 157.753511 135.715973 
L 158.06051 134.726505 
L 159.353676 129.647259 
L 159.579993 129.527144 
L 159.805718 129.732038 
L 160.105755 130.401364 
L 161.073845 132.861901 
L 161.29573 132.906404 
L 161.517012 132.629544 
L 161.811108 131.787329 
L 162.468988 128.834 
L 162.977114 126.955469 
L 163.265995 126.454367 
L 163.481933 126.385005 
L 163.697255 126.548964 
L 164.054807 127.179 
L 164.765103 128.495324 
L 165.047325 128.613811 
L 165.258257 128.471046 
L 165.538537 127.989577 
L 166.165367 126.260917 
L 166.649184 125.162665 
L 166.992659 124.873173 
L 167.197901 124.956895 
L 167.470614 125.401787 
L 167.87776 126.621576 
L 168.550901 128.640912 
L 168.884807 129.061321 
L 169.150693 129.113588 
L 169.54759 128.903125 
L 170.073039 128.612456 
L 170.334057 128.742623 
L 170.593927 129.188656 
L 170.98168 130.458889 
L 172.382826 135.922437 
L 172.759125 136.327423 
L 173.319279 136.721484 
L 173.628066 137.332673 
L 174.057343 138.75689 
L 175.385341 143.484629 
L 175.800857 144.120425 
L 176.796438 145.076991 
L 177.200707 146.09934 
L 178.224353 148.933046 
L 178.560655 149.226582 
L 178.783466 149.179257 
L 179.115532 148.821217 
L 179.717742 148.151528 
L 179.988714 148.187671 
L 180.311645 148.534669 
L 180.896898 149.563071 
L 181.525608 150.594786 
L 181.681379 150.61844 
L 181.888134 150.330246 
L 182.601634 148.659873 
L 182.651965 148.711199 
L 182.802476 149.141235 
L 183.051861 150.783709 
L 184.271282 160.625906 
L 184.461335 160.846548 
L 184.650136 160.733546 
L 185.024793 160.380974 
L 185.164384 160.580617 
L 185.349466 161.368646 
L 185.624537 163.737581 
L 186.075949 170.174044 
L 186.915175 182.301867 
L 188.215726 197.479851 
L 189.733321 220.571257 
L 190.307094 225.207238 
L 190.911727 228.350336 
L 191.467202 230.165046 
L 191.976223 231.126667 
L 192.402561 231.509915 
L 192.787218 231.566562 
L 193.283796 231.368492 
L 194.115497 230.77134 
L 194.639581 230.187032 
L 195.121714 229.955069 
L 195.886119 229.663719 
L 196.171442 229.281443 
L 196.45323 228.471497 
L 196.731524 226.887412 
L 197.040702 223.61287 
L 197.514498 215.320251 
L 198.213409 203.48032 
L 198.511557 201.49297 
L 198.743885 201.045245 
L 199.346143 200.581285 
L 199.617271 199.679208 
L 200.029354 197.355878 
L 201.130449 190.964101 
L 201.276723 190.79039 
L 201.313444 190.811819 
L 201.46094 191.190716 
L 201.683982 192.680852 
L 202.060275 197.23622 
L 202.82659 206.566302 
L 203.330228 209.927545 
L 203.871154 212.096596 
L 204.55301 213.900746 
L 205.281889 215.285683 
L 205.843992 215.934952 
L 206.256667 216.119992 
L 206.596975 216.034518 
L 206.902018 215.706303 
L 207.173271 215.089086 
L 207.445498 213.889385 
L 207.719439 211.487378 
L 207.995745 206.574622 
L 208.310091 196.031227 
L 209.132993 164.442669 
L 209.279015 163.830272 
L 209.389083 164.294291 
L 210.021587 168.667078 
L 210.059245 168.618564 
L 210.210354 167.908677 
L 210.438405 165.32579 
L 210.822098 157.845149 
L 211.327582 148.739116 
L 211.523973 147.773322 
L 211.602829 147.868402 
L 211.761045 148.729312 
L 212.159467 152.858338 
L 212.642933 156.934628 
L 212.927605 157.740326 
L 213.091137 157.71297 
L 213.296421 157.321046 
L 213.876271 156.091794 
L 214.001479 156.153291 
L 214.168939 156.509745 
L 214.463391 157.817856 
L 215.314155 162.14267 
L 215.528953 162.267334 
L 215.701377 162.07559 
L 216.922351 160.073215 
L 217.497149 159.760226 
L 217.897859 159.554317 
L 218.16621 159.011571 
L 218.570499 157.465247 
L 219.294299 154.669291 
L 219.795482 152.61694 
L 220.437338 149.965325 
L 220.713769 149.606291 
L 221.176235 149.205108 
L 221.501285 148.514577 
L 222.155096 147.031983 
L 222.672976 146.477256 
L 222.862392 146.478395 
L 223.052475 146.738422 
L 223.24329 147.488886 
L 223.531035 149.851958 
L 224.357978 157.45865 
L 224.953834 160.493529 
L 225.459063 163.384275 
L 225.920903 167.442569 
L 226.494532 174.68199 
L 227.931388 194.792763 
L 228.571659 199.591678 
L 229.154308 202.480792 
L 229.574798 203.617204 
L 229.940505 204.069929 
L 230.148669 204.078533 
L 230.356354 203.849645 
L 230.615457 203.126539 
L 230.925919 201.447815 
L 231.391244 197.350376 
L 232.687384 184.675896 
L 234.154528 174.100177 
L 234.630452 167.185291 
L 235.69599 149.88305 
L 235.910421 149.000667 
L 236.017801 149.045266 
L 236.179077 149.629199 
L 236.502362 151.976927 
L 237.043318 155.595611 
L 237.260437 156.00186 
L 237.369153 155.9217 
L 237.53242 155.452113 
L 237.805044 153.84286 
L 238.791763 146.907961 
L 238.901905 146.877721 
L 239.067305 147.267215 
L 239.343472 148.912671 
L 240.008794 153.365255 
L 240.231365 153.817856 
L 240.39856 153.816565 
L 241.013626 153.431612 
L 241.238118 153.885869 
L 241.575756 155.325187 
L 242.197794 159.36909 
L 242.881371 163.40933 
L 244.150125 169.915835 
L 245.143763 177.507227 
L 245.614626 180.110384 
L 245.909782 180.669323 
L 246.146359 180.679328 
L 246.442649 180.65472 
L 246.620736 180.952196 
L 246.858557 181.942914 
L 247.275724 185.038567 
L 248.533599 195.318879 
L 249.25554 199.030897 
L 250.459336 203.882595 
L 251.118811 205.845877 
L 251.596551 206.680986 
L 251.953785 206.922697 
L 252.191457 206.829356 
L 252.428778 206.460031 
L 252.725003 205.513327 
L 253.080006 203.543675 
L 253.493817 199.95227 
L 254.085017 192.542133 
L 254.973913 181.301546 
L 255.449853 177.804336 
L 256.106987 174.918241 
L 256.466896 172.573842 
L 256.767692 168.980915 
L 257.129775 161.473781 
L 257.553841 147.238907 
L 258.346269 118.916199 
L 258.652746 115.361864 
L 258.83708 114.867319 
L 258.960156 115.053726 
L 259.206753 116.285331 
L 259.949991 120.618155 
L 260.136483 120.690359 
L 260.323172 120.285516 
L 261.321057 117.08187 
L 261.508431 117.094851 
L 261.75834 117.404267 
L 262.133359 118.305862 
L 263.699161 122.5232 
L 264.076092 122.927102 
L 264.579687 123.112261 
L 265.337677 123.41481 
L 266.290307 124.102016 
L 267.184889 124.979385 
L 268.277564 126.414289 
L 270.091168 129.22369 
L 272.308478 132.698939 
L 282.77589 132.604941 
L 283.688337 131.667347 
L 284.406522 130.816933 
L 285.517922 129.415451 
L 286.106634 128.762416 
L 287.350414 127.068318 
L 287.547036 127.307025 
L 287.743745 128.001035 
L 288.006163 130.01454 
L 288.334422 135.062007 
L 289.386644 153.314264 
L 289.913745 158.563992 
L 291.035854 167.871817 
L 291.763279 177.72732 
L 293.617892 204.196918 
L 294.346219 210.695121 
L 295.139402 215.70721 
L 295.996292 219.70876 
L 296.784763 222.431561 
L 297.505356 224.225888 
L 298.223949 225.452272 
L 298.940644 226.247054 
L 299.85005 226.879498 
L 300.62664 227.560198 
L 301.592316 228.402292 
L 302.424638 228.791268 
L 303.82406 229.439941 
L 304.45616 230.017196 
L 305.273066 231.107585 
L 308.286029 235.475994 
L 308.947686 235.878255 
L 309.664148 236.058888 
L 310.552441 236.038129 
L 311.4908 235.793803 
L 312.41974 235.321066 
L 313.283217 234.619846 
L 314.199132 233.5713 
L 315.112251 232.193234 
L 315.853496 230.693695 
L 316.309649 229.302603 
L 316.708895 227.287732 
L 317.051339 224.368601 
L 317.451376 218.721344 
L 318.024408 206.383552 
L 318.542232 196.539262 
L 318.830917 194.156755 
L 319.004487 193.882561 
L 319.120349 194.090672 
L 319.352421 195.192666 
L 320.167892 199.817962 
L 320.401652 200.157056 
L 320.577161 200.02698 
L 320.811402 199.380968 
L 321.104552 197.74368 
L 321.398081 194.78677 
L 321.692007 189.655368 
L 322.045292 178.995829 
L 322.458351 158.730599 
L 323.168981 122.522914 
L 323.406595 120.012288 
L 323.525541 120.849856 
L 323.704133 124.710439 
L 324.002257 137.472798 
L 324.480491 156.292899 
L 324.780145 161.106567 
L 324.900164 161.528815 
L 325.020271 161.105656 
L 325.200597 158.807019 
L 325.441339 152.284631 
L 325.803114 134.784105 
L 326.22618 116.816058 
L 326.528998 112.341092 
L 326.650265 112.015087 
L 326.771611 112.374194 
L 326.953776 114.060912 
L 327.257771 119.55296 
L 328.050447 136.564493 
L 328.172691 136.841726 
L 328.295012 136.202138 
L 328.478641 133.540984 
L 329.46088 114.642987 
L 329.707146 113.381796 
L 329.892008 113.180056 
L 330.076997 113.42748 
L 330.385568 114.522377 
L 331.003522 118.005132 
L 331.374733 119.600938 
L 331.560444 119.842732 
L 331.684287 119.758998 
L 331.932052 119.099869 
L 332.551841 117.103063 
L 332.737853 117.02882 
L 332.923883 117.247818 
L 333.233942 118.067762 
L 334.225722 121.721373 
L 336.386442 129.544213 
L 337.428292 132.447692 
L 337.611628 132.698939 
L 353.555535 132.700335 
L 353.734611 131.980758 
L 354.752433 127.800584 
L 355.413695 125.847243 
L 355.654679 125.577331 
L 355.77528 125.648823 
L 355.95632 126.133291 
L 356.197972 127.628902 
L 356.924812 132.982403 
L 357.046232 132.681778 
L 357.289313 130.743618 
L 358.203732 121.460003 
L 358.448331 120.846144 
L 358.570749 120.976401 
L 358.754524 121.833025 
L 358.999837 124.534941 
L 359.306943 131.034457 
L 359.861091 143.998538 
L 360.169724 146.932396 
L 360.355173 147.261472 
L 360.478918 146.904569 
L 360.726679 144.939829 
L 361.595875 136.054766 
L 361.65799 136.077345 
L 361.782217 136.570633 
L 362.030661 139.23231 
L 362.527492 148.39678 
L 363.085948 157.331967 
L 363.3957 159.733717 
L 363.581323 160.151845 
L 363.704973 160.001821 
L 363.890303 159.166894 
L 364.198765 156.463404 
L 364.935991 149.243728 
L 365.119441 148.72087 
L 365.241533 148.815567 
L 365.424367 149.58064 
L 365.788989 152.511171 
L 366.393059 157.151982 
L 366.633177 157.847292 
L 366.75289 157.870424 
L 366.87237 157.668127 
L 367.05116 156.896131 
L 367.348065 154.318981 
L 367.820289 147.664461 
L 368.463097 139.127604 
L 368.752665 137.539067 
L 368.925659 137.355112 
L 369.098104 137.597969 
L 369.725574 138.967098 
L 369.838804 138.793857 
L 370.008132 138.038616 
L 370.288966 135.322247 
L 370.900945 125.579516 
L 371.395684 119.603429 
L 371.776697 117.450398 
L 372.100613 116.752783 
L 372.793978 115.809896 
L 373.110142 114.738916 
L 373.735233 111.530148 
L 374.197764 109.690964 
L 374.503327 109.221623 
L 374.756191 109.184245 
L 375.057234 109.381512 
L 375.700059 110.150916 
L 376.138173 110.645237 
L 376.331162 110.549727 
L 376.665806 109.962231 
L 377.183127 109.054895 
L 377.368686 109.038109 
L 377.553012 109.340986 
L 378.099325 110.342405 
L 378.3237 110.199763 
L 378.678318 109.972361 
L 378.853691 110.123827 
L 379.071252 110.677979 
L 379.330291 112.047074 
L 380.310236 117.871198 
L 381.525772 123.585835 
L 382.602209 127.726265 
L 383.420564 130.063754 
L 384.188336 131.61193 
L 384.946002 132.678818 
L 385.222494 132.698939 
L 398.808958 132.809678 
L 399.579306 133.46363 
L 399.736205 132.443706 
L 400.776733 123.820199 
L 400.817421 123.832459 
L 400.939765 124.247042 
L 401.103527 125.862403 
L 401.433173 132.409165 
L 401.723845 136.766694 
L 401.807269 136.975558 
L 401.849044 136.903276 
L 401.974616 135.993326 
L 402.226866 131.617881 
L 402.69305 124.212352 
L 402.949281 122.923013 
L 403.034987 122.909923 
L 403.163818 123.262031 
L 403.379263 124.741049 
L 404.118506 130.774366 
L 404.206155 130.698625 
L 404.381874 129.866094 
L 405.224045 124.381872 
L 405.358124 124.401634 
L 405.537355 124.819651 
L 405.942529 126.679455 
L 406.395797 128.454255 
L 406.623638 128.731114 
L 406.806485 128.61989 
L 407.08171 128.063698 
L 407.589227 126.996468 
L 407.774711 127.007502 
L 407.960691 127.32529 
L 408.28734 128.46312 
L 408.850823 130.388988 
L 409.134227 130.635776 
L 409.752047 130.828993 
L 410.038927 131.338915 
L 410.471287 132.714012 
L 412.620348 141.795481 
L 413.562426 146.967743 
L 414.208256 151.272604 
L 417.61316 175.187117 
L 418.476059 181.198435 
L 419.648102 189.547954 
L 420.379832 192.952647 
L 420.73973 194.01168 
L 420.918064 194.135822 
L 421.095278 193.957995 
L 421.358943 193.183415 
L 421.878328 190.63452 
L 422.470507 186.875682 
L 423.047368 183.596193 
L 423.249795 183.221289 
L 423.370385 183.29907 
L 423.569979 183.811482 
L 424.081475 186.059518 
L 424.774563 188.797162 
L 425.492226 190.446908 
L 425.753891 192.201041 
L 426.198639 197.264307 
L 426.820364 203.818389 
L 427.681952 209.879328 
L 428.482248 216.08539 
L 428.720903 216.720188 
L 428.822742 216.666109 
L 429.127374 215.981628 
L 429.599519 215.020458 
L 429.767879 215.039082 
L 429.936163 215.351282 
L 430.20526 216.457513 
L 430.742265 219.979141 
L 431.409633 223.939378 
L 431.837968 225.208751 
L 432.193979 225.64128 
L 432.511616 225.711143 
L 432.88508 225.546598 
L 433.429888 225.020124 
L 434.072854 224.057523 
L 434.806011 222.525435 
L 437.593404 216.104085 
L 438.507635 214.849697 
L 439.395857 213.983987 
L 440.106144 213.578309 
L 442.40655 212.733993 
L 444.163163 212.049994 
L 444.403756 211.67157 
L 444.58608 210.959882 
L 444.770113 209.262437 
L 444.955966 205.398177 
L 445.17527 195.979085 
L 445.557978 166.558254 
L 445.949648 143.041554 
L 446.048957 141.754572 
L 446.082181 141.773777 
L 446.182216 143.008855 
L 446.451629 151.110351 
L 446.793713 158.793892 
L 446.897445 159.278413 
L 446.932133 159.237363 
L 447.036523 158.512813 
L 447.211581 155.358801 
L 447.565628 143.398969 
L 447.924789 133.162882 
L 448.033515 132.459267 
L 448.069856 132.495703 
L 448.179174 133.325012 
L 448.472826 138.750584 
L 448.881518 144.973325 
L 449.106751 145.843334 
L 449.219961 145.66499 
L 449.44754 144.46383 
L 449.984491 141.319004 
L 450.100617 141.283759 
L 450.256027 141.72059 
L 450.529554 143.504177 
L 451.082394 147.210465 
L 451.161985 147.266099 
L 451.201837 147.229962 
L 451.36162 146.679725 
L 451.642674 144.548122 
L 452.087976 141.326485 
L 452.250999 141.109464 
L 452.4146 141.35276 
L 452.743516 141.852898 
L 452.867443 141.742253 
L 453.033172 141.217421 
L 453.324544 139.312848 
L 454.251446 132.409872 
L 455.065625 128.704036 
L 456.112306 122.44148 
L 456.598852 121.129777 
L 458.082673 118.184959 
L 458.44645 118.052294 
L 458.856471 118.146869 
L 459.312244 118.468466 
L 459.813234 119.195014 
L 460.267902 119.792696 
L 460.765415 120.068096 
L 461.259116 120.615699 
L 462.013685 121.855881 
L 463.704592 124.712872 
L 464.635785 125.784053 
L 465.012975 126.265768 
L 465.514078 126.902899 
L 465.805767 127.028402 
L 466.637415 126.911133 
L 467.346206 127.01219 
L 467.892861 127.301866 
L 468.403125 127.831322 
L 468.96367 128.753247 
L 469.754658 130.559621 
L 470.694239 132.698939 
L 479.908406 132.618034 
L 480.796265 128.466229 
L 481.428549 126.438504 
L 481.931231 125.502351 
L 482.904099 123.905368 
L 483.514141 122.968402 
L 483.892324 122.762926 
L 484.224867 122.819342 
L 484.750373 123.185561 
L 486.884495 124.866158 
L 487.967617 125.458756 
L 488.611754 125.604029 
L 489.358469 125.755653 
L 489.858308 126.147435 
L 490.359797 126.799407 
L 490.711814 127.67545 
L 491.064568 129.250903 
L 491.468462 132.245005 
L 493.239559 149.521524 
L 494.661041 165.928165 
L 495.423292 174.021211 
L 496.378949 186.634359 
L 498.104992 210.222159 
L 498.684795 215.027228 
L 499.210028 217.745858 
L 499.681881 219.157717 
L 500.008856 219.703785 
L 500.240985 219.364583 
L 500.518264 218.555448 
L 500.885622 216.705787 
L 502.238622 208.726653 
L 502.371885 208.579098 
L 502.416215 208.613037 
L 502.593017 209.03056 
L 502.856677 210.401868 
L 503.723756 215.828936 
L 504.153809 216.982032 
L 504.712573 217.791281 
L 505.489666 218.917398 
L 506.055538 220.196479 
L 508.569362 226.519793 
L 509.007427 226.932043 
L 509.398828 227.018624 
L 509.787089 226.853439 
L 510.256958 226.362126 
L 510.930809 225.262107 
L 512.929762 221.758842 
L 513.690876 220.970081 
L 514.777325 220.212818 
L 515.387269 219.663183 
L 515.714335 219.068263 
L 516.001498 218.078615 
L 516.289597 216.246936 
L 516.620021 212.470682 
L 517.035001 204.710229 
L 517.831101 189.23031 
L 518.127275 187.337795 
L 518.254691 187.223341 
L 518.297228 187.253519 
L 518.4677 187.605936 
L 519.068549 189.058037 
L 519.198203 189.028249 
L 519.371598 188.678843 
L 519.632835 187.403717 
L 519.939372 184.570489 
L 520.336252 178.452805 
L 521.364414 160.999141 
L 521.49998 160.774775 
L 521.635866 161.213122 
L 521.863033 163.069661 
L 522.825907 172.135203 
L 523.103536 172.798482 
L 523.242783 172.746389 
L 523.428897 172.256231 
L 523.709042 170.593852 
L 524.131503 166.413165 
L 524.794457 160.121531 
L 525.128869 158.815652 
L 525.417174 158.488128 
L 526.193538 158.194128 
L 526.389297 157.612529 
L 526.634919 156.13829 
L 526.980496 152.531973 
L 527.978295 140.748158 
L 528.280413 139.477741 
L 528.583709 139.016347 
L 528.888144 138.611703 
L 529.142689 137.853607 
L 529.449158 136.187088 
L 530.737993 127.864013 
L 531.102268 127.160433 
L 531.730171 126.136489 
L 532.309521 124.428986 
L 532.839276 123.182533 
L 533.211814 122.786283 
L 533.639255 122.663332 
L 534.175858 122.743224 
L 534.552696 123.024066 
L 534.930183 123.583777 
L 535.253988 124.476837 
L 535.739635 126.624639 
L 536.601516 130.436845 
L 536.977769 132.681404 
L 537.567855 138.179455 
L 539.17171 152.709778 
L 540.134234 158.196782 
L 540.777135 164.502662 
L 542.280202 179.605504 
L 542.869759 185.751526 
L 544.854497 209.835962 
L 545.610372 215.971636 
L 546.495002 221.241372 
L 547.590962 226.573426 
L 548.516515 230.013591 
L 549.375948 232.405977 
L 550.13085 233.918877 
L 550.743713 234.701205 
L 551.220056 235.002063 
L 551.649305 235.041037 
L 552.117512 234.862942 
L 552.707779 234.375575 
L 553.747701 233.151808 
L 555.179695 231.052056 
L 556.909715 228.633236 
L 557.464227 228.217054 
L 557.856827 228.162094 
L 558.284766 228.356452 
L 560.168006 229.60774 
L 560.604384 229.586836 
L 560.999375 229.336565 
L 561.389886 228.790594 
L 561.741309 227.850847 
L 562.054954 226.238161 
L 562.366419 223.234543 
L 562.676028 217.539549 
L 563.018478 206.591218 
L 563.906946 175.247217 
L 564.112688 173.854906 
L 564.181406 173.892795 
L 564.319089 174.463949 
L 564.944156 177.717777 
L 565.049427 177.704242 
L 565.225709 177.295547 
L 565.798069 175.596074 
L 565.906977 175.678178 
L 566.089684 176.276176 
L 566.385124 178.325669 
L 566.986427 184.540816 
L 568.898003 206.442937 
L 569.458829 209.488213 
L 570.04499 211.494302 
L 570.513671 212.417305 
L 570.871013 212.708204 
L 571.120113 212.659218 
L 571.368743 212.367523 
L 571.688248 211.567625 
L 572.043807 209.950243 
L 572.436602 206.96162 
L 572.868276 201.853376 
L 574.228649 183.79648 
L 574.567172 182.395262 
L 575.138407 180.474592 
L 575.524127 177.967134 
L 576.070704 172.592948 
L 576.704588 166.928609 
L 576.944729 166.108456 
L 577.065282 166.091963 
L 577.226515 166.475473 
L 577.510021 168.055177 
L 578.536144 174.60521 
L 578.70223 174.76086 
L 578.827128 174.635266 
L 579.035922 174.023431 
L 580.69093 166.795471 
L 581.555431 160.180846 
L 581.90319 155.03955 
L 582.469542 142.363175 
L 582.993284 132.676024 
L 583.343028 129.911564 
L 583.868752 126.692044 
L 584.264016 122.244111 
L 584.968838 114.238144 
L 585.277936 112.854295 
L 585.498899 112.636166 
L 585.675761 112.787685 
L 585.985431 113.462802 
L 586.516605 115.249985 
L 586.826249 116.031555 
L 587.354445 117.477387 
L 589.242048 123.264838 
L 590.346057 125.261371 
L 592.165416 128.691955 
L 593.30945 130.653125 
L 593.993992 131.416792 
L 594.527997 131.699247 
L 595.058745 131.724003 
L 596.774948 131.597699 
L 597.291212 131.892851 
L 597.854717 132.488544 
L 598.121022 132.698939 
L 605.129653 132.726666 
L 605.974792 128.453512 
L 606.478885 127.04292 
L 606.869018 126.558334 
L 607.22202 126.468325 
L 607.974065 126.374935 
L 609.598091 125.742261 
L 610.015133 125.86406 
L 610.394689 126.23986 
L 611.209862 127.154768 
L 611.690896 127.55045 
L 611.956199 128.227433 
L 612.223602 129.600387 
L 612.583445 132.796833 
L 613.7792 144.91186 
L 614.821728 156.018021 
L 615.935755 167.87636 
L 617.16238 178.67855 
L 618.843124 195.143602 
L 619.538282 199.36116 
L 620.235182 202.235254 
L 620.933209 204.177251 
L 621.481988 205.110431 
L 621.831308 205.332389 
L 622.030946 205.250018 
L 622.280526 204.826835 
L 622.580124 203.676828 
L 622.929924 201.215036 
L 623.430525 195.720721 
L 624.537368 182.650948 
L 624.840947 181.296544 
L 625.145376 180.836792 
L 625.603699 180.44013 
L 625.859231 179.747542 
L 626.16676 178.049075 
L 626.526811 174.635919 
L 626.991802 167.909108 
L 628.033721 151.847177 
L 628.296092 150.682165 
L 628.401254 150.676101 
L 628.559226 151.085853 
L 628.87599 152.916061 
L 629.406295 155.946343 
L 629.619213 156.266506 
L 629.72584 156.168376 
L 629.939434 155.464826 
L 630.314341 152.976478 
L 631.068675 147.834009 
L 631.285333 147.445168 
L 631.393852 147.523522 
L 631.611273 148.178492 
L 632.047642 150.712179 
L 632.541007 153.25381 
L 632.816217 153.872582 
L 632.98172 153.896126 
L 633.147503 153.650319 
L 633.368968 152.898963 
L 633.702023 150.7394 
L 634.650856 143.513687 
L 634.819088 143.430026 
L 634.987563 143.784663 
L 636.003598 146.945821 
L 636.230626 146.943295 
L 636.629275 146.903003 
L 636.857998 147.170078 
L 637.144956 147.995545 
L 637.548734 149.998558 
L 638.013215 153.240262 
L 638.775715 160.731814 
L 639.308112 165.120599 
L 639.604638 166.27877 
L 639.782613 166.417948 
L 639.960551 166.124774 
L 640.197643 165.080928 
L 640.552713 162.328456 
L 641.142122 155.562796 
L 641.670037 149.990801 
L 641.904262 149.285718 
L 642.021362 149.588714 
L 642.255584 151.265912 
L 643.311426 160.860379 
L 643.546826 161.295693 
L 643.664661 161.118664 
L 643.841584 160.262317 
L 644.077809 157.920511 
L 644.432864 151.917624 
L 645.264799 136.201854 
L 645.503388 135.028646 
L 645.622829 135.251726 
L 645.802174 136.442252 
L 646.281501 142.0467 
L 646.702191 145.703234 
L 646.88285 146.164829 
L 647.00341 146.045209 
L 647.18443 145.228702 
L 647.486609 142.358934 
L 648.396693 132.241097 
L 648.518435 132.050391 
L 648.640269 132.241688 
L 648.823194 133.183062 
L 649.250827 137.259856 
L 649.740936 141.334357 
L 649.986544 142.144499 
L 650.109486 142.180903 
L 650.23252 141.977959 
L 650.478864 140.935245 
L 651.034473 136.9475 
L 651.405899 134.962977 
L 651.591917 134.672825 
L 651.716042 134.784521 
L 651.902396 135.381098 
L 652.275711 137.653935 
L 652.899692 141.377805 
L 653.149909 141.947233 
L 653.275151 141.973974 
L 653.46318 141.706544 
L 653.777005 140.592304 
L 654.595523 137.16064 
L 654.784936 136.999196 
L 654.974545 137.198157 
L 655.227661 137.944458 
L 656.243576 141.655368 
L 656.434672 141.763274 
L 656.625959 141.602204 
L 656.881307 141.015841 
L 657.970306 137.870562 
L 658.163112 137.904817 
L 658.420478 138.293505 
L 659.582725 140.729841 
L 659.77708 140.637559 
L 660.036507 140.186177 
L 660.556335 138.57989 
L 661.077456 137.218037 
L 661.403808 136.915955 
L 661.665248 137.002953 
L 661.992492 137.417172 
L 662.714154 138.421915 
L 662.977152 138.427795 
L 663.24045 138.17641 
L 663.76792 137.218423 
L 664.230375 136.584513 
L 664.495005 136.536486 
L 664.759899 136.735952 
L 665.22409 137.455883 
L 666.221369 139.040209 
L 666.554561 139.167386 
L 666.888148 139.001303 
L 668.630195 137.616652 
L 669.236526 137.456724 
L 669.776963 137.549088 
L 670.658143 137.793445 
L 670.99804 137.616449 
L 671.406612 137.111337 
L 672.225861 136.013086 
L 672.568007 135.917137 
L 672.979191 136.064608 
L 673.5972 136.290889 
L 673.941168 136.202344 
L 674.423473 135.791034 
L 675.390688 134.844304 
L 675.806265 134.767475 
L 676.291901 134.95565 
L 677.126404 135.303998 
L 677.614347 135.220356 
L 679.153353 134.659776 
L 679.513182 134.757952 
L 679.513182 134.757952 
" clip-path="url(#p98da03b00d)" style="fill: none; stroke: #2ca02c; stroke-width: 0.9; stroke-linecap: square"/>
   </g>
   <g id="line2d_26">
    <path d="M 85.776818 133.930458 
L 86.061 102.896783 
L 86.345383 93.12884 
L 86.772183 86.838363 
L 88.052533 73.173552 
L 88.123621 73.262744 
L 88.265786 75.065434 
L 88.479017 83.177999 
L 88.834411 110.671549 
L 89.474272 162.481617 
L 89.900908 176.65446 
L 90.256418 182.428246 
L 90.46971 183.753656 
L 90.540806 183.763681 
L 90.682998 182.917721 
L 90.825194 180.476139 
L 91.038516 171.962631 
L 91.323047 146.440615 
L 91.750203 102.776466 
L 92.035236 91.953929 
L 92.320452 87.749488 
L 92.534462 86.705421 
L 92.677174 86.564072 
L 92.819912 86.714074 
L 93.034061 87.373007 
L 93.248256 88.764918 
L 93.462503 92.22079 
L 93.676821 101.502218 
L 93.891243 121.983215 
L 94.248941 160.744083 
L 94.535417 169.05403 
L 94.67875 169.760415 
L 94.750439 169.698006 
L 94.965579 168.678623 
L 96.6177 157.130451 
L 96.833573 154.06906 
L 97.049579 147.600496 
L 97.77059 118.204317 
L 98.059355 115.520948 
L 98.276035 114.706498 
L 98.348281 114.651546 
L 98.420536 114.744362 
L 98.565075 115.597285 
L 98.709655 117.992146 
L 98.926611 127.250439 
L 99.360894 151.246057 
L 99.578228 153.522773 
L 99.723184 153.660065 
L 100.013234 153.100104 
L 100.376016 152.527257 
L 100.884228 152.205147 
L 101.392734 151.817031 
L 101.756151 151.322306 
L 101.901578 150.707747 
L 102.047046 149.195438 
L 102.265339 143.608258 
L 102.993831 116.864195 
L 103.358523 113.092833 
L 103.650459 111.805981 
L 103.723468 111.859965 
L 103.869519 112.831921 
L 104.015615 115.653124 
L 104.234855 125.561881 
L 104.746911 154.535685 
L 105.039814 159.031823 
L 105.332902 160.38018 
L 105.552824 160.600803 
L 105.699486 160.525126 
L 105.846184 160.233373 
L 105.99292 159.567906 
L 106.213099 157.057217 
L 106.433383 150.695427 
L 106.727283 131.796955 
L 107.094988 113.105561 
L 107.463044 105.591379 
L 107.831406 102.372097 
L 107.97883 102.028813 
L 108.052559 102.134432 
L 108.200051 103.118596 
L 108.421382 107.461921 
L 108.642832 116.803294 
L 109.455939 159.6742 
L 109.752021 162.929041 
L 109.826071 163.103489 
L 109.900133 163.048475 
L 110.048291 162.224588 
L 110.270615 158.827403 
L 110.49305 151.69604 
L 110.789819 133.910171 
L 111.161108 113.056348 
L 111.532753 103.414807 
L 111.830301 100.094131 
L 112.053586 99.48383 
L 112.202501 100.074983 
L 112.425963 102.970875 
L 112.649535 109.146436 
L 112.94782 123.645211 
L 113.54507 154.418296 
L 113.844021 159.572194 
L 113.993572 160.242165 
L 114.068366 160.151045 
L 114.21799 159.109109 
L 114.442518 155.162612 
L 114.742069 144.348883 
L 115.491919 110.405729 
L 115.792239 105.479949 
L 116.01761 104.166212 
L 116.092758 104.154916 
L 116.24309 104.821452 
L 116.468679 107.820465 
L 116.76964 116.498375 
L 117.221486 139.357889 
L 117.598404 152.950914 
L 117.900177 157.327351 
L 118.051139 157.831535 
L 118.126639 157.70397 
L 118.277675 156.694133 
L 118.504324 153.169095 
L 118.806702 144.142452 
L 119.639363 114.175509 
L 119.942547 111.033082 
L 120.094214 110.844492 
L 120.245931 111.603988 
L 120.473601 114.724229 
L 120.77734 123.11412 
L 121.613728 152.106031 
L 121.918264 155.021393 
L 121.99443 155.174593 
L 122.070607 155.113954 
L 122.223 154.358469 
L 122.451682 151.590003 
L 122.756769 144.56631 
L 123.673299 118.077864 
L 123.902726 116.205126 
L 123.979227 116.021256 
L 124.05574 116.058136 
L 124.208805 116.812052 
L 124.438496 119.744606 
L 124.74493 127.202719 
L 125.511934 148.968014 
L 125.819097 151.866501 
L 125.972753 152.109543 
L 126.126458 151.595572 
L 126.357108 149.401028 
L 126.664816 143.727917 
L 127.666289 120.476916 
L 127.897705 119.259923 
L 127.974869 119.251474 
L 128.129233 119.838513 
L 128.360874 122.265348 
L 128.669906 128.360079 
L 129.443379 146.174934 
L 129.753121 148.682959 
L 129.908066 148.856594 
L 130.06306 148.333929 
L 130.295642 146.257253 
L 130.605925 141.140162 
L 131.537979 122.795199 
L 131.771275 121.439879 
L 131.849065 121.333855 
L 131.926867 121.401231 
L 132.082508 122.057714 
L 132.316062 124.337993 
L 132.705567 131.238857 
L 133.329424 143.008173 
L 133.641648 145.48918 
L 133.797833 145.768192 
L 133.954067 145.417338 
L 134.188507 143.740128 
L 134.501265 139.51099 
L 135.440715 124.441846 
L 135.675853 123.256658 
L 135.832672 123.200472 
L 135.98954 123.730758 
L 136.224932 125.59363 
L 136.617493 131.129965 
L 137.32487 141.495162 
L 137.639573 143.093125 
L 137.796995 143.071215 
L 137.954466 142.513 
L 138.19076 140.723175 
L 138.584822 135.642287 
L 139.215945 127.168253 
L 139.531792 125.254718 
L 139.689787 125.022078 
L 139.84783 125.278318 
L 140.084981 126.549604 
L 140.480471 130.684837 
L 141.272337 139.912236 
L 141.510126 140.996722 
L 141.66871 141.154809 
L 141.82734 140.864693 
L 142.065373 139.634089 
L 142.462328 135.841629 
L 143.17758 128.378388 
L 143.495772 126.983233 
L 143.654938 126.877291 
L 143.814149 127.168689 
L 144.053053 128.311343 
L 144.451456 131.729431 
L 145.169306 138.344181 
L 145.488649 139.509942 
L 145.648388 139.549642 
L 145.808173 139.231038 
L 146.047935 138.12997 
L 146.447765 135.00589 
L 147.168175 129.317772 
L 147.488651 128.353306 
L 147.648956 128.34354 
L 147.809307 128.646199 
L 148.049917 129.640741 
L 148.531439 133.025506 
L 149.093724 136.932057 
L 149.415274 137.956861 
L 149.576115 138.044528 
L 149.737001 137.847578 
L 149.978412 137.055154 
L 150.380983 134.707877 
L 151.106205 130.256381 
L 151.428552 129.411561 
L 151.589696 129.35614 
L 151.750805 129.547809 
L 151.992379 130.267783 
L 152.394647 132.351622 
L 153.116992 136.31463 
L 153.437064 137.03844 
L 153.596833 137.065143 
L 153.75641 136.869717 
L 153.995396 136.195092 
L 154.471909 133.872335 
L 155.104124 130.804064 
L 155.419116 130.13804 
L 155.576333 130.096152 
L 155.733349 130.246277 
L 155.968477 130.800658 
L 156.359245 132.381174 
L 157.136346 135.643165 
L 157.368268 136.017466 
L 157.522562 136.035602 
L 157.753511 135.716324 
L 158.06051 134.726162 
L 159.353676 129.646009 
L 159.579993 129.525855 
L 159.805718 129.731272 
L 160.105755 130.401922 
L 161.073845 132.86483 
L 161.29573 132.909641 
L 161.517012 132.633324 
L 161.811108 131.792081 
L 162.396141 129.175004 
L 162.977114 126.951496 
L 163.265995 126.447988 
L 163.481933 126.37891 
L 163.697255 126.544932 
L 164.054807 127.18037 
L 164.765103 128.509106 
L 165.047325 128.630427 
L 165.258257 128.488167 
L 165.538537 128.004229 
L 166.165367 126.253969 
L 166.649184 125.138358 
L 166.924105 124.862976 
L 167.129556 124.877175 
L 167.334388 125.108906 
L 167.674477 125.940024 
L 168.684676 128.888165 
L 169.017883 129.140917 
L 169.349428 129.056633 
L 170.138402 128.635913 
L 170.399131 128.84183 
L 170.658719 129.374355 
L 171.046081 130.747186 
L 172.319879 135.788162 
L 172.696567 136.275817 
L 173.381179 136.806335 
L 173.689607 137.497369 
L 174.24027 139.476953 
L 175.265971 143.190471 
L 175.682495 143.98093 
L 176.095582 144.294479 
L 176.563861 144.648917 
L 176.912306 145.24412 
L 177.430113 146.676352 
L 178.111701 148.423623 
L 178.448831 148.794867 
L 178.727868 148.798667 
L 179.060366 148.488879 
L 179.717742 147.755434 
L 179.988714 147.764304 
L 180.311645 148.051213 
L 180.896898 148.964826 
L 181.473561 149.735391 
L 181.681379 149.753539 
L 181.888134 149.489917 
L 182.601634 148.095486 
L 182.651965 148.143899 
L 182.802476 148.525243 
L 183.051861 149.921251 
L 184.175735 157.468595 
L 184.413946 157.718806 
L 184.55588 157.59273 
L 184.884689 156.820827 
L 185.11792 156.454046 
L 185.257086 156.635162 
L 185.487397 157.523914 
L 186.387232 162.162171 
L 186.431456 162.113046 
L 186.607881 161.509804 
L 186.915175 159.254127 
L 188.770193 143.087245 
L 189.442864 139.352214 
L 189.980365 137.475366 
L 190.469336 136.49186 
L 190.871733 136.096268 
L 191.269742 136.001772 
L 191.702887 136.149834 
L 193.245729 136.951932 
L 193.776617 136.773692 
L 194.002719 136.57352 
L 194.676851 135.161978 
L 197.914926 135.246789 
L 199.583235 142.282663 
L 199.99474 143.057177 
L 200.308193 143.254551 
L 200.590624 143.18985 
L 201.021387 142.812064 
L 201.646661 141.932523 
L 202.212243 140.717569 
L 203.136336 138.04688 
L 204.176781 135.161978 
L 208.771669 135.057239 
L 209.315651 134.884452 
L 209.389083 134.892729 
L 209.759362 137.844891 
L 210.362207 141.938367 
L 210.629689 142.74058 
L 210.783526 142.753596 
L 210.976832 142.329305 
L 211.445287 141.146479 
L 211.56338 141.297627 
L 211.761045 142.062264 
L 212.683482 146.378267 
L 212.88682 146.496974 
L 213.091137 146.345149 
L 213.461337 145.68158 
L 213.91797 144.983054 
L 214.168939 144.919146 
L 214.463391 145.101672 
L 215.05749 145.504097 
L 215.314155 145.394602 
L 215.744564 144.901847 
L 216.396141 144.185996 
L 216.922351 143.955366 
L 217.497149 143.952071 
L 218.211028 143.999594 
L 218.750848 143.706015 
L 219.248877 143.537542 
L 219.65852 143.355318 
L 220.529393 142.791044 
L 221.501285 143.090051 
L 222.248955 142.73123 
L 222.767604 142.75084 
L 223.004888 142.980574 
L 223.24329 143.628781 
L 223.579184 145.532875 
L 224.161703 148.654432 
L 224.50593 149.398368 
L 224.803839 149.573562 
L 225.205423 149.521681 
L 225.766197 149.233594 
L 226.128353 148.789135 
L 226.494532 147.902745 
L 226.917278 146.223501 
L 229.312322 135.161978 
L 232.791544 135.270294 
L 234.630452 141.990967 
L 234.895803 142.233734 
L 235.108578 142.110121 
L 235.535455 141.36604 
L 235.749556 141.16481 
L 235.910421 141.274464 
L 236.125291 141.831953 
L 236.556338 143.893308 
L 237.043318 145.909605 
L 237.314782 146.333017 
L 237.477972 146.309486 
L 237.695918 145.964537 
L 238.023604 144.886349 
L 238.681722 142.537712 
L 238.846821 142.418661 
L 239.012147 142.601653 
L 239.288189 143.508558 
L 239.953214 146.1069 
L 240.231365 146.392969 
L 240.454342 146.316624 
L 240.957575 146.021984 
L 241.181951 146.155344 
L 241.519406 146.700584 
L 242.538881 148.647221 
L 242.881371 148.759483 
L 243.282842 148.588283 
L 243.917936 148.001808 
L 244.499606 147.177212 
L 245.085036 145.907339 
L 246.918078 141.48665 
L 248.954544 138.277004 
L 251.417591 135.161978 
L 254.85516 135.15158 
L 255.628744 137.465963 
L 257.00894 141.871398 
L 257.129775 141.886781 
L 257.250753 141.67358 
L 257.432495 140.732766 
L 257.675338 137.805302 
L 258.714153 120.774345 
L 259.02175 119.374718 
L 259.206753 119.269924 
L 259.392088 119.576457 
L 259.887877 120.566879 
L 260.012131 120.443157 
L 260.198693 119.791773 
L 260.510025 117.516939 
L 262.258412 101.732222 
L 262.696343 100.062661 
L 263.009425 99.525829 
L 263.322761 99.390669 
L 263.636394 99.276115 
L 263.82474 98.990199 
L 264.076092 98.118798 
L 264.453669 95.800417 
L 265.781473 86.662213 
L 266.481578 83.96713 
L 267.377214 81.37874 
L 268.858726 77.693549 
L 269.44163 75.19177 
L 270.091168 71.344259 
L 271.721238 60.93246 
L 272.504033 57.697105 
L 273.674124 53.902247 
L 274.773127 50.979934 
L 275.417036 49.761036 
L 275.866985 49.302983 
L 276.188118 49.265149 
L 276.444927 49.466196 
L 276.765877 50.073373 
L 277.15102 51.391269 
L 277.728983 54.404801 
L 278.564962 58.801348 
L 278.95146 59.759373 
L 279.209396 59.883811 
L 279.467556 59.694382 
L 280.631948 58.431272 
L 281.020983 58.447873 
L 281.410404 58.688564 
L 281.865148 59.249645 
L 282.320312 60.203677 
L 282.77589 61.788736 
L 283.166723 63.998207 
L 283.557878 67.508202 
L 284.014646 73.85676 
L 284.667923 86.962139 
L 285.71414 108.238739 
L 286.106634 112.104376 
L 286.564654 114.375485 
L 287.088376 116.714054 
L 287.481486 119.684 
L 287.809334 123.89483 
L 288.203087 131.988972 
L 289.123336 153.26142 
L 289.452496 156.678966 
L 289.716007 157.805251 
L 289.913745 157.981147 
L 290.111572 157.789315 
L 290.573494 156.784172 
L 291.168036 155.029682 
L 291.564791 153.058142 
L 292.226667 148.380858 
L 293.35289 140.654419 
L 294.280046 135.792677 
L 294.478537 135.161978 
L 320.343184 135.176692 
L 321.221918 138.322437 
L 322.045292 140.450143 
L 322.222193 140.555079 
L 322.340229 140.351903 
L 322.517445 139.374294 
L 322.754046 136.330184 
L 323.287742 128.109314 
L 323.466056 127.386361 
L 323.525541 127.444185 
L 323.644579 128.120877 
L 323.823311 130.887063 
L 324.660215 149.191333 
L 324.900164 150.497263 
L 325.020271 150.590776 
L 325.140467 150.258694 
L 325.320924 148.719376 
L 325.561842 143.83367 
L 325.923882 129.20368 
L 326.286703 118.539715 
L 326.589622 114.639073 
L 326.771611 114.074023 
L 326.893035 114.451345 
L 327.075315 116.215718 
L 327.379505 122.230733 
L 328.050447 136.748736 
L 328.172691 137.06185 
L 328.295012 136.394115 
L 328.478641 133.558039 
L 329.030567 118.679652 
L 329.522422 108.270459 
L 329.892008 104.296352 
L 330.138687 103.331453 
L 330.262104 103.316717 
L 330.447318 103.83794 
L 330.756223 105.893769 
L 331.374733 110.288428 
L 331.498533 110.406887 
L 331.622362 110.097589 
L 331.808157 108.783648 
L 332.117938 104.536371 
L 334.039835 72.311356 
L 334.721137 66.357379 
L 335.401095 62.149579 
L 336.202043 58.554671 
L 339.438683 45.931556 
L 339.984565 44.827106 
L 340.529181 44.207705 
L 341.07231 43.909644 
L 341.733692 43.811634 
L 342.928176 43.925911 
L 344.110021 43.951989 
L 345.102193 43.747023 
L 347.909168 42.955721 
L 348.477972 43.100523 
L 348.934063 43.437771 
L 349.334499 44.025024 
L 349.736501 45.061299 
L 350.140352 46.856348 
L 350.546247 49.862333 
L 351.01266 55.176915 
L 352.662939 76.504249 
L 352.959919 77.436034 
L 353.197914 77.58315 
L 353.495881 77.397588 
L 353.854087 77.191554 
L 354.033439 77.306361 
L 354.272824 77.837157 
L 354.57245 79.295888 
L 354.872508 81.921375 
L 355.233144 87.170275 
L 355.654679 97.274109 
L 356.864133 132.103703 
L 356.924812 132.201827 
L 357.046232 131.690644 
L 357.289313 128.366065 
L 358.203732 112.619488 
L 358.387152 112.005393 
L 358.50953 112.33005 
L 358.693245 114.004637 
L 358.938478 118.575522 
L 359.306943 130.096679 
L 359.799431 145.458785 
L 360.107953 149.272535 
L 360.231518 149.612886 
L 360.293335 149.558576 
L 360.417035 149.042574 
L 360.664705 146.65053 
L 361.53376 136.181825 
L 361.65799 136.073885 
L 361.782217 136.547452 
L 362.030661 139.07141 
L 363.147934 153.774323 
L 363.3957 154.457628 
L 363.519469 154.43849 
L 363.704973 154.011132 
L 364.013756 152.420043 
L 365.058332 145.88381 
L 365.180508 145.846865 
L 365.363462 146.248255 
L 365.667605 147.76441 
L 366.393059 151.667446 
L 366.693063 152.267506 
L 366.87237 152.233704 
L 367.05116 151.844995 
L 367.288788 150.695339 
L 367.643639 147.716238 
L 368.694879 137.556679 
L 368.925659 137.220408 
L 369.098104 137.459267 
L 369.725574 138.835917 
L 369.838804 138.684359 
L 370.008132 137.969748 
L 370.288966 135.302613 
L 370.900945 125.620316 
L 371.395684 119.671887 
L 371.776697 117.406155 
L 372.100613 116.578424 
L 372.793978 115.300288 
L 373.110142 113.935958 
L 373.579883 110.754241 
L 374.401721 105.099048 
L 374.756191 103.898381 
L 375.057234 103.487761 
L 375.895411 102.843958 
L 376.18653 101.94264 
L 376.570617 99.793768 
L 377.781864 92.137551 
L 378.099325 90.75583 
L 378.368321 88.087549 
L 378.853691 80.201469 
L 379.459181 71.314582 
L 380.056262 66.232746 
L 381.066728 58.022761 
L 382.684466 43.292836 
L 383.257683 40.426834 
L 383.825892 38.68107 
L 384.38872 37.625618 
L 384.906385 37.088108 
L 385.419089 36.867897 
L 385.965478 36.871861 
L 386.544108 37.108064 
L 387.379 37.720112 
L 388.377718 38.71325 
L 389.133647 39.763616 
L 389.976992 41.348926 
L 393.482842 48.426156 
L 394.491767 49.721148 
L 395.548918 50.717231 
L 396.847268 51.612052 
L 397.376778 52.064476 
L 397.627641 52.598592 
L 397.844675 53.73656 
L 398.063648 56.49064 
L 398.284667 62.491607 
L 398.582743 77.961449 
L 399.345665 122.120179 
L 399.423314 122.74581 
L 399.462225 122.701972 
L 399.579306 121.301737 
L 399.893994 112.442999 
L 400.252153 104.645734 
L 400.412678 103.675962 
L 400.452934 103.690524 
L 400.573998 104.354357 
L 400.776733 107.56334 
L 401.062519 116.434848 
L 401.682195 137.590308 
L 401.807269 138.137648 
L 401.89086 137.682494 
L 402.058536 135.096684 
L 402.778311 120.895005 
L 402.992116 120.024217 
L 403.077894 120.135404 
L 403.249888 121.118468 
L 403.552269 124.705856 
L 404.031 129.919924 
L 404.162313 130.131532 
L 404.293944 129.675709 
L 404.558151 127.223535 
L 405.090263 122.256013 
L 405.313398 121.746867 
L 405.447674 121.944787 
L 405.672121 122.936213 
L 406.486837 127.250035 
L 406.669302 127.404261 
L 406.806485 127.276663 
L 407.08171 126.585061 
L 407.589227 125.249976 
L 407.728294 125.238361 
L 407.914149 125.576704 
L 408.193858 126.733332 
L 408.850823 129.717372 
L 409.134227 130.058822 
L 409.752047 130.372453 
L 410.038927 130.995127 
L 410.471287 132.582617 
L 411.685192 137.65043 
L 412.176154 139.314729 
L 414.705501 150.337591 
L 416.244225 154.164626 
L 416.490438 154.26587 
L 416.981039 154.179404 
L 417.370877 154.132323 
L 417.854344 153.796816 
L 418.428517 153.085694 
L 420.334554 150.441764 
L 420.784417 150.315109 
L 421.183456 150.438214 
L 421.619972 150.846432 
L 422.176306 151.717547 
L 422.76084 153.052203 
L 423.925161 155.55654 
L 424.430007 156.04345 
L 424.660104 156.051673 
L 424.92664 155.758971 
L 425.417195 154.889667 
L 425.753891 154.408915 
L 426.161765 153.873944 
L 426.638462 152.838114 
L 427.289969 151.27027 
L 427.611103 151.264509 
L 428.241486 151.309665 
L 428.516455 151.019017 
L 428.720903 150.292182 
L 430.339701 142.336848 
L 431.143455 139.688164 
L 431.73974 138.42286 
L 432.28988 137.740765 
L 433.22015 137.029733 
L 433.957658 136.307315 
L 435.054506 135.161978 
L 445.461469 135.064889 
L 445.75269 134.577864 
L 446.048957 134.239095 
L 446.14881 134.258816 
L 446.350147 135.637099 
L 447.141399 142.663562 
L 447.211581 142.641721 
L 447.31725 142.215634 
L 447.494405 140.327492 
L 448.033515 132.886866 
L 448.069856 132.900581 
L 448.179174 133.482407 
L 448.435951 137.089386 
L 448.881518 142.667863 
L 449.106751 143.371998 
L 449.219961 143.241388 
L 449.44754 142.318469 
L 449.984491 139.864572 
L 450.100617 139.831504 
L 450.256027 140.156898 
L 450.568789 141.688573 
L 451.042656 143.81599 
L 451.161985 143.831109 
L 451.321618 143.455885 
L 451.602412 141.981046 
L 452.087976 139.442749 
L 452.250999 139.302253 
L 452.45559 139.563435 
L 452.743516 139.897562 
L 452.908823 139.780761 
L 453.116246 139.192759 
L 453.449942 137.330671 
L 454.251446 132.614436 
L 454.979323 129.560182 
L 455.542816 125.350339 
L 456.288738 120.292502 
L 457.224211 114.420205 
L 461.659907 79.252435 
L 462.974326 70.766785 
L 463.405112 69.543762 
L 464.341036 67.932026 
L 464.593758 67.91957 
L 464.845539 68.168262 
L 465.8474 69.871587 
L 466.180163 69.891535 
L 466.554258 69.679051 
L 466.92873 69.18118 
L 467.346206 68.215458 
L 467.808391 66.507632 
L 468.403125 63.296283 
L 469.932622 54.52139 
L 470.739153 51.39617 
L 471.589187 48.938187 
L 472.295357 47.528135 
L 472.860682 46.833113 
L 473.375775 46.532275 
L 473.800783 46.5219 
L 474.222799 46.728752 
L 474.726104 47.243137 
L 475.310115 48.186657 
L 475.892058 49.584084 
L 476.556426 51.802707 
L 477.055413 54.284169 
L 477.514396 57.860217 
L 478.060241 64.210656 
L 479.34139 80.143111 
L 480.040388 85.647278 
L 480.886064 92.054102 
L 482.299912 104.501998 
L 482.531579 104.845991 
L 482.671011 104.71451 
L 482.904099 104.036196 
L 484.224867 99.143776 
L 484.51107 98.996528 
L 485.134726 98.870983 
L 485.375834 98.478301 
L 485.762964 97.263211 
L 486.297843 95.785852 
L 486.835489 95.044318 
L 487.474148 94.289875 
L 487.671317 94.477562 
L 487.918189 95.110989 
L 488.363669 97.084111 
L 488.860252 100.032514 
L 489.308574 104.260865 
L 490.963712 124.136137 
L 492.378868 141.975455 
L 493.898778 154.692297 
L 494.203461 155.599039 
L 494.406747 155.697064 
L 494.610165 155.48578 
L 495.068182 154.798859 
L 495.321989 154.751747 
L 495.625505 154.424129 
L 495.978075 153.638589 
L 496.47882 151.864564 
L 497.959005 146.257085 
L 498.876513 143.770015 
L 499.822352 141.844819 
L 500.055355 141.257955 
L 500.656346 138.778566 
L 501.204769 137.336317 
L 501.701985 136.602688 
L 502.149583 136.323282 
L 502.327507 136.326345 
L 502.504719 136.726677 
L 502.987793 138.27572 
L 503.465026 139.593527 
L 504.282707 140.553287 
L 504.669553 140.719631 
L 504.97096 140.623694 
L 505.316423 140.247922 
L 505.750274 139.401831 
L 506.406017 137.548542 
L 507.243917 135.161978 
L 519.025405 135.245933 
L 519.720223 138.530352 
L 520.292004 140.283015 
L 520.647048 140.834522 
L 520.959707 140.941677 
L 521.319298 141.039581 
L 521.54524 141.381029 
L 521.999734 142.67221 
L 522.503424 143.846245 
L 522.8721 144.206483 
L 523.242783 144.257337 
L 523.61553 144.061903 
L 524.037383 143.558911 
L 524.842105 142.501791 
L 525.128869 142.471122 
L 525.465376 142.673467 
L 526.487423 143.46781 
L 526.684166 143.312221 
L 526.931008 142.79069 
L 527.278256 141.40765 
L 528.078867 137.984689 
L 528.381383 137.600389 
L 529.040778 137.216569 
L 529.295785 136.476085 
L 529.654087 134.533792 
L 530.634186 128.531392 
L 531.050138 127.352621 
L 531.730171 125.746712 
L 532.256706 123.592261 
L 532.945573 120.954484 
L 533.425315 119.893342 
L 534.014636 119.138515 
L 534.337259 119.023708 
L 534.606591 119.195673 
L 534.87623 119.674939 
L 535.146043 120.619472 
L 535.523834 122.826904 
L 536.655301 130.042081 
L 537.085165 133.482117 
L 538.904632 150.563241 
L 539.225136 151.592192 
L 539.652717 152.074395 
L 540.080703 152.694701 
L 540.66992 153.546933 
L 540.884375 153.566955 
L 541.098928 153.366635 
L 541.420924 152.676782 
L 541.957926 150.823151 
L 542.602278 148.405752 
L 542.655876 148.424821 
L 542.976387 148.395588 
L 543.400699 148.063013 
L 545.108329 146.459513 
L 546.784487 144.947901 
L 547.544055 143.881117 
L 548.516515 142.077698 
L 550.874068 137.574093 
L 552.032682 135.90321 
L 552.749712 135.161978 
L 563.08684 135.192478 
L 563.462526 136.697466 
L 564.181406 140.678609 
L 565.155067 146.281707 
L 565.545977 147.381867 
L 565.870615 147.761865 
L 566.126406 147.792302 
L 566.347989 147.611102 
L 566.646618 147.009579 
L 567.06242 145.568699 
L 567.828469 141.891876 
L 569.235819 135.20622 
L 569.384694 135.161978 
L 574.453982 135.255933 
L 575.253713 138.856632 
L 575.83552 140.62514 
L 576.307278 141.428884 
L 578.082078 143.350976 
L 578.411916 143.279356 
L 578.827128 142.900577 
L 579.921392 141.806313 
L 580.519143 141.615867 
L 580.949365 141.697977 
L 581.81618 142.024269 
L 581.990239 141.648589 
L 582.208004 140.634317 
L 582.556769 137.600564 
L 583.255541 131.250222 
L 583.912628 127.237228 
L 584.307987 122.399106 
L 585.543107 105.470762 
L 586.870406 92.074491 
L 587.921453 76.890019 
L 589.158466 59.302149 
L 589.901816 51.792802 
L 590.545465 47.350102 
L 591.17352 44.505223 
L 591.749734 42.763293 
L 592.24041 41.932868 
L 592.649822 41.65062 
L 592.981141 41.652769 
L 593.273111 41.867099 
L 593.598984 42.407451 
L 593.993992 43.581808 
L 594.457045 45.773922 
L 595.518619 51.126262 
L 595.873873 51.845404 
L 596.159808 52.002007 
L 596.484019 51.916521 
L 598.619942 50.723681 
L 600.045971 49.663577 
L 600.653202 49.507111 
L 601.140909 49.597964 
L 601.587502 49.914287 
L 601.994729 50.491666 
L 602.363876 51.43528 
L 602.695844 52.953499 
L 603.028133 55.71738 
L 603.36132 60.54465 
L 603.845183 71.626137 
L 604.446138 84.731328 
L 604.711052 86.989671 
L 604.862952 87.228509 
L 604.977117 87.027607 
L 605.24429 85.855079 
L 605.627821 84.444759 
L 605.820377 84.358278 
L 605.974792 84.648878 
L 606.207025 85.697972 
L 606.556744 88.584239 
L 607.656182 99.07379 
L 607.854633 99.379869 
L 607.974065 99.293712 
L 608.213794 98.68752 
L 609.02222 96.229286 
L 609.144872 96.244361 
L 609.30903 96.572811 
L 609.556654 97.827516 
L 609.889507 101.033597 
L 610.522124 110.211415 
L 611.07985 116.709789 
L 612.268376 127.353336 
L 613.499699 143.789966 
L 614.249707 149.352563 
L 614.773775 151.813118 
L 615.062187 152.432295 
L 615.255326 152.461333 
L 615.449083 152.175162 
L 615.740735 151.236032 
L 616.375984 148.119396 
L 617.803752 141.316389 
L 618.644849 138.318858 
L 619.389162 136.43005 
L 620.085722 135.165831 
L 621.531887 135.161978 
L 624.587907 135.135156 
L 625.247049 137.317836 
L 626.681546 141.915316 
L 627.043615 142.457634 
L 627.25116 142.497557 
L 627.511262 142.260508 
L 628.138578 141.457137 
L 628.296092 141.555655 
L 628.506538 141.986786 
L 628.928889 143.566403 
L 629.459482 145.328789 
L 629.72584 145.624758 
L 629.885993 145.576928 
L 630.099931 145.264064 
L 630.52924 144.059986 
L 631.068675 142.626765 
L 631.285333 142.529823 
L 631.44816 142.716591 
L 631.720174 143.453223 
L 632.595985 146.194419 
L 632.871353 146.414561 
L 633.092211 146.302536 
L 633.368968 145.808835 
L 633.702023 144.6213 
L 634.706906 140.464767 
L 634.875219 140.557843 
L 635.156283 141.216714 
L 635.833632 142.933684 
L 636.117051 143.166793 
L 636.743546 143.428964 
L 637.030028 143.932298 
L 637.433128 145.203116 
L 638.129899 148.215295 
L 638.775715 150.960017 
L 639.071185 151.492092 
L 639.248847 151.500657 
L 639.485999 151.167608 
L 639.841933 150.08911 
L 640.434449 147.373775 
L 641.728602 141.123225 
L 641.904262 140.966721 
L 642.079914 141.209329 
L 642.37272 142.226128 
L 643.193858 145.307204 
L 643.605732 146.052507 
L 643.782587 146.110827 
L 643.95965 145.93298 
L 644.196064 145.206589 
L 644.492126 143.287875 
L 645.086116 137.021003 
L 645.384044 134.957736 
L 645.503388 134.744328 
L 645.563096 134.784716 
L 645.742368 135.458695 
L 646.041642 137.915968 
L 646.642019 142.981497 
L 646.88285 143.699876 
L 647.00341 143.671534 
L 647.18443 143.130997 
L 647.426125 141.521767 
L 647.910657 136.288717 
L 648.335857 132.639423 
L 648.518435 132.237126 
L 648.640269 132.399523 
L 648.823194 133.245767 
L 649.250827 136.997926 
L 649.740936 140.729242 
L 649.986544 141.458842 
L 650.109486 141.488588 
L 650.294072 141.13346 
L 650.602173 139.657047 
L 651.467883 134.753026 
L 651.653968 134.653876 
L 651.840256 135.057191 
L 652.151183 136.61058 
L 652.899692 140.793726 
L 653.149909 141.281325 
L 653.337805 141.239304 
L 653.525901 140.878244 
L 653.902689 139.46252 
L 654.532428 137.016395 
L 654.784936 136.750013 
L 654.974545 136.931306 
L 655.227661 137.608253 
L 656.243576 140.892594 
L 656.434672 140.97396 
L 656.625959 140.819694 
L 656.945197 140.113569 
L 657.906079 137.539734 
L 658.098822 137.49903 
L 658.291753 137.671814 
L 658.613721 138.310238 
L 659.388554 139.945351 
L 659.64749 140.047272 
L 659.841906 139.899507 
L 660.166342 139.266601 
L 661.207937 136.776998 
L 661.469138 136.667399 
L 661.730657 136.811893 
L 662.189075 137.449804 
L 662.714154 138.079168 
L 662.977152 138.091732 
L 663.24045 137.868457 
L 663.76792 136.999466 
L 664.230375 136.422041 
L 664.495005 136.383273 
L 664.759899 136.575899 
L 665.290468 137.373306 
L 666.154776 138.69023 
L 666.487891 138.860502 
L 666.821398 138.746135 
L 667.422755 138.169934 
L 668.092706 137.65364 
L 668.966829 137.259409 
L 669.506571 137.233387 
L 670.183203 137.460084 
L 670.658143 137.530841 
L 670.99804 137.370975 
L 671.406612 136.90882 
L 672.225861 135.897782 
L 672.568007 135.813686 
L 673.047786 135.996461 
L 673.5972 136.187551 
L 673.941168 136.109033 
L 674.423473 135.722152 
L 675.459907 134.787944 
L 675.87559 134.757784 
L 676.430811 135.009757 
L 677.126404 135.275437 
L 677.614347 135.19527 
L 679.153353 134.64851 
L 679.513182 134.745523 
L 679.513182 134.745523 
" clip-path="url(#p98da03b00d)" style="fill: none; stroke: #d62728; stroke-opacity: 0.8; stroke-width: 0.9; stroke-linecap: square"/>
   </g>
   <g id="patch_3">
    <path d="M 56.09 246.04 
L 56.09 26.88 
" style="fill: none; stroke: #000000; stroke-width: 0.8; stroke-linejoin: miter; stroke-linecap: square"/>
   </g>
   <g id="patch_4">
    <path d="M 709.2 246.04 
L 709.2 26.88 
" style="fill: none; stroke: #000000; stroke-width: 0.8; stroke-linejoin: miter; stroke-linecap: square"/>
   </g>
   <g id="patch_5">
    <path d="M 56.09 246.04 
L 709.2 246.04 
" style="fill: none; stroke: #000000; stroke-width: 0.8; stroke-linejoin: miter; stroke-linecap: square"/>
   </g>
   <g id="patch_6">
    <path d="M 56.09 26.88 
L 709.2 26.88 
" style="fill: none; stroke: #000000; stroke-width: 0.8; stroke-linejoin: miter; stroke-linecap: square"/>
   </g>
   <g id="text_15">
    <!-- steering-link loads over one Ring Knutstorp lap -->
    <g transform="translate(241.40875 20.88) scale(0.12 -0.12)">
     <defs>
      <path id="DejaVuSans-67" d="M 2906 1791 
Q 2906 2416 2648 2759 
Q 2391 3103 1925 3103 
Q 1463 3103 1205 2759 
Q 947 2416 947 1791 
Q 947 1169 1205 825 
Q 1463 481 1925 481 
Q 2391 481 2648 825 
Q 2906 1169 2906 1791 
z
M 3481 434 
Q 3481 -459 3084 -895 
Q 2688 -1331 1869 -1331 
Q 1566 -1331 1297 -1286 
Q 1028 -1241 775 -1147 
L 775 -588 
Q 1028 -725 1275 -790 
Q 1522 -856 1778 -856 
Q 2344 -856 2625 -561 
Q 2906 -266 2906 331 
L 2906 616 
Q 2728 306 2450 153 
Q 2172 0 1784 0 
Q 1141 0 747 490 
Q 353 981 353 1791 
Q 353 2603 747 3093 
Q 1141 3584 1784 3584 
Q 2172 3584 2450 3431 
Q 2728 3278 2906 2969 
L 2906 3500 
L 3481 3500 
L 3481 434 
z
" transform="scale(0.015625)"/>
      <path id="DejaVuSans-6c" d="M 603 4863 
L 1178 4863 
L 1178 0 
L 603 0 
L 603 4863 
z
" transform="scale(0.015625)"/>
      <path id="DejaVuSans-76" d="M 191 3500 
L 800 3500 
L 1894 563 
L 2988 3500 
L 3597 3500 
L 2284 0 
L 1503 0 
L 191 3500 
z
" transform="scale(0.015625)"/>
      <path id="DejaVuSans-52" d="M 2841 2188 
Q 3044 2119 3236 1894 
Q 3428 1669 3622 1275 
L 4263 0 
L 3584 0 
L 2988 1197 
Q 2756 1666 2539 1819 
Q 2322 1972 1947 1972 
L 1259 1972 
L 1259 0 
L 628 0 
L 628 4666 
L 2053 4666 
Q 2853 4666 3247 4331 
Q 3641 3997 3641 3322 
Q 3641 2881 3436 2590 
Q 3231 2300 2841 2188 
z
M 1259 4147 
L 1259 2491 
L 2053 2491 
Q 2509 2491 2742 2702 
Q 2975 2913 2975 3322 
Q 2975 3731 2742 3939 
Q 2509 4147 2053 4147 
L 1259 4147 
z
" transform="scale(0.015625)"/>
      <path id="DejaVuSans-4b" d="M 628 4666 
L 1259 4666 
L 1259 2694 
L 3353 4666 
L 4166 4666 
L 1850 2491 
L 4331 0 
L 3500 0 
L 1259 2247 
L 1259 0 
L 628 0 
L 628 4666 
z
" transform="scale(0.015625)"/>
      <path id="DejaVuSans-75" d="M 544 1381 
L 544 3500 
L 1119 3500 
L 1119 1403 
Q 1119 906 1312 657 
Q 1506 409 1894 409 
Q 2359 409 2629 706 
Q 2900 1003 2900 1516 
L 2900 3500 
L 3475 3500 
L 3475 0 
L 2900 0 
L 2900 538 
Q 2691 219 2414 64 
Q 2138 -91 1772 -91 
Q 1169 -91 856 284 
Q 544 659 544 1381 
z
M 1991 3584 
L 1991 3584 
z
" transform="scale(0.015625)"/>
      <path id="DejaVuSans-70" d="M 1159 525 
L 1159 -1331 
L 581 -1331 
L 581 3500 
L 1159 3500 
L 1159 2969 
Q 1341 3281 1617 3432 
Q 1894 3584 2278 3584 
Q 2916 3584 3314 3078 
Q 3713 2572 3713 1747 
Q 3713 922 3314 415 
Q 2916 -91 2278 -91 
Q 1894 -91 1617 61 
Q 1341 213 1159 525 
z
M 3116 1747 
Q 3116 2381 2855 2742 
Q 2594 3103 2138 3103 
Q 1681 3103 1420 2742 
Q 1159 2381 1159 1747 
Q 1159 1113 1420 752 
Q 1681 391 2138 391 
Q 2594 391 2855 752 
Q 3116 1113 3116 1747 
z
" transform="scale(0.015625)"/>
     </defs>
     <use xlink:href="#DejaVuSans-73"/>
     <use xlink:href="#DejaVuSans-74" transform="translate(52.099609 0)"/>
     <use xlink:href="#DejaVuSans-65" transform="translate(91.308594 0)"/>
     <use xlink:href="#DejaVuSans-65" transform="translate(152.832031 0)"/>
     <use xlink:href="#DejaVuSans-72" transform="translate(214.355469 0)"/>
     <use xlink:href="#DejaVuSans-69" transform="translate(255.46875 0)"/>
     <use xlink:href="#DejaVuSans-6e" transform="translate(283.251953 0)"/>
     <use xlink:href="#DejaVuSans-67" transform="translate(346.630859 0)"/>
     <use xlink:href="#DejaVuSans-2d" transform="translate(410.107422 0)"/>
     <use xlink:href="#DejaVuSans-6c" transform="translate(446.191406 0)"/>
     <use xlink:href="#DejaVuSans-69" transform="translate(473.974609 0)"/>
     <use xlink:href="#DejaVuSans-6e" transform="translate(501.757812 0)"/>
     <use xlink:href="#DejaVuSans-6b" transform="translate(565.136719 0)"/>
     <use xlink:href="#DejaVuSans-20" transform="translate(623.046875 0)"/>
     <use xlink:href="#DejaVuSans-6c" transform="translate(654.833984 0)"/>
     <use xlink:href="#DejaVuSans-6f" transform="translate(682.617188 0)"/>
     <use xlink:href="#DejaVuSans-61" transform="translate(743.798828 0)"/>
     <use xlink:href="#DejaVuSans-64" transform="translate(805.078125 0)"/>
     <use xlink:href="#DejaVuSans-73" transform="translate(868.554688 0)"/>
     <use xlink:href="#DejaVuSans-20" transform="translate(920.654297 0)"/>
     <use xlink:href="#DejaVuSans-6f" transform="translate(952.441406 0)"/>
     <use xlink:href="#DejaVuSans-76" transform="translate(1013.623047 0)"/>
     <use xlink:href="#DejaVuSans-65" transform="translate(1072.802734 0)"/>
     <use xlink:href="#DejaVuSans-72" transform="translate(1134.326172 0)"/>
     <use xlink:href="#DejaVuSans-20" transform="translate(1175.439453 0)"/>
     <use xlink:href="#DejaVuSans-6f" transform="translate(1207.226562 0)"/>
     <use xlink:href="#DejaVuSans-6e" transform="translate(1268.408203 0)"/>
     <use xlink:href="#DejaVuSans-65" transform="translate(1331.787109 0)"/>
     <use xlink:href="#DejaVuSans-20" transform="translate(1393.310547 0)"/>
     <use xlink:href="#DejaVuSans-52" transform="translate(1425.097656 0)"/>
     <use xlink:href="#DejaVuSans-69" transform="translate(1494.580078 0)"/>
     <use xlink:href="#DejaVuSans-6e" transform="translate(1522.363281 0)"/>
     <use xlink:href="#DejaVuSans-67" transform="translate(1585.742188 0)"/>
     <use xlink:href="#DejaVuSans-20" transform="translate(1649.21875 0)"/>
     <use xlink:href="#DejaVuSans-4b" transform="translate(1681.005859 0)"/>
     <use xlink:href="#DejaVuSans-6e" transform="translate(1746.582031 0)"/>
     <use xlink:href="#DejaVuSans-75" transform="translate(1809.960938 0)"/>
     <use xlink:href="#DejaVuSans-74" transform="translate(1873.339844 0)"/>
     <use xlink:href="#DejaVuSans-73" transform="translate(1912.548828 0)"/>
     <use xlink:href="#DejaVuSans-74" transform="translate(1964.648438 0)"/>
     <use xlink:href="#DejaVuSans-6f" transform="translate(2003.857422 0)"/>
     <use xlink:href="#DejaVuSans-72" transform="translate(2065.039062 0)"/>
     <use xlink:href="#DejaVuSans-70" transform="translate(2106.152344 0)"/>
     <use xlink:href="#DejaVuSans-20" transform="translate(2169.628906 0)"/>
     <use xlink:href="#DejaVuSans-6c" transform="translate(2201.416016 0)"/>
     <use xlink:href="#DejaVuSans-61" transform="translate(2229.199219 0)"/>
     <use xlink:href="#DejaVuSans-70" transform="translate(2290.478516 0)"/>
    </g>
   </g>
   <g id="legend_1">
    <g id="patch_7">
     <path d="M 630.755 56.765 
L 703.6 56.765 
Q 705.2 56.765 705.2 55.165 
L 705.2 32.48 
Q 705.2 30.88 703.6 30.88 
L 630.755 30.88 
Q 629.155 30.88 629.155 32.48 
L 629.155 55.165 
Q 629.155 56.765 630.755 56.765 
z
" style="fill: #ffffff; opacity: 0.8; stroke: #cccccc; stroke-linejoin: miter"/>
    </g>
    <g id="line2d_27">
     <path d="M 632.355 37.35875 
L 640.355 37.35875 
L 648.355 37.35875 
" style="fill: none; stroke: #2ca02c; stroke-width: 0.9; stroke-linecap: square"/>
    </g>
    <g id="text_16">
     <!-- tie rod left -->
     <g transform="translate(654.755 40.15875) scale(0.08 -0.08)">
      <use xlink:href="#DejaVuSans-74"/>
      <use xlink:href="#DejaVuSans-69" transform="translate(39.208984 0)"/>
      <use xlink:href="#DejaVuSans-65" transform="translate(66.992188 0)"/>
      <use xlink:href="#DejaVuSans-20" transform="translate(128.515625 0)"/>
      <use xlink:href="#DejaVuSans-72" transform="translate(160.302734 0)"/>
      <use xlink:href="#DejaVuSans-6f" transform="translate(199.166016 0)"/>
      <use xlink:href="#DejaVuSans-64" transform="translate(260.347656 0)"/>
      <use xlink:href="#DejaVuSans-20" transform="translate(323.824219 0)"/>
      <use xlink:href="#DejaVuSans-6c" transform="translate(355.611328 0)"/>
      <use xlink:href="#DejaVuSans-65" transform="translate(383.394531 0)"/>
      <use xlink:href="#DejaVuSans-66" transform="translate(444.917969 0)"/>
      <use xlink:href="#DejaVuSans-74" transform="translate(478.373047 0)"/>
     </g>
    </g>
    <g id="line2d_28">
     <path d="M 632.355 49.10125 
L 640.355 49.10125 
L 648.355 49.10125 
" style="fill: none; stroke: #d62728; stroke-opacity: 0.8; stroke-width: 0.9; stroke-linecap: square"/>
    </g>
    <g id="text_17">
     <!-- tie rod right -->
     <g transform="translate(654.755 51.90125) scale(0.08 -0.08)">
      <defs>
       <path id="DejaVuSans-68" d="M 3513 2113 
L 3513 0 
L 2938 0 
L 2938 2094 
Q 2938 2591 2744 2837 
Q 2550 3084 2163 3084 
Q 1697 3084 1428 2787 
Q 1159 2491 1159 1978 
L 1159 0 
L 581 0 
L 581 4863 
L 1159 4863 
L 1159 2956 
Q 1366 3272 1645 3428 
Q 1925 3584 2291 3584 
Q 2894 3584 3203 3211 
Q 3513 2838 3513 2113 
z
" transform="scale(0.015625)"/>
      </defs>
      <use xlink:href="#DejaVuSans-74"/>
      <use xlink:href="#DejaVuSans-69" transform="translate(39.208984 0)"/>
      <use xlink:href="#DejaVuSans-65" transform="translate(66.992188 0)"/>
      <use xlink:href="#DejaVuSans-20" transform="translate(128.515625 0)"/>
      <use xlink:href="#DejaVuSans-72" transform="translate(160.302734 0)"/>
      <use xlink:href="#DejaVuSans-6f" transform="translate(199.166016 0)"/>
      <use xlink:href="#DejaVuSans-64" transform="translate(260.347656 0)"/>
      <use xlink:href="#DejaVuSans-20" transform="translate(323.824219 0)"/>
      <use xlink:href="#DejaVuSans-72" transform="translate(355.611328 0)"/>
      <use xlink:href="#DejaVuSans-69" transform="translate(396.724609 0)"/>
      <use xlink:href="#DejaVuSans-67" transform="translate(424.507812 0)"/>
      <use xlink:href="#DejaVuSans-68" transform="translate(487.984375 0)"/>
      <use xlink:href="#DejaVuSans-74" transform="translate(551.363281 0)"/>
     </g>
    </g>
   </g>
  </g>
 </g>
 <defs>
  <clipPath id="p98da03b00d">
   <rect x="56.09" y="26.88" width="653.11" height="219.16"/>
  </clipPath>
 </defs>
</svg>
