<?xml version="1.0" encoding="utf-8" standalone="no"?>
<!DOCTYPE svg PUBLIC "-//W3C//DTD SVG 1.1//EN"
  "http://www.w3.org/Graphics/SVG/1.1/DTD/svg11.dtd">
<svg xmlns:xlink="http://www.w3.org/1999/xlink" width="720pt" height="288pt" viewBox="0 0 720 288" xmlns="http://www.w3.org/2000/svg" version="1.1">
 <metadata>
  <rdf:RDF xmlns:dc="http://purl.org/dc/elements/1.1/" xmlns:cc="http://creativecommons.org/ns#" xmlns:rdf="http://www.w3.org/1999/02/22-rdf-syntax-ns#">
   <cc:Work>
    <dc:type rdf:resource="http://purl.org/dc/dcmitype/StillImage"/>
    <dc:date>2026-07-08T14:50:16.346900</dc:date>
    <dc:format>image/svg+xml</dc:format>
    <dc:creator>
     <cc:Agent>
      <dc:title>Matplotlib v3.10.8, https://matplotlib.org/</dc:title>
     </cc:Agent>
    </dc:creator>
   </cc:Work>
  </rdf:RDF>
 </metadata>
 <defs>
  <style type="text/css">*{stroke-linejoin: round; stroke-linecap: butt}</style>
 </defs>
 <g id="figure_1">
  <g id="patch_1">
   <path d="M 0 288 
L 720 288 
L 720 0 
L 0 0 
z
" style="fill: #ffffff"/>
  </g>
  <g id="axes_1">
   <g id="patch_2">
    <path d="M 56.09 246.04 
L 709.2 246.04 
L 709.2 26.88 
L 56.09 26.88 
z
" style="fill: #ffffff"/>
   </g>
   <g id="matplotlib.axis_1">
    <g id="xtick_1">
     <g id="line2d_1">
      <path d="M 85.776818 246.04 
L 85.776818 26.88 
" clip-path="url(#p057ae53353)" style="fill: none; stroke: #b0b0b0; stroke-opacity: 0.3; stroke-width: 0.8; stroke-linecap: square"/>
     </g>
     <g id="line2d_2">
      <defs>
       <path id="mccf45636be" d="M 0 0 
L 0 3.5 
" style="stroke: #000000; stroke-width: 0.8"/>
      </defs>
      <g>
       <use xlink:href="#mccf45636be" x="85.776818" y="246.04" style="stroke: #000000; stroke-width: 0.8"/>
      </g>
     </g>
     <g id="text_1">
      <!-- 0.0 -->
      <g transform="translate(77.825256 260.638438) scale(0.1 -0.1)">
       <defs>
        <path id="DejaVuSans-30" d="M 2034 4250 
Q 1547 4250 1301 3770 
Q 1056 3291 1056 2328 
Q 1056 1369 1301 889 
Q 1547 409 2034 409 
Q 2525 409 2770 889 
Q 3016 1369 3016 2328 
Q 3016 3291 2770 3770 
Q 2525 4250 2034 4250 
z
M 2034 4750 
Q 2819 4750 3233 4129 
Q 3647 3509 3647 2328 
Q 3647 1150 3233 529 
Q 2819 -91 2034 -91 
Q 1250 -91 836 529 
Q 422 1150 422 2328 
Q 422 3509 836 4129 
Q 1250 4750 2034 4750 
z
" transform="scale(0.015625)"/>
        <path id="DejaVuSans-2e" d="M 684 794 
L 1344 794 
L 1344 0 
L 684 0 
L 684 794 
z
" transform="scale(0.015625)"/>
       </defs>
       <use xlink:href="#DejaVuSans-30"/>
       <use xlink:href="#DejaVuSans-2e" transform="translate(63.623047 0)"/>
       <use xlink:href="#DejaVuSans-30" transform="translate(95.410156 0)"/>
      </g>
     </g>
    </g>
    <g id="xtick_2">
     <g id="line2d_3">
      <path d="M 159.834639 246.04 
L 159.834639 26.88 
" clip-path="url(#p057ae53353)" style="fill: none; stroke: #b0b0b0; stroke-opacity: 0.3; stroke-width: 0.8; stroke-linecap: square"/>
     </g>
     <g id="line2d_4">
      <g>
       <use xlink:href="#mccf45636be" x="159.834639" y="246.04" style="stroke: #000000; stroke-width: 0.8"/>
      </g>
     </g>
     <g id="text_2">
      <!-- 0.5 -->
      <g transform="translate(151.883077 260.638438) scale(0.1 -0.1)">
       <defs>
        <path id="DejaVuSans-35" d="M 691 4666 
L 3169 4666 
L 3169 4134 
L 1269 4134 
L 1269 2991 
Q 1406 3038 1543 3061 
Q 1681 3084 1819 3084 
Q 2600 3084 3056 2656 
Q 3513 2228 3513 1497 
Q 3513 744 3044 326 
Q 2575 -91 1722 -91 
Q 1428 -91 1123 -41 
Q 819 9 494 109 
L 494 744 
Q 775 591 1075 516 
Q 1375 441 1709 441 
Q 2250 441 2565 725 
Q 2881 1009 2881 1497 
Q 2881 1984 2565 2268 
Q 2250 2553 1709 2553 
Q 1456 2553 1204 2497 
Q 953 2441 691 2322 
L 691 4666 
z
" transform="scale(0.015625)"/>
       </defs>
       <use xlink:href="#DejaVuSans-30"/>
       <use xlink:href="#DejaVuSans-2e" transform="translate(63.623047 0)"/>
       <use xlink:href="#DejaVuSans-35" transform="translate(95.410156 0)"/>
      </g>
     </g>
    </g>
    <g id="xtick_3">
     <g id="line2d_5">
      <path d="M 233.89246 246.04 
L 233.89246 26.88 
" clip-path="url(#p057ae53353)" style="fill: none; stroke: #b0b0b0; stroke-opacity: 0.3; stroke-width: 0.8; stroke-linecap: square"/>
     </g>
     <g id="line2d_6">
      <g>
       <use xlink:href="#mccf45636be" x="233.89246" y="246.04" style="stroke: #000000; stroke-width: 0.8"/>
      </g>
     </g>
     <g id="text_3">
      <!-- 1.0 -->
      <g transform="translate(225.940898 260.638438) scale(0.1 -0.1)">
       <defs>
        <path id="DejaVuSans-31" d="M 794 531 
L 1825 531 
L 1825 4091 
L 703 3866 
L 703 4441 
L 1819 4666 
L 2450 4666 
L 2450 531 
L 3481 531 
L 3481 0 
L 794 0 
L 794 531 
z
" transform="scale(0.015625)"/>
       </defs>
       <use xlink:href="#DejaVuSans-31"/>
       <use xlink:href="#DejaVuSans-2e" transform="translate(63.623047 0)"/>
       <use xlink:href="#DejaVuSans-30" transform="translate(95.410156 0)"/>
      </g>
     </g>
    </g>
    <g id="xtick_4">
     <g id="line2d_7">
      <path d="M 307.950282 246.04 
L 307.950282 26.88 
" clip-path="url(#p057ae53353)" style="fill: none; stroke: #b0b0b0; stroke-opacity: 0.3; stroke-width: 0.8; stroke-linecap: square"/>
     </g>
     <g id="line2d_8">
      <g>
       <use xlink:href="#mccf45636be" x="307.950282" y="246.04" style="stroke: #000000; stroke-width: 0.8"/>
      </g>
     </g>
     <g id="text_4">
      <!-- 1.5 -->
      <g transform="translate(299.998719 260.638438) scale(0.1 -0.1)">
       <use xlink:href="#DejaVuSans-31"/>
       <use xlink:href="#DejaVuSans-2e" transform="translate(63.623047 0)"/>
       <use xlink:href="#DejaVuSans-35" transform="translate(95.410156 0)"/>
      </g>
     </g>
    </g>
    <g id="xtick_5">
     <g id="line2d_9">
      <path d="M 382.008103 246.04 
L 382.008103 26.88 
" clip-path="url(#p057ae53353)" style="fill: none; stroke: #b0b0b0; stroke-opacity: 0.3; stroke-width: 0.8; stroke-linecap: square"/>
     </g>
     <g id="line2d_10">
      <g>
       <use xlink:href="#mccf45636be" x="382.008103" y="246.04" style="stroke: #000000; stroke-width: 0.8"/>
      </g>
     </g>
     <g id="text_5">
      <!-- 2.0 -->
      <g transform="translate(374.05654 260.638438) scale(0.1 -0.1)">
       <defs>
        <path id="DejaVuSans-32" d="M 1228 531 
L 3431 531 
L 3431 0 
L 469 0 
L 469 531 
Q 828 903 1448 1529 
Q 2069 2156 2228 2338 
Q 2531 2678 2651 2914 
Q 2772 3150 2772 3378 
Q 2772 3750 2511 3984 
Q 2250 4219 1831 4219 
Q 1534 4219 1204 4116 
Q 875 4013 500 3803 
L 500 4441 
Q 881 4594 1212 4672 
Q 1544 4750 1819 4750 
Q 2544 4750 2975 4387 
Q 3406 4025 3406 3419 
Q 3406 3131 3298 2873 
Q 3191 2616 2906 2266 
Q 2828 2175 2409 1742 
Q 1991 1309 1228 531 
z
" transform="scale(0.015625)"/>
       </defs>
       <use xlink:href="#DejaVuSans-32"/>
       <use xlink:href="#DejaVuSans-2e" transform="translate(63.623047 0)"/>
       <use xlink:href="#DejaVuSans-30" transform="translate(95.410156 0)"/>
      </g>
     </g>
    </g>
    <g id="xtick_6">
     <g id="line2d_11">
      <path d="M 456.065924 246.04 
L 456.065924 26.88 
" clip-path="url(#p057ae53353)" style="fill: none; stroke: #b0b0b0; stroke-opacity: 0.3; stroke-width: 0.8; stroke-linecap: square"/>
     </g>
     <g id="line2d_12">
      <g>
       <use xlink:href="#mccf45636be" x="456.065924" y="246.04" style="stroke: #000000; stroke-width: 0.8"/>
      </g>
     </g>
     <g id="text_6">
      <!-- 2.5 -->
      <g transform="translate(448.114361 260.638438) scale(0.1 -0.1)">
       <use xlink:href="#DejaVuSans-32"/>
       <use xlink:href="#DejaVuSans-2e" transform="translate(63.623047 0)"/>
       <use xlink:href="#DejaVuSans-35" transform="translate(95.410156 0)"/>
      </g>
     </g>
    </g>
    <g id="xtick_7">
     <g id="line2d_13">
      <path d="M 530.123745 246.04 
L 530.123745 26.88 
" clip-path="url(#p057ae53353)" style="fill: none; stroke: #b0b0b0; stroke-opacity: 0.3; stroke-width: 0.8; stroke-linecap: square"/>
     </g>
     <g id="line2d_14">
      <g>
       <use xlink:href="#mccf45636be" x="530.123745" y="246.04" style="stroke: #000000; stroke-width: 0.8"/>
      </g>
     </g>
     <g id="text_7">
      <!-- 3.0 -->
      <g transform="translate(522.172182 260.638438) scale(0.1 -0.1)">
       <defs>
        <path id="DejaVuSans-33" d="M 2597 2516 
Q 3050 2419 3304 2112 
Q 3559 1806 3559 1356 
Q 3559 666 3084 287 
Q 2609 -91 1734 -91 
Q 1441 -91 1130 -33 
Q 819 25 488 141 
L 488 750 
Q 750 597 1062 519 
Q 1375 441 1716 441 
Q 2309 441 2620 675 
Q 2931 909 2931 1356 
Q 2931 1769 2642 2001 
Q 2353 2234 1838 2234 
L 1294 2234 
L 1294 2753 
L 1863 2753 
Q 2328 2753 2575 2939 
Q 2822 3125 2822 3475 
Q 2822 3834 2567 4026 
Q 2313 4219 1838 4219 
Q 1578 4219 1281 4162 
Q 984 4106 628 3988 
L 628 4550 
Q 988 4650 1302 4700 
Q 1616 4750 1894 4750 
Q 2613 4750 3031 4423 
Q 3450 4097 3450 3541 
Q 3450 3153 3228 2886 
Q 3006 2619 2597 2516 
z
" transform="scale(0.015625)"/>
       </defs>
       <use xlink:href="#DejaVuSans-33"/>
       <use xlink:href="#DejaVuSans-2e" transform="translate(63.623047 0)"/>
       <use xlink:href="#DejaVuSans-30" transform="translate(95.410156 0)"/>
      </g>
     </g>
    </g>
    <g id="xtick_8">
     <g id="line2d_15">
      <path d="M 604.181566 246.04 
L 604.181566 26.88 
" clip-path="url(#p057ae53353)" style="fill: none; stroke: #b0b0b0; stroke-opacity: 0.3; stroke-width: 0.8; stroke-linecap: square"/>
     </g>
     <g id="line2d_16">
      <g>
       <use xlink:href="#mccf45636be" x="604.181566" y="246.04" style="stroke: #000000; stroke-width: 0.8"/>
      </g>
     </g>
     <g id="text_8">
      <!-- 3.5 -->
      <g transform="translate(596.230004 260.638438) scale(0.1 -0.1)">
       <use xlink:href="#DejaVuSans-33"/>
       <use xlink:href="#DejaVuSans-2e" transform="translate(63.623047 0)"/>
       <use xlink:href="#DejaVuSans-35" transform="translate(95.410156 0)"/>
      </g>
     </g>
    </g>
    <g id="xtick_9">
     <g id="line2d_17">
      <path d="M 678.239387 246.04 
L 678.239387 26.88 
" clip-path="url(#p057ae53353)" style="fill: none; stroke: #b0b0b0; stroke-opacity: 0.3; stroke-width: 0.8; stroke-linecap: square"/>
     </g>
     <g id="line2d_18">
      <g>
       <use xlink:href="#mccf45636be" x="678.239387" y="246.04" style="stroke: #000000; stroke-width: 0.8"/>
      </g>
     </g>
     <g id="text_9">
      <!-- 4.0 -->
      <g transform="translate(670.287825 260.638438) scale(0.1 -0.1)">
       <defs>
        <path id="DejaVuSans-34" d="M 2419 4116 
L 825 1625 
L 2419 1625 
L 2419 4116 
z
M 2253 4666 
L 3047 4666 
L 3047 1625 
L 3713 1625 
L 3713 1100 
L 3047 1100 
L 3047 0 
L 2419 0 
L 2419 1100 
L 313 1100 
L 313 1709 
L 2253 4666 
z
" transform="scale(0.015625)"/>
       </defs>
       <use xlink:href="#DejaVuSans-34"/>
       <use xlink:href="#DejaVuSans-2e" transform="translate(63.623047 0)"/>
       <use xlink:href="#DejaVuSans-30" transform="translate(95.410156 0)"/>
      </g>
     </g>
    </g>
    <g id="text_10">
     <!-- distance s [km] -->
     <g transform="translate(344.008281 274.316562) scale(0.1 -0.1)">
      <defs>
       <path id="DejaVuSans-64" d="M 2906 2969 
L 2906 4863 
L 3481 4863 
L 3481 0 
L 2906 0 
L 2906 525 
Q 2725 213 2448 61 
Q 2172 -91 1784 -91 
Q 1150 -91 751 415 
Q 353 922 353 1747 
Q 353 2572 751 3078 
Q 1150 3584 1784 3584 
Q 2172 3584 2448 3432 
Q 2725 3281 2906 2969 
z
M 947 1747 
Q 947 1113 1208 752 
Q 1469 391 1925 391 
Q 2381 391 2643 752 
Q 2906 1113 2906 1747 
Q 2906 2381 2643 2742 
Q 2381 3103 1925 3103 
Q 1469 3103 1208 2742 
Q 947 2381 947 1747 
z
" transform="scale(0.015625)"/>
       <path id="DejaVuSans-69" d="M 603 3500 
L 1178 3500 
L 1178 0 
L 603 0 
L 603 3500 
z
M 603 4863 
L 1178 4863 
L 1178 4134 
L 603 4134 
L 603 4863 
z
" transform="scale(0.015625)"/>
       <path id="DejaVuSans-73" d="M 2834 3397 
L 2834 2853 
Q 2591 2978 2328 3040 
Q 2066 3103 1784 3103 
Q 1356 3103 1142 2972 
Q 928 2841 928 2578 
Q 928 2378 1081 2264 
Q 1234 2150 1697 2047 
L 1894 2003 
Q 2506 1872 2764 1633 
Q 3022 1394 3022 966 
Q 3022 478 2636 193 
Q 2250 -91 1575 -91 
Q 1294 -91 989 -36 
Q 684 19 347 128 
L 347 722 
Q 666 556 975 473 
Q 1284 391 1588 391 
Q 1994 391 2212 530 
Q 2431 669 2431 922 
Q 2431 1156 2273 1281 
Q 2116 1406 1581 1522 
L 1381 1569 
Q 847 1681 609 1914 
Q 372 2147 372 2553 
Q 372 3047 722 3315 
Q 1072 3584 1716 3584 
Q 2034 3584 2315 3537 
Q 2597 3491 2834 3397 
z
" transform="scale(0.015625)"/>
       <path id="DejaVuSans-74" d="M 1172 4494 
L 1172 3500 
L 2356 3500 
L 2356 3053 
L 1172 3053 
L 1172 1153 
Q 1172 725 1289 603 
Q 1406 481 1766 481 
L 2356 481 
L 2356 0 
L 1766 0 
Q 1100 0 847 248 
Q 594 497 594 1153 
L 594 3053 
L 172 3053 
L 172 3500 
L 594 3500 
L 594 4494 
L 1172 4494 
z
" transform="scale(0.015625)"/>
       <path id="DejaVuSans-61" d="M 2194 1759 
Q 1497 1759 1228 1600 
Q 959 1441 959 1056 
Q 959 750 1161 570 
Q 1363 391 1709 391 
Q 2188 391 2477 730 
Q 2766 1069 2766 1631 
L 2766 1759 
L 2194 1759 
z
M 3341 1997 
L 3341 0 
L 2766 0 
L 2766 531 
Q 2569 213 2275 61 
Q 1981 -91 1556 -91 
Q 1019 -91 701 211 
Q 384 513 384 1019 
Q 384 1609 779 1909 
Q 1175 2209 1959 2209 
L 2766 2209 
L 2766 2266 
Q 2766 2663 2505 2880 
Q 2244 3097 1772 3097 
Q 1472 3097 1187 3025 
Q 903 2953 641 2809 
L 641 3341 
Q 956 3463 1253 3523 
Q 1550 3584 1831 3584 
Q 2591 3584 2966 3190 
Q 3341 2797 3341 1997 
z
" transform="scale(0.015625)"/>
       <path id="DejaVuSans-6e" d="M 3513 2113 
L 3513 0 
L 2938 0 
L 2938 2094 
Q 2938 2591 2744 2837 
Q 2550 3084 2163 3084 
Q 1697 3084 1428 2787 
Q 1159 2491 1159 1978 
L 1159 0 
L 581 0 
L 581 3500 
L 1159 3500 
L 1159 2956 
Q 1366 3272 1645 3428 
Q 1925 3584 2291 3584 
Q 2894 3584 3203 3211 
Q 3513 2838 3513 2113 
z
" transform="scale(0.015625)"/>
       <path id="DejaVuSans-63" d="M 3122 3366 
L 3122 2828 
Q 2878 2963 2633 3030 
Q 2388 3097 2138 3097 
Q 1578 3097 1268 2742 
Q 959 2388 959 1747 
Q 959 1106 1268 751 
Q 1578 397 2138 397 
Q 2388 397 2633 464 
Q 2878 531 3122 666 
L 3122 134 
Q 2881 22 2623 -34 
Q 2366 -91 2075 -91 
Q 1284 -91 818 406 
Q 353 903 353 1747 
Q 353 2603 823 3093 
Q 1294 3584 2113 3584 
Q 2378 3584 2631 3529 
Q 2884 3475 3122 3366 
z
" transform="scale(0.015625)"/>
       <path id="DejaVuSans-65" d="M 3597 1894 
L 3597 1613 
L 953 1613 
Q 991 1019 1311 708 
Q 1631 397 2203 397 
Q 2534 397 2845 478 
Q 3156 559 3463 722 
L 3463 178 
Q 3153 47 2828 -22 
Q 2503 -91 2169 -91 
Q 1331 -91 842 396 
Q 353 884 353 1716 
Q 353 2575 817 3079 
Q 1281 3584 2069 3584 
Q 2775 3584 3186 3129 
Q 3597 2675 3597 1894 
z
M 3022 2063 
Q 3016 2534 2758 2815 
Q 2500 3097 2075 3097 
Q 1594 3097 1305 2825 
Q 1016 2553 972 2059 
L 3022 2063 
z
" transform="scale(0.015625)"/>
       <path id="DejaVuSans-20" transform="scale(0.015625)"/>
       <path id="DejaVuSans-5b" d="M 550 4863 
L 1875 4863 
L 1875 4416 
L 1125 4416 
L 1125 -397 
L 1875 -397 
L 1875 -844 
L 550 -844 
L 550 4863 
z
" transform="scale(0.015625)"/>
       <path id="DejaVuSans-6b" d="M 581 4863 
L 1159 4863 
L 1159 1991 
L 2875 3500 
L 3609 3500 
L 1753 1863 
L 3688 0 
L 2938 0 
L 1159 1709 
L 1159 0 
L 581 0 
L 581 4863 
z
" transform="scale(0.015625)"/>
       <path id="DejaVuSans-6d" d="M 3328 2828 
Q 3544 3216 3844 3400 
Q 4144 3584 4550 3584 
Q 5097 3584 5394 3201 
Q 5691 2819 5691 2113 
L 5691 0 
L 5113 0 
L 5113 2094 
Q 5113 2597 4934 2840 
Q 4756 3084 4391 3084 
Q 3944 3084 3684 2787 
Q 3425 2491 3425 1978 
L 3425 0 
L 2847 0 
L 2847 2094 
Q 2847 2600 2669 2842 
Q 2491 3084 2119 3084 
Q 1678 3084 1418 2786 
Q 1159 2488 1159 1978 
L 1159 0 
L 581 0 
L 581 3500 
L 1159 3500 
L 1159 2956 
Q 1356 3278 1631 3431 
Q 1906 3584 2284 3584 
Q 2666 3584 2933 3390 
Q 3200 3197 3328 2828 
z
" transform="scale(0.015625)"/>
       <path id="DejaVuSans-5d" d="M 1947 4863 
L 1947 -844 
L 622 -844 
L 622 -397 
L 1369 -397 
L 1369 4416 
L 622 4416 
L 622 4863 
L 1947 4863 
z
" transform="scale(0.015625)"/>
      </defs>
      <use xlink:href="#DejaVuSans-64"/>
      <use xlink:href="#DejaVuSans-69" transform="translate(63.476562 0)"/>
      <use xlink:href="#DejaVuSans-73" transform="translate(91.259766 0)"/>
      <use xlink:href="#DejaVuSans-74" transform="translate(143.359375 0)"/>
      <use xlink:href="#DejaVuSans-61" transform="translate(182.568359 0)"/>
      <use xlink:href="#DejaVuSans-6e" transform="translate(243.847656 0)"/>
      <use xlink:href="#DejaVuSans-63" transform="translate(307.226562 0)"/>
      <use xlink:href="#DejaVuSans-65" transform="translate(362.207031 0)"/>
      <use xlink:href="#DejaVuSans-20" transform="translate(423.730469 0)"/>
      <use xlink:href="#DejaVuSans-73" transform="translate(455.517578 0)"/>
      <use xlink:href="#DejaVuSans-20" transform="translate(507.617188 0)"/>
      <use xlink:href="#DejaVuSans-5b" transform="translate(539.404297 0)"/>
      <use xlink:href="#DejaVuSans-6b" transform="translate(578.417969 0)"/>
      <use xlink:href="#DejaVuSans-6d" transform="translate(636.328125 0)"/>
      <use xlink:href="#DejaVuSans-5d" transform="translate(733.740234 0)"/>
     </g>
    </g>
   </g>
   <g id="matplotlib.axis_2">
    <g id="ytick_1">
     <g id="line2d_19">
      <path d="M 56.09 240.943609 
L 709.2 240.943609 
" clip-path="url(#p057ae53353)" style="fill: none; stroke: #b0b0b0; stroke-opacity: 0.3; stroke-width: 0.8; stroke-linecap: square"/>
     </g>
     <g id="line2d_20">
      <defs>
       <path id="m2d991f3ba9" d="M 0 0 
L -3.5 0 
" style="stroke: #000000; stroke-width: 0.8"/>
      </defs>
      <g>
       <use xlink:href="#m2d991f3ba9" x="56.09" y="240.943609" style="stroke: #000000; stroke-width: 0.8"/>
      </g>
     </g>
     <g id="text_11">
      <!-- −1.5 -->
      <g transform="translate(24.807188 244.742828) scale(0.1 -0.1)">
       <defs>
        <path id="DejaVuSans-2212" d="M 678 2272 
L 4684 2272 
L 4684 1741 
L 678 1741 
L 678 2272 
z
" transform="scale(0.015625)"/>
       </defs>
       <use xlink:href="#DejaVuSans-2212"/>
       <use xlink:href="#DejaVuSans-31" transform="translate(83.789062 0)"/>
       <use xlink:href="#DejaVuSans-2e" transform="translate(147.412109 0)"/>
       <use xlink:href="#DejaVuSans-35" transform="translate(179.199219 0)"/>
      </g>
     </g>
    </g>
    <g id="ytick_2">
     <g id="line2d_21">
      <path d="M 56.09 206.265919 
L 709.2 206.265919 
" clip-path="url(#p057ae53353)" style="fill: none; stroke: #b0b0b0; stroke-opacity: 0.3; stroke-width: 0.8; stroke-linecap: square"/>
     </g>
     <g id="line2d_22">
      <g>
       <use xlink:href="#m2d991f3ba9" x="56.09" y="206.265919" style="stroke: #000000; stroke-width: 0.8"/>
      </g>
     </g>
     <g id="text_12">
      <!-- −1.0 -->
      <g transform="translate(24.807188 210.065137) scale(0.1 -0.1)">
       <use xlink:href="#DejaVuSans-2212"/>
       <use xlink:href="#DejaVuSans-31" transform="translate(83.789062 0)"/>
       <use xlink:href="#DejaVuSans-2e" transform="translate(147.412109 0)"/>
       <use xlink:href="#DejaVuSans-30" transform="translate(179.199219 0)"/>
      </g>
     </g>
    </g>
    <g id="ytick_3">
     <g id="line2d_23">
      <path d="M 56.09 171.588228 
L 709.2 171.588228 
" clip-path="url(#p057ae53353)" style="fill: none; stroke: #b0b0b0; stroke-opacity: 0.3; stroke-width: 0.8; stroke-linecap: square"/>
     </g>
     <g id="line2d_24">
      <g>
       <use xlink:href="#m2d991f3ba9" x="56.09" y="171.588228" style="stroke: #000000; stroke-width: 0.8"/>
      </g>
     </g>
     <g id="text_13">
      <!-- −0.5 -->
      <g transform="translate(24.807188 175.387447) scale(0.1 -0.1)">
       <use xlink:href="#DejaVuSans-2212"/>
       <use xlink:href="#DejaVuSans-30" transform="translate(83.789062 0)"/>
       <use xlink:href="#DejaVuSans-2e" transform="translate(147.412109 0)"/>
       <use xlink:href="#DejaVuSans-35" transform="translate(179.199219 0)"/>
      </g>
     </g>
    </g>
    <g id="ytick_4">
     <g id="line2d_25">
      <path d="M 56.09 136.910537 
L 709.2 136.910537 
" clip-path="url(#p057ae53353)" style="fill: none; stroke: #b0b0b0; stroke-opacity: 0.3; stroke-width: 0.8; stroke-linecap: square"/>
     </g>
     <g id="line2d_26">
      <g>
       <use xlink:href="#m2d991f3ba9" x="56.09" y="136.910537" style="stroke: #000000; stroke-width: 0.8"/>
      </g>
     </g>
     <g id="text_14">
      <!-- 0.0 -->
      <g transform="translate(33.186875 140.709756) scale(0.1 -0.1)">
       <use xlink:href="#DejaVuSans-30"/>
       <use xlink:href="#DejaVuSans-2e" transform="translate(63.623047 0)"/>
       <use xlink:href="#DejaVuSans-30" transform="translate(95.410156 0)"/>
      </g>
     </g>
    </g>
    <g id="ytick_5">
     <g id="line2d_27">
      <path d="M 56.09 102.232846 
L 709.2 102.232846 
" clip-path="url(#p057ae53353)" style="fill: none; stroke: #b0b0b0; stroke-opacity: 0.3; stroke-width: 0.8; stroke-linecap: square"/>
     </g>
     <g id="line2d_28">
      <g>
       <use xlink:href="#m2d991f3ba9" x="56.09" y="102.232846" style="stroke: #000000; stroke-width: 0.8"/>
      </g>
     </g>
     <g id="text_15">
      <!-- 0.5 -->
      <g transform="translate(33.186875 106.032065) scale(0.1 -0.1)">
       <use xlink:href="#DejaVuSans-30"/>
       <use xlink:href="#DejaVuSans-2e" transform="translate(63.623047 0)"/>
       <use xlink:href="#DejaVuSans-35" transform="translate(95.410156 0)"/>
      </g>
     </g>
    </g>
    <g id="ytick_6">
     <g id="line2d_29">
      <path d="M 56.09 67.555155 
L 709.2 67.555155 
" clip-path="url(#p057ae53353)" style="fill: none; stroke: #b0b0b0; stroke-opacity: 0.3; stroke-width: 0.8; stroke-linecap: square"/>
     </g>
     <g id="line2d_30">
      <g>
       <use xlink:href="#m2d991f3ba9" x="56.09" y="67.555155" style="stroke: #000000; stroke-width: 0.8"/>
      </g>
     </g>
     <g id="text_16">
      <!-- 1.0 -->
      <g transform="translate(33.186875 71.354374) scale(0.1 -0.1)">
       <use xlink:href="#DejaVuSans-31"/>
       <use xlink:href="#DejaVuSans-2e" transform="translate(63.623047 0)"/>
       <use xlink:href="#DejaVuSans-30" transform="translate(95.410156 0)"/>
      </g>
     </g>
    </g>
    <g id="ytick_7">
     <g id="line2d_31">
      <path d="M 56.09 32.877464 
L 709.2 32.877464 
" clip-path="url(#p057ae53353)" style="fill: none; stroke: #b0b0b0; stroke-opacity: 0.3; stroke-width: 0.8; stroke-linecap: square"/>
     </g>
     <g id="line2d_32">
      <g>
       <use xlink:href="#m2d991f3ba9" x="56.09" y="32.877464" style="stroke: #000000; stroke-width: 0.8"/>
      </g>
     </g>
     <g id="text_17">
      <!-- 1.5 -->
      <g transform="translate(33.186875 36.676683) scale(0.1 -0.1)">
       <use xlink:href="#DejaVuSans-31"/>
       <use xlink:href="#DejaVuSans-2e" transform="translate(63.623047 0)"/>
       <use xlink:href="#DejaVuSans-35" transform="translate(95.410156 0)"/>
      </g>
     </g>
    </g>
    <g id="text_18">
     <!-- tie-rod force [kN] -->
     <g transform="translate(18.7275 179.170156) rotate(-90) scale(0.1 -0.1)">
      <defs>
       <path id="DejaVuSans-2d" d="M 313 2009 
L 1997 2009 
L 1997 1497 
L 313 1497 
L 313 2009 
z
" transform="scale(0.015625)"/>
       <path id="DejaVuSans-72" d="M 2631 2963 
Q 2534 3019 2420 3045 
Q 2306 3072 2169 3072 
Q 1681 3072 1420 2755 
Q 1159 2438 1159 1844 
L 1159 0 
L 581 0 
L 581 3500 
L 1159 3500 
L 1159 2956 
Q 1341 3275 1631 3429 
Q 1922 3584 2338 3584 
Q 2397 3584 2469 3576 
Q 2541 3569 2628 3553 
L 2631 2963 
z
" transform="scale(0.015625)"/>
       <path id="DejaVuSans-6f" d="M 1959 3097 
Q 1497 3097 1228 2736 
Q 959 2375 959 1747 
Q 959 1119 1226 758 
Q 1494 397 1959 397 
Q 2419 397 2687 759 
Q 2956 1122 2956 1747 
Q 2956 2369 2687 2733 
Q 2419 3097 1959 3097 
z
M 1959 3584 
Q 2709 3584 3137 3096 
Q 3566 2609 3566 1747 
Q 3566 888 3137 398 
Q 2709 -91 1959 -91 
Q 1206 -91 779 398 
Q 353 888 353 1747 
Q 353 2609 779 3096 
Q 1206 3584 1959 3584 
z
" transform="scale(0.015625)"/>
       <path id="DejaVuSans-66" d="M 2375 4863 
L 2375 4384 
L 1825 4384 
Q 1516 4384 1395 4259 
Q 1275 4134 1275 3809 
L 1275 3500 
L 2222 3500 
L 2222 3053 
L 1275 3053 
L 1275 0 
L 697 0 
L 697 3053 
L 147 3053 
L 147 3500 
L 697 3500 
L 697 3744 
Q 697 4328 969 4595 
Q 1241 4863 1831 4863 
L 2375 4863 
z
" transform="scale(0.015625)"/>
       <path id="DejaVuSans-4e" d="M 628 4666 
L 1478 4666 
L 3547 763 
L 3547 4666 
L 4159 4666 
L 4159 0 
L 3309 0 
L 1241 3903 
L 1241 0 
L 628 0 
L 628 4666 
z
" transform="scale(0.015625)"/>
      </defs>
      <use xlink:href="#DejaVuSans-74"/>
      <use xlink:href="#DejaVuSans-69" transform="translate(39.208984 0)"/>
      <use xlink:href="#DejaVuSans-65" transform="translate(66.992188 0)"/>
      <use xlink:href="#DejaVuSans-2d" transform="translate(128.515625 0)"/>
      <use xlink:href="#DejaVuSans-72" transform="translate(164.599609 0)"/>
      <use xlink:href="#DejaVuSans-6f" transform="translate(203.462891 0)"/>
      <use xlink:href="#DejaVuSans-64" transform="translate(264.644531 0)"/>
      <use xlink:href="#DejaVuSans-20" transform="translate(328.121094 0)"/>
      <use xlink:href="#DejaVuSans-66" transform="translate(359.908203 0)"/>
      <use xlink:href="#DejaVuSans-6f" transform="translate(395.113281 0)"/>
      <use xlink:href="#DejaVuSans-72" transform="translate(456.294922 0)"/>
      <use xlink:href="#DejaVuSans-63" transform="translate(495.158203 0)"/>
      <use xlink:href="#DejaVuSans-65" transform="translate(550.138672 0)"/>
      <use xlink:href="#DejaVuSans-20" transform="translate(611.662109 0)"/>
      <use xlink:href="#DejaVuSans-5b" transform="translate(643.449219 0)"/>
      <use xlink:href="#DejaVuSans-6b" transform="translate(682.462891 0)"/>
      <use xlink:href="#DejaVuSans-4e" transform="translate(740.373047 0)"/>
      <use xlink:href="#DejaVuSans-5d" transform="translate(815.177734 0)"/>
     </g>
    </g>
   </g>
   <g id="line2d_33">
    <path d="M 85.776818 136.910537 
L 86.122624 132.77186 
L 86.468783 132.098642 
L 87.162159 140.144336 
L 87.509376 141.21947 
L 87.856943 138.041749 
L 88.20486 133.191563 
L 88.553126 131.151145 
L 88.901739 133.602078 
L 89.600008 143.004275 
L 89.94966 142.375873 
L 90.649996 132.871721 
L 91.000678 132.340491 
L 92.054764 144.459516 
L 92.406801 141.588013 
L 92.759175 135.423657 
L 93.111883 131.466447 
L 93.464925 132.850219 
L 94.172007 143.712436 
L 94.526043 143.843572 
L 95.590118 129.92777 
L 95.945461 133.546123 
L 96.301129 140.450825 
L 96.65712 144.227428 
L 97.013432 142.040948 
L 97.727015 129.288055 
L 98.084283 129.426674 
L 98.799768 142.524816 
L 99.157982 144.427673 
L 99.516508 139.696289 
L 99.875346 131.578599 
L 100.234494 127.641507 
L 100.593949 130.358189 
L 101.313782 144.736916 
L 101.674156 144.223301 
L 102.395814 128.841479 
L 102.757095 127.08785 
L 103.118673 132.602639 
L 103.480551 142.040455 
L 103.842727 146.532228 
L 104.205197 143.165171 
L 104.931023 126.594236 
L 105.294372 127.435894 
L 106.021942 145.352098 
L 106.38616 147.465092 
L 106.750663 140.909831 
L 107.115454 129.812857 
L 107.480529 124.863192 
L 107.845884 128.652876 
L 108.57744 148.099516 
L 108.943637 147.433178 
L 109.676863 126.391897 
L 110.04389 123.880675 
L 110.411187 130.950507 
L 110.778758 144.025865 
L 111.146602 150.399847 
L 111.514713 146.712855 
L 112.251745 123.730217 
L 112.620659 123.983633 
L 113.359278 148.494585 
L 113.728983 152.693128 
L 114.098944 145.949056 
L 114.469167 130.562492 
L 114.839652 122.212475 
L 115.210389 125.580634 
L 115.952576 153.507075 
L 116.323766 155.627275 
L 116.694857 146.031158 
L 117.065846 128.797098 
L 117.436729 121.791664 
L 117.807507 128.767938 
L 118.178193 147.414137 
L 118.548793 158.992086 
L 118.919301 159.259508 
L 119.289733 147.167961 
L 119.660123 128.217331 
L 120.030487 122.154366 
L 120.400832 132.579725 
L 120.77118 152.999054 
L 121.141528 163.531227 
L 121.511862 162.216821 
L 121.882203 145.888633 
L 122.252592 121.877375 
L 122.623057 114.89092 
L 122.99365 127.286092 
L 123.364493 156.560195 
L 123.735645 171.979344 
L 124.107063 178.250825 
L 124.478583 179.85159 
L 124.849889 172.808874 
L 125.591149 127.48325 
L 125.961257 125.405342 
L 126.701537 176.875492 
L 127.071997 190.574866 
L 127.44266 196.219503 
L 127.813489 197.279712 
L 128.184524 193.045489 
L 128.555897 174.95403 
L 129.299891 108.033751 
L 129.672312 105.909907 
L 130.044762 132.085708 
L 130.417159 168.175482 
L 130.789431 179.503655 
L 131.161559 178.75127 
L 131.533642 158.896331 
L 131.905848 112.501576 
L 132.278246 99.068963 
L 132.65076 99.794773 
L 133.023395 110.982854 
L 133.396268 151.078053 
L 133.769401 168.170182 
L 134.142712 171.176748 
L 134.516181 161.230151 
L 134.889893 118.490149 
L 135.263846 103.162449 
L 135.63791 101.606656 
L 136.012023 107.42457 
L 136.386279 145.290534 
L 136.760755 169.109524 
L 137.135366 174.299294 
L 137.510049 170.373758 
L 138.259948 104.138707 
L 138.635154 99.943863 
L 139.010428 104.945433 
L 139.761483 169.926482 
L 140.137266 176.338303 
L 140.513106 175.153979 
L 140.889059 148.30213 
L 141.265231 107.449098 
L 141.641566 98.95944 
L 142.017971 102.042935 
L 142.77122 169.58602 
L 143.148106 178.048998 
L 143.525037 178.937121 
L 143.902029 163.153872 
L 144.279205 115.454794 
L 144.656567 99.263614 
L 145.034009 99.001444 
L 145.411526 117.867292 
L 145.789231 163.664944 
L 146.167114 177.063809 
L 146.545066 179.451726 
L 146.923068 170.767749 
L 147.301252 128.085861 
L 147.679694 103.665944 
L 148.058306 103.345425 
L 148.437007 131.896078 
L 148.815794 171.896609 
L 149.194613 183.118496 
L 149.573409 186.184234 
L 149.952222 180.017141 
L 150.710383 108.12722 
L 151.089712 100.219462 
L 151.469124 116.962763 
L 151.848701 164.137851 
L 152.228465 182.184666 
L 152.608314 186.35512 
L 152.988179 183.783854 
L 153.368112 159.70254 
L 153.748226 112.141348 
L 154.128492 97.350503 
L 154.508818 99.76736 
L 154.889233 129.94861 
L 155.269839 169.888535 
L 155.650587 179.481036 
L 156.03137 179.958496 
L 156.412191 163.658774 
L 156.793177 114.5963 
L 157.174339 98.552258 
L 157.555568 98.005609 
L 157.936845 110.849972 
L 158.318286 156.734617 
L 158.699908 173.435513 
L 159.081594 176.583621 
L 159.463297 168.768505 
L 159.845129 123.018594 
L 160.227155 101.214355 
L 160.609269 98.741137 
L 160.991404 103.611454 
L 161.756098 168.342103 
L 162.138672 174.430138 
L 162.521307 172.482967 
L 163.287178 106.788751 
L 163.670491 100.916364 
L 164.053877 106.352946 
L 164.43727 147.19651 
L 164.820684 173.453581 
L 165.204067 179.926129 
L 165.587291 178.86192 
L 165.970214 152.471213 
L 166.352703 108.909372 
L 166.734469 96.870755 
L 167.115215 100.922697 
L 167.873101 172.681656 
L 168.249914 182.313208 
L 168.624946 178.681767 
L 169.36904 101.506036 
L 169.737787 91.295454 
L 170.104026 93.007424 
L 170.467665 113.43641 
L 170.828725 158.992081 
L 171.187107 175.943994 
L 171.542629 176.222803 
L 171.895212 149.291042 
L 172.244857 104.209186 
L 172.591443 91.29164 
L 172.934783 90.010584 
L 173.274787 99.219694 
L 173.944931 170.836559 
L 174.274969 179.262583 
L 174.601509 171.528452 
L 175.2441 99.18231 
L 175.560016 90.902217 
L 175.872181 96.609427 
L 176.786205 185.966556 
L 177.083173 187.148443 
L 177.376165 170.789231 
L 177.950345 108.394621 
L 178.231423 108.464873 
L 179.050058 192.702994 
L 179.314644 200.058343 
L 179.575181 199.100533 
L 179.831705 188.689444 
L 180.576577 136.624347 
L 180.81649 145.345556 
L 181.511354 195.765547 
L 181.734997 201.553724 
L 181.954899 202.479016 
L 182.171162 199.010729 
L 182.383846 190.793013 
L 183.000765 152.754955 
L 183.199576 151.989047 
L 183.77817 176.464897 
L 183.966123 177.912708 
L 184.152336 174.706851 
L 184.521665 165.547951 
L 184.705905 167.332345 
L 186.035671 214.715604 
L 186.632934 227.923972 
L 187.022122 232.146955 
L 187.386562 234.209469 
L 187.723389 234.777173 
L 187.88322 234.776043 
L 188.0385 234.604467 
L 188.338881 233.706369 
L 188.631011 231.973136 
L 189.064769 227.73121 
L 189.799515 219.722981 
L 190.10141 217.927404 
L 190.408259 217.00809 
L 190.563521 215.98897 
L 190.720031 212.2327 
L 190.877813 201.484018 
L 191.521839 124.11246 
L 192.018786 150.007515 
L 192.528878 113.435153 
L 192.701872 115.149272 
L 193.052157 125.538938 
L 193.22942 132.656601 
L 193.408057 135.099625 
L 193.951908 124.047097 
L 194.135735 125.29765 
L 194.320783 131.828911 
L 194.694488 149.185184 
L 194.88312 148.939116 
L 195.263968 137.820024 
L 195.45625 139.566483 
L 195.844671 155.441805 
L 196.04082 159.279431 
L 196.238261 158.599219 
L 196.838393 144.761765 
L 197.041029 146.915012 
L 197.449973 155.2419 
L 197.656204 155.16966 
L 197.86358 151.13031 
L 198.281739 138.987458 
L 198.492504 138.342765 
L 198.917361 145.273509 
L 199.131435 145.424444 
L 199.346598 141.602645 
L 199.780178 132.005531 
L 199.998589 132.483245 
L 200.438624 138.664742 
L 200.660233 138.186148 
L 201.106606 130.756772 
L 201.331357 129.378427 
L 201.557144 130.788433 
L 202.011792 135.59545 
L 202.240638 134.795058 
L 202.70134 129.723121 
L 202.93318 129.327038 
L 203.166002 130.962365 
L 203.634569 134.740121 
L 203.870299 133.843027 
L 204.344618 130.068561 
L 204.583191 130.180811 
L 205.304489 134.832531 
L 205.546762 133.833916 
L 206.034027 130.931369 
L 206.279007 131.462181 
L 206.771632 135.07637 
L 207.019268 135.552824 
L 207.767402 132.546588 
L 208.018504 133.606669 
L 208.523264 137.200107 
L 208.776915 137.406613 
L 209.286735 135.469664 
L 209.542895 135.813937 
L 210.316313 141.038885 
L 210.575609 141.072478 
L 210.835329 140.524813 
L 211.095192 140.442598 
L 211.354953 141.609164 
L 211.873282 145.981887 
L 212.131434 147.276422 
L 212.388655 147.574632 
L 212.64477 147.353472 
L 212.89961 147.705175 
L 213.153022 149.356323 
L 214.149197 158.730717 
L 214.634633 162.280713 
L 215.576892 171.564802 
L 215.806447 170.850902 
L 216.033516 169.27998 
L 216.258034 168.689225 
L 216.479944 169.974984 
L 217.129792 176.947624 
L 217.549919 178.613658 
L 218.162346 180.061308 
L 218.36233 180.213931 
L 218.560475 179.750184 
L 218.951787 177.214989 
L 219.145226 177.125946 
L 219.337377 179.264016 
L 220.096408 193.479243 
L 220.662027 197.835021 
L 221.041523 205.751052 
L 221.617063 218.441487 
L 222.195592 224.848376 
L 222.576099 227.258228 
L 222.947463 228.521466 
L 223.308935 229.080024 
L 223.486364 229.126149 
L 223.661953 229.002747 
L 224.008556 228.259542 
L 224.520348 226.11357 
L 225.700628 220.386978 
L 226.2077 219.078334 
L 227.061029 217.331972 
L 227.407105 215.461377 
L 227.75738 210.384685 
L 228.112842 198.666288 
L 229.02806 156.704773 
L 229.980339 129.714059 
L 230.174868 129.426821 
L 230.56779 132.299753 
L 230.766151 132.724227 
L 231.166597 131.101115 
L 231.368658 131.231309 
L 231.571933 132.896065 
L 231.982092 138.244655 
L 232.188966 139.22091 
L 232.606276 138.717174 
L 232.816704 139.469623 
L 233.45499 144.482566 
L 233.670038 144.471991 
L 234.103418 143.206783 
L 234.321707 143.539612 
L 234.761422 145.297525 
L 234.982822 145.381135 
L 235.205239 144.540808 
L 235.653096 142.219739 
L 235.878537 141.918194 
L 236.332434 142.262623 
L 236.560878 141.711755 
L 237.252141 137.78276 
L 237.484526 137.517854 
L 237.717886 137.656415 
L 237.952216 137.526328 
L 238.187511 136.778152 
L 238.660981 134.553503 
L 238.899147 134.070887 
L 239.138261 134.164732 
L 239.378317 134.44921 
L 239.61931 134.436516 
L 240.347853 132.771818 
L 240.592538 132.79114 
L 241.084625 133.628191 
L 241.332016 133.751618 
L 241.829461 133.294521 
L 242.079505 133.421063 
L 242.330424 134.065964 
L 242.83487 135.893197 
L 243.088387 136.096154 
L 243.597984 135.472929 
L 243.85405 135.513081 
L 244.627238 137.253357 
L 244.886612 137.017081 
L 245.407793 135.895253 
L 245.669592 136.000272 
L 246.195586 137.065813 
L 246.459772 137.019862 
L 246.990498 135.799056 
L 247.257029 135.609131 
L 247.524333 135.986116 
L 247.792406 136.601569 
L 248.061244 136.932428 
L 248.330842 136.739281 
L 248.8723 135.803706 
L 249.144153 135.900421 
L 249.690085 136.977357 
L 249.964155 137.132456 
L 250.790738 136.161631 
L 251.067709 136.452549 
L 251.623794 137.400861 
L 251.902901 137.352355 
L 252.463221 136.565973 
L 252.744427 136.546376 
L 253.592189 137.625708 
L 253.876144 137.402721 
L 254.446085 136.686668 
L 254.732064 136.813761 
L 255.306021 137.600764 
L 255.593992 137.607687 
L 256.461833 136.709004 
L 256.752411 136.954773 
L 257.043633 137.372536 
L 257.335495 137.5932 
L 257.627994 137.429779 
L 258.214889 136.707265 
L 258.509279 136.739457 
L 259.099926 137.440309 
L 259.396178 137.512709 
L 260.288607 136.670523 
L 260.587298 136.854605 
L 261.186482 137.516123 
L 261.48697 137.454465 
L 262.089721 136.806159 
L 262.391978 136.782264 
L 263.302244 137.624485 
L 263.60682 137.440961 
L 264.217688 136.890347 
L 264.523974 137.014022 
L 265.138234 137.710506 
L 265.446203 137.7184 
L 266.063806 137.088153 
L 266.373434 137.007281 
L 267.305592 137.797663 
L 267.617395 137.620995 
L 268.242607 136.923063 
L 268.556012 136.97852 
L 269.184406 137.504208 
L 269.499391 137.37592 
L 270.447465 136.054343 
L 270.764523 136.207341 
L 271.718784 138.694579 
L 272.037893 138.718588 
L 272.357506 138.540166 
L 272.677618 138.527525 
L 272.998219 138.336776 
L 273.640871 137.754804 
L 273.962921 137.805077 
L 274.285455 138.076019 
L 274.608474 138.137093 
L 274.931975 137.778435 
L 275.905357 135.597428 
L 276.230768 135.341407 
L 276.882999 135.160739 
L 277.209813 134.771469 
L 277.864826 133.688626 
L 278.193019 133.499055 
L 278.521665 133.628561 
L 278.850756 133.886222 
L 279.180191 133.992817 
L 280.1681 133.512924 
L 280.496439 133.833764 
L 281.799253 136.100715 
L 282.121383 136.430716 
L 282.441746 137.047889 
L 283.076587 139.554698 
L 283.702727 142.067364 
L 284.623967 145.000193 
L 286.108327 151.906468 
L 286.967589 155.140078 
L 287.527614 157.619745 
L 287.804041 158.388723 
L 288.078193 158.720431 
L 288.350134 158.841435 
L 288.619932 159.137097 
L 288.887654 159.882926 
L 289.153333 161.121578 
L 289.417005 163.715042 
L 290.196129 177.085668 
L 291.209233 186.685899 
L 291.706404 197.035663 
L 292.683562 219.438892 
L 293.162509 226.91527 
L 293.633864 230.973831 
L 294.097033 233.279888 
L 294.551835 234.697159 
L 294.99821 235.559401 
L 295.436204 236.001101 
L 295.866051 236.051321 
L 296.288313 235.726914 
L 296.704037 235.088529 
L 297.31792 233.566686 
L 298.915855 228.652311 
L 299.307571 227.957178 
L 299.50265 227.800267 
L 299.697308 227.834392 
L 300.085092 228.421922 
L 301.418515 231.351035 
L 301.788723 231.599598 
L 302.154235 231.545485 
L 302.515714 231.221188 
L 303.051996 230.250381 
L 303.583501 228.720302 
L 305.352401 222.334898 
L 305.71089 219.106352 
L 306.072237 212.457719 
L 307.362517 182.438364 
L 308.115599 155.253582 
L 308.305234 155.124914 
L 309.068934 167.96599 
L 309.453983 167.330097 
L 309.647298 168.414638 
L 310.035352 177.232411 
L 310.8153 198.59281 
L 311.400917 208.801917 
L 311.984893 214.796576 
L 312.566988 217.982454 
L 312.954573 219.127268 
L 313.342436 219.684963 
L 313.731052 219.875334 
L 314.902607 220.073579 
L 315.490559 220.2808 
L 315.883323 220.157814 
L 316.277017 219.620461 
L 316.67205 218.46749 
L 318.887132 209.679736 
L 319.920076 208.21718 
L 320.337102 206.984264 
L 320.546634 205.906434 
L 320.757004 204.147329 
L 321.180816 196.980376 
L 321.609438 184.301179 
L 322.48233 156.394037 
L 323.599092 134.643176 
L 323.825489 132.274901 
L 324.052873 132.308793 
L 324.510615 134.560367 
L 324.740971 134.055292 
L 325.204647 131.90174 
L 325.43796 132.438622 
L 326.143734 137.979924 
L 326.380916 137.817847 
L 326.61905 136.999971 
L 326.858131 136.778558 
L 327.09815 137.79188 
L 327.580979 141.149142 
L 327.823774 141.494341 
L 328.557608 139.162401 
L 328.804015 139.755607 
L 329.051309 140.80226 
L 329.299484 141.323027 
L 329.548535 140.760532 
L 330.049244 138.012334 
L 330.300893 137.474398 
L 330.5534 137.838332 
L 330.806759 138.414737 
L 331.060967 138.354508 
L 331.316018 137.34205 
L 331.828638 134.825074 
L 332.086199 134.694717 
L 332.603799 135.672249 
L 332.86383 135.42403 
L 333.386332 133.492232 
L 333.648794 133.063017 
L 333.912057 133.392853 
L 334.440968 134.555001 
L 334.706606 134.330142 
L 335.240224 133.071177 
L 335.508194 133.101385 
L 336.316697 134.93556 
L 336.587714 134.698924 
L 336.859481 134.162643 
L 337.131993 133.890714 
L 337.405248 134.227099 
L 337.953965 135.763328 
L 338.22942 135.977704 
L 338.782502 135.173661 
L 339.060121 135.127012 
L 339.338453 135.654727 
L 339.897245 136.990252 
L 340.177695 136.936063 
L 340.740687 136.123437 
L 341.023221 136.276344 
L 341.590349 137.605494 
L 341.874934 137.870629 
L 342.160196 137.593403 
L 342.446131 137.100422 
L 342.732735 136.908047 
L 343.020006 137.244285 
L 343.596529 138.459224 
L 343.885776 138.483977 
L 344.466222 137.669305 
L 344.757414 137.68419 
L 345.634827 139.184294 
L 345.928565 139.027844 
L 346.517922 138.33125 
L 346.813535 138.545874 
L 347.406611 139.691611 
L 347.704068 139.834257 
L 348.600073 138.980474 
L 348.899942 139.321279 
L 349.501461 140.254149 
L 349.803105 140.150459 
L 350.408144 139.249353 
L 350.711533 139.174028 
L 351.320037 139.87891 
L 351.625144 139.914158 
L 351.930819 139.480639 
L 352.543858 138.191637 
L 352.851219 138.028459 
L 353.467233 138.115285 
L 353.775372 137.631344 
L 354.697381 134.791856 
L 355.611559 133.445237 
L 356.214409 130.991772 
L 356.810675 128.687278 
L 357.690959 126.556762 
L 358.553497 123.328804 
L 359.118902 122.437037 
L 359.39887 122.031466 
L 359.677063 121.065816 
L 360.228298 116.829914 
L 360.501389 114.729999 
L 360.772748 113.701475 
L 361.042308 113.538448 
L 361.310027 113.629277 
L 361.575888 113.554938 
L 361.839864 113.196997 
L 362.62011 111.574718 
L 362.876341 111.545638 
L 363.130652 111.896935 
L 363.38307 113.040643 
L 365.33708 126.399397 
L 366.270021 131.066068 
L 366.9508 133.64805 
L 367.61535 135.447474 
L 367.833345 135.64953 
L 378.778673 135.64953 
L 379.749369 130.328497 
L 380.143997 128.937779 
L 380.54198 128.134629 
L 380.943078 127.860508 
L 381.144686 127.923306 
L 381.549726 128.413768 
L 381.956789 129.31468 
L 382.775373 131.914326 
L 383.803351 134.984592 
L 384.214921 135.64953 
L 394.134668 135.68128 
L 394.352756 135.828699 
L 394.792234 132.197795 
L 395.236259 128.154859 
L 395.460042 130.118226 
L 395.911234 150.525142 
L 396.13863 155.14297 
L 396.36718 153.731136 
L 396.827592 141.852829 
L 397.059385 143.283069 
L 397.526021 156.889918 
L 397.760818 159.102181 
L 397.996579 156.006598 
L 398.70957 135.469009 
L 398.949116 138.905606 
L 399.189595 144.595 
L 399.431001 146.794703 
L 399.673329 143.209749 
L 400.160737 128.220546 
L 400.405804 127.20036 
L 401.146389 138.384368 
L 401.395026 134.960749 
L 401.894922 126.464763 
L 402.146163 127.302543 
L 402.904991 138.17485 
L 403.159624 135.404959 
L 403.415094 131.222014 
L 403.671394 129.401969 
L 403.928519 131.38316 
L 404.445236 140.807793 
L 404.704824 141.35364 
L 405.226435 134.200116 
L 405.488449 133.259057 
L 405.751264 136.285804 
L 406.014879 141.016076 
L 406.27929 143.548748 
L 406.544496 142.398699 
L 407.077277 135.2183 
L 407.344843 135.491167 
L 407.882302 142.864466 
L 408.152183 143.852492 
L 408.422824 141.507221 
L 408.694221 137.503093 
L 408.966369 135.19036 
L 409.239263 136.483332 
L 409.787273 142.787106 
L 410.06238 142.54545 
L 410.614777 135.869964 
L 410.89206 134.718858 
L 411.17006 136.78455 
L 411.448774 140.121711 
L 411.728198 141.773634 
L 412.008327 140.461778 
L 412.570688 134.297604 
L 412.852912 134.402702 
L 413.41943 139.975294 
L 413.703716 140.572101 
L 413.988682 138.422836 
L 414.274324 135.171114 
L 414.56064 133.602661 
L 414.847625 134.821496 
L 415.42359 139.970995 
L 415.712562 139.54136 
L 416.292471 134.204587 
L 416.5834 133.781744 
L 416.874975 135.860297 
L 417.167192 138.761363 
L 417.460048 139.980417 
L 417.753539 138.61426 
L 418.342415 133.900413 
L 418.637794 134.529057 
L 419.230417 139.545724 
L 419.527654 139.735701 
L 420.423033 134.016908 
L 420.722704 135.559107 
L 421.022977 138.319906 
L 421.323848 139.893945 
L 421.625313 139.049896 
L 422.230017 134.281653 
L 422.53325 134.382853 
L 423.141462 139.419713 
L 423.446436 140.294195 
L 423.751985 138.723855 
L 424.058105 136.008891 
L 424.364795 134.616037 
L 424.67205 135.689443 
L 425.288247 140.241069 
L 425.597182 139.868526 
L 426.216715 135.152012 
L 426.527306 134.754917 
L 427.462352 140.023294 
L 427.775115 138.611362 
L 428.088414 135.878823 
L 428.402247 134.142301 
L 428.716611 134.736727 
L 429.346921 139.261003 
L 429.662863 139.262015 
L 430.296306 134.519925 
L 430.613802 133.718916 
L 430.931812 135.252936 
L 431.250332 137.901366 
L 431.569361 139.334993 
L 431.888896 138.357705 
L 432.529474 133.686161 
L 432.850511 133.914794 
L 433.494073 138.739137 
L 433.816592 139.263569 
L 434.139601 137.38489 
L 434.463096 134.681598 
L 434.787076 133.505608 
L 435.111538 134.800426 
L 435.761899 139.586447 
L 436.087794 139.131134 
L 436.741002 134.417447 
L 437.06831 134.418574 
L 437.724327 139.73652 
L 438.053034 140.361221 
L 438.382205 138.073808 
L 438.71184 134.491439 
L 439.041936 132.54431 
L 439.372487 133.453121 
L 440.034931 139.566135 
L 440.366812 140.140178 
L 440.699129 137.683711 
L 441.031883 134.302355 
L 441.365075 133.191397 
L 441.698705 135.329194 
L 442.032772 139.22597 
L 442.367272 141.745246 
L 442.702203 141.328089 
L 443.373349 136.062199 
L 443.709561 136.443956 
L 444.383247 143.37696 
L 444.72065 144.718736 
L 445.058134 143.038858 
L 445.395423 139.649698 
L 445.732268 137.513474 
L 446.068433 138.783378 
L 446.737866 145.382449 
L 447.070736 145.450049 
L 447.402133 142.426955 
L 447.73189 138.236807 
L 448.059851 136.124386 
L 448.385866 137.582249 
L 448.709791 140.948077 
L 449.031489 143.017224 
L 449.35083 141.720465 
L 449.981987 132.314142 
L 450.293599 130.016352 
L 450.602447 130.889476 
L 450.908457 133.347985 
L 451.21157 134.562361 
L 451.511736 132.427889 
L 452.103049 123.07007 
L 452.39411 120.453664 
L 452.682057 120.432507 
L 453.248521 123.085298 
L 453.527007 122.249459 
L 454.343295 113.78593 
L 454.609004 113.291817 
L 454.871604 114.318382 
L 455.387873 117.226291 
L 455.641691 116.936999 
L 456.140867 112.624401 
L 456.629186 109.210418 
L 456.869583 108.707542 
L 457.107696 108.610597 
L 457.343723 108.766279 
L 457.577871 109.319953 
L 458.270516 112.803537 
L 458.725357 116.144231 
L 459.622594 124.196809 
L 460.284751 128.186525 
L 460.933074 130.878508 
L 461.768458 133.315277 
L 462.764442 135.64953 
L 471.607882 135.652232 
L 471.800293 135.798142 
L 471.994205 136.218088 
L 472.189619 135.755621 
L 472.386548 134.586489 
L 472.784903 129.048822 
L 472.986295 132.741351 
L 473.393452 157.071228 
L 473.599132 161.81284 
L 473.806117 160.196857 
L 474.43449 140.223164 
L 475.073347 156.348414 
L 475.288515 152.349977 
L 475.722139 129.267284 
L 475.940595 125.211933 
L 476.160151 128.427309 
L 476.602587 138.72061 
L 476.825456 134.794983 
L 477.274433 122.72247 
L 477.500505 122.306449 
L 477.7276 125.273126 
L 478.184798 133.280749 
L 478.414865 132.037623 
L 478.877872 124.958341 
L 479.110794 124.642106 
L 479.344653 127.239996 
L 479.815206 135.720218 
L 480.051914 135.813068 
L 480.528193 130.014983 
L 480.767751 130.199827 
L 481.008247 134.053961 
L 481.492039 143.088908 
L 481.735326 142.626801 
L 482.224661 137.050617 
L 482.470701 138.294155 
L 482.965513 146.956507 
L 483.214273 148.650394 
L 483.463926 147.322348 
L 483.714459 144.459679 
L 483.965855 143.028611 
L 484.218093 145.042626 
L 484.725028 153.253854 
L 484.979693 155.06193 
L 485.23514 154.682739 
L 485.491361 153.283424 
L 485.748352 152.863831 
L 486.006108 154.632127 
L 486.783862 164.142707 
L 487.044436 165.365094 
L 487.305474 165.625794 
L 487.566808 165.586836 
L 487.828292 166.024916 
L 488.089848 167.585062 
L 488.613034 174.500903 
L 489.397662 185.593647 
L 490.442548 197.301339 
L 491.480485 209.897209 
L 492.249748 216.401514 
L 493.26117 222.649261 
L 493.760482 224.73777 
L 494.255961 226.032057 
L 494.748683 226.638202 
L 495.969398 227.893422 
L 496.690387 227.926114 
L 497.40267 227.752619 
L 497.874188 227.42193 
L 498.579123 226.613969 
L 499.282905 225.439299 
L 500.452105 223.177941 
L 500.918505 222.793389 
L 501.851447 222.156874 
L 502.318541 221.527341 
L 502.786047 220.480472 
L 503.2539 218.765529 
L 504.19128 215.017011 
L 504.896541 213.167554 
L 505.367966 212.51737 
L 506.076971 212.278371 
L 506.550902 212.450454 
L 506.788333 212.686478 
L 507.264052 213.64929 
L 507.74041 214.594481 
L 508.216848 215.441859 
L 508.930781 216.939743 
L 509.40607 217.595211 
L 509.88127 217.958714 
L 510.356537 218.136449 
L 510.832005 218.044815 
L 511.545278 217.885987 
L 512.020327 217.930127 
L 512.494999 218.186137 
L 513.444866 218.872307 
L 514.873029 219.469054 
L 516.304011 220.278151 
L 517.021407 220.404858 
L 517.500304 220.488539 
L 518.458226 220.950537 
L 519.654462 221.231795 
L 520.372961 221.058802 
L 520.852847 220.740734 
L 521.573772 220.096448 
L 521.81399 220.17004 
L 522.769904 221.17706 
L 523.714402 222.321203 
L 523.948596 222.116162 
L 524.414755 220.630846 
L 525.109178 216.964678 
L 525.569532 214.109368 
L 526.028395 212.765713 
L 526.486243 212.051957 
L 526.714881 211.371326 
L 527.171615 208.955136 
L 527.627848 206.728516 
L 528.084034 205.727905 
L 528.312202 205.554503 
L 528.54045 205.865454 
L 528.768801 206.770012 
L 529.68386 212.275808 
L 530.830325 215.92383 
L 531.287898 216.483361 
L 531.972228 216.736919 
L 532.427218 217.142374 
L 532.654449 217.180153 
L 533.108561 216.874036 
L 533.562518 216.256311 
L 534.243963 214.750628 
L 534.69902 213.773123 
L 534.926922 213.632635 
L 535.383698 213.966434 
L 537.456354 216.109638 
L 537.68831 216.006418 
L 537.920657 215.593401 
L 538.153424 214.713161 
L 538.620355 211.452552 
L 539.08941 207.862741 
L 539.560944 206.074111 
L 540.035277 204.792708 
L 540.273539 203.557374 
L 540.512535 201.513858 
L 540.752268 198.151972 
L 540.992746 192.694039 
L 541.475977 173.015666 
L 541.961876 153.497234 
L 542.205253 152.04953 
L 542.44854 154.576503 
L 542.691479 155.81162 
L 542.933846 151.519648 
L 543.655717 118.98819 
L 543.894045 118.763522 
L 544.366401 126.107422 
L 544.600193 124.991265 
L 545.290887 111.339074 
L 545.51732 111.076192 
L 545.741778 112.661754 
L 546.18467 117.313327 
L 546.40305 117.582916 
L 547.254983 112.01102 
L 547.462271 112.685832 
L 548.06991 116.949535 
L 548.267719 116.149714 
L 548.847551 109.954527 
L 549.036643 109.359012 
L 549.223907 109.457149 
L 549.959161 110.749102 
L 550.140587 111.645484 
L 550.681673 116.907122 
L 551.397117 122.758067 
L 552.629347 130.088365 
L 553.653519 135.597328 
L 554.143866 135.64953 
L 560.005668 135.652712 
L 560.169247 135.832895 
L 560.501529 136.802494 
L 560.670137 136.571306 
L 561.012218 129.610406 
L 561.185624 130.809476 
L 561.715024 159.037969 
L 561.894428 158.261313 
L 562.441003 136.901883 
L 562.999686 153.578415 
L 563.188513 151.183989 
L 563.762704 126.638393 
L 563.956662 128.876648 
L 564.348392 138.191204 
L 564.546151 135.461538 
L 564.945407 124.303661 
L 565.146875 123.235904 
L 565.349547 125.355956 
L 565.758457 132.018653 
L 565.96467 131.569176 
L 566.380537 126.050513 
L 566.590159 125.43023 
L 566.800889 127.14409 
L 567.225644 133.834444 
L 567.439658 134.572369 
L 567.870927 130.436298 
L 568.088165 130.009151 
L 568.306465 132.191772 
L 568.746241 139.433938 
L 568.967715 139.731048 
L 569.413814 135.484902 
L 569.638426 135.717936 
L 570.318465 143.476736 
L 570.547197 142.699086 
L 571.007704 138.836717 
L 571.239464 139.35888 
L 571.705966 143.79671 
L 571.940694 144.347682 
L 572.176399 143.006257 
L 572.650708 139.455415 
L 572.889297 140.014594 
L 573.369312 143.216623 
L 573.610725 143.098402 
L 574.340506 138.508513 
L 574.585592 139.227017 
L 575.078467 141.597147 
L 575.326243 141.03092 
L 575.824446 137.66468 
L 576.074862 137.261327 
L 576.831297 139.866643 
L 577.085154 138.937275 
L 577.595405 136.162432 
L 577.851789 136.305383 
L 578.367048 138.336588 
L 578.625914 138.237202 
L 579.407396 135.083283 
L 579.669503 135.612587 
L 579.932408 136.659262 
L 580.196106 137.201265 
L 580.460594 136.690688 
L 580.99192 134.440152 
L 581.258748 134.321597 
L 581.794712 135.86969 
L 582.063841 135.99935 
L 582.333728 135.207146 
L 582.604369 134.066309 
L 582.87576 133.406306 
L 583.147896 133.640251 
L 583.694383 135.169543 
L 583.968725 135.102929 
L 584.519583 133.518079 
L 584.796089 133.299709 
L 585.073307 133.869491 
L 585.629866 135.463659 
L 585.909201 135.342005 
L 586.469961 134.328829 
L 586.751379 134.622856 
L 587.599735 137.485259 
L 587.883682 137.455253 
L 588.16779 137.181627 
L 588.45178 137.377882 
L 588.735404 138.344044 
L 589.300631 141.319353 
L 589.581813 142.130303 
L 590.140389 142.731417 
L 590.417459 143.509182 
L 591.507975 148.956764 
L 592.305193 150.452763 
L 593.084311 153.693771 
L 593.34014 154.164086 
L 593.846311 154.610691 
L 594.345526 155.645315 
L 595.082254 157.832428 
L 595.324877 159.180903 
L 595.806263 163.769571 
L 596.52061 175.032362 
L 597.228341 188.068538 
L 598.842066 224.045506 
L 599.287833 228.897386 
L 599.725687 231.812028 
L 600.155972 233.524103 
L 600.579377 234.39981 
L 600.996686 234.661685 
L 601.408613 234.472199 
L 601.815501 233.87198 
L 602.41695 232.36789 
L 603.204958 229.679147 
L 604.17578 226.310932 
L 604.755238 224.921773 
L 605.334103 224.021687 
L 605.52702 223.965914 
L 605.719826 224.091702 
L 606.104676 224.751531 
L 606.868711 226.742271 
L 607.808307 229.267842 
L 607.993897 229.438856 
L 608.178802 229.403845 
L 608.363102 229.102604 
L 608.54688 228.460367 
L 608.913137 225.911056 
L 609.278192 221.555138 
L 610.374957 205.996903 
L 610.743718 203.69839 
L 611.114974 199.297173 
L 611.67735 190.112249 
L 611.866357 189.705833 
L 612.056099 191.534464 
L 612.62916 199.548389 
L 613.013768 202.251753 
L 613.787823 205.747629 
L 615.549598 212.59215 
L 616.142896 213.509159 
L 616.739672 214.026511 
L 618.752808 214.81954 
L 619.570079 214.563209 
L 622.704755 213.103116 
L 623.130699 212.44649 
L 623.558687 211.0912 
L 623.989081 208.623363 
L 624.422458 204.50796 
L 624.859484 198.321557 
L 625.30081 189.28218 
L 625.746901 174.693975 
L 626.424852 148.407365 
L 626.653058 144.983697 
L 627.112614 144.005709 
L 627.343916 141.274692 
L 627.80953 130.522099 
L 628.043823 128.330237 
L 628.279096 129.492753 
L 628.752554 135.052174 
L 628.990722 134.760723 
L 629.469902 130.217149 
L 629.7109 130.205445 
L 629.952828 132.588973 
L 630.439455 138.549318 
L 630.684145 138.11524 
L 631.176251 134.217431 
L 631.42366 134.816583 
L 631.921144 140.372063 
L 632.171203 141.319362 
L 632.422126 140.002732 
L 632.926543 136.132567 
L 633.180028 136.916722 
L 633.689538 140.820584 
L 633.945554 140.460072 
L 634.718655 134.476992 
L 634.978043 135.029715 
L 635.238265 136.286726 
L 635.499313 136.564387 
L 635.761179 134.962226 
L 636.287312 130.625058 
L 636.551541 130.856245 
L 637.082276 134.196693 
L 637.348781 134.231342 
L 637.884074 130.852501 
L 638.152864 130.367842 
L 638.422415 131.537002 
L 638.963796 135.174348 
L 639.235617 135.122665 
L 639.781499 132.664046 
L 640.055552 132.816424 
L 640.882108 137.551157 
L 641.159077 136.955842 
L 641.436766 135.479064 
L 641.71517 134.612391 
L 641.994284 135.262382 
L 642.554631 138.698487 
L 642.835855 138.890134 
L 643.400385 136.256921 
L 643.683685 135.900558 
L 643.967669 136.909785 
L 644.252334 138.385146 
L 644.537678 139.101884 
L 644.8237 138.537396 
L 645.110401 137.338268 
L 645.397784 137.147118 
L 645.685855 138.956372 
L 646.264059 145.80361 
L 646.554171 146.989333 
L 646.844927 145.939274 
L 647.1363 143.993876 
L 647.428269 142.906076 
L 647.720826 143.740451 
L 648.307722 147.511665 
L 648.602081 147.672024 
L 648.897059 146.249039 
L 649.488878 142.624456 
L 649.785715 142.494876 
L 650.381228 143.609055 
L 650.679896 142.876823 
L 651.27904 138.97735 
L 651.579511 138.091331 
L 651.880576 138.709554 
L 652.182234 139.935642 
L 652.484481 140.484256 
L 652.787314 139.716863 
L 653.394727 136.708729 
L 653.699302 136.74107 
L 654.310173 139.430274 
L 654.616464 139.719786 
L 654.923321 138.654221 
L 655.230741 137.075709 
L 655.538722 136.359593 
L 655.847261 136.857771 
L 656.466004 138.88268 
L 656.776205 139.049325 
L 657.086962 139.006317 
L 657.398275 139.732903 
L 657.710145 141.807208 
L 658.335523 147.406803 
L 658.648993 147.61789 
L 658.962956 145.638995 
L 659.277407 142.848421 
L 659.592348 141.909276 
L 659.90779 143.936133 
L 660.223743 147.221763 
L 660.540218 149.120781 
L 660.857214 148.421167 
L 661.811295 139.840476 
L 662.130348 140.18787 
L 662.44991 141.917597 
L 662.769979 142.902579 
L 663.090549 141.729081 
L 663.733174 135.644072 
L 664.055219 134.936165 
L 664.377749 136.713156 
L 664.700761 139.232648 
L 665.024255 140.102335 
L 665.34823 138.449022 
L 665.672684 135.466478 
L 665.997617 133.764851 
L 666.323026 134.758956 
L 666.975266 140.414945 
L 667.30209 140.59559 
L 667.957138 135.689416 
L 668.285356 135.112128 
L 668.614035 137.414365 
L 668.943172 140.841792 
L 669.272763 142.630298 
L 669.602806 141.51317 
L 670.264238 135.201023 
L 670.595627 135.219196 
L 670.927467 138.164073 
L 671.592531 145.935099 
L 671.925779 147.492397 
L 672.593702 147.010755 
L 672.928319 148.651081 
L 673.263306 151.01816 
L 673.598622 151.196993 
L 674.270271 147.426511 
L 674.60666 147.264931 
L 674.943456 149.384621 
L 675.280669 152.294451 
L 675.618298 153.773396 
L 675.956338 152.27155 
L 676.972899 139.636055 
L 677.312564 140.812832 
L 677.652632 144.190141 
L 677.993101 146.105788 
L 678.333968 144.357767 
L 679.016898 134.042377 
L 679.358959 132.780644 
L 679.513182 133.719902 
L 679.513182 133.719902 
" clip-path="url(#p057ae53353)" style="fill: none; stroke: #2ca02c; stroke-width: 0.9; stroke-linecap: square"/>
   </g>
   <g id="line2d_34">
    <path d="M 85.776818 136.910537 
L 86.122624 132.762491 
L 86.468783 132.059866 
L 87.162159 140.183087 
L 87.509376 141.259719 
L 87.856943 138.046696 
L 88.20486 133.156585 
L 88.553126 131.078991 
L 88.901739 133.559594 
L 89.600008 143.019898 
L 89.94966 142.348621 
L 90.649996 132.901453 
L 91.000678 132.362218 
L 92.054764 144.331852 
L 92.406801 141.494809 
L 92.759175 135.449783 
L 93.111883 131.545833 
L 93.464925 132.885337 
L 94.172007 143.624258 
L 94.526043 143.721993 
L 95.590118 129.963833 
L 95.945461 133.542356 
L 96.301129 140.449167 
L 96.65712 144.193372 
L 97.013432 141.998936 
L 97.727015 129.282193 
L 98.084283 129.35978 
L 98.799768 142.570598 
L 99.157982 144.443193 
L 99.516508 139.689651 
L 99.875346 131.564483 
L 100.234494 127.539666 
L 100.593949 130.248659 
L 101.313782 144.81346 
L 101.674156 144.235781 
L 102.395814 128.795341 
L 102.757095 126.942744 
L 103.118673 132.528375 
L 103.480551 142.107074 
L 103.842727 146.582629 
L 104.205197 143.147396 
L 104.931023 126.524833 
L 105.294372 127.287663 
L 106.021942 145.434735 
L 106.38616 147.457943 
L 106.750663 140.882209 
L 107.115454 129.822455 
L 107.480529 124.749442 
L 107.845884 128.511305 
L 108.57744 148.171791 
L 108.943637 147.380046 
L 109.676863 126.385756 
L 110.04389 123.699476 
L 110.411187 130.839596 
L 110.778758 144.118589 
L 111.146602 150.42447 
L 111.514713 146.618367 
L 112.251745 123.708636 
L 112.620659 123.788903 
L 113.359278 148.578985 
L 113.728983 152.532966 
L 114.098944 145.770292 
L 114.469167 130.657135 
L 114.839652 122.309081 
L 115.210389 125.518394 
L 115.952576 153.25917 
L 116.323766 154.927145 
L 116.694857 145.680931 
L 117.065846 129.068121 
L 117.436729 122.217827 
L 117.807507 128.882982 
L 118.178193 147.150537 
L 118.548793 157.73078 
L 118.919301 157.447347 
L 119.289733 146.481072 
L 119.660123 128.759467 
L 120.030487 123.041796 
L 120.400832 132.72192 
L 120.77118 151.905124 
L 121.141528 160.378717 
L 121.511862 158.695708 
L 121.882203 145.020572 
L 122.252592 123.418627 
L 122.623057 116.871364 
L 122.99365 127.670356 
L 123.364493 155.256701 
L 123.735645 167.129514 
L 124.107063 169.06135 
L 124.478583 166.965185 
L 124.849889 161.157575 
L 125.591149 130.341516 
L 125.961257 128.93152 
L 126.331309 145.868351 
L 126.701537 155.176284 
L 127.071997 154.805611 
L 127.44266 154.045344 
L 128.184524 153.702378 
L 128.555897 152.104941 
L 129.299891 121.255816 
L 129.672312 117.91192 
L 130.044762 132.709 
L 130.417159 158.880841 
L 130.789431 164.874831 
L 131.161559 165.848594 
L 131.533642 155.023759 
L 131.905848 115.620356 
L 132.278246 102.365392 
L 132.65076 98.842231 
L 133.023395 108.530033 
L 133.396268 152.273608 
L 133.769401 172.160161 
L 134.142712 174.33823 
L 134.516181 161.831957 
L 134.889893 117.779056 
L 135.263846 99.913884 
L 135.63791 96.397026 
L 136.012023 103.368484 
L 136.386279 145.652659 
L 136.760755 171.398239 
L 137.135366 174.73701 
L 137.510049 168.950046 
L 138.259948 104.901672 
L 138.635154 99.132027 
L 139.010428 103.102934 
L 139.761483 170.110048 
L 140.137266 173.971879 
L 140.513106 171.016274 
L 140.889059 147.395907 
L 141.265231 110.122162 
L 141.641566 101.840808 
L 142.017971 102.961401 
L 142.77122 167.723663 
L 143.148106 172.61127 
L 143.525037 171.458971 
L 143.902029 159.466 
L 144.279205 118.001586 
L 144.656567 104.651836 
L 145.034009 102.747379 
L 145.411526 118.3328 
L 145.789231 161.844882 
L 146.167114 171.272887 
L 146.545066 171.466995 
L 146.923068 165.174549 
L 147.301252 128.778465 
L 147.679694 107.956411 
L 148.058306 106.601143 
L 148.437007 131.942341 
L 148.815794 165.667767 
L 149.194613 167.90238 
L 149.573409 166.00544 
L 149.952222 162.733328 
L 150.331191 143.956722 
L 150.710383 117.265928 
L 151.089712 111.919654 
L 151.469124 120.663799 
L 151.848701 157.549014 
L 152.228465 165.085971 
L 152.608314 165.549854 
L 152.988179 165.058906 
L 153.368112 153.940056 
L 153.748226 118.069942 
L 154.128492 107.902129 
L 154.508818 106.823725 
L 154.889233 130.095364 
L 155.269839 165.045655 
L 155.650587 170.383051 
L 156.03137 170.144035 
L 156.412191 159.488195 
L 156.793177 117.206949 
L 157.174339 103.267555 
L 157.555568 100.28181 
L 157.936845 110.553738 
L 158.318286 156.811303 
L 158.699908 172.594713 
L 159.081594 174.001962 
L 159.463297 166.327748 
L 159.845129 123.454241 
L 160.227155 102.245852 
L 160.609269 97.677283 
L 160.991404 101.095635 
L 161.756098 170.053808 
L 162.138672 175.111552 
L 162.521307 171.571568 
L 163.287178 106.906091 
L 163.670491 99.584556 
L 164.053877 104.805229 
L 164.43727 147.130662 
L 164.820684 170.6876 
L 165.204067 171.950543 
L 165.587291 169.11292 
L 165.970214 150.307297 
L 166.352703 113.635957 
L 166.734469 103.973173 
L 167.115215 104.775474 
L 167.873101 169.268133 
L 168.249914 176.01411 
L 168.624946 173.666728 
L 168.998021 143.275284 
L 169.36904 102.884926 
L 169.737787 91.066652 
L 170.104026 90.287155 
L 170.467665 112.476926 
L 170.828725 159.743403 
L 171.187107 178.535922 
L 171.542629 178.000518 
L 171.895212 149.022036 
L 172.244857 102.63106 
L 172.591443 85.297357 
L 172.934783 81.792489 
L 173.274787 95.06388 
L 173.944931 173.141644 
L 174.274969 182.501237 
L 174.601509 172.448853 
L 175.2441 97.584828 
L 175.560016 87.513944 
L 175.872181 94.462999 
L 176.485301 172.052738 
L 176.786205 186.029311 
L 177.083173 185.715423 
L 177.376165 170.006285 
L 177.950345 108.908362 
L 178.231423 108.918966 
L 179.050058 183.727617 
L 179.314644 184.691331 
L 179.575181 182.345661 
L 179.831705 177.268441 
L 180.084173 165.770293 
L 180.576577 137.272603 
L 180.81649 146.158565 
L 181.283825 172.807064 
L 181.511354 174.297886 
L 182.383846 168.528068 
L 182.592986 165.25727 
L 183.000765 151.669837 
L 183.199576 151.158602 
L 183.77817 166.79912 
L 183.966123 167.384531 
L 184.152336 165.965352 
L 184.521665 160.903832 
L 184.705905 161.876301 
L 185.076303 167.453238 
L 185.26354 167.247596 
L 185.64457 162.015355 
L 186.433716 150.526347 
L 187.386562 139.920137 
L 187.558117 138.329568 
L 187.88322 138.171544 
L 191.036885 138.090849 
L 191.197257 137.474478 
L 191.35891 136.35396 
L 191.521839 134.253274 
L 191.686087 135.758708 
L 192.018786 145.310126 
L 192.187319 136.019025 
L 192.528878 109.897008 
L 192.701872 106.371074 
L 192.876302 109.099497 
L 193.408057 134.308441 
L 193.951908 114.688119 
L 194.135735 117.962521 
L 194.694488 152.171263 
L 194.88312 150.479078 
L 195.263968 137.788671 
L 195.45625 139.465973 
L 195.844671 152.036667 
L 196.04082 153.601874 
L 196.238261 152.21107 
L 196.838393 142.570121 
L 197.041029 144.011314 
L 197.449973 149.203866 
L 197.656204 149.222166 
L 197.86358 146.896137 
L 198.281739 138.569697 
L 198.492504 138.089819 
L 198.917361 143.889527 
L 199.131435 144.150564 
L 199.346598 141.030579 
L 199.780178 132.362863 
L 199.998589 132.691925 
L 200.438624 138.635091 
L 200.660233 138.181056 
L 201.106606 130.600842 
L 201.331357 129.040665 
L 201.557144 130.433322 
L 202.011792 135.518909 
L 202.240638 134.658167 
L 202.70134 129.07119 
L 202.93318 128.566858 
L 203.166002 130.361321 
L 203.634569 134.551025 
L 203.870299 133.570858 
L 204.344618 129.369201 
L 204.583191 129.478083 
L 205.304489 134.66093 
L 205.546762 133.579958 
L 206.034027 130.402146 
L 206.279007 130.987913 
L 206.771632 134.946804 
L 207.019268 135.465659 
L 207.767402 132.272316 
L 208.018504 133.414104 
L 208.523264 137.213251 
L 208.776915 137.424215 
L 209.286735 135.43053 
L 209.542895 135.790105 
L 210.316313 141.024578 
L 210.575609 141.017287 
L 210.835329 140.451225 
L 211.095192 140.352875 
L 211.354953 141.463496 
L 211.873282 145.564268 
L 212.131434 146.735763 
L 212.388655 146.986185 
L 212.64477 146.774435 
L 212.89961 147.1 
L 213.153022 148.604454 
L 213.903106 155.165217 
L 215.344921 163.40788 
L 215.576892 163.581419 
L 216.258034 160.972288 
L 216.479944 161.355261 
L 216.915826 162.901619 
L 217.129792 163.159059 
L 217.341128 163.126842 
L 217.960381 162.630634 
L 218.36233 162.003364 
L 218.756915 160.686603 
L 219.145226 159.508611 
L 219.528395 159.573467 
L 219.718441 159.226915 
L 220.096408 157.429702 
L 221.232594 150.334694 
L 222.947463 138.171544 
L 228.474249 138.092304 
L 228.657297 139.04989 
L 229.02806 142.028236 
L 229.215705 142.428686 
L 229.404795 141.300096 
L 230.174868 130.026068 
L 230.766151 132.433119 
L 231.166597 130.378952 
L 231.368658 130.466427 
L 231.571933 132.379828 
L 231.982092 138.366174 
L 232.188966 139.379106 
L 232.606276 138.759882 
L 232.816704 139.483009 
L 233.45499 144.010398 
L 233.670038 143.860025 
L 234.103418 142.555943 
L 234.321707 142.791994 
L 234.761422 144.193807 
L 234.982822 144.221864 
L 235.428664 142.397142 
L 235.653096 141.545107 
L 235.878537 141.307284 
L 236.332434 141.661235 
L 236.560878 141.210347 
L 237.252141 137.723766 
L 237.484526 137.482738 
L 237.717886 137.620421 
L 237.952216 137.502898 
L 238.187511 136.781101 
L 238.660981 134.56869 
L 238.899147 134.058944 
L 239.138261 134.127121 
L 239.378317 134.396305 
L 239.61931 134.366352 
L 240.347853 132.566351 
L 240.592538 132.564852 
L 241.084625 133.43205 
L 241.332016 133.558928 
L 241.829461 133.064304 
L 242.079505 133.199849 
L 242.330424 133.893024 
L 242.83487 135.842851 
L 243.088387 136.060058 
L 243.597984 135.424283 
L 243.85405 135.473757 
L 244.627238 137.257361 
L 244.886612 137.017865 
L 245.407793 135.889306 
L 245.669592 135.994892 
L 246.195586 137.066671 
L 246.459772 137.020466 
L 246.990498 135.791352 
L 247.257029 135.598428 
L 247.524333 135.977887 
L 247.792406 136.598999 
L 248.061244 136.932639 
L 248.330842 136.738005 
L 248.8723 135.793948 
L 249.144153 135.891301 
L 249.690085 136.977849 
L 249.964155 137.133896 
L 250.790738 136.15762 
L 251.067709 136.45031 
L 251.623794 137.402286 
L 251.902901 137.353111 
L 252.463221 136.565702 
L 252.744427 136.546153 
L 253.592189 137.624635 
L 253.876144 137.40164 
L 254.446085 136.687202 
L 254.732064 136.81396 
L 255.306021 137.598644 
L 255.593992 137.605185 
L 256.461833 136.709624 
L 256.752411 136.95467 
L 257.043633 137.371134 
L 257.335495 137.590903 
L 257.627994 137.427948 
L 258.214889 136.707853 
L 258.509279 136.739859 
L 259.099926 137.438977 
L 259.396178 137.511033 
L 260.288607 136.671042 
L 260.587298 136.85468 
L 261.186482 137.514716 
L 261.48697 137.453028 
L 262.089721 136.806408 
L 262.391978 136.782542 
L 263.302244 137.622229 
L 263.60682 137.439107 
L 264.217688 136.890402 
L 264.523974 137.013725 
L 265.138234 137.707072 
L 265.446203 137.714488 
L 266.063806 137.087361 
L 266.373434 137.006911 
L 267.305592 137.792462 
L 267.617395 137.616681 
L 268.242607 136.923124 
L 268.556012 136.97825 
L 269.184406 137.501294 
L 269.499391 137.373757 
L 270.447465 136.055625 
L 270.764523 136.207247 
L 271.718784 138.69497 
L 272.037893 138.715453 
L 272.357506 138.53346 
L 272.677618 138.51607 
L 272.998219 138.321917 
L 273.640871 137.74139 
L 273.962921 137.78858 
L 274.285455 138.052843 
L 274.608474 138.113035 
L 274.931975 137.763093 
L 275.905357 135.604694 
L 276.230768 135.342449 
L 276.882999 135.145683 
L 277.209813 134.742952 
L 277.864826 133.613198 
L 278.193019 133.403638 
L 278.521665 133.524914 
L 278.850756 133.783139 
L 279.180191 133.89029 
L 280.1681 133.408432 
L 280.496439 133.751391 
L 281.475516 135.732753 
L 282.121383 136.427693 
L 282.441746 137.047325 
L 283.076587 139.556567 
L 283.702727 142.064153 
L 284.623967 144.987635 
L 286.108327 151.679111 
L 286.967589 154.547916 
L 287.527614 156.498911 
L 287.804041 156.973592 
L 288.078193 157.044192 
L 288.350134 156.922281 
L 288.619932 156.924106 
L 288.887654 157.24964 
L 289.153333 157.897077 
L 289.417005 159.396713 
L 289.938402 164.068336 
L 290.196129 164.971724 
L 290.45196 164.777494 
L 290.958414 163.027959 
L 291.458541 160.06161 
L 292.92393 147.697833 
L 293.633864 143.843218 
L 294.551835 140.375963 
L 295.218243 138.35221 
L 295.436204 138.171544 
L 306.43674 138.171544 
L 306.804613 141.044606 
L 307.549893 147.616438 
L 307.737895 148.121761 
L 308.115599 146.878135 
L 308.305234 147.737174 
L 308.877218 154.942174 
L 309.068934 155.559082 
L 309.26119 155.247068 
L 309.647298 154.295789 
L 309.841104 154.346239 
L 310.035352 154.118494 
L 310.229977 153.12433 
L 311.984893 138.941858 
L 312.179096 138.171544 
L 320.757004 138.264471 
L 320.968354 138.574374 
L 321.394485 139.840902 
L 322.262214 143.650021 
L 322.48233 143.955276 
L 322.703586 143.7959 
L 322.92591 143.130446 
L 323.149283 141.542673 
L 323.825489 132.79011 
L 324.052873 132.587417 
L 324.510615 134.543947 
L 324.740971 133.967267 
L 325.204647 131.571358 
L 325.43796 132.116706 
L 326.143734 138.032902 
L 326.380916 137.850631 
L 326.61905 136.999779 
L 326.858131 136.775574 
L 327.09815 137.799811 
L 327.580979 141.082596 
L 327.823774 141.368135 
L 328.557608 139.063383 
L 328.804015 139.617723 
L 329.051309 140.595276 
L 329.299484 141.074093 
L 329.548535 140.54297 
L 330.049244 137.960536 
L 330.300893 137.450868 
L 330.5534 137.802294 
L 330.806759 138.362453 
L 331.060967 138.311549 
L 331.316018 137.332056 
L 331.828638 134.844261 
L 332.086199 134.697893 
L 332.603799 135.659834 
L 332.86383 135.401604 
L 333.648794 132.930241 
L 333.912057 133.255435 
L 334.440968 134.454174 
L 334.706606 134.214326 
L 335.240224 132.876907 
L 335.508194 132.903198 
L 336.316697 134.843136 
L 336.587714 134.598004 
L 336.859481 134.038729 
L 337.131993 133.75708 
L 337.405248 134.113748 
L 337.953965 135.723537 
L 338.22942 135.948442 
L 338.782502 135.12595 
L 339.060121 135.081576 
L 339.338453 135.626143 
L 339.897245 136.991437 
L 340.177695 136.936157 
L 340.740687 136.11569 
L 341.023221 136.271159 
L 341.590349 137.608287 
L 341.874934 137.872187 
L 342.160196 137.593124 
L 342.446131 137.100146 
L 342.732735 136.908114 
L 343.020006 137.243131 
L 343.596529 138.447733 
L 343.885776 138.469341 
L 344.466222 137.660954 
L 344.757414 137.67509 
L 345.634827 139.145107 
L 345.928565 138.988106 
L 346.517922 138.30269 
L 346.813535 138.511213 
L 347.406611 139.621794 
L 347.704068 139.755374 
L 348.600073 138.920141 
L 348.899942 139.248072 
L 349.501461 140.140797 
L 349.803105 140.037051 
L 350.408144 139.168 
L 350.711533 139.095617 
L 351.320037 139.773128 
L 351.625144 139.806937 
L 351.930819 139.391344 
L 352.543858 138.152946 
L 352.851219 137.997111 
L 353.467233 138.089058 
L 353.775372 137.619051 
L 354.697381 134.798911 
L 355.611559 133.426108 
L 356.214409 130.930612 
L 356.810675 128.564694 
L 357.690959 126.345951 
L 358.553497 122.851294 
L 359.118902 121.749856 
L 359.39887 121.209703 
L 359.677063 119.997541 
L 359.953523 117.710316 
L 360.772748 109.345838 
L 361.575888 107.098978 
L 361.839864 105.574133 
L 362.361968 100.068422 
L 362.876341 92.088441 
L 364.618148 54.238167 
L 365.099312 48.511964 
L 365.573009 45.21523 
L 366.498774 40.917503 
L 366.9508 39.538896 
L 367.395608 38.731502 
L 367.833345 38.493559 
L 368.264272 38.730551 
L 368.688921 39.364607 
L 369.31521 40.882096 
L 369.93066 42.447559 
L 370.536805 43.420096 
L 371.134601 44.081207 
L 371.528709 44.202873 
L 371.919131 43.872882 
L 372.878938 42.909885 
L 373.257431 42.873942 
L 373.633277 43.045115 
L 374.191165 43.550264 
L 374.741669 44.333513 
L 375.286496 45.491349 
L 376.190223 48.085973 
L 376.73367 50.176841 
L 377.097878 52.183952 
L 377.464503 55.219814 
L 378.587566 67.978343 
L 379.749369 81.273813 
L 380.342582 86.254617 
L 380.54198 86.697368 
L 380.74216 86.203339 
L 381.144686 83.019706 
L 382.570289 69.056323 
L 383.597563 61.398237 
L 384.214921 58.135143 
L 384.831763 56.009109 
L 385.652599 54.292076 
L 386.471418 53.097391 
L 387.084473 52.574642 
L 387.492912 52.44137 
L 387.901427 52.479413 
L 388.51469 52.772637 
L 389.745054 53.495847 
L 390.362943 53.575292 
L 391.188743 53.417059 
L 392.432459 53.089715 
L 392.641548 53.105723 
L 392.851504 53.259123 
L 393.062418 53.798559 
L 393.274397 55.226361 
L 393.487564 58.430013 
L 393.702 64.618813 
L 394.134668 87.536954 
L 394.571943 109.467048 
L 394.792234 112.857056 
L 395.013663 113.508285 
L 395.236259 116.262348 
L 395.460042 125.208423 
L 395.911234 153.791348 
L 396.13863 156.690155 
L 396.36718 153.132133 
L 396.827592 141.270942 
L 397.059385 142.272163 
L 397.526021 151.290834 
L 397.760818 152.127177 
L 397.996579 150.087847 
L 398.70957 135.752459 
L 398.949116 138.558657 
L 399.189595 143.332927 
L 399.431001 145.316897 
L 399.673329 142.467158 
L 400.160737 128.711657 
L 400.405804 127.397924 
L 400.651771 130.914478 
L 400.898635 136.373227 
L 401.146389 138.44776 
L 401.395026 134.875412 
L 401.894922 125.440146 
L 402.146163 126.220412 
L 402.904991 138.289957 
L 403.159624 135.282576 
L 403.415094 130.728963 
L 403.671394 128.732379 
L 403.928519 130.937492 
L 404.445236 141.008949 
L 404.704824 141.509297 
L 405.226435 134.155096 
L 405.488449 133.215628 
L 405.751264 136.281965 
L 406.014879 140.999169 
L 406.27929 143.437971 
L 406.544496 142.255578 
L 407.077277 135.267603 
L 407.344843 135.529398 
L 407.882302 142.652102 
L 408.152183 143.557907 
L 408.422824 141.307417 
L 408.694221 137.482354 
L 408.966369 135.255021 
L 409.239263 136.496892 
L 409.787273 142.553914 
L 410.06238 142.308542 
L 410.614777 135.906207 
L 410.89206 134.783105 
L 411.17006 136.785914 
L 411.448774 140.039833 
L 411.728198 141.640145 
L 412.008327 140.366045 
L 412.570688 134.346114 
L 412.852912 134.434861 
L 413.41943 139.942116 
L 413.703716 140.527094 
L 413.988682 138.404991 
L 414.274324 135.185695 
L 414.56064 133.616468 
L 414.847625 134.821956 
L 415.42359 139.9653 
L 415.712562 139.531086 
L 416.292471 134.206479 
L 416.5834 133.773299 
L 416.874975 135.855523 
L 417.167192 138.766182 
L 417.460048 139.98013 
L 417.753539 138.610362 
L 418.342415 133.896677 
L 418.637794 134.520458 
L 419.230417 139.548338 
L 419.527654 139.730132 
L 420.423033 134.014093 
L 420.722704 135.555492 
L 421.022977 138.321358 
L 421.323848 139.889728 
L 421.625313 139.041986 
L 422.230017 134.284769 
L 422.53325 134.379175 
L 423.141462 139.41993 
L 423.446436 140.283819 
L 423.751985 138.714237 
L 424.058105 136.012835 
L 424.364795 134.624093 
L 424.67205 135.692452 
L 425.288247 140.214932 
L 425.597182 139.836501 
L 426.216715 135.169164 
L 426.527306 134.770051 
L 427.462352 139.998291 
L 427.775115 138.596974 
L 428.088414 135.885389 
L 428.402247 134.151974 
L 428.716611 134.737176 
L 429.346921 139.260022 
L 429.662863 139.257473 
L 430.296306 134.51848 
L 430.613802 133.706579 
L 430.931812 135.243159 
L 431.250332 137.906497 
L 431.569361 139.343906 
L 431.888896 138.36043 
L 432.529474 133.668153 
L 432.850511 133.890109 
L 433.494073 138.752252 
L 433.816592 139.274767 
L 434.139601 137.385867 
L 434.463096 134.670556 
L 434.787076 133.480251 
L 435.111538 134.781828 
L 435.761899 139.600497 
L 436.087794 139.136097 
L 436.741002 134.410588 
L 437.06831 134.408284 
L 437.724327 139.737503 
L 438.053034 140.347817 
L 438.382205 138.066739 
L 438.71184 134.503697 
L 439.041936 132.550482 
L 439.372487 133.442609 
L 440.034931 139.581063 
L 440.366812 140.155781 
L 440.699129 137.685977 
L 441.031883 134.281263 
L 441.365075 133.151084 
L 441.698705 135.312569 
L 442.032772 139.242177 
L 442.367272 141.747318 
L 442.702203 141.297691 
L 443.373349 136.075037 
L 443.709561 136.452236 
L 444.383247 143.187239 
L 444.72065 144.421085 
L 445.058134 142.792289 
L 445.395423 139.555187 
L 445.732268 137.500747 
L 446.068433 138.732756 
L 446.737866 145.106076 
L 447.070736 145.187558 
L 447.402133 142.302002 
L 447.73189 138.22476 
L 448.059851 136.133311 
L 448.385866 137.577709 
L 448.709791 140.920424 
L 449.031489 142.979875 
L 449.35083 141.70756 
L 450.293599 130.015273 
L 450.602447 130.886136 
L 450.908457 133.35127 
L 451.21157 134.574022 
L 451.511736 132.451336 
L 452.103049 123.052335 
L 452.39411 120.366418 
L 452.682057 120.338867 
L 453.248521 123.110778 
L 453.527007 122.244838 
L 454.343295 112.79176 
L 454.609004 112.046423 
L 454.871604 113.092836 
L 455.387873 116.21325 
L 455.641691 115.675792 
L 455.892674 113.148802 
L 456.629186 102.884652 
L 457.577871 95.050317 
L 458.04114 92.444843 
L 458.270516 89.602739 
L 458.725357 77.76973 
L 459.399689 59.576022 
L 460.065283 48.720561 
L 460.502683 44.294111 
L 461.145211 40.328025 
L 461.768458 37.983703 
L 462.173007 37.169795 
L 462.569256 36.854367 
L 462.95777 36.884852 
L 463.339217 37.210516 
L 463.714443 37.931116 
L 464.267407 39.578638 
L 464.989409 42.504854 
L 466.747176 50.137473 
L 467.445107 51.952972 
L 468.498682 53.964257 
L 469.210677 54.9594 
L 469.751195 55.361157 
L 470.114892 55.424046 
L 470.852315 55.228835 
L 471.039261 55.974483 
L 471.227439 58.784444 
L 471.41695 66.026718 
L 471.800293 98.749435 
L 472.189619 128.242366 
L 472.386548 128.048241 
L 472.584983 122.913766 
L 472.784903 121.979187 
L 472.986295 130.937579 
L 473.393452 158.397061 
L 473.599132 159.278747 
L 473.806117 155.336661 
L 474.223828 141.389286 
L 474.43449 139.460873 
L 475.073347 149.753703 
L 475.288515 147.619365 
L 475.940595 126.8888 
L 476.160151 129.095926 
L 476.602587 138.725851 
L 476.825456 134.755736 
L 477.274433 120.660846 
L 477.500505 119.334468 
L 477.7276 122.635188 
L 478.184798 132.56806 
L 478.414865 131.0178 
L 478.877872 121.628298 
L 479.110794 121.082536 
L 479.344653 124.662165 
L 479.815206 135.524668 
L 480.051914 135.64552 
L 480.528193 128.958789 
L 480.767751 129.275151 
L 481.492039 143.444131 
L 481.735326 142.789921 
L 482.224661 137.052587 
L 482.470701 138.271986 
L 482.965513 146.287926 
L 483.214273 147.578249 
L 483.463926 146.215692 
L 483.714459 143.622272 
L 483.965855 142.329116 
L 484.218093 144.000475 
L 484.725028 150.254692 
L 484.979693 151.249828 
L 485.23514 150.635859 
L 485.491361 149.368692 
L 485.748352 148.816996 
L 486.006108 149.66796 
L 486.523888 152.629289 
L 486.783862 153.178771 
L 487.044436 153.105928 
L 487.566808 152.422413 
L 487.828292 152.338924 
L 488.089848 152.596953 
L 488.613034 153.583641 
L 488.874619 153.660672 
L 489.13617 153.302174 
L 489.659082 151.635024 
L 490.962965 146.29228 
L 491.737874 144.16352 
L 493.26117 140.643556 
L 494.502622 138.171544 
L 505.132127 138.19734 
L 505.604055 138.971342 
L 506.076971 139.352494 
L 506.313799 139.354616 
L 506.788333 138.99378 
L 507.264052 138.622734 
L 508.216848 138.171544 
L 522.769904 138.171544 
L 523.948596 140.665405 
L 524.414755 140.914229 
L 525.569532 140.952646 
L 526.028395 141.24427 
L 526.486243 141.766706 
L 527.627848 143.444018 
L 527.855925 143.548965 
L 528.084034 143.523764 
L 528.54045 143.139164 
L 528.997289 142.370678 
L 530.14248 139.923587 
L 530.601194 139.729244 
L 532.654449 139.178904 
L 534.016703 138.99138 
L 535.612623 138.508522 
L 536.301564 138.171544 
L 539.560944 138.171544 
L 539.797748 138.330192 
L 541.233979 143.481876 
L 541.475977 143.867877 
L 541.718688 143.584958 
L 541.961876 143.075657 
L 542.205253 143.897192 
L 542.691479 148.507965 
L 542.933846 147.409134 
L 543.175455 139.442811 
L 543.655717 120.222216 
L 543.894045 119.062506 
L 544.366401 125.783637 
L 544.600193 124.449821 
L 545.290887 105.776144 
L 545.51732 104.28054 
L 545.741778 106.100956 
L 546.18467 112.832945 
L 546.40305 113.079053 
L 546.833451 106.224854 
L 547.045357 103.010489 
L 547.254983 101.946559 
L 547.462271 103.319492 
L 548.06991 111.842861 
L 548.267719 110.752644 
L 549.036643 96.929443 
L 549.223907 96.41054 
L 549.409555 96.254149 
L 549.593829 95.387782 
L 549.776964 93.1823 
L 550.140587 85.131702 
L 551.218929 58.242871 
L 551.752034 51.221814 
L 552.280331 46.704697 
L 552.80275 43.918543 
L 553.146848 42.807954 
L 553.486204 42.349102 
L 553.653519 42.392414 
L 553.982384 42.849524 
L 554.303464 43.68839 
L 554.77219 45.605458 
L 555.973473 50.975638 
L 557.000376 53.778126 
L 558.909554 58.928885 
L 559.369391 59.198054 
L 559.525776 59.679568 
L 559.683922 61.679024 
L 559.843885 67.697948 
L 560.169247 101.114914 
L 560.501529 136.075663 
L 560.670137 135.373597 
L 561.012218 122.395503 
L 561.185624 127.622519 
L 561.537055 155.265086 
L 561.715024 157.691084 
L 561.894428 154.594059 
L 562.441003 136.968874 
L 562.999686 148.795984 
L 563.188513 147.350517 
L 563.762704 128.04414 
L 563.956662 129.539073 
L 564.348392 138.165268 
L 564.546151 135.451539 
L 564.945407 122.848195 
L 565.146875 120.848765 
L 565.349547 122.928055 
L 565.758457 130.982794 
L 565.96467 130.373608 
L 566.380537 122.86391 
L 566.590159 121.847277 
L 566.800889 124.220439 
L 567.225644 133.165795 
L 567.439658 134.123184 
L 567.870927 129.257511 
L 568.088165 128.846894 
L 568.306465 131.52306 
L 568.746241 139.656264 
L 568.967715 139.909844 
L 569.413814 135.438402 
L 569.638426 135.695796 
L 570.318465 143.298589 
L 570.547197 142.464482 
L 571.007704 138.742684 
L 571.239464 139.226115 
L 571.705966 143.283435 
L 571.940694 143.735666 
L 572.176399 142.493304 
L 572.650708 139.262272 
L 572.889297 139.778783 
L 573.369312 142.695488 
L 573.610725 142.585678 
L 574.340506 138.406494 
L 574.585592 139.083607 
L 575.078467 141.310321 
L 575.326243 140.790459 
L 575.824446 137.631549 
L 576.074862 137.248233 
L 576.831297 139.765134 
L 577.085154 138.874182 
L 577.595405 136.179076 
L 577.851789 136.315801 
L 578.367048 138.317615 
L 578.625914 138.221736 
L 579.407396 135.086378 
L 579.669503 135.610278 
L 579.932408 136.658357 
L 580.196106 137.202857 
L 580.460594 136.689599 
L 580.99192 134.409357 
L 581.258748 134.280246 
L 581.794712 135.850326 
L 582.063841 135.981758 
L 582.333728 135.169694 
L 582.87576 133.302767 
L 583.147896 133.534132 
L 583.694383 135.111151 
L 583.968725 135.040548 
L 584.519583 133.383045 
L 584.796089 133.148417 
L 585.073307 133.741435 
L 585.629866 135.408735 
L 585.909201 135.284146 
L 586.469961 134.235947 
L 586.751379 134.544646 
L 587.599735 137.497384 
L 587.883682 137.463328 
L 588.16779 137.183873 
L 588.45178 137.380477 
L 588.735404 138.346508 
L 589.300631 141.286789 
L 589.581813 142.072294 
L 590.140389 142.644409 
L 590.417459 143.401247 
L 591.507975 148.628198 
L 592.305193 149.990822 
L 593.084311 152.7849 
L 593.34014 153.113713 
L 593.846311 153.298953 
L 594.345526 153.919865 
L 595.082254 155.179335 
L 595.566178 157.14116 
L 596.283328 161.242714 
L 596.52061 161.820169 
L 596.757201 161.639797 
L 596.993124 160.781232 
L 597.46274 157.439816 
L 598.616263 147.566826 
L 599.287833 143.354335 
L 599.941737 140.42947 
L 600.579377 138.276875 
L 600.996686 138.171544 
L 609.825432 138.171544 
L 610.008221 138.479051 
L 611.301661 145.041279 
L 611.67735 145.618369 
L 611.866357 145.657053 
L 612.056099 145.530067 
L 612.437567 144.810018 
L 613.787823 141.358629 
L 614.567624 139.487531 
L 615.155863 138.582497 
L 615.549598 138.171544 
L 624.640475 138.171544 
L 624.859484 138.793155 
L 625.523251 142.24211 
L 625.97174 144.043798 
L 626.197737 143.551735 
L 626.653058 141.459514 
L 627.112614 142.039786 
L 627.343916 140.397431 
L 628.043823 128.648248 
L 628.279096 129.436262 
L 628.752554 134.963483 
L 628.990722 134.623615 
L 629.469902 129.567533 
L 629.7109 129.520902 
L 629.952828 132.182573 
L 630.439455 138.658951 
L 630.684145 138.175303 
L 631.176251 134.121855 
L 631.42366 134.760932 
L 631.921144 140.392277 
L 632.171203 141.294004 
L 632.422126 139.958885 
L 632.926543 136.149221 
L 633.180028 136.917495 
L 633.689538 140.709722 
L 633.945554 140.35174 
L 634.718655 134.524656 
L 634.978043 135.053575 
L 635.238265 136.290131 
L 635.499313 136.565163 
L 635.761179 134.954375 
L 636.287312 130.429195 
L 636.551541 130.581729 
L 637.082276 134.040686 
L 637.348781 134.062522 
L 637.884074 130.351262 
L 638.152864 129.786962 
L 638.422415 131.066459 
L 638.963796 135.051616 
L 639.235617 135.004249 
L 639.781499 132.395983 
L 640.055552 132.573669 
L 640.882108 137.574301 
L 641.159077 136.956122 
L 641.436766 135.441516 
L 641.71517 134.558939 
L 641.994284 135.229973 
L 642.554631 138.716215 
L 642.835855 138.899165 
L 643.400385 136.257531 
L 643.683685 135.902461 
L 643.967669 136.909762 
L 644.252334 138.377199 
L 644.537678 139.084172 
L 644.8237 138.521561 
L 645.110401 137.334313 
L 645.397784 137.14522 
L 645.685855 138.933714 
L 646.264059 145.524394 
L 646.554171 146.501045 
L 646.844927 145.366357 
L 647.1363 143.466761 
L 647.428269 142.398269 
L 647.720826 143.056747 
L 648.307722 146.062186 
L 648.602081 146.103498 
L 648.897059 144.900433 
L 649.488878 141.909564 
L 649.785715 141.840312 
L 650.381228 142.91226 
L 650.679896 142.315083 
L 651.27904 138.837425 
L 651.579511 138.023905 
L 651.880576 138.617885 
L 652.182234 139.795125 
L 652.484481 140.332866 
L 652.787314 139.612095 
L 653.394727 136.714057 
L 653.699302 136.744494 
L 654.310173 139.381847 
L 654.616464 139.665714 
L 654.923321 138.622467 
L 655.230741 137.073618 
L 655.538722 136.367788 
L 655.847261 136.858241 
L 656.466004 138.856356 
L 656.776205 139.020233 
L 657.086962 138.977452 
L 657.398275 139.689802 
L 657.710145 141.70768 
L 658.335523 146.88657 
L 658.648993 146.887574 
L 659.592348 141.431791 
L 659.90779 143.147273 
L 660.223743 145.864522 
L 660.540218 147.348225 
L 660.857214 146.738653 
L 661.811295 139.54388 
L 662.130348 139.882755 
L 662.44991 141.478183 
L 662.769979 142.416294 
L 663.090549 141.391121 
L 663.733174 135.698535 
L 664.055219 134.999384 
L 664.377749 136.716043 
L 664.700761 139.190966 
L 665.024255 140.055021 
L 665.34823 138.431295 
L 665.672684 135.476083 
L 665.997617 133.772396 
L 666.323026 134.756416 
L 666.975266 140.410049 
L 667.30209 140.57601 
L 667.957138 135.698782 
L 668.285356 135.12548 
L 668.614035 137.410243 
L 668.943172 140.79073 
L 669.272763 142.517383 
L 669.602806 141.401309 
L 670.264238 135.243361 
L 670.595627 135.255721 
L 670.927467 138.136222 
L 671.592531 145.630761 
L 671.925779 147.024274 
L 672.593702 146.318706 
L 672.928319 147.593205 
L 673.263306 149.307379 
L 673.598622 149.064448 
L 674.270271 145.577394 
L 674.60666 145.327877 
L 674.943456 146.849251 
L 675.280669 148.919304 
L 675.618298 149.95772 
L 675.956338 148.961315 
L 676.972899 139.290605 
L 677.312564 140.357856 
L 677.652632 143.370951 
L 677.993101 145.124811 
L 678.333968 143.672168 
L 679.016898 134.203575 
L 679.358959 132.953994 
L 679.513182 133.829987 
L 679.513182 133.829987 
" clip-path="url(#p057ae53353)" style="fill: none; stroke: #d62728; stroke-opacity: 0.8; stroke-width: 0.9; stroke-linecap: square"/>
   </g>
   <g id="patch_3">
    <path d="M 56.09 246.04 
L 56.09 26.88 
" style="fill: none; stroke: #000000; stroke-width: 0.8; stroke-linejoin: miter; stroke-linecap: square"/>
   </g>
   <g id="patch_4">
    <path d="M 709.2 246.04 
L 709.2 26.88 
" style="fill: none; stroke: #000000; stroke-width: 0.8; stroke-linejoin: miter; stroke-linecap: square"/>
   </g>
   <g id="patch_5">
    <path d="M 56.09 246.04 
L 709.2 246.04 
" style="fill: none; stroke: #000000; stroke-width: 0.8; stroke-linejoin: miter; stroke-linecap: square"/>
   </g>
   <g id="patch_6">
    <path d="M 56.09 26.88 
L 709.2 26.88 
" style="fill: none; stroke: #000000; stroke-width: 0.8; stroke-linejoin: miter; stroke-linecap: square"/>
   </g>
   <g id="text_19">
    <!-- steering-link loads over one Anderstorp Raceway lap -->
    <g transform="translate(224.036875 20.88) scale(0.12 -0.12)">
     <defs>
      <path id="DejaVuSans-67" d="M 2906 1791 
Q 2906 2416 2648 2759 
Q 2391 3103 1925 3103 
Q 1463 3103 1205 2759 
Q 947 2416 947 1791 
Q 947 1169 1205 825 
Q 1463 481 1925 481 
Q 2391 481 2648 825 
Q 2906 1169 2906 1791 
z
M 3481 434 
Q 3481 -459 3084 -895 
Q 2688 -1331 1869 -1331 
Q 1566 -1331 1297 -1286 
Q 1028 -1241 775 -1147 
L 775 -588 
Q 1028 -725 1275 -790 
Q 1522 -856 1778 -856 
Q 2344 -856 2625 -561 
Q 2906 -266 2906 331 
L 2906 616 
Q 2728 306 2450 153 
Q 2172 0 1784 0 
Q 1141 0 747 490 
Q 353 981 353 1791 
Q 353 2603 747 3093 
Q 1141 3584 1784 3584 
Q 2172 3584 2450 3431 
Q 2728 3278 2906 2969 
L 2906 3500 
L 3481 3500 
L 3481 434 
z
" transform="scale(0.015625)"/>
      <path id="DejaVuSans-6c" d="M 603 4863 
L 1178 4863 
L 1178 0 
L 603 0 
L 603 4863 
z
" transform="scale(0.015625)"/>
      <path id="DejaVuSans-76" d="M 191 3500 
L 800 3500 
L 1894 563 
L 2988 3500 
L 3597 3500 
L 2284 0 
L 1503 0 
L 191 3500 
z
" transform="scale(0.015625)"/>
      <path id="DejaVuSans-41" d="M 2188 4044 
L 1331 1722 
L 3047 1722 
L 2188 4044 
z
M 1831 4666 
L 2547 4666 
L 4325 0 
L 3669 0 
L 3244 1197 
L 1141 1197 
L 716 0 
L 50 0 
L 1831 4666 
z
" transform="scale(0.015625)"/>
      <path id="DejaVuSans-70" d="M 1159 525 
L 1159 -1331 
L 581 -1331 
L 581 3500 
L 1159 3500 
L 1159 2969 
Q 1341 3281 1617 3432 
Q 1894 3584 2278 3584 
Q 2916 3584 3314 3078 
Q 3713 2572 3713 1747 
Q 3713 922 3314 415 
Q 2916 -91 2278 -91 
Q 1894 -91 1617 61 
Q 1341 213 1159 525 
z
M 3116 1747 
Q 3116 2381 2855 2742 
Q 2594 3103 2138 3103 
Q 1681 3103 1420 2742 
Q 1159 2381 1159 1747 
Q 1159 1113 1420 752 
Q 1681 391 2138 391 
Q 2594 391 2855 752 
Q 3116 1113 3116 1747 
z
" transform="scale(0.015625)"/>
      <path id="DejaVuSans-52" d="M 2841 2188 
Q 3044 2119 3236 1894 
Q 3428 1669 3622 1275 
L 4263 0 
L 3584 0 
L 2988 1197 
Q 2756 1666 2539 1819 
Q 2322 1972 1947 1972 
L 1259 1972 
L 1259 0 
L 628 0 
L 628 4666 
L 2053 4666 
Q 2853 4666 3247 4331 
Q 3641 3997 3641 3322 
Q 3641 2881 3436 2590 
Q 3231 2300 2841 2188 
z
M 1259 4147 
L 1259 2491 
L 2053 2491 
Q 2509 2491 2742 2702 
Q 2975 2913 2975 3322 
Q 2975 3731 2742 3939 
Q 2509 4147 2053 4147 
L 1259 4147 
z
" transform="scale(0.015625)"/>
      <path id="DejaVuSans-77" d="M 269 3500 
L 844 3500 
L 1563 769 
L 2278 3500 
L 2956 3500 
L 3675 769 
L 4391 3500 
L 4966 3500 
L 4050 0 
L 3372 0 
L 2619 2869 
L 1863 0 
L 1184 0 
L 269 3500 
z
" transform="scale(0.015625)"/>
      <path id="DejaVuSans-79" d="M 2059 -325 
Q 1816 -950 1584 -1140 
Q 1353 -1331 966 -1331 
L 506 -1331 
L 506 -850 
L 844 -850 
Q 1081 -850 1212 -737 
Q 1344 -625 1503 -206 
L 1606 56 
L 191 3500 
L 800 3500 
L 1894 763 
L 2988 3500 
L 3597 3500 
L 2059 -325 
z
" transform="scale(0.015625)"/>
     </defs>
     <use xlink:href="#DejaVuSans-73"/>
     <use xlink:href="#DejaVuSans-74" transform="translate(52.099609 0)"/>
     <use xlink:href="#DejaVuSans-65" transform="translate(91.308594 0)"/>
     <use xlink:href="#DejaVuSans-65" transform="translate(152.832031 0)"/>
     <use xlink:href="#DejaVuSans-72" transform="translate(214.355469 0)"/>
     <use xlink:href="#DejaVuSans-69" transform="translate(255.46875 0)"/>
     <use xlink:href="#DejaVuSans-6e" transform="translate(283.251953 0)"/>
     <use xlink:href="#DejaVuSans-67" transform="translate(346.630859 0)"/>
     <use xlink:href="#DejaVuSans-2d" transform="translate(410.107422 0)"/>
     <use xlink:href="#DejaVuSans-6c" transform="translate(446.191406 0)"/>
     <use xlink:href="#DejaVuSans-69" transform="translate(473.974609 0)"/>
     <use xlink:href="#DejaVuSans-6e" transform="translate(501.757812 0)"/>
     <use xlink:href="#DejaVuSans-6b" transform="translate(565.136719 0)"/>
     <use xlink:href="#DejaVuSans-20" transform="translate(623.046875 0)"/>
     <use xlink:href="#DejaVuSans-6c" transform="translate(654.833984 0)"/>
     <use xlink:href="#DejaVuSans-6f" transform="translate(682.617188 0)"/>
     <use xlink:href="#DejaVuSans-61" transform="translate(743.798828 0)"/>
     <use xlink:href="#DejaVuSans-64" transform="translate(805.078125 0)"/>
     <use xlink:href="#DejaVuSans-73" transform="translate(868.554688 0)"/>
     <use xlink:href="#DejaVuSans-20" transform="translate(920.654297 0)"/>
     <use xlink:href="#DejaVuSans-6f" transform="translate(952.441406 0)"/>
     <use xlink:href="#DejaVuSans-76" transform="translate(1013.623047 0)"/>
     <use xlink:href="#DejaVuSans-65" transform="translate(1072.802734 0)"/>
     <use xlink:href="#DejaVuSans-72" transform="translate(1134.326172 0)"/>
     <use xlink:href="#DejaVuSans-20" transform="translate(1175.439453 0)"/>
     <use xlink:href="#DejaVuSans-6f" transform="translate(1207.226562 0)"/>
     <use xlink:href="#DejaVuSans-6e" transform="translate(1268.408203 0)"/>
     <use xlink:href="#DejaVuSans-65" transform="translate(1331.787109 0)"/>
     <use xlink:href="#DejaVuSans-20" transform="translate(1393.310547 0)"/>
     <use xlink:href="#DejaVuSans-41" transform="translate(1425.097656 0)"/>
     <use xlink:href="#DejaVuSans-6e" transform="translate(1493.505859 0)"/>
     <use xlink:href="#DejaVuSans-64" transform="translate(1556.884766 0)"/>
     <use xlink:href="#DejaVuSans-65" transform="translate(1620.361328 0)"/>
     <use xlink:href="#DejaVuSans-72" transform="translate(1681.884766 0)"/>
     <use xlink:href="#DejaVuSans-73" transform="translate(1722.998047 0)"/>
     <use xlink:href="#DejaVuSans-74" transform="translate(1775.097656 0)"/>
     <use xlink:href="#DejaVuSans-6f" transform="translate(1814.306641 0)"/>
     <use xlink:href="#DejaVuSans-72" transform="translate(1875.488281 0)"/>
     <use xlink:href="#DejaVuSans-70" transform="translate(1916.601562 0)"/>
     <use xlink:href="#DejaVuSans-20" transform="translate(1980.078125 0)"/>
     <use xlink:href="#DejaVuSans-52" transform="translate(2011.865234 0)"/>
     <use xlink:href="#DejaVuSans-61" transform="translate(2079.097656 0)"/>
     <use xlink:href="#DejaVuSans-63" transform="translate(2140.376953 0)"/>
     <use xlink:href="#DejaVuSans-65" transform="translate(2195.357422 0)"/>
     <use xlink:href="#DejaVuSans-77" transform="translate(2256.880859 0)"/>
     <use xlink:href="#DejaVuSans-61" transform="translate(2338.667969 0)"/>
     <use xlink:href="#DejaVuSans-79" transform="translate(2399.947266 0)"/>
     <use xlink:href="#DejaVuSans-20" transform="translate(2459.126953 0)"/>
     <use xlink:href="#DejaVuSans-6c" transform="translate(2490.914062 0)"/>
     <use xlink:href="#DejaVuSans-61" transform="translate(2518.697266 0)"/>
     <use xlink:href="#DejaVuSans-70" transform="translate(2579.976562 0)"/>
    </g>
   </g>
   <g id="legend_1">
    <g id="patch_7">
     <path d="M 630.755 56.765 
L 703.6 56.765 
Q 705.2 56.765 705.2 55.165 
L 705.2 32.48 
Q 705.2 30.88 703.6 30.88 
L 630.755 30.88 
Q 629.155 30.88 629.155 32.48 
L 629.155 55.165 
Q 629.155 56.765 630.755 56.765 
z
" style="fill: #ffffff; opacity: 0.8; stroke: #cccccc; stroke-linejoin: miter"/>
    </g>
    <g id="line2d_35">
     <path d="M 632.355 37.35875 
L 640.355 37.35875 
L 648.355 37.35875 
" style="fill: none; stroke: #2ca02c; stroke-width: 0.9; stroke-linecap: square"/>
    </g>
    <g id="text_20">
     <!-- tie rod left -->
     <g transform="translate(654.755 40.15875) scale(0.08 -0.08)">
      <use xlink:href="#DejaVuSans-74"/>
      <use xlink:href="#DejaVuSans-69" transform="translate(39.208984 0)"/>
      <use xlink:href="#DejaVuSans-65" transform="translate(66.992188 0)"/>
      <use xlink:href="#DejaVuSans-20" transform="translate(128.515625 0)"/>
      <use xlink:href="#DejaVuSans-72" transform="translate(160.302734 0)"/>
      <use xlink:href="#DejaVuSans-6f" transform="translate(199.166016 0)"/>
      <use xlink:href="#DejaVuSans-64" transform="translate(260.347656 0)"/>
      <use xlink:href="#DejaVuSans-20" transform="translate(323.824219 0)"/>
      <use xlink:href="#DejaVuSans-6c" transform="translate(355.611328 0)"/>
      <use xlink:href="#DejaVuSans-65" transform="translate(383.394531 0)"/>
      <use xlink:href="#DejaVuSans-66" transform="translate(444.917969 0)"/>
      <use xlink:href="#DejaVuSans-74" transform="translate(478.373047 0)"/>
     </g>
    </g>
    <g id="line2d_36">
     <path d="M 632.355 49.10125 
L 640.355 49.10125 
L 648.355 49.10125 
" style="fill: none; stroke: #d62728; stroke-opacity: 0.8; stroke-width: 0.9; stroke-linecap: square"/>
    </g>
    <g id="text_21">
     <!-- tie rod right -->
     <g transform="translate(654.755 51.90125) scale(0.08 -0.08)">
      <defs>
       <path id="DejaVuSans-68" d="M 3513 2113 
L 3513 0 
L 2938 0 
L 2938 2094 
Q 2938 2591 2744 2837 
Q 2550 3084 2163 3084 
Q 1697 3084 1428 2787 
Q 1159 2491 1159 1978 
L 1159 0 
L 581 0 
L 581 4863 
L 1159 4863 
L 1159 2956 
Q 1366 3272 1645 3428 
Q 1925 3584 2291 3584 
Q 2894 3584 3203 3211 
Q 3513 2838 3513 2113 
z
" transform="scale(0.015625)"/>
      </defs>
      <use xlink:href="#DejaVuSans-74"/>
      <use xlink:href="#DejaVuSans-69" transform="translate(39.208984 0)"/>
      <use xlink:href="#DejaVuSans-65" transform="translate(66.992188 0)"/>
      <use xlink:href="#DejaVuSans-20" transform="translate(128.515625 0)"/>
      <use xlink:href="#DejaVuSans-72" transform="translate(160.302734 0)"/>
      <use xlink:href="#DejaVuSans-6f" transform="translate(199.166016 0)"/>
      <use xlink:href="#DejaVuSans-64" transform="translate(260.347656 0)"/>
      <use xlink:href="#DejaVuSans-20" transform="translate(323.824219 0)"/>
      <use xlink:href="#DejaVuSans-72" transform="translate(355.611328 0)"/>
      <use xlink:href="#DejaVuSans-69" transform="translate(396.724609 0)"/>
      <use xlink:href="#DejaVuSans-67" transform="translate(424.507812 0)"/>
      <use xlink:href="#DejaVuSans-68" transform="translate(487.984375 0)"/>
      <use xlink:href="#DejaVuSans-74" transform="translate(551.363281 0)"/>
     </g>
    </g>
   </g>
  </g>
 </g>
 <defs>
  <clipPath id="p057ae53353">
   <rect x="56.09" y="26.88" width="653.11" height="219.16"/>
  </clipPath>
 </defs>
</svg>
