<?xml version="1.0" encoding="utf-8" standalone="no"?>
<!DOCTYPE svg PUBLIC "-//W3C//DTD SVG 1.1//EN"
  "http://www.w3.org/Graphics/SVG/1.1/DTD/svg11.dtd">
<svg xmlns:xlink="http://www.w3.org/1999/xlink" width="720pt" height="288pt" viewBox="0 0 720 288" xmlns="http://www.w3.org/2000/svg" version="1.1">
 <metadata>
  <rdf:RDF xmlns:dc="http://purl.org/dc/elements/1.1/" xmlns:cc="http://creativecommons.org/ns#" xmlns:rdf="http://www.w3.org/1999/02/22-rdf-syntax-ns#">
   <cc:Work>
    <dc:type rdf:resource="http://purl.org/dc/dcmitype/StillImage"/>
    <dc:date>2026-07-08T10:14:56.560547</dc:date>
    <dc:format>image/svg+xml</dc:format>
    <dc:creator>
     <cc:Agent>
      <dc:title>Matplotlib v3.10.8, https://matplotlib.org/</dc:title>
     </cc:Agent>
    </dc:creator>
   </cc:Work>
  </rdf:RDF>
 </metadata>
 <defs>
  <style type="text/css">*{stroke-linejoin: round; stroke-linecap: butt}</style>
 </defs>
 <g id="figure_1">
  <g id="patch_1">
   <path d="M 0 288 
L 720 288 
L 720 0 
L 0 0 
z
" style="fill: #ffffff"/>
  </g>
  <g id="axes_1">
   <g id="patch_2">
    <path d="M 56.09 246.04 
L 709.2 246.04 
L 709.2 28.37625 
L 56.09 28.37625 
z
" style="fill: #ffffff"/>
   </g>
   <g id="matplotlib.axis_1">
    <g id="xtick_1">
     <g id="line2d_1">
      <path d="M 85.776818 246.04 
L 85.776818 28.37625 
" clip-path="url(#p3f6cad92d9)" style="fill: none; stroke: #b0b0b0; stroke-opacity: 0.3; stroke-width: 0.8; stroke-linecap: square"/>
     </g>
     <g id="line2d_2">
      <defs>
       <path id="m39cb605b6f" d="M 0 0 
L 0 3.5 
" style="stroke: #000000; stroke-width: 0.8"/>
      </defs>
      <g>
       <use xlink:href="#m39cb605b6f" x="85.776818" y="246.04" style="stroke: #000000; stroke-width: 0.8"/>
      </g>
     </g>
     <g id="text_1">
      <!-- 0.0 -->
      <g transform="translate(77.825256 260.638438) scale(0.1 -0.1)">
       <defs>
        <path id="DejaVuSans-30" d="M 2034 4250 
Q 1547 4250 1301 3770 
Q 1056 3291 1056 2328 
Q 1056 1369 1301 889 
Q 1547 409 2034 409 
Q 2525 409 2770 889 
Q 3016 1369 3016 2328 
Q 3016 3291 2770 3770 
Q 2525 4250 2034 4250 
z
M 2034 4750 
Q 2819 4750 3233 4129 
Q 3647 3509 3647 2328 
Q 3647 1150 3233 529 
Q 2819 -91 2034 -91 
Q 1250 -91 836 529 
Q 422 1150 422 2328 
Q 422 3509 836 4129 
Q 1250 4750 2034 4750 
z
" transform="scale(0.015625)"/>
        <path id="DejaVuSans-2e" d="M 684 794 
L 1344 794 
L 1344 0 
L 684 0 
L 684 794 
z
" transform="scale(0.015625)"/>
       </defs>
       <use xlink:href="#DejaVuSans-30"/>
       <use xlink:href="#DejaVuSans-2e" transform="translate(63.623047 0)"/>
       <use xlink:href="#DejaVuSans-30" transform="translate(95.410156 0)"/>
      </g>
     </g>
    </g>
    <g id="xtick_2">
     <g id="line2d_3">
      <path d="M 213.188055 246.04 
L 213.188055 28.37625 
" clip-path="url(#p3f6cad92d9)" style="fill: none; stroke: #b0b0b0; stroke-opacity: 0.3; stroke-width: 0.8; stroke-linecap: square"/>
     </g>
     <g id="line2d_4">
      <g>
       <use xlink:href="#m39cb605b6f" x="213.188055" y="246.04" style="stroke: #000000; stroke-width: 0.8"/>
      </g>
     </g>
     <g id="text_2">
      <!-- 0.5 -->
      <g transform="translate(205.236492 260.638438) scale(0.1 -0.1)">
       <defs>
        <path id="DejaVuSans-35" d="M 691 4666 
L 3169 4666 
L 3169 4134 
L 1269 4134 
L 1269 2991 
Q 1406 3038 1543 3061 
Q 1681 3084 1819 3084 
Q 2600 3084 3056 2656 
Q 3513 2228 3513 1497 
Q 3513 744 3044 326 
Q 2575 -91 1722 -91 
Q 1428 -91 1123 -41 
Q 819 9 494 109 
L 494 744 
Q 775 591 1075 516 
Q 1375 441 1709 441 
Q 2250 441 2565 725 
Q 2881 1009 2881 1497 
Q 2881 1984 2565 2268 
Q 2250 2553 1709 2553 
Q 1456 2553 1204 2497 
Q 953 2441 691 2322 
L 691 4666 
z
" transform="scale(0.015625)"/>
       </defs>
       <use xlink:href="#DejaVuSans-30"/>
       <use xlink:href="#DejaVuSans-2e" transform="translate(63.623047 0)"/>
       <use xlink:href="#DejaVuSans-35" transform="translate(95.410156 0)"/>
      </g>
     </g>
    </g>
    <g id="xtick_3">
     <g id="line2d_5">
      <path d="M 340.599292 246.04 
L 340.599292 28.37625 
" clip-path="url(#p3f6cad92d9)" style="fill: none; stroke: #b0b0b0; stroke-opacity: 0.3; stroke-width: 0.8; stroke-linecap: square"/>
     </g>
     <g id="line2d_6">
      <g>
       <use xlink:href="#m39cb605b6f" x="340.599292" y="246.04" style="stroke: #000000; stroke-width: 0.8"/>
      </g>
     </g>
     <g id="text_3">
      <!-- 1.0 -->
      <g transform="translate(332.647729 260.638438) scale(0.1 -0.1)">
       <defs>
        <path id="DejaVuSans-31" d="M 794 531 
L 1825 531 
L 1825 4091 
L 703 3866 
L 703 4441 
L 1819 4666 
L 2450 4666 
L 2450 531 
L 3481 531 
L 3481 0 
L 794 0 
L 794 531 
z
" transform="scale(0.015625)"/>
       </defs>
       <use xlink:href="#DejaVuSans-31"/>
       <use xlink:href="#DejaVuSans-2e" transform="translate(63.623047 0)"/>
       <use xlink:href="#DejaVuSans-30" transform="translate(95.410156 0)"/>
      </g>
     </g>
    </g>
    <g id="xtick_4">
     <g id="line2d_7">
      <path d="M 468.010529 246.04 
L 468.010529 28.37625 
" clip-path="url(#p3f6cad92d9)" style="fill: none; stroke: #b0b0b0; stroke-opacity: 0.3; stroke-width: 0.8; stroke-linecap: square"/>
     </g>
     <g id="line2d_8">
      <g>
       <use xlink:href="#m39cb605b6f" x="468.010529" y="246.04" style="stroke: #000000; stroke-width: 0.8"/>
      </g>
     </g>
     <g id="text_4">
      <!-- 1.5 -->
      <g transform="translate(460.058966 260.638438) scale(0.1 -0.1)">
       <use xlink:href="#DejaVuSans-31"/>
       <use xlink:href="#DejaVuSans-2e" transform="translate(63.623047 0)"/>
       <use xlink:href="#DejaVuSans-35" transform="translate(95.410156 0)"/>
      </g>
     </g>
    </g>
    <g id="xtick_5">
     <g id="line2d_9">
      <path d="M 595.421765 246.04 
L 595.421765 28.37625 
" clip-path="url(#p3f6cad92d9)" style="fill: none; stroke: #b0b0b0; stroke-opacity: 0.3; stroke-width: 0.8; stroke-linecap: square"/>
     </g>
     <g id="line2d_10">
      <g>
       <use xlink:href="#m39cb605b6f" x="595.421765" y="246.04" style="stroke: #000000; stroke-width: 0.8"/>
      </g>
     </g>
     <g id="text_5">
      <!-- 2.0 -->
      <g transform="translate(587.470203 260.638438) scale(0.1 -0.1)">
       <defs>
        <path id="DejaVuSans-32" d="M 1228 531 
L 3431 531 
L 3431 0 
L 469 0 
L 469 531 
Q 828 903 1448 1529 
Q 2069 2156 2228 2338 
Q 2531 2678 2651 2914 
Q 2772 3150 2772 3378 
Q 2772 3750 2511 3984 
Q 2250 4219 1831 4219 
Q 1534 4219 1204 4116 
Q 875 4013 500 3803 
L 500 4441 
Q 881 4594 1212 4672 
Q 1544 4750 1819 4750 
Q 2544 4750 2975 4387 
Q 3406 4025 3406 3419 
Q 3406 3131 3298 2873 
Q 3191 2616 2906 2266 
Q 2828 2175 2409 1742 
Q 1991 1309 1228 531 
z
" transform="scale(0.015625)"/>
       </defs>
       <use xlink:href="#DejaVuSans-32"/>
       <use xlink:href="#DejaVuSans-2e" transform="translate(63.623047 0)"/>
       <use xlink:href="#DejaVuSans-30" transform="translate(95.410156 0)"/>
      </g>
     </g>
    </g>
    <g id="text_6">
     <!-- distance s [km] -->
     <g transform="translate(344.008281 274.316562) scale(0.1 -0.1)">
      <defs>
       <path id="DejaVuSans-64" d="M 2906 2969 
L 2906 4863 
L 3481 4863 
L 3481 0 
L 2906 0 
L 2906 525 
Q 2725 213 2448 61 
Q 2172 -91 1784 -91 
Q 1150 -91 751 415 
Q 353 922 353 1747 
Q 353 2572 751 3078 
Q 1150 3584 1784 3584 
Q 2172 3584 2448 3432 
Q 2725 3281 2906 2969 
z
M 947 1747 
Q 947 1113 1208 752 
Q 1469 391 1925 391 
Q 2381 391 2643 752 
Q 2906 1113 2906 1747 
Q 2906 2381 2643 2742 
Q 2381 3103 1925 3103 
Q 1469 3103 1208 2742 
Q 947 2381 947 1747 
z
" transform="scale(0.015625)"/>
       <path id="DejaVuSans-69" d="M 603 3500 
L 1178 3500 
L 1178 0 
L 603 0 
L 603 3500 
z
M 603 4863 
L 1178 4863 
L 1178 4134 
L 603 4134 
L 603 4863 
z
" transform="scale(0.015625)"/>
       <path id="DejaVuSans-73" d="M 2834 3397 
L 2834 2853 
Q 2591 2978 2328 3040 
Q 2066 3103 1784 3103 
Q 1356 3103 1142 2972 
Q 928 2841 928 2578 
Q 928 2378 1081 2264 
Q 1234 2150 1697 2047 
L 1894 2003 
Q 2506 1872 2764 1633 
Q 3022 1394 3022 966 
Q 3022 478 2636 193 
Q 2250 -91 1575 -91 
Q 1294 -91 989 -36 
Q 684 19 347 128 
L 347 722 
Q 666 556 975 473 
Q 1284 391 1588 391 
Q 1994 391 2212 530 
Q 2431 669 2431 922 
Q 2431 1156 2273 1281 
Q 2116 1406 1581 1522 
L 1381 1569 
Q 847 1681 609 1914 
Q 372 2147 372 2553 
Q 372 3047 722 3315 
Q 1072 3584 1716 3584 
Q 2034 3584 2315 3537 
Q 2597 3491 2834 3397 
z
" transform="scale(0.015625)"/>
       <path id="DejaVuSans-74" d="M 1172 4494 
L 1172 3500 
L 2356 3500 
L 2356 3053 
L 1172 3053 
L 1172 1153 
Q 1172 725 1289 603 
Q 1406 481 1766 481 
L 2356 481 
L 2356 0 
L 1766 0 
Q 1100 0 847 248 
Q 594 497 594 1153 
L 594 3053 
L 172 3053 
L 172 3500 
L 594 3500 
L 594 4494 
L 1172 4494 
z
" transform="scale(0.015625)"/>
       <path id="DejaVuSans-61" d="M 2194 1759 
Q 1497 1759 1228 1600 
Q 959 1441 959 1056 
Q 959 750 1161 570 
Q 1363 391 1709 391 
Q 2188 391 2477 730 
Q 2766 1069 2766 1631 
L 2766 1759 
L 2194 1759 
z
M 3341 1997 
L 3341 0 
L 2766 0 
L 2766 531 
Q 2569 213 2275 61 
Q 1981 -91 1556 -91 
Q 1019 -91 701 211 
Q 384 513 384 1019 
Q 384 1609 779 1909 
Q 1175 2209 1959 2209 
L 2766 2209 
L 2766 2266 
Q 2766 2663 2505 2880 
Q 2244 3097 1772 3097 
Q 1472 3097 1187 3025 
Q 903 2953 641 2809 
L 641 3341 
Q 956 3463 1253 3523 
Q 1550 3584 1831 3584 
Q 2591 3584 2966 3190 
Q 3341 2797 3341 1997 
z
" transform="scale(0.015625)"/>
       <path id="DejaVuSans-6e" d="M 3513 2113 
L 3513 0 
L 2938 0 
L 2938 2094 
Q 2938 2591 2744 2837 
Q 2550 3084 2163 3084 
Q 1697 3084 1428 2787 
Q 1159 2491 1159 1978 
L 1159 0 
L 581 0 
L 581 3500 
L 1159 3500 
L 1159 2956 
Q 1366 3272 1645 3428 
Q 1925 3584 2291 3584 
Q 2894 3584 3203 3211 
Q 3513 2838 3513 2113 
z
" transform="scale(0.015625)"/>
       <path id="DejaVuSans-63" d="M 3122 3366 
L 3122 2828 
Q 2878 2963 2633 3030 
Q 2388 3097 2138 3097 
Q 1578 3097 1268 2742 
Q 959 2388 959 1747 
Q 959 1106 1268 751 
Q 1578 397 2138 397 
Q 2388 397 2633 464 
Q 2878 531 3122 666 
L 3122 134 
Q 2881 22 2623 -34 
Q 2366 -91 2075 -91 
Q 1284 -91 818 406 
Q 353 903 353 1747 
Q 353 2603 823 3093 
Q 1294 3584 2113 3584 
Q 2378 3584 2631 3529 
Q 2884 3475 3122 3366 
z
" transform="scale(0.015625)"/>
       <path id="DejaVuSans-65" d="M 3597 1894 
L 3597 1613 
L 953 1613 
Q 991 1019 1311 708 
Q 1631 397 2203 397 
Q 2534 397 2845 478 
Q 3156 559 3463 722 
L 3463 178 
Q 3153 47 2828 -22 
Q 2503 -91 2169 -91 
Q 1331 -91 842 396 
Q 353 884 353 1716 
Q 353 2575 817 3079 
Q 1281 3584 2069 3584 
Q 2775 3584 3186 3129 
Q 3597 2675 3597 1894 
z
M 3022 2063 
Q 3016 2534 2758 2815 
Q 2500 3097 2075 3097 
Q 1594 3097 1305 2825 
Q 1016 2553 972 2059 
L 3022 2063 
z
" transform="scale(0.015625)"/>
       <path id="DejaVuSans-20" transform="scale(0.015625)"/>
       <path id="DejaVuSans-5b" d="M 550 4863 
L 1875 4863 
L 1875 4416 
L 1125 4416 
L 1125 -397 
L 1875 -397 
L 1875 -844 
L 550 -844 
L 550 4863 
z
" transform="scale(0.015625)"/>
       <path id="DejaVuSans-6b" d="M 581 4863 
L 1159 4863 
L 1159 1991 
L 2875 3500 
L 3609 3500 
L 1753 1863 
L 3688 0 
L 2938 0 
L 1159 1709 
L 1159 0 
L 581 0 
L 581 4863 
z
" transform="scale(0.015625)"/>
       <path id="DejaVuSans-6d" d="M 3328 2828 
Q 3544 3216 3844 3400 
Q 4144 3584 4550 3584 
Q 5097 3584 5394 3201 
Q 5691 2819 5691 2113 
L 5691 0 
L 5113 0 
L 5113 2094 
Q 5113 2597 4934 2840 
Q 4756 3084 4391 3084 
Q 3944 3084 3684 2787 
Q 3425 2491 3425 1978 
L 3425 0 
L 2847 0 
L 2847 2094 
Q 2847 2600 2669 2842 
Q 2491 3084 2119 3084 
Q 1678 3084 1418 2786 
Q 1159 2488 1159 1978 
L 1159 0 
L 581 0 
L 581 3500 
L 1159 3500 
L 1159 2956 
Q 1356 3278 1631 3431 
Q 1906 3584 2284 3584 
Q 2666 3584 2933 3390 
Q 3200 3197 3328 2828 
z
" transform="scale(0.015625)"/>
       <path id="DejaVuSans-5d" d="M 1947 4863 
L 1947 -844 
L 622 -844 
L 622 -397 
L 1369 -397 
L 1369 4416 
L 622 4416 
L 622 4863 
L 1947 4863 
z
" transform="scale(0.015625)"/>
      </defs>
      <use xlink:href="#DejaVuSans-64"/>
      <use xlink:href="#DejaVuSans-69" transform="translate(63.476562 0)"/>
      <use xlink:href="#DejaVuSans-73" transform="translate(91.259766 0)"/>
      <use xlink:href="#DejaVuSans-74" transform="translate(143.359375 0)"/>
      <use xlink:href="#DejaVuSans-61" transform="translate(182.568359 0)"/>
      <use xlink:href="#DejaVuSans-6e" transform="translate(243.847656 0)"/>
      <use xlink:href="#DejaVuSans-63" transform="translate(307.226562 0)"/>
      <use xlink:href="#DejaVuSans-65" transform="translate(362.207031 0)"/>
      <use xlink:href="#DejaVuSans-20" transform="translate(423.730469 0)"/>
      <use xlink:href="#DejaVuSans-73" transform="translate(455.517578 0)"/>
      <use xlink:href="#DejaVuSans-20" transform="translate(507.617188 0)"/>
      <use xlink:href="#DejaVuSans-5b" transform="translate(539.404297 0)"/>
      <use xlink:href="#DejaVuSans-6b" transform="translate(578.417969 0)"/>
      <use xlink:href="#DejaVuSans-6d" transform="translate(636.328125 0)"/>
      <use xlink:href="#DejaVuSans-5d" transform="translate(733.740234 0)"/>
     </g>
    </g>
   </g>
   <g id="matplotlib.axis_2">
    <g id="ytick_1">
     <g id="line2d_11">
      <path d="M 56.09 243.631946 
L 709.2 243.631946 
" clip-path="url(#p3f6cad92d9)" style="fill: none; stroke: #b0b0b0; stroke-opacity: 0.3; stroke-width: 0.8; stroke-linecap: square"/>
     </g>
     <g id="line2d_12">
      <defs>
       <path id="m03e33a6ea9" d="M 0 0 
L -3.5 0 
" style="stroke: #000000; stroke-width: 0.8"/>
      </defs>
      <g>
       <use xlink:href="#m03e33a6ea9" x="56.09" y="243.631946" style="stroke: #000000; stroke-width: 0.8"/>
      </g>
     </g>
     <g id="text_7">
      <!-- −2.0 -->
      <g transform="translate(24.807188 247.431165) scale(0.1 -0.1)">
       <defs>
        <path id="DejaVuSans-2212" d="M 678 2272 
L 4684 2272 
L 4684 1741 
L 678 1741 
L 678 2272 
z
" transform="scale(0.015625)"/>
       </defs>
       <use xlink:href="#DejaVuSans-2212"/>
       <use xlink:href="#DejaVuSans-32" transform="translate(83.789062 0)"/>
       <use xlink:href="#DejaVuSans-2e" transform="translate(147.412109 0)"/>
       <use xlink:href="#DejaVuSans-30" transform="translate(179.199219 0)"/>
      </g>
     </g>
    </g>
    <g id="ytick_2">
     <g id="line2d_13">
      <path d="M 56.09 216.817993 
L 709.2 216.817993 
" clip-path="url(#p3f6cad92d9)" style="fill: none; stroke: #b0b0b0; stroke-opacity: 0.3; stroke-width: 0.8; stroke-linecap: square"/>
     </g>
     <g id="line2d_14">
      <g>
       <use xlink:href="#m03e33a6ea9" x="56.09" y="216.817993" style="stroke: #000000; stroke-width: 0.8"/>
      </g>
     </g>
     <g id="text_8">
      <!-- −1.5 -->
      <g transform="translate(24.807188 220.617212) scale(0.1 -0.1)">
       <use xlink:href="#DejaVuSans-2212"/>
       <use xlink:href="#DejaVuSans-31" transform="translate(83.789062 0)"/>
       <use xlink:href="#DejaVuSans-2e" transform="translate(147.412109 0)"/>
       <use xlink:href="#DejaVuSans-35" transform="translate(179.199219 0)"/>
      </g>
     </g>
    </g>
    <g id="ytick_3">
     <g id="line2d_15">
      <path d="M 56.09 190.004039 
L 709.2 190.004039 
" clip-path="url(#p3f6cad92d9)" style="fill: none; stroke: #b0b0b0; stroke-opacity: 0.3; stroke-width: 0.8; stroke-linecap: square"/>
     </g>
     <g id="line2d_16">
      <g>
       <use xlink:href="#m03e33a6ea9" x="56.09" y="190.004039" style="stroke: #000000; stroke-width: 0.8"/>
      </g>
     </g>
     <g id="text_9">
      <!-- −1.0 -->
      <g transform="translate(24.807188 193.803258) scale(0.1 -0.1)">
       <use xlink:href="#DejaVuSans-2212"/>
       <use xlink:href="#DejaVuSans-31" transform="translate(83.789062 0)"/>
       <use xlink:href="#DejaVuSans-2e" transform="translate(147.412109 0)"/>
       <use xlink:href="#DejaVuSans-30" transform="translate(179.199219 0)"/>
      </g>
     </g>
    </g>
    <g id="ytick_4">
     <g id="line2d_17">
      <path d="M 56.09 163.190086 
L 709.2 163.190086 
" clip-path="url(#p3f6cad92d9)" style="fill: none; stroke: #b0b0b0; stroke-opacity: 0.3; stroke-width: 0.8; stroke-linecap: square"/>
     </g>
     <g id="line2d_18">
      <g>
       <use xlink:href="#m03e33a6ea9" x="56.09" y="163.190086" style="stroke: #000000; stroke-width: 0.8"/>
      </g>
     </g>
     <g id="text_10">
      <!-- −0.5 -->
      <g transform="translate(24.807188 166.989305) scale(0.1 -0.1)">
       <use xlink:href="#DejaVuSans-2212"/>
       <use xlink:href="#DejaVuSans-30" transform="translate(83.789062 0)"/>
       <use xlink:href="#DejaVuSans-2e" transform="translate(147.412109 0)"/>
       <use xlink:href="#DejaVuSans-35" transform="translate(179.199219 0)"/>
      </g>
     </g>
    </g>
    <g id="ytick_5">
     <g id="line2d_19">
      <path d="M 56.09 136.376133 
L 709.2 136.376133 
" clip-path="url(#p3f6cad92d9)" style="fill: none; stroke: #b0b0b0; stroke-opacity: 0.3; stroke-width: 0.8; stroke-linecap: square"/>
     </g>
     <g id="line2d_20">
      <g>
       <use xlink:href="#m03e33a6ea9" x="56.09" y="136.376133" style="stroke: #000000; stroke-width: 0.8"/>
      </g>
     </g>
     <g id="text_11">
      <!-- 0.0 -->
      <g transform="translate(33.186875 140.175351) scale(0.1 -0.1)">
       <use xlink:href="#DejaVuSans-30"/>
       <use xlink:href="#DejaVuSans-2e" transform="translate(63.623047 0)"/>
       <use xlink:href="#DejaVuSans-30" transform="translate(95.410156 0)"/>
      </g>
     </g>
    </g>
    <g id="ytick_6">
     <g id="line2d_21">
      <path d="M 56.09 109.562179 
L 709.2 109.562179 
" clip-path="url(#p3f6cad92d9)" style="fill: none; stroke: #b0b0b0; stroke-opacity: 0.3; stroke-width: 0.8; stroke-linecap: square"/>
     </g>
     <g id="line2d_22">
      <g>
       <use xlink:href="#m03e33a6ea9" x="56.09" y="109.562179" style="stroke: #000000; stroke-width: 0.8"/>
      </g>
     </g>
     <g id="text_12">
      <!-- 0.5 -->
      <g transform="translate(33.186875 113.361398) scale(0.1 -0.1)">
       <use xlink:href="#DejaVuSans-30"/>
       <use xlink:href="#DejaVuSans-2e" transform="translate(63.623047 0)"/>
       <use xlink:href="#DejaVuSans-35" transform="translate(95.410156 0)"/>
      </g>
     </g>
    </g>
    <g id="ytick_7">
     <g id="line2d_23">
      <path d="M 56.09 82.748226 
L 709.2 82.748226 
" clip-path="url(#p3f6cad92d9)" style="fill: none; stroke: #b0b0b0; stroke-opacity: 0.3; stroke-width: 0.8; stroke-linecap: square"/>
     </g>
     <g id="line2d_24">
      <g>
       <use xlink:href="#m03e33a6ea9" x="56.09" y="82.748226" style="stroke: #000000; stroke-width: 0.8"/>
      </g>
     </g>
     <g id="text_13">
      <!-- 1.0 -->
      <g transform="translate(33.186875 86.547445) scale(0.1 -0.1)">
       <use xlink:href="#DejaVuSans-31"/>
       <use xlink:href="#DejaVuSans-2e" transform="translate(63.623047 0)"/>
       <use xlink:href="#DejaVuSans-30" transform="translate(95.410156 0)"/>
      </g>
     </g>
    </g>
    <g id="ytick_8">
     <g id="line2d_25">
      <path d="M 56.09 55.934272 
L 709.2 55.934272 
" clip-path="url(#p3f6cad92d9)" style="fill: none; stroke: #b0b0b0; stroke-opacity: 0.3; stroke-width: 0.8; stroke-linecap: square"/>
     </g>
     <g id="line2d_26">
      <g>
       <use xlink:href="#m03e33a6ea9" x="56.09" y="55.934272" style="stroke: #000000; stroke-width: 0.8"/>
      </g>
     </g>
     <g id="text_14">
      <!-- 1.5 -->
      <g transform="translate(33.186875 59.733491) scale(0.1 -0.1)">
       <use xlink:href="#DejaVuSans-31"/>
       <use xlink:href="#DejaVuSans-2e" transform="translate(63.623047 0)"/>
       <use xlink:href="#DejaVuSans-35" transform="translate(95.410156 0)"/>
      </g>
     </g>
    </g>
    <g id="ytick_9">
     <g id="line2d_27">
      <path d="M 56.09 29.120319 
L 709.2 29.120319 
" clip-path="url(#p3f6cad92d9)" style="fill: none; stroke: #b0b0b0; stroke-opacity: 0.3; stroke-width: 0.8; stroke-linecap: square"/>
     </g>
     <g id="line2d_28">
      <g>
       <use xlink:href="#m03e33a6ea9" x="56.09" y="29.120319" style="stroke: #000000; stroke-width: 0.8"/>
      </g>
     </g>
     <g id="text_15">
      <!-- 2.0 -->
      <g transform="translate(33.186875 32.919538) scale(0.1 -0.1)">
       <use xlink:href="#DejaVuSans-32"/>
       <use xlink:href="#DejaVuSans-2e" transform="translate(63.623047 0)"/>
       <use xlink:href="#DejaVuSans-30" transform="translate(95.410156 0)"/>
      </g>
     </g>
    </g>
    <g id="text_16">
     <!-- tie-rod force [kN] -->
     <g transform="translate(18.7275 179.918281) rotate(-90) scale(0.1 -0.1)">
      <defs>
       <path id="DejaVuSans-2d" d="M 313 2009 
L 1997 2009 
L 1997 1497 
L 313 1497 
L 313 2009 
z
" transform="scale(0.015625)"/>
       <path id="DejaVuSans-72" d="M 2631 2963 
Q 2534 3019 2420 3045 
Q 2306 3072 2169 3072 
Q 1681 3072 1420 2755 
Q 1159 2438 1159 1844 
L 1159 0 
L 581 0 
L 581 3500 
L 1159 3500 
L 1159 2956 
Q 1341 3275 1631 3429 
Q 1922 3584 2338 3584 
Q 2397 3584 2469 3576 
Q 2541 3569 2628 3553 
L 2631 2963 
z
" transform="scale(0.015625)"/>
       <path id="DejaVuSans-6f" d="M 1959 3097 
Q 1497 3097 1228 2736 
Q 959 2375 959 1747 
Q 959 1119 1226 758 
Q 1494 397 1959 397 
Q 2419 397 2687 759 
Q 2956 1122 2956 1747 
Q 2956 2369 2687 2733 
Q 2419 3097 1959 3097 
z
M 1959 3584 
Q 2709 3584 3137 3096 
Q 3566 2609 3566 1747 
Q 3566 888 3137 398 
Q 2709 -91 1959 -91 
Q 1206 -91 779 398 
Q 353 888 353 1747 
Q 353 2609 779 3096 
Q 1206 3584 1959 3584 
z
" transform="scale(0.015625)"/>
       <path id="DejaVuSans-66" d="M 2375 4863 
L 2375 4384 
L 1825 4384 
Q 1516 4384 1395 4259 
Q 1275 4134 1275 3809 
L 1275 3500 
L 2222 3500 
L 2222 3053 
L 1275 3053 
L 1275 0 
L 697 0 
L 697 3053 
L 147 3053 
L 147 3500 
L 697 3500 
L 697 3744 
Q 697 4328 969 4595 
Q 1241 4863 1831 4863 
L 2375 4863 
z
" transform="scale(0.015625)"/>
       <path id="DejaVuSans-4e" d="M 628 4666 
L 1478 4666 
L 3547 763 
L 3547 4666 
L 4159 4666 
L 4159 0 
L 3309 0 
L 1241 3903 
L 1241 0 
L 628 0 
L 628 4666 
z
" transform="scale(0.015625)"/>
      </defs>
      <use xlink:href="#DejaVuSans-74"/>
      <use xlink:href="#DejaVuSans-69" transform="translate(39.208984 0)"/>
      <use xlink:href="#DejaVuSans-65" transform="translate(66.992188 0)"/>
      <use xlink:href="#DejaVuSans-2d" transform="translate(128.515625 0)"/>
      <use xlink:href="#DejaVuSans-72" transform="translate(164.599609 0)"/>
      <use xlink:href="#DejaVuSans-6f" transform="translate(203.462891 0)"/>
      <use xlink:href="#DejaVuSans-64" transform="translate(264.644531 0)"/>
      <use xlink:href="#DejaVuSans-20" transform="translate(328.121094 0)"/>
      <use xlink:href="#DejaVuSans-66" transform="translate(359.908203 0)"/>
      <use xlink:href="#DejaVuSans-6f" transform="translate(395.113281 0)"/>
      <use xlink:href="#DejaVuSans-72" transform="translate(456.294922 0)"/>
      <use xlink:href="#DejaVuSans-63" transform="translate(495.158203 0)"/>
      <use xlink:href="#DejaVuSans-65" transform="translate(550.138672 0)"/>
      <use xlink:href="#DejaVuSans-20" transform="translate(611.662109 0)"/>
      <use xlink:href="#DejaVuSans-5b" transform="translate(643.449219 0)"/>
      <use xlink:href="#DejaVuSans-6b" transform="translate(682.462891 0)"/>
      <use xlink:href="#DejaVuSans-4e" transform="translate(740.373047 0)"/>
      <use xlink:href="#DejaVuSans-5d" transform="translate(815.177734 0)"/>
     </g>
    </g>
   </g>
   <g id="line2d_29">
    <path d="M 85.776818 136.376133 
L 86.296023 135.824827 
L 86.816255 135.892108 
L 87.337512 136.365947 
L 87.859791 136.648134 
L 88.38309 136.606941 
L 89.43274 136.161785 
L 89.959086 136.14579 
L 92.074547 136.732961 
L 93.671649 136.550352 
L 94.741345 136.691853 
L 96.353273 136.936931 
L 100.148477 136.973679 
L 101.789384 136.987596 
L 107.320113 136.333103 
L 110.120008 135.691003 
L 111.810776 135.096573 
L 114.640342 133.811457 
L 116.896274 132.419813 
L 120.233634 130.048485 
L 123.48286 127.777643 
L 125.065595 126.935389 
L 126.103327 126.566578 
L 127.126303 126.403721 
L 128.133905 126.491647 
L 129.125585 126.8465 
L 130.10086 127.512622 
L 131.059306 128.547013 
L 132.000556 129.963727 
L 132.924298 131.802912 
L 133.830263 134.066647 
L 135.15539 138.237821 
L 136.858144 144.673543 
L 139.272599 154.693087 
L 141.873863 165.251379 
L 143.588075 171.101146 
L 144.558512 173.848272 
L 146.078509 176.376078 
L 146.932215 178.54451 
L 147.207164 178.309904 
L 148.003622 175.611957 
L 148.259827 175.397069 
L 149.240606 176.728575 
L 149.475386 177.336893 
L 149.933554 179.740592 
L 150.595873 185.355544 
L 151.023786 190.810672 
L 151.443897 199.871467 
L 152.485523 224.362906 
L 152.913388 230.280219 
L 153.355649 232.980866 
L 153.814695 233.942919 
L 154.289746 234.138974 
L 154.994947 234.097056 
L 155.860758 234.295833 
L 156.263996 234.038676 
L 156.651566 233.455128 
L 157.209808 232.207323 
L 157.570926 231.01558 
L 158.278444 227.488665 
L 158.7992 225.356705 
L 159.143235 224.76205 
L 159.486291 224.683236 
L 160.174764 224.876037 
L 160.348366 224.748905 
L 160.522924 224.394058 
L 160.875599 222.567125 
L 161.41562 217.061762 
L 162.160136 207.075476 
L 162.739505 196.3453 
L 164.174074 166.457426 
L 165.512066 143.071891 
L 166.221379 134.386093 
L 166.957331 128.677508 
L 167.46227 126.055902 
L 167.978262 124.255842 
L 168.505036 123.036672 
L 169.042327 122.465354 
L 169.589883 122.327022 
L 169.867435 122.432022 
L 170.429946 123.078634 
L 171.002152 124.04279 
L 171.583853 125.474074 
L 172.47381 128.485205 
L 173.692093 133.638571 
L 175.908302 143.73735 
L 176.889957 147.263053 
L 178.224776 151.258658 
L 178.898121 152.839572 
L 180.579253 155.893283 
L 181.245621 156.760269 
L 181.906017 157.166617 
L 182.882395 157.494464 
L 183.522121 157.398474 
L 184.151722 157.044519 
L 184.770383 156.377958 
L 185.972518 154.723884 
L 187.126134 152.689159 
L 187.406986 152.631272 
L 187.684819 152.965791 
L 189.028027 155.692458 
L 189.287734 157.09027 
L 189.544709 159.61044 
L 192.246512 198.903667 
L 192.961831 211.912648 
L 193.436346 217.044444 
L 194.380224 223.281069 
L 195.082956 228.028927 
L 195.547726 229.569824 
L 195.778569 229.820451 
L 196.008166 229.861642 
L 196.463317 229.567946 
L 196.91327 228.94842 
L 197.80295 227.101616 
L 199.1356 223.942349 
L 199.585567 222.380271 
L 200.040975 220.186744 
L 200.503276 217.070869 
L 201.695717 206.046376 
L 203.444581 191.414233 
L 205.209102 180.492199 
L 206.450008 175.849093 
L 206.941221 173.922215 
L 207.185951 173.80988 
L 207.916643 174.30559 
L 208.159017 174.928233 
L 208.642238 177.888714 
L 211.293217 198.449614 
L 212.265732 209.687578 
L 212.755007 212.586743 
L 213.492092 215.717657 
L 214.47951 221.98408 
L 214.974224 223.302348 
L 215.221638 223.497192 
L 215.469031 223.487905 
L 215.963668 223.014354 
L 216.458125 222.394204 
L 216.952638 222.086862 
L 217.447634 221.782759 
L 217.695459 221.403694 
L 217.943681 220.728446 
L 218.944565 216.870157 
L 219.452073 216.235965 
L 219.965146 215.737212 
L 220.742314 215.333419 
L 221.00189 214.771122 
L 221.261251 213.615669 
L 221.520214 211.634189 
L 222.036421 204.317448 
L 222.549831 192.096859 
L 223.314525 169.318922 
L 223.567978 165.663472 
L 223.820727 164.226424 
L 224.072823 161.913805 
L 224.324317 156.132867 
L 225.075614 125.297045 
L 225.325095 121.305969 
L 225.82282 117.374446 
L 226.319261 108.224893 
L 226.815843 98.515519 
L 227.064737 96.581025 
L 227.314221 96.508443 
L 227.815404 98.85577 
L 229.330971 108.034693 
L 230.082921 110.678702 
L 230.824323 112.28974 
L 231.556019 113.176272 
L 232.039288 113.412982 
L 232.518792 113.290116 
L 232.994379 113.123642 
L 233.466106 113.138927 
L 234.166401 113.418842 
L 235.768281 114.419698 
L 237.340092 115.525017 
L 237.787646 115.411658 
L 239.126651 114.83823 
L 240.015084 114.543043 
L 240.901211 114.138531 
L 241.344241 114.164868 
L 242.459078 114.650847 
L 244.05547 115.196262 
L 244.521279 115.240667 
L 244.756101 115.125407 
L 244.992326 114.864879 
L 245.469354 113.835488 
L 246.691668 111.0648 
L 246.941613 110.777206 
L 247.193451 110.732268 
L 247.702856 110.950319 
L 247.960435 110.660227 
L 248.744616 108.329395 
L 249.009795 108.216673 
L 250.089276 109.574116 
L 250.640269 109.202965 
L 250.918624 109.243449 
L 251.765192 109.79793 
L 252.920587 109.777678 
L 253.214166 109.56614 
L 253.806922 108.779422 
L 254.10617 108.911306 
L 254.407414 109.798329 
L 255.323463 114.296691 
L 255.63302 114.635093 
L 255.944728 114.594107 
L 256.258613 114.982774 
L 256.5747 116.312551 
L 257.213388 120.775654 
L 257.53586 122.013717 
L 257.860358 122.085248 
L 258.186867 121.740213 
L 258.515375 121.934082 
L 258.845867 122.977182 
L 259.512734 125.672713 
L 259.84908 126.213896 
L 260.527548 126.19107 
L 260.869645 126.497638 
L 261.559516 128.143403 
L 262.256888 129.553616 
L 263.316845 131.037201 
L 265.119865 134.601928 
L 266.594419 137.148245 
L 267.71869 138.884238 
L 270.791726 142.734845 
L 275.964812 148.337125 
L 278.337793 150.54124 
L 279.119066 151.858757 
L 281.052736 156.220738 
L 281.43651 157.741855 
L 281.819448 159.840581 
L 282.583207 166.604011 
L 284.865396 189.597347 
L 285.62519 194.018257 
L 286.384967 200.556311 
L 287.524468 212.35394 
L 287.904083 214.864788 
L 288.283519 216.311773 
L 288.662768 217.157019 
L 289.420524 218.133351 
L 289.798869 218.587553 
L 290.554307 220.106516 
L 291.684386 222.589541 
L 292.060324 223.129635 
L 292.435925 223.436956 
L 292.811236 223.511049 
L 293.186319 223.355228 
L 293.936022 222.707791 
L 294.310649 222.786615 
L 295.80865 224.668772 
L 296.558234 225.055636 
L 297.308854 225.112587 
L 299.191366 224.814705 
L 299.569607 224.67595 
L 299.948851 224.395086 
L 300.329295 223.845791 
L 300.711185 222.74259 
L 301.094635 220.699127 
L 301.866071 213.814001 
L 302.643064 206.101572 
L 303.033342 203.386628 
L 303.817392 199.582979 
L 304.211306 196.774945 
L 304.606552 192.573261 
L 305.401314 179.954251 
L 306.202289 163.99453 
L 306.6051 158.690088 
L 307.009408 156.484094 
L 307.415201 155.52381 
L 307.82247 153.901215 
L 308.23121 151.237174 
L 309.053278 143.499063 
L 309.881769 135.513397 
L 310.71676 129.429723 
L 311.558031 123.242263 
L 312.405306 119.665204 
L 313.25839 116.977405 
L 313.686997 116.258135 
L 314.547246 115.685408 
L 315.409413 115.184666 
L 315.84046 115.173132 
L 316.271114 115.481346 
L 316.701127 116.114942 
L 317.55831 118.044197 
L 318.410312 120.380478 
L 319.255655 123.255235 
L 320.093043 126.920643 
L 321.739593 135.399841 
L 324.125734 147.828869 
L 326.025589 155.853042 
L 327.48107 161.226196 
L 328.874976 165.582391 
L 329.877825 168.163711 
L 330.525392 169.447854 
L 331.46456 170.647665 
L 332.068937 171.153899 
L 332.655796 171.21292 
L 333.225193 171.040323 
L 334.046986 170.573655 
L 334.573721 170.868837 
L 335.083837 171.465432 
L 335.577818 172.5115 
L 335.819014 173.418851 
L 336.056523 174.967675 
L 336.521161 179.98027 
L 338.060134 199.711274 
L 339.534973 227.162053 
L 339.958681 230.795459 
L 340.385753 232.789703 
L 340.81621 233.891063 
L 341.460973 234.827207 
L 342.294091 235.681079 
L 342.886569 236.146193 
L 343.077899 236.146121 
L 343.453069 235.7601 
L 344.355504 234.441647 
L 345.221108 233.630014 
L 345.893272 233.068845 
L 346.385153 232.231606 
L 347.027262 230.497644 
L 348.594731 225.128356 
L 348.908494 223.484247 
L 349.224957 220.221571 
L 349.545458 214.257266 
L 351.251935 174.308022 
L 351.808925 166.995466 
L 352.576642 160.56571 
L 352.966626 157.808136 
L 353.162439 156.985439 
L 353.358641 156.665445 
L 353.555176 156.791404 
L 354.344242 158.264723 
L 354.542241 159.239138 
L 354.939255 163.193252 
L 355.738425 171.424123 
L 356.141547 175.822567 
L 357.586272 197.817916 
L 359.098948 208.247587 
L 359.981599 210.936483 
L 360.20356 211.266305 
L 360.42602 211.063834 
L 360.872758 209.234209 
L 361.097298 208.381836 
L 361.322796 208.343262 
L 361.549334 209.15815 
L 362.235499 212.659693 
L 362.698491 213.567209 
L 363.166035 213.727694 
L 363.40145 213.659704 
L 363.637955 213.394061 
L 363.875618 212.789543 
L 364.354893 210.275405 
L 364.840387 206.023154 
L 365.33342 200.207499 
L 365.835451 191.868956 
L 366.871598 171.825179 
L 367.946897 161.186921 
L 368.768032 148.295113 
L 369.318857 143.94038 
L 369.594847 141.981099 
L 370.147373 134.909001 
L 370.97616 123.013617 
L 372.077869 113.12865 
L 373.177377 99.454387 
L 373.452743 98.546501 
L 373.728371 98.472702 
L 374.280465 99.123586 
L 374.55693 99.79122 
L 375.110529 102.400052 
L 375.939671 106.97949 
L 376.765235 110.149647 
L 377.59003 112.621569 
L 378.41485 114.451986 
L 379.237892 115.746621 
L 379.78432 116.321893 
L 380.330517 116.578317 
L 380.878644 116.489573 
L 381.430592 116.069016 
L 382.268535 114.984058 
L 384.570765 111.763458 
L 385.163032 111.198628 
L 385.762404 110.708002 
L 386.674858 109.543147 
L 386.982691 109.535549 
L 387.292426 109.952804 
L 387.604106 110.965448 
L 388.23348 114.680659 
L 388.871071 118.296022 
L 389.51686 121.688487 
L 389.842801 124.919481 
L 390.832617 137.581539 
L 391.166486 139.009751 
L 391.502294 139.721011 
L 391.840026 140.842415 
L 392.864671 146.294047 
L 393.210002 146.929518 
L 393.557208 146.875953 
L 393.906277 146.616515 
L 394.257201 146.537753 
L 395.320994 147.190784 
L 395.679231 146.978159 
L 398.609169 142.633171 
L 399.736628 140.486332 
L 402.81744 135.586774 
L 403.998913 134.230769 
L 405.582213 132.812515 
L 407.158527 131.497652 
L 407.939725 130.601102 
L 410.23883 127.096142 
L 410.986405 124.702901 
L 412.08649 120.469844 
L 413.158712 117.699003 
L 413.857144 115.450945 
L 414.201331 114.678706 
L 414.879464 113.900735 
L 415.543715 113.327619 
L 416.193783 112.141661 
L 416.829375 110.922178 
L 417.141682 110.639861 
L 417.755226 110.461991 
L 418.05644 110.143797 
L 418.353951 109.480727 
L 418.937856 107.238521 
L 419.506863 105.09811 
L 419.785719 104.546023 
L 420.331956 103.814935 
L 420.599344 102.759637 
L 421.123087 98.422761 
L 421.633182 94.563297 
L 421.883569 93.793845 
L 422.131106 93.594696 
L 422.375989 93.730951 
L 422.858559 94.424004 
L 423.332716 95.472619 
L 423.79968 97.151829 
L 424.48926 100.960743 
L 425.169964 104.417833 
L 425.845284 106.648931 
L 426.963546 109.242796 
L 428.069586 111.558712 
L 429.142634 113.235375 
L 429.970955 114.226607 
L 430.576614 114.624655 
L 431.169629 114.715982 
L 432.319116 114.603535 
L 433.794816 114.366466 
L 434.337139 114.559746 
L 435.05769 115.184806 
L 435.961648 115.956994 
L 436.876597 116.419675 
L 437.247541 116.403931 
L 437.622368 116.164415 
L 438.38635 115.295389 
L 439.173664 114.133346 
L 440.408772 112.029178 
L 440.837006 111.749201 
L 441.054507 111.75697 
L 441.274346 111.919388 
L 441.496583 112.292413 
L 441.948467 113.738044 
L 442.882767 118.154148 
L 443.610761 122.451446 
L 444.362394 127.457739 
L 444.876487 129.041307 
L 445.666649 130.394224 
L 446.205869 131.537502 
L 446.479146 131.585107 
L 447.032927 130.917291 
L 447.3134 130.789514 
L 447.881432 130.858834 
L 448.168956 130.736607 
L 449.641054 129.541353 
L 450.245695 129.39275 
L 451.169201 128.862855 
L 452.112185 128.826856 
L 453.074228 128.929794 
L 453.725972 129.202482 
L 455.05384 130.193091 
L 456.070625 131.399474 
L 457.104905 132.822145 
L 459.22462 136.4303 
L 461.041694 139.467048 
L 462.153439 140.969738 
L 463.280968 142.135726 
L 464.041288 142.628899 
L 464.808419 142.903343 
L 465.582283 142.911425 
L 466.36278 142.635298 
L 467.149052 142.030835 
L 467.938691 141.109181 
L 468.729204 139.832298 
L 469.911968 137.336439 
L 471.085704 134.216385 
L 477.721457 114.740258 
L 479.073184 109.432643 
L 480.706732 99.910565 
L 481.027245 98.968155 
L 481.345946 98.546034 
L 482.916137 97.859847 
L 483.226301 98.12497 
L 483.535469 98.621927 
L 483.843838 99.476606 
L 484.765791 103.411344 
L 485.684459 107.154222 
L 486.903029 111.099493 
L 487.808633 113.119833 
L 488.706416 114.545411 
L 489.597825 115.561043 
L 490.486171 116.215598 
L 491.671426 116.810193 
L 493.760034 117.579713 
L 494.364739 117.603272 
L 494.975903 117.291089 
L 495.594512 116.502868 
L 496.221157 115.196577 
L 497.497966 112.239054 
L 497.821794 112.108221 
L 498.147418 112.802358 
L 498.474846 114.67239 
L 500.139512 130.780133 
L 500.818597 139.969197 
L 501.504707 148.949661 
L 502.195232 155.007237 
L 503.579293 164.370606 
L 504.268669 167.989657 
L 504.953866 170.221033 
L 505.633358 171.430234 
L 505.970541 171.776342 
L 506.305816 171.960863 
L 506.639059 171.931317 
L 506.970187 171.622681 
L 507.626016 170.28614 
L 508.594459 167.539063 
L 509.860105 163.339862 
L 510.172409 162.679132 
L 510.4832 162.393227 
L 510.792535 163.007801 
L 511.407039 165.350869 
L 511.712273 165.642417 
L 512.016187 166.138133 
L 512.318787 167.900679 
L 512.920077 174.885436 
L 514.108626 196.071739 
L 514.402927 197.838059 
L 514.696049 198.365488 
L 515.278073 198.473083 
L 515.56644 198.923274 
L 516.137398 201.441582 
L 516.700731 204.146508 
L 516.979656 204.171439 
L 517.256841 202.665585 
L 517.532394 200.419972 
L 517.806457 199.174798 
L 518.079271 200.374433 
L 519.163278 211.837287 
L 519.703334 214.108856 
L 520.243281 215.448594 
L 520.513152 216.452731 
L 521.857909 223.584233 
L 522.125312 223.953243 
L 522.392328 223.848429 
L 522.659123 223.265388 
L 523.996112 218.88859 
L 524.535538 217.37716 
L 525.07931 214.881709 
L 526.182534 208.281658 
L 527.025547 204.761743 
L 527.595969 200.672196 
L 529.353153 185.045688 
L 530.557789 174.751176 
L 531.16345 171.967498 
L 531.768416 169.605808 
L 532.670951 165.286083 
L 532.969829 164.593764 
L 533.267485 164.514415 
L 533.563784 165.136615 
L 534.151867 166.967508 
L 534.443497 166.837862 
L 535.021793 164.619163 
L 535.308527 164.226961 
L 535.593738 164.878627 
L 536.159905 167.521875 
L 536.441012 168.320589 
L 536.999523 168.846774 
L 537.277004 169.479839 
L 537.553363 170.874258 
L 538.10297 175.566783 
L 539.73455 192.62816 
L 540.817154 204.406732 
L 542.438243 220.144862 
L 542.706415 221.316641 
L 542.973627 221.770345 
L 543.239833 221.628759 
L 543.769182 220.472373 
L 544.816374 217.308173 
L 545.075999 216.896987 
L 545.334815 216.749283 
L 545.592839 216.856669 
L 546.106534 217.694399 
L 546.617217 218.577943 
L 547.37811 219.541007 
L 547.882474 220.845571 
L 548.886462 224.069287 
L 549.637153 225.51014 
L 550.387399 226.401395 
L 550.887979 226.689868 
L 551.389207 226.766234 
L 552.142375 226.625435 
L 552.897457 226.223725 
L 553.908667 225.678336 
L 554.670625 225.220931 
L 555.179779 224.898049 
L 555.434535 224.957612 
L 556.453431 225.753241 
L 556.962446 225.700897 
L 557.471324 225.212167 
L 558.234896 224.331998 
L 558.999196 224.111948 
L 559.25431 223.684207 
L 559.765579 221.850216 
L 560.021904 220.791813 
L 560.278663 220.209211 
L 560.535827 220.319907 
L 561.310269 221.742522 
L 561.569652 221.82612 
L 561.829743 221.7469 
L 562.352478 221.174496 
L 562.879527 220.039577 
L 563.679275 217.657937 
L 564.218194 215.338563 
L 564.761385 211.127624 
L 565.308604 206.371954 
L 565.583587 204.770623 
L 565.859414 203.885497 
L 566.413509 202.927458 
L 566.691775 201.971591 
L 567.531486 197.590702 
L 567.813066 197.248416 
L 568.095512 198.672533 
L 568.948141 206.255452 
L 569.23392 207.374181 
L 569.520243 207.826323 
L 569.806944 207.811901 
L 570.380834 207.016065 
L 571.524957 205.049146 
L 571.809123 203.900668 
L 572.374151 199.517105 
L 572.933933 195.43942 
L 573.487526 193.842555 
L 573.761754 193.218058 
L 574.034195 192.170164 
L 574.573718 188.203726 
L 575.106421 183.782851 
L 575.370416 182.880424 
L 575.632959 183.423478 
L 576.412651 187.798854 
L 576.670119 187.689086 
L 577.435965 184.404531 
L 577.689267 185.38562 
L 578.193533 190.903464 
L 578.946554 198.558158 
L 579.448662 202.736008 
L 580.713822 215.733755 
L 581.222674 218.592738 
L 581.476969 219.111754 
L 581.730989 218.731126 
L 581.984815 217.196038 
L 582.238651 214.244229 
L 583.003094 199.021356 
L 584.567288 170.693598 
L 585.103438 163.98446 
L 586.478398 154.791243 
L 586.75938 153.274032 
L 587.042366 152.459414 
L 587.614368 151.631581 
L 587.90339 150.791954 
L 589.378781 144.643799 
L 589.983082 142.865772 
L 591.215882 138.503241 
L 592.161567 136.286892 
L 593.125192 134.26056 
L 593.777498 133.453058 
L 594.770651 132.695688 
L 595.442458 132.405052 
L 596.121949 132.413512 
L 597.15544 132.697292 
L 598.205811 133.254553 
L 603.323129 136.770421 
L 604.46426 137.135553 
L 605.620553 137.316024 
L 606.791762 137.237834 
L 608.376169 136.859676 
L 610.392547 136.046048 
L 613.699267 134.606732 
L 615.388743 134.089272 
L 617.101669 133.811476 
L 618.837592 133.809499 
L 620.596077 134.088297 
L 622.376705 134.62474 
L 624.179071 135.403406 
L 626.462011 136.626473 
L 629.244553 138.434311 
L 632.535251 140.878306 
L 634.408357 142.297468 
L 635.800093 143.070684 
L 637.180729 143.696598 
L 638.551812 144.420279 
L 639.007076 145.229205 
L 640.368917 149.245487 
L 640.821858 149.802838 
L 641.726778 150.284785 
L 642.178955 151.343148 
L 642.631105 154.17176 
L 643.083378 159.768003 
L 643.988755 174.248041 
L 644.895439 183.127132 
L 645.349131 186.605814 
L 645.802822 189.048122 
L 646.25637 188.980116 
L 646.709804 186.385996 
L 647.616943 176.622962 
L 648.071051 174.39877 
L 648.525736 175.931511 
L 649.437171 181.847618 
L 649.893983 182.209535 
L 650.351549 179.249422 
L 650.809883 173.358267 
L 651.72897 159.257517 
L 652.18977 155.702493 
L 652.651435 155.448489 
L 653.113981 156.487234 
L 653.577422 156.609702 
L 654.041774 154.783623 
L 655.440449 144.100188 
L 655.908601 142.482634 
L 656.847873 140.997039 
L 657.319018 139.386729 
L 658.738611 132.616427 
L 659.213894 131.486951 
L 660.646094 129.455786 
L 661.606237 127.824976 
L 662.087924 127.358582 
L 662.570692 127.218168 
L 663.539477 127.441959 
L 665.490099 128.245078 
L 665.980484 128.919393 
L 666.471968 130.035094 
L 667.458228 132.99503 
L 668.448873 136.050866 
L 668.94582 136.767797 
L 669.942801 137.06388 
L 670.442803 137.596438 
L 671.948912 140.3593 
L 672.452998 140.715118 
L 673.971446 141.386656 
L 674.479661 141.680216 
L 674.988909 141.802295 
L 675.499189 141.784756 
L 676.010501 141.89944 
L 677.03622 142.38902 
L 678.582516 142.594165 
L 679.100001 141.819979 
L 679.513182 140.840305 
L 679.513182 140.840305 
" clip-path="url(#p3f6cad92d9)" style="fill: none; stroke: #2ca02c; stroke-width: 0.9; stroke-linecap: square"/>
   </g>
   <g id="line2d_30">
    <path d="M 85.776818 136.376133 
L 86.296023 135.824794 
L 86.816255 135.892017 
L 87.337512 136.365962 
L 87.859791 136.648185 
L 88.38309 136.606966 
L 89.43274 136.161756 
L 89.959086 136.145757 
L 92.074547 136.73291 
L 93.671649 136.550312 
L 94.741345 136.691729 
L 96.353273 136.936552 
L 100.148477 136.973015 
L 101.789384 136.986879 
L 107.320113 136.333095 
L 110.120008 135.690699 
L 111.810776 135.094881 
L 114.640342 133.80452 
L 116.896274 132.407767 
L 120.233634 130.031977 
L 123.48286 127.763944 
L 125.065595 126.927004 
L 126.103327 126.563582 
L 127.126303 126.407711 
L 128.133905 126.503962 
L 129.125585 126.86751 
L 130.10086 127.541363 
L 131.059306 128.580578 
L 132.000556 129.996925 
L 132.924298 131.829052 
L 133.830263 134.079587 
L 135.15539 138.231557 
L 136.858144 144.686359 
L 141.873863 164.520858 
L 143.254886 168.495209 
L 144.239894 170.774661 
L 144.872261 171.584225 
L 145.784251 172.414286 
L 146.367911 173.343538 
L 146.652472 173.879749 
L 146.932215 174.132277 
L 147.207164 173.89039 
L 148.003622 171.858807 
L 148.259827 171.692987 
L 149.475386 172.83178 
L 149.933554 174.228347 
L 151.443897 180.681642 
L 151.652091 180.633932 
L 151.859698 179.591531 
L 153.132559 169.033332 
L 153.814695 165.780206 
L 154.764457 162.467272 
L 156.263996 158.115421 
L 157.026361 156.615871 
L 157.570926 156.065813 
L 157.926724 155.940415 
L 158.626404 156.027282 
L 159.143235 156.01352 
L 160.348366 155.754732 
L 160.698613 155.901508 
L 161.054022 156.269737 
L 161.598972 157.182375 
L 162.160136 158.437931 
L 162.937021 160.231573 
L 163.136864 160.30688 
L 163.339119 160.106685 
L 163.751226 158.946761 
L 164.174074 156.775673 
L 164.608265 153.103618 
L 166.709108 130.462198 
L 167.46227 125.883195 
L 168.240318 122.909335 
L 168.772383 121.719373 
L 169.314837 121.193082 
L 169.589883 121.108804 
L 169.867435 121.183813 
L 170.429946 121.876678 
L 171.002152 122.98037 
L 171.583853 124.629269 
L 172.47381 128.022792 
L 173.692093 133.555299 
L 175.585281 142.362363 
L 176.560652 145.967944 
L 177.889073 149.698031 
L 178.898121 151.943146 
L 180.913089 155.271464 
L 181.576657 155.899325 
L 182.559037 156.414496 
L 183.203466 156.542452 
L 183.838242 156.425484 
L 184.462464 156.034914 
L 185.67651 154.726548 
L 186.555389 153.300423 
L 187.126134 152.426811 
L 187.406986 152.380262 
L 187.684819 152.707978 
L 189.028027 155.302171 
L 189.287734 156.602246 
L 189.799104 162.147001 
L 190.548823 171.353513 
L 191.039696 174.429476 
L 191.766528 177.011101 
L 192.006894 177.509408 
L 192.246512 177.520529 
L 192.485482 176.783778 
L 192.961831 173.611012 
L 193.672952 168.603726 
L 194.380224 165.208237 
L 195.778569 159.951699 
L 196.463317 158.070228 
L 197.136657 156.749551 
L 197.80295 155.947029 
L 198.245867 155.71352 
L 198.912185 155.68782 
L 199.585567 155.947787 
L 200.271177 156.468902 
L 200.973683 157.313019 
L 201.940903 158.978331 
L 202.437394 160.409912 
L 203.697489 164.651713 
L 204.203097 165.723224 
L 204.707295 166.221092 
L 205.458907 166.740983 
L 205.956069 167.048533 
L 206.203417 166.880521 
L 206.941221 165.884952 
L 207.430111 166.28201 
L 207.916643 166.808863 
L 208.159017 167.304472 
L 209.364676 171.277331 
L 209.845811 171.970066 
L 210.327309 172.184199 
L 210.809648 172.005433 
L 211.293217 171.530933 
L 211.53559 171.013145 
L 212.021812 169.21029 
L 213.000291 165.254886 
L 213.985319 162.374855 
L 215.221638 159.212084 
L 215.963668 157.964616 
L 216.70535 157.231894 
L 217.447634 156.746342 
L 217.943681 156.601224 
L 218.442123 156.732119 
L 219.452073 157.193136 
L 219.965146 157.427766 
L 220.482759 158.327673 
L 221.261251 160.42935 
L 222.036421 163.284119 
L 222.293493 164.25658 
L 222.549831 164.777273 
L 222.805443 164.344069 
L 223.567978 159.284546 
L 223.820727 159.049699 
L 224.072823 157.995117 
L 224.324317 153.959794 
L 225.325095 121.663361 
L 225.82282 117.290139 
L 226.319261 106.849074 
L 227.064737 86.204517 
L 227.815404 73.81286 
L 229.078568 53.503907 
L 229.582627 48.79954 
L 230.082921 46.002629 
L 230.578402 44.510383 
L 231.313048 43.490758 
L 233.230724 41.128434 
L 234.166401 40.667511 
L 234.858245 40.539504 
L 235.542048 40.627928 
L 235.993808 40.879687 
L 236.667797 41.727012 
L 237.340092 42.54497 
L 238.457996 43.47009 
L 239.126651 43.736111 
L 239.571256 43.951906 
L 240.015084 44.762116 
L 240.679793 46.119322 
L 241.788392 47.675115 
L 242.459078 49.225002 
L 243.594228 52.470703 
L 244.05547 53.414453 
L 244.287766 54.236673 
L 244.521279 55.694724 
L 244.992326 61.74433 
L 245.710304 73.890556 
L 246.197375 78.943797 
L 246.941613 85.808498 
L 247.702856 94.226497 
L 247.960435 95.016109 
L 248.219928 94.182157 
L 248.744616 91.150396 
L 249.009795 90.958066 
L 250.089276 95.172503 
L 250.640269 94.423952 
L 250.918624 94.578649 
L 251.765192 96.471939 
L 252.339085 96.94088 
L 252.920587 97.266204 
L 253.214166 96.947904 
L 253.806922 95.147337 
L 254.10617 95.295828 
L 254.407414 97.231603 
L 255.323463 106.741349 
L 255.63302 107.737257 
L 255.944728 108.088418 
L 256.258613 109.082048 
L 256.5747 111.422348 
L 257.213388 118.103614 
L 257.53586 119.908736 
L 257.860358 120.211926 
L 258.186867 119.977987 
L 258.515375 120.346624 
L 259.178326 123.435757 
L 259.512734 124.861944 
L 259.84908 125.517706 
L 260.527548 125.580053 
L 260.869645 125.942661 
L 262.608364 129.776196 
L 263.316845 130.882218 
L 265.119865 134.577666 
L 268.476815 139.868018 
L 270.013405 141.788734 
L 274.765949 146.835002 
L 277.551518 149.534525 
L 278.337793 150.190613 
L 279.119066 151.437706 
L 281.052736 155.385389 
L 281.43651 156.716665 
L 281.819448 158.518067 
L 282.583207 163.978825 
L 283.344911 169.184938 
L 284.105418 172.561628 
L 284.485444 173.443912 
L 284.865396 173.30438 
L 285.62519 171.741246 
L 286.384967 169.839759 
L 288.283519 163.469975 
L 289.041797 162.123366 
L 289.798869 161.559248 
L 291.308083 161.009681 
L 294.685148 159.90556 
L 295.80865 159.022993 
L 297.308854 157.820562 
L 298.813949 156.943596 
L 299.948851 156.489405 
L 300.711185 156.49695 
L 301.094635 156.676106 
L 301.47961 157.00721 
L 302.253938 158.123315 
L 304.606552 162.628776 
L 305.003191 162.693344 
L 305.401314 161.851641 
L 305.80101 159.658802 
L 306.6051 153.72699 
L 307.009408 152.70095 
L 307.415201 152.414406 
L 307.82247 151.507532 
L 308.23121 149.605328 
L 308.641458 146.831996 
L 309.881769 135.537438 
L 310.71676 129.537132 
L 311.558031 123.162228 
L 312.831132 117.183664 
L 313.25839 115.619295 
L 313.686997 114.526224 
L 314.116721 113.886364 
L 315.409413 112.762524 
L 315.84046 112.786238 
L 316.271114 113.244074 
L 316.701127 114.121206 
L 317.55831 116.648719 
L 318.833901 121.099571 
L 319.675417 124.701776 
L 321.739593 135.400157 
L 324.125734 147.811804 
L 326.025589 155.623528 
L 327.122825 159.478969 
L 328.532474 163.52813 
L 329.5477 165.900135 
L 330.525392 167.512965 
L 331.46456 168.390962 
L 332.068937 168.739284 
L 332.655796 168.735729 
L 333.5034 168.382791 
L 334.046986 168.12065 
L 334.573721 168.319285 
L 335.083837 168.73903 
L 335.577818 169.465269 
L 335.819014 170.090639 
L 336.290511 172.663287 
L 336.973232 177.005044 
L 337.414414 178.357631 
L 337.846657 179.035701 
L 338.060134 179.056144 
L 338.272265 178.691026 
L 338.483351 177.79283 
L 338.903771 174.500542 
L 339.534973 169.764627 
L 340.171769 166.840357 
L 340.81621 164.777544 
L 341.460973 163.400931 
L 342.090005 162.680615 
L 343.077899 161.931385 
L 343.819541 161.660589 
L 345.221108 161.18919 
L 345.72702 160.754404 
L 346.385153 159.784084 
L 347.814162 157.425071 
L 348.282389 156.974146 
L 348.751357 156.842297 
L 349.066305 156.963359 
L 349.384619 157.338782 
L 349.707637 158.078094 
L 350.37281 159.919868 
L 350.543966 160.094777 
L 350.717345 160.10224 
L 350.893069 159.934148 
L 351.251935 159.122281 
L 351.808925 157.754735 
L 352.382834 156.556704 
L 353.162439 154.238679 
L 353.358641 154.211346 
L 353.94914 155.272487 
L 354.344242 156.108802 
L 354.542241 156.956348 
L 355.138334 161.952471 
L 355.738425 165.590928 
L 356.141547 167.743355 
L 356.753053 171.42689 
L 356.959234 171.564554 
L 357.166772 171.102744 
L 358.012105 167.321994 
L 358.879777 163.828169 
L 359.53917 162.114176 
L 360.20356 160.978501 
L 360.649048 160.533115 
L 361.776956 159.99345 
L 362.698491 158.892166 
L 363.40145 158.175456 
L 363.875618 157.930537 
L 364.354893 157.979864 
L 364.840387 158.423005 
L 365.835451 159.974319 
L 366.090315 160.029502 
L 366.347965 159.669725 
L 366.871598 158.398246 
L 367.675318 157.253648 
L 367.946897 155.820359 
L 368.493478 150.087935 
L 369.043207 145.03048 
L 369.594847 141.755243 
L 369.871055 138.949202 
L 371.252092 120.368498 
L 371.802956 115.320031 
L 372.352585 107.569495 
L 373.452743 87.587492 
L 374.280465 78.323385 
L 375.663796 58.806155 
L 376.215066 55.285746 
L 377.315122 49.605427 
L 377.86495 48.054537 
L 378.41485 47.336437 
L 378.689614 47.219432 
L 379.237892 47.330357 
L 379.78432 47.624626 
L 380.057299 48.005287 
L 380.330517 48.732488 
L 380.878644 51.26408 
L 382.268535 59.946146 
L 383.406781 64.957982 
L 383.985429 68.550884 
L 384.570765 73.398092 
L 385.46183 81.834459 
L 385.762404 83.499357 
L 386.064752 83.894308 
L 386.368891 83.687104 
L 386.674858 84.061525 
L 386.982691 85.900984 
L 387.292426 89.389906 
L 388.871071 113.045154 
L 389.51686 118.852571 
L 390.170756 128.804281 
L 390.500701 134.144466 
L 390.832617 137.635024 
L 391.166486 139.097267 
L 391.502294 139.794551 
L 391.840026 140.899706 
L 392.864671 146.15089 
L 393.210002 146.693865 
L 393.557208 146.579619 
L 393.906277 146.285215 
L 394.257201 146.177399 
L 395.320994 146.734653 
L 395.679231 146.523746 
L 398.609169 142.447992 
L 399.736628 140.39843 
L 402.81744 135.589502 
L 403.998913 134.22866 
L 405.582213 132.79734 
L 407.549864 131.090653 
L 409.481101 128.347975 
L 410.23883 127.047501 
L 410.986405 124.624169 
L 412.08649 120.287513 
L 413.158712 117.391662 
L 413.857144 114.99806 
L 414.201331 114.158803 
L 414.879464 113.292444 
L 415.543715 112.648978 
L 416.193783 111.32924 
L 416.829375 109.946592 
L 417.141682 109.612787 
L 417.755226 109.379358 
L 418.05644 109.003312 
L 418.353951 108.228923 
L 418.937856 105.561345 
L 419.506863 102.864077 
L 420.060757 101.641467 
L 420.331956 100.999907 
L 420.599344 99.536366 
L 420.863008 96.875639 
L 421.883569 82.700127 
L 423.79968 65.176467 
L 425.169964 47.378626 
L 425.62065 44.462574 
L 426.293421 42.416647 
L 427.186273 39.771201 
L 427.85038 38.916425 
L 428.50368 38.416383 
L 429.142634 38.270057 
L 429.766232 38.362793 
L 430.97338 38.837535 
L 432.130564 39.605586 
L 432.878795 40.322105 
L 433.794816 41.101401 
L 434.337139 41.719385 
L 434.877558 42.780597 
L 436.325896 46.45936 
L 437.06163 48.453411 
L 437.434423 50.464059 
L 438.776771 61.262421 
L 439.37472 67.535571 
L 443.365476 117.495159 
L 444.362394 126.521865 
L 444.876487 128.494661 
L 445.666649 130.109658 
L 446.205869 131.364223 
L 446.479146 131.432033 
L 447.032927 130.764879 
L 447.3134 130.639478 
L 447.881432 130.718383 
L 448.168956 130.594259 
L 449.641054 129.347988 
L 450.245695 129.185669 
L 451.169201 128.622097 
L 452.112185 128.574848 
L 453.074228 128.679974 
L 453.725972 128.966935 
L 455.05384 130.012991 
L 456.070625 131.27754 
L 457.104905 132.755123 
L 459.584403 137.074131 
L 461.041694 139.458139 
L 462.153439 140.928618 
L 463.280968 142.051807 
L 464.041288 142.518246 
L 464.808419 142.77233 
L 465.582283 142.770756 
L 466.36278 142.498781 
L 467.149052 141.919259 
L 467.938691 141.035193 
L 468.729204 139.795067 
L 469.518436 138.236035 
L 470.695794 135.300155 
L 472.628105 129.640389 
L 475.604945 121.013156 
L 477.376267 115.514264 
L 478.739385 109.905881 
L 479.404442 105.558085 
L 481.345946 90.068263 
L 481.978348 86.805091 
L 482.604836 81.916537 
L 483.226301 76.166367 
L 484.765791 59.918291 
L 485.989983 49.835532 
L 486.599407 46.526057 
L 487.205794 45.007678 
L 487.808633 44.131048 
L 488.407974 43.554121 
L 489.004128 43.381185 
L 489.597825 43.644146 
L 490.190167 44.230714 
L 491.078395 45.460026 
L 492.265586 47.14076 
L 493.160101 48.045625 
L 493.760034 48.280442 
L 494.061666 48.323833 
L 494.364739 48.521452 
L 494.669448 49.260042 
L 494.975903 50.926508 
L 495.284218 53.632091 
L 495.906833 61.888303 
L 497.175937 80.032081 
L 497.821794 90.034279 
L 499.802847 126.456731 
L 500.478094 134.779745 
L 501.160905 145.146051 
L 501.849604 152.208233 
L 502.541286 156.613691 
L 503.579293 161.858024 
L 504.268669 164.337946 
L 504.953866 165.74132 
L 505.633358 166.497621 
L 506.305816 166.890404 
L 506.639059 166.913095 
L 506.970187 166.750888 
L 507.626016 165.906602 
L 508.594459 164.012836 
L 509.860105 160.916919 
L 510.172409 160.424686 
L 510.4832 160.231544 
L 510.792535 160.773359 
L 511.407039 162.692725 
L 511.712273 162.901472 
L 512.016187 163.274381 
L 512.318787 164.637324 
L 512.920077 169.607236 
L 513.516571 175.944805 
L 513.813171 177.639021 
L 514.108626 177.800861 
L 514.402927 177.090535 
L 515.56644 173.413935 
L 516.700731 171.145556 
L 517.256841 170.222966 
L 517.806457 169.738101 
L 518.351142 169.803239 
L 518.622321 169.491234 
L 519.163278 168.17907 
L 522.392328 159.061288 
L 522.925878 158.35405 
L 523.46 158.090091 
L 523.996112 158.075162 
L 524.535538 158.232674 
L 525.07931 158.565029 
L 525.90462 159.356984 
L 527.025547 160.364541 
L 529.055318 162.169277 
L 529.953498 162.526639 
L 530.860586 162.595914 
L 531.466135 162.793005 
L 531.768416 162.619833 
L 532.37099 161.531074 
L 532.670951 161.001298 
L 532.969829 160.800383 
L 533.267485 161.002179 
L 533.563784 161.69873 
L 534.151867 163.425583 
L 534.443497 163.434044 
L 535.021793 161.851678 
L 535.308527 161.595838 
L 535.593738 162.156089 
L 536.159905 164.216988 
L 536.441012 164.772564 
L 536.999523 165.015944 
L 537.277004 165.400559 
L 537.553363 166.310014 
L 538.649066 171.612258 
L 539.192608 172.898189 
L 539.46372 173.123043 
L 539.73455 173.024 
L 540.005217 172.547892 
L 540.54646 170.575925 
L 541.899459 164.972857 
L 542.438243 163.652669 
L 542.973627 162.860841 
L 543.505015 162.598135 
L 544.03236 162.725415 
L 544.816374 163.286786 
L 545.850075 164.005018 
L 546.36224 164.126583 
L 546.871495 164.046458 
L 547.37811 163.74939 
L 547.882474 163.20612 
L 548.886462 161.596496 
L 550.137283 159.657213 
L 551.138506 158.400402 
L 551.891137 157.843672 
L 552.897457 157.501963 
L 553.908667 157.366599 
L 554.41635 157.463243 
L 555.179779 157.89914 
L 555.944087 158.366873 
L 557.21688 158.686857 
L 558.999196 159.12191 
L 560.021904 159.208707 
L 560.535827 159.260366 
L 561.051539 159.055768 
L 562.879527 157.902979 
L 563.411489 157.949273 
L 563.948187 158.306535 
L 564.489268 158.984693 
L 565.034516 160.081158 
L 566.136056 162.562535 
L 566.970855 163.711572 
L 567.813066 164.349432 
L 568.095512 164.512388 
L 568.378847 164.511099 
L 569.520243 163.70248 
L 570.093868 163.88511 
L 570.667627 164.460502 
L 571.524957 165.877353 
L 573.211557 169.500968 
L 573.761754 170.713132 
L 574.034195 171.085301 
L 574.304841 171.180588 
L 574.573718 170.967565 
L 575.106421 170.125374 
L 575.370416 170.055406 
L 575.632959 170.532238 
L 576.154007 172.071548 
L 576.412651 172.395598 
L 576.670119 172.226802 
L 577.435965 170.67169 
L 577.689267 170.976372 
L 578.193533 172.300085 
L 578.444813 172.505777 
L 578.69576 172.274684 
L 579.197429 170.949512 
L 579.700464 169.002808 
L 581.222674 162.008965 
L 581.730989 160.427291 
L 582.238651 159.584766 
L 582.492778 159.568004 
L 583.003094 160.21547 
L 583.517891 160.907861 
L 583.777537 161.052267 
L 584.038918 160.852329 
L 584.302146 160.191044 
L 585.37446 156.438532 
L 585.647454 155.879835 
L 585.922436 154.993045 
L 586.75938 151.23691 
L 587.042366 150.69159 
L 587.614368 150.181185 
L 587.90339 149.523745 
L 589.378781 144.215326 
L 589.983082 142.600855 
L 591.529109 137.653316 
L 593.125192 134.264768 
L 593.777498 133.444987 
L 594.770651 132.665086 
L 595.442458 132.361576 
L 596.121949 132.363704 
L 597.15544 132.648428 
L 598.205811 133.215925 
L 602.946165 136.587199 
L 604.082186 137.037539 
L 605.233452 137.280625 
L 606.399717 137.28804 
L 607.977651 136.983043 
L 609.581271 136.396549 
L 612.033708 135.299863 
L 614.119413 134.451149 
L 615.814794 133.982817 
L 617.533511 133.767745 
L 619.275115 133.834346 
L 621.039174 134.188264 
L 622.825274 134.786906 
L 625.088285 135.861536 
L 627.847484 137.491695 
L 630.652459 139.431413 
L 635.337488 142.813492 
L 638.551812 144.350666 
L 639.007076 145.141705 
L 640.368917 149.019696 
L 640.821858 149.530065 
L 641.726778 149.928686 
L 642.178955 150.898682 
L 642.631105 153.50423 
L 643.083378 158.520163 
L 643.988755 169.675525 
L 644.441945 172.163306 
L 644.895439 173.158519 
L 645.349131 173.310464 
L 645.802822 172.572222 
L 646.25637 170.952835 
L 647.163261 166.443399 
L 647.616943 163.951578 
L 648.071051 162.847964 
L 648.525736 163.593266 
L 649.437171 166.318944 
L 649.893983 166.723038 
L 650.351549 165.921563 
L 650.809883 163.568717 
L 651.72897 155.490057 
L 652.18977 153.08555 
L 652.651435 153.1163 
L 653.113981 154.147714 
L 653.577422 154.403924 
L 654.041774 153.009032 
L 655.440449 143.724064 
L 655.908601 142.240511 
L 656.847873 140.87005 
L 657.319018 139.3226 
L 658.738611 132.643505 
L 659.213894 131.50131 
L 660.646094 129.392312 
L 661.606237 127.678975 
L 662.087924 127.17296 
L 662.570692 127.003861 
L 663.539477 127.201667 
L 665.490099 128.017038 
L 665.980484 128.719401 
L 666.471968 129.878932 
L 668.448873 136.046718 
L 668.94582 136.769575 
L 669.942801 137.06622 
L 670.442803 137.599068 
L 671.948912 140.343276 
L 672.452998 140.690206 
L 673.971446 141.339226 
L 674.479661 141.624089 
L 674.988909 141.739567 
L 675.499189 141.718068 
L 676.010501 141.827288 
L 677.03622 142.301122 
L 678.582516 142.494123 
L 679.100001 141.734769 
L 679.513182 140.774738 
L 679.513182 140.774738 
" clip-path="url(#p3f6cad92d9)" style="fill: none; stroke: #d62728; stroke-opacity: 0.8; stroke-width: 0.9; stroke-linecap: square"/>
   </g>
   <g id="patch_3">
    <path d="M 56.09 246.04 
L 56.09 28.37625 
" style="fill: none; stroke: #000000; stroke-width: 0.8; stroke-linejoin: miter; stroke-linecap: square"/>
   </g>
   <g id="patch_4">
    <path d="M 709.2 246.04 
L 709.2 28.37625 
" style="fill: none; stroke: #000000; stroke-width: 0.8; stroke-linejoin: miter; stroke-linecap: square"/>
   </g>
   <g id="patch_5">
    <path d="M 56.09 246.04 
L 709.2 246.04 
" style="fill: none; stroke: #000000; stroke-width: 0.8; stroke-linejoin: miter; stroke-linecap: square"/>
   </g>
   <g id="patch_6">
    <path d="M 56.09 28.37625 
L 709.2 28.37625 
" style="fill: none; stroke: #000000; stroke-width: 0.8; stroke-linejoin: miter; stroke-linecap: square"/>
   </g>
   <g id="text_17">
    <!-- steering-link loads over one Gelleråsen Arena lap -->
    <g transform="translate(234.435625 22.37625) scale(0.12 -0.12)">
     <defs>
      <path id="DejaVuSans-67" d="M 2906 1791 
Q 2906 2416 2648 2759 
Q 2391 3103 1925 3103 
Q 1463 3103 1205 2759 
Q 947 2416 947 1791 
Q 947 1169 1205 825 
Q 1463 481 1925 481 
Q 2391 481 2648 825 
Q 2906 1169 2906 1791 
z
M 3481 434 
Q 3481 -459 3084 -895 
Q 2688 -1331 1869 -1331 
Q 1566 -1331 1297 -1286 
Q 1028 -1241 775 -1147 
L 775 -588 
Q 1028 -725 1275 -790 
Q 1522 -856 1778 -856 
Q 2344 -856 2625 -561 
Q 2906 -266 2906 331 
L 2906 616 
Q 2728 306 2450 153 
Q 2172 0 1784 0 
Q 1141 0 747 490 
Q 353 981 353 1791 
Q 353 2603 747 3093 
Q 1141 3584 1784 3584 
Q 2172 3584 2450 3431 
Q 2728 3278 2906 2969 
L 2906 3500 
L 3481 3500 
L 3481 434 
z
" transform="scale(0.015625)"/>
      <path id="DejaVuSans-6c" d="M 603 4863 
L 1178 4863 
L 1178 0 
L 603 0 
L 603 4863 
z
" transform="scale(0.015625)"/>
      <path id="DejaVuSans-76" d="M 191 3500 
L 800 3500 
L 1894 563 
L 2988 3500 
L 3597 3500 
L 2284 0 
L 1503 0 
L 191 3500 
z
" transform="scale(0.015625)"/>
      <path id="DejaVuSans-47" d="M 3809 666 
L 3809 1919 
L 2778 1919 
L 2778 2438 
L 4434 2438 
L 4434 434 
Q 4069 175 3628 42 
Q 3188 -91 2688 -91 
Q 1594 -91 976 548 
Q 359 1188 359 2328 
Q 359 3472 976 4111 
Q 1594 4750 2688 4750 
Q 3144 4750 3555 4637 
Q 3966 4525 4313 4306 
L 4313 3634 
Q 3963 3931 3569 4081 
Q 3175 4231 2741 4231 
Q 1884 4231 1454 3753 
Q 1025 3275 1025 2328 
Q 1025 1384 1454 906 
Q 1884 428 2741 428 
Q 3075 428 3337 486 
Q 3600 544 3809 666 
z
" transform="scale(0.015625)"/>
      <path id="DejaVuSans-e5" d="M 2194 1759 
Q 1497 1759 1228 1600 
Q 959 1441 959 1056 
Q 959 750 1161 570 
Q 1363 391 1709 391 
Q 2188 391 2477 730 
Q 2766 1069 2766 1631 
L 2766 1759 
L 2194 1759 
z
M 3341 1997 
L 3341 0 
L 2766 0 
L 2766 531 
Q 2569 213 2275 61 
Q 1981 -91 1556 -91 
Q 1019 -91 701 211 
Q 384 513 384 1019 
Q 384 1609 779 1909 
Q 1175 2209 1959 2209 
L 2766 2209 
L 2766 2266 
Q 2766 2663 2505 2880 
Q 2244 3097 1772 3097 
Q 1472 3097 1187 3025 
Q 903 2953 641 2809 
L 641 3341 
Q 956 3463 1253 3523 
Q 1550 3584 1831 3584 
Q 2591 3584 2966 3190 
Q 3341 2797 3341 1997 
z
M 2331 4763 
Q 2331 4959 2193 5096 
Q 2056 5234 1856 5234 
Q 1653 5234 1517 5098 
Q 1381 4963 1381 4763 
Q 1381 4559 1517 4423 
Q 1653 4288 1856 4288 
Q 2056 4288 2193 4425 
Q 2331 4563 2331 4763 
z
M 2712 4763 
Q 2712 4403 2463 4153 
Q 2215 3903 1856 3903 
Q 1497 3903 1248 4153 
Q 1000 4403 1000 4763 
Q 1000 5122 1248 5370 
Q 1497 5619 1856 5619 
Q 2215 5619 2463 5370 
Q 2712 5122 2712 4763 
z
" transform="scale(0.015625)"/>
      <path id="DejaVuSans-41" d="M 2188 4044 
L 1331 1722 
L 3047 1722 
L 2188 4044 
z
M 1831 4666 
L 2547 4666 
L 4325 0 
L 3669 0 
L 3244 1197 
L 1141 1197 
L 716 0 
L 50 0 
L 1831 4666 
z
" transform="scale(0.015625)"/>
      <path id="DejaVuSans-70" d="M 1159 525 
L 1159 -1331 
L 581 -1331 
L 581 3500 
L 1159 3500 
L 1159 2969 
Q 1341 3281 1617 3432 
Q 1894 3584 2278 3584 
Q 2916 3584 3314 3078 
Q 3713 2572 3713 1747 
Q 3713 922 3314 415 
Q 2916 -91 2278 -91 
Q 1894 -91 1617 61 
Q 1341 213 1159 525 
z
M 3116 1747 
Q 3116 2381 2855 2742 
Q 2594 3103 2138 3103 
Q 1681 3103 1420 2742 
Q 1159 2381 1159 1747 
Q 1159 1113 1420 752 
Q 1681 391 2138 391 
Q 2594 391 2855 752 
Q 3116 1113 3116 1747 
z
" transform="scale(0.015625)"/>
     </defs>
     <use xlink:href="#DejaVuSans-73"/>
     <use xlink:href="#DejaVuSans-74" transform="translate(52.099609 0)"/>
     <use xlink:href="#DejaVuSans-65" transform="translate(91.308594 0)"/>
     <use xlink:href="#DejaVuSans-65" transform="translate(152.832031 0)"/>
     <use xlink:href="#DejaVuSans-72" transform="translate(214.355469 0)"/>
     <use xlink:href="#DejaVuSans-69" transform="translate(255.46875 0)"/>
     <use xlink:href="#DejaVuSans-6e" transform="translate(283.251953 0)"/>
     <use xlink:href="#DejaVuSans-67" transform="translate(346.630859 0)"/>
     <use xlink:href="#DejaVuSans-2d" transform="translate(410.107422 0)"/>
     <use xlink:href="#DejaVuSans-6c" transform="translate(446.191406 0)"/>
     <use xlink:href="#DejaVuSans-69" transform="translate(473.974609 0)"/>
     <use xlink:href="#DejaVuSans-6e" transform="translate(501.757812 0)"/>
     <use xlink:href="#DejaVuSans-6b" transform="translate(565.136719 0)"/>
     <use xlink:href="#DejaVuSans-20" transform="translate(623.046875 0)"/>
     <use xlink:href="#DejaVuSans-6c" transform="translate(654.833984 0)"/>
     <use xlink:href="#DejaVuSans-6f" transform="translate(682.617188 0)"/>
     <use xlink:href="#DejaVuSans-61" transform="translate(743.798828 0)"/>
     <use xlink:href="#DejaVuSans-64" transform="translate(805.078125 0)"/>
     <use xlink:href="#DejaVuSans-73" transform="translate(868.554688 0)"/>
     <use xlink:href="#DejaVuSans-20" transform="translate(920.654297 0)"/>
     <use xlink:href="#DejaVuSans-6f" transform="translate(952.441406 0)"/>
     <use xlink:href="#DejaVuSans-76" transform="translate(1013.623047 0)"/>
     <use xlink:href="#DejaVuSans-65" transform="translate(1072.802734 0)"/>
     <use xlink:href="#DejaVuSans-72" transform="translate(1134.326172 0)"/>
     <use xlink:href="#DejaVuSans-20" transform="translate(1175.439453 0)"/>
     <use xlink:href="#DejaVuSans-6f" transform="translate(1207.226562 0)"/>
     <use xlink:href="#DejaVuSans-6e" transform="translate(1268.408203 0)"/>
     <use xlink:href="#DejaVuSans-65" transform="translate(1331.787109 0)"/>
     <use xlink:href="#DejaVuSans-20" transform="translate(1393.310547 0)"/>
     <use xlink:href="#DejaVuSans-47" transform="translate(1425.097656 0)"/>
     <use xlink:href="#DejaVuSans-65" transform="translate(1502.587891 0)"/>
     <use xlink:href="#DejaVuSans-6c" transform="translate(1564.111328 0)"/>
     <use xlink:href="#DejaVuSans-6c" transform="translate(1591.894531 0)"/>
     <use xlink:href="#DejaVuSans-65" transform="translate(1619.677734 0)"/>
     <use xlink:href="#DejaVuSans-72" transform="translate(1681.201172 0)"/>
     <use xlink:href="#DejaVuSans-e5" transform="translate(1722.314453 0)"/>
     <use xlink:href="#DejaVuSans-73" transform="translate(1783.59375 0)"/>
     <use xlink:href="#DejaVuSans-65" transform="translate(1835.693359 0)"/>
     <use xlink:href="#DejaVuSans-6e" transform="translate(1897.216797 0)"/>
     <use xlink:href="#DejaVuSans-20" transform="translate(1960.595703 0)"/>
     <use xlink:href="#DejaVuSans-41" transform="translate(1992.382812 0)"/>
     <use xlink:href="#DejaVuSans-72" transform="translate(2060.791016 0)"/>
     <use xlink:href="#DejaVuSans-65" transform="translate(2099.654297 0)"/>
     <use xlink:href="#DejaVuSans-6e" transform="translate(2161.177734 0)"/>
     <use xlink:href="#DejaVuSans-61" transform="translate(2224.556641 0)"/>
     <use xlink:href="#DejaVuSans-20" transform="translate(2285.835938 0)"/>
     <use xlink:href="#DejaVuSans-6c" transform="translate(2317.623047 0)"/>
     <use xlink:href="#DejaVuSans-61" transform="translate(2345.40625 0)"/>
     <use xlink:href="#DejaVuSans-70" transform="translate(2406.685547 0)"/>
    </g>
   </g>
   <g id="legend_1">
    <g id="patch_7">
     <path d="M 630.755 58.26125 
L 703.6 58.26125 
Q 705.2 58.26125 705.2 56.66125 
L 705.2 33.97625 
Q 705.2 32.37625 703.6 32.37625 
L 630.755 32.37625 
Q 629.155 32.37625 629.155 33.97625 
L 629.155 56.66125 
Q 629.155 58.26125 630.755 58.26125 
z
" style="fill: #ffffff; opacity: 0.8; stroke: #cccccc; stroke-linejoin: miter"/>
    </g>
    <g id="line2d_31">
     <path d="M 632.355 38.855 
L 640.355 38.855 
L 648.355 38.855 
" style="fill: none; stroke: #2ca02c; stroke-width: 0.9; stroke-linecap: square"/>
    </g>
    <g id="text_18">
     <!-- tie rod left -->
     <g transform="translate(654.755 41.655) scale(0.08 -0.08)">
      <use xlink:href="#DejaVuSans-74"/>
      <use xlink:href="#DejaVuSans-69" transform="translate(39.208984 0)"/>
      <use xlink:href="#DejaVuSans-65" transform="translate(66.992188 0)"/>
      <use xlink:href="#DejaVuSans-20" transform="translate(128.515625 0)"/>
      <use xlink:href="#DejaVuSans-72" transform="translate(160.302734 0)"/>
      <use xlink:href="#DejaVuSans-6f" transform="translate(199.166016 0)"/>
      <use xlink:href="#DejaVuSans-64" transform="translate(260.347656 0)"/>
      <use xlink:href="#DejaVuSans-20" transform="translate(323.824219 0)"/>
      <use xlink:href="#DejaVuSans-6c" transform="translate(355.611328 0)"/>
      <use xlink:href="#DejaVuSans-65" transform="translate(383.394531 0)"/>
      <use xlink:href="#DejaVuSans-66" transform="translate(444.917969 0)"/>
      <use xlink:href="#DejaVuSans-74" transform="translate(478.373047 0)"/>
     </g>
    </g>
    <g id="line2d_32">
     <path d="M 632.355 50.5975 
L 640.355 50.5975 
L 648.355 50.5975 
" style="fill: none; stroke: #d62728; stroke-opacity: 0.8; stroke-width: 0.9; stroke-linecap: square"/>
    </g>
    <g id="text_19">
     <!-- tie rod right -->
     <g transform="translate(654.755 53.3975) scale(0.08 -0.08)">
      <defs>
       <path id="DejaVuSans-68" d="M 3513 2113 
L 3513 0 
L 2938 0 
L 2938 2094 
Q 2938 2591 2744 2837 
Q 2550 3084 2163 3084 
Q 1697 3084 1428 2787 
Q 1159 2491 1159 1978 
L 1159 0 
L 581 0 
L 581 4863 
L 1159 4863 
L 1159 2956 
Q 1366 3272 1645 3428 
Q 1925 3584 2291 3584 
Q 2894 3584 3203 3211 
Q 3513 2838 3513 2113 
z
" transform="scale(0.015625)"/>
      </defs>
      <use xlink:href="#DejaVuSans-74"/>
      <use xlink:href="#DejaVuSans-69" transform="translate(39.208984 0)"/>
      <use xlink:href="#DejaVuSans-65" transform="translate(66.992188 0)"/>
      <use xlink:href="#DejaVuSans-20" transform="translate(128.515625 0)"/>
      <use xlink:href="#DejaVuSans-72" transform="translate(160.302734 0)"/>
      <use xlink:href="#DejaVuSans-6f" transform="translate(199.166016 0)"/>
      <use xlink:href="#DejaVuSans-64" transform="translate(260.347656 0)"/>
      <use xlink:href="#DejaVuSans-20" transform="translate(323.824219 0)"/>
      <use xlink:href="#DejaVuSans-72" transform="translate(355.611328 0)"/>
      <use xlink:href="#DejaVuSans-69" transform="translate(396.724609 0)"/>
      <use xlink:href="#DejaVuSans-67" transform="translate(424.507812 0)"/>
      <use xlink:href="#DejaVuSans-68" transform="translate(487.984375 0)"/>
      <use xlink:href="#DejaVuSans-74" transform="translate(551.363281 0)"/>
     </g>
    </g>
   </g>
  </g>
 </g>
 <defs>
  <clipPath id="p3f6cad92d9">
   <rect x="56.09" y="28.37625" width="653.11" height="217.66375"/>
  </clipPath>
 </defs>
</svg>
