<?xml version="1.0" encoding="utf-8" standalone="no"?>
<!DOCTYPE svg PUBLIC "-//W3C//DTD SVG 1.1//EN"
  "http://www.w3.org/Graphics/SVG/1.1/DTD/svg11.dtd">
<svg xmlns:xlink="http://www.w3.org/1999/xlink" width="720pt" height="288pt" viewBox="0 0 720 288" xmlns="http://www.w3.org/2000/svg" version="1.1">
 <metadata>
  <rdf:RDF xmlns:dc="http://purl.org/dc/elements/1.1/" xmlns:cc="http://creativecommons.org/ns#" xmlns:rdf="http://www.w3.org/1999/02/22-rdf-syntax-ns#">
   <cc:Work>
    <dc:type rdf:resource="http://purl.org/dc/dcmitype/StillImage"/>
    <dc:date>2026-07-07T16:17:12.312248</dc:date>
    <dc:format>image/svg+xml</dc:format>
    <dc:creator>
     <cc:Agent>
      <dc:title>Matplotlib v3.10.8, https://matplotlib.org/</dc:title>
     </cc:Agent>
    </dc:creator>
   </cc:Work>
  </rdf:RDF>
 </metadata>
 <defs>
  <style type="text/css">*{stroke-linejoin: round; stroke-linecap: butt}</style>
 </defs>
 <g id="figure_1">
  <g id="patch_1">
   <path d="M 0 288 
L 720 288 
L 720 0 
L 0 0 
z
" style="fill: #ffffff"/>
  </g>
  <g id="axes_1">
   <g id="patch_2">
    <path d="M 56.09 246.04 
L 709.2 246.04 
L 709.2 28.37625 
L 56.09 28.37625 
z
" style="fill: #ffffff"/>
   </g>
   <g id="matplotlib.axis_1">
    <g id="xtick_1">
     <g id="line2d_1">
      <path d="M 85.776818 246.04 
L 85.776818 28.37625 
" clip-path="url(#p9d1eebdccc)" style="fill: none; stroke: #b0b0b0; stroke-opacity: 0.3; stroke-width: 0.8; stroke-linecap: square"/>
     </g>
     <g id="line2d_2">
      <defs>
       <path id="m33abdc8a1d" d="M 0 0 
L 0 3.5 
" style="stroke: #000000; stroke-width: 0.8"/>
      </defs>
      <g>
       <use xlink:href="#m33abdc8a1d" x="85.776818" y="246.04" style="stroke: #000000; stroke-width: 0.8"/>
      </g>
     </g>
     <g id="text_1">
      <!-- 0.0 -->
      <g transform="translate(77.825256 260.638438) scale(0.1 -0.1)">
       <defs>
        <path id="DejaVuSans-30" d="M 2034 4250 
Q 1547 4250 1301 3770 
Q 1056 3291 1056 2328 
Q 1056 1369 1301 889 
Q 1547 409 2034 409 
Q 2525 409 2770 889 
Q 3016 1369 3016 2328 
Q 3016 3291 2770 3770 
Q 2525 4250 2034 4250 
z
M 2034 4750 
Q 2819 4750 3233 4129 
Q 3647 3509 3647 2328 
Q 3647 1150 3233 529 
Q 2819 -91 2034 -91 
Q 1250 -91 836 529 
Q 422 1150 422 2328 
Q 422 3509 836 4129 
Q 1250 4750 2034 4750 
z
" transform="scale(0.015625)"/>
        <path id="DejaVuSans-2e" d="M 684 794 
L 1344 794 
L 1344 0 
L 684 0 
L 684 794 
z
" transform="scale(0.015625)"/>
       </defs>
       <use xlink:href="#DejaVuSans-30"/>
       <use xlink:href="#DejaVuSans-2e" transform="translate(63.623047 0)"/>
       <use xlink:href="#DejaVuSans-30" transform="translate(95.410156 0)"/>
      </g>
     </g>
    </g>
    <g id="xtick_2">
     <g id="line2d_3">
      <path d="M 213.188055 246.04 
L 213.188055 28.37625 
" clip-path="url(#p9d1eebdccc)" style="fill: none; stroke: #b0b0b0; stroke-opacity: 0.3; stroke-width: 0.8; stroke-linecap: square"/>
     </g>
     <g id="line2d_4">
      <g>
       <use xlink:href="#m33abdc8a1d" x="213.188055" y="246.04" style="stroke: #000000; stroke-width: 0.8"/>
      </g>
     </g>
     <g id="text_2">
      <!-- 0.5 -->
      <g transform="translate(205.236492 260.638438) scale(0.1 -0.1)">
       <defs>
        <path id="DejaVuSans-35" d="M 691 4666 
L 3169 4666 
L 3169 4134 
L 1269 4134 
L 1269 2991 
Q 1406 3038 1543 3061 
Q 1681 3084 1819 3084 
Q 2600 3084 3056 2656 
Q 3513 2228 3513 1497 
Q 3513 744 3044 326 
Q 2575 -91 1722 -91 
Q 1428 -91 1123 -41 
Q 819 9 494 109 
L 494 744 
Q 775 591 1075 516 
Q 1375 441 1709 441 
Q 2250 441 2565 725 
Q 2881 1009 2881 1497 
Q 2881 1984 2565 2268 
Q 2250 2553 1709 2553 
Q 1456 2553 1204 2497 
Q 953 2441 691 2322 
L 691 4666 
z
" transform="scale(0.015625)"/>
       </defs>
       <use xlink:href="#DejaVuSans-30"/>
       <use xlink:href="#DejaVuSans-2e" transform="translate(63.623047 0)"/>
       <use xlink:href="#DejaVuSans-35" transform="translate(95.410156 0)"/>
      </g>
     </g>
    </g>
    <g id="xtick_3">
     <g id="line2d_5">
      <path d="M 340.599292 246.04 
L 340.599292 28.37625 
" clip-path="url(#p9d1eebdccc)" style="fill: none; stroke: #b0b0b0; stroke-opacity: 0.3; stroke-width: 0.8; stroke-linecap: square"/>
     </g>
     <g id="line2d_6">
      <g>
       <use xlink:href="#m33abdc8a1d" x="340.599292" y="246.04" style="stroke: #000000; stroke-width: 0.8"/>
      </g>
     </g>
     <g id="text_3">
      <!-- 1.0 -->
      <g transform="translate(332.647729 260.638438) scale(0.1 -0.1)">
       <defs>
        <path id="DejaVuSans-31" d="M 794 531 
L 1825 531 
L 1825 4091 
L 703 3866 
L 703 4441 
L 1819 4666 
L 2450 4666 
L 2450 531 
L 3481 531 
L 3481 0 
L 794 0 
L 794 531 
z
" transform="scale(0.015625)"/>
       </defs>
       <use xlink:href="#DejaVuSans-31"/>
       <use xlink:href="#DejaVuSans-2e" transform="translate(63.623047 0)"/>
       <use xlink:href="#DejaVuSans-30" transform="translate(95.410156 0)"/>
      </g>
     </g>
    </g>
    <g id="xtick_4">
     <g id="line2d_7">
      <path d="M 468.010529 246.04 
L 468.010529 28.37625 
" clip-path="url(#p9d1eebdccc)" style="fill: none; stroke: #b0b0b0; stroke-opacity: 0.3; stroke-width: 0.8; stroke-linecap: square"/>
     </g>
     <g id="line2d_8">
      <g>
       <use xlink:href="#m33abdc8a1d" x="468.010529" y="246.04" style="stroke: #000000; stroke-width: 0.8"/>
      </g>
     </g>
     <g id="text_4">
      <!-- 1.5 -->
      <g transform="translate(460.058966 260.638438) scale(0.1 -0.1)">
       <use xlink:href="#DejaVuSans-31"/>
       <use xlink:href="#DejaVuSans-2e" transform="translate(63.623047 0)"/>
       <use xlink:href="#DejaVuSans-35" transform="translate(95.410156 0)"/>
      </g>
     </g>
    </g>
    <g id="xtick_5">
     <g id="line2d_9">
      <path d="M 595.421765 246.04 
L 595.421765 28.37625 
" clip-path="url(#p9d1eebdccc)" style="fill: none; stroke: #b0b0b0; stroke-opacity: 0.3; stroke-width: 0.8; stroke-linecap: square"/>
     </g>
     <g id="line2d_10">
      <g>
       <use xlink:href="#m33abdc8a1d" x="595.421765" y="246.04" style="stroke: #000000; stroke-width: 0.8"/>
      </g>
     </g>
     <g id="text_5">
      <!-- 2.0 -->
      <g transform="translate(587.470203 260.638438) scale(0.1 -0.1)">
       <defs>
        <path id="DejaVuSans-32" d="M 1228 531 
L 3431 531 
L 3431 0 
L 469 0 
L 469 531 
Q 828 903 1448 1529 
Q 2069 2156 2228 2338 
Q 2531 2678 2651 2914 
Q 2772 3150 2772 3378 
Q 2772 3750 2511 3984 
Q 2250 4219 1831 4219 
Q 1534 4219 1204 4116 
Q 875 4013 500 3803 
L 500 4441 
Q 881 4594 1212 4672 
Q 1544 4750 1819 4750 
Q 2544 4750 2975 4387 
Q 3406 4025 3406 3419 
Q 3406 3131 3298 2873 
Q 3191 2616 2906 2266 
Q 2828 2175 2409 1742 
Q 1991 1309 1228 531 
z
" transform="scale(0.015625)"/>
       </defs>
       <use xlink:href="#DejaVuSans-32"/>
       <use xlink:href="#DejaVuSans-2e" transform="translate(63.623047 0)"/>
       <use xlink:href="#DejaVuSans-30" transform="translate(95.410156 0)"/>
      </g>
     </g>
    </g>
    <g id="text_6">
     <!-- distance s [km] -->
     <g transform="translate(344.008281 274.316562) scale(0.1 -0.1)">
      <defs>
       <path id="DejaVuSans-64" d="M 2906 2969 
L 2906 4863 
L 3481 4863 
L 3481 0 
L 2906 0 
L 2906 525 
Q 2725 213 2448 61 
Q 2172 -91 1784 -91 
Q 1150 -91 751 415 
Q 353 922 353 1747 
Q 353 2572 751 3078 
Q 1150 3584 1784 3584 
Q 2172 3584 2448 3432 
Q 2725 3281 2906 2969 
z
M 947 1747 
Q 947 1113 1208 752 
Q 1469 391 1925 391 
Q 2381 391 2643 752 
Q 2906 1113 2906 1747 
Q 2906 2381 2643 2742 
Q 2381 3103 1925 3103 
Q 1469 3103 1208 2742 
Q 947 2381 947 1747 
z
" transform="scale(0.015625)"/>
       <path id="DejaVuSans-69" d="M 603 3500 
L 1178 3500 
L 1178 0 
L 603 0 
L 603 3500 
z
M 603 4863 
L 1178 4863 
L 1178 4134 
L 603 4134 
L 603 4863 
z
" transform="scale(0.015625)"/>
       <path id="DejaVuSans-73" d="M 2834 3397 
L 2834 2853 
Q 2591 2978 2328 3040 
Q 2066 3103 1784 3103 
Q 1356 3103 1142 2972 
Q 928 2841 928 2578 
Q 928 2378 1081 2264 
Q 1234 2150 1697 2047 
L 1894 2003 
Q 2506 1872 2764 1633 
Q 3022 1394 3022 966 
Q 3022 478 2636 193 
Q 2250 -91 1575 -91 
Q 1294 -91 989 -36 
Q 684 19 347 128 
L 347 722 
Q 666 556 975 473 
Q 1284 391 1588 391 
Q 1994 391 2212 530 
Q 2431 669 2431 922 
Q 2431 1156 2273 1281 
Q 2116 1406 1581 1522 
L 1381 1569 
Q 847 1681 609 1914 
Q 372 2147 372 2553 
Q 372 3047 722 3315 
Q 1072 3584 1716 3584 
Q 2034 3584 2315 3537 
Q 2597 3491 2834 3397 
z
" transform="scale(0.015625)"/>
       <path id="DejaVuSans-74" d="M 1172 4494 
L 1172 3500 
L 2356 3500 
L 2356 3053 
L 1172 3053 
L 1172 1153 
Q 1172 725 1289 603 
Q 1406 481 1766 481 
L 2356 481 
L 2356 0 
L 1766 0 
Q 1100 0 847 248 
Q 594 497 594 1153 
L 594 3053 
L 172 3053 
L 172 3500 
L 594 3500 
L 594 4494 
L 1172 4494 
z
" transform="scale(0.015625)"/>
       <path id="DejaVuSans-61" d="M 2194 1759 
Q 1497 1759 1228 1600 
Q 959 1441 959 1056 
Q 959 750 1161 570 
Q 1363 391 1709 391 
Q 2188 391 2477 730 
Q 2766 1069 2766 1631 
L 2766 1759 
L 2194 1759 
z
M 3341 1997 
L 3341 0 
L 2766 0 
L 2766 531 
Q 2569 213 2275 61 
Q 1981 -91 1556 -91 
Q 1019 -91 701 211 
Q 384 513 384 1019 
Q 384 1609 779 1909 
Q 1175 2209 1959 2209 
L 2766 2209 
L 2766 2266 
Q 2766 2663 2505 2880 
Q 2244 3097 1772 3097 
Q 1472 3097 1187 3025 
Q 903 2953 641 2809 
L 641 3341 
Q 956 3463 1253 3523 
Q 1550 3584 1831 3584 
Q 2591 3584 2966 3190 
Q 3341 2797 3341 1997 
z
" transform="scale(0.015625)"/>
       <path id="DejaVuSans-6e" d="M 3513 2113 
L 3513 0 
L 2938 0 
L 2938 2094 
Q 2938 2591 2744 2837 
Q 2550 3084 2163 3084 
Q 1697 3084 1428 2787 
Q 1159 2491 1159 1978 
L 1159 0 
L 581 0 
L 581 3500 
L 1159 3500 
L 1159 2956 
Q 1366 3272 1645 3428 
Q 1925 3584 2291 3584 
Q 2894 3584 3203 3211 
Q 3513 2838 3513 2113 
z
" transform="scale(0.015625)"/>
       <path id="DejaVuSans-63" d="M 3122 3366 
L 3122 2828 
Q 2878 2963 2633 3030 
Q 2388 3097 2138 3097 
Q 1578 3097 1268 2742 
Q 959 2388 959 1747 
Q 959 1106 1268 751 
Q 1578 397 2138 397 
Q 2388 397 2633 464 
Q 2878 531 3122 666 
L 3122 134 
Q 2881 22 2623 -34 
Q 2366 -91 2075 -91 
Q 1284 -91 818 406 
Q 353 903 353 1747 
Q 353 2603 823 3093 
Q 1294 3584 2113 3584 
Q 2378 3584 2631 3529 
Q 2884 3475 3122 3366 
z
" transform="scale(0.015625)"/>
       <path id="DejaVuSans-65" d="M 3597 1894 
L 3597 1613 
L 953 1613 
Q 991 1019 1311 708 
Q 1631 397 2203 397 
Q 2534 397 2845 478 
Q 3156 559 3463 722 
L 3463 178 
Q 3153 47 2828 -22 
Q 2503 -91 2169 -91 
Q 1331 -91 842 396 
Q 353 884 353 1716 
Q 353 2575 817 3079 
Q 1281 3584 2069 3584 
Q 2775 3584 3186 3129 
Q 3597 2675 3597 1894 
z
M 3022 2063 
Q 3016 2534 2758 2815 
Q 2500 3097 2075 3097 
Q 1594 3097 1305 2825 
Q 1016 2553 972 2059 
L 3022 2063 
z
" transform="scale(0.015625)"/>
       <path id="DejaVuSans-20" transform="scale(0.015625)"/>
       <path id="DejaVuSans-5b" d="M 550 4863 
L 1875 4863 
L 1875 4416 
L 1125 4416 
L 1125 -397 
L 1875 -397 
L 1875 -844 
L 550 -844 
L 550 4863 
z
" transform="scale(0.015625)"/>
       <path id="DejaVuSans-6b" d="M 581 4863 
L 1159 4863 
L 1159 1991 
L 2875 3500 
L 3609 3500 
L 1753 1863 
L 3688 0 
L 2938 0 
L 1159 1709 
L 1159 0 
L 581 0 
L 581 4863 
z
" transform="scale(0.015625)"/>
       <path id="DejaVuSans-6d" d="M 3328 2828 
Q 3544 3216 3844 3400 
Q 4144 3584 4550 3584 
Q 5097 3584 5394 3201 
Q 5691 2819 5691 2113 
L 5691 0 
L 5113 0 
L 5113 2094 
Q 5113 2597 4934 2840 
Q 4756 3084 4391 3084 
Q 3944 3084 3684 2787 
Q 3425 2491 3425 1978 
L 3425 0 
L 2847 0 
L 2847 2094 
Q 2847 2600 2669 2842 
Q 2491 3084 2119 3084 
Q 1678 3084 1418 2786 
Q 1159 2488 1159 1978 
L 1159 0 
L 581 0 
L 581 3500 
L 1159 3500 
L 1159 2956 
Q 1356 3278 1631 3431 
Q 1906 3584 2284 3584 
Q 2666 3584 2933 3390 
Q 3200 3197 3328 2828 
z
" transform="scale(0.015625)"/>
       <path id="DejaVuSans-5d" d="M 1947 4863 
L 1947 -844 
L 622 -844 
L 622 -397 
L 1369 -397 
L 1369 4416 
L 622 4416 
L 622 4863 
L 1947 4863 
z
" transform="scale(0.015625)"/>
      </defs>
      <use xlink:href="#DejaVuSans-64"/>
      <use xlink:href="#DejaVuSans-69" transform="translate(63.476562 0)"/>
      <use xlink:href="#DejaVuSans-73" transform="translate(91.259766 0)"/>
      <use xlink:href="#DejaVuSans-74" transform="translate(143.359375 0)"/>
      <use xlink:href="#DejaVuSans-61" transform="translate(182.568359 0)"/>
      <use xlink:href="#DejaVuSans-6e" transform="translate(243.847656 0)"/>
      <use xlink:href="#DejaVuSans-63" transform="translate(307.226562 0)"/>
      <use xlink:href="#DejaVuSans-65" transform="translate(362.207031 0)"/>
      <use xlink:href="#DejaVuSans-20" transform="translate(423.730469 0)"/>
      <use xlink:href="#DejaVuSans-73" transform="translate(455.517578 0)"/>
      <use xlink:href="#DejaVuSans-20" transform="translate(507.617188 0)"/>
      <use xlink:href="#DejaVuSans-5b" transform="translate(539.404297 0)"/>
      <use xlink:href="#DejaVuSans-6b" transform="translate(578.417969 0)"/>
      <use xlink:href="#DejaVuSans-6d" transform="translate(636.328125 0)"/>
      <use xlink:href="#DejaVuSans-5d" transform="translate(733.740234 0)"/>
     </g>
    </g>
   </g>
   <g id="matplotlib.axis_2">
    <g id="ytick_1">
     <g id="line2d_11">
      <path d="M 56.09 245.948045 
L 709.2 245.948045 
" clip-path="url(#p9d1eebdccc)" style="fill: none; stroke: #b0b0b0; stroke-opacity: 0.3; stroke-width: 0.8; stroke-linecap: square"/>
     </g>
     <g id="line2d_12">
      <defs>
       <path id="m7f3b135fb4" d="M 0 0 
L -3.5 0 
" style="stroke: #000000; stroke-width: 0.8"/>
      </defs>
      <g>
       <use xlink:href="#m7f3b135fb4" x="56.09" y="245.948045" style="stroke: #000000; stroke-width: 0.8"/>
      </g>
     </g>
     <g id="text_7">
      <!-- −2.0 -->
      <g transform="translate(24.807188 249.747264) scale(0.1 -0.1)">
       <defs>
        <path id="DejaVuSans-2212" d="M 678 2272 
L 4684 2272 
L 4684 1741 
L 678 1741 
L 678 2272 
z
" transform="scale(0.015625)"/>
       </defs>
       <use xlink:href="#DejaVuSans-2212"/>
       <use xlink:href="#DejaVuSans-32" transform="translate(83.789062 0)"/>
       <use xlink:href="#DejaVuSans-2e" transform="translate(147.412109 0)"/>
       <use xlink:href="#DejaVuSans-30" transform="translate(179.199219 0)"/>
      </g>
     </g>
    </g>
    <g id="ytick_2">
     <g id="line2d_13">
      <path d="M 56.09 218.826672 
L 709.2 218.826672 
" clip-path="url(#p9d1eebdccc)" style="fill: none; stroke: #b0b0b0; stroke-opacity: 0.3; stroke-width: 0.8; stroke-linecap: square"/>
     </g>
     <g id="line2d_14">
      <g>
       <use xlink:href="#m7f3b135fb4" x="56.09" y="218.826672" style="stroke: #000000; stroke-width: 0.8"/>
      </g>
     </g>
     <g id="text_8">
      <!-- −1.5 -->
      <g transform="translate(24.807188 222.625891) scale(0.1 -0.1)">
       <use xlink:href="#DejaVuSans-2212"/>
       <use xlink:href="#DejaVuSans-31" transform="translate(83.789062 0)"/>
       <use xlink:href="#DejaVuSans-2e" transform="translate(147.412109 0)"/>
       <use xlink:href="#DejaVuSans-35" transform="translate(179.199219 0)"/>
      </g>
     </g>
    </g>
    <g id="ytick_3">
     <g id="line2d_15">
      <path d="M 56.09 191.705299 
L 709.2 191.705299 
" clip-path="url(#p9d1eebdccc)" style="fill: none; stroke: #b0b0b0; stroke-opacity: 0.3; stroke-width: 0.8; stroke-linecap: square"/>
     </g>
     <g id="line2d_16">
      <g>
       <use xlink:href="#m7f3b135fb4" x="56.09" y="191.705299" style="stroke: #000000; stroke-width: 0.8"/>
      </g>
     </g>
     <g id="text_9">
      <!-- −1.0 -->
      <g transform="translate(24.807188 195.504517) scale(0.1 -0.1)">
       <use xlink:href="#DejaVuSans-2212"/>
       <use xlink:href="#DejaVuSans-31" transform="translate(83.789062 0)"/>
       <use xlink:href="#DejaVuSans-2e" transform="translate(147.412109 0)"/>
       <use xlink:href="#DejaVuSans-30" transform="translate(179.199219 0)"/>
      </g>
     </g>
    </g>
    <g id="ytick_4">
     <g id="line2d_17">
      <path d="M 56.09 164.583926 
L 709.2 164.583926 
" clip-path="url(#p9d1eebdccc)" style="fill: none; stroke: #b0b0b0; stroke-opacity: 0.3; stroke-width: 0.8; stroke-linecap: square"/>
     </g>
     <g id="line2d_18">
      <g>
       <use xlink:href="#m7f3b135fb4" x="56.09" y="164.583926" style="stroke: #000000; stroke-width: 0.8"/>
      </g>
     </g>
     <g id="text_10">
      <!-- −0.5 -->
      <g transform="translate(24.807188 168.383144) scale(0.1 -0.1)">
       <use xlink:href="#DejaVuSans-2212"/>
       <use xlink:href="#DejaVuSans-30" transform="translate(83.789062 0)"/>
       <use xlink:href="#DejaVuSans-2e" transform="translate(147.412109 0)"/>
       <use xlink:href="#DejaVuSans-35" transform="translate(179.199219 0)"/>
      </g>
     </g>
    </g>
    <g id="ytick_5">
     <g id="line2d_19">
      <path d="M 56.09 137.462552 
L 709.2 137.462552 
" clip-path="url(#p9d1eebdccc)" style="fill: none; stroke: #b0b0b0; stroke-opacity: 0.3; stroke-width: 0.8; stroke-linecap: square"/>
     </g>
     <g id="line2d_20">
      <g>
       <use xlink:href="#m7f3b135fb4" x="56.09" y="137.462552" style="stroke: #000000; stroke-width: 0.8"/>
      </g>
     </g>
     <g id="text_11">
      <!-- 0.0 -->
      <g transform="translate(33.186875 141.261771) scale(0.1 -0.1)">
       <use xlink:href="#DejaVuSans-30"/>
       <use xlink:href="#DejaVuSans-2e" transform="translate(63.623047 0)"/>
       <use xlink:href="#DejaVuSans-30" transform="translate(95.410156 0)"/>
      </g>
     </g>
    </g>
    <g id="ytick_6">
     <g id="line2d_21">
      <path d="M 56.09 110.341179 
L 709.2 110.341179 
" clip-path="url(#p9d1eebdccc)" style="fill: none; stroke: #b0b0b0; stroke-opacity: 0.3; stroke-width: 0.8; stroke-linecap: square"/>
     </g>
     <g id="line2d_22">
      <g>
       <use xlink:href="#m7f3b135fb4" x="56.09" y="110.341179" style="stroke: #000000; stroke-width: 0.8"/>
      </g>
     </g>
     <g id="text_12">
      <!-- 0.5 -->
      <g transform="translate(33.186875 114.140398) scale(0.1 -0.1)">
       <use xlink:href="#DejaVuSans-30"/>
       <use xlink:href="#DejaVuSans-2e" transform="translate(63.623047 0)"/>
       <use xlink:href="#DejaVuSans-35" transform="translate(95.410156 0)"/>
      </g>
     </g>
    </g>
    <g id="ytick_7">
     <g id="line2d_23">
      <path d="M 56.09 83.219806 
L 709.2 83.219806 
" clip-path="url(#p9d1eebdccc)" style="fill: none; stroke: #b0b0b0; stroke-opacity: 0.3; stroke-width: 0.8; stroke-linecap: square"/>
     </g>
     <g id="line2d_24">
      <g>
       <use xlink:href="#m7f3b135fb4" x="56.09" y="83.219806" style="stroke: #000000; stroke-width: 0.8"/>
      </g>
     </g>
     <g id="text_13">
      <!-- 1.0 -->
      <g transform="translate(33.186875 87.019025) scale(0.1 -0.1)">
       <use xlink:href="#DejaVuSans-31"/>
       <use xlink:href="#DejaVuSans-2e" transform="translate(63.623047 0)"/>
       <use xlink:href="#DejaVuSans-30" transform="translate(95.410156 0)"/>
      </g>
     </g>
    </g>
    <g id="ytick_8">
     <g id="line2d_25">
      <path d="M 56.09 56.098433 
L 709.2 56.098433 
" clip-path="url(#p9d1eebdccc)" style="fill: none; stroke: #b0b0b0; stroke-opacity: 0.3; stroke-width: 0.8; stroke-linecap: square"/>
     </g>
     <g id="line2d_26">
      <g>
       <use xlink:href="#m7f3b135fb4" x="56.09" y="56.098433" style="stroke: #000000; stroke-width: 0.8"/>
      </g>
     </g>
     <g id="text_14">
      <!-- 1.5 -->
      <g transform="translate(33.186875 59.897652) scale(0.1 -0.1)">
       <use xlink:href="#DejaVuSans-31"/>
       <use xlink:href="#DejaVuSans-2e" transform="translate(63.623047 0)"/>
       <use xlink:href="#DejaVuSans-35" transform="translate(95.410156 0)"/>
      </g>
     </g>
    </g>
    <g id="ytick_9">
     <g id="line2d_27">
      <path d="M 56.09 28.97706 
L 709.2 28.97706 
" clip-path="url(#p9d1eebdccc)" style="fill: none; stroke: #b0b0b0; stroke-opacity: 0.3; stroke-width: 0.8; stroke-linecap: square"/>
     </g>
     <g id="line2d_28">
      <g>
       <use xlink:href="#m7f3b135fb4" x="56.09" y="28.97706" style="stroke: #000000; stroke-width: 0.8"/>
      </g>
     </g>
     <g id="text_15">
      <!-- 2.0 -->
      <g transform="translate(33.186875 32.776279) scale(0.1 -0.1)">
       <use xlink:href="#DejaVuSans-32"/>
       <use xlink:href="#DejaVuSans-2e" transform="translate(63.623047 0)"/>
       <use xlink:href="#DejaVuSans-30" transform="translate(95.410156 0)"/>
      </g>
     </g>
    </g>
    <g id="text_16">
     <!-- tie-rod force [kN] -->
     <g transform="translate(18.7275 179.918281) rotate(-90) scale(0.1 -0.1)">
      <defs>
       <path id="DejaVuSans-2d" d="M 313 2009 
L 1997 2009 
L 1997 1497 
L 313 1497 
L 313 2009 
z
" transform="scale(0.015625)"/>
       <path id="DejaVuSans-72" d="M 2631 2963 
Q 2534 3019 2420 3045 
Q 2306 3072 2169 3072 
Q 1681 3072 1420 2755 
Q 1159 2438 1159 1844 
L 1159 0 
L 581 0 
L 581 3500 
L 1159 3500 
L 1159 2956 
Q 1341 3275 1631 3429 
Q 1922 3584 2338 3584 
Q 2397 3584 2469 3576 
Q 2541 3569 2628 3553 
L 2631 2963 
z
" transform="scale(0.015625)"/>
       <path id="DejaVuSans-6f" d="M 1959 3097 
Q 1497 3097 1228 2736 
Q 959 2375 959 1747 
Q 959 1119 1226 758 
Q 1494 397 1959 397 
Q 2419 397 2687 759 
Q 2956 1122 2956 1747 
Q 2956 2369 2687 2733 
Q 2419 3097 1959 3097 
z
M 1959 3584 
Q 2709 3584 3137 3096 
Q 3566 2609 3566 1747 
Q 3566 888 3137 398 
Q 2709 -91 1959 -91 
Q 1206 -91 779 398 
Q 353 888 353 1747 
Q 353 2609 779 3096 
Q 1206 3584 1959 3584 
z
" transform="scale(0.015625)"/>
       <path id="DejaVuSans-66" d="M 2375 4863 
L 2375 4384 
L 1825 4384 
Q 1516 4384 1395 4259 
Q 1275 4134 1275 3809 
L 1275 3500 
L 2222 3500 
L 2222 3053 
L 1275 3053 
L 1275 0 
L 697 0 
L 697 3053 
L 147 3053 
L 147 3500 
L 697 3500 
L 697 3744 
Q 697 4328 969 4595 
Q 1241 4863 1831 4863 
L 2375 4863 
z
" transform="scale(0.015625)"/>
       <path id="DejaVuSans-4e" d="M 628 4666 
L 1478 4666 
L 3547 763 
L 3547 4666 
L 4159 4666 
L 4159 0 
L 3309 0 
L 1241 3903 
L 1241 0 
L 628 0 
L 628 4666 
z
" transform="scale(0.015625)"/>
      </defs>
      <use xlink:href="#DejaVuSans-74"/>
      <use xlink:href="#DejaVuSans-69" transform="translate(39.208984 0)"/>
      <use xlink:href="#DejaVuSans-65" transform="translate(66.992188 0)"/>
      <use xlink:href="#DejaVuSans-2d" transform="translate(128.515625 0)"/>
      <use xlink:href="#DejaVuSans-72" transform="translate(164.599609 0)"/>
      <use xlink:href="#DejaVuSans-6f" transform="translate(203.462891 0)"/>
      <use xlink:href="#DejaVuSans-64" transform="translate(264.644531 0)"/>
      <use xlink:href="#DejaVuSans-20" transform="translate(328.121094 0)"/>
      <use xlink:href="#DejaVuSans-66" transform="translate(359.908203 0)"/>
      <use xlink:href="#DejaVuSans-6f" transform="translate(395.113281 0)"/>
      <use xlink:href="#DejaVuSans-72" transform="translate(456.294922 0)"/>
      <use xlink:href="#DejaVuSans-63" transform="translate(495.158203 0)"/>
      <use xlink:href="#DejaVuSans-65" transform="translate(550.138672 0)"/>
      <use xlink:href="#DejaVuSans-20" transform="translate(611.662109 0)"/>
      <use xlink:href="#DejaVuSans-5b" transform="translate(643.449219 0)"/>
      <use xlink:href="#DejaVuSans-6b" transform="translate(682.462891 0)"/>
      <use xlink:href="#DejaVuSans-4e" transform="translate(740.373047 0)"/>
      <use xlink:href="#DejaVuSans-5d" transform="translate(815.177734 0)"/>
     </g>
    </g>
   </g>
   <g id="line2d_29">
    <path d="M 85.776818 137.462552 
L 93.784504 137.385286 
L 95.317214 137.220161 
L 96.859583 137.418289 
L 98.930939 137.616858 
L 103.652503 137.440587 
L 105.777577 137.278996 
L 111.703638 137.500565 
L 115.53557 137.487367 
L 123.154728 137.457158 
L 141.759662 137.625201 
L 142.471884 137.914864 
L 143.503125 138.588009 
L 145.122654 139.988447 
L 145.735811 140.968078 
L 146.329282 142.697946 
L 146.903172 145.327996 
L 147.457573 148.678853 
L 149.250581 162.63529 
L 149.955649 168.107608 
L 150.407236 173.897643 
L 151.47848 195.06533 
L 152.283316 215.119163 
L 152.862583 228.691717 
L 153.239136 233.54044 
L 153.607418 235.380336 
L 153.788111 235.606896 
L 153.966266 235.578003 
L 155.442721 234.168612 
L 156.03875 233.029785 
L 156.61325 231.524459 
L 157.176766 229.325822 
L 158.017482 225.972718 
L 158.439699 225.144086 
L 159.011406 224.624076 
L 160.051317 224.105311 
L 160.676335 224.027736 
L 160.998151 224.199252 
L 161.325325 224.804343 
L 161.656874 226.566946 
L 161.992233 228.503213 
L 162.161411 222.918931 
L 162.331795 199.689301 
L 162.677485 100.166644 
L 162.853704 89.923596 
L 163.032783 94.449159 
L 163.590539 122.80955 
L 163.783426 122.511114 
L 164.179401 117.469628 
L 164.382457 117.34644 
L 164.798536 120.893612 
L 165.227562 123.731208 
L 165.446812 123.839055 
L 165.894598 123.286841 
L 166.12307 123.383948 
L 166.589052 124.554409 
L 167.310357 126.307136 
L 168.057749 128.090279 
L 169.093131 130.407733 
L 169.897642 131.774001 
L 170.725245 132.848079 
L 171.863407 133.924877 
L 173.039818 134.732657 
L 174.253092 135.296696 
L 175.819615 135.80549 
L 176.785298 135.900687 
L 178.099375 135.785102 
L 179.75798 135.405495 
L 180.418931 135.660525 
L 183.005697 137.189644 
L 183.940576 137.370019 
L 185.443479 137.60409 
L 185.735131 137.844153 
L 187.147452 139.967669 
L 187.420745 140.849449 
L 187.958208 143.97631 
L 188.996731 151.757516 
L 189.498166 154.417822 
L 189.744653 156.351314 
L 190.229713 163.6804 
L 192.300331 209.884664 
L 193.169495 226.045062 
L 193.594435 231.000964 
L 194.013209 233.650201 
L 194.425939 234.825727 
L 194.630102 235.051903 
L 194.832865 235.089166 
L 195.034298 234.931954 
L 195.433493 234.130045 
L 197.96503 226.990998 
L 198.355426 226.244986 
L 198.748956 225.994787 
L 198.947121 226.141353 
L 199.346629 227.11537 
L 199.750845 228.51542 
L 199.954914 228.136636 
L 200.16042 224.798346 
L 200.367484 215.116285 
L 200.576249 194.998168 
L 200.999492 129.999944 
L 201.214391 116.117666 
L 201.431845 117.124428 
L 201.875421 130.007319 
L 202.101705 131.078582 
L 202.56311 126.313025 
L 202.798092 125.958138 
L 203.035447 127.9999 
L 204.00022 142.154594 
L 204.487601 144.874146 
L 204.97581 149.395252 
L 205.706685 156.984218 
L 206.432904 162.055598 
L 207.390436 167.401985 
L 208.098922 173.416175 
L 209.029454 184.683444 
L 212.172278 223.083833 
L 212.825776 227.946554 
L 213.258627 229.783612 
L 213.689713 230.756876 
L 214.119523 231.03888 
L 214.334133 230.965251 
L 214.763185 230.482398 
L 215.407713 229.223322 
L 216.272351 227.615933 
L 216.926892 226.921525 
L 217.367024 226.763058 
L 217.810887 226.95817 
L 218.484793 227.459952 
L 218.711735 227.153809 
L 218.93989 226.087416 
L 219.169321 223.740923 
L 219.400118 219.58072 
L 219.866279 205.084957 
L 220.339336 188.742628 
L 220.578627 184.206116 
L 220.819448 182.641555 
L 221.061499 182.701665 
L 221.304486 182.996363 
L 221.548127 182.737827 
L 221.792159 181.420689 
L 222.280448 175.147049 
L 222.767753 164.553768 
L 223.494481 146.309574 
L 223.975323 141.165539 
L 224.214655 138.704468 
L 225.165298 122.911525 
L 225.871886 118.461949 
L 226.340267 114.657334 
L 227.505229 99.864318 
L 227.737901 98.955005 
L 227.970548 98.828548 
L 228.203086 99.617345 
L 228.667361 103.348055 
L 229.359775 108.479732 
L 230.045152 112.003027 
L 230.722749 114.315363 
L 231.393301 115.710301 
L 231.836999 116.253814 
L 232.278391 116.494432 
L 232.717555 116.440636 
L 233.372355 115.996053 
L 234.239876 115.059422 
L 235.103441 114.164477 
L 235.749737 113.777815 
L 236.610958 113.571527 
L 237.473129 113.378823 
L 238.552288 113.060352 
L 239.199993 113.157505 
L 240.06353 113.554818 
L 240.927789 114.232134 
L 242.234606 115.292153 
L 243.344738 116.162625 
L 244.715977 117.430802 
L 245.184317 117.581769 
L 245.658772 117.466546 
L 246.139841 116.919343 
L 246.875284 115.425719 
L 247.124469 117.263403 
L 247.629497 123.197434 
L 247.885409 122.688418 
L 248.931573 111.906648 
L 249.739163 107.455724 
L 250.012539 106.705889 
L 250.287962 106.491823 
L 250.565425 106.774007 
L 251.126488 108.304464 
L 251.983356 110.823275 
L 252.273061 111.182904 
L 252.564826 111.228356 
L 252.858653 111.031133 
L 253.452471 110.05243 
L 253.75245 109.46127 
L 254.054484 109.138527 
L 254.358583 109.286143 
L 254.66475 109.897759 
L 254.972987 110.965358 
L 255.283304 112.541646 
L 255.910204 117.611127 
L 256.545484 126.045186 
L 257.189099 137.071789 
L 257.513985 140.683609 
L 257.840904 142.262585 
L 258.169845 142.752273 
L 258.833747 143.142479 
L 259.168682 143.151641 
L 259.505588 142.731585 
L 260.185266 140.679957 
L 260.872685 138.363991 
L 261.219269 137.573416 
L 261.567754 137.117064 
L 261.918128 136.916412 
L 262.270379 136.903709 
L 262.98047 137.171061 
L 264.787771 138.052726 
L 265.523293 138.153603 
L 266.639812 138.013771 
L 268.919498 137.614588 
L 270.865498 137.57186 
L 276.802648 137.727021 
L 277.963651 138.414557 
L 278.34712 138.964333 
L 278.728842 140.006233 
L 279.487301 142.888876 
L 280.23958 144.655966 
L 280.986206 146.273637 
L 281.357565 147.33785 
L 281.727726 148.931555 
L 282.096782 151.693706 
L 282.464839 156.261751 
L 285.745656 207.859548 
L 286.829925 220.148563 
L 287.550618 226.119235 
L 287.910375 227.9579 
L 288.62888 230.071328 
L 290.061966 232.494208 
L 290.418972 232.881126 
L 290.775405 233.070667 
L 291.131329 233.070757 
L 291.48681 232.874413 
L 291.841908 232.434208 
L 292.19668 231.657148 
L 292.551188 230.410904 
L 292.905506 228.516087 
L 293.25971 225.762423 
L 293.968095 217.388796 
L 294.676926 209.116659 
L 295.03182 206.833168 
L 295.387192 205.746725 
L 295.743125 205.510427 
L 296.81496 205.948953 
L 297.173743 206.17752 
L 297.533318 206.605412 
L 297.893683 207.568403 
L 298.254835 209.325969 
L 299.343184 216.332644 
L 299.707779 217.888725 
L 300.073382 218.828185 
L 300.440091 219.025839 
L 300.808011 218.070798 
L 301.177197 215.253667 
L 301.547666 209.663054 
L 301.919443 200.326605 
L 303.419848 148.872438 
L 303.798444 146.583051 
L 304.560164 147.932921 
L 304.943324 147.926203 
L 305.328024 147.190065 
L 306.102035 144.114345 
L 306.491318 143.500088 
L 306.8821 144.486665 
L 307.274371 146.754601 
L 308.063347 153.3316 
L 309.257763 164.885113 
L 309.658807 167.35536 
L 310.061305 168.754264 
L 310.465265 168.645095 
L 310.870698 166.809022 
L 311.686004 159.188057 
L 313.334398 140.541329 
L 314.167425 134.319304 
L 315.006258 130.756219 
L 315.427591 129.856882 
L 315.849821 129.64702 
L 316.272622 130.094824 
L 316.695688 131.088849 
L 318.805506 137.915673 
L 319.224697 138.660651 
L 319.64247 139.093797 
L 320.058638 139.251206 
L 320.473024 139.180677 
L 321.295784 138.579244 
L 322.913108 137.050875 
L 323.705569 136.668306 
L 324.486 136.629981 
L 325.632343 136.953414 
L 327.111784 137.41221 
L 328.530883 137.51287 
L 330.857919 137.527165 
L 332.094255 138.158622 
L 333.261815 140.118765 
L 333.543082 140.746603 
L 334.093115 143.085578 
L 334.887585 147.122925 
L 335.397539 151.340618 
L 336.134704 160.123551 
L 337.296884 180.019496 
L 337.959126 193.02922 
L 339.617907 230.21884 
L 340.011602 234.076449 
L 340.396605 235.693519 
L 340.585618 235.956313 
L 340.956145 235.938354 
L 341.66479 235.621278 
L 342.32894 235.68769 
L 344.389123 236.125001 
L 344.926273 235.849253 
L 345.448324 235.319902 
L 345.833448 234.605017 
L 346.216955 233.287752 
L 346.602928 231.053672 
L 347.128843 226.170157 
L 348.25302 211.696397 
L 348.865261 202.631731 
L 349.350229 191.626687 
L 350.211472 170.49292 
L 351.534793 141.978831 
L 351.931859 139.897304 
L 352.533805 138.364606 
L 352.735149 138.245472 
L 352.936495 138.621343 
L 353.338633 140.760207 
L 354.33867 148.918025 
L 354.736861 154.251849 
L 356.321865 182.448256 
L 358.105955 216.82751 
L 358.505171 221.872247 
L 358.905367 224.7764 
L 359.30658 226.27158 
L 359.709045 226.946597 
L 360.113145 227.16313 
L 361.340428 227.200107 
L 361.964647 227.118775 
L 362.385426 226.872738 
L 362.810409 226.276647 
L 363.240036 225.221185 
L 363.675086 223.486366 
L 363.894951 222.000594 
L 364.116503 219.671816 
L 364.339841 216.013288 
L 364.792309 202.652938 
L 366.205315 140.431998 
L 366.698278 131.776858 
L 366.948837 129.793845 
L 367.201656 129.13808 
L 367.45636 129.466713 
L 367.970075 131.02181 
L 368.228424 131.411118 
L 368.487385 131.452089 
L 369.526232 131.089074 
L 369.786205 130.624581 
L 370.046111 129.558708 
L 371.341745 120.929923 
L 371.856837 119.289275 
L 372.113488 118.011487 
L 372.369511 115.840024 
L 373.640468 100.687955 
L 374.144682 98.923835 
L 374.395871 98.74689 
L 374.646406 99.297598 
L 375.145369 102.383882 
L 375.888353 107.595182 
L 376.871561 112.54553 
L 377.606802 115.164099 
L 378.342806 116.953033 
L 378.834881 117.751999 
L 379.328975 118.25039 
L 379.826065 118.502783 
L 380.579183 118.596527 
L 381.087395 118.444867 
L 381.343574 118.211316 
L 381.601184 117.783064 
L 382.120974 116.122376 
L 382.383392 116.964875 
L 382.9142 125.156961 
L 383.182893 126.475555 
L 383.453835 124.679251 
L 384.002483 120.140816 
L 384.280175 119.600442 
L 384.560092 119.788214 
L 384.842219 119.812807 
L 385.126537 119.183124 
L 385.701663 116.424159 
L 386.580225 110.295985 
L 386.877263 109.070786 
L 387.176379 108.55286 
L 387.477565 108.5914 
L 387.780824 109.063978 
L 388.086166 109.982448 
L 388.393603 111.494802 
L 388.703145 113.785849 
L 389.328543 120.826025 
L 390.60445 137.823082 
L 390.92859 140.49486 
L 391.254768 142.238727 
L 391.58297 143.267015 
L 391.913182 143.615711 
L 392.245392 143.408805 
L 392.579587 142.825722 
L 393.253884 141.006853 
L 394.27992 138.255071 
L 394.625777 137.689453 
L 394.973537 137.353126 
L 395.323188 137.192021 
L 396.028122 137.273113 
L 398.187165 138.147341 
L 399.291035 138.140339 
L 403.083568 137.611812 
L 406.222197 137.485707 
L 407.008875 137.254595 
L 409.341995 136.114212 
L 410.105674 135.968261 
L 410.484156 135.777269 
L 410.860214 135.398416 
L 411.233714 134.693947 
L 411.972556 132.19898 
L 413.058731 128.106687 
L 413.414489 127.068293 
L 413.766944 126.480426 
L 414.116022 126.530008 
L 414.461654 127.186229 
L 415.142353 129.570648 
L 416.460378 135.023391 
L 417.097392 136.361498 
L 417.410386 136.61579 
L 417.719708 136.327831 
L 418.025366 135.410769 
L 418.920451 130.718658 
L 420.340272 122.726902 
L 420.883605 116.250728 
L 422.1834 96.851267 
L 422.681223 92.876311 
L 422.925698 91.977398 
L 423.167307 91.918608 
L 423.406112 92.656005 
L 423.875685 95.935119 
L 424.786856 103.394993 
L 425.44861 106.539737 
L 426.30264 109.2842 
L 427.324402 111.76964 
L 428.29413 113.597881 
L 429.214103 114.88415 
L 430.091014 115.743804 
L 430.766827 116.189942 
L 431.262179 116.317724 
L 431.750427 116.242529 
L 433.033176 115.906325 
L 433.67219 115.765762 
L 433.993414 115.48911 
L 434.479616 114.630032 
L 435.478919 112.352779 
L 435.822376 112.116888 
L 436.171554 112.308757 
L 436.706454 113.124918 
L 437.629102 114.653898 
L 438.202797 115.194611 
L 438.59434 115.289426 
L 438.993444 115.158833 
L 439.400393 114.806766 
L 440.026285 113.918752 
L 440.671919 113.016406 
L 440.891767 112.875998 
L 441.114029 112.878029 
L 441.338761 113.046038 
L 441.795865 113.954442 
L 442.263477 115.746023 
L 442.741755 118.425641 
L 443.479108 124.342549 
L 444.760301 136.948708 
L 445.0242 138.167117 
L 445.559486 139.241545 
L 446.380869 140.242733 
L 446.659511 140.217863 
L 448.088322 138.95054 
L 449.273101 138.476318 
L 450.493841 138.242455 
L 456.405309 137.711129 
L 462.186155 137.559738 
L 473.410458 137.367461 
L 474.14984 137.222879 
L 474.878059 136.69845 
L 475.594535 135.744286 
L 476.298786 134.181136 
L 478.663612 128.216443 
L 478.988927 126.060768 
L 479.630852 118.835871 
L 480.882633 101.831798 
L 481.493869 97.160301 
L 481.796086 96.060568 
L 482.096131 95.6458 
L 482.394077 95.741738 
L 482.690002 96.184879 
L 483.276167 97.733978 
L 484.142863 101.108176 
L 485.840866 109.070965 
L 487.225898 113.986157 
L 488.045644 116.096218 
L 488.858863 117.639381 
L 489.398649 118.380549 
L 489.937305 118.833913 
L 490.744225 119.163422 
L 491.551865 119.206719 
L 492.362591 119.00842 
L 493.455401 118.504722 
L 494.009838 118.0656 
L 494.289658 117.700567 
L 494.571374 117.145525 
L 494.855053 116.221923 
L 495.140769 116.371345 
L 495.428663 122.938528 
L 496.011557 151.268575 
L 496.306673 156.247432 
L 496.604193 157.630288 
L 497.206323 157.545373 
L 497.510852 157.719262 
L 497.817644 157.551823 
L 498.126672 156.538998 
L 498.43791 154.461012 
L 500.026527 139.219057 
L 500.350611 138.129608 
L 500.676778 137.828021 
L 501.005008 138.021015 
L 502.667671 140.038029 
L 503.33632 140.371675 
L 503.670242 140.373721 
L 504.336046 140.060075 
L 506.302498 138.584107 
L 506.943255 138.454434 
L 507.575041 138.462792 
L 507.887509 138.609081 
L 508.505915 139.34683 
L 508.812022 139.771149 
L 509.11618 140.391765 
L 509.71898 142.960033 
L 510.904645 149.661393 
L 511.488704 153.259606 
L 511.778825 154.835946 
L 512.067773 157.432099 
L 512.927341 170.234194 
L 513.493028 182.586987 
L 514.602338 210.944119 
L 515.144591 221.517028 
L 515.678992 228.198966 
L 516.205867 232.062449 
L 516.725612 234.21964 
L 516.982965 234.811918 
L 517.238733 235.09808 
L 517.492995 235.046084 
L 517.745836 234.571537 
L 517.997342 233.537898 
L 518.496689 229.622268 
L 519.484673 220.272304 
L 519.730431 219.169998 
L 519.976024 219.016955 
L 520.221592 219.647721 
L 521.451956 224.357952 
L 522.193956 225.6826 
L 523.191364 227.027093 
L 523.694959 227.451082 
L 523.948147 227.410005 
L 524.202345 226.961063 
L 524.457635 225.777335 
L 524.714107 223.391944 
L 524.97188 219.253213 
L 525.491911 203.986028 
L 526.554677 163.828184 
L 526.825806 160.271532 
L 527.099191 159.27469 
L 527.652727 159.335101 
L 527.932863 158.972392 
L 528.215229 158.265232 
L 528.499817 157.076988 
L 529.075573 153.06803 
L 529.659431 148.935885 
L 529.953814 147.598855 
L 530.24938 146.784629 
L 530.545801 146.485966 
L 530.842773 146.729546 
L 531.437295 148.090528 
L 532.326993 150.591034 
L 532.916411 153.103097 
L 533.501343 156.561863 
L 535.219389 168.542 
L 535.778276 170.946397 
L 536.055278 171.668996 
L 536.330745 171.940899 
L 536.877336 171.837292 
L 537.148582 172.186183 
L 537.418534 173.2922 
L 537.954785 177.692732 
L 539.540149 194.903912 
L 541.888951 224.123289 
L 542.407595 227.861054 
L 543.179512 231.279311 
L 543.942622 233.685737 
L 544.195073 234.239346 
L 544.446621 234.435785 
L 544.697309 233.942934 
L 544.947201 232.306837 
L 545.196368 229.023913 
L 545.692807 216.561104 
L 546.433836 193.897493 
L 546.680218 190.010621 
L 546.926411 188.567262 
L 547.172469 188.872368 
L 547.664306 191.918468 
L 548.155756 196.637874 
L 548.89195 206.499641 
L 549.871889 219.438008 
L 550.361426 223.824129 
L 550.850883 226.638652 
L 551.340443 228.25196 
L 551.830271 229.009579 
L 552.320509 229.206824 
L 555.03453 229.106256 
L 555.532574 229.419168 
L 556.030918 229.813693 
L 556.28 229.852118 
L 556.777994 229.568724 
L 557.275988 228.87672 
L 557.774336 227.587875 
L 558.522925 224.454026 
L 559.02308 221.431558 
L 559.524826 216.884413 
L 560.791204 202.592666 
L 561.047106 203.030437 
L 561.562142 206.877282 
L 562.343097 214.065173 
L 562.869701 217.025011 
L 563.401459 218.607165 
L 563.669252 219.002944 
L 563.938249 219.093046 
L 564.208414 218.767687 
L 564.479716 217.867097 
L 564.752127 216.196997 
L 565.300173 209.831896 
L 566.129886 194.166236 
L 566.688225 183.500235 
L 566.969085 179.683187 
L 567.251128 177.429952 
L 567.534422 176.6797 
L 567.819017 177.460745 
L 568.104865 180.082755 
L 568.967578 194.329966 
L 569.831396 208.145886 
L 570.404269 214.927709 
L 570.973115 219.170828 
L 571.255779 220.39321 
L 571.537156 220.951408 
L 571.817174 220.738049 
L 572.095769 219.600892 
L 572.372883 217.349952 
L 572.648444 213.772953 
L 573.194425 202.14404 
L 574.261976 172.019009 
L 574.523503 168.368044 
L 574.782957 167.018612 
L 575.040398 167.33017 
L 575.295899 168.645778 
L 575.80135 173.005817 
L 577.757088 193.896985 
L 578.231428 197.576759 
L 579.400149 205.059731 
L 579.864158 211.295841 
L 580.559314 221.711104 
L 581.022607 225.55105 
L 581.254241 226.401548 
L 581.485931 226.780121 
L 582.416137 227.329146 
L 583.121503 228.654879 
L 583.358678 228.596975 
L 583.59708 226.988482 
L 583.836823 221.569277 
L 584.078012 208.664454 
L 584.56522 150.2425 
L 584.811591 120.804485 
L 585.06013 111.48755 
L 585.310976 113.417211 
L 585.819746 124.85118 
L 586.077706 126.676843 
L 586.600737 125.053526 
L 586.865779 125.414939 
L 587.133158 127.346968 
L 587.94924 135.846669 
L 588.225887 136.991137 
L 588.504829 137.107024 
L 589.355339 135.956365 
L 589.933653 135.749695 
L 591.117042 135.468043 
L 591.721939 135.630754 
L 593.588289 136.485529 
L 594.874579 136.75426 
L 597.887073 137.024645 
L 602.145641 137.270458 
L 609.808511 137.401718 
L 636.484618 137.547211 
L 636.916583 137.678531 
L 637.774511 138.250082 
L 638.200654 138.777423 
L 638.625051 139.806082 
L 639.047821 141.499122 
L 640.307693 147.645082 
L 640.725275 148.559104 
L 641.557631 149.523873 
L 642.38704 149.486219 
L 642.80094 151.199287 
L 643.214459 156.416748 
L 644.040689 174.161078 
L 645.278294 200.461214 
L 646.101826 212.353177 
L 646.513185 216.146831 
L 646.924442 218.768825 
L 647.335778 220.097283 
L 647.747355 219.790039 
L 648.159285 217.395451 
L 648.571671 212.220493 
L 648.984573 203.597665 
L 649.812073 176.810139 
L 650.642206 146.05758 
L 651.058428 133.906056 
L 651.89359 119.046372 
L 652.312654 114.115301 
L 652.732741 111.223733 
L 653.153856 110.511823 
L 653.576001 111.534445 
L 653.999181 113.79701 
L 654.423409 117.067407 
L 655.275092 126.646964 
L 656.561045 143.967021 
L 656.992021 147.263528 
L 657.424177 149.004486 
L 657.857518 149.363241 
L 658.292051 148.584828 
L 658.727781 146.960869 
L 660.042216 139.914839 
L 660.924603 135.790348 
L 661.36764 134.449501 
L 661.811909 133.683178 
L 662.257414 133.474082 
L 662.704155 133.727466 
L 663.152134 134.302934 
L 665.410636 138.086156 
L 665.866059 138.620434 
L 666.322722 139.38105 
L 667.239765 141.744865 
L 668.624593 146.032579 
L 669.088662 146.874989 
L 669.553959 147.00257 
L 670.020481 146.418657 
L 670.957196 143.976871 
L 672.37141 140.175913 
L 673.79653 137.095826 
L 674.752627 135.614268 
L 675.232471 135.206303 
L 675.713507 135.060546 
L 676.195731 135.157978 
L 677.163729 135.854286 
L 678.624547 137.181976 
L 679.513182 137.740562 
L 679.513182 137.740562 
" clip-path="url(#p9d1eebdccc)" style="fill: none; stroke: #2ca02c; stroke-width: 0.9; stroke-linecap: square"/>
   </g>
   <g id="line2d_30">
    <path d="M 85.776818 137.462552 
L 93.784504 137.385285 
L 95.317214 137.220126 
L 96.859583 137.418295 
L 98.930939 137.61686 
L 103.652503 137.440578 
L 105.777577 137.278981 
L 111.703638 137.500564 
L 115.53557 137.48737 
L 123.154728 137.45716 
L 141.759662 137.625213 
L 142.471884 137.914941 
L 143.503125 138.588579 
L 145.122654 139.992451 
L 145.735811 140.975313 
L 146.329282 142.710987 
L 146.903172 145.349515 
L 147.457573 148.706002 
L 149.007643 160.658103 
L 150.183204 168.976652 
L 151.270389 181.281777 
L 151.683709 183.150182 
L 151.886177 183.086666 
L 152.085988 182.177921 
L 152.478394 177.93813 
L 153.051838 171.758983 
L 153.788111 166.730728 
L 154.483801 163.555143 
L 155.594334 159.849438 
L 156.183971 158.636276 
L 156.61325 158.169178 
L 157.036384 158.057055 
L 157.597178 158.065432 
L 159.598315 157.340253 
L 161.325325 157.102593 
L 161.992233 156.851197 
L 162.161411 157.16246 
L 162.331795 158.013411 
L 162.503672 141.668913 
L 162.677485 114.553139 
L 162.853704 106.61566 
L 163.032783 104.240382 
L 163.215168 107.986458 
L 163.590539 121.562822 
L 163.783426 121.036066 
L 164.179401 114.557228 
L 164.382457 114.038564 
L 164.588852 115.638066 
L 165.011455 120.549878 
L 165.227562 121.811148 
L 165.446812 122.030232 
L 165.894598 121.517781 
L 166.12307 121.679542 
L 166.589052 123.124178 
L 167.310357 125.260007 
L 168.312502 128.118984 
L 169.093131 130.031816 
L 169.897642 131.547692 
L 170.725245 132.711005 
L 171.863407 133.85228 
L 173.039818 134.692957 
L 174.253092 135.273825 
L 175.819615 135.793295 
L 176.785298 135.891035 
L 178.099375 135.777164 
L 179.75798 135.399069 
L 180.418931 135.656299 
L 183.005697 137.189741 
L 183.940576 137.37008 
L 185.443479 137.604078 
L 185.735131 137.844153 
L 187.147452 139.968318 
L 187.420745 140.850437 
L 187.958208 143.976038 
L 188.996731 151.682226 
L 189.498166 154.243784 
L 189.744653 156.08321 
L 190.229713 162.8611 
L 190.939219 176.806915 
L 191.401148 181.1862 
L 191.628963 181.68317 
L 191.85474 181.34012 
L 192.078518 180.310586 
L 192.520218 176.699011 
L 193.169495 170.575295 
L 193.804586 166.539735 
L 194.630102 162.69027 
L 195.433493 159.715675 
L 196.220004 157.603202 
L 196.609062 157.042179 
L 196.996479 156.747985 
L 197.57688 156.636271 
L 198.947121 156.696822 
L 199.750845 156.480367 
L 199.954914 156.557799 
L 200.16042 156.832483 
L 200.576249 158.272705 
L 200.786858 152.001392 
L 201.214391 121.868356 
L 201.431845 121.04124 
L 201.875421 130.119504 
L 202.101705 131.033985 
L 202.56311 126.045787 
L 202.798092 125.49009 
L 203.035447 127.560525 
L 203.75738 140.113055 
L 204.243706 143.514742 
L 204.731698 146.815434 
L 205.949404 157.959368 
L 206.432904 160.473324 
L 207.390436 164.42418 
L 208.098922 168.480558 
L 209.029454 173.942143 
L 209.488863 175.147191 
L 209.717183 175.306849 
L 209.944607 175.180578 
L 210.171151 174.779905 
L 210.621649 173.286312 
L 213.042449 163.161045 
L 214.119523 160.02447 
L 214.977809 158.106003 
L 215.623171 157.069762 
L 216.272351 156.517309 
L 216.926892 156.296505 
L 218.034396 156.20155 
L 218.484793 156.273768 
L 218.93989 156.56301 
L 219.400118 157.30275 
L 219.866279 158.812748 
L 220.339336 160.025812 
L 220.578627 160.6538 
L 221.061499 163.435785 
L 221.548127 166.194025 
L 221.792159 166.783571 
L 222.036339 166.557198 
L 222.280448 165.413639 
L 222.524305 163.245288 
L 223.010664 155.354215 
L 223.494481 145.811962 
L 223.975323 141.079419 
L 224.214655 138.686165 
L 225.4014 120.995478 
L 226.106319 115.976647 
L 226.340267 113.412786 
L 226.806932 104.775555 
L 229.129659 54.456919 
L 229.589094 48.866128 
L 230.045152 45.549849 
L 230.497719 43.563887 
L 230.946997 42.305004 
L 231.393301 41.493028 
L 232.057974 40.80324 
L 232.498251 40.67455 
L 232.936317 40.966002 
L 233.372355 41.709378 
L 234.023451 43.403968 
L 234.887813 45.610039 
L 235.96505 47.689651 
L 237.04186 50.159979 
L 237.473129 50.779968 
L 237.904692 50.999096 
L 238.120537 50.878705 
L 238.552288 50.237404 
L 239.41589 48.846472 
L 240.06353 48.253764 
L 240.495401 48.030415 
L 240.927789 48.132365 
L 241.361343 48.627553 
L 242.454702 50.388589 
L 242.897662 50.646361 
L 244.715977 51.163594 
L 244.949406 51.283751 
L 245.184317 51.575819 
L 245.420753 52.198587 
L 245.658772 53.401065 
L 245.898442 55.559677 
L 246.139841 59.214089 
L 246.38306 65.095612 
L 246.875284 86.053145 
L 247.375855 111.133916 
L 247.629497 117.367256 
L 247.885409 117.809452 
L 249.739163 97.210137 
L 250.287962 91.622416 
L 250.565425 89.63472 
L 250.844934 88.628778 
L 251.126488 88.768265 
L 251.410079 89.953876 
L 251.983356 93.302874 
L 252.273061 94.413829 
L 252.564826 94.927649 
L 252.858653 94.965452 
L 253.154538 94.555996 
L 254.054484 91.744833 
L 254.358583 92.268992 
L 254.66475 94.051135 
L 255.283304 100.814976 
L 255.910204 111.051728 
L 257.513985 140.878477 
L 257.840904 142.465686 
L 258.169845 142.885467 
L 258.833747 143.146993 
L 259.168682 143.106727 
L 259.505588 142.658575 
L 260.185266 140.625069 
L 260.872685 138.351856 
L 261.219269 137.571654 
L 261.567754 137.118528 
L 261.918128 136.918379 
L 262.270379 136.904917 
L 262.98047 137.171097 
L 264.787771 138.052567 
L 265.523293 138.152865 
L 266.639812 138.012854 
L 268.919498 137.614475 
L 270.865498 137.571834 
L 276.802648 137.72702 
L 277.963651 138.414486 
L 278.34712 138.964137 
L 278.728842 140.005543 
L 279.487301 142.882621 
L 280.23958 144.636101 
L 280.986206 146.228749 
L 281.357565 147.270524 
L 281.727726 148.824116 
L 282.096782 151.497879 
L 282.832 161.331192 
L 283.564003 171.748017 
L 283.928993 175.392976 
L 284.293386 177.616014 
L 284.657222 178.307053 
L 285.020529 177.609138 
L 285.383333 175.864804 
L 286.829925 166.858219 
L 287.910375 162.288511 
L 288.62888 160.126147 
L 289.346216 158.771852 
L 289.704359 158.438243 
L 290.418972 158.223703 
L 291.131329 158.277475 
L 291.841908 158.537781 
L 292.551188 159.054661 
L 293.25971 159.894765 
L 293.968095 161.111598 
L 295.743125 164.981792 
L 296.456953 165.876206 
L 296.81496 166.085259 
L 297.173743 166.121892 
L 297.533318 165.987658 
L 297.893683 165.680499 
L 298.616777 164.523929 
L 300.440091 160.977544 
L 300.808011 160.539537 
L 301.177197 160.326534 
L 301.547666 160.474451 
L 301.919443 160.936176 
L 302.292538 160.523169 
L 302.666951 157.22605 
L 303.419848 146.388813 
L 303.798444 144.993474 
L 304.560164 146.908668 
L 304.943324 147.233604 
L 305.328024 146.760965 
L 306.102035 143.949204 
L 306.491318 143.368069 
L 306.8821 144.338999 
L 307.274371 146.526506 
L 308.063347 152.630973 
L 308.858169 159.62246 
L 309.257763 162.116964 
L 309.658807 163.680481 
L 310.061305 164.282631 
L 310.465265 163.753256 
L 310.870698 162.071657 
L 311.686004 156.099058 
L 314.167425 134.398674 
L 315.006258 130.818531 
L 315.427591 129.847064 
L 315.849821 129.569837 
L 316.272622 129.98384 
L 316.695688 130.9824 
L 318.805506 137.915299 
L 319.224697 138.662271 
L 319.64247 139.095261 
L 320.058638 139.251892 
L 320.473024 139.180789 
L 321.295784 138.579207 
L 322.913108 137.050561 
L 323.705569 136.668285 
L 324.486 136.630274 
L 325.632343 136.95375 
L 327.111784 137.412268 
L 328.530883 137.512862 
L 330.857919 137.527167 
L 332.094255 138.158744 
L 333.261815 140.120928 
L 333.543082 140.749949 
L 334.093115 143.093112 
L 334.887585 147.132054 
L 335.397539 151.322714 
L 336.134704 159.824588 
L 337.296884 175.972919 
L 337.959126 181.595277 
L 338.174611 182.439194 
L 338.387592 182.450168 
L 338.598124 181.516599 
L 339.01222 177.344814 
L 339.617907 171.440271 
L 340.205233 167.810362 
L 340.772165 165.341221 
L 341.316042 163.844242 
L 341.834932 163.133204 
L 343.974101 161.270616 
L 344.659849 160.577722 
L 345.18888 160.302977 
L 346.602928 159.840794 
L 346.995697 159.737705 
L 347.399324 159.864494 
L 347.96054 160.389504 
L 349.350229 161.99037 
L 349.51705 161.722328 
L 349.85872 160.5305 
L 350.211472 158.624906 
L 350.575735 155.308372 
L 351.73272 140.394248 
L 352.332656 138.767073 
L 352.533805 138.349504 
L 352.735149 138.236686 
L 352.936495 138.612244 
L 353.338633 140.742143 
L 354.33867 148.741885 
L 354.935634 156.841422 
L 355.728727 167.612705 
L 356.321865 173.015984 
L 356.717086 174.529668 
L 356.914825 174.427334 
L 357.112729 173.80068 
L 357.509201 171.304116 
L 358.305435 165.255237 
L 359.105836 161.131034 
L 359.709045 159.058279 
L 360.315971 157.694803 
L 360.928401 156.88211 
L 361.547643 156.546594 
L 362.174534 156.509091 
L 362.810409 156.685398 
L 363.456818 157.051026 
L 363.894951 157.439373 
L 364.339841 158.127598 
L 365.021674 159.919994 
L 365.2533 158.887752 
L 365.487329 155.598362 
L 366.450352 135.54235 
L 366.948837 130.227207 
L 367.201656 129.386957 
L 367.45636 129.538924 
L 367.970075 130.943717 
L 368.228424 131.317105 
L 368.487385 131.35125 
L 369.266277 131.09809 
L 369.526232 130.99466 
L 369.786205 130.525503 
L 370.046111 129.440377 
L 371.341745 120.367479 
L 371.856837 118.487535 
L 372.113488 117.030056 
L 372.369511 114.540777 
L 372.879699 105.579425 
L 373.640468 92.005673 
L 374.395871 79.150049 
L 375.641381 56.023296 
L 376.134751 50.865797 
L 376.626257 47.731768 
L 377.116692 45.924782 
L 377.606802 45.114674 
L 377.851954 44.992081 
L 378.097266 45.033438 
L 378.342806 45.235931 
L 378.834881 46.0451 
L 379.577085 47.436474 
L 380.076015 47.861579 
L 380.832615 47.789165 
L 381.087395 48.289261 
L 381.343574 50.202421 
L 381.601184 54.913397 
L 381.860285 63.810716 
L 382.9142 119.86488 
L 383.182893 122.959109 
L 383.453835 121.270304 
L 383.727033 118.492729 
L 384.002483 116.905792 
L 384.280175 116.864501 
L 384.560092 117.493497 
L 384.842219 117.726277 
L 385.126537 117.045882 
L 385.413028 115.603536 
L 385.992417 110.673179 
L 386.877263 101.129726 
L 387.176379 99.19045 
L 387.477565 98.125263 
L 387.780824 97.95807 
L 388.086166 98.894625 
L 388.393603 101.285122 
L 389.014793 110.696884 
L 390.28236 133.735162 
L 390.92859 140.62825 
L 391.254768 142.388497 
L 391.58297 143.368701 
L 391.913182 143.647072 
L 392.245392 143.381379 
L 392.915755 141.927762 
L 394.27992 138.24559 
L 394.625777 137.687061 
L 394.973537 137.353154 
L 395.323188 137.19282 
L 396.028122 137.273337 
L 398.187165 138.146755 
L 399.291035 138.139198 
L 403.083568 137.611732 
L 406.222197 137.485717 
L 407.008875 137.254603 
L 409.341995 136.113834 
L 410.105674 135.968048 
L 410.484156 135.777147 
L 410.860214 135.398349 
L 411.233714 134.693832 
L 411.972556 132.197427 
L 413.058731 128.093826 
L 413.414489 127.049338 
L 413.766944 126.457599 
L 414.116022 126.509651 
L 414.461654 127.175582 
L 415.142353 129.585187 
L 416.136358 134.008008 
L 416.780723 135.796781 
L 417.097392 136.364731 
L 417.410386 136.617667 
L 417.719708 136.330108 
L 418.025366 135.414033 
L 418.920451 130.722099 
L 420.340272 122.676779 
L 420.883605 115.992382 
L 422.433814 87.496265 
L 424.106759 57.472621 
L 425.009456 45.709408 
L 425.44861 41.905447 
L 425.879674 39.657405 
L 426.30264 38.585876 
L 426.717502 38.270057 
L 427.124181 38.438239 
L 427.912466 39.364111 
L 428.667771 40.118588 
L 429.392696 40.484702 
L 430.431417 40.830782 
L 432.233731 41.714102 
L 433.192737 41.551774 
L 433.352363 41.797446 
L 433.512147 42.303275 
L 433.832584 44.54076 
L 434.316811 51.546201 
L 434.808038 59.005332 
L 435.140935 61.739491 
L 435.309263 62.363481 
L 435.478919 62.554473 
L 435.649946 62.385513 
L 435.996238 61.308402 
L 436.706454 58.777366 
L 437.070715 58.160189 
L 437.441333 58.052266 
L 437.818569 58.394149 
L 438.202797 59.234465 
L 438.59434 60.71205 
L 439.195917 64.349936 
L 439.815529 69.953296 
L 440.454426 77.970134 
L 444.240096 132.178031 
L 444.760301 136.926712 
L 445.0242 138.191913 
L 445.290601 138.883571 
L 446.104638 139.995694 
L 446.380869 140.242658 
L 446.659511 140.208488 
L 448.088322 138.939903 
L 449.273101 138.471129 
L 450.493841 138.239753 
L 456.752717 137.695617 
L 462.940945 137.552914 
L 473.410458 137.367462 
L 474.14984 137.22289 
L 474.878059 136.698512 
L 475.594535 135.744582 
L 476.298786 134.182112 
L 478.663612 128.211873 
L 478.988927 126.039006 
L 479.630852 118.652158 
L 482.096131 84.259991 
L 484.142863 65.328282 
L 485.560693 48.079724 
L 486.119947 44.213167 
L 486.397956 43.110209 
L 486.674922 42.467671 
L 486.950888 42.16877 
L 487.225898 42.095674 
L 487.773226 42.314962 
L 488.588367 43.064222 
L 489.668091 44.081498 
L 490.475293 44.426221 
L 491.8216 44.828448 
L 492.362591 45.347402 
L 492.906769 46.158835 
L 493.455401 47.376612 
L 493.731803 48.411606 
L 494.009838 50.185659 
L 494.289658 53.520649 
L 494.571374 59.867185 
L 494.855053 71.226882 
L 495.428663 113.814313 
L 495.718882 139.88077 
L 496.011557 155.351871 
L 496.306673 160.098254 
L 496.604193 159.790163 
L 497.206323 157.179721 
L 497.817644 155.816362 
L 498.126672 154.545131 
L 498.751335 149.98237 
L 499.704541 141.07365 
L 500.026527 139.142412 
L 500.350611 138.106885 
L 500.676778 137.819619 
L 501.005008 138.013907 
L 502.667671 140.027049 
L 503.33632 140.358591 
L 504.003561 140.252257 
L 504.667483 139.786597 
L 505.978999 138.745269 
L 506.623957 138.490079 
L 507.575041 138.462902 
L 507.887509 138.609201 
L 508.505915 139.346814 
L 508.812022 139.770925 
L 509.11618 140.391052 
L 509.71898 142.954141 
L 510.904645 149.5683 
L 511.488704 153.016177 
L 511.778825 154.482027 
L 512.067773 156.88014 
L 512.927341 167.805684 
L 513.773283 179.588674 
L 514.051664 181.263146 
L 514.328053 181.001215 
L 514.602338 179.251045 
L 515.41275 171.886418 
L 516.205867 167.304729 
L 516.725612 165.281615 
L 517.238733 163.890728 
L 517.745836 163.007389 
L 518.24759 162.555363 
L 518.744774 162.459704 
L 519.238589 162.56677 
L 519.730431 162.862022 
L 520.713072 163.602594 
L 520.959105 163.613046 
L 521.205387 163.44946 
L 521.698867 162.551516 
L 522.691216 159.52236 
L 523.442713 157.592421 
L 523.948147 156.959368 
L 524.202345 156.843104 
L 524.457635 156.870846 
L 524.714107 157.062137 
L 524.97188 157.44259 
L 525.231094 158.05128 
L 525.754511 159.624825 
L 526.019085 159.053088 
L 526.825806 154.038734 
L 527.099191 154.234449 
L 527.652727 155.5578 
L 527.932863 155.710332 
L 528.215229 155.443198 
L 528.499817 154.660276 
L 529.075573 151.484541 
L 529.659431 148.028754 
L 529.953814 146.907147 
L 530.24938 146.240586 
L 530.545801 146.036558 
L 530.842773 146.332598 
L 531.437295 147.736764 
L 532.326993 150.219955 
L 532.916411 152.627302 
L 533.791787 157.740537 
L 534.653585 163.368425 
L 535.219389 165.961454 
L 535.778276 167.517886 
L 536.055278 167.865902 
L 536.330745 167.865086 
L 536.877336 167.440789 
L 537.148582 167.555319 
L 537.418534 168.208778 
L 537.954785 170.797075 
L 538.486602 173.35678 
L 539.014753 174.78632 
L 539.277741 175.046698 
L 539.540149 174.968578 
L 539.802079 174.506953 
L 540.324911 172.431616 
L 541.888951 164.41188 
L 542.407595 162.776775 
L 542.923149 161.667017 
L 543.43487 160.953498 
L 543.942622 160.530828 
L 544.446621 160.349577 
L 544.947201 160.456134 
L 545.196368 160.691956 
L 545.444881 161.097342 
L 545.940216 162.654499 
L 546.433836 164.130914 
L 546.680218 164.768729 
L 547.172469 167.11464 
L 547.910087 171.502365 
L 548.155756 172.386422 
L 548.401293 172.729091 
L 548.646689 172.449405 
L 548.89195 171.579771 
L 550.850883 161.72037 
L 551.585315 159.594367 
L 552.320509 158.294351 
L 553.057114 157.610672 
L 553.795946 157.28359 
L 554.785974 157.081319 
L 555.283444 157.217192 
L 555.781767 157.757099 
L 556.529017 158.611221 
L 558.772854 160.789085 
L 559.77658 162.042545 
L 561.304077 164.729123 
L 561.562142 164.78472 
L 561.82132 164.597192 
L 562.343097 163.705927 
L 563.938249 160.120935 
L 564.208414 159.853449 
L 564.479716 159.742143 
L 564.752127 159.799797 
L 565.025624 160.052312 
L 565.575742 161.260144 
L 566.129886 162.661824 
L 566.408507 162.970225 
L 566.969085 162.911004 
L 567.251128 163.091224 
L 567.534422 163.666193 
L 567.819017 164.771194 
L 568.967578 171.635614 
L 569.255806 171.87407 
L 569.543833 171.411495 
L 570.973115 167.049119 
L 571.537156 166.245439 
L 571.817174 166.122246 
L 572.095769 166.205543 
L 572.372883 166.537446 
L 572.92234 168.072862 
L 573.194425 168.980364 
L 573.464533 169.362743 
L 573.732515 168.631785 
L 574.523503 163.087067 
L 574.782957 162.77441 
L 575.040398 163.504532 
L 575.549528 166.665713 
L 576.546536 174.239262 
L 577.035258 175.888781 
L 577.517921 176.490048 
L 577.757088 176.393501 
L 577.994894 176.009066 
L 578.701207 173.913217 
L 579.632261 170.447979 
L 582.182719 158.492599 
L 582.65035 157.310848 
L 583.121503 156.67571 
L 583.358678 156.564792 
L 583.59708 156.642174 
L 583.836823 156.998475 
L 584.078012 157.825511 
L 584.320761 157.616389 
L 584.56522 146.044104 
L 584.811591 125.740855 
L 585.06013 117.997387 
L 585.310976 117.218897 
L 586.077706 126.439678 
L 586.600737 124.346806 
L 586.865779 124.564896 
L 587.133158 126.619728 
L 587.94924 135.785247 
L 588.225887 136.977014 
L 588.504829 137.098679 
L 589.355339 135.944297 
L 589.933653 135.739555 
L 591.117042 135.45484 
L 591.721939 135.617919 
L 593.588289 136.480801 
L 594.874579 136.752023 
L 597.887073 137.023943 
L 602.145641 137.270345 
L 609.808511 137.401714 
L 636.484618 137.547212 
L 636.916583 137.678536 
L 637.774511 138.250105 
L 638.200654 138.777439 
L 638.625051 139.805921 
L 639.047821 141.49777 
L 640.307693 147.600906 
L 640.725275 148.485875 
L 641.141881 149.031359 
L 641.557631 149.383287 
L 642.38704 149.289876 
L 642.80094 150.91297 
L 643.214459 155.817095 
L 644.453475 176.730511 
L 644.866027 179.62545 
L 645.278294 179.235917 
L 646.101826 172.94698 
L 646.924442 167.424175 
L 647.747355 163.698725 
L 648.159285 162.504339 
L 648.571671 161.841254 
L 648.984573 161.662764 
L 649.398022 161.191421 
L 649.812073 158.788212 
L 650.226781 152.930799 
L 651.47553 126.433394 
L 652.312654 114.833671 
L 652.732741 110.492371 
L 653.153856 107.982546 
L 653.576001 107.636659 
L 653.999181 109.473632 
L 654.423409 113.292291 
L 655.275092 125.279044 
L 656.131241 139.014935 
L 656.561045 144.181332 
L 656.992021 147.45734 
L 657.424177 149.028894 
L 657.857518 149.199778 
L 658.292051 148.308372 
L 658.727781 146.671104 
L 660.042216 139.851856 
L 660.924603 135.806172 
L 661.36764 134.470779 
L 661.811909 133.693244 
L 662.257414 133.467516 
L 662.704155 133.708647 
L 663.152134 134.280174 
L 665.410636 138.087777 
L 665.866059 138.622662 
L 666.322722 139.381845 
L 667.239765 141.728705 
L 668.624593 145.918685 
L 669.088662 146.713897 
L 669.553959 146.807659 
L 670.020481 146.215934 
L 670.957196 143.826687 
L 672.37141 140.127342 
L 673.79653 137.097077 
L 674.752627 135.619554 
L 675.232471 135.207248 
L 675.713507 135.056395 
L 676.195731 135.150313 
L 677.163729 135.846792 
L 678.624547 137.181027 
L 679.513182 137.740924 
L 679.513182 137.740924 
" clip-path="url(#p9d1eebdccc)" style="fill: none; stroke: #d62728; stroke-opacity: 0.8; stroke-width: 0.9; stroke-linecap: square"/>
   </g>
   <g id="patch_3">
    <path d="M 56.09 246.04 
L 56.09 28.37625 
" style="fill: none; stroke: #000000; stroke-width: 0.8; stroke-linejoin: miter; stroke-linecap: square"/>
   </g>
   <g id="patch_4">
    <path d="M 709.2 246.04 
L 709.2 28.37625 
" style="fill: none; stroke: #000000; stroke-width: 0.8; stroke-linejoin: miter; stroke-linecap: square"/>
   </g>
   <g id="patch_5">
    <path d="M 56.09 246.04 
L 709.2 246.04 
" style="fill: none; stroke: #000000; stroke-width: 0.8; stroke-linejoin: miter; stroke-linecap: square"/>
   </g>
   <g id="patch_6">
    <path d="M 56.09 28.37625 
L 709.2 28.37625 
" style="fill: none; stroke: #000000; stroke-width: 0.8; stroke-linejoin: miter; stroke-linecap: square"/>
   </g>
   <g id="text_17">
    <!-- steering-link loads over one Gelleråsen Arena lap -->
    <g transform="translate(234.435625 22.37625) scale(0.12 -0.12)">
     <defs>
      <path id="DejaVuSans-67" d="M 2906 1791 
Q 2906 2416 2648 2759 
Q 2391 3103 1925 3103 
Q 1463 3103 1205 2759 
Q 947 2416 947 1791 
Q 947 1169 1205 825 
Q 1463 481 1925 481 
Q 2391 481 2648 825 
Q 2906 1169 2906 1791 
z
M 3481 434 
Q 3481 -459 3084 -895 
Q 2688 -1331 1869 -1331 
Q 1566 -1331 1297 -1286 
Q 1028 -1241 775 -1147 
L 775 -588 
Q 1028 -725 1275 -790 
Q 1522 -856 1778 -856 
Q 2344 -856 2625 -561 
Q 2906 -266 2906 331 
L 2906 616 
Q 2728 306 2450 153 
Q 2172 0 1784 0 
Q 1141 0 747 490 
Q 353 981 353 1791 
Q 353 2603 747 3093 
Q 1141 3584 1784 3584 
Q 2172 3584 2450 3431 
Q 2728 3278 2906 2969 
L 2906 3500 
L 3481 3500 
L 3481 434 
z
" transform="scale(0.015625)"/>
      <path id="DejaVuSans-6c" d="M 603 4863 
L 1178 4863 
L 1178 0 
L 603 0 
L 603 4863 
z
" transform="scale(0.015625)"/>
      <path id="DejaVuSans-76" d="M 191 3500 
L 800 3500 
L 1894 563 
L 2988 3500 
L 3597 3500 
L 2284 0 
L 1503 0 
L 191 3500 
z
" transform="scale(0.015625)"/>
      <path id="DejaVuSans-47" d="M 3809 666 
L 3809 1919 
L 2778 1919 
L 2778 2438 
L 4434 2438 
L 4434 434 
Q 4069 175 3628 42 
Q 3188 -91 2688 -91 
Q 1594 -91 976 548 
Q 359 1188 359 2328 
Q 359 3472 976 4111 
Q 1594 4750 2688 4750 
Q 3144 4750 3555 4637 
Q 3966 4525 4313 4306 
L 4313 3634 
Q 3963 3931 3569 4081 
Q 3175 4231 2741 4231 
Q 1884 4231 1454 3753 
Q 1025 3275 1025 2328 
Q 1025 1384 1454 906 
Q 1884 428 2741 428 
Q 3075 428 3337 486 
Q 3600 544 3809 666 
z
" transform="scale(0.015625)"/>
      <path id="DejaVuSans-e5" d="M 2194 1759 
Q 1497 1759 1228 1600 
Q 959 1441 959 1056 
Q 959 750 1161 570 
Q 1363 391 1709 391 
Q 2188 391 2477 730 
Q 2766 1069 2766 1631 
L 2766 1759 
L 2194 1759 
z
M 3341 1997 
L 3341 0 
L 2766 0 
L 2766 531 
Q 2569 213 2275 61 
Q 1981 -91 1556 -91 
Q 1019 -91 701 211 
Q 384 513 384 1019 
Q 384 1609 779 1909 
Q 1175 2209 1959 2209 
L 2766 2209 
L 2766 2266 
Q 2766 2663 2505 2880 
Q 2244 3097 1772 3097 
Q 1472 3097 1187 3025 
Q 903 2953 641 2809 
L 641 3341 
Q 956 3463 1253 3523 
Q 1550 3584 1831 3584 
Q 2591 3584 2966 3190 
Q 3341 2797 3341 1997 
z
M 2331 4763 
Q 2331 4959 2193 5096 
Q 2056 5234 1856 5234 
Q 1653 5234 1517 5098 
Q 1381 4963 1381 4763 
Q 1381 4559 1517 4423 
Q 1653 4288 1856 4288 
Q 2056 4288 2193 4425 
Q 2331 4563 2331 4763 
z
M 2712 4763 
Q 2712 4403 2463 4153 
Q 2215 3903 1856 3903 
Q 1497 3903 1248 4153 
Q 1000 4403 1000 4763 
Q 1000 5122 1248 5370 
Q 1497 5619 1856 5619 
Q 2215 5619 2463 5370 
Q 2712 5122 2712 4763 
z
" transform="scale(0.015625)"/>
      <path id="DejaVuSans-41" d="M 2188 4044 
L 1331 1722 
L 3047 1722 
L 2188 4044 
z
M 1831 4666 
L 2547 4666 
L 4325 0 
L 3669 0 
L 3244 1197 
L 1141 1197 
L 716 0 
L 50 0 
L 1831 4666 
z
" transform="scale(0.015625)"/>
      <path id="DejaVuSans-70" d="M 1159 525 
L 1159 -1331 
L 581 -1331 
L 581 3500 
L 1159 3500 
L 1159 2969 
Q 1341 3281 1617 3432 
Q 1894 3584 2278 3584 
Q 2916 3584 3314 3078 
Q 3713 2572 3713 1747 
Q 3713 922 3314 415 
Q 2916 -91 2278 -91 
Q 1894 -91 1617 61 
Q 1341 213 1159 525 
z
M 3116 1747 
Q 3116 2381 2855 2742 
Q 2594 3103 2138 3103 
Q 1681 3103 1420 2742 
Q 1159 2381 1159 1747 
Q 1159 1113 1420 752 
Q 1681 391 2138 391 
Q 2594 391 2855 752 
Q 3116 1113 3116 1747 
z
" transform="scale(0.015625)"/>
     </defs>
     <use xlink:href="#DejaVuSans-73"/>
     <use xlink:href="#DejaVuSans-74" transform="translate(52.099609 0)"/>
     <use xlink:href="#DejaVuSans-65" transform="translate(91.308594 0)"/>
     <use xlink:href="#DejaVuSans-65" transform="translate(152.832031 0)"/>
     <use xlink:href="#DejaVuSans-72" transform="translate(214.355469 0)"/>
     <use xlink:href="#DejaVuSans-69" transform="translate(255.46875 0)"/>
     <use xlink:href="#DejaVuSans-6e" transform="translate(283.251953 0)"/>
     <use xlink:href="#DejaVuSans-67" transform="translate(346.630859 0)"/>
     <use xlink:href="#DejaVuSans-2d" transform="translate(410.107422 0)"/>
     <use xlink:href="#DejaVuSans-6c" transform="translate(446.191406 0)"/>
     <use xlink:href="#DejaVuSans-69" transform="translate(473.974609 0)"/>
     <use xlink:href="#DejaVuSans-6e" transform="translate(501.757812 0)"/>
     <use xlink:href="#DejaVuSans-6b" transform="translate(565.136719 0)"/>
     <use xlink:href="#DejaVuSans-20" transform="translate(623.046875 0)"/>
     <use xlink:href="#DejaVuSans-6c" transform="translate(654.833984 0)"/>
     <use xlink:href="#DejaVuSans-6f" transform="translate(682.617188 0)"/>
     <use xlink:href="#DejaVuSans-61" transform="translate(743.798828 0)"/>
     <use xlink:href="#DejaVuSans-64" transform="translate(805.078125 0)"/>
     <use xlink:href="#DejaVuSans-73" transform="translate(868.554688 0)"/>
     <use xlink:href="#DejaVuSans-20" transform="translate(920.654297 0)"/>
     <use xlink:href="#DejaVuSans-6f" transform="translate(952.441406 0)"/>
     <use xlink:href="#DejaVuSans-76" transform="translate(1013.623047 0)"/>
     <use xlink:href="#DejaVuSans-65" transform="translate(1072.802734 0)"/>
     <use xlink:href="#DejaVuSans-72" transform="translate(1134.326172 0)"/>
     <use xlink:href="#DejaVuSans-20" transform="translate(1175.439453 0)"/>
     <use xlink:href="#DejaVuSans-6f" transform="translate(1207.226562 0)"/>
     <use xlink:href="#DejaVuSans-6e" transform="translate(1268.408203 0)"/>
     <use xlink:href="#DejaVuSans-65" transform="translate(1331.787109 0)"/>
     <use xlink:href="#DejaVuSans-20" transform="translate(1393.310547 0)"/>
     <use xlink:href="#DejaVuSans-47" transform="translate(1425.097656 0)"/>
     <use xlink:href="#DejaVuSans-65" transform="translate(1502.587891 0)"/>
     <use xlink:href="#DejaVuSans-6c" transform="translate(1564.111328 0)"/>
     <use xlink:href="#DejaVuSans-6c" transform="translate(1591.894531 0)"/>
     <use xlink:href="#DejaVuSans-65" transform="translate(1619.677734 0)"/>
     <use xlink:href="#DejaVuSans-72" transform="translate(1681.201172 0)"/>
     <use xlink:href="#DejaVuSans-e5" transform="translate(1722.314453 0)"/>
     <use xlink:href="#DejaVuSans-73" transform="translate(1783.59375 0)"/>
     <use xlink:href="#DejaVuSans-65" transform="translate(1835.693359 0)"/>
     <use xlink:href="#DejaVuSans-6e" transform="translate(1897.216797 0)"/>
     <use xlink:href="#DejaVuSans-20" transform="translate(1960.595703 0)"/>
     <use xlink:href="#DejaVuSans-41" transform="translate(1992.382812 0)"/>
     <use xlink:href="#DejaVuSans-72" transform="translate(2060.791016 0)"/>
     <use xlink:href="#DejaVuSans-65" transform="translate(2099.654297 0)"/>
     <use xlink:href="#DejaVuSans-6e" transform="translate(2161.177734 0)"/>
     <use xlink:href="#DejaVuSans-61" transform="translate(2224.556641 0)"/>
     <use xlink:href="#DejaVuSans-20" transform="translate(2285.835938 0)"/>
     <use xlink:href="#DejaVuSans-6c" transform="translate(2317.623047 0)"/>
     <use xlink:href="#DejaVuSans-61" transform="translate(2345.40625 0)"/>
     <use xlink:href="#DejaVuSans-70" transform="translate(2406.685547 0)"/>
    </g>
   </g>
   <g id="legend_1">
    <g id="patch_7">
     <path d="M 630.755 58.26125 
L 703.6 58.26125 
Q 705.2 58.26125 705.2 56.66125 
L 705.2 33.97625 
Q 705.2 32.37625 703.6 32.37625 
L 630.755 32.37625 
Q 629.155 32.37625 629.155 33.97625 
L 629.155 56.66125 
Q 629.155 58.26125 630.755 58.26125 
z
" style="fill: #ffffff; opacity: 0.8; stroke: #cccccc; stroke-linejoin: miter"/>
    </g>
    <g id="line2d_31">
     <path d="M 632.355 38.855 
L 640.355 38.855 
L 648.355 38.855 
" style="fill: none; stroke: #2ca02c; stroke-width: 0.9; stroke-linecap: square"/>
    </g>
    <g id="text_18">
     <!-- tie rod left -->
     <g transform="translate(654.755 41.655) scale(0.08 -0.08)">
      <use xlink:href="#DejaVuSans-74"/>
      <use xlink:href="#DejaVuSans-69" transform="translate(39.208984 0)"/>
      <use xlink:href="#DejaVuSans-65" transform="translate(66.992188 0)"/>
      <use xlink:href="#DejaVuSans-20" transform="translate(128.515625 0)"/>
      <use xlink:href="#DejaVuSans-72" transform="translate(160.302734 0)"/>
      <use xlink:href="#DejaVuSans-6f" transform="translate(199.166016 0)"/>
      <use xlink:href="#DejaVuSans-64" transform="translate(260.347656 0)"/>
      <use xlink:href="#DejaVuSans-20" transform="translate(323.824219 0)"/>
      <use xlink:href="#DejaVuSans-6c" transform="translate(355.611328 0)"/>
      <use xlink:href="#DejaVuSans-65" transform="translate(383.394531 0)"/>
      <use xlink:href="#DejaVuSans-66" transform="translate(444.917969 0)"/>
      <use xlink:href="#DejaVuSans-74" transform="translate(478.373047 0)"/>
     </g>
    </g>
    <g id="line2d_32">
     <path d="M 632.355 50.5975 
L 640.355 50.5975 
L 648.355 50.5975 
" style="fill: none; stroke: #d62728; stroke-opacity: 0.8; stroke-width: 0.9; stroke-linecap: square"/>
    </g>
    <g id="text_19">
     <!-- tie rod right -->
     <g transform="translate(654.755 53.3975) scale(0.08 -0.08)">
      <defs>
       <path id="DejaVuSans-68" d="M 3513 2113 
L 3513 0 
L 2938 0 
L 2938 2094 
Q 2938 2591 2744 2837 
Q 2550 3084 2163 3084 
Q 1697 3084 1428 2787 
Q 1159 2491 1159 1978 
L 1159 0 
L 581 0 
L 581 4863 
L 1159 4863 
L 1159 2956 
Q 1366 3272 1645 3428 
Q 1925 3584 2291 3584 
Q 2894 3584 3203 3211 
Q 3513 2838 3513 2113 
z
" transform="scale(0.015625)"/>
      </defs>
      <use xlink:href="#DejaVuSans-74"/>
      <use xlink:href="#DejaVuSans-69" transform="translate(39.208984 0)"/>
      <use xlink:href="#DejaVuSans-65" transform="translate(66.992188 0)"/>
      <use xlink:href="#DejaVuSans-20" transform="translate(128.515625 0)"/>
      <use xlink:href="#DejaVuSans-72" transform="translate(160.302734 0)"/>
      <use xlink:href="#DejaVuSans-6f" transform="translate(199.166016 0)"/>
      <use xlink:href="#DejaVuSans-64" transform="translate(260.347656 0)"/>
      <use xlink:href="#DejaVuSans-20" transform="translate(323.824219 0)"/>
      <use xlink:href="#DejaVuSans-72" transform="translate(355.611328 0)"/>
      <use xlink:href="#DejaVuSans-69" transform="translate(396.724609 0)"/>
      <use xlink:href="#DejaVuSans-67" transform="translate(424.507812 0)"/>
      <use xlink:href="#DejaVuSans-68" transform="translate(487.984375 0)"/>
      <use xlink:href="#DejaVuSans-74" transform="translate(551.363281 0)"/>
     </g>
    </g>
   </g>
  </g>
 </g>
 <defs>
  <clipPath id="p9d1eebdccc">
   <rect x="56.09" y="28.37625" width="653.11" height="217.66375"/>
  </clipPath>
 </defs>
</svg>
