<?xml version="1.0" encoding="utf-8" standalone="no"?>
<!DOCTYPE svg PUBLIC "-//W3C//DTD SVG 1.1//EN"
  "http://www.w3.org/Graphics/SVG/1.1/DTD/svg11.dtd">
<svg xmlns:xlink="http://www.w3.org/1999/xlink" width="720pt" height="288pt" viewBox="0 0 720 288" xmlns="http://www.w3.org/2000/svg" version="1.1">
 <metadata>
  <rdf:RDF xmlns:dc="http://purl.org/dc/elements/1.1/" xmlns:cc="http://creativecommons.org/ns#" xmlns:rdf="http://www.w3.org/1999/02/22-rdf-syntax-ns#">
   <cc:Work>
    <dc:type rdf:resource="http://purl.org/dc/dcmitype/StillImage"/>
    <dc:date>2026-07-07T18:39:04.444161</dc:date>
    <dc:format>image/svg+xml</dc:format>
    <dc:creator>
     <cc:Agent>
      <dc:title>Matplotlib v3.10.8, https://matplotlib.org/</dc:title>
     </cc:Agent>
    </dc:creator>
   </cc:Work>
  </rdf:RDF>
 </metadata>
 <defs>
  <style type="text/css">*{stroke-linejoin: round; stroke-linecap: butt}</style>
 </defs>
 <g id="figure_1">
  <g id="patch_1">
   <path d="M 0 288 
L 720 288 
L 720 0 
L 0 0 
z
" style="fill: #ffffff"/>
  </g>
  <g id="axes_1">
   <g id="patch_2">
    <path d="M 56.09 246.04 
L 709.2 246.04 
L 709.2 28.37625 
L 56.09 28.37625 
z
" style="fill: #ffffff"/>
   </g>
   <g id="matplotlib.axis_1">
    <g id="xtick_1">
     <g id="line2d_1">
      <path d="M 85.776818 246.04 
L 85.776818 28.37625 
" clip-path="url(#p65d06f1d9c)" style="fill: none; stroke: #b0b0b0; stroke-opacity: 0.3; stroke-width: 0.8; stroke-linecap: square"/>
     </g>
     <g id="line2d_2">
      <defs>
       <path id="m997b2addfd" d="M 0 0 
L 0 3.5 
" style="stroke: #000000; stroke-width: 0.8"/>
      </defs>
      <g>
       <use xlink:href="#m997b2addfd" x="85.776818" y="246.04" style="stroke: #000000; stroke-width: 0.8"/>
      </g>
     </g>
     <g id="text_1">
      <!-- 0.0 -->
      <g transform="translate(77.825256 260.638438) scale(0.1 -0.1)">
       <defs>
        <path id="DejaVuSans-30" d="M 2034 4250 
Q 1547 4250 1301 3770 
Q 1056 3291 1056 2328 
Q 1056 1369 1301 889 
Q 1547 409 2034 409 
Q 2525 409 2770 889 
Q 3016 1369 3016 2328 
Q 3016 3291 2770 3770 
Q 2525 4250 2034 4250 
z
M 2034 4750 
Q 2819 4750 3233 4129 
Q 3647 3509 3647 2328 
Q 3647 1150 3233 529 
Q 2819 -91 2034 -91 
Q 1250 -91 836 529 
Q 422 1150 422 2328 
Q 422 3509 836 4129 
Q 1250 4750 2034 4750 
z
" transform="scale(0.015625)"/>
        <path id="DejaVuSans-2e" d="M 684 794 
L 1344 794 
L 1344 0 
L 684 0 
L 684 794 
z
" transform="scale(0.015625)"/>
       </defs>
       <use xlink:href="#DejaVuSans-30"/>
       <use xlink:href="#DejaVuSans-2e" transform="translate(63.623047 0)"/>
       <use xlink:href="#DejaVuSans-30" transform="translate(95.410156 0)"/>
      </g>
     </g>
    </g>
    <g id="xtick_2">
     <g id="line2d_3">
      <path d="M 213.188055 246.04 
L 213.188055 28.37625 
" clip-path="url(#p65d06f1d9c)" style="fill: none; stroke: #b0b0b0; stroke-opacity: 0.3; stroke-width: 0.8; stroke-linecap: square"/>
     </g>
     <g id="line2d_4">
      <g>
       <use xlink:href="#m997b2addfd" x="213.188055" y="246.04" style="stroke: #000000; stroke-width: 0.8"/>
      </g>
     </g>
     <g id="text_2">
      <!-- 0.5 -->
      <g transform="translate(205.236492 260.638438) scale(0.1 -0.1)">
       <defs>
        <path id="DejaVuSans-35" d="M 691 4666 
L 3169 4666 
L 3169 4134 
L 1269 4134 
L 1269 2991 
Q 1406 3038 1543 3061 
Q 1681 3084 1819 3084 
Q 2600 3084 3056 2656 
Q 3513 2228 3513 1497 
Q 3513 744 3044 326 
Q 2575 -91 1722 -91 
Q 1428 -91 1123 -41 
Q 819 9 494 109 
L 494 744 
Q 775 591 1075 516 
Q 1375 441 1709 441 
Q 2250 441 2565 725 
Q 2881 1009 2881 1497 
Q 2881 1984 2565 2268 
Q 2250 2553 1709 2553 
Q 1456 2553 1204 2497 
Q 953 2441 691 2322 
L 691 4666 
z
" transform="scale(0.015625)"/>
       </defs>
       <use xlink:href="#DejaVuSans-30"/>
       <use xlink:href="#DejaVuSans-2e" transform="translate(63.623047 0)"/>
       <use xlink:href="#DejaVuSans-35" transform="translate(95.410156 0)"/>
      </g>
     </g>
    </g>
    <g id="xtick_3">
     <g id="line2d_5">
      <path d="M 340.599292 246.04 
L 340.599292 28.37625 
" clip-path="url(#p65d06f1d9c)" style="fill: none; stroke: #b0b0b0; stroke-opacity: 0.3; stroke-width: 0.8; stroke-linecap: square"/>
     </g>
     <g id="line2d_6">
      <g>
       <use xlink:href="#m997b2addfd" x="340.599292" y="246.04" style="stroke: #000000; stroke-width: 0.8"/>
      </g>
     </g>
     <g id="text_3">
      <!-- 1.0 -->
      <g transform="translate(332.647729 260.638438) scale(0.1 -0.1)">
       <defs>
        <path id="DejaVuSans-31" d="M 794 531 
L 1825 531 
L 1825 4091 
L 703 3866 
L 703 4441 
L 1819 4666 
L 2450 4666 
L 2450 531 
L 3481 531 
L 3481 0 
L 794 0 
L 794 531 
z
" transform="scale(0.015625)"/>
       </defs>
       <use xlink:href="#DejaVuSans-31"/>
       <use xlink:href="#DejaVuSans-2e" transform="translate(63.623047 0)"/>
       <use xlink:href="#DejaVuSans-30" transform="translate(95.410156 0)"/>
      </g>
     </g>
    </g>
    <g id="xtick_4">
     <g id="line2d_7">
      <path d="M 468.010529 246.04 
L 468.010529 28.37625 
" clip-path="url(#p65d06f1d9c)" style="fill: none; stroke: #b0b0b0; stroke-opacity: 0.3; stroke-width: 0.8; stroke-linecap: square"/>
     </g>
     <g id="line2d_8">
      <g>
       <use xlink:href="#m997b2addfd" x="468.010529" y="246.04" style="stroke: #000000; stroke-width: 0.8"/>
      </g>
     </g>
     <g id="text_4">
      <!-- 1.5 -->
      <g transform="translate(460.058966 260.638438) scale(0.1 -0.1)">
       <use xlink:href="#DejaVuSans-31"/>
       <use xlink:href="#DejaVuSans-2e" transform="translate(63.623047 0)"/>
       <use xlink:href="#DejaVuSans-35" transform="translate(95.410156 0)"/>
      </g>
     </g>
    </g>
    <g id="xtick_5">
     <g id="line2d_9">
      <path d="M 595.421765 246.04 
L 595.421765 28.37625 
" clip-path="url(#p65d06f1d9c)" style="fill: none; stroke: #b0b0b0; stroke-opacity: 0.3; stroke-width: 0.8; stroke-linecap: square"/>
     </g>
     <g id="line2d_10">
      <g>
       <use xlink:href="#m997b2addfd" x="595.421765" y="246.04" style="stroke: #000000; stroke-width: 0.8"/>
      </g>
     </g>
     <g id="text_5">
      <!-- 2.0 -->
      <g transform="translate(587.470203 260.638438) scale(0.1 -0.1)">
       <defs>
        <path id="DejaVuSans-32" d="M 1228 531 
L 3431 531 
L 3431 0 
L 469 0 
L 469 531 
Q 828 903 1448 1529 
Q 2069 2156 2228 2338 
Q 2531 2678 2651 2914 
Q 2772 3150 2772 3378 
Q 2772 3750 2511 3984 
Q 2250 4219 1831 4219 
Q 1534 4219 1204 4116 
Q 875 4013 500 3803 
L 500 4441 
Q 881 4594 1212 4672 
Q 1544 4750 1819 4750 
Q 2544 4750 2975 4387 
Q 3406 4025 3406 3419 
Q 3406 3131 3298 2873 
Q 3191 2616 2906 2266 
Q 2828 2175 2409 1742 
Q 1991 1309 1228 531 
z
" transform="scale(0.015625)"/>
       </defs>
       <use xlink:href="#DejaVuSans-32"/>
       <use xlink:href="#DejaVuSans-2e" transform="translate(63.623047 0)"/>
       <use xlink:href="#DejaVuSans-30" transform="translate(95.410156 0)"/>
      </g>
     </g>
    </g>
    <g id="text_6">
     <!-- distance s [km] -->
     <g transform="translate(344.008281 274.316562) scale(0.1 -0.1)">
      <defs>
       <path id="DejaVuSans-64" d="M 2906 2969 
L 2906 4863 
L 3481 4863 
L 3481 0 
L 2906 0 
L 2906 525 
Q 2725 213 2448 61 
Q 2172 -91 1784 -91 
Q 1150 -91 751 415 
Q 353 922 353 1747 
Q 353 2572 751 3078 
Q 1150 3584 1784 3584 
Q 2172 3584 2448 3432 
Q 2725 3281 2906 2969 
z
M 947 1747 
Q 947 1113 1208 752 
Q 1469 391 1925 391 
Q 2381 391 2643 752 
Q 2906 1113 2906 1747 
Q 2906 2381 2643 2742 
Q 2381 3103 1925 3103 
Q 1469 3103 1208 2742 
Q 947 2381 947 1747 
z
" transform="scale(0.015625)"/>
       <path id="DejaVuSans-69" d="M 603 3500 
L 1178 3500 
L 1178 0 
L 603 0 
L 603 3500 
z
M 603 4863 
L 1178 4863 
L 1178 4134 
L 603 4134 
L 603 4863 
z
" transform="scale(0.015625)"/>
       <path id="DejaVuSans-73" d="M 2834 3397 
L 2834 2853 
Q 2591 2978 2328 3040 
Q 2066 3103 1784 3103 
Q 1356 3103 1142 2972 
Q 928 2841 928 2578 
Q 928 2378 1081 2264 
Q 1234 2150 1697 2047 
L 1894 2003 
Q 2506 1872 2764 1633 
Q 3022 1394 3022 966 
Q 3022 478 2636 193 
Q 2250 -91 1575 -91 
Q 1294 -91 989 -36 
Q 684 19 347 128 
L 347 722 
Q 666 556 975 473 
Q 1284 391 1588 391 
Q 1994 391 2212 530 
Q 2431 669 2431 922 
Q 2431 1156 2273 1281 
Q 2116 1406 1581 1522 
L 1381 1569 
Q 847 1681 609 1914 
Q 372 2147 372 2553 
Q 372 3047 722 3315 
Q 1072 3584 1716 3584 
Q 2034 3584 2315 3537 
Q 2597 3491 2834 3397 
z
" transform="scale(0.015625)"/>
       <path id="DejaVuSans-74" d="M 1172 4494 
L 1172 3500 
L 2356 3500 
L 2356 3053 
L 1172 3053 
L 1172 1153 
Q 1172 725 1289 603 
Q 1406 481 1766 481 
L 2356 481 
L 2356 0 
L 1766 0 
Q 1100 0 847 248 
Q 594 497 594 1153 
L 594 3053 
L 172 3053 
L 172 3500 
L 594 3500 
L 594 4494 
L 1172 4494 
z
" transform="scale(0.015625)"/>
       <path id="DejaVuSans-61" d="M 2194 1759 
Q 1497 1759 1228 1600 
Q 959 1441 959 1056 
Q 959 750 1161 570 
Q 1363 391 1709 391 
Q 2188 391 2477 730 
Q 2766 1069 2766 1631 
L 2766 1759 
L 2194 1759 
z
M 3341 1997 
L 3341 0 
L 2766 0 
L 2766 531 
Q 2569 213 2275 61 
Q 1981 -91 1556 -91 
Q 1019 -91 701 211 
Q 384 513 384 1019 
Q 384 1609 779 1909 
Q 1175 2209 1959 2209 
L 2766 2209 
L 2766 2266 
Q 2766 2663 2505 2880 
Q 2244 3097 1772 3097 
Q 1472 3097 1187 3025 
Q 903 2953 641 2809 
L 641 3341 
Q 956 3463 1253 3523 
Q 1550 3584 1831 3584 
Q 2591 3584 2966 3190 
Q 3341 2797 3341 1997 
z
" transform="scale(0.015625)"/>
       <path id="DejaVuSans-6e" d="M 3513 2113 
L 3513 0 
L 2938 0 
L 2938 2094 
Q 2938 2591 2744 2837 
Q 2550 3084 2163 3084 
Q 1697 3084 1428 2787 
Q 1159 2491 1159 1978 
L 1159 0 
L 581 0 
L 581 3500 
L 1159 3500 
L 1159 2956 
Q 1366 3272 1645 3428 
Q 1925 3584 2291 3584 
Q 2894 3584 3203 3211 
Q 3513 2838 3513 2113 
z
" transform="scale(0.015625)"/>
       <path id="DejaVuSans-63" d="M 3122 3366 
L 3122 2828 
Q 2878 2963 2633 3030 
Q 2388 3097 2138 3097 
Q 1578 3097 1268 2742 
Q 959 2388 959 1747 
Q 959 1106 1268 751 
Q 1578 397 2138 397 
Q 2388 397 2633 464 
Q 2878 531 3122 666 
L 3122 134 
Q 2881 22 2623 -34 
Q 2366 -91 2075 -91 
Q 1284 -91 818 406 
Q 353 903 353 1747 
Q 353 2603 823 3093 
Q 1294 3584 2113 3584 
Q 2378 3584 2631 3529 
Q 2884 3475 3122 3366 
z
" transform="scale(0.015625)"/>
       <path id="DejaVuSans-65" d="M 3597 1894 
L 3597 1613 
L 953 1613 
Q 991 1019 1311 708 
Q 1631 397 2203 397 
Q 2534 397 2845 478 
Q 3156 559 3463 722 
L 3463 178 
Q 3153 47 2828 -22 
Q 2503 -91 2169 -91 
Q 1331 -91 842 396 
Q 353 884 353 1716 
Q 353 2575 817 3079 
Q 1281 3584 2069 3584 
Q 2775 3584 3186 3129 
Q 3597 2675 3597 1894 
z
M 3022 2063 
Q 3016 2534 2758 2815 
Q 2500 3097 2075 3097 
Q 1594 3097 1305 2825 
Q 1016 2553 972 2059 
L 3022 2063 
z
" transform="scale(0.015625)"/>
       <path id="DejaVuSans-20" transform="scale(0.015625)"/>
       <path id="DejaVuSans-5b" d="M 550 4863 
L 1875 4863 
L 1875 4416 
L 1125 4416 
L 1125 -397 
L 1875 -397 
L 1875 -844 
L 550 -844 
L 550 4863 
z
" transform="scale(0.015625)"/>
       <path id="DejaVuSans-6b" d="M 581 4863 
L 1159 4863 
L 1159 1991 
L 2875 3500 
L 3609 3500 
L 1753 1863 
L 3688 0 
L 2938 0 
L 1159 1709 
L 1159 0 
L 581 0 
L 581 4863 
z
" transform="scale(0.015625)"/>
       <path id="DejaVuSans-6d" d="M 3328 2828 
Q 3544 3216 3844 3400 
Q 4144 3584 4550 3584 
Q 5097 3584 5394 3201 
Q 5691 2819 5691 2113 
L 5691 0 
L 5113 0 
L 5113 2094 
Q 5113 2597 4934 2840 
Q 4756 3084 4391 3084 
Q 3944 3084 3684 2787 
Q 3425 2491 3425 1978 
L 3425 0 
L 2847 0 
L 2847 2094 
Q 2847 2600 2669 2842 
Q 2491 3084 2119 3084 
Q 1678 3084 1418 2786 
Q 1159 2488 1159 1978 
L 1159 0 
L 581 0 
L 581 3500 
L 1159 3500 
L 1159 2956 
Q 1356 3278 1631 3431 
Q 1906 3584 2284 3584 
Q 2666 3584 2933 3390 
Q 3200 3197 3328 2828 
z
" transform="scale(0.015625)"/>
       <path id="DejaVuSans-5d" d="M 1947 4863 
L 1947 -844 
L 622 -844 
L 622 -397 
L 1369 -397 
L 1369 4416 
L 622 4416 
L 622 4863 
L 1947 4863 
z
" transform="scale(0.015625)"/>
      </defs>
      <use xlink:href="#DejaVuSans-64"/>
      <use xlink:href="#DejaVuSans-69" transform="translate(63.476562 0)"/>
      <use xlink:href="#DejaVuSans-73" transform="translate(91.259766 0)"/>
      <use xlink:href="#DejaVuSans-74" transform="translate(143.359375 0)"/>
      <use xlink:href="#DejaVuSans-61" transform="translate(182.568359 0)"/>
      <use xlink:href="#DejaVuSans-6e" transform="translate(243.847656 0)"/>
      <use xlink:href="#DejaVuSans-63" transform="translate(307.226562 0)"/>
      <use xlink:href="#DejaVuSans-65" transform="translate(362.207031 0)"/>
      <use xlink:href="#DejaVuSans-20" transform="translate(423.730469 0)"/>
      <use xlink:href="#DejaVuSans-73" transform="translate(455.517578 0)"/>
      <use xlink:href="#DejaVuSans-20" transform="translate(507.617188 0)"/>
      <use xlink:href="#DejaVuSans-5b" transform="translate(539.404297 0)"/>
      <use xlink:href="#DejaVuSans-6b" transform="translate(578.417969 0)"/>
      <use xlink:href="#DejaVuSans-6d" transform="translate(636.328125 0)"/>
      <use xlink:href="#DejaVuSans-5d" transform="translate(733.740234 0)"/>
     </g>
    </g>
   </g>
   <g id="matplotlib.axis_2">
    <g id="ytick_1">
     <g id="line2d_11">
      <path d="M 56.09 245.600225 
L 709.2 245.600225 
" clip-path="url(#p65d06f1d9c)" style="fill: none; stroke: #b0b0b0; stroke-opacity: 0.3; stroke-width: 0.8; stroke-linecap: square"/>
     </g>
     <g id="line2d_12">
      <defs>
       <path id="m06af4010d1" d="M 0 0 
L -3.5 0 
" style="stroke: #000000; stroke-width: 0.8"/>
      </defs>
      <g>
       <use xlink:href="#m06af4010d1" x="56.09" y="245.600225" style="stroke: #000000; stroke-width: 0.8"/>
      </g>
     </g>
     <g id="text_7">
      <!-- −2.0 -->
      <g transform="translate(24.807188 249.399443) scale(0.1 -0.1)">
       <defs>
        <path id="DejaVuSans-2212" d="M 678 2272 
L 4684 2272 
L 4684 1741 
L 678 1741 
L 678 2272 
z
" transform="scale(0.015625)"/>
       </defs>
       <use xlink:href="#DejaVuSans-2212"/>
       <use xlink:href="#DejaVuSans-32" transform="translate(83.789062 0)"/>
       <use xlink:href="#DejaVuSans-2e" transform="translate(147.412109 0)"/>
       <use xlink:href="#DejaVuSans-30" transform="translate(179.199219 0)"/>
      </g>
     </g>
    </g>
    <g id="ytick_2">
     <g id="line2d_13">
      <path d="M 56.09 218.508683 
L 709.2 218.508683 
" clip-path="url(#p65d06f1d9c)" style="fill: none; stroke: #b0b0b0; stroke-opacity: 0.3; stroke-width: 0.8; stroke-linecap: square"/>
     </g>
     <g id="line2d_14">
      <g>
       <use xlink:href="#m06af4010d1" x="56.09" y="218.508683" style="stroke: #000000; stroke-width: 0.8"/>
      </g>
     </g>
     <g id="text_8">
      <!-- −1.5 -->
      <g transform="translate(24.807188 222.307902) scale(0.1 -0.1)">
       <use xlink:href="#DejaVuSans-2212"/>
       <use xlink:href="#DejaVuSans-31" transform="translate(83.789062 0)"/>
       <use xlink:href="#DejaVuSans-2e" transform="translate(147.412109 0)"/>
       <use xlink:href="#DejaVuSans-35" transform="translate(179.199219 0)"/>
      </g>
     </g>
    </g>
    <g id="ytick_3">
     <g id="line2d_15">
      <path d="M 56.09 191.417142 
L 709.2 191.417142 
" clip-path="url(#p65d06f1d9c)" style="fill: none; stroke: #b0b0b0; stroke-opacity: 0.3; stroke-width: 0.8; stroke-linecap: square"/>
     </g>
     <g id="line2d_16">
      <g>
       <use xlink:href="#m06af4010d1" x="56.09" y="191.417142" style="stroke: #000000; stroke-width: 0.8"/>
      </g>
     </g>
     <g id="text_9">
      <!-- −1.0 -->
      <g transform="translate(24.807188 195.216361) scale(0.1 -0.1)">
       <use xlink:href="#DejaVuSans-2212"/>
       <use xlink:href="#DejaVuSans-31" transform="translate(83.789062 0)"/>
       <use xlink:href="#DejaVuSans-2e" transform="translate(147.412109 0)"/>
       <use xlink:href="#DejaVuSans-30" transform="translate(179.199219 0)"/>
      </g>
     </g>
    </g>
    <g id="ytick_4">
     <g id="line2d_17">
      <path d="M 56.09 164.325601 
L 709.2 164.325601 
" clip-path="url(#p65d06f1d9c)" style="fill: none; stroke: #b0b0b0; stroke-opacity: 0.3; stroke-width: 0.8; stroke-linecap: square"/>
     </g>
     <g id="line2d_18">
      <g>
       <use xlink:href="#m06af4010d1" x="56.09" y="164.325601" style="stroke: #000000; stroke-width: 0.8"/>
      </g>
     </g>
     <g id="text_10">
      <!-- −0.5 -->
      <g transform="translate(24.807188 168.124819) scale(0.1 -0.1)">
       <use xlink:href="#DejaVuSans-2212"/>
       <use xlink:href="#DejaVuSans-30" transform="translate(83.789062 0)"/>
       <use xlink:href="#DejaVuSans-2e" transform="translate(147.412109 0)"/>
       <use xlink:href="#DejaVuSans-35" transform="translate(179.199219 0)"/>
      </g>
     </g>
    </g>
    <g id="ytick_5">
     <g id="line2d_19">
      <path d="M 56.09 137.234059 
L 709.2 137.234059 
" clip-path="url(#p65d06f1d9c)" style="fill: none; stroke: #b0b0b0; stroke-opacity: 0.3; stroke-width: 0.8; stroke-linecap: square"/>
     </g>
     <g id="line2d_20">
      <g>
       <use xlink:href="#m06af4010d1" x="56.09" y="137.234059" style="stroke: #000000; stroke-width: 0.8"/>
      </g>
     </g>
     <g id="text_11">
      <!-- 0.0 -->
      <g transform="translate(33.186875 141.033278) scale(0.1 -0.1)">
       <use xlink:href="#DejaVuSans-30"/>
       <use xlink:href="#DejaVuSans-2e" transform="translate(63.623047 0)"/>
       <use xlink:href="#DejaVuSans-30" transform="translate(95.410156 0)"/>
      </g>
     </g>
    </g>
    <g id="ytick_6">
     <g id="line2d_21">
      <path d="M 56.09 110.142518 
L 709.2 110.142518 
" clip-path="url(#p65d06f1d9c)" style="fill: none; stroke: #b0b0b0; stroke-opacity: 0.3; stroke-width: 0.8; stroke-linecap: square"/>
     </g>
     <g id="line2d_22">
      <g>
       <use xlink:href="#m06af4010d1" x="56.09" y="110.142518" style="stroke: #000000; stroke-width: 0.8"/>
      </g>
     </g>
     <g id="text_12">
      <!-- 0.5 -->
      <g transform="translate(33.186875 113.941737) scale(0.1 -0.1)">
       <use xlink:href="#DejaVuSans-30"/>
       <use xlink:href="#DejaVuSans-2e" transform="translate(63.623047 0)"/>
       <use xlink:href="#DejaVuSans-35" transform="translate(95.410156 0)"/>
      </g>
     </g>
    </g>
    <g id="ytick_7">
     <g id="line2d_23">
      <path d="M 56.09 83.050977 
L 709.2 83.050977 
" clip-path="url(#p65d06f1d9c)" style="fill: none; stroke: #b0b0b0; stroke-opacity: 0.3; stroke-width: 0.8; stroke-linecap: square"/>
     </g>
     <g id="line2d_24">
      <g>
       <use xlink:href="#m06af4010d1" x="56.09" y="83.050977" style="stroke: #000000; stroke-width: 0.8"/>
      </g>
     </g>
     <g id="text_13">
      <!-- 1.0 -->
      <g transform="translate(33.186875 86.850196) scale(0.1 -0.1)">
       <use xlink:href="#DejaVuSans-31"/>
       <use xlink:href="#DejaVuSans-2e" transform="translate(63.623047 0)"/>
       <use xlink:href="#DejaVuSans-30" transform="translate(95.410156 0)"/>
      </g>
     </g>
    </g>
    <g id="ytick_8">
     <g id="line2d_25">
      <path d="M 56.09 55.959435 
L 709.2 55.959435 
" clip-path="url(#p65d06f1d9c)" style="fill: none; stroke: #b0b0b0; stroke-opacity: 0.3; stroke-width: 0.8; stroke-linecap: square"/>
     </g>
     <g id="line2d_26">
      <g>
       <use xlink:href="#m06af4010d1" x="56.09" y="55.959435" style="stroke: #000000; stroke-width: 0.8"/>
      </g>
     </g>
     <g id="text_14">
      <!-- 1.5 -->
      <g transform="translate(33.186875 59.758654) scale(0.1 -0.1)">
       <use xlink:href="#DejaVuSans-31"/>
       <use xlink:href="#DejaVuSans-2e" transform="translate(63.623047 0)"/>
       <use xlink:href="#DejaVuSans-35" transform="translate(95.410156 0)"/>
      </g>
     </g>
    </g>
    <g id="ytick_9">
     <g id="line2d_27">
      <path d="M 56.09 28.867894 
L 709.2 28.867894 
" clip-path="url(#p65d06f1d9c)" style="fill: none; stroke: #b0b0b0; stroke-opacity: 0.3; stroke-width: 0.8; stroke-linecap: square"/>
     </g>
     <g id="line2d_28">
      <g>
       <use xlink:href="#m06af4010d1" x="56.09" y="28.867894" style="stroke: #000000; stroke-width: 0.8"/>
      </g>
     </g>
     <g id="text_15">
      <!-- 2.0 -->
      <g transform="translate(33.186875 32.667113) scale(0.1 -0.1)">
       <use xlink:href="#DejaVuSans-32"/>
       <use xlink:href="#DejaVuSans-2e" transform="translate(63.623047 0)"/>
       <use xlink:href="#DejaVuSans-30" transform="translate(95.410156 0)"/>
      </g>
     </g>
    </g>
    <g id="text_16">
     <!-- tie-rod force [kN] -->
     <g transform="translate(18.7275 179.918281) rotate(-90) scale(0.1 -0.1)">
      <defs>
       <path id="DejaVuSans-2d" d="M 313 2009 
L 1997 2009 
L 1997 1497 
L 313 1497 
L 313 2009 
z
" transform="scale(0.015625)"/>
       <path id="DejaVuSans-72" d="M 2631 2963 
Q 2534 3019 2420 3045 
Q 2306 3072 2169 3072 
Q 1681 3072 1420 2755 
Q 1159 2438 1159 1844 
L 1159 0 
L 581 0 
L 581 3500 
L 1159 3500 
L 1159 2956 
Q 1341 3275 1631 3429 
Q 1922 3584 2338 3584 
Q 2397 3584 2469 3576 
Q 2541 3569 2628 3553 
L 2631 2963 
z
" transform="scale(0.015625)"/>
       <path id="DejaVuSans-6f" d="M 1959 3097 
Q 1497 3097 1228 2736 
Q 959 2375 959 1747 
Q 959 1119 1226 758 
Q 1494 397 1959 397 
Q 2419 397 2687 759 
Q 2956 1122 2956 1747 
Q 2956 2369 2687 2733 
Q 2419 3097 1959 3097 
z
M 1959 3584 
Q 2709 3584 3137 3096 
Q 3566 2609 3566 1747 
Q 3566 888 3137 398 
Q 2709 -91 1959 -91 
Q 1206 -91 779 398 
Q 353 888 353 1747 
Q 353 2609 779 3096 
Q 1206 3584 1959 3584 
z
" transform="scale(0.015625)"/>
       <path id="DejaVuSans-66" d="M 2375 4863 
L 2375 4384 
L 1825 4384 
Q 1516 4384 1395 4259 
Q 1275 4134 1275 3809 
L 1275 3500 
L 2222 3500 
L 2222 3053 
L 1275 3053 
L 1275 0 
L 697 0 
L 697 3053 
L 147 3053 
L 147 3500 
L 697 3500 
L 697 3744 
Q 697 4328 969 4595 
Q 1241 4863 1831 4863 
L 2375 4863 
z
" transform="scale(0.015625)"/>
       <path id="DejaVuSans-4e" d="M 628 4666 
L 1478 4666 
L 3547 763 
L 3547 4666 
L 4159 4666 
L 4159 0 
L 3309 0 
L 1241 3903 
L 1241 0 
L 628 0 
L 628 4666 
z
" transform="scale(0.015625)"/>
      </defs>
      <use xlink:href="#DejaVuSans-74"/>
      <use xlink:href="#DejaVuSans-69" transform="translate(39.208984 0)"/>
      <use xlink:href="#DejaVuSans-65" transform="translate(66.992188 0)"/>
      <use xlink:href="#DejaVuSans-2d" transform="translate(128.515625 0)"/>
      <use xlink:href="#DejaVuSans-72" transform="translate(164.599609 0)"/>
      <use xlink:href="#DejaVuSans-6f" transform="translate(203.462891 0)"/>
      <use xlink:href="#DejaVuSans-64" transform="translate(264.644531 0)"/>
      <use xlink:href="#DejaVuSans-20" transform="translate(328.121094 0)"/>
      <use xlink:href="#DejaVuSans-66" transform="translate(359.908203 0)"/>
      <use xlink:href="#DejaVuSans-6f" transform="translate(395.113281 0)"/>
      <use xlink:href="#DejaVuSans-72" transform="translate(456.294922 0)"/>
      <use xlink:href="#DejaVuSans-63" transform="translate(495.158203 0)"/>
      <use xlink:href="#DejaVuSans-65" transform="translate(550.138672 0)"/>
      <use xlink:href="#DejaVuSans-20" transform="translate(611.662109 0)"/>
      <use xlink:href="#DejaVuSans-5b" transform="translate(643.449219 0)"/>
      <use xlink:href="#DejaVuSans-6b" transform="translate(682.462891 0)"/>
      <use xlink:href="#DejaVuSans-4e" transform="translate(740.373047 0)"/>
      <use xlink:href="#DejaVuSans-5d" transform="translate(815.177734 0)"/>
     </g>
    </g>
   </g>
   <g id="line2d_29">
    <path d="M 85.776818 137.234059 
L 86.816255 137.201895 
L 88.38309 137.302788 
L 89.959086 137.25647 
L 92.074547 137.638185 
L 94.741345 137.498894 
L 99.05931 137.381628 
L 102.338251 137.354425 
L 104.543114 137.076824 
L 107.320118 136.494722 
L 111.246299 135.283048 
L 115.20573 133.681911 
L 118.573891 132.286275 
L 120.233593 131.770995 
L 121.871105 131.473189 
L 122.948633 131.446019 
L 124.541339 131.65654 
L 125.586211 132.014082 
L 126.616682 132.552843 
L 127.632104 133.257531 
L 128.631901 134.19995 
L 130.101199 135.925766 
L 131.532736 138.045843 
L 132.925317 140.490299 
L 134.719849 143.980848 
L 140.042696 155.1032 
L 142.918894 160.182899 
L 143.917299 162.985083 
L 144.240292 162.726605 
L 144.871561 160.625573 
L 145.179847 160.329187 
L 145.483241 160.821446 
L 145.78175 161.655758 
L 146.075383 162.141904 
L 146.364154 161.966588 
L 146.927211 161.091134 
L 147.201555 161.443882 
L 147.471155 162.73758 
L 148.750147 173.43685 
L 148.992871 176.712091 
L 149.924101 196.987283 
L 151.011866 209.227951 
L 151.638241 217.810548 
L 152.68392 228.177448 
L 153.119841 230.235185 
L 153.807034 232.134287 
L 154.287747 233.933973 
L 154.529865 234.469949 
L 154.768365 234.595437 
L 155.228051 234.256765 
L 156.075316 233.406678 
L 156.659099 232.291152 
L 157.740774 229.512457 
L 159.425267 224.625728 
L 159.921191 224.181882 
L 160.42019 224.121912 
L 160.756312 224.267694 
L 161.096064 224.689792 
L 161.439779 225.779009 
L 161.963236 228.212335 
L 162.140063 224.233792 
L 162.318264 209.406047 
L 162.862908 129.439468 
L 163.236754 163.647963 
L 163.427691 165.035389 
L 163.621533 149.475005 
L 163.818383 124.558075 
L 164.018292 114.735486 
L 164.221274 119.470059 
L 164.636452 141.294666 
L 164.848625 137.744262 
L 165.282094 122.290586 
L 165.50337 123.462815 
L 165.954936 133.767432 
L 166.185197 133.717424 
L 166.65462 127.395405 
L 166.893763 127.637718 
L 167.380783 133.139361 
L 167.628585 134.226607 
L 168.132597 132.761222 
L 168.388739 133.020671 
L 169.173323 137.59178 
L 169.440141 137.917915 
L 169.709559 137.886442 
L 169.981549 138.231362 
L 170.812697 141.046416 
L 171.379203 141.597598 
L 171.955417 142.307874 
L 172.541159 143.19613 
L 173.136257 143.578278 
L 174.046084 143.874671 
L 174.663859 144.099883 
L 175.606977 144.296212 
L 177.221615 145.144733 
L 178.213843 145.919533 
L 180.216733 146.626374 
L 181.541412 147.35614 
L 183.161905 147.946332 
L 183.795068 147.819091 
L 184.107924 147.811182 
L 185.030422 147.377942 
L 185.332303 147.595374 
L 186.220362 149.033942 
L 186.510457 149.593143 
L 186.797595 150.88445 
L 187.36301 157.736219 
L 187.916492 163.268222 
L 188.188651 164.036077 
L 188.45771 164.439898 
L 188.723682 165.350717 
L 189.50381 170.593078 
L 190.507659 179.23222 
L 190.753519 179.946227 
L 190.997812 179.796305 
L 191.240761 179.494405 
L 191.482566 180.187701 
L 191.723397 182.679502 
L 192.202679 192.502555 
L 193.153993 214.803622 
L 193.626297 221.398474 
L 194.330348 227.219564 
L 195.028353 231.026305 
L 195.489416 232.438553 
L 195.718323 232.599485 
L 195.945944 232.401732 
L 196.396995 231.284601 
L 197.720838 227.273043 
L 198.373443 225.963439 
L 198.808247 225.461302 
L 199.244414 225.373588 
L 199.463392 225.520913 
L 199.903832 226.280067 
L 200.572557 228.028102 
L 200.798044 227.715006 
L 201.024934 225.629794 
L 201.25328 220.545555 
L 201.714625 198.843644 
L 202.182862 173.242221 
L 202.419936 167.191572 
L 202.900276 163.61427 
L 203.142945 159.185166 
L 203.631881 144.545166 
L 203.877738 140.770836 
L 204.124263 141.624358 
L 204.618584 147.731218 
L 204.866047 149.377656 
L 205.360868 151.342903 
L 205.60798 153.850893 
L 206.592292 168.652788 
L 208.538489 183.688346 
L 209.019708 188.86214 
L 209.977635 200.732276 
L 210.455105 203.129973 
L 210.69362 204.020398 
L 210.932045 205.383867 
L 211.408784 210.571203 
L 212.362997 223.304454 
L 212.840646 226.302174 
L 213.318569 227.706685 
L 214.036248 228.818325 
L 214.515273 229.141142 
L 214.754962 229.042538 
L 215.23465 228.401733 
L 215.714698 227.749128 
L 216.435455 227.171083 
L 217.639702 225.67045 
L 218.123275 225.584312 
L 218.608961 226.005529 
L 219.097709 226.648013 
L 219.343493 226.465585 
L 219.590357 225.017111 
L 219.838432 221.10984 
L 220.087884 213.636441 
L 220.845366 177.115046 
L 221.100186 172.962515 
L 221.611163 180.380754 
L 221.866716 180.894874 
L 222.121981 176.010114 
L 222.884376 150.065642 
L 223.137046 149.568812 
L 223.388939 150.787173 
L 223.640081 149.499893 
L 223.890512 144.186904 
L 224.637899 116.395966 
L 224.885804 112.675709 
L 225.133135 111.579052 
L 225.379926 111.142022 
L 225.626217 109.579121 
L 226.117454 104.933731 
L 226.362596 103.992265 
L 226.607723 104.200775 
L 227.346098 106.950313 
L 227.594128 106.454681 
L 228.853576 100.627612 
L 229.107978 100.573029 
L 229.362357 101.535029 
L 230.622781 108.939276 
L 231.36482 112.263199 
L 231.853838 113.841095 
L 232.338289 114.738879 
L 233.05644 115.374763 
L 234.232947 116.166972 
L 234.928085 116.417313 
L 235.615922 116.433782 
L 237.205154 116.085918 
L 237.659841 115.552201 
L 239.030515 113.297158 
L 239.716561 112.959398 
L 240.628977 112.825668 
L 241.084326 112.929397 
L 241.539934 113.243252 
L 242.457438 114.046641 
L 242.920837 114.058845 
L 243.622575 113.669683 
L 244.094194 113.685966 
L 244.807183 114.013629 
L 246.509236 114.934485 
L 246.758154 114.966362 
L 247.008767 114.865957 
L 247.515324 114.070867 
L 247.771368 113.726505 
L 248.029311 113.728511 
L 248.289178 113.848553 
L 248.550984 113.655887 
L 249.08042 112.069909 
L 249.617547 110.472236 
L 250.162225 109.86494 
L 250.437369 109.542373 
L 250.993286 108.302791 
L 251.274071 108.061242 
L 251.556739 108.501837 
L 252.127729 111.226271 
L 252.416073 112.513073 
L 252.706323 112.771326 
L 253.886116 109.846064 
L 254.791131 109.772671 
L 255.404647 109.496032 
L 255.714556 109.738771 
L 256.026612 110.401001 
L 256.657288 112.945657 
L 258.270965 122.769682 
L 258.930505 127.601926 
L 259.597911 133.133924 
L 259.934539 135.040813 
L 260.613604 136.958561 
L 261.300353 138.269613 
L 261.646585 138.653481 
L 261.994709 138.708639 
L 262.696588 138.118875 
L 263.405906 137.592509 
L 264.483644 136.996334 
L 265.211185 136.614213 
L 265.945868 136.669477 
L 267.061102 136.99353 
L 267.813282 137.443095 
L 269.33815 138.809515 
L 271.281915 141.052642 
L 273.665119 143.813216 
L 274.465998 144.402194 
L 275.266455 144.746381 
L 276.064793 144.996776 
L 276.859776 145.724839 
L 277.650436 146.733582 
L 278.043904 148.221312 
L 278.436099 150.975943 
L 279.21681 158.10962 
L 279.605418 160.540135 
L 280.37935 163.426544 
L 280.76476 165.619974 
L 281.149196 167.1554 
L 281.532734 166.433703 
L 281.915488 164.622368 
L 282.297612 164.080275 
L 282.67926 166.118309 
L 283.822712 177.923177 
L 284.203766 179.98903 
L 284.584935 179.424472 
L 284.966268 177.957431 
L 285.347765 178.790027 
L 285.729417 182.440195 
L 286.493159 193.916706 
L 287.257146 205.657753 
L 288.020524 214.229614 
L 288.782513 220.369541 
L 289.542515 224.810959 
L 290.300055 227.866582 
L 291.05512 230.087082 
L 291.807703 231.417529 
L 292.557899 232.17744 
L 293.306049 232.68119 
L 293.679549 232.817671 
L 294.052764 232.825955 
L 294.42577 232.660686 
L 295.171619 231.828022 
L 295.918024 230.588657 
L 296.291697 229.691487 
L 296.665831 228.335689 
L 297.040531 226.201318 
L 297.415893 222.831739 
L 298.1689 213.768101 
L 298.546646 210.942029 
L 298.925271 210.501154 
L 299.30484 211.924194 
L 300.067029 215.268337 
L 300.449794 215.842952 
L 300.833816 215.461989 
L 301.219155 213.819611 
L 301.605825 210.267221 
L 301.993839 203.937657 
L 303.165709 176.332921 
L 303.558909 174.952708 
L 304.349385 178.813106 
L 304.746718 177.991523 
L 305.145492 173.611399 
L 305.947571 154.640481 
L 306.350911 145.186941 
L 306.755754 139.309852 
L 307.162083 136.871731 
L 307.569884 136.238719 
L 307.979137 136.027388 
L 308.801927 135.080232 
L 309.21546 136.194681 
L 309.630409 139.34593 
L 310.464568 147.050555 
L 310.883818 149.104852 
L 311.304535 149.829841 
L 311.726727 150.153747 
L 312.575588 151.237491 
L 313.00225 151.301553 
L 313.430357 150.573731 
L 313.859759 149.115141 
L 315.584275 141.155455 
L 316.876644 135.190981 
L 317.305874 133.806906 
L 317.733955 132.893133 
L 318.160687 132.371133 
L 318.585881 132.181123 
L 319.009359 132.262942 
L 319.430955 132.572164 
L 319.850514 133.123215 
L 320.682945 134.780731 
L 321.505585 137.053917 
L 325.442479 148.462504 
L 326.922524 151.962518 
L 327.64005 153.231699 
L 329.027841 155.428206 
L 329.69729 155.774745 
L 330.349994 156.180973 
L 330.985718 156.510263 
L 331.604305 156.680561 
L 331.907139 157.081382 
L 333.356762 160.732135 
L 333.633923 162.346938 
L 334.440452 169.316527 
L 335.210152 172.823474 
L 335.703515 178.19651 
L 336.874412 193.370415 
L 337.54117 198.20068 
L 337.97474 200.973654 
L 338.402558 205.727569 
L 339.89163 228.631747 
L 340.322301 231.77421 
L 340.755992 233.711034 
L 341.404838 235.429366 
L 341.82829 236.062174 
L 342.239816 236.113622 
L 343.205741 235.738584 
L 344.098147 235.701831 
L 345.586587 235.848702 
L 345.903491 235.512626 
L 346.37181 234.502112 
L 346.987701 232.403024 
L 347.906343 229.240935 
L 348.36807 227.668874 
L 348.678142 225.336438 
L 348.99107 219.707487 
L 349.307989 207.904521 
L 349.793605 186.143934 
L 349.958837 183.37464 
L 350.295226 181.857555 
L 350.466643 179.694276 
L 350.816439 169.871299 
L 351.176051 160.134999 
L 351.359699 158.530417 
L 351.545791 158.287326 
L 351.734044 157.796621 
L 351.924158 156.169536 
L 352.503125 149.765125 
L 352.698238 149.891227 
L 353.090456 151.13491 
L 353.287294 150.98634 
L 353.484529 150.614677 
L 353.682137 150.808368 
L 353.880103 151.984219 
L 354.476176 158.805147 
L 355.27668 170.643906 
L 355.478011 171.384416 
L 355.679915 171.381477 
L 355.882455 171.686263 
L 356.085712 173.030712 
L 356.908253 183.455895 
L 357.537629 192.259489 
L 358.609731 209.806998 
L 359.694306 221.168473 
L 360.129231 223.018227 
L 360.564812 223.532164 
L 361.220776 224.016663 
L 361.660397 224.585417 
L 362.991363 226.720339 
L 363.215275 226.688871 
L 363.43996 226.351202 
L 363.66556 225.588891 
L 363.892236 224.237768 
L 364.349441 218.974897 
L 365.047387 204.979509 
L 365.76407 186.480076 
L 367.011315 145.346449 
L 368.324102 126.59915 
L 368.591824 124.319639 
L 368.860593 123.226983 
L 369.400578 122.236943 
L 369.671479 120.761455 
L 370.214396 114.415076 
L 370.48617 111.262285 
L 370.758009 109.765943 
L 371.029813 109.701818 
L 371.301486 110.150721 
L 371.572934 110.242105 
L 371.844105 109.674958 
L 372.656758 107.324124 
L 372.927974 106.980592 
L 373.199597 107.558628 
L 373.47175 108.779243 
L 373.744538 109.252783 
L 374.018043 107.535758 
L 374.567375 101.199214 
L 374.843187 99.693421 
L 375.119702 99.411045 
L 375.396633 99.963169 
L 375.950243 102.803698 
L 376.779928 108.091811 
L 377.333857 110.692714 
L 377.888853 112.482938 
L 378.723419 114.333875 
L 379.555467 115.766864 
L 380.658866 117.080018 
L 381.489331 117.814979 
L 382.047567 117.932567 
L 382.328441 117.784865 
L 382.610593 117.456195 
L 383.17908 116.190888 
L 384.335846 113.064468 
L 384.629597 113.013455 
L 384.925262 114.511527 
L 385.824171 126.445129 
L 386.127901 125.865206 
L 386.74142 120.985916 
L 387.051095 120.513351 
L 387.36264 120.910044 
L 387.676007 120.338472 
L 388.626781 112.966403 
L 388.947316 112.481329 
L 389.269725 113.310483 
L 390.248537 117.581094 
L 390.910899 120.031811 
L 391.581094 124.120664 
L 392.600864 131.575395 
L 393.637747 136.629723 
L 394.338369 138.91569 
L 394.691459 139.470057 
L 395.046389 139.713132 
L 395.761727 139.712646 
L 396.484305 139.499727 
L 397.214046 139.024596 
L 397.950873 138.457903 
L 399.069238 137.982593 
L 400.203126 137.672483 
L 404.090353 137.170106 
L 405.278192 136.422412 
L 406.463676 135.024648 
L 406.857224 134.274174 
L 407.249621 133.142815 
L 408.418065 129.095885 
L 408.804065 128.6591 
L 409.18806 128.489615 
L 409.569908 128.118556 
L 410.326592 127.096754 
L 410.701156 126.94711 
L 411.442086 126.932742 
L 411.808222 126.57966 
L 412.171345 125.84255 
L 412.888218 123.253541 
L 413.59212 120.291471 
L 414.28265 118.480176 
L 415.622311 116.150846 
L 416.589691 114.979035 
L 416.904871 114.819572 
L 417.216384 114.914058 
L 417.524216 114.851674 
L 417.828358 113.950432 
L 418.128809 111.806535 
L 418.718636 105.568565 
L 419.007992 103.769832 
L 419.293628 103.370511 
L 419.575521 103.875195 
L 420.127967 105.219339 
L 420.398506 105.23325 
L 420.665328 104.675434 
L 421.188396 102.545871 
L 422.443637 96.034303 
L 422.928877 95.038393 
L 423.168571 94.985989 
L 423.406491 95.115686 
L 423.642732 95.393774 
L 423.877364 95.886128 
L 424.110447 96.689777 
L 424.57246 99.733818 
L 425.257924 104.706382 
L 425.936542 107.835089 
L 426.609693 109.836584 
L 427.719894 112.261443 
L 428.585705 113.707741 
L 429.625654 115.01092 
L 430.425552 115.619067 
L 431.009644 115.776897 
L 432.69068 115.785834 
L 433.948729 115.853333 
L 434.482372 116.159241 
L 435.377427 116.788484 
L 435.740175 116.676734 
L 436.106778 116.145638 
L 437.423546 113.784814 
L 438.402123 112.360502 
L 439.212896 111.584357 
L 439.628567 111.379436 
L 440.482028 111.33068 
L 441.142701 111.387503 
L 441.593556 111.586085 
L 442.286304 112.354606 
L 443.242639 113.384173 
L 443.487848 114.117242 
L 443.985867 116.630587 
L 446.079273 128.208674 
L 446.627248 130.305842 
L 447.467021 132.161335 
L 447.751632 132.552779 
L 448.327792 132.717947 
L 448.913107 132.709384 
L 450.11075 132.309562 
L 450.722849 132.076053 
L 451.973028 132.033527 
L 452.610877 132.26234 
L 454.241786 133.177024 
L 458.714091 137.109466 
L 460.15442 138.074139 
L 461.623672 138.686797 
L 462.744176 138.855394 
L 463.880281 138.71875 
L 464.646218 138.43693 
L 465.807728 137.738404 
L 466.590266 137.099237 
L 468.168234 135.344102 
L 471.699126 130.951386 
L 473.606045 129.345683 
L 473.98064 128.921912 
L 474.35274 128.122325 
L 475.089113 125.634508 
L 475.453232 124.119805 
L 477.230471 114.843114 
L 477.576855 113.947902 
L 477.920194 114.290372 
L 478.598142 117.094836 
L 478.933018 117.297768 
L 479.265366 115.88808 
L 480.24879 109.788522 
L 481.533256 97.845954 
L 481.850212 96.953328 
L 482.165692 96.619863 
L 482.479796 96.567525 
L 482.792623 96.784991 
L 483.104286 97.372033 
L 483.724703 99.743725 
L 484.342728 102.330801 
L 487.108256 111.359453 
L 488.916088 115.638931 
L 490.102262 117.811192 
L 490.691939 118.450764 
L 491.279992 118.806787 
L 492.159994 119.069858 
L 493.039503 119.055277 
L 493.922478 118.783728 
L 494.814526 118.287148 
L 495.416503 117.586944 
L 495.720028 116.977045 
L 496.025342 116.011204 
L 496.332491 115.790213 
L 496.641566 119.308158 
L 496.952688 125.82499 
L 497.265898 129.982541 
L 497.581181 130.776874 
L 497.898545 132.906641 
L 498.86326 157.707585 
L 499.189058 160.783924 
L 499.516953 160.40405 
L 500.17897 156.9269 
L 500.513056 156.847585 
L 500.849167 157.479251 
L 501.187277 157.565785 
L 501.527197 156.416588 
L 502.5537 149.817832 
L 502.89694 148.826379 
L 503.58328 147.695343 
L 504.60864 144.685878 
L 504.948436 144.165235 
L 505.623913 143.744829 
L 506.292831 143.346689 
L 506.954156 142.609228 
L 507.281794 142.69301 
L 507.607426 143.433789 
L 508.891253 148.610698 
L 509.207898 151.404145 
L 510.45919 169.165272 
L 511.076386 178.944665 
L 511.382997 178.875281 
L 512.597349 164.435715 
L 512.898213 164.822563 
L 513.198191 166.042097 
L 513.497413 167.892383 
L 514.685744 178.527383 
L 514.979912 182.66163 
L 516.417957 219.398702 
L 516.977547 226.406314 
L 517.529341 230.896696 
L 518.0741 233.503236 
L 518.613389 234.778759 
L 518.88146 235.035376 
L 519.148683 235.046549 
L 519.415254 234.759896 
L 519.681381 234.045178 
L 520.212907 230.985 
L 520.478482 229.290345 
L 520.744012 228.51461 
L 521.009501 228.756341 
L 521.540108 229.699678 
L 521.805078 229.536022 
L 522.334533 228.157758 
L 523.129125 225.871571 
L 524.195391 223.16127 
L 524.734161 220.909931 
L 525.277929 216.637728 
L 525.827314 209.798943 
L 526.663376 195.342882 
L 527.515421 181.195813 
L 528.092932 175.252556 
L 528.974073 169.367757 
L 529.871821 162.359248 
L 530.173692 161.2915 
L 530.476338 160.8507 
L 530.779456 161.039113 
L 531.082777 161.718104 
L 531.386052 162.071753 
L 531.689051 161.250884 
L 532.293418 157.460933 
L 532.594433 156.974812 
L 532.89446 157.913744 
L 533.490973 160.612599 
L 534.081896 161.790857 
L 534.374993 162.975913 
L 534.956157 167.721834 
L 536.09901 178.263184 
L 536.940966 184.168256 
L 538.319119 193.272614 
L 539.675154 202.936415 
L 539.945129 203.824016 
L 540.21503 203.134594 
L 540.755125 199.43801 
L 541.025456 199.503084 
L 541.295954 201.675176 
L 543.179881 224.088345 
L 543.973255 229.397747 
L 544.49629 231.687179 
L 545.014786 233.184142 
L 545.272411 233.590615 
L 545.529006 233.70913 
L 545.784613 233.482241 
L 546.039289 232.849263 
L 546.546171 230.190055 
L 547.8036 221.392912 
L 548.806971 218.173909 
L 550.067646 211.307301 
L 550.321105 211.570046 
L 550.575047 212.664406 
L 552.107368 222.26646 
L 552.8767 225.122772 
L 553.390132 226.484713 
L 555.189482 229.301792 
L 555.703419 229.866221 
L 556.216823 230.136771 
L 556.72967 230.092946 
L 556.985915 229.87473 
L 557.498209 228.869721 
L 557.754324 228.306665 
L 558.010441 228.067435 
L 558.266566 228.192474 
L 558.778835 228.621123 
L 559.035021 228.656817 
L 559.291326 228.544429 
L 559.547849 228.208016 
L 559.804705 227.484008 
L 560.061997 226.103928 
L 560.578205 220.432181 
L 561.09732 213.496863 
L 561.35825 211.563901 
L 561.620178 210.834761 
L 561.883142 210.735874 
L 562.147178 210.890135 
L 562.412324 211.225173 
L 562.946023 212.62137 
L 563.484127 214.158635 
L 564.026198 215.017067 
L 564.298592 215.140038 
L 564.571846 215.095251 
L 565.120831 214.723194 
L 565.396485 214.848379 
L 565.949877 216.696344 
L 566.227551 217.488354 
L 566.505874 217.435726 
L 566.784868 216.309894 
L 567.064567 213.951039 
L 567.626294 205.248595 
L 568.191623 195.206409 
L 568.475834 192.893195 
L 568.761112 192.912204 
L 569.334491 194.981121 
L 569.910364 196.011928 
L 570.198673 197.372152 
L 571.634315 207.060797 
L 572.202072 208.678666 
L 572.483981 208.94462 
L 573.043405 209.052784 
L 573.320749 209.236213 
L 573.59641 209.272787 
L 573.870334 208.640342 
L 574.142483 206.662133 
L 574.412825 202.680208 
L 575.213212 183.366215 
L 575.476789 181.190497 
L 575.738933 182.940396 
L 576.259244 189.583312 
L 576.517542 191.143993 
L 576.77467 191.377726 
L 577.03067 191.766517 
L 577.285579 193.617671 
L 578.044352 201.928691 
L 578.295679 202.708577 
L 578.546507 202.503958 
L 578.797048 201.435864 
L 579.047532 199.205518 
L 579.549609 189.489586 
L 579.801767 184.50869 
L 580.054844 183.376335 
L 580.308765 186.885652 
L 581.073837 203.665802 
L 581.583837 209.432958 
L 582.600125 217.578212 
L 583.110149 220.266057 
L 583.36666 221.05855 
L 583.624523 221.39395 
L 583.883923 221.082906 
L 584.144967 219.645262 
L 584.407721 216.23608 
L 584.672234 209.760799 
L 585.206767 185.485754 
L 585.749059 160.4484 
L 586.023204 155.288009 
L 586.299369 152.71468 
L 586.577563 148.394461 
L 587.424466 125.798887 
L 587.710917 124.954752 
L 588.290066 128.552041 
L 588.582763 128.920251 
L 589.174394 127.720246 
L 589.47332 128.415965 
L 590.382496 133.323082 
L 590.689671 133.937018 
L 590.998897 134.272748 
L 591.310166 134.860507 
L 592.256173 137.756461 
L 592.575551 138.16993 
L 593.545711 138.957271 
L 594.202421 139.616379 
L 594.53373 139.739924 
L 596.907183 139.614835 
L 600.094385 138.476741 
L 604.187213 136.981025 
L 606.89928 136.297627 
L 609.691271 135.893077 
L 612.145812 135.730548 
L 615.078668 135.752479 
L 618.083637 135.979567 
L 620.714897 136.358899 
L 623.39595 136.957843 
L 626.125447 137.850764 
L 627.971388 138.655554 
L 632.660471 140.973949 
L 633.598633 141.090573 
L 634.06613 141.003274 
L 634.997191 140.486668 
L 635.922973 139.491141 
L 636.384013 139.287258 
L 636.843892 139.643745 
L 637.302662 140.211234 
L 637.760385 141.081335 
L 638.217133 143.98803 
L 638.672992 149.821613 
L 639.582409 165.931324 
L 640.036129 170.682259 
L 640.489292 171.644896 
L 640.941982 170.336365 
L 641.394288 167.740387 
L 641.846309 161.68256 
L 643.202436 131.142194 
L 643.655253 131.543113 
L 645.017483 157.763632 
L 647.289361 186.734748 
L 647.743174 191.000594 
L 648.19731 194.010181 
L 648.651965 195.946492 
L 649.10726 196.930819 
L 649.563243 197.207268 
L 650.019939 196.962191 
L 650.477351 196.160491 
L 650.935481 194.649962 
L 651.394342 192.125436 
L 651.853951 188.157494 
L 652.314333 182.306952 
L 652.775524 174.301788 
L 654.629179 135.101855 
L 655.094993 129.866681 
L 656.029664 123.233682 
L 656.498544 121.027313 
L 656.968466 119.810023 
L 657.439433 119.628185 
L 657.911452 120.291855 
L 658.858662 122.91952 
L 660.287474 127.884645 
L 661.245398 132.302984 
L 662.690437 139.343861 
L 663.659263 142.406448 
L 664.14532 143.165021 
L 664.632474 142.831536 
L 665.610076 140.478505 
L 666.100523 139.860845 
L 666.592067 139.967224 
L 667.084709 140.283969 
L 668.073283 140.50615 
L 668.569214 140.866815 
L 669.564289 142.045304 
L 670.063378 142.392713 
L 672.574281 142.981726 
L 673.585882 142.981869 
L 674.093235 142.600455 
L 675.111046 139.333711 
L 675.621504 138.843326 
L 676.132996 139.388439 
L 676.645522 139.525105 
L 677.159081 138.650318 
L 677.673672 137.284475 
L 678.189294 136.255127 
L 678.705945 135.924486 
L 679.513182 136.244139 
L 679.513182 136.244139 
" clip-path="url(#p65d06f1d9c)" style="fill: none; stroke: #2ca02c; stroke-width: 0.9; stroke-linecap: square"/>
   </g>
   <g id="line2d_30">
    <path d="M 85.776818 137.234059 
L 86.816255 137.201895 
L 88.38309 137.302788 
L 89.959086 137.256472 
L 92.074547 137.638062 
L 94.741345 137.498747 
L 99.05931 137.381592 
L 102.338251 137.354404 
L 104.543114 137.076838 
L 107.320118 136.494268 
L 111.246299 135.277634 
L 115.20573 133.666876 
L 118.573891 132.270898 
L 120.233593 131.759381 
L 121.871105 131.467416 
L 122.948633 131.444834 
L 124.541339 131.661944 
L 125.586211 132.022968 
L 126.616682 132.563787 
L 128.133989 133.706473 
L 129.615562 135.312321 
L 131.059832 137.305528 
L 132.465516 139.658298 
L 134.277974 143.114489 
L 136.441626 147.686245 
L 138.88485 152.879714 
L 140.419096 155.722696 
L 142.576317 159.385972 
L 142.918894 159.955257 
L 143.917299 162.557414 
L 144.240292 162.303054 
L 144.871561 160.329935 
L 145.179847 160.050916 
L 145.483241 160.510446 
L 145.78175 161.285427 
L 146.075383 161.731528 
L 146.364154 161.562644 
L 146.927211 160.741677 
L 147.201555 161.069596 
L 147.471155 162.267603 
L 148.992871 173.921038 
L 149.697007 183.590312 
L 149.924101 184.354599 
L 150.147689 184.095958 
L 150.79979 181.923503 
L 151.221959 179.588768 
L 152.261292 172.68698 
L 152.899886 170.241991 
L 155.448528 162.760127 
L 156.468615 159.682053 
L 157.210703 158.032949 
L 157.740774 157.419228 
L 158.25685 157.23448 
L 159.921191 157.149297 
L 161.963236 156.567304 
L 162.140063 156.840349 
L 162.318264 157.649225 
L 162.498004 155.638109 
L 162.862908 130.735532 
L 163.236754 157.001924 
L 163.427691 158.475667 
L 163.621533 147.606189 
L 163.818383 125.935256 
L 164.018292 116.698328 
L 164.221274 120.144153 
L 164.636452 141.218344 
L 164.848625 137.721816 
L 165.282094 121.881713 
L 165.50337 122.892923 
L 165.954936 133.606483 
L 166.185197 133.578402 
L 166.65462 126.960332 
L 166.893763 127.184362 
L 167.380783 132.973209 
L 167.628585 134.120881 
L 168.132597 132.629219 
L 168.388739 132.905457 
L 169.173323 137.597002 
L 169.440141 137.92567 
L 169.709559 137.891478 
L 169.981549 138.23642 
L 170.812697 141.032034 
L 171.379203 141.555432 
L 171.955417 142.235081 
L 172.541159 143.084426 
L 173.136257 143.43719 
L 174.046084 143.705382 
L 174.663859 143.914832 
L 175.606977 144.097538 
L 177.221615 144.904358 
L 178.213843 145.657674 
L 179.88323 146.264745 
L 180.549519 146.646126 
L 181.212061 147.059517 
L 182.195348 147.543499 
L 182.841829 147.866358 
L 184.418159 147.592479 
L 184.725685 147.388679 
L 185.030422 147.323257 
L 185.332303 147.543391 
L 186.220362 148.970556 
L 186.510457 149.521096 
L 186.797595 150.786745 
L 187.36301 157.398314 
L 187.641262 160.627725 
L 187.916492 162.476295 
L 188.188651 163.082766 
L 188.45771 163.353168 
L 188.723682 164.073897 
L 189.758309 169.673653 
L 190.260001 172.76352 
L 190.507659 173.522506 
L 190.753519 173.599578 
L 191.240761 172.59249 
L 191.482566 172.726107 
L 191.723397 173.880097 
L 192.441329 178.549722 
L 192.679412 178.351217 
L 193.153993 175.10768 
L 193.861583 169.488533 
L 194.796454 164.378268 
L 195.718323 160.463548 
L 196.396995 158.239821 
L 197.063497 156.827961 
L 197.502485 156.393646 
L 197.938662 156.222163 
L 200.572557 155.959012 
L 200.798044 156.058856 
L 201.024934 156.303756 
L 201.25328 156.759024 
L 201.714625 158.486392 
L 201.947815 158.348005 
L 202.419936 155.621045 
L 202.900276 156.04243 
L 203.142945 154.25984 
L 203.877738 140.547196 
L 204.124263 141.417514 
L 204.618584 147.347719 
L 204.866047 148.964152 
L 205.360868 150.872813 
L 205.60798 153.235236 
L 206.346908 163.777935 
L 206.592292 165.746641 
L 207.081781 167.511093 
L 207.569538 169.10098 
L 208.538489 172.493552 
L 209.259678 174.280855 
L 209.499291 174.438533 
L 209.738594 174.166862 
L 210.216457 172.836177 
L 211.885671 167.394311 
L 213.079564 162.982221 
L 214.036248 160.32954 
L 215.23465 157.643816 
L 215.954856 156.633775 
L 216.435455 156.309633 
L 217.398427 156.020952 
L 218.608961 155.870812 
L 219.097709 155.912977 
L 219.590357 156.237432 
L 219.838432 156.637092 
L 220.087884 157.285365 
L 220.338864 158.278393 
L 220.591453 158.741294 
L 220.845366 158.081435 
L 221.100186 158.433452 
L 221.866716 166.066646 
L 222.121981 165.079544 
L 222.37677 160.506835 
L 222.884376 148.896939 
L 223.137046 148.688865 
L 223.388939 149.943282 
L 223.640081 148.883691 
L 223.890512 143.966807 
L 224.637899 116.703286 
L 224.885804 112.569875 
L 225.626217 107.582118 
L 226.362596 98.011297 
L 226.607723 97.246516 
L 226.853147 97.926172 
L 227.099187 99.060373 
L 227.346098 99.330422 
L 227.594128 98.046068 
L 228.094242 92.162046 
L 228.599558 84.466071 
L 230.12188 54.292839 
L 230.622781 48.565067 
L 231.118629 45.041433 
L 231.609889 43.104895 
L 232.578782 40.41665 
L 233.293701 39.03403 
L 233.765232 38.558841 
L 234.232947 38.425755 
L 234.697184 38.538106 
L 235.387452 39.009019 
L 235.843674 39.52791 
L 236.297746 40.453202 
L 237.43238 43.630254 
L 237.887606 46.873718 
L 238.344141 50.630246 
L 238.572831 51.327225 
L 238.801661 51.261278 
L 239.488014 49.978741 
L 239.716561 49.790753 
L 239.944938 49.75963 
L 240.173133 49.870351 
L 240.628977 50.450001 
L 241.084326 51.163736 
L 241.997273 51.887586 
L 242.226968 52.499892 
L 242.457438 53.741871 
L 243.387817 61.344549 
L 243.622575 61.124358 
L 244.331048 58.984179 
L 244.568682 58.764443 
L 244.807183 58.793166 
L 245.287183 59.288912 
L 245.771849 59.886769 
L 246.261938 60.133847 
L 246.509236 60.498163 
L 246.758154 61.587384 
L 247.008767 63.977467 
L 247.515324 73.934339 
L 248.289178 92.794724 
L 248.550984 95.62979 
L 248.814733 96.550662 
L 249.08042 96.438518 
L 249.348031 96.058533 
L 249.617547 95.990385 
L 250.162225 96.538353 
L 250.437369 96.254021 
L 250.714387 94.992968 
L 251.274071 91.715536 
L 251.556739 92.036954 
L 251.841288 94.499122 
L 252.416073 101.133787 
L 252.706323 102.056292 
L 252.998471 100.888432 
L 253.588367 97.730326 
L 253.886116 97.272253 
L 254.487458 97.645034 
L 254.791131 97.468849 
L 255.404647 96.563821 
L 255.714556 96.839445 
L 256.026612 98.099863 
L 256.657288 103.359009 
L 257.944179 117.397323 
L 258.930505 126.542961 
L 259.597911 132.885242 
L 259.934539 134.943145 
L 260.273107 136.155565 
L 261.300353 138.280236 
L 261.646585 138.662385 
L 261.994709 138.713067 
L 262.696588 138.118291 
L 263.405906 137.591937 
L 264.483644 136.996502 
L 265.211185 136.614171 
L 265.945868 136.66899 
L 267.061102 136.99327 
L 267.813282 137.443258 
L 269.33815 138.807407 
L 271.281915 141.026077 
L 273.665119 143.71787 
L 274.465998 144.294844 
L 275.266455 144.638175 
L 276.064793 144.893829 
L 276.859776 145.618146 
L 277.650436 146.615645 
L 278.043904 148.072277 
L 278.436099 150.746058 
L 279.21681 157.472994 
L 279.605418 159.622005 
L 280.37935 161.908503 
L 280.76476 163.601691 
L 281.149196 164.631943 
L 281.532734 163.784023 
L 281.915488 162.115423 
L 282.297612 161.540149 
L 282.67926 163.048237 
L 283.441685 168.664673 
L 283.822712 170.666897 
L 284.203766 171.421922 
L 284.584935 170.587523 
L 284.966268 169.328611 
L 285.347765 169.432718 
L 286.493159 173.380448 
L 286.875163 173.121894 
L 287.257146 171.79761 
L 288.401719 166.593059 
L 289.162809 163.983375 
L 289.921594 162.062083 
L 290.677898 160.591157 
L 291.807703 158.906231 
L 292.557899 158.099504 
L 293.679549 157.294568 
L 294.42577 156.993443 
L 295.171619 156.897536 
L 295.918024 156.976925 
L 296.665831 157.334863 
L 297.415893 158.174585 
L 298.1689 159.619693 
L 298.925271 161.194832 
L 299.30484 161.71657 
L 299.685409 162.024855 
L 300.067029 162.166542 
L 300.833816 162.075745 
L 301.605825 161.956729 
L 301.993839 162.158333 
L 302.383181 162.139635 
L 303.165709 159.870536 
L 303.558909 160.255235 
L 304.349385 163.481087 
L 304.746718 164.050929 
L 305.145492 162.914226 
L 305.545763 158.911164 
L 306.755754 139.178621 
L 307.162083 136.883336 
L 307.569884 136.262326 
L 307.979137 136.047249 
L 308.801927 135.103234 
L 309.21546 136.202043 
L 309.630409 139.347033 
L 310.464568 147.010126 
L 310.883818 148.975781 
L 311.304535 149.592425 
L 311.726727 149.80686 
L 312.575588 150.635405 
L 313.00225 150.60624 
L 313.430357 149.872403 
L 314.29017 146.768725 
L 316.01561 139.016968 
L 316.876644 135.201905 
L 317.305874 133.818098 
L 317.733955 132.897803 
L 318.160687 132.368011 
L 318.585881 132.17229 
L 319.009359 132.251724 
L 319.430955 132.56162 
L 319.850514 133.115538 
L 320.682945 134.779526 
L 321.505585 137.05405 
L 325.442479 148.448672 
L 326.922524 151.907523 
L 327.64005 153.151873 
L 329.027841 155.290298 
L 329.69729 155.628349 
L 330.349994 156.024352 
L 330.985718 156.344524 
L 331.604305 156.511112 
L 331.907139 156.895943 
L 333.356762 160.320098 
L 333.633923 161.805749 
L 334.440452 167.91429 
L 335.210152 170.509516 
L 335.703515 174.340179 
L 336.415984 179.670873 
L 336.646733 180.51741 
L 336.874412 180.864975 
L 337.099222 180.819248 
L 337.54117 180.015021 
L 338.615146 177.234389 
L 339.039329 174.857292 
L 339.677545 170.994018 
L 340.322301 168.585645 
L 341.189745 166.130593 
L 341.82829 164.950101 
L 343.019334 163.413008 
L 348.059919 157.970722 
L 348.522813 157.933735 
L 348.834182 158.173242 
L 349.148954 158.837551 
L 349.468335 159.963802 
L 349.630155 160.030607 
L 349.793605 159.954875 
L 349.958837 160.3042 
L 350.295226 161.615784 
L 350.466643 161.581406 
L 350.640352 160.587331 
L 351.359699 153.42648 
L 351.545791 153.763462 
L 351.734044 153.852059 
L 351.924158 152.993862 
L 352.503125 148.500265 
L 352.698238 148.7959 
L 353.090456 150.172364 
L 353.287294 150.117351 
L 353.484529 149.835593 
L 353.682137 150.061961 
L 353.880103 151.184355 
L 354.476176 157.322836 
L 355.075867 165.085408 
L 355.27668 166.165504 
L 355.478011 166.30383 
L 355.679915 165.931726 
L 355.882455 165.841427 
L 356.085712 166.486403 
L 356.908253 170.740632 
L 357.326552 171.531202 
L 357.537629 171.603952 
L 357.749994 171.347274 
L 357.963569 170.666424 
L 358.609731 166.851559 
L 359.259914 163.424564 
L 360.34691 159.018074 
L 361.001677 157.272385 
L 361.440348 156.596105 
L 362.101937 156.069747 
L 362.768127 155.924668 
L 363.215275 156.020016 
L 363.66556 156.304372 
L 364.120143 156.853328 
L 364.580299 157.77368 
L 365.522802 160.488941 
L 365.76407 160.551328 
L 366.007937 159.639852 
L 366.254551 157.209448 
L 367.52978 138.00618 
L 368.591824 124.386912 
L 368.860593 123.056916 
L 369.400578 121.693333 
L 369.671479 120.001663 
L 370.214396 112.663861 
L 370.48617 108.68428 
L 370.758009 106.469908 
L 371.029813 106.006427 
L 371.301486 106.28028 
L 371.572934 106.172326 
L 371.844105 105.221976 
L 372.656758 101.239062 
L 372.927974 100.475469 
L 373.199597 101.143102 
L 373.47175 102.870831 
L 373.744538 103.561852 
L 374.018043 100.970247 
L 375.119702 78.586932 
L 376.503262 59.419963 
L 377.056779 55.273915 
L 377.333857 54.663397 
L 377.888853 54.630956 
L 378.166869 53.849539 
L 379.001388 49.97293 
L 379.278766 49.31428 
L 379.555467 49.113013 
L 380.107355 49.410425 
L 380.658866 49.63762 
L 380.935022 49.547353 
L 381.767893 48.947976 
L 382.047567 49.569211 
L 382.328441 51.513606 
L 382.610593 55.264896 
L 383.753909 75.536795 
L 384.043965 78.712458 
L 384.335846 83.130375 
L 384.925262 99.036953 
L 385.522504 119.232333 
L 385.824171 124.202312 
L 386.127901 123.942443 
L 386.74142 118.749151 
L 387.051095 118.462643 
L 387.36264 119.119355 
L 387.676007 118.563923 
L 388.308075 112.094365 
L 388.626781 109.217509 
L 388.947316 108.135604 
L 389.269725 108.815466 
L 391.245023 119.557134 
L 392.600864 131.217735 
L 393.637747 136.612942 
L 394.338369 138.936067 
L 394.691459 139.486181 
L 395.046389 139.720559 
L 395.761727 139.705913 
L 396.484305 139.487378 
L 397.214046 139.013706 
L 397.950873 138.4513 
L 399.069238 137.979807 
L 400.203126 137.67151 
L 404.090353 137.170114 
L 405.278192 136.422259 
L 406.463676 135.022218 
L 406.857224 134.269828 
L 407.249621 133.134725 
L 408.418065 129.057795 
L 408.804065 128.613389 
L 409.18806 128.44054 
L 409.569908 128.065379 
L 410.326592 127.032597 
L 410.701156 126.883531 
L 411.442086 126.878129 
L 411.808222 126.525099 
L 412.171345 125.781719 
L 412.888218 123.15252 
L 413.59212 120.112938 
L 414.28265 118.22558 
L 415.622311 115.737924 
L 416.589691 114.449976 
L 416.904871 114.26746 
L 417.216384 114.361071 
L 417.524216 114.288399 
L 417.828358 113.30612 
L 418.128809 110.94367 
L 419.007992 101.409645 
L 419.293628 100.71492 
L 419.575521 101.147424 
L 420.127967 102.557259 
L 420.398506 102.480164 
L 420.665328 101.670332 
L 421.188396 98.560955 
L 421.698665 94.020364 
L 423.877364 70.28527 
L 424.342086 61.866391 
L 425.03026 47.054597 
L 425.484827 42.661492 
L 425.936542 40.851077 
L 426.609693 39.302082 
L 427.055945 38.540964 
L 427.499583 38.270057 
L 427.938847 38.571154 
L 429.625654 40.593795 
L 430.425552 41.09909 
L 431.580845 41.664242 
L 432.69068 42.415748 
L 433.053258 42.493337 
L 433.413078 42.387957 
L 434.482372 41.812784 
L 434.83895 42.191553 
L 435.197294 43.047564 
L 435.377427 43.834498 
L 435.740175 47.244556 
L 436.477516 57.368459 
L 437.616425 66.078913 
L 438.402123 74.756674 
L 438.804184 77.017409 
L 439.419842 79.734527 
L 442.521795 99.596351 
L 443.242639 103.066503 
L 443.735581 107.371933 
L 444.752074 117.334351 
L 445.808905 125.66578 
L 446.352063 128.785509 
L 446.904813 130.635435 
L 447.467021 131.957754 
L 447.751632 132.391238 
L 448.038561 132.557364 
L 448.913107 132.606591 
L 450.11075 132.210526 
L 450.722849 131.971152 
L 451.973028 131.924906 
L 452.610877 132.159706 
L 454.241786 133.104749 
L 458.358612 136.82499 
L 459.791598 137.862106 
L 460.885474 138.403195 
L 461.995423 138.765268 
L 462.744176 138.849274 
L 463.880281 138.71236 
L 464.646218 138.431929 
L 465.807728 137.736867 
L 466.590266 137.099427 
L 468.168234 135.342416 
L 471.699126 130.923306 
L 473.606045 129.313773 
L 473.98064 128.888617 
L 474.35274 128.083374 
L 475.089113 125.566183 
L 475.453232 124.0245 
L 477.230471 114.283143 
L 477.576855 113.266933 
L 477.920194 113.577903 
L 478.598142 116.53109 
L 478.933018 116.723531 
L 479.265366 115.160989 
L 480.24879 108.095521 
L 480.572567 104.300862 
L 481.533256 90.431658 
L 483.724703 69.756018 
L 484.033906 69.129059 
L 484.342728 68.920584 
L 484.65128 67.651421 
L 485.267736 60.770326 
L 485.883331 53.147303 
L 486.497309 48.343151 
L 487.108256 45.70752 
L 487.715183 44.173266 
L 488.017028 43.866243 
L 488.317781 43.821481 
L 488.617454 43.964522 
L 489.213764 44.594939 
L 490.102262 45.735824 
L 490.691939 46.119525 
L 491.279992 46.114027 
L 491.573544 45.914794 
L 492.746183 44.601282 
L 493.039503 44.553865 
L 493.33319 44.676674 
L 493.922478 45.391057 
L 494.515843 46.589884 
L 494.814526 47.644559 
L 495.114703 49.543391 
L 495.416503 53.119807 
L 495.720028 59.646483 
L 496.025342 70.633277 
L 496.952688 120.832742 
L 497.265898 127.866655 
L 497.581181 129.314123 
L 497.898545 132.172147 
L 498.86326 158.282058 
L 499.189058 160.339652 
L 499.516953 159.127342 
L 500.17897 155.174905 
L 500.513056 154.903905 
L 500.849167 155.295946 
L 501.187277 155.284816 
L 501.527197 154.339502 
L 502.5537 148.959265 
L 502.89694 148.166203 
L 503.58328 147.282367 
L 504.948436 144.059839 
L 505.623913 143.680871 
L 506.292831 143.307553 
L 506.954156 142.58813 
L 507.281794 142.674722 
L 507.607426 143.412616 
L 508.891253 148.520303 
L 509.207898 151.242592 
L 510.768457 171.551949 
L 511.076386 173.784157 
L 511.382997 172.915287 
L 512.29545 162.490459 
L 512.597349 161.512671 
L 512.898213 161.874122 
L 513.198191 162.907412 
L 513.497413 164.445829 
L 514.979912 174.745101 
L 515.562222 180.692895 
L 515.849848 180.042989 
L 517.254383 168.722928 
L 518.0741 164.666897 
L 518.88146 161.85339 
L 519.681381 159.867539 
L 520.212907 159.094194 
L 521.274896 158.310706 
L 521.805078 158.109511 
L 522.069857 158.208821 
L 523.39465 159.204885 
L 523.927628 158.968816 
L 524.734161 158.330551 
L 525.005382 158.252964 
L 525.277929 158.307221 
L 525.551878 158.504541 
L 525.827314 158.881666 
L 527.229545 161.715787 
L 527.515421 161.797407 
L 528.678354 161.523497 
L 528.974073 160.853148 
L 529.871821 157.705548 
L 530.173692 157.308249 
L 530.476338 157.314809 
L 530.779456 157.761758 
L 531.386052 159.065921 
L 531.689051 158.60513 
L 532.293418 155.781815 
L 532.594433 155.503608 
L 532.89446 156.442082 
L 533.490973 158.961453 
L 534.081896 160.092172 
L 534.374993 161.148101 
L 534.956157 165.094404 
L 535.530685 169.192012 
L 536.09901 172.00545 
L 536.661655 173.541916 
L 537.218982 174.180216 
L 537.7713 174.381053 
L 538.045725 174.347186 
L 538.319119 174.19043 
L 538.863316 173.497167 
L 539.404956 172.304728 
L 540.755125 168.579981 
L 541.025456 168.334991 
L 541.566509 168.125081 
L 542.107045 167.386043 
L 543.973255 163.889669 
L 545.014786 161.862226 
L 545.784613 160.849948 
L 546.293112 160.554026 
L 546.798563 160.624089 
L 547.301759 161.022702 
L 548.054314 161.999065 
L 549.058325 163.807167 
L 549.56213 164.655397 
L 550.067646 165.063408 
L 550.321105 165.005224 
L 550.82947 164.387497 
L 554.161026 158.550402 
L 554.67525 158.103414 
L 555.189482 157.912641 
L 555.960193 157.994689 
L 556.985915 158.358481 
L 557.754324 158.939496 
L 558.266566 159.323593 
L 558.778835 159.451464 
L 560.319798 159.31321 
L 560.837338 159.765535 
L 562.412324 161.879806 
L 562.946023 162.241785 
L 563.484127 162.274436 
L 564.298592 161.922904 
L 565.120831 161.610102 
L 566.784868 161.351312 
L 567.064567 161.480066 
L 567.626294 162.263104 
L 568.475834 163.676623 
L 570.486904 169.173031 
L 570.774804 169.559597 
L 571.06214 169.735531 
L 571.634315 169.698109 
L 572.483981 169.521258 
L 573.043405 169.631104 
L 573.59641 169.958919 
L 574.412825 170.81525 
L 574.681344 170.72447 
L 575.476789 168.459817 
L 575.999728 171.764172 
L 576.259244 173.234132 
L 576.517542 173.958667 
L 577.03067 174.242353 
L 577.539442 175.036875 
L 577.792328 174.948544 
L 578.044352 174.308096 
L 579.298277 169.196612 
L 579.801767 166.46079 
L 580.054844 166.306437 
L 580.818513 169.790485 
L 581.073837 169.543127 
L 581.583837 167.820721 
L 583.624523 159.220882 
L 584.144967 158.343698 
L 584.407721 158.302331 
L 584.672234 158.617874 
L 584.93856 159.253895 
L 585.206767 158.947868 
L 586.577563 146.612118 
L 587.424466 126.380419 
L 587.710917 125.247566 
L 588.290066 128.449121 
L 588.582763 128.747531 
L 589.174394 127.392935 
L 589.47332 128.089708 
L 590.382496 133.212922 
L 590.689671 133.855655 
L 590.998897 134.208803 
L 591.310166 134.816961 
L 592.256173 137.760655 
L 592.575551 138.17523 
L 593.545711 138.956812 
L 594.202421 139.60832 
L 594.53373 139.728258 
L 596.907183 139.596066 
L 600.094385 138.470327 
L 604.187213 136.981153 
L 606.89928 136.296122 
L 609.691271 135.888893 
L 612.145812 135.724812 
L 615.078668 135.746587 
L 618.083637 135.975147 
L 620.714897 136.356547 
L 623.39595 136.957476 
L 626.125447 137.850659 
L 627.971388 138.65305 
L 632.660471 140.955157 
L 633.598633 141.073291 
L 634.06613 140.988038 
L 634.997191 140.476812 
L 635.922973 139.48649 
L 636.384013 139.283544 
L 636.843892 139.639367 
L 637.302662 140.20558 
L 637.760385 141.073125 
L 638.217133 143.965971 
L 638.672992 149.735477 
L 639.582409 164.913726 
L 640.036129 168.639402 
L 640.489292 168.76675 
L 640.941982 167.067158 
L 641.394288 164.5055 
L 641.846309 159.331414 
L 643.202436 131.352165 
L 643.655253 131.614756 
L 645.017483 157.123671 
L 645.927221 167.717367 
L 646.381608 172.092625 
L 646.8356 175.187391 
L 647.289361 176.339427 
L 647.743174 175.608261 
L 648.651965 171.720198 
L 649.563243 168.095389 
L 650.019939 166.813109 
L 650.477351 165.881215 
L 650.935481 165.25396 
L 651.853951 164.434405 
L 652.314333 163.599054 
L 652.775524 161.546307 
L 653.237563 157.31715 
L 654.164354 142.506739 
L 654.629179 135.193319 
L 655.094993 130.205751 
L 656.029664 123.384823 
L 656.498544 120.854412 
L 656.968466 119.261699 
L 657.439433 118.773147 
L 657.911452 119.277075 
L 658.384527 120.455642 
L 659.333861 123.658291 
L 660.287474 127.419034 
L 661.245398 132.141291 
L 662.207666 137.288554 
L 663.174302 141.026055 
L 663.659263 142.423527 
L 664.14532 143.155227 
L 664.632474 142.79956 
L 665.610076 140.449032 
L 666.100523 139.835323 
L 666.592067 139.939135 
L 667.084709 140.252791 
L 668.073283 140.478055 
L 668.569214 140.838126 
L 669.564289 142.006656 
L 670.063378 142.347701 
L 672.574281 142.900293 
L 673.585882 142.892887 
L 674.093235 142.517781 
L 675.111046 139.309181 
L 675.621504 138.826934 
L 676.132996 139.368545 
L 676.645522 139.506666 
L 677.159081 138.641257 
L 677.673672 137.284445 
L 678.189294 136.258218 
L 678.705945 135.92687 
L 679.513182 136.244355 
L 679.513182 136.244355 
" clip-path="url(#p65d06f1d9c)" style="fill: none; stroke: #d62728; stroke-opacity: 0.8; stroke-width: 0.9; stroke-linecap: square"/>
   </g>
   <g id="patch_3">
    <path d="M 56.09 246.04 
L 56.09 28.37625 
" style="fill: none; stroke: #000000; stroke-width: 0.8; stroke-linejoin: miter; stroke-linecap: square"/>
   </g>
   <g id="patch_4">
    <path d="M 709.2 246.04 
L 709.2 28.37625 
" style="fill: none; stroke: #000000; stroke-width: 0.8; stroke-linejoin: miter; stroke-linecap: square"/>
   </g>
   <g id="patch_5">
    <path d="M 56.09 246.04 
L 709.2 246.04 
" style="fill: none; stroke: #000000; stroke-width: 0.8; stroke-linejoin: miter; stroke-linecap: square"/>
   </g>
   <g id="patch_6">
    <path d="M 56.09 28.37625 
L 709.2 28.37625 
" style="fill: none; stroke: #000000; stroke-width: 0.8; stroke-linejoin: miter; stroke-linecap: square"/>
   </g>
   <g id="text_17">
    <!-- steering-link loads over one Gelleråsen Arena lap -->
    <g transform="translate(234.435625 22.37625) scale(0.12 -0.12)">
     <defs>
      <path id="DejaVuSans-67" d="M 2906 1791 
Q 2906 2416 2648 2759 
Q 2391 3103 1925 3103 
Q 1463 3103 1205 2759 
Q 947 2416 947 1791 
Q 947 1169 1205 825 
Q 1463 481 1925 481 
Q 2391 481 2648 825 
Q 2906 1169 2906 1791 
z
M 3481 434 
Q 3481 -459 3084 -895 
Q 2688 -1331 1869 -1331 
Q 1566 -1331 1297 -1286 
Q 1028 -1241 775 -1147 
L 775 -588 
Q 1028 -725 1275 -790 
Q 1522 -856 1778 -856 
Q 2344 -856 2625 -561 
Q 2906 -266 2906 331 
L 2906 616 
Q 2728 306 2450 153 
Q 2172 0 1784 0 
Q 1141 0 747 490 
Q 353 981 353 1791 
Q 353 2603 747 3093 
Q 1141 3584 1784 3584 
Q 2172 3584 2450 3431 
Q 2728 3278 2906 2969 
L 2906 3500 
L 3481 3500 
L 3481 434 
z
" transform="scale(0.015625)"/>
      <path id="DejaVuSans-6c" d="M 603 4863 
L 1178 4863 
L 1178 0 
L 603 0 
L 603 4863 
z
" transform="scale(0.015625)"/>
      <path id="DejaVuSans-76" d="M 191 3500 
L 800 3500 
L 1894 563 
L 2988 3500 
L 3597 3500 
L 2284 0 
L 1503 0 
L 191 3500 
z
" transform="scale(0.015625)"/>
      <path id="DejaVuSans-47" d="M 3809 666 
L 3809 1919 
L 2778 1919 
L 2778 2438 
L 4434 2438 
L 4434 434 
Q 4069 175 3628 42 
Q 3188 -91 2688 -91 
Q 1594 -91 976 548 
Q 359 1188 359 2328 
Q 359 3472 976 4111 
Q 1594 4750 2688 4750 
Q 3144 4750 3555 4637 
Q 3966 4525 4313 4306 
L 4313 3634 
Q 3963 3931 3569 4081 
Q 3175 4231 2741 4231 
Q 1884 4231 1454 3753 
Q 1025 3275 1025 2328 
Q 1025 1384 1454 906 
Q 1884 428 2741 428 
Q 3075 428 3337 486 
Q 3600 544 3809 666 
z
" transform="scale(0.015625)"/>
      <path id="DejaVuSans-e5" d="M 2194 1759 
Q 1497 1759 1228 1600 
Q 959 1441 959 1056 
Q 959 750 1161 570 
Q 1363 391 1709 391 
Q 2188 391 2477 730 
Q 2766 1069 2766 1631 
L 2766 1759 
L 2194 1759 
z
M 3341 1997 
L 3341 0 
L 2766 0 
L 2766 531 
Q 2569 213 2275 61 
Q 1981 -91 1556 -91 
Q 1019 -91 701 211 
Q 384 513 384 1019 
Q 384 1609 779 1909 
Q 1175 2209 1959 2209 
L 2766 2209 
L 2766 2266 
Q 2766 2663 2505 2880 
Q 2244 3097 1772 3097 
Q 1472 3097 1187 3025 
Q 903 2953 641 2809 
L 641 3341 
Q 956 3463 1253 3523 
Q 1550 3584 1831 3584 
Q 2591 3584 2966 3190 
Q 3341 2797 3341 1997 
z
M 2331 4763 
Q 2331 4959 2193 5096 
Q 2056 5234 1856 5234 
Q 1653 5234 1517 5098 
Q 1381 4963 1381 4763 
Q 1381 4559 1517 4423 
Q 1653 4288 1856 4288 
Q 2056 4288 2193 4425 
Q 2331 4563 2331 4763 
z
M 2712 4763 
Q 2712 4403 2463 4153 
Q 2215 3903 1856 3903 
Q 1497 3903 1248 4153 
Q 1000 4403 1000 4763 
Q 1000 5122 1248 5370 
Q 1497 5619 1856 5619 
Q 2215 5619 2463 5370 
Q 2712 5122 2712 4763 
z
" transform="scale(0.015625)"/>
      <path id="DejaVuSans-41" d="M 2188 4044 
L 1331 1722 
L 3047 1722 
L 2188 4044 
z
M 1831 4666 
L 2547 4666 
L 4325 0 
L 3669 0 
L 3244 1197 
L 1141 1197 
L 716 0 
L 50 0 
L 1831 4666 
z
" transform="scale(0.015625)"/>
      <path id="DejaVuSans-70" d="M 1159 525 
L 1159 -1331 
L 581 -1331 
L 581 3500 
L 1159 3500 
L 1159 2969 
Q 1341 3281 1617 3432 
Q 1894 3584 2278 3584 
Q 2916 3584 3314 3078 
Q 3713 2572 3713 1747 
Q 3713 922 3314 415 
Q 2916 -91 2278 -91 
Q 1894 -91 1617 61 
Q 1341 213 1159 525 
z
M 3116 1747 
Q 3116 2381 2855 2742 
Q 2594 3103 2138 3103 
Q 1681 3103 1420 2742 
Q 1159 2381 1159 1747 
Q 1159 1113 1420 752 
Q 1681 391 2138 391 
Q 2594 391 2855 752 
Q 3116 1113 3116 1747 
z
" transform="scale(0.015625)"/>
     </defs>
     <use xlink:href="#DejaVuSans-73"/>
     <use xlink:href="#DejaVuSans-74" transform="translate(52.099609 0)"/>
     <use xlink:href="#DejaVuSans-65" transform="translate(91.308594 0)"/>
     <use xlink:href="#DejaVuSans-65" transform="translate(152.832031 0)"/>
     <use xlink:href="#DejaVuSans-72" transform="translate(214.355469 0)"/>
     <use xlink:href="#DejaVuSans-69" transform="translate(255.46875 0)"/>
     <use xlink:href="#DejaVuSans-6e" transform="translate(283.251953 0)"/>
     <use xlink:href="#DejaVuSans-67" transform="translate(346.630859 0)"/>
     <use xlink:href="#DejaVuSans-2d" transform="translate(410.107422 0)"/>
     <use xlink:href="#DejaVuSans-6c" transform="translate(446.191406 0)"/>
     <use xlink:href="#DejaVuSans-69" transform="translate(473.974609 0)"/>
     <use xlink:href="#DejaVuSans-6e" transform="translate(501.757812 0)"/>
     <use xlink:href="#DejaVuSans-6b" transform="translate(565.136719 0)"/>
     <use xlink:href="#DejaVuSans-20" transform="translate(623.046875 0)"/>
     <use xlink:href="#DejaVuSans-6c" transform="translate(654.833984 0)"/>
     <use xlink:href="#DejaVuSans-6f" transform="translate(682.617188 0)"/>
     <use xlink:href="#DejaVuSans-61" transform="translate(743.798828 0)"/>
     <use xlink:href="#DejaVuSans-64" transform="translate(805.078125 0)"/>
     <use xlink:href="#DejaVuSans-73" transform="translate(868.554688 0)"/>
     <use xlink:href="#DejaVuSans-20" transform="translate(920.654297 0)"/>
     <use xlink:href="#DejaVuSans-6f" transform="translate(952.441406 0)"/>
     <use xlink:href="#DejaVuSans-76" transform="translate(1013.623047 0)"/>
     <use xlink:href="#DejaVuSans-65" transform="translate(1072.802734 0)"/>
     <use xlink:href="#DejaVuSans-72" transform="translate(1134.326172 0)"/>
     <use xlink:href="#DejaVuSans-20" transform="translate(1175.439453 0)"/>
     <use xlink:href="#DejaVuSans-6f" transform="translate(1207.226562 0)"/>
     <use xlink:href="#DejaVuSans-6e" transform="translate(1268.408203 0)"/>
     <use xlink:href="#DejaVuSans-65" transform="translate(1331.787109 0)"/>
     <use xlink:href="#DejaVuSans-20" transform="translate(1393.310547 0)"/>
     <use xlink:href="#DejaVuSans-47" transform="translate(1425.097656 0)"/>
     <use xlink:href="#DejaVuSans-65" transform="translate(1502.587891 0)"/>
     <use xlink:href="#DejaVuSans-6c" transform="translate(1564.111328 0)"/>
     <use xlink:href="#DejaVuSans-6c" transform="translate(1591.894531 0)"/>
     <use xlink:href="#DejaVuSans-65" transform="translate(1619.677734 0)"/>
     <use xlink:href="#DejaVuSans-72" transform="translate(1681.201172 0)"/>
     <use xlink:href="#DejaVuSans-e5" transform="translate(1722.314453 0)"/>
     <use xlink:href="#DejaVuSans-73" transform="translate(1783.59375 0)"/>
     <use xlink:href="#DejaVuSans-65" transform="translate(1835.693359 0)"/>
     <use xlink:href="#DejaVuSans-6e" transform="translate(1897.216797 0)"/>
     <use xlink:href="#DejaVuSans-20" transform="translate(1960.595703 0)"/>
     <use xlink:href="#DejaVuSans-41" transform="translate(1992.382812 0)"/>
     <use xlink:href="#DejaVuSans-72" transform="translate(2060.791016 0)"/>
     <use xlink:href="#DejaVuSans-65" transform="translate(2099.654297 0)"/>
     <use xlink:href="#DejaVuSans-6e" transform="translate(2161.177734 0)"/>
     <use xlink:href="#DejaVuSans-61" transform="translate(2224.556641 0)"/>
     <use xlink:href="#DejaVuSans-20" transform="translate(2285.835938 0)"/>
     <use xlink:href="#DejaVuSans-6c" transform="translate(2317.623047 0)"/>
     <use xlink:href="#DejaVuSans-61" transform="translate(2345.40625 0)"/>
     <use xlink:href="#DejaVuSans-70" transform="translate(2406.685547 0)"/>
    </g>
   </g>
   <g id="legend_1">
    <g id="patch_7">
     <path d="M 630.755 58.26125 
L 703.6 58.26125 
Q 705.2 58.26125 705.2 56.66125 
L 705.2 33.97625 
Q 705.2 32.37625 703.6 32.37625 
L 630.755 32.37625 
Q 629.155 32.37625 629.155 33.97625 
L 629.155 56.66125 
Q 629.155 58.26125 630.755 58.26125 
z
" style="fill: #ffffff; opacity: 0.8; stroke: #cccccc; stroke-linejoin: miter"/>
    </g>
    <g id="line2d_31">
     <path d="M 632.355 38.855 
L 640.355 38.855 
L 648.355 38.855 
" style="fill: none; stroke: #2ca02c; stroke-width: 0.9; stroke-linecap: square"/>
    </g>
    <g id="text_18">
     <!-- tie rod left -->
     <g transform="translate(654.755 41.655) scale(0.08 -0.08)">
      <use xlink:href="#DejaVuSans-74"/>
      <use xlink:href="#DejaVuSans-69" transform="translate(39.208984 0)"/>
      <use xlink:href="#DejaVuSans-65" transform="translate(66.992188 0)"/>
      <use xlink:href="#DejaVuSans-20" transform="translate(128.515625 0)"/>
      <use xlink:href="#DejaVuSans-72" transform="translate(160.302734 0)"/>
      <use xlink:href="#DejaVuSans-6f" transform="translate(199.166016 0)"/>
      <use xlink:href="#DejaVuSans-64" transform="translate(260.347656 0)"/>
      <use xlink:href="#DejaVuSans-20" transform="translate(323.824219 0)"/>
      <use xlink:href="#DejaVuSans-6c" transform="translate(355.611328 0)"/>
      <use xlink:href="#DejaVuSans-65" transform="translate(383.394531 0)"/>
      <use xlink:href="#DejaVuSans-66" transform="translate(444.917969 0)"/>
      <use xlink:href="#DejaVuSans-74" transform="translate(478.373047 0)"/>
     </g>
    </g>
    <g id="line2d_32">
     <path d="M 632.355 50.5975 
L 640.355 50.5975 
L 648.355 50.5975 
" style="fill: none; stroke: #d62728; stroke-opacity: 0.8; stroke-width: 0.9; stroke-linecap: square"/>
    </g>
    <g id="text_19">
     <!-- tie rod right -->
     <g transform="translate(654.755 53.3975) scale(0.08 -0.08)">
      <defs>
       <path id="DejaVuSans-68" d="M 3513 2113 
L 3513 0 
L 2938 0 
L 2938 2094 
Q 2938 2591 2744 2837 
Q 2550 3084 2163 3084 
Q 1697 3084 1428 2787 
Q 1159 2491 1159 1978 
L 1159 0 
L 581 0 
L 581 4863 
L 1159 4863 
L 1159 2956 
Q 1366 3272 1645 3428 
Q 1925 3584 2291 3584 
Q 2894 3584 3203 3211 
Q 3513 2838 3513 2113 
z
" transform="scale(0.015625)"/>
      </defs>
      <use xlink:href="#DejaVuSans-74"/>
      <use xlink:href="#DejaVuSans-69" transform="translate(39.208984 0)"/>
      <use xlink:href="#DejaVuSans-65" transform="translate(66.992188 0)"/>
      <use xlink:href="#DejaVuSans-20" transform="translate(128.515625 0)"/>
      <use xlink:href="#DejaVuSans-72" transform="translate(160.302734 0)"/>
      <use xlink:href="#DejaVuSans-6f" transform="translate(199.166016 0)"/>
      <use xlink:href="#DejaVuSans-64" transform="translate(260.347656 0)"/>
      <use xlink:href="#DejaVuSans-20" transform="translate(323.824219 0)"/>
      <use xlink:href="#DejaVuSans-72" transform="translate(355.611328 0)"/>
      <use xlink:href="#DejaVuSans-69" transform="translate(396.724609 0)"/>
      <use xlink:href="#DejaVuSans-67" transform="translate(424.507812 0)"/>
      <use xlink:href="#DejaVuSans-68" transform="translate(487.984375 0)"/>
      <use xlink:href="#DejaVuSans-74" transform="translate(551.363281 0)"/>
     </g>
    </g>
   </g>
  </g>
 </g>
 <defs>
  <clipPath id="p65d06f1d9c">
   <rect x="56.09" y="28.37625" width="653.11" height="217.66375"/>
  </clipPath>
 </defs>
</svg>
