<?xml version="1.0" encoding="utf-8" standalone="no"?>
<!DOCTYPE svg PUBLIC "-//W3C//DTD SVG 1.1//EN"
  "http://www.w3.org/Graphics/SVG/1.1/DTD/svg11.dtd">
<svg xmlns:xlink="http://www.w3.org/1999/xlink" width="720pt" height="432pt" viewBox="0 0 720 432" xmlns="http://www.w3.org/2000/svg" version="1.1">
 <metadata>
  <rdf:RDF xmlns:dc="http://purl.org/dc/elements/1.1/" xmlns:cc="http://creativecommons.org/ns#" xmlns:rdf="http://www.w3.org/1999/02/22-rdf-syntax-ns#">
   <cc:Work>
    <dc:type rdf:resource="http://purl.org/dc/dcmitype/StillImage"/>
    <dc:date>2026-07-07T16:17:12.140550</dc:date>
    <dc:format>image/svg+xml</dc:format>
    <dc:creator>
     <cc:Agent>
      <dc:title>Matplotlib v3.10.8, https://matplotlib.org/</dc:title>
     </cc:Agent>
    </dc:creator>
   </cc:Work>
  </rdf:RDF>
 </metadata>
 <defs>
  <style type="text/css">*{stroke-linejoin: round; stroke-linecap: butt}</style>
 </defs>
 <g id="figure_1">
  <g id="patch_1">
   <path d="M 0 432 
L 720 432 
L 720 0 
L 0 0 
z
" style="fill: #ffffff"/>
  </g>
  <g id="axes_1">
   <g id="patch_2">
    <path d="M 50.96 271.261644 
L 709.2 271.261644 
L 709.2 26.88 
L 50.96 26.88 
z
" style="fill: #ffffff"/>
   </g>
   <g id="matplotlib.axis_1">
    <g id="xtick_1">
     <g id="line2d_1">
      <path d="M 80.88 271.261644 
L 80.88 26.88 
" clip-path="url(#p3e9dc3801b)" style="fill: none; stroke: #b0b0b0; stroke-opacity: 0.3; stroke-width: 0.8; stroke-linecap: square"/>
     </g>
     <g id="line2d_2">
      <defs>
       <path id="ma20db529f0" d="M 0 0 
L 0 3.5 
" style="stroke: #000000; stroke-width: 0.8"/>
      </defs>
      <g>
       <use xlink:href="#ma20db529f0" x="80.88" y="271.261644" style="stroke: #000000; stroke-width: 0.8"/>
      </g>
     </g>
    </g>
    <g id="xtick_2">
     <g id="line2d_3">
      <path d="M 209.292017 271.261644 
L 209.292017 26.88 
" clip-path="url(#p3e9dc3801b)" style="fill: none; stroke: #b0b0b0; stroke-opacity: 0.3; stroke-width: 0.8; stroke-linecap: square"/>
     </g>
     <g id="line2d_4">
      <g>
       <use xlink:href="#ma20db529f0" x="209.292017" y="271.261644" style="stroke: #000000; stroke-width: 0.8"/>
      </g>
     </g>
    </g>
    <g id="xtick_3">
     <g id="line2d_5">
      <path d="M 337.704034 271.261644 
L 337.704034 26.88 
" clip-path="url(#p3e9dc3801b)" style="fill: none; stroke: #b0b0b0; stroke-opacity: 0.3; stroke-width: 0.8; stroke-linecap: square"/>
     </g>
     <g id="line2d_6">
      <g>
       <use xlink:href="#ma20db529f0" x="337.704034" y="271.261644" style="stroke: #000000; stroke-width: 0.8"/>
      </g>
     </g>
    </g>
    <g id="xtick_4">
     <g id="line2d_7">
      <path d="M 466.116051 271.261644 
L 466.116051 26.88 
" clip-path="url(#p3e9dc3801b)" style="fill: none; stroke: #b0b0b0; stroke-opacity: 0.3; stroke-width: 0.8; stroke-linecap: square"/>
     </g>
     <g id="line2d_8">
      <g>
       <use xlink:href="#ma20db529f0" x="466.116051" y="271.261644" style="stroke: #000000; stroke-width: 0.8"/>
      </g>
     </g>
    </g>
    <g id="xtick_5">
     <g id="line2d_9">
      <path d="M 594.528069 271.261644 
L 594.528069 26.88 
" clip-path="url(#p3e9dc3801b)" style="fill: none; stroke: #b0b0b0; stroke-opacity: 0.3; stroke-width: 0.8; stroke-linecap: square"/>
     </g>
     <g id="line2d_10">
      <g>
       <use xlink:href="#ma20db529f0" x="594.528069" y="271.261644" style="stroke: #000000; stroke-width: 0.8"/>
      </g>
     </g>
    </g>
   </g>
   <g id="matplotlib.axis_2">
    <g id="ytick_1">
     <g id="line2d_11">
      <path d="M 50.96 258.450869 
L 709.2 258.450869 
" clip-path="url(#p3e9dc3801b)" style="fill: none; stroke: #b0b0b0; stroke-opacity: 0.3; stroke-width: 0.8; stroke-linecap: square"/>
     </g>
     <g id="line2d_12">
      <defs>
       <path id="m5b177e669d" d="M 0 0 
L -3.5 0 
" style="stroke: #000000; stroke-width: 0.8"/>
      </defs>
      <g>
       <use xlink:href="#m5b177e669d" x="50.96" y="258.450869" style="stroke: #000000; stroke-width: 0.8"/>
      </g>
     </g>
     <g id="text_1">
      <!-- 40 -->
      <g transform="translate(31.235 262.250088) scale(0.1 -0.1)">
       <defs>
        <path id="DejaVuSans-34" d="M 2419 4116 
L 825 1625 
L 2419 1625 
L 2419 4116 
z
M 2253 4666 
L 3047 4666 
L 3047 1625 
L 3713 1625 
L 3713 1100 
L 3047 1100 
L 3047 0 
L 2419 0 
L 2419 1100 
L 313 1100 
L 313 1709 
L 2253 4666 
z
" transform="scale(0.015625)"/>
        <path id="DejaVuSans-30" d="M 2034 4250 
Q 1547 4250 1301 3770 
Q 1056 3291 1056 2328 
Q 1056 1369 1301 889 
Q 1547 409 2034 409 
Q 2525 409 2770 889 
Q 3016 1369 3016 2328 
Q 3016 3291 2770 3770 
Q 2525 4250 2034 4250 
z
M 2034 4750 
Q 2819 4750 3233 4129 
Q 3647 3509 3647 2328 
Q 3647 1150 3233 529 
Q 2819 -91 2034 -91 
Q 1250 -91 836 529 
Q 422 1150 422 2328 
Q 422 3509 836 4129 
Q 1250 4750 2034 4750 
z
" transform="scale(0.015625)"/>
       </defs>
       <use xlink:href="#DejaVuSans-34"/>
       <use xlink:href="#DejaVuSans-30" transform="translate(63.623047 0)"/>
      </g>
     </g>
    </g>
    <g id="ytick_2">
     <g id="line2d_13">
      <path d="M 50.96 221.850384 
L 709.2 221.850384 
" clip-path="url(#p3e9dc3801b)" style="fill: none; stroke: #b0b0b0; stroke-opacity: 0.3; stroke-width: 0.8; stroke-linecap: square"/>
     </g>
     <g id="line2d_14">
      <g>
       <use xlink:href="#m5b177e669d" x="50.96" y="221.850384" style="stroke: #000000; stroke-width: 0.8"/>
      </g>
     </g>
     <g id="text_2">
      <!-- 60 -->
      <g transform="translate(31.235 225.649603) scale(0.1 -0.1)">
       <defs>
        <path id="DejaVuSans-36" d="M 2113 2584 
Q 1688 2584 1439 2293 
Q 1191 2003 1191 1497 
Q 1191 994 1439 701 
Q 1688 409 2113 409 
Q 2538 409 2786 701 
Q 3034 994 3034 1497 
Q 3034 2003 2786 2293 
Q 2538 2584 2113 2584 
z
M 3366 4563 
L 3366 3988 
Q 3128 4100 2886 4159 
Q 2644 4219 2406 4219 
Q 1781 4219 1451 3797 
Q 1122 3375 1075 2522 
Q 1259 2794 1537 2939 
Q 1816 3084 2150 3084 
Q 2853 3084 3261 2657 
Q 3669 2231 3669 1497 
Q 3669 778 3244 343 
Q 2819 -91 2113 -91 
Q 1303 -91 875 529 
Q 447 1150 447 2328 
Q 447 3434 972 4092 
Q 1497 4750 2381 4750 
Q 2619 4750 2861 4703 
Q 3103 4656 3366 4563 
z
" transform="scale(0.015625)"/>
       </defs>
       <use xlink:href="#DejaVuSans-36"/>
       <use xlink:href="#DejaVuSans-30" transform="translate(63.623047 0)"/>
      </g>
     </g>
    </g>
    <g id="ytick_3">
     <g id="line2d_15">
      <path d="M 50.96 185.249899 
L 709.2 185.249899 
" clip-path="url(#p3e9dc3801b)" style="fill: none; stroke: #b0b0b0; stroke-opacity: 0.3; stroke-width: 0.8; stroke-linecap: square"/>
     </g>
     <g id="line2d_16">
      <g>
       <use xlink:href="#m5b177e669d" x="50.96" y="185.249899" style="stroke: #000000; stroke-width: 0.8"/>
      </g>
     </g>
     <g id="text_3">
      <!-- 80 -->
      <g transform="translate(31.235 189.049118) scale(0.1 -0.1)">
       <defs>
        <path id="DejaVuSans-38" d="M 2034 2216 
Q 1584 2216 1326 1975 
Q 1069 1734 1069 1313 
Q 1069 891 1326 650 
Q 1584 409 2034 409 
Q 2484 409 2743 651 
Q 3003 894 3003 1313 
Q 3003 1734 2745 1975 
Q 2488 2216 2034 2216 
z
M 1403 2484 
Q 997 2584 770 2862 
Q 544 3141 544 3541 
Q 544 4100 942 4425 
Q 1341 4750 2034 4750 
Q 2731 4750 3128 4425 
Q 3525 4100 3525 3541 
Q 3525 3141 3298 2862 
Q 3072 2584 2669 2484 
Q 3125 2378 3379 2068 
Q 3634 1759 3634 1313 
Q 3634 634 3220 271 
Q 2806 -91 2034 -91 
Q 1263 -91 848 271 
Q 434 634 434 1313 
Q 434 1759 690 2068 
Q 947 2378 1403 2484 
z
M 1172 3481 
Q 1172 3119 1398 2916 
Q 1625 2713 2034 2713 
Q 2441 2713 2670 2916 
Q 2900 3119 2900 3481 
Q 2900 3844 2670 4047 
Q 2441 4250 2034 4250 
Q 1625 4250 1398 4047 
Q 1172 3844 1172 3481 
z
" transform="scale(0.015625)"/>
       </defs>
       <use xlink:href="#DejaVuSans-38"/>
       <use xlink:href="#DejaVuSans-30" transform="translate(63.623047 0)"/>
      </g>
     </g>
    </g>
    <g id="ytick_4">
     <g id="line2d_17">
      <path d="M 50.96 148.649414 
L 709.2 148.649414 
" clip-path="url(#p3e9dc3801b)" style="fill: none; stroke: #b0b0b0; stroke-opacity: 0.3; stroke-width: 0.8; stroke-linecap: square"/>
     </g>
     <g id="line2d_18">
      <g>
       <use xlink:href="#m5b177e669d" x="50.96" y="148.649414" style="stroke: #000000; stroke-width: 0.8"/>
      </g>
     </g>
     <g id="text_4">
      <!-- 100 -->
      <g transform="translate(24.8725 152.448633) scale(0.1 -0.1)">
       <defs>
        <path id="DejaVuSans-31" d="M 794 531 
L 1825 531 
L 1825 4091 
L 703 3866 
L 703 4441 
L 1819 4666 
L 2450 4666 
L 2450 531 
L 3481 531 
L 3481 0 
L 794 0 
L 794 531 
z
" transform="scale(0.015625)"/>
       </defs>
       <use xlink:href="#DejaVuSans-31"/>
       <use xlink:href="#DejaVuSans-30" transform="translate(63.623047 0)"/>
       <use xlink:href="#DejaVuSans-30" transform="translate(127.246094 0)"/>
      </g>
     </g>
    </g>
    <g id="ytick_5">
     <g id="line2d_19">
      <path d="M 50.96 112.04893 
L 709.2 112.04893 
" clip-path="url(#p3e9dc3801b)" style="fill: none; stroke: #b0b0b0; stroke-opacity: 0.3; stroke-width: 0.8; stroke-linecap: square"/>
     </g>
     <g id="line2d_20">
      <g>
       <use xlink:href="#m5b177e669d" x="50.96" y="112.04893" style="stroke: #000000; stroke-width: 0.8"/>
      </g>
     </g>
     <g id="text_5">
      <!-- 120 -->
      <g transform="translate(24.8725 115.848148) scale(0.1 -0.1)">
       <defs>
        <path id="DejaVuSans-32" d="M 1228 531 
L 3431 531 
L 3431 0 
L 469 0 
L 469 531 
Q 828 903 1448 1529 
Q 2069 2156 2228 2338 
Q 2531 2678 2651 2914 
Q 2772 3150 2772 3378 
Q 2772 3750 2511 3984 
Q 2250 4219 1831 4219 
Q 1534 4219 1204 4116 
Q 875 4013 500 3803 
L 500 4441 
Q 881 4594 1212 4672 
Q 1544 4750 1819 4750 
Q 2544 4750 2975 4387 
Q 3406 4025 3406 3419 
Q 3406 3131 3298 2873 
Q 3191 2616 2906 2266 
Q 2828 2175 2409 1742 
Q 1991 1309 1228 531 
z
" transform="scale(0.015625)"/>
       </defs>
       <use xlink:href="#DejaVuSans-31"/>
       <use xlink:href="#DejaVuSans-32" transform="translate(63.623047 0)"/>
       <use xlink:href="#DejaVuSans-30" transform="translate(127.246094 0)"/>
      </g>
     </g>
    </g>
    <g id="ytick_6">
     <g id="line2d_21">
      <path d="M 50.96 75.448445 
L 709.2 75.448445 
" clip-path="url(#p3e9dc3801b)" style="fill: none; stroke: #b0b0b0; stroke-opacity: 0.3; stroke-width: 0.8; stroke-linecap: square"/>
     </g>
     <g id="line2d_22">
      <g>
       <use xlink:href="#m5b177e669d" x="50.96" y="75.448445" style="stroke: #000000; stroke-width: 0.8"/>
      </g>
     </g>
     <g id="text_6">
      <!-- 140 -->
      <g transform="translate(24.8725 79.247664) scale(0.1 -0.1)">
       <use xlink:href="#DejaVuSans-31"/>
       <use xlink:href="#DejaVuSans-34" transform="translate(63.623047 0)"/>
       <use xlink:href="#DejaVuSans-30" transform="translate(127.246094 0)"/>
      </g>
     </g>
    </g>
    <g id="ytick_7">
     <g id="line2d_23">
      <path d="M 50.96 38.84796 
L 709.2 38.84796 
" clip-path="url(#p3e9dc3801b)" style="fill: none; stroke: #b0b0b0; stroke-opacity: 0.3; stroke-width: 0.8; stroke-linecap: square"/>
     </g>
     <g id="line2d_24">
      <g>
       <use xlink:href="#m5b177e669d" x="50.96" y="38.84796" style="stroke: #000000; stroke-width: 0.8"/>
      </g>
     </g>
     <g id="text_7">
      <!-- 160 -->
      <g transform="translate(24.8725 42.647179) scale(0.1 -0.1)">
       <use xlink:href="#DejaVuSans-31"/>
       <use xlink:href="#DejaVuSans-36" transform="translate(63.623047 0)"/>
       <use xlink:href="#DejaVuSans-30" transform="translate(127.246094 0)"/>
      </g>
     </g>
    </g>
    <g id="text_8">
     <!-- speed [km/h] -->
     <g transform="translate(18.792813 182.286447) rotate(-90) scale(0.1 -0.1)">
      <defs>
       <path id="DejaVuSans-73" d="M 2834 3397 
L 2834 2853 
Q 2591 2978 2328 3040 
Q 2066 3103 1784 3103 
Q 1356 3103 1142 2972 
Q 928 2841 928 2578 
Q 928 2378 1081 2264 
Q 1234 2150 1697 2047 
L 1894 2003 
Q 2506 1872 2764 1633 
Q 3022 1394 3022 966 
Q 3022 478 2636 193 
Q 2250 -91 1575 -91 
Q 1294 -91 989 -36 
Q 684 19 347 128 
L 347 722 
Q 666 556 975 473 
Q 1284 391 1588 391 
Q 1994 391 2212 530 
Q 2431 669 2431 922 
Q 2431 1156 2273 1281 
Q 2116 1406 1581 1522 
L 1381 1569 
Q 847 1681 609 1914 
Q 372 2147 372 2553 
Q 372 3047 722 3315 
Q 1072 3584 1716 3584 
Q 2034 3584 2315 3537 
Q 2597 3491 2834 3397 
z
" transform="scale(0.015625)"/>
       <path id="DejaVuSans-70" d="M 1159 525 
L 1159 -1331 
L 581 -1331 
L 581 3500 
L 1159 3500 
L 1159 2969 
Q 1341 3281 1617 3432 
Q 1894 3584 2278 3584 
Q 2916 3584 3314 3078 
Q 3713 2572 3713 1747 
Q 3713 922 3314 415 
Q 2916 -91 2278 -91 
Q 1894 -91 1617 61 
Q 1341 213 1159 525 
z
M 3116 1747 
Q 3116 2381 2855 2742 
Q 2594 3103 2138 3103 
Q 1681 3103 1420 2742 
Q 1159 2381 1159 1747 
Q 1159 1113 1420 752 
Q 1681 391 2138 391 
Q 2594 391 2855 752 
Q 3116 1113 3116 1747 
z
" transform="scale(0.015625)"/>
       <path id="DejaVuSans-65" d="M 3597 1894 
L 3597 1613 
L 953 1613 
Q 991 1019 1311 708 
Q 1631 397 2203 397 
Q 2534 397 2845 478 
Q 3156 559 3463 722 
L 3463 178 
Q 3153 47 2828 -22 
Q 2503 -91 2169 -91 
Q 1331 -91 842 396 
Q 353 884 353 1716 
Q 353 2575 817 3079 
Q 1281 3584 2069 3584 
Q 2775 3584 3186 3129 
Q 3597 2675 3597 1894 
z
M 3022 2063 
Q 3016 2534 2758 2815 
Q 2500 3097 2075 3097 
Q 1594 3097 1305 2825 
Q 1016 2553 972 2059 
L 3022 2063 
z
" transform="scale(0.015625)"/>
       <path id="DejaVuSans-64" d="M 2906 2969 
L 2906 4863 
L 3481 4863 
L 3481 0 
L 2906 0 
L 2906 525 
Q 2725 213 2448 61 
Q 2172 -91 1784 -91 
Q 1150 -91 751 415 
Q 353 922 353 1747 
Q 353 2572 751 3078 
Q 1150 3584 1784 3584 
Q 2172 3584 2448 3432 
Q 2725 3281 2906 2969 
z
M 947 1747 
Q 947 1113 1208 752 
Q 1469 391 1925 391 
Q 2381 391 2643 752 
Q 2906 1113 2906 1747 
Q 2906 2381 2643 2742 
Q 2381 3103 1925 3103 
Q 1469 3103 1208 2742 
Q 947 2381 947 1747 
z
" transform="scale(0.015625)"/>
       <path id="DejaVuSans-20" transform="scale(0.015625)"/>
       <path id="DejaVuSans-5b" d="M 550 4863 
L 1875 4863 
L 1875 4416 
L 1125 4416 
L 1125 -397 
L 1875 -397 
L 1875 -844 
L 550 -844 
L 550 4863 
z
" transform="scale(0.015625)"/>
       <path id="DejaVuSans-6b" d="M 581 4863 
L 1159 4863 
L 1159 1991 
L 2875 3500 
L 3609 3500 
L 1753 1863 
L 3688 0 
L 2938 0 
L 1159 1709 
L 1159 0 
L 581 0 
L 581 4863 
z
" transform="scale(0.015625)"/>
       <path id="DejaVuSans-6d" d="M 3328 2828 
Q 3544 3216 3844 3400 
Q 4144 3584 4550 3584 
Q 5097 3584 5394 3201 
Q 5691 2819 5691 2113 
L 5691 0 
L 5113 0 
L 5113 2094 
Q 5113 2597 4934 2840 
Q 4756 3084 4391 3084 
Q 3944 3084 3684 2787 
Q 3425 2491 3425 1978 
L 3425 0 
L 2847 0 
L 2847 2094 
Q 2847 2600 2669 2842 
Q 2491 3084 2119 3084 
Q 1678 3084 1418 2786 
Q 1159 2488 1159 1978 
L 1159 0 
L 581 0 
L 581 3500 
L 1159 3500 
L 1159 2956 
Q 1356 3278 1631 3431 
Q 1906 3584 2284 3584 
Q 2666 3584 2933 3390 
Q 3200 3197 3328 2828 
z
" transform="scale(0.015625)"/>
       <path id="DejaVuSans-2f" d="M 1625 4666 
L 2156 4666 
L 531 -594 
L 0 -594 
L 1625 4666 
z
" transform="scale(0.015625)"/>
       <path id="DejaVuSans-68" d="M 3513 2113 
L 3513 0 
L 2938 0 
L 2938 2094 
Q 2938 2591 2744 2837 
Q 2550 3084 2163 3084 
Q 1697 3084 1428 2787 
Q 1159 2491 1159 1978 
L 1159 0 
L 581 0 
L 581 4863 
L 1159 4863 
L 1159 2956 
Q 1366 3272 1645 3428 
Q 1925 3584 2291 3584 
Q 2894 3584 3203 3211 
Q 3513 2838 3513 2113 
z
" transform="scale(0.015625)"/>
       <path id="DejaVuSans-5d" d="M 1947 4863 
L 1947 -844 
L 622 -844 
L 622 -397 
L 1369 -397 
L 1369 4416 
L 622 4416 
L 622 4863 
L 1947 4863 
z
" transform="scale(0.015625)"/>
      </defs>
      <use xlink:href="#DejaVuSans-73"/>
      <use xlink:href="#DejaVuSans-70" transform="translate(52.099609 0)"/>
      <use xlink:href="#DejaVuSans-65" transform="translate(115.576172 0)"/>
      <use xlink:href="#DejaVuSans-65" transform="translate(177.099609 0)"/>
      <use xlink:href="#DejaVuSans-64" transform="translate(238.623047 0)"/>
      <use xlink:href="#DejaVuSans-20" transform="translate(302.099609 0)"/>
      <use xlink:href="#DejaVuSans-5b" transform="translate(333.886719 0)"/>
      <use xlink:href="#DejaVuSans-6b" transform="translate(372.900391 0)"/>
      <use xlink:href="#DejaVuSans-6d" transform="translate(430.810547 0)"/>
      <use xlink:href="#DejaVuSans-2f" transform="translate(528.222656 0)"/>
      <use xlink:href="#DejaVuSans-68" transform="translate(561.914062 0)"/>
      <use xlink:href="#DejaVuSans-5d" transform="translate(625.292969 0)"/>
     </g>
    </g>
   </g>
   <g id="line2d_25">
    <path d="M 80.88 65.981422 
L 85.890658 60.423229 
L 91.012417 55.073662 
L 96.241982 49.920528 
L 101.575837 44.952676 
L 107.559341 39.690501 
L 109.211768 38.274833 
L 109.764501 37.988257 
L 110.31816 40.416593 
L 111.427159 46.910729 
L 119.617461 91.044406 
L 123.757059 114.512385 
L 127.661401 138.021798 
L 130.856629 158.679233 
L 133.417905 176.49182 
L 136.188657 197.394732 
L 138.37183 215.57118 
L 143.045241 256.311876 
L 143.584564 259.136086 
L 144.105001 259.996817 
L 144.607486 260.128288 
L 145.79228 259.843672 
L 146.888005 260.153387 
L 147.304572 259.969442 
L 147.50863 259.732394 
L 147.908888 258.569459 
L 148.492705 255.557268 
L 149.24339 251.764234 
L 150.93826 245.038704 
L 152.12952 241.467736 
L 152.840775 237.651691 
L 153.688095 231.620118 
L 156.692176 209.245369 
L 159.499329 190.396405 
L 160.954807 181.881629 
L 162.566335 173.669389 
L 164.323506 165.840942 
L 166.215099 158.43122 
L 168.230873 151.390683 
L 170.362586 144.684931 
L 171.952351 140.04979 
L 172.276779 139.930433 
L 172.603326 141.447145 
L 173.594544 149.697203 
L 181.623458 217.605267 
L 184.393427 233.541714 
L 184.910677 235.777452 
L 185.164816 236.393245 
L 185.41605 236.660938 
L 185.664474 236.682265 
L 186.632363 236.205776 
L 187.791135 236.285982 
L 188.240226 236.13602 
L 188.46184 235.845814 
L 188.89972 234.735173 
L 189.756296 231.355055 
L 190.995668 225.545186 
L 192.387013 217.40726 
L 196.793413 189.86281 
L 197.443465 185.861042 
L 197.890526 182.702253 
L 198.118587 181.983981 
L 198.349626 182.495283 
L 198.820444 187.354674 
L 199.543429 195.078215 
L 200.769238 205.014629 
L 201.751883 211.350548 
L 202.483807 214.833216 
L 203.925893 220.06287 
L 204.398899 221.21032 
L 204.867802 221.596128 
L 205.563769 221.767703 
L 207.156072 221.884007 
L 207.380122 221.814978 
L 207.603342 221.615901 
L 208.04738 220.686611 
L 208.926893 217.767471 
L 209.797616 214.37755 
L 210.663307 209.981938 
L 212.40054 200.918702 
L 213.281589 197.419205 
L 214.176425 193.725394 
L 215.089031 189.332235 
L 215.78698 184.210902 
L 216.022697 184.36291 
L 216.49947 188.644882 
L 217.717755 202.005227 
L 218.701601 211.147428 
L 219.19178 214.147767 
L 219.679398 215.647962 
L 220.164016 215.966503 
L 221.124775 216.181691 
L 222.31175 216.231347 
L 222.547536 216.195811 
L 222.782885 215.811612 
L 223.252584 213.584478 
L 223.721648 211.537993 
L 223.956149 211.399221 
L 224.424987 211.860078 
L 225.126187 212.628279 
L 226.510016 213.019961 
L 227.19045 213.01394 
L 227.864157 213.01731 
L 228.087444 213.154132 
L 228.532303 213.84902 
L 229.195397 214.847021 
L 230.072664 215.153927 
L 231.162221 215.293348 
L 231.813864 215.250814 
L 232.030915 215.15685 
L 232.464897 214.59966 
L 232.8989 214.005672 
L 233.115998 213.877391 
L 233.767844 214.025711 
L 234.6379 214.273627 
L 235.508271 214.271815 
L 235.943446 214.165352 
L 236.378591 213.698878 
L 236.813855 212.648883 
L 237.467926 209.890777 
L 238.566721 203.973914 
L 240.833778 191.386585 
L 242.017782 186.198693 
L 245.585458 171.956833 
L 246.962977 166.895566 
L 250.175035 155.143031 
L 252.668815 147.110004 
L 255.296244 139.478809 
L 258.051725 132.232393 
L 260.929085 125.3304 
L 263.922589 118.73858 
L 267.026916 112.425732 
L 267.4225 111.892889 
L 267.819715 112.406992 
L 268.618357 117.557961 
L 271.025276 134.570172 
L 272.221593 141.904198 
L 273.798062 149.531132 
L 274.188125 151.234523 
L 274.576407 152.406108 
L 274.962889 152.836659 
L 275.730631 153.041024 
L 277.622704 153.028624 
L 277.99698 152.799241 
L 278.742004 151.869861 
L 281.688716 146.430715 
L 284.60126 140.805728 
L 284.963496 140.505709 
L 285.325409 140.454283 
L 285.687036 140.791004 
L 286.769752 144.625177 
L 287.488795 144.921448 
L 288.921233 145.147777 
L 289.278526 145.108953 
L 289.635627 144.915981 
L 289.992613 144.464908 
L 290.706562 143.011386 
L 297.97229 126.054798 
L 301.767999 118.254724 
L 305.312327 111.195446 
L 308.56364 105.192145 
L 311.064553 100.823961 
L 311.486551 100.417236 
L 311.909975 101.829616 
L 313.186285 110.219548 
L 319.878931 156.454438 
L 322.997744 179.721432 
L 325.540831 200.287898 
L 328.827188 227.800139 
L 330.021196 236.629557 
L 331.417715 245.139587 
L 331.947463 247.629245 
L 332.461423 249.141254 
L 332.712696 249.446576 
L 333.445027 249.72962 
L 334.60091 249.8723 
L 336.309968 249.824526 
L 336.714941 249.381862 
L 337.499755 248.255041 
L 337.690253 248.147215 
L 337.878266 248.231215 
L 338.246433 249.484096 
L 339.283968 254.488827 
L 339.608082 254.747158 
L 340.674623 255.039762 
L 342.329672 255.249839 
L 342.591155 255.056521 
L 342.85029 254.361461 
L 343.236921 252.240904 
L 344.150681 244.849776 
L 345.41788 233.045545 
L 347.946859 208.424014 
L 348.137838 209.453172 
L 348.725431 215.521759 
L 349.935215 227.649849 
L 350.340921 230.377236 
L 350.54344 231.078201 
L 350.745643 231.367593 
L 350.947514 231.366976 
L 351.752101 230.779381 
L 352.75276 230.895327 
L 352.952307 230.785945 
L 353.15169 230.514595 
L 353.550104 229.280303 
L 354.546849 224.552483 
L 355.75056 218.734375 
L 358.192823 208.207867 
L 359.661293 199.349305 
L 361.405967 189.155235 
L 363.511186 178.069763 
L 363.758147 177.512413 
L 364.008021 178.438441 
L 364.772057 184.613543 
L 365.81118 193.603875 
L 366.596191 196.28616 
L 367.38215 198.962956 
L 368.947819 204.595211 
L 369.465765 205.985747 
L 369.7238 206.392769 
L 370.237995 206.696631 
L 372.270385 207.08588 
L 372.521462 206.797574 
L 372.771785 206.154877 
L 373.270281 203.9472 
L 375.496545 192.508478 
L 377.490837 183.214127 
L 379.289122 175.755291 
L 384.646971 155.580123 
L 386.81604 148.50206 
L 389.088175 141.737922 
L 391.806309 134.379454 
L 394.647966 127.377338 
L 397.607372 120.694954 
L 400.289173 115.083481 
L 400.679108 114.343487 
L 401.070716 114.194768 
L 401.463939 115.157048 
L 402.254391 120.358682 
L 409.637916 175.073879 
L 413.170216 202.286528 
L 414.803006 212.813227 
L 417.223552 227.228646 
L 418.618959 234.46126 
L 419.152854 236.472121 
L 419.673471 237.677851 
L 420.181345 238.060205 
L 421.16128 238.30782 
L 422.777217 238.410959 
L 423.219821 238.349856 
L 423.438067 238.19425 
L 423.868434 237.52069 
L 424.704656 236.118294 
L 425.310023 235.819324 
L 425.70303 235.810753 
L 426.087691 235.955228 
L 426.464267 236.279683 
L 427.194886 237.521757 
L 427.725052 238.231856 
L 428.579811 238.537109 
L 429.896304 238.745343 
L 430.542207 238.689851 
L 430.863962 238.505525 
L 431.185656 237.986341 
L 431.669649 236.541793 
L 432.321763 233.522803 
L 433.501285 226.895161 
L 435.306743 215.597093 
L 439.234784 189.670135 
L 440.893844 180.542177 
L 442.6832 171.987736 
L 444.597327 163.973066 
L 446.629808 156.420438 
L 448.774898 149.268036 
L 451.027038 142.468015 
L 453.380937 135.981204 
L 456.189474 128.909578 
L 459.118009 122.165477 
L 462.160677 115.716696 
L 463.33001 113.360954 
L 463.723143 113.421561 
L 464.117877 115.302897 
L 467.693183 141.130408 
L 471.558396 168.445002 
L 474.819554 189.655258 
L 475.510169 193.342179 
L 476.187848 196.044762 
L 476.852812 197.615698 
L 477.505595 198.289059 
L 478.777671 198.648107 
L 480.312292 198.845975 
L 480.612578 198.755377 
L 480.910828 198.514786 
L 481.501597 197.412262 
L 482.950269 193.448463 
L 485.482353 186.520457 
L 486.308538 184.950349 
L 487.128144 182.953126 
L 487.943728 180.102507 
L 494.33702 156.088353 
L 496.468749 149.001329 
L 499.038886 141.109902 
L 499.369693 142.366441 
L 500.03676 147.999699 
L 501.382414 159.75473 
L 505.032778 190.133569 
L 505.674116 194.196988 
L 505.991332 195.117738 
L 506.618956 195.484308 
L 507.544577 195.525848 
L 509.050673 195.512191 
L 509.642082 195.071757 
L 509.935736 194.82373 
L 510.228135 194.722254 
L 510.519353 195.066708 
L 510.809413 196.714463 
L 511.671573 203.995268 
L 512.518828 208.102473 
L 513.073827 209.881515 
L 513.348111 210.17792 
L 514.158938 210.430959 
L 515.987189 210.725879 
L 516.242016 210.506849 
L 516.495497 209.996558 
L 516.998766 208.115712 
L 523.524819 177.68599 
L 525.946646 167.319566 
L 527.080466 162.973024 
L 527.369515 162.137013 
L 527.660745 161.985211 
L 527.954039 162.782315 
L 528.545885 167.396998 
L 530.639374 185.000761 
L 532.414004 198.190547 
L 532.994757 202.322357 
L 533.282571 203.833673 
L 533.568591 204.695826 
L 534.135301 205.111291 
L 536.069238 205.25298 
L 536.340064 205.194459 
L 536.609701 205.007072 
L 536.878215 204.474429 
L 537.412249 202.656481 
L 538.735115 197.043807 
L 539.524553 193.991065 
L 539.787408 193.45977 
L 540.050115 193.289224 
L 540.312607 193.540466 
L 540.574769 194.263557 
L 541.357738 198.141882 
L 542.13283 201.388001 
L 542.899005 203.891681 
L 543.152528 204.309154 
L 543.65704 204.580913 
L 544.408503 204.719437 
L 546.643199 204.769222 
L 546.890798 204.605442 
L 547.138263 204.224505 
L 547.879836 202.252227 
L 550.347295 195.148747 
L 551.088263 193.772392 
L 553.573094 189.859212 
L 553.823602 190.503257 
L 554.576709 195.037862 
L 554.827817 195.510298 
L 555.83169 195.815168 
L 556.584929 196.029589 
L 557.087733 196.053388 
L 557.339398 195.847137 
L 557.59129 195.351761 
L 558.09607 193.558116 
L 561.720316 177.999108 
L 561.987627 177.19793 
L 562.256251 176.933452 
L 562.797258 176.867859 
L 564.447613 176.938439 
L 564.726354 176.70183 
L 565.286919 175.311808 
L 565.8519 173.699789 
L 566.421678 171.223347 
L 566.708508 170.831882 
L 566.996602 172.003307 
L 567.575706 176.691358 
L 568.736694 186.358042 
L 571.575869 208.96962 
L 572.668455 217.267428 
L 573.202075 219.625052 
L 573.727148 220.714184 
L 574.244119 220.985793 
L 575.99714 221.562209 
L 576.483594 221.713103 
L 576.72464 221.533621 
L 576.964314 221.072275 
L 577.439941 218.962401 
L 579.548877 205.015307 
L 581.185033 195.252946 
L 583.095213 185.201546 
L 585.637753 172.88666 
L 587.556802 164.825703 
L 589.588724 157.229543 
L 591.730016 150.03686 
L 593.976584 143.198296 
L 596.667437 135.767369 
L 599.483681 128.701277 
L 602.419171 121.961484 
L 605.468245 115.51602 
L 608.625746 109.33798 
L 611.886974 103.404355 
L 615.674507 96.997805 
L 619.582293 90.853032 
L 623.605213 84.95222 
L 625.428887 82.228067 
L 625.888168 81.169541 
L 626.348784 81.597145 
L 627.273598 87.220175 
L 629.59203 101.892273 
L 633.70275 127.640175 
L 634.149683 129.766263 
L 634.594168 130.637293 
L 635.036233 130.865542 
L 637.213483 130.892212 
L 637.642973 130.651218 
L 638.070704 130.174841 
L 638.921378 128.732342 
L 641.862243 122.951032 
L 646.020797 114.960164 
L 651.865819 104.450738 
L 656.14758 97.303097 
L 660.100136 91.149286 
L 664.608932 84.589698 
L 668.773599 78.913405 
L 673.038458 73.44643 
L 677.892441 67.601496 
L 679.28 65.997963 
L 679.28 65.997963 
" clip-path="url(#p3e9dc3801b)" style="fill: none; stroke-dasharray: 3.33,1.44; stroke-dashoffset: 0; stroke: #000000; stroke-width: 0.9"/>
   </g>
   <g id="line2d_26">
    <path d="M 80.88 77.483432 
L 86.397885 71.137725 
L 92.049817 64.985809 
L 97.831349 59.050229 
L 103.737791 53.333603 
L 109.764501 47.830212 
L 110.31816 47.395301 
L 110.872499 47.141842 
L 111.427159 47.058825 
L 111.981835 47.123817 
L 112.536246 47.328637 
L 113.643234 48.125165 
L 114.746188 49.389189 
L 115.843387 51.070296 
L 116.933292 53.124183 
L 118.551503 56.820288 
L 120.146181 61.156498 
L 121.713863 66.039231 
L 123.757059 73.265733 
L 125.741174 81.172289 
L 127.661401 89.635677 
L 129.965915 100.847312 
L 132.158325 112.618288 
L 134.634522 127.308734 
L 136.936217 142.42414 
L 139.059731 157.755185 
L 141.309955 175.678305 
L 143.584564 195.765943 
L 145.79228 214.947962 
L 147.71001 229.466107 
L 148.492705 234.06967 
L 150.621648 244.67661 
L 151.396854 247.464075 
L 151.985359 248.837128 
L 152.415463 249.33198 
L 152.69929 249.385402 
L 152.982114 249.223787 
L 153.405623 248.601714 
L 157.188496 240.890881 
L 157.694066 239.487347 
L 158.209523 237.259827 
L 158.742789 234.07582 
L 160.522411 221.368656 
L 162.566335 207.920542 
L 164.323506 197.746888 
L 165.937056 189.636714 
L 167.935631 180.782636 
L 170.051231 172.484092 
L 172.276779 164.660774 
L 173.262501 161.653989 
L 173.927725 160.484422 
L 174.261699 160.162409 
L 174.596142 160.001836 
L 174.93075 159.99112 
L 175.265242 160.118842 
L 175.932854 160.753589 
L 176.597081 161.845531 
L 177.256244 163.34393 
L 178.232263 166.257191 
L 179.189217 169.842079 
L 180.429465 175.443276 
L 182.202087 184.806498 
L 184.910677 200.510154 
L 186.394031 208.856295 
L 188.240226 217.696154 
L 189.116217 221.082073 
L 190.38253 225.107565 
L 191.197421 227.038929 
L 191.796025 227.88262 
L 192.387013 228.294688 
L 192.97326 228.435387 
L 193.363136 228.305434 
L 193.949419 227.753401 
L 194.739503 226.529609 
L 195.749262 224.472268 
L 196.370744 222.686553 
L 197.007716 220.097626 
L 197.665487 216.30009 
L 198.820444 209.229292 
L 199.300789 207.31119 
L 199.787267 206.098741 
L 200.277412 205.431988 
L 200.769238 205.217655 
L 201.261145 205.369025 
L 201.751883 205.806503 
L 202.483807 206.840605 
L 203.448859 208.625987 
L 207.825752 217.548117 
L 208.707968 218.788875 
L 209.363143 219.375664 
L 210.014335 219.642399 
L 210.447098 219.608996 
L 210.87952 219.38641 
L 211.52911 218.708629 
L 212.619757 217.031525 
L 213.95116 214.547312 
L 214.859085 212.496902 
L 215.78698 209.763672 
L 216.983353 205.552078 
L 217.4722 204.794114 
L 217.963704 204.602781 
L 218.455829 204.87363 
L 218.946961 205.497599 
L 222.075476 210.366242 
L 223.017866 211.406552 
L 223.487146 211.672548 
L 224.659128 212.062821 
L 225.358838 212.653007 
L 226.281522 213.78413 
L 228.310155 216.457035 
L 229.63486 217.794872 
L 230.509195 218.379324 
L 231.596747 218.852409 
L 232.464897 219.049014 
L 233.333187 218.953266 
L 234.855479 218.787173 
L 237.031645 218.691398 
L 237.467926 218.403788 
L 238.12541 217.60058 
L 238.788545 216.344805 
L 239.685572 214.088657 
L 241.777894 207.898519 
L 242.994808 203.768556 
L 244.261909 198.244025 
L 246.130224 190.489838 
L 248.978082 180.027466 
L 251.717913 170.524085 
L 254.960678 159.999915 
L 257.700504 151.950378 
L 260.562949 144.275665 
L 263.542236 136.959859 
L 266.632985 129.974697 
L 268.218432 126.753177 
L 269.019146 125.865516 
L 269.42047 125.672438 
L 269.822019 125.631446 
L 270.223509 125.73143 
L 271.025276 126.310752 
L 271.823921 127.317619 
L 273.012886 129.42008 
L 274.188125 131.98529 
L 276.112026 136.384971 
L 277.622704 139.308218 
L 278.742004 141.103503 
L 279.852235 142.456449 
L 280.955861 143.436552 
L 282.419538 144.381092 
L 283.87571 145.041901 
L 286.409335 146.057324 
L 288.205787 147.332852 
L 289.278526 147.813619 
L 289.992613 147.952087 
L 290.706562 147.861166 
L 291.420961 147.530499 
L 292.495535 146.714693 
L 293.93739 145.258927 
L 296.49133 142.200031 
L 297.97229 140.198458 
L 299.096392 138.299972 
L 301.767999 132.978057 
L 306.92618 123.069894 
L 311.909975 114.074952 
L 312.760163 113.153733 
L 313.186285 112.940711 
L 313.612674 112.879874 
L 314.03904 112.963287 
L 314.465109 113.181981 
L 315.315353 113.990636 
L 316.161548 115.249431 
L 317.00204 116.90881 
L 318.248902 120.055278 
L 319.47532 123.88283 
L 320.677616 128.29037 
L 322.237798 134.925617 
L 323.743351 142.279904 
L 325.540831 152.282725 
L 327.237208 162.987582 
L 329.132193 176.285489 
L 332.206377 199.81965 
L 334.147593 213.960137 
L 335.896941 225.006038 
L 337.30688 232.10609 
L 338.777902 240.080839 
L 340.963263 252.739881 
L 341.796486 256.149191 
L 342.460764 258.06485 
L 342.979304 258.956351 
L 343.236921 259.088438 
L 343.494999 258.961209 
L 343.754827 258.56179 
L 344.150681 257.483733 
L 344.696156 255.255965 
L 345.568595 250.450929 
L 346.862649 241.818769 
L 348.527507 230.284271 
L 348.924912 228.791346 
L 349.327253 227.89534 
L 349.73229 227.498616 
L 350.138143 227.510389 
L 350.745643 227.940614 
L 351.752101 228.629455 
L 353.550104 229.50229 
L 354.147722 229.461577 
L 354.746766 229.127766 
L 355.549255 228.324085 
L 356.760897 226.739733 
L 357.780622 224.991182 
L 359.026621 222.278643 
L 360.089614 219.499178 
L 361.182675 216.088939 
L 362.087081 212.636895 
L 363.026 208.141706 
L 364.515352 200.32242 
L 365.030322 198.761519 
L 365.550186 197.866904 
L 366.072593 197.446671 
L 366.596191 197.259611 
L 367.120203 197.248101 
L 367.643944 197.41389 
L 368.427579 197.974864 
L 369.207099 198.836525 
L 373.518615 204.2576 
L 374.013982 204.488006 
L 374.508268 204.50492 
L 375.002228 204.305737 
L 375.496545 203.905086 
L 376.239954 202.991342 
L 377.238923 201.372029 
L 378.253379 199.346138 
L 379.027986 197.413974 
L 379.816338 194.871179 
L 385.256165 174.097465 
L 388.757395 162.455509 
L 391.459666 154.305835 
L 394.286204 146.525913 
L 397.231196 139.109137 
L 400.289173 132.030062 
L 401.463939 129.521651 
L 402.254391 128.360615 
L 402.65098 128.036362 
L 403.048042 127.873539 
L 403.445273 127.861488 
L 403.84239 127.988842 
L 404.635247 128.627065 
L 405.424692 129.730483 
L 406.209014 131.247148 
L 407.37261 134.199954 
L 408.516836 137.853114 
L 409.637916 142.101808 
L 411.091175 148.544614 
L 412.832611 157.511752 
L 415.118458 170.760386 
L 418.071358 189.399613 
L 421.399212 210.394662 
L 422.326485 215.020516 
L 425.89639 230.498197 
L 427.898689 238.563764 
L 428.747172 241.236479 
L 429.571137 243.115858 
L 430.219823 244.096877 
L 430.70313 244.541139 
L 431.185656 244.700563 
L 431.507994 244.596318 
L 431.831742 244.289536 
L 432.321763 243.439489 
L 432.988276 241.732417 
L 434.026991 238.341714 
L 435.306743 233.402224 
L 436.871045 226.306049 
L 438.78428 216.671467 
L 443.217665 193.238986 
L 445.166215 184.490119 
L 447.231447 176.150215 
L 449.407681 168.219334 
L 451.689419 160.681912 
L 454.071475 153.508957 
L 456.910598 145.71476 
L 459.868191 138.306775 
L 462.938548 131.245332 
L 464.117877 128.763084 
L 464.911048 127.728038 
L 465.308809 127.465574 
L 465.706928 127.358841 
L 466.10511 127.399514 
L 466.503077 127.577866 
L 467.297349 128.310757 
L 468.087859 129.498875 
L 468.872936 131.089432 
L 470.037188 134.125337 
L 471.181796 137.779222 
L 472.672 143.374392 
L 474.469411 151.19354 
L 479.089263 172.452188 
L 480.910828 179.1711 
L 482.085466 182.705164 
L 482.950269 184.731282 
L 484.086441 186.758642 
L 485.205182 188.370493 
L 486.308538 189.636772 
L 487.128144 190.302387 
L 487.943728 190.680243 
L 488.75727 190.812827 
L 489.29945 190.665918 
L 489.842298 190.282424 
L 490.386457 189.659721 
L 491.207845 188.343875 
L 492.319578 186.004467 
L 493.171432 183.6937 
L 494.042047 180.602907 
L 496.157294 172.393769 
L 498.710157 163.531228 
L 499.702436 160.494736 
L 500.372273 159.272504 
L 500.708603 158.942677 
L 501.045416 158.773896 
L 501.382414 158.753189 
L 501.719317 158.871231 
L 502.391799 159.49471 
L 503.060936 160.578329 
L 503.725064 162.056009 
L 504.708793 164.89436 
L 505.991332 169.498988 
L 507.544577 174.869272 
L 509.050673 179.200112 
L 510.228135 181.964341 
L 511.098235 183.894189 
L 511.955803 186.458407 
L 516.495497 201.48921 
L 517.2488 203.079231 
L 517.746494 203.701535 
L 518.2422 203.976841 
L 518.737219 203.975367 
L 519.232558 203.774073 
L 519.977246 203.204622 
L 520.725075 202.366881 
L 521.730317 200.82074 
L 523.006534 198.524218 
L 523.786069 196.522053 
L 524.580249 193.692875 
L 527.660745 181.574588 
L 528.249189 179.718561 
L 528.843772 178.511619 
L 529.441826 177.944487 
L 529.74141 177.871238 
L 530.041018 177.923986 
L 530.639374 178.368948 
L 531.235219 179.207659 
L 532.121278 181.056359 
L 532.994757 183.491864 
L 535.249055 190.303282 
L 536.609701 193.585757 
L 537.412249 195.106869 
L 538.207517 196.105491 
L 538.735115 196.489752 
L 539.261571 196.667177 
L 540.574769 196.875848 
L 541.097486 197.28786 
L 541.61709 198.019018 
L 542.64457 200.019466 
L 543.65704 202.001097 
L 544.408503 202.981668 
L 545.155352 203.522604 
L 546.890798 204.19981 
L 547.879836 204.487009 
L 548.867122 204.503899 
L 549.853772 204.249101 
L 551.088263 203.618282 
L 552.575289 202.633593 
L 554.325559 201.203237 
L 555.078855 201.234088 
L 556.584929 201.242848 
L 557.59129 201.061274 
L 558.09607 200.771226 
L 558.6029 200.247301 
L 559.368577 199.054493 
L 560.402487 196.94161 
L 563.893174 189.365983 
L 565.8519 185.708332 
L 567.285766 182.713057 
L 567.575706 182.401169 
L 567.866091 182.253015 
L 568.156583 182.259263 
L 568.446872 182.402819 
L 569.025823 183.056227 
L 569.887381 184.677418 
L 570.73807 186.779752 
L 571.851916 190.14061 
L 572.668455 193.345956 
L 574.753541 201.741748 
L 576.241111 206.756059 
L 577.202705 209.55664 
L 577.91158 210.988092 
L 578.380607 211.504757 
L 578.848261 211.72281 
L 579.315381 211.69301 
L 579.782353 211.466866 
L 580.482772 210.856684 
L 581.185033 209.924578 
L 582.370229 208.030529 
L 582.852129 206.964318 
L 583.339869 205.506975 
L 584.085045 202.386319 
L 586.720351 190.388483 
L 588.996848 180.972522 
L 591.417572 171.906951 
L 593.976584 163.243935 
L 596.667437 154.997756 
L 599.483681 147.158154 
L 602.419171 139.697931 
L 605.468245 132.584329 
L 608.625746 125.786164 
L 611.886974 119.275854 
L 615.247633 113.029453 
L 619.142319 106.291973 
L 623.152686 99.836807 
L 626.348784 94.995317 
L 627.273598 93.954945 
L 627.737182 93.700184 
L 628.201104 93.604788 
L 628.665068 93.65596 
L 629.128797 93.844511 
L 630.054525 94.602346 
L 630.976381 95.822367 
L 631.892666 97.451164 
L 633.253442 100.549274 
L 637.213483 110.83488 
L 638.496795 113.447207 
L 639.766562 115.456825 
L 640.607303 116.46736 
L 641.444592 117.234227 
L 642.279393 117.776989 
L 643.112637 118.122746 
L 644.360701 118.394377 
L 647.264661 118.798517 
L 648.095452 118.638684 
L 648.928294 118.14392 
L 649.763562 117.273694 
L 652.289206 114.164189 
L 653.993154 112.096117 
L 658.771701 105.418994 
L 667.839407 92.645872 
L 673.038458 85.708939 
L 677.892441 79.565636 
L 679.28 77.871388 
L 679.28 77.871388 
" clip-path="url(#p3e9dc3801b)" style="fill: none; stroke: #1f77b4; stroke-width: 1.2; stroke-linecap: square"/>
   </g>
   <g id="patch_3">
    <path d="M 50.96 271.261644 
L 50.96 26.88 
" style="fill: none; stroke: #000000; stroke-width: 0.8; stroke-linejoin: miter; stroke-linecap: square"/>
   </g>
   <g id="patch_4">
    <path d="M 709.2 271.261644 
L 709.2 26.88 
" style="fill: none; stroke: #000000; stroke-width: 0.8; stroke-linejoin: miter; stroke-linecap: square"/>
   </g>
   <g id="patch_5">
    <path d="M 50.96 271.261644 
L 709.2 271.261644 
" style="fill: none; stroke: #000000; stroke-width: 0.8; stroke-linejoin: miter; stroke-linecap: square"/>
   </g>
   <g id="patch_6">
    <path d="M 50.96 26.88 
L 709.2 26.88 
" style="fill: none; stroke: #000000; stroke-width: 0.8; stroke-linejoin: miter; stroke-linecap: square"/>
   </g>
   <g id="text_9">
    <!-- speed tracking and lateral offset over the lap -->
    <g transform="translate(244.124688 20.88) scale(0.12 -0.12)">
     <defs>
      <path id="DejaVuSans-74" d="M 1172 4494 
L 1172 3500 
L 2356 3500 
L 2356 3053 
L 1172 3053 
L 1172 1153 
Q 1172 725 1289 603 
Q 1406 481 1766 481 
L 2356 481 
L 2356 0 
L 1766 0 
Q 1100 0 847 248 
Q 594 497 594 1153 
L 594 3053 
L 172 3053 
L 172 3500 
L 594 3500 
L 594 4494 
L 1172 4494 
z
" transform="scale(0.015625)"/>
      <path id="DejaVuSans-72" d="M 2631 2963 
Q 2534 3019 2420 3045 
Q 2306 3072 2169 3072 
Q 1681 3072 1420 2755 
Q 1159 2438 1159 1844 
L 1159 0 
L 581 0 
L 581 3500 
L 1159 3500 
L 1159 2956 
Q 1341 3275 1631 3429 
Q 1922 3584 2338 3584 
Q 2397 3584 2469 3576 
Q 2541 3569 2628 3553 
L 2631 2963 
z
" transform="scale(0.015625)"/>
      <path id="DejaVuSans-61" d="M 2194 1759 
Q 1497 1759 1228 1600 
Q 959 1441 959 1056 
Q 959 750 1161 570 
Q 1363 391 1709 391 
Q 2188 391 2477 730 
Q 2766 1069 2766 1631 
L 2766 1759 
L 2194 1759 
z
M 3341 1997 
L 3341 0 
L 2766 0 
L 2766 531 
Q 2569 213 2275 61 
Q 1981 -91 1556 -91 
Q 1019 -91 701 211 
Q 384 513 384 1019 
Q 384 1609 779 1909 
Q 1175 2209 1959 2209 
L 2766 2209 
L 2766 2266 
Q 2766 2663 2505 2880 
Q 2244 3097 1772 3097 
Q 1472 3097 1187 3025 
Q 903 2953 641 2809 
L 641 3341 
Q 956 3463 1253 3523 
Q 1550 3584 1831 3584 
Q 2591 3584 2966 3190 
Q 3341 2797 3341 1997 
z
" transform="scale(0.015625)"/>
      <path id="DejaVuSans-63" d="M 3122 3366 
L 3122 2828 
Q 2878 2963 2633 3030 
Q 2388 3097 2138 3097 
Q 1578 3097 1268 2742 
Q 959 2388 959 1747 
Q 959 1106 1268 751 
Q 1578 397 2138 397 
Q 2388 397 2633 464 
Q 2878 531 3122 666 
L 3122 134 
Q 2881 22 2623 -34 
Q 2366 -91 2075 -91 
Q 1284 -91 818 406 
Q 353 903 353 1747 
Q 353 2603 823 3093 
Q 1294 3584 2113 3584 
Q 2378 3584 2631 3529 
Q 2884 3475 3122 3366 
z
" transform="scale(0.015625)"/>
      <path id="DejaVuSans-69" d="M 603 3500 
L 1178 3500 
L 1178 0 
L 603 0 
L 603 3500 
z
M 603 4863 
L 1178 4863 
L 1178 4134 
L 603 4134 
L 603 4863 
z
" transform="scale(0.015625)"/>
      <path id="DejaVuSans-6e" d="M 3513 2113 
L 3513 0 
L 2938 0 
L 2938 2094 
Q 2938 2591 2744 2837 
Q 2550 3084 2163 3084 
Q 1697 3084 1428 2787 
Q 1159 2491 1159 1978 
L 1159 0 
L 581 0 
L 581 3500 
L 1159 3500 
L 1159 2956 
Q 1366 3272 1645 3428 
Q 1925 3584 2291 3584 
Q 2894 3584 3203 3211 
Q 3513 2838 3513 2113 
z
" transform="scale(0.015625)"/>
      <path id="DejaVuSans-67" d="M 2906 1791 
Q 2906 2416 2648 2759 
Q 2391 3103 1925 3103 
Q 1463 3103 1205 2759 
Q 947 2416 947 1791 
Q 947 1169 1205 825 
Q 1463 481 1925 481 
Q 2391 481 2648 825 
Q 2906 1169 2906 1791 
z
M 3481 434 
Q 3481 -459 3084 -895 
Q 2688 -1331 1869 -1331 
Q 1566 -1331 1297 -1286 
Q 1028 -1241 775 -1147 
L 775 -588 
Q 1028 -725 1275 -790 
Q 1522 -856 1778 -856 
Q 2344 -856 2625 -561 
Q 2906 -266 2906 331 
L 2906 616 
Q 2728 306 2450 153 
Q 2172 0 1784 0 
Q 1141 0 747 490 
Q 353 981 353 1791 
Q 353 2603 747 3093 
Q 1141 3584 1784 3584 
Q 2172 3584 2450 3431 
Q 2728 3278 2906 2969 
L 2906 3500 
L 3481 3500 
L 3481 434 
z
" transform="scale(0.015625)"/>
      <path id="DejaVuSans-6c" d="M 603 4863 
L 1178 4863 
L 1178 0 
L 603 0 
L 603 4863 
z
" transform="scale(0.015625)"/>
      <path id="DejaVuSans-6f" d="M 1959 3097 
Q 1497 3097 1228 2736 
Q 959 2375 959 1747 
Q 959 1119 1226 758 
Q 1494 397 1959 397 
Q 2419 397 2687 759 
Q 2956 1122 2956 1747 
Q 2956 2369 2687 2733 
Q 2419 3097 1959 3097 
z
M 1959 3584 
Q 2709 3584 3137 3096 
Q 3566 2609 3566 1747 
Q 3566 888 3137 398 
Q 2709 -91 1959 -91 
Q 1206 -91 779 398 
Q 353 888 353 1747 
Q 353 2609 779 3096 
Q 1206 3584 1959 3584 
z
" transform="scale(0.015625)"/>
      <path id="DejaVuSans-66" d="M 2375 4863 
L 2375 4384 
L 1825 4384 
Q 1516 4384 1395 4259 
Q 1275 4134 1275 3809 
L 1275 3500 
L 2222 3500 
L 2222 3053 
L 1275 3053 
L 1275 0 
L 697 0 
L 697 3053 
L 147 3053 
L 147 3500 
L 697 3500 
L 697 3744 
Q 697 4328 969 4595 
Q 1241 4863 1831 4863 
L 2375 4863 
z
" transform="scale(0.015625)"/>
      <path id="DejaVuSans-76" d="M 191 3500 
L 800 3500 
L 1894 563 
L 2988 3500 
L 3597 3500 
L 2284 0 
L 1503 0 
L 191 3500 
z
" transform="scale(0.015625)"/>
     </defs>
     <use xlink:href="#DejaVuSans-73"/>
     <use xlink:href="#DejaVuSans-70" transform="translate(52.099609 0)"/>
     <use xlink:href="#DejaVuSans-65" transform="translate(115.576172 0)"/>
     <use xlink:href="#DejaVuSans-65" transform="translate(177.099609 0)"/>
     <use xlink:href="#DejaVuSans-64" transform="translate(238.623047 0)"/>
     <use xlink:href="#DejaVuSans-20" transform="translate(302.099609 0)"/>
     <use xlink:href="#DejaVuSans-74" transform="translate(333.886719 0)"/>
     <use xlink:href="#DejaVuSans-72" transform="translate(373.095703 0)"/>
     <use xlink:href="#DejaVuSans-61" transform="translate(414.208984 0)"/>
     <use xlink:href="#DejaVuSans-63" transform="translate(475.488281 0)"/>
     <use xlink:href="#DejaVuSans-6b" transform="translate(530.46875 0)"/>
     <use xlink:href="#DejaVuSans-69" transform="translate(588.378906 0)"/>
     <use xlink:href="#DejaVuSans-6e" transform="translate(616.162109 0)"/>
     <use xlink:href="#DejaVuSans-67" transform="translate(679.541016 0)"/>
     <use xlink:href="#DejaVuSans-20" transform="translate(743.017578 0)"/>
     <use xlink:href="#DejaVuSans-61" transform="translate(774.804688 0)"/>
     <use xlink:href="#DejaVuSans-6e" transform="translate(836.083984 0)"/>
     <use xlink:href="#DejaVuSans-64" transform="translate(899.462891 0)"/>
     <use xlink:href="#DejaVuSans-20" transform="translate(962.939453 0)"/>
     <use xlink:href="#DejaVuSans-6c" transform="translate(994.726562 0)"/>
     <use xlink:href="#DejaVuSans-61" transform="translate(1022.509766 0)"/>
     <use xlink:href="#DejaVuSans-74" transform="translate(1083.789062 0)"/>
     <use xlink:href="#DejaVuSans-65" transform="translate(1122.998047 0)"/>
     <use xlink:href="#DejaVuSans-72" transform="translate(1184.521484 0)"/>
     <use xlink:href="#DejaVuSans-61" transform="translate(1225.634766 0)"/>
     <use xlink:href="#DejaVuSans-6c" transform="translate(1286.914062 0)"/>
     <use xlink:href="#DejaVuSans-20" transform="translate(1314.697266 0)"/>
     <use xlink:href="#DejaVuSans-6f" transform="translate(1346.484375 0)"/>
     <use xlink:href="#DejaVuSans-66" transform="translate(1407.666016 0)"/>
     <use xlink:href="#DejaVuSans-66" transform="translate(1442.871094 0)"/>
     <use xlink:href="#DejaVuSans-73" transform="translate(1478.076172 0)"/>
     <use xlink:href="#DejaVuSans-65" transform="translate(1530.175781 0)"/>
     <use xlink:href="#DejaVuSans-74" transform="translate(1591.699219 0)"/>
     <use xlink:href="#DejaVuSans-20" transform="translate(1630.908203 0)"/>
     <use xlink:href="#DejaVuSans-6f" transform="translate(1662.695312 0)"/>
     <use xlink:href="#DejaVuSans-76" transform="translate(1723.876953 0)"/>
     <use xlink:href="#DejaVuSans-65" transform="translate(1783.056641 0)"/>
     <use xlink:href="#DejaVuSans-72" transform="translate(1844.580078 0)"/>
     <use xlink:href="#DejaVuSans-20" transform="translate(1885.693359 0)"/>
     <use xlink:href="#DejaVuSans-74" transform="translate(1917.480469 0)"/>
     <use xlink:href="#DejaVuSans-68" transform="translate(1956.689453 0)"/>
     <use xlink:href="#DejaVuSans-65" transform="translate(2020.068359 0)"/>
     <use xlink:href="#DejaVuSans-20" transform="translate(2081.591797 0)"/>
     <use xlink:href="#DejaVuSans-6c" transform="translate(2113.378906 0)"/>
     <use xlink:href="#DejaVuSans-61" transform="translate(2141.162109 0)"/>
     <use xlink:href="#DejaVuSans-70" transform="translate(2202.441406 0)"/>
    </g>
   </g>
   <g id="legend_1">
    <g id="patch_7">
     <path d="M 528.02375 267.261644 
L 703.6 267.261644 
Q 705.2 267.261644 705.2 265.661644 
L 705.2 242.976644 
Q 705.2 241.376644 703.6 241.376644 
L 528.02375 241.376644 
Q 526.42375 241.376644 526.42375 242.976644 
L 526.42375 265.661644 
Q 526.42375 267.261644 528.02375 267.261644 
z
" style="fill: #ffffff; opacity: 0.8; stroke: #cccccc; stroke-linejoin: miter"/>
    </g>
    <g id="line2d_27">
     <path d="M 529.62375 247.855394 
L 537.62375 247.855394 
L 545.62375 247.855394 
" style="fill: none; stroke-dasharray: 3.33,1.44; stroke-dashoffset: 0; stroke: #000000; stroke-width: 0.9"/>
    </g>
    <g id="text_10">
     <!-- minimum-time reference (previewed) -->
     <g transform="translate(552.02375 250.655394) scale(0.08 -0.08)">
      <defs>
       <path id="DejaVuSans-75" d="M 544 1381 
L 544 3500 
L 1119 3500 
L 1119 1403 
Q 1119 906 1312 657 
Q 1506 409 1894 409 
Q 2359 409 2629 706 
Q 2900 1003 2900 1516 
L 2900 3500 
L 3475 3500 
L 3475 0 
L 2900 0 
L 2900 538 
Q 2691 219 2414 64 
Q 2138 -91 1772 -91 
Q 1169 -91 856 284 
Q 544 659 544 1381 
z
M 1991 3584 
L 1991 3584 
z
" transform="scale(0.015625)"/>
       <path id="DejaVuSans-2d" d="M 313 2009 
L 1997 2009 
L 1997 1497 
L 313 1497 
L 313 2009 
z
" transform="scale(0.015625)"/>
       <path id="DejaVuSans-28" d="M 1984 4856 
Q 1566 4138 1362 3434 
Q 1159 2731 1159 2009 
Q 1159 1288 1364 580 
Q 1569 -128 1984 -844 
L 1484 -844 
Q 1016 -109 783 600 
Q 550 1309 550 2009 
Q 550 2706 781 3412 
Q 1013 4119 1484 4856 
L 1984 4856 
z
" transform="scale(0.015625)"/>
       <path id="DejaVuSans-77" d="M 269 3500 
L 844 3500 
L 1563 769 
L 2278 3500 
L 2956 3500 
L 3675 769 
L 4391 3500 
L 4966 3500 
L 4050 0 
L 3372 0 
L 2619 2869 
L 1863 0 
L 1184 0 
L 269 3500 
z
" transform="scale(0.015625)"/>
       <path id="DejaVuSans-29" d="M 513 4856 
L 1013 4856 
Q 1481 4119 1714 3412 
Q 1947 2706 1947 2009 
Q 1947 1309 1714 600 
Q 1481 -109 1013 -844 
L 513 -844 
Q 928 -128 1133 580 
Q 1338 1288 1338 2009 
Q 1338 2731 1133 3434 
Q 928 4138 513 4856 
z
" transform="scale(0.015625)"/>
      </defs>
      <use xlink:href="#DejaVuSans-6d"/>
      <use xlink:href="#DejaVuSans-69" transform="translate(97.412109 0)"/>
      <use xlink:href="#DejaVuSans-6e" transform="translate(125.195312 0)"/>
      <use xlink:href="#DejaVuSans-69" transform="translate(188.574219 0)"/>
      <use xlink:href="#DejaVuSans-6d" transform="translate(216.357422 0)"/>
      <use xlink:href="#DejaVuSans-75" transform="translate(313.769531 0)"/>
      <use xlink:href="#DejaVuSans-6d" transform="translate(377.148438 0)"/>
      <use xlink:href="#DejaVuSans-2d" transform="translate(474.560547 0)"/>
      <use xlink:href="#DejaVuSans-74" transform="translate(510.644531 0)"/>
      <use xlink:href="#DejaVuSans-69" transform="translate(549.853516 0)"/>
      <use xlink:href="#DejaVuSans-6d" transform="translate(577.636719 0)"/>
      <use xlink:href="#DejaVuSans-65" transform="translate(675.048828 0)"/>
      <use xlink:href="#DejaVuSans-20" transform="translate(736.572266 0)"/>
      <use xlink:href="#DejaVuSans-72" transform="translate(768.359375 0)"/>
      <use xlink:href="#DejaVuSans-65" transform="translate(807.222656 0)"/>
      <use xlink:href="#DejaVuSans-66" transform="translate(868.746094 0)"/>
      <use xlink:href="#DejaVuSans-65" transform="translate(903.951172 0)"/>
      <use xlink:href="#DejaVuSans-72" transform="translate(965.474609 0)"/>
      <use xlink:href="#DejaVuSans-65" transform="translate(1004.337891 0)"/>
      <use xlink:href="#DejaVuSans-6e" transform="translate(1065.861328 0)"/>
      <use xlink:href="#DejaVuSans-63" transform="translate(1129.240234 0)"/>
      <use xlink:href="#DejaVuSans-65" transform="translate(1184.220703 0)"/>
      <use xlink:href="#DejaVuSans-20" transform="translate(1245.744141 0)"/>
      <use xlink:href="#DejaVuSans-28" transform="translate(1277.53125 0)"/>
      <use xlink:href="#DejaVuSans-70" transform="translate(1316.544922 0)"/>
      <use xlink:href="#DejaVuSans-72" transform="translate(1380.021484 0)"/>
      <use xlink:href="#DejaVuSans-65" transform="translate(1418.884766 0)"/>
      <use xlink:href="#DejaVuSans-76" transform="translate(1480.408203 0)"/>
      <use xlink:href="#DejaVuSans-69" transform="translate(1539.587891 0)"/>
      <use xlink:href="#DejaVuSans-65" transform="translate(1567.371094 0)"/>
      <use xlink:href="#DejaVuSans-77" transform="translate(1628.894531 0)"/>
      <use xlink:href="#DejaVuSans-65" transform="translate(1710.681641 0)"/>
      <use xlink:href="#DejaVuSans-64" transform="translate(1772.205078 0)"/>
      <use xlink:href="#DejaVuSans-29" transform="translate(1835.681641 0)"/>
     </g>
    </g>
    <g id="line2d_28">
     <path d="M 529.62375 259.597894 
L 537.62375 259.597894 
L 545.62375 259.597894 
" style="fill: none; stroke: #1f77b4; stroke-width: 1.2; stroke-linecap: square"/>
    </g>
    <g id="text_11">
     <!-- vehicle -->
     <g transform="translate(552.02375 262.397894) scale(0.08 -0.08)">
      <use xlink:href="#DejaVuSans-76"/>
      <use xlink:href="#DejaVuSans-65" transform="translate(59.179688 0)"/>
      <use xlink:href="#DejaVuSans-68" transform="translate(120.703125 0)"/>
      <use xlink:href="#DejaVuSans-69" transform="translate(184.082031 0)"/>
      <use xlink:href="#DejaVuSans-63" transform="translate(211.865234 0)"/>
      <use xlink:href="#DejaVuSans-6c" transform="translate(266.845703 0)"/>
      <use xlink:href="#DejaVuSans-65" transform="translate(294.628906 0)"/>
     </g>
    </g>
   </g>
  </g>
  <g id="axes_2">
   <g id="patch_8">
    <path d="M 50.96 390.04 
L 709.2 390.04 
L 709.2 288.214315 
L 50.96 288.214315 
z
" style="fill: #ffffff"/>
   </g>
   <g id="matplotlib.axis_3">
    <g id="xtick_6">
     <g id="line2d_29">
      <path d="M 80.88 390.04 
L 80.88 288.214315 
" clip-path="url(#p9b95be4ae9)" style="fill: none; stroke: #b0b0b0; stroke-opacity: 0.3; stroke-width: 0.8; stroke-linecap: square"/>
     </g>
     <g id="line2d_30">
      <g>
       <use xlink:href="#ma20db529f0" x="80.88" y="390.04" style="stroke: #000000; stroke-width: 0.8"/>
      </g>
     </g>
     <g id="text_12">
      <!-- 0.0 -->
      <g transform="translate(72.928438 404.638438) scale(0.1 -0.1)">
       <defs>
        <path id="DejaVuSans-2e" d="M 684 794 
L 1344 794 
L 1344 0 
L 684 0 
L 684 794 
z
" transform="scale(0.015625)"/>
       </defs>
       <use xlink:href="#DejaVuSans-30"/>
       <use xlink:href="#DejaVuSans-2e" transform="translate(63.623047 0)"/>
       <use xlink:href="#DejaVuSans-30" transform="translate(95.410156 0)"/>
      </g>
     </g>
    </g>
    <g id="xtick_7">
     <g id="line2d_31">
      <path d="M 209.292017 390.04 
L 209.292017 288.214315 
" clip-path="url(#p9b95be4ae9)" style="fill: none; stroke: #b0b0b0; stroke-opacity: 0.3; stroke-width: 0.8; stroke-linecap: square"/>
     </g>
     <g id="line2d_32">
      <g>
       <use xlink:href="#ma20db529f0" x="209.292017" y="390.04" style="stroke: #000000; stroke-width: 0.8"/>
      </g>
     </g>
     <g id="text_13">
      <!-- 0.5 -->
      <g transform="translate(201.340455 404.638438) scale(0.1 -0.1)">
       <defs>
        <path id="DejaVuSans-35" d="M 691 4666 
L 3169 4666 
L 3169 4134 
L 1269 4134 
L 1269 2991 
Q 1406 3038 1543 3061 
Q 1681 3084 1819 3084 
Q 2600 3084 3056 2656 
Q 3513 2228 3513 1497 
Q 3513 744 3044 326 
Q 2575 -91 1722 -91 
Q 1428 -91 1123 -41 
Q 819 9 494 109 
L 494 744 
Q 775 591 1075 516 
Q 1375 441 1709 441 
Q 2250 441 2565 725 
Q 2881 1009 2881 1497 
Q 2881 1984 2565 2268 
Q 2250 2553 1709 2553 
Q 1456 2553 1204 2497 
Q 953 2441 691 2322 
L 691 4666 
z
" transform="scale(0.015625)"/>
       </defs>
       <use xlink:href="#DejaVuSans-30"/>
       <use xlink:href="#DejaVuSans-2e" transform="translate(63.623047 0)"/>
       <use xlink:href="#DejaVuSans-35" transform="translate(95.410156 0)"/>
      </g>
     </g>
    </g>
    <g id="xtick_8">
     <g id="line2d_33">
      <path d="M 337.704034 390.04 
L 337.704034 288.214315 
" clip-path="url(#p9b95be4ae9)" style="fill: none; stroke: #b0b0b0; stroke-opacity: 0.3; stroke-width: 0.8; stroke-linecap: square"/>
     </g>
     <g id="line2d_34">
      <g>
       <use xlink:href="#ma20db529f0" x="337.704034" y="390.04" style="stroke: #000000; stroke-width: 0.8"/>
      </g>
     </g>
     <g id="text_14">
      <!-- 1.0 -->
      <g transform="translate(329.752472 404.638438) scale(0.1 -0.1)">
       <use xlink:href="#DejaVuSans-31"/>
       <use xlink:href="#DejaVuSans-2e" transform="translate(63.623047 0)"/>
       <use xlink:href="#DejaVuSans-30" transform="translate(95.410156 0)"/>
      </g>
     </g>
    </g>
    <g id="xtick_9">
     <g id="line2d_35">
      <path d="M 466.116051 390.04 
L 466.116051 288.214315 
" clip-path="url(#p9b95be4ae9)" style="fill: none; stroke: #b0b0b0; stroke-opacity: 0.3; stroke-width: 0.8; stroke-linecap: square"/>
     </g>
     <g id="line2d_36">
      <g>
       <use xlink:href="#ma20db529f0" x="466.116051" y="390.04" style="stroke: #000000; stroke-width: 0.8"/>
      </g>
     </g>
     <g id="text_15">
      <!-- 1.5 -->
      <g transform="translate(458.164489 404.638438) scale(0.1 -0.1)">
       <use xlink:href="#DejaVuSans-31"/>
       <use xlink:href="#DejaVuSans-2e" transform="translate(63.623047 0)"/>
       <use xlink:href="#DejaVuSans-35" transform="translate(95.410156 0)"/>
      </g>
     </g>
    </g>
    <g id="xtick_10">
     <g id="line2d_37">
      <path d="M 594.528069 390.04 
L 594.528069 288.214315 
" clip-path="url(#p9b95be4ae9)" style="fill: none; stroke: #b0b0b0; stroke-opacity: 0.3; stroke-width: 0.8; stroke-linecap: square"/>
     </g>
     <g id="line2d_38">
      <g>
       <use xlink:href="#ma20db529f0" x="594.528069" y="390.04" style="stroke: #000000; stroke-width: 0.8"/>
      </g>
     </g>
     <g id="text_16">
      <!-- 2.0 -->
      <g transform="translate(586.576506 404.638438) scale(0.1 -0.1)">
       <use xlink:href="#DejaVuSans-32"/>
       <use xlink:href="#DejaVuSans-2e" transform="translate(63.623047 0)"/>
       <use xlink:href="#DejaVuSans-30" transform="translate(95.410156 0)"/>
      </g>
     </g>
    </g>
    <g id="text_17">
     <!-- distance s [km] -->
     <g transform="translate(341.443281 418.316562) scale(0.1 -0.1)">
      <use xlink:href="#DejaVuSans-64"/>
      <use xlink:href="#DejaVuSans-69" transform="translate(63.476562 0)"/>
      <use xlink:href="#DejaVuSans-73" transform="translate(91.259766 0)"/>
      <use xlink:href="#DejaVuSans-74" transform="translate(143.359375 0)"/>
      <use xlink:href="#DejaVuSans-61" transform="translate(182.568359 0)"/>
      <use xlink:href="#DejaVuSans-6e" transform="translate(243.847656 0)"/>
      <use xlink:href="#DejaVuSans-63" transform="translate(307.226562 0)"/>
      <use xlink:href="#DejaVuSans-65" transform="translate(362.207031 0)"/>
      <use xlink:href="#DejaVuSans-20" transform="translate(423.730469 0)"/>
      <use xlink:href="#DejaVuSans-73" transform="translate(455.517578 0)"/>
      <use xlink:href="#DejaVuSans-20" transform="translate(507.617188 0)"/>
      <use xlink:href="#DejaVuSans-5b" transform="translate(539.404297 0)"/>
      <use xlink:href="#DejaVuSans-6b" transform="translate(578.417969 0)"/>
      <use xlink:href="#DejaVuSans-6d" transform="translate(636.328125 0)"/>
      <use xlink:href="#DejaVuSans-5d" transform="translate(733.740234 0)"/>
     </g>
    </g>
   </g>
   <g id="matplotlib.axis_4">
    <g id="ytick_8">
     <g id="line2d_39">
      <path d="M 50.96 359.410807 
L 709.2 359.410807 
" clip-path="url(#p9b95be4ae9)" style="fill: none; stroke: #b0b0b0; stroke-opacity: 0.3; stroke-width: 0.8; stroke-linecap: square"/>
     </g>
     <g id="line2d_40">
      <g>
       <use xlink:href="#m5b177e669d" x="50.96" y="359.410807" style="stroke: #000000; stroke-width: 0.8"/>
      </g>
     </g>
     <g id="text_18">
      <!-- 0 -->
      <g transform="translate(37.5975 363.210025) scale(0.1 -0.1)">
       <use xlink:href="#DejaVuSans-30"/>
      </g>
     </g>
    </g>
    <g id="ytick_9">
     <g id="line2d_41">
      <path d="M 50.96 324.560919 
L 709.2 324.560919 
" clip-path="url(#p9b95be4ae9)" style="fill: none; stroke: #b0b0b0; stroke-opacity: 0.3; stroke-width: 0.8; stroke-linecap: square"/>
     </g>
     <g id="line2d_42">
      <g>
       <use xlink:href="#m5b177e669d" x="50.96" y="324.560919" style="stroke: #000000; stroke-width: 0.8"/>
      </g>
     </g>
     <g id="text_19">
      <!-- 2 -->
      <g transform="translate(37.5975 328.360137) scale(0.1 -0.1)">
       <use xlink:href="#DejaVuSans-32"/>
      </g>
     </g>
    </g>
    <g id="ytick_10">
     <g id="line2d_43">
      <path d="M 50.96 289.711031 
L 709.2 289.711031 
" clip-path="url(#p9b95be4ae9)" style="fill: none; stroke: #b0b0b0; stroke-opacity: 0.3; stroke-width: 0.8; stroke-linecap: square"/>
     </g>
     <g id="line2d_44">
      <g>
       <use xlink:href="#m5b177e669d" x="50.96" y="289.711031" style="stroke: #000000; stroke-width: 0.8"/>
      </g>
     </g>
     <g id="text_20">
      <!-- 4 -->
      <g transform="translate(37.5975 293.510249) scale(0.1 -0.1)">
       <use xlink:href="#DejaVuSans-34"/>
      </g>
     </g>
    </g>
    <g id="text_21">
     <!-- offset n [m] -->
     <g transform="translate(31.517813 368.467001) rotate(-90) scale(0.1 -0.1)">
      <use xlink:href="#DejaVuSans-6f"/>
      <use xlink:href="#DejaVuSans-66" transform="translate(61.181641 0)"/>
      <use xlink:href="#DejaVuSans-66" transform="translate(96.386719 0)"/>
      <use xlink:href="#DejaVuSans-73" transform="translate(131.591797 0)"/>
      <use xlink:href="#DejaVuSans-65" transform="translate(183.691406 0)"/>
      <use xlink:href="#DejaVuSans-74" transform="translate(245.214844 0)"/>
      <use xlink:href="#DejaVuSans-20" transform="translate(284.423828 0)"/>
      <use xlink:href="#DejaVuSans-6e" transform="translate(316.210938 0)"/>
      <use xlink:href="#DejaVuSans-20" transform="translate(379.589844 0)"/>
      <use xlink:href="#DejaVuSans-5b" transform="translate(411.376953 0)"/>
      <use xlink:href="#DejaVuSans-6d" transform="translate(450.390625 0)"/>
      <use xlink:href="#DejaVuSans-5d" transform="translate(547.802734 0)"/>
     </g>
    </g>
   </g>
   <g id="line2d_45">
    <path d="M 80.88 359.410807 
L 140.691981 359.507315 
L 145.093097 359.986351 
L 145.79228 360.395456 
L 146.675287 361.228456 
L 147.908888 362.463955 
L 148.300058 362.571717 
L 148.683447 362.321114 
L 149.058907 361.551276 
L 149.425503 360.140392 
L 149.781865 357.997815 
L 150.29454 353.401175 
L 151.093109 343.25895 
L 153.546804 309.364359 
L 154.544536 299.48642 
L 155.131763 295.442671 
L 155.584321 293.528758 
L 155.893004 292.91753 
L 156.049678 292.842755 
L 156.207955 292.9373 
L 156.529266 293.681942 
L 156.856439 295.243817 
L 157.356073 299.288577 
L 157.864572 305.517223 
L 159.499329 328.900354 
L 160.31108 336.278797 
L 161.175779 341.761416 
L 162.090658 345.963742 
L 163.053963 349.180071 
L 164.063979 351.616056 
L 165.118383 353.445975 
L 166.215099 354.82977 
L 167.352328 355.886432 
L 168.528478 356.697128 
L 170.051231 357.450295 
L 171.630059 357.986695 
L 173.927725 358.495483 
L 176.927393 358.934189 
L 180.123549 359.142291 
L 183.594686 359.396769 
L 184.653563 359.693616 
L 185.664474 360.264946 
L 186.868423 361.016485 
L 187.563585 361.142888 
L 188.016671 361.039787 
L 188.46184 360.770115 
L 188.89972 360.3171 
L 189.544495 359.251469 
L 190.175296 357.71513 
L 190.995668 354.940253 
L 191.796025 351.321455 
L 194.54075 337.404233 
L 194.939225 336.364775 
L 195.34187 335.848906 
L 195.544936 335.822338 
L 195.749262 335.96768 
L 196.162053 336.81434 
L 196.581149 338.41804 
L 198.820444 349.215317 
L 199.543429 351.241569 
L 200.523224 353.249437 
L 201.506726 354.735036 
L 202.72634 356.108636 
L 204.398899 357.676694 
L 205.332733 358.286722 
L 206.023092 358.534905 
L 206.705452 358.591613 
L 207.380122 358.435105 
L 208.04738 358.019665 
L 208.707968 357.294799 
L 209.363143 356.262239 
L 210.230802 354.462034 
L 211.312329 351.640347 
L 213.503811 345.613162 
L 213.95116 344.828676 
L 214.402815 344.407796 
L 214.63036 344.364974 
L 214.859085 344.443593 
L 215.320264 344.965542 
L 215.78698 345.926617 
L 217.717755 350.780621 
L 218.455829 351.860226 
L 221.363338 355.275519 
L 222.075476 355.613445 
L 222.782885 355.666585 
L 223.721648 355.746014 
L 224.190622 356.004798 
L 224.659128 356.539745 
L 225.126187 357.420773 
L 225.821881 359.367345 
L 228.087444 366.653356 
L 228.753889 367.754945 
L 229.195397 368.137299 
L 229.853942 368.336351 
L 230.727076 368.242473 
L 232.464897 367.794489 
L 233.767844 367.071565 
L 234.6379 366.672539 
L 235.290671 366.61705 
L 236.378591 366.862413 
L 237.467926 367.030062 
L 239.234985 366.96991 
L 239.685572 367.236966 
L 240.370433 368.001047 
L 241.539601 369.447233 
L 242.017782 369.692394 
L 242.50263 369.564489 
L 242.994808 368.982505 
L 243.494992 367.960866 
L 245.049324 364.428806 
L 245.585458 363.755513 
L 246.130224 363.399 
L 246.962977 363.239767 
L 247.814265 363.135796 
L 250.479441 362.471788 
L 252.03277 362.619726 
L 252.668815 362.454055 
L 253.313302 362.085833 
L 255.296244 360.644973 
L 256.314889 360.291452 
L 257.700504 360.151605 
L 260.929085 359.889899 
L 264.304674 359.658235 
L 272.221593 359.481871 
L 276.112026 359.517991 
L 277.622704 359.779745 
L 279.852235 360.351469 
L 280.588606 360.23875 
L 281.322555 359.854959 
L 282.054369 359.179731 
L 282.784245 358.235092 
L 283.512324 357.025192 
L 284.60126 354.710941 
L 286.409335 350.547624 
L 287.129562 349.301586 
L 287.847514 348.409495 
L 288.563674 347.898183 
L 289.278526 347.801717 
L 289.992613 348.135615 
L 290.706562 348.87347 
L 292.854902 351.701686 
L 293.575789 352.263808 
L 294.29979 352.507182 
L 295.026973 352.409473 
L 295.757369 351.946595 
L 297.600204 350.223271 
L 297.97229 350.101164 
L 298.345668 350.144005 
L 298.720366 350.366869 
L 299.473745 351.324862 
L 301.767999 355.350665 
L 302.544995 356.151368 
L 303.328152 356.633438 
L 304.514201 357.028095 
L 305.713593 357.149022 
L 306.92618 356.935728 
L 308.152039 356.681565 
L 308.976738 356.741117 
L 309.807415 357.052064 
L 313.186285 358.833325 
L 314.465109 358.974746 
L 319.47532 359.025829 
L 322.997744 359.239368 
L 331.146753 359.517657 
L 332.206377 359.796262 
L 333.204378 360.260692 
L 335.687147 361.698276 
L 336.104496 361.646574 
L 336.51345 361.360073 
L 336.914389 360.765277 
L 337.30688 359.788627 
L 337.878266 357.487882 
L 338.426414 354.137113 
L 339.283968 346.919916 
L 340.819715 333.411639 
L 341.385466 330.34793 
L 341.796486 329.172212 
L 342.065003 328.907362 
L 342.329672 329.022802 
L 342.591155 329.47908 
L 342.979304 330.713403 
L 343.494999 333.184172 
L 345.721633 345.249414 
L 346.523708 347.803191 
L 347.573804 350.310293 
L 349.327253 353.738522 
L 350.745643 355.992117 
L 352.952307 359.015856 
L 353.749245 359.814513 
L 354.34718 360.091369 
L 354.746766 360.026221 
L 355.147438 359.700485 
L 355.549255 359.072167 
L 356.153899 357.578786 
L 357.16729 354.217644 
L 358.192823 350.972202 
L 358.816929 349.580379 
L 359.448744 348.662662 
L 360.089614 348.1412 
L 360.741101 347.91538 
L 361.182675 347.928073 
L 361.631059 348.147772 
L 362.087081 348.635318 
L 362.78756 349.886031 
L 364.772057 354.098005 
L 365.550186 355.132197 
L 366.596191 356.047667 
L 367.643944 356.679228 
L 368.687961 357.061004 
L 369.465765 357.122948 
L 371.00474 357.140074 
L 371.512915 357.342402 
L 372.018579 357.72099 
L 372.521462 358.303812 
L 373.270281 359.54824 
L 375.002228 363.098069 
L 375.991787 365.523909 
L 377.997956 370.853409 
L 378.51016 371.39177 
L 378.768351 371.41999 
L 379.027986 371.275222 
L 379.551858 370.496491 
L 380.351314 368.488273 
L 381.448146 365.71258 
L 382.294477 364.279511 
L 383.160672 363.423207 
L 383.748867 363.100587 
L 384.345507 362.966939 
L 385.256165 363.009501 
L 386.18573 363.042865 
L 386.81604 362.864553 
L 387.77735 362.245546 
L 389.420981 360.985935 
L 390.431429 360.551264 
L 391.806309 360.322751 
L 401.070716 359.612786 
L 410.370831 359.385679 
L 413.504161 359.750505 
L 415.118458 359.544912 
L 417.223552 359.099868 
L 418.618959 358.503415 
L 419.673471 358.115375 
L 420.430696 358.093818 
L 421.16128 358.342556 
L 422.098034 359.013378 
L 422.999536 359.959042 
L 423.654271 360.95857 
L 424.290642 362.343625 
L 424.908553 364.23849 
L 425.50758 366.725486 
L 426.464267 371.886227 
L 428.0709 380.87622 
L 428.747172 383.525812 
L 429.243762 384.783925 
L 429.571137 385.251381 
L 429.896304 385.41156 
L 430.219823 385.258742 
L 430.542207 384.789963 
L 431.024776 383.499313 
L 431.669649 380.762074 
L 433.67507 370.934882 
L 434.205175 369.588884 
L 434.748866 368.767988 
L 435.495987 368.139357 
L 438.12662 366.392683 
L 443.488662 361.854869 
L 444.597327 361.224194 
L 446.037362 360.699003 
L 448.150852 360.235492 
L 451.027038 359.869977 
L 455.121874 359.62296 
L 461.774287 359.478273 
L 475.510169 359.259017 
L 478.777671 358.719622 
L 479.7053 358.956979 
L 481.794335 359.592075 
L 482.663338 359.86775 
L 483.235994 360.259884 
L 483.804068 360.928814 
L 484.367715 361.941065 
L 485.205182 364.117899 
L 486.308538 367.84262 
L 487.943728 373.409578 
L 488.75727 375.433595 
L 489.29945 376.356673 
L 489.842298 376.936385 
L 490.386457 377.242868 
L 491.207845 377.371759 
L 491.760787 377.255122 
L 492.319578 376.88935 
L 492.885525 376.108756 
L 493.459393 374.762479 
L 494.33702 371.816814 
L 495.541171 367.765517 
L 496.157294 366.258866 
L 496.782431 365.19539 
L 497.41639 364.497794 
L 498.383527 363.822017 
L 502.391799 361.530989 
L 504.054795 360.950155 
L 506.306255 360.429462 
L 508.152111 360.182984 
L 509.050673 360.228741 
L 509.935736 360.488531 
L 511.671573 361.257515 
L 512.23826 361.156749 
L 512.797387 360.665429 
L 513.348111 359.757499 
L 514.158938 357.775524 
L 515.473153 354.448918 
L 515.987189 353.600066 
L 516.495497 353.191029 
L 516.998766 353.243765 
L 517.497981 353.66217 
L 518.984806 355.310178 
L 519.232558 355.364513 
L 519.480524 355.300773 
L 519.977246 354.798049 
L 520.475353 353.868864 
L 522.237867 349.993571 
L 522.749239 349.409695 
L 523.006534 349.287677 
L 523.265021 349.290174 
L 523.786069 349.668174 
L 524.313597 350.482693 
L 526.226723 354.061506 
L 527.080466 354.928099 
L 530.340412 357.268854 
L 531.531751 357.884642 
L 532.705203 358.249957 
L 534.135301 358.393209 
L 535.249055 358.534049 
L 536.609701 359.004282 
L 537.677995 359.337839 
L 538.471505 359.393854 
L 538.998444 359.267201 
L 539.524553 358.936436 
L 540.050115 358.330245 
L 540.574769 357.386147 
L 541.357738 355.344378 
L 542.64457 351.628211 
L 543.152528 350.66512 
L 543.65704 350.269288 
L 543.908165 350.304222 
L 544.158629 350.490597 
L 544.657855 351.261572 
L 545.403669 353.051154 
L 546.395487 355.418465 
L 546.890798 356.15343 
L 547.385587 356.496894 
L 547.879836 356.497293 
L 548.373637 356.225512 
L 549.113792 355.436565 
L 550.100499 353.885269 
L 551.335525 351.39505 
L 552.575289 348.91291 
L 553.32302 347.842012 
L 554.074472 347.210207 
L 554.827817 346.958866 
L 555.580761 347.00218 
L 556.333739 347.26563 
L 557.087733 347.7823 
L 557.843482 348.619875 
L 558.6029 349.813065 
L 560.142395 352.501267 
L 560.663701 352.924537 
L 561.189577 352.949672 
L 561.720316 352.632207 
L 563.069545 351.518161 
L 563.617529 351.374555 
L 564.169879 351.562716 
L 564.726354 352.103685 
L 565.568834 353.429917 
L 566.708508 355.418571 
L 567.285766 356.097309 
L 567.866091 356.364489 
L 568.446872 356.204344 
L 569.025823 355.684478 
L 570.73807 353.735877 
L 571.298144 353.494013 
L 571.851916 353.618926 
L 572.398369 354.106239 
L 573.202075 355.290004 
L 574.49974 357.23723 
L 575.005578 357.693577 
L 575.751643 358.025093 
L 577.439941 358.519984 
L 578.614542 359.046463 
L 579.081853 358.91168 
L 579.548877 358.322732 
L 580.015809 357.19753 
L 580.716458 354.593163 
L 581.893269 349.882402 
L 582.370229 348.756806 
L 582.610504 348.483634 
L 582.852129 348.43293 
L 583.095213 348.61414 
L 583.586247 349.622339 
L 585.372995 354.649937 
L 585.904877 355.463655 
L 586.446184 355.974979 
L 587.556802 356.603525 
L 590.189533 357.814743 
L 591.730016 358.273571 
L 593.976584 358.68153 
L 597.01274 359.003162 
L 601.304759 359.22208 
L 609.027819 359.358365 
L 628.201104 359.407993 
L 639.34459 359.505852 
L 640.607303 359.790217 
L 643.112637 360.619657 
L 643.528881 360.488729 
L 643.944909 360.190445 
L 644.360701 359.708074 
L 645.191372 358.18049 
L 647.264661 353.254859 
L 647.679827 352.627869 
L 648.095452 352.243831 
L 648.511598 352.12642 
L 648.928294 352.279337 
L 649.345597 352.689118 
L 650.182251 354.155075 
L 652.289206 358.802379 
L 653.139089 359.835397 
L 653.565593 360.083875 
L 653.993154 360.165128 
L 654.42179 360.100696 
L 655.282388 359.661553 
L 657.017492 358.575477 
L 657.892183 358.332396 
L 658.771701 358.342979 
L 660.100136 358.667878 
L 661.888693 359.156067 
L 663.243188 359.325424 
L 665.985933 359.344294 
L 668.305884 359.189576 
L 671.130691 358.916925 
L 673.038458 359.08669 
L 675.936491 359.41154 
L 678.384385 359.410257 
L 679.28 359.382307 
L 679.28 359.382307 
" clip-path="url(#p9b95be4ae9)" style="fill: none; stroke: #d62728; stroke-linecap: square"/>
   </g>
   <g id="line2d_46">
    <path d="M 50.96 359.410807 
L 709.2 359.410807 
" clip-path="url(#p9b95be4ae9)" style="fill: none; stroke: #000000; stroke-width: 0.6; stroke-linecap: square"/>
   </g>
   <g id="patch_9">
    <path d="M 50.96 390.04 
L 50.96 288.214315 
" style="fill: none; stroke: #000000; stroke-width: 0.8; stroke-linejoin: miter; stroke-linecap: square"/>
   </g>
   <g id="patch_10">
    <path d="M 709.2 390.04 
L 709.2 288.214315 
" style="fill: none; stroke: #000000; stroke-width: 0.8; stroke-linejoin: miter; stroke-linecap: square"/>
   </g>
   <g id="patch_11">
    <path d="M 50.96 390.04 
L 709.2 390.04 
" style="fill: none; stroke: #000000; stroke-width: 0.8; stroke-linejoin: miter; stroke-linecap: square"/>
   </g>
   <g id="patch_12">
    <path d="M 50.96 288.214315 
L 709.2 288.214315 
" style="fill: none; stroke: #000000; stroke-width: 0.8; stroke-linejoin: miter; stroke-linecap: square"/>
   </g>
  </g>
 </g>
 <defs>
  <clipPath id="p3e9dc3801b">
   <rect x="50.96" y="26.88" width="658.24" height="244.381644"/>
  </clipPath>
  <clipPath id="p9b95be4ae9">
   <rect x="50.96" y="288.214315" width="658.24" height="101.825685"/>
  </clipPath>
 </defs>
</svg>
