<?xml version="1.0" encoding="utf-8" standalone="no"?>
<!DOCTYPE svg PUBLIC "-//W3C//DTD SVG 1.1//EN"
  "http://www.w3.org/Graphics/SVG/1.1/DTD/svg11.dtd">
<svg xmlns:xlink="http://www.w3.org/1999/xlink" width="720pt" height="288pt" viewBox="0 0 720 288" xmlns="http://www.w3.org/2000/svg" version="1.1">
 <metadata>
  <rdf:RDF xmlns:dc="http://purl.org/dc/elements/1.1/" xmlns:cc="http://creativecommons.org/ns#" xmlns:rdf="http://www.w3.org/1999/02/22-rdf-syntax-ns#">
   <cc:Work>
    <dc:type rdf:resource="http://purl.org/dc/dcmitype/StillImage"/>
    <dc:date>2026-07-07T16:17:18.554169</dc:date>
    <dc:format>image/svg+xml</dc:format>
    <dc:creator>
     <cc:Agent>
      <dc:title>Matplotlib v3.10.8, https://matplotlib.org/</dc:title>
     </cc:Agent>
    </dc:creator>
   </cc:Work>
  </rdf:RDF>
 </metadata>
 <defs>
  <style type="text/css">*{stroke-linejoin: round; stroke-linecap: butt}</style>
 </defs>
 <g id="figure_1">
  <g id="patch_1">
   <path d="M 0 288 
L 720 288 
L 720 0 
L 0 0 
z
" style="fill: #ffffff"/>
  </g>
  <g id="axes_1">
   <g id="patch_2">
    <path d="M 56.09 246.04 
L 709.2 246.04 
L 709.2 26.88 
L 56.09 26.88 
z
" style="fill: #ffffff"/>
   </g>
   <g id="matplotlib.axis_1">
    <g id="xtick_1">
     <g id="line2d_1">
      <path d="M 85.776818 246.04 
L 85.776818 26.88 
" clip-path="url(#pa77c84005b)" style="fill: none; stroke: #b0b0b0; stroke-opacity: 0.3; stroke-width: 0.8; stroke-linecap: square"/>
     </g>
     <g id="line2d_2">
      <defs>
       <path id="ma753f6654a" d="M 0 0 
L 0 3.5 
" style="stroke: #000000; stroke-width: 0.8"/>
      </defs>
      <g>
       <use xlink:href="#ma753f6654a" x="85.776818" y="246.04" style="stroke: #000000; stroke-width: 0.8"/>
      </g>
     </g>
     <g id="text_1">
      <!-- 0.0 -->
      <g transform="translate(77.825256 260.638438) scale(0.1 -0.1)">
       <defs>
        <path id="DejaVuSans-30" d="M 2034 4250 
Q 1547 4250 1301 3770 
Q 1056 3291 1056 2328 
Q 1056 1369 1301 889 
Q 1547 409 2034 409 
Q 2525 409 2770 889 
Q 3016 1369 3016 2328 
Q 3016 3291 2770 3770 
Q 2525 4250 2034 4250 
z
M 2034 4750 
Q 2819 4750 3233 4129 
Q 3647 3509 3647 2328 
Q 3647 1150 3233 529 
Q 2819 -91 2034 -91 
Q 1250 -91 836 529 
Q 422 1150 422 2328 
Q 422 3509 836 4129 
Q 1250 4750 2034 4750 
z
" transform="scale(0.015625)"/>
        <path id="DejaVuSans-2e" d="M 684 794 
L 1344 794 
L 1344 0 
L 684 0 
L 684 794 
z
" transform="scale(0.015625)"/>
       </defs>
       <use xlink:href="#DejaVuSans-30"/>
       <use xlink:href="#DejaVuSans-2e" transform="translate(63.623047 0)"/>
       <use xlink:href="#DejaVuSans-30" transform="translate(95.410156 0)"/>
      </g>
     </g>
    </g>
    <g id="xtick_2">
     <g id="line2d_3">
      <path d="M 230.23822 246.04 
L 230.23822 26.88 
" clip-path="url(#pa77c84005b)" style="fill: none; stroke: #b0b0b0; stroke-opacity: 0.3; stroke-width: 0.8; stroke-linecap: square"/>
     </g>
     <g id="line2d_4">
      <g>
       <use xlink:href="#ma753f6654a" x="230.23822" y="246.04" style="stroke: #000000; stroke-width: 0.8"/>
      </g>
     </g>
     <g id="text_2">
      <!-- 0.5 -->
      <g transform="translate(222.286658 260.638438) scale(0.1 -0.1)">
       <defs>
        <path id="DejaVuSans-35" d="M 691 4666 
L 3169 4666 
L 3169 4134 
L 1269 4134 
L 1269 2991 
Q 1406 3038 1543 3061 
Q 1681 3084 1819 3084 
Q 2600 3084 3056 2656 
Q 3513 2228 3513 1497 
Q 3513 744 3044 326 
Q 2575 -91 1722 -91 
Q 1428 -91 1123 -41 
Q 819 9 494 109 
L 494 744 
Q 775 591 1075 516 
Q 1375 441 1709 441 
Q 2250 441 2565 725 
Q 2881 1009 2881 1497 
Q 2881 1984 2565 2268 
Q 2250 2553 1709 2553 
Q 1456 2553 1204 2497 
Q 953 2441 691 2322 
L 691 4666 
z
" transform="scale(0.015625)"/>
       </defs>
       <use xlink:href="#DejaVuSans-30"/>
       <use xlink:href="#DejaVuSans-2e" transform="translate(63.623047 0)"/>
       <use xlink:href="#DejaVuSans-35" transform="translate(95.410156 0)"/>
      </g>
     </g>
    </g>
    <g id="xtick_3">
     <g id="line2d_5">
      <path d="M 374.699623 246.04 
L 374.699623 26.88 
" clip-path="url(#pa77c84005b)" style="fill: none; stroke: #b0b0b0; stroke-opacity: 0.3; stroke-width: 0.8; stroke-linecap: square"/>
     </g>
     <g id="line2d_6">
      <g>
       <use xlink:href="#ma753f6654a" x="374.699623" y="246.04" style="stroke: #000000; stroke-width: 0.8"/>
      </g>
     </g>
     <g id="text_3">
      <!-- 1.0 -->
      <g transform="translate(366.74806 260.638438) scale(0.1 -0.1)">
       <defs>
        <path id="DejaVuSans-31" d="M 794 531 
L 1825 531 
L 1825 4091 
L 703 3866 
L 703 4441 
L 1819 4666 
L 2450 4666 
L 2450 531 
L 3481 531 
L 3481 0 
L 794 0 
L 794 531 
z
" transform="scale(0.015625)"/>
       </defs>
       <use xlink:href="#DejaVuSans-31"/>
       <use xlink:href="#DejaVuSans-2e" transform="translate(63.623047 0)"/>
       <use xlink:href="#DejaVuSans-30" transform="translate(95.410156 0)"/>
      </g>
     </g>
    </g>
    <g id="xtick_4">
     <g id="line2d_7">
      <path d="M 519.161025 246.04 
L 519.161025 26.88 
" clip-path="url(#pa77c84005b)" style="fill: none; stroke: #b0b0b0; stroke-opacity: 0.3; stroke-width: 0.8; stroke-linecap: square"/>
     </g>
     <g id="line2d_8">
      <g>
       <use xlink:href="#ma753f6654a" x="519.161025" y="246.04" style="stroke: #000000; stroke-width: 0.8"/>
      </g>
     </g>
     <g id="text_4">
      <!-- 1.5 -->
      <g transform="translate(511.209463 260.638438) scale(0.1 -0.1)">
       <use xlink:href="#DejaVuSans-31"/>
       <use xlink:href="#DejaVuSans-2e" transform="translate(63.623047 0)"/>
       <use xlink:href="#DejaVuSans-35" transform="translate(95.410156 0)"/>
      </g>
     </g>
    </g>
    <g id="xtick_5">
     <g id="line2d_9">
      <path d="M 663.622427 246.04 
L 663.622427 26.88 
" clip-path="url(#pa77c84005b)" style="fill: none; stroke: #b0b0b0; stroke-opacity: 0.3; stroke-width: 0.8; stroke-linecap: square"/>
     </g>
     <g id="line2d_10">
      <g>
       <use xlink:href="#ma753f6654a" x="663.622427" y="246.04" style="stroke: #000000; stroke-width: 0.8"/>
      </g>
     </g>
     <g id="text_5">
      <!-- 2.0 -->
      <g transform="translate(655.670865 260.638438) scale(0.1 -0.1)">
       <defs>
        <path id="DejaVuSans-32" d="M 1228 531 
L 3431 531 
L 3431 0 
L 469 0 
L 469 531 
Q 828 903 1448 1529 
Q 2069 2156 2228 2338 
Q 2531 2678 2651 2914 
Q 2772 3150 2772 3378 
Q 2772 3750 2511 3984 
Q 2250 4219 1831 4219 
Q 1534 4219 1204 4116 
Q 875 4013 500 3803 
L 500 4441 
Q 881 4594 1212 4672 
Q 1544 4750 1819 4750 
Q 2544 4750 2975 4387 
Q 3406 4025 3406 3419 
Q 3406 3131 3298 2873 
Q 3191 2616 2906 2266 
Q 2828 2175 2409 1742 
Q 1991 1309 1228 531 
z
" transform="scale(0.015625)"/>
       </defs>
       <use xlink:href="#DejaVuSans-32"/>
       <use xlink:href="#DejaVuSans-2e" transform="translate(63.623047 0)"/>
       <use xlink:href="#DejaVuSans-30" transform="translate(95.410156 0)"/>
      </g>
     </g>
    </g>
    <g id="text_6">
     <!-- distance s [km] -->
     <g transform="translate(344.008281 274.316562) scale(0.1 -0.1)">
      <defs>
       <path id="DejaVuSans-64" d="M 2906 2969 
L 2906 4863 
L 3481 4863 
L 3481 0 
L 2906 0 
L 2906 525 
Q 2725 213 2448 61 
Q 2172 -91 1784 -91 
Q 1150 -91 751 415 
Q 353 922 353 1747 
Q 353 2572 751 3078 
Q 1150 3584 1784 3584 
Q 2172 3584 2448 3432 
Q 2725 3281 2906 2969 
z
M 947 1747 
Q 947 1113 1208 752 
Q 1469 391 1925 391 
Q 2381 391 2643 752 
Q 2906 1113 2906 1747 
Q 2906 2381 2643 2742 
Q 2381 3103 1925 3103 
Q 1469 3103 1208 2742 
Q 947 2381 947 1747 
z
" transform="scale(0.015625)"/>
       <path id="DejaVuSans-69" d="M 603 3500 
L 1178 3500 
L 1178 0 
L 603 0 
L 603 3500 
z
M 603 4863 
L 1178 4863 
L 1178 4134 
L 603 4134 
L 603 4863 
z
" transform="scale(0.015625)"/>
       <path id="DejaVuSans-73" d="M 2834 3397 
L 2834 2853 
Q 2591 2978 2328 3040 
Q 2066 3103 1784 3103 
Q 1356 3103 1142 2972 
Q 928 2841 928 2578 
Q 928 2378 1081 2264 
Q 1234 2150 1697 2047 
L 1894 2003 
Q 2506 1872 2764 1633 
Q 3022 1394 3022 966 
Q 3022 478 2636 193 
Q 2250 -91 1575 -91 
Q 1294 -91 989 -36 
Q 684 19 347 128 
L 347 722 
Q 666 556 975 473 
Q 1284 391 1588 391 
Q 1994 391 2212 530 
Q 2431 669 2431 922 
Q 2431 1156 2273 1281 
Q 2116 1406 1581 1522 
L 1381 1569 
Q 847 1681 609 1914 
Q 372 2147 372 2553 
Q 372 3047 722 3315 
Q 1072 3584 1716 3584 
Q 2034 3584 2315 3537 
Q 2597 3491 2834 3397 
z
" transform="scale(0.015625)"/>
       <path id="DejaVuSans-74" d="M 1172 4494 
L 1172 3500 
L 2356 3500 
L 2356 3053 
L 1172 3053 
L 1172 1153 
Q 1172 725 1289 603 
Q 1406 481 1766 481 
L 2356 481 
L 2356 0 
L 1766 0 
Q 1100 0 847 248 
Q 594 497 594 1153 
L 594 3053 
L 172 3053 
L 172 3500 
L 594 3500 
L 594 4494 
L 1172 4494 
z
" transform="scale(0.015625)"/>
       <path id="DejaVuSans-61" d="M 2194 1759 
Q 1497 1759 1228 1600 
Q 959 1441 959 1056 
Q 959 750 1161 570 
Q 1363 391 1709 391 
Q 2188 391 2477 730 
Q 2766 1069 2766 1631 
L 2766 1759 
L 2194 1759 
z
M 3341 1997 
L 3341 0 
L 2766 0 
L 2766 531 
Q 2569 213 2275 61 
Q 1981 -91 1556 -91 
Q 1019 -91 701 211 
Q 384 513 384 1019 
Q 384 1609 779 1909 
Q 1175 2209 1959 2209 
L 2766 2209 
L 2766 2266 
Q 2766 2663 2505 2880 
Q 2244 3097 1772 3097 
Q 1472 3097 1187 3025 
Q 903 2953 641 2809 
L 641 3341 
Q 956 3463 1253 3523 
Q 1550 3584 1831 3584 
Q 2591 3584 2966 3190 
Q 3341 2797 3341 1997 
z
" transform="scale(0.015625)"/>
       <path id="DejaVuSans-6e" d="M 3513 2113 
L 3513 0 
L 2938 0 
L 2938 2094 
Q 2938 2591 2744 2837 
Q 2550 3084 2163 3084 
Q 1697 3084 1428 2787 
Q 1159 2491 1159 1978 
L 1159 0 
L 581 0 
L 581 3500 
L 1159 3500 
L 1159 2956 
Q 1366 3272 1645 3428 
Q 1925 3584 2291 3584 
Q 2894 3584 3203 3211 
Q 3513 2838 3513 2113 
z
" transform="scale(0.015625)"/>
       <path id="DejaVuSans-63" d="M 3122 3366 
L 3122 2828 
Q 2878 2963 2633 3030 
Q 2388 3097 2138 3097 
Q 1578 3097 1268 2742 
Q 959 2388 959 1747 
Q 959 1106 1268 751 
Q 1578 397 2138 397 
Q 2388 397 2633 464 
Q 2878 531 3122 666 
L 3122 134 
Q 2881 22 2623 -34 
Q 2366 -91 2075 -91 
Q 1284 -91 818 406 
Q 353 903 353 1747 
Q 353 2603 823 3093 
Q 1294 3584 2113 3584 
Q 2378 3584 2631 3529 
Q 2884 3475 3122 3366 
z
" transform="scale(0.015625)"/>
       <path id="DejaVuSans-65" d="M 3597 1894 
L 3597 1613 
L 953 1613 
Q 991 1019 1311 708 
Q 1631 397 2203 397 
Q 2534 397 2845 478 
Q 3156 559 3463 722 
L 3463 178 
Q 3153 47 2828 -22 
Q 2503 -91 2169 -91 
Q 1331 -91 842 396 
Q 353 884 353 1716 
Q 353 2575 817 3079 
Q 1281 3584 2069 3584 
Q 2775 3584 3186 3129 
Q 3597 2675 3597 1894 
z
M 3022 2063 
Q 3016 2534 2758 2815 
Q 2500 3097 2075 3097 
Q 1594 3097 1305 2825 
Q 1016 2553 972 2059 
L 3022 2063 
z
" transform="scale(0.015625)"/>
       <path id="DejaVuSans-20" transform="scale(0.015625)"/>
       <path id="DejaVuSans-5b" d="M 550 4863 
L 1875 4863 
L 1875 4416 
L 1125 4416 
L 1125 -397 
L 1875 -397 
L 1875 -844 
L 550 -844 
L 550 4863 
z
" transform="scale(0.015625)"/>
       <path id="DejaVuSans-6b" d="M 581 4863 
L 1159 4863 
L 1159 1991 
L 2875 3500 
L 3609 3500 
L 1753 1863 
L 3688 0 
L 2938 0 
L 1159 1709 
L 1159 0 
L 581 0 
L 581 4863 
z
" transform="scale(0.015625)"/>
       <path id="DejaVuSans-6d" d="M 3328 2828 
Q 3544 3216 3844 3400 
Q 4144 3584 4550 3584 
Q 5097 3584 5394 3201 
Q 5691 2819 5691 2113 
L 5691 0 
L 5113 0 
L 5113 2094 
Q 5113 2597 4934 2840 
Q 4756 3084 4391 3084 
Q 3944 3084 3684 2787 
Q 3425 2491 3425 1978 
L 3425 0 
L 2847 0 
L 2847 2094 
Q 2847 2600 2669 2842 
Q 2491 3084 2119 3084 
Q 1678 3084 1418 2786 
Q 1159 2488 1159 1978 
L 1159 0 
L 581 0 
L 581 3500 
L 1159 3500 
L 1159 2956 
Q 1356 3278 1631 3431 
Q 1906 3584 2284 3584 
Q 2666 3584 2933 3390 
Q 3200 3197 3328 2828 
z
" transform="scale(0.015625)"/>
       <path id="DejaVuSans-5d" d="M 1947 4863 
L 1947 -844 
L 622 -844 
L 622 -397 
L 1369 -397 
L 1369 4416 
L 622 4416 
L 622 4863 
L 1947 4863 
z
" transform="scale(0.015625)"/>
      </defs>
      <use xlink:href="#DejaVuSans-64"/>
      <use xlink:href="#DejaVuSans-69" transform="translate(63.476562 0)"/>
      <use xlink:href="#DejaVuSans-73" transform="translate(91.259766 0)"/>
      <use xlink:href="#DejaVuSans-74" transform="translate(143.359375 0)"/>
      <use xlink:href="#DejaVuSans-61" transform="translate(182.568359 0)"/>
      <use xlink:href="#DejaVuSans-6e" transform="translate(243.847656 0)"/>
      <use xlink:href="#DejaVuSans-63" transform="translate(307.226562 0)"/>
      <use xlink:href="#DejaVuSans-65" transform="translate(362.207031 0)"/>
      <use xlink:href="#DejaVuSans-20" transform="translate(423.730469 0)"/>
      <use xlink:href="#DejaVuSans-73" transform="translate(455.517578 0)"/>
      <use xlink:href="#DejaVuSans-20" transform="translate(507.617188 0)"/>
      <use xlink:href="#DejaVuSans-5b" transform="translate(539.404297 0)"/>
      <use xlink:href="#DejaVuSans-6b" transform="translate(578.417969 0)"/>
      <use xlink:href="#DejaVuSans-6d" transform="translate(636.328125 0)"/>
      <use xlink:href="#DejaVuSans-5d" transform="translate(733.740234 0)"/>
     </g>
    </g>
   </g>
   <g id="matplotlib.axis_2">
    <g id="ytick_1">
     <g id="line2d_11">
      <path d="M 56.09 219.69809 
L 709.2 219.69809 
" clip-path="url(#pa77c84005b)" style="fill: none; stroke: #b0b0b0; stroke-opacity: 0.3; stroke-width: 0.8; stroke-linecap: square"/>
     </g>
     <g id="line2d_12">
      <defs>
       <path id="m5506154e53" d="M 0 0 
L -3.5 0 
" style="stroke: #000000; stroke-width: 0.8"/>
      </defs>
      <g>
       <use xlink:href="#m5506154e53" x="56.09" y="219.69809" style="stroke: #000000; stroke-width: 0.8"/>
      </g>
     </g>
     <g id="text_7">
      <!-- −1.5 -->
      <g transform="translate(24.807188 223.497308) scale(0.1 -0.1)">
       <defs>
        <path id="DejaVuSans-2212" d="M 678 2272 
L 4684 2272 
L 4684 1741 
L 678 1741 
L 678 2272 
z
" transform="scale(0.015625)"/>
       </defs>
       <use xlink:href="#DejaVuSans-2212"/>
       <use xlink:href="#DejaVuSans-31" transform="translate(83.789062 0)"/>
       <use xlink:href="#DejaVuSans-2e" transform="translate(147.412109 0)"/>
       <use xlink:href="#DejaVuSans-35" transform="translate(179.199219 0)"/>
      </g>
     </g>
    </g>
    <g id="ytick_2">
     <g id="line2d_13">
      <path d="M 56.09 192.175887 
L 709.2 192.175887 
" clip-path="url(#pa77c84005b)" style="fill: none; stroke: #b0b0b0; stroke-opacity: 0.3; stroke-width: 0.8; stroke-linecap: square"/>
     </g>
     <g id="line2d_14">
      <g>
       <use xlink:href="#m5506154e53" x="56.09" y="192.175887" style="stroke: #000000; stroke-width: 0.8"/>
      </g>
     </g>
     <g id="text_8">
      <!-- −1.0 -->
      <g transform="translate(24.807188 195.975106) scale(0.1 -0.1)">
       <use xlink:href="#DejaVuSans-2212"/>
       <use xlink:href="#DejaVuSans-31" transform="translate(83.789062 0)"/>
       <use xlink:href="#DejaVuSans-2e" transform="translate(147.412109 0)"/>
       <use xlink:href="#DejaVuSans-30" transform="translate(179.199219 0)"/>
      </g>
     </g>
    </g>
    <g id="ytick_3">
     <g id="line2d_15">
      <path d="M 56.09 164.653684 
L 709.2 164.653684 
" clip-path="url(#pa77c84005b)" style="fill: none; stroke: #b0b0b0; stroke-opacity: 0.3; stroke-width: 0.8; stroke-linecap: square"/>
     </g>
     <g id="line2d_16">
      <g>
       <use xlink:href="#m5506154e53" x="56.09" y="164.653684" style="stroke: #000000; stroke-width: 0.8"/>
      </g>
     </g>
     <g id="text_9">
      <!-- −0.5 -->
      <g transform="translate(24.807188 168.452903) scale(0.1 -0.1)">
       <use xlink:href="#DejaVuSans-2212"/>
       <use xlink:href="#DejaVuSans-30" transform="translate(83.789062 0)"/>
       <use xlink:href="#DejaVuSans-2e" transform="translate(147.412109 0)"/>
       <use xlink:href="#DejaVuSans-35" transform="translate(179.199219 0)"/>
      </g>
     </g>
    </g>
    <g id="ytick_4">
     <g id="line2d_17">
      <path d="M 56.09 137.131482 
L 709.2 137.131482 
" clip-path="url(#pa77c84005b)" style="fill: none; stroke: #b0b0b0; stroke-opacity: 0.3; stroke-width: 0.8; stroke-linecap: square"/>
     </g>
     <g id="line2d_18">
      <g>
       <use xlink:href="#m5506154e53" x="56.09" y="137.131482" style="stroke: #000000; stroke-width: 0.8"/>
      </g>
     </g>
     <g id="text_10">
      <!-- 0.0 -->
      <g transform="translate(33.186875 140.930701) scale(0.1 -0.1)">
       <use xlink:href="#DejaVuSans-30"/>
       <use xlink:href="#DejaVuSans-2e" transform="translate(63.623047 0)"/>
       <use xlink:href="#DejaVuSans-30" transform="translate(95.410156 0)"/>
      </g>
     </g>
    </g>
    <g id="ytick_5">
     <g id="line2d_19">
      <path d="M 56.09 109.609279 
L 709.2 109.609279 
" clip-path="url(#pa77c84005b)" style="fill: none; stroke: #b0b0b0; stroke-opacity: 0.3; stroke-width: 0.8; stroke-linecap: square"/>
     </g>
     <g id="line2d_20">
      <g>
       <use xlink:href="#m5506154e53" x="56.09" y="109.609279" style="stroke: #000000; stroke-width: 0.8"/>
      </g>
     </g>
     <g id="text_11">
      <!-- 0.5 -->
      <g transform="translate(33.186875 113.408498) scale(0.1 -0.1)">
       <use xlink:href="#DejaVuSans-30"/>
       <use xlink:href="#DejaVuSans-2e" transform="translate(63.623047 0)"/>
       <use xlink:href="#DejaVuSans-35" transform="translate(95.410156 0)"/>
      </g>
     </g>
    </g>
    <g id="ytick_6">
     <g id="line2d_21">
      <path d="M 56.09 82.087077 
L 709.2 82.087077 
" clip-path="url(#pa77c84005b)" style="fill: none; stroke: #b0b0b0; stroke-opacity: 0.3; stroke-width: 0.8; stroke-linecap: square"/>
     </g>
     <g id="line2d_22">
      <g>
       <use xlink:href="#m5506154e53" x="56.09" y="82.087077" style="stroke: #000000; stroke-width: 0.8"/>
      </g>
     </g>
     <g id="text_12">
      <!-- 1.0 -->
      <g transform="translate(33.186875 85.886296) scale(0.1 -0.1)">
       <use xlink:href="#DejaVuSans-31"/>
       <use xlink:href="#DejaVuSans-2e" transform="translate(63.623047 0)"/>
       <use xlink:href="#DejaVuSans-30" transform="translate(95.410156 0)"/>
      </g>
     </g>
    </g>
    <g id="ytick_7">
     <g id="line2d_23">
      <path d="M 56.09 54.564874 
L 709.2 54.564874 
" clip-path="url(#pa77c84005b)" style="fill: none; stroke: #b0b0b0; stroke-opacity: 0.3; stroke-width: 0.8; stroke-linecap: square"/>
     </g>
     <g id="line2d_24">
      <g>
       <use xlink:href="#m5506154e53" x="56.09" y="54.564874" style="stroke: #000000; stroke-width: 0.8"/>
      </g>
     </g>
     <g id="text_13">
      <!-- 1.5 -->
      <g transform="translate(33.186875 58.364093) scale(0.1 -0.1)">
       <use xlink:href="#DejaVuSans-31"/>
       <use xlink:href="#DejaVuSans-2e" transform="translate(63.623047 0)"/>
       <use xlink:href="#DejaVuSans-35" transform="translate(95.410156 0)"/>
      </g>
     </g>
    </g>
    <g id="ytick_8">
     <g id="line2d_25">
      <path d="M 56.09 27.042672 
L 709.2 27.042672 
" clip-path="url(#pa77c84005b)" style="fill: none; stroke: #b0b0b0; stroke-opacity: 0.3; stroke-width: 0.8; stroke-linecap: square"/>
     </g>
     <g id="line2d_26">
      <g>
       <use xlink:href="#m5506154e53" x="56.09" y="27.042672" style="stroke: #000000; stroke-width: 0.8"/>
      </g>
     </g>
     <g id="text_14">
      <!-- 2.0 -->
      <g transform="translate(33.186875 30.84189) scale(0.1 -0.1)">
       <use xlink:href="#DejaVuSans-32"/>
       <use xlink:href="#DejaVuSans-2e" transform="translate(63.623047 0)"/>
       <use xlink:href="#DejaVuSans-30" transform="translate(95.410156 0)"/>
      </g>
     </g>
    </g>
    <g id="text_15">
     <!-- tie-rod force [kN] -->
     <g transform="translate(18.7275 179.170156) rotate(-90) scale(0.1 -0.1)">
      <defs>
       <path id="DejaVuSans-2d" d="M 313 2009 
L 1997 2009 
L 1997 1497 
L 313 1497 
L 313 2009 
z
" transform="scale(0.015625)"/>
       <path id="DejaVuSans-72" d="M 2631 2963 
Q 2534 3019 2420 3045 
Q 2306 3072 2169 3072 
Q 1681 3072 1420 2755 
Q 1159 2438 1159 1844 
L 1159 0 
L 581 0 
L 581 3500 
L 1159 3500 
L 1159 2956 
Q 1341 3275 1631 3429 
Q 1922 3584 2338 3584 
Q 2397 3584 2469 3576 
Q 2541 3569 2628 3553 
L 2631 2963 
z
" transform="scale(0.015625)"/>
       <path id="DejaVuSans-6f" d="M 1959 3097 
Q 1497 3097 1228 2736 
Q 959 2375 959 1747 
Q 959 1119 1226 758 
Q 1494 397 1959 397 
Q 2419 397 2687 759 
Q 2956 1122 2956 1747 
Q 2956 2369 2687 2733 
Q 2419 3097 1959 3097 
z
M 1959 3584 
Q 2709 3584 3137 3096 
Q 3566 2609 3566 1747 
Q 3566 888 3137 398 
Q 2709 -91 1959 -91 
Q 1206 -91 779 398 
Q 353 888 353 1747 
Q 353 2609 779 3096 
Q 1206 3584 1959 3584 
z
" transform="scale(0.015625)"/>
       <path id="DejaVuSans-66" d="M 2375 4863 
L 2375 4384 
L 1825 4384 
Q 1516 4384 1395 4259 
Q 1275 4134 1275 3809 
L 1275 3500 
L 2222 3500 
L 2222 3053 
L 1275 3053 
L 1275 0 
L 697 0 
L 697 3053 
L 147 3053 
L 147 3500 
L 697 3500 
L 697 3744 
Q 697 4328 969 4595 
Q 1241 4863 1831 4863 
L 2375 4863 
z
" transform="scale(0.015625)"/>
       <path id="DejaVuSans-4e" d="M 628 4666 
L 1478 4666 
L 3547 763 
L 3547 4666 
L 4159 4666 
L 4159 0 
L 3309 0 
L 1241 3903 
L 1241 0 
L 628 0 
L 628 4666 
z
" transform="scale(0.015625)"/>
      </defs>
      <use xlink:href="#DejaVuSans-74"/>
      <use xlink:href="#DejaVuSans-69" transform="translate(39.208984 0)"/>
      <use xlink:href="#DejaVuSans-65" transform="translate(66.992188 0)"/>
      <use xlink:href="#DejaVuSans-2d" transform="translate(128.515625 0)"/>
      <use xlink:href="#DejaVuSans-72" transform="translate(164.599609 0)"/>
      <use xlink:href="#DejaVuSans-6f" transform="translate(203.462891 0)"/>
      <use xlink:href="#DejaVuSans-64" transform="translate(264.644531 0)"/>
      <use xlink:href="#DejaVuSans-20" transform="translate(328.121094 0)"/>
      <use xlink:href="#DejaVuSans-66" transform="translate(359.908203 0)"/>
      <use xlink:href="#DejaVuSans-6f" transform="translate(395.113281 0)"/>
      <use xlink:href="#DejaVuSans-72" transform="translate(456.294922 0)"/>
      <use xlink:href="#DejaVuSans-63" transform="translate(495.158203 0)"/>
      <use xlink:href="#DejaVuSans-65" transform="translate(550.138672 0)"/>
      <use xlink:href="#DejaVuSans-20" transform="translate(611.662109 0)"/>
      <use xlink:href="#DejaVuSans-5b" transform="translate(643.449219 0)"/>
      <use xlink:href="#DejaVuSans-6b" transform="translate(682.462891 0)"/>
      <use xlink:href="#DejaVuSans-4e" transform="translate(740.373047 0)"/>
      <use xlink:href="#DejaVuSans-5d" transform="translate(815.177734 0)"/>
     </g>
    </g>
   </g>
   <g id="line2d_27">
    <path d="M 85.776818 137.131482 
L 106.810277 137.186613 
L 108.145594 137.462309 
L 109.017484 137.92937 
L 109.873905 138.905707 
L 110.714288 139.861682 
L 112.345189 140.926076 
L 112.74228 141.717435 
L 113.135053 143.075734 
L 113.523486 145.084874 
L 114.287246 150.554417 
L 115.762019 161.837115 
L 116.473115 165.742195 
L 117.50737 169.646936 
L 118.175807 172.23027 
L 118.828264 177.095428 
L 121.00033 197.257994 
L 121.884757 204.909759 
L 122.745427 214.505783 
L 123.863516 227.489619 
L 124.412276 231.841716 
L 124.954502 234.417239 
L 125.223149 235.07054 
L 125.490153 235.36726 
L 125.755547 235.380283 
L 126.019388 235.155414 
L 126.542763 234.254494 
L 127.831479 231.662508 
L 130.878526 227.86634 
L 131.134075 227.85355 
L 131.390173 227.976703 
L 131.904152 228.595026 
L 132.680191 229.697576 
L 132.940494 229.759686 
L 133.201746 229.470402 
L 133.46405 228.725879 
L 133.992274 225.811388 
L 135.066849 218.456509 
L 135.892468 214.798147 
L 137.309362 208.946266 
L 138.479935 203.429872 
L 139.077463 201.946578 
L 139.683058 201.103842 
L 140.604808 200.339613 
L 141.225901 199.707208 
L 141.537776 199.029994 
L 142.163266 196.502986 
L 143.103588 191.485185 
L 143.417057 190.343859 
L 143.730343 189.766615 
L 144.043338 189.774956 
L 144.355956 190.226976 
L 144.979853 191.848546 
L 145.91214 195.263107 
L 146.531299 198.209468 
L 147.456453 203.872251 
L 149.901656 219.912543 
L 150.811257 224.507286 
L 151.416266 226.793358 
L 152.020559 228.457989 
L 152.624431 229.56729 
L 153.228163 230.18801 
L 153.832074 230.412195 
L 154.436561 230.357096 
L 155.34545 229.973992 
L 158.41724 228.328351 
L 159.043489 227.714223 
L 159.675054 226.643137 
L 160.312551 224.744286 
L 160.955937 221.706059 
L 161.604028 216.58186 
L 162.255502 208.798973 
L 163.236593 195.277868 
L 163.564273 192.123453 
L 163.892228 190.325551 
L 164.22046 189.878434 
L 164.548968 190.537768 
L 165.206751 193.738752 
L 166.195025 199.03598 
L 167.18472 203.967457 
L 169.832532 219.001536 
L 170.830534 222.993192 
L 171.497747 225.118296 
L 172.166568 226.60719 
L 172.837138 227.536305 
L 173.50967 228.119707 
L 174.184464 228.481876 
L 174.861872 228.649039 
L 175.542266 228.576589 
L 176.225947 228.213176 
L 176.913196 227.565026 
L 177.951233 226.119807 
L 178.998387 224.238968 
L 179.702037 222.538769 
L 180.410411 220.15184 
L 181.842065 214.290941 
L 182.203134 213.427633 
L 182.565483 213.171851 
L 182.929131 213.41089 
L 183.660308 214.718969 
L 184.396624 216.299803 
L 184.766736 216.892984 
L 185.138177 217.262133 
L 185.510956 217.414531 
L 185.885084 217.406122 
L 186.260589 217.252651 
L 186.637501 216.943053 
L 187.395618 215.82541 
L 188.929742 212.967908 
L 189.31714 212.436107 
L 189.70613 212.11643 
L 190.489065 211.741739 
L 190.883135 211.006318 
L 191.278996 209.485749 
L 191.676676 206.958814 
L 192.076231 202.907677 
L 192.477698 196.605244 
L 194.102638 162.315214 
L 194.513675 160.3294 
L 194.926663 161.252157 
L 195.758535 166.031658 
L 196.177444 167.006122 
L 196.598335 166.346526 
L 197.021197 164.314555 
L 197.872811 158.006305 
L 199.599357 142.419152 
L 200.474027 136.688462 
L 201.356168 132.502279 
L 201.800019 131.082455 
L 202.245712 130.316644 
L 202.693237 130.212087 
L 203.142583 130.692969 
L 204.046707 132.771092 
L 204.95801 135.134581 
L 205.876424 136.860663 
L 206.338276 137.379269 
L 206.80188 137.698476 
L 207.267227 137.828387 
L 207.734308 137.799257 
L 208.673642 137.414264 
L 210.572609 136.441678 
L 211.530562 136.24679 
L 212.490935 136.270837 
L 214.887761 136.511078 
L 215.364722 136.384985 
L 215.84049 136.027861 
L 216.314943 135.398083 
L 219.134331 130.17477 
L 219.600127 129.881114 
L 220.064908 129.146131 
L 220.528761 127.223522 
L 220.991785 123.665654 
L 223.297679 99.652445 
L 223.757502 98.140611 
L 224.216964 97.851223 
L 224.675999 98.126315 
L 225.134409 98.691912 
L 225.591931 99.593399 
L 226.503306 102.415339 
L 227.408391 105.42691 
L 228.306306 107.43718 
L 229.196186 108.698707 
L 229.637893 109.074748 
L 230.077356 109.295726 
L 230.514512 109.368016 
L 230.949232 109.301724 
L 231.810915 108.858147 
L 232.662009 108.15743 
L 233.502247 107.249998 
L 234.331567 106.108879 
L 235.149882 104.607126 
L 236.752691 100.498172 
L 237.145974 100.049476 
L 237.536153 99.961536 
L 238.307155 100.066908 
L 238.688059 99.874291 
L 239.81262 98.872455 
L 240.181421 98.760139 
L 241.269539 98.770471 
L 241.626053 98.297575 
L 242.677066 95.869543 
L 243.021452 95.505263 
L 243.363014 95.560437 
L 243.701845 96.049853 
L 244.038048 96.952866 
L 244.703098 99.752175 
L 245.68414 104.189846 
L 246.646743 107.375193 
L 247.903495 110.635101 
L 250.043481 115.242527 
L 250.945648 116.904344 
L 251.54451 117.668881 
L 252.142266 118.152848 
L 252.740121 118.401717 
L 253.339539 118.448558 
L 254.245184 118.24186 
L 254.855483 117.935612 
L 255.163003 117.665433 
L 255.472244 117.233995 
L 255.783302 116.543813 
L 256.096273 115.519114 
L 256.411266 116.955042 
L 256.728442 124.957135 
L 257.047977 135.984972 
L 257.36994 140.731083 
L 257.694357 138.394698 
L 258.350596 129.47471 
L 259.692364 120.721901 
L 260.377556 114.717263 
L 260.723643 112.939493 
L 261.072043 112.241168 
L 261.422753 112.582839 
L 261.775763 113.754438 
L 262.488622 116.829777 
L 262.848446 117.639843 
L 263.210529 117.680314 
L 264.681355 115.729885 
L 265.054657 115.59791 
L 265.430194 116.14085 
L 265.807964 117.580517 
L 266.570151 122.75541 
L 268.507393 138.377131 
L 269.288231 141.979816 
L 270.458153 145.563108 
L 271.621165 148.580809 
L 272.390667 150.4895 
L 273.154605 152.402923 
L 274.289909 154.238706 
L 275.040254 156.581247 
L 275.785885 159.96792 
L 276.527214 164.809953 
L 277.264647 170.922243 
L 277.998615 178.432788 
L 279.094008 192.409433 
L 280.54594 211.893811 
L 281.268715 219.82862 
L 281.989552 225.636732 
L 282.70861 229.157098 
L 283.067543 230.21247 
L 283.426132 230.906922 
L 283.78443 231.314392 
L 284.142502 231.502371 
L 284.858281 231.443144 
L 285.932318 231.082295 
L 286.649034 231.221305 
L 288.083936 231.807431 
L 288.443118 231.801096 
L 288.802555 231.595181 
L 289.162292 231.089936 
L 289.522382 230.151025 
L 289.882898 228.62966 
L 290.243928 226.379035 
L 290.605563 223.211861 
L 290.967892 218.861308 
L 291.694792 206.3689 
L 292.42479 194.309964 
L 292.791011 191.185225 
L 293.15791 190.897354 
L 293.5253 193.204876 
L 294.99602 207.483098 
L 295.72932 212.683578 
L 296.459387 216.625522 
L 297.905886 222.619756 
L 298.621052 224.861893 
L 298.976418 225.549351 
L 299.330247 225.899392 
L 299.682504 225.899102 
L 300.033159 225.548597 
L 300.382193 224.85255 
L 301.075351 222.50894 
L 302.10267 217.503487 
L 303.11454 212.973947 
L 303.780305 211.302799 
L 304.110588 211.049557 
L 304.43919 211.21435 
L 304.766158 211.759419 
L 305.415373 213.731806 
L 306.378071 217.814191 
L 308.881181 228.895812 
L 310.096505 232.485527 
L 310.992444 234.533237 
L 311.582592 235.447219 
L 312.167591 235.970795 
L 312.748334 236.078182 
L 313.325805 235.829209 
L 313.901033 235.325106 
L 314.76189 234.156852 
L 315.623198 232.467825 
L 317.069003 229.362634 
L 317.653784 228.555101 
L 318.54051 227.641233 
L 318.838951 227.03316 
L 319.138936 225.894796 
L 319.440515 223.857995 
L 319.743736 220.557839 
L 320.355366 209.877878 
L 321.602897 184.48475 
L 321.920408 180.954702 
L 322.240276 178.936802 
L 322.562524 177.983722 
L 323.214218 177.198747 
L 323.543679 176.43946 
L 324.20981 173.421073 
L 325.226875 167.291955 
L 325.916794 161.640476 
L 326.616247 153.071621 
L 328.771065 119.988603 
L 329.138172 116.4485 
L 329.507462 114.283597 
L 329.878907 113.353809 
L 330.252487 113.234218 
L 330.628184 113.734683 
L 331.005984 114.822122 
L 331.767851 117.610275 
L 332.151882 118.312638 
L 332.537943 118.257188 
L 332.926002 117.559044 
L 333.316025 116.37297 
L 334.101826 112.610881 
L 334.895061 109.055813 
L 335.294377 108.35816 
L 335.695351 108.24403 
L 336.905367 108.386785 
L 337.310033 108.206847 
L 337.714884 107.57538 
L 338.119678 106.246274 
L 338.928237 102.90597 
L 339.331606 101.739516 
L 339.734133 101.005569 
L 340.135666 100.673712 
L 340.536076 100.678837 
L 341.333051 101.173937 
L 343.685948 103.060979 
L 344.83691 104.37182 
L 345.216388 104.399394 
L 345.59373 103.982375 
L 345.968921 103.128339 
L 346.712837 100.430522 
L 347.448259 97.586483 
L 347.812876 96.742751 
L 348.175489 96.433241 
L 348.536137 96.65439 
L 348.894866 97.3508 
L 349.606746 99.682732 
L 351.009909 104.787039 
L 351.702687 106.754209 
L 352.390656 108.248772 
L 353.754996 110.476332 
L 358.48077 117.237298 
L 359.158809 117.81565 
L 359.839927 118.097865 
L 360.52488 118.042529 
L 360.869044 117.855157 
L 361.214453 117.519489 
L 361.561184 116.999178 
L 361.909306 116.274286 
L 362.962721 113.239163 
L 363.317049 112.878965 
L 363.672986 112.685543 
L 364.030428 112.105968 
L 364.389175 110.937423 
L 365.832305 104.867815 
L 366.555483 102.899649 
L 367.277455 101.822866 
L 367.637522 101.626947 
L 367.996752 101.640316 
L 368.7121 102.079361 
L 370.126829 103.18998 
L 370.824575 103.423051 
L 371.515093 103.355884 
L 372.197835 102.976646 
L 373.20613 101.996225 
L 374.840478 100.269408 
L 375.477232 99.904491 
L 376.104478 99.882937 
L 376.722752 100.18271 
L 377.332671 100.764125 
L 378.23319 102.110127 
L 380.56573 106.3372 
L 382.273046 110.247544 
L 384.240941 115.120185 
L 385.081022 116.73983 
L 385.641909 117.555152 
L 386.204212 118.050516 
L 386.76837 118.304507 
L 387.619195 118.375671 
L 388.478283 118.173599 
L 389.057406 117.843914 
L 389.642859 117.190828 
L 389.938323 116.651301 
L 390.535451 114.997048 
L 390.837398 116.109282 
L 391.141823 121.236247 
L 391.758542 134.386761 
L 392.070315 135.755913 
L 392.698579 134.181217 
L 393.014281 134.880579 
L 393.647078 138.068858 
L 393.963562 139.099211 
L 394.595344 140.305988 
L 394.910166 141.510942 
L 395.53667 146.130174 
L 396.466155 154.401461 
L 397.077269 157.532169 
L 398.86461 162.371599 
L 399.446388 163.725436 
L 399.734983 164.717599 
L 400.022147 166.443166 
L 400.592438 172.504877 
L 404.45977 225.110449 
L 404.998387 229.153181 
L 405.534125 231.453442 
L 406.066679 232.58421 
L 407.119282 233.902451 
L 408.410195 234.968669 
L 409.68038 235.888313 
L 409.932651 235.870814 
L 410.184483 235.646801 
L 410.435975 235.144603 
L 410.938456 233.1743 
L 411.693074 228.419151 
L 412.45201 224.161509 
L 412.961883 222.853197 
L 413.218142 222.701496 
L 413.475266 222.798016 
L 413.991949 223.371179 
L 415.557055 225.32298 
L 416.082536 225.544733 
L 416.345872 225.447224 
L 416.609598 225.15739 
L 416.87371 224.632014 
L 417.403088 222.853581 
L 418.467456 218.412409 
L 418.735118 217.75131 
L 419.00356 217.388973 
L 419.27285 217.294265 
L 419.54305 217.418712 
L 420.086413 218.145621 
L 420.634058 219.36369 
L 421.743455 222.234863 
L 422.30587 223.168127 
L 422.874001 223.654248 
L 423.448279 223.74565 
L 423.737806 223.578803 
L 424.028971 223.163625 
L 424.32183 222.364606 
L 424.61645 220.977664 
L 424.912912 218.724107 
L 425.211303 215.268217 
L 425.814281 203.569058 
L 427.363368 163.647485 
L 428.001173 157.07293 
L 428.977496 151.223901 
L 429.308097 149.841937 
L 429.641243 149.009593 
L 430.655741 147.937159 
L 430.998865 147.089234 
L 431.692453 144.41888 
L 432.39572 141.539335 
L 432.750936 140.701827 
L 433.108521 140.865027 
L 433.468461 141.897719 
L 434.562294 146.710404 
L 435.303048 150.39712 
L 435.676847 151.481738 
L 436.052914 151.507454 
L 436.431235 150.656196 
L 437.194596 147.497507 
L 438.356251 141.381008 
L 439.141615 137.047134 
L 439.537531 135.718018 
L 439.935586 135.044229 
L 440.335766 134.749301 
L 441.142453 134.584906 
L 441.548933 134.692066 
L 442.368102 135.360824 
L 443.612191 136.698217 
L 444.451668 137.177039 
L 445.299097 137.301788 
L 446.583038 137.147569 
L 448.304497 136.955458 
L 449.163478 137.125933 
L 450.018421 137.585286 
L 452.126901 139.18468 
L 452.955092 139.494472 
L 453.36535 139.971846 
L 453.772881 140.928109 
L 454.579278 144.125248 
L 455.373333 148.83152 
L 456.154166 154.041369 
L 456.539378 155.951963 
L 456.921003 157.189106 
L 457.673185 158.506574 
L 458.772802 159.846482 
L 459.131494 160.64359 
L 459.486203 162.3672 
L 461.529782 177.454273 
L 461.856257 178.749935 
L 462.178773 179.381604 
L 462.497393 179.325276 
L 463.123255 178.429267 
L 463.430677 178.406331 
L 463.734559 178.821319 
L 464.626106 181.188511 
L 464.916988 182.183096 
L 465.204917 183.617613 
L 465.772354 188.246432 
L 466.603913 198.346999 
L 467.942464 218.003013 
L 468.721102 228.903592 
L 469.231155 233.231549 
L 469.733818 235.295339 
L 469.982323 235.75135 
L 470.228929 235.949064 
L 470.473643 235.958454 
L 470.957566 235.59032 
L 471.670889 234.371376 
L 472.833607 232.254109 
L 473.747309 230.791511 
L 474.428245 229.197506 
L 475.566944 226.352688 
L 476.026322 225.750222 
L 476.48878 225.599363 
L 476.954692 225.86764 
L 477.424256 226.53299 
L 477.897698 227.627617 
L 478.615676 229.588527 
L 478.857119 229.602622 
L 479.099674 228.620602 
L 479.343461 226.179857 
L 479.835353 216.173934 
L 480.586997 195.481782 
L 480.842082 191.370063 
L 481.099675 189.971877 
L 481.359821 190.714513 
L 482.699235 199.892625 
L 483.252571 201.264101 
L 483.532773 201.552809 
L 483.815292 201.458345 
L 484.100099 200.867955 
L 484.387164 199.661452 
L 484.96794 195.149739 
L 485.855531 186.313162 
L 486.155779 184.602887 
L 486.458199 184.107258 
L 486.762768 184.819952 
L 487.069472 186.508071 
L 488.952959 200.539394 
L 489.273802 201.761781 
L 489.596628 202.165183 
L 489.921451 201.546712 
L 491.575389 193.990028 
L 491.912234 193.580496 
L 492.251134 193.789091 
L 492.592094 194.441888 
L 493.627339 197.541323 
L 493.976595 197.885253 
L 494.327977 196.979156 
L 494.681493 194.595989 
L 495.394951 186.737978 
L 496.481478 173.809813 
L 496.848037 171.0944 
L 497.216792 169.527595 
L 497.587754 168.485996 
L 497.960932 167.057759 
L 498.336324 164.758233 
L 500.634716 145.390839 
L 501.025354 143.248845 
L 501.418116 142.452274 
L 501.812991 143.035604 
L 502.209973 144.557996 
L 502.609048 146.871306 
L 503.818701 155.989305 
L 504.226013 158.187635 
L 504.635347 159.623007 
L 505.046696 160.022792 
L 505.460055 159.169795 
L 505.875419 157.136083 
L 506.712134 150.987763 
L 508.409292 137.928345 
L 508.838462 135.745287 
L 509.269563 134.288723 
L 509.702582 133.556987 
L 510.13751 133.439174 
L 510.574335 133.755212 
L 511.013046 134.37474 
L 511.896086 136.216248 
L 512.786551 138.363725 
L 513.684364 140.074002 
L 514.136001 141.410283 
L 515.04469 145.245816 
L 516.883401 154.607996 
L 517.347452 155.933814 
L 517.813233 155.968137 
L 518.280737 154.849328 
L 518.74996 152.759584 
L 521.121648 139.67236 
L 522.082117 136.069047 
L 522.564848 134.816242 
L 523.049232 134.063263 
L 523.535262 133.829099 
L 524.022929 134.083068 
L 524.512225 134.793574 
L 525.989809 137.676136 
L 526.485546 138.360354 
L 526.982873 138.810549 
L 527.481784 139.476477 
L 527.982273 140.670103 
L 528.48433 142.441954 
L 529.493119 147.556474 
L 530.50807 152.756323 
L 531.017831 154.371767 
L 531.529103 154.718905 
L 532.041883 153.967109 
L 532.556166 152.466879 
L 533.589228 148.015831 
L 535.14998 140.667285 
L 536.197844 137.0941 
L 536.723965 135.641538 
L 537.251536 134.671269 
L 537.78055 134.345635 
L 538.311001 134.747994 
L 539.376187 137.019738 
L 540.447047 139.083046 
L 540.98459 139.573882 
L 541.523536 139.61483 
L 542.063879 140.027109 
L 542.605615 141.621619 
L 543.148738 144.881266 
L 544.239107 155.384151 
L 545.334841 165.734274 
L 545.884661 169.204223 
L 546.435769 170.741643 
L 546.988165 170.373503 
L 547.541862 168.253135 
L 548.096867 164.597925 
L 550.329928 147.477489 
L 552.583204 132.361736 
L 553.149514 130.313268 
L 553.716998 130.132194 
L 554.285655 131.623879 
L 556.572018 141.104881 
L 557.146546 141.31494 
L 557.722248 140.899395 
L 558.299123 142.192335 
L 558.877161 147.264594 
L 560.036585 166.435996 
L 561.200003 185.291733 
L 561.782975 192.875797 
L 562.366708 198.558729 
L 562.951226 202.5318 
L 563.536603 204.805136 
L 564.122923 205.15644 
L 564.710224 203.489125 
L 565.298519 199.53041 
L 565.887786 193.324507 
L 567.069096 179.205452 
L 567.661108 175.628463 
L 568.254075 176.186236 
L 568.848073 179.408971 
L 569.443152 183.343262 
L 570.039342 186.298901 
L 570.636656 187.057365 
L 571.235093 185.273805 
L 571.834651 181.197022 
L 572.435355 174.905258 
L 573.640214 159.611645 
L 574.244332 154.121824 
L 574.849539 152.092118 
L 575.455822 152.901764 
L 576.06318 155.079424 
L 577.281159 160.288944 
L 577.891801 161.959395 
L 578.50355 162.415801 
L 579.116386 161.034762 
L 580.344422 156.278755 
L 580.958934 154.53551 
L 582.800685 150.650383 
L 583.413109 148.714772 
L 584.634468 143.203441 
L 585.243061 141.810439 
L 585.850059 142.191321 
L 586.45532 144.455275 
L 587.058703 148.755478 
L 588.259403 159.54976 
L 588.856663 163.357707 
L 589.451935 165.181723 
L 590.045305 165.506804 
L 590.636861 164.813426 
L 591.226688 163.045844 
L 592.401492 157.58643 
L 592.986645 155.823841 
L 593.57043 155.945649 
L 594.152961 158.398198 
L 594.734356 162.703161 
L 596.472824 177.740718 
L 597.627875 183.58813 
L 598.78041 188.624344 
L 599.355873 192.291666 
L 600.505318 202.974707 
L 601.652845 213.427548 
L 602.225919 217.619687 
L 602.798589 220.935066 
L 603.37092 223.450649 
L 603.942996 225.290902 
L 604.514928 226.540888 
L 605.086867 227.194513 
L 605.658978 227.112129 
L 606.231376 226.014284 
L 606.804151 223.356989 
L 607.377364 218.303128 
L 607.951035 210.112769 
L 609.099802 185.181534 
L 609.674991 171.903658 
L 610.25084 161.465191 
L 610.827466 154.779491 
L 611.983446 147.108884 
L 612.562948 141.212184 
L 613.725013 127.992641 
L 614.307558 124.394257 
L 614.891097 123.048792 
L 615.475621 123.707616 
L 616.061127 126.024498 
L 617.235112 132.44442 
L 617.823583 134.928242 
L 618.412846 136.495869 
L 619.002571 137.283827 
L 619.592462 137.659764 
L 620.771654 138.081624 
L 621.360418 138.212312 
L 621.948278 138.119637 
L 622.534977 137.710402 
L 623.120273 136.895557 
L 623.703934 135.592136 
L 625.442976 130.78298 
L 626.018023 129.896574 
L 626.590453 129.781231 
L 627.160098 130.549204 
L 627.726805 131.850778 
L 628.290425 132.681314 
L 628.850823 131.822686 
L 629.407868 128.965393 
L 629.961433 124.010377 
L 631.599926 105.368628 
L 632.138248 101.563494 
L 632.672459 100.078802 
L 633.202481 100.517721 
L 633.72825 102.344528 
L 634.249711 105.28543 
L 635.279463 113.556719 
L 636.291193 121.655417 
L 637.773883 131.669294 
L 639.213605 144.261104 
L 639.683829 146.92142 
L 640.149184 148.167631 
L 640.609664 147.611969 
L 641.065278 144.865752 
L 641.51604 140.118909 
L 643.697916 112.410646 
L 644.120162 108.659686 
L 644.537817 106.442669 
L 644.950957 105.729492 
L 645.359685 106.107267 
L 645.764133 107.270814 
L 646.953338 112.235978 
L 647.342206 112.457823 
L 647.727562 111.029006 
L 648.488319 104.34971 
L 649.236684 97.486481 
L 649.973635 93.113794 
L 650.338145 92.19295 
L 650.70018 92.317327 
L 651.059855 93.512365 
L 651.772557 98.092809 
L 652.477356 103.062184 
L 653.521606 108.316792 
L 654.550641 112.24823 
L 655.56565 115.221875 
L 656.235919 116.627698 
L 656.901688 117.450169 
L 657.563275 117.914377 
L 658.548886 118.313588 
L 659.529128 118.569175 
L 660.182138 118.563813 
L 660.509228 118.425876 
L 660.837084 118.133768 
L 661.166035 117.625241 
L 661.49645 116.82614 
L 661.828659 115.587352 
L 662.162947 116.515897 
L 662.499584 126.441002 
L 662.838848 143.42375 
L 663.18087 151.787517 
L 663.525626 153.952738 
L 663.873072 153.120568 
L 664.575828 150.469181 
L 664.931038 149.627442 
L 665.288743 148.194945 
L 665.648905 145.320496 
L 666.376471 134.47213 
L 667.113559 125.07118 
L 667.485627 122.809371 
L 667.860024 121.889437 
L 668.236741 122.123505 
L 668.615767 123.381103 
L 669.380688 127.946097 
L 670.937514 137.850888 
L 671.332242 139.670023 
L 671.729142 140.959314 
L 672.128198 141.742137 
L 672.529395 142.04669 
L 672.932718 141.950547 
L 673.338151 141.592936 
L 674.155293 140.485037 
L 675.396491 138.688277 
L 676.234128 137.893941 
L 677.079785 137.558392 
L 677.933364 137.567514 
L 679.513182 137.843482 
L 679.513182 137.843482 
" clip-path="url(#pa77c84005b)" style="fill: none; stroke: #2ca02c; stroke-width: 0.9; stroke-linecap: square"/>
   </g>
   <g id="line2d_28">
    <path d="M 85.776818 137.131482 
L 106.810277 137.186615 
L 108.145594 137.462331 
L 109.017484 137.929486 
L 109.873905 138.906265 
L 110.714288 139.863347 
L 112.345189 140.931709 
L 112.74228 141.72467 
L 113.135053 143.084733 
L 113.523486 145.094497 
L 114.66254 153.480675 
L 115.762019 161.461703 
L 116.473115 164.949399 
L 117.166893 167.18666 
L 118.175807 169.928768 
L 118.828264 173.34172 
L 119.465759 177.07967 
L 120.089279 179.5193 
L 120.396087 180.163196 
L 120.699737 180.446178 
L 121.00033 180.409937 
L 121.297966 180.122564 
L 121.884757 178.944948 
L 122.460947 176.912816 
L 123.308107 172.242886 
L 124.138714 168.307009 
L 125.490153 163.349244 
L 126.542763 159.918833 
L 127.318771 157.947895 
L 127.831479 157.101362 
L 128.341214 156.625244 
L 129.102031 156.299203 
L 129.86151 156.247029 
L 130.62351 156.391071 
L 131.390173 156.662091 
L 131.904152 156.631166 
L 132.940494 156.358787 
L 133.46405 156.475429 
L 133.992274 156.872718 
L 134.79558 157.894377 
L 136.73642 160.963766 
L 137.598937 161.756217 
L 139.988695 163.615663 
L 140.914843 164.952519 
L 142.163266 166.755174 
L 143.730343 168.417424 
L 145.291091 171.056205 
L 145.91214 171.566867 
L 146.531299 171.623583 
L 146.840166 171.480557 
L 147.456453 170.823637 
L 148.070771 169.735038 
L 151.718482 162.159767 
L 152.926296 160.176247 
L 154.134217 158.574915 
L 155.34545 157.344924 
L 156.258688 156.681075 
L 157.178305 156.283188 
L 158.105923 156.178839 
L 159.043489 156.320457 
L 159.993027 156.720262 
L 160.312551 156.966973 
L 160.955937 157.936848 
L 161.604028 159.489428 
L 162.255502 161.603725 
L 163.236593 164.780907 
L 164.22046 167.125023 
L 165.206751 169.775625 
L 165.535985 170.303747 
L 165.865418 170.541404 
L 166.195025 170.512919 
L 166.524784 170.26916 
L 167.18472 169.318461 
L 168.175843 167.156818 
L 169.500585 164.265171 
L 170.830534 162.151563 
L 172.837138 159.460824 
L 174.184464 158.045729 
L 175.201677 157.351595 
L 175.883676 157.12467 
L 176.56911 157.120767 
L 177.258231 157.335905 
L 178.299234 157.961325 
L 181.482259 160.336528 
L 182.565483 161.257938 
L 183.294076 161.630318 
L 184.027822 161.725605 
L 184.766736 161.533068 
L 187.395618 160.265215 
L 188.159625 160.274864 
L 188.929742 160.529772 
L 191.676676 161.967533 
L 192.477698 162.56329 
L 192.881083 162.122941 
L 193.286368 160.279052 
L 194.102638 155.170543 
L 194.513675 154.686603 
L 194.926663 155.994981 
L 195.758535 160.560415 
L 196.177444 161.7101 
L 196.598335 161.52928 
L 197.021197 160.172413 
L 197.872811 155.355106 
L 200.474027 136.681907 
L 201.356168 132.579623 
L 201.800019 131.130258 
L 202.245712 130.306939 
L 202.693237 130.14679 
L 203.142583 130.595983 
L 203.593743 131.511126 
L 205.416332 136.091529 
L 205.876424 136.857552 
L 206.338276 137.380066 
L 206.80188 137.70052 
L 207.267227 137.829874 
L 207.734308 137.799764 
L 208.673642 137.414022 
L 210.572609 136.441629 
L 211.530562 136.246 
L 212.490935 136.269754 
L 214.887761 136.510659 
L 215.364722 136.384554 
L 215.84049 136.027247 
L 216.314943 135.397003 
L 219.134331 130.14459 
L 219.600127 129.842855 
L 220.064908 129.093722 
L 220.528761 127.134095 
L 220.991785 123.478351 
L 221.91574 112.487615 
L 223.297679 93.58289 
L 224.216964 85.194353 
L 225.134409 77.273 
L 226.503306 62.299115 
L 227.408391 52.141469 
L 227.8583 48.29361 
L 228.752299 43.290042 
L 229.196186 41.682456 
L 229.637893 40.514041 
L 230.077356 39.769795 
L 230.514512 39.486344 
L 230.949232 39.623281 
L 232.237804 40.706023 
L 233.083495 41.648473 
L 233.502247 42.330774 
L 233.918272 43.385828 
L 234.331567 45.045086 
L 234.742109 47.436001 
L 235.554879 54.373045 
L 236.35636 63.863769 
L 237.536153 78.312852 
L 237.923205 81.526927 
L 238.307155 83.478736 
L 238.688059 84.21863 
L 239.065937 84.16545 
L 239.81262 83.661498 
L 240.181421 83.811286 
L 240.909909 84.953582 
L 241.269539 85.1114 
L 241.626053 84.324625 
L 241.979447 82.457837 
L 242.677066 76.663546 
L 244.371754 59.876904 
L 245.68414 46.074567 
L 246.327881 41.72975 
L 246.963671 39.203843 
L 247.591983 37.849898 
L 248.213342 37.143399 
L 248.828406 36.850215 
L 249.43811 36.943271 
L 250.043481 37.475022 
L 250.645536 38.437421 
L 252.740121 42.310746 
L 253.640343 43.587149 
L 254.54958 44.293659 
L 254.855483 44.887559 
L 255.163003 46.627106 
L 255.472244 50.888524 
L 255.783302 59.567989 
L 256.096273 74.441945 
L 257.047977 135.846915 
L 257.36994 141.407858 
L 257.694357 138.313859 
L 258.350596 128.796915 
L 259.353306 123.23665 
L 260.723643 110.241268 
L 261.072043 108.666087 
L 261.422753 108.406331 
L 261.775763 109.406566 
L 262.488622 113.01043 
L 262.848446 114.050493 
L 263.210529 114.151704 
L 264.681355 112.010779 
L 265.054657 111.898325 
L 265.430194 112.63476 
L 265.807964 114.506934 
L 266.570151 120.987818 
L 268.117545 135.678682 
L 268.897723 140.462175 
L 269.678639 143.291539 
L 271.234542 147.539364 
L 273.534415 152.583578 
L 273.912833 153.065424 
L 274.289909 153.74653 
L 275.040254 155.872696 
L 275.785885 158.855309 
L 276.896392 165.143602 
L 278.364436 173.966832 
L 278.729552 175.486131 
L 279.094008 176.330157 
L 279.457843 176.290373 
L 279.821092 175.34588 
L 280.54594 171.674225 
L 281.268715 167.818467 
L 282.349291 163.464452 
L 283.426132 160.193102 
L 284.142502 158.584733 
L 284.858281 157.373187 
L 285.574164 156.556125 
L 286.290619 156.239627 
L 287.007549 156.32123 
L 287.724971 156.618151 
L 288.802555 157.327963 
L 289.882898 158.301539 
L 290.605563 159.169005 
L 291.33097 160.488912 
L 292.42479 163.149378 
L 292.791011 164.008234 
L 293.5253 166.958141 
L 294.260819 169.730633 
L 294.628562 170.294633 
L 294.99602 170.346619 
L 295.362998 170.020587 
L 296.094831 168.777957 
L 297.185157 166.789027 
L 297.905886 165.841259 
L 298.621052 165.290775 
L 299.330247 165.140993 
L 300.033159 165.396514 
L 300.729592 166.020276 
L 301.419461 166.971225 
L 303.448299 170.412218 
L 304.110588 170.875479 
L 304.43919 170.904255 
L 305.091538 170.594845 
L 305.737711 169.888299 
L 307.328012 167.741229 
L 309.187259 165.835419 
L 310.396614 164.210122 
L 311.875684 161.862361 
L 313.901033 158.361576 
L 314.76189 157.322208 
L 315.335852 156.882859 
L 315.910965 156.664073 
L 316.778214 156.663045 
L 318.243547 156.760636 
L 318.838951 156.80753 
L 319.440515 157.123639 
L 320.048651 157.930116 
L 321.2877 160.652474 
L 321.920408 161.290278 
L 322.562524 162.556191 
L 323.214218 163.871699 
L 323.543679 164.057955 
L 323.875547 163.799702 
L 324.546457 162.288645 
L 325.226875 160.129036 
L 325.916794 156.784206 
L 326.265328 154.222026 
L 326.969545 146.374183 
L 328.771065 120.171881 
L 329.507462 113.101552 
L 329.878907 111.321863 
L 330.252487 110.465117 
L 330.628184 110.458827 
L 331.005984 111.363032 
L 331.767851 114.494254 
L 332.151882 115.357131 
L 332.537943 115.326053 
L 332.926002 114.519934 
L 333.316025 113.100382 
L 334.101826 108.245717 
L 334.895061 102.757642 
L 335.294377 101.164588 
L 335.695351 100.401865 
L 336.501163 99.735625 
L 336.905367 99.533111 
L 337.310033 99.148631 
L 337.714884 98.078036 
L 338.119678 95.712623 
L 339.734133 82.116974 
L 340.135666 79.667657 
L 340.536076 77.97557 
L 340.935242 76.992921 
L 341.333051 76.580616 
L 341.729396 76.632384 
L 342.124179 77.13136 
L 342.517309 78.139876 
L 342.908702 79.700427 
L 343.685948 84.320757 
L 344.83691 91.879856 
L 345.216388 93.180658 
L 345.59373 93.488182 
L 345.968921 92.859337 
L 346.341953 91.386089 
L 347.081593 86.173436 
L 349.606746 64.171612 
L 350.661479 57.894375 
L 351.702687 53.303227 
L 353.074506 48.572388 
L 354.094223 45.692185 
L 354.771064 44.226171 
L 355.446257 43.369462 
L 356.120376 43.119169 
L 356.793998 43.242972 
L 358.142674 43.689479 
L 359.158809 43.749077 
L 359.839927 43.798207 
L 360.181872 44.054189 
L 360.52488 44.714577 
L 360.869044 46.082615 
L 361.214453 48.512294 
L 361.561184 52.333322 
L 362.258892 64.664412 
L 363.317049 88.389045 
L 363.672986 93.588387 
L 364.030428 96.24154 
L 364.389175 96.776974 
L 364.74898 96.004458 
L 365.47078 92.966466 
L 366.555483 86.982743 
L 369.422423 68.727289 
L 370.126829 66.341056 
L 370.476574 65.64619 
L 370.824575 65.253594 
L 371.170771 65.142351 
L 371.515093 65.286226 
L 372.197835 66.148192 
L 373.867045 68.841048 
L 374.518439 69.589113 
L 374.840478 69.799879 
L 375.160068 69.851818 
L 375.792014 69.583034 
L 376.414698 68.800797 
L 377.028718 67.219087 
L 378.824825 60.796651 
L 380.27849 57.084942 
L 380.852072 54.504386 
L 381.706546 49.36808 
L 382.273046 46.005407 
L 382.837402 43.835938 
L 383.118846 43.250853 
L 383.399853 42.932596 
L 383.680487 42.805059 
L 384.240941 42.882308 
L 385.081022 43.425125 
L 385.922857 43.987247 
L 388.190771 44.772126 
L 388.478283 45.051204 
L 388.767119 45.548679 
L 389.057406 46.482792 
L 389.349271 48.218708 
L 389.642859 51.323553 
L 389.938323 56.623787 
L 390.235808 65.137088 
L 390.837398 94.096308 
L 391.448909 126.050258 
L 391.758542 133.832214 
L 392.070315 135.485088 
L 392.383797 134.49574 
L 392.698579 133.930961 
L 393.014281 134.776982 
L 393.647078 138.08073 
L 393.963562 139.107641 
L 394.595344 140.304051 
L 394.910166 141.505498 
L 395.53667 146.091597 
L 396.466155 154.102929 
L 397.077269 156.946872 
L 397.680611 158.236247 
L 398.276218 159.548937 
L 398.86461 160.905661 
L 399.446388 161.920079 
L 399.734983 162.682368 
L 400.022147 164.031015 
L 400.592438 168.517503 
L 401.438562 175.26792 
L 401.718271 176.456174 
L 401.996861 177.018062 
L 402.274352 177.01264 
L 402.550765 176.498802 
L 402.826125 175.519134 
L 403.373924 172.463277 
L 404.189405 167.568648 
L 404.998387 163.977155 
L 405.800838 161.315089 
L 406.331532 160.220859 
L 406.857881 159.598926 
L 407.896805 158.794549 
L 408.920274 158.241632 
L 409.68038 158.063122 
L 410.435975 158.159701 
L 411.189736 158.545257 
L 411.945397 159.305336 
L 413.218142 160.76537 
L 413.733219 161.102016 
L 414.251383 161.179757 
L 415.033279 160.924095 
L 416.082536 160.496668 
L 416.609598 160.463567 
L 417.138205 160.629297 
L 417.934172 161.181512 
L 419.00356 161.942675 
L 419.54305 162.109317 
L 420.086413 162.01978 
L 420.634058 161.640629 
L 421.186305 160.992847 
L 423.448279 157.842292 
L 424.028971 157.586859 
L 424.61645 157.693477 
L 425.211303 158.258859 
L 425.814281 159.542131 
L 426.119101 160.146256 
L 426.426323 160.051928 
L 426.736072 158.980794 
L 427.680955 153.946614 
L 429.308097 148.619281 
L 429.641243 148.033709 
L 430.655741 147.281692 
L 430.998865 146.533311 
L 431.692453 144.088322 
L 432.39572 141.389076 
L 432.750936 140.597497 
L 433.108521 140.768667 
L 433.468461 141.784956 
L 434.562294 146.467015 
L 435.303048 149.924008 
L 435.676847 150.871495 
L 436.052914 150.811996 
L 436.431235 149.952691 
L 437.194596 146.962494 
L 438.356251 141.225196 
L 439.141615 137.045908 
L 439.537531 135.739133 
L 439.935586 135.066028 
L 440.335766 134.763324 
L 441.142453 134.581227 
L 441.548933 134.682262 
L 441.957486 134.948823 
L 444.030929 136.998354 
L 444.874397 137.275732 
L 445.725656 137.277138 
L 448.304497 136.955446 
L 449.163478 137.125951 
L 450.018421 137.585297 
L 452.126901 139.183915 
L 452.955092 139.493815 
L 453.36535 139.97111 
L 453.772881 140.926768 
L 454.579278 144.117836 
L 455.373333 148.793409 
L 456.154166 153.902571 
L 456.539378 155.738895 
L 456.921003 156.903806 
L 457.673185 158.104535 
L 458.772802 159.301187 
L 459.131494 160.026143 
L 459.486203 161.594349 
L 461.199301 172.617104 
L 461.529782 173.74101 
L 461.856257 174.452222 
L 462.178773 174.628959 
L 462.497393 174.311488 
L 463.123255 173.221566 
L 463.430677 173.016283 
L 463.734559 173.120045 
L 464.626106 174.125985 
L 464.916988 174.558301 
L 465.490004 176.11345 
L 466.329227 178.942148 
L 466.603913 179.363504 
L 466.876191 179.333048 
L 467.146117 178.815239 
L 467.413748 177.826462 
L 467.942464 174.651798 
L 468.721102 169.709771 
L 469.733818 165.042445 
L 470.716502 161.59076 
L 471.670889 159.004501 
L 472.371809 157.643868 
L 472.833607 157.099353 
L 473.519814 156.6793 
L 474.201359 156.565936 
L 475.110138 156.759184 
L 475.796279 156.869119 
L 476.48878 156.752794 
L 478.615676 156.093357 
L 479.099674 156.34748 
L 479.588628 157.114429 
L 480.083841 158.558757 
L 481.887836 165.084525 
L 482.155737 165.613164 
L 482.42622 165.76404 
L 482.699235 165.621645 
L 483.252571 164.851874 
L 484.100099 163.594742 
L 484.676453 163.187929 
L 485.557475 162.996321 
L 485.855531 163.028142 
L 486.155779 163.246362 
L 486.458199 163.755133 
L 487.689209 166.992928 
L 488.002174 167.265361 
L 488.31714 167.156384 
L 488.634074 166.741554 
L 490.248264 163.748524 
L 490.907816 163.303382 
L 491.240589 163.290238 
L 491.575389 163.418099 
L 492.251134 164.069813 
L 493.28019 165.148288 
L 493.627339 165.283627 
L 493.976595 165.2469 
L 494.681493 164.777467 
L 495.037144 164.325459 
L 495.754935 162.785121 
L 496.481478 160.769754 
L 496.848037 160.122017 
L 497.216792 159.945444 
L 497.587754 159.98208 
L 497.960932 159.708879 
L 498.336324 158.755404 
L 498.713923 157.002578 
L 501.025354 142.887921 
L 501.418116 142.190779 
L 501.812991 142.784952 
L 502.209973 144.275898 
L 502.609048 146.51871 
L 503.818701 154.983188 
L 504.226013 156.805694 
L 504.635347 157.843709 
L 505.046696 157.93454 
L 505.460055 156.98629 
L 505.875419 155.117346 
L 506.712134 149.766167 
L 508.409292 137.888406 
L 508.838462 135.771598 
L 509.269563 134.336685 
L 509.702582 133.593849 
L 510.13751 133.453122 
L 510.574335 133.750057 
L 511.013046 134.360391 
L 511.896086 136.208756 
L 512.786551 138.368527 
L 513.684364 140.074189 
L 514.136001 141.398052 
L 515.04469 145.154264 
L 516.883401 153.833905 
L 517.347452 154.899189 
L 517.813233 154.772928 
L 518.280737 153.643315 
L 518.74996 151.693517 
L 521.121648 139.581302 
L 522.082117 136.081474 
L 522.564848 134.841667 
L 523.049232 134.082371 
L 523.535262 133.833501 
L 524.022929 134.075101 
L 524.512225 134.781598 
L 525.989809 137.677484 
L 526.485546 138.363557 
L 526.982873 138.812764 
L 527.481784 139.475611 
L 527.982273 140.660881 
L 528.48433 142.412562 
L 529.493119 147.400266 
L 530.50807 152.267792 
L 531.017831 153.665147 
L 531.529103 153.850125 
L 532.041883 153.040411 
L 532.556166 151.585541 
L 533.589228 147.437707 
L 535.14998 140.544524 
L 536.197844 137.086994 
L 536.723965 135.657529 
L 537.251536 134.690095 
L 537.78055 134.354636 
L 538.311001 134.746855 
L 539.376187 137.019212 
L 540.447047 139.087037 
L 540.98459 139.575348 
L 541.523536 139.612235 
L 542.063879 140.019005 
L 542.605615 141.597426 
L 543.148738 144.807309 
L 545.334841 163.624795 
L 545.884661 165.890973 
L 546.435769 166.347651 
L 546.988165 165.364728 
L 547.541862 163.276679 
L 548.653182 156.792585 
L 550.329928 146.517499 
L 551.454135 139.615161 
L 552.583204 132.463512 
L 553.149514 130.390091 
L 553.716998 130.135361 
L 554.285655 131.584686 
L 556.572018 141.127503 
L 557.146546 141.324505 
L 557.722248 140.896596 
L 558.299123 142.168819 
L 558.877161 147.139126 
L 560.61784 172.033808 
L 561.200003 176.367743 
L 561.782975 177.312632 
L 562.366708 175.646934 
L 564.122923 168.077315 
L 564.710224 166.32353 
L 567.069096 160.994752 
L 567.661108 160.403222 
L 568.254075 161.503646 
L 570.039342 169.046432 
L 570.636656 170.456727 
L 571.235093 170.51294 
L 571.834651 169.020004 
L 572.435355 165.784395 
L 574.244332 151.749111 
L 574.849539 150.177664 
L 575.455822 150.91528 
L 576.06318 152.847378 
L 577.281159 157.648882 
L 577.891801 159.324983 
L 578.50355 159.935962 
L 579.116386 158.903373 
L 580.344422 154.887804 
L 580.958934 153.369739 
L 582.800685 149.94521 
L 583.413109 148.200144 
L 584.634468 143.049878 
L 585.243061 141.725319 
L 585.850059 142.128137 
L 586.45532 144.38531 
L 587.058703 148.64002 
L 588.259403 159.106109 
L 588.856663 162.578851 
L 589.451935 164.037357 
L 590.045305 164.061448 
L 590.636861 163.187379 
L 591.226688 161.428149 
L 592.401492 156.401022 
L 592.986645 154.777552 
L 593.57043 154.858472 
L 594.152961 157.035965 
L 595.314733 165.262867 
L 595.894193 169.451352 
L 596.472824 172.424295 
L 597.050696 174.106231 
L 597.627875 174.91048 
L 598.204426 175.147064 
L 599.355873 174.959545 
L 599.930838 174.550022 
L 600.505318 173.377545 
L 602.798589 165.94852 
L 603.942996 163.453888 
L 605.086867 161.64644 
L 605.658978 161.013963 
L 606.231376 160.592098 
L 606.804151 160.414164 
L 607.377364 160.531446 
L 608.52517 161.795888 
L 609.099802 161.241402 
L 609.674991 158.456985 
L 610.827466 151.018232 
L 611.404968 148.789634 
L 611.983446 146.105505 
L 612.562948 141.005407 
L 613.725013 128.154518 
L 614.307558 124.384216 
L 614.891097 122.812802 
L 615.475621 123.351075 
L 616.061127 125.701263 
L 617.235112 132.343937 
L 617.823583 134.891544 
L 618.412846 136.487322 
L 619.002571 137.283072 
L 619.592462 137.661567 
L 620.771654 138.08334 
L 621.360418 138.212971 
L 621.948278 138.119392 
L 622.534977 137.709982 
L 623.120273 136.895307 
L 623.703934 135.592359 
L 625.442976 130.774498 
L 626.018023 129.882078 
L 626.590453 129.7645 
L 627.160098 130.537127 
L 627.726805 131.846752 
L 628.290425 132.681632 
L 628.850823 131.82105 
L 629.407868 128.952035 
L 629.961433 123.952838 
L 631.599926 104.276256 
L 632.138248 99.662598 
L 632.672459 97.421496 
L 633.202481 97.445168 
L 633.72825 99.321134 
L 634.249711 102.745475 
L 636.790132 124.767515 
L 637.773883 131.634632 
L 639.213605 144.230463 
L 639.683829 146.932202 
L 640.149184 148.199851 
L 640.609664 147.654898 
L 641.065278 144.915138 
L 641.51604 140.147787 
L 643.271019 117.234414 
L 644.120162 108.259581 
L 644.537817 105.690735 
L 644.950957 104.652449 
L 645.359685 104.818705 
L 645.764133 105.918458 
L 646.953338 111.183383 
L 647.342206 111.358861 
L 647.727562 109.659905 
L 648.109553 106.129073 
L 649.973635 82.026531 
L 652.477356 49.351201 
L 653.17522 43.036145 
L 653.866292 39.384074 
L 654.20929 38.509323 
L 654.550641 38.140271 
L 654.890416 38.163642 
L 655.228713 38.474217 
L 656.569353 40.313403 
L 657.232976 40.630098 
L 657.892642 40.558023 
L 658.548886 40.174447 
L 659.202697 39.460357 
L 659.855527 38.661169 
L 660.182138 38.600561 
L 660.509228 39.306186 
L 660.837084 41.556778 
L 661.166035 46.495069 
L 661.49645 55.696641 
L 661.828659 71.05175 
L 662.838848 145.293691 
L 663.18087 155.273165 
L 663.525626 156.358074 
L 664.575828 150.27954 
L 664.931038 149.182191 
L 665.288743 147.643947 
L 665.648905 144.878427 
L 666.376471 134.560444 
L 667.113559 125.257993 
L 667.485627 122.750602 
L 667.860024 121.516259 
L 668.236741 121.494493 
L 668.615767 122.645378 
L 669.380688 127.428212 
L 670.544977 135.532379 
L 671.332242 139.71386 
L 671.729142 141.00162 
L 672.128198 141.761696 
L 672.529395 142.037026 
L 672.932718 141.917274 
L 673.745681 141.034726 
L 675.814301 138.22443 
L 676.65596 137.669463 
L 677.50559 137.531225 
L 678.794772 137.719062 
L 679.513182 137.8424 
L 679.513182 137.8424 
" clip-path="url(#pa77c84005b)" style="fill: none; stroke: #d62728; stroke-opacity: 0.8; stroke-width: 0.9; stroke-linecap: square"/>
   </g>
   <g id="patch_3">
    <path d="M 56.09 246.04 
L 56.09 26.88 
" style="fill: none; stroke: #000000; stroke-width: 0.8; stroke-linejoin: miter; stroke-linecap: square"/>
   </g>
   <g id="patch_4">
    <path d="M 709.2 246.04 
L 709.2 26.88 
" style="fill: none; stroke: #000000; stroke-width: 0.8; stroke-linejoin: miter; stroke-linecap: square"/>
   </g>
   <g id="patch_5">
    <path d="M 56.09 246.04 
L 709.2 246.04 
" style="fill: none; stroke: #000000; stroke-width: 0.8; stroke-linejoin: miter; stroke-linecap: square"/>
   </g>
   <g id="patch_6">
    <path d="M 56.09 26.88 
L 709.2 26.88 
" style="fill: none; stroke: #000000; stroke-width: 0.8; stroke-linejoin: miter; stroke-linecap: square"/>
   </g>
   <g id="text_16">
    <!-- steering-link loads over one Kinnekulle Ring lap -->
    <g transform="translate(239.711875 20.88) scale(0.12 -0.12)">
     <defs>
      <path id="DejaVuSans-67" d="M 2906 1791 
Q 2906 2416 2648 2759 
Q 2391 3103 1925 3103 
Q 1463 3103 1205 2759 
Q 947 2416 947 1791 
Q 947 1169 1205 825 
Q 1463 481 1925 481 
Q 2391 481 2648 825 
Q 2906 1169 2906 1791 
z
M 3481 434 
Q 3481 -459 3084 -895 
Q 2688 -1331 1869 -1331 
Q 1566 -1331 1297 -1286 
Q 1028 -1241 775 -1147 
L 775 -588 
Q 1028 -725 1275 -790 
Q 1522 -856 1778 -856 
Q 2344 -856 2625 -561 
Q 2906 -266 2906 331 
L 2906 616 
Q 2728 306 2450 153 
Q 2172 0 1784 0 
Q 1141 0 747 490 
Q 353 981 353 1791 
Q 353 2603 747 3093 
Q 1141 3584 1784 3584 
Q 2172 3584 2450 3431 
Q 2728 3278 2906 2969 
L 2906 3500 
L 3481 3500 
L 3481 434 
z
" transform="scale(0.015625)"/>
      <path id="DejaVuSans-6c" d="M 603 4863 
L 1178 4863 
L 1178 0 
L 603 0 
L 603 4863 
z
" transform="scale(0.015625)"/>
      <path id="DejaVuSans-76" d="M 191 3500 
L 800 3500 
L 1894 563 
L 2988 3500 
L 3597 3500 
L 2284 0 
L 1503 0 
L 191 3500 
z
" transform="scale(0.015625)"/>
      <path id="DejaVuSans-4b" d="M 628 4666 
L 1259 4666 
L 1259 2694 
L 3353 4666 
L 4166 4666 
L 1850 2491 
L 4331 0 
L 3500 0 
L 1259 2247 
L 1259 0 
L 628 0 
L 628 4666 
z
" transform="scale(0.015625)"/>
      <path id="DejaVuSans-75" d="M 544 1381 
L 544 3500 
L 1119 3500 
L 1119 1403 
Q 1119 906 1312 657 
Q 1506 409 1894 409 
Q 2359 409 2629 706 
Q 2900 1003 2900 1516 
L 2900 3500 
L 3475 3500 
L 3475 0 
L 2900 0 
L 2900 538 
Q 2691 219 2414 64 
Q 2138 -91 1772 -91 
Q 1169 -91 856 284 
Q 544 659 544 1381 
z
M 1991 3584 
L 1991 3584 
z
" transform="scale(0.015625)"/>
      <path id="DejaVuSans-52" d="M 2841 2188 
Q 3044 2119 3236 1894 
Q 3428 1669 3622 1275 
L 4263 0 
L 3584 0 
L 2988 1197 
Q 2756 1666 2539 1819 
Q 2322 1972 1947 1972 
L 1259 1972 
L 1259 0 
L 628 0 
L 628 4666 
L 2053 4666 
Q 2853 4666 3247 4331 
Q 3641 3997 3641 3322 
Q 3641 2881 3436 2590 
Q 3231 2300 2841 2188 
z
M 1259 4147 
L 1259 2491 
L 2053 2491 
Q 2509 2491 2742 2702 
Q 2975 2913 2975 3322 
Q 2975 3731 2742 3939 
Q 2509 4147 2053 4147 
L 1259 4147 
z
" transform="scale(0.015625)"/>
      <path id="DejaVuSans-70" d="M 1159 525 
L 1159 -1331 
L 581 -1331 
L 581 3500 
L 1159 3500 
L 1159 2969 
Q 1341 3281 1617 3432 
Q 1894 3584 2278 3584 
Q 2916 3584 3314 3078 
Q 3713 2572 3713 1747 
Q 3713 922 3314 415 
Q 2916 -91 2278 -91 
Q 1894 -91 1617 61 
Q 1341 213 1159 525 
z
M 3116 1747 
Q 3116 2381 2855 2742 
Q 2594 3103 2138 3103 
Q 1681 3103 1420 2742 
Q 1159 2381 1159 1747 
Q 1159 1113 1420 752 
Q 1681 391 2138 391 
Q 2594 391 2855 752 
Q 3116 1113 3116 1747 
z
" transform="scale(0.015625)"/>
     </defs>
     <use xlink:href="#DejaVuSans-73"/>
     <use xlink:href="#DejaVuSans-74" transform="translate(52.099609 0)"/>
     <use xlink:href="#DejaVuSans-65" transform="translate(91.308594 0)"/>
     <use xlink:href="#DejaVuSans-65" transform="translate(152.832031 0)"/>
     <use xlink:href="#DejaVuSans-72" transform="translate(214.355469 0)"/>
     <use xlink:href="#DejaVuSans-69" transform="translate(255.46875 0)"/>
     <use xlink:href="#DejaVuSans-6e" transform="translate(283.251953 0)"/>
     <use xlink:href="#DejaVuSans-67" transform="translate(346.630859 0)"/>
     <use xlink:href="#DejaVuSans-2d" transform="translate(410.107422 0)"/>
     <use xlink:href="#DejaVuSans-6c" transform="translate(446.191406 0)"/>
     <use xlink:href="#DejaVuSans-69" transform="translate(473.974609 0)"/>
     <use xlink:href="#DejaVuSans-6e" transform="translate(501.757812 0)"/>
     <use xlink:href="#DejaVuSans-6b" transform="translate(565.136719 0)"/>
     <use xlink:href="#DejaVuSans-20" transform="translate(623.046875 0)"/>
     <use xlink:href="#DejaVuSans-6c" transform="translate(654.833984 0)"/>
     <use xlink:href="#DejaVuSans-6f" transform="translate(682.617188 0)"/>
     <use xlink:href="#DejaVuSans-61" transform="translate(743.798828 0)"/>
     <use xlink:href="#DejaVuSans-64" transform="translate(805.078125 0)"/>
     <use xlink:href="#DejaVuSans-73" transform="translate(868.554688 0)"/>
     <use xlink:href="#DejaVuSans-20" transform="translate(920.654297 0)"/>
     <use xlink:href="#DejaVuSans-6f" transform="translate(952.441406 0)"/>
     <use xlink:href="#DejaVuSans-76" transform="translate(1013.623047 0)"/>
     <use xlink:href="#DejaVuSans-65" transform="translate(1072.802734 0)"/>
     <use xlink:href="#DejaVuSans-72" transform="translate(1134.326172 0)"/>
     <use xlink:href="#DejaVuSans-20" transform="translate(1175.439453 0)"/>
     <use xlink:href="#DejaVuSans-6f" transform="translate(1207.226562 0)"/>
     <use xlink:href="#DejaVuSans-6e" transform="translate(1268.408203 0)"/>
     <use xlink:href="#DejaVuSans-65" transform="translate(1331.787109 0)"/>
     <use xlink:href="#DejaVuSans-20" transform="translate(1393.310547 0)"/>
     <use xlink:href="#DejaVuSans-4b" transform="translate(1425.097656 0)"/>
     <use xlink:href="#DejaVuSans-69" transform="translate(1490.673828 0)"/>
     <use xlink:href="#DejaVuSans-6e" transform="translate(1518.457031 0)"/>
     <use xlink:href="#DejaVuSans-6e" transform="translate(1581.835938 0)"/>
     <use xlink:href="#DejaVuSans-65" transform="translate(1645.214844 0)"/>
     <use xlink:href="#DejaVuSans-6b" transform="translate(1706.738281 0)"/>
     <use xlink:href="#DejaVuSans-75" transform="translate(1761.523438 0)"/>
     <use xlink:href="#DejaVuSans-6c" transform="translate(1824.902344 0)"/>
     <use xlink:href="#DejaVuSans-6c" transform="translate(1852.685547 0)"/>
     <use xlink:href="#DejaVuSans-65" transform="translate(1880.46875 0)"/>
     <use xlink:href="#DejaVuSans-20" transform="translate(1941.992188 0)"/>
     <use xlink:href="#DejaVuSans-52" transform="translate(1973.779297 0)"/>
     <use xlink:href="#DejaVuSans-69" transform="translate(2043.261719 0)"/>
     <use xlink:href="#DejaVuSans-6e" transform="translate(2071.044922 0)"/>
     <use xlink:href="#DejaVuSans-67" transform="translate(2134.423828 0)"/>
     <use xlink:href="#DejaVuSans-20" transform="translate(2197.900391 0)"/>
     <use xlink:href="#DejaVuSans-6c" transform="translate(2229.6875 0)"/>
     <use xlink:href="#DejaVuSans-61" transform="translate(2257.470703 0)"/>
     <use xlink:href="#DejaVuSans-70" transform="translate(2318.75 0)"/>
    </g>
   </g>
   <g id="legend_1">
    <g id="patch_7">
     <path d="M 61.69 56.765 
L 134.535 56.765 
Q 136.135 56.765 136.135 55.165 
L 136.135 32.48 
Q 136.135 30.88 134.535 30.88 
L 61.69 30.88 
Q 60.09 30.88 60.09 32.48 
L 60.09 55.165 
Q 60.09 56.765 61.69 56.765 
z
" style="fill: #ffffff; opacity: 0.8; stroke: #cccccc; stroke-linejoin: miter"/>
    </g>
    <g id="line2d_29">
     <path d="M 63.29 37.35875 
L 71.29 37.35875 
L 79.29 37.35875 
" style="fill: none; stroke: #2ca02c; stroke-width: 0.9; stroke-linecap: square"/>
    </g>
    <g id="text_17">
     <!-- tie rod left -->
     <g transform="translate(85.69 40.15875) scale(0.08 -0.08)">
      <use xlink:href="#DejaVuSans-74"/>
      <use xlink:href="#DejaVuSans-69" transform="translate(39.208984 0)"/>
      <use xlink:href="#DejaVuSans-65" transform="translate(66.992188 0)"/>
      <use xlink:href="#DejaVuSans-20" transform="translate(128.515625 0)"/>
      <use xlink:href="#DejaVuSans-72" transform="translate(160.302734 0)"/>
      <use xlink:href="#DejaVuSans-6f" transform="translate(199.166016 0)"/>
      <use xlink:href="#DejaVuSans-64" transform="translate(260.347656 0)"/>
      <use xlink:href="#DejaVuSans-20" transform="translate(323.824219 0)"/>
      <use xlink:href="#DejaVuSans-6c" transform="translate(355.611328 0)"/>
      <use xlink:href="#DejaVuSans-65" transform="translate(383.394531 0)"/>
      <use xlink:href="#DejaVuSans-66" transform="translate(444.917969 0)"/>
      <use xlink:href="#DejaVuSans-74" transform="translate(478.373047 0)"/>
     </g>
    </g>
    <g id="line2d_30">
     <path d="M 63.29 49.10125 
L 71.29 49.10125 
L 79.29 49.10125 
" style="fill: none; stroke: #d62728; stroke-opacity: 0.8; stroke-width: 0.9; stroke-linecap: square"/>
    </g>
    <g id="text_18">
     <!-- tie rod right -->
     <g transform="translate(85.69 51.90125) scale(0.08 -0.08)">
      <defs>
       <path id="DejaVuSans-68" d="M 3513 2113 
L 3513 0 
L 2938 0 
L 2938 2094 
Q 2938 2591 2744 2837 
Q 2550 3084 2163 3084 
Q 1697 3084 1428 2787 
Q 1159 2491 1159 1978 
L 1159 0 
L 581 0 
L 581 4863 
L 1159 4863 
L 1159 2956 
Q 1366 3272 1645 3428 
Q 1925 3584 2291 3584 
Q 2894 3584 3203 3211 
Q 3513 2838 3513 2113 
z
" transform="scale(0.015625)"/>
      </defs>
      <use xlink:href="#DejaVuSans-74"/>
      <use xlink:href="#DejaVuSans-69" transform="translate(39.208984 0)"/>
      <use xlink:href="#DejaVuSans-65" transform="translate(66.992188 0)"/>
      <use xlink:href="#DejaVuSans-20" transform="translate(128.515625 0)"/>
      <use xlink:href="#DejaVuSans-72" transform="translate(160.302734 0)"/>
      <use xlink:href="#DejaVuSans-6f" transform="translate(199.166016 0)"/>
      <use xlink:href="#DejaVuSans-64" transform="translate(260.347656 0)"/>
      <use xlink:href="#DejaVuSans-20" transform="translate(323.824219 0)"/>
      <use xlink:href="#DejaVuSans-72" transform="translate(355.611328 0)"/>
      <use xlink:href="#DejaVuSans-69" transform="translate(396.724609 0)"/>
      <use xlink:href="#DejaVuSans-67" transform="translate(424.507812 0)"/>
      <use xlink:href="#DejaVuSans-68" transform="translate(487.984375 0)"/>
      <use xlink:href="#DejaVuSans-74" transform="translate(551.363281 0)"/>
     </g>
    </g>
   </g>
  </g>
 </g>
 <defs>
  <clipPath id="pa77c84005b">
   <rect x="56.09" y="26.88" width="653.11" height="219.16"/>
  </clipPath>
 </defs>
</svg>
