<?xml version="1.0" encoding="utf-8" standalone="no"?>
<!DOCTYPE svg PUBLIC "-//W3C//DTD SVG 1.1//EN"
  "http://www.w3.org/Graphics/SVG/1.1/DTD/svg11.dtd">
<svg xmlns:xlink="http://www.w3.org/1999/xlink" width="720pt" height="288pt" viewBox="0 0 720 288" xmlns="http://www.w3.org/2000/svg" version="1.1">
 <metadata>
  <rdf:RDF xmlns:dc="http://purl.org/dc/elements/1.1/" xmlns:cc="http://creativecommons.org/ns#" xmlns:rdf="http://www.w3.org/1999/02/22-rdf-syntax-ns#">
   <cc:Work>
    <dc:type rdf:resource="http://purl.org/dc/dcmitype/StillImage"/>
    <dc:date>2026-07-08T12:17:05.965192</dc:date>
    <dc:format>image/svg+xml</dc:format>
    <dc:creator>
     <cc:Agent>
      <dc:title>Matplotlib v3.10.8, https://matplotlib.org/</dc:title>
     </cc:Agent>
    </dc:creator>
   </cc:Work>
  </rdf:RDF>
 </metadata>
 <defs>
  <style type="text/css">*{stroke-linejoin: round; stroke-linecap: butt}</style>
 </defs>
 <g id="figure_1">
  <g id="patch_1">
   <path d="M 0 288 
L 720 288 
L 720 0 
L 0 0 
z
" style="fill: #ffffff"/>
  </g>
  <g id="axes_1">
   <g id="patch_2">
    <path d="M 56.09 246.04 
L 709.2 246.04 
L 709.2 26.88 
L 56.09 26.88 
z
" style="fill: #ffffff"/>
   </g>
   <g id="matplotlib.axis_1">
    <g id="xtick_1">
     <g id="line2d_1">
      <path d="M 85.776818 246.04 
L 85.776818 26.88 
" clip-path="url(#p44b4e51edb)" style="fill: none; stroke: #b0b0b0; stroke-opacity: 0.3; stroke-width: 0.8; stroke-linecap: square"/>
     </g>
     <g id="line2d_2">
      <defs>
       <path id="md665842caf" d="M 0 0 
L 0 3.5 
" style="stroke: #000000; stroke-width: 0.8"/>
      </defs>
      <g>
       <use xlink:href="#md665842caf" x="85.776818" y="246.04" style="stroke: #000000; stroke-width: 0.8"/>
      </g>
     </g>
     <g id="text_1">
      <!-- 0.0 -->
      <g transform="translate(77.825256 260.638438) scale(0.1 -0.1)">
       <defs>
        <path id="DejaVuSans-30" d="M 2034 4250 
Q 1547 4250 1301 3770 
Q 1056 3291 1056 2328 
Q 1056 1369 1301 889 
Q 1547 409 2034 409 
Q 2525 409 2770 889 
Q 3016 1369 3016 2328 
Q 3016 3291 2770 3770 
Q 2525 4250 2034 4250 
z
M 2034 4750 
Q 2819 4750 3233 4129 
Q 3647 3509 3647 2328 
Q 3647 1150 3233 529 
Q 2819 -91 2034 -91 
Q 1250 -91 836 529 
Q 422 1150 422 2328 
Q 422 3509 836 4129 
Q 1250 4750 2034 4750 
z
" transform="scale(0.015625)"/>
        <path id="DejaVuSans-2e" d="M 684 794 
L 1344 794 
L 1344 0 
L 684 0 
L 684 794 
z
" transform="scale(0.015625)"/>
       </defs>
       <use xlink:href="#DejaVuSans-30"/>
       <use xlink:href="#DejaVuSans-2e" transform="translate(63.623047 0)"/>
       <use xlink:href="#DejaVuSans-30" transform="translate(95.410156 0)"/>
      </g>
     </g>
    </g>
    <g id="xtick_2">
     <g id="line2d_3">
      <path d="M 230.456472 246.04 
L 230.456472 26.88 
" clip-path="url(#p44b4e51edb)" style="fill: none; stroke: #b0b0b0; stroke-opacity: 0.3; stroke-width: 0.8; stroke-linecap: square"/>
     </g>
     <g id="line2d_4">
      <g>
       <use xlink:href="#md665842caf" x="230.456472" y="246.04" style="stroke: #000000; stroke-width: 0.8"/>
      </g>
     </g>
     <g id="text_2">
      <!-- 0.5 -->
      <g transform="translate(222.50491 260.638438) scale(0.1 -0.1)">
       <defs>
        <path id="DejaVuSans-35" d="M 691 4666 
L 3169 4666 
L 3169 4134 
L 1269 4134 
L 1269 2991 
Q 1406 3038 1543 3061 
Q 1681 3084 1819 3084 
Q 2600 3084 3056 2656 
Q 3513 2228 3513 1497 
Q 3513 744 3044 326 
Q 2575 -91 1722 -91 
Q 1428 -91 1123 -41 
Q 819 9 494 109 
L 494 744 
Q 775 591 1075 516 
Q 1375 441 1709 441 
Q 2250 441 2565 725 
Q 2881 1009 2881 1497 
Q 2881 1984 2565 2268 
Q 2250 2553 1709 2553 
Q 1456 2553 1204 2497 
Q 953 2441 691 2322 
L 691 4666 
z
" transform="scale(0.015625)"/>
       </defs>
       <use xlink:href="#DejaVuSans-30"/>
       <use xlink:href="#DejaVuSans-2e" transform="translate(63.623047 0)"/>
       <use xlink:href="#DejaVuSans-35" transform="translate(95.410156 0)"/>
      </g>
     </g>
    </g>
    <g id="xtick_3">
     <g id="line2d_5">
      <path d="M 375.136126 246.04 
L 375.136126 26.88 
" clip-path="url(#p44b4e51edb)" style="fill: none; stroke: #b0b0b0; stroke-opacity: 0.3; stroke-width: 0.8; stroke-linecap: square"/>
     </g>
     <g id="line2d_6">
      <g>
       <use xlink:href="#md665842caf" x="375.136126" y="246.04" style="stroke: #000000; stroke-width: 0.8"/>
      </g>
     </g>
     <g id="text_3">
      <!-- 1.0 -->
      <g transform="translate(367.184563 260.638438) scale(0.1 -0.1)">
       <defs>
        <path id="DejaVuSans-31" d="M 794 531 
L 1825 531 
L 1825 4091 
L 703 3866 
L 703 4441 
L 1819 4666 
L 2450 4666 
L 2450 531 
L 3481 531 
L 3481 0 
L 794 0 
L 794 531 
z
" transform="scale(0.015625)"/>
       </defs>
       <use xlink:href="#DejaVuSans-31"/>
       <use xlink:href="#DejaVuSans-2e" transform="translate(63.623047 0)"/>
       <use xlink:href="#DejaVuSans-30" transform="translate(95.410156 0)"/>
      </g>
     </g>
    </g>
    <g id="xtick_4">
     <g id="line2d_7">
      <path d="M 519.81578 246.04 
L 519.81578 26.88 
" clip-path="url(#p44b4e51edb)" style="fill: none; stroke: #b0b0b0; stroke-opacity: 0.3; stroke-width: 0.8; stroke-linecap: square"/>
     </g>
     <g id="line2d_8">
      <g>
       <use xlink:href="#md665842caf" x="519.81578" y="246.04" style="stroke: #000000; stroke-width: 0.8"/>
      </g>
     </g>
     <g id="text_4">
      <!-- 1.5 -->
      <g transform="translate(511.864217 260.638438) scale(0.1 -0.1)">
       <use xlink:href="#DejaVuSans-31"/>
       <use xlink:href="#DejaVuSans-2e" transform="translate(63.623047 0)"/>
       <use xlink:href="#DejaVuSans-35" transform="translate(95.410156 0)"/>
      </g>
     </g>
    </g>
    <g id="xtick_5">
     <g id="line2d_9">
      <path d="M 664.495434 246.04 
L 664.495434 26.88 
" clip-path="url(#p44b4e51edb)" style="fill: none; stroke: #b0b0b0; stroke-opacity: 0.3; stroke-width: 0.8; stroke-linecap: square"/>
     </g>
     <g id="line2d_10">
      <g>
       <use xlink:href="#md665842caf" x="664.495434" y="246.04" style="stroke: #000000; stroke-width: 0.8"/>
      </g>
     </g>
     <g id="text_5">
      <!-- 2.0 -->
      <g transform="translate(656.543871 260.638438) scale(0.1 -0.1)">
       <defs>
        <path id="DejaVuSans-32" d="M 1228 531 
L 3431 531 
L 3431 0 
L 469 0 
L 469 531 
Q 828 903 1448 1529 
Q 2069 2156 2228 2338 
Q 2531 2678 2651 2914 
Q 2772 3150 2772 3378 
Q 2772 3750 2511 3984 
Q 2250 4219 1831 4219 
Q 1534 4219 1204 4116 
Q 875 4013 500 3803 
L 500 4441 
Q 881 4594 1212 4672 
Q 1544 4750 1819 4750 
Q 2544 4750 2975 4387 
Q 3406 4025 3406 3419 
Q 3406 3131 3298 2873 
Q 3191 2616 2906 2266 
Q 2828 2175 2409 1742 
Q 1991 1309 1228 531 
z
" transform="scale(0.015625)"/>
       </defs>
       <use xlink:href="#DejaVuSans-32"/>
       <use xlink:href="#DejaVuSans-2e" transform="translate(63.623047 0)"/>
       <use xlink:href="#DejaVuSans-30" transform="translate(95.410156 0)"/>
      </g>
     </g>
    </g>
    <g id="text_6">
     <!-- distance s [km] -->
     <g transform="translate(344.008281 274.316562) scale(0.1 -0.1)">
      <defs>
       <path id="DejaVuSans-64" d="M 2906 2969 
L 2906 4863 
L 3481 4863 
L 3481 0 
L 2906 0 
L 2906 525 
Q 2725 213 2448 61 
Q 2172 -91 1784 -91 
Q 1150 -91 751 415 
Q 353 922 353 1747 
Q 353 2572 751 3078 
Q 1150 3584 1784 3584 
Q 2172 3584 2448 3432 
Q 2725 3281 2906 2969 
z
M 947 1747 
Q 947 1113 1208 752 
Q 1469 391 1925 391 
Q 2381 391 2643 752 
Q 2906 1113 2906 1747 
Q 2906 2381 2643 2742 
Q 2381 3103 1925 3103 
Q 1469 3103 1208 2742 
Q 947 2381 947 1747 
z
" transform="scale(0.015625)"/>
       <path id="DejaVuSans-69" d="M 603 3500 
L 1178 3500 
L 1178 0 
L 603 0 
L 603 3500 
z
M 603 4863 
L 1178 4863 
L 1178 4134 
L 603 4134 
L 603 4863 
z
" transform="scale(0.015625)"/>
       <path id="DejaVuSans-73" d="M 2834 3397 
L 2834 2853 
Q 2591 2978 2328 3040 
Q 2066 3103 1784 3103 
Q 1356 3103 1142 2972 
Q 928 2841 928 2578 
Q 928 2378 1081 2264 
Q 1234 2150 1697 2047 
L 1894 2003 
Q 2506 1872 2764 1633 
Q 3022 1394 3022 966 
Q 3022 478 2636 193 
Q 2250 -91 1575 -91 
Q 1294 -91 989 -36 
Q 684 19 347 128 
L 347 722 
Q 666 556 975 473 
Q 1284 391 1588 391 
Q 1994 391 2212 530 
Q 2431 669 2431 922 
Q 2431 1156 2273 1281 
Q 2116 1406 1581 1522 
L 1381 1569 
Q 847 1681 609 1914 
Q 372 2147 372 2553 
Q 372 3047 722 3315 
Q 1072 3584 1716 3584 
Q 2034 3584 2315 3537 
Q 2597 3491 2834 3397 
z
" transform="scale(0.015625)"/>
       <path id="DejaVuSans-74" d="M 1172 4494 
L 1172 3500 
L 2356 3500 
L 2356 3053 
L 1172 3053 
L 1172 1153 
Q 1172 725 1289 603 
Q 1406 481 1766 481 
L 2356 481 
L 2356 0 
L 1766 0 
Q 1100 0 847 248 
Q 594 497 594 1153 
L 594 3053 
L 172 3053 
L 172 3500 
L 594 3500 
L 594 4494 
L 1172 4494 
z
" transform="scale(0.015625)"/>
       <path id="DejaVuSans-61" d="M 2194 1759 
Q 1497 1759 1228 1600 
Q 959 1441 959 1056 
Q 959 750 1161 570 
Q 1363 391 1709 391 
Q 2188 391 2477 730 
Q 2766 1069 2766 1631 
L 2766 1759 
L 2194 1759 
z
M 3341 1997 
L 3341 0 
L 2766 0 
L 2766 531 
Q 2569 213 2275 61 
Q 1981 -91 1556 -91 
Q 1019 -91 701 211 
Q 384 513 384 1019 
Q 384 1609 779 1909 
Q 1175 2209 1959 2209 
L 2766 2209 
L 2766 2266 
Q 2766 2663 2505 2880 
Q 2244 3097 1772 3097 
Q 1472 3097 1187 3025 
Q 903 2953 641 2809 
L 641 3341 
Q 956 3463 1253 3523 
Q 1550 3584 1831 3584 
Q 2591 3584 2966 3190 
Q 3341 2797 3341 1997 
z
" transform="scale(0.015625)"/>
       <path id="DejaVuSans-6e" d="M 3513 2113 
L 3513 0 
L 2938 0 
L 2938 2094 
Q 2938 2591 2744 2837 
Q 2550 3084 2163 3084 
Q 1697 3084 1428 2787 
Q 1159 2491 1159 1978 
L 1159 0 
L 581 0 
L 581 3500 
L 1159 3500 
L 1159 2956 
Q 1366 3272 1645 3428 
Q 1925 3584 2291 3584 
Q 2894 3584 3203 3211 
Q 3513 2838 3513 2113 
z
" transform="scale(0.015625)"/>
       <path id="DejaVuSans-63" d="M 3122 3366 
L 3122 2828 
Q 2878 2963 2633 3030 
Q 2388 3097 2138 3097 
Q 1578 3097 1268 2742 
Q 959 2388 959 1747 
Q 959 1106 1268 751 
Q 1578 397 2138 397 
Q 2388 397 2633 464 
Q 2878 531 3122 666 
L 3122 134 
Q 2881 22 2623 -34 
Q 2366 -91 2075 -91 
Q 1284 -91 818 406 
Q 353 903 353 1747 
Q 353 2603 823 3093 
Q 1294 3584 2113 3584 
Q 2378 3584 2631 3529 
Q 2884 3475 3122 3366 
z
" transform="scale(0.015625)"/>
       <path id="DejaVuSans-65" d="M 3597 1894 
L 3597 1613 
L 953 1613 
Q 991 1019 1311 708 
Q 1631 397 2203 397 
Q 2534 397 2845 478 
Q 3156 559 3463 722 
L 3463 178 
Q 3153 47 2828 -22 
Q 2503 -91 2169 -91 
Q 1331 -91 842 396 
Q 353 884 353 1716 
Q 353 2575 817 3079 
Q 1281 3584 2069 3584 
Q 2775 3584 3186 3129 
Q 3597 2675 3597 1894 
z
M 3022 2063 
Q 3016 2534 2758 2815 
Q 2500 3097 2075 3097 
Q 1594 3097 1305 2825 
Q 1016 2553 972 2059 
L 3022 2063 
z
" transform="scale(0.015625)"/>
       <path id="DejaVuSans-20" transform="scale(0.015625)"/>
       <path id="DejaVuSans-5b" d="M 550 4863 
L 1875 4863 
L 1875 4416 
L 1125 4416 
L 1125 -397 
L 1875 -397 
L 1875 -844 
L 550 -844 
L 550 4863 
z
" transform="scale(0.015625)"/>
       <path id="DejaVuSans-6b" d="M 581 4863 
L 1159 4863 
L 1159 1991 
L 2875 3500 
L 3609 3500 
L 1753 1863 
L 3688 0 
L 2938 0 
L 1159 1709 
L 1159 0 
L 581 0 
L 581 4863 
z
" transform="scale(0.015625)"/>
       <path id="DejaVuSans-6d" d="M 3328 2828 
Q 3544 3216 3844 3400 
Q 4144 3584 4550 3584 
Q 5097 3584 5394 3201 
Q 5691 2819 5691 2113 
L 5691 0 
L 5113 0 
L 5113 2094 
Q 5113 2597 4934 2840 
Q 4756 3084 4391 3084 
Q 3944 3084 3684 2787 
Q 3425 2491 3425 1978 
L 3425 0 
L 2847 0 
L 2847 2094 
Q 2847 2600 2669 2842 
Q 2491 3084 2119 3084 
Q 1678 3084 1418 2786 
Q 1159 2488 1159 1978 
L 1159 0 
L 581 0 
L 581 3500 
L 1159 3500 
L 1159 2956 
Q 1356 3278 1631 3431 
Q 1906 3584 2284 3584 
Q 2666 3584 2933 3390 
Q 3200 3197 3328 2828 
z
" transform="scale(0.015625)"/>
       <path id="DejaVuSans-5d" d="M 1947 4863 
L 1947 -844 
L 622 -844 
L 622 -397 
L 1369 -397 
L 1369 4416 
L 622 4416 
L 622 4863 
L 1947 4863 
z
" transform="scale(0.015625)"/>
      </defs>
      <use xlink:href="#DejaVuSans-64"/>
      <use xlink:href="#DejaVuSans-69" transform="translate(63.476562 0)"/>
      <use xlink:href="#DejaVuSans-73" transform="translate(91.259766 0)"/>
      <use xlink:href="#DejaVuSans-74" transform="translate(143.359375 0)"/>
      <use xlink:href="#DejaVuSans-61" transform="translate(182.568359 0)"/>
      <use xlink:href="#DejaVuSans-6e" transform="translate(243.847656 0)"/>
      <use xlink:href="#DejaVuSans-63" transform="translate(307.226562 0)"/>
      <use xlink:href="#DejaVuSans-65" transform="translate(362.207031 0)"/>
      <use xlink:href="#DejaVuSans-20" transform="translate(423.730469 0)"/>
      <use xlink:href="#DejaVuSans-73" transform="translate(455.517578 0)"/>
      <use xlink:href="#DejaVuSans-20" transform="translate(507.617188 0)"/>
      <use xlink:href="#DejaVuSans-5b" transform="translate(539.404297 0)"/>
      <use xlink:href="#DejaVuSans-6b" transform="translate(578.417969 0)"/>
      <use xlink:href="#DejaVuSans-6d" transform="translate(636.328125 0)"/>
      <use xlink:href="#DejaVuSans-5d" transform="translate(733.740234 0)"/>
     </g>
    </g>
   </g>
   <g id="matplotlib.axis_2">
    <g id="ytick_1">
     <g id="line2d_11">
      <path d="M 56.09 220.859904 
L 709.2 220.859904 
" clip-path="url(#p44b4e51edb)" style="fill: none; stroke: #b0b0b0; stroke-opacity: 0.3; stroke-width: 0.8; stroke-linecap: square"/>
     </g>
     <g id="line2d_12">
      <defs>
       <path id="m280ca8aa61" d="M 0 0 
L -3.5 0 
" style="stroke: #000000; stroke-width: 0.8"/>
      </defs>
      <g>
       <use xlink:href="#m280ca8aa61" x="56.09" y="220.859904" style="stroke: #000000; stroke-width: 0.8"/>
      </g>
     </g>
     <g id="text_7">
      <!-- −1.5 -->
      <g transform="translate(24.807188 224.659123) scale(0.1 -0.1)">
       <defs>
        <path id="DejaVuSans-2212" d="M 678 2272 
L 4684 2272 
L 4684 1741 
L 678 1741 
L 678 2272 
z
" transform="scale(0.015625)"/>
       </defs>
       <use xlink:href="#DejaVuSans-2212"/>
       <use xlink:href="#DejaVuSans-31" transform="translate(83.789062 0)"/>
       <use xlink:href="#DejaVuSans-2e" transform="translate(147.412109 0)"/>
       <use xlink:href="#DejaVuSans-35" transform="translate(179.199219 0)"/>
      </g>
     </g>
    </g>
    <g id="ytick_2">
     <g id="line2d_13">
      <path d="M 56.09 193.342742 
L 709.2 193.342742 
" clip-path="url(#p44b4e51edb)" style="fill: none; stroke: #b0b0b0; stroke-opacity: 0.3; stroke-width: 0.8; stroke-linecap: square"/>
     </g>
     <g id="line2d_14">
      <g>
       <use xlink:href="#m280ca8aa61" x="56.09" y="193.342742" style="stroke: #000000; stroke-width: 0.8"/>
      </g>
     </g>
     <g id="text_8">
      <!-- −1.0 -->
      <g transform="translate(24.807188 197.141961) scale(0.1 -0.1)">
       <use xlink:href="#DejaVuSans-2212"/>
       <use xlink:href="#DejaVuSans-31" transform="translate(83.789062 0)"/>
       <use xlink:href="#DejaVuSans-2e" transform="translate(147.412109 0)"/>
       <use xlink:href="#DejaVuSans-30" transform="translate(179.199219 0)"/>
      </g>
     </g>
    </g>
    <g id="ytick_3">
     <g id="line2d_15">
      <path d="M 56.09 165.82558 
L 709.2 165.82558 
" clip-path="url(#p44b4e51edb)" style="fill: none; stroke: #b0b0b0; stroke-opacity: 0.3; stroke-width: 0.8; stroke-linecap: square"/>
     </g>
     <g id="line2d_16">
      <g>
       <use xlink:href="#m280ca8aa61" x="56.09" y="165.82558" style="stroke: #000000; stroke-width: 0.8"/>
      </g>
     </g>
     <g id="text_9">
      <!-- −0.5 -->
      <g transform="translate(24.807188 169.624799) scale(0.1 -0.1)">
       <use xlink:href="#DejaVuSans-2212"/>
       <use xlink:href="#DejaVuSans-30" transform="translate(83.789062 0)"/>
       <use xlink:href="#DejaVuSans-2e" transform="translate(147.412109 0)"/>
       <use xlink:href="#DejaVuSans-35" transform="translate(179.199219 0)"/>
      </g>
     </g>
    </g>
    <g id="ytick_4">
     <g id="line2d_17">
      <path d="M 56.09 138.308418 
L 709.2 138.308418 
" clip-path="url(#p44b4e51edb)" style="fill: none; stroke: #b0b0b0; stroke-opacity: 0.3; stroke-width: 0.8; stroke-linecap: square"/>
     </g>
     <g id="line2d_18">
      <g>
       <use xlink:href="#m280ca8aa61" x="56.09" y="138.308418" style="stroke: #000000; stroke-width: 0.8"/>
      </g>
     </g>
     <g id="text_10">
      <!-- 0.0 -->
      <g transform="translate(33.186875 142.107637) scale(0.1 -0.1)">
       <use xlink:href="#DejaVuSans-30"/>
       <use xlink:href="#DejaVuSans-2e" transform="translate(63.623047 0)"/>
       <use xlink:href="#DejaVuSans-30" transform="translate(95.410156 0)"/>
      </g>
     </g>
    </g>
    <g id="ytick_5">
     <g id="line2d_19">
      <path d="M 56.09 110.791257 
L 709.2 110.791257 
" clip-path="url(#p44b4e51edb)" style="fill: none; stroke: #b0b0b0; stroke-opacity: 0.3; stroke-width: 0.8; stroke-linecap: square"/>
     </g>
     <g id="line2d_20">
      <g>
       <use xlink:href="#m280ca8aa61" x="56.09" y="110.791257" style="stroke: #000000; stroke-width: 0.8"/>
      </g>
     </g>
     <g id="text_11">
      <!-- 0.5 -->
      <g transform="translate(33.186875 114.590475) scale(0.1 -0.1)">
       <use xlink:href="#DejaVuSans-30"/>
       <use xlink:href="#DejaVuSans-2e" transform="translate(63.623047 0)"/>
       <use xlink:href="#DejaVuSans-35" transform="translate(95.410156 0)"/>
      </g>
     </g>
    </g>
    <g id="ytick_6">
     <g id="line2d_21">
      <path d="M 56.09 83.274095 
L 709.2 83.274095 
" clip-path="url(#p44b4e51edb)" style="fill: none; stroke: #b0b0b0; stroke-opacity: 0.3; stroke-width: 0.8; stroke-linecap: square"/>
     </g>
     <g id="line2d_22">
      <g>
       <use xlink:href="#m280ca8aa61" x="56.09" y="83.274095" style="stroke: #000000; stroke-width: 0.8"/>
      </g>
     </g>
     <g id="text_12">
      <!-- 1.0 -->
      <g transform="translate(33.186875 87.073314) scale(0.1 -0.1)">
       <use xlink:href="#DejaVuSans-31"/>
       <use xlink:href="#DejaVuSans-2e" transform="translate(63.623047 0)"/>
       <use xlink:href="#DejaVuSans-30" transform="translate(95.410156 0)"/>
      </g>
     </g>
    </g>
    <g id="ytick_7">
     <g id="line2d_23">
      <path d="M 56.09 55.756933 
L 709.2 55.756933 
" clip-path="url(#p44b4e51edb)" style="fill: none; stroke: #b0b0b0; stroke-opacity: 0.3; stroke-width: 0.8; stroke-linecap: square"/>
     </g>
     <g id="line2d_24">
      <g>
       <use xlink:href="#m280ca8aa61" x="56.09" y="55.756933" style="stroke: #000000; stroke-width: 0.8"/>
      </g>
     </g>
     <g id="text_13">
      <!-- 1.5 -->
      <g transform="translate(33.186875 59.556152) scale(0.1 -0.1)">
       <use xlink:href="#DejaVuSans-31"/>
       <use xlink:href="#DejaVuSans-2e" transform="translate(63.623047 0)"/>
       <use xlink:href="#DejaVuSans-35" transform="translate(95.410156 0)"/>
      </g>
     </g>
    </g>
    <g id="ytick_8">
     <g id="line2d_25">
      <path d="M 56.09 28.239771 
L 709.2 28.239771 
" clip-path="url(#p44b4e51edb)" style="fill: none; stroke: #b0b0b0; stroke-opacity: 0.3; stroke-width: 0.8; stroke-linecap: square"/>
     </g>
     <g id="line2d_26">
      <g>
       <use xlink:href="#m280ca8aa61" x="56.09" y="28.239771" style="stroke: #000000; stroke-width: 0.8"/>
      </g>
     </g>
     <g id="text_14">
      <!-- 2.0 -->
      <g transform="translate(33.186875 32.03899) scale(0.1 -0.1)">
       <use xlink:href="#DejaVuSans-32"/>
       <use xlink:href="#DejaVuSans-2e" transform="translate(63.623047 0)"/>
       <use xlink:href="#DejaVuSans-30" transform="translate(95.410156 0)"/>
      </g>
     </g>
    </g>
    <g id="text_15">
     <!-- tie-rod force [kN] -->
     <g transform="translate(18.7275 179.170156) rotate(-90) scale(0.1 -0.1)">
      <defs>
       <path id="DejaVuSans-2d" d="M 313 2009 
L 1997 2009 
L 1997 1497 
L 313 1497 
L 313 2009 
z
" transform="scale(0.015625)"/>
       <path id="DejaVuSans-72" d="M 2631 2963 
Q 2534 3019 2420 3045 
Q 2306 3072 2169 3072 
Q 1681 3072 1420 2755 
Q 1159 2438 1159 1844 
L 1159 0 
L 581 0 
L 581 3500 
L 1159 3500 
L 1159 2956 
Q 1341 3275 1631 3429 
Q 1922 3584 2338 3584 
Q 2397 3584 2469 3576 
Q 2541 3569 2628 3553 
L 2631 2963 
z
" transform="scale(0.015625)"/>
       <path id="DejaVuSans-6f" d="M 1959 3097 
Q 1497 3097 1228 2736 
Q 959 2375 959 1747 
Q 959 1119 1226 758 
Q 1494 397 1959 397 
Q 2419 397 2687 759 
Q 2956 1122 2956 1747 
Q 2956 2369 2687 2733 
Q 2419 3097 1959 3097 
z
M 1959 3584 
Q 2709 3584 3137 3096 
Q 3566 2609 3566 1747 
Q 3566 888 3137 398 
Q 2709 -91 1959 -91 
Q 1206 -91 779 398 
Q 353 888 353 1747 
Q 353 2609 779 3096 
Q 1206 3584 1959 3584 
z
" transform="scale(0.015625)"/>
       <path id="DejaVuSans-66" d="M 2375 4863 
L 2375 4384 
L 1825 4384 
Q 1516 4384 1395 4259 
Q 1275 4134 1275 3809 
L 1275 3500 
L 2222 3500 
L 2222 3053 
L 1275 3053 
L 1275 0 
L 697 0 
L 697 3053 
L 147 3053 
L 147 3500 
L 697 3500 
L 697 3744 
Q 697 4328 969 4595 
Q 1241 4863 1831 4863 
L 2375 4863 
z
" transform="scale(0.015625)"/>
       <path id="DejaVuSans-4e" d="M 628 4666 
L 1478 4666 
L 3547 763 
L 3547 4666 
L 4159 4666 
L 4159 0 
L 3309 0 
L 1241 3903 
L 1241 0 
L 628 0 
L 628 4666 
z
" transform="scale(0.015625)"/>
      </defs>
      <use xlink:href="#DejaVuSans-74"/>
      <use xlink:href="#DejaVuSans-69" transform="translate(39.208984 0)"/>
      <use xlink:href="#DejaVuSans-65" transform="translate(66.992188 0)"/>
      <use xlink:href="#DejaVuSans-2d" transform="translate(128.515625 0)"/>
      <use xlink:href="#DejaVuSans-72" transform="translate(164.599609 0)"/>
      <use xlink:href="#DejaVuSans-6f" transform="translate(203.462891 0)"/>
      <use xlink:href="#DejaVuSans-64" transform="translate(264.644531 0)"/>
      <use xlink:href="#DejaVuSans-20" transform="translate(328.121094 0)"/>
      <use xlink:href="#DejaVuSans-66" transform="translate(359.908203 0)"/>
      <use xlink:href="#DejaVuSans-6f" transform="translate(395.113281 0)"/>
      <use xlink:href="#DejaVuSans-72" transform="translate(456.294922 0)"/>
      <use xlink:href="#DejaVuSans-63" transform="translate(495.158203 0)"/>
      <use xlink:href="#DejaVuSans-65" transform="translate(550.138672 0)"/>
      <use xlink:href="#DejaVuSans-20" transform="translate(611.662109 0)"/>
      <use xlink:href="#DejaVuSans-5b" transform="translate(643.449219 0)"/>
      <use xlink:href="#DejaVuSans-6b" transform="translate(682.462891 0)"/>
      <use xlink:href="#DejaVuSans-4e" transform="translate(740.373047 0)"/>
      <use xlink:href="#DejaVuSans-5d" transform="translate(815.177734 0)"/>
     </g>
    </g>
   </g>
   <g id="line2d_27">
    <path d="M 85.776818 138.308418 
L 86.244247 146.671741 
L 86.713344 149.080714 
L 87.184104 143.836961 
L 87.656525 136.396489 
L 88.130603 132.840718 
L 88.606333 134.017717 
L 89.08371 137.186544 
L 89.562729 138.682902 
L 90.043387 136.734892 
L 91.009592 128.68931 
L 91.495126 126.553944 
L 91.982271 126.058491 
L 92.471019 126.241363 
L 92.961362 126.090602 
L 93.453293 125.171479 
L 94.441883 122.498218 
L 94.938521 121.76321 
L 95.436612 121.617209 
L 97.436075 122.393364 
L 97.935969 122.551687 
L 98.435283 122.958395 
L 98.933755 123.711009 
L 99.927224 126.069227 
L 100.914624 129.024193 
L 101.894425 132.604341 
L 102.865296 137.116176 
L 107.096319 158.969703 
L 108.891713 167.094312 
L 111.051498 175.699558 
L 111.887281 178.578905 
L 113.109084 181.941943 
L 113.901413 185.273909 
L 114.675502 189.302167 
L 115.05574 190.474737 
L 115.431499 190.642691 
L 116.169794 189.873044 
L 116.532442 190.36857 
L 116.890822 191.780976 
L 117.940861 196.778494 
L 118.282804 197.361952 
L 118.620948 197.119242 
L 119.286637 195.839756 
L 119.614615 196.257059 
L 119.939629 198.208207 
L 120.898679 206.28664 
L 121.213618 206.896357 
L 121.526506 206.289776 
L 121.837558 205.299814 
L 122.147038 205.063088 
L 122.455259 206.705564 
L 123.06913 215.162563 
L 123.68144 223.13319 
L 124.294152 227.24202 
L 124.908396 229.255537 
L 125.831857 231.880376 
L 126.445875 233.481957 
L 127.05582 234.178049 
L 127.660124 234.306137 
L 128.257817 234.075924 
L 129.141946 233.467091 
L 130.013588 232.536667 
L 130.589389 231.626649 
L 131.732589 229.41523 
L 132.301989 228.951568 
L 132.870996 228.976719 
L 134.863711 229.538644 
L 135.719514 229.57623 
L 136.291506 229.428986 
L 137.153254 228.903104 
L 138.021551 227.956083 
L 139.19196 226.6763 
L 140.379306 225.444383 
L 141.889227 223.752532 
L 142.806015 222.761761 
L 143.419231 221.718037 
L 144.339978 219.919327 
L 144.647082 219.603994 
L 145.875979 219.049055 
L 146.490326 217.97377 
L 147.104544 216.936371 
L 147.411644 216.828987 
L 147.71876 217.04487 
L 148.640297 218.109228 
L 148.947569 218.090419 
L 149.870122 217.43586 
L 150.178097 217.68315 
L 150.7951 219.273691 
L 151.4137 220.886042 
L 151.723647 221.296464 
L 152.034052 221.429424 
L 152.656312 221.349607 
L 152.968208 221.542836 
L 153.280631 222.065671 
L 154.221054 224.246996 
L 154.535555 224.602819 
L 154.850569 224.644428 
L 155.798992 224.05506 
L 156.116398 224.180381 
L 157.393006 225.383511 
L 157.713939 225.438738 
L 159.005696 225.235843 
L 160.640726 225.929263 
L 161.631706 225.800661 
L 161.963129 226.006667 
L 163.289579 227.491041 
L 163.620673 227.518859 
L 164.612243 226.945953 
L 164.942216 227.146204 
L 165.930741 228.431495 
L 166.259928 228.434732 
L 166.589053 228.110191 
L 167.247366 227.059743 
L 167.576686 226.81865 
L 167.906199 226.898656 
L 168.56599 227.419739 
L 168.896357 227.500385 
L 169.227112 227.358381 
L 170.555502 226.078189 
L 171.559 226.66788 
L 171.895058 226.613083 
L 172.231979 226.335218 
L 173.589139 224.426531 
L 174.617695 223.861109 
L 174.962658 223.444287 
L 175.655888 221.980378 
L 176.0042 221.237345 
L 176.353663 220.834463 
L 176.704274 220.803907 
L 177.05602 220.927975 
L 177.408892 220.914298 
L 177.762888 220.635115 
L 178.474282 219.388081 
L 179.190311 218.168321 
L 179.550113 217.92864 
L 180.273337 217.749758 
L 180.636774 217.475992 
L 181.367374 216.395848 
L 181.734561 215.80746 
L 182.103006 215.699548 
L 182.4727 216.2179 
L 182.843638 216.972675 
L 183.215817 217.441835 
L 183.589232 217.507841 
L 183.963884 217.25097 
L 184.716951 216.139815 
L 185.475212 215.108403 
L 186.622739 213.758362 
L 187.394765 212.288543 
L 187.782926 211.569343 
L 188.172529 211.340219 
L 188.563578 211.500042 
L 188.956068 211.537952 
L 189.349991 211.150776 
L 189.745359 210.38155 
L 190.540661 207.985104 
L 191.342515 204.174612 
L 192.151378 198.955553 
L 192.967699 191.891417 
L 193.378683 189.807764 
L 193.791435 189.297611 
L 194.20589 189.386203 
L 194.622053 189.020033 
L 195.039927 187.614186 
L 196.729155 178.261436 
L 198.885124 162.008981 
L 200.645562 153.076602 
L 201.985297 145.12642 
L 202.435492 143.684289 
L 203.796828 140.918741 
L 204.713274 138.433837 
L 205.174145 137.517042 
L 206.101147 136.346712 
L 207.035112 135.186435 
L 207.97598 133.839953 
L 209.400087 132.325034 
L 211.322463 130.298063 
L 217.185763 123.973048 
L 220.106183 119.314287 
L 220.590741 117.817066 
L 221.074268 115.58611 
L 222.995602 104.46748 
L 223.472338 102.691571 
L 223.947536 101.76368 
L 224.893066 101.268039 
L 225.363237 100.475648 
L 225.831548 99.425913 
L 226.297883 98.824407 
L 226.762118 98.944047 
L 227.224133 99.573122 
L 229.499887 103.699816 
L 230.838534 105.299703 
L 232.155874 106.446801 
L 233.021264 106.858041 
L 234.299197 107.092713 
L 235.552905 107.305016 
L 236.782477 107.824014 
L 238.386044 108.844943 
L 239.173113 109.275985 
L 240.335163 109.601001 
L 241.474217 109.614433 
L 242.956088 109.515679 
L 243.682467 109.72559 
L 244.756852 110.299451 
L 246.165466 111.392484 
L 248.576536 113.740261 
L 250.2715 115.796279 
L 251.284432 116.915767 
L 251.958533 117.444325 
L 252.631583 117.743231 
L 253.304137 117.823485 
L 253.97732 117.703905 
L 254.652515 117.339388 
L 255.331226 116.607801 
L 256.014833 115.393894 
L 257.750628 111.762431 
L 258.102791 111.338082 
L 258.456707 111.191801 
L 259.890608 111.522925 
L 260.253795 112.064822 
L 260.985995 113.939665 
L 263.230384 120.623991 
L 265.156827 126.731487 
L 265.548191 128.250015 
L 265.941516 130.599419 
L 267.133101 140.203837 
L 267.937112 142.714927 
L 269.563129 150.21615 
L 271.197051 154.410136 
L 272.012252 156.308681 
L 272.418856 156.950652 
L 273.633418 158.162224 
L 275.240468 161.154027 
L 275.640305 161.93234 
L 276.039481 163.221687 
L 276.836211 168.138369 
L 278.823538 180.990429 
L 280.01669 194.149153 
L 280.813041 199.38596 
L 281.60975 204.74363 
L 283.199143 217.991766 
L 283.987191 221.733891 
L 285.924673 229.673752 
L 286.306065 230.573721 
L 286.685563 231.013934 
L 287.063286 231.103003 
L 287.813831 231.07457 
L 288.558455 231.44964 
L 289.297837 231.755841 
L 290.763551 231.738186 
L 292.215576 232.289901 
L 293.295958 232.661528 
L 294.367966 233.700441 
L 295.431553 234.507475 
L 296.838393 235.160975 
L 297.884055 235.57011 
L 298.575645 235.624811 
L 299.262859 235.59702 
L 299.945602 235.82147 
L 300.623459 236.078182 
L 300.960479 236.042366 
L 301.296262 235.834036 
L 301.964378 234.962493 
L 302.628262 234.057304 
L 303.616463 233.084074 
L 304.270478 231.8712 
L 304.921256 230.407163 
L 305.245621 229.978886 
L 305.569388 229.848039 
L 306.215346 229.950428 
L 306.537639 229.812046 
L 306.859554 229.404386 
L 307.823744 227.424038 
L 308.144864 227.210768 
L 308.465944 227.366789 
L 309.108151 227.941983 
L 309.429347 227.955292 
L 309.750655 227.682975 
L 310.715589 226.012657 
L 311.03762 225.841484 
L 311.359833 226.031895 
L 312.004777 226.840234 
L 312.327487 226.988986 
L 312.65037 226.77254 
L 313.620951 225.345512 
L 313.945468 225.408649 
L 314.922638 226.501176 
L 315.249582 226.65807 
L 315.577122 226.669842 
L 316.233805 226.354752 
L 317.221106 225.4668 
L 317.880203 224.549024 
L 318.210172 223.821634 
L 318.871483 221.442982 
L 319.869215 217.421952 
L 320.539815 215.63231 
L 321.555765 213.748284 
L 322.240289 211.589854 
L 323.979254 205.2873 
L 324.332185 203.164907 
L 325.043739 196.742553 
L 326.85926 177.468782 
L 329.115451 145.031894 
L 329.886514 136.894812 
L 330.666289 130.414864 
L 331.454327 125.696876 
L 332.250414 122.720357 
L 333.866565 114.880353 
L 334.686082 111.823442 
L 335.098551 110.6194 
L 335.512707 109.874724 
L 336.345248 109.153016 
L 336.762975 108.376412 
L 338.018599 105.359389 
L 338.855706 103.936914 
L 339.273762 103.423953 
L 339.69124 103.182243 
L 340.107985 103.145342 
L 340.523843 103.263889 
L 341.764785 103.944632 
L 342.175889 103.961679 
L 343.400179 103.578641 
L 345.008286 102.907912 
L 346.194137 102.314962 
L 346.974685 102.302364 
L 347.747402 102.644133 
L 348.512732 103.302151 
L 351.877973 107.163332 
L 353.705185 109.600857 
L 357.664031 115.065255 
L 358.377868 115.675453 
L 359.09131 115.964714 
L 359.804679 115.941647 
L 360.518111 115.708627 
L 361.945169 114.926717 
L 363.014136 114.403114 
L 364.080732 114.177264 
L 365.498459 114.169948 
L 367.26306 114.248126 
L 369.016951 114.016545 
L 370.062541 113.743761 
L 371.101947 113.218618 
L 372.474539 112.242238 
L 375.814116 109.534739 
L 376.789095 109.163349 
L 380.300937 108.545487 
L 380.935754 108.78702 
L 381.572945 109.277289 
L 382.21395 110.049819 
L 383.183952 111.656659 
L 384.484951 113.740638 
L 385.459925 114.906932 
L 386.110083 115.466413 
L 386.761394 115.728513 
L 387.414628 115.602381 
L 388.39995 114.948963 
L 389.060387 114.284018 
L 389.723565 113.332086 
L 390.056436 113.123926 
L 391.06153 113.297357 
L 391.399033 113.245421 
L 391.737831 113.594832 
L 392.077788 114.871465 
L 392.418614 117.491716 
L 393.443153 127.633485 
L 394.12509 130.941006 
L 394.465013 134.445147 
L 395.47826 150.219147 
L 396.146931 155.078154 
L 396.809202 159.498206 
L 397.464379 164.506561 
L 397.789122 166.042978 
L 398.751473 168.561933 
L 400.31861 178.094984 
L 400.935403 180.721924 
L 401.242396 182.795133 
L 401.854687 189.338322 
L 402.771545 199.462902 
L 406.15638 228.740962 
L 406.767915 231.590605 
L 407.372755 232.925555 
L 407.969597 233.498028 
L 409.713773 234.623243 
L 410.849757 234.587391 
L 411.414574 234.436203 
L 411.978812 234.041298 
L 412.826114 233.117504 
L 413.675909 232.113349 
L 414.243257 231.770434 
L 414.810079 231.753315 
L 415.657743 231.879777 
L 416.221194 231.747219 
L 416.783674 231.360315 
L 419.596205 228.668136 
L 421.878881 226.77243 
L 422.457006 226.044614 
L 423.038765 224.755876 
L 423.624797 222.644761 
L 424.513671 218.106268 
L 425.11408 214.243196 
L 425.721694 208.75857 
L 426.961173 194.669837 
L 427.913816 187.135662 
L 429.548593 169.97401 
L 430.558584 164.307848 
L 431.939412 154.358248 
L 432.290655 152.748493 
L 432.644263 151.842782 
L 433.358402 151.266031 
L 433.718834 150.663121 
L 434.446187 149.109051 
L 434.813077 148.856652 
L 435.182124 148.979701 
L 435.553318 149.24879 
L 435.926675 149.343143 
L 436.302249 148.932628 
L 436.680113 147.831766 
L 437.44283 144.947566 
L 437.827679 144.266161 
L 438.214834 144.183554 
L 438.604292 143.961353 
L 438.996037 143.163043 
L 439.786254 140.987415 
L 440.184639 140.574875 
L 440.585159 140.694382 
L 440.987789 140.973662 
L 441.392517 141.011531 
L 442.20821 140.477658 
L 442.619143 140.464428 
L 443.032118 140.732106 
L 444.283175 141.807616 
L 445.127223 142.262894 
L 445.97893 143.096823 
L 448.125787 145.863674 
L 448.984833 147.335195 
L 450.267457 150.004285 
L 451.958384 154.442766 
L 453.206744 158.331848 
L 454.434018 163.578923 
L 461.196393 194.557067 
L 461.537134 195.483326 
L 461.87415 195.95028 
L 462.537235 196.251167 
L 463.505357 196.293514 
L 463.82116 196.59078 
L 465.051347 199.072726 
L 465.942982 199.55129 
L 466.235341 200.359933 
L 466.814424 203.561797 
L 468.526062 216.694722 
L 469.950628 229.303586 
L 470.522904 231.996434 
L 471.09409 233.610544 
L 471.944996 235.305343 
L 472.5063 235.850248 
L 473.061729 235.855288 
L 473.611749 235.481338 
L 474.15718 234.819764 
L 474.968866 233.38862 
L 476.313345 230.706249 
L 477.386451 229.706126 
L 478.45835 228.803145 
L 480.070775 227.957396 
L 483.089411 226.921007 
L 483.650188 226.285033 
L 484.215712 225.140339 
L 484.786592 223.482797 
L 485.363437 221.138188 
L 486.536747 215.799496 
L 487.434322 213.005636 
L 488.654832 209.784669 
L 489.27579 206.59322 
L 490.221312 201.681691 
L 491.184456 197.040333 
L 491.836494 194.046675 
L 492.165398 193.302395 
L 492.828948 192.5834 
L 493.163666 191.813349 
L 493.839098 189.377492 
L 494.522755 186.586994 
L 495.215124 182.512391 
L 495.9164 178.578155 
L 496.984763 176.203398 
L 497.70794 172.890202 
L 498.439815 169.738504 
L 499.180558 167.561371 
L 500.689483 160.990643 
L 501.072361 160.096314 
L 501.457392 159.839937 
L 502.233592 160.824801 
L 502.624699 160.863545 
L 503.412847 159.950844 
L 503.809858 159.940198 
L 504.20882 160.578726 
L 504.609759 161.50723 
L 505.012738 161.824296 
L 505.417818 160.994753 
L 507.059679 154.823992 
L 507.893488 153.183463 
L 508.313522 151.969635 
L 509.585711 147.449544 
L 510.443633 145.561925 
L 512.621763 142.291821 
L 513.063003 141.886198 
L 513.506083 141.637321 
L 513.950986 141.600351 
L 514.846221 141.924231 
L 515.296532 142.354589 
L 516.202526 143.449586 
L 517.115714 144.004513 
L 517.57502 144.01548 
L 518.036142 143.523254 
L 519.430337 141.079475 
L 521.789328 137.642363 
L 523.707266 136.191456 
L 524.190931 136.130353 
L 525.651822 136.64387 
L 526.633917 137.00211 
L 527.127391 137.361011 
L 527.622473 137.957387 
L 528.617433 139.81037 
L 530.121766 142.991065 
L 531.13249 145.402554 
L 531.640174 145.835281 
L 532.149393 145.459593 
L 532.66014 144.668184 
L 533.17241 144.196867 
L 533.686198 144.363215 
L 534.201499 144.762817 
L 534.71831 144.843554 
L 535.236624 144.501478 
L 536.277732 143.571763 
L 536.80051 143.361485 
L 538.377653 143.320843 
L 539.436349 143.604493 
L 542.108131 144.796211 
L 542.646722 145.396604 
L 543.186707 146.752642 
L 544.270837 151.06176 
L 545.360446 155.51431 
L 545.907276 156.965846 
L 546.455443 157.28207 
L 547.555787 154.539043 
L 548.10797 154.117133 
L 549.216388 155.20189 
L 549.772628 155.11032 
L 551.449329 154.023771 
L 553.137658 151.97508 
L 553.702939 151.927177 
L 554.269455 152.335804 
L 555.406174 153.418614 
L 555.976365 153.761176 
L 556.547772 153.725244 
L 557.694211 153.252802 
L 558.269242 153.25511 
L 558.845487 154.575941 
L 559.422961 157.799216 
L 561.162867 170.92908 
L 561.745276 173.830917 
L 562.328807 175.258197 
L 562.913382 174.427203 
L 564.085565 169.523287 
L 564.673199 168.216009 
L 565.261909 167.847957 
L 565.851727 168.345182 
L 566.442667 169.56701 
L 567.627863 172.790057 
L 568.222083 173.84409 
L 568.817357 174.643049 
L 569.413658 175.980865 
L 570.609234 179.355807 
L 571.208484 179.465376 
L 571.808745 177.230332 
L 572.410053 174.181715 
L 573.012455 171.993531 
L 573.616001 171.070312 
L 574.220726 170.84279 
L 574.826601 171.222626 
L 575.433555 172.55931 
L 576.041528 174.291622 
L 576.650494 174.93282 
L 577.260435 174.011386 
L 577.871336 172.297926 
L 578.483196 171.02121 
L 579.096061 170.261879 
L 579.709999 169.038843 
L 580.941268 165.536493 
L 581.55862 164.927357 
L 582.177106 165.077649 
L 582.796709 165.038369 
L 583.417389 164.508357 
L 584.039104 163.697623 
L 585.285523 161.239631 
L 585.910168 160.739492 
L 586.535741 161.687043 
L 587.789689 165.496438 
L 588.41808 166.956342 
L 589.047439 167.705304 
L 589.677788 167.156317 
L 590.941388 163.840172 
L 591.57456 162.923164 
L 592.208572 163.48133 
L 593.478949 166.135433 
L 594.115268 167.953823 
L 596.668607 177.897716 
L 597.309146 179.1992 
L 597.950581 179.652375 
L 598.592894 179.861872 
L 599.236076 181.328486 
L 599.880103 184.290666 
L 600.524943 188.496793 
L 601.816811 198.477861 
L 602.463607 201.887752 
L 603.110826 204.110743 
L 603.758398 205.584724 
L 604.406307 206.349664 
L 605.054605 206.168465 
L 605.703397 205.415943 
L 606.352824 204.422974 
L 607.003046 203.213142 
L 607.654187 201.762185 
L 608.306278 200.615831 
L 608.959245 200.767505 
L 610.922563 205.1141 
L 611.578283 205.473869 
L 612.234661 204.649426 
L 612.891647 202.094379 
L 613.549054 197.213522 
L 614.864079 183.500226 
L 615.521096 178.776461 
L 616.17737 177.067697 
L 616.832577 177.62072 
L 617.486424 178.528171 
L 618.13867 177.821356 
L 618.789112 174.258933 
L 619.437571 167.829664 
L 620.727934 152.42353 
L 621.369551 147.486172 
L 622.008591 145.08163 
L 622.6449 143.621241 
L 623.27833 141.106711 
L 623.908742 136.51985 
L 625.159995 125.709989 
L 625.780593 122.289455 
L 626.397687 120.39564 
L 627.620913 118.358312 
L 628.226831 117.327835 
L 628.828789 115.572395 
L 629.426645 112.688208 
L 630.609558 105.795044 
L 631.194411 103.244773 
L 631.774745 101.36012 
L 632.350528 100.150671 
L 632.921827 99.934071 
L 633.488754 100.861559 
L 634.60974 104.097852 
L 635.16378 104.410076 
L 635.713475 103.519011 
L 636.799542 100.689521 
L 637.335682 99.629398 
L 637.867094 99.125067 
L 638.39372 99.24669 
L 638.91551 99.859131 
L 639.944426 101.473945 
L 640.451508 101.924459 
L 640.953652 101.894624 
L 641.450847 101.447184 
L 643.390632 99.076492 
L 643.863624 98.770229 
L 644.33206 98.89423 
L 644.796114 99.385201 
L 646.163832 101.537442 
L 646.612126 101.701445 
L 647.056863 101.468895 
L 647.936344 100.701511 
L 648.371502 100.152451 
L 650.088091 97.468648 
L 650.512715 97.387401 
L 650.936063 97.543111 
L 651.358365 97.885869 
L 651.779824 98.405722 
L 652.200608 99.140114 
L 653.040566 101.429432 
L 655.131201 108.42294 
L 656.373389 111.570253 
L 657.192786 113.253686 
L 658.005165 114.556346 
L 658.811633 115.53089 
L 659.613814 116.221057 
L 660.413473 116.625388 
L 661.21224 116.759797 
L 662.011881 116.662823 
L 662.814263 116.384654 
L 663.621241 115.898743 
L 664.434185 115.107646 
L 667.325576 111.250863 
L 667.744265 110.94023 
L 668.164441 110.868359 
L 668.586214 111.154484 
L 669.009693 111.991311 
L 669.862007 115.223087 
L 671.154259 121.039821 
L 671.588652 123.753191 
L 672.462793 131.672483 
L 673.343982 139.219447 
L 674.232193 143.998756 
L 675.577678 149.747334 
L 676.029685 150.992243 
L 676.483445 151.777744 
L 676.938955 152.197402 
L 677.855201 152.497879 
L 678.315927 152.491264 
L 678.778381 152.310823 
L 679.513182 151.543611 
L 679.513182 151.543611 
" clip-path="url(#p44b4e51edb)" style="fill: none; stroke: #2ca02c; stroke-width: 0.9; stroke-linecap: square"/>
   </g>
   <g id="line2d_28">
    <path d="M 85.776818 138.308418 
L 86.244247 146.658845 
L 86.713344 149.010682 
L 87.184104 143.789679 
L 87.656525 136.41037 
L 88.130603 132.878893 
L 88.606333 134.035034 
L 89.08371 137.185023 
L 89.562729 138.678993 
L 90.043387 136.735256 
L 91.009592 128.604873 
L 91.495126 126.359343 
L 91.982271 125.767403 
L 92.471019 125.884127 
L 92.961362 125.66257 
L 93.453293 124.627066 
L 94.441883 121.587165 
L 94.938521 120.686439 
L 95.436612 120.451808 
L 96.435685 120.971774 
L 97.935969 121.603955 
L 98.435283 122.114351 
L 98.933755 123.000273 
L 99.927224 125.649098 
L 101.405562 130.601858 
L 102.381053 134.698536 
L 104.302371 144.731332 
L 106.638717 156.562678 
L 108.001171 162.50823 
L 109.331427 167.431775 
L 110.627437 171.350791 
L 111.471467 173.582273 
L 112.298876 174.978547 
L 113.109084 176.254386 
L 113.901413 178.038093 
L 114.675502 179.893327 
L 115.05574 180.219658 
L 115.431499 180.013921 
L 116.169794 179.167383 
L 116.532442 179.228569 
L 117.594956 180.723879 
L 117.940861 180.886076 
L 118.282804 180.725941 
L 119.614615 179.153147 
L 120.261864 179.799807 
L 120.58149 179.838883 
L 120.898679 179.465394 
L 122.147038 176.925165 
L 122.762528 176.065464 
L 123.06913 175.102108 
L 124.294152 169.893056 
L 125.524047 166.300583 
L 127.05582 162.302434 
L 127.660124 161.367433 
L 128.257817 160.898692 
L 128.848792 160.736942 
L 129.433712 160.79153 
L 130.301939 161.163861 
L 131.732589 161.95157 
L 132.301989 162.00134 
L 132.870996 161.827178 
L 133.724572 161.273919 
L 136.291506 159.406378 
L 137.153254 159.101039 
L 138.021551 159.036296 
L 139.487102 159.271296 
L 140.679046 159.611492 
L 141.282009 159.957541 
L 142.194181 160.837531 
L 144.647082 163.788485 
L 146.183172 164.818679 
L 147.411644 165.481147 
L 148.333081 165.62237 
L 149.870122 165.502394 
L 150.486409 165.237222 
L 153.593584 163.106682 
L 155.166121 161.972957 
L 158.358111 160.575529 
L 160.311906 160.148444 
L 160.970367 160.259316 
L 161.631706 160.653965 
L 163.951478 162.374257 
L 164.942216 162.68351 
L 165.601429 162.678676 
L 168.56599 162.11413 
L 169.890084 161.715382 
L 171.223751 161.396647 
L 172.56981 160.962735 
L 173.93095 160.909132 
L 175.308714 160.979176 
L 180.273337 162.16102 
L 181.734561 162.38607 
L 182.4727 162.522066 
L 183.589232 162.426315 
L 185.095418 162.362184 
L 186.622739 162.449285 
L 187.782926 162.787108 
L 188.956068 163.138393 
L 190.142222 163.484627 
L 191.342515 164.060149 
L 192.558588 164.688912 
L 192.967699 164.789539 
L 193.378683 165.058947 
L 194.622053 166.621478 
L 195.039927 166.745188 
L 195.459509 166.571945 
L 196.30403 165.808786 
L 196.729155 165.066793 
L 197.585423 162.359663 
L 199.322378 156.304442 
L 199.761565 155.116538 
L 200.645562 151.56155 
L 201.985297 144.771954 
L 202.435492 143.460658 
L 203.796828 140.863021 
L 204.713274 138.432675 
L 205.174145 137.523608 
L 206.101147 136.353163 
L 207.035112 135.182212 
L 207.97598 133.813276 
L 209.400087 132.249922 
L 211.322463 130.128196 
L 215.229088 125.87686 
L 216.69729 124.180136 
L 217.673744 122.669034 
L 220.106183 118.326435 
L 220.590741 116.63843 
L 221.074268 114.083145 
L 222.03768 106.787057 
L 223.472338 96.02403 
L 223.947536 93.618581 
L 224.893066 90.505477 
L 225.363237 87.525126 
L 227.224133 69.914397 
L 227.683843 67.014991 
L 228.141235 65.040845 
L 229.049232 62.760781 
L 229.499887 61.663912 
L 230.394559 58.603482 
L 230.838534 56.728007 
L 231.280146 54.304782 
L 232.589892 45.610595 
L 233.021264 43.891804 
L 233.449941 42.693803 
L 233.875909 41.892544 
L 234.299197 41.381818 
L 234.71981 41.082993 
L 235.552905 40.916871 
L 236.782477 40.927539 
L 237.187128 40.749565 
L 239.173113 38.997392 
L 240.717449 37.760318 
L 241.848611 37.199522 
L 242.956088 36.871513 
L 243.682467 36.853612 
L 244.756852 37.056904 
L 246.513824 37.664389 
L 247.206343 38.071943 
L 249.256111 39.680368 
L 250.2715 40.177994 
L 250.946996 40.779585 
L 252.295174 42.678404 
L 253.304137 44.302475 
L 253.640567 45.128363 
L 253.97732 46.261614 
L 254.314574 47.846987 
L 254.652515 50.071315 
L 255.331226 56.84052 
L 256.358794 68.972938 
L 257.051421 74.715053 
L 257.750628 80.084555 
L 259.169944 93.318719 
L 260.253795 99.376605 
L 261.726092 109.533213 
L 262.851259 115.759139 
L 264.380114 122.643607 
L 265.548191 127.525125 
L 265.941516 130.144882 
L 266.733973 137.754975 
L 267.133101 140.252131 
L 267.937112 142.764956 
L 269.563129 149.9986 
L 271.197051 153.809137 
L 272.012252 155.523011 
L 272.418856 156.095249 
L 273.633418 157.165054 
L 275.640305 160.371399 
L 276.039481 161.434813 
L 277.631481 168.437143 
L 278.426164 171.092836 
L 279.618774 175.774477 
L 280.01669 176.003805 
L 280.41479 175.460824 
L 281.211386 173.59393 
L 283.199143 168.26017 
L 283.987191 167.194164 
L 284.768252 166.625852 
L 293.295958 162.255925 
L 295.077876 161.752848 
L 296.136524 161.620782 
L 297.18801 161.75779 
L 299.945602 162.463129 
L 301.630872 163.117973 
L 305.569388 164.192932 
L 309.429347 164.20738 
L 310.715589 164.089508 
L 311.359833 164.005033 
L 312.327487 163.58067 
L 314.922638 162.070953 
L 316.233805 161.074977 
L 317.221106 160.550637 
L 318.210172 160.304897 
L 318.871483 160.407405 
L 319.535674 160.7551 
L 322.240289 162.482911 
L 325.402513 164.176747 
L 325.76338 164.206764 
L 326.126412 164.091641 
L 326.491681 163.720655 
L 326.85926 162.855893 
L 327.229214 161.197225 
L 327.976407 155.268973 
L 330.666289 130.588548 
L 331.454327 125.604473 
L 332.250414 122.137461 
L 335.512707 103.251929 
L 336.345248 100.882423 
L 336.762975 99.128997 
L 340.107985 79.742161 
L 340.523843 78.26123 
L 340.938666 77.563305 
L 341.764785 77.557791 
L 342.175889 77.128477 
L 343.804956 73.652469 
L 344.207939 73.46215 
L 344.609066 73.453264 
L 345.008286 73.286706 
L 345.405558 72.673971 
L 348.892778 64.45035 
L 350.023131 62.452052 
L 351.139983 60.799729 
L 351.877973 59.149877 
L 352.611558 56.927828 
L 353.705185 53.245323 
L 355.153118 49.682207 
L 355.87327 48.117531 
L 356.591039 47.08207 
L 357.306759 46.595077 
L 358.021035 46.434573 
L 359.447995 46.536047 
L 360.161379 46.684917 
L 360.874881 47.02013 
L 362.301722 47.90882 
L 363.369954 48.120696 
L 364.080732 48.153196 
L 364.790247 47.963921 
L 366.558283 47.208928 
L 367.614836 46.757966 
L 369.016951 45.956917 
L 370.062541 45.735288 
L 371.101947 45.464831 
L 372.133049 45.164371 
L 373.15379 44.990539 
L 374.162416 44.639514 
L 374.495716 44.656322 
L 374.827514 44.829081 
L 375.157813 45.196449 
L 375.814116 46.486768 
L 377.111916 49.96603 
L 377.75479 52.17512 
L 378.713375 55.717997 
L 379.031666 56.455086 
L 379.349457 56.875699 
L 379.983921 57.062936 
L 381.25397 57.199423 
L 381.572945 56.92083 
L 381.892887 56.050017 
L 383.183952 50.547297 
L 383.508927 50.022669 
L 383.834243 49.823665 
L 384.159647 49.868006 
L 385.459925 50.703083 
L 385.784902 50.996266 
L 386.110083 51.512258 
L 386.43555 52.38623 
L 387.08771 55.413683 
L 388.070735 60.487289 
L 388.729849 63.674528 
L 389.060387 66.39244 
L 389.391594 70.564043 
L 390.725321 92.885076 
L 391.737831 100.825369 
L 392.077788 105.24293 
L 393.101599 123.072891 
L 393.443153 126.542349 
L 394.12509 130.563456 
L 394.465013 134.325436 
L 395.47826 150.326412 
L 395.81335 153.113514 
L 396.809202 158.956405 
L 397.464379 163.282039 
L 397.789122 164.474057 
L 398.432668 165.342386 
L 398.751473 166.178366 
L 400.00839 171.721147 
L 401.242396 174.292858 
L 402.160365 177.484336 
L 402.465938 177.738896 
L 402.771545 177.520126 
L 403.077311 176.961211 
L 403.689851 175.191137 
L 405.540212 168.779704 
L 406.767915 166.13403 
L 407.672224 164.76846 
L 408.849547 163.550281 
L 413.675909 159.246983 
L 414.243257 158.970931 
L 415.093005 158.890321 
L 415.939605 159.054245 
L 416.783674 159.420753 
L 418.750093 160.41083 
L 419.596205 160.370042 
L 420.73207 160.008603 
L 422.747396 159.1636 
L 423.331198 159.171496 
L 423.919667 159.397423 
L 424.513671 159.833041 
L 425.11408 160.467344 
L 425.721694 161.399801 
L 426.961173 163.568287 
L 427.593985 164.319008 
L 427.913816 164.441556 
L 428.235982 164.222443 
L 428.560519 163.593605 
L 429.548593 160.994536 
L 430.219475 159.821325 
L 430.558584 158.845551 
L 431.244139 155.660275 
L 431.939412 152.403726 
L 432.290655 151.213612 
L 432.644263 150.56759 
L 433.358402 150.261405 
L 433.718834 149.792766 
L 434.446187 148.480139 
L 434.813077 148.284563 
L 435.182124 148.427873 
L 435.553318 148.699218 
L 435.926675 148.800916 
L 436.302249 148.426911 
L 436.680113 147.404029 
L 437.44283 144.701539 
L 437.827679 144.065436 
L 438.214834 144.000304 
L 438.604292 143.799295 
L 438.996037 143.039222 
L 439.786254 140.938407 
L 440.184639 140.53987 
L 440.585159 140.662453 
L 440.987789 140.942068 
L 441.392517 140.98287 
L 442.20821 140.459154 
L 442.619143 140.447438 
L 443.032118 140.713629 
L 444.283175 141.77752 
L 445.127223 142.223867 
L 445.97893 143.042155 
L 448.125787 145.758276 
L 448.984833 147.199963 
L 450.267457 149.801345 
L 452.376617 155.222166 
L 453.206744 157.698834 
L 454.434018 162.410015 
L 456.423523 169.95147 
L 457.197349 172.492747 
L 458.332637 175.243716 
L 459.435318 177.700629 
L 460.851883 180.022061 
L 461.196393 180.283647 
L 461.537134 180.295321 
L 462.207497 179.881173 
L 463.505357 178.974766 
L 463.82116 178.913109 
L 464.748552 179.078697 
L 465.351219 178.861782 
L 465.942982 178.55554 
L 467.101749 178.25822 
L 467.673224 177.37343 
L 468.242048 175.855597 
L 469.094502 172.640643 
L 469.950628 169.591086 
L 471.09409 166.350037 
L 473.337367 160.898954 
L 474.15718 159.534455 
L 474.968866 158.665923 
L 475.507296 158.322806 
L 476.044789 158.205603 
L 476.581782 158.382356 
L 479.531816 159.983587 
L 480.070775 159.967174 
L 480.884223 159.701957 
L 483.369244 158.508117 
L 483.932319 158.532163 
L 484.500443 158.730545 
L 485.074232 159.097606 
L 485.946768 159.971665 
L 487.736879 161.932017 
L 492.828948 166.137059 
L 493.500375 166.306429 
L 494.179872 166.173848 
L 494.522755 166.034253 
L 494.867823 165.757836 
L 495.9164 164.496354 
L 496.984763 164.463556 
L 497.345264 164.037013 
L 498.439815 162.158402 
L 499.180558 161.267355 
L 499.930457 159.301672 
L 500.689483 157.417335 
L 501.072361 156.900223 
L 501.457392 156.852541 
L 502.233592 157.866779 
L 502.624699 157.972674 
L 503.412847 157.336222 
L 503.809858 157.359317 
L 504.20882 157.891715 
L 504.609759 158.629594 
L 505.012738 158.851544 
L 505.417818 158.158914 
L 506.645959 154.1636 
L 507.059679 153.188411 
L 507.893488 151.90405 
L 508.313522 150.901195 
L 509.585711 146.966834 
L 510.443633 145.271229 
L 512.621763 142.211878 
L 513.063003 141.82337 
L 513.506083 141.585699 
L 513.950986 141.554506 
L 514.846221 141.880839 
L 515.296532 142.307254 
L 516.202526 143.385229 
L 517.115714 143.92333 
L 517.57502 143.92905 
L 518.036142 143.442226 
L 519.430337 141.042518 
L 521.789328 137.644905 
L 523.707266 136.187337 
L 524.190931 136.12358 
L 525.651822 136.63632 
L 526.633917 136.9964 
L 527.127391 137.35725 
L 527.622473 137.956294 
L 528.617433 139.812947 
L 530.121766 142.973902 
L 531.13249 145.332602 
L 531.640174 145.736469 
L 532.149393 145.348287 
L 532.66014 144.560631 
L 533.17241 144.092168 
L 533.686198 144.249378 
L 534.201499 144.635103 
L 534.71831 144.71171 
L 535.236624 144.379104 
L 536.277732 143.478833 
L 536.80051 143.277471 
L 538.377653 143.247276 
L 539.436349 143.528476 
L 542.108131 144.689119 
L 542.646722 145.271879 
L 543.186707 146.586694 
L 544.270837 150.702339 
L 545.360446 154.767723 
L 545.907276 155.990944 
L 546.455443 156.148223 
L 547.555787 153.495984 
L 548.10797 153.07235 
L 549.216388 153.987754 
L 549.772628 153.899655 
L 551.449329 152.996341 
L 553.137658 151.223264 
L 553.702939 151.202426 
L 554.269455 151.595224 
L 555.406174 152.599784 
L 555.976365 152.908041 
L 556.547772 152.865865 
L 557.694211 152.418076 
L 558.269242 152.414943 
L 558.845487 153.612281 
L 559.422961 156.48487 
L 561.162867 166.833872 
L 561.745276 168.457505 
L 562.328807 168.818595 
L 562.913382 167.660551 
L 564.085565 163.657561 
L 564.673199 162.601262 
L 565.261909 162.264482 
L 565.851727 162.589873 
L 566.442667 163.462282 
L 567.627863 165.789852 
L 568.222083 166.567751 
L 568.817357 167.136397 
L 570.609234 169.44165 
L 571.208484 169.09387 
L 571.808745 167.522688 
L 572.410053 165.582936 
L 573.012455 164.199165 
L 573.616001 163.629821 
L 574.220726 163.545122 
L 574.826601 163.902796 
L 575.433555 164.901858 
L 576.041528 166.14258 
L 576.650494 166.706676 
L 577.260435 166.316933 
L 577.871336 165.397669 
L 578.483196 164.694962 
L 579.096061 164.266 
L 579.709999 163.471764 
L 580.941268 161.087674 
L 581.55862 160.715332 
L 582.177106 160.907535 
L 582.796709 160.969794 
L 583.417389 160.682145 
L 584.039104 160.189627 
L 585.285523 158.514472 
L 585.910168 158.227921 
L 586.535741 159.09679 
L 587.789689 162.2011 
L 588.41808 163.272259 
L 589.047439 163.727628 
L 589.677788 163.177128 
L 590.941388 160.474065 
L 591.57456 159.74407 
L 592.208572 160.18583 
L 593.478949 162.252953 
L 594.115268 163.630073 
L 595.390239 167.422096 
L 596.028979 168.879958 
L 596.668607 169.74372 
L 597.309146 170.065856 
L 597.950581 169.817156 
L 598.592894 169.429196 
L 599.236076 169.673792 
L 601.170547 172.082661 
L 601.816811 171.943562 
L 602.463607 171.19398 
L 604.406307 168.463225 
L 605.703397 167.163785 
L 606.352824 166.741491 
L 607.003046 166.463766 
L 607.654187 166.32759 
L 608.306278 166.352436 
L 609.612994 166.891614 
L 610.922563 167.42745 
L 613.549054 168.327147 
L 614.206632 167.888269 
L 615.521096 165.864911 
L 616.17737 165.963123 
L 617.486424 168.339193 
L 618.13867 168.714236 
L 618.789112 167.316323 
L 619.437571 163.580309 
L 621.369551 147.213532 
L 622.008591 144.962203 
L 622.6449 143.565787 
L 623.27833 141.094317 
L 623.908742 136.514325 
L 625.159995 125.731402 
L 625.780593 122.26637 
L 626.397687 120.298359 
L 627.620913 118.102889 
L 628.226831 116.980195 
L 628.828789 115.074802 
L 629.426645 111.904459 
L 631.194411 100.561962 
L 631.774745 97.869365 
L 632.350528 95.879499 
L 632.921827 95.152111 
L 633.488754 96.068581 
L 634.60974 100.140971 
L 635.16378 100.480954 
L 635.713475 99.181073 
L 637.335682 93.22723 
L 637.867094 92.388265 
L 638.39372 92.584677 
L 638.91551 93.603672 
L 639.944426 96.252004 
L 640.451508 97.012463 
L 640.953652 97.050559 
L 641.450847 96.449412 
L 642.912946 93.642997 
L 643.390632 92.659273 
L 643.863624 92.000101 
L 644.33206 91.9688 
L 644.796114 92.497636 
L 646.163832 95.162161 
L 646.612126 95.19312 
L 647.056863 94.577048 
L 647.936344 92.730496 
L 648.371502 91.436214 
L 649.233991 87.498047 
L 650.512715 80.884504 
L 651.358365 76.820514 
L 652.200608 71.535266 
L 654.714517 53.381516 
L 655.546764 48.898793 
L 656.373389 46.016385 
L 656.78401 45.223303 
L 657.192786 44.755545 
L 657.599798 44.509759 
L 658.409045 44.383637 
L 659.213147 44.530623 
L 660.013855 44.980215 
L 660.812863 45.756714 
L 661.611835 46.947819 
L 662.412612 48.734986 
L 662.814263 50.018583 
L 663.21707 51.806818 
L 664.026927 57.364509 
L 665.253261 67.34126 
L 666.077995 71.345568 
L 666.908316 75.449159 
L 667.744265 81.870874 
L 668.586214 90.172363 
L 670.290915 109.997416 
L 671.588652 121.346608 
L 673.343982 139.247189 
L 674.232193 144.10307 
L 675.127426 148.023417 
L 675.577678 149.602533 
L 676.029685 150.706164 
L 676.483445 151.356702 
L 676.938955 151.663148 
L 677.855201 151.807605 
L 678.315927 151.75511 
L 678.778381 151.556028 
L 679.513182 150.824769 
L 679.513182 150.824769 
" clip-path="url(#p44b4e51edb)" style="fill: none; stroke: #d62728; stroke-opacity: 0.8; stroke-width: 0.9; stroke-linecap: square"/>
   </g>
   <g id="patch_3">
    <path d="M 56.09 246.04 
L 56.09 26.88 
" style="fill: none; stroke: #000000; stroke-width: 0.8; stroke-linejoin: miter; stroke-linecap: square"/>
   </g>
   <g id="patch_4">
    <path d="M 709.2 246.04 
L 709.2 26.88 
" style="fill: none; stroke: #000000; stroke-width: 0.8; stroke-linejoin: miter; stroke-linecap: square"/>
   </g>
   <g id="patch_5">
    <path d="M 56.09 246.04 
L 709.2 246.04 
" style="fill: none; stroke: #000000; stroke-width: 0.8; stroke-linejoin: miter; stroke-linecap: square"/>
   </g>
   <g id="patch_6">
    <path d="M 56.09 26.88 
L 709.2 26.88 
" style="fill: none; stroke: #000000; stroke-width: 0.8; stroke-linejoin: miter; stroke-linecap: square"/>
   </g>
   <g id="text_16">
    <!-- steering-link loads over one Kinnekulle Ring lap -->
    <g transform="translate(239.711875 20.88) scale(0.12 -0.12)">
     <defs>
      <path id="DejaVuSans-67" d="M 2906 1791 
Q 2906 2416 2648 2759 
Q 2391 3103 1925 3103 
Q 1463 3103 1205 2759 
Q 947 2416 947 1791 
Q 947 1169 1205 825 
Q 1463 481 1925 481 
Q 2391 481 2648 825 
Q 2906 1169 2906 1791 
z
M 3481 434 
Q 3481 -459 3084 -895 
Q 2688 -1331 1869 -1331 
Q 1566 -1331 1297 -1286 
Q 1028 -1241 775 -1147 
L 775 -588 
Q 1028 -725 1275 -790 
Q 1522 -856 1778 -856 
Q 2344 -856 2625 -561 
Q 2906 -266 2906 331 
L 2906 616 
Q 2728 306 2450 153 
Q 2172 0 1784 0 
Q 1141 0 747 490 
Q 353 981 353 1791 
Q 353 2603 747 3093 
Q 1141 3584 1784 3584 
Q 2172 3584 2450 3431 
Q 2728 3278 2906 2969 
L 2906 3500 
L 3481 3500 
L 3481 434 
z
" transform="scale(0.015625)"/>
      <path id="DejaVuSans-6c" d="M 603 4863 
L 1178 4863 
L 1178 0 
L 603 0 
L 603 4863 
z
" transform="scale(0.015625)"/>
      <path id="DejaVuSans-76" d="M 191 3500 
L 800 3500 
L 1894 563 
L 2988 3500 
L 3597 3500 
L 2284 0 
L 1503 0 
L 191 3500 
z
" transform="scale(0.015625)"/>
      <path id="DejaVuSans-4b" d="M 628 4666 
L 1259 4666 
L 1259 2694 
L 3353 4666 
L 4166 4666 
L 1850 2491 
L 4331 0 
L 3500 0 
L 1259 2247 
L 1259 0 
L 628 0 
L 628 4666 
z
" transform="scale(0.015625)"/>
      <path id="DejaVuSans-75" d="M 544 1381 
L 544 3500 
L 1119 3500 
L 1119 1403 
Q 1119 906 1312 657 
Q 1506 409 1894 409 
Q 2359 409 2629 706 
Q 2900 1003 2900 1516 
L 2900 3500 
L 3475 3500 
L 3475 0 
L 2900 0 
L 2900 538 
Q 2691 219 2414 64 
Q 2138 -91 1772 -91 
Q 1169 -91 856 284 
Q 544 659 544 1381 
z
M 1991 3584 
L 1991 3584 
z
" transform="scale(0.015625)"/>
      <path id="DejaVuSans-52" d="M 2841 2188 
Q 3044 2119 3236 1894 
Q 3428 1669 3622 1275 
L 4263 0 
L 3584 0 
L 2988 1197 
Q 2756 1666 2539 1819 
Q 2322 1972 1947 1972 
L 1259 1972 
L 1259 0 
L 628 0 
L 628 4666 
L 2053 4666 
Q 2853 4666 3247 4331 
Q 3641 3997 3641 3322 
Q 3641 2881 3436 2590 
Q 3231 2300 2841 2188 
z
M 1259 4147 
L 1259 2491 
L 2053 2491 
Q 2509 2491 2742 2702 
Q 2975 2913 2975 3322 
Q 2975 3731 2742 3939 
Q 2509 4147 2053 4147 
L 1259 4147 
z
" transform="scale(0.015625)"/>
      <path id="DejaVuSans-70" d="M 1159 525 
L 1159 -1331 
L 581 -1331 
L 581 3500 
L 1159 3500 
L 1159 2969 
Q 1341 3281 1617 3432 
Q 1894 3584 2278 3584 
Q 2916 3584 3314 3078 
Q 3713 2572 3713 1747 
Q 3713 922 3314 415 
Q 2916 -91 2278 -91 
Q 1894 -91 1617 61 
Q 1341 213 1159 525 
z
M 3116 1747 
Q 3116 2381 2855 2742 
Q 2594 3103 2138 3103 
Q 1681 3103 1420 2742 
Q 1159 2381 1159 1747 
Q 1159 1113 1420 752 
Q 1681 391 2138 391 
Q 2594 391 2855 752 
Q 3116 1113 3116 1747 
z
" transform="scale(0.015625)"/>
     </defs>
     <use xlink:href="#DejaVuSans-73"/>
     <use xlink:href="#DejaVuSans-74" transform="translate(52.099609 0)"/>
     <use xlink:href="#DejaVuSans-65" transform="translate(91.308594 0)"/>
     <use xlink:href="#DejaVuSans-65" transform="translate(152.832031 0)"/>
     <use xlink:href="#DejaVuSans-72" transform="translate(214.355469 0)"/>
     <use xlink:href="#DejaVuSans-69" transform="translate(255.46875 0)"/>
     <use xlink:href="#DejaVuSans-6e" transform="translate(283.251953 0)"/>
     <use xlink:href="#DejaVuSans-67" transform="translate(346.630859 0)"/>
     <use xlink:href="#DejaVuSans-2d" transform="translate(410.107422 0)"/>
     <use xlink:href="#DejaVuSans-6c" transform="translate(446.191406 0)"/>
     <use xlink:href="#DejaVuSans-69" transform="translate(473.974609 0)"/>
     <use xlink:href="#DejaVuSans-6e" transform="translate(501.757812 0)"/>
     <use xlink:href="#DejaVuSans-6b" transform="translate(565.136719 0)"/>
     <use xlink:href="#DejaVuSans-20" transform="translate(623.046875 0)"/>
     <use xlink:href="#DejaVuSans-6c" transform="translate(654.833984 0)"/>
     <use xlink:href="#DejaVuSans-6f" transform="translate(682.617188 0)"/>
     <use xlink:href="#DejaVuSans-61" transform="translate(743.798828 0)"/>
     <use xlink:href="#DejaVuSans-64" transform="translate(805.078125 0)"/>
     <use xlink:href="#DejaVuSans-73" transform="translate(868.554688 0)"/>
     <use xlink:href="#DejaVuSans-20" transform="translate(920.654297 0)"/>
     <use xlink:href="#DejaVuSans-6f" transform="translate(952.441406 0)"/>
     <use xlink:href="#DejaVuSans-76" transform="translate(1013.623047 0)"/>
     <use xlink:href="#DejaVuSans-65" transform="translate(1072.802734 0)"/>
     <use xlink:href="#DejaVuSans-72" transform="translate(1134.326172 0)"/>
     <use xlink:href="#DejaVuSans-20" transform="translate(1175.439453 0)"/>
     <use xlink:href="#DejaVuSans-6f" transform="translate(1207.226562 0)"/>
     <use xlink:href="#DejaVuSans-6e" transform="translate(1268.408203 0)"/>
     <use xlink:href="#DejaVuSans-65" transform="translate(1331.787109 0)"/>
     <use xlink:href="#DejaVuSans-20" transform="translate(1393.310547 0)"/>
     <use xlink:href="#DejaVuSans-4b" transform="translate(1425.097656 0)"/>
     <use xlink:href="#DejaVuSans-69" transform="translate(1490.673828 0)"/>
     <use xlink:href="#DejaVuSans-6e" transform="translate(1518.457031 0)"/>
     <use xlink:href="#DejaVuSans-6e" transform="translate(1581.835938 0)"/>
     <use xlink:href="#DejaVuSans-65" transform="translate(1645.214844 0)"/>
     <use xlink:href="#DejaVuSans-6b" transform="translate(1706.738281 0)"/>
     <use xlink:href="#DejaVuSans-75" transform="translate(1761.523438 0)"/>
     <use xlink:href="#DejaVuSans-6c" transform="translate(1824.902344 0)"/>
     <use xlink:href="#DejaVuSans-6c" transform="translate(1852.685547 0)"/>
     <use xlink:href="#DejaVuSans-65" transform="translate(1880.46875 0)"/>
     <use xlink:href="#DejaVuSans-20" transform="translate(1941.992188 0)"/>
     <use xlink:href="#DejaVuSans-52" transform="translate(1973.779297 0)"/>
     <use xlink:href="#DejaVuSans-69" transform="translate(2043.261719 0)"/>
     <use xlink:href="#DejaVuSans-6e" transform="translate(2071.044922 0)"/>
     <use xlink:href="#DejaVuSans-67" transform="translate(2134.423828 0)"/>
     <use xlink:href="#DejaVuSans-20" transform="translate(2197.900391 0)"/>
     <use xlink:href="#DejaVuSans-6c" transform="translate(2229.6875 0)"/>
     <use xlink:href="#DejaVuSans-61" transform="translate(2257.470703 0)"/>
     <use xlink:href="#DejaVuSans-70" transform="translate(2318.75 0)"/>
    </g>
   </g>
   <g id="legend_1">
    <g id="patch_7">
     <path d="M 61.69 56.765 
L 134.535 56.765 
Q 136.135 56.765 136.135 55.165 
L 136.135 32.48 
Q 136.135 30.88 134.535 30.88 
L 61.69 30.88 
Q 60.09 30.88 60.09 32.48 
L 60.09 55.165 
Q 60.09 56.765 61.69 56.765 
z
" style="fill: #ffffff; opacity: 0.8; stroke: #cccccc; stroke-linejoin: miter"/>
    </g>
    <g id="line2d_29">
     <path d="M 63.29 37.35875 
L 71.29 37.35875 
L 79.29 37.35875 
" style="fill: none; stroke: #2ca02c; stroke-width: 0.9; stroke-linecap: square"/>
    </g>
    <g id="text_17">
     <!-- tie rod left -->
     <g transform="translate(85.69 40.15875) scale(0.08 -0.08)">
      <use xlink:href="#DejaVuSans-74"/>
      <use xlink:href="#DejaVuSans-69" transform="translate(39.208984 0)"/>
      <use xlink:href="#DejaVuSans-65" transform="translate(66.992188 0)"/>
      <use xlink:href="#DejaVuSans-20" transform="translate(128.515625 0)"/>
      <use xlink:href="#DejaVuSans-72" transform="translate(160.302734 0)"/>
      <use xlink:href="#DejaVuSans-6f" transform="translate(199.166016 0)"/>
      <use xlink:href="#DejaVuSans-64" transform="translate(260.347656 0)"/>
      <use xlink:href="#DejaVuSans-20" transform="translate(323.824219 0)"/>
      <use xlink:href="#DejaVuSans-6c" transform="translate(355.611328 0)"/>
      <use xlink:href="#DejaVuSans-65" transform="translate(383.394531 0)"/>
      <use xlink:href="#DejaVuSans-66" transform="translate(444.917969 0)"/>
      <use xlink:href="#DejaVuSans-74" transform="translate(478.373047 0)"/>
     </g>
    </g>
    <g id="line2d_30">
     <path d="M 63.29 49.10125 
L 71.29 49.10125 
L 79.29 49.10125 
" style="fill: none; stroke: #d62728; stroke-opacity: 0.8; stroke-width: 0.9; stroke-linecap: square"/>
    </g>
    <g id="text_18">
     <!-- tie rod right -->
     <g transform="translate(85.69 51.90125) scale(0.08 -0.08)">
      <defs>
       <path id="DejaVuSans-68" d="M 3513 2113 
L 3513 0 
L 2938 0 
L 2938 2094 
Q 2938 2591 2744 2837 
Q 2550 3084 2163 3084 
Q 1697 3084 1428 2787 
Q 1159 2491 1159 1978 
L 1159 0 
L 581 0 
L 581 4863 
L 1159 4863 
L 1159 2956 
Q 1366 3272 1645 3428 
Q 1925 3584 2291 3584 
Q 2894 3584 3203 3211 
Q 3513 2838 3513 2113 
z
" transform="scale(0.015625)"/>
      </defs>
      <use xlink:href="#DejaVuSans-74"/>
      <use xlink:href="#DejaVuSans-69" transform="translate(39.208984 0)"/>
      <use xlink:href="#DejaVuSans-65" transform="translate(66.992188 0)"/>
      <use xlink:href="#DejaVuSans-20" transform="translate(128.515625 0)"/>
      <use xlink:href="#DejaVuSans-72" transform="translate(160.302734 0)"/>
      <use xlink:href="#DejaVuSans-6f" transform="translate(199.166016 0)"/>
      <use xlink:href="#DejaVuSans-64" transform="translate(260.347656 0)"/>
      <use xlink:href="#DejaVuSans-20" transform="translate(323.824219 0)"/>
      <use xlink:href="#DejaVuSans-72" transform="translate(355.611328 0)"/>
      <use xlink:href="#DejaVuSans-69" transform="translate(396.724609 0)"/>
      <use xlink:href="#DejaVuSans-67" transform="translate(424.507812 0)"/>
      <use xlink:href="#DejaVuSans-68" transform="translate(487.984375 0)"/>
      <use xlink:href="#DejaVuSans-74" transform="translate(551.363281 0)"/>
     </g>
    </g>
   </g>
  </g>
 </g>
 <defs>
  <clipPath id="p44b4e51edb">
   <rect x="56.09" y="26.88" width="653.11" height="219.16"/>
  </clipPath>
 </defs>
</svg>
