<?xml version="1.0" encoding="utf-8" standalone="no"?>
<!DOCTYPE svg PUBLIC "-//W3C//DTD SVG 1.1//EN"
  "http://www.w3.org/Graphics/SVG/1.1/DTD/svg11.dtd">
<svg xmlns:xlink="http://www.w3.org/1999/xlink" width="720pt" height="288pt" viewBox="0 0 720 288" xmlns="http://www.w3.org/2000/svg" version="1.1">
 <metadata>
  <rdf:RDF xmlns:dc="http://purl.org/dc/elements/1.1/" xmlns:cc="http://creativecommons.org/ns#" xmlns:rdf="http://www.w3.org/1999/02/22-rdf-syntax-ns#">
   <cc:Work>
    <dc:type rdf:resource="http://purl.org/dc/dcmitype/StillImage"/>
    <dc:date>2026-07-07T18:39:10.819451</dc:date>
    <dc:format>image/svg+xml</dc:format>
    <dc:creator>
     <cc:Agent>
      <dc:title>Matplotlib v3.10.8, https://matplotlib.org/</dc:title>
     </cc:Agent>
    </dc:creator>
   </cc:Work>
  </rdf:RDF>
 </metadata>
 <defs>
  <style type="text/css">*{stroke-linejoin: round; stroke-linecap: butt}</style>
 </defs>
 <g id="figure_1">
  <g id="patch_1">
   <path d="M 0 288 
L 720 288 
L 720 0 
L 0 0 
z
" style="fill: #ffffff"/>
  </g>
  <g id="axes_1">
   <g id="patch_2">
    <path d="M 56.09 246.04 
L 709.2 246.04 
L 709.2 26.88 
L 56.09 26.88 
z
" style="fill: #ffffff"/>
   </g>
   <g id="matplotlib.axis_1">
    <g id="xtick_1">
     <g id="line2d_1">
      <path d="M 85.776818 246.04 
L 85.776818 26.88 
" clip-path="url(#pf11f3fe47e)" style="fill: none; stroke: #b0b0b0; stroke-opacity: 0.3; stroke-width: 0.8; stroke-linecap: square"/>
     </g>
     <g id="line2d_2">
      <defs>
       <path id="m91f1357dc3" d="M 0 0 
L 0 3.5 
" style="stroke: #000000; stroke-width: 0.8"/>
      </defs>
      <g>
       <use xlink:href="#m91f1357dc3" x="85.776818" y="246.04" style="stroke: #000000; stroke-width: 0.8"/>
      </g>
     </g>
     <g id="text_1">
      <!-- 0.0 -->
      <g transform="translate(77.825256 260.638438) scale(0.1 -0.1)">
       <defs>
        <path id="DejaVuSans-30" d="M 2034 4250 
Q 1547 4250 1301 3770 
Q 1056 3291 1056 2328 
Q 1056 1369 1301 889 
Q 1547 409 2034 409 
Q 2525 409 2770 889 
Q 3016 1369 3016 2328 
Q 3016 3291 2770 3770 
Q 2525 4250 2034 4250 
z
M 2034 4750 
Q 2819 4750 3233 4129 
Q 3647 3509 3647 2328 
Q 3647 1150 3233 529 
Q 2819 -91 2034 -91 
Q 1250 -91 836 529 
Q 422 1150 422 2328 
Q 422 3509 836 4129 
Q 1250 4750 2034 4750 
z
" transform="scale(0.015625)"/>
        <path id="DejaVuSans-2e" d="M 684 794 
L 1344 794 
L 1344 0 
L 684 0 
L 684 794 
z
" transform="scale(0.015625)"/>
       </defs>
       <use xlink:href="#DejaVuSans-30"/>
       <use xlink:href="#DejaVuSans-2e" transform="translate(63.623047 0)"/>
       <use xlink:href="#DejaVuSans-30" transform="translate(95.410156 0)"/>
      </g>
     </g>
    </g>
    <g id="xtick_2">
     <g id="line2d_3">
      <path d="M 230.23822 246.04 
L 230.23822 26.88 
" clip-path="url(#pf11f3fe47e)" style="fill: none; stroke: #b0b0b0; stroke-opacity: 0.3; stroke-width: 0.8; stroke-linecap: square"/>
     </g>
     <g id="line2d_4">
      <g>
       <use xlink:href="#m91f1357dc3" x="230.23822" y="246.04" style="stroke: #000000; stroke-width: 0.8"/>
      </g>
     </g>
     <g id="text_2">
      <!-- 0.5 -->
      <g transform="translate(222.286658 260.638438) scale(0.1 -0.1)">
       <defs>
        <path id="DejaVuSans-35" d="M 691 4666 
L 3169 4666 
L 3169 4134 
L 1269 4134 
L 1269 2991 
Q 1406 3038 1543 3061 
Q 1681 3084 1819 3084 
Q 2600 3084 3056 2656 
Q 3513 2228 3513 1497 
Q 3513 744 3044 326 
Q 2575 -91 1722 -91 
Q 1428 -91 1123 -41 
Q 819 9 494 109 
L 494 744 
Q 775 591 1075 516 
Q 1375 441 1709 441 
Q 2250 441 2565 725 
Q 2881 1009 2881 1497 
Q 2881 1984 2565 2268 
Q 2250 2553 1709 2553 
Q 1456 2553 1204 2497 
Q 953 2441 691 2322 
L 691 4666 
z
" transform="scale(0.015625)"/>
       </defs>
       <use xlink:href="#DejaVuSans-30"/>
       <use xlink:href="#DejaVuSans-2e" transform="translate(63.623047 0)"/>
       <use xlink:href="#DejaVuSans-35" transform="translate(95.410156 0)"/>
      </g>
     </g>
    </g>
    <g id="xtick_3">
     <g id="line2d_5">
      <path d="M 374.699623 246.04 
L 374.699623 26.88 
" clip-path="url(#pf11f3fe47e)" style="fill: none; stroke: #b0b0b0; stroke-opacity: 0.3; stroke-width: 0.8; stroke-linecap: square"/>
     </g>
     <g id="line2d_6">
      <g>
       <use xlink:href="#m91f1357dc3" x="374.699623" y="246.04" style="stroke: #000000; stroke-width: 0.8"/>
      </g>
     </g>
     <g id="text_3">
      <!-- 1.0 -->
      <g transform="translate(366.74806 260.638438) scale(0.1 -0.1)">
       <defs>
        <path id="DejaVuSans-31" d="M 794 531 
L 1825 531 
L 1825 4091 
L 703 3866 
L 703 4441 
L 1819 4666 
L 2450 4666 
L 2450 531 
L 3481 531 
L 3481 0 
L 794 0 
L 794 531 
z
" transform="scale(0.015625)"/>
       </defs>
       <use xlink:href="#DejaVuSans-31"/>
       <use xlink:href="#DejaVuSans-2e" transform="translate(63.623047 0)"/>
       <use xlink:href="#DejaVuSans-30" transform="translate(95.410156 0)"/>
      </g>
     </g>
    </g>
    <g id="xtick_4">
     <g id="line2d_7">
      <path d="M 519.161025 246.04 
L 519.161025 26.88 
" clip-path="url(#pf11f3fe47e)" style="fill: none; stroke: #b0b0b0; stroke-opacity: 0.3; stroke-width: 0.8; stroke-linecap: square"/>
     </g>
     <g id="line2d_8">
      <g>
       <use xlink:href="#m91f1357dc3" x="519.161025" y="246.04" style="stroke: #000000; stroke-width: 0.8"/>
      </g>
     </g>
     <g id="text_4">
      <!-- 1.5 -->
      <g transform="translate(511.209463 260.638438) scale(0.1 -0.1)">
       <use xlink:href="#DejaVuSans-31"/>
       <use xlink:href="#DejaVuSans-2e" transform="translate(63.623047 0)"/>
       <use xlink:href="#DejaVuSans-35" transform="translate(95.410156 0)"/>
      </g>
     </g>
    </g>
    <g id="xtick_5">
     <g id="line2d_9">
      <path d="M 663.622427 246.04 
L 663.622427 26.88 
" clip-path="url(#pf11f3fe47e)" style="fill: none; stroke: #b0b0b0; stroke-opacity: 0.3; stroke-width: 0.8; stroke-linecap: square"/>
     </g>
     <g id="line2d_10">
      <g>
       <use xlink:href="#m91f1357dc3" x="663.622427" y="246.04" style="stroke: #000000; stroke-width: 0.8"/>
      </g>
     </g>
     <g id="text_5">
      <!-- 2.0 -->
      <g transform="translate(655.670865 260.638438) scale(0.1 -0.1)">
       <defs>
        <path id="DejaVuSans-32" d="M 1228 531 
L 3431 531 
L 3431 0 
L 469 0 
L 469 531 
Q 828 903 1448 1529 
Q 2069 2156 2228 2338 
Q 2531 2678 2651 2914 
Q 2772 3150 2772 3378 
Q 2772 3750 2511 3984 
Q 2250 4219 1831 4219 
Q 1534 4219 1204 4116 
Q 875 4013 500 3803 
L 500 4441 
Q 881 4594 1212 4672 
Q 1544 4750 1819 4750 
Q 2544 4750 2975 4387 
Q 3406 4025 3406 3419 
Q 3406 3131 3298 2873 
Q 3191 2616 2906 2266 
Q 2828 2175 2409 1742 
Q 1991 1309 1228 531 
z
" transform="scale(0.015625)"/>
       </defs>
       <use xlink:href="#DejaVuSans-32"/>
       <use xlink:href="#DejaVuSans-2e" transform="translate(63.623047 0)"/>
       <use xlink:href="#DejaVuSans-30" transform="translate(95.410156 0)"/>
      </g>
     </g>
    </g>
    <g id="text_6">
     <!-- distance s [km] -->
     <g transform="translate(344.008281 274.316562) scale(0.1 -0.1)">
      <defs>
       <path id="DejaVuSans-64" d="M 2906 2969 
L 2906 4863 
L 3481 4863 
L 3481 0 
L 2906 0 
L 2906 525 
Q 2725 213 2448 61 
Q 2172 -91 1784 -91 
Q 1150 -91 751 415 
Q 353 922 353 1747 
Q 353 2572 751 3078 
Q 1150 3584 1784 3584 
Q 2172 3584 2448 3432 
Q 2725 3281 2906 2969 
z
M 947 1747 
Q 947 1113 1208 752 
Q 1469 391 1925 391 
Q 2381 391 2643 752 
Q 2906 1113 2906 1747 
Q 2906 2381 2643 2742 
Q 2381 3103 1925 3103 
Q 1469 3103 1208 2742 
Q 947 2381 947 1747 
z
" transform="scale(0.015625)"/>
       <path id="DejaVuSans-69" d="M 603 3500 
L 1178 3500 
L 1178 0 
L 603 0 
L 603 3500 
z
M 603 4863 
L 1178 4863 
L 1178 4134 
L 603 4134 
L 603 4863 
z
" transform="scale(0.015625)"/>
       <path id="DejaVuSans-73" d="M 2834 3397 
L 2834 2853 
Q 2591 2978 2328 3040 
Q 2066 3103 1784 3103 
Q 1356 3103 1142 2972 
Q 928 2841 928 2578 
Q 928 2378 1081 2264 
Q 1234 2150 1697 2047 
L 1894 2003 
Q 2506 1872 2764 1633 
Q 3022 1394 3022 966 
Q 3022 478 2636 193 
Q 2250 -91 1575 -91 
Q 1294 -91 989 -36 
Q 684 19 347 128 
L 347 722 
Q 666 556 975 473 
Q 1284 391 1588 391 
Q 1994 391 2212 530 
Q 2431 669 2431 922 
Q 2431 1156 2273 1281 
Q 2116 1406 1581 1522 
L 1381 1569 
Q 847 1681 609 1914 
Q 372 2147 372 2553 
Q 372 3047 722 3315 
Q 1072 3584 1716 3584 
Q 2034 3584 2315 3537 
Q 2597 3491 2834 3397 
z
" transform="scale(0.015625)"/>
       <path id="DejaVuSans-74" d="M 1172 4494 
L 1172 3500 
L 2356 3500 
L 2356 3053 
L 1172 3053 
L 1172 1153 
Q 1172 725 1289 603 
Q 1406 481 1766 481 
L 2356 481 
L 2356 0 
L 1766 0 
Q 1100 0 847 248 
Q 594 497 594 1153 
L 594 3053 
L 172 3053 
L 172 3500 
L 594 3500 
L 594 4494 
L 1172 4494 
z
" transform="scale(0.015625)"/>
       <path id="DejaVuSans-61" d="M 2194 1759 
Q 1497 1759 1228 1600 
Q 959 1441 959 1056 
Q 959 750 1161 570 
Q 1363 391 1709 391 
Q 2188 391 2477 730 
Q 2766 1069 2766 1631 
L 2766 1759 
L 2194 1759 
z
M 3341 1997 
L 3341 0 
L 2766 0 
L 2766 531 
Q 2569 213 2275 61 
Q 1981 -91 1556 -91 
Q 1019 -91 701 211 
Q 384 513 384 1019 
Q 384 1609 779 1909 
Q 1175 2209 1959 2209 
L 2766 2209 
L 2766 2266 
Q 2766 2663 2505 2880 
Q 2244 3097 1772 3097 
Q 1472 3097 1187 3025 
Q 903 2953 641 2809 
L 641 3341 
Q 956 3463 1253 3523 
Q 1550 3584 1831 3584 
Q 2591 3584 2966 3190 
Q 3341 2797 3341 1997 
z
" transform="scale(0.015625)"/>
       <path id="DejaVuSans-6e" d="M 3513 2113 
L 3513 0 
L 2938 0 
L 2938 2094 
Q 2938 2591 2744 2837 
Q 2550 3084 2163 3084 
Q 1697 3084 1428 2787 
Q 1159 2491 1159 1978 
L 1159 0 
L 581 0 
L 581 3500 
L 1159 3500 
L 1159 2956 
Q 1366 3272 1645 3428 
Q 1925 3584 2291 3584 
Q 2894 3584 3203 3211 
Q 3513 2838 3513 2113 
z
" transform="scale(0.015625)"/>
       <path id="DejaVuSans-63" d="M 3122 3366 
L 3122 2828 
Q 2878 2963 2633 3030 
Q 2388 3097 2138 3097 
Q 1578 3097 1268 2742 
Q 959 2388 959 1747 
Q 959 1106 1268 751 
Q 1578 397 2138 397 
Q 2388 397 2633 464 
Q 2878 531 3122 666 
L 3122 134 
Q 2881 22 2623 -34 
Q 2366 -91 2075 -91 
Q 1284 -91 818 406 
Q 353 903 353 1747 
Q 353 2603 823 3093 
Q 1294 3584 2113 3584 
Q 2378 3584 2631 3529 
Q 2884 3475 3122 3366 
z
" transform="scale(0.015625)"/>
       <path id="DejaVuSans-65" d="M 3597 1894 
L 3597 1613 
L 953 1613 
Q 991 1019 1311 708 
Q 1631 397 2203 397 
Q 2534 397 2845 478 
Q 3156 559 3463 722 
L 3463 178 
Q 3153 47 2828 -22 
Q 2503 -91 2169 -91 
Q 1331 -91 842 396 
Q 353 884 353 1716 
Q 353 2575 817 3079 
Q 1281 3584 2069 3584 
Q 2775 3584 3186 3129 
Q 3597 2675 3597 1894 
z
M 3022 2063 
Q 3016 2534 2758 2815 
Q 2500 3097 2075 3097 
Q 1594 3097 1305 2825 
Q 1016 2553 972 2059 
L 3022 2063 
z
" transform="scale(0.015625)"/>
       <path id="DejaVuSans-20" transform="scale(0.015625)"/>
       <path id="DejaVuSans-5b" d="M 550 4863 
L 1875 4863 
L 1875 4416 
L 1125 4416 
L 1125 -397 
L 1875 -397 
L 1875 -844 
L 550 -844 
L 550 4863 
z
" transform="scale(0.015625)"/>
       <path id="DejaVuSans-6b" d="M 581 4863 
L 1159 4863 
L 1159 1991 
L 2875 3500 
L 3609 3500 
L 1753 1863 
L 3688 0 
L 2938 0 
L 1159 1709 
L 1159 0 
L 581 0 
L 581 4863 
z
" transform="scale(0.015625)"/>
       <path id="DejaVuSans-6d" d="M 3328 2828 
Q 3544 3216 3844 3400 
Q 4144 3584 4550 3584 
Q 5097 3584 5394 3201 
Q 5691 2819 5691 2113 
L 5691 0 
L 5113 0 
L 5113 2094 
Q 5113 2597 4934 2840 
Q 4756 3084 4391 3084 
Q 3944 3084 3684 2787 
Q 3425 2491 3425 1978 
L 3425 0 
L 2847 0 
L 2847 2094 
Q 2847 2600 2669 2842 
Q 2491 3084 2119 3084 
Q 1678 3084 1418 2786 
Q 1159 2488 1159 1978 
L 1159 0 
L 581 0 
L 581 3500 
L 1159 3500 
L 1159 2956 
Q 1356 3278 1631 3431 
Q 1906 3584 2284 3584 
Q 2666 3584 2933 3390 
Q 3200 3197 3328 2828 
z
" transform="scale(0.015625)"/>
       <path id="DejaVuSans-5d" d="M 1947 4863 
L 1947 -844 
L 622 -844 
L 622 -397 
L 1369 -397 
L 1369 4416 
L 622 4416 
L 622 4863 
L 1947 4863 
z
" transform="scale(0.015625)"/>
      </defs>
      <use xlink:href="#DejaVuSans-64"/>
      <use xlink:href="#DejaVuSans-69" transform="translate(63.476562 0)"/>
      <use xlink:href="#DejaVuSans-73" transform="translate(91.259766 0)"/>
      <use xlink:href="#DejaVuSans-74" transform="translate(143.359375 0)"/>
      <use xlink:href="#DejaVuSans-61" transform="translate(182.568359 0)"/>
      <use xlink:href="#DejaVuSans-6e" transform="translate(243.847656 0)"/>
      <use xlink:href="#DejaVuSans-63" transform="translate(307.226562 0)"/>
      <use xlink:href="#DejaVuSans-65" transform="translate(362.207031 0)"/>
      <use xlink:href="#DejaVuSans-20" transform="translate(423.730469 0)"/>
      <use xlink:href="#DejaVuSans-73" transform="translate(455.517578 0)"/>
      <use xlink:href="#DejaVuSans-20" transform="translate(507.617188 0)"/>
      <use xlink:href="#DejaVuSans-5b" transform="translate(539.404297 0)"/>
      <use xlink:href="#DejaVuSans-6b" transform="translate(578.417969 0)"/>
      <use xlink:href="#DejaVuSans-6d" transform="translate(636.328125 0)"/>
      <use xlink:href="#DejaVuSans-5d" transform="translate(733.740234 0)"/>
     </g>
    </g>
   </g>
   <g id="matplotlib.axis_2">
    <g id="ytick_1">
     <g id="line2d_11">
      <path d="M 56.09 244.423384 
L 709.2 244.423384 
" clip-path="url(#pf11f3fe47e)" style="fill: none; stroke: #b0b0b0; stroke-opacity: 0.3; stroke-width: 0.8; stroke-linecap: square"/>
     </g>
     <g id="line2d_12">
      <defs>
       <path id="ma18814dd12" d="M 0 0 
L -3.5 0 
" style="stroke: #000000; stroke-width: 0.8"/>
      </defs>
      <g>
       <use xlink:href="#ma18814dd12" x="56.09" y="244.423384" style="stroke: #000000; stroke-width: 0.8"/>
      </g>
     </g>
     <g id="text_7">
      <!-- −2.0 -->
      <g transform="translate(24.807188 248.222603) scale(0.1 -0.1)">
       <defs>
        <path id="DejaVuSans-2212" d="M 678 2272 
L 4684 2272 
L 4684 1741 
L 678 1741 
L 678 2272 
z
" transform="scale(0.015625)"/>
       </defs>
       <use xlink:href="#DejaVuSans-2212"/>
       <use xlink:href="#DejaVuSans-32" transform="translate(83.789062 0)"/>
       <use xlink:href="#DejaVuSans-2e" transform="translate(147.412109 0)"/>
       <use xlink:href="#DejaVuSans-30" transform="translate(179.199219 0)"/>
      </g>
     </g>
    </g>
    <g id="ytick_2">
     <g id="line2d_13">
      <path d="M 56.09 217.724598 
L 709.2 217.724598 
" clip-path="url(#pf11f3fe47e)" style="fill: none; stroke: #b0b0b0; stroke-opacity: 0.3; stroke-width: 0.8; stroke-linecap: square"/>
     </g>
     <g id="line2d_14">
      <g>
       <use xlink:href="#ma18814dd12" x="56.09" y="217.724598" style="stroke: #000000; stroke-width: 0.8"/>
      </g>
     </g>
     <g id="text_8">
      <!-- −1.5 -->
      <g transform="translate(24.807188 221.523817) scale(0.1 -0.1)">
       <use xlink:href="#DejaVuSans-2212"/>
       <use xlink:href="#DejaVuSans-31" transform="translate(83.789062 0)"/>
       <use xlink:href="#DejaVuSans-2e" transform="translate(147.412109 0)"/>
       <use xlink:href="#DejaVuSans-35" transform="translate(179.199219 0)"/>
      </g>
     </g>
    </g>
    <g id="ytick_3">
     <g id="line2d_15">
      <path d="M 56.09 191.025812 
L 709.2 191.025812 
" clip-path="url(#pf11f3fe47e)" style="fill: none; stroke: #b0b0b0; stroke-opacity: 0.3; stroke-width: 0.8; stroke-linecap: square"/>
     </g>
     <g id="line2d_16">
      <g>
       <use xlink:href="#ma18814dd12" x="56.09" y="191.025812" style="stroke: #000000; stroke-width: 0.8"/>
      </g>
     </g>
     <g id="text_9">
      <!-- −1.0 -->
      <g transform="translate(24.807188 194.825031) scale(0.1 -0.1)">
       <use xlink:href="#DejaVuSans-2212"/>
       <use xlink:href="#DejaVuSans-31" transform="translate(83.789062 0)"/>
       <use xlink:href="#DejaVuSans-2e" transform="translate(147.412109 0)"/>
       <use xlink:href="#DejaVuSans-30" transform="translate(179.199219 0)"/>
      </g>
     </g>
    </g>
    <g id="ytick_4">
     <g id="line2d_17">
      <path d="M 56.09 164.327026 
L 709.2 164.327026 
" clip-path="url(#pf11f3fe47e)" style="fill: none; stroke: #b0b0b0; stroke-opacity: 0.3; stroke-width: 0.8; stroke-linecap: square"/>
     </g>
     <g id="line2d_18">
      <g>
       <use xlink:href="#ma18814dd12" x="56.09" y="164.327026" style="stroke: #000000; stroke-width: 0.8"/>
      </g>
     </g>
     <g id="text_10">
      <!-- −0.5 -->
      <g transform="translate(24.807188 168.126245) scale(0.1 -0.1)">
       <use xlink:href="#DejaVuSans-2212"/>
       <use xlink:href="#DejaVuSans-30" transform="translate(83.789062 0)"/>
       <use xlink:href="#DejaVuSans-2e" transform="translate(147.412109 0)"/>
       <use xlink:href="#DejaVuSans-35" transform="translate(179.199219 0)"/>
      </g>
     </g>
    </g>
    <g id="ytick_5">
     <g id="line2d_19">
      <path d="M 56.09 137.62824 
L 709.2 137.62824 
" clip-path="url(#pf11f3fe47e)" style="fill: none; stroke: #b0b0b0; stroke-opacity: 0.3; stroke-width: 0.8; stroke-linecap: square"/>
     </g>
     <g id="line2d_20">
      <g>
       <use xlink:href="#ma18814dd12" x="56.09" y="137.62824" style="stroke: #000000; stroke-width: 0.8"/>
      </g>
     </g>
     <g id="text_11">
      <!-- 0.0 -->
      <g transform="translate(33.186875 141.427459) scale(0.1 -0.1)">
       <use xlink:href="#DejaVuSans-30"/>
       <use xlink:href="#DejaVuSans-2e" transform="translate(63.623047 0)"/>
       <use xlink:href="#DejaVuSans-30" transform="translate(95.410156 0)"/>
      </g>
     </g>
    </g>
    <g id="ytick_6">
     <g id="line2d_21">
      <path d="M 56.09 110.929454 
L 709.2 110.929454 
" clip-path="url(#pf11f3fe47e)" style="fill: none; stroke: #b0b0b0; stroke-opacity: 0.3; stroke-width: 0.8; stroke-linecap: square"/>
     </g>
     <g id="line2d_22">
      <g>
       <use xlink:href="#ma18814dd12" x="56.09" y="110.929454" style="stroke: #000000; stroke-width: 0.8"/>
      </g>
     </g>
     <g id="text_12">
      <!-- 0.5 -->
      <g transform="translate(33.186875 114.728672) scale(0.1 -0.1)">
       <use xlink:href="#DejaVuSans-30"/>
       <use xlink:href="#DejaVuSans-2e" transform="translate(63.623047 0)"/>
       <use xlink:href="#DejaVuSans-35" transform="translate(95.410156 0)"/>
      </g>
     </g>
    </g>
    <g id="ytick_7">
     <g id="line2d_23">
      <path d="M 56.09 84.230668 
L 709.2 84.230668 
" clip-path="url(#pf11f3fe47e)" style="fill: none; stroke: #b0b0b0; stroke-opacity: 0.3; stroke-width: 0.8; stroke-linecap: square"/>
     </g>
     <g id="line2d_24">
      <g>
       <use xlink:href="#ma18814dd12" x="56.09" y="84.230668" style="stroke: #000000; stroke-width: 0.8"/>
      </g>
     </g>
     <g id="text_13">
      <!-- 1.0 -->
      <g transform="translate(33.186875 88.029886) scale(0.1 -0.1)">
       <use xlink:href="#DejaVuSans-31"/>
       <use xlink:href="#DejaVuSans-2e" transform="translate(63.623047 0)"/>
       <use xlink:href="#DejaVuSans-30" transform="translate(95.410156 0)"/>
      </g>
     </g>
    </g>
    <g id="ytick_8">
     <g id="line2d_25">
      <path d="M 56.09 57.531882 
L 709.2 57.531882 
" clip-path="url(#pf11f3fe47e)" style="fill: none; stroke: #b0b0b0; stroke-opacity: 0.3; stroke-width: 0.8; stroke-linecap: square"/>
     </g>
     <g id="line2d_26">
      <g>
       <use xlink:href="#ma18814dd12" x="56.09" y="57.531882" style="stroke: #000000; stroke-width: 0.8"/>
      </g>
     </g>
     <g id="text_14">
      <!-- 1.5 -->
      <g transform="translate(33.186875 61.3311) scale(0.1 -0.1)">
       <use xlink:href="#DejaVuSans-31"/>
       <use xlink:href="#DejaVuSans-2e" transform="translate(63.623047 0)"/>
       <use xlink:href="#DejaVuSans-35" transform="translate(95.410156 0)"/>
      </g>
     </g>
    </g>
    <g id="ytick_9">
     <g id="line2d_27">
      <path d="M 56.09 30.833096 
L 709.2 30.833096 
" clip-path="url(#pf11f3fe47e)" style="fill: none; stroke: #b0b0b0; stroke-opacity: 0.3; stroke-width: 0.8; stroke-linecap: square"/>
     </g>
     <g id="line2d_28">
      <g>
       <use xlink:href="#ma18814dd12" x="56.09" y="30.833096" style="stroke: #000000; stroke-width: 0.8"/>
      </g>
     </g>
     <g id="text_15">
      <!-- 2.0 -->
      <g transform="translate(33.186875 34.632314) scale(0.1 -0.1)">
       <use xlink:href="#DejaVuSans-32"/>
       <use xlink:href="#DejaVuSans-2e" transform="translate(63.623047 0)"/>
       <use xlink:href="#DejaVuSans-30" transform="translate(95.410156 0)"/>
      </g>
     </g>
    </g>
    <g id="text_16">
     <!-- tie-rod force [kN] -->
     <g transform="translate(18.7275 179.170156) rotate(-90) scale(0.1 -0.1)">
      <defs>
       <path id="DejaVuSans-2d" d="M 313 2009 
L 1997 2009 
L 1997 1497 
L 313 1497 
L 313 2009 
z
" transform="scale(0.015625)"/>
       <path id="DejaVuSans-72" d="M 2631 2963 
Q 2534 3019 2420 3045 
Q 2306 3072 2169 3072 
Q 1681 3072 1420 2755 
Q 1159 2438 1159 1844 
L 1159 0 
L 581 0 
L 581 3500 
L 1159 3500 
L 1159 2956 
Q 1341 3275 1631 3429 
Q 1922 3584 2338 3584 
Q 2397 3584 2469 3576 
Q 2541 3569 2628 3553 
L 2631 2963 
z
" transform="scale(0.015625)"/>
       <path id="DejaVuSans-6f" d="M 1959 3097 
Q 1497 3097 1228 2736 
Q 959 2375 959 1747 
Q 959 1119 1226 758 
Q 1494 397 1959 397 
Q 2419 397 2687 759 
Q 2956 1122 2956 1747 
Q 2956 2369 2687 2733 
Q 2419 3097 1959 3097 
z
M 1959 3584 
Q 2709 3584 3137 3096 
Q 3566 2609 3566 1747 
Q 3566 888 3137 398 
Q 2709 -91 1959 -91 
Q 1206 -91 779 398 
Q 353 888 353 1747 
Q 353 2609 779 3096 
Q 1206 3584 1959 3584 
z
" transform="scale(0.015625)"/>
       <path id="DejaVuSans-66" d="M 2375 4863 
L 2375 4384 
L 1825 4384 
Q 1516 4384 1395 4259 
Q 1275 4134 1275 3809 
L 1275 3500 
L 2222 3500 
L 2222 3053 
L 1275 3053 
L 1275 0 
L 697 0 
L 697 3053 
L 147 3053 
L 147 3500 
L 697 3500 
L 697 3744 
Q 697 4328 969 4595 
Q 1241 4863 1831 4863 
L 2375 4863 
z
" transform="scale(0.015625)"/>
       <path id="DejaVuSans-4e" d="M 628 4666 
L 1478 4666 
L 3547 763 
L 3547 4666 
L 4159 4666 
L 4159 0 
L 3309 0 
L 1241 3903 
L 1241 0 
L 628 0 
L 628 4666 
z
" transform="scale(0.015625)"/>
      </defs>
      <use xlink:href="#DejaVuSans-74"/>
      <use xlink:href="#DejaVuSans-69" transform="translate(39.208984 0)"/>
      <use xlink:href="#DejaVuSans-65" transform="translate(66.992188 0)"/>
      <use xlink:href="#DejaVuSans-2d" transform="translate(128.515625 0)"/>
      <use xlink:href="#DejaVuSans-72" transform="translate(164.599609 0)"/>
      <use xlink:href="#DejaVuSans-6f" transform="translate(203.462891 0)"/>
      <use xlink:href="#DejaVuSans-64" transform="translate(264.644531 0)"/>
      <use xlink:href="#DejaVuSans-20" transform="translate(328.121094 0)"/>
      <use xlink:href="#DejaVuSans-66" transform="translate(359.908203 0)"/>
      <use xlink:href="#DejaVuSans-6f" transform="translate(395.113281 0)"/>
      <use xlink:href="#DejaVuSans-72" transform="translate(456.294922 0)"/>
      <use xlink:href="#DejaVuSans-63" transform="translate(495.158203 0)"/>
      <use xlink:href="#DejaVuSans-65" transform="translate(550.138672 0)"/>
      <use xlink:href="#DejaVuSans-20" transform="translate(611.662109 0)"/>
      <use xlink:href="#DejaVuSans-5b" transform="translate(643.449219 0)"/>
      <use xlink:href="#DejaVuSans-6b" transform="translate(682.462891 0)"/>
      <use xlink:href="#DejaVuSans-4e" transform="translate(740.373047 0)"/>
      <use xlink:href="#DejaVuSans-5d" transform="translate(815.177734 0)"/>
     </g>
    </g>
   </g>
   <g id="line2d_29">
    <path d="M 85.776818 137.62824 
L 86.245535 141.165198 
L 86.715865 140.452388 
L 87.661356 131.598206 
L 88.136513 130.505351 
L 89.091634 132.517335 
L 89.571593 131.907022 
L 90.536287 127.840839 
L 91.021012 126.712147 
L 91.507313 126.65453 
L 92.484625 127.553638 
L 92.975624 127.641655 
L 93.468179 127.534247 
L 93.962286 127.601423 
L 94.457943 128.057332 
L 95.453727 129.808679 
L 96.953941 132.365894 
L 97.954298 134.283051 
L 102.882734 145.868122 
L 105.262429 150.848835 
L 107.111355 154.505993 
L 108.905747 158.84019 
L 109.78111 161.633362 
L 110.641239 165.417968 
L 111.065446 166.30263 
L 111.485678 165.613172 
L 111.901894 164.13732 
L 112.31406 163.305819 
L 112.722129 164.135909 
L 113.525755 168.380859 
L 113.921218 169.811867 
L 114.312435 170.587645 
L 115.082249 171.450098 
L 115.46093 172.268837 
L 115.835517 173.706503 
L 116.206049 176.023555 
L 116.935031 182.185091 
L 117.293517 184.198318 
L 117.648062 184.529396 
L 117.998778 182.897384 
L 118.345845 180.59335 
L 118.689477 180.088319 
L 119.029876 183.236584 
L 120.362208 207.351099 
L 120.688705 209.093103 
L 121.012941 209.314345 
L 121.335106 209.052878 
L 121.655401 209.195346 
L 121.974068 210.272127 
L 122.291401 212.39778 
L 123.238601 222.2084 
L 123.86838 227.740437 
L 124.183161 229.267342 
L 124.49796 230.072055 
L 125.441878 231.400393 
L 126.068195 232.385233 
L 126.379387 232.427411 
L 126.996165 231.838255 
L 127.903684 230.829772 
L 129.078545 229.983779 
L 130.782287 229.067974 
L 132.169197 228.247891 
L 132.719955 227.969872 
L 133.269973 227.968363 
L 133.820246 228.388432 
L 134.371714 228.985826 
L 134.648171 229.127816 
L 134.925254 229.011488 
L 135.203072 228.562073 
L 135.761304 226.837858 
L 137.461719 220.557755 
L 138.038446 216.877399 
L 139.504793 205.170825 
L 140.101619 202.906493 
L 140.704257 201.990657 
L 141.0077 201.80472 
L 141.31252 201.816258 
L 141.926076 202.453315 
L 142.234625 202.756641 
L 142.544126 202.739787 
L 142.854371 202.257571 
L 143.788231 199.855489 
L 144.100395 200.014605 
L 144.41296 200.897381 
L 145.039117 203.353657 
L 145.352584 204.192083 
L 145.666228 204.504678 
L 145.980007 204.36678 
L 146.293895 204.083731 
L 146.60788 204.089953 
L 146.921948 204.805412 
L 147.550265 208.52723 
L 148.178648 212.582512 
L 148.806894 214.842012 
L 149.434988 216.229363 
L 149.749054 217.23054 
L 151.32067 224.226375 
L 151.949886 225.388366 
L 153.52463 227.084233 
L 154.155215 227.261043 
L 155.101731 227.2328 
L 155.73354 227.035269 
L 157.000847 226.338319 
L 157.636819 226.348099 
L 158.274837 226.436943 
L 158.915524 226.26979 
L 159.559283 226.081223 
L 160.206231 226.209114 
L 162.493701 227.578923 
L 162.822256 227.541648 
L 163.150844 226.877504 
L 163.47948 225.161488 
L 164.466193 216.729393 
L 164.795506 215.292682 
L 165.785132 213.23237 
L 166.115718 211.524263 
L 167.110464 204.935552 
L 167.443227 205.052748 
L 168.110727 207.685934 
L 168.445495 208.002028 
L 168.780978 207.257936 
L 169.454263 204.862249 
L 169.792158 204.990878 
L 170.130923 206.483736 
L 171.494323 215.017181 
L 172.180599 217.261019 
L 172.869688 219.475447 
L 173.561454 221.947133 
L 174.255787 223.523067 
L 174.952736 224.414115 
L 175.65255 224.872941 
L 176.355454 225.083957 
L 177.061559 225.121374 
L 177.770998 224.877959 
L 178.841893 224.250654 
L 179.560659 224.06733 
L 179.921561 223.875969 
L 180.283519 223.521587 
L 180.646582 222.907225 
L 181.010804 221.940898 
L 181.742909 218.932003 
L 182.480124 215.679946 
L 183.222704 213.71205 
L 183.59604 213.205518 
L 183.970744 213.035545 
L 184.346812 213.38226 
L 185.103045 214.638983 
L 185.483209 214.79537 
L 185.864746 214.51498 
L 186.247684 213.79977 
L 186.632053 212.594816 
L 187.40519 208.641489 
L 188.969696 199.501515 
L 189.364695 198.767407 
L 189.761248 200.182582 
L 190.559071 204.664264 
L 190.960419 205.789677 
L 191.363436 205.920943 
L 191.768166 205.111516 
L 192.174678 203.22794 
L 192.583013 199.752824 
L 192.993168 194.134639 
L 193.818764 179.688161 
L 194.234183 174.585818 
L 194.651366 172.425966 
L 195.070298 172.880621 
L 195.491002 174.13879 
L 195.913547 174.297349 
L 196.338006 172.666614 
L 197.623245 162.550023 
L 198.055693 160.98709 
L 198.926618 160.030142 
L 199.365012 158.703312 
L 200.247461 153.440231 
L 201.137268 148.585757 
L 202.485536 142.780999 
L 203.393331 138.565489 
L 203.849896 137.190394 
L 204.308232 136.321351 
L 205.230185 135.317628 
L 206.159129 134.643214 
L 206.626202 134.470005 
L 207.565505 134.462912 
L 208.037718 134.461795 
L 208.987221 134.125202 
L 209.943436 133.615752 
L 211.390191 132.569563 
L 212.362872 131.814851 
L 213.832229 131.013664 
L 214.323743 130.790666 
L 214.815667 130.257743 
L 215.307781 129.276499 
L 215.799905 127.894797 
L 216.29189 126.104533 
L 217.766163 119.579337 
L 218.256805 117.795949 
L 218.746865 116.641775 
L 219.236195 117.051905 
L 219.724631 118.969037 
L 220.212008 120.139043 
L 220.698177 118.135327 
L 221.666484 110.092811 
L 222.148475 107.997537 
L 222.628967 107.048416 
L 223.10792 106.69798 
L 223.585276 106.854303 
L 224.06097 106.892153 
L 224.534936 106.065373 
L 226.875801 97.343227 
L 227.337313 97.288588 
L 227.796235 98.779909 
L 228.706592 102.823419 
L 229.607491 105.734502 
L 230.498879 107.769957 
L 231.380326 109.118163 
L 232.251212 109.978346 
L 233.53704 110.779609 
L 234.380413 111.067859 
L 235.21252 111.127377 
L 236.439737 110.97266 
L 238.43483 110.423386 
L 239.992292 109.754351 
L 240.758598 109.288152 
L 242.266823 107.983485 
L 243.380843 106.656563 
L 244.484141 105.33392 
L 244.849831 105.161439 
L 245.214497 105.317751 
L 245.940549 106.46083 
L 247.020208 108.645164 
L 250.539598 116.836731 
L 251.233587 117.956551 
L 251.922933 118.73268 
L 252.606794 119.267206 
L 253.285778 119.597976 
L 253.961494 119.725751 
L 254.636155 119.661646 
L 256.674908 119.060741 
L 257.01863 118.82941 
L 257.363766 118.376897 
L 258.058756 116.768749 
L 258.761101 120.057429 
L 259.115514 118.576796 
L 259.472196 115.468895 
L 259.831164 113.808264 
L 260.192431 115.18816 
L 260.556017 120.905494 
L 260.921934 129.192444 
L 261.29017 133.484475 
L 261.660698 130.899525 
L 262.03349 126.524371 
L 262.408525 126.063113 
L 263.165274 133.66429 
L 263.546945 133.218629 
L 264.31673 125.57939 
L 264.70478 123.079171 
L 265.094893 122.12747 
L 265.487046 122.246031 
L 267.076112 124.362103 
L 267.47853 125.591954 
L 267.882975 127.586304 
L 269.106686 135.008847 
L 269.928041 138.761404 
L 272.395795 154.869937 
L 272.805762 157.776247 
L 273.215077 159.846557 
L 274.439293 164.32203 
L 274.846233 167.204987 
L 275.658612 174.48822 
L 276.064179 175.204256 
L 276.874568 172.112472 
L 277.279639 172.411527 
L 277.684784 174.953136 
L 278.901631 185.30426 
L 279.307985 187.173684 
L 279.714769 188.104472 
L 280.121966 189.551702 
L 280.52947 193.112209 
L 282.156724 214.291643 
L 283.364405 223.40138 
L 284.159448 228.63808 
L 284.55333 230.467964 
L 285.333327 232.67343 
L 286.103127 233.901056 
L 286.863539 234.705763 
L 287.988478 235.526201 
L 289.097231 236.0138 
L 289.46379 236.078182 
L 290.193066 235.825371 
L 290.555956 235.671315 
L 290.917784 235.701546 
L 291.638456 235.941597 
L 291.997331 235.634449 
L 292.355319 234.712369 
L 293.068977 231.226827 
L 293.779863 227.988624 
L 294.488562 226.418275 
L 294.842271 225.637868 
L 295.195637 224.533092 
L 295.901466 221.148769 
L 296.253858 218.707684 
L 296.605767 215.425788 
L 298.007232 198.87538 
L 298.356024 200.703853 
L 299.397767 213.573236 
L 299.743017 215.988147 
L 300.087147 217.160855 
L 300.430162 217.342735 
L 301.113008 216.445149 
L 301.452934 216.57725 
L 301.791903 217.536248 
L 302.803023 221.609416 
L 303.138107 221.999992 
L 303.472249 221.751503 
L 304.137925 220.68909 
L 304.469572 220.933933 
L 305.13069 223.224522 
L 305.460218 224.350508 
L 305.7891 224.999293 
L 306.117381 225.126622 
L 306.445125 224.823517 
L 307.099387 223.921978 
L 307.426109 224.040064 
L 307.752651 224.699938 
L 308.731299 227.271202 
L 309.057175 227.594991 
L 309.382888 227.609572 
L 309.708456 227.503344 
L 310.033879 227.610489 
L 310.684086 228.770705 
L 311.333013 229.806448 
L 311.980252 230.184623 
L 312.625903 230.233984 
L 313.270795 230.107946 
L 314.23824 229.64404 
L 315.531254 228.850452 
L 316.179388 228.053675 
L 318.126821 225.089941 
L 318.452498 224.900893 
L 318.778788 224.864936 
L 319.433622 225.166876 
L 320.092152 225.609811 
L 320.42303 225.388229 
L 320.755092 224.27307 
L 321.088436 221.754287 
L 321.759429 212.239607 
L 322.778773 195.941852 
L 323.817019 181.37903 
L 324.875715 164.144231 
L 325.23321 160.698194 
L 325.593015 159.087942 
L 325.955147 158.886292 
L 326.319631 159.010663 
L 326.686499 158.246151 
L 327.4275 153.39182 
L 328.178326 147.443891 
L 328.938976 137.278372 
L 329.709047 127.808219 
L 330.488017 120.618667 
L 330.880692 118.36252 
L 331.275455 118.15531 
L 331.672321 119.228698 
L 332.071289 119.883292 
L 332.472336 118.898694 
L 333.280548 114.848294 
L 334.92064 108.873618 
L 335.335098 108.216142 
L 335.750913 108.062282 
L 336.167762 108.219925 
L 336.585368 108.836089 
L 337.422018 110.469883 
L 337.840778 110.355564 
L 338.259697 109.324373 
L 339.097362 106.320254 
L 339.515781 105.237681 
L 340.35096 103.894986 
L 341.59715 102.022892 
L 342.010244 101.796811 
L 342.421963 101.920221 
L 343.240813 102.711605 
L 344.052998 103.538323 
L 344.858167 104.070785 
L 345.656217 104.267662 
L 346.447197 104.153442 
L 347.231456 103.529769 
L 348.009391 102.876051 
L 348.781291 102.617727 
L 349.16501 102.681232 
L 349.547253 102.908824 
L 349.928053 103.30866 
L 350.685542 104.596706 
L 354.042706 111.975517 
L 355.515253 114.221428 
L 356.975371 116.025773 
L 357.701008 116.688775 
L 358.423937 117.103455 
L 359.86214 117.589247 
L 361.291835 117.852695 
L 362.712278 117.829601 
L 363.419236 117.665887 
L 364.124481 117.234191 
L 364.828305 116.515565 
L 365.530912 115.484707 
L 366.58268 113.358642 
L 368.676603 108.216742 
L 369.371873 107.247234 
L 369.719089 106.924111 
L 370.06592 106.771272 
L 370.75799 106.793667 
L 372.473566 107.126001 
L 374.159684 108.027019 
L 375.485379 108.278316 
L 376.468639 108.54129 
L 377.444285 109.051837 
L 378.091319 109.558376 
L 378.736138 110.351227 
L 380.022415 112.425077 
L 380.667567 113.02204 
L 382.302105 114.183232 
L 384.622854 116.296279 
L 386.60432 118.824949 
L 387.265019 119.217806 
L 387.926347 119.378956 
L 388.587877 119.341564 
L 389.250195 119.076317 
L 389.914591 118.462386 
L 390.582713 117.317169 
L 390.91879 116.243068 
L 391.256166 115.656389 
L 391.594564 118.449552 
L 392.273216 129.360194 
L 392.612867 130.087136 
L 392.952355 131.120524 
L 393.2914 136.756732 
L 393.967074 152.733441 
L 394.303221 155.091579 
L 394.971302 154.092216 
L 395.303025 156.147346 
L 395.961384 163.400756 
L 396.287827 165.599767 
L 396.612314 166.557669 
L 396.93477 167.144408 
L 397.255157 168.266336 
L 397.889823 172.718904 
L 399.136709 182.751909 
L 399.44424 183.261525 
L 399.750331 182.300143 
L 400.055185 180.677802 
L 400.359038 179.725167 
L 400.662148 180.363579 
L 400.96478 182.595973 
L 401.569582 190.132467 
L 402.175276 197.423113 
L 402.479008 199.022085 
L 402.783671 198.904731 
L 403.089538 197.967031 
L 403.396831 197.650875 
L 403.705663 199.102777 
L 404.32748 207.158984 
L 405.265838 219.930161 
L 405.890463 225.41752 
L 406.509662 228.931573 
L 407.12005 231.161169 
L 407.720311 232.471941 
L 408.310709 233.106118 
L 409.464792 233.74023 
L 410.592437 234.180872 
L 411.708853 234.254405 
L 411.987789 234.215408 
L 412.266891 234.044506 
L 412.54624 233.682144 
L 413.106289 232.295155 
L 413.950399 229.040546 
L 415.363153 223.33499 
L 417.34689 217.156979 
L 417.631256 216.593699 
L 417.916236 216.509416 
L 418.201958 216.694722 
L 418.488527 216.704468 
L 418.776025 216.0737 
L 419.354022 212.927465 
L 419.936166 209.499273 
L 420.228813 208.590766 
L 420.522496 208.427572 
L 420.817176 208.892465 
L 422.003936 212.176045 
L 422.302088 212.377476 
L 422.600736 212.421858 
L 422.899931 212.583906 
L 423.199762 213.036559 
L 424.104143 214.842083 
L 424.407624 214.929053 
L 424.71232 214.554188 
L 425.018365 213.655886 
L 425.635045 210.199102 
L 426.573264 202.260247 
L 427.208566 195.540461 
L 429.167117 171.066057 
L 431.558527 156.306707 
L 432.619045 152.212068 
L 433.699717 144.03304 
L 434.064275 144.658134 
L 434.430959 146.294633 
L 434.799733 147.326775 
L 435.543668 147.79756 
L 435.918989 148.712103 
L 436.676504 151.329872 
L 437.058715 151.909705 
L 437.443235 151.828764 
L 438.610682 150.501285 
L 439.400275 148.745777 
L 441.411586 143.570856 
L 442.230681 141.939224 
L 442.643294 141.42786 
L 443.057933 141.125085 
L 443.474588 140.986103 
L 443.893248 140.985942 
L 444.736519 141.356381 
L 445.586782 142.207039 
L 447.297504 144.624614 
L 448.152998 146.031322 
L 449.005843 147.998315 
L 449.854315 150.500748 
L 451.115615 154.250744 
L 451.94716 156.292719 
L 452.359753 156.561324 
L 452.770076 156.631179 
L 453.178025 157.010943 
L 453.583479 157.856578 
L 455.178173 162.810219 
L 455.56956 164.985407 
L 456.725164 174.340529 
L 457.103914 175.137041 
L 457.851285 175.531278 
L 458.219779 175.457554 
L 458.946059 174.64761 
L 459.303692 175.09909 
L 459.657612 176.533159 
L 460.35448 180.613523 
L 460.697557 182.004358 
L 461.373418 183.637199 
L 461.706384 184.939337 
L 462.362724 190.028564 
L 463.006386 194.424036 
L 464.256641 199.069117 
L 464.864627 202.763422 
L 466.053958 213.200511 
L 466.347423 213.102702 
L 467.223345 209.320816 
L 467.514752 209.598776 
L 467.806406 211.277284 
L 468.39173 217.367367 
L 469.276974 226.317132 
L 469.870614 229.279786 
L 470.760631 231.438231 
L 471.055898 231.926592 
L 471.349838 232.065451 
L 471.642055 231.806646 
L 473.631025 228.44302 
L 476.32637 225.515832 
L 477.111434 225.004703 
L 477.63071 224.897606 
L 478.405374 225.027189 
L 479.435746 225.345643 
L 479.951867 225.863023 
L 480.46925 226.947121 
L 481.249228 228.926921 
L 481.510729 228.660254 
L 481.773212 227.101867 
L 482.301674 219.685502 
L 482.835752 211.654652 
L 483.376708 207.389876 
L 483.925675 204.230991 
L 484.482958 199.509396 
L 485.048618 191.365331 
L 485.622852 180.771197 
L 485.913265 177.252944 
L 486.205899 175.861919 
L 486.500758 175.860636 
L 486.797832 175.63458 
L 487.398503 173.787259 
L 487.70199 174.970569 
L 488.624237 185.669581 
L 489.248392 189.26851 
L 489.879916 191.181964 
L 490.198501 191.732869 
L 490.518978 191.962076 
L 490.841344 191.489101 
L 491.165602 189.932884 
L 491.491757 187.807797 
L 491.81981 186.499922 
L 492.149758 187.007626 
L 493.150816 191.788026 
L 493.827571 193.819495 
L 494.168973 194.456753 
L 494.512478 194.175206 
L 494.85808 192.563541 
L 495.907665 185.22926 
L 496.618163 182.5434 
L 497.337095 179.82995 
L 497.699807 178.374658 
L 498.064783 177.670624 
L 498.432053 177.401822 
L 498.801633 176.622366 
L 499.173521 174.926627 
L 499.924237 169.846049 
L 501.067326 159.724132 
L 502.229197 150.076519 
L 502.620466 148.182017 
L 503.013696 147.729717 
L 503.806177 148.702046 
L 504.205503 149.323366 
L 505.010534 151.709007 
L 505.416328 152.978936 
L 505.824328 153.873731 
L 506.234515 154.217605 
L 506.646859 154.099741 
L 507.061345 153.716153 
L 507.477948 153.095197 
L 507.896623 152.172704 
L 510.019825 146.3803 
L 510.882652 144.773414 
L 511.753064 142.557142 
L 512.630977 141.280961 
L 513.07271 139.87463 
L 513.961607 135.430032 
L 514.408744 134.714141 
L 514.857672 135.069991 
L 515.308388 136.048824 
L 516.21517 138.654787 
L 516.671228 140.372871 
L 517.588776 144.803937 
L 518.050283 146.287926 
L 518.513611 147.155184 
L 518.978752 147.663911 
L 519.445684 147.899701 
L 519.914388 147.846252 
L 520.384846 147.547039 
L 520.857035 146.990134 
L 521.330935 146.159213 
L 522.283816 143.705326 
L 522.762774 142.452975 
L 523.243398 141.736699 
L 524.695196 140.672437 
L 525.671257 139.138393 
L 526.16172 138.205435 
L 526.653796 136.439599 
L 527.147475 134.203286 
L 527.642748 132.926111 
L 528.139612 132.977739 
L 529.138082 134.707398 
L 529.63968 135.661377 
L 530.142845 137.336833 
L 531.153849 142.307171 
L 531.661675 144.11461 
L 532.171041 145.214893 
L 533.708329 147.424699 
L 534.223802 147.555864 
L 534.740781 147.254929 
L 535.259254 146.720155 
L 535.779214 145.980186 
L 536.823558 144.075816 
L 537.347929 143.886935 
L 537.873757 144.710403 
L 538.401034 146.083955 
L 538.929754 146.994609 
L 539.459908 146.769218 
L 539.991491 145.91336 
L 540.524495 144.818652 
L 541.058914 142.643525 
L 542.131989 134.940579 
L 542.670646 133.560706 
L 543.210723 134.332227 
L 543.75222 136.935752 
L 545.932087 150.799242 
L 547.029995 155.996484 
L 548.133177 160.259741 
L 548.686771 161.405682 
L 549.241701 161.666758 
L 549.797957 161.272616 
L 550.914381 159.858406 
L 551.474517 158.617844 
L 552.598553 154.838836 
L 553.162433 154.341896 
L 553.727546 156.539185 
L 554.293885 159.991711 
L 554.861437 161.849941 
L 555.430195 161.031378 
L 556.000153 158.561445 
L 556.571312 154.783109 
L 557.143678 147.073363 
L 557.717277 136.708203 
L 558.292162 128.929915 
L 558.868416 126.458709 
L 559.446107 130.134443 
L 560.605819 144.788451 
L 561.770722 157.739981 
L 562.939308 173.863661 
L 563.524794 180.101228 
L 564.111163 184.324278 
L 564.698514 186.451001 
L 565.286906 185.748677 
L 565.876367 182.020625 
L 567.058477 172.190436 
L 567.651088 171.210461 
L 568.244721 175.07822 
L 569.435015 186.502607 
L 570.031637 189.467553 
L 570.629235 189.959004 
L 571.227835 188.647084 
L 571.827478 186.00523 
L 572.428228 182.298644 
L 574.237309 168.02126 
L 574.842531 166.057317 
L 575.448791 166.210069 
L 576.056062 166.818288 
L 576.664325 167.071878 
L 577.273598 167.089172 
L 577.883904 166.235456 
L 579.107792 162.792613 
L 579.721433 162.050835 
L 580.336205 162.349306 
L 580.952103 163.461185 
L 581.569122 164.894279 
L 582.187229 165.509699 
L 582.806382 164.188805 
L 583.426564 160.216183 
L 584.047759 154.714119 
L 584.669952 150.821809 
L 585.293137 150.383445 
L 587.168715 154.854827 
L 587.79595 157.816958 
L 589.053457 164.479141 
L 589.68366 166.747539 
L 590.31477 168.299197 
L 590.946748 168.19409 
L 591.579558 166.178265 
L 592.213172 163.718351 
L 592.847581 161.733613 
L 593.482808 163.619839 
L 594.755877 176.775065 
L 595.393831 179.593809 
L 596.032791 179.651634 
L 596.672734 178.173257 
L 597.955482 173.8641 
L 598.598231 172.388456 
L 599.241921 171.883821 
L 599.886593 172.832822 
L 600.532154 175.936184 
L 601.17845 180.698513 
L 602.47254 192.573004 
L 603.76768 203.873937 
L 604.415548 208.262658 
L 605.063714 211.803402 
L 605.712352 214.567828 
L 606.361628 216.314421 
L 607.011661 216.956194 
L 607.662489 216.492925 
L 608.314049 215.000229 
L 609.618908 210.990386 
L 610.272051 210.3339 
L 610.925682 210.790503 
L 611.579861 211.537064 
L 612.23475 211.70304 
L 612.89021 210.538426 
L 613.54592 207.127795 
L 614.201588 200.190636 
L 614.85693 188.477435 
L 616.165402 156.921097 
L 616.817994 147.723432 
L 617.469189 146.078089 
L 618.118777 146.903451 
L 618.766577 144.827582 
L 619.412423 137.843908 
L 620.056151 128.83071 
L 620.697593 122.324328 
L 621.336579 119.401323 
L 621.972941 119.075308 
L 622.606518 119.221245 
L 623.237154 117.535587 
L 624.489028 110.613353 
L 625.109995 108.524028 
L 625.727479 108.359639 
L 626.341367 110.224156 
L 626.951556 115.722232 
L 627.557955 123.394459 
L 628.160478 128.946772 
L 628.759043 129.839527 
L 629.353577 127.607163 
L 631.690243 117.154083 
L 634.514999 106.974905 
L 635.614428 103.688825 
L 636.695838 100.723222 
L 637.229619 99.830686 
L 637.758713 99.559107 
L 638.283087 99.773457 
L 638.802726 100.283346 
L 639.317624 101.21849 
L 639.827783 103.518941 
L 640.83393 110.479906 
L 641.329997 112.384421 
L 641.821498 112.69698 
L 642.308529 111.831585 
L 643.74374 107.492202 
L 644.679706 104.146544 
L 645.141701 103.340339 
L 645.599877 103.688174 
L 646.054366 104.52985 
L 646.505314 104.860213 
L 646.95292 104.077618 
L 648.278667 98.955571 
L 648.715961 98.515621 
L 649.585331 98.391694 
L 650.449406 97.952623 
L 650.879931 98.162503 
L 651.309598 98.978712 
L 656.38039 114.872313 
L 657.19681 116.643521 
L 658.004388 117.970363 
L 658.804669 118.727999 
L 659.598531 119.109087 
L 660.779839 119.352589 
L 663.131267 119.510383 
L 664.312843 119.502378 
L 664.708121 119.37737 
L 665.104257 119.024316 
L 665.501407 118.261486 
L 665.899745 117.159657 
L 666.299512 121.471669 
L 666.701032 130.174727 
L 667.104531 129.762004 
L 667.510096 122.967507 
L 667.91781 119.750886 
L 668.32776 124.864491 
L 669.154548 154.608676 
L 669.571349 158.932979 
L 669.990354 155.976267 
L 670.411522 149.676688 
L 670.834808 145.552125 
L 671.260158 146.158229 
L 671.687533 148.92341 
L 672.116901 150.218818 
L 672.548235 148.537082 
L 672.981515 144.194004 
L 673.416729 129.7884 
L 673.853852 109.77614 
L 674.292826 101.53528 
L 674.733602 113.786085 
L 675.176208 167.363543 
L 675.620625 185.32149 
L 676.066741 187.645953 
L 676.514585 159.315861 
L 676.964252 101.238612 
L 677.415686 94.549584 
L 677.868837 110.103053 
L 678.323758 153.61201 
L 678.780476 171.152371 
L 679.238964 165.056366 
L 679.513182 150.981808 
L 679.513182 150.981808 
" clip-path="url(#pf11f3fe47e)" style="fill: none; stroke: #2ca02c; stroke-width: 0.9; stroke-linecap: square"/>
   </g>
   <g id="line2d_30">
    <path d="M 85.776818 137.62824 
L 86.245535 141.163268 
L 86.715865 140.447456 
L 87.661356 131.599079 
L 88.136513 130.483918 
L 89.091634 132.476929 
L 89.571593 131.848555 
L 90.536287 127.643166 
L 91.021012 126.426636 
L 91.507313 126.31699 
L 92.484625 127.194604 
L 92.975624 127.268802 
L 93.468179 127.141943 
L 93.962286 127.203669 
L 94.457943 127.681863 
L 95.453727 129.541373 
L 96.453513 131.406629 
L 97.4543 133.176164 
L 98.453664 135.467413 
L 100.439998 140.15727 
L 104.79227 149.874603 
L 107.111355 154.274987 
L 108.905747 158.364317 
L 109.78111 160.922572 
L 110.641239 164.272942 
L 111.065446 164.996157 
L 111.485678 164.336897 
L 111.901894 163.005635 
L 112.31406 162.257257 
L 112.722129 162.984595 
L 113.525755 166.611628 
L 113.921218 167.774143 
L 114.312435 168.373035 
L 115.082249 168.985111 
L 115.46093 169.587327 
L 115.835517 170.647072 
L 116.572549 174.425397 
L 116.935031 176.257588 
L 117.293517 177.216984 
L 117.648062 177.049125 
L 118.689477 173.539053 
L 119.029876 175.216599 
L 119.70163 180.505694 
L 120.03325 180.982931 
L 120.362208 180.176593 
L 121.655401 175.352038 
L 122.607733 172.07357 
L 123.553561 168.294878 
L 124.49796 165.488158 
L 126.688806 160.530018 
L 127.301208 159.472655 
L 128.201033 158.48691 
L 129.078545 157.864952 
L 130.220512 157.395332 
L 134.925254 156.223698 
L 135.481725 156.400487 
L 136.323526 156.99074 
L 137.175324 157.83481 
L 138.038446 159.008278 
L 139.208602 161.103837 
L 140.101619 162.630824 
L 141.0077 163.751841 
L 141.926076 164.441116 
L 142.854371 165.0946 
L 144.100395 166.082268 
L 144.725887 166.430896 
L 145.666228 166.607183 
L 146.921948 166.715366 
L 147.236083 166.624184 
L 147.864463 166.07813 
L 150.691754 162.5808 
L 151.949886 160.734528 
L 153.839884 158.626554 
L 155.101731 157.488791 
L 156.366481 156.604658 
L 157.636819 156.022077 
L 158.594816 155.808285 
L 159.559283 155.771448 
L 160.530899 155.990724 
L 161.509541 156.449201 
L 162.165271 156.98016 
L 163.150844 158.24352 
L 163.808217 159.291506 
L 165.785132 162.788953 
L 167.443227 165.329593 
L 167.776643 165.513315 
L 168.445495 165.417416 
L 170.130923 164.930181 
L 170.811019 164.205236 
L 175.302268 158.472627 
L 176.003607 157.940534 
L 176.7081 157.633004 
L 177.41585 157.516388 
L 178.127034 157.578646 
L 179.921561 157.893582 
L 181.010804 158.144028 
L 181.742909 158.545585 
L 183.222704 159.801364 
L 184.346812 160.68202 
L 185.103045 160.928493 
L 186.247684 160.847826 
L 187.01788 160.826457 
L 187.794009 161.126263 
L 188.576251 161.722215 
L 189.364695 162.587199 
L 190.159361 163.406657 
L 190.960419 163.560225 
L 192.583013 163.385474 
L 192.993168 163.199803 
L 193.405096 162.51812 
L 194.234183 160.258667 
L 194.651366 160.106171 
L 195.070298 161.073263 
L 195.491002 162.416665 
L 195.913547 163.220127 
L 196.338006 163.046242 
L 196.764425 161.811191 
L 197.623245 158.040379 
L 198.055693 157.156235 
L 198.926618 156.740658 
L 199.365012 155.811939 
L 199.805308 154.027837 
L 200.691452 149.530671 
L 203.393331 138.542648 
L 203.849896 137.195962 
L 204.308232 136.335883 
L 205.230185 135.325753 
L 206.159129 134.63629 
L 206.626202 134.456056 
L 207.565505 134.440706 
L 208.037718 134.437337 
L 208.987221 134.094464 
L 209.943436 133.57634 
L 211.390191 132.507505 
L 212.362872 131.729872 
L 213.832229 130.901478 
L 214.323743 130.673324 
L 214.815667 130.128948 
L 215.307781 129.123703 
L 215.799905 127.701529 
L 216.29189 125.845506 
L 217.766163 118.853657 
L 218.256805 116.827873 
L 218.746865 115.439006 
L 219.236195 115.787034 
L 219.724631 117.869914 
L 220.212008 119.160149 
L 220.698177 116.926528 
L 221.666484 107.393786 
L 222.148475 104.58635 
L 222.628967 103.123254 
L 223.10792 102.402505 
L 223.585276 102.35978 
L 224.06097 102.172193 
L 224.534936 100.74446 
L 225.007105 97.696528 
L 225.94568 89.468924 
L 226.411861 84.449235 
L 228.252618 58.311668 
L 229.158218 51.361869 
L 230.054388 46.934609 
L 230.940893 43.99916 
L 232.251212 40.751084 
L 233.111196 38.991193 
L 233.960117 37.799002 
L 234.797888 37.113721 
L 235.21252 36.913241 
L 235.624334 36.841818 
L 236.033382 36.938079 
L 236.439737 37.242965 
L 236.84349 37.791903 
L 237.643645 39.652476 
L 238.827278 42.944155 
L 239.606013 44.111904 
L 240.376496 45.127503 
L 240.758598 45.905273 
L 241.516535 48.323729 
L 242.266823 52.256966 
L 244.11744 64.38371 
L 244.484141 65.093946 
L 244.849831 63.845667 
L 245.578085 57.334094 
L 246.301819 50.814454 
L 247.020208 46.447526 
L 247.732663 44.107769 
L 248.439916 42.74327 
L 249.142849 41.913868 
L 249.493008 41.715516 
L 250.191366 41.691612 
L 250.887073 42.074838 
L 251.578926 42.644543 
L 252.265541 43.519752 
L 253.285778 45.29434 
L 254.973842 48.390785 
L 255.312125 48.758464 
L 255.651222 48.922545 
L 255.991303 48.820465 
L 256.332498 48.494365 
L 256.674908 48.418221 
L 257.01863 49.946842 
L 257.363766 55.324651 
L 257.71043 66.448081 
L 258.408908 98.972494 
L 258.761101 107.948552 
L 259.115514 107.183284 
L 259.472196 102.766771 
L 259.831164 101.644648 
L 260.192431 106.51388 
L 260.921934 127.991978 
L 261.29017 133.104005 
L 261.660698 130.372443 
L 262.03349 125.675242 
L 262.408525 125.257659 
L 263.165274 133.500731 
L 263.546945 133.061561 
L 264.70478 122.350675 
L 265.094893 121.245699 
L 265.487046 121.286373 
L 266.675761 122.668257 
L 267.076112 123.374162 
L 267.47853 124.720551 
L 268.289317 129.736302 
L 269.106686 134.921211 
L 269.928041 138.775229 
L 272.805762 157.082525 
L 273.215077 158.841933 
L 274.439293 162.23931 
L 274.846233 164.399944 
L 275.252656 167.219347 
L 275.658612 169.177003 
L 276.064179 169.172827 
L 276.874568 166.399158 
L 277.279639 166.389445 
L 277.684784 167.803329 
L 278.495688 171.230482 
L 278.901631 172.107854 
L 279.307985 172.284867 
L 279.714769 172.019311 
L 280.121966 171.897863 
L 280.52947 172.215758 
L 280.937057 172.368685 
L 281.344392 171.707147 
L 282.560992 168.037029 
L 283.763084 165.495133 
L 284.944631 163.483121 
L 286.484448 161.321572 
L 287.988478 159.715608 
L 290.193066 157.759851 
L 291.278616 157.037624 
L 291.997331 156.851296 
L 292.712519 157.072683 
L 293.424736 157.737948 
L 294.134448 158.706698 
L 294.842271 159.99494 
L 295.548702 161.885321 
L 297.307768 167.370126 
L 298.007232 168.308567 
L 298.356024 168.763679 
L 298.704133 168.96254 
L 299.051434 168.708626 
L 300.087147 167.400918 
L 300.772098 166.861992 
L 301.791903 166.247152 
L 303.472249 165.050985 
L 305.460218 164.321354 
L 306.772424 163.48233 
L 308.079032 162.682528 
L 309.382888 161.715892 
L 310.684086 161.110721 
L 311.65686 160.223674 
L 314.88412 156.703418 
L 315.531254 156.290919 
L 316.503592 155.996062 
L 317.801637 155.897194 
L 320.092152 155.976128 
L 320.755092 156.268422 
L 321.423173 157.054998 
L 322.097343 158.477656 
L 323.122618 160.763871 
L 323.46869 161.226525 
L 323.817019 161.224112 
L 324.167626 160.452081 
L 325.23321 155.474365 
L 325.593015 154.910726 
L 325.955147 155.195462 
L 326.319631 155.623849 
L 326.686499 155.282418 
L 327.05578 153.770731 
L 327.801679 149.419279 
L 328.178326 146.670245 
L 328.557436 142.611536 
L 329.709047 128.083663 
L 330.880692 117.704672 
L 331.275455 117.014981 
L 331.672321 117.819702 
L 332.071289 118.280182 
L 332.472336 116.902589 
L 333.687686 109.222629 
L 334.096805 106.96423 
L 334.92064 101.197486 
L 335.335098 99.346369 
L 335.750913 98.372841 
L 336.167762 98.108337 
L 336.585368 98.902943 
L 337.422018 101.911083 
L 337.840778 101.986647 
L 338.259697 100.49539 
L 339.515781 93.276292 
L 340.767373 88.240142 
L 341.59715 82.535046 
L 342.421963 76.745269 
L 342.832186 74.67717 
L 343.240813 73.206274 
L 343.647767 72.290707 
L 344.052998 71.89662 
L 344.45647 72.050545 
L 344.858167 72.738315 
L 345.656217 75.281977 
L 346.447197 77.816217 
L 346.840138 77.966959 
L 347.231456 77.12873 
L 349.16501 70.41019 
L 350.307462 65.802222 
L 352.559084 55.17955 
L 353.67285 51.482899 
L 354.780426 48.42565 
L 355.515253 46.857515 
L 355.881475 46.349663 
L 356.246884 46.058123 
L 356.611503 45.960797 
L 357.338531 46.10785 
L 358.423937 46.395666 
L 359.144232 46.318318 
L 359.86214 45.934541 
L 360.578001 45.266616 
L 361.291835 44.318007 
L 362.358056 42.684373 
L 362.712278 42.383604 
L 363.06599 42.379665 
L 363.419236 42.73449 
L 363.772053 43.444716 
L 364.476555 45.727298 
L 365.179753 48.90218 
L 366.232381 54.817679 
L 367.282268 61.677051 
L 368.676603 72.249019 
L 369.02436 73.285522 
L 369.371873 72.761434 
L 370.75799 66.457423 
L 371.447157 65.313594 
L 371.790369 64.776443 
L 372.132529 63.847572 
L 372.813415 60.501298 
L 373.489267 56.960807 
L 373.825158 55.879924 
L 374.159684 55.381447 
L 374.492895 55.368342 
L 375.485379 56.120641 
L 375.814073 56.193786 
L 376.141808 56.10907 
L 376.794622 55.539463 
L 377.7681 54.202294 
L 378.091319 53.389801 
L 379.057866 48.565993 
L 379.379313 47.909793 
L 379.700736 48.070132 
L 380.022415 48.95275 
L 380.991578 52.914035 
L 381.316962 53.200159 
L 381.643884 52.668327 
L 382.63299 49.572286 
L 382.964664 49.102789 
L 383.296734 48.904919 
L 383.960518 48.869604 
L 384.291884 48.999825 
L 385.283876 49.806212 
L 385.614074 49.81079 
L 386.274233 49.404062 
L 387.265019 48.556919 
L 387.926347 48.334847 
L 388.257075 48.382061 
L 388.587877 48.572726 
L 388.918863 48.988391 
L 389.250195 49.798794 
L 389.582046 51.279425 
L 389.914591 53.729169 
L 390.248056 57.557607 
L 390.582713 63.580425 
L 390.91879 73.178906 
L 392.273216 127.520645 
L 392.952355 130.401696 
L 393.2914 136.652525 
L 393.967074 153.077959 
L 394.303221 155.149667 
L 394.638003 154.29749 
L 394.971302 153.772075 
L 395.303025 155.634176 
L 395.961384 162.064334 
L 396.287827 163.836848 
L 396.612314 164.503451 
L 396.93477 164.862579 
L 397.255157 165.661527 
L 397.889823 168.809229 
L 398.827591 173.343905 
L 399.136709 173.888332 
L 399.44424 173.617107 
L 400.359038 170.594951 
L 400.662148 170.738467 
L 401.267181 172.912126 
L 401.569582 174.107007 
L 401.872209 174.751585 
L 402.175276 174.669652 
L 402.479008 174.031671 
L 403.396831 171.40435 
L 404.32748 170.043185 
L 405.578573 166.683492 
L 407.12005 163.471197 
L 408.602412 160.755452 
L 409.748579 159.064908 
L 411.430001 157.042377 
L 411.987789 156.604603 
L 412.54624 156.384831 
L 413.106289 156.355103 
L 413.668612 156.596159 
L 414.232481 157.301381 
L 415.92942 160.234282 
L 416.779419 160.956366 
L 417.631256 161.36706 
L 418.201958 161.433119 
L 419.064511 161.447187 
L 419.644571 161.767288 
L 420.522496 162.32548 
L 421.112787 162.366845 
L 421.706288 162.109178 
L 422.899931 161.226632 
L 425.018365 159.51819 
L 425.325897 159.499783 
L 425.635045 159.599924 
L 426.258637 160.169231 
L 427.529379 161.853515 
L 427.85238 161.939937 
L 428.17762 161.700554 
L 430.177718 158.820478 
L 430.863339 156.15634 
L 431.558527 153.629003 
L 432.263231 151.980342 
L 432.619045 150.713931 
L 433.699717 143.660753 
L 434.064275 144.293693 
L 434.430959 145.873584 
L 434.799733 146.882903 
L 435.543668 147.377017 
L 435.918989 148.247742 
L 436.676504 150.657032 
L 437.058715 151.144908 
L 437.443235 151.018984 
L 438.610682 149.71199 
L 439.400275 148.102391 
L 441.411586 143.361554 
L 442.230681 141.826699 
L 442.643294 141.342873 
L 443.057933 141.057713 
L 443.474588 140.929757 
L 443.893248 140.935957 
L 444.736519 141.308894 
L 445.586782 142.152143 
L 447.297504 144.533373 
L 448.152998 145.911884 
L 449.005843 147.831528 
L 449.854315 150.254115 
L 450.696915 152.726426 
L 451.94716 155.714664 
L 452.359753 155.949387 
L 452.770076 156.003728 
L 453.178025 156.350387 
L 453.583479 157.127278 
L 455.178173 161.5703 
L 455.56956 163.459702 
L 456.343133 169.235254 
L 456.725164 170.852653 
L 457.103914 171.256751 
L 457.851285 171.19195 
L 458.219779 170.993884 
L 458.946059 170.230616 
L 459.303692 170.510603 
L 459.657612 171.47886 
L 460.35448 174.051245 
L 460.697557 174.803686 
L 461.706384 176.039261 
L 462.686137 178.651756 
L 463.006386 178.785892 
L 463.637529 178.277689 
L 464.561945 177.391462 
L 465.164897 176.515084 
L 465.75926 174.759659 
L 466.347423 172.873669 
L 466.931842 171.88235 
L 467.806406 171.065423 
L 468.39173 169.746067 
L 469.870614 165.638903 
L 472.790747 158.20172 
L 473.352861 157.313775 
L 473.907341 156.768485 
L 474.454766 156.509907 
L 474.996008 156.506697 
L 475.531803 156.758814 
L 477.111434 157.80667 
L 477.63071 157.879283 
L 478.147571 157.763636 
L 478.662949 157.463229 
L 480.210366 156.271196 
L 480.988567 155.97563 
L 481.510729 156.068127 
L 482.036814 156.644289 
L 482.835752 158.36143 
L 484.764733 162.648553 
L 485.048618 162.872254 
L 485.334646 162.62638 
L 485.913265 161.552731 
L 486.205899 161.688045 
L 486.797832 162.708335 
L 487.398503 162.753592 
L 487.70199 163.7101 
L 488.31492 167.187611 
L 488.624237 167.985157 
L 488.9354 168.096545 
L 489.248392 167.819649 
L 490.198501 166.279727 
L 491.491757 164.211814 
L 491.81981 164.027889 
L 492.149758 164.316191 
L 492.815276 165.245111 
L 493.488217 165.637242 
L 493.827571 165.664682 
L 494.168973 165.559059 
L 494.85808 164.934526 
L 495.907665 163.68681 
L 496.26185 163.534709 
L 497.699807 163.338489 
L 498.801633 163.863427 
L 499.173521 163.395175 
L 499.547722 162.517702 
L 500.303048 159.72643 
L 501.067326 155.60285 
L 502.229197 148.691051 
L 502.620466 147.205543 
L 503.013696 146.932613 
L 503.806177 148.026394 
L 504.205503 148.673995 
L 505.010534 150.948065 
L 505.416328 152.099466 
L 505.824328 152.867976 
L 506.234515 153.112405 
L 506.646859 152.937793 
L 507.061345 152.536364 
L 507.477948 151.941025 
L 508.317325 150.024356 
L 509.591287 146.639681 
L 510.882652 144.496902 
L 511.753064 142.419232 
L 512.630977 141.206515 
L 513.07271 139.837446 
L 513.961607 135.452005 
L 514.408744 134.732346 
L 514.857672 135.076806 
L 515.308388 136.04896 
L 516.21517 138.65733 
L 516.671228 140.377589 
L 517.588776 144.77595 
L 518.050283 146.209652 
L 518.513611 147.014183 
L 518.978752 147.457548 
L 519.445684 147.633887 
L 519.914388 147.536857 
L 520.384846 147.215389 
L 520.857035 146.661597 
L 521.330935 145.8597 
L 522.283816 143.519747 
L 522.762774 142.323175 
L 523.243398 141.640331 
L 524.695196 140.629003 
L 525.671257 139.124564 
L 526.16172 138.201567 
L 526.653796 136.446171 
L 527.147475 134.215344 
L 527.642748 132.92842 
L 528.139612 132.965714 
L 529.138082 134.689631 
L 529.63968 135.648734 
L 530.142845 137.336361 
L 531.153849 142.327293 
L 531.661675 144.117289 
L 532.171041 145.18065 
L 533.194373 146.672128 
L 533.708329 147.217057 
L 534.223802 147.297789 
L 534.740781 146.97237 
L 535.259254 146.436615 
L 535.779214 145.717077 
L 536.823558 143.893861 
L 537.347929 143.722288 
L 537.873757 144.531171 
L 538.401034 145.870014 
L 538.929754 146.754318 
L 539.459908 146.536508 
L 539.991491 145.708573 
L 540.524495 144.648706 
L 541.058914 142.537865 
L 542.131989 134.982017 
L 542.670646 133.605642 
L 543.210723 134.351122 
L 543.75222 136.934726 
L 545.932087 150.665545 
L 547.029995 155.391073 
L 547.58092 157.295907 
L 548.133177 158.723217 
L 548.686771 159.368163 
L 549.241701 159.259371 
L 550.355522 157.960795 
L 550.914381 157.230313 
L 551.474517 156.188728 
L 552.598553 153.149984 
L 553.162433 152.826183 
L 553.727546 154.825324 
L 554.293885 157.840609 
L 554.861437 159.41365 
L 555.430195 158.712218 
L 556.000153 156.614642 
L 556.571312 153.361822 
L 557.143678 146.495479 
L 557.717277 136.762743 
L 558.292162 129.307037 
L 558.868416 126.80925 
L 559.446107 130.234288 
L 561.187709 150.882051 
L 562.939308 171.331374 
L 563.524794 174.332174 
L 564.111163 174.525732 
L 564.698514 173.021046 
L 565.286906 170.540489 
L 567.058477 161.787276 
L 567.651088 161.203813 
L 568.244721 163.189886 
L 568.839369 165.989611 
L 569.435015 168.13126 
L 570.031637 169.342569 
L 570.629235 169.860136 
L 571.227835 169.803514 
L 571.827478 169.114552 
L 572.428228 167.749212 
L 573.03012 165.762012 
L 574.237309 160.628486 
L 574.842531 159.556015 
L 575.448791 159.813175 
L 576.664325 160.867545 
L 577.273598 161.246119 
L 577.883904 161.063796 
L 579.107792 159.251453 
L 579.721433 158.915656 
L 580.336205 159.300369 
L 581.569122 161.310784 
L 582.187229 161.664534 
L 582.806382 160.526581 
L 583.426564 157.365751 
L 584.047759 152.899265 
L 584.669952 149.636005 
L 585.293137 149.32133 
L 587.168715 153.595418 
L 589.053457 162.055125 
L 589.68366 163.71705 
L 590.31477 164.603058 
L 590.946748 164.102512 
L 592.847581 158.418089 
L 593.482808 159.753038 
L 594.118891 164.429537 
L 594.755877 168.140204 
L 595.393831 169.310831 
L 596.032791 169.004078 
L 596.672734 167.997396 
L 597.955482 165.368931 
L 598.598231 164.44686 
L 599.241921 164.105386 
L 599.886593 164.630338 
L 600.532154 166.309784 
L 601.825307 170.504611 
L 602.47254 171.681584 
L 603.120016 171.602532 
L 603.76768 170.426201 
L 605.712352 165.40936 
L 607.011661 162.735272 
L 607.662489 161.76632 
L 608.314049 161.090499 
L 608.966225 160.71374 
L 609.618908 160.588519 
L 610.925682 160.748489 
L 611.579861 160.982948 
L 612.23475 161.434991 
L 612.89021 162.307824 
L 614.201588 165.167646 
L 614.85693 165.527564 
L 615.511632 161.709658 
L 616.165402 153.431593 
L 616.817994 146.678911 
L 617.469189 145.464109 
L 618.118777 146.39829 
L 618.766577 144.587153 
L 619.412423 137.837809 
L 620.056151 128.934007 
L 620.697593 122.424276 
L 621.336579 119.341465 
L 621.972941 118.862439 
L 622.606518 118.911634 
L 623.237154 117.064443 
L 624.489028 109.320338 
L 625.109995 106.771845 
L 625.727479 106.422207 
L 626.341367 108.510532 
L 626.951556 114.780996 
L 627.557955 123.150363 
L 628.160478 128.932518 
L 628.759043 129.826117 
L 629.353577 127.544408 
L 632.263812 114.676834 
L 633.39805 110.578983 
L 636.695838 96.535983 
L 637.229619 94.78031 
L 637.758713 93.877585 
L 638.283087 93.757945 
L 638.802726 94.194717 
L 639.317624 95.397355 
L 639.827783 98.732981 
L 640.83393 108.254298 
L 641.329997 110.696911 
L 641.821498 111.169005 
L 642.308529 110.256295 
L 643.74374 105.515191 
L 644.679706 101.5508 
L 645.141701 100.437736 
L 645.599877 100.674401 
L 646.054366 101.497494 
L 646.505314 101.646492 
L 646.95292 100.279036 
L 647.839262 93.579058 
L 648.278667 90.375156 
L 649.151425 86.6804 
L 649.585331 84.787063 
L 650.017924 82.012739 
L 650.879931 73.943638 
L 651.738467 65.741706 
L 652.166594 63.894968 
L 652.594016 63.121087 
L 653.020705 61.360863 
L 653.871484 53.202407 
L 654.29506 49.175957 
L 654.716866 46.34611 
L 655.136517 44.72731 
L 655.553736 44.0424 
L 655.968376 43.974564 
L 656.38039 44.30356 
L 657.601578 45.967255 
L 658.004388 46.287486 
L 658.804669 46.453742 
L 660.779839 46.499293 
L 661.954968 46.873351 
L 662.738704 47.181503 
L 663.131267 47.219923 
L 663.524456 47.013776 
L 663.918308 46.405059 
L 664.312843 45.428807 
L 664.708121 44.976367 
L 665.104257 47.885296 
L 665.501407 58.831793 
L 666.701032 127.19942 
L 667.104531 127.1688 
L 667.510096 118.281604 
L 667.91781 114.901015 
L 668.32776 122.752231 
L 669.154548 155.634576 
L 669.571349 159.268965 
L 669.990354 155.634298 
L 670.411522 149.303767 
L 670.834808 145.290527 
L 671.260158 145.833463 
L 671.687533 148.407667 
L 672.116901 149.589259 
L 672.548235 148.018236 
L 672.981515 143.939921 
L 673.416729 130.04593 
L 673.853852 110.447065 
L 674.292826 100.244405 
L 674.733602 112.108471 
L 675.176208 169.534284 
L 675.620625 185.999244 
L 676.066741 182.504506 
L 676.514585 157.456605 
L 676.964252 104.303154 
L 677.415686 96.355409 
L 677.868837 110.015598 
L 678.323758 153.34122 
L 678.780476 169.619009 
L 679.238964 163.553293 
L 679.513182 150.495721 
L 679.513182 150.495721 
" clip-path="url(#pf11f3fe47e)" style="fill: none; stroke: #d62728; stroke-opacity: 0.8; stroke-width: 0.9; stroke-linecap: square"/>
   </g>
   <g id="patch_3">
    <path d="M 56.09 246.04 
L 56.09 26.88 
" style="fill: none; stroke: #000000; stroke-width: 0.8; stroke-linejoin: miter; stroke-linecap: square"/>
   </g>
   <g id="patch_4">
    <path d="M 709.2 246.04 
L 709.2 26.88 
" style="fill: none; stroke: #000000; stroke-width: 0.8; stroke-linejoin: miter; stroke-linecap: square"/>
   </g>
   <g id="patch_5">
    <path d="M 56.09 246.04 
L 709.2 246.04 
" style="fill: none; stroke: #000000; stroke-width: 0.8; stroke-linejoin: miter; stroke-linecap: square"/>
   </g>
   <g id="patch_6">
    <path d="M 56.09 26.88 
L 709.2 26.88 
" style="fill: none; stroke: #000000; stroke-width: 0.8; stroke-linejoin: miter; stroke-linecap: square"/>
   </g>
   <g id="text_17">
    <!-- steering-link loads over one Kinnekulle Ring lap -->
    <g transform="translate(239.711875 20.88) scale(0.12 -0.12)">
     <defs>
      <path id="DejaVuSans-67" d="M 2906 1791 
Q 2906 2416 2648 2759 
Q 2391 3103 1925 3103 
Q 1463 3103 1205 2759 
Q 947 2416 947 1791 
Q 947 1169 1205 825 
Q 1463 481 1925 481 
Q 2391 481 2648 825 
Q 2906 1169 2906 1791 
z
M 3481 434 
Q 3481 -459 3084 -895 
Q 2688 -1331 1869 -1331 
Q 1566 -1331 1297 -1286 
Q 1028 -1241 775 -1147 
L 775 -588 
Q 1028 -725 1275 -790 
Q 1522 -856 1778 -856 
Q 2344 -856 2625 -561 
Q 2906 -266 2906 331 
L 2906 616 
Q 2728 306 2450 153 
Q 2172 0 1784 0 
Q 1141 0 747 490 
Q 353 981 353 1791 
Q 353 2603 747 3093 
Q 1141 3584 1784 3584 
Q 2172 3584 2450 3431 
Q 2728 3278 2906 2969 
L 2906 3500 
L 3481 3500 
L 3481 434 
z
" transform="scale(0.015625)"/>
      <path id="DejaVuSans-6c" d="M 603 4863 
L 1178 4863 
L 1178 0 
L 603 0 
L 603 4863 
z
" transform="scale(0.015625)"/>
      <path id="DejaVuSans-76" d="M 191 3500 
L 800 3500 
L 1894 563 
L 2988 3500 
L 3597 3500 
L 2284 0 
L 1503 0 
L 191 3500 
z
" transform="scale(0.015625)"/>
      <path id="DejaVuSans-4b" d="M 628 4666 
L 1259 4666 
L 1259 2694 
L 3353 4666 
L 4166 4666 
L 1850 2491 
L 4331 0 
L 3500 0 
L 1259 2247 
L 1259 0 
L 628 0 
L 628 4666 
z
" transform="scale(0.015625)"/>
      <path id="DejaVuSans-75" d="M 544 1381 
L 544 3500 
L 1119 3500 
L 1119 1403 
Q 1119 906 1312 657 
Q 1506 409 1894 409 
Q 2359 409 2629 706 
Q 2900 1003 2900 1516 
L 2900 3500 
L 3475 3500 
L 3475 0 
L 2900 0 
L 2900 538 
Q 2691 219 2414 64 
Q 2138 -91 1772 -91 
Q 1169 -91 856 284 
Q 544 659 544 1381 
z
M 1991 3584 
L 1991 3584 
z
" transform="scale(0.015625)"/>
      <path id="DejaVuSans-52" d="M 2841 2188 
Q 3044 2119 3236 1894 
Q 3428 1669 3622 1275 
L 4263 0 
L 3584 0 
L 2988 1197 
Q 2756 1666 2539 1819 
Q 2322 1972 1947 1972 
L 1259 1972 
L 1259 0 
L 628 0 
L 628 4666 
L 2053 4666 
Q 2853 4666 3247 4331 
Q 3641 3997 3641 3322 
Q 3641 2881 3436 2590 
Q 3231 2300 2841 2188 
z
M 1259 4147 
L 1259 2491 
L 2053 2491 
Q 2509 2491 2742 2702 
Q 2975 2913 2975 3322 
Q 2975 3731 2742 3939 
Q 2509 4147 2053 4147 
L 1259 4147 
z
" transform="scale(0.015625)"/>
      <path id="DejaVuSans-70" d="M 1159 525 
L 1159 -1331 
L 581 -1331 
L 581 3500 
L 1159 3500 
L 1159 2969 
Q 1341 3281 1617 3432 
Q 1894 3584 2278 3584 
Q 2916 3584 3314 3078 
Q 3713 2572 3713 1747 
Q 3713 922 3314 415 
Q 2916 -91 2278 -91 
Q 1894 -91 1617 61 
Q 1341 213 1159 525 
z
M 3116 1747 
Q 3116 2381 2855 2742 
Q 2594 3103 2138 3103 
Q 1681 3103 1420 2742 
Q 1159 2381 1159 1747 
Q 1159 1113 1420 752 
Q 1681 391 2138 391 
Q 2594 391 2855 752 
Q 3116 1113 3116 1747 
z
" transform="scale(0.015625)"/>
     </defs>
     <use xlink:href="#DejaVuSans-73"/>
     <use xlink:href="#DejaVuSans-74" transform="translate(52.099609 0)"/>
     <use xlink:href="#DejaVuSans-65" transform="translate(91.308594 0)"/>
     <use xlink:href="#DejaVuSans-65" transform="translate(152.832031 0)"/>
     <use xlink:href="#DejaVuSans-72" transform="translate(214.355469 0)"/>
     <use xlink:href="#DejaVuSans-69" transform="translate(255.46875 0)"/>
     <use xlink:href="#DejaVuSans-6e" transform="translate(283.251953 0)"/>
     <use xlink:href="#DejaVuSans-67" transform="translate(346.630859 0)"/>
     <use xlink:href="#DejaVuSans-2d" transform="translate(410.107422 0)"/>
     <use xlink:href="#DejaVuSans-6c" transform="translate(446.191406 0)"/>
     <use xlink:href="#DejaVuSans-69" transform="translate(473.974609 0)"/>
     <use xlink:href="#DejaVuSans-6e" transform="translate(501.757812 0)"/>
     <use xlink:href="#DejaVuSans-6b" transform="translate(565.136719 0)"/>
     <use xlink:href="#DejaVuSans-20" transform="translate(623.046875 0)"/>
     <use xlink:href="#DejaVuSans-6c" transform="translate(654.833984 0)"/>
     <use xlink:href="#DejaVuSans-6f" transform="translate(682.617188 0)"/>
     <use xlink:href="#DejaVuSans-61" transform="translate(743.798828 0)"/>
     <use xlink:href="#DejaVuSans-64" transform="translate(805.078125 0)"/>
     <use xlink:href="#DejaVuSans-73" transform="translate(868.554688 0)"/>
     <use xlink:href="#DejaVuSans-20" transform="translate(920.654297 0)"/>
     <use xlink:href="#DejaVuSans-6f" transform="translate(952.441406 0)"/>
     <use xlink:href="#DejaVuSans-76" transform="translate(1013.623047 0)"/>
     <use xlink:href="#DejaVuSans-65" transform="translate(1072.802734 0)"/>
     <use xlink:href="#DejaVuSans-72" transform="translate(1134.326172 0)"/>
     <use xlink:href="#DejaVuSans-20" transform="translate(1175.439453 0)"/>
     <use xlink:href="#DejaVuSans-6f" transform="translate(1207.226562 0)"/>
     <use xlink:href="#DejaVuSans-6e" transform="translate(1268.408203 0)"/>
     <use xlink:href="#DejaVuSans-65" transform="translate(1331.787109 0)"/>
     <use xlink:href="#DejaVuSans-20" transform="translate(1393.310547 0)"/>
     <use xlink:href="#DejaVuSans-4b" transform="translate(1425.097656 0)"/>
     <use xlink:href="#DejaVuSans-69" transform="translate(1490.673828 0)"/>
     <use xlink:href="#DejaVuSans-6e" transform="translate(1518.457031 0)"/>
     <use xlink:href="#DejaVuSans-6e" transform="translate(1581.835938 0)"/>
     <use xlink:href="#DejaVuSans-65" transform="translate(1645.214844 0)"/>
     <use xlink:href="#DejaVuSans-6b" transform="translate(1706.738281 0)"/>
     <use xlink:href="#DejaVuSans-75" transform="translate(1761.523438 0)"/>
     <use xlink:href="#DejaVuSans-6c" transform="translate(1824.902344 0)"/>
     <use xlink:href="#DejaVuSans-6c" transform="translate(1852.685547 0)"/>
     <use xlink:href="#DejaVuSans-65" transform="translate(1880.46875 0)"/>
     <use xlink:href="#DejaVuSans-20" transform="translate(1941.992188 0)"/>
     <use xlink:href="#DejaVuSans-52" transform="translate(1973.779297 0)"/>
     <use xlink:href="#DejaVuSans-69" transform="translate(2043.261719 0)"/>
     <use xlink:href="#DejaVuSans-6e" transform="translate(2071.044922 0)"/>
     <use xlink:href="#DejaVuSans-67" transform="translate(2134.423828 0)"/>
     <use xlink:href="#DejaVuSans-20" transform="translate(2197.900391 0)"/>
     <use xlink:href="#DejaVuSans-6c" transform="translate(2229.6875 0)"/>
     <use xlink:href="#DejaVuSans-61" transform="translate(2257.470703 0)"/>
     <use xlink:href="#DejaVuSans-70" transform="translate(2318.75 0)"/>
    </g>
   </g>
   <g id="legend_1">
    <g id="patch_7">
     <path d="M 61.69 56.765 
L 134.535 56.765 
Q 136.135 56.765 136.135 55.165 
L 136.135 32.48 
Q 136.135 30.88 134.535 30.88 
L 61.69 30.88 
Q 60.09 30.88 60.09 32.48 
L 60.09 55.165 
Q 60.09 56.765 61.69 56.765 
z
" style="fill: #ffffff; opacity: 0.8; stroke: #cccccc; stroke-linejoin: miter"/>
    </g>
    <g id="line2d_31">
     <path d="M 63.29 37.35875 
L 71.29 37.35875 
L 79.29 37.35875 
" style="fill: none; stroke: #2ca02c; stroke-width: 0.9; stroke-linecap: square"/>
    </g>
    <g id="text_18">
     <!-- tie rod left -->
     <g transform="translate(85.69 40.15875) scale(0.08 -0.08)">
      <use xlink:href="#DejaVuSans-74"/>
      <use xlink:href="#DejaVuSans-69" transform="translate(39.208984 0)"/>
      <use xlink:href="#DejaVuSans-65" transform="translate(66.992188 0)"/>
      <use xlink:href="#DejaVuSans-20" transform="translate(128.515625 0)"/>
      <use xlink:href="#DejaVuSans-72" transform="translate(160.302734 0)"/>
      <use xlink:href="#DejaVuSans-6f" transform="translate(199.166016 0)"/>
      <use xlink:href="#DejaVuSans-64" transform="translate(260.347656 0)"/>
      <use xlink:href="#DejaVuSans-20" transform="translate(323.824219 0)"/>
      <use xlink:href="#DejaVuSans-6c" transform="translate(355.611328 0)"/>
      <use xlink:href="#DejaVuSans-65" transform="translate(383.394531 0)"/>
      <use xlink:href="#DejaVuSans-66" transform="translate(444.917969 0)"/>
      <use xlink:href="#DejaVuSans-74" transform="translate(478.373047 0)"/>
     </g>
    </g>
    <g id="line2d_32">
     <path d="M 63.29 49.10125 
L 71.29 49.10125 
L 79.29 49.10125 
" style="fill: none; stroke: #d62728; stroke-opacity: 0.8; stroke-width: 0.9; stroke-linecap: square"/>
    </g>
    <g id="text_19">
     <!-- tie rod right -->
     <g transform="translate(85.69 51.90125) scale(0.08 -0.08)">
      <defs>
       <path id="DejaVuSans-68" d="M 3513 2113 
L 3513 0 
L 2938 0 
L 2938 2094 
Q 2938 2591 2744 2837 
Q 2550 3084 2163 3084 
Q 1697 3084 1428 2787 
Q 1159 2491 1159 1978 
L 1159 0 
L 581 0 
L 581 4863 
L 1159 4863 
L 1159 2956 
Q 1366 3272 1645 3428 
Q 1925 3584 2291 3584 
Q 2894 3584 3203 3211 
Q 3513 2838 3513 2113 
z
" transform="scale(0.015625)"/>
      </defs>
      <use xlink:href="#DejaVuSans-74"/>
      <use xlink:href="#DejaVuSans-69" transform="translate(39.208984 0)"/>
      <use xlink:href="#DejaVuSans-65" transform="translate(66.992188 0)"/>
      <use xlink:href="#DejaVuSans-20" transform="translate(128.515625 0)"/>
      <use xlink:href="#DejaVuSans-72" transform="translate(160.302734 0)"/>
      <use xlink:href="#DejaVuSans-6f" transform="translate(199.166016 0)"/>
      <use xlink:href="#DejaVuSans-64" transform="translate(260.347656 0)"/>
      <use xlink:href="#DejaVuSans-20" transform="translate(323.824219 0)"/>
      <use xlink:href="#DejaVuSans-72" transform="translate(355.611328 0)"/>
      <use xlink:href="#DejaVuSans-69" transform="translate(396.724609 0)"/>
      <use xlink:href="#DejaVuSans-67" transform="translate(424.507812 0)"/>
      <use xlink:href="#DejaVuSans-68" transform="translate(487.984375 0)"/>
      <use xlink:href="#DejaVuSans-74" transform="translate(551.363281 0)"/>
     </g>
    </g>
   </g>
  </g>
 </g>
 <defs>
  <clipPath id="pf11f3fe47e">
   <rect x="56.09" y="26.88" width="653.11" height="219.16"/>
  </clipPath>
 </defs>
</svg>
