<?xml version="1.0" encoding="utf-8" standalone="no"?>
<!DOCTYPE svg PUBLIC "-//W3C//DTD SVG 1.1//EN"
  "http://www.w3.org/Graphics/SVG/1.1/DTD/svg11.dtd">
<svg xmlns:xlink="http://www.w3.org/1999/xlink" width="720pt" height="288pt" viewBox="0 0 720 288" xmlns="http://www.w3.org/2000/svg" version="1.1">
 <metadata>
  <rdf:RDF xmlns:dc="http://purl.org/dc/elements/1.1/" xmlns:cc="http://creativecommons.org/ns#" xmlns:rdf="http://www.w3.org/1999/02/22-rdf-syntax-ns#">
   <cc:Work>
    <dc:type rdf:resource="http://purl.org/dc/dcmitype/StillImage"/>
    <dc:date>2026-07-08T10:14:40.421036</dc:date>
    <dc:format>image/svg+xml</dc:format>
    <dc:creator>
     <cc:Agent>
      <dc:title>Matplotlib v3.10.8, https://matplotlib.org/</dc:title>
     </cc:Agent>
    </dc:creator>
   </cc:Work>
  </rdf:RDF>
 </metadata>
 <defs>
  <style type="text/css">*{stroke-linejoin: round; stroke-linecap: butt}</style>
 </defs>
 <g id="figure_1">
  <g id="patch_1">
   <path d="M 0 288 
L 720 288 
L 720 0 
L 0 0 
z
" style="fill: #ffffff"/>
  </g>
  <g id="axes_1">
   <g id="patch_2">
    <path d="M 56.09 246.04 
L 709.2 246.04 
L 709.2 26.88 
L 56.09 26.88 
z
" style="fill: #ffffff"/>
   </g>
   <g id="matplotlib.axis_1">
    <g id="xtick_1">
     <g id="line2d_1">
      <path d="M 85.776818 246.04 
L 85.776818 26.88 
" clip-path="url(#p5937dc6ad6)" style="fill: none; stroke: #b0b0b0; stroke-opacity: 0.3; stroke-width: 0.8; stroke-linecap: square"/>
     </g>
     <g id="line2d_2">
      <defs>
       <path id="m54f554675b" d="M 0 0 
L 0 3.5 
" style="stroke: #000000; stroke-width: 0.8"/>
      </defs>
      <g>
       <use xlink:href="#m54f554675b" x="85.776818" y="246.04" style="stroke: #000000; stroke-width: 0.8"/>
      </g>
     </g>
     <g id="text_1">
      <!-- 0.0 -->
      <g transform="translate(77.825256 260.638438) scale(0.1 -0.1)">
       <defs>
        <path id="DejaVuSans-30" d="M 2034 4250 
Q 1547 4250 1301 3770 
Q 1056 3291 1056 2328 
Q 1056 1369 1301 889 
Q 1547 409 2034 409 
Q 2525 409 2770 889 
Q 3016 1369 3016 2328 
Q 3016 3291 2770 3770 
Q 2525 4250 2034 4250 
z
M 2034 4750 
Q 2819 4750 3233 4129 
Q 3647 3509 3647 2328 
Q 3647 1150 3233 529 
Q 2819 -91 2034 -91 
Q 1250 -91 836 529 
Q 422 1150 422 2328 
Q 422 3509 836 4129 
Q 1250 4750 2034 4750 
z
" transform="scale(0.015625)"/>
        <path id="DejaVuSans-2e" d="M 684 794 
L 1344 794 
L 1344 0 
L 684 0 
L 684 794 
z
" transform="scale(0.015625)"/>
       </defs>
       <use xlink:href="#DejaVuSans-30"/>
       <use xlink:href="#DejaVuSans-2e" transform="translate(63.623047 0)"/>
       <use xlink:href="#DejaVuSans-30" transform="translate(95.410156 0)"/>
      </g>
     </g>
    </g>
    <g id="xtick_2">
     <g id="line2d_3">
      <path d="M 230.23822 246.04 
L 230.23822 26.88 
" clip-path="url(#p5937dc6ad6)" style="fill: none; stroke: #b0b0b0; stroke-opacity: 0.3; stroke-width: 0.8; stroke-linecap: square"/>
     </g>
     <g id="line2d_4">
      <g>
       <use xlink:href="#m54f554675b" x="230.23822" y="246.04" style="stroke: #000000; stroke-width: 0.8"/>
      </g>
     </g>
     <g id="text_2">
      <!-- 0.5 -->
      <g transform="translate(222.286658 260.638438) scale(0.1 -0.1)">
       <defs>
        <path id="DejaVuSans-35" d="M 691 4666 
L 3169 4666 
L 3169 4134 
L 1269 4134 
L 1269 2991 
Q 1406 3038 1543 3061 
Q 1681 3084 1819 3084 
Q 2600 3084 3056 2656 
Q 3513 2228 3513 1497 
Q 3513 744 3044 326 
Q 2575 -91 1722 -91 
Q 1428 -91 1123 -41 
Q 819 9 494 109 
L 494 744 
Q 775 591 1075 516 
Q 1375 441 1709 441 
Q 2250 441 2565 725 
Q 2881 1009 2881 1497 
Q 2881 1984 2565 2268 
Q 2250 2553 1709 2553 
Q 1456 2553 1204 2497 
Q 953 2441 691 2322 
L 691 4666 
z
" transform="scale(0.015625)"/>
       </defs>
       <use xlink:href="#DejaVuSans-30"/>
       <use xlink:href="#DejaVuSans-2e" transform="translate(63.623047 0)"/>
       <use xlink:href="#DejaVuSans-35" transform="translate(95.410156 0)"/>
      </g>
     </g>
    </g>
    <g id="xtick_3">
     <g id="line2d_5">
      <path d="M 374.699623 246.04 
L 374.699623 26.88 
" clip-path="url(#p5937dc6ad6)" style="fill: none; stroke: #b0b0b0; stroke-opacity: 0.3; stroke-width: 0.8; stroke-linecap: square"/>
     </g>
     <g id="line2d_6">
      <g>
       <use xlink:href="#m54f554675b" x="374.699623" y="246.04" style="stroke: #000000; stroke-width: 0.8"/>
      </g>
     </g>
     <g id="text_3">
      <!-- 1.0 -->
      <g transform="translate(366.74806 260.638438) scale(0.1 -0.1)">
       <defs>
        <path id="DejaVuSans-31" d="M 794 531 
L 1825 531 
L 1825 4091 
L 703 3866 
L 703 4441 
L 1819 4666 
L 2450 4666 
L 2450 531 
L 3481 531 
L 3481 0 
L 794 0 
L 794 531 
z
" transform="scale(0.015625)"/>
       </defs>
       <use xlink:href="#DejaVuSans-31"/>
       <use xlink:href="#DejaVuSans-2e" transform="translate(63.623047 0)"/>
       <use xlink:href="#DejaVuSans-30" transform="translate(95.410156 0)"/>
      </g>
     </g>
    </g>
    <g id="xtick_4">
     <g id="line2d_7">
      <path d="M 519.161025 246.04 
L 519.161025 26.88 
" clip-path="url(#p5937dc6ad6)" style="fill: none; stroke: #b0b0b0; stroke-opacity: 0.3; stroke-width: 0.8; stroke-linecap: square"/>
     </g>
     <g id="line2d_8">
      <g>
       <use xlink:href="#m54f554675b" x="519.161025" y="246.04" style="stroke: #000000; stroke-width: 0.8"/>
      </g>
     </g>
     <g id="text_4">
      <!-- 1.5 -->
      <g transform="translate(511.209463 260.638438) scale(0.1 -0.1)">
       <use xlink:href="#DejaVuSans-31"/>
       <use xlink:href="#DejaVuSans-2e" transform="translate(63.623047 0)"/>
       <use xlink:href="#DejaVuSans-35" transform="translate(95.410156 0)"/>
      </g>
     </g>
    </g>
    <g id="xtick_5">
     <g id="line2d_9">
      <path d="M 663.622427 246.04 
L 663.622427 26.88 
" clip-path="url(#p5937dc6ad6)" style="fill: none; stroke: #b0b0b0; stroke-opacity: 0.3; stroke-width: 0.8; stroke-linecap: square"/>
     </g>
     <g id="line2d_10">
      <g>
       <use xlink:href="#m54f554675b" x="663.622427" y="246.04" style="stroke: #000000; stroke-width: 0.8"/>
      </g>
     </g>
     <g id="text_5">
      <!-- 2.0 -->
      <g transform="translate(655.670865 260.638438) scale(0.1 -0.1)">
       <defs>
        <path id="DejaVuSans-32" d="M 1228 531 
L 3431 531 
L 3431 0 
L 469 0 
L 469 531 
Q 828 903 1448 1529 
Q 2069 2156 2228 2338 
Q 2531 2678 2651 2914 
Q 2772 3150 2772 3378 
Q 2772 3750 2511 3984 
Q 2250 4219 1831 4219 
Q 1534 4219 1204 4116 
Q 875 4013 500 3803 
L 500 4441 
Q 881 4594 1212 4672 
Q 1544 4750 1819 4750 
Q 2544 4750 2975 4387 
Q 3406 4025 3406 3419 
Q 3406 3131 3298 2873 
Q 3191 2616 2906 2266 
Q 2828 2175 2409 1742 
Q 1991 1309 1228 531 
z
" transform="scale(0.015625)"/>
       </defs>
       <use xlink:href="#DejaVuSans-32"/>
       <use xlink:href="#DejaVuSans-2e" transform="translate(63.623047 0)"/>
       <use xlink:href="#DejaVuSans-30" transform="translate(95.410156 0)"/>
      </g>
     </g>
    </g>
    <g id="text_6">
     <!-- distance s [km] -->
     <g transform="translate(344.008281 274.316562) scale(0.1 -0.1)">
      <defs>
       <path id="DejaVuSans-64" d="M 2906 2969 
L 2906 4863 
L 3481 4863 
L 3481 0 
L 2906 0 
L 2906 525 
Q 2725 213 2448 61 
Q 2172 -91 1784 -91 
Q 1150 -91 751 415 
Q 353 922 353 1747 
Q 353 2572 751 3078 
Q 1150 3584 1784 3584 
Q 2172 3584 2448 3432 
Q 2725 3281 2906 2969 
z
M 947 1747 
Q 947 1113 1208 752 
Q 1469 391 1925 391 
Q 2381 391 2643 752 
Q 2906 1113 2906 1747 
Q 2906 2381 2643 2742 
Q 2381 3103 1925 3103 
Q 1469 3103 1208 2742 
Q 947 2381 947 1747 
z
" transform="scale(0.015625)"/>
       <path id="DejaVuSans-69" d="M 603 3500 
L 1178 3500 
L 1178 0 
L 603 0 
L 603 3500 
z
M 603 4863 
L 1178 4863 
L 1178 4134 
L 603 4134 
L 603 4863 
z
" transform="scale(0.015625)"/>
       <path id="DejaVuSans-73" d="M 2834 3397 
L 2834 2853 
Q 2591 2978 2328 3040 
Q 2066 3103 1784 3103 
Q 1356 3103 1142 2972 
Q 928 2841 928 2578 
Q 928 2378 1081 2264 
Q 1234 2150 1697 2047 
L 1894 2003 
Q 2506 1872 2764 1633 
Q 3022 1394 3022 966 
Q 3022 478 2636 193 
Q 2250 -91 1575 -91 
Q 1294 -91 989 -36 
Q 684 19 347 128 
L 347 722 
Q 666 556 975 473 
Q 1284 391 1588 391 
Q 1994 391 2212 530 
Q 2431 669 2431 922 
Q 2431 1156 2273 1281 
Q 2116 1406 1581 1522 
L 1381 1569 
Q 847 1681 609 1914 
Q 372 2147 372 2553 
Q 372 3047 722 3315 
Q 1072 3584 1716 3584 
Q 2034 3584 2315 3537 
Q 2597 3491 2834 3397 
z
" transform="scale(0.015625)"/>
       <path id="DejaVuSans-74" d="M 1172 4494 
L 1172 3500 
L 2356 3500 
L 2356 3053 
L 1172 3053 
L 1172 1153 
Q 1172 725 1289 603 
Q 1406 481 1766 481 
L 2356 481 
L 2356 0 
L 1766 0 
Q 1100 0 847 248 
Q 594 497 594 1153 
L 594 3053 
L 172 3053 
L 172 3500 
L 594 3500 
L 594 4494 
L 1172 4494 
z
" transform="scale(0.015625)"/>
       <path id="DejaVuSans-61" d="M 2194 1759 
Q 1497 1759 1228 1600 
Q 959 1441 959 1056 
Q 959 750 1161 570 
Q 1363 391 1709 391 
Q 2188 391 2477 730 
Q 2766 1069 2766 1631 
L 2766 1759 
L 2194 1759 
z
M 3341 1997 
L 3341 0 
L 2766 0 
L 2766 531 
Q 2569 213 2275 61 
Q 1981 -91 1556 -91 
Q 1019 -91 701 211 
Q 384 513 384 1019 
Q 384 1609 779 1909 
Q 1175 2209 1959 2209 
L 2766 2209 
L 2766 2266 
Q 2766 2663 2505 2880 
Q 2244 3097 1772 3097 
Q 1472 3097 1187 3025 
Q 903 2953 641 2809 
L 641 3341 
Q 956 3463 1253 3523 
Q 1550 3584 1831 3584 
Q 2591 3584 2966 3190 
Q 3341 2797 3341 1997 
z
" transform="scale(0.015625)"/>
       <path id="DejaVuSans-6e" d="M 3513 2113 
L 3513 0 
L 2938 0 
L 2938 2094 
Q 2938 2591 2744 2837 
Q 2550 3084 2163 3084 
Q 1697 3084 1428 2787 
Q 1159 2491 1159 1978 
L 1159 0 
L 581 0 
L 581 3500 
L 1159 3500 
L 1159 2956 
Q 1366 3272 1645 3428 
Q 1925 3584 2291 3584 
Q 2894 3584 3203 3211 
Q 3513 2838 3513 2113 
z
" transform="scale(0.015625)"/>
       <path id="DejaVuSans-63" d="M 3122 3366 
L 3122 2828 
Q 2878 2963 2633 3030 
Q 2388 3097 2138 3097 
Q 1578 3097 1268 2742 
Q 959 2388 959 1747 
Q 959 1106 1268 751 
Q 1578 397 2138 397 
Q 2388 397 2633 464 
Q 2878 531 3122 666 
L 3122 134 
Q 2881 22 2623 -34 
Q 2366 -91 2075 -91 
Q 1284 -91 818 406 
Q 353 903 353 1747 
Q 353 2603 823 3093 
Q 1294 3584 2113 3584 
Q 2378 3584 2631 3529 
Q 2884 3475 3122 3366 
z
" transform="scale(0.015625)"/>
       <path id="DejaVuSans-65" d="M 3597 1894 
L 3597 1613 
L 953 1613 
Q 991 1019 1311 708 
Q 1631 397 2203 397 
Q 2534 397 2845 478 
Q 3156 559 3463 722 
L 3463 178 
Q 3153 47 2828 -22 
Q 2503 -91 2169 -91 
Q 1331 -91 842 396 
Q 353 884 353 1716 
Q 353 2575 817 3079 
Q 1281 3584 2069 3584 
Q 2775 3584 3186 3129 
Q 3597 2675 3597 1894 
z
M 3022 2063 
Q 3016 2534 2758 2815 
Q 2500 3097 2075 3097 
Q 1594 3097 1305 2825 
Q 1016 2553 972 2059 
L 3022 2063 
z
" transform="scale(0.015625)"/>
       <path id="DejaVuSans-20" transform="scale(0.015625)"/>
       <path id="DejaVuSans-5b" d="M 550 4863 
L 1875 4863 
L 1875 4416 
L 1125 4416 
L 1125 -397 
L 1875 -397 
L 1875 -844 
L 550 -844 
L 550 4863 
z
" transform="scale(0.015625)"/>
       <path id="DejaVuSans-6b" d="M 581 4863 
L 1159 4863 
L 1159 1991 
L 2875 3500 
L 3609 3500 
L 1753 1863 
L 3688 0 
L 2938 0 
L 1159 1709 
L 1159 0 
L 581 0 
L 581 4863 
z
" transform="scale(0.015625)"/>
       <path id="DejaVuSans-6d" d="M 3328 2828 
Q 3544 3216 3844 3400 
Q 4144 3584 4550 3584 
Q 5097 3584 5394 3201 
Q 5691 2819 5691 2113 
L 5691 0 
L 5113 0 
L 5113 2094 
Q 5113 2597 4934 2840 
Q 4756 3084 4391 3084 
Q 3944 3084 3684 2787 
Q 3425 2491 3425 1978 
L 3425 0 
L 2847 0 
L 2847 2094 
Q 2847 2600 2669 2842 
Q 2491 3084 2119 3084 
Q 1678 3084 1418 2786 
Q 1159 2488 1159 1978 
L 1159 0 
L 581 0 
L 581 3500 
L 1159 3500 
L 1159 2956 
Q 1356 3278 1631 3431 
Q 1906 3584 2284 3584 
Q 2666 3584 2933 3390 
Q 3200 3197 3328 2828 
z
" transform="scale(0.015625)"/>
       <path id="DejaVuSans-5d" d="M 1947 4863 
L 1947 -844 
L 622 -844 
L 622 -397 
L 1369 -397 
L 1369 4416 
L 622 4416 
L 622 4863 
L 1947 4863 
z
" transform="scale(0.015625)"/>
      </defs>
      <use xlink:href="#DejaVuSans-64"/>
      <use xlink:href="#DejaVuSans-69" transform="translate(63.476562 0)"/>
      <use xlink:href="#DejaVuSans-73" transform="translate(91.259766 0)"/>
      <use xlink:href="#DejaVuSans-74" transform="translate(143.359375 0)"/>
      <use xlink:href="#DejaVuSans-61" transform="translate(182.568359 0)"/>
      <use xlink:href="#DejaVuSans-6e" transform="translate(243.847656 0)"/>
      <use xlink:href="#DejaVuSans-63" transform="translate(307.226562 0)"/>
      <use xlink:href="#DejaVuSans-65" transform="translate(362.207031 0)"/>
      <use xlink:href="#DejaVuSans-20" transform="translate(423.730469 0)"/>
      <use xlink:href="#DejaVuSans-73" transform="translate(455.517578 0)"/>
      <use xlink:href="#DejaVuSans-20" transform="translate(507.617188 0)"/>
      <use xlink:href="#DejaVuSans-5b" transform="translate(539.404297 0)"/>
      <use xlink:href="#DejaVuSans-6b" transform="translate(578.417969 0)"/>
      <use xlink:href="#DejaVuSans-6d" transform="translate(636.328125 0)"/>
      <use xlink:href="#DejaVuSans-5d" transform="translate(733.740234 0)"/>
     </g>
    </g>
   </g>
   <g id="matplotlib.axis_2">
    <g id="ytick_1">
     <g id="line2d_11">
      <path d="M 56.09 219.922978 
L 709.2 219.922978 
" clip-path="url(#p5937dc6ad6)" style="fill: none; stroke: #b0b0b0; stroke-opacity: 0.3; stroke-width: 0.8; stroke-linecap: square"/>
     </g>
     <g id="line2d_12">
      <defs>
       <path id="me31d2a5254" d="M 0 0 
L -3.5 0 
" style="stroke: #000000; stroke-width: 0.8"/>
      </defs>
      <g>
       <use xlink:href="#me31d2a5254" x="56.09" y="219.922978" style="stroke: #000000; stroke-width: 0.8"/>
      </g>
     </g>
     <g id="text_7">
      <!-- −1.5 -->
      <g transform="translate(24.807188 223.722196) scale(0.1 -0.1)">
       <defs>
        <path id="DejaVuSans-2212" d="M 678 2272 
L 4684 2272 
L 4684 1741 
L 678 1741 
L 678 2272 
z
" transform="scale(0.015625)"/>
       </defs>
       <use xlink:href="#DejaVuSans-2212"/>
       <use xlink:href="#DejaVuSans-31" transform="translate(83.789062 0)"/>
       <use xlink:href="#DejaVuSans-2e" transform="translate(147.412109 0)"/>
       <use xlink:href="#DejaVuSans-35" transform="translate(179.199219 0)"/>
      </g>
     </g>
    </g>
    <g id="ytick_2">
     <g id="line2d_13">
      <path d="M 56.09 192.544066 
L 709.2 192.544066 
" clip-path="url(#p5937dc6ad6)" style="fill: none; stroke: #b0b0b0; stroke-opacity: 0.3; stroke-width: 0.8; stroke-linecap: square"/>
     </g>
     <g id="line2d_14">
      <g>
       <use xlink:href="#me31d2a5254" x="56.09" y="192.544066" style="stroke: #000000; stroke-width: 0.8"/>
      </g>
     </g>
     <g id="text_8">
      <!-- −1.0 -->
      <g transform="translate(24.807188 196.343285) scale(0.1 -0.1)">
       <use xlink:href="#DejaVuSans-2212"/>
       <use xlink:href="#DejaVuSans-31" transform="translate(83.789062 0)"/>
       <use xlink:href="#DejaVuSans-2e" transform="translate(147.412109 0)"/>
       <use xlink:href="#DejaVuSans-30" transform="translate(179.199219 0)"/>
      </g>
     </g>
    </g>
    <g id="ytick_3">
     <g id="line2d_15">
      <path d="M 56.09 165.165155 
L 709.2 165.165155 
" clip-path="url(#p5937dc6ad6)" style="fill: none; stroke: #b0b0b0; stroke-opacity: 0.3; stroke-width: 0.8; stroke-linecap: square"/>
     </g>
     <g id="line2d_16">
      <g>
       <use xlink:href="#me31d2a5254" x="56.09" y="165.165155" style="stroke: #000000; stroke-width: 0.8"/>
      </g>
     </g>
     <g id="text_9">
      <!-- −0.5 -->
      <g transform="translate(24.807188 168.964374) scale(0.1 -0.1)">
       <use xlink:href="#DejaVuSans-2212"/>
       <use xlink:href="#DejaVuSans-30" transform="translate(83.789062 0)"/>
       <use xlink:href="#DejaVuSans-2e" transform="translate(147.412109 0)"/>
       <use xlink:href="#DejaVuSans-35" transform="translate(179.199219 0)"/>
      </g>
     </g>
    </g>
    <g id="ytick_4">
     <g id="line2d_17">
      <path d="M 56.09 137.786243 
L 709.2 137.786243 
" clip-path="url(#p5937dc6ad6)" style="fill: none; stroke: #b0b0b0; stroke-opacity: 0.3; stroke-width: 0.8; stroke-linecap: square"/>
     </g>
     <g id="line2d_18">
      <g>
       <use xlink:href="#me31d2a5254" x="56.09" y="137.786243" style="stroke: #000000; stroke-width: 0.8"/>
      </g>
     </g>
     <g id="text_10">
      <!-- 0.0 -->
      <g transform="translate(33.186875 141.585462) scale(0.1 -0.1)">
       <use xlink:href="#DejaVuSans-30"/>
       <use xlink:href="#DejaVuSans-2e" transform="translate(63.623047 0)"/>
       <use xlink:href="#DejaVuSans-30" transform="translate(95.410156 0)"/>
      </g>
     </g>
    </g>
    <g id="ytick_5">
     <g id="line2d_19">
      <path d="M 56.09 110.407332 
L 709.2 110.407332 
" clip-path="url(#p5937dc6ad6)" style="fill: none; stroke: #b0b0b0; stroke-opacity: 0.3; stroke-width: 0.8; stroke-linecap: square"/>
     </g>
     <g id="line2d_20">
      <g>
       <use xlink:href="#me31d2a5254" x="56.09" y="110.407332" style="stroke: #000000; stroke-width: 0.8"/>
      </g>
     </g>
     <g id="text_11">
      <!-- 0.5 -->
      <g transform="translate(33.186875 114.206551) scale(0.1 -0.1)">
       <use xlink:href="#DejaVuSans-30"/>
       <use xlink:href="#DejaVuSans-2e" transform="translate(63.623047 0)"/>
       <use xlink:href="#DejaVuSans-35" transform="translate(95.410156 0)"/>
      </g>
     </g>
    </g>
    <g id="ytick_6">
     <g id="line2d_21">
      <path d="M 56.09 83.028421 
L 709.2 83.028421 
" clip-path="url(#p5937dc6ad6)" style="fill: none; stroke: #b0b0b0; stroke-opacity: 0.3; stroke-width: 0.8; stroke-linecap: square"/>
     </g>
     <g id="line2d_22">
      <g>
       <use xlink:href="#me31d2a5254" x="56.09" y="83.028421" style="stroke: #000000; stroke-width: 0.8"/>
      </g>
     </g>
     <g id="text_12">
      <!-- 1.0 -->
      <g transform="translate(33.186875 86.827639) scale(0.1 -0.1)">
       <use xlink:href="#DejaVuSans-31"/>
       <use xlink:href="#DejaVuSans-2e" transform="translate(63.623047 0)"/>
       <use xlink:href="#DejaVuSans-30" transform="translate(95.410156 0)"/>
      </g>
     </g>
    </g>
    <g id="ytick_7">
     <g id="line2d_23">
      <path d="M 56.09 55.649509 
L 709.2 55.649509 
" clip-path="url(#p5937dc6ad6)" style="fill: none; stroke: #b0b0b0; stroke-opacity: 0.3; stroke-width: 0.8; stroke-linecap: square"/>
     </g>
     <g id="line2d_24">
      <g>
       <use xlink:href="#me31d2a5254" x="56.09" y="55.649509" style="stroke: #000000; stroke-width: 0.8"/>
      </g>
     </g>
     <g id="text_13">
      <!-- 1.5 -->
      <g transform="translate(33.186875 59.448728) scale(0.1 -0.1)">
       <use xlink:href="#DejaVuSans-31"/>
       <use xlink:href="#DejaVuSans-2e" transform="translate(63.623047 0)"/>
       <use xlink:href="#DejaVuSans-35" transform="translate(95.410156 0)"/>
      </g>
     </g>
    </g>
    <g id="ytick_8">
     <g id="line2d_25">
      <path d="M 56.09 28.270598 
L 709.2 28.270598 
" clip-path="url(#p5937dc6ad6)" style="fill: none; stroke: #b0b0b0; stroke-opacity: 0.3; stroke-width: 0.8; stroke-linecap: square"/>
     </g>
     <g id="line2d_26">
      <g>
       <use xlink:href="#me31d2a5254" x="56.09" y="28.270598" style="stroke: #000000; stroke-width: 0.8"/>
      </g>
     </g>
     <g id="text_14">
      <!-- 2.0 -->
      <g transform="translate(33.186875 32.069817) scale(0.1 -0.1)">
       <use xlink:href="#DejaVuSans-32"/>
       <use xlink:href="#DejaVuSans-2e" transform="translate(63.623047 0)"/>
       <use xlink:href="#DejaVuSans-30" transform="translate(95.410156 0)"/>
      </g>
     </g>
    </g>
    <g id="text_15">
     <!-- tie-rod force [kN] -->
     <g transform="translate(18.7275 179.170156) rotate(-90) scale(0.1 -0.1)">
      <defs>
       <path id="DejaVuSans-2d" d="M 313 2009 
L 1997 2009 
L 1997 1497 
L 313 1497 
L 313 2009 
z
" transform="scale(0.015625)"/>
       <path id="DejaVuSans-72" d="M 2631 2963 
Q 2534 3019 2420 3045 
Q 2306 3072 2169 3072 
Q 1681 3072 1420 2755 
Q 1159 2438 1159 1844 
L 1159 0 
L 581 0 
L 581 3500 
L 1159 3500 
L 1159 2956 
Q 1341 3275 1631 3429 
Q 1922 3584 2338 3584 
Q 2397 3584 2469 3576 
Q 2541 3569 2628 3553 
L 2631 2963 
z
" transform="scale(0.015625)"/>
       <path id="DejaVuSans-6f" d="M 1959 3097 
Q 1497 3097 1228 2736 
Q 959 2375 959 1747 
Q 959 1119 1226 758 
Q 1494 397 1959 397 
Q 2419 397 2687 759 
Q 2956 1122 2956 1747 
Q 2956 2369 2687 2733 
Q 2419 3097 1959 3097 
z
M 1959 3584 
Q 2709 3584 3137 3096 
Q 3566 2609 3566 1747 
Q 3566 888 3137 398 
Q 2709 -91 1959 -91 
Q 1206 -91 779 398 
Q 353 888 353 1747 
Q 353 2609 779 3096 
Q 1206 3584 1959 3584 
z
" transform="scale(0.015625)"/>
       <path id="DejaVuSans-66" d="M 2375 4863 
L 2375 4384 
L 1825 4384 
Q 1516 4384 1395 4259 
Q 1275 4134 1275 3809 
L 1275 3500 
L 2222 3500 
L 2222 3053 
L 1275 3053 
L 1275 0 
L 697 0 
L 697 3053 
L 147 3053 
L 147 3500 
L 697 3500 
L 697 3744 
Q 697 4328 969 4595 
Q 1241 4863 1831 4863 
L 2375 4863 
z
" transform="scale(0.015625)"/>
       <path id="DejaVuSans-4e" d="M 628 4666 
L 1478 4666 
L 3547 763 
L 3547 4666 
L 4159 4666 
L 4159 0 
L 3309 0 
L 1241 3903 
L 1241 0 
L 628 0 
L 628 4666 
z
" transform="scale(0.015625)"/>
      </defs>
      <use xlink:href="#DejaVuSans-74"/>
      <use xlink:href="#DejaVuSans-69" transform="translate(39.208984 0)"/>
      <use xlink:href="#DejaVuSans-65" transform="translate(66.992188 0)"/>
      <use xlink:href="#DejaVuSans-2d" transform="translate(128.515625 0)"/>
      <use xlink:href="#DejaVuSans-72" transform="translate(164.599609 0)"/>
      <use xlink:href="#DejaVuSans-6f" transform="translate(203.462891 0)"/>
      <use xlink:href="#DejaVuSans-64" transform="translate(264.644531 0)"/>
      <use xlink:href="#DejaVuSans-20" transform="translate(328.121094 0)"/>
      <use xlink:href="#DejaVuSans-66" transform="translate(359.908203 0)"/>
      <use xlink:href="#DejaVuSans-6f" transform="translate(395.113281 0)"/>
      <use xlink:href="#DejaVuSans-72" transform="translate(456.294922 0)"/>
      <use xlink:href="#DejaVuSans-63" transform="translate(495.158203 0)"/>
      <use xlink:href="#DejaVuSans-65" transform="translate(550.138672 0)"/>
      <use xlink:href="#DejaVuSans-20" transform="translate(611.662109 0)"/>
      <use xlink:href="#DejaVuSans-5b" transform="translate(643.449219 0)"/>
      <use xlink:href="#DejaVuSans-6b" transform="translate(682.462891 0)"/>
      <use xlink:href="#DejaVuSans-4e" transform="translate(740.373047 0)"/>
      <use xlink:href="#DejaVuSans-5d" transform="translate(815.177734 0)"/>
     </g>
    </g>
   </g>
   <g id="line2d_27">
    <path d="M 85.776818 137.786243 
L 86.245532 166.679396 
L 86.715827 167.504877 
L 87.661185 117.792517 
L 88.136264 116.92008 
L 89.091217 146.631001 
L 89.571095 150.099138 
L 90.052569 140.899662 
L 90.535638 126.368677 
L 91.020298 118.289132 
L 91.506538 117.413315 
L 92.483734 125.377065 
L 92.974685 126.783115 
L 93.467196 124.401381 
L 93.96126 120.574203 
L 94.456867 117.850094 
L 94.953997 117.164249 
L 95.452504 118.13649 
L 95.952 119.77086 
L 96.452061 120.990614 
L 96.952338 121.249912 
L 97.952302 120.351318 
L 98.451417 120.555255 
L 98.949607 121.610906 
L 101.907184 131.678681 
L 102.876647 136.644785 
L 104.311455 144.795279 
L 108.004863 163.563262 
L 110.201625 173.182637 
L 111.474069 178.489268 
L 113.512908 185.485931 
L 115.065068 193.22524 
L 115.442076 193.480049 
L 115.814774 193.318972 
L 116.183217 193.442476 
L 116.547461 194.403497 
L 117.26358 198.422201 
L 117.963761 202.312517 
L 118.308159 203.153664 
L 118.648985 203.103508 
L 119.320732 202.143295 
L 119.65205 202.650872 
L 119.980591 204.383339 
L 120.630145 209.284462 
L 120.951571 210.820507 
L 121.271043 211.044778 
L 121.905013 209.563432 
L 122.22003 209.825618 
L 122.53415 211.893927 
L 123.788076 225.121949 
L 124.416958 228.098136 
L 125.048444 229.538986 
L 125.681512 230.845425 
L 126.627816 233.105085 
L 127.251884 233.926216 
L 127.560949 234.109567 
L 128.172438 234.027059 
L 129.370037 233.378484 
L 130.250294 232.6683 
L 130.83079 231.891838 
L 131.694997 230.53672 
L 132.268538 230.007291 
L 133.126981 229.683418 
L 134.269887 229.520086 
L 135.697871 229.357167 
L 136.55661 228.983917 
L 137.419572 228.283163 
L 139.165592 226.420236 
L 140.646394 225.092836 
L 142.154358 223.631596 
L 143.070199 223.037954 
L 143.682805 222.284397 
L 144.296403 221.469687 
L 144.603543 221.275413 
L 145.525917 221.169759 
L 145.83356 220.936154 
L 146.449002 219.986302 
L 147.064672 219.169066 
L 147.372631 219.124322 
L 147.988865 219.614982 
L 148.297157 219.853382 
L 148.60558 219.887302 
L 148.914159 219.673648 
L 149.841343 218.664597 
L 150.151126 218.868854 
L 150.772109 220.199918 
L 151.395117 221.289394 
L 151.707417 221.406317 
L 152.6477 220.873692 
L 152.962305 221.10149 
L 153.593284 222.445796 
L 154.226475 223.605436 
L 154.543842 223.72834 
L 154.861724 223.538892 
L 155.499147 222.890806 
L 155.818761 222.885138 
L 156.139012 223.169892 
L 157.103614 224.316276 
L 157.426412 224.447279 
L 158.073981 224.333527 
L 158.39885 224.24503 
L 158.724499 224.285978 
L 159.378206 224.782129 
L 160.03502 225.338025 
L 160.364533 225.441895 
L 161.68941 225.33092 
L 162.354743 226.181794 
L 163.020034 227.09264 
L 163.352343 227.266193 
L 163.684394 227.229786 
L 164.347713 226.955777 
L 164.678977 227.129763 
L 165.671346 228.448179 
L 166.001811 228.553101 
L 166.332222 228.350454 
L 167.323762 227.145007 
L 167.654581 227.171226 
L 168.648589 227.719329 
L 168.980583 227.613787 
L 169.645945 226.873643 
L 169.97947 226.458675 
L 170.31364 226.284206 
L 170.984028 226.586852 
L 171.320278 226.724697 
L 171.657288 226.704304 
L 171.995118 226.498609 
L 172.673429 225.613347 
L 173.355526 224.836418 
L 174.731628 224.040075 
L 175.425863 222.736765 
L 175.774605 222.057506 
L 176.124448 221.694237 
L 176.475387 221.682579 
L 176.82741 221.818703 
L 177.180511 221.83541 
L 177.534688 221.614676 
L 178.246316 220.514584 
L 178.962445 219.345357 
L 179.322264 219.081454 
L 180.045471 218.821643 
L 180.408878 218.479453 
L 181.139399 217.130514 
L 181.506543 216.415503 
L 181.874942 216.21434 
L 182.244591 216.646196 
L 182.615491 217.297636 
L 182.987644 217.65113 
L 183.361048 217.599178 
L 183.735708 217.224164 
L 186.39524 212.715936 
L 187.556044 209.913075 
L 187.945897 209.69265 
L 188.337215 209.874057 
L 188.729995 209.870052 
L 189.124228 209.368455 
L 189.917096 207.26901 
L 190.716152 204.254346 
L 191.521971 199.979309 
L 191.927564 197.059088 
L 192.744401 189.360341 
L 193.155612 187.140487 
L 193.56858 186.796742 
L 193.983256 187.212118 
L 194.399636 187.112459 
L 194.8177 185.908602 
L 196.082207 179.552394 
L 196.934617 173.675638 
L 198.228316 164.441633 
L 198.663617 161.882131 
L 199.981176 156.465565 
L 201.763779 146.587366 
L 202.213933 145.234689 
L 203.575069 142.795791 
L 204.952075 139.097746 
L 205.878811 137.819083 
L 206.344777 137.254151 
L 208.700302 133.530793 
L 210.133896 131.770435 
L 215.50258 124.034808 
L 219.429507 117.133805 
L 220.404245 115.12806 
L 220.889638 113.243582 
L 222.815257 102.854556 
L 223.292357 101.516097 
L 223.767676 101.179781 
L 224.241165 101.443497 
L 224.712757 101.318215 
L 225.182379 100.249026 
L 225.649943 98.907472 
L 226.115348 98.171072 
L 226.57847 98.178497 
L 227.039199 98.653335 
L 227.953379 100.230491 
L 228.85803 101.786861 
L 229.75336 102.908773 
L 231.078944 104.248353 
L 231.95029 105.364508 
L 232.811459 106.014281 
L 233.662118 106.340767 
L 235.743083 106.888809 
L 236.960561 107.548688 
L 239.718703 109.598023 
L 240.486387 109.835643 
L 243.097244 110.18221 
L 244.183948 110.717922 
L 245.610305 111.714079 
L 248.055381 113.839254 
L 249.431912 115.326335 
L 250.803218 116.810123 
L 251.487535 117.316251 
L 252.170541 117.574636 
L 253.193249 117.606599 
L 254.216993 117.351692 
L 254.902643 116.880163 
L 255.592711 116.060256 
L 256.63845 114.286154 
L 258.413292 111.157804 
L 259.135118 110.58317 
L 259.498736 110.562196 
L 259.864214 110.814241 
L 260.600886 112.016785 
L 261.345377 113.676576 
L 262.858389 118.15249 
L 263.627158 121.718018 
L 264.404206 125.104443 
L 265.189452 126.842007 
L 265.585068 128.861355 
L 266.783603 142.152187 
L 267.186967 143.146788 
L 267.592228 143.761185 
L 267.999319 145.12137 
L 269.641521 153.671941 
L 270.466566 155.664921 
L 271.291619 157.597363 
L 272.936389 161.936746 
L 273.3459 162.432054 
L 274.162903 163.078776 
L 274.570471 163.556765 
L 274.977466 164.323909 
L 275.383931 165.777155 
L 276.600869 172.045955 
L 277.411107 174.360224 
L 277.816238 176.189011 
L 278.221507 179.050074 
L 279.845481 195.678877 
L 280.659379 198.842016 
L 281.066443 201.182236 
L 281.879291 208.323536 
L 282.688078 215.359557 
L 283.090195 217.678615 
L 284.284993 222.534189 
L 285.459644 228.23673 
L 285.846613 229.236249 
L 286.231443 229.66913 
L 287.374326 229.844632 
L 288.874866 231.229612 
L 289.986154 231.36765 
L 290.72164 231.910182 
L 291.453379 232.366341 
L 292.542849 232.739552 
L 292.903559 232.988923 
L 294.332247 234.595053 
L 295.038928 234.99683 
L 297.4805 235.792952 
L 298.167753 235.727143 
L 298.850525 235.587538 
L 299.528727 235.81225 
L 300.201848 236.078182 
L 300.536449 236.048787 
L 300.869796 235.856335 
L 302.519659 234.183469 
L 303.17222 233.640079 
L 303.497032 233.095695 
L 304.788196 230.296128 
L 305.109366 230.236887 
L 305.750248 230.393561 
L 306.070096 230.170204 
L 306.389654 229.587184 
L 307.34773 226.841511 
L 307.667304 226.583815 
L 307.987132 226.799294 
L 308.627691 227.434481 
L 308.948476 227.360035 
L 309.26964 226.881906 
L 310.235794 224.203048 
L 310.558752 224.000408 
L 310.882109 224.345078 
L 311.529848 225.374844 
L 311.854133 225.345834 
L 312.17869 224.73661 
L 312.829041 222.71059 
L 313.15509 222.312382 
L 313.481817 222.581954 
L 314.466336 224.300286 
L 314.796035 224.494895 
L 315.126515 224.486294 
L 315.78954 224.094582 
L 317.118707 223.241513 
L 317.451153 222.819343 
L 317.783718 222.044762 
L 318.449761 219.270407 
L 319.118168 216.459676 
L 319.790179 214.662824 
L 321.148968 212.137512 
L 322.530023 208.447195 
L 322.879029 207.594044 
L 323.229609 206.360869 
L 323.935756 202.244132 
L 325.733868 188.039726 
L 326.467917 179.743655 
L 328.345045 153.651015 
L 329.50042 140.557742 
L 330.675353 131.413793 
L 334.307921 111.594564 
L 334.721013 110.470834 
L 335.135717 110.119861 
L 335.551812 109.956835 
L 335.968984 109.344127 
L 337.224161 105.842378 
L 338.480674 103.329604 
L 338.899038 102.870848 
L 339.31689 102.70899 
L 339.734093 102.758139 
L 340.566027 103.353466 
L 341.393964 103.891897 
L 342.21712 103.960953 
L 343.845896 103.69569 
L 345.842664 103.139785 
L 346.628117 103.369907 
L 347.406258 103.988039 
L 350.830884 107.587608 
L 352.689849 109.331459 
L 354.161709 111.057348 
L 357.073266 114.692795 
L 357.795751 115.234492 
L 358.516813 115.420373 
L 359.236605 115.370022 
L 360.314555 115.041716 
L 362.819954 113.918143 
L 364.59496 113.762151 
L 366.354915 113.617793 
L 369.129975 113.120078 
L 369.815917 113.047708 
L 370.839264 112.681964 
L 371.854563 112.064023 
L 373.19295 110.939923 
L 374.183064 110.129549 
L 375.161642 109.646116 
L 376.131022 109.470477 
L 378.051512 109.620311 
L 378.688935 109.778748 
L 379.645737 110.308414 
L 381.586608 111.525703 
L 383.254552 113.421553 
L 384.265821 114.137359 
L 385.61509 114.857421 
L 386.290925 114.881033 
L 387.990369 114.277339 
L 388.673399 114.063589 
L 389.700957 112.971418 
L 390.389063 112.21679 
L 391.079715 111.231947 
L 391.425643 111.241486 
L 391.771678 112.179506 
L 392.11759 114.372174 
L 392.808138 119.966145 
L 393.495515 122.842386 
L 393.837488 126.56243 
L 394.854615 145.233024 
L 396.840702 164.454108 
L 397.164515 165.627182 
L 397.486168 166.003189 
L 397.805726 166.720077 
L 398.123279 168.637566 
L 399.064851 177.190557 
L 399.375328 178.960838 
L 400.298646 181.980659 
L 400.604453 184.048466 
L 401.214605 190.994866 
L 402.129554 203.627993 
L 402.741888 208.829564 
L 403.668719 213.859595 
L 404.293311 219.494967 
L 404.921491 225.882757 
L 405.550574 229.731046 
L 406.176948 231.551965 
L 406.487916 232.004721 
L 406.796861 232.24768 
L 407.407975 232.329639 
L 408.307922 232.089039 
L 408.89786 231.732583 
L 409.770292 230.922224 
L 410.058671 230.864667 
L 410.633295 231.20244 
L 411.206298 231.583302 
L 411.779039 231.700304 
L 412.638925 231.514698 
L 416.058973 230.118853 
L 416.622605 229.460086 
L 417.747613 227.878646 
L 420.013533 225.69086 
L 420.586048 225.475061 
L 421.161341 225.298673 
L 421.739374 224.66386 
L 422.320249 223.477922 
L 423.19807 220.706883 
L 424.385183 216.215797 
L 424.987947 211.835639 
L 425.905991 202.785513 
L 426.528165 199.131832 
L 426.842469 197.500423 
L 427.158994 195.255925 
L 427.798925 188.38231 
L 428.448319 180.906797 
L 428.776638 178.411002 
L 429.776261 173.477848 
L 430.454996 167.425118 
L 431.143605 160.840692 
L 431.491611 158.843538 
L 432.194913 156.650783 
L 433.266987 153.488541 
L 433.992529 150.391754 
L 434.358503 149.693093 
L 434.726566 149.693321 
L 435.096736 149.936111 
L 435.469107 149.974053 
L 435.843792 149.316209 
L 436.220824 147.242401 
L 436.981948 142.008622 
L 437.366026 141.518246 
L 437.752443 141.82811 
L 438.141191 141.55278 
L 438.532256 140.169107 
L 438.925579 138.285255 
L 439.321089 136.985485 
L 439.718742 136.700017 
L 440.520398 137.27342 
L 440.924377 137.031465 
L 441.330432 136.533816 
L 441.738549 136.213138 
L 442.148716 136.273037 
L 443.809642 137.650066 
L 444.652103 138.198041 
L 445.501739 139.260864 
L 447.212033 141.929377 
L 448.067661 143.639728 
L 449.345958 146.732449 
L 451.032232 151.776432 
L 452.688697 157.474341 
L 453.503274 160.816106 
L 458.144859 183.320059 
L 459.229098 187.822268 
L 460.278728 195.281061 
L 460.959685 197.878588 
L 461.294797 198.560079 
L 461.626481 198.776309 
L 461.954862 198.666725 
L 462.280025 198.694023 
L 462.602009 199.166453 
L 463.236538 201.364465 
L 463.858858 203.556684 
L 464.469735 204.658437 
L 464.77122 204.98185 
L 465.070312 205.503869 
L 465.367234 206.498521 
L 466.247655 211.378106 
L 467.409086 217.967026 
L 468.871328 229.980758 
L 469.464889 231.74265 
L 470.062371 232.787839 
L 471.55831 234.539356 
L 471.854926 234.746384 
L 472.443597 234.766759 
L 473.025968 234.432416 
L 473.888036 233.394193 
L 474.73708 232.365578 
L 475.29621 232.034843 
L 476.399052 231.886825 
L 478.02067 231.568419 
L 478.55578 231.197833 
L 480.162978 229.461749 
L 482.060572 227.534779 
L 482.885078 226.82988 
L 483.439817 225.976083 
L 483.99955 224.417234 
L 484.850203 220.47235 
L 485.715387 216.624761 
L 486.595632 213.615691 
L 487.490856 211.454935 
L 488.096438 208.971836 
L 489.330043 202.347073 
L 489.95905 197.063322 
L 490.276694 194.224812 
L 490.596322 192.518298 
L 490.917919 192.073039 
L 491.24149 191.981502 
L 491.56704 191.481045 
L 492.22411 188.81617 
L 492.889172 186.299186 
L 493.562315 185.326203 
L 493.90211 184.056923 
L 494.935148 175.602219 
L 495.283976 174.516372 
L 495.988315 174.04669 
L 496.343793 173.283482 
L 497.423011 170.156556 
L 498.89296 163.94214 
L 499.641673 162.97329 
L 500.019469 161.967519 
L 501.166217 157.376536 
L 501.552637 158.375376 
L 501.941039 160.08621 
L 502.331392 161.067057 
L 502.723649 161.200532 
L 503.911985 160.654131 
L 504.714307 160.608899 
L 505.11867 160.055513 
L 505.525227 158.722242 
L 506.344924 155.285034 
L 508.009932 151.200939 
L 509.280002 147.455597 
L 510.136432 145.796947 
L 512.751213 141.65434 
L 513.193518 141.332161 
L 513.637634 141.162328 
L 514.083546 141.192626 
L 515.432063 141.633742 
L 515.885169 142.03454 
L 516.340077 142.702601 
L 516.796792 143.151983 
L 517.255334 142.644763 
L 518.177899 139.92307 
L 518.641901 138.967606 
L 519.107695 138.410224 
L 520.044577 137.86767 
L 521.462894 136.167386 
L 522.416947 135.550558 
L 522.896495 135.468429 
L 524.345122 135.871446 
L 525.319113 136.321645 
L 526.299619 136.816521 
L 526.792297 136.973899 
L 527.286582 137.249838 
L 527.782467 137.98556 
L 528.779015 140.652053 
L 529.279664 142.089401 
L 530.285669 144.061622 
L 530.791002 144.636449 
L 531.297875 144.296056 
L 531.806277 143.632037 
L 532.316204 143.435817 
L 533.340616 144.196257 
L 533.855093 144.183545 
L 534.371078 143.807325 
L 534.888564 143.614635 
L 536.449955 143.820279 
L 537.498249 143.504537 
L 538.024585 143.680216 
L 539.612266 144.767936 
L 540.14436 144.86234 
L 540.677876 144.696756 
L 541.212808 144.35953 
L 541.749146 144.171793 
L 542.286883 144.765152 
L 542.826012 146.628445 
L 543.90842 151.614904 
L 544.996302 154.703086 
L 545.542264 155.80526 
L 546.089561 155.621363 
L 547.188169 152.346611 
L 547.739496 151.693671 
L 548.292182 152.17718 
L 549.401611 154.375765 
L 549.958335 154.760512 
L 550.51638 154.318171 
L 551.636368 151.993756 
L 552.198275 151.492205 
L 552.761437 151.897295 
L 554.458363 154.560836 
L 555.026463 154.967019 
L 555.595783 155.000319 
L 556.166315 154.731506 
L 556.738055 154.247517 
L 557.88515 152.821462 
L 558.460515 154.141027 
L 559.03712 158.436334 
L 560.194125 168.476343 
L 560.774512 171.518214 
L 561.356102 173.842513 
L 561.938797 174.727584 
L 562.522503 172.866225 
L 563.692893 165.963298 
L 564.279645 164.283508 
L 564.867495 165.784077 
L 565.456466 168.594666 
L 566.04656 170.604794 
L 566.637766 171.172742 
L 567.230064 171.077822 
L 567.823436 171.730519 
L 569.01332 175.495377 
L 569.60977 177.473085 
L 570.207183 178.673937 
L 570.805568 177.853753 
L 571.404961 175.080806 
L 572.60703 168.491381 
L 573.209803 167.66861 
L 573.813738 169.118854 
L 575.024902 173.438847 
L 575.632029 173.902412 
L 576.240122 173.006391 
L 577.459113 170.878935 
L 578.070042 170.177682 
L 578.682014 168.998325 
L 579.909332 165.100201 
L 580.524703 164.513387 
L 582.377667 164.957986 
L 582.997476 164.792734 
L 583.618309 163.538499 
L 584.24013 161.374472 
L 584.862899 159.864103 
L 585.486592 160.117828 
L 586.1112 161.889615 
L 587.363125 166.908642 
L 587.990491 168.627354 
L 588.618845 168.764183 
L 589.248213 166.858999 
L 589.878579 164.228668 
L 590.5099 163.111202 
L 591.142134 164.002547 
L 591.775235 165.401572 
L 592.409146 166.450137 
L 593.043828 167.733539 
L 593.679277 169.872278 
L 595.590589 178.340782 
L 596.229504 180.269665 
L 596.86935 180.620894 
L 598.151782 179.11745 
L 598.79433 179.277431 
L 599.437778 182.886168 
L 600.727215 195.07679 
L 601.372978 198.979826 
L 602.019267 201.390172 
L 602.665968 202.734487 
L 603.313026 203.246734 
L 603.960442 203.113464 
L 604.608276 202.593757 
L 605.256657 201.706436 
L 607.206632 198.122969 
L 607.858499 197.646945 
L 608.511234 198.549511 
L 609.818839 202.187884 
L 610.473566 203.420372 
L 611.128912 203.544729 
L 611.784961 202.058102 
L 612.441746 197.970858 
L 614.413753 178.721689 
L 615.070643 175.943659 
L 615.726741 176.327723 
L 616.381721 178.117576 
L 617.035318 178.716068 
L 617.6873 176.448814 
L 618.337466 170.902602 
L 619.631708 154.975316 
L 620.275474 149.131222 
L 620.916792 146.367017 
L 621.555501 145.306179 
L 622.191447 143.704111 
L 622.824482 140.124262 
L 624.704802 123.947201 
L 625.324912 121.174323 
L 625.941503 119.92646 
L 627.769104 117.90565 
L 628.370544 116.402025 
L 628.967888 113.263619 
L 630.149747 105.318265 
L 630.734037 102.455427 
L 631.313836 100.611892 
L 631.889183 99.902888 
L 632.460214 101.169285 
L 633.589675 105.607576 
L 634.148184 106.047749 
L 634.702548 105.045171 
L 635.798463 101.493358 
L 636.339779 99.747927 
L 636.876534 98.668446 
L 637.408665 98.511366 
L 637.936121 99.161744 
L 638.976903 101.185487 
L 639.490201 101.578096 
L 639.998752 101.38347 
L 640.502525 100.812987 
L 641.985087 97.889605 
L 642.469857 97.360547 
L 643.897016 96.441835 
L 644.36407 96.704678 
L 645.741101 98.888877 
L 646.192541 99.257662 
L 646.640421 99.268916 
L 647.08489 98.874732 
L 648.833895 96.289118 
L 649.265546 96.539586 
L 650.124381 98.004665 
L 651.83151 101.247384 
L 653.956694 107.472909 
L 655.643253 111.244075 
L 656.476008 112.746997 
L 657.301029 113.839958 
L 658.527134 115.04402 
L 659.33961 115.524986 
L 660.150054 115.739344 
L 661.36555 115.768097 
L 662.178688 115.561361 
L 662.996484 115.069765 
L 663.820127 114.288511 
L 667.169525 110.354778 
L 667.59429 110.344681 
L 668.020658 110.857022 
L 668.448755 111.998993 
L 669.310383 114.951801 
L 670.179207 117.335985 
L 670.616166 119.37355 
L 671.054695 122.616897 
L 672.379293 134.548569 
L 673.269819 139.620565 
L 673.717362 140.265401 
L 674.617066 135.850736 
L 675.069239 141.945899 
L 675.522976 155.84171 
L 675.978292 165.619126 
L 676.435193 164.380265 
L 676.893688 152.059758 
L 677.815456 108.95479 
L 678.278658 104.385432 
L 678.74337 126.867238 
L 679.209645 176.827857 
L 679.513182 188.373288 
L 679.513182 188.373288 
" clip-path="url(#p5937dc6ad6)" style="fill: none; stroke: #2ca02c; stroke-width: 0.9; stroke-linecap: square"/>
   </g>
   <g id="line2d_28">
    <path d="M 85.776818 137.786243 
L 86.245532 166.298503 
L 86.715827 166.261198 
L 87.661185 118.413047 
L 88.136264 117.255653 
L 89.091217 146.548942 
L 89.571095 149.982192 
L 90.052569 140.885902 
L 90.535638 126.356379 
L 91.020298 117.930799 
L 91.506538 116.674134 
L 91.99435 120.286694 
L 92.483734 124.835513 
L 92.974685 126.294681 
L 93.467196 123.695919 
L 93.96126 119.410505 
L 94.456867 116.179182 
L 94.953997 115.203867 
L 95.452504 116.224665 
L 95.952 118.110998 
L 96.452061 119.561314 
L 96.952338 119.929707 
L 97.952302 119.079146 
L 98.451417 119.397229 
L 98.949607 120.662428 
L 101.418971 129.782179 
L 101.907184 131.613818 
L 102.876647 136.642116 
L 104.311455 144.79946 
L 107.101117 158.879536 
L 108.451506 164.551662 
L 109.7697 169.189892 
L 111.053878 173.029885 
L 111.890222 174.841106 
L 112.710138 176.007253 
L 113.512908 177.583258 
L 114.683693 180.15983 
L 115.065068 180.309934 
L 116.183217 179.401504 
L 116.547461 179.506164 
L 117.26358 180.207709 
L 117.615611 180.373002 
L 117.963761 180.278406 
L 118.648985 179.43519 
L 119.320732 178.496757 
L 119.980591 178.164708 
L 120.306554 177.962012 
L 120.630145 177.512069 
L 121.905013 175.051169 
L 122.53415 174.088576 
L 122.847713 173.281172 
L 124.416958 168.047335 
L 126.313381 163.373949 
L 126.940758 162.044387 
L 127.560949 161.213265 
L 128.172438 160.78716 
L 129.073507 160.546461 
L 129.958285 160.592809 
L 131.119572 160.974393 
L 131.98194 161.147892 
L 132.554874 161.043219 
L 133.412831 160.584331 
L 136.270018 158.653525 
L 137.131293 158.408683 
L 137.998318 158.391412 
L 140.050951 158.761555 
L 141.547839 159.284012 
L 142.154358 159.653394 
L 142.764374 160.291218 
L 143.989485 161.644485 
L 145.218344 162.539206 
L 147.064672 163.563483 
L 147.988865 163.828772 
L 149.531971 163.910228 
L 150.151126 163.806736 
L 151.083353 163.377725 
L 152.333692 162.735226 
L 153.593284 162.142397 
L 154.861724 161.403333 
L 158.39885 160.128192 
L 160.364533 159.771967 
L 161.025692 159.868676 
L 162.021976 160.309964 
L 163.352343 161.198149 
L 164.347713 161.557361 
L 165.009984 161.639969 
L 166.001811 161.448943 
L 167.323762 161.202116 
L 168.316958 160.939919 
L 169.645945 160.563186 
L 170.984028 160.325665 
L 172.333818 159.939249 
L 174.041572 159.879419 
L 175.07821 159.915822 
L 176.475387 160.326997 
L 179.683271 160.953497 
L 181.139399 161.133926 
L 182.615491 161.449585 
L 184.488856 161.456532 
L 186.39524 161.719585 
L 187.167657 162.010704 
L 188.337215 162.542468 
L 189.917096 163.117598 
L 192.335035 164.17449 
L 192.744401 164.142693 
L 193.155612 164.335833 
L 194.399636 166.070103 
L 194.8177 166.202654 
L 195.237438 166.031757 
L 195.658907 165.681499 
L 196.082207 165.177003 
L 196.507426 164.333457 
L 197.363808 161.75362 
L 198.663617 157.293207 
L 199.540093 155.39193 
L 199.981176 154.039168 
L 200.868852 150.144903 
L 201.763779 146.056578 
L 202.213933 144.86298 
L 203.575069 142.647397 
L 204.952075 139.078329 
L 205.878811 137.818888 
L 206.344777 137.257105 
L 208.700302 133.510041 
L 210.133896 131.699348 
L 214.518462 125.15139 
L 215.994647 122.608205 
L 219.917475 114.781841 
L 220.404245 113.478442 
L 220.889638 111.249062 
L 221.855804 104.055193 
L 222.815257 96.812688 
L 223.292357 94.038513 
L 223.767676 92.600976 
L 224.241165 92.163245 
L 224.712757 91.062102 
L 225.182379 87.884817 
L 226.57847 74.16339 
L 227.497495 68.016923 
L 227.953379 66.193341 
L 228.40688 65.221582 
L 229.306849 64.154739 
L 229.75336 63.419392 
L 230.197576 62.327594 
L 230.639482 60.534761 
L 231.078944 57.47711 
L 231.95029 49.888669 
L 232.382173 47.121208 
L 232.811459 45.14532 
L 233.238105 43.794934 
L 233.662118 42.926669 
L 234.083541 42.400863 
L 234.502374 42.131548 
L 235.332136 42.05981 
L 236.151447 42.103454 
L 236.557258 41.985166 
L 236.960561 41.647291 
L 238.156151 40.290408 
L 241.619773 37.411902 
L 242.731187 36.944727 
L 243.823503 36.841818 
L 245.610305 37.065601 
L 246.665588 37.382436 
L 247.362699 37.860672 
L 249.088536 39.439446 
L 250.117918 40.125221 
L 250.803218 40.945351 
L 253.534149 45.016281 
L 253.875329 45.891553 
L 254.216993 47.220547 
L 254.559358 49.223955 
L 255.24704 55.229125 
L 256.288343 64.426771 
L 257.698388 73.579648 
L 259.135118 85.642884 
L 259.864214 91.417267 
L 261.345377 103.64467 
L 262.097839 109.288641 
L 263.24174 116.318208 
L 264.014647 121.709472 
L 264.404206 123.69516 
L 265.189452 125.948952 
L 265.585068 128.261515 
L 266.783603 142.276207 
L 267.186967 143.245204 
L 267.592228 143.816719 
L 267.999319 145.130468 
L 269.641521 153.114278 
L 270.466566 154.811131 
L 271.291619 156.468551 
L 272.936389 160.143069 
L 273.3459 160.518829 
L 274.162903 160.967933 
L 274.570471 161.317877 
L 274.977466 161.900437 
L 275.383931 163.023236 
L 276.195542 166.342588 
L 276.600869 167.422274 
L 277.411107 168.549481 
L 277.816238 169.46587 
L 278.221507 170.876593 
L 279.032818 174.404579 
L 279.438972 175.019265 
L 279.845481 174.59658 
L 281.066443 172.262008 
L 281.879291 170.817815 
L 283.090195 168.452257 
L 283.888834 167.536569 
L 286.99519 165.368707 
L 288.127611 164.690883 
L 290.354384 163.179637 
L 292.180867 162.140264 
L 293.26286 161.797104 
L 296.091474 161.041897 
L 299.528727 161.504308 
L 300.869796 161.937616 
L 305.109366 162.944585 
L 307.34773 162.922177 
L 308.307253 162.944622 
L 309.26964 162.875073 
L 310.235794 163.082599 
L 310.882109 163.180106 
L 311.529848 163.038378 
L 312.829041 162.634159 
L 313.481817 162.454033 
L 314.137421 162.064849 
L 316.121697 160.707309 
L 317.451153 160.098536 
L 318.116528 160.035108 
L 318.783594 160.272509 
L 322.530023 162.403487 
L 323.581826 162.791799 
L 325.733868 163.881538 
L 326.099747 163.668619 
L 326.467917 162.957687 
L 326.838451 161.540143 
L 327.586811 156.853409 
L 328.345045 151.135304 
L 330.281665 134.35906 
L 331.071021 129.269995 
L 331.868381 125.054105 
L 333.89656 110.871461 
L 334.307921 107.842915 
L 334.721013 105.684113 
L 335.135717 104.487483 
L 335.551812 103.635342 
L 335.968984 102.203468 
L 337.643061 92.171611 
L 339.734093 79.161041 
L 340.150512 77.591735 
L 340.566027 76.855446 
L 341.393964 76.16531 
L 341.806191 75.34859 
L 343.441121 70.713453 
L 343.845896 70.170461 
L 344.650179 69.462822 
L 345.049575 68.763086 
L 345.842664 66.475423 
L 347.792755 60.179687 
L 348.560945 58.311442 
L 348.942754 57.700124 
L 349.323103 57.321818 
L 350.455869 56.824722 
L 351.204723 55.978743 
L 351.949184 54.724103 
L 353.058919 52.023442 
L 354.527939 48.604869 
L 355.258386 47.241812 
L 355.986145 46.322609 
L 356.711413 45.866762 
L 357.795751 45.628245 
L 359.596111 45.38671 
L 360.314555 45.574972 
L 361.390729 46.051559 
L 363.886631 46.222616 
L 366.00427 45.562709 
L 366.704813 45.428391 
L 368.095807 44.779669 
L 368.785993 44.905549 
L 369.473286 45.218233 
L 370.157829 45.271495 
L 371.178669 45.163593 
L 372.526164 45.688176 
L 373.19295 45.392927 
L 373.52436 45.20668 
L 373.854392 45.16357 
L 374.183064 45.366067 
L 374.510439 45.846612 
L 376.131022 49.326807 
L 376.773319 50.484604 
L 378.370283 54.427241 
L 378.688935 54.52568 
L 379.645737 53.812078 
L 379.965766 54.070391 
L 380.609089 55.086683 
L 380.932927 55.21198 
L 381.258691 54.314156 
L 381.916705 51.215147 
L 382.248814 50.421022 
L 382.582719 50.256484 
L 382.918108 50.524408 
L 383.591522 51.872381 
L 384.265821 53.217818 
L 384.602976 53.468524 
L 385.277553 53.526965 
L 385.61509 54.058877 
L 385.952855 55.273849 
L 386.968658 60.457465 
L 387.308641 60.452268 
L 387.649288 59.944207 
L 387.990369 60.002764 
L 388.331743 61.206185 
L 388.673399 63.736797 
L 389.3579 72.463247 
L 390.044664 81.453601 
L 391.425643 93.919169 
L 392.11759 105.838018 
L 392.808138 116.721955 
L 393.495515 121.343722 
L 393.837488 125.831039 
L 394.854615 145.35305 
L 396.840702 163.455324 
L 397.164515 164.285606 
L 397.486168 164.407825 
L 397.805726 164.843752 
L 398.123279 166.277524 
L 399.064851 172.009985 
L 399.375328 172.81472 
L 399.684318 173.073771 
L 399.992015 173.141772 
L 400.298646 173.423055 
L 400.604453 174.127398 
L 401.519409 176.780972 
L 401.824322 176.769846 
L 402.129554 176.095538 
L 403.049508 172.300746 
L 403.980421 168.867322 
L 404.607107 167.141805 
L 405.550574 165.272428 
L 406.176948 164.484334 
L 406.796861 164.023965 
L 408.010036 163.475595 
L 409.190154 163.104223 
L 410.346269 162.835218 
L 410.919914 162.487864 
L 412.065566 161.421498 
L 414.071882 159.318215 
L 414.642206 159.020528 
L 415.210384 158.95288 
L 416.058973 159.147648 
L 418.311068 160.100601 
L 419.443687 159.949158 
L 420.299446 159.691583 
L 422.320249 158.798514 
L 422.904462 158.829285 
L 423.78886 159.174817 
L 424.685703 159.832413 
L 425.292019 160.650085 
L 426.842469 163.210671 
L 427.477796 163.778082 
L 427.798925 163.747401 
L 428.776638 162.87061 
L 429.440596 162.756981 
L 429.776261 162.386165 
L 430.114394 161.471038 
L 430.798066 158.096209 
L 431.143605 156.391919 
L 431.491611 155.246929 
L 432.194913 154.04267 
L 432.907443 152.852354 
L 433.266987 151.900468 
L 433.992529 149.389352 
L 434.358503 148.835599 
L 434.726566 148.895006 
L 435.096736 149.16299 
L 435.469107 149.233899 
L 435.843792 148.657166 
L 436.220824 146.758693 
L 436.981948 141.859021 
L 437.366026 141.403569 
L 437.752443 141.716357 
L 438.141191 141.462014 
L 438.532256 140.122645 
L 438.925579 138.27827 
L 439.321089 136.993734 
L 439.718742 136.707661 
L 440.520398 137.274576 
L 440.924377 137.032294 
L 441.330432 136.53349 
L 441.738549 136.210783 
L 442.148716 136.269438 
L 443.809642 137.649846 
L 444.652103 138.198553 
L 445.501739 139.260617 
L 447.212033 141.911843 
L 448.067661 143.60282 
L 449.345958 146.644641 
L 451.032232 151.542729 
L 453.097224 158.348985 
L 454.307456 163.467958 
L 455.880918 169.749475 
L 457.403816 174.236936 
L 458.144859 175.889202 
L 459.229098 177.694638 
L 459.932685 179.556117 
L 460.278728 179.990912 
L 460.621031 180.057498 
L 460.959685 179.905441 
L 461.626481 179.176114 
L 462.280025 178.325941 
L 462.920834 177.985638 
L 463.549184 177.78203 
L 464.469735 177.118094 
L 465.95561 175.781098 
L 466.538695 174.653477 
L 467.409086 172.447198 
L 469.464889 166.338734 
L 470.661713 163.670735 
L 472.443597 160.203848 
L 473.025968 159.42674 
L 473.602157 158.944151 
L 474.172473 158.684187 
L 474.73708 158.637748 
L 475.573809 158.835606 
L 476.94327 159.190453 
L 478.02067 159.236147 
L 479.358083 159.065833 
L 480.432183 158.617635 
L 482.609323 157.69633 
L 483.439817 157.679956 
L 483.99955 157.880821 
L 484.565084 158.307333 
L 486.007131 159.928439 
L 487.190746 161.135142 
L 489.330043 162.89683 
L 490.596322 164.004048 
L 491.56704 165.237413 
L 492.22411 165.467066 
L 492.889172 165.511635 
L 493.562315 165.7088 
L 493.90211 165.501452 
L 494.244183 164.836805 
L 494.935148 163.099859 
L 495.283976 162.957421 
L 495.988315 163.387234 
L 496.343793 163.285256 
L 497.423011 162.293883 
L 497.787085 161.477605 
L 498.522044 159.444945 
L 498.89296 159.039613 
L 499.641673 158.659079 
L 500.019469 158.055016 
L 501.166217 154.895588 
L 501.552637 155.823737 
L 501.941039 157.288305 
L 502.331392 158.116679 
L 502.723649 158.23893 
L 503.911985 157.776862 
L 504.714307 157.693205 
L 505.11867 157.233423 
L 505.525227 156.163023 
L 506.344924 153.416639 
L 508.009932 150.16666 
L 509.280002 146.936541 
L 510.136432 145.459529 
L 511.435378 143.484819 
L 512.310743 142.061823 
L 512.751213 141.577667 
L 513.193518 141.27011 
L 513.637634 141.109805 
L 514.083546 141.144832 
L 515.432063 141.589059 
L 515.885169 141.985397 
L 516.340077 142.643099 
L 516.796792 143.082391 
L 517.255334 142.579824 
L 518.177899 139.899032 
L 518.641901 138.956287 
L 519.107695 138.404971 
L 520.044577 137.866729 
L 521.462894 136.168613 
L 522.416947 135.545326 
L 522.896495 135.460202 
L 524.345122 135.861611 
L 525.319113 136.314382 
L 526.299619 136.812522 
L 526.792297 136.970951 
L 527.286582 137.248212 
L 527.782467 137.98595 
L 528.779015 140.652795 
L 529.279664 142.081592 
L 530.285669 144.015323 
L 530.791002 144.564589 
L 531.297875 144.211682 
L 531.806277 143.547225 
L 532.316204 143.346549 
L 533.340616 144.077193 
L 533.855093 144.060855 
L 534.371078 143.693166 
L 534.888564 143.506907 
L 536.449955 143.714782 
L 537.498249 143.408734 
L 538.024585 143.581307 
L 539.612266 144.638627 
L 540.14436 144.726894 
L 540.677876 144.562136 
L 541.212808 144.23134 
L 541.749146 144.047528 
L 542.286883 144.625002 
L 542.826012 146.431611 
L 543.90842 151.174954 
L 544.996302 153.941017 
L 545.542264 154.856151 
L 546.089561 154.580249 
L 547.188169 151.477447 
L 547.739496 150.859072 
L 548.292182 151.286875 
L 549.401611 153.268165 
L 549.958335 153.621191 
L 550.51638 153.237903 
L 551.636368 151.17363 
L 552.198275 150.736529 
L 552.761437 151.124975 
L 554.458363 153.542402 
L 555.026463 153.887681 
L 555.595783 153.893527 
L 556.166315 153.629528 
L 556.738055 153.177388 
L 557.88515 151.882044 
L 558.460515 153.079684 
L 559.03712 156.881757 
L 559.614988 161.525692 
L 560.194125 164.945255 
L 560.774512 166.87752 
L 561.356102 168.024609 
L 561.938797 168.012712 
L 562.522503 166.23611 
L 563.692893 160.994248 
L 564.279645 159.734968 
L 564.867495 160.789185 
L 565.456466 162.735244 
L 566.04656 164.108876 
L 566.637766 164.566968 
L 567.230064 164.636663 
L 567.823436 165.195369 
L 569.01332 167.554811 
L 569.60977 168.488947 
L 570.207183 168.781006 
L 570.805568 167.909073 
L 572.005425 163.812549 
L 572.60703 161.883457 
L 573.209803 161.419178 
L 573.813738 162.465915 
L 575.024902 165.438359 
L 575.632029 165.883399 
L 576.240122 165.514972 
L 577.459113 164.452899 
L 578.070042 164.059464 
L 578.682014 163.28699 
L 579.909332 160.610267 
L 580.524703 160.240413 
L 582.377667 160.801528 
L 582.997476 160.785319 
L 583.618309 159.950697 
L 584.24013 158.391002 
L 584.862899 157.308826 
L 585.486592 157.629208 
L 586.1112 159.15025 
L 587.363125 163.089689 
L 587.990491 164.258887 
L 588.618845 164.181653 
L 589.248213 162.616771 
L 589.878579 160.550195 
L 590.5099 159.662612 
L 591.142134 160.326964 
L 591.775235 161.359999 
L 592.409146 162.124752 
L 593.043828 163.065298 
L 593.679277 164.586496 
L 594.952607 168.196177 
L 595.590589 169.537342 
L 596.229504 170.164201 
L 596.86935 169.813079 
L 598.151782 168.089364 
L 598.79433 167.794848 
L 599.437778 169.067308 
L 600.082107 170.855516 
L 600.727215 171.43272 
L 601.372978 171.025078 
L 604.608276 167.316244 
L 605.905759 166.447122 
L 606.55572 166.210271 
L 607.206632 166.112667 
L 607.858499 166.205633 
L 610.473566 167.36464 
L 611.784961 167.610323 
L 612.441746 167.679323 
L 613.099003 167.337161 
L 614.413753 165.076166 
L 615.070643 164.696898 
L 615.726741 165.721578 
L 616.381721 167.419728 
L 617.035318 168.485798 
L 617.6873 167.971352 
L 618.337466 165.185969 
L 618.985654 160.010531 
L 619.631708 153.731203 
L 620.275474 148.6603 
L 620.916792 146.146048 
L 621.555501 145.176132 
L 622.191447 143.64505 
L 622.824482 140.116949 
L 624.704802 123.962677 
L 625.324912 121.13379 
L 625.941503 119.816296 
L 627.769104 117.603447 
L 628.370544 115.983858 
L 628.967888 112.575756 
L 630.734037 99.735271 
L 631.313836 97.067361 
L 631.889183 95.719244 
L 632.460214 97.041582 
L 633.589675 102.539099 
L 634.148184 103.034806 
L 634.702548 101.657231 
L 635.25268 99.368322 
L 636.339779 93.94008 
L 636.876534 92.171898 
L 637.408665 91.836106 
L 637.936121 92.821562 
L 638.976903 95.959505 
L 639.490201 96.589511 
L 639.998752 96.337415 
L 640.502525 95.49212 
L 641.001487 94.027698 
L 641.985087 90.553432 
L 642.950037 88.492291 
L 643.897016 86.544531 
L 644.36407 86.502053 
L 645.285971 88.541524 
L 645.741101 89.19756 
L 646.192541 89.453245 
L 646.640421 89.024739 
L 647.08489 87.736602 
L 647.526162 85.622279 
L 648.400332 79.36045 
L 648.833895 76.233612 
L 649.265546 74.066576 
L 649.695606 73.118111 
L 650.124381 72.936362 
L 650.552149 72.624967 
L 650.979149 71.292459 
L 651.405557 68.555184 
L 652.257113 61.475537 
L 653.107506 56.845502 
L 655.643253 45.551512 
L 656.060622 45.064916 
L 656.476008 45.074214 
L 657.301029 45.241638 
L 658.119624 45.254009 
L 658.933729 45.637792 
L 660.55503 47.114472 
L 660.960114 47.519421 
L 661.36555 48.135638 
L 661.771644 49.147378 
L 662.178688 50.732584 
L 662.996484 55.567228 
L 664.649623 67.316836 
L 665.4845 71.11486 
L 666.324378 74.194547 
L 666.746249 76.270369 
L 667.169525 79.487598 
L 668.020658 89.577959 
L 668.878656 101.15631 
L 669.310383 105.45807 
L 670.616166 115.204736 
L 672.379293 134.364124 
L 673.269819 139.66582 
L 673.717362 140.308037 
L 674.166442 137.754222 
L 674.617066 135.838706 
L 675.069239 141.961109 
L 675.522976 155.715542 
L 675.978292 164.648863 
L 676.435193 162.845048 
L 676.893688 151.333359 
L 677.815456 110.299733 
L 678.278658 104.724598 
L 678.74337 126.623648 
L 679.209645 176.897694 
L 679.513182 185.471007 
L 679.513182 185.471007 
" clip-path="url(#p5937dc6ad6)" style="fill: none; stroke: #d62728; stroke-opacity: 0.8; stroke-width: 0.9; stroke-linecap: square"/>
   </g>
   <g id="patch_3">
    <path d="M 56.09 246.04 
L 56.09 26.88 
" style="fill: none; stroke: #000000; stroke-width: 0.8; stroke-linejoin: miter; stroke-linecap: square"/>
   </g>
   <g id="patch_4">
    <path d="M 709.2 246.04 
L 709.2 26.88 
" style="fill: none; stroke: #000000; stroke-width: 0.8; stroke-linejoin: miter; stroke-linecap: square"/>
   </g>
   <g id="patch_5">
    <path d="M 56.09 246.04 
L 709.2 246.04 
" style="fill: none; stroke: #000000; stroke-width: 0.8; stroke-linejoin: miter; stroke-linecap: square"/>
   </g>
   <g id="patch_6">
    <path d="M 56.09 26.88 
L 709.2 26.88 
" style="fill: none; stroke: #000000; stroke-width: 0.8; stroke-linejoin: miter; stroke-linecap: square"/>
   </g>
   <g id="text_16">
    <!-- steering-link loads over one Kinnekulle Ring lap -->
    <g transform="translate(239.711875 20.88) scale(0.12 -0.12)">
     <defs>
      <path id="DejaVuSans-67" d="M 2906 1791 
Q 2906 2416 2648 2759 
Q 2391 3103 1925 3103 
Q 1463 3103 1205 2759 
Q 947 2416 947 1791 
Q 947 1169 1205 825 
Q 1463 481 1925 481 
Q 2391 481 2648 825 
Q 2906 1169 2906 1791 
z
M 3481 434 
Q 3481 -459 3084 -895 
Q 2688 -1331 1869 -1331 
Q 1566 -1331 1297 -1286 
Q 1028 -1241 775 -1147 
L 775 -588 
Q 1028 -725 1275 -790 
Q 1522 -856 1778 -856 
Q 2344 -856 2625 -561 
Q 2906 -266 2906 331 
L 2906 616 
Q 2728 306 2450 153 
Q 2172 0 1784 0 
Q 1141 0 747 490 
Q 353 981 353 1791 
Q 353 2603 747 3093 
Q 1141 3584 1784 3584 
Q 2172 3584 2450 3431 
Q 2728 3278 2906 2969 
L 2906 3500 
L 3481 3500 
L 3481 434 
z
" transform="scale(0.015625)"/>
      <path id="DejaVuSans-6c" d="M 603 4863 
L 1178 4863 
L 1178 0 
L 603 0 
L 603 4863 
z
" transform="scale(0.015625)"/>
      <path id="DejaVuSans-76" d="M 191 3500 
L 800 3500 
L 1894 563 
L 2988 3500 
L 3597 3500 
L 2284 0 
L 1503 0 
L 191 3500 
z
" transform="scale(0.015625)"/>
      <path id="DejaVuSans-4b" d="M 628 4666 
L 1259 4666 
L 1259 2694 
L 3353 4666 
L 4166 4666 
L 1850 2491 
L 4331 0 
L 3500 0 
L 1259 2247 
L 1259 0 
L 628 0 
L 628 4666 
z
" transform="scale(0.015625)"/>
      <path id="DejaVuSans-75" d="M 544 1381 
L 544 3500 
L 1119 3500 
L 1119 1403 
Q 1119 906 1312 657 
Q 1506 409 1894 409 
Q 2359 409 2629 706 
Q 2900 1003 2900 1516 
L 2900 3500 
L 3475 3500 
L 3475 0 
L 2900 0 
L 2900 538 
Q 2691 219 2414 64 
Q 2138 -91 1772 -91 
Q 1169 -91 856 284 
Q 544 659 544 1381 
z
M 1991 3584 
L 1991 3584 
z
" transform="scale(0.015625)"/>
      <path id="DejaVuSans-52" d="M 2841 2188 
Q 3044 2119 3236 1894 
Q 3428 1669 3622 1275 
L 4263 0 
L 3584 0 
L 2988 1197 
Q 2756 1666 2539 1819 
Q 2322 1972 1947 1972 
L 1259 1972 
L 1259 0 
L 628 0 
L 628 4666 
L 2053 4666 
Q 2853 4666 3247 4331 
Q 3641 3997 3641 3322 
Q 3641 2881 3436 2590 
Q 3231 2300 2841 2188 
z
M 1259 4147 
L 1259 2491 
L 2053 2491 
Q 2509 2491 2742 2702 
Q 2975 2913 2975 3322 
Q 2975 3731 2742 3939 
Q 2509 4147 2053 4147 
L 1259 4147 
z
" transform="scale(0.015625)"/>
      <path id="DejaVuSans-70" d="M 1159 525 
L 1159 -1331 
L 581 -1331 
L 581 3500 
L 1159 3500 
L 1159 2969 
Q 1341 3281 1617 3432 
Q 1894 3584 2278 3584 
Q 2916 3584 3314 3078 
Q 3713 2572 3713 1747 
Q 3713 922 3314 415 
Q 2916 -91 2278 -91 
Q 1894 -91 1617 61 
Q 1341 213 1159 525 
z
M 3116 1747 
Q 3116 2381 2855 2742 
Q 2594 3103 2138 3103 
Q 1681 3103 1420 2742 
Q 1159 2381 1159 1747 
Q 1159 1113 1420 752 
Q 1681 391 2138 391 
Q 2594 391 2855 752 
Q 3116 1113 3116 1747 
z
" transform="scale(0.015625)"/>
     </defs>
     <use xlink:href="#DejaVuSans-73"/>
     <use xlink:href="#DejaVuSans-74" transform="translate(52.099609 0)"/>
     <use xlink:href="#DejaVuSans-65" transform="translate(91.308594 0)"/>
     <use xlink:href="#DejaVuSans-65" transform="translate(152.832031 0)"/>
     <use xlink:href="#DejaVuSans-72" transform="translate(214.355469 0)"/>
     <use xlink:href="#DejaVuSans-69" transform="translate(255.46875 0)"/>
     <use xlink:href="#DejaVuSans-6e" transform="translate(283.251953 0)"/>
     <use xlink:href="#DejaVuSans-67" transform="translate(346.630859 0)"/>
     <use xlink:href="#DejaVuSans-2d" transform="translate(410.107422 0)"/>
     <use xlink:href="#DejaVuSans-6c" transform="translate(446.191406 0)"/>
     <use xlink:href="#DejaVuSans-69" transform="translate(473.974609 0)"/>
     <use xlink:href="#DejaVuSans-6e" transform="translate(501.757812 0)"/>
     <use xlink:href="#DejaVuSans-6b" transform="translate(565.136719 0)"/>
     <use xlink:href="#DejaVuSans-20" transform="translate(623.046875 0)"/>
     <use xlink:href="#DejaVuSans-6c" transform="translate(654.833984 0)"/>
     <use xlink:href="#DejaVuSans-6f" transform="translate(682.617188 0)"/>
     <use xlink:href="#DejaVuSans-61" transform="translate(743.798828 0)"/>
     <use xlink:href="#DejaVuSans-64" transform="translate(805.078125 0)"/>
     <use xlink:href="#DejaVuSans-73" transform="translate(868.554688 0)"/>
     <use xlink:href="#DejaVuSans-20" transform="translate(920.654297 0)"/>
     <use xlink:href="#DejaVuSans-6f" transform="translate(952.441406 0)"/>
     <use xlink:href="#DejaVuSans-76" transform="translate(1013.623047 0)"/>
     <use xlink:href="#DejaVuSans-65" transform="translate(1072.802734 0)"/>
     <use xlink:href="#DejaVuSans-72" transform="translate(1134.326172 0)"/>
     <use xlink:href="#DejaVuSans-20" transform="translate(1175.439453 0)"/>
     <use xlink:href="#DejaVuSans-6f" transform="translate(1207.226562 0)"/>
     <use xlink:href="#DejaVuSans-6e" transform="translate(1268.408203 0)"/>
     <use xlink:href="#DejaVuSans-65" transform="translate(1331.787109 0)"/>
     <use xlink:href="#DejaVuSans-20" transform="translate(1393.310547 0)"/>
     <use xlink:href="#DejaVuSans-4b" transform="translate(1425.097656 0)"/>
     <use xlink:href="#DejaVuSans-69" transform="translate(1490.673828 0)"/>
     <use xlink:href="#DejaVuSans-6e" transform="translate(1518.457031 0)"/>
     <use xlink:href="#DejaVuSans-6e" transform="translate(1581.835938 0)"/>
     <use xlink:href="#DejaVuSans-65" transform="translate(1645.214844 0)"/>
     <use xlink:href="#DejaVuSans-6b" transform="translate(1706.738281 0)"/>
     <use xlink:href="#DejaVuSans-75" transform="translate(1761.523438 0)"/>
     <use xlink:href="#DejaVuSans-6c" transform="translate(1824.902344 0)"/>
     <use xlink:href="#DejaVuSans-6c" transform="translate(1852.685547 0)"/>
     <use xlink:href="#DejaVuSans-65" transform="translate(1880.46875 0)"/>
     <use xlink:href="#DejaVuSans-20" transform="translate(1941.992188 0)"/>
     <use xlink:href="#DejaVuSans-52" transform="translate(1973.779297 0)"/>
     <use xlink:href="#DejaVuSans-69" transform="translate(2043.261719 0)"/>
     <use xlink:href="#DejaVuSans-6e" transform="translate(2071.044922 0)"/>
     <use xlink:href="#DejaVuSans-67" transform="translate(2134.423828 0)"/>
     <use xlink:href="#DejaVuSans-20" transform="translate(2197.900391 0)"/>
     <use xlink:href="#DejaVuSans-6c" transform="translate(2229.6875 0)"/>
     <use xlink:href="#DejaVuSans-61" transform="translate(2257.470703 0)"/>
     <use xlink:href="#DejaVuSans-70" transform="translate(2318.75 0)"/>
    </g>
   </g>
   <g id="legend_1">
    <g id="patch_7">
     <path d="M 61.69 56.765 
L 134.535 56.765 
Q 136.135 56.765 136.135 55.165 
L 136.135 32.48 
Q 136.135 30.88 134.535 30.88 
L 61.69 30.88 
Q 60.09 30.88 60.09 32.48 
L 60.09 55.165 
Q 60.09 56.765 61.69 56.765 
z
" style="fill: #ffffff; opacity: 0.8; stroke: #cccccc; stroke-linejoin: miter"/>
    </g>
    <g id="line2d_29">
     <path d="M 63.29 37.35875 
L 71.29 37.35875 
L 79.29 37.35875 
" style="fill: none; stroke: #2ca02c; stroke-width: 0.9; stroke-linecap: square"/>
    </g>
    <g id="text_17">
     <!-- tie rod left -->
     <g transform="translate(85.69 40.15875) scale(0.08 -0.08)">
      <use xlink:href="#DejaVuSans-74"/>
      <use xlink:href="#DejaVuSans-69" transform="translate(39.208984 0)"/>
      <use xlink:href="#DejaVuSans-65" transform="translate(66.992188 0)"/>
      <use xlink:href="#DejaVuSans-20" transform="translate(128.515625 0)"/>
      <use xlink:href="#DejaVuSans-72" transform="translate(160.302734 0)"/>
      <use xlink:href="#DejaVuSans-6f" transform="translate(199.166016 0)"/>
      <use xlink:href="#DejaVuSans-64" transform="translate(260.347656 0)"/>
      <use xlink:href="#DejaVuSans-20" transform="translate(323.824219 0)"/>
      <use xlink:href="#DejaVuSans-6c" transform="translate(355.611328 0)"/>
      <use xlink:href="#DejaVuSans-65" transform="translate(383.394531 0)"/>
      <use xlink:href="#DejaVuSans-66" transform="translate(444.917969 0)"/>
      <use xlink:href="#DejaVuSans-74" transform="translate(478.373047 0)"/>
     </g>
    </g>
    <g id="line2d_30">
     <path d="M 63.29 49.10125 
L 71.29 49.10125 
L 79.29 49.10125 
" style="fill: none; stroke: #d62728; stroke-opacity: 0.8; stroke-width: 0.9; stroke-linecap: square"/>
    </g>
    <g id="text_18">
     <!-- tie rod right -->
     <g transform="translate(85.69 51.90125) scale(0.08 -0.08)">
      <defs>
       <path id="DejaVuSans-68" d="M 3513 2113 
L 3513 0 
L 2938 0 
L 2938 2094 
Q 2938 2591 2744 2837 
Q 2550 3084 2163 3084 
Q 1697 3084 1428 2787 
Q 1159 2491 1159 1978 
L 1159 0 
L 581 0 
L 581 4863 
L 1159 4863 
L 1159 2956 
Q 1366 3272 1645 3428 
Q 1925 3584 2291 3584 
Q 2894 3584 3203 3211 
Q 3513 2838 3513 2113 
z
" transform="scale(0.015625)"/>
      </defs>
      <use xlink:href="#DejaVuSans-74"/>
      <use xlink:href="#DejaVuSans-69" transform="translate(39.208984 0)"/>
      <use xlink:href="#DejaVuSans-65" transform="translate(66.992188 0)"/>
      <use xlink:href="#DejaVuSans-20" transform="translate(128.515625 0)"/>
      <use xlink:href="#DejaVuSans-72" transform="translate(160.302734 0)"/>
      <use xlink:href="#DejaVuSans-6f" transform="translate(199.166016 0)"/>
      <use xlink:href="#DejaVuSans-64" transform="translate(260.347656 0)"/>
      <use xlink:href="#DejaVuSans-20" transform="translate(323.824219 0)"/>
      <use xlink:href="#DejaVuSans-72" transform="translate(355.611328 0)"/>
      <use xlink:href="#DejaVuSans-69" transform="translate(396.724609 0)"/>
      <use xlink:href="#DejaVuSans-67" transform="translate(424.507812 0)"/>
      <use xlink:href="#DejaVuSans-68" transform="translate(487.984375 0)"/>
      <use xlink:href="#DejaVuSans-74" transform="translate(551.363281 0)"/>
     </g>
    </g>
   </g>
  </g>
 </g>
 <defs>
  <clipPath id="p5937dc6ad6">
   <rect x="56.09" y="26.88" width="653.11" height="219.16"/>
  </clipPath>
 </defs>
</svg>
