<?xml version="1.0" encoding="utf-8" standalone="no"?>
<!DOCTYPE svg PUBLIC "-//W3C//DTD SVG 1.1//EN"
  "http://www.w3.org/Graphics/SVG/1.1/DTD/svg11.dtd">
<svg xmlns:xlink="http://www.w3.org/1999/xlink" width="720pt" height="432pt" viewBox="0 0 720 432" xmlns="http://www.w3.org/2000/svg" version="1.1">
 <metadata>
  <rdf:RDF xmlns:dc="http://purl.org/dc/elements/1.1/" xmlns:cc="http://creativecommons.org/ns#" xmlns:rdf="http://www.w3.org/1999/02/22-rdf-syntax-ns#">
   <cc:Work>
    <dc:type rdf:resource="http://purl.org/dc/dcmitype/StillImage"/>
    <dc:date>2026-07-07T16:17:18.397034</dc:date>
    <dc:format>image/svg+xml</dc:format>
    <dc:creator>
     <cc:Agent>
      <dc:title>Matplotlib v3.10.8, https://matplotlib.org/</dc:title>
     </cc:Agent>
    </dc:creator>
   </cc:Work>
  </rdf:RDF>
 </metadata>
 <defs>
  <style type="text/css">*{stroke-linejoin: round; stroke-linecap: butt}</style>
 </defs>
 <g id="figure_1">
  <g id="patch_1">
   <path d="M 0 432 
L 720 432 
L 720 0 
L 0 0 
z
" style="fill: #ffffff"/>
  </g>
  <g id="axes_1">
   <g id="patch_2">
    <path d="M 50.96 273.134118 
L 709.2 273.134118 
L 709.2 26.88 
L 50.96 26.88 
z
" style="fill: #ffffff"/>
   </g>
   <g id="matplotlib.axis_1">
    <g id="xtick_1">
     <g id="line2d_1">
      <path d="M 80.88 273.134118 
L 80.88 26.88 
" clip-path="url(#p7969f999bc)" style="fill: none; stroke: #b0b0b0; stroke-opacity: 0.3; stroke-width: 0.8; stroke-linecap: square"/>
     </g>
     <g id="line2d_2">
      <defs>
       <path id="m043bfe3863" d="M 0 0 
L 0 3.5 
" style="stroke: #000000; stroke-width: 0.8"/>
      </defs>
      <g>
       <use xlink:href="#m043bfe3863" x="80.88" y="273.134118" style="stroke: #000000; stroke-width: 0.8"/>
      </g>
     </g>
    </g>
    <g id="xtick_2">
     <g id="line2d_3">
      <path d="M 226.476107 273.134118 
L 226.476107 26.88 
" clip-path="url(#p7969f999bc)" style="fill: none; stroke: #b0b0b0; stroke-opacity: 0.3; stroke-width: 0.8; stroke-linecap: square"/>
     </g>
     <g id="line2d_4">
      <g>
       <use xlink:href="#m043bfe3863" x="226.476107" y="273.134118" style="stroke: #000000; stroke-width: 0.8"/>
      </g>
     </g>
    </g>
    <g id="xtick_3">
     <g id="line2d_5">
      <path d="M 372.072214 273.134118 
L 372.072214 26.88 
" clip-path="url(#p7969f999bc)" style="fill: none; stroke: #b0b0b0; stroke-opacity: 0.3; stroke-width: 0.8; stroke-linecap: square"/>
     </g>
     <g id="line2d_6">
      <g>
       <use xlink:href="#m043bfe3863" x="372.072214" y="273.134118" style="stroke: #000000; stroke-width: 0.8"/>
      </g>
     </g>
    </g>
    <g id="xtick_4">
     <g id="line2d_7">
      <path d="M 517.668321 273.134118 
L 517.668321 26.88 
" clip-path="url(#p7969f999bc)" style="fill: none; stroke: #b0b0b0; stroke-opacity: 0.3; stroke-width: 0.8; stroke-linecap: square"/>
     </g>
     <g id="line2d_8">
      <g>
       <use xlink:href="#m043bfe3863" x="517.668321" y="273.134118" style="stroke: #000000; stroke-width: 0.8"/>
      </g>
     </g>
    </g>
    <g id="xtick_5">
     <g id="line2d_9">
      <path d="M 663.264428 273.134118 
L 663.264428 26.88 
" clip-path="url(#p7969f999bc)" style="fill: none; stroke: #b0b0b0; stroke-opacity: 0.3; stroke-width: 0.8; stroke-linecap: square"/>
     </g>
     <g id="line2d_10">
      <g>
       <use xlink:href="#m043bfe3863" x="663.264428" y="273.134118" style="stroke: #000000; stroke-width: 0.8"/>
      </g>
     </g>
    </g>
   </g>
   <g id="matplotlib.axis_2">
    <g id="ytick_1">
     <g id="line2d_11">
      <path d="M 50.96 252.548732 
L 709.2 252.548732 
" clip-path="url(#p7969f999bc)" style="fill: none; stroke: #b0b0b0; stroke-opacity: 0.3; stroke-width: 0.8; stroke-linecap: square"/>
     </g>
     <g id="line2d_12">
      <defs>
       <path id="mac6812ed8f" d="M 0 0 
L -3.5 0 
" style="stroke: #000000; stroke-width: 0.8"/>
      </defs>
      <g>
       <use xlink:href="#mac6812ed8f" x="50.96" y="252.548732" style="stroke: #000000; stroke-width: 0.8"/>
      </g>
     </g>
     <g id="text_1">
      <!-- 60 -->
      <g transform="translate(31.235 256.347951) scale(0.1 -0.1)">
       <defs>
        <path id="DejaVuSans-36" d="M 2113 2584 
Q 1688 2584 1439 2293 
Q 1191 2003 1191 1497 
Q 1191 994 1439 701 
Q 1688 409 2113 409 
Q 2538 409 2786 701 
Q 3034 994 3034 1497 
Q 3034 2003 2786 2293 
Q 2538 2584 2113 2584 
z
M 3366 4563 
L 3366 3988 
Q 3128 4100 2886 4159 
Q 2644 4219 2406 4219 
Q 1781 4219 1451 3797 
Q 1122 3375 1075 2522 
Q 1259 2794 1537 2939 
Q 1816 3084 2150 3084 
Q 2853 3084 3261 2657 
Q 3669 2231 3669 1497 
Q 3669 778 3244 343 
Q 2819 -91 2113 -91 
Q 1303 -91 875 529 
Q 447 1150 447 2328 
Q 447 3434 972 4092 
Q 1497 4750 2381 4750 
Q 2619 4750 2861 4703 
Q 3103 4656 3366 4563 
z
" transform="scale(0.015625)"/>
        <path id="DejaVuSans-30" d="M 2034 4250 
Q 1547 4250 1301 3770 
Q 1056 3291 1056 2328 
Q 1056 1369 1301 889 
Q 1547 409 2034 409 
Q 2525 409 2770 889 
Q 3016 1369 3016 2328 
Q 3016 3291 2770 3770 
Q 2525 4250 2034 4250 
z
M 2034 4750 
Q 2819 4750 3233 4129 
Q 3647 3509 3647 2328 
Q 3647 1150 3233 529 
Q 2819 -91 2034 -91 
Q 1250 -91 836 529 
Q 422 1150 422 2328 
Q 422 3509 836 4129 
Q 1250 4750 2034 4750 
z
" transform="scale(0.015625)"/>
       </defs>
       <use xlink:href="#DejaVuSans-36"/>
       <use xlink:href="#DejaVuSans-30" transform="translate(63.623047 0)"/>
      </g>
     </g>
    </g>
    <g id="ytick_2">
     <g id="line2d_13">
      <path d="M 50.96 208.827876 
L 709.2 208.827876 
" clip-path="url(#p7969f999bc)" style="fill: none; stroke: #b0b0b0; stroke-opacity: 0.3; stroke-width: 0.8; stroke-linecap: square"/>
     </g>
     <g id="line2d_14">
      <g>
       <use xlink:href="#mac6812ed8f" x="50.96" y="208.827876" style="stroke: #000000; stroke-width: 0.8"/>
      </g>
     </g>
     <g id="text_2">
      <!-- 80 -->
      <g transform="translate(31.235 212.627095) scale(0.1 -0.1)">
       <defs>
        <path id="DejaVuSans-38" d="M 2034 2216 
Q 1584 2216 1326 1975 
Q 1069 1734 1069 1313 
Q 1069 891 1326 650 
Q 1584 409 2034 409 
Q 2484 409 2743 651 
Q 3003 894 3003 1313 
Q 3003 1734 2745 1975 
Q 2488 2216 2034 2216 
z
M 1403 2484 
Q 997 2584 770 2862 
Q 544 3141 544 3541 
Q 544 4100 942 4425 
Q 1341 4750 2034 4750 
Q 2731 4750 3128 4425 
Q 3525 4100 3525 3541 
Q 3525 3141 3298 2862 
Q 3072 2584 2669 2484 
Q 3125 2378 3379 2068 
Q 3634 1759 3634 1313 
Q 3634 634 3220 271 
Q 2806 -91 2034 -91 
Q 1263 -91 848 271 
Q 434 634 434 1313 
Q 434 1759 690 2068 
Q 947 2378 1403 2484 
z
M 1172 3481 
Q 1172 3119 1398 2916 
Q 1625 2713 2034 2713 
Q 2441 2713 2670 2916 
Q 2900 3119 2900 3481 
Q 2900 3844 2670 4047 
Q 2441 4250 2034 4250 
Q 1625 4250 1398 4047 
Q 1172 3844 1172 3481 
z
" transform="scale(0.015625)"/>
       </defs>
       <use xlink:href="#DejaVuSans-38"/>
       <use xlink:href="#DejaVuSans-30" transform="translate(63.623047 0)"/>
      </g>
     </g>
    </g>
    <g id="ytick_3">
     <g id="line2d_15">
      <path d="M 50.96 165.107021 
L 709.2 165.107021 
" clip-path="url(#p7969f999bc)" style="fill: none; stroke: #b0b0b0; stroke-opacity: 0.3; stroke-width: 0.8; stroke-linecap: square"/>
     </g>
     <g id="line2d_16">
      <g>
       <use xlink:href="#mac6812ed8f" x="50.96" y="165.107021" style="stroke: #000000; stroke-width: 0.8"/>
      </g>
     </g>
     <g id="text_3">
      <!-- 100 -->
      <g transform="translate(24.8725 168.906239) scale(0.1 -0.1)">
       <defs>
        <path id="DejaVuSans-31" d="M 794 531 
L 1825 531 
L 1825 4091 
L 703 3866 
L 703 4441 
L 1819 4666 
L 2450 4666 
L 2450 531 
L 3481 531 
L 3481 0 
L 794 0 
L 794 531 
z
" transform="scale(0.015625)"/>
       </defs>
       <use xlink:href="#DejaVuSans-31"/>
       <use xlink:href="#DejaVuSans-30" transform="translate(63.623047 0)"/>
       <use xlink:href="#DejaVuSans-30" transform="translate(127.246094 0)"/>
      </g>
     </g>
    </g>
    <g id="ytick_4">
     <g id="line2d_17">
      <path d="M 50.96 121.386165 
L 709.2 121.386165 
" clip-path="url(#p7969f999bc)" style="fill: none; stroke: #b0b0b0; stroke-opacity: 0.3; stroke-width: 0.8; stroke-linecap: square"/>
     </g>
     <g id="line2d_18">
      <g>
       <use xlink:href="#mac6812ed8f" x="50.96" y="121.386165" style="stroke: #000000; stroke-width: 0.8"/>
      </g>
     </g>
     <g id="text_4">
      <!-- 120 -->
      <g transform="translate(24.8725 125.185384) scale(0.1 -0.1)">
       <defs>
        <path id="DejaVuSans-32" d="M 1228 531 
L 3431 531 
L 3431 0 
L 469 0 
L 469 531 
Q 828 903 1448 1529 
Q 2069 2156 2228 2338 
Q 2531 2678 2651 2914 
Q 2772 3150 2772 3378 
Q 2772 3750 2511 3984 
Q 2250 4219 1831 4219 
Q 1534 4219 1204 4116 
Q 875 4013 500 3803 
L 500 4441 
Q 881 4594 1212 4672 
Q 1544 4750 1819 4750 
Q 2544 4750 2975 4387 
Q 3406 4025 3406 3419 
Q 3406 3131 3298 2873 
Q 3191 2616 2906 2266 
Q 2828 2175 2409 1742 
Q 1991 1309 1228 531 
z
" transform="scale(0.015625)"/>
       </defs>
       <use xlink:href="#DejaVuSans-31"/>
       <use xlink:href="#DejaVuSans-32" transform="translate(63.623047 0)"/>
       <use xlink:href="#DejaVuSans-30" transform="translate(127.246094 0)"/>
      </g>
     </g>
    </g>
    <g id="ytick_5">
     <g id="line2d_19">
      <path d="M 50.96 77.665309 
L 709.2 77.665309 
" clip-path="url(#p7969f999bc)" style="fill: none; stroke: #b0b0b0; stroke-opacity: 0.3; stroke-width: 0.8; stroke-linecap: square"/>
     </g>
     <g id="line2d_20">
      <g>
       <use xlink:href="#mac6812ed8f" x="50.96" y="77.665309" style="stroke: #000000; stroke-width: 0.8"/>
      </g>
     </g>
     <g id="text_5">
      <!-- 140 -->
      <g transform="translate(24.8725 81.464528) scale(0.1 -0.1)">
       <defs>
        <path id="DejaVuSans-34" d="M 2419 4116 
L 825 1625 
L 2419 1625 
L 2419 4116 
z
M 2253 4666 
L 3047 4666 
L 3047 1625 
L 3713 1625 
L 3713 1100 
L 3047 1100 
L 3047 0 
L 2419 0 
L 2419 1100 
L 313 1100 
L 313 1709 
L 2253 4666 
z
" transform="scale(0.015625)"/>
       </defs>
       <use xlink:href="#DejaVuSans-31"/>
       <use xlink:href="#DejaVuSans-34" transform="translate(63.623047 0)"/>
       <use xlink:href="#DejaVuSans-30" transform="translate(127.246094 0)"/>
      </g>
     </g>
    </g>
    <g id="ytick_6">
     <g id="line2d_21">
      <path d="M 50.96 33.944453 
L 709.2 33.944453 
" clip-path="url(#p7969f999bc)" style="fill: none; stroke: #b0b0b0; stroke-opacity: 0.3; stroke-width: 0.8; stroke-linecap: square"/>
     </g>
     <g id="line2d_22">
      <g>
       <use xlink:href="#mac6812ed8f" x="50.96" y="33.944453" style="stroke: #000000; stroke-width: 0.8"/>
      </g>
     </g>
     <g id="text_6">
      <!-- 160 -->
      <g transform="translate(24.8725 37.743672) scale(0.1 -0.1)">
       <use xlink:href="#DejaVuSans-31"/>
       <use xlink:href="#DejaVuSans-36" transform="translate(63.623047 0)"/>
       <use xlink:href="#DejaVuSans-30" transform="translate(127.246094 0)"/>
      </g>
     </g>
    </g>
    <g id="text_7">
     <!-- speed [km/h] -->
     <g transform="translate(18.792813 183.222684) rotate(-90) scale(0.1 -0.1)">
      <defs>
       <path id="DejaVuSans-73" d="M 2834 3397 
L 2834 2853 
Q 2591 2978 2328 3040 
Q 2066 3103 1784 3103 
Q 1356 3103 1142 2972 
Q 928 2841 928 2578 
Q 928 2378 1081 2264 
Q 1234 2150 1697 2047 
L 1894 2003 
Q 2506 1872 2764 1633 
Q 3022 1394 3022 966 
Q 3022 478 2636 193 
Q 2250 -91 1575 -91 
Q 1294 -91 989 -36 
Q 684 19 347 128 
L 347 722 
Q 666 556 975 473 
Q 1284 391 1588 391 
Q 1994 391 2212 530 
Q 2431 669 2431 922 
Q 2431 1156 2273 1281 
Q 2116 1406 1581 1522 
L 1381 1569 
Q 847 1681 609 1914 
Q 372 2147 372 2553 
Q 372 3047 722 3315 
Q 1072 3584 1716 3584 
Q 2034 3584 2315 3537 
Q 2597 3491 2834 3397 
z
" transform="scale(0.015625)"/>
       <path id="DejaVuSans-70" d="M 1159 525 
L 1159 -1331 
L 581 -1331 
L 581 3500 
L 1159 3500 
L 1159 2969 
Q 1341 3281 1617 3432 
Q 1894 3584 2278 3584 
Q 2916 3584 3314 3078 
Q 3713 2572 3713 1747 
Q 3713 922 3314 415 
Q 2916 -91 2278 -91 
Q 1894 -91 1617 61 
Q 1341 213 1159 525 
z
M 3116 1747 
Q 3116 2381 2855 2742 
Q 2594 3103 2138 3103 
Q 1681 3103 1420 2742 
Q 1159 2381 1159 1747 
Q 1159 1113 1420 752 
Q 1681 391 2138 391 
Q 2594 391 2855 752 
Q 3116 1113 3116 1747 
z
" transform="scale(0.015625)"/>
       <path id="DejaVuSans-65" d="M 3597 1894 
L 3597 1613 
L 953 1613 
Q 991 1019 1311 708 
Q 1631 397 2203 397 
Q 2534 397 2845 478 
Q 3156 559 3463 722 
L 3463 178 
Q 3153 47 2828 -22 
Q 2503 -91 2169 -91 
Q 1331 -91 842 396 
Q 353 884 353 1716 
Q 353 2575 817 3079 
Q 1281 3584 2069 3584 
Q 2775 3584 3186 3129 
Q 3597 2675 3597 1894 
z
M 3022 2063 
Q 3016 2534 2758 2815 
Q 2500 3097 2075 3097 
Q 1594 3097 1305 2825 
Q 1016 2553 972 2059 
L 3022 2063 
z
" transform="scale(0.015625)"/>
       <path id="DejaVuSans-64" d="M 2906 2969 
L 2906 4863 
L 3481 4863 
L 3481 0 
L 2906 0 
L 2906 525 
Q 2725 213 2448 61 
Q 2172 -91 1784 -91 
Q 1150 -91 751 415 
Q 353 922 353 1747 
Q 353 2572 751 3078 
Q 1150 3584 1784 3584 
Q 2172 3584 2448 3432 
Q 2725 3281 2906 2969 
z
M 947 1747 
Q 947 1113 1208 752 
Q 1469 391 1925 391 
Q 2381 391 2643 752 
Q 2906 1113 2906 1747 
Q 2906 2381 2643 2742 
Q 2381 3103 1925 3103 
Q 1469 3103 1208 2742 
Q 947 2381 947 1747 
z
" transform="scale(0.015625)"/>
       <path id="DejaVuSans-20" transform="scale(0.015625)"/>
       <path id="DejaVuSans-5b" d="M 550 4863 
L 1875 4863 
L 1875 4416 
L 1125 4416 
L 1125 -397 
L 1875 -397 
L 1875 -844 
L 550 -844 
L 550 4863 
z
" transform="scale(0.015625)"/>
       <path id="DejaVuSans-6b" d="M 581 4863 
L 1159 4863 
L 1159 1991 
L 2875 3500 
L 3609 3500 
L 1753 1863 
L 3688 0 
L 2938 0 
L 1159 1709 
L 1159 0 
L 581 0 
L 581 4863 
z
" transform="scale(0.015625)"/>
       <path id="DejaVuSans-6d" d="M 3328 2828 
Q 3544 3216 3844 3400 
Q 4144 3584 4550 3584 
Q 5097 3584 5394 3201 
Q 5691 2819 5691 2113 
L 5691 0 
L 5113 0 
L 5113 2094 
Q 5113 2597 4934 2840 
Q 4756 3084 4391 3084 
Q 3944 3084 3684 2787 
Q 3425 2491 3425 1978 
L 3425 0 
L 2847 0 
L 2847 2094 
Q 2847 2600 2669 2842 
Q 2491 3084 2119 3084 
Q 1678 3084 1418 2786 
Q 1159 2488 1159 1978 
L 1159 0 
L 581 0 
L 581 3500 
L 1159 3500 
L 1159 2956 
Q 1356 3278 1631 3431 
Q 1906 3584 2284 3584 
Q 2666 3584 2933 3390 
Q 3200 3197 3328 2828 
z
" transform="scale(0.015625)"/>
       <path id="DejaVuSans-2f" d="M 1625 4666 
L 2156 4666 
L 531 -594 
L 0 -594 
L 1625 4666 
z
" transform="scale(0.015625)"/>
       <path id="DejaVuSans-68" d="M 3513 2113 
L 3513 0 
L 2938 0 
L 2938 2094 
Q 2938 2591 2744 2837 
Q 2550 3084 2163 3084 
Q 1697 3084 1428 2787 
Q 1159 2491 1159 1978 
L 1159 0 
L 581 0 
L 581 4863 
L 1159 4863 
L 1159 2956 
Q 1366 3272 1645 3428 
Q 1925 3584 2291 3584 
Q 2894 3584 3203 3211 
Q 3513 2838 3513 2113 
z
" transform="scale(0.015625)"/>
       <path id="DejaVuSans-5d" d="M 1947 4863 
L 1947 -844 
L 622 -844 
L 622 -397 
L 1369 -397 
L 1369 4416 
L 622 4416 
L 622 4863 
L 1947 4863 
z
" transform="scale(0.015625)"/>
      </defs>
      <use xlink:href="#DejaVuSans-73"/>
      <use xlink:href="#DejaVuSans-70" transform="translate(52.099609 0)"/>
      <use xlink:href="#DejaVuSans-65" transform="translate(115.576172 0)"/>
      <use xlink:href="#DejaVuSans-65" transform="translate(177.099609 0)"/>
      <use xlink:href="#DejaVuSans-64" transform="translate(238.623047 0)"/>
      <use xlink:href="#DejaVuSans-20" transform="translate(302.099609 0)"/>
      <use xlink:href="#DejaVuSans-5b" transform="translate(333.886719 0)"/>
      <use xlink:href="#DejaVuSans-6b" transform="translate(372.900391 0)"/>
      <use xlink:href="#DejaVuSans-6d" transform="translate(430.810547 0)"/>
      <use xlink:href="#DejaVuSans-2f" transform="translate(528.222656 0)"/>
      <use xlink:href="#DejaVuSans-68" transform="translate(561.914062 0)"/>
      <use xlink:href="#DejaVuSans-5d" transform="translate(625.292969 0)"/>
     </g>
    </g>
   </g>
   <g id="line2d_23">
    <path d="M 80.88 124.837425 
L 84.488048 117.474711 
L 88.209651 110.402273 
L 91.55647 104.427605 
L 92.041312 105.663976 
L 93.991128 120.488343 
L 102.07867 178.602379 
L 108.453127 225.171048 
L 110.735783 240.670731 
L 112.516635 250.848318 
L 113.198703 253.3756 
L 113.533474 253.899962 
L 114.191056 254.197711 
L 115.461976 254.357644 
L 116.680156 254.529711 
L 117.271557 254.331921 
L 117.563188 253.941838 
L 118.138987 252.344939 
L 119.265859 247.734914 
L 121.438664 238.037048 
L 123.264989 229.796026 
L 124.034711 227.067906 
L 124.545521 225.931969 
L 125.055721 225.187499 
L 125.310965 224.952759 
L 125.566502 224.99169 
L 126.07895 225.357489 
L 126.33597 225.35693 
L 126.593525 225.012608 
L 127.369652 223.111651 
L 128.151786 220.512761 
L 134.599306 196.857755 
L 134.903489 196.396602 
L 135.209659 196.536201 
L 135.517696 197.257819 
L 136.138649 200.13953 
L 137.393909 206.579979 
L 139.604187 215.892679 
L 139.919261 216.778665 
L 140.233895 217.290347 
L 140.861741 217.755707 
L 143.663255 218.534445 
L 144.280358 218.533321 
L 144.588136 218.401841 
L 144.895407 218.102086 
L 145.50852 216.972544 
L 147.644067 211.625765 
L 149.774328 205.994165 
L 151.608063 200.154885 
L 154.090992 192.292873 
L 154.722161 190.45343 
L 155.358686 188.140747 
L 155.679157 187.659542 
L 156.00119 188.254605 
L 156.649631 191.090061 
L 157.959403 197.202864 
L 158.618234 199.685095 
L 158.9482 200.328384 
L 159.278454 200.520199 
L 160.602236 200.344316 
L 161.597674 200.300344 
L 162.262219 199.911927 
L 162.927338 199.045851 
L 164.259629 196.422041 
L 171.694623 179.950036 
L 172.732229 178.407423 
L 174.48093 176.020516 
L 175.899337 173.177436 
L 178.063718 168.816925 
L 180.274437 164.579702 
L 181.774588 160.604581 
L 184.066996 154.532722 
L 186.811899 147.690091 
L 190.470955 138.41286 
L 193.426335 131.467318 
L 196.921722 123.837796 
L 200.537197 116.518072 
L 204.267923 109.48122 
L 205.21809 107.769175 
L 205.695749 107.133767 
L 206.175098 107.443168 
L 206.656028 109.309013 
L 209.073512 124.959479 
L 210.523318 132.792087 
L 211.965286 139.686471 
L 212.443466 141.036948 
L 212.920271 141.47357 
L 213.395721 141.626698 
L 215.284999 141.787372 
L 215.754454 141.597052 
L 216.222886 141.158067 
L 217.157043 139.862482 
L 219.944484 135.656144 
L 220.407555 136.044396 
L 220.870196 138.083354 
L 222.253287 146.06721 
L 224.978514 161.509875 
L 226.754569 172.607658 
L 230.185065 194.733208 
L 231.426348 201.237984 
L 232.239868 204.469342 
L 233.041747 206.969234 
L 233.438119 207.887296 
L 234.221455 209.099579 
L 234.608421 210.038867 
L 235.373162 213.171247 
L 236.866051 220.268764 
L 237.953388 226.060933 
L 238.309558 227.144129 
L 238.662623 227.639583 
L 239.012656 227.79012 
L 240.720655 227.598904 
L 241.715865 227.558666 
L 242.04335 227.421564 
L 242.368772 227.120152 
L 243.013514 226.051079 
L 243.650464 224.424669 
L 244.592418 221.337805 
L 245.826806 216.157365 
L 251.286731 192.632797 
L 255.14371 177.80446 
L 258.979826 164.604565 
L 261.566017 156.560331 
L 262.70822 153.353017 
L 263.093415 153.008611 
L 263.480744 153.841469 
L 263.870011 156.282113 
L 266.226319 175.103634 
L 267.403681 182.944158 
L 268.572541 188.995972 
L 269.345346 191.97222 
L 269.729588 192.659765 
L 270.493771 193.015122 
L 271.630048 193.144304 
L 272.755628 193.145283 
L 273.500765 192.920516 
L 274.242189 192.36467 
L 274.980341 191.492662 
L 275.715643 190.270541 
L 277.17898 187.081002 
L 279.72039 180.760589 
L 281.88589 175.046218 
L 282.2467 174.880666 
L 283.330012 176.072899 
L 285.500449 176.715134 
L 285.863011 176.673509 
L 286.225929 176.418391 
L 286.953143 175.425299 
L 288.415403 173.235727 
L 288.782858 172.838873 
L 289.151135 172.848924 
L 289.520233 174.044467 
L 293.217422 192.966737 
L 296.465856 208.280143 
L 297.869644 214.056689 
L 299.246739 219.025315 
L 299.586685 219.830467 
L 299.92485 220.315474 
L 300.261231 220.500781 
L 301.259905 220.50411 
L 301.917377 220.922453 
L 302.568626 221.517013 
L 302.892032 221.898535 
L 303.214015 222.526304 
L 304.487574 227.56445 
L 305.115253 227.918248 
L 306.352238 228.146687 
L 307.264123 228.269901 
L 307.864633 228.087833 
L 308.162718 227.696258 
L 308.75481 226.153195 
L 309.925666 221.804965 
L 311.663687 214.656762 
L 313.695848 206.321334 
L 316.991974 193.427981 
L 320.848929 177.810149 
L 323.257481 169.310163 
L 325.049672 163.675305 
L 327.654606 156.279186 
L 328.803225 153.494377 
L 330.36356 150.472362 
L 331.954999 147.325686 
L 332.357451 147.515587 
L 332.761574 149.395933 
L 335.612641 167.478576 
L 336.83208 173.602163 
L 338.443557 181.411021 
L 342.357396 201.28625 
L 343.11584 204.110057 
L 343.8656 205.834603 
L 344.237252 206.222764 
L 345.33974 206.5933 
L 347.138267 206.785466 
L 347.492575 206.697078 
L 347.845257 206.429487 
L 348.546185 205.191225 
L 349.9331 201.603623 
L 350.963073 198.450131 
L 355.725966 183.174013 
L 357.440431 178.57244 
L 358.830577 175.351664 
L 360.243122 172.373603 
L 360.600233 172.02191 
L 360.958966 172.700645 
L 361.68078 176.394076 
L 365.677747 198.600606 
L 368.166729 212.546737 
L 371.233097 231.656223 
L 371.889607 234.87911 
L 372.536276 236.755521 
L 372.855931 237.207577 
L 373.488104 237.505784 
L 375.932504 238.080684 
L 376.229818 237.87295 
L 376.525566 237.400008 
L 377.112744 235.760699 
L 381.688477 219.394541 
L 383.383604 211.561754 
L 387.132825 194.255429 
L 388.336747 189.248003 
L 388.643563 189.046861 
L 388.953061 190.370797 
L 392.441505 224.243798 
L 394.625631 241.08281 
L 394.930668 242.438401 
L 395.233711 243.012259 
L 395.833997 243.358587 
L 396.72098 243.353274 
L 399.583864 243.281413 
L 399.863535 243.198119 
L 400.142119 242.994612 
L 400.419643 242.334144 
L 402.337898 235.551089 
L 402.879314 234.512271 
L 403.148913 234.327473 
L 403.41772 234.850969 
L 404.483066 239.090891 
L 405.008815 239.375545 
L 407.072968 239.969829 
L 407.327736 239.948933 
L 407.581988 239.786099 
L 407.835798 239.417765 
L 408.342515 237.97391 
L 409.610543 232.960713 
L 410.377634 229.88871 
L 410.635014 229.361775 
L 410.893285 229.128777 
L 411.15243 229.100468 
L 413.780179 229.984606 
L 414.31138 230.006055 
L 414.84414 229.795978 
L 415.111103 229.391858 
L 415.646359 227.897097 
L 416.995552 222.606454 
L 418.367451 216.247084 
L 423.283429 193.192846 
L 425.792433 182.465315 
L 427.783691 174.879661 
L 430.579505 165.167121 
L 433.151662 157.076289 
L 435.836371 149.354192 
L 438.629365 141.960433 
L 441.526072 134.863161 
L 442.798192 131.938946 
L 443.226227 132.132869 
L 443.656137 134.504201 
L 451.355839 192.95988 
L 453.774794 212.035363 
L 457.524769 241.473903 
L 458.914178 250.874686 
L 459.913439 255.953189 
L 460.559612 258.319961 
L 461.19039 259.962212 
L 461.806495 260.912675 
L 462.408784 261.240029 
L 463.860297 261.58879 
L 464.698388 261.856157 
L 465.24485 261.940749 
L 465.514583 261.831498 
L 465.782074 261.566217 
L 466.310868 260.43039 
L 467.346266 256.928561 
L 470.277303 246.794944 
L 471.66861 240.723238 
L 473.962956 230.213621 
L 474.427436 229.29941 
L 475.130469 228.576251 
L 475.366627 228.657921 
L 475.84179 229.040056 
L 476.080882 229.033697 
L 476.321023 228.680887 
L 476.8045 227.299266 
L 477.538001 224.381926 
L 480.920133 208.676621 
L 483.502638 199.363395 
L 484.708623 194.92372 
L 485.949303 191.108214 
L 486.901589 188.087728 
L 494.443402 162.399751 
L 497.060612 154.732909 
L 500.584123 145.024899 
L 503.443128 137.811883 
L 506.401551 130.917545 
L 510.346317 122.489224 
L 513.980272 115.225687 
L 517.728664 108.249738 
L 521.09888 102.440595 
L 526.054438 94.358972 
L 530.133547 88.134323 
L 533.257037 83.687033 
L 539.121539 75.960249 
L 544.047725 69.646763 
L 547.392131 65.609571 
L 548.517439 64.539099 
L 549.082047 64.233646 
L 549.64794 64.07696 
L 550.783453 63.414191 
L 551.92378 62.31471 
L 556.532432 57.339511 
L 557.696416 56.546579 
L 558.864947 55.77407 
L 560.037504 54.701345 
L 565.356946 49.319853 
L 568.946273 45.88005 
L 573.794253 41.188134 
L 576.860412 38.502664 
L 577.476965 38.073369 
L 578.094615 39.63796 
L 581.189704 56.746466 
L 583.04121 65.136113 
L 586.099317 78.09066 
L 586.705425 79.878828 
L 587.309448 80.67523 
L 587.911399 80.951799 
L 589.109378 81.083503 
L 590.30004 81.039897 
L 591.484072 80.52136 
L 592.662192 79.626102 
L 593.83526 78.400398 
L 596.751506 74.908741 
L 600.230061 70.874042 
L 615.920647 53.244574 
L 616.512753 52.651563 
L 617.105846 54.238246 
L 618.294095 60.604513 
L 620.077073 69.867727 
L 623.032386 87.142324 
L 628.219703 118.558688 
L 634.182152 156.226868 
L 639.606808 191.954563 
L 641.433832 201.964885 
L 642.753165 208.066225 
L 644.029913 212.963629 
L 644.446298 214.002835 
L 644.858236 214.548855 
L 645.669328 214.85832 
L 647.629704 215.12602 
L 648.390066 215.027866 
L 648.765688 214.739404 
L 649.138433 214.160459 
L 649.875802 212.438194 
L 651.677557 207.369795 
L 654.463829 198.308269 
L 666.040104 158.57563 
L 668.681305 150.822091 
L 671.434818 143.398067 
L 674.294941 136.274951 
L 677.256639 129.42664 
L 679.28 125.014463 
L 679.28 125.014463 
" clip-path="url(#p7969f999bc)" style="fill: none; stroke-dasharray: 3.33,1.44; stroke-dashoffset: 0; stroke: #000000; stroke-width: 0.9"/>
   </g>
   <g id="line2d_24">
    <path d="M 80.88 143.841196 
L 84.947107 135.102658 
L 88.682665 127.574435 
L 92.041312 121.218605 
L 92.527613 120.53386 
L 93.014953 120.094438 
L 93.502909 119.860141 
L 93.991128 119.807292 
L 94.479287 119.92482 
L 94.967077 120.203591 
L 95.940417 121.20357 
L 96.909052 122.737132 
L 97.871115 124.74627 
L 98.824945 127.179066 
L 100.237067 131.518868 
L 101.623093 136.560356 
L 103.424476 144.17602 
L 105.166362 152.598077 
L 107.252526 163.89109 
L 109.614369 178.073222 
L 112.516635 197.090725 
L 114.833558 212.053611 
L 116.680156 222.411002 
L 118.138987 229.396665 
L 118.98683 232.422056 
L 120.365414 236.392893 
L 121.438664 238.942583 
L 122.22794 240.294261 
L 123.007032 241.166463 
L 124.034711 242.111329 
L 124.545521 242.365373 
L 125.055721 242.375284 
L 125.566502 242.115789 
L 126.851636 240.860216 
L 127.629624 239.756537 
L 128.677437 237.708425 
L 129.474175 235.74923 
L 130.557191 232.386813 
L 136.138649 214.169141 
L 136.76462 213.167928 
L 137.393909 212.587467 
L 138.025111 212.328057 
L 138.657056 212.335984 
L 139.288733 212.58187 
L 140.233895 213.295446 
L 145.202189 217.523427 
L 146.12001 218.045153 
L 147.035027 218.293321 
L 147.948411 218.298538 
L 148.861157 218.090646 
L 149.774328 217.677392 
L 150.689349 217.009844 
L 151.608063 216.043323 
L 152.53256 214.759195 
L 153.77723 212.61455 
L 155.039715 210.00205 
L 156.649631 206.375177 
L 157.302812 205.41212 
L 157.959403 204.761871 
L 158.618234 204.380882 
L 160.933833 203.61283 
L 164.259629 202.802581 
L 165.595948 202.066239 
L 167.274243 200.805666 
L 169.301969 199.044854 
L 170.664793 197.562315 
L 172.039582 195.702831 
L 174.833799 191.404817 
L 176.615734 188.312261 
L 182.914224 176.378458 
L 185.625648 170.521956 
L 188.825539 163.134003 
L 195.596584 146.477227 
L 199.167641 138.42727 
L 202.85568 130.680386 
L 206.175098 124.17017 
L 207.138283 122.747434 
L 207.621505 122.326661 
L 208.105325 122.095865 
L 208.589421 122.025035 
L 209.073512 122.09884 
L 210.04068 122.629754 
L 211.005074 123.581614 
L 211.965286 124.879105 
L 214.342755 128.431824 
L 216.222886 130.780509 
L 217.62297 132.07601 
L 219.017232 132.946118 
L 220.870196 133.810244 
L 221.793323 134.735044 
L 222.711855 136.152122 
L 224.077493 138.8256 
L 225.425888 142.120861 
L 227.192703 147.214149 
L 229.343731 154.217595 
L 231.834526 163.209607 
L 233.438119 169.720519 
L 237.953388 190.020657 
L 240.045484 199.531545 
L 241.386301 204.566881 
L 243.650464 211.729401 
L 244.903108 215.071458 
L 245.826806 216.89676 
L 246.436932 217.698817 
L 247.043716 218.192141 
L 247.949751 218.576517 
L 248.552203 218.623195 
L 249.154754 218.412987 
L 249.75888 217.897953 
L 250.366235 217.073226 
L 251.286731 215.296162 
L 252.221838 212.851175 
L 253.174402 209.555531 
L 256.161605 197.988034 
L 258.979826 188.105275 
L 261.944504 178.394889 
L 263.480744 173.757796 
L 264.260883 172.055107 
L 264.652963 171.51316 
L 265.045873 171.165369 
L 265.439269 170.9922 
L 265.832845 170.976993 
L 266.226319 171.107306 
L 267.011956 171.752958 
L 267.794443 172.795906 
L 268.959649 174.86299 
L 271.630048 180.010541 
L 273.128688 182.372355 
L 274.611646 184.295323 
L 275.715643 185.421983 
L 276.813979 186.287927 
L 278.270917 187.115406 
L 279.358637 187.522432 
L 280.442907 187.708888 
L 281.164524 187.673388 
L 282.2467 187.356041 
L 283.691343 186.999723 
L 285.500449 186.524205 
L 286.589277 186.021857 
L 287.317618 185.474035 
L 288.415403 184.305672 
L 289.890013 182.590093 
L 290.630874 182.284921 
L 291.372217 182.444643 
L 292.112422 183.025771 
L 292.850003 183.981134 
L 293.948893 185.886292 
L 295.396067 188.945106 
L 297.521169 194.144256 
L 299.586685 199.716548 
L 302.243756 207.068371 
L 308.75481 223.02375 
L 309.634315 224.534411 
L 310.216322 225.180701 
L 310.796068 225.538029 
L 311.374586 225.606429 
L 311.952838 225.396248 
L 312.53176 224.935624 
L 313.403706 223.859901 
L 314.283032 222.397437 
L 315.471987 219.881407 
L 316.684664 216.748958 
L 317.612179 213.780478 
L 320.514454 202.924864 
L 323.96723 190.512449 
L 326.525081 182.006955 
L 329.190272 173.995653 
L 331.155533 168.695894 
L 332.761574 164.894488 
L 333.573716 163.721725 
L 333.981094 163.390222 
L 334.388939 163.216632 
L 334.79697 163.183513 
L 335.612641 163.467721 
L 336.426391 164.165633 
L 337.236767 165.206578 
L 338.042624 166.53639 
L 339.240899 169.013885 
L 340.814935 173.007387 
L 342.737703 178.662706 
L 346.064768 188.684544 
L 347.845257 193.316393 
L 348.894644 195.468956 
L 349.9331 197.119736 
L 350.963073 198.253834 
L 351.646288 198.717371 
L 352.327541 198.984229 
L 353.007426 199.082448 
L 353.686512 199.025387 
L 354.705053 198.663088 
L 355.725966 197.963104 
L 356.752133 196.919911 
L 357.786132 195.487801 
L 358.830577 193.49691 
L 360.243122 190.225785 
L 361.319216 187.798954 
L 362.043411 186.743038 
L 362.770882 186.213045 
L 363.499726 186.153408 
L 364.228175 186.523156 
L 364.954642 187.276126 
L 365.677747 188.366346 
L 366.753563 190.532062 
L 367.815994 193.203978 
L 369.207739 197.321604 
L 370.56699 202.027176 
L 372.214175 208.571224 
L 374.419603 217.241852 
L 375.932504 222.225051 
L 377.112744 225.392187 
L 377.984398 227.104907 
L 378.847803 228.271611 
L 379.705125 229.019366 
L 380.557568 229.477022 
L 381.406157 229.671295 
L 381.97068 229.601846 
L 382.535156 229.332845 
L 383.667169 228.357036 
L 384.520891 227.344825 
L 385.380765 225.969942 
L 386.250206 224.173624 
L 387.132825 221.868843 
L 388.032429 218.873288 
L 389.579348 212.826562 
L 390.212547 211.569923 
L 390.530729 211.240535 
L 390.849486 211.086131 
L 391.168496 211.091155 
L 391.487466 211.242535 
L 392.124211 211.938374 
L 392.757804 213.072639 
L 393.699036 215.406413 
L 394.625631 218.37753 
L 396.427011 224.458046 
L 397.881683 228.51866 
L 399.583864 232.494842 
L 400.696159 234.745038 
L 401.520423 235.957936 
L 402.608967 237.096563 
L 403.685649 238.193369 
L 404.483066 239.557696 
L 406.047574 242.461291 
L 407.072968 243.939892 
L 407.835798 244.671165 
L 408.342515 244.86061 
L 408.848947 244.746169 
L 409.356238 244.348143 
L 410.121135 243.303133 
L 411.673171 240.810455 
L 412.72268 239.691567 
L 414.045584 238.717165 
L 415.378491 237.77437 
L 416.183831 236.852052 
L 416.995552 235.560565 
L 418.090916 233.357217 
L 419.485563 229.967405 
L 421.203777 225.181578 
L 422.980649 219.718249 
L 424.205213 215.00979 
L 427.783691 200.03874 
L 430.579505 189.517936 
L 433.151662 180.657294 
L 435.836371 172.15822 
L 438.629365 163.981405 
L 441.526072 156.14455 
L 443.656137 150.879039 
L 444.520253 149.612965 
L 444.953683 149.287834 
L 445.387539 149.149094 
L 445.821491 149.181329 
L 446.255235 149.373099 
L 446.688483 149.716277 
L 447.55242 150.819293 
L 448.411345 152.412866 
L 449.263575 154.4279 
L 450.526255 158.113948 
L 451.766571 162.467458 
L 452.98106 167.416974 
L 454.554798 174.833072 
L 456.440274 185.092361 
L 458.572946 198.173797 
L 462.705045 224.431349 
L 464.421544 233.502047 
L 466.047452 240.956538 
L 467.346266 245.510321 
L 469.086237 250.949405 
L 470.041867 253.166318 
L 470.977014 254.660393 
L 471.66861 255.410178 
L 472.126803 255.594712 
L 472.584177 255.477692 
L 473.042003 255.081116 
L 473.731821 254.12629 
L 476.321023 249.806634 
L 477.047839 248.24116 
L 477.785093 246.133697 
L 478.536638 243.276372 
L 482.044957 227.841232 
L 485.949303 213.100235 
L 488.199078 205.747786 
L 498.996493 171.452759 
L 502.205488 162.336069 
L 505.121648 154.712812 
L 508.573929 146.258121 
L 512.148642 138.168388 
L 515.372807 131.374297 
L 519.162869 123.925131 
L 523.061553 116.718249 
L 527.064858 109.782994 
L 531.168677 103.137032 
L 535.900928 95.913751 
L 540.75107 88.974545 
L 544.601864 83.80599 
L 550.783453 76.158659 
L 557.113838 69.15191 
L 559.450768 66.803719 
L 561.213373 65.312917 
L 565.356946 62.318225 
L 567.146984 60.359611 
L 568.946273 58.408575 
L 578.094615 49.535094 
L 578.713175 49.143877 
L 579.332297 48.95101 
L 579.951635 48.942372 
L 580.570872 49.100215 
L 581.189704 49.406745 
L 582.425088 50.381775 
L 583.65604 51.753281 
L 584.881179 53.483213 
L 586.705425 56.643842 
L 589.109378 60.95341 
L 590.892842 63.774044 
L 592.073821 65.361576 
L 593.249298 66.686207 
L 595.004207 68.265496 
L 596.751506 69.446715 
L 598.493078 70.336969 
L 600.808092 71.223128 
L 603.116231 71.839141 
L 604.269087 71.993283 
L 605.422586 71.964254 
L 606.577575 71.667398 
L 607.734397 71.052454 
L 608.893249 70.149978 
L 617.105846 62.889898 
L 617.699738 62.54565 
L 618.294095 62.379334 
L 618.888619 62.363836 
L 619.483036 62.495052 
L 620.077073 62.773617 
L 620.670462 63.195679 
L 621.854247 64.458115 
L 623.032386 66.238033 
L 624.203062 68.48265 
L 625.364652 71.143907 
L 627.086855 75.823258 
L 628.781123 81.21481 
L 630.44381 87.22482 
L 632.071356 93.798856 
L 634.182152 103.288739 
L 636.7195 115.774217 
L 639.137798 128.869483 
L 643.183415 152.42451 
L 646.068792 168.868314 
L 647.629704 176.528893 
L 649.138433 183.066768 
L 650.60318 188.446762 
L 651.677557 191.691115 
L 653.431661 195.830897 
L 654.804784 198.554626 
L 657.489637 202.744131 
L 658.480734 203.925322 
L 659.138977 204.301784 
L 659.46794 204.319419 
L 659.797116 204.203534 
L 660.126776 203.941194 
L 660.788741 202.938595 
L 661.45657 201.263849 
L 662.132765 198.915882 
L 664.583317 189.337498 
L 667.157972 180.2505 
L 669.847958 171.644097 
L 672.647848 163.413539 
L 675.552065 155.551797 
L 678.555947 148.020531 
L 679.28 146.28578 
L 679.28 146.28578 
" clip-path="url(#p7969f999bc)" style="fill: none; stroke: #1f77b4; stroke-width: 1.2; stroke-linecap: square"/>
   </g>
   <g id="patch_3">
    <path d="M 50.96 273.134118 
L 50.96 26.88 
" style="fill: none; stroke: #000000; stroke-width: 0.8; stroke-linejoin: miter; stroke-linecap: square"/>
   </g>
   <g id="patch_4">
    <path d="M 709.2 273.134118 
L 709.2 26.88 
" style="fill: none; stroke: #000000; stroke-width: 0.8; stroke-linejoin: miter; stroke-linecap: square"/>
   </g>
   <g id="patch_5">
    <path d="M 50.96 273.134118 
L 709.2 273.134118 
" style="fill: none; stroke: #000000; stroke-width: 0.8; stroke-linejoin: miter; stroke-linecap: square"/>
   </g>
   <g id="patch_6">
    <path d="M 50.96 26.88 
L 709.2 26.88 
" style="fill: none; stroke: #000000; stroke-width: 0.8; stroke-linejoin: miter; stroke-linecap: square"/>
   </g>
   <g id="text_8">
    <!-- speed tracking and lateral offset over the lap -->
    <g transform="translate(244.124687 20.88) scale(0.12 -0.12)">
     <defs>
      <path id="DejaVuSans-74" d="M 1172 4494 
L 1172 3500 
L 2356 3500 
L 2356 3053 
L 1172 3053 
L 1172 1153 
Q 1172 725 1289 603 
Q 1406 481 1766 481 
L 2356 481 
L 2356 0 
L 1766 0 
Q 1100 0 847 248 
Q 594 497 594 1153 
L 594 3053 
L 172 3053 
L 172 3500 
L 594 3500 
L 594 4494 
L 1172 4494 
z
" transform="scale(0.015625)"/>
      <path id="DejaVuSans-72" d="M 2631 2963 
Q 2534 3019 2420 3045 
Q 2306 3072 2169 3072 
Q 1681 3072 1420 2755 
Q 1159 2438 1159 1844 
L 1159 0 
L 581 0 
L 581 3500 
L 1159 3500 
L 1159 2956 
Q 1341 3275 1631 3429 
Q 1922 3584 2338 3584 
Q 2397 3584 2469 3576 
Q 2541 3569 2628 3553 
L 2631 2963 
z
" transform="scale(0.015625)"/>
      <path id="DejaVuSans-61" d="M 2194 1759 
Q 1497 1759 1228 1600 
Q 959 1441 959 1056 
Q 959 750 1161 570 
Q 1363 391 1709 391 
Q 2188 391 2477 730 
Q 2766 1069 2766 1631 
L 2766 1759 
L 2194 1759 
z
M 3341 1997 
L 3341 0 
L 2766 0 
L 2766 531 
Q 2569 213 2275 61 
Q 1981 -91 1556 -91 
Q 1019 -91 701 211 
Q 384 513 384 1019 
Q 384 1609 779 1909 
Q 1175 2209 1959 2209 
L 2766 2209 
L 2766 2266 
Q 2766 2663 2505 2880 
Q 2244 3097 1772 3097 
Q 1472 3097 1187 3025 
Q 903 2953 641 2809 
L 641 3341 
Q 956 3463 1253 3523 
Q 1550 3584 1831 3584 
Q 2591 3584 2966 3190 
Q 3341 2797 3341 1997 
z
" transform="scale(0.015625)"/>
      <path id="DejaVuSans-63" d="M 3122 3366 
L 3122 2828 
Q 2878 2963 2633 3030 
Q 2388 3097 2138 3097 
Q 1578 3097 1268 2742 
Q 959 2388 959 1747 
Q 959 1106 1268 751 
Q 1578 397 2138 397 
Q 2388 397 2633 464 
Q 2878 531 3122 666 
L 3122 134 
Q 2881 22 2623 -34 
Q 2366 -91 2075 -91 
Q 1284 -91 818 406 
Q 353 903 353 1747 
Q 353 2603 823 3093 
Q 1294 3584 2113 3584 
Q 2378 3584 2631 3529 
Q 2884 3475 3122 3366 
z
" transform="scale(0.015625)"/>
      <path id="DejaVuSans-69" d="M 603 3500 
L 1178 3500 
L 1178 0 
L 603 0 
L 603 3500 
z
M 603 4863 
L 1178 4863 
L 1178 4134 
L 603 4134 
L 603 4863 
z
" transform="scale(0.015625)"/>
      <path id="DejaVuSans-6e" d="M 3513 2113 
L 3513 0 
L 2938 0 
L 2938 2094 
Q 2938 2591 2744 2837 
Q 2550 3084 2163 3084 
Q 1697 3084 1428 2787 
Q 1159 2491 1159 1978 
L 1159 0 
L 581 0 
L 581 3500 
L 1159 3500 
L 1159 2956 
Q 1366 3272 1645 3428 
Q 1925 3584 2291 3584 
Q 2894 3584 3203 3211 
Q 3513 2838 3513 2113 
z
" transform="scale(0.015625)"/>
      <path id="DejaVuSans-67" d="M 2906 1791 
Q 2906 2416 2648 2759 
Q 2391 3103 1925 3103 
Q 1463 3103 1205 2759 
Q 947 2416 947 1791 
Q 947 1169 1205 825 
Q 1463 481 1925 481 
Q 2391 481 2648 825 
Q 2906 1169 2906 1791 
z
M 3481 434 
Q 3481 -459 3084 -895 
Q 2688 -1331 1869 -1331 
Q 1566 -1331 1297 -1286 
Q 1028 -1241 775 -1147 
L 775 -588 
Q 1028 -725 1275 -790 
Q 1522 -856 1778 -856 
Q 2344 -856 2625 -561 
Q 2906 -266 2906 331 
L 2906 616 
Q 2728 306 2450 153 
Q 2172 0 1784 0 
Q 1141 0 747 490 
Q 353 981 353 1791 
Q 353 2603 747 3093 
Q 1141 3584 1784 3584 
Q 2172 3584 2450 3431 
Q 2728 3278 2906 2969 
L 2906 3500 
L 3481 3500 
L 3481 434 
z
" transform="scale(0.015625)"/>
      <path id="DejaVuSans-6c" d="M 603 4863 
L 1178 4863 
L 1178 0 
L 603 0 
L 603 4863 
z
" transform="scale(0.015625)"/>
      <path id="DejaVuSans-6f" d="M 1959 3097 
Q 1497 3097 1228 2736 
Q 959 2375 959 1747 
Q 959 1119 1226 758 
Q 1494 397 1959 397 
Q 2419 397 2687 759 
Q 2956 1122 2956 1747 
Q 2956 2369 2687 2733 
Q 2419 3097 1959 3097 
z
M 1959 3584 
Q 2709 3584 3137 3096 
Q 3566 2609 3566 1747 
Q 3566 888 3137 398 
Q 2709 -91 1959 -91 
Q 1206 -91 779 398 
Q 353 888 353 1747 
Q 353 2609 779 3096 
Q 1206 3584 1959 3584 
z
" transform="scale(0.015625)"/>
      <path id="DejaVuSans-66" d="M 2375 4863 
L 2375 4384 
L 1825 4384 
Q 1516 4384 1395 4259 
Q 1275 4134 1275 3809 
L 1275 3500 
L 2222 3500 
L 2222 3053 
L 1275 3053 
L 1275 0 
L 697 0 
L 697 3053 
L 147 3053 
L 147 3500 
L 697 3500 
L 697 3744 
Q 697 4328 969 4595 
Q 1241 4863 1831 4863 
L 2375 4863 
z
" transform="scale(0.015625)"/>
      <path id="DejaVuSans-76" d="M 191 3500 
L 800 3500 
L 1894 563 
L 2988 3500 
L 3597 3500 
L 2284 0 
L 1503 0 
L 191 3500 
z
" transform="scale(0.015625)"/>
     </defs>
     <use xlink:href="#DejaVuSans-73"/>
     <use xlink:href="#DejaVuSans-70" transform="translate(52.099609 0)"/>
     <use xlink:href="#DejaVuSans-65" transform="translate(115.576172 0)"/>
     <use xlink:href="#DejaVuSans-65" transform="translate(177.099609 0)"/>
     <use xlink:href="#DejaVuSans-64" transform="translate(238.623047 0)"/>
     <use xlink:href="#DejaVuSans-20" transform="translate(302.099609 0)"/>
     <use xlink:href="#DejaVuSans-74" transform="translate(333.886719 0)"/>
     <use xlink:href="#DejaVuSans-72" transform="translate(373.095703 0)"/>
     <use xlink:href="#DejaVuSans-61" transform="translate(414.208984 0)"/>
     <use xlink:href="#DejaVuSans-63" transform="translate(475.488281 0)"/>
     <use xlink:href="#DejaVuSans-6b" transform="translate(530.46875 0)"/>
     <use xlink:href="#DejaVuSans-69" transform="translate(588.378906 0)"/>
     <use xlink:href="#DejaVuSans-6e" transform="translate(616.162109 0)"/>
     <use xlink:href="#DejaVuSans-67" transform="translate(679.541016 0)"/>
     <use xlink:href="#DejaVuSans-20" transform="translate(743.017578 0)"/>
     <use xlink:href="#DejaVuSans-61" transform="translate(774.804688 0)"/>
     <use xlink:href="#DejaVuSans-6e" transform="translate(836.083984 0)"/>
     <use xlink:href="#DejaVuSans-64" transform="translate(899.462891 0)"/>
     <use xlink:href="#DejaVuSans-20" transform="translate(962.939453 0)"/>
     <use xlink:href="#DejaVuSans-6c" transform="translate(994.726562 0)"/>
     <use xlink:href="#DejaVuSans-61" transform="translate(1022.509766 0)"/>
     <use xlink:href="#DejaVuSans-74" transform="translate(1083.789062 0)"/>
     <use xlink:href="#DejaVuSans-65" transform="translate(1122.998047 0)"/>
     <use xlink:href="#DejaVuSans-72" transform="translate(1184.521484 0)"/>
     <use xlink:href="#DejaVuSans-61" transform="translate(1225.634766 0)"/>
     <use xlink:href="#DejaVuSans-6c" transform="translate(1286.914062 0)"/>
     <use xlink:href="#DejaVuSans-20" transform="translate(1314.697266 0)"/>
     <use xlink:href="#DejaVuSans-6f" transform="translate(1346.484375 0)"/>
     <use xlink:href="#DejaVuSans-66" transform="translate(1407.666016 0)"/>
     <use xlink:href="#DejaVuSans-66" transform="translate(1442.871094 0)"/>
     <use xlink:href="#DejaVuSans-73" transform="translate(1478.076172 0)"/>
     <use xlink:href="#DejaVuSans-65" transform="translate(1530.175781 0)"/>
     <use xlink:href="#DejaVuSans-74" transform="translate(1591.699219 0)"/>
     <use xlink:href="#DejaVuSans-20" transform="translate(1630.908203 0)"/>
     <use xlink:href="#DejaVuSans-6f" transform="translate(1662.695312 0)"/>
     <use xlink:href="#DejaVuSans-76" transform="translate(1723.876953 0)"/>
     <use xlink:href="#DejaVuSans-65" transform="translate(1783.056641 0)"/>
     <use xlink:href="#DejaVuSans-72" transform="translate(1844.580078 0)"/>
     <use xlink:href="#DejaVuSans-20" transform="translate(1885.693359 0)"/>
     <use xlink:href="#DejaVuSans-74" transform="translate(1917.480469 0)"/>
     <use xlink:href="#DejaVuSans-68" transform="translate(1956.689453 0)"/>
     <use xlink:href="#DejaVuSans-65" transform="translate(2020.068359 0)"/>
     <use xlink:href="#DejaVuSans-20" transform="translate(2081.591797 0)"/>
     <use xlink:href="#DejaVuSans-6c" transform="translate(2113.378906 0)"/>
     <use xlink:href="#DejaVuSans-61" transform="translate(2141.162109 0)"/>
     <use xlink:href="#DejaVuSans-70" transform="translate(2202.441406 0)"/>
    </g>
   </g>
   <g id="legend_1">
    <g id="patch_7">
     <path d="M 528.02375 269.134118 
L 703.6 269.134118 
Q 705.2 269.134118 705.2 267.534118 
L 705.2 244.849118 
Q 705.2 243.249118 703.6 243.249118 
L 528.02375 243.249118 
Q 526.42375 243.249118 526.42375 244.849118 
L 526.42375 267.534118 
Q 526.42375 269.134118 528.02375 269.134118 
z
" style="fill: #ffffff; opacity: 0.8; stroke: #cccccc; stroke-linejoin: miter"/>
    </g>
    <g id="line2d_25">
     <path d="M 529.62375 249.727868 
L 537.62375 249.727868 
L 545.62375 249.727868 
" style="fill: none; stroke-dasharray: 3.33,1.44; stroke-dashoffset: 0; stroke: #000000; stroke-width: 0.9"/>
    </g>
    <g id="text_9">
     <!-- minimum-time reference (previewed) -->
     <g transform="translate(552.02375 252.527868) scale(0.08 -0.08)">
      <defs>
       <path id="DejaVuSans-75" d="M 544 1381 
L 544 3500 
L 1119 3500 
L 1119 1403 
Q 1119 906 1312 657 
Q 1506 409 1894 409 
Q 2359 409 2629 706 
Q 2900 1003 2900 1516 
L 2900 3500 
L 3475 3500 
L 3475 0 
L 2900 0 
L 2900 538 
Q 2691 219 2414 64 
Q 2138 -91 1772 -91 
Q 1169 -91 856 284 
Q 544 659 544 1381 
z
M 1991 3584 
L 1991 3584 
z
" transform="scale(0.015625)"/>
       <path id="DejaVuSans-2d" d="M 313 2009 
L 1997 2009 
L 1997 1497 
L 313 1497 
L 313 2009 
z
" transform="scale(0.015625)"/>
       <path id="DejaVuSans-28" d="M 1984 4856 
Q 1566 4138 1362 3434 
Q 1159 2731 1159 2009 
Q 1159 1288 1364 580 
Q 1569 -128 1984 -844 
L 1484 -844 
Q 1016 -109 783 600 
Q 550 1309 550 2009 
Q 550 2706 781 3412 
Q 1013 4119 1484 4856 
L 1984 4856 
z
" transform="scale(0.015625)"/>
       <path id="DejaVuSans-77" d="M 269 3500 
L 844 3500 
L 1563 769 
L 2278 3500 
L 2956 3500 
L 3675 769 
L 4391 3500 
L 4966 3500 
L 4050 0 
L 3372 0 
L 2619 2869 
L 1863 0 
L 1184 0 
L 269 3500 
z
" transform="scale(0.015625)"/>
       <path id="DejaVuSans-29" d="M 513 4856 
L 1013 4856 
Q 1481 4119 1714 3412 
Q 1947 2706 1947 2009 
Q 1947 1309 1714 600 
Q 1481 -109 1013 -844 
L 513 -844 
Q 928 -128 1133 580 
Q 1338 1288 1338 2009 
Q 1338 2731 1133 3434 
Q 928 4138 513 4856 
z
" transform="scale(0.015625)"/>
      </defs>
      <use xlink:href="#DejaVuSans-6d"/>
      <use xlink:href="#DejaVuSans-69" transform="translate(97.412109 0)"/>
      <use xlink:href="#DejaVuSans-6e" transform="translate(125.195312 0)"/>
      <use xlink:href="#DejaVuSans-69" transform="translate(188.574219 0)"/>
      <use xlink:href="#DejaVuSans-6d" transform="translate(216.357422 0)"/>
      <use xlink:href="#DejaVuSans-75" transform="translate(313.769531 0)"/>
      <use xlink:href="#DejaVuSans-6d" transform="translate(377.148438 0)"/>
      <use xlink:href="#DejaVuSans-2d" transform="translate(474.560547 0)"/>
      <use xlink:href="#DejaVuSans-74" transform="translate(510.644531 0)"/>
      <use xlink:href="#DejaVuSans-69" transform="translate(549.853516 0)"/>
      <use xlink:href="#DejaVuSans-6d" transform="translate(577.636719 0)"/>
      <use xlink:href="#DejaVuSans-65" transform="translate(675.048828 0)"/>
      <use xlink:href="#DejaVuSans-20" transform="translate(736.572266 0)"/>
      <use xlink:href="#DejaVuSans-72" transform="translate(768.359375 0)"/>
      <use xlink:href="#DejaVuSans-65" transform="translate(807.222656 0)"/>
      <use xlink:href="#DejaVuSans-66" transform="translate(868.746094 0)"/>
      <use xlink:href="#DejaVuSans-65" transform="translate(903.951172 0)"/>
      <use xlink:href="#DejaVuSans-72" transform="translate(965.474609 0)"/>
      <use xlink:href="#DejaVuSans-65" transform="translate(1004.337891 0)"/>
      <use xlink:href="#DejaVuSans-6e" transform="translate(1065.861328 0)"/>
      <use xlink:href="#DejaVuSans-63" transform="translate(1129.240234 0)"/>
      <use xlink:href="#DejaVuSans-65" transform="translate(1184.220703 0)"/>
      <use xlink:href="#DejaVuSans-20" transform="translate(1245.744141 0)"/>
      <use xlink:href="#DejaVuSans-28" transform="translate(1277.53125 0)"/>
      <use xlink:href="#DejaVuSans-70" transform="translate(1316.544922 0)"/>
      <use xlink:href="#DejaVuSans-72" transform="translate(1380.021484 0)"/>
      <use xlink:href="#DejaVuSans-65" transform="translate(1418.884766 0)"/>
      <use xlink:href="#DejaVuSans-76" transform="translate(1480.408203 0)"/>
      <use xlink:href="#DejaVuSans-69" transform="translate(1539.587891 0)"/>
      <use xlink:href="#DejaVuSans-65" transform="translate(1567.371094 0)"/>
      <use xlink:href="#DejaVuSans-77" transform="translate(1628.894531 0)"/>
      <use xlink:href="#DejaVuSans-65" transform="translate(1710.681641 0)"/>
      <use xlink:href="#DejaVuSans-64" transform="translate(1772.205078 0)"/>
      <use xlink:href="#DejaVuSans-29" transform="translate(1835.681641 0)"/>
     </g>
    </g>
    <g id="line2d_26">
     <path d="M 529.62375 261.470368 
L 537.62375 261.470368 
L 545.62375 261.470368 
" style="fill: none; stroke: #1f77b4; stroke-width: 1.2; stroke-linecap: square"/>
    </g>
    <g id="text_10">
     <!-- vehicle -->
     <g transform="translate(552.02375 264.270368) scale(0.08 -0.08)">
      <use xlink:href="#DejaVuSans-76"/>
      <use xlink:href="#DejaVuSans-65" transform="translate(59.179688 0)"/>
      <use xlink:href="#DejaVuSans-68" transform="translate(120.703125 0)"/>
      <use xlink:href="#DejaVuSans-69" transform="translate(184.082031 0)"/>
      <use xlink:href="#DejaVuSans-63" transform="translate(211.865234 0)"/>
      <use xlink:href="#DejaVuSans-6c" transform="translate(266.845703 0)"/>
      <use xlink:href="#DejaVuSans-65" transform="translate(294.628906 0)"/>
     </g>
    </g>
   </g>
  </g>
  <g id="axes_2">
   <g id="patch_8">
    <path d="M 50.96 390.04 
L 709.2 390.04 
L 709.2 287.434118 
L 50.96 287.434118 
z
" style="fill: #ffffff"/>
   </g>
   <g id="matplotlib.axis_3">
    <g id="xtick_6">
     <g id="line2d_27">
      <path d="M 80.88 390.04 
L 80.88 287.434118 
" clip-path="url(#p5b5aa32a56)" style="fill: none; stroke: #b0b0b0; stroke-opacity: 0.3; stroke-width: 0.8; stroke-linecap: square"/>
     </g>
     <g id="line2d_28">
      <g>
       <use xlink:href="#m043bfe3863" x="80.88" y="390.04" style="stroke: #000000; stroke-width: 0.8"/>
      </g>
     </g>
     <g id="text_11">
      <!-- 0.0 -->
      <g transform="translate(72.928438 404.638438) scale(0.1 -0.1)">
       <defs>
        <path id="DejaVuSans-2e" d="M 684 794 
L 1344 794 
L 1344 0 
L 684 0 
L 684 794 
z
" transform="scale(0.015625)"/>
       </defs>
       <use xlink:href="#DejaVuSans-30"/>
       <use xlink:href="#DejaVuSans-2e" transform="translate(63.623047 0)"/>
       <use xlink:href="#DejaVuSans-30" transform="translate(95.410156 0)"/>
      </g>
     </g>
    </g>
    <g id="xtick_7">
     <g id="line2d_29">
      <path d="M 226.476107 390.04 
L 226.476107 287.434118 
" clip-path="url(#p5b5aa32a56)" style="fill: none; stroke: #b0b0b0; stroke-opacity: 0.3; stroke-width: 0.8; stroke-linecap: square"/>
     </g>
     <g id="line2d_30">
      <g>
       <use xlink:href="#m043bfe3863" x="226.476107" y="390.04" style="stroke: #000000; stroke-width: 0.8"/>
      </g>
     </g>
     <g id="text_12">
      <!-- 0.5 -->
      <g transform="translate(218.524545 404.638438) scale(0.1 -0.1)">
       <defs>
        <path id="DejaVuSans-35" d="M 691 4666 
L 3169 4666 
L 3169 4134 
L 1269 4134 
L 1269 2991 
Q 1406 3038 1543 3061 
Q 1681 3084 1819 3084 
Q 2600 3084 3056 2656 
Q 3513 2228 3513 1497 
Q 3513 744 3044 326 
Q 2575 -91 1722 -91 
Q 1428 -91 1123 -41 
Q 819 9 494 109 
L 494 744 
Q 775 591 1075 516 
Q 1375 441 1709 441 
Q 2250 441 2565 725 
Q 2881 1009 2881 1497 
Q 2881 1984 2565 2268 
Q 2250 2553 1709 2553 
Q 1456 2553 1204 2497 
Q 953 2441 691 2322 
L 691 4666 
z
" transform="scale(0.015625)"/>
       </defs>
       <use xlink:href="#DejaVuSans-30"/>
       <use xlink:href="#DejaVuSans-2e" transform="translate(63.623047 0)"/>
       <use xlink:href="#DejaVuSans-35" transform="translate(95.410156 0)"/>
      </g>
     </g>
    </g>
    <g id="xtick_8">
     <g id="line2d_31">
      <path d="M 372.072214 390.04 
L 372.072214 287.434118 
" clip-path="url(#p5b5aa32a56)" style="fill: none; stroke: #b0b0b0; stroke-opacity: 0.3; stroke-width: 0.8; stroke-linecap: square"/>
     </g>
     <g id="line2d_32">
      <g>
       <use xlink:href="#m043bfe3863" x="372.072214" y="390.04" style="stroke: #000000; stroke-width: 0.8"/>
      </g>
     </g>
     <g id="text_13">
      <!-- 1.0 -->
      <g transform="translate(364.120652 404.638438) scale(0.1 -0.1)">
       <use xlink:href="#DejaVuSans-31"/>
       <use xlink:href="#DejaVuSans-2e" transform="translate(63.623047 0)"/>
       <use xlink:href="#DejaVuSans-30" transform="translate(95.410156 0)"/>
      </g>
     </g>
    </g>
    <g id="xtick_9">
     <g id="line2d_33">
      <path d="M 517.668321 390.04 
L 517.668321 287.434118 
" clip-path="url(#p5b5aa32a56)" style="fill: none; stroke: #b0b0b0; stroke-opacity: 0.3; stroke-width: 0.8; stroke-linecap: square"/>
     </g>
     <g id="line2d_34">
      <g>
       <use xlink:href="#m043bfe3863" x="517.668321" y="390.04" style="stroke: #000000; stroke-width: 0.8"/>
      </g>
     </g>
     <g id="text_14">
      <!-- 1.5 -->
      <g transform="translate(509.716759 404.638438) scale(0.1 -0.1)">
       <use xlink:href="#DejaVuSans-31"/>
       <use xlink:href="#DejaVuSans-2e" transform="translate(63.623047 0)"/>
       <use xlink:href="#DejaVuSans-35" transform="translate(95.410156 0)"/>
      </g>
     </g>
    </g>
    <g id="xtick_10">
     <g id="line2d_35">
      <path d="M 663.264428 390.04 
L 663.264428 287.434118 
" clip-path="url(#p5b5aa32a56)" style="fill: none; stroke: #b0b0b0; stroke-opacity: 0.3; stroke-width: 0.8; stroke-linecap: square"/>
     </g>
     <g id="line2d_36">
      <g>
       <use xlink:href="#m043bfe3863" x="663.264428" y="390.04" style="stroke: #000000; stroke-width: 0.8"/>
      </g>
     </g>
     <g id="text_15">
      <!-- 2.0 -->
      <g transform="translate(655.312866 404.638438) scale(0.1 -0.1)">
       <use xlink:href="#DejaVuSans-32"/>
       <use xlink:href="#DejaVuSans-2e" transform="translate(63.623047 0)"/>
       <use xlink:href="#DejaVuSans-30" transform="translate(95.410156 0)"/>
      </g>
     </g>
    </g>
    <g id="text_16">
     <!-- distance s [km] -->
     <g transform="translate(341.443281 418.316563) scale(0.1 -0.1)">
      <use xlink:href="#DejaVuSans-64"/>
      <use xlink:href="#DejaVuSans-69" transform="translate(63.476562 0)"/>
      <use xlink:href="#DejaVuSans-73" transform="translate(91.259766 0)"/>
      <use xlink:href="#DejaVuSans-74" transform="translate(143.359375 0)"/>
      <use xlink:href="#DejaVuSans-61" transform="translate(182.568359 0)"/>
      <use xlink:href="#DejaVuSans-6e" transform="translate(243.847656 0)"/>
      <use xlink:href="#DejaVuSans-63" transform="translate(307.226562 0)"/>
      <use xlink:href="#DejaVuSans-65" transform="translate(362.207031 0)"/>
      <use xlink:href="#DejaVuSans-20" transform="translate(423.730469 0)"/>
      <use xlink:href="#DejaVuSans-73" transform="translate(455.517578 0)"/>
      <use xlink:href="#DejaVuSans-20" transform="translate(507.617188 0)"/>
      <use xlink:href="#DejaVuSans-5b" transform="translate(539.404297 0)"/>
      <use xlink:href="#DejaVuSans-6b" transform="translate(578.417969 0)"/>
      <use xlink:href="#DejaVuSans-6d" transform="translate(636.328125 0)"/>
      <use xlink:href="#DejaVuSans-5d" transform="translate(733.740234 0)"/>
     </g>
    </g>
   </g>
   <g id="matplotlib.axis_4">
    <g id="ytick_7">
     <g id="line2d_37">
      <path d="M 50.96 382.543982 
L 709.2 382.543982 
" clip-path="url(#p5b5aa32a56)" style="fill: none; stroke: #b0b0b0; stroke-opacity: 0.3; stroke-width: 0.8; stroke-linecap: square"/>
     </g>
     <g id="line2d_38">
      <g>
       <use xlink:href="#mac6812ed8f" x="50.96" y="382.543982" style="stroke: #000000; stroke-width: 0.8"/>
      </g>
     </g>
     <g id="text_17">
      <!-- −1 -->
      <g transform="translate(29.217813 386.3432) scale(0.1 -0.1)">
       <defs>
        <path id="DejaVuSans-2212" d="M 678 2272 
L 4684 2272 
L 4684 1741 
L 678 1741 
L 678 2272 
z
" transform="scale(0.015625)"/>
       </defs>
       <use xlink:href="#DejaVuSans-2212"/>
       <use xlink:href="#DejaVuSans-31" transform="translate(83.789062 0)"/>
      </g>
     </g>
    </g>
    <g id="ytick_8">
     <g id="line2d_39">
      <path d="M 50.96 347.922642 
L 709.2 347.922642 
" clip-path="url(#p5b5aa32a56)" style="fill: none; stroke: #b0b0b0; stroke-opacity: 0.3; stroke-width: 0.8; stroke-linecap: square"/>
     </g>
     <g id="line2d_40">
      <g>
       <use xlink:href="#mac6812ed8f" x="50.96" y="347.922642" style="stroke: #000000; stroke-width: 0.8"/>
      </g>
     </g>
     <g id="text_18">
      <!-- 0 -->
      <g transform="translate(37.5975 351.72186) scale(0.1 -0.1)">
       <use xlink:href="#DejaVuSans-30"/>
      </g>
     </g>
    </g>
    <g id="ytick_9">
     <g id="line2d_41">
      <path d="M 50.96 313.301302 
L 709.2 313.301302 
" clip-path="url(#p5b5aa32a56)" style="fill: none; stroke: #b0b0b0; stroke-opacity: 0.3; stroke-width: 0.8; stroke-linecap: square"/>
     </g>
     <g id="line2d_42">
      <g>
       <use xlink:href="#mac6812ed8f" x="50.96" y="313.301302" style="stroke: #000000; stroke-width: 0.8"/>
      </g>
     </g>
     <g id="text_19">
      <!-- 1 -->
      <g transform="translate(37.5975 317.10052) scale(0.1 -0.1)">
       <use xlink:href="#DejaVuSans-31"/>
      </g>
     </g>
    </g>
    <g id="text_20">
     <!-- offset n [m] -->
     <g transform="translate(23.138125 368.076903) rotate(-90) scale(0.1 -0.1)">
      <use xlink:href="#DejaVuSans-6f"/>
      <use xlink:href="#DejaVuSans-66" transform="translate(61.181641 0)"/>
      <use xlink:href="#DejaVuSans-66" transform="translate(96.386719 0)"/>
      <use xlink:href="#DejaVuSans-73" transform="translate(131.591797 0)"/>
      <use xlink:href="#DejaVuSans-65" transform="translate(183.691406 0)"/>
      <use xlink:href="#DejaVuSans-74" transform="translate(245.214844 0)"/>
      <use xlink:href="#DejaVuSans-20" transform="translate(284.423828 0)"/>
      <use xlink:href="#DejaVuSans-6e" transform="translate(316.210938 0)"/>
      <use xlink:href="#DejaVuSans-20" transform="translate(379.589844 0)"/>
      <use xlink:href="#DejaVuSans-5b" transform="translate(411.376953 0)"/>
      <use xlink:href="#DejaVuSans-6d" transform="translate(450.390625 0)"/>
      <use xlink:href="#DejaVuSans-5d" transform="translate(547.802734 0)"/>
     </g>
    </g>
   </g>
   <g id="line2d_43">
    <path d="M 80.88 347.922642 
L 106.013347 348.022939 
L 107.657058 348.290322 
L 109.614369 348.626948 
L 110.735783 348.5585 
L 112.859786 348.339475 
L 116.380183 348.548383 
L 117.852272 348.270575 
L 118.423527 347.995101 
L 118.98683 347.463329 
L 119.543218 346.530224 
L 120.092996 345.030668 
L 120.636171 342.822957 
L 121.438664 338.082874 
L 122.22794 331.894073 
L 125.055721 307.635576 
L 125.822466 303.527648 
L 126.33597 301.799631 
L 126.851636 300.951084 
L 127.110334 300.867996 
L 127.369652 301.012371 
L 127.629624 301.378506 
L 128.151786 302.728511 
L 128.677437 304.787104 
L 129.742424 310.292047 
L 131.109893 317.49498 
L 132.239876 322.15468 
L 133.403085 325.938881 
L 134.599306 329.206971 
L 135.827431 331.841649 
L 137.078945 333.906381 
L 138.657056 336.483725 
L 140.548059 339.644316 
L 141.487668 340.760121 
L 142.422984 341.451166 
L 143.044111 341.683154 
L 143.663255 341.74267 
L 144.280358 341.636205 
L 144.895407 341.362951 
L 145.50852 340.914932 
L 146.425266 339.890891 
L 147.339618 338.400865 
L 148.252683 336.405525 
L 149.165438 333.905095 
L 152.53256 323.907479 
L 153.464588 322.24944 
L 154.090992 321.532703 
L 154.722161 321.163799 
L 155.358686 321.188882 
L 156.00119 321.648463 
L 156.649631 322.572225 
L 157.302812 323.968259 
L 158.288604 326.842482 
L 160.270884 333.32505 
L 160.933833 334.94602 
L 161.597674 336.121006 
L 162.262219 336.91494 
L 162.927338 337.427473 
L 163.593086 337.729321 
L 164.259629 337.857714 
L 164.927174 337.807254 
L 165.595948 337.54371 
L 166.266135 337.015044 
L 166.937822 336.161122 
L 167.611069 334.93922 
L 168.624154 332.552733 
L 170.323074 328.395496 
L 171.007267 327.110426 
L 171.694623 326.169332 
L 172.38544 325.564651 
L 173.079974 325.255661 
L 173.77842 325.198936 
L 174.48093 325.354865 
L 175.187804 325.715874 
L 175.899337 326.317291 
L 176.975819 327.659309 
L 178.795418 330.138513 
L 179.532338 330.699909 
L 180.274437 330.904442 
L 181.397522 330.80301 
L 182.532916 330.733553 
L 183.681235 330.96847 
L 185.625648 331.523917 
L 187.210868 331.663398 
L 187.611672 331.822623 
L 188.014366 332.109208 
L 188.418986 332.559389 
L 189.234007 333.996347 
L 191.305395 338.569761 
L 192.147793 339.639906 
L 192.998173 340.145326 
L 194.722657 340.827674 
L 195.596584 341.577701 
L 198.714765 345.040052 
L 199.622345 345.574929 
L 200.537197 345.868335 
L 202.388435 346.107061 
L 204.742145 346.440849 
L 209.073512 347.18416 
L 211.965286 347.39373 
L 213.869863 347.378642 
L 215.284999 347.123386 
L 218.088256 346.265441 
L 218.552986 346.301391 
L 219.017232 346.449052 
L 219.944484 347.096378 
L 220.870196 348.153898 
L 221.793323 349.603554 
L 222.711855 351.504453 
L 223.62405 353.970349 
L 226.313979 362.347119 
L 227.192703 364.206159 
L 228.061155 365.38608 
L 228.918934 366.085853 
L 229.765772 366.405878 
L 230.601606 366.346757 
L 231.426348 365.840507 
L 232.239868 364.927549 
L 233.438119 363.077564 
L 239.012656 353.788009 
L 239.703993 353.258226 
L 240.045484 353.160371 
L 240.384328 353.179816 
L 240.720655 353.319417 
L 241.386301 353.965686 
L 242.04335 355.08254 
L 243.013514 357.439499 
L 247.949751 371.5658 
L 249.75888 378.278702 
L 250.366235 379.858724 
L 250.671639 380.369243 
L 250.978426 380.639813 
L 251.286731 380.631941 
L 251.596667 380.31303 
L 251.908337 379.659777 
L 252.537267 377.326257 
L 253.496447 371.799288 
L 254.809298 364.207784 
L 255.480577 361.53735 
L 256.161605 359.811913 
L 256.852178 358.766243 
L 260.444073 354.912407 
L 261.189783 354.359745 
L 262.325241 353.891167 
L 263.480744 353.390988 
L 264.652963 352.529203 
L 266.619434 350.880498 
L 267.794443 350.216333 
L 269.345346 349.631327 
L 270.493771 349.35058 
L 271.630048 349.285683 
L 273.128688 349.51597 
L 274.242189 349.668407 
L 274.980341 349.581173 
L 275.715643 349.20097 
L 276.448439 348.408841 
L 277.17898 347.139857 
L 277.907432 345.360077 
L 278.633931 343.076863 
L 279.72039 338.874279 
L 283.691343 322.263023 
L 284.4144 320.46007 
L 285.138188 319.358396 
L 285.500449 319.091671 
L 285.863011 319.023497 
L 286.225929 319.159426 
L 286.589277 319.503476 
L 286.953143 320.057702 
L 287.682794 321.791758 
L 288.415403 324.29282 
L 290.26029 331.376003 
L 291.001586 333.185755 
L 291.372217 333.727524 
L 291.742562 334.041378 
L 292.112422 334.155936 
L 292.481621 334.110257 
L 293.217422 333.72746 
L 295.036404 332.574834 
L 295.754224 332.338743 
L 296.465856 332.341263 
L 297.171041 332.611519 
L 297.869644 333.132495 
L 298.905032 334.250956 
L 300.928721 336.622805 
L 301.917377 337.476934 
L 302.892032 338.025442 
L 303.853741 338.259502 
L 304.487574 338.207098 
L 305.115253 337.949615 
L 305.736787 337.462754 
L 306.352238 336.732479 
L 307.264123 335.180424 
L 308.459416 332.486198 
L 309.925666 329.169569 
L 311.085419 327.16254 
L 313.112391 323.97309 
L 314.578296 321.242767 
L 315.172691 320.566821 
L 315.471987 320.43069 
L 315.772772 320.460818 
L 316.075113 320.676378 
L 316.379061 321.09037 
L 316.991974 322.511175 
L 317.925364 325.800506 
L 319.525593 331.873348 
L 320.182405 333.671153 
L 320.848929 334.970846 
L 321.525109 335.905755 
L 324.686508 339.575531 
L 328.035374 344.790913 
L 328.803225 345.34023 
L 329.970473 345.717651 
L 331.155533 346.078815 
L 332.357451 346.786461 
L 333.573716 347.483244 
L 334.79697 347.910398 
L 335.612641 348.213285 
L 336.426391 348.767037 
L 337.236767 349.621265 
L 339.240899 351.982021 
L 340.031584 352.435062 
L 340.424217 352.476263 
L 340.814935 352.385975 
L 341.590349 351.848455 
L 343.8656 349.48747 
L 344.237252 349.343432 
L 344.606798 349.328607 
L 344.974279 349.440504 
L 345.703222 349.995539 
L 346.78224 351.345271 
L 348.196424 353.182211 
L 349.241892 354.175965 
L 350.620529 355.308589 
L 351.304964 356.111128 
L 351.987122 357.28198 
L 352.667619 358.938016 
L 353.686512 362.303472 
L 356.409332 372.482155 
L 357.0958 373.932167 
L 357.440431 374.329048 
L 357.786132 374.478651 
L 358.133 374.36791 
L 358.481122 373.995306 
L 358.830577 373.370866 
L 359.533764 371.456884 
L 360.600233 367.469389 
L 362.043411 362.176077 
L 362.770882 360.26116 
L 363.499726 358.947657 
L 364.228175 358.145515 
L 364.954642 357.717066 
L 365.677747 357.529555 
L 367.109329 357.470845 
L 368.166729 357.385431 
L 369.207739 357.049383 
L 370.230467 356.414485 
L 373.173186 354.259891 
L 374.111234 353.886129 
L 375.332837 353.651656 
L 376.819841 353.351414 
L 377.984398 353.019652 
L 378.560764 353.084144 
L 379.134175 353.520327 
L 379.705125 354.495617 
L 380.273914 356.088426 
L 381.123621 359.540748 
L 383.951204 372.703273 
L 384.806689 375.233164 
L 385.380765 376.3768 
L 385.959102 377.023456 
L 386.250206 377.122596 
L 386.542774 377.048785 
L 386.836931 376.7854 
L 387.132825 376.31761 
L 387.730431 374.720389 
L 388.336747 372.24839 
L 390.212547 363.300771 
L 390.849486 361.177812 
L 391.487466 359.654652 
L 392.441505 358.027196 
L 395.534799 353.357233 
L 396.131375 352.805554 
L 396.72098 352.473092 
L 397.59364 352.312665 
L 398.738119 352.241809 
L 399.303087 352.059858 
L 399.863535 351.71397 
L 400.419643 351.166563 
L 400.971744 350.367202 
L 401.520423 349.246173 
L 402.066119 347.725504 
L 402.879314 344.589067 
L 403.685649 340.438042 
L 406.304996 325.48917 
L 406.817628 323.745957 
L 407.327736 322.739001 
L 407.581988 322.524218 
L 407.835798 322.496583 
L 408.089265 322.645066 
L 408.595693 323.404774 
L 409.356238 325.363526 
L 410.635014 328.890029 
L 411.15243 329.788302 
L 411.673171 330.252209 
L 412.196755 330.367139 
L 412.986398 330.200055 
L 413.780179 330.053521 
L 414.31138 330.170075 
L 414.84414 330.559211 
L 415.378491 331.232947 
L 417.815505 334.880137 
L 418.367451 335.045074 
L 418.924036 334.789332 
L 419.485563 334.11292 
L 420.337941 332.533027 
L 421.495578 330.374414 
L 422.08419 329.73253 
L 422.381124 329.597139 
L 422.679914 329.608139 
L 422.980649 329.777042 
L 423.588364 330.60067 
L 424.205213 332.002259 
L 426.776425 338.764473 
L 427.783691 340.330092 
L 429.161961 341.864143 
L 431.667796 344.38638 
L 432.40509 344.794374 
L 433.151662 344.962382 
L 435.446107 345.053152 
L 436.228848 345.314005 
L 439.85837 346.940408 
L 441.526072 347.142225 
L 448.838393 347.678088 
L 451.355839 348.023362 
L 452.98106 348.210168 
L 454.16656 348.129468 
L 455.697511 347.982942 
L 456.805765 348.07345 
L 457.878227 348.210156 
L 458.572946 348.144909 
L 459.5844 347.790872 
L 460.876883 347.287792 
L 461.500226 347.293332 
L 462.109308 347.513426 
L 462.998212 348.174632 
L 464.421544 349.437054 
L 464.972804 349.694448 
L 465.514583 349.679835 
L 466.047452 349.313577 
L 466.572441 348.494362 
L 467.090155 347.112781 
L 467.600514 345.100252 
L 468.351877 340.896209 
L 469.086237 335.44573 
L 470.277303 324.63038 
L 472.126803 307.669273 
L 473.042003 301.002427 
L 473.962956 295.908961 
L 474.660898 293.308029 
L 475.130469 292.328713 
L 475.366627 292.112109 
L 475.603721 292.098021 
L 475.84179 292.300864 
L 476.080882 292.735142 
L 476.562228 294.346757 
L 477.047839 296.977752 
L 477.785093 302.605762 
L 479.834979 320.136101 
L 480.372366 323.117152 
L 480.920133 325.271393 
L 481.760219 327.501407 
L 483.206658 330.836553 
L 485.324697 336.610802 
L 485.949303 337.559649 
L 486.582165 337.983905 
L 487.222979 338.028131 
L 488.199078 337.916268 
L 488.859825 338.132235 
L 489.866008 338.874423 
L 490.890698 339.573307 
L 491.584199 339.742059 
L 492.286074 339.620856 
L 492.996509 339.46265 
L 493.715571 339.534863 
L 494.443402 339.916455 
L 495.551722 340.907143 
L 497.443393 342.557251 
L 498.996493 343.973763 
L 500.584123 345.470303 
L 501.390639 345.858657 
L 502.205488 345.849442 
L 503.028548 345.525497 
L 504.27836 344.958253 
L 505.121648 344.881002 
L 505.972934 345.151166 
L 507.264677 346.018745 
L 508.573929 346.894315 
L 509.456342 347.280735 
L 510.794117 347.579177 
L 512.603827 347.751419 
L 513.980272 347.647719 
L 514.906862 347.365532 
L 517.728664 346.197465 
L 518.683092 346.244851 
L 519.644344 346.573911 
L 522.076916 347.689802 
L 523.556326 348.014231 
L 525.551607 348.130216 
L 527.064858 348.103735 
L 528.081571 347.923218 
L 529.104494 347.532934 
L 531.168677 346.528975 
L 532.209854 346.311355 
L 533.257037 346.434771 
L 534.310175 346.829669 
L 536.434098 347.775853 
L 538.042267 348.201624 
L 541.297061 348.652449 
L 542.393231 348.520186 
L 542.943385 348.281754 
L 543.494891 347.904719 
L 544.601864 346.764428 
L 546.272081 344.851393 
L 546.831446 344.427274 
L 547.392131 344.193214 
L 547.954131 344.164631 
L 548.517439 344.33577 
L 549.082047 344.680849 
L 550.215085 345.732066 
L 551.92378 347.472704 
L 553.068845 348.311753 
L 554.218639 348.839489 
L 556.532432 349.530268 
L 557.696416 349.689617 
L 558.280138 349.535994 
L 558.864947 349.124143 
L 559.450768 348.399951 
L 560.037504 347.328194 
L 561.213373 344.238385 
L 562.392457 340.744482 
L 562.983382 339.259609 
L 563.575297 338.134722 
L 564.168213 337.451193 
L 564.762108 337.242632 
L 565.356946 337.489503 
L 565.952697 338.119192 
L 568.3454 341.740969 
L 568.946273 342.234217 
L 569.548279 342.408025 
L 570.151416 342.316076 
L 571.967692 341.570757 
L 572.575429 341.531963 
L 573.184292 341.690712 
L 573.794253 342.03727 
L 575.017427 343.115797 
L 576.244973 344.202699 
L 576.860412 344.543441 
L 577.476965 344.687908 
L 578.094615 344.660414 
L 580.570872 344.08669 
L 581.189704 344.13629 
L 581.807853 344.333897 
L 583.04121 345.12503 
L 584.881179 346.645971 
L 585.491194 346.987476 
L 586.099317 347.147051 
L 586.705425 347.092386 
L 587.309448 346.830777 
L 588.511347 345.919585 
L 589.70558 345.053611 
L 590.30004 344.814965 
L 590.892842 344.76653 
L 591.484072 344.923326 
L 592.073821 345.265057 
L 595.004207 347.522468 
L 595.587383 347.583305 
L 596.169794 347.435205 
L 596.751506 347.095801 
L 597.913095 345.964759 
L 599.072558 344.329794 
L 600.230061 342.025281 
L 601.385667 338.973301 
L 604.845691 328.493727 
L 605.422586 327.385972 
L 605.99986 326.706849 
L 606.577575 326.514548 
L 607.155752 326.833309 
L 607.734397 327.643538 
L 608.313542 328.882044 
L 609.473621 332.217979 
L 611.219837 337.553486 
L 612.388975 340.310854 
L 613.562204 342.174995 
L 614.739442 343.286828 
L 615.920647 343.891209 
L 617.105846 344.203881 
L 622.44414 345.240757 
L 624.785088 345.81503 
L 625.941577 345.918813 
L 627.654903 345.77279 
L 628.781123 345.713892 
L 629.339036 345.815868 
L 629.89331 346.06624 
L 630.44381 346.490553 
L 631.532949 347.841441 
L 633.13544 350.284005 
L 633.660997 350.922681 
L 634.182152 351.37759 
L 634.698838 351.617827 
L 635.210982 351.635505 
L 635.718514 351.440506 
L 636.221372 351.055892 
L 637.212851 349.85654 
L 639.137798 347.128102 
L 640.070906 346.291208 
L 640.530098 346.082315 
L 640.984401 346.020808 
L 641.433832 346.098967 
L 642.318179 346.601553 
L 643.608978 347.836892 
L 644.446298 348.566352 
L 645.265862 348.914951 
L 645.669328 348.904489 
L 646.068792 348.764438 
L 646.85633 348.152445 
L 648.390066 346.675385 
L 649.138433 346.41958 
L 649.508428 346.482015 
L 649.875802 346.675616 
L 650.60318 347.44009 
L 651.32148 348.670344 
L 652.031816 350.351242 
L 652.73516 352.529523 
L 653.431661 355.281991 
L 654.463829 360.562011 
L 655.819901 369.126905 
L 657.157683 377.603953 
L 658.151035 382.436276 
L 658.809982 384.480221 
L 659.138977 385.080839 
L 659.46794 385.376096 
L 659.797116 385.352166 
L 660.126776 385.000004 
L 660.457206 384.316604 
L 661.121752 381.969289 
L 661.793484 378.377631 
L 664.225318 363.522863 
L 664.943832 360.82379 
L 665.672255 359.073584 
L 666.410352 358.069844 
L 667.157972 357.471404 
L 668.681305 356.394713 
L 669.847958 355.164906 
L 672.241358 352.311173 
L 673.467197 351.338581 
L 674.711928 350.730489 
L 676.827489 350.083865 
L 679.28 349.448928 
L 679.28 349.448928 
" clip-path="url(#p5b5aa32a56)" style="fill: none; stroke: #d62728; stroke-linecap: square"/>
   </g>
   <g id="line2d_44">
    <path d="M 50.96 347.922642 
L 709.2 347.922642 
" clip-path="url(#p5b5aa32a56)" style="fill: none; stroke: #000000; stroke-width: 0.6; stroke-linecap: square"/>
   </g>
   <g id="patch_9">
    <path d="M 50.96 390.04 
L 50.96 287.434118 
" style="fill: none; stroke: #000000; stroke-width: 0.8; stroke-linejoin: miter; stroke-linecap: square"/>
   </g>
   <g id="patch_10">
    <path d="M 709.2 390.04 
L 709.2 287.434118 
" style="fill: none; stroke: #000000; stroke-width: 0.8; stroke-linejoin: miter; stroke-linecap: square"/>
   </g>
   <g id="patch_11">
    <path d="M 50.96 390.04 
L 709.2 390.04 
" style="fill: none; stroke: #000000; stroke-width: 0.8; stroke-linejoin: miter; stroke-linecap: square"/>
   </g>
   <g id="patch_12">
    <path d="M 50.96 287.434118 
L 709.2 287.434118 
" style="fill: none; stroke: #000000; stroke-width: 0.8; stroke-linejoin: miter; stroke-linecap: square"/>
   </g>
  </g>
 </g>
 <defs>
  <clipPath id="p7969f999bc">
   <rect x="50.96" y="26.88" width="658.24" height="246.254118"/>
  </clipPath>
  <clipPath id="p5b5aa32a56">
   <rect x="50.96" y="287.434118" width="658.24" height="102.605882"/>
  </clipPath>
 </defs>
</svg>
