<?xml version="1.0" encoding="utf-8" standalone="no"?>
<!DOCTYPE svg PUBLIC "-//W3C//DTD SVG 1.1//EN"
  "http://www.w3.org/Graphics/SVG/1.1/DTD/svg11.dtd">
<svg xmlns:xlink="http://www.w3.org/1999/xlink" width="720pt" height="288pt" viewBox="0 0 720 288" xmlns="http://www.w3.org/2000/svg" version="1.1">
 <metadata>
  <rdf:RDF xmlns:dc="http://purl.org/dc/elements/1.1/" xmlns:cc="http://creativecommons.org/ns#" xmlns:rdf="http://www.w3.org/1999/02/22-rdf-syntax-ns#">
   <cc:Work>
    <dc:type rdf:resource="http://purl.org/dc/dcmitype/StillImage"/>
    <dc:date>2026-07-07T16:16:59.596513</dc:date>
    <dc:format>image/svg+xml</dc:format>
    <dc:creator>
     <cc:Agent>
      <dc:title>Matplotlib v3.10.8, https://matplotlib.org/</dc:title>
     </cc:Agent>
    </dc:creator>
   </cc:Work>
  </rdf:RDF>
 </metadata>
 <defs>
  <style type="text/css">*{stroke-linejoin: round; stroke-linecap: butt}</style>
 </defs>
 <g id="figure_1">
  <g id="patch_1">
   <path d="M 0 288 
L 720 288 
L 720 0 
L 0 0 
z
" style="fill: #ffffff"/>
  </g>
  <g id="axes_1">
   <g id="patch_2">
    <path d="M 56.09 246.04 
L 709.2 246.04 
L 709.2 26.88 
L 56.09 26.88 
z
" style="fill: #ffffff"/>
   </g>
   <g id="matplotlib.axis_1">
    <g id="xtick_1">
     <g id="line2d_1">
      <path d="M 85.776818 246.04 
L 85.776818 26.88 
" clip-path="url(#p2589253115)" style="fill: none; stroke: #b0b0b0; stroke-opacity: 0.3; stroke-width: 0.8; stroke-linecap: square"/>
     </g>
     <g id="line2d_2">
      <defs>
       <path id="m855d5ae375" d="M 0 0 
L 0 3.5 
" style="stroke: #000000; stroke-width: 0.8"/>
      </defs>
      <g>
       <use xlink:href="#m855d5ae375" x="85.776818" y="246.04" style="stroke: #000000; stroke-width: 0.8"/>
      </g>
     </g>
     <g id="text_1">
      <!-- 0.0 -->
      <g transform="translate(77.825256 260.638438) scale(0.1 -0.1)">
       <defs>
        <path id="DejaVuSans-30" d="M 2034 4250 
Q 1547 4250 1301 3770 
Q 1056 3291 1056 2328 
Q 1056 1369 1301 889 
Q 1547 409 2034 409 
Q 2525 409 2770 889 
Q 3016 1369 3016 2328 
Q 3016 3291 2770 3770 
Q 2525 4250 2034 4250 
z
M 2034 4750 
Q 2819 4750 3233 4129 
Q 3647 3509 3647 2328 
Q 3647 1150 3233 529 
Q 2819 -91 2034 -91 
Q 1250 -91 836 529 
Q 422 1150 422 2328 
Q 422 3509 836 4129 
Q 1250 4750 2034 4750 
z
" transform="scale(0.015625)"/>
        <path id="DejaVuSans-2e" d="M 684 794 
L 1344 794 
L 1344 0 
L 684 0 
L 684 794 
z
" transform="scale(0.015625)"/>
       </defs>
       <use xlink:href="#DejaVuSans-30"/>
       <use xlink:href="#DejaVuSans-2e" transform="translate(63.623047 0)"/>
       <use xlink:href="#DejaVuSans-30" transform="translate(95.410156 0)"/>
      </g>
     </g>
    </g>
    <g id="xtick_2">
     <g id="line2d_3">
      <path d="M 230.23822 246.04 
L 230.23822 26.88 
" clip-path="url(#p2589253115)" style="fill: none; stroke: #b0b0b0; stroke-opacity: 0.3; stroke-width: 0.8; stroke-linecap: square"/>
     </g>
     <g id="line2d_4">
      <g>
       <use xlink:href="#m855d5ae375" x="230.23822" y="246.04" style="stroke: #000000; stroke-width: 0.8"/>
      </g>
     </g>
     <g id="text_2">
      <!-- 0.5 -->
      <g transform="translate(222.286658 260.638438) scale(0.1 -0.1)">
       <defs>
        <path id="DejaVuSans-35" d="M 691 4666 
L 3169 4666 
L 3169 4134 
L 1269 4134 
L 1269 2991 
Q 1406 3038 1543 3061 
Q 1681 3084 1819 3084 
Q 2600 3084 3056 2656 
Q 3513 2228 3513 1497 
Q 3513 744 3044 326 
Q 2575 -91 1722 -91 
Q 1428 -91 1123 -41 
Q 819 9 494 109 
L 494 744 
Q 775 591 1075 516 
Q 1375 441 1709 441 
Q 2250 441 2565 725 
Q 2881 1009 2881 1497 
Q 2881 1984 2565 2268 
Q 2250 2553 1709 2553 
Q 1456 2553 1204 2497 
Q 953 2441 691 2322 
L 691 4666 
z
" transform="scale(0.015625)"/>
       </defs>
       <use xlink:href="#DejaVuSans-30"/>
       <use xlink:href="#DejaVuSans-2e" transform="translate(63.623047 0)"/>
       <use xlink:href="#DejaVuSans-35" transform="translate(95.410156 0)"/>
      </g>
     </g>
    </g>
    <g id="xtick_3">
     <g id="line2d_5">
      <path d="M 374.699623 246.04 
L 374.699623 26.88 
" clip-path="url(#p2589253115)" style="fill: none; stroke: #b0b0b0; stroke-opacity: 0.3; stroke-width: 0.8; stroke-linecap: square"/>
     </g>
     <g id="line2d_6">
      <g>
       <use xlink:href="#m855d5ae375" x="374.699623" y="246.04" style="stroke: #000000; stroke-width: 0.8"/>
      </g>
     </g>
     <g id="text_3">
      <!-- 1.0 -->
      <g transform="translate(366.74806 260.638438) scale(0.1 -0.1)">
       <defs>
        <path id="DejaVuSans-31" d="M 794 531 
L 1825 531 
L 1825 4091 
L 703 3866 
L 703 4441 
L 1819 4666 
L 2450 4666 
L 2450 531 
L 3481 531 
L 3481 0 
L 794 0 
L 794 531 
z
" transform="scale(0.015625)"/>
       </defs>
       <use xlink:href="#DejaVuSans-31"/>
       <use xlink:href="#DejaVuSans-2e" transform="translate(63.623047 0)"/>
       <use xlink:href="#DejaVuSans-30" transform="translate(95.410156 0)"/>
      </g>
     </g>
    </g>
    <g id="xtick_4">
     <g id="line2d_7">
      <path d="M 519.161025 246.04 
L 519.161025 26.88 
" clip-path="url(#p2589253115)" style="fill: none; stroke: #b0b0b0; stroke-opacity: 0.3; stroke-width: 0.8; stroke-linecap: square"/>
     </g>
     <g id="line2d_8">
      <g>
       <use xlink:href="#m855d5ae375" x="519.161025" y="246.04" style="stroke: #000000; stroke-width: 0.8"/>
      </g>
     </g>
     <g id="text_4">
      <!-- 1.5 -->
      <g transform="translate(511.209463 260.638438) scale(0.1 -0.1)">
       <use xlink:href="#DejaVuSans-31"/>
       <use xlink:href="#DejaVuSans-2e" transform="translate(63.623047 0)"/>
       <use xlink:href="#DejaVuSans-35" transform="translate(95.410156 0)"/>
      </g>
     </g>
    </g>
    <g id="xtick_5">
     <g id="line2d_9">
      <path d="M 663.622427 246.04 
L 663.622427 26.88 
" clip-path="url(#p2589253115)" style="fill: none; stroke: #b0b0b0; stroke-opacity: 0.3; stroke-width: 0.8; stroke-linecap: square"/>
     </g>
     <g id="line2d_10">
      <g>
       <use xlink:href="#m855d5ae375" x="663.622427" y="246.04" style="stroke: #000000; stroke-width: 0.8"/>
      </g>
     </g>
     <g id="text_5">
      <!-- 2.0 -->
      <g transform="translate(655.670865 260.638438) scale(0.1 -0.1)">
       <defs>
        <path id="DejaVuSans-32" d="M 1228 531 
L 3431 531 
L 3431 0 
L 469 0 
L 469 531 
Q 828 903 1448 1529 
Q 2069 2156 2228 2338 
Q 2531 2678 2651 2914 
Q 2772 3150 2772 3378 
Q 2772 3750 2511 3984 
Q 2250 4219 1831 4219 
Q 1534 4219 1204 4116 
Q 875 4013 500 3803 
L 500 4441 
Q 881 4594 1212 4672 
Q 1544 4750 1819 4750 
Q 2544 4750 2975 4387 
Q 3406 4025 3406 3419 
Q 3406 3131 3298 2873 
Q 3191 2616 2906 2266 
Q 2828 2175 2409 1742 
Q 1991 1309 1228 531 
z
" transform="scale(0.015625)"/>
       </defs>
       <use xlink:href="#DejaVuSans-32"/>
       <use xlink:href="#DejaVuSans-2e" transform="translate(63.623047 0)"/>
       <use xlink:href="#DejaVuSans-30" transform="translate(95.410156 0)"/>
      </g>
     </g>
    </g>
    <g id="text_6">
     <!-- distance s [km] -->
     <g transform="translate(344.008281 274.316562) scale(0.1 -0.1)">
      <defs>
       <path id="DejaVuSans-64" d="M 2906 2969 
L 2906 4863 
L 3481 4863 
L 3481 0 
L 2906 0 
L 2906 525 
Q 2725 213 2448 61 
Q 2172 -91 1784 -91 
Q 1150 -91 751 415 
Q 353 922 353 1747 
Q 353 2572 751 3078 
Q 1150 3584 1784 3584 
Q 2172 3584 2448 3432 
Q 2725 3281 2906 2969 
z
M 947 1747 
Q 947 1113 1208 752 
Q 1469 391 1925 391 
Q 2381 391 2643 752 
Q 2906 1113 2906 1747 
Q 2906 2381 2643 2742 
Q 2381 3103 1925 3103 
Q 1469 3103 1208 2742 
Q 947 2381 947 1747 
z
" transform="scale(0.015625)"/>
       <path id="DejaVuSans-69" d="M 603 3500 
L 1178 3500 
L 1178 0 
L 603 0 
L 603 3500 
z
M 603 4863 
L 1178 4863 
L 1178 4134 
L 603 4134 
L 603 4863 
z
" transform="scale(0.015625)"/>
       <path id="DejaVuSans-73" d="M 2834 3397 
L 2834 2853 
Q 2591 2978 2328 3040 
Q 2066 3103 1784 3103 
Q 1356 3103 1142 2972 
Q 928 2841 928 2578 
Q 928 2378 1081 2264 
Q 1234 2150 1697 2047 
L 1894 2003 
Q 2506 1872 2764 1633 
Q 3022 1394 3022 966 
Q 3022 478 2636 193 
Q 2250 -91 1575 -91 
Q 1294 -91 989 -36 
Q 684 19 347 128 
L 347 722 
Q 666 556 975 473 
Q 1284 391 1588 391 
Q 1994 391 2212 530 
Q 2431 669 2431 922 
Q 2431 1156 2273 1281 
Q 2116 1406 1581 1522 
L 1381 1569 
Q 847 1681 609 1914 
Q 372 2147 372 2553 
Q 372 3047 722 3315 
Q 1072 3584 1716 3584 
Q 2034 3584 2315 3537 
Q 2597 3491 2834 3397 
z
" transform="scale(0.015625)"/>
       <path id="DejaVuSans-74" d="M 1172 4494 
L 1172 3500 
L 2356 3500 
L 2356 3053 
L 1172 3053 
L 1172 1153 
Q 1172 725 1289 603 
Q 1406 481 1766 481 
L 2356 481 
L 2356 0 
L 1766 0 
Q 1100 0 847 248 
Q 594 497 594 1153 
L 594 3053 
L 172 3053 
L 172 3500 
L 594 3500 
L 594 4494 
L 1172 4494 
z
" transform="scale(0.015625)"/>
       <path id="DejaVuSans-61" d="M 2194 1759 
Q 1497 1759 1228 1600 
Q 959 1441 959 1056 
Q 959 750 1161 570 
Q 1363 391 1709 391 
Q 2188 391 2477 730 
Q 2766 1069 2766 1631 
L 2766 1759 
L 2194 1759 
z
M 3341 1997 
L 3341 0 
L 2766 0 
L 2766 531 
Q 2569 213 2275 61 
Q 1981 -91 1556 -91 
Q 1019 -91 701 211 
Q 384 513 384 1019 
Q 384 1609 779 1909 
Q 1175 2209 1959 2209 
L 2766 2209 
L 2766 2266 
Q 2766 2663 2505 2880 
Q 2244 3097 1772 3097 
Q 1472 3097 1187 3025 
Q 903 2953 641 2809 
L 641 3341 
Q 956 3463 1253 3523 
Q 1550 3584 1831 3584 
Q 2591 3584 2966 3190 
Q 3341 2797 3341 1997 
z
" transform="scale(0.015625)"/>
       <path id="DejaVuSans-6e" d="M 3513 2113 
L 3513 0 
L 2938 0 
L 2938 2094 
Q 2938 2591 2744 2837 
Q 2550 3084 2163 3084 
Q 1697 3084 1428 2787 
Q 1159 2491 1159 1978 
L 1159 0 
L 581 0 
L 581 3500 
L 1159 3500 
L 1159 2956 
Q 1366 3272 1645 3428 
Q 1925 3584 2291 3584 
Q 2894 3584 3203 3211 
Q 3513 2838 3513 2113 
z
" transform="scale(0.015625)"/>
       <path id="DejaVuSans-63" d="M 3122 3366 
L 3122 2828 
Q 2878 2963 2633 3030 
Q 2388 3097 2138 3097 
Q 1578 3097 1268 2742 
Q 959 2388 959 1747 
Q 959 1106 1268 751 
Q 1578 397 2138 397 
Q 2388 397 2633 464 
Q 2878 531 3122 666 
L 3122 134 
Q 2881 22 2623 -34 
Q 2366 -91 2075 -91 
Q 1284 -91 818 406 
Q 353 903 353 1747 
Q 353 2603 823 3093 
Q 1294 3584 2113 3584 
Q 2378 3584 2631 3529 
Q 2884 3475 3122 3366 
z
" transform="scale(0.015625)"/>
       <path id="DejaVuSans-65" d="M 3597 1894 
L 3597 1613 
L 953 1613 
Q 991 1019 1311 708 
Q 1631 397 2203 397 
Q 2534 397 2845 478 
Q 3156 559 3463 722 
L 3463 178 
Q 3153 47 2828 -22 
Q 2503 -91 2169 -91 
Q 1331 -91 842 396 
Q 353 884 353 1716 
Q 353 2575 817 3079 
Q 1281 3584 2069 3584 
Q 2775 3584 3186 3129 
Q 3597 2675 3597 1894 
z
M 3022 2063 
Q 3016 2534 2758 2815 
Q 2500 3097 2075 3097 
Q 1594 3097 1305 2825 
Q 1016 2553 972 2059 
L 3022 2063 
z
" transform="scale(0.015625)"/>
       <path id="DejaVuSans-20" transform="scale(0.015625)"/>
       <path id="DejaVuSans-5b" d="M 550 4863 
L 1875 4863 
L 1875 4416 
L 1125 4416 
L 1125 -397 
L 1875 -397 
L 1875 -844 
L 550 -844 
L 550 4863 
z
" transform="scale(0.015625)"/>
       <path id="DejaVuSans-6b" d="M 581 4863 
L 1159 4863 
L 1159 1991 
L 2875 3500 
L 3609 3500 
L 1753 1863 
L 3688 0 
L 2938 0 
L 1159 1709 
L 1159 0 
L 581 0 
L 581 4863 
z
" transform="scale(0.015625)"/>
       <path id="DejaVuSans-6d" d="M 3328 2828 
Q 3544 3216 3844 3400 
Q 4144 3584 4550 3584 
Q 5097 3584 5394 3201 
Q 5691 2819 5691 2113 
L 5691 0 
L 5113 0 
L 5113 2094 
Q 5113 2597 4934 2840 
Q 4756 3084 4391 3084 
Q 3944 3084 3684 2787 
Q 3425 2491 3425 1978 
L 3425 0 
L 2847 0 
L 2847 2094 
Q 2847 2600 2669 2842 
Q 2491 3084 2119 3084 
Q 1678 3084 1418 2786 
Q 1159 2488 1159 1978 
L 1159 0 
L 581 0 
L 581 3500 
L 1159 3500 
L 1159 2956 
Q 1356 3278 1631 3431 
Q 1906 3584 2284 3584 
Q 2666 3584 2933 3390 
Q 3200 3197 3328 2828 
z
" transform="scale(0.015625)"/>
       <path id="DejaVuSans-5d" d="M 1947 4863 
L 1947 -844 
L 622 -844 
L 622 -397 
L 1369 -397 
L 1369 4416 
L 622 4416 
L 622 4863 
L 1947 4863 
z
" transform="scale(0.015625)"/>
      </defs>
      <use xlink:href="#DejaVuSans-64"/>
      <use xlink:href="#DejaVuSans-69" transform="translate(63.476562 0)"/>
      <use xlink:href="#DejaVuSans-73" transform="translate(91.259766 0)"/>
      <use xlink:href="#DejaVuSans-74" transform="translate(143.359375 0)"/>
      <use xlink:href="#DejaVuSans-61" transform="translate(182.568359 0)"/>
      <use xlink:href="#DejaVuSans-6e" transform="translate(243.847656 0)"/>
      <use xlink:href="#DejaVuSans-63" transform="translate(307.226562 0)"/>
      <use xlink:href="#DejaVuSans-65" transform="translate(362.207031 0)"/>
      <use xlink:href="#DejaVuSans-20" transform="translate(423.730469 0)"/>
      <use xlink:href="#DejaVuSans-73" transform="translate(455.517578 0)"/>
      <use xlink:href="#DejaVuSans-20" transform="translate(507.617188 0)"/>
      <use xlink:href="#DejaVuSans-5b" transform="translate(539.404297 0)"/>
      <use xlink:href="#DejaVuSans-6b" transform="translate(578.417969 0)"/>
      <use xlink:href="#DejaVuSans-6d" transform="translate(636.328125 0)"/>
      <use xlink:href="#DejaVuSans-5d" transform="translate(733.740234 0)"/>
     </g>
    </g>
   </g>
   <g id="matplotlib.axis_2">
    <g id="ytick_1">
     <g id="line2d_11">
      <path d="M 56.09 241.40664 
L 709.2 241.40664 
" clip-path="url(#p2589253115)" style="fill: none; stroke: #b0b0b0; stroke-opacity: 0.3; stroke-width: 0.8; stroke-linecap: square"/>
     </g>
     <g id="line2d_12">
      <defs>
       <path id="me089ea1e6d" d="M 0 0 
L -3.5 0 
" style="stroke: #000000; stroke-width: 0.8"/>
      </defs>
      <g>
       <use xlink:href="#me089ea1e6d" x="56.09" y="241.40664" style="stroke: #000000; stroke-width: 0.8"/>
      </g>
     </g>
     <g id="text_7">
      <!-- −2.0 -->
      <g transform="translate(24.807188 245.205859) scale(0.1 -0.1)">
       <defs>
        <path id="DejaVuSans-2212" d="M 678 2272 
L 4684 2272 
L 4684 1741 
L 678 1741 
L 678 2272 
z
" transform="scale(0.015625)"/>
       </defs>
       <use xlink:href="#DejaVuSans-2212"/>
       <use xlink:href="#DejaVuSans-32" transform="translate(83.789062 0)"/>
       <use xlink:href="#DejaVuSans-2e" transform="translate(147.412109 0)"/>
       <use xlink:href="#DejaVuSans-30" transform="translate(179.199219 0)"/>
      </g>
     </g>
    </g>
    <g id="ytick_2">
     <g id="line2d_13">
      <path d="M 56.09 214.783585 
L 709.2 214.783585 
" clip-path="url(#p2589253115)" style="fill: none; stroke: #b0b0b0; stroke-opacity: 0.3; stroke-width: 0.8; stroke-linecap: square"/>
     </g>
     <g id="line2d_14">
      <g>
       <use xlink:href="#me089ea1e6d" x="56.09" y="214.783585" style="stroke: #000000; stroke-width: 0.8"/>
      </g>
     </g>
     <g id="text_8">
      <!-- −1.5 -->
      <g transform="translate(24.807188 218.582803) scale(0.1 -0.1)">
       <use xlink:href="#DejaVuSans-2212"/>
       <use xlink:href="#DejaVuSans-31" transform="translate(83.789062 0)"/>
       <use xlink:href="#DejaVuSans-2e" transform="translate(147.412109 0)"/>
       <use xlink:href="#DejaVuSans-35" transform="translate(179.199219 0)"/>
      </g>
     </g>
    </g>
    <g id="ytick_3">
     <g id="line2d_15">
      <path d="M 56.09 188.160529 
L 709.2 188.160529 
" clip-path="url(#p2589253115)" style="fill: none; stroke: #b0b0b0; stroke-opacity: 0.3; stroke-width: 0.8; stroke-linecap: square"/>
     </g>
     <g id="line2d_16">
      <g>
       <use xlink:href="#me089ea1e6d" x="56.09" y="188.160529" style="stroke: #000000; stroke-width: 0.8"/>
      </g>
     </g>
     <g id="text_9">
      <!-- −1.0 -->
      <g transform="translate(24.807188 191.959748) scale(0.1 -0.1)">
       <use xlink:href="#DejaVuSans-2212"/>
       <use xlink:href="#DejaVuSans-31" transform="translate(83.789062 0)"/>
       <use xlink:href="#DejaVuSans-2e" transform="translate(147.412109 0)"/>
       <use xlink:href="#DejaVuSans-30" transform="translate(179.199219 0)"/>
      </g>
     </g>
    </g>
    <g id="ytick_4">
     <g id="line2d_17">
      <path d="M 56.09 161.537474 
L 709.2 161.537474 
" clip-path="url(#p2589253115)" style="fill: none; stroke: #b0b0b0; stroke-opacity: 0.3; stroke-width: 0.8; stroke-linecap: square"/>
     </g>
     <g id="line2d_18">
      <g>
       <use xlink:href="#me089ea1e6d" x="56.09" y="161.537474" style="stroke: #000000; stroke-width: 0.8"/>
      </g>
     </g>
     <g id="text_10">
      <!-- −0.5 -->
      <g transform="translate(24.807188 165.336692) scale(0.1 -0.1)">
       <use xlink:href="#DejaVuSans-2212"/>
       <use xlink:href="#DejaVuSans-30" transform="translate(83.789062 0)"/>
       <use xlink:href="#DejaVuSans-2e" transform="translate(147.412109 0)"/>
       <use xlink:href="#DejaVuSans-35" transform="translate(179.199219 0)"/>
      </g>
     </g>
    </g>
    <g id="ytick_5">
     <g id="line2d_19">
      <path d="M 56.09 134.914418 
L 709.2 134.914418 
" clip-path="url(#p2589253115)" style="fill: none; stroke: #b0b0b0; stroke-opacity: 0.3; stroke-width: 0.8; stroke-linecap: square"/>
     </g>
     <g id="line2d_20">
      <g>
       <use xlink:href="#me089ea1e6d" x="56.09" y="134.914418" style="stroke: #000000; stroke-width: 0.8"/>
      </g>
     </g>
     <g id="text_11">
      <!-- 0.0 -->
      <g transform="translate(33.186875 138.713637) scale(0.1 -0.1)">
       <use xlink:href="#DejaVuSans-30"/>
       <use xlink:href="#DejaVuSans-2e" transform="translate(63.623047 0)"/>
       <use xlink:href="#DejaVuSans-30" transform="translate(95.410156 0)"/>
      </g>
     </g>
    </g>
    <g id="ytick_6">
     <g id="line2d_21">
      <path d="M 56.09 108.291363 
L 709.2 108.291363 
" clip-path="url(#p2589253115)" style="fill: none; stroke: #b0b0b0; stroke-opacity: 0.3; stroke-width: 0.8; stroke-linecap: square"/>
     </g>
     <g id="line2d_22">
      <g>
       <use xlink:href="#me089ea1e6d" x="56.09" y="108.291363" style="stroke: #000000; stroke-width: 0.8"/>
      </g>
     </g>
     <g id="text_12">
      <!-- 0.5 -->
      <g transform="translate(33.186875 112.090582) scale(0.1 -0.1)">
       <use xlink:href="#DejaVuSans-30"/>
       <use xlink:href="#DejaVuSans-2e" transform="translate(63.623047 0)"/>
       <use xlink:href="#DejaVuSans-35" transform="translate(95.410156 0)"/>
      </g>
     </g>
    </g>
    <g id="ytick_7">
     <g id="line2d_23">
      <path d="M 56.09 81.668307 
L 709.2 81.668307 
" clip-path="url(#p2589253115)" style="fill: none; stroke: #b0b0b0; stroke-opacity: 0.3; stroke-width: 0.8; stroke-linecap: square"/>
     </g>
     <g id="line2d_24">
      <g>
       <use xlink:href="#me089ea1e6d" x="56.09" y="81.668307" style="stroke: #000000; stroke-width: 0.8"/>
      </g>
     </g>
     <g id="text_13">
      <!-- 1.0 -->
      <g transform="translate(33.186875 85.467526) scale(0.1 -0.1)">
       <use xlink:href="#DejaVuSans-31"/>
       <use xlink:href="#DejaVuSans-2e" transform="translate(63.623047 0)"/>
       <use xlink:href="#DejaVuSans-30" transform="translate(95.410156 0)"/>
      </g>
     </g>
    </g>
    <g id="ytick_8">
     <g id="line2d_25">
      <path d="M 56.09 55.045252 
L 709.2 55.045252 
" clip-path="url(#p2589253115)" style="fill: none; stroke: #b0b0b0; stroke-opacity: 0.3; stroke-width: 0.8; stroke-linecap: square"/>
     </g>
     <g id="line2d_26">
      <g>
       <use xlink:href="#me089ea1e6d" x="56.09" y="55.045252" style="stroke: #000000; stroke-width: 0.8"/>
      </g>
     </g>
     <g id="text_14">
      <!-- 1.5 -->
      <g transform="translate(33.186875 58.844471) scale(0.1 -0.1)">
       <use xlink:href="#DejaVuSans-31"/>
       <use xlink:href="#DejaVuSans-2e" transform="translate(63.623047 0)"/>
       <use xlink:href="#DejaVuSans-35" transform="translate(95.410156 0)"/>
      </g>
     </g>
    </g>
    <g id="ytick_9">
     <g id="line2d_27">
      <path d="M 56.09 28.422197 
L 709.2 28.422197 
" clip-path="url(#p2589253115)" style="fill: none; stroke: #b0b0b0; stroke-opacity: 0.3; stroke-width: 0.8; stroke-linecap: square"/>
     </g>
     <g id="line2d_28">
      <g>
       <use xlink:href="#me089ea1e6d" x="56.09" y="28.422197" style="stroke: #000000; stroke-width: 0.8"/>
      </g>
     </g>
     <g id="text_15">
      <!-- 2.0 -->
      <g transform="translate(33.186875 32.221415) scale(0.1 -0.1)">
       <use xlink:href="#DejaVuSans-32"/>
       <use xlink:href="#DejaVuSans-2e" transform="translate(63.623047 0)"/>
       <use xlink:href="#DejaVuSans-30" transform="translate(95.410156 0)"/>
      </g>
     </g>
    </g>
    <g id="text_16">
     <!-- tie-rod force [kN] -->
     <g transform="translate(18.7275 179.170156) rotate(-90) scale(0.1 -0.1)">
      <defs>
       <path id="DejaVuSans-2d" d="M 313 2009 
L 1997 2009 
L 1997 1497 
L 313 1497 
L 313 2009 
z
" transform="scale(0.015625)"/>
       <path id="DejaVuSans-72" d="M 2631 2963 
Q 2534 3019 2420 3045 
Q 2306 3072 2169 3072 
Q 1681 3072 1420 2755 
Q 1159 2438 1159 1844 
L 1159 0 
L 581 0 
L 581 3500 
L 1159 3500 
L 1159 2956 
Q 1341 3275 1631 3429 
Q 1922 3584 2338 3584 
Q 2397 3584 2469 3576 
Q 2541 3569 2628 3553 
L 2631 2963 
z
" transform="scale(0.015625)"/>
       <path id="DejaVuSans-6f" d="M 1959 3097 
Q 1497 3097 1228 2736 
Q 959 2375 959 1747 
Q 959 1119 1226 758 
Q 1494 397 1959 397 
Q 2419 397 2687 759 
Q 2956 1122 2956 1747 
Q 2956 2369 2687 2733 
Q 2419 3097 1959 3097 
z
M 1959 3584 
Q 2709 3584 3137 3096 
Q 3566 2609 3566 1747 
Q 3566 888 3137 398 
Q 2709 -91 1959 -91 
Q 1206 -91 779 398 
Q 353 888 353 1747 
Q 353 2609 779 3096 
Q 1206 3584 1959 3584 
z
" transform="scale(0.015625)"/>
       <path id="DejaVuSans-66" d="M 2375 4863 
L 2375 4384 
L 1825 4384 
Q 1516 4384 1395 4259 
Q 1275 4134 1275 3809 
L 1275 3500 
L 2222 3500 
L 2222 3053 
L 1275 3053 
L 1275 0 
L 697 0 
L 697 3053 
L 147 3053 
L 147 3500 
L 697 3500 
L 697 3744 
Q 697 4328 969 4595 
Q 1241 4863 1831 4863 
L 2375 4863 
z
" transform="scale(0.015625)"/>
       <path id="DejaVuSans-4e" d="M 628 4666 
L 1478 4666 
L 3547 763 
L 3547 4666 
L 4159 4666 
L 4159 0 
L 3309 0 
L 1241 3903 
L 1241 0 
L 628 0 
L 628 4666 
z
" transform="scale(0.015625)"/>
      </defs>
      <use xlink:href="#DejaVuSans-74"/>
      <use xlink:href="#DejaVuSans-69" transform="translate(39.208984 0)"/>
      <use xlink:href="#DejaVuSans-65" transform="translate(66.992188 0)"/>
      <use xlink:href="#DejaVuSans-2d" transform="translate(128.515625 0)"/>
      <use xlink:href="#DejaVuSans-72" transform="translate(164.599609 0)"/>
      <use xlink:href="#DejaVuSans-6f" transform="translate(203.462891 0)"/>
      <use xlink:href="#DejaVuSans-64" transform="translate(264.644531 0)"/>
      <use xlink:href="#DejaVuSans-20" transform="translate(328.121094 0)"/>
      <use xlink:href="#DejaVuSans-66" transform="translate(359.908203 0)"/>
      <use xlink:href="#DejaVuSans-6f" transform="translate(395.113281 0)"/>
      <use xlink:href="#DejaVuSans-72" transform="translate(456.294922 0)"/>
      <use xlink:href="#DejaVuSans-63" transform="translate(495.158203 0)"/>
      <use xlink:href="#DejaVuSans-65" transform="translate(550.138672 0)"/>
      <use xlink:href="#DejaVuSans-20" transform="translate(611.662109 0)"/>
      <use xlink:href="#DejaVuSans-5b" transform="translate(643.449219 0)"/>
      <use xlink:href="#DejaVuSans-6b" transform="translate(682.462891 0)"/>
      <use xlink:href="#DejaVuSans-4e" transform="translate(740.373047 0)"/>
      <use xlink:href="#DejaVuSans-5d" transform="translate(815.177734 0)"/>
     </g>
    </g>
   </g>
   <g id="line2d_29">
    <path d="M 85.776818 134.914418 
L 89.903392 134.983546 
L 98.976576 134.911156 
L 118.870175 134.914685 
L 150.385017 134.962197 
L 152.268469 135.252467 
L 153.512294 135.491161 
L 154.745015 135.522311 
L 158.364591 135.154636 
L 162.411041 134.733511 
L 165.168205 134.835181 
L 169.325373 134.969437 
L 176.205648 134.993363 
L 177.029504 135.212867 
L 178.224382 135.871174 
L 178.611892 136.44092 
L 179.371011 138.30945 
L 180.471224 141.594753 
L 181.52846 145.739013 
L 181.872051 147.299137 
L 182.211493 149.389155 
L 182.878534 155.568027 
L 183.530752 164.424184 
L 184.483569 181.782659 
L 186.010157 209.873446 
L 186.894866 222.577173 
L 187.474519 227.989433 
L 188.046358 230.654372 
L 188.329332 231.1137 
L 188.610318 231.110901 
L 188.88932 230.7687 
L 189.985856 228.672694 
L 190.255174 228.481407 
L 190.787794 228.51705 
L 191.312181 228.857393 
L 191.828467 229.434343 
L 192.337076 230.380774 
L 192.838433 232.12792 
L 193.577301 236.078182 
L 193.820194 234.932401 
L 194.061514 228.024424 
L 194.301372 210.442889 
L 195.011646 113.036839 
L 195.245269 112.005508 
L 195.936749 148.402839 
L 196.163915 149.735928 
L 196.389263 148.671183 
L 196.612724 149.376254 
L 196.834255 153.651321 
L 197.701329 178.640761 
L 198.540387 192.395933 
L 200.147208 215.671484 
L 200.728193 221.393278 
L 201.29826 225.222448 
L 201.857276 227.580028 
L 202.405628 228.862644 
L 202.766014 229.158775 
L 203.123154 229.025666 
L 203.478006 228.513866 
L 204.008221 227.202437 
L 205.254308 223.663847 
L 205.616769 223.197732 
L 205.983499 223.070168 
L 206.543541 223.288008 
L 206.73333 223.059016 
L 206.924855 222.012805 
L 207.118222 219.089554 
L 207.313545 212.483254 
L 207.510956 199.78004 
L 208.32498 127.50862 
L 208.967053 138.296117 
L 209.870956 125.677111 
L 210.105449 126.755369 
L 210.584563 129.623532 
L 210.829181 129.787529 
L 211.328516 128.693108 
L 211.583225 128.544663 
L 211.84129 128.931276 
L 212.367482 130.22337 
L 212.907051 130.846122 
L 213.459822 131.184018 
L 215.192207 132.659362 
L 216.984704 133.97277 
L 218.176852 135.165416 
L 219.059657 137.01202 
L 219.640653 138.564574 
L 220.21478 140.948998 
L 220.782035 144.100852 
L 221.621032 150.745714 
L 222.447288 158.62879 
L 222.991804 165.670479 
L 225.921897 209.210951 
L 226.713027 218.469034 
L 227.240534 221.826831 
L 227.504434 222.682906 
L 227.768512 223.126733 
L 228.032853 223.272455 
L 229.362222 223.108928 
L 229.899479 223.597834 
L 230.169771 223.902595 
L 230.441324 223.970671 
L 230.714267 223.228612 
L 230.98874 220.531492 
L 231.264888 213.922158 
L 231.542857 200.791702 
L 232.676607 117.986931 
L 232.966651 118.583139 
L 233.55539 125.569053 
L 233.854062 125.975907 
L 234.459879 123.741386 
L 234.766966 124.012532 
L 235.076807 125.712642 
L 236.022623 132.610209 
L 236.343216 133.51078 
L 236.666322 133.79439 
L 237.319188 134.110128 
L 237.648395 134.473176 
L 237.979086 135.023788 
L 239.311764 138.456517 
L 239.981029 141.153351 
L 240.984432 146.708352 
L 241.651629 153.030316 
L 242.649497 166.359502 
L 244.305194 191.659169 
L 245.293489 202.568417 
L 246.278194 210.045436 
L 247.260835 215.533757 
L 247.915854 218.165186 
L 248.571535 220.157342 
L 249.228414 221.568717 
L 249.886987 222.274782 
L 250.547765 222.4157 
L 252.888149 222.111941 
L 253.227428 221.495191 
L 253.568239 219.814724 
L 253.910703 216.005311 
L 254.254957 208.38579 
L 254.601122 194.778263 
L 255.299419 146.484242 
L 255.651603 122.492393 
L 256.005839 111.785056 
L 256.362151 108.620724 
L 257.081064 107.539228 
L 258.174894 104.62456 
L 258.914031 103.69325 
L 259.286212 103.485033 
L 259.659727 103.522227 
L 260.409304 104.12294 
L 261.160356 104.695639 
L 261.911304 105.139404 
L 262.286571 105.676402 
L 262.661728 106.769913 
L 263.036808 108.734978 
L 264.161778 117.969187 
L 264.536731 118.98639 
L 264.911696 118.049935 
L 265.286688 115.652684 
L 267.162038 99.205413 
L 267.537206 97.93639 
L 267.912472 97.73852 
L 268.287874 98.505804 
L 269.039233 101.77708 
L 270.168189 107.154174 
L 270.922422 109.688637 
L 271.678078 111.652985 
L 272.435341 113.134781 
L 273.194529 114.181558 
L 273.956136 114.867976 
L 274.720868 115.247552 
L 275.489373 115.287592 
L 275.87517 115.132246 
L 276.262039 114.812343 
L 276.649983 114.273589 
L 277.820046 111.916985 
L 278.605451 113.112887 
L 278.999952 112.254349 
L 280.591655 102.926522 
L 280.992566 101.625052 
L 281.39398 100.95494 
L 281.795511 100.774771 
L 282.196857 100.963725 
L 282.597751 101.440197 
L 283.397312 103.043153 
L 284.589347 105.987817 
L 285.379329 107.28522 
L 285.773168 107.594652 
L 286.166389 107.553948 
L 286.559075 107.288476 
L 286.951283 108.213562 
L 287.343089 113.765933 
L 288.516726 152.72423 
L 292.0276 209.002655 
L 292.805308 216.653489 
L 293.581671 221.186553 
L 294.356627 223.769364 
L 295.130152 225.190702 
L 295.90236 225.896737 
L 296.673476 226.188313 
L 297.828764 226.251957 
L 298.983113 226.386949 
L 300.520548 226.580363 
L 301.672479 226.668597 
L 302.439583 227.037639 
L 303.204995 227.800158 
L 303.967617 228.542774 
L 304.347675 228.711481 
L 304.726841 228.685598 
L 305.105096 228.458035 
L 305.858839 227.474939 
L 308.096518 223.529362 
L 308.465662 222.360037 
L 308.833541 220.808147 
L 309.200086 218.715184 
L 309.565245 215.832072 
L 310.291247 206.798947 
L 311.368789 191.024384 
L 311.725118 188.668822 
L 312.080148 188.842949 
L 312.43395 191.168625 
L 313.488577 201.234276 
L 314.186335 205.904185 
L 314.880338 208.977726 
L 315.226203 209.734941 
L 315.571463 209.937718 
L 316.260623 209.566945 
L 316.948792 209.176279 
L 317.292811 209.099842 
L 317.636917 209.576992 
L 317.981203 210.893595 
L 319.361756 218.342511 
L 319.708033 219.30623 
L 320.054941 219.885018 
L 320.751174 220.423957 
L 321.100769 220.416335 
L 321.451534 219.963221 
L 321.803617 218.549242 
L 322.157171 215.194587 
L 322.512322 208.281891 
L 322.869159 195.669822 
L 323.588026 151.117188 
L 323.950065 128.708619 
L 324.313805 118.44835 
L 324.679116 116.56187 
L 325.045709 117.617502 
L 325.413238 118.294744 
L 325.781425 117.801759 
L 326.15009 116.943537 
L 326.519083 116.717867 
L 326.888262 117.625749 
L 327.257478 119.655326 
L 327.995432 125.031321 
L 328.363883 126.845486 
L 328.731786 127.359597 
L 329.098985 126.562375 
L 329.465323 124.719287 
L 330.194835 119.367105 
L 332.70431 98.248592 
L 333.0563 95.982817 
L 333.406466 94.655336 
L 333.754704 94.227824 
L 334.100886 94.671116 
L 334.4449 95.811235 
L 336.133641 103.303432 
L 336.796495 105.148254 
L 337.453036 106.303551 
L 338.103657 106.960621 
L 339.06937 107.462126 
L 340.024153 107.920392 
L 340.6554 108.49246 
L 341.596037 109.85923 
L 342.842093 112.161869 
L 344.394123 114.983516 
L 345.015768 115.812269 
L 345.639184 116.350146 
L 346.265053 116.622134 
L 346.894127 116.70191 
L 347.527345 116.618703 
L 348.165957 116.310618 
L 348.487692 116.000539 
L 348.811222 115.510149 
L 349.464203 113.916135 
L 349.793973 117.029861 
L 350.798148 150.40481 
L 351.137907 152.00727 
L 351.8249 150.545943 
L 352.172104 150.402884 
L 352.521751 150.689565 
L 352.873818 150.570277 
L 353.228278 149.367591 
L 353.585114 146.914784 
L 354.669728 137.421443 
L 355.035923 135.612231 
L 355.404423 134.83094 
L 355.775216 134.776503 
L 356.148288 135.108091 
L 357.663117 136.903859 
L 358.43388 137.454883 
L 358.822555 137.583135 
L 359.606427 137.493784 
L 360.398929 137.065658 
L 362.008093 136.126724 
L 363.226499 135.716541 
L 364.444075 135.558726 
L 369.549898 135.275308 
L 371.025907 134.974045 
L 372.095726 134.579234 
L 372.790475 133.787253 
L 373.804558 132.213699 
L 374.135208 131.291342 
L 374.785852 128.564573 
L 376.047079 122.281678 
L 376.658926 118.427777 
L 377.258951 112.293215 
L 378.709688 93.489707 
L 378.99151 91.924289 
L 379.270545 91.257824 
L 379.546781 91.387443 
L 379.8202 92.207654 
L 380.358675 95.568373 
L 381.147047 101.238273 
L 381.912992 104.640941 
L 382.655815 106.918405 
L 383.375524 108.510749 
L 384.300258 110.067578 
L 385.617629 111.80668 
L 387.460059 113.800937 
L 388.047722 114.162265 
L 388.626601 114.292903 
L 389.389139 114.176142 
L 390.146384 114.042606 
L 390.905698 114.177534 
L 391.870555 114.40718 
L 393.071445 114.415219 
L 393.908164 114.198551 
L 394.557521 113.742772 
L 395.001624 113.094475 
L 395.685878 111.784526 
L 395.919136 111.742829 
L 396.155145 112.086217 
L 396.635823 113.628108 
L 397.634277 117.737619 
L 398.152753 120.950886 
L 400.066436 134.94205 
L 400.640588 137.124702 
L 400.932087 137.589171 
L 401.523818 137.782688 
L 402.12705 137.953166 
L 402.432923 137.896775 
L 404.651596 136.453576 
L 405.978573 136.03928 
L 408.046343 135.701716 
L 412.008492 135.253045 
L 415.197246 135.118565 
L 416.21898 135.27319 
L 416.885576 135.406072 
L 417.21428 135.613096 
L 417.862381 136.529014 
L 418.811372 138.086188 
L 419.428763 140.411289 
L 420.034101 143.787011 
L 421.779293 155.90636 
L 422.337565 164.032619 
L 424.447071 202.50107 
L 425.424385 218.40171 
L 426.128099 225.68482 
L 426.584342 228.543821 
L 427.030531 230.337895 
L 427.466952 231.397714 
L 427.893963 231.99203 
L 428.517614 232.457215 
L 429.122112 232.641886 
L 429.709118 232.535603 
L 431.19764 231.874345 
L 432.073481 231.488362 
L 432.915926 231.057418 
L 434.219278 230.196137 
L 434.539498 229.735746 
L 434.85833 228.954418 
L 435.335477 226.9534 
L 435.974112 222.829523 
L 436.621427 218.931639 
L 436.949811 217.907247 
L 437.281821 217.524252 
L 437.617652 217.533371 
L 438.128734 217.892799 
L 439.89604 219.548865 
L 440.446084 219.706614 
L 441.00653 219.644314 
L 441.57889 219.281352 
L 442.969467 217.822021 
L 443.38228 216.82748 
L 443.802718 214.583885 
L 444.23133 209.618835 
L 444.668823 199.664001 
L 445.116093 182.634958 
L 445.807552 154.072828 
L 446.283742 145.459417 
L 447.792038 133.275028 
L 448.0552 132.436247 
L 448.321688 131.993733 
L 448.591467 131.897068 
L 449.140759 132.07285 
L 449.988544 131.714041 
L 450.277367 131.852738 
L 451.16208 132.592864 
L 453.328891 133.535007 
L 454.945452 133.937503 
L 456.248416 133.977333 
L 456.896524 133.654737 
L 457.539914 133.206167 
L 458.177056 132.415839 
L 459.11824 130.815669 
L 459.734432 129.296232 
L 460.340593 127.124088 
L 460.936062 123.970331 
L 461.80811 117.335653 
L 463.201868 106.710149 
L 464.263991 100.796372 
L 464.779217 98.805703 
L 465.534375 96.714276 
L 466.026993 95.768946 
L 466.270278 95.574444 
L 466.51164 95.616065 
L 466.751144 95.930856 
L 467.224852 97.422122 
L 467.923422 101.249532 
L 468.836538 106.145556 
L 469.952458 110.913531 
L 470.827339 113.592149 
L 471.476299 114.937408 
L 472.122772 115.737773 
L 472.77008 116.038928 
L 473.857221 116.11788 
L 475.185625 116.305506 
L 475.863015 116.324776 
L 476.321025 116.074248 
L 476.785425 115.296323 
L 477.25754 113.70845 
L 477.496975 114.572677 
L 478.231714 126.931776 
L 478.482915 127.765364 
L 478.737557 127.874542 
L 478.995714 128.862517 
L 480.063442 137.649859 
L 480.339011 138.275685 
L 480.900168 138.945259 
L 481.766073 140.582781 
L 482.060943 140.580965 
L 484.208419 138.790786 
L 485.171657 137.922609 
L 486.159517 137.292351 
L 487.513788 136.721818 
L 489.970426 136.01924 
L 492.094643 135.591982 
L 494.509607 135.349815 
L 495.508568 135.390667 
L 496.480923 135.561207 
L 496.798763 135.816005 
L 498.33895 138.16385 
L 498.637102 138.971263 
L 499.223598 141.66927 
L 501.176692 155.216553 
L 501.708537 162.178993 
L 504.705511 217.614311 
L 505.177275 223.851038 
L 505.642193 227.772276 
L 506.100053 229.745305 
L 506.55067 230.499346 
L 506.994022 230.574222 
L 507.430407 230.251183 
L 508.073288 229.266209 
L 508.913567 227.40398 
L 510.568208 223.128286 
L 511.190372 221.674754 
L 511.608588 221.101124 
L 512.030458 220.927089 
L 512.242943 221.000425 
L 512.671481 221.531353 
L 513.105267 222.730493 
L 513.544638 224.292727 
L 513.766478 224.156413 
L 513.989816 221.463617 
L 514.214732 213.350837 
L 514.441339 196.592402 
L 515.133214 128.913622 
L 515.368825 131.734548 
L 515.849491 151.257878 
L 516.094908 154.505088 
L 516.343799 154.341423 
L 516.596182 153.400104 
L 516.852043 153.812467 
L 517.111357 156.2081 
L 517.909689 165.446457 
L 518.182506 166.833524 
L 518.458629 167.313797 
L 518.738025 167.070909 
L 519.306488 165.314977 
L 521.086638 159.208081 
L 521.703898 158.784985 
L 522.016851 158.669609 
L 522.332646 158.704086 
L 522.651247 159.022414 
L 523.623583 160.692737 
L 523.953125 160.520756 
L 524.285349 159.588807 
L 524.620237 157.844753 
L 525.297919 152.501962 
L 526.333907 142.444825 
L 527.037299 135.286027 
L 527.392737 132.960241 
L 527.750635 131.888318 
L 528.110974 131.644495 
L 529.206436 131.761398 
L 529.57634 131.969441 
L 529.948588 132.469672 
L 530.700041 134.000094 
L 532.999225 139.344239 
L 534.542901 141.906184 
L 534.927281 142.944977 
L 535.310532 144.539602 
L 535.692423 147.178228 
L 536.451284 155.851498 
L 537.574397 168.554946 
L 537.944037 171.409304 
L 538.311077 172.924208 
L 538.675417 172.891735 
L 539.036981 171.430791 
L 539.395709 168.783272 
L 540.104477 161.262835 
L 541.486628 143.834995 
L 541.824771 141.403472 
L 542.15999 140.670563 
L 542.492319 141.446932 
L 542.821799 143.23265 
L 543.472379 148.794308 
L 544.112191 156.824265 
L 548.298103 215.298772 
L 549.12738 224.250818 
L 549.668158 227.834178 
L 550.199422 230.052207 
L 550.721295 231.414001 
L 551.233925 232.225229 
L 551.986196 232.868833 
L 552.477236 233.068277 
L 552.960539 233.079857 
L 553.436836 232.915333 
L 553.907039 232.583914 
L 554.372239 231.985621 
L 555.062976 230.614392 
L 555.976266 228.128725 
L 557.118777 225.051758 
L 557.348358 224.791387 
L 557.578193 224.763795 
L 557.808134 224.992212 
L 558.267622 226.170612 
L 558.953342 228.59 
L 559.180455 228.836737 
L 559.406697 228.237989 
L 559.632032 226.311829 
L 559.856431 222.53421 
L 560.302295 208.001841 
L 561.180266 168.002782 
L 561.396828 164.925243 
L 561.612318 164.826591 
L 562.040282 166.694666 
L 562.675337 167.804585 
L 562.885301 168.853704 
L 563.302734 172.547665 
L 564.128117 182.172283 
L 564.94232 195.452384 
L 565.948744 211.118059 
L 566.748987 219.9714 
L 567.148322 222.628514 
L 567.547466 223.919139 
L 567.747087 224.14752 
L 567.946831 224.177107 
L 568.347059 223.850877 
L 569.153444 222.876908 
L 569.560761 222.666099 
L 569.971541 222.683625 
L 570.386463 222.941661 
L 570.806274 223.266941 
L 571.01826 223.165154 
L 571.231774 222.418052 
L 571.446922 220.266517 
L 571.663814 215.514199 
L 571.88258 206.69096 
L 572.326351 174.360098 
L 572.779775 143.894604 
L 573.010705 140.639716 
L 573.482114 145.364748 
L 573.722848 145.60823 
L 574.214554 140.611705 
L 574.46553 138.278436 
L 574.719914 137.207862 
L 574.977696 137.139341 
L 575.503388 137.974215 
L 576.594798 140.226679 
L 577.160073 140.978971 
L 577.447464 141.707487 
L 578.328195 144.91408 
L 578.627845 145.457197 
L 578.930481 145.402409 
L 579.236073 144.825498 
L 580.169994 141.765197 
L 580.804078 139.413889 
L 582.084633 133.912323 
L 582.405347 133.324966 
L 582.725743 133.121691 
L 583.36469 133.068226 
L 583.68284 132.847797 
L 584.629918 131.613439 
L 585.253714 130.305576 
L 586.175414 128.067214 
L 586.478422 126.930215 
L 587.373264 121.68334 
L 587.957141 117.426059 
L 588.812517 108.245473 
L 589.64196 99.210612 
L 590.179864 95.72451 
L 590.705475 94.377486 
L 590.963687 94.148847 
L 591.218887 94.10024 
L 591.471133 94.203744 
L 591.720498 94.454297 
L 592.21092 95.385372 
L 593.161211 97.441357 
L 594.521431 99.388187 
L 594.959951 100.789264 
L 596.237819 105.68501 
L 598.637349 114.003974 
L 599.216261 115.119041 
L 599.601261 115.504181 
L 600.179904 115.720593 
L 602.769866 115.96808 
L 602.977191 115.805452 
L 603.396315 114.994401 
L 603.822459 113.498585 
L 604.038656 114.0607 
L 604.478499 116.572104 
L 604.702634 115.866169 
L 605.394045 110.801313 
L 605.871567 109.188905 
L 606.362395 108.49697 
L 606.612738 108.401467 
L 606.866323 108.512072 
L 607.12312 108.89008 
L 607.383106 109.570147 
L 607.646271 110.60754 
L 607.912624 112.152197 
L 608.454951 117.442306 
L 615.356703 209.432732 
L 615.994032 214.32727 
L 616.635253 217.32585 
L 617.280564 219.052458 
L 617.930247 220.027728 
L 618.584406 220.586325 
L 619.243102 220.81448 
L 619.906528 220.77681 
L 620.575125 220.547396 
L 620.911607 220.337312 
L 621.249694 219.962115 
L 621.58948 219.217039 
L 621.931039 217.73752 
L 622.274454 214.951484 
L 622.61983 209.993617 
L 622.967269 201.751394 
L 623.668773 172.763143 
L 624.379742 142.284515 
L 624.738848 136.967867 
L 625.100336 137.98798 
L 625.829464 143.807773 
L 626.932562 149.718048 
L 627.669971 157.193103 
L 628.406104 164.280287 
L 628.773033 165.686176 
L 629.138887 165.740901 
L 630.587866 163.630263 
L 630.946055 163.62041 
L 631.302661 164.12416 
L 632.363668 166.770161 
L 633.412617 167.874322 
L 634.451306 170.743515 
L 634.795882 170.663535 
L 635.483494 168.638721 
L 635.826826 167.664789 
L 636.170036 167.188861 
L 636.513263 167.078387 
L 636.856646 167.795278 
L 637.200312 170.713461 
L 637.888832 184.259559 
L 638.579051 198.812159 
L 639.27068 209.325812 
L 639.617013 212.770123 
L 639.963886 215.093028 
L 640.311527 216.397467 
L 640.660111 216.338834 
L 641.009767 214.197295 
L 641.360658 208.671713 
L 641.712901 198.020203 
L 642.421676 160.183195 
L 642.778328 139.648297 
L 643.136571 126.022046 
L 643.496461 121.004806 
L 643.858065 120.068198 
L 644.221447 119.746409 
L 644.953664 118.146416 
L 645.322521 118.307926 
L 645.69322 119.745575 
L 646.065771 122.427911 
L 647.574773 137.179529 
L 647.956788 138.875777 
L 648.340726 139.497813 
L 648.726593 139.337009 
L 649.114392 138.676759 
L 651.082477 134.068214 
L 651.481924 133.512357 
L 651.883314 133.172598 
L 652.286647 133.042691 
L 652.69192 133.093867 
L 653.508279 133.55027 
L 654.747296 134.41489 
L 655.582913 134.790332 
L 656.42617 134.94249 
L 659.437014 135.150432 
L 660.313989 135.697305 
L 661.198287 136.433034 
L 662.089851 136.854401 
L 663.440699 137.122804 
L 663.894554 137.688757 
L 664.350184 138.959271 
L 665.266734 143.461762 
L 666.654629 150.869504 
L 667.120701 152.247863 
L 667.588478 152.514765 
L 668.057954 151.721742 
L 668.529126 150.138321 
L 669.476541 145.22706 
L 670.430679 139.937766 
L 671.391486 135.772697 
L 672.358906 132.738656 
L 672.84508 131.704969 
L 673.332885 131.097319 
L 673.822314 130.93102 
L 674.31336 131.170219 
L 674.806014 131.724065 
L 677.293163 135.315111 
L 677.795319 135.711518 
L 678.299034 135.955426 
L 678.804301 136.060835 
L 679.513182 136.016062 
L 679.513182 136.016062 
" clip-path="url(#p2589253115)" style="fill: none; stroke: #2ca02c; stroke-width: 0.9; stroke-linecap: square"/>
   </g>
   <g id="line2d_30">
    <path d="M 85.776818 134.914418 
L 89.903392 134.983544 
L 98.976576 134.911158 
L 118.870175 134.914685 
L 150.385017 134.962202 
L 152.268469 135.25247 
L 153.512294 135.491176 
L 154.745015 135.522388 
L 158.364591 135.154756 
L 162.411041 134.733523 
L 165.168205 134.835212 
L 169.325373 134.969442 
L 176.205648 134.993366 
L 177.029504 135.212894 
L 178.224382 135.871526 
L 178.611892 136.441724 
L 179.371011 138.312967 
L 180.471224 141.607285 
L 181.52846 145.753727 
L 181.872051 147.304745 
L 182.546938 152.077307 
L 183.206426 159.207678 
L 184.794801 179.067064 
L 185.102989 180.442032 
L 185.40821 180.38756 
L 185.710556 179.067388 
L 186.307244 173.976932 
L 186.894866 168.864143 
L 187.761415 163.611118 
L 188.610318 159.714921 
L 189.441447 156.861133 
L 189.985856 155.75892 
L 190.255174 155.471131 
L 190.522504 155.359583 
L 191.051017 155.54649 
L 193.577301 157.554614 
L 193.820194 157.950824 
L 194.061514 158.64203 
L 194.301372 159.936811 
L 194.539739 158.936336 
L 195.011646 117.302803 
L 195.245269 114.917073 
L 195.477345 123.980212 
L 195.936749 147.60416 
L 196.163915 149.350926 
L 196.389263 148.519924 
L 196.612724 149.226587 
L 196.834255 153.341831 
L 197.487334 170.419204 
L 197.913569 174.690703 
L 198.124117 175.354325 
L 198.333037 175.508999 
L 198.540387 175.301111 
L 198.950559 174.012165 
L 199.555018 170.611857 
L 200.342075 165.958892 
L 200.919438 163.761864 
L 201.67216 161.742836 
L 204.361863 155.624378 
L 204.895349 154.901131 
L 205.435054 154.521693 
L 206.168738 154.259558 
L 206.73333 154.257249 
L 206.924855 154.372814 
L 207.118222 154.622169 
L 207.313545 155.089651 
L 207.510956 155.931375 
L 207.71061 154.720546 
L 208.32498 128.662308 
L 208.535668 131.852 
L 208.749657 136.79738 
L 208.967053 138.001136 
L 209.870956 125.753394 
L 210.105449 126.707899 
L 210.584563 129.508514 
L 210.829181 129.660635 
L 211.328516 128.510331 
L 211.583225 128.34455 
L 211.84129 128.737149 
L 212.367482 130.076364 
L 212.907051 130.731226 
L 213.459822 131.090868 
L 215.192207 132.629479 
L 216.984704 133.969399 
L 218.176852 135.165567 
L 219.059657 137.011446 
L 219.640653 138.56027 
L 220.21478 140.93305 
L 220.782035 144.049521 
L 221.621032 150.482601 
L 222.720144 160.409452 
L 223.800104 171.354008 
L 224.067508 172.794374 
L 224.334047 173.45909 
L 224.599841 173.431556 
L 224.865016 172.816853 
L 225.394007 170.216536 
L 226.713027 161.951054 
L 227.504434 158.375979 
L 228.297567 155.705686 
L 228.828558 154.514804 
L 229.362222 153.808833 
L 229.899479 153.442394 
L 230.441324 153.373333 
L 230.714267 153.492581 
L 230.98874 153.778732 
L 231.264888 154.315989 
L 231.542857 155.284903 
L 231.822804 154.734355 
L 232.104916 145.642893 
L 232.389427 129.206362 
L 232.676607 121.750722 
L 232.966651 120.977313 
L 233.55539 125.759646 
L 233.854062 125.976915 
L 234.459879 123.33291 
L 234.766966 123.458886 
L 235.076807 125.206502 
L 236.022623 132.53219 
L 236.343216 133.473454 
L 236.666322 133.771422 
L 237.319188 134.101635 
L 237.648395 134.470125 
L 237.979086 135.02414 
L 239.311764 138.450427 
L 239.981029 141.118717 
L 240.984432 146.525987 
L 241.651629 152.489888 
L 243.312953 170.309541 
L 243.644115 172.198611 
L 243.97487 172.959803 
L 244.305194 172.753662 
L 244.635072 171.813769 
L 245.622069 167.183867 
L 246.605868 163.143043 
L 247.260835 161.229321 
L 248.243577 159.147332 
L 249.228414 157.630215 
L 250.879166 155.610471 
L 252.213797 154.284189 
L 252.888149 153.942378 
L 253.227428 153.920028 
L 253.568239 154.03638 
L 253.910703 154.344252 
L 254.254957 154.935993 
L 254.601122 155.872864 
L 254.949266 154.156094 
L 255.299419 143.076283 
L 255.651603 125.482498 
L 256.005839 116.510079 
L 256.362151 112.212744 
L 257.443638 104.195153 
L 258.914031 88.200685 
L 260.034203 76.091899 
L 260.409304 73.606082 
L 260.784765 72.165948 
L 261.160356 71.923042 
L 261.535899 73.195119 
L 261.911304 76.275338 
L 262.661728 87.387438 
L 263.786817 109.531854 
L 264.161778 114.359874 
L 264.536731 116.289555 
L 264.911696 115.62529 
L 265.286688 113.170113 
L 266.036772 105.002591 
L 268.287874 76.974945 
L 269.415262 65.528573 
L 270.545135 55.944609 
L 271.300063 51.354775 
L 272.056492 48.756085 
L 272.435341 48.03596 
L 273.194529 47.251589 
L 273.956136 46.863489 
L 274.720868 46.659633 
L 275.104621 46.779724 
L 275.489373 47.321755 
L 275.87517 48.680449 
L 276.262039 51.437975 
L 276.649983 56.248644 
L 277.038976 63.570336 
L 278.212175 93.72484 
L 278.605451 99.399463 
L 278.999952 100.406107 
L 279.395773 98.124572 
L 280.992566 84.462768 
L 282.597751 73.267597 
L 284.589347 56.788678 
L 284.984758 55.393691 
L 285.379329 55.386741 
L 285.773168 57.248336 
L 286.166389 61.923553 
L 286.559075 70.753656 
L 286.951283 84.814127 
L 288.125766 143.939781 
L 288.516726 154.876071 
L 289.298059 165.805637 
L 290.078766 172.570552 
L 290.468917 174.184261 
L 290.85891 173.946444 
L 291.248711 172.031833 
L 292.416616 164.540701 
L 293.193663 161.531355 
L 293.969328 159.350346 
L 294.743566 157.709808 
L 295.516408 156.439058 
L 296.673476 155.042747 
L 297.443797 154.390258 
L 298.213644 153.955611 
L 298.983113 153.778633 
L 300.136371 153.814709 
L 301.288609 154.061141 
L 302.056169 154.40258 
L 302.822577 154.94947 
L 304.347675 156.214435 
L 306.60877 157.835397 
L 307.726186 159.006844 
L 308.465662 160.020723 
L 309.200086 161.334382 
L 309.928986 163.103407 
L 310.65195 165.321009 
L 311.011094 166.037852 
L 311.725118 166.815817 
L 312.080148 167.574395 
L 312.786593 169.514104 
L 313.138126 169.964481 
L 313.488577 169.929518 
L 313.837968 169.510689 
L 314.533755 167.946403 
L 316.260623 163.395052 
L 316.948792 162.141419 
L 317.981203 160.88081 
L 320.054941 158.624304 
L 321.803617 156.332259 
L 322.157171 156.178986 
L 322.512322 156.338984 
L 322.869159 156.875297 
L 323.227723 155.221342 
L 323.588026 145.96539 
L 323.950065 130.113453 
L 324.313805 121.535262 
L 324.679116 118.814856 
L 325.413238 118.581961 
L 325.781425 117.591382 
L 326.15009 116.224051 
L 326.519083 115.556759 
L 326.888262 116.297408 
L 327.257478 118.490758 
L 327.995432 124.517044 
L 328.363883 126.52649 
L 328.731786 127.133017 
L 329.098985 126.363776 
L 329.465323 124.505981 
L 330.194835 118.995828 
L 331.995149 101.732297 
L 333.406466 81.032072 
L 334.4449 66.433936 
L 335.126341 59.665591 
L 335.799697 55.09583 
L 336.465885 52.327572 
L 336.796495 51.587419 
L 337.125528 51.212322 
L 338.426868 50.644311 
L 339.06937 49.54654 
L 340.969685 45.387014 
L 341.908267 44.156315 
L 342.842093 43.201863 
L 343.152693 43.050176 
L 343.4631 43.034022 
L 344.08371 43.394681 
L 345.951768 45.1735 
L 346.894127 45.492318 
L 347.527345 45.756086 
L 347.84589 46.185175 
L 348.165957 47.235461 
L 348.487692 49.640059 
L 348.811222 54.633117 
L 349.136674 63.909393 
L 349.464203 79.331258 
L 350.460894 146.823778 
L 350.798148 153.952195 
L 351.137907 154.254657 
L 351.8249 150.65575 
L 352.172104 150.009188 
L 352.521751 149.87244 
L 352.873818 149.447482 
L 353.228278 148.18926 
L 353.94431 143.014236 
L 354.669728 137.308934 
L 355.035923 135.585782 
L 355.404423 134.828443 
L 355.775216 134.776808 
L 356.148288 135.10683 
L 357.663117 136.897019 
L 358.43388 137.441666 
L 358.822555 137.566343 
L 359.606427 137.47328 
L 360.798404 136.790314 
L 362.008093 136.120009 
L 363.226499 135.714386 
L 364.444075 135.557993 
L 369.549898 135.275424 
L 371.025907 134.9741 
L 372.095726 134.579194 
L 372.790475 133.787343 
L 373.804558 132.214715 
L 374.135208 131.292931 
L 374.785852 128.565785 
L 376.047079 122.231407 
L 376.658926 118.264832 
L 377.258951 111.757332 
L 377.847585 101.95246 
L 379.270545 76.470834 
L 381.147047 46.308682 
L 381.66022 41.274538 
L 382.163186 38.636415 
L 382.655815 37.445871 
L 383.13816 36.966628 
L 383.610383 36.841818 
L 384.300258 36.982351 
L 385.829619 37.673764 
L 388.626601 39.326901 
L 389.389139 39.921997 
L 389.957199 40.667017 
L 390.525257 41.850542 
L 391.096842 43.552393 
L 393.695974 53.122616 
L 394.12245 55.325427 
L 394.557521 58.860864 
L 395.001624 64.736238 
L 395.685878 78.982847 
L 396.635823 100.17404 
L 397.12868 107.06254 
L 398.954304 126.184702 
L 399.783838 133.217171 
L 400.352028 136.271778 
L 400.640588 137.170308 
L 400.932087 137.622778 
L 401.523818 137.784575 
L 402.12705 137.934279 
L 402.432923 137.871946 
L 404.326474 136.572786 
L 405.642895 136.114621 
L 407.346983 135.798509 
L 411.646719 135.281359 
L 414.851272 135.123666 
L 415.881218 135.193627 
L 417.21428 135.613184 
L 417.862381 136.529233 
L 418.811372 138.086479 
L 419.428763 140.409757 
L 420.034101 143.772046 
L 421.779293 155.469907 
L 422.337565 162.779074 
L 423.152498 174.485512 
L 423.680257 178.393213 
L 423.939237 179.145299 
L 424.194851 179.214234 
L 424.447071 178.658672 
L 424.941728 175.80005 
L 425.896136 169.039353 
L 426.584342 166.345446 
L 427.249941 164.591071 
L 428.104055 162.981459 
L 429.901192 159.950633 
L 430.652341 158.775789 
L 431.375958 158.064243 
L 432.413927 157.392116 
L 433.245862 157.141652 
L 434.058484 157.153314 
L 434.85833 157.42602 
L 435.974112 158.007878 
L 437.281821 158.815815 
L 437.787031 158.759529 
L 438.474349 158.376911 
L 441.00653 156.414711 
L 442.164961 155.471296 
L 442.765773 155.270419 
L 443.38228 155.275064 
L 443.802718 155.470791 
L 444.23133 155.948986 
L 444.891175 157.401697 
L 445.116093 157.06265 
L 445.343706 155.304407 
L 446.283742 143.521823 
L 446.773048 140.653242 
L 447.792038 133.332913 
L 448.0552 132.498702 
L 448.321688 132.040687 
L 448.591467 131.92222 
L 449.140759 132.066261 
L 449.988544 131.681085 
L 450.277367 131.817097 
L 451.16208 132.564563 
L 453.328891 133.524607 
L 454.945452 133.93418 
L 456.248416 133.975846 
L 456.896524 133.653194 
L 457.539914 133.204284 
L 458.177056 132.412946 
L 459.11824 130.809322 
L 459.734432 129.284673 
L 460.340593 127.099595 
L 460.936062 123.90961 
L 461.80811 117.073879 
L 464.522843 94.47656 
L 465.534375 86.177158 
L 466.51164 75.292722 
L 468.836538 46.149387 
L 469.286172 43.141174 
L 469.731415 41.738456 
L 469.952458 41.522146 
L 470.172503 41.540346 
L 470.609859 42.034415 
L 471.260435 43.338675 
L 472.554045 46.121594 
L 473.420681 47.436378 
L 473.857221 47.823038 
L 474.296619 47.910384 
L 474.739302 47.625264 
L 475.185625 46.966981 
L 475.863015 45.927623 
L 476.091295 46.138406 
L 476.321025 47.251649 
L 476.552349 49.976997 
L 476.785425 55.225645 
L 477.25754 76.413448 
L 477.983808 118.822655 
L 478.231714 124.629193 
L 478.482915 126.209334 
L 478.737557 126.679085 
L 478.995714 128.097355 
L 479.791291 136.305745 
L 480.063442 137.731039 
L 480.339011 138.339558 
L 480.900168 138.958055 
L 481.766073 140.50935 
L 482.060943 140.485785 
L 486.159517 137.261328 
L 487.513788 136.705279 
L 490.325527 135.927365 
L 492.445344 135.540714 
L 494.845384 135.332538 
L 496.159902 135.489596 
L 496.480923 135.56134 
L 496.798763 135.816185 
L 498.33895 138.16447 
L 498.637102 138.97181 
L 499.223598 141.666236 
L 501.176692 154.82045 
L 501.708537 161.10388 
L 502.74248 175.919254 
L 502.995227 177.351195 
L 503.245786 177.780357 
L 503.494195 177.40276 
L 503.740486 176.383134 
L 504.226859 173.003124 
L 504.942237 167.308943 
L 505.642193 163.554422 
L 506.326275 160.831101 
L 507.213054 158.140768 
L 508.073288 156.197624 
L 508.913567 154.748913 
L 509.535969 154.137283 
L 510.1553 153.946364 
L 512.456587 153.852048 
L 513.544638 153.527869 
L 513.766478 153.602364 
L 513.989816 153.856331 
L 514.214732 154.411037 
L 514.441339 155.390498 
L 514.669796 152.667373 
L 515.133214 130.3154 
L 515.368825 132.313711 
L 515.849491 148.776468 
L 516.094908 151.883764 
L 516.343799 152.125002 
L 516.596182 151.508203 
L 516.852043 151.894663 
L 517.909689 159.913909 
L 518.182506 160.300033 
L 518.458629 160.087073 
L 519.020657 158.714293 
L 520.182838 155.726622 
L 520.782394 154.548952 
L 521.086638 154.369656 
L 522.016851 154.454668 
L 522.332646 154.59642 
L 522.651247 154.92083 
L 523.623583 156.217138 
L 523.953125 156.06839 
L 524.285349 155.372139 
L 524.620237 154.091517 
L 525.297919 150.086677 
L 525.986008 144.882017 
L 527.392737 133.026784 
L 527.750635 131.960749 
L 528.110974 131.691284 
L 529.206436 131.749264 
L 529.57634 131.94855 
L 529.948588 132.448132 
L 530.700041 133.992528 
L 532.999225 139.326145 
L 534.542901 141.840874 
L 534.927281 142.861819 
L 535.310532 144.425696 
L 535.692423 146.999357 
L 536.451284 155.25592 
L 537.202286 163.138651 
L 537.574397 166.028856 
L 537.944037 167.964097 
L 538.311077 168.715717 
L 538.675417 168.317277 
L 539.036981 166.978961 
L 539.751553 162.210754 
L 540.454457 155.425409 
L 541.486628 143.714123 
L 541.824771 141.350313 
L 542.15999 140.633805 
L 542.492319 141.414411 
L 542.821799 143.195057 
L 543.472379 148.683326 
L 544.428229 160.548452 
L 545.361195 171.084701 
L 545.970341 175.636347 
L 546.270953 176.781608 
L 546.56887 177.225551 
L 546.864046 177.092278 
L 547.156427 176.502844 
L 547.732699 174.208428 
L 548.853385 168.242864 
L 549.668158 165.550665 
L 550.461524 163.653498 
L 551.737594 161.280077 
L 553.436836 158.252818 
L 555.062976 155.049241 
L 555.74833 154.099917 
L 556.204211 153.733552 
L 556.660738 153.584092 
L 557.118777 153.781123 
L 557.578193 154.354306 
L 559.180455 157.128603 
L 559.632032 158.14294 
L 560.079863 159.642909 
L 560.523618 162.089891 
L 560.743712 162.105367 
L 561.396828 157.882821 
L 561.612318 158.697495 
L 562.040282 161.321809 
L 562.464524 162.520834 
L 562.885301 163.813757 
L 564.332631 170.923902 
L 564.536473 171.453744 
L 564.739686 171.653367 
L 564.94232 171.444234 
L 565.346066 169.838431 
L 566.948697 160.792555 
L 567.747087 157.700262 
L 568.547771 155.463969 
L 569.153444 154.467325 
L 569.765678 154.001905 
L 570.386463 153.807331 
L 571.01826 153.847267 
L 571.446922 154.207961 
L 571.663814 154.619971 
L 572.103367 156.074433 
L 572.326351 154.254251 
L 572.779775 141.45027 
L 573.010705 139.49695 
L 573.482114 143.847427 
L 573.722848 144.333811 
L 573.966993 142.76328 
L 574.46553 138.093106 
L 574.719914 137.105291 
L 574.977696 137.059192 
L 575.503388 137.894608 
L 576.594798 140.107493 
L 577.160073 140.830451 
L 577.447464 141.528047 
L 578.328195 144.539894 
L 578.627845 145.017432 
L 578.930481 144.929712 
L 579.236073 144.360412 
L 580.169994 141.476809 
L 580.804078 139.275285 
L 582.084633 133.920528 
L 582.405347 133.332656 
L 582.725743 133.12567 
L 583.36469 133.067408 
L 583.68284 132.845775 
L 584.629918 131.607017 
L 585.253714 130.293928 
L 586.175414 128.040522 
L 586.478422 126.89312 
L 587.373264 121.551778 
L 587.957141 117.123575 
L 588.5302 110.740064 
L 590.444208 86.131767 
L 591.471133 78.011409 
L 591.967064 74.883609 
L 592.452165 73.32847 
L 593.161211 72.382762 
L 593.392986 71.698433 
L 593.850218 69.19501 
L 594.521431 63.092984 
L 596.237819 44.043207 
L 596.651371 41.861849 
L 597.058748 40.595262 
L 597.460355 40.056525 
L 597.659186 40.063977 
L 598.053324 40.526409 
L 598.637349 41.928018 
L 600.373609 46.575657 
L 600.958882 47.528327 
L 601.353497 47.716887 
L 601.552362 47.641808 
L 601.953448 47.114622 
L 602.563889 45.914964 
L 602.769866 46.106791 
L 602.977191 47.405275 
L 603.185961 50.630912 
L 603.608417 65.789585 
L 604.257252 99.906487 
L 604.478499 105.048687 
L 604.702634 105.744116 
L 605.631135 99.254213 
L 606.612738 96.057361 
L 606.866323 95.670414 
L 607.12312 95.895701 
L 607.383106 96.940496 
L 607.646271 98.94798 
L 608.182179 106.455514 
L 609.576909 132.604615 
L 610.740747 149.474469 
L 611.635341 158.437081 
L 612.54575 165.379278 
L 612.852516 167.016393 
L 613.160841 168.056533 
L 613.470659 168.407208 
L 613.781899 168.067015 
L 614.094485 167.135447 
L 615.994032 159.067861 
L 616.957378 156.397654 
L 617.604846 155.137555 
L 618.256766 154.319899 
L 618.913178 153.879352 
L 619.574205 153.690777 
L 620.575125 153.685403 
L 621.249694 153.829546 
L 621.931039 154.192906 
L 622.274454 154.526219 
L 622.61983 155.020279 
L 623.31688 156.401442 
L 623.668773 154.526847 
L 624.738848 136.573112 
L 625.100336 137.484773 
L 625.829464 143.14973 
L 626.932562 149.21861 
L 628.406104 161.764438 
L 628.773033 162.552786 
L 629.138887 162.301727 
L 630.228037 160.604904 
L 630.587866 160.380044 
L 630.946055 160.406955 
L 631.302661 160.842256 
L 632.363668 162.944769 
L 633.412617 163.66953 
L 634.451306 165.230318 
L 634.795882 164.929687 
L 636.170036 161.898159 
L 636.513263 161.734247 
L 636.856646 162.146466 
L 637.200312 163.960744 
L 637.888832 170.332559 
L 638.233741 171.660021 
L 638.579051 170.909164 
L 640.311527 160.690534 
L 641.009767 158.279917 
L 641.360658 157.727961 
L 641.712901 157.716715 
L 642.066557 156.596931 
L 642.421676 150.62612 
L 643.136571 127.594959 
L 643.496461 122.840886 
L 643.858065 121.231211 
L 644.221447 120.31952 
L 644.953664 117.692994 
L 645.322521 117.334623 
L 645.69322 118.535437 
L 646.065771 121.361133 
L 647.574773 137.227246 
L 647.956788 138.944345 
L 648.340726 139.538103 
L 648.726593 139.341709 
L 649.114392 138.659816 
L 651.082477 134.071394 
L 651.481924 133.516133 
L 651.883314 133.174003 
L 652.286647 133.040632 
L 652.69192 133.088988 
L 653.508279 133.544335 
L 654.747296 134.413031 
L 655.582913 134.790063 
L 656.42617 134.942468 
L 659.437014 135.150405 
L 660.313989 135.696935 
L 661.198287 136.430842 
L 662.089851 136.848938 
L 663.440699 137.112344 
L 663.894554 137.673403 
L 664.350184 138.931465 
L 665.266734 143.349317 
L 666.19027 148.298741 
L 666.654629 150.281724 
L 667.120701 151.427832 
L 667.588478 151.522957 
L 668.057954 150.674991 
L 668.529126 149.157263 
L 669.476541 144.633246 
L 670.910252 137.585312 
L 671.874373 134.137539 
L 672.358906 132.763799 
L 672.84508 131.727295 
L 673.332885 131.103601 
L 673.822314 130.918828 
L 674.31336 131.145802 
L 674.806014 131.696871 
L 677.293163 135.316238 
L 677.795319 135.713355 
L 678.299034 135.956529 
L 678.804301 136.060654 
L 679.513182 136.014446 
L 679.513182 136.014446 
" clip-path="url(#p2589253115)" style="fill: none; stroke: #d62728; stroke-opacity: 0.8; stroke-width: 0.9; stroke-linecap: square"/>
   </g>
   <g id="patch_3">
    <path d="M 56.09 246.04 
L 56.09 26.88 
" style="fill: none; stroke: #000000; stroke-width: 0.8; stroke-linejoin: miter; stroke-linecap: square"/>
   </g>
   <g id="patch_4">
    <path d="M 709.2 246.04 
L 709.2 26.88 
" style="fill: none; stroke: #000000; stroke-width: 0.8; stroke-linejoin: miter; stroke-linecap: square"/>
   </g>
   <g id="patch_5">
    <path d="M 56.09 246.04 
L 709.2 246.04 
" style="fill: none; stroke: #000000; stroke-width: 0.8; stroke-linejoin: miter; stroke-linecap: square"/>
   </g>
   <g id="patch_6">
    <path d="M 56.09 26.88 
L 709.2 26.88 
" style="fill: none; stroke: #000000; stroke-width: 0.8; stroke-linejoin: miter; stroke-linecap: square"/>
   </g>
   <g id="text_17">
    <!-- steering-link loads over one Ring Knutstorp lap -->
    <g transform="translate(241.40875 20.88) scale(0.12 -0.12)">
     <defs>
      <path id="DejaVuSans-67" d="M 2906 1791 
Q 2906 2416 2648 2759 
Q 2391 3103 1925 3103 
Q 1463 3103 1205 2759 
Q 947 2416 947 1791 
Q 947 1169 1205 825 
Q 1463 481 1925 481 
Q 2391 481 2648 825 
Q 2906 1169 2906 1791 
z
M 3481 434 
Q 3481 -459 3084 -895 
Q 2688 -1331 1869 -1331 
Q 1566 -1331 1297 -1286 
Q 1028 -1241 775 -1147 
L 775 -588 
Q 1028 -725 1275 -790 
Q 1522 -856 1778 -856 
Q 2344 -856 2625 -561 
Q 2906 -266 2906 331 
L 2906 616 
Q 2728 306 2450 153 
Q 2172 0 1784 0 
Q 1141 0 747 490 
Q 353 981 353 1791 
Q 353 2603 747 3093 
Q 1141 3584 1784 3584 
Q 2172 3584 2450 3431 
Q 2728 3278 2906 2969 
L 2906 3500 
L 3481 3500 
L 3481 434 
z
" transform="scale(0.015625)"/>
      <path id="DejaVuSans-6c" d="M 603 4863 
L 1178 4863 
L 1178 0 
L 603 0 
L 603 4863 
z
" transform="scale(0.015625)"/>
      <path id="DejaVuSans-76" d="M 191 3500 
L 800 3500 
L 1894 563 
L 2988 3500 
L 3597 3500 
L 2284 0 
L 1503 0 
L 191 3500 
z
" transform="scale(0.015625)"/>
      <path id="DejaVuSans-52" d="M 2841 2188 
Q 3044 2119 3236 1894 
Q 3428 1669 3622 1275 
L 4263 0 
L 3584 0 
L 2988 1197 
Q 2756 1666 2539 1819 
Q 2322 1972 1947 1972 
L 1259 1972 
L 1259 0 
L 628 0 
L 628 4666 
L 2053 4666 
Q 2853 4666 3247 4331 
Q 3641 3997 3641 3322 
Q 3641 2881 3436 2590 
Q 3231 2300 2841 2188 
z
M 1259 4147 
L 1259 2491 
L 2053 2491 
Q 2509 2491 2742 2702 
Q 2975 2913 2975 3322 
Q 2975 3731 2742 3939 
Q 2509 4147 2053 4147 
L 1259 4147 
z
" transform="scale(0.015625)"/>
      <path id="DejaVuSans-4b" d="M 628 4666 
L 1259 4666 
L 1259 2694 
L 3353 4666 
L 4166 4666 
L 1850 2491 
L 4331 0 
L 3500 0 
L 1259 2247 
L 1259 0 
L 628 0 
L 628 4666 
z
" transform="scale(0.015625)"/>
      <path id="DejaVuSans-75" d="M 544 1381 
L 544 3500 
L 1119 3500 
L 1119 1403 
Q 1119 906 1312 657 
Q 1506 409 1894 409 
Q 2359 409 2629 706 
Q 2900 1003 2900 1516 
L 2900 3500 
L 3475 3500 
L 3475 0 
L 2900 0 
L 2900 538 
Q 2691 219 2414 64 
Q 2138 -91 1772 -91 
Q 1169 -91 856 284 
Q 544 659 544 1381 
z
M 1991 3584 
L 1991 3584 
z
" transform="scale(0.015625)"/>
      <path id="DejaVuSans-70" d="M 1159 525 
L 1159 -1331 
L 581 -1331 
L 581 3500 
L 1159 3500 
L 1159 2969 
Q 1341 3281 1617 3432 
Q 1894 3584 2278 3584 
Q 2916 3584 3314 3078 
Q 3713 2572 3713 1747 
Q 3713 922 3314 415 
Q 2916 -91 2278 -91 
Q 1894 -91 1617 61 
Q 1341 213 1159 525 
z
M 3116 1747 
Q 3116 2381 2855 2742 
Q 2594 3103 2138 3103 
Q 1681 3103 1420 2742 
Q 1159 2381 1159 1747 
Q 1159 1113 1420 752 
Q 1681 391 2138 391 
Q 2594 391 2855 752 
Q 3116 1113 3116 1747 
z
" transform="scale(0.015625)"/>
     </defs>
     <use xlink:href="#DejaVuSans-73"/>
     <use xlink:href="#DejaVuSans-74" transform="translate(52.099609 0)"/>
     <use xlink:href="#DejaVuSans-65" transform="translate(91.308594 0)"/>
     <use xlink:href="#DejaVuSans-65" transform="translate(152.832031 0)"/>
     <use xlink:href="#DejaVuSans-72" transform="translate(214.355469 0)"/>
     <use xlink:href="#DejaVuSans-69" transform="translate(255.46875 0)"/>
     <use xlink:href="#DejaVuSans-6e" transform="translate(283.251953 0)"/>
     <use xlink:href="#DejaVuSans-67" transform="translate(346.630859 0)"/>
     <use xlink:href="#DejaVuSans-2d" transform="translate(410.107422 0)"/>
     <use xlink:href="#DejaVuSans-6c" transform="translate(446.191406 0)"/>
     <use xlink:href="#DejaVuSans-69" transform="translate(473.974609 0)"/>
     <use xlink:href="#DejaVuSans-6e" transform="translate(501.757812 0)"/>
     <use xlink:href="#DejaVuSans-6b" transform="translate(565.136719 0)"/>
     <use xlink:href="#DejaVuSans-20" transform="translate(623.046875 0)"/>
     <use xlink:href="#DejaVuSans-6c" transform="translate(654.833984 0)"/>
     <use xlink:href="#DejaVuSans-6f" transform="translate(682.617188 0)"/>
     <use xlink:href="#DejaVuSans-61" transform="translate(743.798828 0)"/>
     <use xlink:href="#DejaVuSans-64" transform="translate(805.078125 0)"/>
     <use xlink:href="#DejaVuSans-73" transform="translate(868.554688 0)"/>
     <use xlink:href="#DejaVuSans-20" transform="translate(920.654297 0)"/>
     <use xlink:href="#DejaVuSans-6f" transform="translate(952.441406 0)"/>
     <use xlink:href="#DejaVuSans-76" transform="translate(1013.623047 0)"/>
     <use xlink:href="#DejaVuSans-65" transform="translate(1072.802734 0)"/>
     <use xlink:href="#DejaVuSans-72" transform="translate(1134.326172 0)"/>
     <use xlink:href="#DejaVuSans-20" transform="translate(1175.439453 0)"/>
     <use xlink:href="#DejaVuSans-6f" transform="translate(1207.226562 0)"/>
     <use xlink:href="#DejaVuSans-6e" transform="translate(1268.408203 0)"/>
     <use xlink:href="#DejaVuSans-65" transform="translate(1331.787109 0)"/>
     <use xlink:href="#DejaVuSans-20" transform="translate(1393.310547 0)"/>
     <use xlink:href="#DejaVuSans-52" transform="translate(1425.097656 0)"/>
     <use xlink:href="#DejaVuSans-69" transform="translate(1494.580078 0)"/>
     <use xlink:href="#DejaVuSans-6e" transform="translate(1522.363281 0)"/>
     <use xlink:href="#DejaVuSans-67" transform="translate(1585.742188 0)"/>
     <use xlink:href="#DejaVuSans-20" transform="translate(1649.21875 0)"/>
     <use xlink:href="#DejaVuSans-4b" transform="translate(1681.005859 0)"/>
     <use xlink:href="#DejaVuSans-6e" transform="translate(1746.582031 0)"/>
     <use xlink:href="#DejaVuSans-75" transform="translate(1809.960938 0)"/>
     <use xlink:href="#DejaVuSans-74" transform="translate(1873.339844 0)"/>
     <use xlink:href="#DejaVuSans-73" transform="translate(1912.548828 0)"/>
     <use xlink:href="#DejaVuSans-74" transform="translate(1964.648438 0)"/>
     <use xlink:href="#DejaVuSans-6f" transform="translate(2003.857422 0)"/>
     <use xlink:href="#DejaVuSans-72" transform="translate(2065.039062 0)"/>
     <use xlink:href="#DejaVuSans-70" transform="translate(2106.152344 0)"/>
     <use xlink:href="#DejaVuSans-20" transform="translate(2169.628906 0)"/>
     <use xlink:href="#DejaVuSans-6c" transform="translate(2201.416016 0)"/>
     <use xlink:href="#DejaVuSans-61" transform="translate(2229.199219 0)"/>
     <use xlink:href="#DejaVuSans-70" transform="translate(2290.478516 0)"/>
    </g>
   </g>
   <g id="legend_1">
    <g id="patch_7">
     <path d="M 630.755 56.765 
L 703.6 56.765 
Q 705.2 56.765 705.2 55.165 
L 705.2 32.48 
Q 705.2 30.88 703.6 30.88 
L 630.755 30.88 
Q 629.155 30.88 629.155 32.48 
L 629.155 55.165 
Q 629.155 56.765 630.755 56.765 
z
" style="fill: #ffffff; opacity: 0.8; stroke: #cccccc; stroke-linejoin: miter"/>
    </g>
    <g id="line2d_31">
     <path d="M 632.355 37.35875 
L 640.355 37.35875 
L 648.355 37.35875 
" style="fill: none; stroke: #2ca02c; stroke-width: 0.9; stroke-linecap: square"/>
    </g>
    <g id="text_18">
     <!-- tie rod left -->
     <g transform="translate(654.755 40.15875) scale(0.08 -0.08)">
      <use xlink:href="#DejaVuSans-74"/>
      <use xlink:href="#DejaVuSans-69" transform="translate(39.208984 0)"/>
      <use xlink:href="#DejaVuSans-65" transform="translate(66.992188 0)"/>
      <use xlink:href="#DejaVuSans-20" transform="translate(128.515625 0)"/>
      <use xlink:href="#DejaVuSans-72" transform="translate(160.302734 0)"/>
      <use xlink:href="#DejaVuSans-6f" transform="translate(199.166016 0)"/>
      <use xlink:href="#DejaVuSans-64" transform="translate(260.347656 0)"/>
      <use xlink:href="#DejaVuSans-20" transform="translate(323.824219 0)"/>
      <use xlink:href="#DejaVuSans-6c" transform="translate(355.611328 0)"/>
      <use xlink:href="#DejaVuSans-65" transform="translate(383.394531 0)"/>
      <use xlink:href="#DejaVuSans-66" transform="translate(444.917969 0)"/>
      <use xlink:href="#DejaVuSans-74" transform="translate(478.373047 0)"/>
     </g>
    </g>
    <g id="line2d_32">
     <path d="M 632.355 49.10125 
L 640.355 49.10125 
L 648.355 49.10125 
" style="fill: none; stroke: #d62728; stroke-opacity: 0.8; stroke-width: 0.9; stroke-linecap: square"/>
    </g>
    <g id="text_19">
     <!-- tie rod right -->
     <g transform="translate(654.755 51.90125) scale(0.08 -0.08)">
      <defs>
       <path id="DejaVuSans-68" d="M 3513 2113 
L 3513 0 
L 2938 0 
L 2938 2094 
Q 2938 2591 2744 2837 
Q 2550 3084 2163 3084 
Q 1697 3084 1428 2787 
Q 1159 2491 1159 1978 
L 1159 0 
L 581 0 
L 581 4863 
L 1159 4863 
L 1159 2956 
Q 1366 3272 1645 3428 
Q 1925 3584 2291 3584 
Q 2894 3584 3203 3211 
Q 3513 2838 3513 2113 
z
" transform="scale(0.015625)"/>
      </defs>
      <use xlink:href="#DejaVuSans-74"/>
      <use xlink:href="#DejaVuSans-69" transform="translate(39.208984 0)"/>
      <use xlink:href="#DejaVuSans-65" transform="translate(66.992188 0)"/>
      <use xlink:href="#DejaVuSans-20" transform="translate(128.515625 0)"/>
      <use xlink:href="#DejaVuSans-72" transform="translate(160.302734 0)"/>
      <use xlink:href="#DejaVuSans-6f" transform="translate(199.166016 0)"/>
      <use xlink:href="#DejaVuSans-64" transform="translate(260.347656 0)"/>
      <use xlink:href="#DejaVuSans-20" transform="translate(323.824219 0)"/>
      <use xlink:href="#DejaVuSans-72" transform="translate(355.611328 0)"/>
      <use xlink:href="#DejaVuSans-69" transform="translate(396.724609 0)"/>
      <use xlink:href="#DejaVuSans-67" transform="translate(424.507812 0)"/>
      <use xlink:href="#DejaVuSans-68" transform="translate(487.984375 0)"/>
      <use xlink:href="#DejaVuSans-74" transform="translate(551.363281 0)"/>
     </g>
    </g>
   </g>
  </g>
 </g>
 <defs>
  <clipPath id="p2589253115">
   <rect x="56.09" y="26.88" width="653.11" height="219.16"/>
  </clipPath>
 </defs>
</svg>
