<?xml version="1.0" encoding="utf-8" standalone="no"?>
<!DOCTYPE svg PUBLIC "-//W3C//DTD SVG 1.1//EN"
  "http://www.w3.org/Graphics/SVG/1.1/DTD/svg11.dtd">
<svg xmlns:xlink="http://www.w3.org/1999/xlink" width="720pt" height="432pt" viewBox="0 0 720 432" xmlns="http://www.w3.org/2000/svg" version="1.1">
 <metadata>
  <rdf:RDF xmlns:dc="http://purl.org/dc/elements/1.1/" xmlns:cc="http://creativecommons.org/ns#" xmlns:rdf="http://www.w3.org/1999/02/22-rdf-syntax-ns#">
   <cc:Work>
    <dc:type rdf:resource="http://purl.org/dc/dcmitype/StillImage"/>
    <dc:date>2026-07-07T16:16:59.427467</dc:date>
    <dc:format>image/svg+xml</dc:format>
    <dc:creator>
     <cc:Agent>
      <dc:title>Matplotlib v3.10.8, https://matplotlib.org/</dc:title>
     </cc:Agent>
    </dc:creator>
   </cc:Work>
  </rdf:RDF>
 </metadata>
 <defs>
  <style type="text/css">*{stroke-linejoin: round; stroke-linecap: butt}</style>
 </defs>
 <g id="figure_1">
  <g id="patch_1">
   <path d="M 0 432 
L 720 432 
L 720 0 
L 0 0 
z
" style="fill: #ffffff"/>
  </g>
  <g id="axes_1">
   <g id="patch_2">
    <path d="M 50.96 273.134118 
L 709.2 273.134118 
L 709.2 26.88 
L 50.96 26.88 
z
" style="fill: #ffffff"/>
   </g>
   <g id="matplotlib.axis_1">
    <g id="xtick_1">
     <g id="line2d_1">
      <path d="M 80.88 273.134118 
L 80.88 26.88 
" clip-path="url(#pbc1fdcbcbd)" style="fill: none; stroke: #b0b0b0; stroke-opacity: 0.3; stroke-width: 0.8; stroke-linecap: square"/>
     </g>
     <g id="line2d_2">
      <defs>
       <path id="m87b2f1e78e" d="M 0 0 
L 0 3.5 
" style="stroke: #000000; stroke-width: 0.8"/>
      </defs>
      <g>
       <use xlink:href="#m87b2f1e78e" x="80.88" y="273.134118" style="stroke: #000000; stroke-width: 0.8"/>
      </g>
     </g>
    </g>
    <g id="xtick_2">
     <g id="line2d_3">
      <path d="M 226.476107 273.134118 
L 226.476107 26.88 
" clip-path="url(#pbc1fdcbcbd)" style="fill: none; stroke: #b0b0b0; stroke-opacity: 0.3; stroke-width: 0.8; stroke-linecap: square"/>
     </g>
     <g id="line2d_4">
      <g>
       <use xlink:href="#m87b2f1e78e" x="226.476107" y="273.134118" style="stroke: #000000; stroke-width: 0.8"/>
      </g>
     </g>
    </g>
    <g id="xtick_3">
     <g id="line2d_5">
      <path d="M 372.072214 273.134118 
L 372.072214 26.88 
" clip-path="url(#pbc1fdcbcbd)" style="fill: none; stroke: #b0b0b0; stroke-opacity: 0.3; stroke-width: 0.8; stroke-linecap: square"/>
     </g>
     <g id="line2d_6">
      <g>
       <use xlink:href="#m87b2f1e78e" x="372.072214" y="273.134118" style="stroke: #000000; stroke-width: 0.8"/>
      </g>
     </g>
    </g>
    <g id="xtick_4">
     <g id="line2d_7">
      <path d="M 517.668321 273.134118 
L 517.668321 26.88 
" clip-path="url(#pbc1fdcbcbd)" style="fill: none; stroke: #b0b0b0; stroke-opacity: 0.3; stroke-width: 0.8; stroke-linecap: square"/>
     </g>
     <g id="line2d_8">
      <g>
       <use xlink:href="#m87b2f1e78e" x="517.668321" y="273.134118" style="stroke: #000000; stroke-width: 0.8"/>
      </g>
     </g>
    </g>
    <g id="xtick_5">
     <g id="line2d_9">
      <path d="M 663.264428 273.134118 
L 663.264428 26.88 
" clip-path="url(#pbc1fdcbcbd)" style="fill: none; stroke: #b0b0b0; stroke-opacity: 0.3; stroke-width: 0.8; stroke-linecap: square"/>
     </g>
     <g id="line2d_10">
      <g>
       <use xlink:href="#m87b2f1e78e" x="663.264428" y="273.134118" style="stroke: #000000; stroke-width: 0.8"/>
      </g>
     </g>
    </g>
   </g>
   <g id="matplotlib.axis_2">
    <g id="ytick_1">
     <g id="line2d_11">
      <path d="M 50.96 264.802021 
L 709.2 264.802021 
" clip-path="url(#pbc1fdcbcbd)" style="fill: none; stroke: #b0b0b0; stroke-opacity: 0.3; stroke-width: 0.8; stroke-linecap: square"/>
     </g>
     <g id="line2d_12">
      <defs>
       <path id="mf62fa4eafe" d="M 0 0 
L -3.5 0 
" style="stroke: #000000; stroke-width: 0.8"/>
      </defs>
      <g>
       <use xlink:href="#mf62fa4eafe" x="50.96" y="264.802021" style="stroke: #000000; stroke-width: 0.8"/>
      </g>
     </g>
     <g id="text_1">
      <!-- 40 -->
      <g transform="translate(31.235 268.601239) scale(0.1 -0.1)">
       <defs>
        <path id="DejaVuSans-34" d="M 2419 4116 
L 825 1625 
L 2419 1625 
L 2419 4116 
z
M 2253 4666 
L 3047 4666 
L 3047 1625 
L 3713 1625 
L 3713 1100 
L 3047 1100 
L 3047 0 
L 2419 0 
L 2419 1100 
L 313 1100 
L 313 1709 
L 2253 4666 
z
" transform="scale(0.015625)"/>
        <path id="DejaVuSans-30" d="M 2034 4250 
Q 1547 4250 1301 3770 
Q 1056 3291 1056 2328 
Q 1056 1369 1301 889 
Q 1547 409 2034 409 
Q 2525 409 2770 889 
Q 3016 1369 3016 2328 
Q 3016 3291 2770 3770 
Q 2525 4250 2034 4250 
z
M 2034 4750 
Q 2819 4750 3233 4129 
Q 3647 3509 3647 2328 
Q 3647 1150 3233 529 
Q 2819 -91 2034 -91 
Q 1250 -91 836 529 
Q 422 1150 422 2328 
Q 422 3509 836 4129 
Q 1250 4750 2034 4750 
z
" transform="scale(0.015625)"/>
       </defs>
       <use xlink:href="#DejaVuSans-34"/>
       <use xlink:href="#DejaVuSans-30" transform="translate(63.623047 0)"/>
      </g>
     </g>
    </g>
    <g id="ytick_2">
     <g id="line2d_13">
      <path d="M 50.96 228.143201 
L 709.2 228.143201 
" clip-path="url(#pbc1fdcbcbd)" style="fill: none; stroke: #b0b0b0; stroke-opacity: 0.3; stroke-width: 0.8; stroke-linecap: square"/>
     </g>
     <g id="line2d_14">
      <g>
       <use xlink:href="#mf62fa4eafe" x="50.96" y="228.143201" style="stroke: #000000; stroke-width: 0.8"/>
      </g>
     </g>
     <g id="text_2">
      <!-- 60 -->
      <g transform="translate(31.235 231.94242) scale(0.1 -0.1)">
       <defs>
        <path id="DejaVuSans-36" d="M 2113 2584 
Q 1688 2584 1439 2293 
Q 1191 2003 1191 1497 
Q 1191 994 1439 701 
Q 1688 409 2113 409 
Q 2538 409 2786 701 
Q 3034 994 3034 1497 
Q 3034 2003 2786 2293 
Q 2538 2584 2113 2584 
z
M 3366 4563 
L 3366 3988 
Q 3128 4100 2886 4159 
Q 2644 4219 2406 4219 
Q 1781 4219 1451 3797 
Q 1122 3375 1075 2522 
Q 1259 2794 1537 2939 
Q 1816 3084 2150 3084 
Q 2853 3084 3261 2657 
Q 3669 2231 3669 1497 
Q 3669 778 3244 343 
Q 2819 -91 2113 -91 
Q 1303 -91 875 529 
Q 447 1150 447 2328 
Q 447 3434 972 4092 
Q 1497 4750 2381 4750 
Q 2619 4750 2861 4703 
Q 3103 4656 3366 4563 
z
" transform="scale(0.015625)"/>
       </defs>
       <use xlink:href="#DejaVuSans-36"/>
       <use xlink:href="#DejaVuSans-30" transform="translate(63.623047 0)"/>
      </g>
     </g>
    </g>
    <g id="ytick_3">
     <g id="line2d_15">
      <path d="M 50.96 191.484382 
L 709.2 191.484382 
" clip-path="url(#pbc1fdcbcbd)" style="fill: none; stroke: #b0b0b0; stroke-opacity: 0.3; stroke-width: 0.8; stroke-linecap: square"/>
     </g>
     <g id="line2d_16">
      <g>
       <use xlink:href="#mf62fa4eafe" x="50.96" y="191.484382" style="stroke: #000000; stroke-width: 0.8"/>
      </g>
     </g>
     <g id="text_3">
      <!-- 80 -->
      <g transform="translate(31.235 195.2836) scale(0.1 -0.1)">
       <defs>
        <path id="DejaVuSans-38" d="M 2034 2216 
Q 1584 2216 1326 1975 
Q 1069 1734 1069 1313 
Q 1069 891 1326 650 
Q 1584 409 2034 409 
Q 2484 409 2743 651 
Q 3003 894 3003 1313 
Q 3003 1734 2745 1975 
Q 2488 2216 2034 2216 
z
M 1403 2484 
Q 997 2584 770 2862 
Q 544 3141 544 3541 
Q 544 4100 942 4425 
Q 1341 4750 2034 4750 
Q 2731 4750 3128 4425 
Q 3525 4100 3525 3541 
Q 3525 3141 3298 2862 
Q 3072 2584 2669 2484 
Q 3125 2378 3379 2068 
Q 3634 1759 3634 1313 
Q 3634 634 3220 271 
Q 2806 -91 2034 -91 
Q 1263 -91 848 271 
Q 434 634 434 1313 
Q 434 1759 690 2068 
Q 947 2378 1403 2484 
z
M 1172 3481 
Q 1172 3119 1398 2916 
Q 1625 2713 2034 2713 
Q 2441 2713 2670 2916 
Q 2900 3119 2900 3481 
Q 2900 3844 2670 4047 
Q 2441 4250 2034 4250 
Q 1625 4250 1398 4047 
Q 1172 3844 1172 3481 
z
" transform="scale(0.015625)"/>
       </defs>
       <use xlink:href="#DejaVuSans-38"/>
       <use xlink:href="#DejaVuSans-30" transform="translate(63.623047 0)"/>
      </g>
     </g>
    </g>
    <g id="ytick_4">
     <g id="line2d_17">
      <path d="M 50.96 154.825562 
L 709.2 154.825562 
" clip-path="url(#pbc1fdcbcbd)" style="fill: none; stroke: #b0b0b0; stroke-opacity: 0.3; stroke-width: 0.8; stroke-linecap: square"/>
     </g>
     <g id="line2d_18">
      <g>
       <use xlink:href="#mf62fa4eafe" x="50.96" y="154.825562" style="stroke: #000000; stroke-width: 0.8"/>
      </g>
     </g>
     <g id="text_4">
      <!-- 100 -->
      <g transform="translate(24.8725 158.624781) scale(0.1 -0.1)">
       <defs>
        <path id="DejaVuSans-31" d="M 794 531 
L 1825 531 
L 1825 4091 
L 703 3866 
L 703 4441 
L 1819 4666 
L 2450 4666 
L 2450 531 
L 3481 531 
L 3481 0 
L 794 0 
L 794 531 
z
" transform="scale(0.015625)"/>
       </defs>
       <use xlink:href="#DejaVuSans-31"/>
       <use xlink:href="#DejaVuSans-30" transform="translate(63.623047 0)"/>
       <use xlink:href="#DejaVuSans-30" transform="translate(127.246094 0)"/>
      </g>
     </g>
    </g>
    <g id="ytick_5">
     <g id="line2d_19">
      <path d="M 50.96 118.166742 
L 709.2 118.166742 
" clip-path="url(#pbc1fdcbcbd)" style="fill: none; stroke: #b0b0b0; stroke-opacity: 0.3; stroke-width: 0.8; stroke-linecap: square"/>
     </g>
     <g id="line2d_20">
      <g>
       <use xlink:href="#mf62fa4eafe" x="50.96" y="118.166742" style="stroke: #000000; stroke-width: 0.8"/>
      </g>
     </g>
     <g id="text_5">
      <!-- 120 -->
      <g transform="translate(24.8725 121.965961) scale(0.1 -0.1)">
       <defs>
        <path id="DejaVuSans-32" d="M 1228 531 
L 3431 531 
L 3431 0 
L 469 0 
L 469 531 
Q 828 903 1448 1529 
Q 2069 2156 2228 2338 
Q 2531 2678 2651 2914 
Q 2772 3150 2772 3378 
Q 2772 3750 2511 3984 
Q 2250 4219 1831 4219 
Q 1534 4219 1204 4116 
Q 875 4013 500 3803 
L 500 4441 
Q 881 4594 1212 4672 
Q 1544 4750 1819 4750 
Q 2544 4750 2975 4387 
Q 3406 4025 3406 3419 
Q 3406 3131 3298 2873 
Q 3191 2616 2906 2266 
Q 2828 2175 2409 1742 
Q 1991 1309 1228 531 
z
" transform="scale(0.015625)"/>
       </defs>
       <use xlink:href="#DejaVuSans-31"/>
       <use xlink:href="#DejaVuSans-32" transform="translate(63.623047 0)"/>
       <use xlink:href="#DejaVuSans-30" transform="translate(127.246094 0)"/>
      </g>
     </g>
    </g>
    <g id="ytick_6">
     <g id="line2d_21">
      <path d="M 50.96 81.507923 
L 709.2 81.507923 
" clip-path="url(#pbc1fdcbcbd)" style="fill: none; stroke: #b0b0b0; stroke-opacity: 0.3; stroke-width: 0.8; stroke-linecap: square"/>
     </g>
     <g id="line2d_22">
      <g>
       <use xlink:href="#mf62fa4eafe" x="50.96" y="81.507923" style="stroke: #000000; stroke-width: 0.8"/>
      </g>
     </g>
     <g id="text_6">
      <!-- 140 -->
      <g transform="translate(24.8725 85.307142) scale(0.1 -0.1)">
       <use xlink:href="#DejaVuSans-31"/>
       <use xlink:href="#DejaVuSans-34" transform="translate(63.623047 0)"/>
       <use xlink:href="#DejaVuSans-30" transform="translate(127.246094 0)"/>
      </g>
     </g>
    </g>
    <g id="ytick_7">
     <g id="line2d_23">
      <path d="M 50.96 44.849103 
L 709.2 44.849103 
" clip-path="url(#pbc1fdcbcbd)" style="fill: none; stroke: #b0b0b0; stroke-opacity: 0.3; stroke-width: 0.8; stroke-linecap: square"/>
     </g>
     <g id="line2d_24">
      <g>
       <use xlink:href="#mf62fa4eafe" x="50.96" y="44.849103" style="stroke: #000000; stroke-width: 0.8"/>
      </g>
     </g>
     <g id="text_7">
      <!-- 160 -->
      <g transform="translate(24.8725 48.648322) scale(0.1 -0.1)">
       <use xlink:href="#DejaVuSans-31"/>
       <use xlink:href="#DejaVuSans-36" transform="translate(63.623047 0)"/>
       <use xlink:href="#DejaVuSans-30" transform="translate(127.246094 0)"/>
      </g>
     </g>
    </g>
    <g id="text_8">
     <!-- speed [km/h] -->
     <g transform="translate(18.792813 183.222684) rotate(-90) scale(0.1 -0.1)">
      <defs>
       <path id="DejaVuSans-73" d="M 2834 3397 
L 2834 2853 
Q 2591 2978 2328 3040 
Q 2066 3103 1784 3103 
Q 1356 3103 1142 2972 
Q 928 2841 928 2578 
Q 928 2378 1081 2264 
Q 1234 2150 1697 2047 
L 1894 2003 
Q 2506 1872 2764 1633 
Q 3022 1394 3022 966 
Q 3022 478 2636 193 
Q 2250 -91 1575 -91 
Q 1294 -91 989 -36 
Q 684 19 347 128 
L 347 722 
Q 666 556 975 473 
Q 1284 391 1588 391 
Q 1994 391 2212 530 
Q 2431 669 2431 922 
Q 2431 1156 2273 1281 
Q 2116 1406 1581 1522 
L 1381 1569 
Q 847 1681 609 1914 
Q 372 2147 372 2553 
Q 372 3047 722 3315 
Q 1072 3584 1716 3584 
Q 2034 3584 2315 3537 
Q 2597 3491 2834 3397 
z
" transform="scale(0.015625)"/>
       <path id="DejaVuSans-70" d="M 1159 525 
L 1159 -1331 
L 581 -1331 
L 581 3500 
L 1159 3500 
L 1159 2969 
Q 1341 3281 1617 3432 
Q 1894 3584 2278 3584 
Q 2916 3584 3314 3078 
Q 3713 2572 3713 1747 
Q 3713 922 3314 415 
Q 2916 -91 2278 -91 
Q 1894 -91 1617 61 
Q 1341 213 1159 525 
z
M 3116 1747 
Q 3116 2381 2855 2742 
Q 2594 3103 2138 3103 
Q 1681 3103 1420 2742 
Q 1159 2381 1159 1747 
Q 1159 1113 1420 752 
Q 1681 391 2138 391 
Q 2594 391 2855 752 
Q 3116 1113 3116 1747 
z
" transform="scale(0.015625)"/>
       <path id="DejaVuSans-65" d="M 3597 1894 
L 3597 1613 
L 953 1613 
Q 991 1019 1311 708 
Q 1631 397 2203 397 
Q 2534 397 2845 478 
Q 3156 559 3463 722 
L 3463 178 
Q 3153 47 2828 -22 
Q 2503 -91 2169 -91 
Q 1331 -91 842 396 
Q 353 884 353 1716 
Q 353 2575 817 3079 
Q 1281 3584 2069 3584 
Q 2775 3584 3186 3129 
Q 3597 2675 3597 1894 
z
M 3022 2063 
Q 3016 2534 2758 2815 
Q 2500 3097 2075 3097 
Q 1594 3097 1305 2825 
Q 1016 2553 972 2059 
L 3022 2063 
z
" transform="scale(0.015625)"/>
       <path id="DejaVuSans-64" d="M 2906 2969 
L 2906 4863 
L 3481 4863 
L 3481 0 
L 2906 0 
L 2906 525 
Q 2725 213 2448 61 
Q 2172 -91 1784 -91 
Q 1150 -91 751 415 
Q 353 922 353 1747 
Q 353 2572 751 3078 
Q 1150 3584 1784 3584 
Q 2172 3584 2448 3432 
Q 2725 3281 2906 2969 
z
M 947 1747 
Q 947 1113 1208 752 
Q 1469 391 1925 391 
Q 2381 391 2643 752 
Q 2906 1113 2906 1747 
Q 2906 2381 2643 2742 
Q 2381 3103 1925 3103 
Q 1469 3103 1208 2742 
Q 947 2381 947 1747 
z
" transform="scale(0.015625)"/>
       <path id="DejaVuSans-20" transform="scale(0.015625)"/>
       <path id="DejaVuSans-5b" d="M 550 4863 
L 1875 4863 
L 1875 4416 
L 1125 4416 
L 1125 -397 
L 1875 -397 
L 1875 -844 
L 550 -844 
L 550 4863 
z
" transform="scale(0.015625)"/>
       <path id="DejaVuSans-6b" d="M 581 4863 
L 1159 4863 
L 1159 1991 
L 2875 3500 
L 3609 3500 
L 1753 1863 
L 3688 0 
L 2938 0 
L 1159 1709 
L 1159 0 
L 581 0 
L 581 4863 
z
" transform="scale(0.015625)"/>
       <path id="DejaVuSans-6d" d="M 3328 2828 
Q 3544 3216 3844 3400 
Q 4144 3584 4550 3584 
Q 5097 3584 5394 3201 
Q 5691 2819 5691 2113 
L 5691 0 
L 5113 0 
L 5113 2094 
Q 5113 2597 4934 2840 
Q 4756 3084 4391 3084 
Q 3944 3084 3684 2787 
Q 3425 2491 3425 1978 
L 3425 0 
L 2847 0 
L 2847 2094 
Q 2847 2600 2669 2842 
Q 2491 3084 2119 3084 
Q 1678 3084 1418 2786 
Q 1159 2488 1159 1978 
L 1159 0 
L 581 0 
L 581 3500 
L 1159 3500 
L 1159 2956 
Q 1356 3278 1631 3431 
Q 1906 3584 2284 3584 
Q 2666 3584 2933 3390 
Q 3200 3197 3328 2828 
z
" transform="scale(0.015625)"/>
       <path id="DejaVuSans-2f" d="M 1625 4666 
L 2156 4666 
L 531 -594 
L 0 -594 
L 1625 4666 
z
" transform="scale(0.015625)"/>
       <path id="DejaVuSans-68" d="M 3513 2113 
L 3513 0 
L 2938 0 
L 2938 2094 
Q 2938 2591 2744 2837 
Q 2550 3084 2163 3084 
Q 1697 3084 1428 2787 
Q 1159 2491 1159 1978 
L 1159 0 
L 581 0 
L 581 4863 
L 1159 4863 
L 1159 2956 
Q 1366 3272 1645 3428 
Q 1925 3584 2291 3584 
Q 2894 3584 3203 3211 
Q 3513 2838 3513 2113 
z
" transform="scale(0.015625)"/>
       <path id="DejaVuSans-5d" d="M 1947 4863 
L 1947 -844 
L 622 -844 
L 622 -397 
L 1369 -397 
L 1369 4416 
L 622 4416 
L 622 4863 
L 1947 4863 
z
" transform="scale(0.015625)"/>
      </defs>
      <use xlink:href="#DejaVuSans-73"/>
      <use xlink:href="#DejaVuSans-70" transform="translate(52.099609 0)"/>
      <use xlink:href="#DejaVuSans-65" transform="translate(115.576172 0)"/>
      <use xlink:href="#DejaVuSans-65" transform="translate(177.099609 0)"/>
      <use xlink:href="#DejaVuSans-64" transform="translate(238.623047 0)"/>
      <use xlink:href="#DejaVuSans-20" transform="translate(302.099609 0)"/>
      <use xlink:href="#DejaVuSans-5b" transform="translate(333.886719 0)"/>
      <use xlink:href="#DejaVuSans-6b" transform="translate(372.900391 0)"/>
      <use xlink:href="#DejaVuSans-6d" transform="translate(430.810547 0)"/>
      <use xlink:href="#DejaVuSans-2f" transform="translate(528.222656 0)"/>
      <use xlink:href="#DejaVuSans-68" transform="translate(561.914062 0)"/>
      <use xlink:href="#DejaVuSans-5d" transform="translate(625.292969 0)"/>
     </g>
    </g>
   </g>
   <g id="line2d_25">
    <path d="M 80.88 91.989371 
L 85.565464 86.254415 
L 90.368576 80.732781 
L 95.28584 75.411057 
L 100.313567 70.27705 
L 106.025021 64.779464 
L 111.863434 59.486647 
L 117.824146 54.386549 
L 123.902731 49.468368 
L 130.720309 44.256814 
L 137.670142 39.242594 
L 138.947561 38.343984 
L 139.587839 38.073369 
L 140.229132 40.233283 
L 142.156183 49.409901 
L 152.229806 96.632731 
L 156.972369 120.171236 
L 160.894985 140.796179 
L 164.57908 161.494263 
L 167.533503 179.358907 
L 172.019123 207.502497 
L 174.444268 220.713851 
L 175.20935 223.861421 
L 175.584026 224.870258 
L 175.9536 225.507587 
L 176.318204 225.871461 
L 177.033116 226.143986 
L 180.362066 226.791964 
L 180.98635 226.568678 
L 181.293969 226.091804 
L 181.900644 224.026354 
L 184.802422 211.123998 
L 185.081635 210.653005 
L 185.358886 210.680383 
L 185.634191 211.281879 
L 185.907571 212.518588 
L 186.448435 216.521384 
L 187.764655 227.442087 
L 189.527226 238.818335 
L 190.256985 242.197247 
L 191.208295 246.290502 
L 191.905207 251.359915 
L 192.586492 255.834851 
L 192.809762 256.548238 
L 193.250466 256.92518 
L 193.897554 257.094654 
L 197.118551 257.096735 
L 197.497869 256.929575 
L 197.872238 256.496398 
L 198.241802 255.593758 
L 198.606969 253.986153 
L 199.327103 249.427629 
L 201.478119 233.652203 
L 204.603087 210.665568 
L 205.948863 201.869776 
L 207.417872 193.624184 
L 210.136056 179.494634 
L 210.425913 180.345484 
L 214.02092 211.644496 
L 215.503356 221.584685 
L 216.0855 224.150985 
L 216.373936 224.646935 
L 216.945646 224.91277 
L 218.898978 225.139813 
L 219.445411 225.072098 
L 219.716943 224.897211 
L 219.987421 224.382331 
L 220.525558 222.478914 
L 221.859953 215.852954 
L 225.863449 195.61505 
L 228.357465 184.802841 
L 230.730925 175.232871 
L 231.985482 170.749793 
L 232.305945 169.920456 
L 232.629056 169.627009 
L 232.954699 170.143359 
L 233.944486 174.387197 
L 236.969903 188.206094 
L 237.306727 189.14092 
L 237.643156 189.545533 
L 237.979165 189.566273 
L 238.649998 189.296011 
L 240.320654 189.278604 
L 240.986042 189.016265 
L 241.64963 188.354716 
L 242.311585 187.167915 
L 242.972318 185.492555 
L 244.953425 179.287585 
L 247.949683 169.475 
L 248.963444 166.681613 
L 250.681488 162.85754 
L 251.734154 160.391662 
L 254.632216 152.744399 
L 255.003737 152.360886 
L 255.377158 152.936032 
L 256.128711 156.608004 
L 257.262586 162.58893 
L 257.641127 164.478233 
L 258.019621 165.787838 
L 258.397974 166.193005 
L 259.154293 166.396109 
L 262.555847 166.725263 
L 262.933867 166.466943 
L 263.689951 165.183893 
L 265.960873 159.938508 
L 268.241463 154.524083 
L 269.386981 152.264659 
L 270.537414 150.526312 
L 271.694921 149.161939 
L 272.471522 148.456198 
L 272.86143 148.249164 
L 273.64447 148.199625 
L 274.037552 147.927373 
L 274.826884 146.784763 
L 275.223249 146.127583 
L 275.620849 145.242404 
L 276.019779 143.99475 
L 276.420139 143.111258 
L 276.821945 143.446319 
L 277.225054 145.817023 
L 278.033681 151.974903 
L 279.246907 158.251441 
L 279.650261 159.756173 
L 280.052748 160.813984 
L 280.454245 161.502239 
L 280.854699 161.890058 
L 282.050334 162.294164 
L 283.239346 162.410265 
L 284.029519 162.384285 
L 284.818343 162.158613 
L 285.606197 161.681578 
L 286.786684 160.637044 
L 291.098146 155.904365 
L 294.597555 152.754712 
L 294.985459 152.820792 
L 295.760972 153.206359 
L 296.535974 153.228109 
L 297.310483 153.225495 
L 297.697576 153.481165 
L 298.084577 154.069715 
L 298.858165 156.039542 
L 300.400722 162.806297 
L 303.069105 168.775277 
L 303.822951 172.012635 
L 306.426223 185.447279 
L 306.792822 186.117361 
L 307.157928 186.239938 
L 308.243934 185.874928 
L 310.380372 185.85021 
L 310.732507 185.680945 
L 311.083611 185.272071 
L 311.783065 183.667597 
L 313.52104 178.167071 
L 316.64868 168.292714 
L 319.834636 159.097232 
L 320.559149 157.264527 
L 320.924033 156.816407 
L 321.290629 157.300133 
L 322.769777 165.698406 
L 323.885308 169.076894 
L 325.001175 173.439666 
L 326.113396 178.818224 
L 327.217854 184.119534 
L 328.311014 188.568245 
L 329.390523 191.956907 
L 330.101794 194.063094 
L 331.501302 199.392499 
L 331.845782 199.874808 
L 332.188095 200.076919 
L 332.86674 200.122799 
L 333.871367 200.123519 
L 334.861654 200.10614 
L 335.514547 199.866769 
L 336.162095 199.222059 
L 336.804748 198.156479 
L 337.760583 196.003057 
L 339.337439 191.614862 
L 341.528673 183.930136 
L 344.366818 174.007821 
L 347.643096 163.469491 
L 350.074973 156.275005 
L 352.625456 149.42429 
L 355.289189 142.892704 
L 357.258743 138.033728 
L 357.659193 136.812289 
L 358.061805 136.624824 
L 358.466518 138.277826 
L 367.259077 201.896113 
L 368.732718 211.805793 
L 370.14807 220.298591 
L 370.833187 223.41679 
L 371.503365 225.29161 
L 372.481815 226.799645 
L 373.117302 227.974698 
L 374.651645 231.638457 
L 375.537318 234.422707 
L 377.505738 241.029435 
L 378.043073 242.443688 
L 378.570281 243.154488 
L 379.087485 243.394822 
L 379.843954 243.485663 
L 385.720484 243.407767 
L 386.108584 243.249414 
L 386.493899 242.907758 
L 386.877112 242.32797 
L 387.258958 241.429631 
L 387.831101 239.355933 
L 388.791671 234.539019 
L 389.975875 227.613354 
L 394.930604 196.599907 
L 396.517409 188.620475 
L 398.216938 181.126394 
L 400.33446 172.915612 
L 402.589817 165.196668 
L 404.97601 157.868821 
L 405.680863 155.877033 
L 406.037038 155.546311 
L 406.395607 156.661033 
L 407.1188 161.526445 
L 414.255136 216.676352 
L 414.920812 220.426948 
L 416.530449 227.022121 
L 418.947167 236.662478 
L 420.084339 243.348732 
L 420.905673 248.758923 
L 421.956214 256.633107 
L 422.210415 257.745172 
L 422.461279 258.271923 
L 422.953614 258.646542 
L 423.434461 258.716193 
L 424.814167 258.665794 
L 426.105626 258.635676 
L 426.312931 258.465194 
L 426.721144 257.468821 
L 427.513794 254.927133 
L 427.707377 254.596123 
L 427.89922 254.523798 
L 428.277745 254.878876 
L 429.548246 256.909465 
L 432.382115 257.743668 
L 432.703452 257.451244 
L 433.024059 256.747663 
L 433.666497 254.479898 
L 434.64544 250.980695 
L 437.964424 239.561482 
L 438.710414 235.811648 
L 439.672084 229.495161 
L 443.041786 206.333284 
L 444.963404 195.234705 
L 446.544458 187.322367 
L 448.2436 179.906555 
L 450.365964 171.772668 
L 450.680911 171.006853 
L 450.998673 171.006001 
L 451.319094 172.144902 
L 452.292883 180.256179 
L 454.588639 199.241981 
L 457.774948 223.756466 
L 460.151969 240.037395 
L 460.716927 243.232352 
L 460.994796 244.247765 
L 461.26962 244.743795 
L 461.810432 245.065091 
L 462.600971 245.115734 
L 463.369011 245.150309 
L 464.362132 245.258602 
L 464.846775 245.089389 
L 465.086355 244.802815 
L 465.560405 243.656136 
L 466.260137 241.06381 
L 469.391485 227.807418 
L 471.568699 217.647634 
L 477.187522 188.294627 
L 479.106936 179.751226 
L 480.880382 172.833572 
L 483.085581 165.20614 
L 485.772504 156.888256 
L 486.120254 156.432169 
L 486.470564 158.210933 
L 488.248438 173.469524 
L 494.486531 222.776093 
L 495.761277 230.90932 
L 496.983189 236.94968 
L 498.152351 241.865798 
L 498.71763 243.401258 
L 498.995615 243.763894 
L 499.812069 244.063404 
L 501.375545 244.380718 
L 501.878432 244.60525 
L 502.126658 244.615095 
L 502.372784 244.498217 
L 502.858962 243.784269 
L 503.809893 241.686153 
L 506.278953 235.81879 
L 506.918892 233.234224 
L 507.967662 227.657763 
L 511.785694 206.681289 
L 514.086886 195.989922 
L 515.867349 187.646378 
L 517.526851 180.875207 
L 520.231167 170.68945 
L 522.165931 164.196331 
L 524.546912 156.996985 
L 527.054178 150.163379 
L 528.918132 145.721255 
L 529.297973 145.352785 
L 529.680101 146.16759 
L 530.064337 148.012079 
L 531.615216 159.195917 
L 535.09439 184.453633 
L 536.968792 196.954158 
L 538.420582 205.15262 
L 539.478754 210.057555 
L 540.510084 213.85406 
L 541.514943 216.722573 
L 542.170634 218.018767 
L 542.815472 218.819587 
L 543.133992 219.475592 
L 543.76341 221.78787 
L 545.588942 229.909794 
L 546.464418 234.241145 
L 547.034263 235.988702 
L 547.315319 236.350287 
L 547.593906 236.479472 
L 548.143773 236.352799 
L 548.683988 236.206622 
L 549.993145 236.355913 
L 550.50077 236.162387 
L 550.751324 235.841869 
L 551.246222 234.658598 
L 552.213359 231.296543 
L 553.852272 225.003165 
L 555.462584 218.45822 
L 555.693197 218.54873 
L 555.924221 219.183288 
L 556.387245 221.839935 
L 557.773196 234.018661 
L 559.577629 249.062263 
L 560.017611 250.214052 
L 560.453057 250.493551 
L 560.884383 250.390002 
L 561.524426 250.234329 
L 562.781786 250.279434 
L 563.194737 250.125634 
L 563.60499 249.468895 
L 564.01291 248.328003 
L 564.823544 245.069538 
L 565.831352 240.054058 
L 567.442987 230.046894 
L 571.251246 205.509659 
L 573.407227 193.43626 
L 575.273237 184.489127 
L 577.001269 177.259098 
L 578.215241 172.514262 
L 578.526181 171.782563 
L 578.840017 172.91382 
L 579.795563 181.53591 
L 581.40941 194.64742 
L 583.334674 207.945888 
L 584.901492 218.694961 
L 587.582372 237.709966 
L 588.975472 246.505509 
L 589.774733 250.034189 
L 590.292177 251.241679 
L 590.797729 251.788969 
L 591.535142 252.06625 
L 594.498082 252.788346 
L 594.927412 252.476205 
L 595.13976 252.078863 
L 595.559722 250.596368 
L 596.380979 246.248379 
L 599.518808 228.515677 
L 600.908364 221.01366 
L 603.212643 209.3353 
L 606.848594 189.507287 
L 607.388712 187.329175 
L 607.941778 186.043483 
L 608.223065 185.941187 
L 609.376257 186.31189 
L 610.266043 186.599568 
L 610.566612 186.406351 
L 611.479011 184.863249 
L 613.347457 181.687304 
L 614.299913 179.941547 
L 614.940269 178.401692 
L 616.232838 174.500639 
L 619.205152 165.348603 
L 621.245565 159.794283 
L 624.075428 152.669669 
L 624.439756 153.693046 
L 625.544331 161.829625 
L 628.877459 185.461615 
L 629.243405 187.53382 
L 629.607734 188.889518 
L 629.970389 189.345008 
L 630.690799 189.564566 
L 631.405104 189.583916 
L 632.466212 190.190757 
L 632.817328 189.897578 
L 633.516164 187.951625 
L 639.420055 168.415227 
L 642.980378 158.071918 
L 645.569869 151.158754 
L 648.251591 144.552621 
L 651.433107 137.350891 
L 654.73971 130.48368 
L 657.734317 124.764059 
L 662.171826 116.971567 
L 665.852441 110.961901 
L 669.644497 105.185258 
L 673.544432 99.619888 
L 678.056316 93.596439 
L 679.28 92.031649 
L 679.28 92.031649 
" clip-path="url(#pbc1fdcbcbd)" style="fill: none; stroke-dasharray: 3.33,1.44; stroke-dashoffset: 0; stroke: #000000; stroke-width: 0.9"/>
   </g>
   <g id="line2d_26">
    <path d="M 80.88 105.18952 
L 86.093394 98.526915 
L 90.909369 92.707565 
L 95.839089 87.072328 
L 100.878862 81.623478 
L 106.603228 75.782562 
L 112.454076 70.15704 
L 118.426771 64.73637 
L 124.516908 59.510096 
L 130.720309 54.468278 
L 137.670142 49.124264 
L 140.229132 47.274376 
L 140.8712 47.009553 
L 141.513665 46.909926 
L 142.156183 46.959842 
L 142.798434 47.151295 
L 143.440114 47.475667 
L 144.720641 48.492267 
L 145.995678 49.955161 
L 147.263365 51.816471 
L 148.522036 54.034282 
L 150.389923 57.949988 
L 152.229806 62.479108 
L 154.03793 67.532397 
L 156.393867 74.957565 
L 158.681293 83.035737 
L 160.894985 91.648562 
L 163.551962 103.022169 
L 166.080382 114.931984 
L 168.475016 127.260189 
L 171.166563 142.395134 
L 174.444268 162.335487 
L 177.383745 180.205822 
L 179.074891 189.207243 
L 180.98635 198.185435 
L 182.200065 203.073418 
L 183.376508 206.475879 
L 184.802422 209.931523 
L 186.179005 213.091645 
L 186.981099 215.66032 
L 188.530801 221.772171 
L 189.772027 226.501409 
L 192.361275 234.85122 
L 194.73674 243.942451 
L 196.148738 248.474431 
L 198.241802 254.063011 
L 198.788113 255.076654 
L 199.148059 255.458825 
L 199.505698 255.58366 
L 199.862056 255.459287 
L 200.218178 255.09625 
L 200.754377 254.143831 
L 201.845475 251.594721 
L 202.786592 248.991244 
L 203.570326 246.119579 
L 204.181533 243.097498 
L 205.260429 236.134638 
L 207.417872 222.500277 
L 209.565919 210.37709 
L 210.718812 204.74144 
L 211.311911 202.834305 
L 211.911603 201.731117 
L 212.514674 201.283006 
L 212.816634 201.26911 
L 213.419971 201.602503 
L 214.02092 202.334072 
L 214.914554 203.999254 
L 215.795299 206.194749 
L 217.791233 211.386073 
L 219.172772 214.332898 
L 220.256926 216.276677 
L 221.060697 217.241244 
L 221.593843 217.580136 
L 222.12588 217.695944 
L 222.657464 217.614079 
L 223.454874 217.177279 
L 224.253417 216.390643 
L 225.863449 214.217858 
L 226.680806 212.886501 
L 227.510839 211.051106 
L 228.357465 208.410196 
L 229.521199 203.486427 
L 231.667725 194.712698 
L 232.954699 189.981673 
L 233.612693 188.121841 
L 234.277775 186.764322 
L 234.947814 185.863754 
L 235.620921 185.361476 
L 236.295443 185.208825 
L 236.969903 185.368247 
L 240.320654 187.108637 
L 242.311585 188.125361 
L 243.302409 188.319497 
L 243.962464 188.240273 
L 244.62289 187.992507 
L 245.615464 187.32857 
L 246.61188 186.375547 
L 247.949683 184.724703 
L 249.645889 182.103505 
L 250.681488 180.093931 
L 252.089105 176.675482 
L 254.632216 170.408409 
L 255.752262 168.022455 
L 256.506129 167.056254 
L 257.262586 166.62674 
L 258.019621 166.619397 
L 259.910288 166.868661 
L 263.689951 166.832623 
L 264.82463 166.630735 
L 265.960873 166.249798 
L 267.099621 165.673108 
L 268.62285 164.658718 
L 270.922343 162.804514 
L 272.471522 161.278423 
L 274.037552 159.399569 
L 275.620849 157.143799 
L 277.225054 154.764093 
L 277.629114 154.451342 
L 278.033681 154.326142 
L 278.438366 154.342521 
L 279.246907 154.729923 
L 280.052748 155.464411 
L 283.239346 158.775813 
L 284.029519 159.251286 
L 285.212374 159.635767 
L 291.877747 161.076891 
L 293.821459 161.29168 
L 298.858165 161.430467 
L 299.630594 161.815435 
L 300.784628 162.889327 
L 303.069105 165.382639 
L 304.198362 166.860609 
L 305.688772 169.299014 
L 309.672874 176.480186 
L 311.433759 178.964921 
L 312.131647 179.708587 
L 312.827093 180.205739 
L 313.52104 180.43991 
L 314.214488 180.412989 
L 314.908287 180.152752 
L 315.951206 179.458966 
L 317.348714 178.215713 
L 318.405876 176.99385 
L 319.474996 175.330006 
L 320.559149 173.111813 
L 321.658809 170.818918 
L 322.398698 169.991862 
L 323.141338 169.621101 
L 323.885308 169.483235 
L 324.629428 169.586778 
L 325.37252 169.952086 
L 326.113396 170.605241 
L 326.850808 171.543643 
L 327.94805 173.360089 
L 329.390523 176.289019 
L 330.805685 179.629348 
L 333.203307 185.881308 
L 334.861654 189.342399 
L 336.162095 191.630843 
L 337.442961 193.482083 
L 338.393316 194.479365 
L 339.337439 195.078736 
L 339.964452 195.254336 
L 340.590337 195.254403 
L 341.215821 195.088521 
L 341.841762 194.756112 
L 342.783513 193.99348 
L 343.730849 192.983513 
L 344.686505 191.657474 
L 345.654396 189.914666 
L 346.638577 187.549724 
L 347.982999 183.272993 
L 350.432218 175.653887 
L 353.375163 167.187583 
L 356.070436 160.081865 
L 358.466518 154.254324 
L 359.280996 152.989978 
L 359.68988 152.654536 
L 360.099321 152.483003 
L 360.508972 152.461165 
L 360.918517 152.57861 
L 361.736111 153.198795 
L 362.549922 154.283771 
L 363.358022 155.779029 
L 364.555775 158.696017 
L 365.731844 162.309495 
L 366.882039 166.49439 
L 368.369642 172.74827 
L 370.492514 182.869493 
L 373.430254 196.995851 
L 378.830152 220.82082 
L 383.710908 240.48067 
L 384.733011 243.677926 
L 385.720484 246.049615 
L 386.493899 247.338 
L 387.068155 247.892495 
L 387.449634 248.035552 
L 387.831101 247.972731 
L 388.213603 247.690733 
L 388.791671 246.852071 
L 389.37802 245.555656 
L 390.178267 243.1933 
L 391.431633 238.617607 
L 392.990891 232.087221 
L 394.180717 226.207202 
L 397.638276 208.301194 
L 399.715076 199.04315 
L 401.931776 190.224097 
L 404.28129 181.850692 
L 406.395607 175.102272 
L 407.1188 173.495748 
L 407.847487 172.608894 
L 408.212926 172.413854 
L 408.578625 172.371849 
L 408.944256 172.472642 
L 409.674134 173.058807 
L 410.400385 174.107993 
L 411.121077 175.568875 
L 412.188053 178.412489 
L 413.233989 181.901198 
L 414.589526 187.270687 
L 417.762782 201.23373 
L 420.361166 213.434145 
L 421.698592 220.801699 
L 423.195405 229.27943 
L 426.105626 242.913847 
L 427.318436 247.867696 
L 429.193726 254.2466 
L 430.409578 257.94922 
L 431.243409 259.850496 
L 432.05938 261.166344 
L 432.703452 261.803828 
L 433.184346 261.940749 
L 433.505458 261.827453 
L 433.990056 261.35457 
L 434.64544 260.316956 
L 435.826855 257.930765 
L 437.780731 253.383241 
L 438.899943 250.233846 
L 440.067474 246.081642 
L 442.369366 237.072852 
L 443.503439 231.605308 
L 445.218452 221.630028 
L 447.098065 211.18341 
L 448.835008 202.718745 
L 450.680911 194.734942 
L 451.641883 191.35037 
L 452.292883 189.97359 
L 452.948352 189.307312 
L 453.276838 189.20724 
L 453.605391 189.245155 
L 454.261551 189.69216 
L 454.91475 190.576748 
L 455.563193 191.838304 
L 456.523632 194.321324 
L 457.465647 197.383957 
L 458.687326 202.125959 
L 460.151969 208.734857 
L 463.115342 222.714012 
L 464.605389 228.455642 
L 465.795056 232.323869 
L 466.72025 234.500043 
L 467.626626 236.083937 
L 468.295007 236.883644 
L 468.954987 237.331505 
L 469.391485 237.417795 
L 469.826324 237.328864 
L 470.477823 236.948303 
L 471.131093 236.32223 
L 472.008668 235.145539 
L 473.347506 232.898552 
L 474.26029 230.992535 
L 474.959872 229.093024 
L 475.677011 226.519543 
L 476.417522 223.02831 
L 480.276828 202.694316 
L 482.123213 194.653321 
L 484.073008 187.087425 
L 486.120254 179.930617 
L 486.823253 177.805124 
L 487.533838 176.522802 
L 487.890827 176.159179 
L 488.248438 175.956835 
L 488.606328 175.905322 
L 488.964173 175.996321 
L 489.678536 176.566515 
L 490.38934 177.599841 
L 491.094656 179.045544 
L 492.138668 181.875734 
L 493.161687 185.36528 
L 494.486531 190.768708 
L 496.378882 199.675407 
L 500.60454 220.194378 
L 502.616851 228.235849 
L 503.574732 231.260529 
L 505.626502 237.011294 
L 506.493493 238.851947 
L 507.130045 239.694886 
L 507.759072 240.041489 
L 508.175903 240.052283 
L 508.591859 239.866047 
L 509.216501 239.254843 
L 510.268659 237.739788 
L 511.785694 235.204766 
L 512.456494 233.651395 
L 513.141814 231.385243 
L 513.846335 228.095845 
L 517.241998 209.176678 
L 518.998779 200.866307 
L 520.864854 193.017795 
L 522.832895 185.628205 
L 525.250736 177.452479 
L 527.792636 169.693839 
L 529.680101 164.43586 
L 530.450356 162.82471 
L 531.226177 161.916684 
L 531.615216 161.711762 
L 532.004534 161.660689 
L 532.393804 161.75194 
L 533.171017 162.320482 
L 533.944678 163.355097 
L 534.712874 164.795637 
L 535.851291 167.599793 
L 536.968792 171.036614 
L 538.776279 177.573588 
L 545.883619 205.283326 
L 547.315319 211.247826 
L 550.751324 223.965006 
L 551.974171 227.827305 
L 552.687255 229.540535 
L 553.388983 230.680504 
L 553.852272 231.13387 
L 554.31313 231.358582 
L 554.772736 231.377667 
L 555.232371 231.177136 
L 556.155605 230.506176 
L 556.618992 230.489621 
L 557.082089 230.832807 
L 557.54349 231.496965 
L 558.457217 233.408968 
L 559.355805 235.672452 
L 560.66921 239.361552 
L 561.73604 241.767984 
L 563.194737 244.449891 
L 564.01291 245.641523 
L 564.621392 246.236047 
L 565.227148 246.512482 
L 565.831352 246.477146 
L 566.434824 246.114286 
L 567.038851 245.394063 
L 567.849287 243.902658 
L 569.50701 240.368582 
L 570.364909 238.030902 
L 571.02651 235.660313 
L 571.708232 232.491796 
L 573.15428 223.950201 
L 575.273237 211.867454 
L 577.001269 203.240927 
L 578.840017 195.218928 
L 579.475176 193.244399 
L 580.117228 192.093765 
L 580.762874 191.613699 
L 581.086177 191.586033 
L 581.732323 191.876729 
L 582.376289 192.566066 
L 583.016452 193.59243 
L 583.966657 195.644318 
L 584.901492 198.232135 
L 586.118201 202.432753 
L 587.582372 208.569984 
L 589.244994 216.776395 
L 591.775749 229.684593 
L 593.171567 235.619766 
L 594.498082 240.337567 
L 596.177909 245.264202 
L 596.783064 246.462395 
L 597.377338 247.169981 
L 597.768909 247.369421 
L 598.158199 247.351192 
L 598.740393 247.027111 
L 599.323581 246.38416 
L 600.108678 245.123528 
L 601.31492 242.736911 
L 602.14284 240.651913 
L 602.779025 238.515656 
L 603.432955 235.655146 
L 604.343092 230.560816 
L 606.321334 219.338088 
L 608.50733 208.468705 
L 609.376257 205.142482 
L 610.266043 202.399755 
L 611.786557 198.58431 
L 613.347457 195.265492 
L 614.940269 192.474677 
L 617.872645 187.490697 
L 620.218126 183.186017 
L 621.591678 180.280682 
L 622.642292 177.603109 
L 624.806277 171.309188 
L 625.544331 170.109831 
L 625.91504 169.768514 
L 626.286374 169.578396 
L 626.657992 169.530732 
L 627.029575 169.618937 
L 627.77149 170.175293 
L 628.510029 171.171239 
L 629.607734 173.276924 
L 631.405104 176.798584 
L 633.167267 179.691525 
L 633.864175 180.50818 
L 634.558173 181.036497 
L 635.2505 181.289307 
L 635.942328 181.285747 
L 636.634774 181.053579 
L 637.67632 180.408589 
L 639.770427 178.74361 
L 640.474151 177.975581 
L 641.182808 176.954574 
L 642.256604 174.894413 
L 647.47574 163.186611 
L 652.658475 151.674559 
L 656.439459 143.796749 
L 659.930003 136.992485 
L 663.538692 130.406262 
L 667.261631 124.05676 
L 671.58119 117.17221 
L 675.533741 111.266788 
L 679.28 105.991416 
L 679.28 105.991416 
" clip-path="url(#pbc1fdcbcbd)" style="fill: none; stroke: #1f77b4; stroke-width: 1.2; stroke-linecap: square"/>
   </g>
   <g id="patch_3">
    <path d="M 50.96 273.134118 
L 50.96 26.88 
" style="fill: none; stroke: #000000; stroke-width: 0.8; stroke-linejoin: miter; stroke-linecap: square"/>
   </g>
   <g id="patch_4">
    <path d="M 709.2 273.134118 
L 709.2 26.88 
" style="fill: none; stroke: #000000; stroke-width: 0.8; stroke-linejoin: miter; stroke-linecap: square"/>
   </g>
   <g id="patch_5">
    <path d="M 50.96 273.134118 
L 709.2 273.134118 
" style="fill: none; stroke: #000000; stroke-width: 0.8; stroke-linejoin: miter; stroke-linecap: square"/>
   </g>
   <g id="patch_6">
    <path d="M 50.96 26.88 
L 709.2 26.88 
" style="fill: none; stroke: #000000; stroke-width: 0.8; stroke-linejoin: miter; stroke-linecap: square"/>
   </g>
   <g id="text_9">
    <!-- speed tracking and lateral offset over the lap -->
    <g transform="translate(244.124688 20.88) scale(0.12 -0.12)">
     <defs>
      <path id="DejaVuSans-74" d="M 1172 4494 
L 1172 3500 
L 2356 3500 
L 2356 3053 
L 1172 3053 
L 1172 1153 
Q 1172 725 1289 603 
Q 1406 481 1766 481 
L 2356 481 
L 2356 0 
L 1766 0 
Q 1100 0 847 248 
Q 594 497 594 1153 
L 594 3053 
L 172 3053 
L 172 3500 
L 594 3500 
L 594 4494 
L 1172 4494 
z
" transform="scale(0.015625)"/>
      <path id="DejaVuSans-72" d="M 2631 2963 
Q 2534 3019 2420 3045 
Q 2306 3072 2169 3072 
Q 1681 3072 1420 2755 
Q 1159 2438 1159 1844 
L 1159 0 
L 581 0 
L 581 3500 
L 1159 3500 
L 1159 2956 
Q 1341 3275 1631 3429 
Q 1922 3584 2338 3584 
Q 2397 3584 2469 3576 
Q 2541 3569 2628 3553 
L 2631 2963 
z
" transform="scale(0.015625)"/>
      <path id="DejaVuSans-61" d="M 2194 1759 
Q 1497 1759 1228 1600 
Q 959 1441 959 1056 
Q 959 750 1161 570 
Q 1363 391 1709 391 
Q 2188 391 2477 730 
Q 2766 1069 2766 1631 
L 2766 1759 
L 2194 1759 
z
M 3341 1997 
L 3341 0 
L 2766 0 
L 2766 531 
Q 2569 213 2275 61 
Q 1981 -91 1556 -91 
Q 1019 -91 701 211 
Q 384 513 384 1019 
Q 384 1609 779 1909 
Q 1175 2209 1959 2209 
L 2766 2209 
L 2766 2266 
Q 2766 2663 2505 2880 
Q 2244 3097 1772 3097 
Q 1472 3097 1187 3025 
Q 903 2953 641 2809 
L 641 3341 
Q 956 3463 1253 3523 
Q 1550 3584 1831 3584 
Q 2591 3584 2966 3190 
Q 3341 2797 3341 1997 
z
" transform="scale(0.015625)"/>
      <path id="DejaVuSans-63" d="M 3122 3366 
L 3122 2828 
Q 2878 2963 2633 3030 
Q 2388 3097 2138 3097 
Q 1578 3097 1268 2742 
Q 959 2388 959 1747 
Q 959 1106 1268 751 
Q 1578 397 2138 397 
Q 2388 397 2633 464 
Q 2878 531 3122 666 
L 3122 134 
Q 2881 22 2623 -34 
Q 2366 -91 2075 -91 
Q 1284 -91 818 406 
Q 353 903 353 1747 
Q 353 2603 823 3093 
Q 1294 3584 2113 3584 
Q 2378 3584 2631 3529 
Q 2884 3475 3122 3366 
z
" transform="scale(0.015625)"/>
      <path id="DejaVuSans-69" d="M 603 3500 
L 1178 3500 
L 1178 0 
L 603 0 
L 603 3500 
z
M 603 4863 
L 1178 4863 
L 1178 4134 
L 603 4134 
L 603 4863 
z
" transform="scale(0.015625)"/>
      <path id="DejaVuSans-6e" d="M 3513 2113 
L 3513 0 
L 2938 0 
L 2938 2094 
Q 2938 2591 2744 2837 
Q 2550 3084 2163 3084 
Q 1697 3084 1428 2787 
Q 1159 2491 1159 1978 
L 1159 0 
L 581 0 
L 581 3500 
L 1159 3500 
L 1159 2956 
Q 1366 3272 1645 3428 
Q 1925 3584 2291 3584 
Q 2894 3584 3203 3211 
Q 3513 2838 3513 2113 
z
" transform="scale(0.015625)"/>
      <path id="DejaVuSans-67" d="M 2906 1791 
Q 2906 2416 2648 2759 
Q 2391 3103 1925 3103 
Q 1463 3103 1205 2759 
Q 947 2416 947 1791 
Q 947 1169 1205 825 
Q 1463 481 1925 481 
Q 2391 481 2648 825 
Q 2906 1169 2906 1791 
z
M 3481 434 
Q 3481 -459 3084 -895 
Q 2688 -1331 1869 -1331 
Q 1566 -1331 1297 -1286 
Q 1028 -1241 775 -1147 
L 775 -588 
Q 1028 -725 1275 -790 
Q 1522 -856 1778 -856 
Q 2344 -856 2625 -561 
Q 2906 -266 2906 331 
L 2906 616 
Q 2728 306 2450 153 
Q 2172 0 1784 0 
Q 1141 0 747 490 
Q 353 981 353 1791 
Q 353 2603 747 3093 
Q 1141 3584 1784 3584 
Q 2172 3584 2450 3431 
Q 2728 3278 2906 2969 
L 2906 3500 
L 3481 3500 
L 3481 434 
z
" transform="scale(0.015625)"/>
      <path id="DejaVuSans-6c" d="M 603 4863 
L 1178 4863 
L 1178 0 
L 603 0 
L 603 4863 
z
" transform="scale(0.015625)"/>
      <path id="DejaVuSans-6f" d="M 1959 3097 
Q 1497 3097 1228 2736 
Q 959 2375 959 1747 
Q 959 1119 1226 758 
Q 1494 397 1959 397 
Q 2419 397 2687 759 
Q 2956 1122 2956 1747 
Q 2956 2369 2687 2733 
Q 2419 3097 1959 3097 
z
M 1959 3584 
Q 2709 3584 3137 3096 
Q 3566 2609 3566 1747 
Q 3566 888 3137 398 
Q 2709 -91 1959 -91 
Q 1206 -91 779 398 
Q 353 888 353 1747 
Q 353 2609 779 3096 
Q 1206 3584 1959 3584 
z
" transform="scale(0.015625)"/>
      <path id="DejaVuSans-66" d="M 2375 4863 
L 2375 4384 
L 1825 4384 
Q 1516 4384 1395 4259 
Q 1275 4134 1275 3809 
L 1275 3500 
L 2222 3500 
L 2222 3053 
L 1275 3053 
L 1275 0 
L 697 0 
L 697 3053 
L 147 3053 
L 147 3500 
L 697 3500 
L 697 3744 
Q 697 4328 969 4595 
Q 1241 4863 1831 4863 
L 2375 4863 
z
" transform="scale(0.015625)"/>
      <path id="DejaVuSans-76" d="M 191 3500 
L 800 3500 
L 1894 563 
L 2988 3500 
L 3597 3500 
L 2284 0 
L 1503 0 
L 191 3500 
z
" transform="scale(0.015625)"/>
     </defs>
     <use xlink:href="#DejaVuSans-73"/>
     <use xlink:href="#DejaVuSans-70" transform="translate(52.099609 0)"/>
     <use xlink:href="#DejaVuSans-65" transform="translate(115.576172 0)"/>
     <use xlink:href="#DejaVuSans-65" transform="translate(177.099609 0)"/>
     <use xlink:href="#DejaVuSans-64" transform="translate(238.623047 0)"/>
     <use xlink:href="#DejaVuSans-20" transform="translate(302.099609 0)"/>
     <use xlink:href="#DejaVuSans-74" transform="translate(333.886719 0)"/>
     <use xlink:href="#DejaVuSans-72" transform="translate(373.095703 0)"/>
     <use xlink:href="#DejaVuSans-61" transform="translate(414.208984 0)"/>
     <use xlink:href="#DejaVuSans-63" transform="translate(475.488281 0)"/>
     <use xlink:href="#DejaVuSans-6b" transform="translate(530.46875 0)"/>
     <use xlink:href="#DejaVuSans-69" transform="translate(588.378906 0)"/>
     <use xlink:href="#DejaVuSans-6e" transform="translate(616.162109 0)"/>
     <use xlink:href="#DejaVuSans-67" transform="translate(679.541016 0)"/>
     <use xlink:href="#DejaVuSans-20" transform="translate(743.017578 0)"/>
     <use xlink:href="#DejaVuSans-61" transform="translate(774.804688 0)"/>
     <use xlink:href="#DejaVuSans-6e" transform="translate(836.083984 0)"/>
     <use xlink:href="#DejaVuSans-64" transform="translate(899.462891 0)"/>
     <use xlink:href="#DejaVuSans-20" transform="translate(962.939453 0)"/>
     <use xlink:href="#DejaVuSans-6c" transform="translate(994.726562 0)"/>
     <use xlink:href="#DejaVuSans-61" transform="translate(1022.509766 0)"/>
     <use xlink:href="#DejaVuSans-74" transform="translate(1083.789062 0)"/>
     <use xlink:href="#DejaVuSans-65" transform="translate(1122.998047 0)"/>
     <use xlink:href="#DejaVuSans-72" transform="translate(1184.521484 0)"/>
     <use xlink:href="#DejaVuSans-61" transform="translate(1225.634766 0)"/>
     <use xlink:href="#DejaVuSans-6c" transform="translate(1286.914062 0)"/>
     <use xlink:href="#DejaVuSans-20" transform="translate(1314.697266 0)"/>
     <use xlink:href="#DejaVuSans-6f" transform="translate(1346.484375 0)"/>
     <use xlink:href="#DejaVuSans-66" transform="translate(1407.666016 0)"/>
     <use xlink:href="#DejaVuSans-66" transform="translate(1442.871094 0)"/>
     <use xlink:href="#DejaVuSans-73" transform="translate(1478.076172 0)"/>
     <use xlink:href="#DejaVuSans-65" transform="translate(1530.175781 0)"/>
     <use xlink:href="#DejaVuSans-74" transform="translate(1591.699219 0)"/>
     <use xlink:href="#DejaVuSans-20" transform="translate(1630.908203 0)"/>
     <use xlink:href="#DejaVuSans-6f" transform="translate(1662.695312 0)"/>
     <use xlink:href="#DejaVuSans-76" transform="translate(1723.876953 0)"/>
     <use xlink:href="#DejaVuSans-65" transform="translate(1783.056641 0)"/>
     <use xlink:href="#DejaVuSans-72" transform="translate(1844.580078 0)"/>
     <use xlink:href="#DejaVuSans-20" transform="translate(1885.693359 0)"/>
     <use xlink:href="#DejaVuSans-74" transform="translate(1917.480469 0)"/>
     <use xlink:href="#DejaVuSans-68" transform="translate(1956.689453 0)"/>
     <use xlink:href="#DejaVuSans-65" transform="translate(2020.068359 0)"/>
     <use xlink:href="#DejaVuSans-20" transform="translate(2081.591797 0)"/>
     <use xlink:href="#DejaVuSans-6c" transform="translate(2113.378906 0)"/>
     <use xlink:href="#DejaVuSans-61" transform="translate(2141.162109 0)"/>
     <use xlink:href="#DejaVuSans-70" transform="translate(2202.441406 0)"/>
    </g>
   </g>
   <g id="legend_1">
    <g id="patch_7">
     <path d="M 528.02375 269.134118 
L 703.6 269.134118 
Q 705.2 269.134118 705.2 267.534118 
L 705.2 244.849118 
Q 705.2 243.249118 703.6 243.249118 
L 528.02375 243.249118 
Q 526.42375 243.249118 526.42375 244.849118 
L 526.42375 267.534118 
Q 526.42375 269.134118 528.02375 269.134118 
z
" style="fill: #ffffff; opacity: 0.8; stroke: #cccccc; stroke-linejoin: miter"/>
    </g>
    <g id="line2d_27">
     <path d="M 529.62375 249.727868 
L 537.62375 249.727868 
L 545.62375 249.727868 
" style="fill: none; stroke-dasharray: 3.33,1.44; stroke-dashoffset: 0; stroke: #000000; stroke-width: 0.9"/>
    </g>
    <g id="text_10">
     <!-- minimum-time reference (previewed) -->
     <g transform="translate(552.02375 252.527868) scale(0.08 -0.08)">
      <defs>
       <path id="DejaVuSans-75" d="M 544 1381 
L 544 3500 
L 1119 3500 
L 1119 1403 
Q 1119 906 1312 657 
Q 1506 409 1894 409 
Q 2359 409 2629 706 
Q 2900 1003 2900 1516 
L 2900 3500 
L 3475 3500 
L 3475 0 
L 2900 0 
L 2900 538 
Q 2691 219 2414 64 
Q 2138 -91 1772 -91 
Q 1169 -91 856 284 
Q 544 659 544 1381 
z
M 1991 3584 
L 1991 3584 
z
" transform="scale(0.015625)"/>
       <path id="DejaVuSans-2d" d="M 313 2009 
L 1997 2009 
L 1997 1497 
L 313 1497 
L 313 2009 
z
" transform="scale(0.015625)"/>
       <path id="DejaVuSans-28" d="M 1984 4856 
Q 1566 4138 1362 3434 
Q 1159 2731 1159 2009 
Q 1159 1288 1364 580 
Q 1569 -128 1984 -844 
L 1484 -844 
Q 1016 -109 783 600 
Q 550 1309 550 2009 
Q 550 2706 781 3412 
Q 1013 4119 1484 4856 
L 1984 4856 
z
" transform="scale(0.015625)"/>
       <path id="DejaVuSans-77" d="M 269 3500 
L 844 3500 
L 1563 769 
L 2278 3500 
L 2956 3500 
L 3675 769 
L 4391 3500 
L 4966 3500 
L 4050 0 
L 3372 0 
L 2619 2869 
L 1863 0 
L 1184 0 
L 269 3500 
z
" transform="scale(0.015625)"/>
       <path id="DejaVuSans-29" d="M 513 4856 
L 1013 4856 
Q 1481 4119 1714 3412 
Q 1947 2706 1947 2009 
Q 1947 1309 1714 600 
Q 1481 -109 1013 -844 
L 513 -844 
Q 928 -128 1133 580 
Q 1338 1288 1338 2009 
Q 1338 2731 1133 3434 
Q 928 4138 513 4856 
z
" transform="scale(0.015625)"/>
      </defs>
      <use xlink:href="#DejaVuSans-6d"/>
      <use xlink:href="#DejaVuSans-69" transform="translate(97.412109 0)"/>
      <use xlink:href="#DejaVuSans-6e" transform="translate(125.195312 0)"/>
      <use xlink:href="#DejaVuSans-69" transform="translate(188.574219 0)"/>
      <use xlink:href="#DejaVuSans-6d" transform="translate(216.357422 0)"/>
      <use xlink:href="#DejaVuSans-75" transform="translate(313.769531 0)"/>
      <use xlink:href="#DejaVuSans-6d" transform="translate(377.148438 0)"/>
      <use xlink:href="#DejaVuSans-2d" transform="translate(474.560547 0)"/>
      <use xlink:href="#DejaVuSans-74" transform="translate(510.644531 0)"/>
      <use xlink:href="#DejaVuSans-69" transform="translate(549.853516 0)"/>
      <use xlink:href="#DejaVuSans-6d" transform="translate(577.636719 0)"/>
      <use xlink:href="#DejaVuSans-65" transform="translate(675.048828 0)"/>
      <use xlink:href="#DejaVuSans-20" transform="translate(736.572266 0)"/>
      <use xlink:href="#DejaVuSans-72" transform="translate(768.359375 0)"/>
      <use xlink:href="#DejaVuSans-65" transform="translate(807.222656 0)"/>
      <use xlink:href="#DejaVuSans-66" transform="translate(868.746094 0)"/>
      <use xlink:href="#DejaVuSans-65" transform="translate(903.951172 0)"/>
      <use xlink:href="#DejaVuSans-72" transform="translate(965.474609 0)"/>
      <use xlink:href="#DejaVuSans-65" transform="translate(1004.337891 0)"/>
      <use xlink:href="#DejaVuSans-6e" transform="translate(1065.861328 0)"/>
      <use xlink:href="#DejaVuSans-63" transform="translate(1129.240234 0)"/>
      <use xlink:href="#DejaVuSans-65" transform="translate(1184.220703 0)"/>
      <use xlink:href="#DejaVuSans-20" transform="translate(1245.744141 0)"/>
      <use xlink:href="#DejaVuSans-28" transform="translate(1277.53125 0)"/>
      <use xlink:href="#DejaVuSans-70" transform="translate(1316.544922 0)"/>
      <use xlink:href="#DejaVuSans-72" transform="translate(1380.021484 0)"/>
      <use xlink:href="#DejaVuSans-65" transform="translate(1418.884766 0)"/>
      <use xlink:href="#DejaVuSans-76" transform="translate(1480.408203 0)"/>
      <use xlink:href="#DejaVuSans-69" transform="translate(1539.587891 0)"/>
      <use xlink:href="#DejaVuSans-65" transform="translate(1567.371094 0)"/>
      <use xlink:href="#DejaVuSans-77" transform="translate(1628.894531 0)"/>
      <use xlink:href="#DejaVuSans-65" transform="translate(1710.681641 0)"/>
      <use xlink:href="#DejaVuSans-64" transform="translate(1772.205078 0)"/>
      <use xlink:href="#DejaVuSans-29" transform="translate(1835.681641 0)"/>
     </g>
    </g>
    <g id="line2d_28">
     <path d="M 529.62375 261.470368 
L 537.62375 261.470368 
L 545.62375 261.470368 
" style="fill: none; stroke: #1f77b4; stroke-width: 1.2; stroke-linecap: square"/>
    </g>
    <g id="text_11">
     <!-- vehicle -->
     <g transform="translate(552.02375 264.270368) scale(0.08 -0.08)">
      <use xlink:href="#DejaVuSans-76"/>
      <use xlink:href="#DejaVuSans-65" transform="translate(59.179688 0)"/>
      <use xlink:href="#DejaVuSans-68" transform="translate(120.703125 0)"/>
      <use xlink:href="#DejaVuSans-69" transform="translate(184.082031 0)"/>
      <use xlink:href="#DejaVuSans-63" transform="translate(211.865234 0)"/>
      <use xlink:href="#DejaVuSans-6c" transform="translate(266.845703 0)"/>
      <use xlink:href="#DejaVuSans-65" transform="translate(294.628906 0)"/>
     </g>
    </g>
   </g>
  </g>
  <g id="axes_2">
   <g id="patch_8">
    <path d="M 50.96 390.04 
L 709.2 390.04 
L 709.2 287.434118 
L 50.96 287.434118 
z
" style="fill: #ffffff"/>
   </g>
   <g id="matplotlib.axis_3">
    <g id="xtick_6">
     <g id="line2d_29">
      <path d="M 80.88 390.04 
L 80.88 287.434118 
" clip-path="url(#p3da89730d3)" style="fill: none; stroke: #b0b0b0; stroke-opacity: 0.3; stroke-width: 0.8; stroke-linecap: square"/>
     </g>
     <g id="line2d_30">
      <g>
       <use xlink:href="#m87b2f1e78e" x="80.88" y="390.04" style="stroke: #000000; stroke-width: 0.8"/>
      </g>
     </g>
     <g id="text_12">
      <!-- 0.0 -->
      <g transform="translate(72.928438 404.638438) scale(0.1 -0.1)">
       <defs>
        <path id="DejaVuSans-2e" d="M 684 794 
L 1344 794 
L 1344 0 
L 684 0 
L 684 794 
z
" transform="scale(0.015625)"/>
       </defs>
       <use xlink:href="#DejaVuSans-30"/>
       <use xlink:href="#DejaVuSans-2e" transform="translate(63.623047 0)"/>
       <use xlink:href="#DejaVuSans-30" transform="translate(95.410156 0)"/>
      </g>
     </g>
    </g>
    <g id="xtick_7">
     <g id="line2d_31">
      <path d="M 226.476107 390.04 
L 226.476107 287.434118 
" clip-path="url(#p3da89730d3)" style="fill: none; stroke: #b0b0b0; stroke-opacity: 0.3; stroke-width: 0.8; stroke-linecap: square"/>
     </g>
     <g id="line2d_32">
      <g>
       <use xlink:href="#m87b2f1e78e" x="226.476107" y="390.04" style="stroke: #000000; stroke-width: 0.8"/>
      </g>
     </g>
     <g id="text_13">
      <!-- 0.5 -->
      <g transform="translate(218.524545 404.638438) scale(0.1 -0.1)">
       <defs>
        <path id="DejaVuSans-35" d="M 691 4666 
L 3169 4666 
L 3169 4134 
L 1269 4134 
L 1269 2991 
Q 1406 3038 1543 3061 
Q 1681 3084 1819 3084 
Q 2600 3084 3056 2656 
Q 3513 2228 3513 1497 
Q 3513 744 3044 326 
Q 2575 -91 1722 -91 
Q 1428 -91 1123 -41 
Q 819 9 494 109 
L 494 744 
Q 775 591 1075 516 
Q 1375 441 1709 441 
Q 2250 441 2565 725 
Q 2881 1009 2881 1497 
Q 2881 1984 2565 2268 
Q 2250 2553 1709 2553 
Q 1456 2553 1204 2497 
Q 953 2441 691 2322 
L 691 4666 
z
" transform="scale(0.015625)"/>
       </defs>
       <use xlink:href="#DejaVuSans-30"/>
       <use xlink:href="#DejaVuSans-2e" transform="translate(63.623047 0)"/>
       <use xlink:href="#DejaVuSans-35" transform="translate(95.410156 0)"/>
      </g>
     </g>
    </g>
    <g id="xtick_8">
     <g id="line2d_33">
      <path d="M 372.072214 390.04 
L 372.072214 287.434118 
" clip-path="url(#p3da89730d3)" style="fill: none; stroke: #b0b0b0; stroke-opacity: 0.3; stroke-width: 0.8; stroke-linecap: square"/>
     </g>
     <g id="line2d_34">
      <g>
       <use xlink:href="#m87b2f1e78e" x="372.072214" y="390.04" style="stroke: #000000; stroke-width: 0.8"/>
      </g>
     </g>
     <g id="text_14">
      <!-- 1.0 -->
      <g transform="translate(364.120652 404.638438) scale(0.1 -0.1)">
       <use xlink:href="#DejaVuSans-31"/>
       <use xlink:href="#DejaVuSans-2e" transform="translate(63.623047 0)"/>
       <use xlink:href="#DejaVuSans-30" transform="translate(95.410156 0)"/>
      </g>
     </g>
    </g>
    <g id="xtick_9">
     <g id="line2d_35">
      <path d="M 517.668321 390.04 
L 517.668321 287.434118 
" clip-path="url(#p3da89730d3)" style="fill: none; stroke: #b0b0b0; stroke-opacity: 0.3; stroke-width: 0.8; stroke-linecap: square"/>
     </g>
     <g id="line2d_36">
      <g>
       <use xlink:href="#m87b2f1e78e" x="517.668321" y="390.04" style="stroke: #000000; stroke-width: 0.8"/>
      </g>
     </g>
     <g id="text_15">
      <!-- 1.5 -->
      <g transform="translate(509.716759 404.638438) scale(0.1 -0.1)">
       <use xlink:href="#DejaVuSans-31"/>
       <use xlink:href="#DejaVuSans-2e" transform="translate(63.623047 0)"/>
       <use xlink:href="#DejaVuSans-35" transform="translate(95.410156 0)"/>
      </g>
     </g>
    </g>
    <g id="xtick_10">
     <g id="line2d_37">
      <path d="M 663.264428 390.04 
L 663.264428 287.434118 
" clip-path="url(#p3da89730d3)" style="fill: none; stroke: #b0b0b0; stroke-opacity: 0.3; stroke-width: 0.8; stroke-linecap: square"/>
     </g>
     <g id="line2d_38">
      <g>
       <use xlink:href="#m87b2f1e78e" x="663.264428" y="390.04" style="stroke: #000000; stroke-width: 0.8"/>
      </g>
     </g>
     <g id="text_16">
      <!-- 2.0 -->
      <g transform="translate(655.312866 404.638438) scale(0.1 -0.1)">
       <use xlink:href="#DejaVuSans-32"/>
       <use xlink:href="#DejaVuSans-2e" transform="translate(63.623047 0)"/>
       <use xlink:href="#DejaVuSans-30" transform="translate(95.410156 0)"/>
      </g>
     </g>
    </g>
    <g id="text_17">
     <!-- distance s [km] -->
     <g transform="translate(341.443281 418.316563) scale(0.1 -0.1)">
      <use xlink:href="#DejaVuSans-64"/>
      <use xlink:href="#DejaVuSans-69" transform="translate(63.476562 0)"/>
      <use xlink:href="#DejaVuSans-73" transform="translate(91.259766 0)"/>
      <use xlink:href="#DejaVuSans-74" transform="translate(143.359375 0)"/>
      <use xlink:href="#DejaVuSans-61" transform="translate(182.568359 0)"/>
      <use xlink:href="#DejaVuSans-6e" transform="translate(243.847656 0)"/>
      <use xlink:href="#DejaVuSans-63" transform="translate(307.226562 0)"/>
      <use xlink:href="#DejaVuSans-65" transform="translate(362.207031 0)"/>
      <use xlink:href="#DejaVuSans-20" transform="translate(423.730469 0)"/>
      <use xlink:href="#DejaVuSans-73" transform="translate(455.517578 0)"/>
      <use xlink:href="#DejaVuSans-20" transform="translate(507.617188 0)"/>
      <use xlink:href="#DejaVuSans-5b" transform="translate(539.404297 0)"/>
      <use xlink:href="#DejaVuSans-6b" transform="translate(578.417969 0)"/>
      <use xlink:href="#DejaVuSans-6d" transform="translate(636.328125 0)"/>
      <use xlink:href="#DejaVuSans-5d" transform="translate(733.740234 0)"/>
     </g>
    </g>
   </g>
   <g id="matplotlib.axis_4">
    <g id="ytick_8">
     <g id="line2d_39">
      <path d="M 50.96 377.215866 
L 709.2 377.215866 
" clip-path="url(#p3da89730d3)" style="fill: none; stroke: #b0b0b0; stroke-opacity: 0.3; stroke-width: 0.8; stroke-linecap: square"/>
     </g>
     <g id="line2d_40">
      <g>
       <use xlink:href="#mf62fa4eafe" x="50.96" y="377.215866" style="stroke: #000000; stroke-width: 0.8"/>
      </g>
     </g>
     <g id="text_18">
      <!-- −1 -->
      <g transform="translate(29.217813 381.015085) scale(0.1 -0.1)">
       <defs>
        <path id="DejaVuSans-2212" d="M 678 2272 
L 4684 2272 
L 4684 1741 
L 678 1741 
L 678 2272 
z
" transform="scale(0.015625)"/>
       </defs>
       <use xlink:href="#DejaVuSans-2212"/>
       <use xlink:href="#DejaVuSans-31" transform="translate(83.789062 0)"/>
      </g>
     </g>
    </g>
    <g id="ytick_9">
     <g id="line2d_41">
      <path d="M 50.96 343.92623 
L 709.2 343.92623 
" clip-path="url(#p3da89730d3)" style="fill: none; stroke: #b0b0b0; stroke-opacity: 0.3; stroke-width: 0.8; stroke-linecap: square"/>
     </g>
     <g id="line2d_42">
      <g>
       <use xlink:href="#mf62fa4eafe" x="50.96" y="343.92623" style="stroke: #000000; stroke-width: 0.8"/>
      </g>
     </g>
     <g id="text_19">
      <!-- 0 -->
      <g transform="translate(37.5975 347.725448) scale(0.1 -0.1)">
       <use xlink:href="#DejaVuSans-30"/>
      </g>
     </g>
    </g>
    <g id="ytick_10">
     <g id="line2d_43">
      <path d="M 50.96 310.636593 
L 709.2 310.636593 
" clip-path="url(#p3da89730d3)" style="fill: none; stroke: #b0b0b0; stroke-opacity: 0.3; stroke-width: 0.8; stroke-linecap: square"/>
     </g>
     <g id="line2d_44">
      <g>
       <use xlink:href="#mf62fa4eafe" x="50.96" y="310.636593" style="stroke: #000000; stroke-width: 0.8"/>
      </g>
     </g>
     <g id="text_20">
      <!-- 1 -->
      <g transform="translate(37.5975 314.435812) scale(0.1 -0.1)">
       <use xlink:href="#DejaVuSans-31"/>
      </g>
     </g>
    </g>
    <g id="text_21">
     <!-- offset n [m] -->
     <g transform="translate(23.138125 368.076903) rotate(-90) scale(0.1 -0.1)">
      <use xlink:href="#DejaVuSans-6f"/>
      <use xlink:href="#DejaVuSans-66" transform="translate(61.181641 0)"/>
      <use xlink:href="#DejaVuSans-66" transform="translate(96.386719 0)"/>
      <use xlink:href="#DejaVuSans-73" transform="translate(131.591797 0)"/>
      <use xlink:href="#DejaVuSans-65" transform="translate(183.691406 0)"/>
      <use xlink:href="#DejaVuSans-74" transform="translate(245.214844 0)"/>
      <use xlink:href="#DejaVuSans-20" transform="translate(284.423828 0)"/>
      <use xlink:href="#DejaVuSans-6e" transform="translate(316.210938 0)"/>
      <use xlink:href="#DejaVuSans-20" transform="translate(379.589844 0)"/>
      <use xlink:href="#DejaVuSans-5b" transform="translate(411.376953 0)"/>
      <use xlink:href="#DejaVuSans-6d" transform="translate(450.390625 0)"/>
      <use xlink:href="#DejaVuSans-5d" transform="translate(547.802734 0)"/>
     </g>
    </g>
   </g>
   <g id="line2d_45">
    <path d="M 80.88 343.92623 
L 174.829459 343.967953 
L 175.9536 344.105062 
L 177.033116 344.464112 
L 178.072143 345.131715 
L 179.725175 346.424392 
L 180.362066 346.67012 
L 180.98635 346.59839 
L 181.59869 346.161184 
L 182.200065 345.339133 
L 182.792302 344.087942 
L 183.376508 342.298306 
L 183.952839 339.836964 
L 184.521229 336.579702 
L 185.358886 330.061754 
L 186.448435 319.164747 
L 187.764655 306.188706 
L 188.27726 302.492451 
L 188.782555 300.209202 
L 189.032534 299.695266 
L 189.280748 299.640236 
L 189.527226 300.064222 
L 189.772027 300.976665 
L 190.256985 304.228412 
L 190.972838 311.758944 
L 192.134157 324.186677 
L 192.809762 329.48849 
L 193.683647 334.408248 
L 194.529295 337.792727 
L 195.14718 339.449848 
L 195.752173 340.401672 
L 196.148738 340.670463 
L 196.540317 340.677005 
L 196.927033 340.43542 
L 197.308831 339.954917 
L 197.872238 338.809135 
L 198.424897 337.187814 
L 199.148059 334.290715 
L 199.862056 330.408405 
L 200.934174 322.894568 
L 202.030871 315.446578 
L 202.595313 313.198988 
L 202.786592 312.859182 
L 202.979621 312.770798 
L 203.174508 312.954799 
L 203.570326 314.17347 
L 204.181533 317.763657 
L 205.48646 325.90231 
L 206.424936 330.160184 
L 207.417872 333.459238 
L 208.198147 335.425052 
L 209.008806 337.012021 
L 209.849378 338.291272 
L 211.01431 339.616874 
L 212.212892 340.611622 
L 213.72085 341.536497 
L 216.945646 343.36131 
L 218.623978 344.723995 
L 219.716943 345.540604 
L 220.525558 345.827526 
L 221.060697 345.781393 
L 221.593843 345.467153 
L 222.12588 344.774247 
L 222.657464 343.563952 
L 223.189015 341.725442 
L 223.987 337.759375 
L 226.407119 323.451756 
L 226.955893 322.055523 
L 227.232522 321.858229 
L 227.510839 322.023008 
L 227.790991 322.553511 
L 228.357465 324.601545 
L 230.120349 332.863872 
L 230.730925 334.778534 
L 231.352699 336.112583 
L 231.985482 337.033413 
L 233.282671 338.401386 
L 236.969903 342.047702 
L 238.314769 343.346135 
L 238.984871 343.706335 
L 239.653538 343.715356 
L 240.320654 343.341358 
L 240.986042 342.641486 
L 242.311585 340.737607 
L 245.284262 336.183953 
L 245.947091 334.636138 
L 246.945178 331.537103 
L 248.963444 324.380228 
L 249.645889 322.842945 
L 249.989376 322.443596 
L 250.33453 322.341877 
L 250.681488 322.567067 
L 251.030373 323.135572 
L 251.734154 325.233657 
L 253.895216 333.538258 
L 255.003737 336.418269 
L 256.506129 339.983945 
L 258.019621 343.896373 
L 258.776188 345.165089 
L 259.154293 345.479323 
L 259.532318 345.562055 
L 259.910288 345.419995 
L 260.288219 345.08011 
L 261.044023 344.010708 
L 262.177843 342.417895 
L 262.555847 342.130271 
L 262.933867 342.019428 
L 263.311896 342.080983 
L 264.068066 342.635692 
L 264.82463 343.602541 
L 265.960873 345.527534 
L 267.099621 347.989862 
L 267.860479 350.087209 
L 269.004674 353.999001 
L 270.922343 361.025173 
L 271.694921 363.024672 
L 272.082695 363.645157 
L 272.471522 363.9621 
L 272.86143 363.952123 
L 273.252421 363.607284 
L 273.64447 362.938289 
L 274.431675 360.778327 
L 276.420139 354.146178 
L 277.225054 352.535163 
L 277.629114 352.097955 
L 278.033681 351.892511 
L 278.438366 351.893645 
L 278.842865 352.074669 
L 279.650261 352.880204 
L 280.454245 354.151527 
L 282.447267 357.884482 
L 282.843576 358.26147 
L 283.239346 358.36199 
L 283.634635 358.155637 
L 284.029519 357.647177 
L 284.818343 355.886163 
L 287.572956 348.348547 
L 288.750825 345.473079 
L 289.926047 341.866642 
L 291.098146 337.493237 
L 295.373273 320.52748 
L 296.535974 317.245865 
L 297.697576 314.785518 
L 298.858165 313.000624 
L 299.630594 312.191962 
L 300.400722 311.741894 
L 301.167671 311.715214 
L 301.931041 312.100954 
L 302.690705 312.822491 
L 303.822951 314.307188 
L 304.94596 316.15073 
L 305.688772 317.715255 
L 306.426223 319.640403 
L 307.521465 323.206095 
L 308.960881 328.011641 
L 309.672874 329.715889 
L 310.380372 330.760515 
L 311.083611 331.258172 
L 313.174191 331.985893 
L 314.908287 333.292615 
L 315.255553 333.329544 
L 315.603177 333.183371 
L 315.951206 332.825286 
L 316.299684 332.239552 
L 316.998313 330.447603 
L 318.405876 326.295798 
L 318.760724 325.625493 
L 319.117055 325.250672 
L 319.474996 325.229877 
L 319.834636 325.603534 
L 320.196016 326.380358 
L 320.924033 328.932982 
L 322.769777 336.378388 
L 323.513229 338.194552 
L 323.885308 338.756445 
L 324.257424 339.111243 
L 325.001175 339.356252 
L 327.94805 339.321405 
L 329.032308 339.717465 
L 329.74704 340.250254 
L 330.454711 341.101767 
L 331.154586 342.323347 
L 332.528372 345.47846 
L 333.53816 347.623437 
L 334.202985 348.662046 
L 334.861654 349.335365 
L 336.162095 350.12142 
L 337.124378 350.852794 
L 337.760583 351.612853 
L 338.708608 353.182854 
L 339.651131 355.224392 
L 340.590337 357.892387 
L 341.841762 362.416756 
L 343.414299 368.188473 
L 344.048313 369.975989 
L 344.686505 371.208057 
L 345.007553 371.551137 
L 345.330133 371.666916 
L 345.654396 371.519254 
L 345.980467 371.077761 
L 346.308475 370.323873 
L 346.970937 367.881697 
L 348.325427 360.813314 
L 349.367747 356.120811 
L 350.074973 353.954664 
L 350.791857 352.542525 
L 351.518256 351.662839 
L 353.75345 349.784998 
L 356.070436 347.82757 
L 357.258743 347.072875 
L 358.873059 346.351638 
L 360.918517 345.724249 
L 363.759389 345.091149 
L 366.882039 344.625302 
L 371.833002 344.018626 
L 372.80118 343.639193 
L 373.7401 343.003167 
L 375.826943 341.293534 
L 376.397813 341.152644 
L 376.957445 341.2845 
L 377.505738 341.738844 
L 378.043073 342.567029 
L 378.570281 343.8134 
L 379.342242 346.510931 
L 380.335253 351.345532 
L 382.199849 362.231927 
L 383.918691 371.748076 
L 384.93288 376.37607 
L 385.525159 378.368736 
L 386.108584 379.592111 
L 386.493899 379.920109 
L 386.877112 379.848759 
L 387.258958 379.405211 
L 387.831101 378.147296 
L 388.598229 375.677425 
L 390.178267 370.208485 
L 391.005978 368.111623 
L 392.761045 363.965544 
L 394.180717 359.492401 
L 395.187014 356.578724 
L 396.244957 354.155643 
L 397.638276 351.524526 
L 398.807457 349.691955 
L 400.023351 348.268736 
L 401.284577 347.235553 
L 402.589817 346.476377 
L 404.28129 345.772851 
L 406.395607 345.17586 
L 408.944256 344.723965 
L 412.539244 344.354468 
L 415.895918 344.213766 
L 417.152689 344.364542 
L 418.063324 344.706895 
L 418.947167 345.335278 
L 420.905673 347.110347 
L 421.437578 347.236492 
L 421.956214 347.068664 
L 422.461279 346.595225 
L 422.953614 345.823093 
L 423.670862 344.204622 
L 424.814167 340.832736 
L 426.312931 336.378342 
L 427.513794 332.989648 
L 428.277745 330.132528 
L 429.014008 326.346309 
L 430.06892 319.160543 
L 430.91247 313.89066 
L 431.40781 311.840385 
L 431.734733 311.103291 
L 432.05938 310.901623 
L 432.382115 311.213781 
L 432.703452 311.992012 
L 433.184346 313.885611 
L 433.990056 318.269642 
L 434.978197 323.55329 
L 435.655157 326.052984 
L 436.173217 327.28715 
L 436.70013 328.051001 
L 437.235906 328.446931 
L 437.780731 328.582195 
L 438.522151 328.48352 
L 439.283064 328.133958 
L 440.067474 327.53815 
L 441.718095 326.121551 
L 442.150073 326.174106 
L 442.591003 326.603796 
L 443.041786 327.466343 
L 443.738676 329.439656 
L 445.218452 333.854084 
L 446.272561 336.199073 
L 447.379708 338.040318 
L 448.537777 339.455152 
L 449.744736 340.513369 
L 450.998673 341.306336 
L 452.620251 342.032802 
L 454.588639 342.620515 
L 456.20534 342.886923 
L 457.465647 342.88361 
L 458.986017 342.615236 
L 460.716927 342.352371 
L 462.859359 342.170013 
L 464.116936 341.740575 
L 465.086355 341.430436 
L 465.560405 341.45223 
L 466.028261 341.701286 
L 466.490785 342.29374 
L 466.948549 343.351866 
L 467.401715 344.964942 
L 468.073234 348.502227 
L 468.954987 355.07123 
L 471.568699 377.039397 
L 472.229704 380.636993 
L 472.674161 382.302942 
L 473.122109 383.304916 
L 473.347506 383.539564 
L 473.573934 383.589101 
L 473.801471 383.448571 
L 474.26029 382.579658 
L 474.724965 380.907535 
L 475.435695 376.961317 
L 477.451263 363.842962 
L 478.263637 360.218353 
L 479.106936 357.320853 
L 480.276828 354.16532 
L 481.186676 352.267661 
L 482.123213 350.732616 
L 483.085581 349.503606 
L 484.407595 348.223794 
L 485.772504 347.242537 
L 487.177842 346.484287 
L 488.964173 345.783619 
L 491.094656 345.203431 
L 493.83008 344.706768 
L 496.071744 344.493444 
L 497.280382 344.591002 
L 498.152351 344.88998 
L 498.995615 345.466043 
L 501.375545 347.537931 
L 501.878432 347.552584 
L 502.372784 347.305175 
L 502.858962 346.75059 
L 503.337848 345.82732 
L 503.809893 344.453231 
L 504.504759 341.445627 
L 505.183237 337.317036 
L 506.063013 330.414992 
L 509.84539 298.125585 
L 510.481746 294.457485 
L 510.911222 292.823253 
L 511.345711 292.098021 
L 511.564997 292.153385 
L 511.785694 292.5265 
L 512.231401 294.31599 
L 512.683176 297.553395 
L 513.374152 304.665442 
L 514.578121 316.964856 
L 515.341203 322.306052 
L 516.135559 325.979736 
L 516.960408 328.567863 
L 518.106192 331.308491 
L 519.609059 334.423724 
L 520.546579 335.973591 
L 521.185957 336.750679 
L 521.836523 337.296891 
L 522.832895 337.779941 
L 523.853419 338.232367 
L 524.897544 338.973861 
L 527.792636 341.53837 
L 528.918132 342.042275 
L 532.393804 343.191187 
L 534.329568 344.088897 
L 535.09439 344.089021 
L 535.851291 343.70235 
L 536.598868 342.969097 
L 537.700397 341.722445 
L 538.420582 341.225143 
L 538.776279 341.147485 
L 539.129007 341.197374 
L 539.825513 341.670156 
L 540.847936 342.992835 
L 541.84418 344.289818 
L 542.494373 344.891713 
L 543.133992 345.26383 
L 544.074286 345.490007 
L 544.688216 345.445561 
L 545.291447 345.239691 
L 545.883619 344.862049 
L 546.464418 344.293357 
L 547.034263 343.511386 
L 547.870053 341.88279 
L 548.683988 339.685319 
L 549.735968 336.041032 
L 551.733321 328.666977 
L 553.156109 324.485676 
L 554.543009 320.308134 
L 556.618992 313.357283 
L 557.082089 312.367537 
L 557.54349 311.895814 
L 557.773196 311.902581 
L 558.002093 312.091724 
L 558.457217 313.054186 
L 558.908566 314.80732 
L 559.577629 318.707887 
L 561.524426 331.513146 
L 562.574216 336.374934 
L 563.400181 339.472309 
L 564.01291 341.13182 
L 564.418941 341.820315 
L 564.823544 342.122116 
L 565.025448 342.10947 
L 565.42868 341.71347 
L 565.831352 340.768971 
L 566.233687 339.235256 
L 566.837326 335.89853 
L 567.849287 328.590403 
L 568.87794 321.442176 
L 569.50701 318.445293 
L 569.932881 317.394819 
L 570.148071 317.221213 
L 570.364909 317.303923 
L 570.583505 317.649947 
L 571.02651 319.103615 
L 571.708232 322.647683 
L 572.904775 328.739431 
L 573.66361 331.549862 
L 574.723216 334.498062 
L 575.553221 336.267325 
L 576.412584 337.641091 
L 577.300233 338.610353 
L 578.215241 339.263846 
L 583.016452 342.052188 
L 583.966657 342.305836 
L 584.901492 342.36052 
L 585.817548 342.183049 
L 588.427204 341.367762 
L 588.975472 341.511133 
L 589.774733 341.993812 
L 591.292003 343.037997 
L 591.775749 343.131249 
L 592.249758 343.017443 
L 592.944177 342.561885 
L 593.842498 341.967049 
L 594.281132 341.944865 
L 594.713511 342.255201 
L 595.13976 342.985144 
L 595.559722 344.184291 
L 596.177909 346.895554 
L 596.783064 350.689037 
L 597.573492 357.310758 
L 600.108678 380.933845 
L 600.706819 384.112954 
L 601.111056 385.197928 
L 601.31492 385.376096 
L 601.519986 385.293941 
L 601.726292 384.943465 
L 602.14284 383.433486 
L 602.565256 380.912063 
L 603.432955 373.778542 
L 604.343092 366.512631 
L 605.05995 362.445897 
L 605.806943 359.775784 
L 606.583362 358.04572 
L 609.376257 353.193372 
L 610.266043 351.96944 
L 612.718731 349.106055 
L 613.347457 347.920874 
L 613.981286 346.360054 
L 614.940269 343.277558 
L 618.536516 330.174975 
L 619.879001 326.375904 
L 620.558868 324.914812 
L 620.901323 324.414182 
L 621.245565 324.121455 
L 621.591678 324.06878 
L 621.939766 324.282365 
L 622.289935 324.780374 
L 622.996948 326.623414 
L 624.075428 330.768739 
L 625.174611 334.670463 
L 625.91504 336.407611 
L 626.657992 337.37168 
L 627.400831 337.77356 
L 628.877459 338.194867 
L 629.970389 338.82643 
L 631.405104 339.795209 
L 632.466212 340.234265 
L 633.864175 340.730354 
L 634.558173 341.235942 
L 635.2505 342.013468 
L 636.288409 343.355984 
L 636.634774 343.643161 
L 636.981522 343.728161 
L 637.328702 343.558239 
L 637.67632 343.103484 
L 638.024342 342.344919 
L 638.721404 339.924981 
L 640.121749 333.756458 
L 640.474151 332.720995 
L 640.827798 332.071469 
L 641.182808 331.855374 
L 641.539242 332.085839 
L 641.897151 332.728098 
L 642.617661 334.930293 
L 644.079121 340.104736 
L 644.820781 341.734211 
L 645.194392 342.20277 
L 645.569869 342.459866 
L 645.947226 342.541569 
L 646.70764 342.370967 
L 647.862693 341.967101 
L 648.642436 341.907311 
L 649.429982 342.048096 
L 653.070836 343.144995 
L 655.161766 343.325002 
L 660.821247 343.71574 
L 664.92165 344.077439 
L 665.852441 343.801811 
L 668.686245 342.511601 
L 669.644497 342.490469 
L 670.609497 342.761082 
L 673.544432 343.918338 
L 674.535859 344.052825 
L 676.035085 344.009017 
L 679.28 343.746952 
L 679.28 343.746952 
" clip-path="url(#p3da89730d3)" style="fill: none; stroke: #d62728; stroke-linecap: square"/>
   </g>
   <g id="line2d_46">
    <path d="M 50.96 343.92623 
L 709.2 343.92623 
" clip-path="url(#p3da89730d3)" style="fill: none; stroke: #000000; stroke-width: 0.6; stroke-linecap: square"/>
   </g>
   <g id="patch_9">
    <path d="M 50.96 390.04 
L 50.96 287.434118 
" style="fill: none; stroke: #000000; stroke-width: 0.8; stroke-linejoin: miter; stroke-linecap: square"/>
   </g>
   <g id="patch_10">
    <path d="M 709.2 390.04 
L 709.2 287.434118 
" style="fill: none; stroke: #000000; stroke-width: 0.8; stroke-linejoin: miter; stroke-linecap: square"/>
   </g>
   <g id="patch_11">
    <path d="M 50.96 390.04 
L 709.2 390.04 
" style="fill: none; stroke: #000000; stroke-width: 0.8; stroke-linejoin: miter; stroke-linecap: square"/>
   </g>
   <g id="patch_12">
    <path d="M 50.96 287.434118 
L 709.2 287.434118 
" style="fill: none; stroke: #000000; stroke-width: 0.8; stroke-linejoin: miter; stroke-linecap: square"/>
   </g>
  </g>
 </g>
 <defs>
  <clipPath id="pbc1fdcbcbd">
   <rect x="50.96" y="26.88" width="658.24" height="246.254118"/>
  </clipPath>
  <clipPath id="p3da89730d3">
   <rect x="50.96" y="287.434118" width="658.24" height="102.605882"/>
  </clipPath>
 </defs>
</svg>
