<?xml version="1.0" encoding="utf-8" standalone="no"?>
<!DOCTYPE svg PUBLIC "-//W3C//DTD SVG 1.1//EN"
  "http://www.w3.org/Graphics/SVG/1.1/DTD/svg11.dtd">
<svg xmlns:xlink="http://www.w3.org/1999/xlink" width="720pt" height="288pt" viewBox="0 0 720 288" xmlns="http://www.w3.org/2000/svg" version="1.1">
 <metadata>
  <rdf:RDF xmlns:dc="http://purl.org/dc/elements/1.1/" xmlns:cc="http://creativecommons.org/ns#" xmlns:rdf="http://www.w3.org/1999/02/22-rdf-syntax-ns#">
   <cc:Work>
    <dc:type rdf:resource="http://purl.org/dc/dcmitype/StillImage"/>
    <dc:date>2026-07-07T18:39:18.867634</dc:date>
    <dc:format>image/svg+xml</dc:format>
    <dc:creator>
     <cc:Agent>
      <dc:title>Matplotlib v3.10.8, https://matplotlib.org/</dc:title>
     </cc:Agent>
    </dc:creator>
   </cc:Work>
  </rdf:RDF>
 </metadata>
 <defs>
  <style type="text/css">*{stroke-linejoin: round; stroke-linecap: butt}</style>
 </defs>
 <g id="figure_1">
  <g id="patch_1">
   <path d="M 0 288 
L 720 288 
L 720 0 
L 0 0 
z
" style="fill: #ffffff"/>
  </g>
  <g id="axes_1">
   <g id="patch_2">
    <path d="M 56.09 246.04 
L 709.2 246.04 
L 709.2 26.88 
L 56.09 26.88 
z
" style="fill: #ffffff"/>
   </g>
   <g id="matplotlib.axis_1">
    <g id="xtick_1">
     <g id="line2d_1">
      <path d="M 85.776818 246.04 
L 85.776818 26.88 
" clip-path="url(#pd6446fac52)" style="fill: none; stroke: #b0b0b0; stroke-opacity: 0.3; stroke-width: 0.8; stroke-linecap: square"/>
     </g>
     <g id="line2d_2">
      <defs>
       <path id="mceadbab52b" d="M 0 0 
L 0 3.5 
" style="stroke: #000000; stroke-width: 0.8"/>
      </defs>
      <g>
       <use xlink:href="#mceadbab52b" x="85.776818" y="246.04" style="stroke: #000000; stroke-width: 0.8"/>
      </g>
     </g>
     <g id="text_1">
      <!-- 0.0 -->
      <g transform="translate(77.825256 260.638438) scale(0.1 -0.1)">
       <defs>
        <path id="DejaVuSans-30" d="M 2034 4250 
Q 1547 4250 1301 3770 
Q 1056 3291 1056 2328 
Q 1056 1369 1301 889 
Q 1547 409 2034 409 
Q 2525 409 2770 889 
Q 3016 1369 3016 2328 
Q 3016 3291 2770 3770 
Q 2525 4250 2034 4250 
z
M 2034 4750 
Q 2819 4750 3233 4129 
Q 3647 3509 3647 2328 
Q 3647 1150 3233 529 
Q 2819 -91 2034 -91 
Q 1250 -91 836 529 
Q 422 1150 422 2328 
Q 422 3509 836 4129 
Q 1250 4750 2034 4750 
z
" transform="scale(0.015625)"/>
        <path id="DejaVuSans-2e" d="M 684 794 
L 1344 794 
L 1344 0 
L 684 0 
L 684 794 
z
" transform="scale(0.015625)"/>
       </defs>
       <use xlink:href="#DejaVuSans-30"/>
       <use xlink:href="#DejaVuSans-2e" transform="translate(63.623047 0)"/>
       <use xlink:href="#DejaVuSans-30" transform="translate(95.410156 0)"/>
      </g>
     </g>
    </g>
    <g id="xtick_2">
     <g id="line2d_3">
      <path d="M 230.23822 246.04 
L 230.23822 26.88 
" clip-path="url(#pd6446fac52)" style="fill: none; stroke: #b0b0b0; stroke-opacity: 0.3; stroke-width: 0.8; stroke-linecap: square"/>
     </g>
     <g id="line2d_4">
      <g>
       <use xlink:href="#mceadbab52b" x="230.23822" y="246.04" style="stroke: #000000; stroke-width: 0.8"/>
      </g>
     </g>
     <g id="text_2">
      <!-- 0.5 -->
      <g transform="translate(222.286658 260.638438) scale(0.1 -0.1)">
       <defs>
        <path id="DejaVuSans-35" d="M 691 4666 
L 3169 4666 
L 3169 4134 
L 1269 4134 
L 1269 2991 
Q 1406 3038 1543 3061 
Q 1681 3084 1819 3084 
Q 2600 3084 3056 2656 
Q 3513 2228 3513 1497 
Q 3513 744 3044 326 
Q 2575 -91 1722 -91 
Q 1428 -91 1123 -41 
Q 819 9 494 109 
L 494 744 
Q 775 591 1075 516 
Q 1375 441 1709 441 
Q 2250 441 2565 725 
Q 2881 1009 2881 1497 
Q 2881 1984 2565 2268 
Q 2250 2553 1709 2553 
Q 1456 2553 1204 2497 
Q 953 2441 691 2322 
L 691 4666 
z
" transform="scale(0.015625)"/>
       </defs>
       <use xlink:href="#DejaVuSans-30"/>
       <use xlink:href="#DejaVuSans-2e" transform="translate(63.623047 0)"/>
       <use xlink:href="#DejaVuSans-35" transform="translate(95.410156 0)"/>
      </g>
     </g>
    </g>
    <g id="xtick_3">
     <g id="line2d_5">
      <path d="M 374.699623 246.04 
L 374.699623 26.88 
" clip-path="url(#pd6446fac52)" style="fill: none; stroke: #b0b0b0; stroke-opacity: 0.3; stroke-width: 0.8; stroke-linecap: square"/>
     </g>
     <g id="line2d_6">
      <g>
       <use xlink:href="#mceadbab52b" x="374.699623" y="246.04" style="stroke: #000000; stroke-width: 0.8"/>
      </g>
     </g>
     <g id="text_3">
      <!-- 1.0 -->
      <g transform="translate(366.74806 260.638438) scale(0.1 -0.1)">
       <defs>
        <path id="DejaVuSans-31" d="M 794 531 
L 1825 531 
L 1825 4091 
L 703 3866 
L 703 4441 
L 1819 4666 
L 2450 4666 
L 2450 531 
L 3481 531 
L 3481 0 
L 794 0 
L 794 531 
z
" transform="scale(0.015625)"/>
       </defs>
       <use xlink:href="#DejaVuSans-31"/>
       <use xlink:href="#DejaVuSans-2e" transform="translate(63.623047 0)"/>
       <use xlink:href="#DejaVuSans-30" transform="translate(95.410156 0)"/>
      </g>
     </g>
    </g>
    <g id="xtick_4">
     <g id="line2d_7">
      <path d="M 519.161025 246.04 
L 519.161025 26.88 
" clip-path="url(#pd6446fac52)" style="fill: none; stroke: #b0b0b0; stroke-opacity: 0.3; stroke-width: 0.8; stroke-linecap: square"/>
     </g>
     <g id="line2d_8">
      <g>
       <use xlink:href="#mceadbab52b" x="519.161025" y="246.04" style="stroke: #000000; stroke-width: 0.8"/>
      </g>
     </g>
     <g id="text_4">
      <!-- 1.5 -->
      <g transform="translate(511.209463 260.638438) scale(0.1 -0.1)">
       <use xlink:href="#DejaVuSans-31"/>
       <use xlink:href="#DejaVuSans-2e" transform="translate(63.623047 0)"/>
       <use xlink:href="#DejaVuSans-35" transform="translate(95.410156 0)"/>
      </g>
     </g>
    </g>
    <g id="xtick_5">
     <g id="line2d_9">
      <path d="M 663.622427 246.04 
L 663.622427 26.88 
" clip-path="url(#pd6446fac52)" style="fill: none; stroke: #b0b0b0; stroke-opacity: 0.3; stroke-width: 0.8; stroke-linecap: square"/>
     </g>
     <g id="line2d_10">
      <g>
       <use xlink:href="#mceadbab52b" x="663.622427" y="246.04" style="stroke: #000000; stroke-width: 0.8"/>
      </g>
     </g>
     <g id="text_5">
      <!-- 2.0 -->
      <g transform="translate(655.670865 260.638438) scale(0.1 -0.1)">
       <defs>
        <path id="DejaVuSans-32" d="M 1228 531 
L 3431 531 
L 3431 0 
L 469 0 
L 469 531 
Q 828 903 1448 1529 
Q 2069 2156 2228 2338 
Q 2531 2678 2651 2914 
Q 2772 3150 2772 3378 
Q 2772 3750 2511 3984 
Q 2250 4219 1831 4219 
Q 1534 4219 1204 4116 
Q 875 4013 500 3803 
L 500 4441 
Q 881 4594 1212 4672 
Q 1544 4750 1819 4750 
Q 2544 4750 2975 4387 
Q 3406 4025 3406 3419 
Q 3406 3131 3298 2873 
Q 3191 2616 2906 2266 
Q 2828 2175 2409 1742 
Q 1991 1309 1228 531 
z
" transform="scale(0.015625)"/>
       </defs>
       <use xlink:href="#DejaVuSans-32"/>
       <use xlink:href="#DejaVuSans-2e" transform="translate(63.623047 0)"/>
       <use xlink:href="#DejaVuSans-30" transform="translate(95.410156 0)"/>
      </g>
     </g>
    </g>
    <g id="text_6">
     <!-- distance s [km] -->
     <g transform="translate(344.008281 274.316562) scale(0.1 -0.1)">
      <defs>
       <path id="DejaVuSans-64" d="M 2906 2969 
L 2906 4863 
L 3481 4863 
L 3481 0 
L 2906 0 
L 2906 525 
Q 2725 213 2448 61 
Q 2172 -91 1784 -91 
Q 1150 -91 751 415 
Q 353 922 353 1747 
Q 353 2572 751 3078 
Q 1150 3584 1784 3584 
Q 2172 3584 2448 3432 
Q 2725 3281 2906 2969 
z
M 947 1747 
Q 947 1113 1208 752 
Q 1469 391 1925 391 
Q 2381 391 2643 752 
Q 2906 1113 2906 1747 
Q 2906 2381 2643 2742 
Q 2381 3103 1925 3103 
Q 1469 3103 1208 2742 
Q 947 2381 947 1747 
z
" transform="scale(0.015625)"/>
       <path id="DejaVuSans-69" d="M 603 3500 
L 1178 3500 
L 1178 0 
L 603 0 
L 603 3500 
z
M 603 4863 
L 1178 4863 
L 1178 4134 
L 603 4134 
L 603 4863 
z
" transform="scale(0.015625)"/>
       <path id="DejaVuSans-73" d="M 2834 3397 
L 2834 2853 
Q 2591 2978 2328 3040 
Q 2066 3103 1784 3103 
Q 1356 3103 1142 2972 
Q 928 2841 928 2578 
Q 928 2378 1081 2264 
Q 1234 2150 1697 2047 
L 1894 2003 
Q 2506 1872 2764 1633 
Q 3022 1394 3022 966 
Q 3022 478 2636 193 
Q 2250 -91 1575 -91 
Q 1294 -91 989 -36 
Q 684 19 347 128 
L 347 722 
Q 666 556 975 473 
Q 1284 391 1588 391 
Q 1994 391 2212 530 
Q 2431 669 2431 922 
Q 2431 1156 2273 1281 
Q 2116 1406 1581 1522 
L 1381 1569 
Q 847 1681 609 1914 
Q 372 2147 372 2553 
Q 372 3047 722 3315 
Q 1072 3584 1716 3584 
Q 2034 3584 2315 3537 
Q 2597 3491 2834 3397 
z
" transform="scale(0.015625)"/>
       <path id="DejaVuSans-74" d="M 1172 4494 
L 1172 3500 
L 2356 3500 
L 2356 3053 
L 1172 3053 
L 1172 1153 
Q 1172 725 1289 603 
Q 1406 481 1766 481 
L 2356 481 
L 2356 0 
L 1766 0 
Q 1100 0 847 248 
Q 594 497 594 1153 
L 594 3053 
L 172 3053 
L 172 3500 
L 594 3500 
L 594 4494 
L 1172 4494 
z
" transform="scale(0.015625)"/>
       <path id="DejaVuSans-61" d="M 2194 1759 
Q 1497 1759 1228 1600 
Q 959 1441 959 1056 
Q 959 750 1161 570 
Q 1363 391 1709 391 
Q 2188 391 2477 730 
Q 2766 1069 2766 1631 
L 2766 1759 
L 2194 1759 
z
M 3341 1997 
L 3341 0 
L 2766 0 
L 2766 531 
Q 2569 213 2275 61 
Q 1981 -91 1556 -91 
Q 1019 -91 701 211 
Q 384 513 384 1019 
Q 384 1609 779 1909 
Q 1175 2209 1959 2209 
L 2766 2209 
L 2766 2266 
Q 2766 2663 2505 2880 
Q 2244 3097 1772 3097 
Q 1472 3097 1187 3025 
Q 903 2953 641 2809 
L 641 3341 
Q 956 3463 1253 3523 
Q 1550 3584 1831 3584 
Q 2591 3584 2966 3190 
Q 3341 2797 3341 1997 
z
" transform="scale(0.015625)"/>
       <path id="DejaVuSans-6e" d="M 3513 2113 
L 3513 0 
L 2938 0 
L 2938 2094 
Q 2938 2591 2744 2837 
Q 2550 3084 2163 3084 
Q 1697 3084 1428 2787 
Q 1159 2491 1159 1978 
L 1159 0 
L 581 0 
L 581 3500 
L 1159 3500 
L 1159 2956 
Q 1366 3272 1645 3428 
Q 1925 3584 2291 3584 
Q 2894 3584 3203 3211 
Q 3513 2838 3513 2113 
z
" transform="scale(0.015625)"/>
       <path id="DejaVuSans-63" d="M 3122 3366 
L 3122 2828 
Q 2878 2963 2633 3030 
Q 2388 3097 2138 3097 
Q 1578 3097 1268 2742 
Q 959 2388 959 1747 
Q 959 1106 1268 751 
Q 1578 397 2138 397 
Q 2388 397 2633 464 
Q 2878 531 3122 666 
L 3122 134 
Q 2881 22 2623 -34 
Q 2366 -91 2075 -91 
Q 1284 -91 818 406 
Q 353 903 353 1747 
Q 353 2603 823 3093 
Q 1294 3584 2113 3584 
Q 2378 3584 2631 3529 
Q 2884 3475 3122 3366 
z
" transform="scale(0.015625)"/>
       <path id="DejaVuSans-65" d="M 3597 1894 
L 3597 1613 
L 953 1613 
Q 991 1019 1311 708 
Q 1631 397 2203 397 
Q 2534 397 2845 478 
Q 3156 559 3463 722 
L 3463 178 
Q 3153 47 2828 -22 
Q 2503 -91 2169 -91 
Q 1331 -91 842 396 
Q 353 884 353 1716 
Q 353 2575 817 3079 
Q 1281 3584 2069 3584 
Q 2775 3584 3186 3129 
Q 3597 2675 3597 1894 
z
M 3022 2063 
Q 3016 2534 2758 2815 
Q 2500 3097 2075 3097 
Q 1594 3097 1305 2825 
Q 1016 2553 972 2059 
L 3022 2063 
z
" transform="scale(0.015625)"/>
       <path id="DejaVuSans-20" transform="scale(0.015625)"/>
       <path id="DejaVuSans-5b" d="M 550 4863 
L 1875 4863 
L 1875 4416 
L 1125 4416 
L 1125 -397 
L 1875 -397 
L 1875 -844 
L 550 -844 
L 550 4863 
z
" transform="scale(0.015625)"/>
       <path id="DejaVuSans-6b" d="M 581 4863 
L 1159 4863 
L 1159 1991 
L 2875 3500 
L 3609 3500 
L 1753 1863 
L 3688 0 
L 2938 0 
L 1159 1709 
L 1159 0 
L 581 0 
L 581 4863 
z
" transform="scale(0.015625)"/>
       <path id="DejaVuSans-6d" d="M 3328 2828 
Q 3544 3216 3844 3400 
Q 4144 3584 4550 3584 
Q 5097 3584 5394 3201 
Q 5691 2819 5691 2113 
L 5691 0 
L 5113 0 
L 5113 2094 
Q 5113 2597 4934 2840 
Q 4756 3084 4391 3084 
Q 3944 3084 3684 2787 
Q 3425 2491 3425 1978 
L 3425 0 
L 2847 0 
L 2847 2094 
Q 2847 2600 2669 2842 
Q 2491 3084 2119 3084 
Q 1678 3084 1418 2786 
Q 1159 2488 1159 1978 
L 1159 0 
L 581 0 
L 581 3500 
L 1159 3500 
L 1159 2956 
Q 1356 3278 1631 3431 
Q 1906 3584 2284 3584 
Q 2666 3584 2933 3390 
Q 3200 3197 3328 2828 
z
" transform="scale(0.015625)"/>
       <path id="DejaVuSans-5d" d="M 1947 4863 
L 1947 -844 
L 622 -844 
L 622 -397 
L 1369 -397 
L 1369 4416 
L 622 4416 
L 622 4863 
L 1947 4863 
z
" transform="scale(0.015625)"/>
      </defs>
      <use xlink:href="#DejaVuSans-64"/>
      <use xlink:href="#DejaVuSans-69" transform="translate(63.476562 0)"/>
      <use xlink:href="#DejaVuSans-73" transform="translate(91.259766 0)"/>
      <use xlink:href="#DejaVuSans-74" transform="translate(143.359375 0)"/>
      <use xlink:href="#DejaVuSans-61" transform="translate(182.568359 0)"/>
      <use xlink:href="#DejaVuSans-6e" transform="translate(243.847656 0)"/>
      <use xlink:href="#DejaVuSans-63" transform="translate(307.226562 0)"/>
      <use xlink:href="#DejaVuSans-65" transform="translate(362.207031 0)"/>
      <use xlink:href="#DejaVuSans-20" transform="translate(423.730469 0)"/>
      <use xlink:href="#DejaVuSans-73" transform="translate(455.517578 0)"/>
      <use xlink:href="#DejaVuSans-20" transform="translate(507.617188 0)"/>
      <use xlink:href="#DejaVuSans-5b" transform="translate(539.404297 0)"/>
      <use xlink:href="#DejaVuSans-6b" transform="translate(578.417969 0)"/>
      <use xlink:href="#DejaVuSans-6d" transform="translate(636.328125 0)"/>
      <use xlink:href="#DejaVuSans-5d" transform="translate(733.740234 0)"/>
     </g>
    </g>
   </g>
   <g id="matplotlib.axis_2">
    <g id="ytick_1">
     <g id="line2d_11">
      <path d="M 56.09 242.212337 
L 709.2 242.212337 
" clip-path="url(#pd6446fac52)" style="fill: none; stroke: #b0b0b0; stroke-opacity: 0.3; stroke-width: 0.8; stroke-linecap: square"/>
     </g>
     <g id="line2d_12">
      <defs>
       <path id="ma8eb052524" d="M 0 0 
L -3.5 0 
" style="stroke: #000000; stroke-width: 0.8"/>
      </defs>
      <g>
       <use xlink:href="#ma8eb052524" x="56.09" y="242.212337" style="stroke: #000000; stroke-width: 0.8"/>
      </g>
     </g>
     <g id="text_7">
      <!-- −2.0 -->
      <g transform="translate(24.807188 246.011555) scale(0.1 -0.1)">
       <defs>
        <path id="DejaVuSans-2212" d="M 678 2272 
L 4684 2272 
L 4684 1741 
L 678 1741 
L 678 2272 
z
" transform="scale(0.015625)"/>
       </defs>
       <use xlink:href="#DejaVuSans-2212"/>
       <use xlink:href="#DejaVuSans-32" transform="translate(83.789062 0)"/>
       <use xlink:href="#DejaVuSans-2e" transform="translate(147.412109 0)"/>
       <use xlink:href="#DejaVuSans-30" transform="translate(179.199219 0)"/>
      </g>
     </g>
    </g>
    <g id="ytick_2">
     <g id="line2d_13">
      <path d="M 56.09 215.361557 
L 709.2 215.361557 
" clip-path="url(#pd6446fac52)" style="fill: none; stroke: #b0b0b0; stroke-opacity: 0.3; stroke-width: 0.8; stroke-linecap: square"/>
     </g>
     <g id="line2d_14">
      <g>
       <use xlink:href="#ma8eb052524" x="56.09" y="215.361557" style="stroke: #000000; stroke-width: 0.8"/>
      </g>
     </g>
     <g id="text_8">
      <!-- −1.5 -->
      <g transform="translate(24.807188 219.160776) scale(0.1 -0.1)">
       <use xlink:href="#DejaVuSans-2212"/>
       <use xlink:href="#DejaVuSans-31" transform="translate(83.789062 0)"/>
       <use xlink:href="#DejaVuSans-2e" transform="translate(147.412109 0)"/>
       <use xlink:href="#DejaVuSans-35" transform="translate(179.199219 0)"/>
      </g>
     </g>
    </g>
    <g id="ytick_3">
     <g id="line2d_15">
      <path d="M 56.09 188.510777 
L 709.2 188.510777 
" clip-path="url(#pd6446fac52)" style="fill: none; stroke: #b0b0b0; stroke-opacity: 0.3; stroke-width: 0.8; stroke-linecap: square"/>
     </g>
     <g id="line2d_16">
      <g>
       <use xlink:href="#ma8eb052524" x="56.09" y="188.510777" style="stroke: #000000; stroke-width: 0.8"/>
      </g>
     </g>
     <g id="text_9">
      <!-- −1.0 -->
      <g transform="translate(24.807188 192.309996) scale(0.1 -0.1)">
       <use xlink:href="#DejaVuSans-2212"/>
       <use xlink:href="#DejaVuSans-31" transform="translate(83.789062 0)"/>
       <use xlink:href="#DejaVuSans-2e" transform="translate(147.412109 0)"/>
       <use xlink:href="#DejaVuSans-30" transform="translate(179.199219 0)"/>
      </g>
     </g>
    </g>
    <g id="ytick_4">
     <g id="line2d_17">
      <path d="M 56.09 161.659997 
L 709.2 161.659997 
" clip-path="url(#pd6446fac52)" style="fill: none; stroke: #b0b0b0; stroke-opacity: 0.3; stroke-width: 0.8; stroke-linecap: square"/>
     </g>
     <g id="line2d_18">
      <g>
       <use xlink:href="#ma8eb052524" x="56.09" y="161.659997" style="stroke: #000000; stroke-width: 0.8"/>
      </g>
     </g>
     <g id="text_10">
      <!-- −0.5 -->
      <g transform="translate(24.807188 165.459216) scale(0.1 -0.1)">
       <use xlink:href="#DejaVuSans-2212"/>
       <use xlink:href="#DejaVuSans-30" transform="translate(83.789062 0)"/>
       <use xlink:href="#DejaVuSans-2e" transform="translate(147.412109 0)"/>
       <use xlink:href="#DejaVuSans-35" transform="translate(179.199219 0)"/>
      </g>
     </g>
    </g>
    <g id="ytick_5">
     <g id="line2d_19">
      <path d="M 56.09 134.809218 
L 709.2 134.809218 
" clip-path="url(#pd6446fac52)" style="fill: none; stroke: #b0b0b0; stroke-opacity: 0.3; stroke-width: 0.8; stroke-linecap: square"/>
     </g>
     <g id="line2d_20">
      <g>
       <use xlink:href="#ma8eb052524" x="56.09" y="134.809218" style="stroke: #000000; stroke-width: 0.8"/>
      </g>
     </g>
     <g id="text_11">
      <!-- 0.0 -->
      <g transform="translate(33.186875 138.608436) scale(0.1 -0.1)">
       <use xlink:href="#DejaVuSans-30"/>
       <use xlink:href="#DejaVuSans-2e" transform="translate(63.623047 0)"/>
       <use xlink:href="#DejaVuSans-30" transform="translate(95.410156 0)"/>
      </g>
     </g>
    </g>
    <g id="ytick_6">
     <g id="line2d_21">
      <path d="M 56.09 107.958438 
L 709.2 107.958438 
" clip-path="url(#pd6446fac52)" style="fill: none; stroke: #b0b0b0; stroke-opacity: 0.3; stroke-width: 0.8; stroke-linecap: square"/>
     </g>
     <g id="line2d_22">
      <g>
       <use xlink:href="#ma8eb052524" x="56.09" y="107.958438" style="stroke: #000000; stroke-width: 0.8"/>
      </g>
     </g>
     <g id="text_12">
      <!-- 0.5 -->
      <g transform="translate(33.186875 111.757657) scale(0.1 -0.1)">
       <use xlink:href="#DejaVuSans-30"/>
       <use xlink:href="#DejaVuSans-2e" transform="translate(63.623047 0)"/>
       <use xlink:href="#DejaVuSans-35" transform="translate(95.410156 0)"/>
      </g>
     </g>
    </g>
    <g id="ytick_7">
     <g id="line2d_23">
      <path d="M 56.09 81.107658 
L 709.2 81.107658 
" clip-path="url(#pd6446fac52)" style="fill: none; stroke: #b0b0b0; stroke-opacity: 0.3; stroke-width: 0.8; stroke-linecap: square"/>
     </g>
     <g id="line2d_24">
      <g>
       <use xlink:href="#ma8eb052524" x="56.09" y="81.107658" style="stroke: #000000; stroke-width: 0.8"/>
      </g>
     </g>
     <g id="text_13">
      <!-- 1.0 -->
      <g transform="translate(33.186875 84.906877) scale(0.1 -0.1)">
       <use xlink:href="#DejaVuSans-31"/>
       <use xlink:href="#DejaVuSans-2e" transform="translate(63.623047 0)"/>
       <use xlink:href="#DejaVuSans-30" transform="translate(95.410156 0)"/>
      </g>
     </g>
    </g>
    <g id="ytick_8">
     <g id="line2d_25">
      <path d="M 56.09 54.256878 
L 709.2 54.256878 
" clip-path="url(#pd6446fac52)" style="fill: none; stroke: #b0b0b0; stroke-opacity: 0.3; stroke-width: 0.8; stroke-linecap: square"/>
     </g>
     <g id="line2d_26">
      <g>
       <use xlink:href="#ma8eb052524" x="56.09" y="54.256878" style="stroke: #000000; stroke-width: 0.8"/>
      </g>
     </g>
     <g id="text_14">
      <!-- 1.5 -->
      <g transform="translate(33.186875 58.056097) scale(0.1 -0.1)">
       <use xlink:href="#DejaVuSans-31"/>
       <use xlink:href="#DejaVuSans-2e" transform="translate(63.623047 0)"/>
       <use xlink:href="#DejaVuSans-35" transform="translate(95.410156 0)"/>
      </g>
     </g>
    </g>
    <g id="ytick_9">
     <g id="line2d_27">
      <path d="M 56.09 27.406099 
L 709.2 27.406099 
" clip-path="url(#pd6446fac52)" style="fill: none; stroke: #b0b0b0; stroke-opacity: 0.3; stroke-width: 0.8; stroke-linecap: square"/>
     </g>
     <g id="line2d_28">
      <g>
       <use xlink:href="#ma8eb052524" x="56.09" y="27.406099" style="stroke: #000000; stroke-width: 0.8"/>
      </g>
     </g>
     <g id="text_15">
      <!-- 2.0 -->
      <g transform="translate(33.186875 31.205317) scale(0.1 -0.1)">
       <use xlink:href="#DejaVuSans-32"/>
       <use xlink:href="#DejaVuSans-2e" transform="translate(63.623047 0)"/>
       <use xlink:href="#DejaVuSans-30" transform="translate(95.410156 0)"/>
      </g>
     </g>
    </g>
    <g id="text_16">
     <!-- tie-rod force [kN] -->
     <g transform="translate(18.7275 179.170156) rotate(-90) scale(0.1 -0.1)">
      <defs>
       <path id="DejaVuSans-2d" d="M 313 2009 
L 1997 2009 
L 1997 1497 
L 313 1497 
L 313 2009 
z
" transform="scale(0.015625)"/>
       <path id="DejaVuSans-72" d="M 2631 2963 
Q 2534 3019 2420 3045 
Q 2306 3072 2169 3072 
Q 1681 3072 1420 2755 
Q 1159 2438 1159 1844 
L 1159 0 
L 581 0 
L 581 3500 
L 1159 3500 
L 1159 2956 
Q 1341 3275 1631 3429 
Q 1922 3584 2338 3584 
Q 2397 3584 2469 3576 
Q 2541 3569 2628 3553 
L 2631 2963 
z
" transform="scale(0.015625)"/>
       <path id="DejaVuSans-6f" d="M 1959 3097 
Q 1497 3097 1228 2736 
Q 959 2375 959 1747 
Q 959 1119 1226 758 
Q 1494 397 1959 397 
Q 2419 397 2687 759 
Q 2956 1122 2956 1747 
Q 2956 2369 2687 2733 
Q 2419 3097 1959 3097 
z
M 1959 3584 
Q 2709 3584 3137 3096 
Q 3566 2609 3566 1747 
Q 3566 888 3137 398 
Q 2709 -91 1959 -91 
Q 1206 -91 779 398 
Q 353 888 353 1747 
Q 353 2609 779 3096 
Q 1206 3584 1959 3584 
z
" transform="scale(0.015625)"/>
       <path id="DejaVuSans-66" d="M 2375 4863 
L 2375 4384 
L 1825 4384 
Q 1516 4384 1395 4259 
Q 1275 4134 1275 3809 
L 1275 3500 
L 2222 3500 
L 2222 3053 
L 1275 3053 
L 1275 0 
L 697 0 
L 697 3053 
L 147 3053 
L 147 3500 
L 697 3500 
L 697 3744 
Q 697 4328 969 4595 
Q 1241 4863 1831 4863 
L 2375 4863 
z
" transform="scale(0.015625)"/>
       <path id="DejaVuSans-4e" d="M 628 4666 
L 1478 4666 
L 3547 763 
L 3547 4666 
L 4159 4666 
L 4159 0 
L 3309 0 
L 1241 3903 
L 1241 0 
L 628 0 
L 628 4666 
z
" transform="scale(0.015625)"/>
      </defs>
      <use xlink:href="#DejaVuSans-74"/>
      <use xlink:href="#DejaVuSans-69" transform="translate(39.208984 0)"/>
      <use xlink:href="#DejaVuSans-65" transform="translate(66.992188 0)"/>
      <use xlink:href="#DejaVuSans-2d" transform="translate(128.515625 0)"/>
      <use xlink:href="#DejaVuSans-72" transform="translate(164.599609 0)"/>
      <use xlink:href="#DejaVuSans-6f" transform="translate(203.462891 0)"/>
      <use xlink:href="#DejaVuSans-64" transform="translate(264.644531 0)"/>
      <use xlink:href="#DejaVuSans-20" transform="translate(328.121094 0)"/>
      <use xlink:href="#DejaVuSans-66" transform="translate(359.908203 0)"/>
      <use xlink:href="#DejaVuSans-6f" transform="translate(395.113281 0)"/>
      <use xlink:href="#DejaVuSans-72" transform="translate(456.294922 0)"/>
      <use xlink:href="#DejaVuSans-63" transform="translate(495.158203 0)"/>
      <use xlink:href="#DejaVuSans-65" transform="translate(550.138672 0)"/>
      <use xlink:href="#DejaVuSans-20" transform="translate(611.662109 0)"/>
      <use xlink:href="#DejaVuSans-5b" transform="translate(643.449219 0)"/>
      <use xlink:href="#DejaVuSans-6b" transform="translate(682.462891 0)"/>
      <use xlink:href="#DejaVuSans-4e" transform="translate(740.373047 0)"/>
      <use xlink:href="#DejaVuSans-5d" transform="translate(815.177734 0)"/>
     </g>
    </g>
   </g>
   <g id="line2d_29">
    <path d="M 85.776818 134.809218 
L 86.814051 134.703177 
L 88.905762 134.8359 
L 91.020262 134.811854 
L 93.695015 134.857679 
L 130.782645 134.917202 
L 135.131521 134.700519 
L 138.27003 134.386362 
L 142.070889 133.738331 
L 147.82926 132.518156 
L 149.106424 131.996688 
L 151.641821 131.407497 
L 152.896607 131.260704 
L 156.592193 131.239088 
L 159.576071 131.803794 
L 161.318131 132.391649 
L 163.020956 133.224969 
L 164.682495 134.399179 
L 165.766383 135.288076 
L 167.875046 137.49701 
L 169.902422 139.904491 
L 171.846004 142.171965 
L 173.247417 143.613199 
L 174.154505 144.203326 
L 174.599853 144.352831 
L 175.903082 144.448973 
L 176.744612 145.101259 
L 177.564463 145.705417 
L 177.966335 145.797349 
L 178.362906 146.072664 
L 178.754244 147.419245 
L 179.140422 150.572528 
L 180.268644 163.956369 
L 180.634793 165.660454 
L 180.996091 165.902598 
L 181.352643 165.544551 
L 181.704577 165.575404 
L 182.05204 166.557085 
L 182.39519 168.429449 
L 182.7342 170.925167 
L 184.052632 185.195268 
L 184.37387 186.302287 
L 184.69221 186.783525 
L 185.007875 187.904251 
L 185.321074 190.45656 
L 185.940851 199.249004 
L 186.856834 213.751967 
L 187.159327 216.659218 
L 187.46072 218.257514 
L 188.06057 220.139311 
L 188.656566 223.695435 
L 189.247571 227.838001 
L 189.540496 229.197223 
L 189.831283 230.017725 
L 190.405495 230.745255 
L 191.52179 231.674312 
L 192.063882 232.426641 
L 192.858535 233.974002 
L 193.632459 235.756279 
L 193.885976 236.078182 
L 194.137308 235.839393 
L 194.386484 234.51876 
L 194.633525 231.446573 
L 195.12132 218.406568 
L 196.071284 184.57349 
L 196.532803 177.025005 
L 197.435808 168.077067 
L 197.659195 168.064031 
L 197.882199 170.212224 
L 198.550439 180.239373 
L 199.219132 185.966803 
L 199.665692 194.234673 
L 200.557434 213.897138 
L 201.001057 220.235127 
L 201.442817 224.178721 
L 201.882427 226.484814 
L 202.319772 227.773474 
L 202.754814 228.382799 
L 203.187292 228.566574 
L 203.402246 228.510993 
L 203.828809 228.036109 
L 204.250102 227.117179 
L 205.279803 224.46764 
L 205.684679 223.849308 
L 206.087808 223.514853 
L 206.693372 223.140392 
L 206.896514 222.762706 
L 207.100737 221.994258 
L 207.306279 220.509058 
L 207.513364 217.800475 
L 207.932987 206.169926 
L 208.799096 168.417894 
L 209.709593 152.036036 
L 210.183852 139.817415 
L 210.425884 138.212799 
L 210.671225 138.921164 
L 210.919897 139.193725 
L 211.17191 137.661724 
L 211.685955 133.40658 
L 211.947982 133.534333 
L 212.482043 135.962452 
L 212.754052 136.173331 
L 213.029336 135.84291 
L 213.307857 135.842204 
L 213.58958 136.634305 
L 214.162486 139.00626 
L 214.747727 140.282593 
L 216.865465 144.49689 
L 217.478379 145.314761 
L 217.784629 146.017757 
L 219.003263 150.777352 
L 219.606175 151.317294 
L 219.905534 152.482254 
L 220.499928 157.66575 
L 221.088697 163.092444 
L 221.381062 164.52207 
L 222.250717 167.111076 
L 222.824875 170.277158 
L 223.395273 174.967624 
L 223.962961 181.315215 
L 224.529356 187.881815 
L 224.812525 189.876512 
L 225.095902 190.581695 
L 225.379648 190.122729 
L 225.6639 189.301879 
L 225.948766 189.322503 
L 226.234299 191.139782 
L 226.807257 199.473132 
L 227.382168 207.73515 
L 227.958231 213.221066 
L 228.535095 216.691005 
L 229.113279 218.873919 
L 229.694194 220.203378 
L 230.279631 221.005428 
L 230.870808 221.482714 
L 231.168843 221.47071 
L 231.468645 221.014013 
L 231.770292 219.645837 
L 232.073852 216.628089 
L 232.379406 211.045288 
L 232.687031 202.107248 
L 233.94005 156.307166 
L 234.581091 150.232632 
L 234.905271 144.673769 
L 235.560997 128.708037 
L 235.892557 125.682361 
L 236.226567 126.556886 
L 236.901851 130.503592 
L 237.243105 131.152245 
L 237.586753 132.32038 
L 237.932711 135.530091 
L 238.630751 144.597325 
L 238.982315 147.441926 
L 239.689343 149.985123 
L 240.044431 151.433058 
L 241.471867 158.983842 
L 241.830006 160.155731 
L 242.188559 158.665242 
L 242.547571 155.060286 
L 242.907132 154.474202 
L 243.267299 161.414562 
L 243.989299 180.867701 
L 244.350958 186.199083 
L 244.712914 188.849155 
L 245.437354 192.195733 
L 245.799789 195.188631 
L 246.525304 204.035213 
L 247.251956 212.453916 
L 247.61576 214.870033 
L 247.979934 216.212038 
L 248.344542 216.865496 
L 249.07518 217.707687 
L 250.541042 220.797687 
L 250.908168 221.140927 
L 251.275572 221.275365 
L 252.011554 221.207744 
L 252.750019 220.9194 
L 253.120625 220.573912 
L 253.492403 219.796957 
L 253.865551 218.095841 
L 254.240268 214.64942 
L 254.616731 208.25211 
L 254.995077 197.12031 
L 256.14217 145.623233 
L 256.52875 144.246119 
L 256.917532 149.175625 
L 257.308541 149.576814 
L 257.701744 140.058947 
L 258.096989 123.218734 
L 258.494033 111.283461 
L 258.892556 105.925898 
L 260.092978 100.619024 
L 260.493226 98.048869 
L 260.892911 96.785083 
L 261.291794 97.350866 
L 263.2739 104.95502 
L 263.668365 105.767819 
L 264.06233 106.322307 
L 264.455854 106.654039 
L 264.849009 106.799615 
L 265.241884 106.786277 
L 265.634604 106.629658 
L 266.027295 106.310259 
L 267.599608 104.331425 
L 267.993576 104.095923 
L 268.388137 104.231845 
L 268.783409 104.734016 
L 269.17949 104.98189 
L 269.576454 104.48034 
L 269.974358 103.645934 
L 270.373223 103.131257 
L 270.773031 103.136507 
L 271.97708 104.092136 
L 272.37953 104.627544 
L 273.185479 106.469244 
L 274.396405 109.339509 
L 275.610442 111.795579 
L 276.422576 113.021172 
L 276.829688 113.431478 
L 277.237589 113.680706 
L 277.646352 113.760003 
L 278.056069 113.666602 
L 278.466839 113.404979 
L 279.291928 112.429367 
L 280.122357 110.985138 
L 281.378153 108.289862 
L 281.798858 108.118855 
L 282.220188 109.389543 
L 282.641853 111.667875 
L 283.0636 111.806144 
L 284.327033 102.376329 
L 284.746957 101.778716 
L 285.166158 102.533484 
L 286.002725 106.357273 
L 286.420378 109.425046 
L 287.255125 119.285682 
L 287.672459 122.073061 
L 288.089927 123.014911 
L 288.507642 124.893522 
L 288.925704 129.746107 
L 290.182871 153.18826 
L 291.024456 164.466021 
L 293.554447 203.668821 
L 294.811887 216.784085 
L 295.644363 223.566196 
L 296.058332 225.873591 
L 296.470619 227.528606 
L 296.881127 228.680173 
L 297.289789 229.46267 
L 298.101494 230.335196 
L 298.905903 230.755284 
L 299.703453 230.953477 
L 300.494621 230.959146 
L 301.279965 230.5585 
L 302.448331 229.822501 
L 303.221049 229.564979 
L 303.988824 229.624614 
L 304.751883 230.022306 
L 306.266426 231.13072 
L 307.019547 231.294172 
L 308.890281 230.999428 
L 309.261446 230.862635 
L 309.631414 230.506622 
L 310.000196 229.583647 
L 310.367833 227.569606 
L 310.734419 223.931661 
L 311.464998 211.659517 
L 312.193035 199.114074 
L 312.556417 197.462752 
L 312.919487 199.430653 
L 313.644794 206.002804 
L 314.007063 207.904944 
L 314.730985 210.093942 
L 315.092721 210.656118 
L 315.454407 210.371363 
L 315.816176 209.110162 
L 316.178178 206.87526 
L 316.540577 203.293947 
L 317.631844 185.121609 
L 317.997503 184.059072 
L 318.364222 187.108698 
L 319.100497 195.072174 
L 319.469785 196.964476 
L 320.20984 198.378009 
L 321.323845 202.304445 
L 321.696874 202.714469 
L 322.071094 202.145146 
L 322.446708 200.310853 
L 322.823887 196.863597 
L 323.202749 191.504532 
L 323.965591 175.963633 
L 325.120256 152.654834 
L 325.893698 136.095615 
L 326.668391 118.781589 
L 327.055846 113.831844 
L 327.443182 110.823146 
L 329.372917 100.981915 
L 329.75634 100.989157 
L 330.51974 103.128174 
L 331.278363 104.848508 
L 331.655931 105.262869 
L 332.032412 105.268163 
L 332.407851 104.652249 
L 333.899473 99.928202 
L 334.638526 95.137568 
L 335.005665 94.332887 
L 335.370989 95.000484 
L 338.229223 105.381823 
L 339.278116 107.768052 
L 340.316079 109.501605 
L 342.363313 112.430051 
L 343.377528 113.506719 
L 345.059328 115.067606 
L 345.73043 115.422597 
L 346.402285 115.545114 
L 347.076233 115.485194 
L 347.75366 115.26692 
L 348.43616 114.869585 
L 349.125296 114.179041 
L 349.472747 113.644903 
L 350.174003 112.112817 
L 350.527921 112.51495 
L 350.884038 115.195199 
L 351.602779 122.876824 
L 352.330102 128.133255 
L 353.437187 146.509285 
L 353.810488 149.027747 
L 354.185914 149.104138 
L 354.943119 147.382905 
L 355.324882 147.337466 
L 355.708743 147.428677 
L 356.094695 146.90413 
L 356.482729 145.48304 
L 357.659278 140.019144 
L 359.25684 135.273838 
L 360.067815 132.943956 
L 360.88581 131.479603 
L 363.355498 127.874708 
L 366.99638 123.36446 
L 367.781906 122.635468 
L 368.556067 121.798593 
L 369.317844 121.41488 
L 370.06634 121.135882 
L 370.800817 120.761016 
L 371.520764 120.628617 
L 371.87518 120.317083 
L 372.225846 119.406904 
L 372.915807 116.657445 
L 373.255056 115.840632 
L 373.590469 115.516691 
L 373.922046 114.972962 
L 374.249807 113.465776 
L 374.894227 107.472749 
L 375.524696 101.291482 
L 375.834995 99.68646 
L 376.142104 99.311612 
L 376.446086 100.008574 
L 376.747015 101.239357 
L 377.044987 101.927734 
L 377.340123 101.435287 
L 378.495059 95.840247 
L 379.058886 94.376743 
L 379.61493 93.495488 
L 379.890418 93.649202 
L 380.437091 95.205298 
L 381.24796 97.428582 
L 382.575347 104.044221 
L 383.353619 106.466881 
L 384.367346 108.839936 
L 385.353192 110.541725 
L 386.311605 111.693273 
L 388.138062 113.435334 
L 389.007635 113.909555 
L 389.855602 114.056981 
L 390.690875 114.288464 
L 392.153746 114.960114 
L 392.577114 114.918263 
L 393.218468 114.589284 
L 393.869021 113.97622 
L 394.309097 113.351315 
L 395.904198 110.350307 
L 396.140548 110.266597 
L 396.379323 110.416033 
L 396.864507 111.381217 
L 397.360398 112.376914 
L 398.125384 113.289622 
L 398.649862 115.001553 
L 401.448599 127.53072 
L 402.344611 129.707556 
L 402.648906 130.114276 
L 403.265825 130.455277 
L 403.893728 130.565834 
L 404.532472 130.480095 
L 405.181911 130.410382 
L 405.841899 130.21852 
L 407.192915 130.847632 
L 407.53704 131.113792 
L 408.232858 132.096362 
L 410.006978 135.313842 
L 410.722305 137.139022 
L 411.436958 138.683983 
L 412.503138 141.321531 
L 413.90459 144.34085 
L 416.922506 149.225153 
L 417.561686 151.707761 
L 418.18856 154.276781 
L 418.497406 155.165316 
L 418.803225 156.400879 
L 419.106041 158.560892 
L 419.702699 165.32658 
L 420.287296 171.97877 
L 420.575025 173.611637 
L 420.859697 174.25127 
L 421.141318 174.579007 
L 421.419899 175.16593 
L 421.968063 177.729712 
L 423.03054 184.908324 
L 423.546552 188.001781 
L 424.053136 189.282559 
L 424.302981 190.845216 
L 424.795957 197.886987 
L 425.756159 214.470694 
L 426.456082 222.668113 
L 427.140616 228.134526 
L 427.5883 230.383741 
L 428.029376 231.795404 
L 428.465128 232.71323 
L 428.896818 233.140256 
L 429.751285 233.484999 
L 430.387321 233.821574 
L 430.810311 233.827815 
L 431.442429 233.519263 
L 432.4664 232.699128 
L 433.05889 232.021301 
L 434.204737 230.497505 
L 435.332103 229.476254 
L 435.89698 228.647411 
L 436.655264 227.065969 
L 438.187428 223.180917 
L 438.959726 220.720493 
L 440.133154 216.251916 
L 440.330903 216.047454 
L 440.928246 216.219344 
L 441.128852 215.953054 
L 441.330304 215.244663 
L 441.736104 212.060377 
L 442.561393 202.763945 
L 442.770776 202.137174 
L 443.406171 201.8722 
L 443.620464 201.167725 
L 444.05321 198.134132 
L 445.392086 185.604823 
L 445.855277 180.956324 
L 448.079048 151.383212 
L 448.607341 146.028892 
L 449.148172 142.713066 
L 450.26674 137.43338 
L 451.732206 135.115002 
L 452.646285 134.613709 
L 453.269708 133.760347 
L 453.585319 133.551044 
L 454.222669 133.404232 
L 454.543572 133.137827 
L 456.156182 130.770567 
L 457.757265 126.704017 
L 458.388442 124.337438 
L 459.012344 121.940167 
L 459.932455 119.409014 
L 460.534328 118.289301 
L 461.126491 117.827526 
L 461.418869 117.152244 
L 461.708753 115.851176 
L 462.280942 111.625265 
L 463.120175 105.105194 
L 464.999321 96.159414 
L 465.778472 94.543814 
L 466.035708 94.595709 
L 466.292011 95.105083 
L 467.057313 97.891645 
L 468.591109 104.022791 
L 471.167043 111.594729 
L 472.160459 113.966569 
L 472.890452 115.221538 
L 473.373229 115.701965 
L 474.094329 116.030236 
L 475.295104 116.172761 
L 476.262502 116.124359 
L 476.750773 115.843682 
L 477.243535 115.111372 
L 477.742113 113.623032 
L 477.994039 112.883229 
L 478.247992 112.736914 
L 478.762822 113.047258 
L 479.02411 113.096258 
L 479.288213 113.838746 
L 479.555264 116.153465 
L 480.374958 128.189541 
L 480.654539 128.937654 
L 480.937317 128.902726 
L 481.223263 129.971597 
L 482.09975 136.998685 
L 482.398015 137.034998 
L 482.699274 136.645125 
L 483.003497 136.789256 
L 483.620705 138.16815 
L 483.93363 138.35243 
L 484.249397 138.037865 
L 484.889339 137.055907 
L 485.213461 136.916549 
L 485.869873 136.978284 
L 486.874533 136.098979 
L 487.214668 136.138242 
L 488.25049 136.787263 
L 488.952593 137.031042 
L 489.305935 137.409411 
L 490.370433 138.998424 
L 491.08054 139.822165 
L 492.491735 141.9405 
L 493.534879 142.963418 
L 494.559216 143.743539 
L 495.229638 144.233913 
L 495.888948 144.391322 
L 496.214193 144.723738 
L 496.855494 146.137011 
L 497.793757 149.190344 
L 498.100133 151.048071 
L 499.294113 162.483565 
L 500.157168 164.658726 
L 501.268081 171.732953 
L 502.875122 185.790205 
L 503.402903 189.169529 
L 503.929319 195.231812 
L 505.772126 220.864952 
L 506.29749 225.696447 
L 506.819473 228.506902 
L 507.335814 229.753125 
L 507.591261 229.942332 
L 507.844664 229.909421 
L 508.345279 229.381403 
L 509.081688 227.934613 
L 510.04085 225.972915 
L 512.132801 222.198636 
L 512.593427 221.760375 
L 513.055537 221.727925 
L 513.287525 221.906939 
L 513.520294 222.254753 
L 513.988535 223.564173 
L 514.460855 225.033988 
L 514.698721 224.399302 
L 514.937842 220.902784 
L 515.178335 212.809759 
L 516.157618 165.75201 
L 516.407986 164.11911 
L 516.661127 163.330249 
L 516.917263 160.920021 
L 517.704846 151.100008 
L 517.97391 151.520781 
L 518.521831 156.089422 
L 518.800635 157.382434 
L 519.082612 157.5703 
L 519.367714 157.317893 
L 519.655899 157.407227 
L 519.94713 158.471155 
L 520.538566 162.096313 
L 520.838675 162.271149 
L 521.141653 160.394183 
L 521.756092 154.886136 
L 522.067489 154.461479 
L 523.017945 158.661523 
L 523.340077 158.443515 
L 523.664847 157.879705 
L 523.992273 157.816266 
L 524.322381 158.475767 
L 524.990712 160.195841 
L 525.328938 160.33361 
L 525.669877 159.644431 
L 526.359932 156.616271 
L 528.857374 144.56023 
L 529.593022 141.759927 
L 529.964389 141.165017 
L 530.33809 141.155066 
L 530.714107 141.677829 
L 531.092393 143.048636 
L 532.238209 148.929903 
L 533.00748 151.290173 
L 533.392621 152.230205 
L 534.162234 155.602887 
L 534.546046 154.907818 
L 535.310245 144.711105 
L 535.690126 142.872219 
L 536.06822 145.696694 
L 536.818434 153.885041 
L 537.190294 155.42152 
L 537.559846 156.049662 
L 537.927059 157.42084 
L 538.291943 160.633372 
L 539.372213 172.664581 
L 539.727319 174.879383 
L 540.079844 176.241999 
L 540.429734 176.951728 
L 540.776924 177.067911 
L 541.121334 176.552397 
L 542.137017 173.797255 
L 542.469732 173.951552 
L 542.799625 175.174321 
L 543.126737 176.936456 
L 543.451082 178.069379 
L 543.772682 177.616729 
L 544.721586 170.760857 
L 545.032825 171.364516 
L 545.341632 174.074361 
L 546.55353 189.195056 
L 547.145879 193.165782 
L 548.017386 196.397789 
L 548.303351 198.930766 
L 548.86866 207.298668 
L 549.701626 219.501659 
L 550.248016 224.927347 
L 550.78726 228.419763 
L 551.319138 230.531517 
L 551.843405 231.807021 
L 552.360204 232.571858 
L 552.870232 232.978921 
L 553.374216 233.117251 
L 554.120422 233.104296 
L 554.612721 232.830582 
L 555.102017 232.234426 
L 555.831752 230.844947 
L 556.557084 228.86827 
L 557.279763 226.935676 
L 557.520096 226.595868 
L 557.759997 226.484882 
L 557.999337 226.639001 
L 558.237978 227.075489 
L 558.712594 228.656333 
L 559.182832 230.153667 
L 559.416117 230.184579 
L 559.64815 229.374808 
L 559.878922 227.600631 
L 560.336643 221.494608 
L 561.01361 208.654569 
L 562.117376 185.321504 
L 562.335173 183.785419 
L 562.552207 184.443023 
L 563.199554 189.526681 
L 563.41445 189.128774 
L 563.84384 184.496128 
L 564.058749 182.304661 
L 564.274106 181.995307 
L 564.49012 183.657648 
L 565.363916 193.140778 
L 567.169649 208.286545 
L 568.087424 217.133328 
L 568.542536 219.554191 
L 568.994682 220.675781 
L 569.445079 221.085799 
L 570.345386 221.369283 
L 570.79728 221.34039 
L 571.02418 221.189776 
L 571.251937 220.811529 
L 571.480731 219.993221 
L 571.710748 218.403168 
L 571.942158 215.615117 
L 572.409816 205.058631 
L 573.368873 176.351283 
L 574.113993 166.872518 
L 575.148539 146.921462 
L 575.414996 145.699375 
L 575.684677 145.080903 
L 575.957599 143.877712 
L 576.513089 138.926664 
L 576.795603 136.132112 
L 577.081255 134.558597 
L 577.370014 134.650175 
L 577.956718 136.475344 
L 578.254584 136.275881 
L 578.555409 135.658779 
L 578.85916 135.451232 
L 579.1658 136.014905 
L 579.787485 137.635006 
L 580.101953 137.718602 
L 580.418243 137.249471 
L 582.013636 132.751599 
L 582.971221 129.152287 
L 583.60598 126.030793 
L 584.23628 122.475824 
L 584.860926 119.590965 
L 585.78497 113.896882 
L 586.390978 111.091395 
L 586.988071 107.514404 
L 587.283096 107.463412 
L 588.153881 112.704701 
L 588.439441 111.373358 
L 589.00371 106.327408 
L 589.559334 103.643633 
L 590.106667 101.083147 
L 590.911834 96.172725 
L 591.437815 94.235065 
L 591.697496 93.694209 
L 591.954874 93.46401 
L 592.209919 93.555235 
L 592.462663 93.863047 
L 592.713207 94.381301 
L 592.961715 95.327349 
L 594.184381 102.056303 
L 594.669708 103.455305 
L 595.400002 104.788113 
L 596.380976 106.493368 
L 597.36516 108.790788 
L 599.514261 114.176831 
L 599.968458 114.895949 
L 600.416581 115.305318 
L 601.080964 115.569512 
L 602.402423 115.744005 
L 602.846602 115.682458 
L 603.294844 115.380428 
L 603.748163 114.723659 
L 604.207589 113.516191 
L 604.439965 112.758181 
L 604.67434 112.426259 
L 605.149788 112.720265 
L 605.391169 112.350744 
L 605.635141 111.75671 
L 605.881771 111.466372 
L 606.131077 111.767985 
L 606.637656 113.217316 
L 606.89489 113.329873 
L 607.41725 112.535247 
L 607.682424 112.598861 
L 607.950319 113.332391 
L 608.494562 116.48466 
L 609.618371 124.703467 
L 610.198125 130.87293 
L 611.090021 144.386876 
L 611.699457 152.81249 
L 612.008653 154.301666 
L 612.320891 153.805633 
L 612.636222 153.062413 
L 612.954684 154.540977 
L 613.276279 159.351354 
L 613.928653 172.291722 
L 614.592537 180.980997 
L 616.292136 198.829978 
L 616.983799 206.903566 
L 617.331737 209.811047 
L 617.681114 211.737532 
L 618.03196 212.825821 
L 618.384288 213.174713 
L 619.093374 212.860624 
L 619.450095 212.976865 
L 619.808234 213.379458 
L 620.890544 214.996756 
L 621.253782 215.265974 
L 621.618311 215.359165 
L 621.984242 215.306769 
L 622.351672 215.092986 
L 622.720678 214.577146 
L 623.091346 213.399782 
L 623.46376 211.023608 
L 623.838012 206.871307 
L 624.592312 192.397298 
L 625.354338 177.081654 
L 625.737837 173.103191 
L 626.508277 168.60669 
L 627.667931 158.662354 
L 628.440276 161.052005 
L 628.82536 159.287596 
L 629.59234 152.237238 
L 629.973961 152.526437 
L 630.733291 158.493427 
L 631.111105 160.138105 
L 631.863296 160.655393 
L 632.2377 162.13391 
L 632.610977 165.301418 
L 633.354262 174.984836 
L 634.0937 188.416668 
L 634.462245 192.752805 
L 634.830182 194.285938 
L 635.197661 193.784153 
L 635.564849 191.501586 
L 635.931936 186.644612 
L 636.299137 176.941523 
L 637.035005 145.41741 
L 637.404157 144.540665 
L 638.145168 171.988624 
L 638.516866 178.300101 
L 639.261528 183.42453 
L 640.751415 197.698386 
L 641.125323 198.78825 
L 641.500397 198.729743 
L 641.876813 197.497053 
L 642.254649 195.169161 
L 643.014739 188.209962 
L 643.780836 178.382235 
L 644.553063 164.498547 
L 645.723478 138.829069 
L 646.116977 132.685776 
L 646.512204 128.930768 
L 646.909178 126.644057 
L 647.307914 125.139582 
L 647.708422 124.242705 
L 648.110711 123.99308 
L 648.514789 124.403931 
L 649.328331 126.555649 
L 650.97709 131.342775 
L 652.232717 134.547046 
L 653.078895 135.836467 
L 653.932344 136.571054 
L 654.79305 136.937719 
L 655.660994 136.946318 
L 656.976424 136.568681 
L 657.862339 136.392963 
L 658.307969 136.43544 
L 658.755373 136.612419 
L 659.204545 137.15568 
L 660.562605 139.819438 
L 661.018786 140.218491 
L 661.476701 140.378725 
L 661.936346 140.734613 
L 662.397712 140.761772 
L 662.860792 139.320067 
L 663.792073 133.931269 
L 664.260266 133.329996 
L 664.730155 134.36282 
L 665.201739 135.703839 
L 666.149962 137.226103 
L 666.626584 138.506899 
L 667.584791 142.661728 
L 668.06636 144.121276 
L 668.549566 144.923534 
L 669.034397 145.316156 
L 669.520808 145.483453 
L 670.008744 145.49867 
L 670.49819 145.35422 
L 670.989142 144.969738 
L 671.4816 144.274844 
L 671.97556 143.240572 
L 672.471022 141.914943 
L 673.966404 136.493854 
L 674.467858 136.741725 
L 674.970807 137.771997 
L 675.475247 136.948913 
L 676.488592 131.158881 
L 676.997491 130.722702 
L 678.019724 133.369175 
L 678.533052 133.533524 
L 679.513182 131.835195 
L 679.513182 131.835195 
" clip-path="url(#pd6446fac52)" style="fill: none; stroke: #2ca02c; stroke-width: 0.9; stroke-linecap: square"/>
   </g>
   <g id="line2d_30">
    <path d="M 85.776818 134.809218 
L 86.814051 134.703176 
L 88.905762 134.835899 
L 91.020262 134.811853 
L 93.695015 134.85768 
L 130.782645 134.917187 
L 135.131521 134.70052 
L 138.27003 134.386214 
L 142.070889 133.736876 
L 147.82926 132.51252 
L 149.106424 131.990146 
L 151.641821 131.401965 
L 152.896607 131.256751 
L 156.592193 131.241155 
L 159.576071 131.808786 
L 161.318131 132.396539 
L 163.020956 133.228304 
L 164.682495 134.399986 
L 165.766383 135.287416 
L 167.875046 137.49895 
L 169.902422 139.916829 
L 171.846004 142.19969 
L 173.247417 143.652399 
L 174.154505 144.249003 
L 174.599853 144.401298 
L 175.903082 144.503118 
L 176.744612 145.15593 
L 177.564463 145.759369 
L 177.966335 145.851096 
L 178.362906 146.12501 
L 178.754244 147.463316 
L 179.140422 150.582731 
L 180.268644 163.367335 
L 180.634793 164.818142 
L 180.996091 164.898978 
L 181.352643 164.44369 
L 181.704577 164.340914 
L 182.05204 165.054843 
L 182.7342 168.302087 
L 183.728265 175.50287 
L 184.052632 176.390398 
L 184.37387 176.29469 
L 184.69221 175.853837 
L 185.007875 175.708629 
L 185.632001 176.514697 
L 185.940851 176.555166 
L 186.247814 175.822264 
L 186.856834 172.239859 
L 187.46072 168.492476 
L 188.359078 164.651299 
L 189.540496 160.775497 
L 190.119669 159.462085 
L 190.688658 158.780447 
L 191.246802 158.598444 
L 192.063882 158.780189 
L 193.632459 159.504582 
L 194.137308 159.827228 
L 194.633525 160.445027 
L 195.12132 161.721999 
L 195.837213 164.847586 
L 196.071284 164.930172 
L 196.303096 164.838153 
L 196.760622 164.847017 
L 196.98684 164.417008 
L 197.435808 162.886771 
L 197.659195 163.24858 
L 198.105004 167.614099 
L 198.550439 171.208023 
L 199.665692 173.960027 
L 199.889008 173.934706 
L 200.112147 173.094999 
L 201.662903 163.508893 
L 202.537585 160.163383 
L 203.402246 157.850828 
L 204.250102 156.102291 
L 204.871534 155.184095 
L 205.482568 154.679562 
L 206.289287 154.364823 
L 206.896514 154.363535 
L 207.306279 154.609729 
L 207.722201 155.280563 
L 208.145905 156.681399 
L 208.361123 156.701195 
L 209.022178 153.727208 
L 209.248206 153.287318 
L 209.477314 151.772723 
L 209.945097 143.308822 
L 210.183852 139.173263 
L 210.425884 137.875178 
L 210.671225 138.599334 
L 210.919897 138.913796 
L 211.17191 137.518606 
L 211.685955 133.44545 
L 211.947982 133.559729 
L 212.482043 135.949826 
L 212.754052 136.161759 
L 213.029336 135.835974 
L 213.307857 135.836357 
L 213.58958 136.624366 
L 214.162486 138.970477 
L 214.747727 140.205553 
L 216.865465 144.237082 
L 217.478379 145.030836 
L 217.784629 145.712521 
L 219.003263 150.239398 
L 219.606175 150.739041 
L 219.905534 151.825082 
L 220.499928 156.518083 
L 221.088697 161.038722 
L 221.381062 162.04508 
L 222.250717 163.46087 
L 222.824875 165.321468 
L 224.246227 171.260328 
L 224.529356 171.467976 
L 224.812525 171.030772 
L 225.948766 167.34728 
L 226.807257 166.403251 
L 227.382168 164.217875 
L 228.535095 159.937552 
L 229.694194 156.442802 
L 230.279631 155.206481 
L 230.870808 154.455726 
L 231.468645 154.18362 
L 231.770292 154.257495 
L 232.073852 154.511337 
L 232.379406 154.988818 
L 232.996805 156.437055 
L 233.308821 155.312128 
L 233.94005 149.637936 
L 234.581091 147.134771 
L 234.905271 143.248143 
L 235.560997 129.112844 
L 235.892557 126.086966 
L 236.226567 126.732292 
L 236.901851 130.488515 
L 237.243105 131.121236 
L 237.586753 132.293452 
L 237.932711 135.539789 
L 238.630751 144.621639 
L 238.982315 147.340542 
L 239.335246 148.657103 
L 239.689343 149.530489 
L 240.044431 150.763564 
L 241.114167 155.689994 
L 241.830006 157.761893 
L 242.188559 156.406963 
L 242.547571 153.330167 
L 242.907132 152.856855 
L 243.267299 158.678663 
L 243.628046 166.597865 
L 243.989299 171.398913 
L 244.350958 172.826677 
L 244.712914 172.423649 
L 246.162418 168.302493 
L 247.979934 160.835912 
L 248.709623 159.139584 
L 249.441169 157.996693 
L 250.541042 156.732649 
L 251.275572 156.127492 
L 252.380392 155.577542 
L 253.120625 155.364247 
L 253.865551 155.399015 
L 254.240268 155.624507 
L 254.616731 156.103094 
L 254.995077 156.914368 
L 255.375394 156.210388 
L 255.75774 150.508687 
L 256.14217 142.952797 
L 256.52875 142.316474 
L 256.917532 146.536463 
L 257.308541 147.413963 
L 257.701744 139.598533 
L 258.494033 112.056614 
L 258.892556 105.451914 
L 259.692496 98.927028 
L 260.092978 94.060924 
L 261.689775 68.39591 
L 262.086888 64.963711 
L 262.483227 62.791427 
L 262.878875 61.672873 
L 263.2739 61.497212 
L 263.668365 62.145829 
L 264.455854 65.078668 
L 265.241884 69.188906 
L 265.634604 71.36464 
L 266.027295 72.689278 
L 266.420056 72.364406 
L 266.812962 70.899519 
L 267.206109 69.878707 
L 267.599608 70.694166 
L 267.993576 73.788319 
L 268.783409 83.402092 
L 269.17949 85.942929 
L 269.576454 85.228708 
L 270.773031 76.99981 
L 271.5751 74.925188 
L 271.97708 72.650859 
L 273.992503 56.587696 
L 274.800635 52.631007 
L 275.610442 49.980778 
L 276.016183 49.140838 
L 276.422576 48.661667 
L 276.829688 48.652403 
L 277.237589 49.294329 
L 277.646352 50.75258 
L 278.466839 55.942524 
L 279.706435 64.42493 
L 280.539701 69.619392 
L 280.958359 73.216656 
L 281.378153 78.393507 
L 282.220188 94.241006 
L 282.641853 102.056564 
L 283.0636 104.167135 
L 283.485191 99.890467 
L 283.906402 94.087199 
L 284.327033 90.263318 
L 284.746957 89.378075 
L 285.166158 91.097049 
L 286.002725 98.338427 
L 286.420378 103.424377 
L 287.255125 117.282712 
L 287.672459 120.781551 
L 288.089927 121.985839 
L 288.507642 124.198137 
L 288.925704 129.502987 
L 290.182871 153.406985 
L 291.868114 172.290832 
L 292.290228 174.579447 
L 292.712137 174.788076 
L 293.133601 173.363002 
L 294.811887 164.577953 
L 295.644363 161.760044 
L 296.470619 159.637309 
L 297.289789 158.104267 
L 298.504585 156.477955 
L 299.703453 155.28047 
L 301.279965 154.082218 
L 302.06013 153.649955 
L 302.8353 153.394174 
L 304.370914 153.305122 
L 305.888977 153.363714 
L 306.643261 153.617633 
L 307.395268 154.309574 
L 308.517967 156.034283 
L 309.631414 157.817304 
L 311.100091 159.733729 
L 312.556417 162.916623 
L 313.282275 164.37049 
L 314.007063 164.974764 
L 314.369115 165.093408 
L 314.730985 165.042576 
L 315.092721 164.80137 
L 316.903537 162.79785 
L 317.631844 161.571201 
L 317.997503 161.751881 
L 318.731923 163.81656 
L 319.100497 164.414125 
L 319.469785 164.715833 
L 319.839606 164.868552 
L 320.20984 164.889275 
L 320.580527 164.691527 
L 320.951799 164.220818 
L 322.446708 161.499825 
L 323.202749 160.605483 
L 323.583328 159.816686 
L 323.965591 158.289712 
L 324.349381 155.907468 
L 325.120256 148.980232 
L 325.506748 143.741249 
L 327.055846 114.170789 
L 327.83026 107.581534 
L 328.603063 101.185487 
L 329.372917 94.186673 
L 329.75634 93.216751 
L 330.138631 94.011761 
L 330.899647 97.005459 
L 331.278363 98.08755 
L 331.655931 98.806563 
L 332.032412 98.956918 
L 332.407851 98.185444 
L 333.528056 93.545054 
L 333.899473 90.746442 
L 334.269726 85.567595 
L 335.370989 66.764121 
L 335.734404 63.484264 
L 336.45546 60.22201 
L 336.813212 58.804436 
L 337.523862 54.416859 
L 338.580103 46.249372 
L 339.278116 42.881614 
L 339.971252 41.108119 
L 340.659758 40.113077 
L 341.343822 39.591617 
L 342.024188 39.556313 
L 342.363313 39.711122 
L 343.039932 40.394351 
L 346.402285 44.330957 
L 347.076233 45.721323 
L 347.75366 47.699661 
L 348.43616 50.708414 
L 348.779817 52.968719 
L 349.125296 56.106648 
L 349.472747 60.65334 
L 349.82229 67.316508 
L 350.527921 88.803912 
L 351.242332 112.599215 
L 351.602779 119.284446 
L 352.330102 127.11917 
L 353.437187 147.000728 
L 353.810488 149.2354 
L 354.185914 148.973498 
L 354.943119 146.926453 
L 355.324882 146.782942 
L 355.708743 146.798312 
L 356.094695 146.270644 
L 356.482729 144.939075 
L 357.659278 139.836088 
L 359.25684 135.266917 
L 360.067815 132.957577 
L 360.88581 131.481288 
L 363.355498 127.804254 
L 366.599714 123.630528 
L 368.938562 121.398997 
L 370.06634 121.006305 
L 370.800817 120.635767 
L 371.520764 120.511806 
L 371.87518 120.196645 
L 372.225846 119.263461 
L 372.915807 116.412421 
L 373.255056 115.550864 
L 373.590469 115.199833 
L 373.922046 114.615117 
L 374.249807 113.000017 
L 374.894227 106.353799 
L 375.524696 98.698091 
L 375.834995 96.248681 
L 376.142104 95.230469 
L 376.446086 95.646381 
L 376.747015 96.891285 
L 377.044987 97.504466 
L 377.340123 96.525913 
L 377.922445 91.086788 
L 379.890418 71.166987 
L 380.164423 69.549763 
L 380.708542 68.581504 
L 380.978833 66.435898 
L 381.515923 56.046636 
L 382.04835 46.318726 
L 382.575347 41.290706 
L 383.0959 39.017145 
L 383.609637 37.90181 
L 384.116515 37.327116 
L 384.863745 36.981278 
L 385.595387 36.841818 
L 386.074648 36.923645 
L 386.779838 37.307312 
L 388.35792 38.237591 
L 389.433792 38.814373 
L 389.855602 39.330949 
L 391.107085 41.166557 
L 391.524155 41.697181 
L 391.943205 42.612146 
L 392.365039 44.160218 
L 393.003771 47.502017 
L 393.650999 51.922634 
L 394.08835 56.172329 
L 394.531382 62.390464 
L 395.670177 80.680103 
L 396.379323 89.427597 
L 397.111078 98.933806 
L 397.612529 102.521409 
L 398.125384 105.180532 
L 398.916504 111.252156 
L 399.73414 117.648791 
L 401.155615 125.976111 
L 402.043116 128.744535 
L 402.648906 129.933824 
L 403.265825 130.326451 
L 403.893728 130.463399 
L 404.532472 130.388122 
L 405.181911 130.32331 
L 405.841899 130.129194 
L 407.192915 130.775999 
L 407.53704 131.049321 
L 408.232858 132.055119 
L 410.006978 135.316096 
L 410.722305 137.141681 
L 411.436958 138.676818 
L 412.503138 141.286378 
L 413.90459 144.259379 
L 416.922506 149.047149 
L 417.561686 151.440199 
L 418.18856 153.864119 
L 418.497406 154.678643 
L 418.803225 155.806263 
L 419.106041 157.764869 
L 420.287296 168.676416 
L 420.575025 169.596819 
L 420.859697 169.724934 
L 421.141318 169.641157 
L 421.419899 169.764915 
L 421.695466 170.22779 
L 423.289741 174.446384 
L 423.546552 174.660453 
L 424.053136 174.663063 
L 424.302981 175.030656 
L 424.795957 176.409513 
L 425.039141 176.565046 
L 425.280194 176.018932 
L 425.756159 173.537819 
L 426.456082 169.556763 
L 427.140616 166.955399 
L 428.029376 164.401049 
L 429.11141 162.055836 
L 430.387321 159.754346 
L 431.23241 158.771995 
L 432.265485 157.941826 
L 432.863107 157.732928 
L 437.803166 157.280337 
L 439.543765 157.345038 
L 440.728417 157.742595 
L 441.940628 157.537983 
L 442.561393 158.166413 
L 443.193156 158.65506 
L 444.7142 159.444657 
L 445.392086 159.763158 
L 445.622455 159.758492 
L 445.855277 159.564005 
L 446.090692 159.094078 
L 446.569767 157.299844 
L 447.563446 151.933725 
L 449.148172 142.027839 
L 450.553931 136.894855 
L 450.844095 136.589496 
L 451.732206 135.111714 
L 452.646285 134.614523 
L 453.269708 133.762038 
L 453.585319 133.551265 
L 454.222669 133.40163 
L 454.543572 133.133654 
L 456.156182 130.749633 
L 457.757265 126.632839 
L 458.388442 124.220599 
L 459.012344 121.752868 
L 459.932455 119.105649 
L 460.534328 117.916084 
L 461.126491 117.418594 
L 461.418869 116.703082 
L 461.708753 115.317058 
L 462.280942 110.709857 
L 463.120175 102.973604 
L 463.937811 97.193143 
L 465.520096 80.840516 
L 466.292011 70.908335 
L 467.311833 62.418354 
L 467.821481 58.623453 
L 468.077168 57.591093 
L 468.591109 56.647327 
L 468.849385 55.513911 
L 469.36795 51.257184 
L 469.8872 46.740219 
L 470.403632 44.130219 
L 470.659804 43.578165 
L 470.914311 43.376483 
L 471.167043 43.407238 
L 471.667152 43.836474 
L 473.132112 45.727573 
L 473.854236 46.599731 
L 474.334291 46.820406 
L 474.814275 46.698484 
L 475.295104 46.224801 
L 476.262502 44.981914 
L 476.506152 45.256003 
L 476.750773 46.362132 
L 476.996513 48.805624 
L 477.243535 53.085762 
L 477.742113 67.713016 
L 478.504182 92.300676 
L 479.555264 108.767554 
L 480.098576 123.1067 
L 480.374958 127.207349 
L 480.654539 128.253648 
L 480.937317 128.342354 
L 481.223263 129.609189 
L 481.804513 135.48855 
L 482.09975 137.064073 
L 482.398015 137.078541 
L 482.699274 136.666088 
L 483.003497 136.800998 
L 483.620705 138.159801 
L 483.93363 138.331428 
L 484.249397 138.011045 
L 484.889339 137.033577 
L 485.213461 136.895625 
L 485.869873 136.957355 
L 486.874533 136.089219 
L 487.214668 136.129078 
L 488.25049 136.774874 
L 488.952593 137.017581 
L 489.305935 137.393689 
L 490.370433 138.969276 
L 491.08054 139.784885 
L 492.491735 141.881818 
L 493.534879 142.898629 
L 494.559216 143.680087 
L 495.229638 144.17224 
L 495.888948 144.336276 
L 496.214193 144.668262 
L 496.855494 146.066297 
L 497.793757 149.054343 
L 498.100133 150.852811 
L 499.000317 159.874645 
L 499.294113 161.358473 
L 500.157168 162.866146 
L 501.539743 169.359878 
L 502.077685 172.462212 
L 502.344539 173.358872 
L 502.610281 173.695123 
L 503.402903 173.729599 
L 503.929319 173.960721 
L 504.19237 173.706107 
L 504.455455 173.043325 
L 504.981993 170.641026 
L 506.035092 165.133433 
L 507.335814 160.042281 
L 508.345279 156.987547 
L 509.32374 154.839866 
L 509.803264 154.234825 
L 510.277084 153.919661 
L 510.978668 153.78299 
L 513.055537 153.82514 
L 514.460855 153.48403 
L 514.698721 153.604173 
L 514.937842 153.924107 
L 515.178335 154.531539 
L 515.420353 155.53753 
L 515.664082 155.697612 
L 516.157618 153.207286 
L 516.407986 153.554393 
L 516.661127 154.11059 
L 516.917263 153.624057 
L 517.704846 148.523875 
L 517.97391 149.147945 
L 518.521831 153.131538 
L 518.800635 154.169848 
L 519.082612 154.275887 
L 519.367714 154.020996 
L 519.655899 154.034019 
L 519.94713 154.790503 
L 520.538566 157.234513 
L 520.838675 157.192653 
L 521.141653 155.738756 
L 521.756092 151.691584 
L 522.067489 151.465566 
L 523.017945 154.909178 
L 523.340077 154.774939 
L 523.664847 154.378063 
L 523.992273 154.360957 
L 524.990712 156.114343 
L 525.328938 156.15559 
L 525.669877 155.59441 
L 526.359932 153.311057 
L 529.593022 141.398229 
L 529.964389 140.88221 
L 530.33809 140.908182 
L 530.714107 141.436276 
L 531.092393 142.771295 
L 532.238209 148.360619 
L 533.00748 150.496744 
L 533.392621 151.328067 
L 534.162234 154.306954 
L 534.546046 153.657055 
L 535.310245 144.369013 
L 535.690126 142.663613 
L 536.06822 145.399523 
L 536.818434 153.201926 
L 537.190294 154.656139 
L 537.559846 155.2526 
L 537.927059 156.515693 
L 538.291943 159.399798 
L 539.014574 166.601805 
L 539.372213 168.899392 
L 539.727319 170.157906 
L 540.079844 170.70003 
L 540.429734 170.772904 
L 540.776924 170.487517 
L 541.121334 169.865512 
L 541.801411 168.166764 
L 542.137017 167.66667 
L 542.469732 167.706875 
L 542.799625 168.436112 
L 543.126737 169.470036 
L 543.451082 170.08831 
L 543.772682 169.779202 
L 544.721586 165.591129 
L 545.032825 166.115136 
L 545.648063 170.422284 
L 546.253981 174.380641 
L 546.55353 175.310014 
L 546.850831 175.627821 
L 547.145879 175.528482 
L 548.017386 174.479962 
L 548.303351 174.301739 
L 548.587086 173.990521 
L 548.86866 173.215257 
L 550.518546 165.945254 
L 551.582229 163.069148 
L 553.374216 159.098187 
L 555.102017 155.51868 
L 555.831752 154.419235 
L 556.557084 153.768173 
L 556.7982 153.68044 
L 557.039105 153.720371 
L 557.520096 154.196881 
L 558.237978 155.524527 
L 560.336643 159.922914 
L 560.789233 161.480989 
L 561.679146 164.931961 
L 562.335173 165.907415 
L 563.199554 169.697997 
L 563.41445 169.576158 
L 563.629147 168.923937 
L 564.058749 167.076742 
L 564.274106 167.019518 
L 565.143776 169.497099 
L 565.363916 169.48297 
L 565.807919 168.979965 
L 566.257162 167.857794 
L 567.169649 164.406932 
L 568.542536 159.101472 
L 569.445079 156.376364 
L 569.895003 155.482299 
L 570.345386 154.920517 
L 570.79728 154.604483 
L 571.251937 154.518012 
L 571.710748 154.733342 
L 572.175128 155.419003 
L 572.884964 157.214486 
L 573.125741 157.119231 
L 573.368873 156.883757 
L 573.862854 156.772022 
L 574.113993 155.9659 
L 574.368054 153.89609 
L 575.148539 145.039019 
L 575.414996 144.274021 
L 575.684677 143.930084 
L 575.957599 143.017897 
L 576.233745 141.240802 
L 576.795603 136.071073 
L 577.081255 134.567233 
L 577.370014 134.654094 
L 577.956718 136.447646 
L 578.254584 136.257161 
L 578.555409 135.650671 
L 578.85916 135.446548 
L 579.1658 136.007521 
L 579.787485 137.616319 
L 580.101953 137.69747 
L 580.418243 137.231249 
L 582.013636 132.755152 
L 582.971221 129.133297 
L 583.60598 125.963699 
L 584.549379 120.872766 
L 585.170791 117.197949 
L 585.78497 113.089966 
L 586.390978 109.84788 
L 586.988071 105.523528 
L 587.283096 105.319609 
L 587.575732 107.358069 
L 587.865986 110.198681 
L 588.153881 111.36092 
L 588.439441 109.88436 
L 589.282568 101.883127 
L 589.834039 98.918209 
L 590.377188 93.956022 
L 592.713207 66.648592 
L 593.453791 54.736353 
L 593.941462 50.534404 
L 594.184381 49.70141 
L 595.156036 47.925434 
L 595.644566 45.384675 
L 596.380976 41.202847 
L 596.873117 39.947089 
L 597.36516 39.483088 
L 597.855519 39.398703 
L 598.340974 39.57718 
L 598.817737 40.180189 
L 599.514261 41.777308 
L 600.860263 44.997836 
L 601.301187 45.750292 
L 601.741028 46.049084 
L 602.181478 45.866834 
L 602.624078 45.547762 
L 602.846602 45.7038 
L 603.070148 46.398305 
L 603.294844 47.846722 
L 603.748163 53.639428 
L 604.207589 65.05153 
L 604.910892 89.255093 
L 605.149788 93.902492 
L 605.391169 95.925088 
L 605.881771 98.015401 
L 606.637656 104.874736 
L 606.89489 105.714779 
L 607.154749 105.540822 
L 607.41725 105.215235 
L 607.682424 105.528644 
L 607.950319 106.846094 
L 608.494562 111.882145 
L 610.198125 130.559247 
L 611.699457 152.601857 
L 612.008653 153.582521 
L 612.636222 151.782673 
L 612.954684 152.87751 
L 613.928653 165.111491 
L 614.25923 166.924727 
L 614.592537 167.55176 
L 614.928361 167.514589 
L 615.266448 167.040948 
L 615.948522 165.14258 
L 617.681114 158.564017 
L 618.384288 156.963243 
L 619.093374 156.165871 
L 619.808234 155.838543 
L 620.890544 155.631036 
L 622.351672 155.667521 
L 623.091346 155.792497 
L 623.46376 155.964375 
L 623.838012 156.305635 
L 624.592312 157.470769 
L 624.972412 157.559545 
L 625.354338 157.331114 
L 625.737837 157.436677 
L 626.122591 157.953131 
L 626.508277 158.174232 
L 626.894588 157.375713 
L 627.281233 155.629048 
L 627.667931 154.913143 
L 628.440276 157.77857 
L 628.82536 156.686414 
L 629.59234 151.089833 
L 629.973961 151.470542 
L 630.733291 156.849016 
L 631.111105 158.261028 
L 631.863296 158.64919 
L 632.2377 159.845694 
L 632.983147 165.461229 
L 633.724413 172.450179 
L 634.0937 174.390414 
L 634.462245 174.223694 
L 635.197661 171.08622 
L 635.931936 167.107833 
L 636.299137 163.303447 
L 636.666729 155.086414 
L 637.035005 144.121736 
L 637.404157 143.432097 
L 638.145168 164.075697 
L 638.516866 168.003531 
L 639.261528 170.589365 
L 639.633856 171.440511 
L 640.006045 171.361379 
L 640.378425 170.120565 
L 641.500397 164.684808 
L 642.254649 162.247415 
L 643.014739 160.812123 
L 643.397034 160.204764 
L 643.780836 159.379425 
L 644.166168 157.945797 
L 644.553063 155.338266 
L 644.941555 151.014692 
L 646.116977 132.791202 
L 646.512204 129.197352 
L 646.909178 126.88376 
L 647.307914 125.262275 
L 647.708422 124.213885 
L 648.110711 123.824511 
L 648.514789 124.145651 
L 648.92066 125.057878 
L 651.812356 133.587098 
L 652.654897 135.274895 
L 653.504711 136.26348 
L 654.361791 136.796289 
L 655.226119 136.974587 
L 656.097673 136.844204 
L 657.862339 136.384962 
L 658.307969 136.42744 
L 658.755373 136.603669 
L 659.204545 137.143859 
L 660.562605 139.777562 
L 661.018786 140.16401 
L 661.476701 140.313401 
L 661.936346 140.654552 
L 662.397712 140.67169 
L 662.860792 139.251543 
L 663.792073 133.942244 
L 664.260266 133.342829 
L 664.730155 134.36327 
L 665.201739 135.69751 
L 666.149962 137.218712 
L 666.626584 138.49522 
L 667.584791 142.598642 
L 668.06636 144.002697 
L 668.549566 144.741435 
L 669.034397 145.072557 
L 669.520808 145.186159 
L 670.008744 145.158985 
L 670.49819 144.98766 
L 670.989142 144.599169 
L 671.4816 143.92806 
L 671.97556 142.943962 
L 672.471022 141.685392 
L 673.966404 136.462595 
L 674.467858 136.711797 
L 674.970807 137.73359 
L 675.475247 136.927393 
L 676.488592 131.174532 
L 676.997491 130.72628 
L 678.019724 133.365701 
L 678.533052 133.529817 
L 679.513182 131.819534 
L 679.513182 131.819534 
" clip-path="url(#pd6446fac52)" style="fill: none; stroke: #d62728; stroke-opacity: 0.8; stroke-width: 0.9; stroke-linecap: square"/>
   </g>
   <g id="patch_3">
    <path d="M 56.09 246.04 
L 56.09 26.88 
" style="fill: none; stroke: #000000; stroke-width: 0.8; stroke-linejoin: miter; stroke-linecap: square"/>
   </g>
   <g id="patch_4">
    <path d="M 709.2 246.04 
L 709.2 26.88 
" style="fill: none; stroke: #000000; stroke-width: 0.8; stroke-linejoin: miter; stroke-linecap: square"/>
   </g>
   <g id="patch_5">
    <path d="M 56.09 246.04 
L 709.2 246.04 
" style="fill: none; stroke: #000000; stroke-width: 0.8; stroke-linejoin: miter; stroke-linecap: square"/>
   </g>
   <g id="patch_6">
    <path d="M 56.09 26.88 
L 709.2 26.88 
" style="fill: none; stroke: #000000; stroke-width: 0.8; stroke-linejoin: miter; stroke-linecap: square"/>
   </g>
   <g id="text_17">
    <!-- steering-link loads over one Ring Knutstorp lap -->
    <g transform="translate(241.40875 20.88) scale(0.12 -0.12)">
     <defs>
      <path id="DejaVuSans-67" d="M 2906 1791 
Q 2906 2416 2648 2759 
Q 2391 3103 1925 3103 
Q 1463 3103 1205 2759 
Q 947 2416 947 1791 
Q 947 1169 1205 825 
Q 1463 481 1925 481 
Q 2391 481 2648 825 
Q 2906 1169 2906 1791 
z
M 3481 434 
Q 3481 -459 3084 -895 
Q 2688 -1331 1869 -1331 
Q 1566 -1331 1297 -1286 
Q 1028 -1241 775 -1147 
L 775 -588 
Q 1028 -725 1275 -790 
Q 1522 -856 1778 -856 
Q 2344 -856 2625 -561 
Q 2906 -266 2906 331 
L 2906 616 
Q 2728 306 2450 153 
Q 2172 0 1784 0 
Q 1141 0 747 490 
Q 353 981 353 1791 
Q 353 2603 747 3093 
Q 1141 3584 1784 3584 
Q 2172 3584 2450 3431 
Q 2728 3278 2906 2969 
L 2906 3500 
L 3481 3500 
L 3481 434 
z
" transform="scale(0.015625)"/>
      <path id="DejaVuSans-6c" d="M 603 4863 
L 1178 4863 
L 1178 0 
L 603 0 
L 603 4863 
z
" transform="scale(0.015625)"/>
      <path id="DejaVuSans-76" d="M 191 3500 
L 800 3500 
L 1894 563 
L 2988 3500 
L 3597 3500 
L 2284 0 
L 1503 0 
L 191 3500 
z
" transform="scale(0.015625)"/>
      <path id="DejaVuSans-52" d="M 2841 2188 
Q 3044 2119 3236 1894 
Q 3428 1669 3622 1275 
L 4263 0 
L 3584 0 
L 2988 1197 
Q 2756 1666 2539 1819 
Q 2322 1972 1947 1972 
L 1259 1972 
L 1259 0 
L 628 0 
L 628 4666 
L 2053 4666 
Q 2853 4666 3247 4331 
Q 3641 3997 3641 3322 
Q 3641 2881 3436 2590 
Q 3231 2300 2841 2188 
z
M 1259 4147 
L 1259 2491 
L 2053 2491 
Q 2509 2491 2742 2702 
Q 2975 2913 2975 3322 
Q 2975 3731 2742 3939 
Q 2509 4147 2053 4147 
L 1259 4147 
z
" transform="scale(0.015625)"/>
      <path id="DejaVuSans-4b" d="M 628 4666 
L 1259 4666 
L 1259 2694 
L 3353 4666 
L 4166 4666 
L 1850 2491 
L 4331 0 
L 3500 0 
L 1259 2247 
L 1259 0 
L 628 0 
L 628 4666 
z
" transform="scale(0.015625)"/>
      <path id="DejaVuSans-75" d="M 544 1381 
L 544 3500 
L 1119 3500 
L 1119 1403 
Q 1119 906 1312 657 
Q 1506 409 1894 409 
Q 2359 409 2629 706 
Q 2900 1003 2900 1516 
L 2900 3500 
L 3475 3500 
L 3475 0 
L 2900 0 
L 2900 538 
Q 2691 219 2414 64 
Q 2138 -91 1772 -91 
Q 1169 -91 856 284 
Q 544 659 544 1381 
z
M 1991 3584 
L 1991 3584 
z
" transform="scale(0.015625)"/>
      <path id="DejaVuSans-70" d="M 1159 525 
L 1159 -1331 
L 581 -1331 
L 581 3500 
L 1159 3500 
L 1159 2969 
Q 1341 3281 1617 3432 
Q 1894 3584 2278 3584 
Q 2916 3584 3314 3078 
Q 3713 2572 3713 1747 
Q 3713 922 3314 415 
Q 2916 -91 2278 -91 
Q 1894 -91 1617 61 
Q 1341 213 1159 525 
z
M 3116 1747 
Q 3116 2381 2855 2742 
Q 2594 3103 2138 3103 
Q 1681 3103 1420 2742 
Q 1159 2381 1159 1747 
Q 1159 1113 1420 752 
Q 1681 391 2138 391 
Q 2594 391 2855 752 
Q 3116 1113 3116 1747 
z
" transform="scale(0.015625)"/>
     </defs>
     <use xlink:href="#DejaVuSans-73"/>
     <use xlink:href="#DejaVuSans-74" transform="translate(52.099609 0)"/>
     <use xlink:href="#DejaVuSans-65" transform="translate(91.308594 0)"/>
     <use xlink:href="#DejaVuSans-65" transform="translate(152.832031 0)"/>
     <use xlink:href="#DejaVuSans-72" transform="translate(214.355469 0)"/>
     <use xlink:href="#DejaVuSans-69" transform="translate(255.46875 0)"/>
     <use xlink:href="#DejaVuSans-6e" transform="translate(283.251953 0)"/>
     <use xlink:href="#DejaVuSans-67" transform="translate(346.630859 0)"/>
     <use xlink:href="#DejaVuSans-2d" transform="translate(410.107422 0)"/>
     <use xlink:href="#DejaVuSans-6c" transform="translate(446.191406 0)"/>
     <use xlink:href="#DejaVuSans-69" transform="translate(473.974609 0)"/>
     <use xlink:href="#DejaVuSans-6e" transform="translate(501.757812 0)"/>
     <use xlink:href="#DejaVuSans-6b" transform="translate(565.136719 0)"/>
     <use xlink:href="#DejaVuSans-20" transform="translate(623.046875 0)"/>
     <use xlink:href="#DejaVuSans-6c" transform="translate(654.833984 0)"/>
     <use xlink:href="#DejaVuSans-6f" transform="translate(682.617188 0)"/>
     <use xlink:href="#DejaVuSans-61" transform="translate(743.798828 0)"/>
     <use xlink:href="#DejaVuSans-64" transform="translate(805.078125 0)"/>
     <use xlink:href="#DejaVuSans-73" transform="translate(868.554688 0)"/>
     <use xlink:href="#DejaVuSans-20" transform="translate(920.654297 0)"/>
     <use xlink:href="#DejaVuSans-6f" transform="translate(952.441406 0)"/>
     <use xlink:href="#DejaVuSans-76" transform="translate(1013.623047 0)"/>
     <use xlink:href="#DejaVuSans-65" transform="translate(1072.802734 0)"/>
     <use xlink:href="#DejaVuSans-72" transform="translate(1134.326172 0)"/>
     <use xlink:href="#DejaVuSans-20" transform="translate(1175.439453 0)"/>
     <use xlink:href="#DejaVuSans-6f" transform="translate(1207.226562 0)"/>
     <use xlink:href="#DejaVuSans-6e" transform="translate(1268.408203 0)"/>
     <use xlink:href="#DejaVuSans-65" transform="translate(1331.787109 0)"/>
     <use xlink:href="#DejaVuSans-20" transform="translate(1393.310547 0)"/>
     <use xlink:href="#DejaVuSans-52" transform="translate(1425.097656 0)"/>
     <use xlink:href="#DejaVuSans-69" transform="translate(1494.580078 0)"/>
     <use xlink:href="#DejaVuSans-6e" transform="translate(1522.363281 0)"/>
     <use xlink:href="#DejaVuSans-67" transform="translate(1585.742188 0)"/>
     <use xlink:href="#DejaVuSans-20" transform="translate(1649.21875 0)"/>
     <use xlink:href="#DejaVuSans-4b" transform="translate(1681.005859 0)"/>
     <use xlink:href="#DejaVuSans-6e" transform="translate(1746.582031 0)"/>
     <use xlink:href="#DejaVuSans-75" transform="translate(1809.960938 0)"/>
     <use xlink:href="#DejaVuSans-74" transform="translate(1873.339844 0)"/>
     <use xlink:href="#DejaVuSans-73" transform="translate(1912.548828 0)"/>
     <use xlink:href="#DejaVuSans-74" transform="translate(1964.648438 0)"/>
     <use xlink:href="#DejaVuSans-6f" transform="translate(2003.857422 0)"/>
     <use xlink:href="#DejaVuSans-72" transform="translate(2065.039062 0)"/>
     <use xlink:href="#DejaVuSans-70" transform="translate(2106.152344 0)"/>
     <use xlink:href="#DejaVuSans-20" transform="translate(2169.628906 0)"/>
     <use xlink:href="#DejaVuSans-6c" transform="translate(2201.416016 0)"/>
     <use xlink:href="#DejaVuSans-61" transform="translate(2229.199219 0)"/>
     <use xlink:href="#DejaVuSans-70" transform="translate(2290.478516 0)"/>
    </g>
   </g>
   <g id="legend_1">
    <g id="patch_7">
     <path d="M 630.755 56.765 
L 703.6 56.765 
Q 705.2 56.765 705.2 55.165 
L 705.2 32.48 
Q 705.2 30.88 703.6 30.88 
L 630.755 30.88 
Q 629.155 30.88 629.155 32.48 
L 629.155 55.165 
Q 629.155 56.765 630.755 56.765 
z
" style="fill: #ffffff; opacity: 0.8; stroke: #cccccc; stroke-linejoin: miter"/>
    </g>
    <g id="line2d_31">
     <path d="M 632.355 37.35875 
L 640.355 37.35875 
L 648.355 37.35875 
" style="fill: none; stroke: #2ca02c; stroke-width: 0.9; stroke-linecap: square"/>
    </g>
    <g id="text_18">
     <!-- tie rod left -->
     <g transform="translate(654.755 40.15875) scale(0.08 -0.08)">
      <use xlink:href="#DejaVuSans-74"/>
      <use xlink:href="#DejaVuSans-69" transform="translate(39.208984 0)"/>
      <use xlink:href="#DejaVuSans-65" transform="translate(66.992188 0)"/>
      <use xlink:href="#DejaVuSans-20" transform="translate(128.515625 0)"/>
      <use xlink:href="#DejaVuSans-72" transform="translate(160.302734 0)"/>
      <use xlink:href="#DejaVuSans-6f" transform="translate(199.166016 0)"/>
      <use xlink:href="#DejaVuSans-64" transform="translate(260.347656 0)"/>
      <use xlink:href="#DejaVuSans-20" transform="translate(323.824219 0)"/>
      <use xlink:href="#DejaVuSans-6c" transform="translate(355.611328 0)"/>
      <use xlink:href="#DejaVuSans-65" transform="translate(383.394531 0)"/>
      <use xlink:href="#DejaVuSans-66" transform="translate(444.917969 0)"/>
      <use xlink:href="#DejaVuSans-74" transform="translate(478.373047 0)"/>
     </g>
    </g>
    <g id="line2d_32">
     <path d="M 632.355 49.10125 
L 640.355 49.10125 
L 648.355 49.10125 
" style="fill: none; stroke: #d62728; stroke-opacity: 0.8; stroke-width: 0.9; stroke-linecap: square"/>
    </g>
    <g id="text_19">
     <!-- tie rod right -->
     <g transform="translate(654.755 51.90125) scale(0.08 -0.08)">
      <defs>
       <path id="DejaVuSans-68" d="M 3513 2113 
L 3513 0 
L 2938 0 
L 2938 2094 
Q 2938 2591 2744 2837 
Q 2550 3084 2163 3084 
Q 1697 3084 1428 2787 
Q 1159 2491 1159 1978 
L 1159 0 
L 581 0 
L 581 4863 
L 1159 4863 
L 1159 2956 
Q 1366 3272 1645 3428 
Q 1925 3584 2291 3584 
Q 2894 3584 3203 3211 
Q 3513 2838 3513 2113 
z
" transform="scale(0.015625)"/>
      </defs>
      <use xlink:href="#DejaVuSans-74"/>
      <use xlink:href="#DejaVuSans-69" transform="translate(39.208984 0)"/>
      <use xlink:href="#DejaVuSans-65" transform="translate(66.992188 0)"/>
      <use xlink:href="#DejaVuSans-20" transform="translate(128.515625 0)"/>
      <use xlink:href="#DejaVuSans-72" transform="translate(160.302734 0)"/>
      <use xlink:href="#DejaVuSans-6f" transform="translate(199.166016 0)"/>
      <use xlink:href="#DejaVuSans-64" transform="translate(260.347656 0)"/>
      <use xlink:href="#DejaVuSans-20" transform="translate(323.824219 0)"/>
      <use xlink:href="#DejaVuSans-72" transform="translate(355.611328 0)"/>
      <use xlink:href="#DejaVuSans-69" transform="translate(396.724609 0)"/>
      <use xlink:href="#DejaVuSans-67" transform="translate(424.507812 0)"/>
      <use xlink:href="#DejaVuSans-68" transform="translate(487.984375 0)"/>
      <use xlink:href="#DejaVuSans-74" transform="translate(551.363281 0)"/>
     </g>
    </g>
   </g>
  </g>
 </g>
 <defs>
  <clipPath id="pd6446fac52">
   <rect x="56.09" y="26.88" width="653.11" height="219.16"/>
  </clipPath>
 </defs>
</svg>
