<?xml version="1.0" encoding="utf-8" standalone="no"?>
<!DOCTYPE svg PUBLIC "-//W3C//DTD SVG 1.1//EN"
  "http://www.w3.org/Graphics/SVG/1.1/DTD/svg11.dtd">
<svg xmlns:xlink="http://www.w3.org/1999/xlink" width="720pt" height="288pt" viewBox="0 0 720 288" xmlns="http://www.w3.org/2000/svg" version="1.1">
 <metadata>
  <rdf:RDF xmlns:dc="http://purl.org/dc/elements/1.1/" xmlns:cc="http://creativecommons.org/ns#" xmlns:rdf="http://www.w3.org/1999/02/22-rdf-syntax-ns#">
   <cc:Work>
    <dc:type rdf:resource="http://purl.org/dc/dcmitype/StillImage"/>
    <dc:date>2026-07-08T10:14:25.900865</dc:date>
    <dc:format>image/svg+xml</dc:format>
    <dc:creator>
     <cc:Agent>
      <dc:title>Matplotlib v3.10.8, https://matplotlib.org/</dc:title>
     </cc:Agent>
    </dc:creator>
   </cc:Work>
  </rdf:RDF>
 </metadata>
 <defs>
  <style type="text/css">*{stroke-linejoin: round; stroke-linecap: butt}</style>
 </defs>
 <g id="figure_1">
  <g id="patch_1">
   <path d="M 0 288 
L 720 288 
L 720 0 
L 0 0 
z
" style="fill: #ffffff"/>
  </g>
  <g id="axes_1">
   <g id="patch_2">
    <path d="M 56.09 246.04 
L 709.2 246.04 
L 709.2 26.88 
L 56.09 26.88 
z
" style="fill: #ffffff"/>
   </g>
   <g id="matplotlib.axis_1">
    <g id="xtick_1">
     <g id="line2d_1">
      <path d="M 85.776818 246.04 
L 85.776818 26.88 
" clip-path="url(#pe3ede429f0)" style="fill: none; stroke: #b0b0b0; stroke-opacity: 0.3; stroke-width: 0.8; stroke-linecap: square"/>
     </g>
     <g id="line2d_2">
      <defs>
       <path id="m77ed7ae0af" d="M 0 0 
L 0 3.5 
" style="stroke: #000000; stroke-width: 0.8"/>
      </defs>
      <g>
       <use xlink:href="#m77ed7ae0af" x="85.776818" y="246.04" style="stroke: #000000; stroke-width: 0.8"/>
      </g>
     </g>
     <g id="text_1">
      <!-- 0.0 -->
      <g transform="translate(77.825256 260.638438) scale(0.1 -0.1)">
       <defs>
        <path id="DejaVuSans-30" d="M 2034 4250 
Q 1547 4250 1301 3770 
Q 1056 3291 1056 2328 
Q 1056 1369 1301 889 
Q 1547 409 2034 409 
Q 2525 409 2770 889 
Q 3016 1369 3016 2328 
Q 3016 3291 2770 3770 
Q 2525 4250 2034 4250 
z
M 2034 4750 
Q 2819 4750 3233 4129 
Q 3647 3509 3647 2328 
Q 3647 1150 3233 529 
Q 2819 -91 2034 -91 
Q 1250 -91 836 529 
Q 422 1150 422 2328 
Q 422 3509 836 4129 
Q 1250 4750 2034 4750 
z
" transform="scale(0.015625)"/>
        <path id="DejaVuSans-2e" d="M 684 794 
L 1344 794 
L 1344 0 
L 684 0 
L 684 794 
z
" transform="scale(0.015625)"/>
       </defs>
       <use xlink:href="#DejaVuSans-30"/>
       <use xlink:href="#DejaVuSans-2e" transform="translate(63.623047 0)"/>
       <use xlink:href="#DejaVuSans-30" transform="translate(95.410156 0)"/>
      </g>
     </g>
    </g>
    <g id="xtick_2">
     <g id="line2d_3">
      <path d="M 230.23822 246.04 
L 230.23822 26.88 
" clip-path="url(#pe3ede429f0)" style="fill: none; stroke: #b0b0b0; stroke-opacity: 0.3; stroke-width: 0.8; stroke-linecap: square"/>
     </g>
     <g id="line2d_4">
      <g>
       <use xlink:href="#m77ed7ae0af" x="230.23822" y="246.04" style="stroke: #000000; stroke-width: 0.8"/>
      </g>
     </g>
     <g id="text_2">
      <!-- 0.5 -->
      <g transform="translate(222.286658 260.638438) scale(0.1 -0.1)">
       <defs>
        <path id="DejaVuSans-35" d="M 691 4666 
L 3169 4666 
L 3169 4134 
L 1269 4134 
L 1269 2991 
Q 1406 3038 1543 3061 
Q 1681 3084 1819 3084 
Q 2600 3084 3056 2656 
Q 3513 2228 3513 1497 
Q 3513 744 3044 326 
Q 2575 -91 1722 -91 
Q 1428 -91 1123 -41 
Q 819 9 494 109 
L 494 744 
Q 775 591 1075 516 
Q 1375 441 1709 441 
Q 2250 441 2565 725 
Q 2881 1009 2881 1497 
Q 2881 1984 2565 2268 
Q 2250 2553 1709 2553 
Q 1456 2553 1204 2497 
Q 953 2441 691 2322 
L 691 4666 
z
" transform="scale(0.015625)"/>
       </defs>
       <use xlink:href="#DejaVuSans-30"/>
       <use xlink:href="#DejaVuSans-2e" transform="translate(63.623047 0)"/>
       <use xlink:href="#DejaVuSans-35" transform="translate(95.410156 0)"/>
      </g>
     </g>
    </g>
    <g id="xtick_3">
     <g id="line2d_5">
      <path d="M 374.699623 246.04 
L 374.699623 26.88 
" clip-path="url(#pe3ede429f0)" style="fill: none; stroke: #b0b0b0; stroke-opacity: 0.3; stroke-width: 0.8; stroke-linecap: square"/>
     </g>
     <g id="line2d_6">
      <g>
       <use xlink:href="#m77ed7ae0af" x="374.699623" y="246.04" style="stroke: #000000; stroke-width: 0.8"/>
      </g>
     </g>
     <g id="text_3">
      <!-- 1.0 -->
      <g transform="translate(366.74806 260.638438) scale(0.1 -0.1)">
       <defs>
        <path id="DejaVuSans-31" d="M 794 531 
L 1825 531 
L 1825 4091 
L 703 3866 
L 703 4441 
L 1819 4666 
L 2450 4666 
L 2450 531 
L 3481 531 
L 3481 0 
L 794 0 
L 794 531 
z
" transform="scale(0.015625)"/>
       </defs>
       <use xlink:href="#DejaVuSans-31"/>
       <use xlink:href="#DejaVuSans-2e" transform="translate(63.623047 0)"/>
       <use xlink:href="#DejaVuSans-30" transform="translate(95.410156 0)"/>
      </g>
     </g>
    </g>
    <g id="xtick_4">
     <g id="line2d_7">
      <path d="M 519.161025 246.04 
L 519.161025 26.88 
" clip-path="url(#pe3ede429f0)" style="fill: none; stroke: #b0b0b0; stroke-opacity: 0.3; stroke-width: 0.8; stroke-linecap: square"/>
     </g>
     <g id="line2d_8">
      <g>
       <use xlink:href="#m77ed7ae0af" x="519.161025" y="246.04" style="stroke: #000000; stroke-width: 0.8"/>
      </g>
     </g>
     <g id="text_4">
      <!-- 1.5 -->
      <g transform="translate(511.209463 260.638438) scale(0.1 -0.1)">
       <use xlink:href="#DejaVuSans-31"/>
       <use xlink:href="#DejaVuSans-2e" transform="translate(63.623047 0)"/>
       <use xlink:href="#DejaVuSans-35" transform="translate(95.410156 0)"/>
      </g>
     </g>
    </g>
    <g id="xtick_5">
     <g id="line2d_9">
      <path d="M 663.622427 246.04 
L 663.622427 26.88 
" clip-path="url(#pe3ede429f0)" style="fill: none; stroke: #b0b0b0; stroke-opacity: 0.3; stroke-width: 0.8; stroke-linecap: square"/>
     </g>
     <g id="line2d_10">
      <g>
       <use xlink:href="#m77ed7ae0af" x="663.622427" y="246.04" style="stroke: #000000; stroke-width: 0.8"/>
      </g>
     </g>
     <g id="text_5">
      <!-- 2.0 -->
      <g transform="translate(655.670865 260.638438) scale(0.1 -0.1)">
       <defs>
        <path id="DejaVuSans-32" d="M 1228 531 
L 3431 531 
L 3431 0 
L 469 0 
L 469 531 
Q 828 903 1448 1529 
Q 2069 2156 2228 2338 
Q 2531 2678 2651 2914 
Q 2772 3150 2772 3378 
Q 2772 3750 2511 3984 
Q 2250 4219 1831 4219 
Q 1534 4219 1204 4116 
Q 875 4013 500 3803 
L 500 4441 
Q 881 4594 1212 4672 
Q 1544 4750 1819 4750 
Q 2544 4750 2975 4387 
Q 3406 4025 3406 3419 
Q 3406 3131 3298 2873 
Q 3191 2616 2906 2266 
Q 2828 2175 2409 1742 
Q 1991 1309 1228 531 
z
" transform="scale(0.015625)"/>
       </defs>
       <use xlink:href="#DejaVuSans-32"/>
       <use xlink:href="#DejaVuSans-2e" transform="translate(63.623047 0)"/>
       <use xlink:href="#DejaVuSans-30" transform="translate(95.410156 0)"/>
      </g>
     </g>
    </g>
    <g id="text_6">
     <!-- distance s [km] -->
     <g transform="translate(344.008281 274.316562) scale(0.1 -0.1)">
      <defs>
       <path id="DejaVuSans-64" d="M 2906 2969 
L 2906 4863 
L 3481 4863 
L 3481 0 
L 2906 0 
L 2906 525 
Q 2725 213 2448 61 
Q 2172 -91 1784 -91 
Q 1150 -91 751 415 
Q 353 922 353 1747 
Q 353 2572 751 3078 
Q 1150 3584 1784 3584 
Q 2172 3584 2448 3432 
Q 2725 3281 2906 2969 
z
M 947 1747 
Q 947 1113 1208 752 
Q 1469 391 1925 391 
Q 2381 391 2643 752 
Q 2906 1113 2906 1747 
Q 2906 2381 2643 2742 
Q 2381 3103 1925 3103 
Q 1469 3103 1208 2742 
Q 947 2381 947 1747 
z
" transform="scale(0.015625)"/>
       <path id="DejaVuSans-69" d="M 603 3500 
L 1178 3500 
L 1178 0 
L 603 0 
L 603 3500 
z
M 603 4863 
L 1178 4863 
L 1178 4134 
L 603 4134 
L 603 4863 
z
" transform="scale(0.015625)"/>
       <path id="DejaVuSans-73" d="M 2834 3397 
L 2834 2853 
Q 2591 2978 2328 3040 
Q 2066 3103 1784 3103 
Q 1356 3103 1142 2972 
Q 928 2841 928 2578 
Q 928 2378 1081 2264 
Q 1234 2150 1697 2047 
L 1894 2003 
Q 2506 1872 2764 1633 
Q 3022 1394 3022 966 
Q 3022 478 2636 193 
Q 2250 -91 1575 -91 
Q 1294 -91 989 -36 
Q 684 19 347 128 
L 347 722 
Q 666 556 975 473 
Q 1284 391 1588 391 
Q 1994 391 2212 530 
Q 2431 669 2431 922 
Q 2431 1156 2273 1281 
Q 2116 1406 1581 1522 
L 1381 1569 
Q 847 1681 609 1914 
Q 372 2147 372 2553 
Q 372 3047 722 3315 
Q 1072 3584 1716 3584 
Q 2034 3584 2315 3537 
Q 2597 3491 2834 3397 
z
" transform="scale(0.015625)"/>
       <path id="DejaVuSans-74" d="M 1172 4494 
L 1172 3500 
L 2356 3500 
L 2356 3053 
L 1172 3053 
L 1172 1153 
Q 1172 725 1289 603 
Q 1406 481 1766 481 
L 2356 481 
L 2356 0 
L 1766 0 
Q 1100 0 847 248 
Q 594 497 594 1153 
L 594 3053 
L 172 3053 
L 172 3500 
L 594 3500 
L 594 4494 
L 1172 4494 
z
" transform="scale(0.015625)"/>
       <path id="DejaVuSans-61" d="M 2194 1759 
Q 1497 1759 1228 1600 
Q 959 1441 959 1056 
Q 959 750 1161 570 
Q 1363 391 1709 391 
Q 2188 391 2477 730 
Q 2766 1069 2766 1631 
L 2766 1759 
L 2194 1759 
z
M 3341 1997 
L 3341 0 
L 2766 0 
L 2766 531 
Q 2569 213 2275 61 
Q 1981 -91 1556 -91 
Q 1019 -91 701 211 
Q 384 513 384 1019 
Q 384 1609 779 1909 
Q 1175 2209 1959 2209 
L 2766 2209 
L 2766 2266 
Q 2766 2663 2505 2880 
Q 2244 3097 1772 3097 
Q 1472 3097 1187 3025 
Q 903 2953 641 2809 
L 641 3341 
Q 956 3463 1253 3523 
Q 1550 3584 1831 3584 
Q 2591 3584 2966 3190 
Q 3341 2797 3341 1997 
z
" transform="scale(0.015625)"/>
       <path id="DejaVuSans-6e" d="M 3513 2113 
L 3513 0 
L 2938 0 
L 2938 2094 
Q 2938 2591 2744 2837 
Q 2550 3084 2163 3084 
Q 1697 3084 1428 2787 
Q 1159 2491 1159 1978 
L 1159 0 
L 581 0 
L 581 3500 
L 1159 3500 
L 1159 2956 
Q 1366 3272 1645 3428 
Q 1925 3584 2291 3584 
Q 2894 3584 3203 3211 
Q 3513 2838 3513 2113 
z
" transform="scale(0.015625)"/>
       <path id="DejaVuSans-63" d="M 3122 3366 
L 3122 2828 
Q 2878 2963 2633 3030 
Q 2388 3097 2138 3097 
Q 1578 3097 1268 2742 
Q 959 2388 959 1747 
Q 959 1106 1268 751 
Q 1578 397 2138 397 
Q 2388 397 2633 464 
Q 2878 531 3122 666 
L 3122 134 
Q 2881 22 2623 -34 
Q 2366 -91 2075 -91 
Q 1284 -91 818 406 
Q 353 903 353 1747 
Q 353 2603 823 3093 
Q 1294 3584 2113 3584 
Q 2378 3584 2631 3529 
Q 2884 3475 3122 3366 
z
" transform="scale(0.015625)"/>
       <path id="DejaVuSans-65" d="M 3597 1894 
L 3597 1613 
L 953 1613 
Q 991 1019 1311 708 
Q 1631 397 2203 397 
Q 2534 397 2845 478 
Q 3156 559 3463 722 
L 3463 178 
Q 3153 47 2828 -22 
Q 2503 -91 2169 -91 
Q 1331 -91 842 396 
Q 353 884 353 1716 
Q 353 2575 817 3079 
Q 1281 3584 2069 3584 
Q 2775 3584 3186 3129 
Q 3597 2675 3597 1894 
z
M 3022 2063 
Q 3016 2534 2758 2815 
Q 2500 3097 2075 3097 
Q 1594 3097 1305 2825 
Q 1016 2553 972 2059 
L 3022 2063 
z
" transform="scale(0.015625)"/>
       <path id="DejaVuSans-20" transform="scale(0.015625)"/>
       <path id="DejaVuSans-5b" d="M 550 4863 
L 1875 4863 
L 1875 4416 
L 1125 4416 
L 1125 -397 
L 1875 -397 
L 1875 -844 
L 550 -844 
L 550 4863 
z
" transform="scale(0.015625)"/>
       <path id="DejaVuSans-6b" d="M 581 4863 
L 1159 4863 
L 1159 1991 
L 2875 3500 
L 3609 3500 
L 1753 1863 
L 3688 0 
L 2938 0 
L 1159 1709 
L 1159 0 
L 581 0 
L 581 4863 
z
" transform="scale(0.015625)"/>
       <path id="DejaVuSans-6d" d="M 3328 2828 
Q 3544 3216 3844 3400 
Q 4144 3584 4550 3584 
Q 5097 3584 5394 3201 
Q 5691 2819 5691 2113 
L 5691 0 
L 5113 0 
L 5113 2094 
Q 5113 2597 4934 2840 
Q 4756 3084 4391 3084 
Q 3944 3084 3684 2787 
Q 3425 2491 3425 1978 
L 3425 0 
L 2847 0 
L 2847 2094 
Q 2847 2600 2669 2842 
Q 2491 3084 2119 3084 
Q 1678 3084 1418 2786 
Q 1159 2488 1159 1978 
L 1159 0 
L 581 0 
L 581 3500 
L 1159 3500 
L 1159 2956 
Q 1356 3278 1631 3431 
Q 1906 3584 2284 3584 
Q 2666 3584 2933 3390 
Q 3200 3197 3328 2828 
z
" transform="scale(0.015625)"/>
       <path id="DejaVuSans-5d" d="M 1947 4863 
L 1947 -844 
L 622 -844 
L 622 -397 
L 1369 -397 
L 1369 4416 
L 622 4416 
L 622 4863 
L 1947 4863 
z
" transform="scale(0.015625)"/>
      </defs>
      <use xlink:href="#DejaVuSans-64"/>
      <use xlink:href="#DejaVuSans-69" transform="translate(63.476562 0)"/>
      <use xlink:href="#DejaVuSans-73" transform="translate(91.259766 0)"/>
      <use xlink:href="#DejaVuSans-74" transform="translate(143.359375 0)"/>
      <use xlink:href="#DejaVuSans-61" transform="translate(182.568359 0)"/>
      <use xlink:href="#DejaVuSans-6e" transform="translate(243.847656 0)"/>
      <use xlink:href="#DejaVuSans-63" transform="translate(307.226562 0)"/>
      <use xlink:href="#DejaVuSans-65" transform="translate(362.207031 0)"/>
      <use xlink:href="#DejaVuSans-20" transform="translate(423.730469 0)"/>
      <use xlink:href="#DejaVuSans-73" transform="translate(455.517578 0)"/>
      <use xlink:href="#DejaVuSans-20" transform="translate(507.617188 0)"/>
      <use xlink:href="#DejaVuSans-5b" transform="translate(539.404297 0)"/>
      <use xlink:href="#DejaVuSans-6b" transform="translate(578.417969 0)"/>
      <use xlink:href="#DejaVuSans-6d" transform="translate(636.328125 0)"/>
      <use xlink:href="#DejaVuSans-5d" transform="translate(733.740234 0)"/>
     </g>
    </g>
   </g>
   <g id="matplotlib.axis_2">
    <g id="ytick_1">
     <g id="line2d_11">
      <path d="M 56.09 244.524609 
L 709.2 244.524609 
" clip-path="url(#pe3ede429f0)" style="fill: none; stroke: #b0b0b0; stroke-opacity: 0.3; stroke-width: 0.8; stroke-linecap: square"/>
     </g>
     <g id="line2d_12">
      <defs>
       <path id="m8329f6111e" d="M 0 0 
L -3.5 0 
" style="stroke: #000000; stroke-width: 0.8"/>
      </defs>
      <g>
       <use xlink:href="#m8329f6111e" x="56.09" y="244.524609" style="stroke: #000000; stroke-width: 0.8"/>
      </g>
     </g>
     <g id="text_7">
      <!-- −2.0 -->
      <g transform="translate(24.807188 248.323828) scale(0.1 -0.1)">
       <defs>
        <path id="DejaVuSans-2212" d="M 678 2272 
L 4684 2272 
L 4684 1741 
L 678 1741 
L 678 2272 
z
" transform="scale(0.015625)"/>
       </defs>
       <use xlink:href="#DejaVuSans-2212"/>
       <use xlink:href="#DejaVuSans-32" transform="translate(83.789062 0)"/>
       <use xlink:href="#DejaVuSans-2e" transform="translate(147.412109 0)"/>
       <use xlink:href="#DejaVuSans-30" transform="translate(179.199219 0)"/>
      </g>
     </g>
    </g>
    <g id="ytick_2">
     <g id="line2d_13">
      <path d="M 56.09 217.396967 
L 709.2 217.396967 
" clip-path="url(#pe3ede429f0)" style="fill: none; stroke: #b0b0b0; stroke-opacity: 0.3; stroke-width: 0.8; stroke-linecap: square"/>
     </g>
     <g id="line2d_14">
      <g>
       <use xlink:href="#m8329f6111e" x="56.09" y="217.396967" style="stroke: #000000; stroke-width: 0.8"/>
      </g>
     </g>
     <g id="text_8">
      <!-- −1.5 -->
      <g transform="translate(24.807188 221.196186) scale(0.1 -0.1)">
       <use xlink:href="#DejaVuSans-2212"/>
       <use xlink:href="#DejaVuSans-31" transform="translate(83.789062 0)"/>
       <use xlink:href="#DejaVuSans-2e" transform="translate(147.412109 0)"/>
       <use xlink:href="#DejaVuSans-35" transform="translate(179.199219 0)"/>
      </g>
     </g>
    </g>
    <g id="ytick_3">
     <g id="line2d_15">
      <path d="M 56.09 190.269326 
L 709.2 190.269326 
" clip-path="url(#pe3ede429f0)" style="fill: none; stroke: #b0b0b0; stroke-opacity: 0.3; stroke-width: 0.8; stroke-linecap: square"/>
     </g>
     <g id="line2d_16">
      <g>
       <use xlink:href="#m8329f6111e" x="56.09" y="190.269326" style="stroke: #000000; stroke-width: 0.8"/>
      </g>
     </g>
     <g id="text_9">
      <!-- −1.0 -->
      <g transform="translate(24.807188 194.068544) scale(0.1 -0.1)">
       <use xlink:href="#DejaVuSans-2212"/>
       <use xlink:href="#DejaVuSans-31" transform="translate(83.789062 0)"/>
       <use xlink:href="#DejaVuSans-2e" transform="translate(147.412109 0)"/>
       <use xlink:href="#DejaVuSans-30" transform="translate(179.199219 0)"/>
      </g>
     </g>
    </g>
    <g id="ytick_4">
     <g id="line2d_17">
      <path d="M 56.09 163.141684 
L 709.2 163.141684 
" clip-path="url(#pe3ede429f0)" style="fill: none; stroke: #b0b0b0; stroke-opacity: 0.3; stroke-width: 0.8; stroke-linecap: square"/>
     </g>
     <g id="line2d_18">
      <g>
       <use xlink:href="#m8329f6111e" x="56.09" y="163.141684" style="stroke: #000000; stroke-width: 0.8"/>
      </g>
     </g>
     <g id="text_10">
      <!-- −0.5 -->
      <g transform="translate(24.807188 166.940903) scale(0.1 -0.1)">
       <use xlink:href="#DejaVuSans-2212"/>
       <use xlink:href="#DejaVuSans-30" transform="translate(83.789062 0)"/>
       <use xlink:href="#DejaVuSans-2e" transform="translate(147.412109 0)"/>
       <use xlink:href="#DejaVuSans-35" transform="translate(179.199219 0)"/>
      </g>
     </g>
    </g>
    <g id="ytick_5">
     <g id="line2d_19">
      <path d="M 56.09 136.014042 
L 709.2 136.014042 
" clip-path="url(#pe3ede429f0)" style="fill: none; stroke: #b0b0b0; stroke-opacity: 0.3; stroke-width: 0.8; stroke-linecap: square"/>
     </g>
     <g id="line2d_20">
      <g>
       <use xlink:href="#m8329f6111e" x="56.09" y="136.014042" style="stroke: #000000; stroke-width: 0.8"/>
      </g>
     </g>
     <g id="text_11">
      <!-- 0.0 -->
      <g transform="translate(33.186875 139.813261) scale(0.1 -0.1)">
       <use xlink:href="#DejaVuSans-30"/>
       <use xlink:href="#DejaVuSans-2e" transform="translate(63.623047 0)"/>
       <use xlink:href="#DejaVuSans-30" transform="translate(95.410156 0)"/>
      </g>
     </g>
    </g>
    <g id="ytick_6">
     <g id="line2d_21">
      <path d="M 56.09 108.8864 
L 709.2 108.8864 
" clip-path="url(#pe3ede429f0)" style="fill: none; stroke: #b0b0b0; stroke-opacity: 0.3; stroke-width: 0.8; stroke-linecap: square"/>
     </g>
     <g id="line2d_22">
      <g>
       <use xlink:href="#m8329f6111e" x="56.09" y="108.8864" style="stroke: #000000; stroke-width: 0.8"/>
      </g>
     </g>
     <g id="text_12">
      <!-- 0.5 -->
      <g transform="translate(33.186875 112.685619) scale(0.1 -0.1)">
       <use xlink:href="#DejaVuSans-30"/>
       <use xlink:href="#DejaVuSans-2e" transform="translate(63.623047 0)"/>
       <use xlink:href="#DejaVuSans-35" transform="translate(95.410156 0)"/>
      </g>
     </g>
    </g>
    <g id="ytick_7">
     <g id="line2d_23">
      <path d="M 56.09 81.758759 
L 709.2 81.758759 
" clip-path="url(#pe3ede429f0)" style="fill: none; stroke: #b0b0b0; stroke-opacity: 0.3; stroke-width: 0.8; stroke-linecap: square"/>
     </g>
     <g id="line2d_24">
      <g>
       <use xlink:href="#m8329f6111e" x="56.09" y="81.758759" style="stroke: #000000; stroke-width: 0.8"/>
      </g>
     </g>
     <g id="text_13">
      <!-- 1.0 -->
      <g transform="translate(33.186875 85.557978) scale(0.1 -0.1)">
       <use xlink:href="#DejaVuSans-31"/>
       <use xlink:href="#DejaVuSans-2e" transform="translate(63.623047 0)"/>
       <use xlink:href="#DejaVuSans-30" transform="translate(95.410156 0)"/>
      </g>
     </g>
    </g>
    <g id="ytick_8">
     <g id="line2d_25">
      <path d="M 56.09 54.631117 
L 709.2 54.631117 
" clip-path="url(#pe3ede429f0)" style="fill: none; stroke: #b0b0b0; stroke-opacity: 0.3; stroke-width: 0.8; stroke-linecap: square"/>
     </g>
     <g id="line2d_26">
      <g>
       <use xlink:href="#m8329f6111e" x="56.09" y="54.631117" style="stroke: #000000; stroke-width: 0.8"/>
      </g>
     </g>
     <g id="text_14">
      <!-- 1.5 -->
      <g transform="translate(33.186875 58.430336) scale(0.1 -0.1)">
       <use xlink:href="#DejaVuSans-31"/>
       <use xlink:href="#DejaVuSans-2e" transform="translate(63.623047 0)"/>
       <use xlink:href="#DejaVuSans-35" transform="translate(95.410156 0)"/>
      </g>
     </g>
    </g>
    <g id="ytick_9">
     <g id="line2d_27">
      <path d="M 56.09 27.503475 
L 709.2 27.503475 
" clip-path="url(#pe3ede429f0)" style="fill: none; stroke: #b0b0b0; stroke-opacity: 0.3; stroke-width: 0.8; stroke-linecap: square"/>
     </g>
     <g id="line2d_28">
      <g>
       <use xlink:href="#m8329f6111e" x="56.09" y="27.503475" style="stroke: #000000; stroke-width: 0.8"/>
      </g>
     </g>
     <g id="text_15">
      <!-- 2.0 -->
      <g transform="translate(33.186875 31.302694) scale(0.1 -0.1)">
       <use xlink:href="#DejaVuSans-32"/>
       <use xlink:href="#DejaVuSans-2e" transform="translate(63.623047 0)"/>
       <use xlink:href="#DejaVuSans-30" transform="translate(95.410156 0)"/>
      </g>
     </g>
    </g>
    <g id="text_16">
     <!-- tie-rod force [kN] -->
     <g transform="translate(18.7275 179.170156) rotate(-90) scale(0.1 -0.1)">
      <defs>
       <path id="DejaVuSans-2d" d="M 313 2009 
L 1997 2009 
L 1997 1497 
L 313 1497 
L 313 2009 
z
" transform="scale(0.015625)"/>
       <path id="DejaVuSans-72" d="M 2631 2963 
Q 2534 3019 2420 3045 
Q 2306 3072 2169 3072 
Q 1681 3072 1420 2755 
Q 1159 2438 1159 1844 
L 1159 0 
L 581 0 
L 581 3500 
L 1159 3500 
L 1159 2956 
Q 1341 3275 1631 3429 
Q 1922 3584 2338 3584 
Q 2397 3584 2469 3576 
Q 2541 3569 2628 3553 
L 2631 2963 
z
" transform="scale(0.015625)"/>
       <path id="DejaVuSans-6f" d="M 1959 3097 
Q 1497 3097 1228 2736 
Q 959 2375 959 1747 
Q 959 1119 1226 758 
Q 1494 397 1959 397 
Q 2419 397 2687 759 
Q 2956 1122 2956 1747 
Q 2956 2369 2687 2733 
Q 2419 3097 1959 3097 
z
M 1959 3584 
Q 2709 3584 3137 3096 
Q 3566 2609 3566 1747 
Q 3566 888 3137 398 
Q 2709 -91 1959 -91 
Q 1206 -91 779 398 
Q 353 888 353 1747 
Q 353 2609 779 3096 
Q 1206 3584 1959 3584 
z
" transform="scale(0.015625)"/>
       <path id="DejaVuSans-66" d="M 2375 4863 
L 2375 4384 
L 1825 4384 
Q 1516 4384 1395 4259 
Q 1275 4134 1275 3809 
L 1275 3500 
L 2222 3500 
L 2222 3053 
L 1275 3053 
L 1275 0 
L 697 0 
L 697 3053 
L 147 3053 
L 147 3500 
L 697 3500 
L 697 3744 
Q 697 4328 969 4595 
Q 1241 4863 1831 4863 
L 2375 4863 
z
" transform="scale(0.015625)"/>
       <path id="DejaVuSans-4e" d="M 628 4666 
L 1478 4666 
L 3547 763 
L 3547 4666 
L 4159 4666 
L 4159 0 
L 3309 0 
L 1241 3903 
L 1241 0 
L 628 0 
L 628 4666 
z
" transform="scale(0.015625)"/>
      </defs>
      <use xlink:href="#DejaVuSans-74"/>
      <use xlink:href="#DejaVuSans-69" transform="translate(39.208984 0)"/>
      <use xlink:href="#DejaVuSans-65" transform="translate(66.992188 0)"/>
      <use xlink:href="#DejaVuSans-2d" transform="translate(128.515625 0)"/>
      <use xlink:href="#DejaVuSans-72" transform="translate(164.599609 0)"/>
      <use xlink:href="#DejaVuSans-6f" transform="translate(203.462891 0)"/>
      <use xlink:href="#DejaVuSans-64" transform="translate(264.644531 0)"/>
      <use xlink:href="#DejaVuSans-20" transform="translate(328.121094 0)"/>
      <use xlink:href="#DejaVuSans-66" transform="translate(359.908203 0)"/>
      <use xlink:href="#DejaVuSans-6f" transform="translate(395.113281 0)"/>
      <use xlink:href="#DejaVuSans-72" transform="translate(456.294922 0)"/>
      <use xlink:href="#DejaVuSans-63" transform="translate(495.158203 0)"/>
      <use xlink:href="#DejaVuSans-65" transform="translate(550.138672 0)"/>
      <use xlink:href="#DejaVuSans-20" transform="translate(611.662109 0)"/>
      <use xlink:href="#DejaVuSans-5b" transform="translate(643.449219 0)"/>
      <use xlink:href="#DejaVuSans-6b" transform="translate(682.462891 0)"/>
      <use xlink:href="#DejaVuSans-4e" transform="translate(740.373047 0)"/>
      <use xlink:href="#DejaVuSans-5d" transform="translate(815.177734 0)"/>
     </g>
    </g>
   </g>
   <g id="line2d_29">
    <path d="M 85.776818 136.014042 
L 86.294713 136.763155 
L 86.814051 136.569805 
L 87.334828 135.779512 
L 87.857042 135.382404 
L 88.380688 135.605756 
L 88.905762 136.077189 
L 89.432261 136.385433 
L 89.96018 136.327297 
L 91.020262 135.732801 
L 91.552416 135.637913 
L 93.695015 136.053754 
L 95.316518 135.857932 
L 97.497683 136.053913 
L 99.700463 136.030692 
L 102.483859 136.100705 
L 116.288578 136.0458 
L 125.27037 136.160289 
L 132.639945 136.299439 
L 137.640208 136.128357 
L 140.799776 135.785806 
L 143.346113 135.335009 
L 146.548426 134.489361 
L 148.468435 133.803965 
L 151.01091 132.823879 
L 152.89663 132.148891 
L 156.592242 130.447511 
L 158.987117 129.628763 
L 160.741711 129.304722 
L 161.890189 129.320621 
L 163.020885 129.551404 
L 164.133206 129.984464 
L 165.226623 130.67379 
L 166.300666 131.62589 
L 167.354914 132.842364 
L 168.388992 134.379632 
L 169.901562 137.174423 
L 171.366994 140.416947 
L 173.702304 146.185571 
L 175.901584 151.490858 
L 177.56302 155.043621 
L 178.361501 156.262994 
L 179.139015 157.166639 
L 179.520083 157.904978 
L 180.267162 160.476813 
L 180.994553 162.817164 
L 181.351081 163.359271 
L 181.70298 163.592663 
L 182.050372 164.139502 
L 182.393397 165.853648 
L 182.732207 169.231535 
L 184.048381 187.206437 
L 184.68536 192.148363 
L 185.310292 197.111859 
L 185.924767 204.769356 
L 187.129244 223.714362 
L 187.72254 228.659416 
L 188.310691 231.109721 
L 188.893651 232.605329 
L 189.470661 233.589591 
L 190.60205 235.090239 
L 191.154985 235.779028 
L 191.699368 236.078182 
L 191.968495 236.035153 
L 192.23568 235.831959 
L 192.500989 235.431532 
L 192.764478 234.79103 
L 193.286112 232.59073 
L 193.800652 228.768514 
L 194.308095 222.48344 
L 195.783128 198.236366 
L 196.020732 196.903311 
L 196.255758 196.603164 
L 196.488246 197.049357 
L 197.171838 199.935425 
L 198.278973 204.796732 
L 199.152288 207.913763 
L 199.5888 209.598272 
L 201.12659 216.518261 
L 201.570209 217.54793 
L 202.016266 219.59685 
L 202.689576 223.63434 
L 203.140404 225.149687 
L 203.365805 225.454168 
L 203.590789 225.513773 
L 203.815047 225.36824 
L 204.260234 224.551243 
L 204.6996 223.073474 
L 205.347471 219.723806 
L 205.773781 216.632918 
L 206.197788 212.226111 
L 206.621726 205.544827 
L 207.480229 189.526576 
L 208.143373 181.912536 
L 208.830391 175.870734 
L 209.789982 170.124426 
L 210.038003 169.25406 
L 210.289243 168.979012 
L 210.543691 168.95837 
L 210.801337 168.708149 
L 211.326123 167.04705 
L 211.863297 165.338181 
L 212.412574 164.679015 
L 212.691676 164.330011 
L 212.973712 163.715717 
L 214.426971 159.274339 
L 215.0275 157.721638 
L 217.486417 150.114395 
L 218.409118 147.716689 
L 218.714928 147.282677 
L 219.925031 146.408887 
L 220.223827 146.556682 
L 220.52114 147.325425 
L 221.111479 151.145647 
L 221.696496 155.156293 
L 222.276725 158.055383 
L 222.565214 160.12252 
L 223.139338 167.309286 
L 223.995121 180.576509 
L 225.132938 193.531675 
L 227.42723 217.268967 
L 227.716063 218.722454 
L 228.005179 219.468586 
L 228.294587 219.574097 
L 228.584357 219.066301 
L 229.165514 216.504203 
L 230.340001 208.92951 
L 230.936732 203.523074 
L 231.541655 194.902656 
L 232.466173 180.468698 
L 232.779092 178.373845 
L 233.411992 176.259187 
L 233.731928 174.245806 
L 235.034649 162.765627 
L 235.365983 162.005583 
L 235.699553 161.53925 
L 236.035338 160.597149 
L 236.713471 156.603156 
L 237.400336 152.928842 
L 237.747017 152.083271 
L 238.798335 150.517035 
L 239.86185 148.431572 
L 240.218194 148.626625 
L 240.57523 149.923259 
L 241.290962 155.565119 
L 242.008467 161.690924 
L 242.727688 165.399521 
L 243.088127 167.217603 
L 243.449197 170.351527 
L 244.899103 187.99095 
L 245.262567 189.831137 
L 245.626306 189.363946 
L 245.990372 187.846061 
L 246.354867 188.140442 
L 246.719863 192.081925 
L 247.451427 203.428648 
L 247.818001 207.170532 
L 248.185135 209.272571 
L 248.552855 210.369062 
L 249.289948 211.888943 
L 249.659144 213.278386 
L 250.39826 217.038961 
L 250.768023 218.337462 
L 251.137906 218.951001 
L 251.507967 218.955109 
L 251.878309 218.424463 
L 252.620469 216.282541 
L 253.365941 213.080268 
L 253.740442 210.766166 
L 254.116392 207.486231 
L 254.493978 202.820361 
L 255.254629 189.464111 
L 256.410507 169.366115 
L 257.19193 155.726135 
L 257.982282 137.967674 
L 258.780314 118.146738 
L 259.181444 110.616749 
L 259.583412 106.047373 
L 259.985663 104.417524 
L 260.38772 104.528978 
L 260.789206 104.998463 
L 261.189848 104.903668 
L 262.386212 102.545206 
L 262.783482 102.330104 
L 263.576411 102.83297 
L 263.972251 102.783641 
L 265.157928 100.908414 
L 265.552629 100.95301 
L 265.947108 101.337083 
L 266.735458 102.614027 
L 267.523211 104.446501 
L 269.09862 108.537653 
L 270.281842 110.831751 
L 271.467444 112.823036 
L 272.259188 113.815432 
L 273.052233 114.509064 
L 273.847055 114.9651 
L 274.64442 115.160315 
L 275.445191 114.990402 
L 276.249952 114.502466 
L 277.464858 113.38688 
L 278.688792 112.194068 
L 279.510081 111.705942 
L 280.751215 111.210353 
L 281.584379 110.544233 
L 282.420349 109.488163 
L 284.51117 106.611585 
L 284.928648 106.341874 
L 285.345885 106.581965 
L 285.762941 108.018933 
L 286.179886 111.635436 
L 287.013634 122.106322 
L 287.847463 128.513316 
L 288.264524 135.322605 
L 289.516685 164.909528 
L 291.188939 190.435707 
L 292.442425 204.354748 
L 293.69124 215.568143 
L 294.519783 221.221606 
L 295.344132 225.561914 
L 296.163271 228.780117 
L 296.976463 230.943311 
L 297.783335 232.297639 
L 298.584015 233.098911 
L 299.378822 233.531403 
L 300.168033 233.712803 
L 300.951908 233.661119 
L 301.731159 233.309988 
L 302.506532 232.974637 
L 303.2778 233.025975 
L 304.044545 233.127698 
L 304.806616 233.043633 
L 305.941298 232.658246 
L 306.692643 232.370967 
L 307.06696 232.35675 
L 307.440416 232.504192 
L 308.184483 233.258744 
L 309.658336 235.192313 
L 310.02345 235.502645 
L 310.387079 235.64821 
L 310.749166 235.609694 
L 311.468898 235.108636 
L 313.599286 232.781403 
L 314.304092 231.406683 
L 315.008477 229.264036 
L 315.713525 226.118592 
L 317.841676 214.953101 
L 318.920789 212.154653 
L 319.283547 210.570562 
L 319.647838 208.033296 
L 320.013581 203.542797 
L 320.749195 186.638216 
L 321.490337 170.142522 
L 322.612979 156.544309 
L 323.74985 129.804385 
L 324.132142 127.702893 
L 324.515888 126.968975 
L 324.900735 124.917317 
L 325.672529 118.128098 
L 326.059101 116.028082 
L 326.445913 115.317244 
L 327.219666 115.713331 
L 327.606315 115.404747 
L 327.992623 114.293882 
L 329.531338 108.519093 
L 330.294701 106.731565 
L 330.674567 105.992045 
L 331.053164 104.963923 
L 331.806493 101.95088 
L 332.554717 98.372479 
L 332.926921 97.405954 
L 333.297866 97.215135 
L 333.667606 97.478378 
L 335.495806 99.635668 
L 337.283199 102.082621 
L 337.987853 102.817161 
L 338.687904 104.145672 
L 339.730091 106.029648 
L 341.448537 108.794342 
L 343.487281 112.38797 
L 344.835889 114.304822 
L 345.507988 115.020766 
L 346.180087 115.431883 
L 347.191264 115.643168 
L 347.869543 115.607955 
L 348.553355 115.263763 
L 349.244463 114.432085 
L 351.010942 111.315415 
L 351.370954 111.345579 
L 351.733075 111.731468 
L 352.097283 112.428891 
L 352.463576 113.620555 
L 352.831945 115.565939 
L 353.574859 121.603534 
L 354.326012 127.698462 
L 355.468268 136.198485 
L 356.240166 142.441347 
L 357.020392 146.845844 
L 357.808924 150.023142 
L 358.605715 152.585525 
L 359.410701 154.35272 
L 359.81623 154.814697 
L 360.223664 155.020965 
L 360.632757 155.034105 
L 361.043166 154.869145 
L 361.454516 154.498378 
L 361.866447 153.899774 
L 362.690723 151.998779 
L 363.513554 149.312893 
L 364.332837 145.882099 
L 365.551125 139.518539 
L 368.70255 121.315679 
L 369.836503 116.236124 
L 370.939592 112.42406 
L 372.009902 109.712606 
L 373.046244 107.857913 
L 373.717875 107.028681 
L 374.696424 106.436469 
L 375.015209 105.956876 
L 375.330511 105.066479 
L 376.256595 101.504516 
L 376.558908 101.0269 
L 376.858114 100.822686 
L 377.154282 100.394792 
L 377.447502 99.31548 
L 378.310564 94.11364 
L 378.593048 93.352854 
L 378.873082 93.34568 
L 379.150778 93.871546 
L 379.699864 95.680666 
L 380.511246 99.26997 
L 381.312804 102.959063 
L 382.106253 105.325606 
L 382.889325 106.957574 
L 383.660863 108.042526 
L 385.909562 110.719551 
L 387.811067 112.369883 
L 389.379926 113.518449 
L 390.243903 114.165311 
L 391.517396 115.234514 
L 392.99852 116.159878 
L 393.638888 116.262299 
L 394.286218 116.106168 
L 394.943613 115.649924 
L 395.614451 114.823199 
L 396.070844 113.98197 
L 396.771702 112.387932 
L 397.251183 111.947374 
L 397.494935 111.950791 
L 397.741501 112.099387 
L 397.990977 112.516637 
L 398.243447 113.388974 
L 398.757639 116.699975 
L 399.552782 122.241971 
L 401.812899 133.804021 
L 402.408316 135.78855 
L 403.32331 137.750422 
L 403.947602 138.635752 
L 404.905013 139.521187 
L 405.556996 139.632721 
L 406.893022 139.530463 
L 408.621292 138.966467 
L 409.328546 139.018138 
L 410.397438 139.378769 
L 411.111287 139.9695 
L 411.823455 140.945243 
L 412.884265 142.735744 
L 414.275983 146.276682 
L 415.631976 150.232529 
L 419.72044 162.82788 
L 420.304134 166.731693 
L 421.15683 172.726688 
L 421.709995 176.431756 
L 422.250955 182.827001 
L 423.297651 198.644899 
L 425.740878 225.842607 
L 426.206514 227.821746 
L 426.665583 228.403094 
L 427.118511 228.907693 
L 427.786725 230.426076 
L 429.094749 233.603443 
L 429.526678 234.206782 
L 430.173112 234.632117 
L 431.033562 234.800562 
L 432.498284 235.199394 
L 432.899008 234.912001 
L 433.486676 234.058101 
L 434.442137 232.147327 
L 435.00978 231.141072 
L 435.764213 230.270084 
L 437.082309 228.794593 
L 438.208968 227.093333 
L 439.149076 225.222418 
L 440.482454 221.998226 
L 441.259098 219.657556 
L 442.051743 216.788449 
L 442.659243 215.226631 
L 443.070781 212.922216 
L 443.487762 207.940349 
L 444.778146 186.14114 
L 445.451507 176.807439 
L 446.386632 162.070907 
L 446.872089 157.735127 
L 448.141446 150.252188 
L 448.671516 148.700325 
L 449.214111 147.473617 
L 450.051107 144.944386 
L 450.915231 143.514018 
L 453.663695 136.769621 
L 454.623398 134.099699 
L 455.591232 131.478825 
L 456.558763 128.716978 
L 457.83701 125.405486 
L 458.780103 122.521132 
L 460.310984 116.805225 
L 461.201073 113.055589 
L 463.188383 103.544965 
L 463.73347 102.309608 
L 464.269736 101.174054 
L 465.578608 96.715103 
L 465.836067 96.363021 
L 466.092452 96.233201 
L 466.347974 96.296168 
L 466.602826 96.564729 
L 467.111218 97.808975 
L 467.61907 99.97896 
L 468.897084 106.437019 
L 469.926894 110.310449 
L 470.692695 112.535633 
L 471.446107 114.086624 
L 472.187098 115.006967 
L 472.918987 115.462874 
L 474.135792 115.849085 
L 474.871256 115.912997 
L 477.127964 115.731636 
L 477.643888 115.304826 
L 478.16723 114.652147 
L 478.968739 113.125274 
L 479.515561 112.162289 
L 479.793026 112.00629 
L 480.073297 112.251189 
L 480.642498 113.903652 
L 481.223593 115.420728 
L 481.518668 116.14014 
L 481.81672 117.394762 
L 482.421602 122.200669 
L 483.037997 127.134294 
L 483.983694 131.852726 
L 485.283133 140.708932 
L 486.285956 145.121948 
L 487.312427 149.037747 
L 488.009607 150.911421 
L 489.071556 153.260616 
L 489.785468 154.378955 
L 490.500735 155.161693 
L 491.214894 155.714195 
L 491.925779 155.957422 
L 493.330213 155.958005 
L 494.362166 155.418696 
L 495.371093 154.816001 
L 496.353826 153.847339 
L 497.308225 152.891575 
L 498.233361 152.475957 
L 498.535281 152.56277 
L 498.834021 153.03189 
L 499.711473 155.557311 
L 500.28131 157.72105 
L 500.561921 159.35458 
L 500.839826 161.698856 
L 501.388267 168.895977 
L 502.462805 183.701497 
L 503.52006 197.156926 
L 505.096185 220.771895 
L 505.622174 225.434083 
L 506.147589 228.491583 
L 506.670909 230.482734 
L 507.190216 231.754274 
L 507.703677 232.417831 
L 508.210179 232.546252 
L 508.709804 232.236625 
L 509.203186 231.54658 
L 509.933796 229.96708 
L 511.133987 227.167247 
L 511.847621 226.149068 
L 512.32325 225.72831 
L 513.040455 225.242261 
L 513.2814 224.745305 
L 513.767278 222.915635 
L 514.75833 218.738483 
L 516.036998 214.261788 
L 516.561704 211.264129 
L 517.636464 203.986069 
L 518.18774 200.552342 
L 518.467192 197.486914 
L 519.034131 187.163905 
L 519.612225 177.987375 
L 520.202071 174.637362 
L 520.501504 172.841402 
L 520.803886 170.003908 
L 522.042411 154.315005 
L 522.359222 152.758521 
L 522.67885 152.589064 
L 523.001267 152.963942 
L 523.326454 152.507353 
L 523.65441 150.172533 
L 524.654967 137.80044 
L 524.994008 136.852496 
L 525.335756 137.409819 
L 525.680189 137.458004 
L 526.027289 135.785546 
L 526.729412 130.550078 
L 527.084344 129.510945 
L 527.441772 129.848188 
L 528.163944 132.120807 
L 528.528642 132.748312 
L 529.265159 132.81971 
L 529.63693 133.429034 
L 530.387394 136.523908 
L 531.14682 139.630493 
L 532.299017 144.132808 
L 533.458315 149.677202 
L 534.230498 154.213498 
L 535.381263 162.561516 
L 536.140023 166.969907 
L 536.890015 172.499975 
L 537.630259 178.842204 
L 537.996645 180.324167 
L 538.360637 179.246487 
L 539.081475 174.56737 
L 539.438274 174.071197 
L 539.792599 175.061611 
L 540.14441 176.495567 
L 540.493652 177.25395 
L 540.840254 176.707715 
L 541.863174 171.082732 
L 542.198302 170.876108 
L 542.530558 171.917421 
L 543.831476 178.569373 
L 544.777977 180.650061 
L 545.088079 182.158975 
L 545.395533 184.626649 
L 546.002707 192.270056 
L 546.599861 199.853136 
L 547.187265 203.763368 
L 547.76528 206.006878 
L 548.334481 209.782333 
L 549.997192 225.695892 
L 550.268537 226.520758 
L 550.538291 226.88361 
L 551.338167 227.252908 
L 551.863606 228.107633 
L 553.659181 231.879732 
L 554.162091 232.433238 
L 554.661466 232.662869 
L 555.15782 232.570715 
L 555.65142 232.153727 
L 557.117079 230.387801 
L 557.359564 230.330198 
L 557.601465 230.409642 
L 558.083109 230.934743 
L 558.798337 232.021119 
L 559.034343 232.224724 
L 559.269022 232.279985 
L 559.50234 232.164542 
L 559.734268 231.870708 
L 560.193818 230.690623 
L 560.647472 228.524473 
L 561.095295 225.055853 
L 561.757067 217.520055 
L 563.050239 202.001394 
L 563.262628 201.03112 
L 563.474419 200.631174 
L 564.10776 200.136739 
L 564.318821 200.414386 
L 564.530198 201.711218 
L 565.598125 212.619424 
L 566.033259 213.935643 
L 567.837032 217.410016 
L 568.067405 217.36045 
L 568.298002 216.872493 
L 568.52867 215.761175 
L 568.990337 211.501656 
L 570.15023 197.438055 
L 570.854143 191.241088 
L 572.052955 177.90324 
L 573.046251 173.859174 
L 573.815613 168.14083 
L 574.077131 167.156897 
L 574.877667 165.63817 
L 575.425103 163.788031 
L 575.70305 163.376676 
L 576.26742 163.640835 
L 576.553823 163.468128 
L 577.13501 161.890921 
L 577.727279 160.434524 
L 578.33051 159.682873 
L 578.636256 158.952154 
L 578.944851 157.453305 
L 580.205472 147.527335 
L 580.846405 144.558714 
L 581.490329 138.791223 
L 582.134777 133.409007 
L 583.735672 125.480222 
L 584.368266 122.000668 
L 585.613909 117.226507 
L 586.5273 112.044622 
L 587.419985 106.640892 
L 588.858259 99.436335 
L 589.416262 96.241399 
L 589.691723 95.249666 
L 589.964849 94.95819 
L 590.235635 95.292665 
L 590.770279 96.424128 
L 591.034194 96.651094 
L 591.295871 96.597937 
L 591.812545 96.301204 
L 592.067478 96.332274 
L 592.57066 96.809709 
L 593.797574 98.508051 
L 594.522333 100.428791 
L 597.447485 109.901111 
L 598.894929 113.897207 
L 599.590459 115.173183 
L 600.045408 115.618837 
L 600.495722 115.763141 
L 600.943317 115.686815 
L 601.613851 115.322518 
L 603.43953 113.987873 
L 606.379056 112.936168 
L 607.422067 111.905886 
L 607.688676 111.893598 
L 607.957897 112.083879 
L 608.22988 112.540112 
L 608.504767 113.379588 
L 608.782674 114.749055 
L 609.34784 119.378031 
L 609.925542 126.667964 
L 611.423641 150.392895 
L 612.358806 164.064898 
L 613.32115 174.165111 
L 614.980981 196.389566 
L 615.319906 198.230922 
L 616.003077 200.224678 
L 616.347025 201.790888 
L 617.736761 211.121313 
L 618.087739 212.377686 
L 618.440151 213.019167 
L 618.79398 213.203909 
L 619.149205 213.198442 
L 619.505819 213.430271 
L 620.58346 215.499925 
L 620.945072 215.60276 
L 621.307919 214.993506 
L 621.67213 213.537646 
L 623.518257 203.650997 
L 625.411742 195.060225 
L 626.180127 193.599282 
L 626.565512 191.954924 
L 628.108012 182.762849 
L 628.876311 181.598837 
L 629.258941 180.435322 
L 629.640325 178.322458 
L 630.776497 170.734834 
L 631.152701 170.885579 
L 631.52776 172.508567 
L 631.90173 173.303088 
L 632.274653 171.299275 
L 633.017515 163.020868 
L 633.387579 161.063063 
L 633.756863 161.969939 
L 634.49358 167.147717 
L 634.861281 167.680938 
L 635.59609 164.455155 
L 635.963528 163.996456 
L 636.331226 165.370297 
L 636.699398 168.637164 
L 638.179533 189.545388 
L 638.923806 194.404201 
L 639.296504 195.503122 
L 639.669254 194.215104 
L 640.042059 188.839256 
L 640.789109 172.344652 
L 641.163976 170.391255 
L 641.917393 173.517851 
L 642.296183 173.949487 
L 642.676445 172.181903 
L 643.058222 167.618332 
L 643.826419 155.294814 
L 644.212881 152.18202 
L 644.600948 152.12584 
L 644.99064 153.413922 
L 645.381972 154.113324 
L 645.77496 153.408431 
L 646.964019 147.918679 
L 647.363784 147.287945 
L 647.765275 147.17777 
L 648.168502 146.941732 
L 648.573474 146.160708 
L 650.210979 141.307891 
L 651.457785 139.125071 
L 652.72073 136.338189 
L 653.571689 135.172253 
L 655.29521 133.25544 
L 656.167752 132.679186 
L 657.489983 132.258438 
L 658.380368 132.148168 
L 659.277822 132.313198 
L 660.182299 132.878332 
L 662.012145 134.357265 
L 662.937426 135.752847 
L 663.869555 137.658947 
L 664.808495 140.414311 
L 666.706583 146.229384 
L 667.185252 146.067339 
L 668.147499 143.767316 
L 668.631067 143.599545 
L 669.116246 144.066002 
L 669.602986 144.33257 
L 670.091239 143.93273 
L 671.072258 142.142122 
L 671.565023 141.616135 
L 673.052331 140.583207 
L 674.553123 139.149771 
L 675.056374 139.181227 
L 675.561113 139.33443 
L 676.067339 139.068895 
L 678.107044 135.999881 
L 678.620654 136.113545 
L 679.513182 138.605812 
L 679.513182 138.605812 
" clip-path="url(#pe3ede429f0)" style="fill: none; stroke: #2ca02c; stroke-width: 0.9; stroke-linecap: square"/>
   </g>
   <g id="line2d_30">
    <path d="M 85.776818 136.014042 
L 86.294713 136.763089 
L 86.814051 136.569654 
L 87.334828 135.779563 
L 87.857042 135.382504 
L 88.380688 135.605747 
L 88.905762 136.07717 
L 89.432261 136.38541 
L 89.96018 136.327267 
L 91.020262 135.732796 
L 91.552416 135.637863 
L 93.695015 136.053753 
L 95.316518 135.85791 
L 97.497683 136.053912 
L 99.700463 136.030692 
L 102.483859 136.100701 
L 116.288578 136.045802 
L 125.27037 136.160269 
L 132.639945 136.299316 
L 137.640208 136.128332 
L 140.799776 135.78581 
L 143.346113 135.334633 
L 146.548426 134.487036 
L 148.468435 133.800082 
L 151.01091 132.818765 
L 152.89663 132.144428 
L 155.984368 130.668341 
L 158.987117 129.634962 
L 160.741711 129.316657 
L 161.890189 129.336446 
L 163.020885 129.570547 
L 164.133206 130.005679 
L 165.226623 130.695156 
L 166.300666 131.64486 
L 167.354914 132.856255 
L 168.388992 134.386311 
L 169.901562 137.171492 
L 171.366994 140.419366 
L 173.702304 146.218259 
L 175.472647 150.58895 
L 177.56302 155.003685 
L 178.361501 156.171008 
L 179.139015 157.015566 
L 179.520083 157.70498 
L 180.267162 160.089332 
L 180.994553 162.181831 
L 181.351081 162.62397 
L 181.70298 162.775576 
L 182.050372 163.202157 
L 182.393397 164.645787 
L 183.066955 171.153292 
L 183.72488 177.370194 
L 184.048381 178.916559 
L 184.368476 179.53721 
L 184.68536 179.589876 
L 185.310292 179.169103 
L 185.618736 178.732509 
L 185.924767 177.927812 
L 186.228587 176.546915 
L 187.72254 166.98821 
L 188.60285 163.408862 
L 189.470661 160.809343 
L 190.040471 159.729972 
L 190.60205 159.281247 
L 191.154985 159.344943 
L 191.699368 159.733375 
L 192.500989 160.688875 
L 193.286112 162.133015 
L 194.055262 164.103675 
L 194.559119 165.782758 
L 195.542969 169.89816 
L 196.718297 173.102586 
L 197.171838 173.716397 
L 197.395807 173.811064 
L 197.618252 173.772771 
L 198.059598 173.375758 
L 198.716103 172.270243 
L 200.90563 167.624292 
L 202.240187 164.684284 
L 204.480701 159.329398 
L 205.132849 158.452468 
L 205.561035 158.184039 
L 205.985948 158.231108 
L 206.409604 158.655199 
L 207.480229 160.399232 
L 207.919944 160.730616 
L 208.369478 160.702902 
L 209.303709 160.096722 
L 209.789982 159.456789 
L 210.038003 159.314344 
L 210.801337 159.695827 
L 211.062159 159.46194 
L 211.863297 158.276844 
L 212.973712 157.716391 
L 216.251429 151.868619 
L 218.714928 146.930991 
L 219.925031 146.212218 
L 220.223827 146.369968 
L 220.52114 147.124952 
L 221.111479 150.804042 
L 221.696496 154.538351 
L 222.565214 158.837512 
L 223.139338 164.647748 
L 223.710383 170.743854 
L 223.995121 172.551035 
L 224.279572 173.546481 
L 224.563916 173.892679 
L 224.848321 173.719443 
L 225.132938 173.148696 
L 225.703321 171.110516 
L 228.005179 160.946611 
L 228.584357 159.577709 
L 229.165514 158.853022 
L 229.457276 158.712506 
L 229.750128 158.704345 
L 230.340001 159.057463 
L 230.936732 159.873244 
L 231.541655 160.879341 
L 231.84748 161.115762 
L 232.466173 160.964809 
L 232.779092 161.146545 
L 233.411992 161.759331 
L 233.731928 161.466446 
L 234.05418 160.507263 
L 234.705565 157.677312 
L 235.034649 156.875308 
L 235.365983 156.680202 
L 235.699553 156.622252 
L 236.035338 156.178349 
L 236.373315 155.097996 
L 237.400336 150.921903 
L 237.747017 150.347728 
L 238.446245 149.797899 
L 239.151761 148.759017 
L 239.86185 147.721132 
L 240.218194 147.961976 
L 240.57523 149.209973 
L 241.290962 154.402478 
L 242.008467 159.64156 
L 242.367832 161.304779 
L 243.088127 163.495981 
L 243.449197 165.514464 
L 244.173164 170.549239 
L 244.535937 171.939265 
L 244.899103 172.328349 
L 245.262567 171.792445 
L 245.990372 169.293349 
L 246.354867 168.717285 
L 246.719863 168.999954 
L 247.085382 168.987347 
L 247.451427 168.138435 
L 248.552855 164.766982 
L 249.659144 162.37855 
L 251.137906 159.664199 
L 251.878309 158.82581 
L 252.24908 158.616686 
L 252.620469 158.536351 
L 253.365941 158.717 
L 253.740442 158.994494 
L 254.493978 160.052041 
L 254.873355 160.6704 
L 255.254629 160.943515 
L 255.637865 160.60315 
L 256.023128 159.666184 
L 256.410507 158.128608 
L 256.800091 155.619226 
L 257.19193 151.644331 
L 257.586031 145.762836 
L 258.380473 128.254969 
L 259.181444 111.249473 
L 259.583412 105.394268 
L 259.985663 102.056381 
L 260.38772 100.677481 
L 260.789206 99.989201 
L 261.189848 98.735286 
L 261.988265 93.89533 
L 262.386212 91.433327 
L 262.783482 89.825772 
L 263.180183 89.271418 
L 263.576411 89.20688 
L 263.972251 88.523079 
L 264.367763 86.329436 
L 265.552629 76.682881 
L 267.523211 65.142175 
L 268.310781 60.054956 
L 269.09862 56.422245 
L 270.281842 51.217626 
L 271.07198 48.406569 
L 271.467444 47.650844 
L 271.863173 47.18378 
L 272.655524 46.739612 
L 273.449381 46.675095 
L 273.847055 46.776557 
L 274.245362 47.036763 
L 274.64442 47.578125 
L 275.044335 48.492826 
L 276.249952 52.377548 
L 277.871832 57.715332 
L 278.279801 58.664455 
L 278.688792 59.190039 
L 279.510081 59.580065 
L 279.922532 60.159345 
L 280.751215 62.192991 
L 282.00215 65.414258 
L 282.838738 67.454379 
L 283.675403 70.277137 
L 284.093424 71.877182 
L 284.51117 74.112193 
L 284.928648 77.730279 
L 285.345885 83.294502 
L 285.762941 91.30484 
L 286.596773 112.329137 
L 287.013634 119.753384 
L 287.847463 127.881785 
L 288.264524 135.243518 
L 289.099117 157.056654 
L 289.516685 164.875574 
L 289.934464 169.769416 
L 290.352489 173.337767 
L 290.770699 175.652779 
L 291.188939 176.158175 
L 291.60706 175.198233 
L 292.442425 171.424047 
L 293.275678 167.400757 
L 294.105973 164.447472 
L 294.932549 162.475984 
L 295.754406 161.1852 
L 296.570645 160.337131 
L 297.783335 159.507726 
L 300.951908 157.484331 
L 302.506532 156.429445 
L 303.2778 156.33556 
L 304.806616 156.215563 
L 307.06696 155.959894 
L 307.812956 156.297773 
L 308.924014 157.209331 
L 309.658336 157.818489 
L 310.387079 158.194458 
L 311.468898 158.412674 
L 312.53836 158.389696 
L 314.304092 158.261907 
L 315.008477 158.347086 
L 315.713525 158.614164 
L 316.419972 159.103321 
L 318.920789 161.210492 
L 319.647838 161.546346 
L 320.380707 161.98218 
L 320.749195 161.422141 
L 322.237261 155.343316 
L 322.612979 152.314131 
L 322.990273 145.725813 
L 323.369216 136.564091 
L 323.74985 130.192174 
L 324.132142 128.054488 
L 324.515888 127.174752 
L 324.900735 124.993903 
L 325.672529 117.638244 
L 326.059101 115.1271 
L 326.445913 114.09506 
L 326.832818 114.063131 
L 327.219666 114.218089 
L 327.606315 113.781184 
L 327.992623 112.430156 
L 329.531338 105.084155 
L 330.294701 102.475011 
L 330.674567 101.306027 
L 331.053164 99.671374 
L 331.430472 97.418162 
L 331.806493 94.491686 
L 333.297866 80.299229 
L 335.85662 68.499863 
L 336.21572 67.403719 
L 336.573128 67.046326 
L 336.928916 67.126914 
L 337.283199 66.911404 
L 337.636132 65.520859 
L 339.036305 54.218208 
L 339.383685 53.028906 
L 339.730091 52.413108 
L 340.420142 51.681995 
L 340.763804 51.010991 
L 342.470384 46.239152 
L 343.487281 45.075029 
L 344.162564 44.426648 
L 344.499442 44.286524 
L 344.835889 44.298946 
L 345.507988 44.652657 
L 345.843951 45.043355 
L 346.853571 46.917262 
L 347.529841 48.257267 
L 347.869543 49.211768 
L 348.210633 50.674349 
L 348.553355 52.92637 
L 349.244463 59.928959 
L 350.297486 74.731796 
L 351.733075 95.056048 
L 353.202375 113.689171 
L 353.949402 123.220907 
L 354.70469 129.823418 
L 356.629239 144.93904 
L 357.413622 148.333832 
L 358.206291 150.770655 
L 359.007189 152.526647 
L 359.410701 153.066862 
L 359.81623 153.354745 
L 360.223664 153.445239 
L 361.043166 153.258611 
L 361.454516 152.966833 
L 361.866447 152.501307 
L 362.690723 150.973552 
L 363.513554 148.689021 
L 364.332837 145.58997 
L 365.551125 139.487793 
L 368.70255 121.21294 
L 369.836503 115.886439 
L 370.939592 111.702377 
L 372.009902 108.55369 
L 373.046244 106.266178 
L 373.717875 105.179621 
L 374.696424 104.279062 
L 375.015209 103.603534 
L 375.330511 102.384785 
L 376.256595 97.115877 
L 377.154282 94.564226 
L 377.447502 92.529916 
L 378.025538 84.761375 
L 378.873082 71.97538 
L 379.426297 67.03941 
L 379.971722 62.72363 
L 382.106253 42.580357 
L 382.629591 40.460577 
L 382.889325 39.998564 
L 383.404914 39.697053 
L 383.915612 39.303322 
L 385.418498 37.479975 
L 386.153081 37.066999 
L 387.111236 36.894415 
L 388.040595 36.857277 
L 388.940177 37.077028 
L 389.379926 37.347449 
L 389.814168 37.807288 
L 390.457439 38.923653 
L 391.094452 40.470026 
L 392.574189 44.470186 
L 394.069486 47.34713 
L 394.504066 49.033388 
L 394.943613 51.593138 
L 395.389133 55.293137 
L 395.841646 60.448673 
L 396.302172 67.58298 
L 397.741501 92.941298 
L 398.498981 104.613801 
L 399.284507 116.578641 
L 399.824301 121.437559 
L 400.942172 129.695921 
L 401.812899 133.717318 
L 402.408316 135.784212 
L 403.32331 137.76339 
L 403.947602 138.635917 
L 404.905013 139.494052 
L 405.556996 139.593084 
L 406.893022 139.48292 
L 408.621292 138.930148 
L 409.328546 138.986434 
L 410.397438 139.351805 
L 411.111287 139.94186 
L 411.823455 140.912657 
L 412.884265 142.689847 
L 414.275983 146.185604 
L 415.631976 150.048592 
L 417.582608 155.378833 
L 419.72044 161.519719 
L 420.304134 164.744036 
L 420.875653 167.998516 
L 421.709995 171.422123 
L 423.04021 179.045682 
L 423.297651 179.160043 
L 423.552371 178.869052 
L 424.053962 177.616299 
L 424.545937 175.813109 
L 425.740878 170.526028 
L 426.436841 168.847971 
L 427.342701 167.407022 
L 429.31085 164.31136 
L 430.818724 161.697862 
L 431.882514 160.366079 
L 432.699576 159.669814 
L 433.292434 159.450027 
L 434.062106 159.459991 
L 435.198618 159.617956 
L 435.952558 159.428318 
L 437.270398 158.806598 
L 438.77232 158.151073 
L 439.527383 157.976528 
L 440.29022 158.063812 
L 441.06364 158.153088 
L 443.070781 158.175965 
L 443.487762 158.587079 
L 444.558313 160.252953 
L 445.000194 160.529717 
L 445.2246 160.355762 
L 445.451507 159.831297 
L 445.913345 157.69027 
L 446.627802 153.936615 
L 448.404906 147.805201 
L 449.214111 146.506974 
L 450.051107 144.377233 
L 450.915231 143.145098 
L 453.347392 137.638791 
L 458.780103 122.279952 
L 460.009381 117.396231 
L 460.90687 113.611432 
L 461.781851 108.71697 
L 463.462088 98.805414 
L 464.269736 95.465785 
L 464.798166 91.412997 
L 467.111218 67.970019 
L 468.897084 47.878877 
L 469.412071 44.805167 
L 469.926894 42.941107 
L 470.43867 42.197071 
L 470.692695 42.122502 
L 471.196425 42.352974 
L 471.694404 42.908909 
L 472.431778 44.066084 
L 473.405163 46.077639 
L 474.871256 49.110604 
L 475.365506 49.80591 
L 476.365528 50.610756 
L 476.618318 51.070711 
L 476.872423 51.801009 
L 477.385073 54.349131 
L 477.904556 58.361996 
L 478.43206 63.85404 
L 479.240829 74.958098 
L 480.073297 90.024563 
L 480.642498 100.242984 
L 481.223593 106.469473 
L 481.81672 111.626805 
L 483.037997 126.031003 
L 484.304465 134.079064 
L 484.954202 138.964465 
L 485.614748 142.321686 
L 486.625511 146.273039 
L 487.312427 148.537034 
L 488.009607 150.096319 
L 489.428178 152.609355 
L 490.500735 153.820228 
L 491.214894 154.406609 
L 491.925779 154.738743 
L 493.330213 154.980759 
L 494.362166 154.646247 
L 495.371093 154.215147 
L 496.353826 153.401924 
L 497.308225 152.56081 
L 498.233361 152.197209 
L 498.535281 152.285374 
L 498.834021 152.736295 
L 499.711473 155.117753 
L 500.28131 157.104747 
L 500.561921 158.579684 
L 501.115204 163.500573 
L 501.928515 172.288259 
L 502.462805 175.612112 
L 502.992838 177.123577 
L 503.256719 177.362045 
L 503.52006 177.25133 
L 503.78301 176.765739 
L 504.0457 175.814646 
L 504.570737 172.686691 
L 505.359167 167.947506 
L 506.147589 164.787109 
L 507.190216 161.659564 
L 508.210179 159.183302 
L 509.203186 157.285651 
L 509.933796 156.204576 
L 510.656045 155.536638 
L 511.372143 155.280668 
L 512.561601 155.200063 
L 513.2814 155.345555 
L 514.012497 155.846683 
L 517.636464 159.081116 
L 518.749299 160.233213 
L 519.034131 160.145992 
L 519.612225 159.510407 
L 520.501504 159.659821 
L 520.803886 158.94894 
L 521.109178 157.44433 
L 522.042411 151.046714 
L 522.359222 150.151714 
L 522.67885 150.268229 
L 523.001267 150.782727 
L 523.326454 150.574333 
L 523.65441 148.726496 
L 524.654967 137.719024 
L 524.994008 136.823743 
L 525.335756 137.36572 
L 525.680189 137.420499 
L 526.027289 135.787497 
L 526.729412 130.580667 
L 527.084344 129.499841 
L 527.441772 129.799707 
L 528.163944 132.067665 
L 528.528642 132.701628 
L 529.265159 132.772165 
L 529.63693 133.392761 
L 530.387394 136.528682 
L 531.14682 139.642907 
L 532.299017 144.054834 
L 533.458315 149.336808 
L 534.230498 153.530841 
L 534.999074 158.828897 
L 537.630259 171.920961 
L 537.996645 172.475055 
L 538.360637 171.517017 
L 539.081475 168.383894 
L 539.438274 168.089226 
L 539.792599 168.779188 
L 540.14441 169.733005 
L 540.493652 170.247973 
L 540.840254 169.97015 
L 541.863174 166.580253 
L 542.198302 166.553037 
L 542.530558 167.384394 
L 543.510457 171.041685 
L 543.831476 171.732255 
L 544.149709 172.067158 
L 544.465197 172.200139 
L 544.777977 172.456772 
L 545.088079 173.095493 
L 545.700392 175.437941 
L 546.002707 176.619554 
L 546.302518 177.275891 
L 546.599861 177.294616 
L 546.894767 176.851557 
L 548.334481 173.525407 
L 548.895654 171.69691 
L 549.724246 168.787604 
L 550.538291 167.031813 
L 551.601668 165.568172 
L 552.64063 164.082944 
L 553.659181 162.245541 
L 556.386693 156.911005 
L 556.874084 156.429833 
L 557.359564 156.378924 
L 557.842685 156.758932 
L 558.561062 157.906897 
L 561.757067 164.49389 
L 562.837126 167.432766 
L 563.474419 168.452303 
L 563.896809 168.87806 
L 564.530198 169.225936 
L 564.742092 169.206982 
L 564.954682 168.947566 
L 565.382566 167.803345 
L 566.474725 164.587102 
L 567.377976 162.457568 
L 568.298002 160.839632 
L 568.759427 160.37955 
L 568.990337 160.313734 
L 569.452942 160.508896 
L 571.090887 161.73087 
L 571.328957 161.586719 
L 571.809824 161.047975 
L 572.052955 160.979718 
L 572.54525 161.260504 
L 572.794617 161.233563 
L 573.046251 160.889207 
L 573.815613 158.940495 
L 574.077131 158.672349 
L 574.608115 158.656472 
L 574.877667 158.443588 
L 575.425103 157.614762 
L 575.70305 157.501568 
L 576.26742 157.91747 
L 576.553823 157.877802 
L 576.843024 157.498772 
L 577.429767 156.384605 
L 578.02753 155.870909 
L 578.33051 155.655576 
L 578.636256 155.174566 
L 578.944851 154.102397 
L 580.205472 146.495656 
L 580.525394 145.488817 
L 580.846405 144.056158 
L 581.490329 138.711168 
L 582.134777 133.444616 
L 583.417401 127.484537 
L 584.368266 121.781581 
L 585.613909 116.63154 
L 586.5273 110.820517 
L 587.712656 102.325193 
L 588.290486 98.334666 
L 588.858259 93.280459 
L 589.964849 81.748589 
L 590.235635 81.021285 
L 590.770279 81.223542 
L 591.034194 80.738472 
L 591.295871 79.503694 
L 592.320153 72.840052 
L 593.065836 70.253285 
L 593.55479 67.160298 
L 594.763674 57.488071 
L 595.733953 45.537702 
L 596.222361 42.597025 
L 596.712078 41.042591 
L 597.202384 40.192382 
L 597.692213 39.816173 
L 598.178886 39.777011 
L 598.658643 40.114097 
L 599.128849 40.764901 
L 599.590459 41.7448 
L 600.271025 43.929494 
L 601.166702 48.003441 
L 601.838098 52.20336 
L 602.516307 56.522999 
L 602.974794 57.982554 
L 604.149429 60.228824 
L 605.121391 63.37814 
L 605.87019 64.215739 
L 606.123634 65.207162 
L 606.379056 67.013914 
L 606.896109 73.087681 
L 608.782674 103.429608 
L 611.732345 155.430635 
L 612.358806 161.949871 
L 612.997378 165.120144 
L 613.977304 168.879234 
L 614.309447 168.906862 
L 614.644081 168.073657 
L 615.660658 164.449003 
L 616.347025 162.713418 
L 617.387225 160.561569 
L 618.087739 159.506587 
L 618.79398 158.804909 
L 619.863781 158.230517 
L 621.307919 157.604424 
L 621.67213 157.629268 
L 622.405236 158.043396 
L 623.145352 158.81618 
L 624.269966 160.329093 
L 625.029422 161.524323 
L 626.951269 165.067897 
L 628.108012 165.941135 
L 628.876311 167.026962 
L 629.258941 167.206559 
L 629.640325 166.855261 
L 630.776497 164.103004 
L 631.152701 164.551577 
L 631.52776 165.863229 
L 631.90173 166.550402 
L 632.274653 165.380229 
L 633.017515 159.741291 
L 633.387579 158.353843 
L 633.756863 159.185091 
L 634.49358 163.256762 
L 634.861281 163.595867 
L 635.59609 161.030486 
L 635.963528 160.638289 
L 636.331226 161.631648 
L 636.699398 163.927924 
L 637.437897 170.576544 
L 637.808338 172.292115 
L 638.179533 172.527181 
L 638.551408 171.920326 
L 639.296504 169.619405 
L 640.042059 166.27217 
L 640.789109 160.452798 
L 641.163976 159.836764 
L 642.296183 162.810945 
L 642.676445 162.437162 
L 643.058222 160.349409 
L 643.826419 152.535853 
L 644.212881 150.286748 
L 644.600948 150.432242 
L 644.99064 151.670315 
L 645.381972 152.375289 
L 645.77496 151.852596 
L 646.964019 147.160238 
L 647.363784 146.627853 
L 647.765275 146.563343 
L 648.168502 146.376061 
L 648.573474 145.67634 
L 650.210979 141.155588 
L 651.457785 139.06761 
L 652.72073 136.335381 
L 653.571689 135.176166 
L 655.29521 133.248796 
L 656.167752 132.66073 
L 657.489983 132.224944 
L 658.380368 132.108156 
L 659.277822 132.272464 
L 660.182299 132.84477 
L 662.012145 134.344169 
L 662.937426 135.751582 
L 663.869555 137.6635 
L 664.808495 140.407339 
L 666.706583 146.033991 
L 667.185252 145.831769 
L 668.147499 143.562439 
L 668.631067 143.391381 
L 669.116246 143.834166 
L 669.602986 144.087648 
L 670.091239 143.705337 
L 671.072258 141.992707 
L 671.565023 141.49176 
L 673.052331 140.506116 
L 674.553123 139.111236 
L 675.056374 139.145309 
L 675.561113 139.298965 
L 676.067339 139.038593 
L 678.107044 135.99967 
L 678.620654 136.113127 
L 679.513182 138.596226 
L 679.513182 138.596226 
" clip-path="url(#pe3ede429f0)" style="fill: none; stroke: #d62728; stroke-opacity: 0.8; stroke-width: 0.9; stroke-linecap: square"/>
   </g>
   <g id="patch_3">
    <path d="M 56.09 246.04 
L 56.09 26.88 
" style="fill: none; stroke: #000000; stroke-width: 0.8; stroke-linejoin: miter; stroke-linecap: square"/>
   </g>
   <g id="patch_4">
    <path d="M 709.2 246.04 
L 709.2 26.88 
" style="fill: none; stroke: #000000; stroke-width: 0.8; stroke-linejoin: miter; stroke-linecap: square"/>
   </g>
   <g id="patch_5">
    <path d="M 56.09 246.04 
L 709.2 246.04 
" style="fill: none; stroke: #000000; stroke-width: 0.8; stroke-linejoin: miter; stroke-linecap: square"/>
   </g>
   <g id="patch_6">
    <path d="M 56.09 26.88 
L 709.2 26.88 
" style="fill: none; stroke: #000000; stroke-width: 0.8; stroke-linejoin: miter; stroke-linecap: square"/>
   </g>
   <g id="text_17">
    <!-- steering-link loads over one Ring Knutstorp lap -->
    <g transform="translate(241.40875 20.88) scale(0.12 -0.12)">
     <defs>
      <path id="DejaVuSans-67" d="M 2906 1791 
Q 2906 2416 2648 2759 
Q 2391 3103 1925 3103 
Q 1463 3103 1205 2759 
Q 947 2416 947 1791 
Q 947 1169 1205 825 
Q 1463 481 1925 481 
Q 2391 481 2648 825 
Q 2906 1169 2906 1791 
z
M 3481 434 
Q 3481 -459 3084 -895 
Q 2688 -1331 1869 -1331 
Q 1566 -1331 1297 -1286 
Q 1028 -1241 775 -1147 
L 775 -588 
Q 1028 -725 1275 -790 
Q 1522 -856 1778 -856 
Q 2344 -856 2625 -561 
Q 2906 -266 2906 331 
L 2906 616 
Q 2728 306 2450 153 
Q 2172 0 1784 0 
Q 1141 0 747 490 
Q 353 981 353 1791 
Q 353 2603 747 3093 
Q 1141 3584 1784 3584 
Q 2172 3584 2450 3431 
Q 2728 3278 2906 2969 
L 2906 3500 
L 3481 3500 
L 3481 434 
z
" transform="scale(0.015625)"/>
      <path id="DejaVuSans-6c" d="M 603 4863 
L 1178 4863 
L 1178 0 
L 603 0 
L 603 4863 
z
" transform="scale(0.015625)"/>
      <path id="DejaVuSans-76" d="M 191 3500 
L 800 3500 
L 1894 563 
L 2988 3500 
L 3597 3500 
L 2284 0 
L 1503 0 
L 191 3500 
z
" transform="scale(0.015625)"/>
      <path id="DejaVuSans-52" d="M 2841 2188 
Q 3044 2119 3236 1894 
Q 3428 1669 3622 1275 
L 4263 0 
L 3584 0 
L 2988 1197 
Q 2756 1666 2539 1819 
Q 2322 1972 1947 1972 
L 1259 1972 
L 1259 0 
L 628 0 
L 628 4666 
L 2053 4666 
Q 2853 4666 3247 4331 
Q 3641 3997 3641 3322 
Q 3641 2881 3436 2590 
Q 3231 2300 2841 2188 
z
M 1259 4147 
L 1259 2491 
L 2053 2491 
Q 2509 2491 2742 2702 
Q 2975 2913 2975 3322 
Q 2975 3731 2742 3939 
Q 2509 4147 2053 4147 
L 1259 4147 
z
" transform="scale(0.015625)"/>
      <path id="DejaVuSans-4b" d="M 628 4666 
L 1259 4666 
L 1259 2694 
L 3353 4666 
L 4166 4666 
L 1850 2491 
L 4331 0 
L 3500 0 
L 1259 2247 
L 1259 0 
L 628 0 
L 628 4666 
z
" transform="scale(0.015625)"/>
      <path id="DejaVuSans-75" d="M 544 1381 
L 544 3500 
L 1119 3500 
L 1119 1403 
Q 1119 906 1312 657 
Q 1506 409 1894 409 
Q 2359 409 2629 706 
Q 2900 1003 2900 1516 
L 2900 3500 
L 3475 3500 
L 3475 0 
L 2900 0 
L 2900 538 
Q 2691 219 2414 64 
Q 2138 -91 1772 -91 
Q 1169 -91 856 284 
Q 544 659 544 1381 
z
M 1991 3584 
L 1991 3584 
z
" transform="scale(0.015625)"/>
      <path id="DejaVuSans-70" d="M 1159 525 
L 1159 -1331 
L 581 -1331 
L 581 3500 
L 1159 3500 
L 1159 2969 
Q 1341 3281 1617 3432 
Q 1894 3584 2278 3584 
Q 2916 3584 3314 3078 
Q 3713 2572 3713 1747 
Q 3713 922 3314 415 
Q 2916 -91 2278 -91 
Q 1894 -91 1617 61 
Q 1341 213 1159 525 
z
M 3116 1747 
Q 3116 2381 2855 2742 
Q 2594 3103 2138 3103 
Q 1681 3103 1420 2742 
Q 1159 2381 1159 1747 
Q 1159 1113 1420 752 
Q 1681 391 2138 391 
Q 2594 391 2855 752 
Q 3116 1113 3116 1747 
z
" transform="scale(0.015625)"/>
     </defs>
     <use xlink:href="#DejaVuSans-73"/>
     <use xlink:href="#DejaVuSans-74" transform="translate(52.099609 0)"/>
     <use xlink:href="#DejaVuSans-65" transform="translate(91.308594 0)"/>
     <use xlink:href="#DejaVuSans-65" transform="translate(152.832031 0)"/>
     <use xlink:href="#DejaVuSans-72" transform="translate(214.355469 0)"/>
     <use xlink:href="#DejaVuSans-69" transform="translate(255.46875 0)"/>
     <use xlink:href="#DejaVuSans-6e" transform="translate(283.251953 0)"/>
     <use xlink:href="#DejaVuSans-67" transform="translate(346.630859 0)"/>
     <use xlink:href="#DejaVuSans-2d" transform="translate(410.107422 0)"/>
     <use xlink:href="#DejaVuSans-6c" transform="translate(446.191406 0)"/>
     <use xlink:href="#DejaVuSans-69" transform="translate(473.974609 0)"/>
     <use xlink:href="#DejaVuSans-6e" transform="translate(501.757812 0)"/>
     <use xlink:href="#DejaVuSans-6b" transform="translate(565.136719 0)"/>
     <use xlink:href="#DejaVuSans-20" transform="translate(623.046875 0)"/>
     <use xlink:href="#DejaVuSans-6c" transform="translate(654.833984 0)"/>
     <use xlink:href="#DejaVuSans-6f" transform="translate(682.617188 0)"/>
     <use xlink:href="#DejaVuSans-61" transform="translate(743.798828 0)"/>
     <use xlink:href="#DejaVuSans-64" transform="translate(805.078125 0)"/>
     <use xlink:href="#DejaVuSans-73" transform="translate(868.554688 0)"/>
     <use xlink:href="#DejaVuSans-20" transform="translate(920.654297 0)"/>
     <use xlink:href="#DejaVuSans-6f" transform="translate(952.441406 0)"/>
     <use xlink:href="#DejaVuSans-76" transform="translate(1013.623047 0)"/>
     <use xlink:href="#DejaVuSans-65" transform="translate(1072.802734 0)"/>
     <use xlink:href="#DejaVuSans-72" transform="translate(1134.326172 0)"/>
     <use xlink:href="#DejaVuSans-20" transform="translate(1175.439453 0)"/>
     <use xlink:href="#DejaVuSans-6f" transform="translate(1207.226562 0)"/>
     <use xlink:href="#DejaVuSans-6e" transform="translate(1268.408203 0)"/>
     <use xlink:href="#DejaVuSans-65" transform="translate(1331.787109 0)"/>
     <use xlink:href="#DejaVuSans-20" transform="translate(1393.310547 0)"/>
     <use xlink:href="#DejaVuSans-52" transform="translate(1425.097656 0)"/>
     <use xlink:href="#DejaVuSans-69" transform="translate(1494.580078 0)"/>
     <use xlink:href="#DejaVuSans-6e" transform="translate(1522.363281 0)"/>
     <use xlink:href="#DejaVuSans-67" transform="translate(1585.742188 0)"/>
     <use xlink:href="#DejaVuSans-20" transform="translate(1649.21875 0)"/>
     <use xlink:href="#DejaVuSans-4b" transform="translate(1681.005859 0)"/>
     <use xlink:href="#DejaVuSans-6e" transform="translate(1746.582031 0)"/>
     <use xlink:href="#DejaVuSans-75" transform="translate(1809.960938 0)"/>
     <use xlink:href="#DejaVuSans-74" transform="translate(1873.339844 0)"/>
     <use xlink:href="#DejaVuSans-73" transform="translate(1912.548828 0)"/>
     <use xlink:href="#DejaVuSans-74" transform="translate(1964.648438 0)"/>
     <use xlink:href="#DejaVuSans-6f" transform="translate(2003.857422 0)"/>
     <use xlink:href="#DejaVuSans-72" transform="translate(2065.039062 0)"/>
     <use xlink:href="#DejaVuSans-70" transform="translate(2106.152344 0)"/>
     <use xlink:href="#DejaVuSans-20" transform="translate(2169.628906 0)"/>
     <use xlink:href="#DejaVuSans-6c" transform="translate(2201.416016 0)"/>
     <use xlink:href="#DejaVuSans-61" transform="translate(2229.199219 0)"/>
     <use xlink:href="#DejaVuSans-70" transform="translate(2290.478516 0)"/>
    </g>
   </g>
   <g id="legend_1">
    <g id="patch_7">
     <path d="M 630.755 56.765 
L 703.6 56.765 
Q 705.2 56.765 705.2 55.165 
L 705.2 32.48 
Q 705.2 30.88 703.6 30.88 
L 630.755 30.88 
Q 629.155 30.88 629.155 32.48 
L 629.155 55.165 
Q 629.155 56.765 630.755 56.765 
z
" style="fill: #ffffff; opacity: 0.8; stroke: #cccccc; stroke-linejoin: miter"/>
    </g>
    <g id="line2d_31">
     <path d="M 632.355 37.35875 
L 640.355 37.35875 
L 648.355 37.35875 
" style="fill: none; stroke: #2ca02c; stroke-width: 0.9; stroke-linecap: square"/>
    </g>
    <g id="text_18">
     <!-- tie rod left -->
     <g transform="translate(654.755 40.15875) scale(0.08 -0.08)">
      <use xlink:href="#DejaVuSans-74"/>
      <use xlink:href="#DejaVuSans-69" transform="translate(39.208984 0)"/>
      <use xlink:href="#DejaVuSans-65" transform="translate(66.992188 0)"/>
      <use xlink:href="#DejaVuSans-20" transform="translate(128.515625 0)"/>
      <use xlink:href="#DejaVuSans-72" transform="translate(160.302734 0)"/>
      <use xlink:href="#DejaVuSans-6f" transform="translate(199.166016 0)"/>
      <use xlink:href="#DejaVuSans-64" transform="translate(260.347656 0)"/>
      <use xlink:href="#DejaVuSans-20" transform="translate(323.824219 0)"/>
      <use xlink:href="#DejaVuSans-6c" transform="translate(355.611328 0)"/>
      <use xlink:href="#DejaVuSans-65" transform="translate(383.394531 0)"/>
      <use xlink:href="#DejaVuSans-66" transform="translate(444.917969 0)"/>
      <use xlink:href="#DejaVuSans-74" transform="translate(478.373047 0)"/>
     </g>
    </g>
    <g id="line2d_32">
     <path d="M 632.355 49.10125 
L 640.355 49.10125 
L 648.355 49.10125 
" style="fill: none; stroke: #d62728; stroke-opacity: 0.8; stroke-width: 0.9; stroke-linecap: square"/>
    </g>
    <g id="text_19">
     <!-- tie rod right -->
     <g transform="translate(654.755 51.90125) scale(0.08 -0.08)">
      <defs>
       <path id="DejaVuSans-68" d="M 3513 2113 
L 3513 0 
L 2938 0 
L 2938 2094 
Q 2938 2591 2744 2837 
Q 2550 3084 2163 3084 
Q 1697 3084 1428 2787 
Q 1159 2491 1159 1978 
L 1159 0 
L 581 0 
L 581 4863 
L 1159 4863 
L 1159 2956 
Q 1366 3272 1645 3428 
Q 1925 3584 2291 3584 
Q 2894 3584 3203 3211 
Q 3513 2838 3513 2113 
z
" transform="scale(0.015625)"/>
      </defs>
      <use xlink:href="#DejaVuSans-74"/>
      <use xlink:href="#DejaVuSans-69" transform="translate(39.208984 0)"/>
      <use xlink:href="#DejaVuSans-65" transform="translate(66.992188 0)"/>
      <use xlink:href="#DejaVuSans-20" transform="translate(128.515625 0)"/>
      <use xlink:href="#DejaVuSans-72" transform="translate(160.302734 0)"/>
      <use xlink:href="#DejaVuSans-6f" transform="translate(199.166016 0)"/>
      <use xlink:href="#DejaVuSans-64" transform="translate(260.347656 0)"/>
      <use xlink:href="#DejaVuSans-20" transform="translate(323.824219 0)"/>
      <use xlink:href="#DejaVuSans-72" transform="translate(355.611328 0)"/>
      <use xlink:href="#DejaVuSans-69" transform="translate(396.724609 0)"/>
      <use xlink:href="#DejaVuSans-67" transform="translate(424.507812 0)"/>
      <use xlink:href="#DejaVuSans-68" transform="translate(487.984375 0)"/>
      <use xlink:href="#DejaVuSans-74" transform="translate(551.363281 0)"/>
     </g>
    </g>
   </g>
  </g>
 </g>
 <defs>
  <clipPath id="pe3ede429f0">
   <rect x="56.09" y="26.88" width="653.11" height="219.16"/>
  </clipPath>
 </defs>
</svg>
