<?xml version="1.0" encoding="utf-8" standalone="no"?>
<!DOCTYPE svg PUBLIC "-//W3C//DTD SVG 1.1//EN"
  "http://www.w3.org/Graphics/SVG/1.1/DTD/svg11.dtd">
<svg xmlns:xlink="http://www.w3.org/1999/xlink" width="720pt" height="288pt" viewBox="0 0 720 288" xmlns="http://www.w3.org/2000/svg" version="1.1">
 <metadata>
  <rdf:RDF xmlns:dc="http://purl.org/dc/elements/1.1/" xmlns:cc="http://creativecommons.org/ns#" xmlns:rdf="http://www.w3.org/1999/02/22-rdf-syntax-ns#">
   <cc:Work>
    <dc:type rdf:resource="http://purl.org/dc/dcmitype/StillImage"/>
    <dc:date>2026-07-08T12:16:44.983260</dc:date>
    <dc:format>image/svg+xml</dc:format>
    <dc:creator>
     <cc:Agent>
      <dc:title>Matplotlib v3.10.8, https://matplotlib.org/</dc:title>
     </cc:Agent>
    </dc:creator>
   </cc:Work>
  </rdf:RDF>
 </metadata>
 <defs>
  <style type="text/css">*{stroke-linejoin: round; stroke-linecap: butt}</style>
 </defs>
 <g id="figure_1">
  <g id="patch_1">
   <path d="M 0 288 
L 720 288 
L 720 0 
L 0 0 
z
" style="fill: #ffffff"/>
  </g>
  <g id="axes_1">
   <g id="patch_2">
    <path d="M 56.09 246.04 
L 709.2 246.04 
L 709.2 26.88 
L 56.09 26.88 
z
" style="fill: #ffffff"/>
   </g>
   <g id="matplotlib.axis_1">
    <g id="xtick_1">
     <g id="line2d_1">
      <path d="M 85.776818 246.04 
L 85.776818 26.88 
" clip-path="url(#p7a061e86eb)" style="fill: none; stroke: #b0b0b0; stroke-opacity: 0.3; stroke-width: 0.8; stroke-linecap: square"/>
     </g>
     <g id="line2d_2">
      <defs>
       <path id="m52bf05ad9f" d="M 0 0 
L 0 3.5 
" style="stroke: #000000; stroke-width: 0.8"/>
      </defs>
      <g>
       <use xlink:href="#m52bf05ad9f" x="85.776818" y="246.04" style="stroke: #000000; stroke-width: 0.8"/>
      </g>
     </g>
     <g id="text_1">
      <!-- 0.0 -->
      <g transform="translate(77.825256 260.638438) scale(0.1 -0.1)">
       <defs>
        <path id="DejaVuSans-30" d="M 2034 4250 
Q 1547 4250 1301 3770 
Q 1056 3291 1056 2328 
Q 1056 1369 1301 889 
Q 1547 409 2034 409 
Q 2525 409 2770 889 
Q 3016 1369 3016 2328 
Q 3016 3291 2770 3770 
Q 2525 4250 2034 4250 
z
M 2034 4750 
Q 2819 4750 3233 4129 
Q 3647 3509 3647 2328 
Q 3647 1150 3233 529 
Q 2819 -91 2034 -91 
Q 1250 -91 836 529 
Q 422 1150 422 2328 
Q 422 3509 836 4129 
Q 1250 4750 2034 4750 
z
" transform="scale(0.015625)"/>
        <path id="DejaVuSans-2e" d="M 684 794 
L 1344 794 
L 1344 0 
L 684 0 
L 684 794 
z
" transform="scale(0.015625)"/>
       </defs>
       <use xlink:href="#DejaVuSans-30"/>
       <use xlink:href="#DejaVuSans-2e" transform="translate(63.623047 0)"/>
       <use xlink:href="#DejaVuSans-30" transform="translate(95.410156 0)"/>
      </g>
     </g>
    </g>
    <g id="xtick_2">
     <g id="line2d_3">
      <path d="M 230.505846 246.04 
L 230.505846 26.88 
" clip-path="url(#p7a061e86eb)" style="fill: none; stroke: #b0b0b0; stroke-opacity: 0.3; stroke-width: 0.8; stroke-linecap: square"/>
     </g>
     <g id="line2d_4">
      <g>
       <use xlink:href="#m52bf05ad9f" x="230.505846" y="246.04" style="stroke: #000000; stroke-width: 0.8"/>
      </g>
     </g>
     <g id="text_2">
      <!-- 0.5 -->
      <g transform="translate(222.554283 260.638438) scale(0.1 -0.1)">
       <defs>
        <path id="DejaVuSans-35" d="M 691 4666 
L 3169 4666 
L 3169 4134 
L 1269 4134 
L 1269 2991 
Q 1406 3038 1543 3061 
Q 1681 3084 1819 3084 
Q 2600 3084 3056 2656 
Q 3513 2228 3513 1497 
Q 3513 744 3044 326 
Q 2575 -91 1722 -91 
Q 1428 -91 1123 -41 
Q 819 9 494 109 
L 494 744 
Q 775 591 1075 516 
Q 1375 441 1709 441 
Q 2250 441 2565 725 
Q 2881 1009 2881 1497 
Q 2881 1984 2565 2268 
Q 2250 2553 1709 2553 
Q 1456 2553 1204 2497 
Q 953 2441 691 2322 
L 691 4666 
z
" transform="scale(0.015625)"/>
       </defs>
       <use xlink:href="#DejaVuSans-30"/>
       <use xlink:href="#DejaVuSans-2e" transform="translate(63.623047 0)"/>
       <use xlink:href="#DejaVuSans-35" transform="translate(95.410156 0)"/>
      </g>
     </g>
    </g>
    <g id="xtick_3">
     <g id="line2d_5">
      <path d="M 375.234874 246.04 
L 375.234874 26.88 
" clip-path="url(#p7a061e86eb)" style="fill: none; stroke: #b0b0b0; stroke-opacity: 0.3; stroke-width: 0.8; stroke-linecap: square"/>
     </g>
     <g id="line2d_6">
      <g>
       <use xlink:href="#m52bf05ad9f" x="375.234874" y="246.04" style="stroke: #000000; stroke-width: 0.8"/>
      </g>
     </g>
     <g id="text_3">
      <!-- 1.0 -->
      <g transform="translate(367.283311 260.638438) scale(0.1 -0.1)">
       <defs>
        <path id="DejaVuSans-31" d="M 794 531 
L 1825 531 
L 1825 4091 
L 703 3866 
L 703 4441 
L 1819 4666 
L 2450 4666 
L 2450 531 
L 3481 531 
L 3481 0 
L 794 0 
L 794 531 
z
" transform="scale(0.015625)"/>
       </defs>
       <use xlink:href="#DejaVuSans-31"/>
       <use xlink:href="#DejaVuSans-2e" transform="translate(63.623047 0)"/>
       <use xlink:href="#DejaVuSans-30" transform="translate(95.410156 0)"/>
      </g>
     </g>
    </g>
    <g id="xtick_4">
     <g id="line2d_7">
      <path d="M 519.963901 246.04 
L 519.963901 26.88 
" clip-path="url(#p7a061e86eb)" style="fill: none; stroke: #b0b0b0; stroke-opacity: 0.3; stroke-width: 0.8; stroke-linecap: square"/>
     </g>
     <g id="line2d_8">
      <g>
       <use xlink:href="#m52bf05ad9f" x="519.963901" y="246.04" style="stroke: #000000; stroke-width: 0.8"/>
      </g>
     </g>
     <g id="text_4">
      <!-- 1.5 -->
      <g transform="translate(512.012339 260.638438) scale(0.1 -0.1)">
       <use xlink:href="#DejaVuSans-31"/>
       <use xlink:href="#DejaVuSans-2e" transform="translate(63.623047 0)"/>
       <use xlink:href="#DejaVuSans-35" transform="translate(95.410156 0)"/>
      </g>
     </g>
    </g>
    <g id="xtick_5">
     <g id="line2d_9">
      <path d="M 664.692929 246.04 
L 664.692929 26.88 
" clip-path="url(#p7a061e86eb)" style="fill: none; stroke: #b0b0b0; stroke-opacity: 0.3; stroke-width: 0.8; stroke-linecap: square"/>
     </g>
     <g id="line2d_10">
      <g>
       <use xlink:href="#m52bf05ad9f" x="664.692929" y="246.04" style="stroke: #000000; stroke-width: 0.8"/>
      </g>
     </g>
     <g id="text_5">
      <!-- 2.0 -->
      <g transform="translate(656.741367 260.638438) scale(0.1 -0.1)">
       <defs>
        <path id="DejaVuSans-32" d="M 1228 531 
L 3431 531 
L 3431 0 
L 469 0 
L 469 531 
Q 828 903 1448 1529 
Q 2069 2156 2228 2338 
Q 2531 2678 2651 2914 
Q 2772 3150 2772 3378 
Q 2772 3750 2511 3984 
Q 2250 4219 1831 4219 
Q 1534 4219 1204 4116 
Q 875 4013 500 3803 
L 500 4441 
Q 881 4594 1212 4672 
Q 1544 4750 1819 4750 
Q 2544 4750 2975 4387 
Q 3406 4025 3406 3419 
Q 3406 3131 3298 2873 
Q 3191 2616 2906 2266 
Q 2828 2175 2409 1742 
Q 1991 1309 1228 531 
z
" transform="scale(0.015625)"/>
       </defs>
       <use xlink:href="#DejaVuSans-32"/>
       <use xlink:href="#DejaVuSans-2e" transform="translate(63.623047 0)"/>
       <use xlink:href="#DejaVuSans-30" transform="translate(95.410156 0)"/>
      </g>
     </g>
    </g>
    <g id="text_6">
     <!-- distance s [km] -->
     <g transform="translate(344.008281 274.316562) scale(0.1 -0.1)">
      <defs>
       <path id="DejaVuSans-64" d="M 2906 2969 
L 2906 4863 
L 3481 4863 
L 3481 0 
L 2906 0 
L 2906 525 
Q 2725 213 2448 61 
Q 2172 -91 1784 -91 
Q 1150 -91 751 415 
Q 353 922 353 1747 
Q 353 2572 751 3078 
Q 1150 3584 1784 3584 
Q 2172 3584 2448 3432 
Q 2725 3281 2906 2969 
z
M 947 1747 
Q 947 1113 1208 752 
Q 1469 391 1925 391 
Q 2381 391 2643 752 
Q 2906 1113 2906 1747 
Q 2906 2381 2643 2742 
Q 2381 3103 1925 3103 
Q 1469 3103 1208 2742 
Q 947 2381 947 1747 
z
" transform="scale(0.015625)"/>
       <path id="DejaVuSans-69" d="M 603 3500 
L 1178 3500 
L 1178 0 
L 603 0 
L 603 3500 
z
M 603 4863 
L 1178 4863 
L 1178 4134 
L 603 4134 
L 603 4863 
z
" transform="scale(0.015625)"/>
       <path id="DejaVuSans-73" d="M 2834 3397 
L 2834 2853 
Q 2591 2978 2328 3040 
Q 2066 3103 1784 3103 
Q 1356 3103 1142 2972 
Q 928 2841 928 2578 
Q 928 2378 1081 2264 
Q 1234 2150 1697 2047 
L 1894 2003 
Q 2506 1872 2764 1633 
Q 3022 1394 3022 966 
Q 3022 478 2636 193 
Q 2250 -91 1575 -91 
Q 1294 -91 989 -36 
Q 684 19 347 128 
L 347 722 
Q 666 556 975 473 
Q 1284 391 1588 391 
Q 1994 391 2212 530 
Q 2431 669 2431 922 
Q 2431 1156 2273 1281 
Q 2116 1406 1581 1522 
L 1381 1569 
Q 847 1681 609 1914 
Q 372 2147 372 2553 
Q 372 3047 722 3315 
Q 1072 3584 1716 3584 
Q 2034 3584 2315 3537 
Q 2597 3491 2834 3397 
z
" transform="scale(0.015625)"/>
       <path id="DejaVuSans-74" d="M 1172 4494 
L 1172 3500 
L 2356 3500 
L 2356 3053 
L 1172 3053 
L 1172 1153 
Q 1172 725 1289 603 
Q 1406 481 1766 481 
L 2356 481 
L 2356 0 
L 1766 0 
Q 1100 0 847 248 
Q 594 497 594 1153 
L 594 3053 
L 172 3053 
L 172 3500 
L 594 3500 
L 594 4494 
L 1172 4494 
z
" transform="scale(0.015625)"/>
       <path id="DejaVuSans-61" d="M 2194 1759 
Q 1497 1759 1228 1600 
Q 959 1441 959 1056 
Q 959 750 1161 570 
Q 1363 391 1709 391 
Q 2188 391 2477 730 
Q 2766 1069 2766 1631 
L 2766 1759 
L 2194 1759 
z
M 3341 1997 
L 3341 0 
L 2766 0 
L 2766 531 
Q 2569 213 2275 61 
Q 1981 -91 1556 -91 
Q 1019 -91 701 211 
Q 384 513 384 1019 
Q 384 1609 779 1909 
Q 1175 2209 1959 2209 
L 2766 2209 
L 2766 2266 
Q 2766 2663 2505 2880 
Q 2244 3097 1772 3097 
Q 1472 3097 1187 3025 
Q 903 2953 641 2809 
L 641 3341 
Q 956 3463 1253 3523 
Q 1550 3584 1831 3584 
Q 2591 3584 2966 3190 
Q 3341 2797 3341 1997 
z
" transform="scale(0.015625)"/>
       <path id="DejaVuSans-6e" d="M 3513 2113 
L 3513 0 
L 2938 0 
L 2938 2094 
Q 2938 2591 2744 2837 
Q 2550 3084 2163 3084 
Q 1697 3084 1428 2787 
Q 1159 2491 1159 1978 
L 1159 0 
L 581 0 
L 581 3500 
L 1159 3500 
L 1159 2956 
Q 1366 3272 1645 3428 
Q 1925 3584 2291 3584 
Q 2894 3584 3203 3211 
Q 3513 2838 3513 2113 
z
" transform="scale(0.015625)"/>
       <path id="DejaVuSans-63" d="M 3122 3366 
L 3122 2828 
Q 2878 2963 2633 3030 
Q 2388 3097 2138 3097 
Q 1578 3097 1268 2742 
Q 959 2388 959 1747 
Q 959 1106 1268 751 
Q 1578 397 2138 397 
Q 2388 397 2633 464 
Q 2878 531 3122 666 
L 3122 134 
Q 2881 22 2623 -34 
Q 2366 -91 2075 -91 
Q 1284 -91 818 406 
Q 353 903 353 1747 
Q 353 2603 823 3093 
Q 1294 3584 2113 3584 
Q 2378 3584 2631 3529 
Q 2884 3475 3122 3366 
z
" transform="scale(0.015625)"/>
       <path id="DejaVuSans-65" d="M 3597 1894 
L 3597 1613 
L 953 1613 
Q 991 1019 1311 708 
Q 1631 397 2203 397 
Q 2534 397 2845 478 
Q 3156 559 3463 722 
L 3463 178 
Q 3153 47 2828 -22 
Q 2503 -91 2169 -91 
Q 1331 -91 842 396 
Q 353 884 353 1716 
Q 353 2575 817 3079 
Q 1281 3584 2069 3584 
Q 2775 3584 3186 3129 
Q 3597 2675 3597 1894 
z
M 3022 2063 
Q 3016 2534 2758 2815 
Q 2500 3097 2075 3097 
Q 1594 3097 1305 2825 
Q 1016 2553 972 2059 
L 3022 2063 
z
" transform="scale(0.015625)"/>
       <path id="DejaVuSans-20" transform="scale(0.015625)"/>
       <path id="DejaVuSans-5b" d="M 550 4863 
L 1875 4863 
L 1875 4416 
L 1125 4416 
L 1125 -397 
L 1875 -397 
L 1875 -844 
L 550 -844 
L 550 4863 
z
" transform="scale(0.015625)"/>
       <path id="DejaVuSans-6b" d="M 581 4863 
L 1159 4863 
L 1159 1991 
L 2875 3500 
L 3609 3500 
L 1753 1863 
L 3688 0 
L 2938 0 
L 1159 1709 
L 1159 0 
L 581 0 
L 581 4863 
z
" transform="scale(0.015625)"/>
       <path id="DejaVuSans-6d" d="M 3328 2828 
Q 3544 3216 3844 3400 
Q 4144 3584 4550 3584 
Q 5097 3584 5394 3201 
Q 5691 2819 5691 2113 
L 5691 0 
L 5113 0 
L 5113 2094 
Q 5113 2597 4934 2840 
Q 4756 3084 4391 3084 
Q 3944 3084 3684 2787 
Q 3425 2491 3425 1978 
L 3425 0 
L 2847 0 
L 2847 2094 
Q 2847 2600 2669 2842 
Q 2491 3084 2119 3084 
Q 1678 3084 1418 2786 
Q 1159 2488 1159 1978 
L 1159 0 
L 581 0 
L 581 3500 
L 1159 3500 
L 1159 2956 
Q 1356 3278 1631 3431 
Q 1906 3584 2284 3584 
Q 2666 3584 2933 3390 
Q 3200 3197 3328 2828 
z
" transform="scale(0.015625)"/>
       <path id="DejaVuSans-5d" d="M 1947 4863 
L 1947 -844 
L 622 -844 
L 622 -397 
L 1369 -397 
L 1369 4416 
L 622 4416 
L 622 4863 
L 1947 4863 
z
" transform="scale(0.015625)"/>
      </defs>
      <use xlink:href="#DejaVuSans-64"/>
      <use xlink:href="#DejaVuSans-69" transform="translate(63.476562 0)"/>
      <use xlink:href="#DejaVuSans-73" transform="translate(91.259766 0)"/>
      <use xlink:href="#DejaVuSans-74" transform="translate(143.359375 0)"/>
      <use xlink:href="#DejaVuSans-61" transform="translate(182.568359 0)"/>
      <use xlink:href="#DejaVuSans-6e" transform="translate(243.847656 0)"/>
      <use xlink:href="#DejaVuSans-63" transform="translate(307.226562 0)"/>
      <use xlink:href="#DejaVuSans-65" transform="translate(362.207031 0)"/>
      <use xlink:href="#DejaVuSans-20" transform="translate(423.730469 0)"/>
      <use xlink:href="#DejaVuSans-73" transform="translate(455.517578 0)"/>
      <use xlink:href="#DejaVuSans-20" transform="translate(507.617188 0)"/>
      <use xlink:href="#DejaVuSans-5b" transform="translate(539.404297 0)"/>
      <use xlink:href="#DejaVuSans-6b" transform="translate(578.417969 0)"/>
      <use xlink:href="#DejaVuSans-6d" transform="translate(636.328125 0)"/>
      <use xlink:href="#DejaVuSans-5d" transform="translate(733.740234 0)"/>
     </g>
    </g>
   </g>
   <g id="matplotlib.axis_2">
    <g id="ytick_1">
     <g id="line2d_11">
      <path d="M 56.09 244.456984 
L 709.2 244.456984 
" clip-path="url(#p7a061e86eb)" style="fill: none; stroke: #b0b0b0; stroke-opacity: 0.3; stroke-width: 0.8; stroke-linecap: square"/>
     </g>
     <g id="line2d_12">
      <defs>
       <path id="m9044234770" d="M 0 0 
L -3.5 0 
" style="stroke: #000000; stroke-width: 0.8"/>
      </defs>
      <g>
       <use xlink:href="#m9044234770" x="56.09" y="244.456984" style="stroke: #000000; stroke-width: 0.8"/>
      </g>
     </g>
     <g id="text_7">
      <!-- −2.0 -->
      <g transform="translate(24.807188 248.256203) scale(0.1 -0.1)">
       <defs>
        <path id="DejaVuSans-2212" d="M 678 2272 
L 4684 2272 
L 4684 1741 
L 678 1741 
L 678 2272 
z
" transform="scale(0.015625)"/>
       </defs>
       <use xlink:href="#DejaVuSans-2212"/>
       <use xlink:href="#DejaVuSans-32" transform="translate(83.789062 0)"/>
       <use xlink:href="#DejaVuSans-2e" transform="translate(147.412109 0)"/>
       <use xlink:href="#DejaVuSans-30" transform="translate(179.199219 0)"/>
      </g>
     </g>
    </g>
    <g id="ytick_2">
     <g id="line2d_13">
      <path d="M 56.09 217.324275 
L 709.2 217.324275 
" clip-path="url(#p7a061e86eb)" style="fill: none; stroke: #b0b0b0; stroke-opacity: 0.3; stroke-width: 0.8; stroke-linecap: square"/>
     </g>
     <g id="line2d_14">
      <g>
       <use xlink:href="#m9044234770" x="56.09" y="217.324275" style="stroke: #000000; stroke-width: 0.8"/>
      </g>
     </g>
     <g id="text_8">
      <!-- −1.5 -->
      <g transform="translate(24.807188 221.123494) scale(0.1 -0.1)">
       <use xlink:href="#DejaVuSans-2212"/>
       <use xlink:href="#DejaVuSans-31" transform="translate(83.789062 0)"/>
       <use xlink:href="#DejaVuSans-2e" transform="translate(147.412109 0)"/>
       <use xlink:href="#DejaVuSans-35" transform="translate(179.199219 0)"/>
      </g>
     </g>
    </g>
    <g id="ytick_3">
     <g id="line2d_15">
      <path d="M 56.09 190.191565 
L 709.2 190.191565 
" clip-path="url(#p7a061e86eb)" style="fill: none; stroke: #b0b0b0; stroke-opacity: 0.3; stroke-width: 0.8; stroke-linecap: square"/>
     </g>
     <g id="line2d_16">
      <g>
       <use xlink:href="#m9044234770" x="56.09" y="190.191565" style="stroke: #000000; stroke-width: 0.8"/>
      </g>
     </g>
     <g id="text_9">
      <!-- −1.0 -->
      <g transform="translate(24.807188 193.990784) scale(0.1 -0.1)">
       <use xlink:href="#DejaVuSans-2212"/>
       <use xlink:href="#DejaVuSans-31" transform="translate(83.789062 0)"/>
       <use xlink:href="#DejaVuSans-2e" transform="translate(147.412109 0)"/>
       <use xlink:href="#DejaVuSans-30" transform="translate(179.199219 0)"/>
      </g>
     </g>
    </g>
    <g id="ytick_4">
     <g id="line2d_17">
      <path d="M 56.09 163.058856 
L 709.2 163.058856 
" clip-path="url(#p7a061e86eb)" style="fill: none; stroke: #b0b0b0; stroke-opacity: 0.3; stroke-width: 0.8; stroke-linecap: square"/>
     </g>
     <g id="line2d_18">
      <g>
       <use xlink:href="#m9044234770" x="56.09" y="163.058856" style="stroke: #000000; stroke-width: 0.8"/>
      </g>
     </g>
     <g id="text_10">
      <!-- −0.5 -->
      <g transform="translate(24.807188 166.858075) scale(0.1 -0.1)">
       <use xlink:href="#DejaVuSans-2212"/>
       <use xlink:href="#DejaVuSans-30" transform="translate(83.789062 0)"/>
       <use xlink:href="#DejaVuSans-2e" transform="translate(147.412109 0)"/>
       <use xlink:href="#DejaVuSans-35" transform="translate(179.199219 0)"/>
      </g>
     </g>
    </g>
    <g id="ytick_5">
     <g id="line2d_19">
      <path d="M 56.09 135.926146 
L 709.2 135.926146 
" clip-path="url(#p7a061e86eb)" style="fill: none; stroke: #b0b0b0; stroke-opacity: 0.3; stroke-width: 0.8; stroke-linecap: square"/>
     </g>
     <g id="line2d_20">
      <g>
       <use xlink:href="#m9044234770" x="56.09" y="135.926146" style="stroke: #000000; stroke-width: 0.8"/>
      </g>
     </g>
     <g id="text_11">
      <!-- 0.0 -->
      <g transform="translate(33.186875 139.725365) scale(0.1 -0.1)">
       <use xlink:href="#DejaVuSans-30"/>
       <use xlink:href="#DejaVuSans-2e" transform="translate(63.623047 0)"/>
       <use xlink:href="#DejaVuSans-30" transform="translate(95.410156 0)"/>
      </g>
     </g>
    </g>
    <g id="ytick_6">
     <g id="line2d_21">
      <path d="M 56.09 108.793437 
L 709.2 108.793437 
" clip-path="url(#p7a061e86eb)" style="fill: none; stroke: #b0b0b0; stroke-opacity: 0.3; stroke-width: 0.8; stroke-linecap: square"/>
     </g>
     <g id="line2d_22">
      <g>
       <use xlink:href="#m9044234770" x="56.09" y="108.793437" style="stroke: #000000; stroke-width: 0.8"/>
      </g>
     </g>
     <g id="text_12">
      <!-- 0.5 -->
      <g transform="translate(33.186875 112.592656) scale(0.1 -0.1)">
       <use xlink:href="#DejaVuSans-30"/>
       <use xlink:href="#DejaVuSans-2e" transform="translate(63.623047 0)"/>
       <use xlink:href="#DejaVuSans-35" transform="translate(95.410156 0)"/>
      </g>
     </g>
    </g>
    <g id="ytick_7">
     <g id="line2d_23">
      <path d="M 56.09 81.660727 
L 709.2 81.660727 
" clip-path="url(#p7a061e86eb)" style="fill: none; stroke: #b0b0b0; stroke-opacity: 0.3; stroke-width: 0.8; stroke-linecap: square"/>
     </g>
     <g id="line2d_24">
      <g>
       <use xlink:href="#m9044234770" x="56.09" y="81.660727" style="stroke: #000000; stroke-width: 0.8"/>
      </g>
     </g>
     <g id="text_13">
      <!-- 1.0 -->
      <g transform="translate(33.186875 85.459946) scale(0.1 -0.1)">
       <use xlink:href="#DejaVuSans-31"/>
       <use xlink:href="#DejaVuSans-2e" transform="translate(63.623047 0)"/>
       <use xlink:href="#DejaVuSans-30" transform="translate(95.410156 0)"/>
      </g>
     </g>
    </g>
    <g id="ytick_8">
     <g id="line2d_25">
      <path d="M 56.09 54.528018 
L 709.2 54.528018 
" clip-path="url(#p7a061e86eb)" style="fill: none; stroke: #b0b0b0; stroke-opacity: 0.3; stroke-width: 0.8; stroke-linecap: square"/>
     </g>
     <g id="line2d_26">
      <g>
       <use xlink:href="#m9044234770" x="56.09" y="54.528018" style="stroke: #000000; stroke-width: 0.8"/>
      </g>
     </g>
     <g id="text_14">
      <!-- 1.5 -->
      <g transform="translate(33.186875 58.327237) scale(0.1 -0.1)">
       <use xlink:href="#DejaVuSans-31"/>
       <use xlink:href="#DejaVuSans-2e" transform="translate(63.623047 0)"/>
       <use xlink:href="#DejaVuSans-35" transform="translate(95.410156 0)"/>
      </g>
     </g>
    </g>
    <g id="ytick_9">
     <g id="line2d_27">
      <path d="M 56.09 27.395308 
L 709.2 27.395308 
" clip-path="url(#p7a061e86eb)" style="fill: none; stroke: #b0b0b0; stroke-opacity: 0.3; stroke-width: 0.8; stroke-linecap: square"/>
     </g>
     <g id="line2d_28">
      <g>
       <use xlink:href="#m9044234770" x="56.09" y="27.395308" style="stroke: #000000; stroke-width: 0.8"/>
      </g>
     </g>
     <g id="text_15">
      <!-- 2.0 -->
      <g transform="translate(33.186875 31.194527) scale(0.1 -0.1)">
       <use xlink:href="#DejaVuSans-32"/>
       <use xlink:href="#DejaVuSans-2e" transform="translate(63.623047 0)"/>
       <use xlink:href="#DejaVuSans-30" transform="translate(95.410156 0)"/>
      </g>
     </g>
    </g>
    <g id="text_16">
     <!-- tie-rod force [kN] -->
     <g transform="translate(18.7275 179.170156) rotate(-90) scale(0.1 -0.1)">
      <defs>
       <path id="DejaVuSans-2d" d="M 313 2009 
L 1997 2009 
L 1997 1497 
L 313 1497 
L 313 2009 
z
" transform="scale(0.015625)"/>
       <path id="DejaVuSans-72" d="M 2631 2963 
Q 2534 3019 2420 3045 
Q 2306 3072 2169 3072 
Q 1681 3072 1420 2755 
Q 1159 2438 1159 1844 
L 1159 0 
L 581 0 
L 581 3500 
L 1159 3500 
L 1159 2956 
Q 1341 3275 1631 3429 
Q 1922 3584 2338 3584 
Q 2397 3584 2469 3576 
Q 2541 3569 2628 3553 
L 2631 2963 
z
" transform="scale(0.015625)"/>
       <path id="DejaVuSans-6f" d="M 1959 3097 
Q 1497 3097 1228 2736 
Q 959 2375 959 1747 
Q 959 1119 1226 758 
Q 1494 397 1959 397 
Q 2419 397 2687 759 
Q 2956 1122 2956 1747 
Q 2956 2369 2687 2733 
Q 2419 3097 1959 3097 
z
M 1959 3584 
Q 2709 3584 3137 3096 
Q 3566 2609 3566 1747 
Q 3566 888 3137 398 
Q 2709 -91 1959 -91 
Q 1206 -91 779 398 
Q 353 888 353 1747 
Q 353 2609 779 3096 
Q 1206 3584 1959 3584 
z
" transform="scale(0.015625)"/>
       <path id="DejaVuSans-66" d="M 2375 4863 
L 2375 4384 
L 1825 4384 
Q 1516 4384 1395 4259 
Q 1275 4134 1275 3809 
L 1275 3500 
L 2222 3500 
L 2222 3053 
L 1275 3053 
L 1275 0 
L 697 0 
L 697 3053 
L 147 3053 
L 147 3500 
L 697 3500 
L 697 3744 
Q 697 4328 969 4595 
Q 1241 4863 1831 4863 
L 2375 4863 
z
" transform="scale(0.015625)"/>
       <path id="DejaVuSans-4e" d="M 628 4666 
L 1478 4666 
L 3547 763 
L 3547 4666 
L 4159 4666 
L 4159 0 
L 3309 0 
L 1241 3903 
L 1241 0 
L 628 0 
L 628 4666 
z
" transform="scale(0.015625)"/>
      </defs>
      <use xlink:href="#DejaVuSans-74"/>
      <use xlink:href="#DejaVuSans-69" transform="translate(39.208984 0)"/>
      <use xlink:href="#DejaVuSans-65" transform="translate(66.992188 0)"/>
      <use xlink:href="#DejaVuSans-2d" transform="translate(128.515625 0)"/>
      <use xlink:href="#DejaVuSans-72" transform="translate(164.599609 0)"/>
      <use xlink:href="#DejaVuSans-6f" transform="translate(203.462891 0)"/>
      <use xlink:href="#DejaVuSans-64" transform="translate(264.644531 0)"/>
      <use xlink:href="#DejaVuSans-20" transform="translate(328.121094 0)"/>
      <use xlink:href="#DejaVuSans-66" transform="translate(359.908203 0)"/>
      <use xlink:href="#DejaVuSans-6f" transform="translate(395.113281 0)"/>
      <use xlink:href="#DejaVuSans-72" transform="translate(456.294922 0)"/>
      <use xlink:href="#DejaVuSans-63" transform="translate(495.158203 0)"/>
      <use xlink:href="#DejaVuSans-65" transform="translate(550.138672 0)"/>
      <use xlink:href="#DejaVuSans-20" transform="translate(611.662109 0)"/>
      <use xlink:href="#DejaVuSans-5b" transform="translate(643.449219 0)"/>
      <use xlink:href="#DejaVuSans-6b" transform="translate(682.462891 0)"/>
      <use xlink:href="#DejaVuSans-4e" transform="translate(740.373047 0)"/>
      <use xlink:href="#DejaVuSans-5d" transform="translate(815.177734 0)"/>
     </g>
    </g>
   </g>
   <g id="line2d_29">
    <path d="M 85.776818 135.926146 
L 88.963878 135.906371 
L 125.267363 136.090095 
L 134.602762 136.15368 
L 138.404197 135.932682 
L 140.959231 135.608183 
L 143.530594 135.121623 
L 146.759963 134.251526 
L 148.692306 133.534629 
L 151.247614 132.587226 
L 153.140681 131.933603 
L 155.624395 130.737843 
L 159.244898 129.646048 
L 160.419963 129.482077 
L 161.577846 129.511541 
L 162.717884 129.733869 
L 163.839485 130.176508 
L 164.942119 130.864224 
L 166.02531 131.803604 
L 167.088634 133.037765 
L 168.131709 134.534987 
L 169.154189 136.30504 
L 171.136139 140.416248 
L 175.712248 150.657661 
L 176.977951 152.770997 
L 177.794446 153.985832 
L 178.589355 154.639987 
L 179.363121 155.145501 
L 179.742261 155.680951 
L 180.116344 156.580036 
L 181.208983 160.002782 
L 182.259279 161.926229 
L 182.600545 163.898364 
L 182.937639 167.352495 
L 184.565953 188.808182 
L 185.503213 197.260956 
L 186.114451 205.058102 
L 187.31165 223.768839 
L 187.900938 228.977146 
L 188.484853 231.467 
L 189.063485 232.83718 
L 189.636429 233.635191 
L 190.48314 234.517995 
L 191.312236 235.611976 
L 191.854836 235.911952 
L 192.12319 235.847111 
L 192.389659 235.597405 
L 192.6543 235.114988 
L 192.917162 234.344762 
L 193.437645 231.690846 
L 193.951122 227.15558 
L 194.457518 219.908101 
L 195.20311 202.864916 
L 195.689303 192.458687 
L 195.928826 190.17819 
L 196.16591 190.141677 
L 197.089987 194.76717 
L 197.539023 195.442892 
L 197.981707 197.259758 
L 199.505534 206.157627 
L 200.155434 209.598494 
L 201.023536 214.677054 
L 202.551899 221.656065 
L 203.211327 224.607627 
L 203.651146 225.395686 
L 203.870474 225.426987 
L 204.089098 225.248159 
L 204.523384 224.326396 
L 204.952803 222.687553 
L 205.588507 218.9866 
L 206.218279 213.535428 
L 206.637793 208.038553 
L 208.362102 180.119843 
L 209.046716 174.093157 
L 210.250526 166.767893 
L 210.501054 166.351089 
L 210.754802 166.350779 
L 211.011759 166.203678 
L 211.271907 165.59137 
L 212.071156 162.713644 
L 212.343712 162.305219 
L 212.897856 161.880037 
L 213.179382 161.374979 
L 216.145497 152.629993 
L 217.685187 147.815645 
L 218.910214 144.718632 
L 219.213928 144.462395 
L 220.116625 144.461111 
L 220.414446 144.677083 
L 220.710735 145.306059 
L 221.005532 146.667494 
L 222.746134 159.830489 
L 223.317159 166.511121 
L 224.73126 187.60167 
L 225.858341 199.943452 
L 227.558298 217.614295 
L 227.842885 219.19777 
L 228.127775 220.098834 
L 228.413 220.430244 
L 228.698633 220.260866 
L 228.98479 219.616645 
L 229.559327 217.092296 
L 230.429848 211.26221 
L 231.018435 205.894836 
L 231.615173 197.978456 
L 232.83636 178.807609 
L 233.461369 175.222572 
L 233.777423 173.630853 
L 234.09582 171.177303 
L 235.064987 161.247503 
L 235.392635 159.56973 
L 236.054758 158.17326 
L 236.389204 156.913661 
L 237.749155 149.121801 
L 238.094573 148.51153 
L 238.442018 148.156202 
L 238.79128 147.639413 
L 239.847071 145.449794 
L 240.200935 145.368669 
L 240.555528 146.139495 
L 240.91075 147.957096 
L 243.771208 170.261073 
L 245.214764 186.79426 
L 245.576554 189.051544 
L 245.938567 189.612199 
L 246.300836 189.268033 
L 246.663451 189.958881 
L 247.026493 193.2888 
L 248.118367 207.435107 
L 248.483256 209.848353 
L 249.21449 212.411525 
L 249.947458 214.815672 
L 250.68146 218.115566 
L 251.048678 219.279921 
L 251.41605 219.840848 
L 251.783654 219.902507 
L 252.151604 219.540582 
L 252.520051 218.804601 
L 253.259182 216.389514 
L 253.630279 214.67494 
L 254.002668 212.429018 
L 254.376543 209.346425 
L 254.752085 205.023159 
L 255.508728 191.822842 
L 256.658767 169.716551 
L 257.436351 155.541815 
L 258.22298 137.750133 
L 259.017374 119.363799 
L 259.816857 106.376579 
L 260.217442 103.308365 
L 260.617889 102.900061 
L 261.416971 104.389534 
L 261.815168 104.223606 
L 263.004339 102.268098 
L 263.399295 102.180672 
L 264.18765 102.4441 
L 264.581195 102.137217 
L 265.367209 101.033365 
L 265.759728 100.877833 
L 266.151961 101.090215 
L 266.935689 102.204741 
L 267.718656 103.909999 
L 269.675625 108.921108 
L 271.24436 111.846027 
L 272.423978 113.551399 
L 273.212148 114.302618 
L 274.002238 114.770039 
L 274.794934 114.968977 
L 275.591046 114.807432 
L 276.391173 114.265106 
L 277.599305 112.996367 
L 279.224709 111.148245 
L 280.044149 110.647587 
L 280.868751 110.286197 
L 281.69798 109.601196 
L 282.946634 108.095115 
L 284.611362 106.049498 
L 285.02668 105.778462 
L 285.441607 105.872951 
L 285.856177 106.729437 
L 286.27045 108.994227 
L 286.684491 113.199492 
L 287.512085 123.198985 
L 287.925719 126.762207 
L 288.339311 131.557678 
L 289.166565 150.214614 
L 289.99416 167.427569 
L 292.065877 196.370374 
L 293.30925 208.995584 
L 294.136443 215.845093 
L 294.961306 221.190762 
L 295.783 225.193124 
L 296.60052 228.129635 
L 297.413117 230.121036 
L 298.22041 231.407653 
L 299.022479 232.193567 
L 299.819568 232.622961 
L 300.611877 232.803515 
L 301.399607 232.774499 
L 302.183364 232.461485 
L 302.96385 232.148379 
L 303.740661 232.289488 
L 304.897518 232.601077 
L 307.180808 232.696047 
L 307.932735 233.316051 
L 310.158105 235.793882 
L 310.52393 236.012329 
L 310.88811 236.078182 
L 311.250593 235.98096 
L 311.97073 235.466819 
L 313.394067 234.053937 
L 314.099698 233.03528 
L 314.803155 231.366511 
L 315.50582 228.895689 
L 316.560812 223.716075 
L 318.330008 215.274431 
L 319.404874 211.685752 
L 319.766085 209.760979 
L 320.128784 206.776414 
L 320.492932 202.047108 
L 321.225419 185.525104 
L 321.96353 168.496713 
L 323.081836 154.922785 
L 324.21453 128.412582 
L 324.595441 125.269947 
L 325.361518 123.25762 
L 326.516777 115.911278 
L 326.90265 114.836114 
L 327.288652 114.689686 
L 327.674628 114.913589 
L 328.060422 114.881805 
L 328.445882 114.163286 
L 330.743123 106.842475 
L 331.500026 104.754186 
L 332.625638 100.403817 
L 333.369538 97.689482 
L 333.739533 97.215484 
L 334.108242 97.265431 
L 334.84176 98.026162 
L 338.068222 102.363919 
L 338.770032 103.272185 
L 343.915516 112.394693 
L 345.263158 114.322739 
L 345.935003 115.054055 
L 346.606943 115.523937 
L 347.280377 115.730994 
L 347.956768 115.755168 
L 348.637767 115.588726 
L 349.325291 115.063364 
L 350.020846 113.985323 
L 351.081166 111.765849 
L 351.439186 111.389129 
L 351.799419 111.3646 
L 352.161805 111.751938 
L 352.526295 112.531486 
L 352.892878 113.759257 
L 353.261552 115.68435 
L 354.005135 121.774953 
L 354.75701 128.224822 
L 356.285774 139.875461 
L 357.062709 145.217309 
L 357.848008 148.848448 
L 358.641632 151.519667 
L 359.443519 153.64735 
L 359.847539 154.404078 
L 360.253593 154.865079 
L 360.661618 155.028366 
L 361.071396 154.956121 
L 361.482585 154.707357 
L 361.894805 154.280243 
L 362.307693 153.647617 
L 363.134121 151.678533 
L 363.959384 148.807206 
L 364.781326 145.26359 
L 366.003942 138.69107 
L 368.782029 122.485367 
L 369.930556 117.375364 
L 371.049108 113.467557 
L 371.776959 111.487112 
L 372.48998 110.165939 
L 374.537502 107.748991 
L 375.509442 106.949746 
L 375.826143 106.414845 
L 376.139428 105.422867 
L 377.05984 101.518072 
L 377.952527 99.090292 
L 379.103791 93.50718 
L 379.385363 93.244307 
L 379.664622 93.559505 
L 380.216708 95.217832 
L 381.031738 98.888013 
L 381.835829 102.693078 
L 382.630789 105.093773 
L 383.414771 106.737938 
L 384.186299 107.897939 
L 387.150663 111.530959 
L 388.776849 113.032754 
L 389.667809 113.624923 
L 391.173629 114.497746 
L 393.068312 115.964663 
L 393.70258 116.252157 
L 394.342308 116.302076 
L 394.990183 116.095581 
L 395.6493 115.568122 
L 396.322937 114.623097 
L 397.014458 113.05203 
L 397.487052 112.130244 
L 397.727176 112.004161 
L 397.97 112.112203 
L 398.215627 112.391412 
L 398.464155 112.849671 
L 398.715671 113.627377 
L 398.970252 114.926301 
L 399.752937 121.512353 
L 400.290885 125.270891 
L 401.122216 130.741433 
L 401.692328 134.337798 
L 403.171189 139.606448 
L 403.783543 140.715121 
L 404.72369 141.447221 
L 405.689142 142.080111 
L 406.016462 142.00762 
L 407.01458 141.467879 
L 407.693215 141.141447 
L 409.43442 140.007737 
L 410.145507 139.947427 
L 411.576665 140.285213 
L 412.291598 140.995401 
L 413.709756 143.045059 
L 415.101061 146.158698 
L 416.120505 148.604077 
L 417.764433 152.642325 
L 418.401011 154.056427 
L 419.332837 157.280097 
L 420.237376 160.587308 
L 420.825449 163.600928 
L 421.401539 168.438824 
L 423.058721 185.182464 
L 424.867631 209.105176 
L 426.092384 223.399931 
L 426.569734 226.899473 
L 427.040233 228.619926 
L 430.17991 234.507325 
L 430.83016 234.981441 
L 431.473708 235.161941 
L 432.715581 235.376426 
L 433.306773 235.42705 
L 433.691037 235.228968 
L 434.254665 234.587878 
L 434.987124 233.276151 
L 436.786952 229.56324 
L 438.423683 226.627226 
L 439.723981 223.740544 
L 440.675188 221.184499 
L 442.450908 215.620171 
L 443.482974 210.861932 
L 443.905862 208.140663 
L 444.334906 202.612464 
L 445.43919 181.479618 
L 446.127966 173.95264 
L 447.329982 156.177944 
L 447.831968 153.340045 
L 448.346594 150.649896 
L 448.873873 147.402384 
L 449.142233 146.322278 
L 449.413714 145.87156 
L 449.688296 145.770857 
L 449.965959 145.469621 
L 451.106997 142.595992 
L 451.695412 142.184039 
L 452.295514 141.194284 
L 454.805427 136.109281 
L 457.39733 129.918471 
L 458.359354 127.503051 
L 459.929455 122.803446 
L 461.444995 116.552021 
L 462.324801 112.137287 
L 463.181875 107.827278 
L 465.36284 99.170745 
L 466.40828 96.226611 
L 466.666495 95.874775 
L 466.923812 95.825591 
L 467.180381 96.098926 
L 467.436327 96.688762 
L 467.946795 98.667664 
L 469.986758 108.28634 
L 471.003182 111.631988 
L 471.752579 113.440847 
L 472.490019 114.651428 
L 473.218352 115.343426 
L 473.942052 115.683065 
L 474.909705 115.904174 
L 476.134467 115.902519 
L 477.385311 115.707138 
L 477.895266 115.415661 
L 478.412128 114.877395 
L 478.936958 114.02854 
L 480.014813 112.019325 
L 480.290841 111.928224 
L 480.569671 112.209553 
L 480.851372 112.895813 
L 481.714269 116.331352 
L 482.304722 119.431182 
L 485.431113 140.254151 
L 486.759266 146.268844 
L 487.43931 148.572801 
L 488.830405 151.971993 
L 489.896 153.843005 
L 490.61135 154.588302 
L 491.32733 154.977102 
L 492.041545 155.234836 
L 492.751885 155.22119 
L 493.456461 154.861129 
L 494.498919 154.081961 
L 495.520048 152.831032 
L 496.842316 151.083292 
L 498.11464 148.916533 
L 498.424574 148.93369 
L 499.631744 149.807488 
L 499.925585 150.348278 
L 500.216348 151.252146 
L 500.504112 152.726953 
L 501.071023 157.509458 
L 502.173825 168.561238 
L 502.979615 180.419009 
L 504.036897 196.309528 
L 506.383942 226.347567 
L 506.901566 229.368636 
L 507.415614 231.073181 
L 507.924755 232.07474 
L 508.428032 232.54608 
L 508.924966 232.540397 
L 509.415703 232.135152 
L 509.900873 231.394249 
L 510.620271 229.802283 
L 511.805375 226.990529 
L 512.276881 226.306231 
L 513.699437 224.683679 
L 514.180838 223.331913 
L 514.668078 220.988774 
L 515.663458 215.562163 
L 516.689141 211.274811 
L 517.214131 208.195959 
L 518.018265 201.381554 
L 519.407548 189.109122 
L 520.866591 170.518216 
L 521.471071 166.556345 
L 523.033048 153.005446 
L 523.677619 149.977316 
L 524.665167 146.421021 
L 524.999816 144.838715 
L 525.677273 138.641345 
L 526.02004 135.714379 
L 526.365457 134.829233 
L 526.713504 135.282848 
L 527.064162 135.299302 
L 527.417403 134.129437 
L 528.131498 131.21255 
L 528.492268 131.060169 
L 528.855467 131.892054 
L 529.58904 134.421032 
L 529.959374 135.032464 
L 530.332044 135.350629 
L 530.707029 135.945124 
L 531.084311 137.194765 
L 533.001213 145.680693 
L 533.77619 148.893495 
L 534.551458 153.474711 
L 536.092261 164.282493 
L 537.230685 170.614403 
L 538.348522 178.166712 
L 538.716189 179.449328 
L 539.0814 179.525327 
L 539.444204 178.298373 
L 540.162505 174.864852 
L 540.517906 174.289948 
L 540.870713 174.690828 
L 541.220871 175.352348 
L 541.568325 175.457103 
L 541.913029 174.608408 
L 542.593928 171.309893 
L 542.929953 170.560585 
L 543.262996 170.952322 
L 543.920291 173.507061 
L 545.200609 179.231918 
L 546.131887 185.252619 
L 546.739688 190.652674 
L 547.925824 202.201672 
L 549.075472 211.016341 
L 550.469008 223.171807 
L 551.014637 226.234509 
L 551.553724 227.702507 
L 552.612743 229.128618 
L 554.15605 232.216167 
L 554.660146 232.792962 
L 555.160052 233.088105 
L 555.656299 233.039682 
L 556.149381 232.666455 
L 556.883915 231.614381 
L 557.857306 229.999964 
L 558.10001 229.848391 
L 558.342283 229.900797 
L 558.8248 230.543451 
L 559.541392 231.866535 
L 559.777959 232.082015 
L 560.01327 232.083489 
L 560.247289 231.836921 
L 560.711356 230.564275 
L 561.169995 228.424595 
L 561.847465 224.146842 
L 562.292177 220.191201 
L 562.949709 211.607677 
L 563.596882 202.480028 
L 563.810687 200.617486 
L 564.023734 199.804137 
L 564.236151 199.974078 
L 565.929515 206.821362 
L 566.789676 213.268165 
L 567.227283 214.860232 
L 567.670502 215.785671 
L 568.118897 216.149906 
L 568.344717 216.060777 
L 568.571431 215.799362 
L 569.026953 214.734306 
L 569.484346 212.601713 
L 569.942942 208.564848 
L 571.566942 189.501525 
L 572.279267 182.264932 
L 573.006416 174.667183 
L 573.501315 172.089973 
L 574.005299 170.049956 
L 575.042898 164.027267 
L 575.308849 163.372689 
L 575.848951 163.07801 
L 576.123159 162.624891 
L 576.680008 161.085445 
L 576.962676 160.657854 
L 577.8276 160.531253 
L 578.121503 160.081495 
L 579.632405 155.939615 
L 580.255798 152.038595 
L 580.888879 147.891509 
L 581.850167 142.727106 
L 583.138803 133.240203 
L 586.301281 118.382599 
L 587.216338 114.300364 
L 587.814955 111.261236 
L 589.268958 101.259015 
L 590.38769 97.636742 
L 590.932326 95.947414 
L 591.200919 95.446022 
L 591.466975 95.247123 
L 591.730482 95.350114 
L 592.506272 96.337726 
L 592.760319 96.4213 
L 593.262308 96.35752 
L 593.510468 96.487896 
L 594.00173 97.154509 
L 594.728641 98.557218 
L 595.20959 99.997257 
L 596.652391 105.477393 
L 598.827711 112.0102 
L 599.772837 114.21336 
L 600.463511 115.291936 
L 600.916757 115.66784 
L 601.366564 115.77497 
L 602.03906 115.592787 
L 602.939942 115.038115 
L 604.32332 114.126724 
L 605.277824 113.773424 
L 606.261521 113.407218 
L 607.019508 112.873876 
L 608.325359 111.69834 
L 608.593737 111.868664 
L 608.86479 112.344597 
L 609.41547 114.003932 
L 609.695365 115.388155 
L 609.978436 117.502451 
L 610.55413 124.595852 
L 613.296786 167.336427 
L 615.927648 198.24151 
L 616.607786 202.587099 
L 617.987382 209.780322 
L 618.685867 212.658228 
L 619.390005 214.517503 
L 620.099818 215.409704 
L 620.815126 215.803257 
L 621.535752 215.879505 
L 621.8981 215.712612 
L 622.261868 215.211705 
L 622.627149 214.125225 
L 623.362732 210.053235 
L 624.480088 203.114195 
L 625.615215 197.737189 
L 627.154274 191.041409 
L 627.930663 187.386002 
L 629.096972 180.976922 
L 629.872653 177.822536 
L 631.030806 173.532314 
L 632.183303 168.977921 
L 632.566442 168.144799 
L 633.713309 166.428484 
L 634.857328 162.934092 
L 635.23844 163.581428 
L 636.000969 167.325733 
L 636.764686 169.297434 
L 637.147389 171.240041 
L 637.915093 177.47882 
L 638.686479 186.317281 
L 639.461281 195.341909 
L 639.849509 197.489667 
L 640.238087 197.766918 
L 640.626972 196.391907 
L 641.016222 193.101203 
L 642.188559 176.158301 
L 642.581695 175.51954 
L 642.976281 176.362841 
L 643.372394 176.640115 
L 643.77006 175.611922 
L 644.169306 172.3997 
L 645.37669 155.790331 
L 645.782402 153.827337 
L 646.189761 154.058936 
L 646.598775 154.760477 
L 647.009454 154.56586 
L 647.421806 153.107667 
L 648.251572 148.738747 
L 648.669004 147.307399 
L 649.088145 146.611393 
L 649.509001 146.188333 
L 649.93158 145.51897 
L 650.355885 144.364488 
L 651.639212 140.001267 
L 652.503478 138.253482 
L 653.374741 136.425222 
L 654.253013 134.41376 
L 655.138291 133.073803 
L 656.929831 131.297439 
L 657.836052 130.771403 
L 658.749199 130.618198 
L 659.669229 130.690496 
L 660.596098 131.142619 
L 661.529759 131.86047 
L 662.470169 132.852378 
L 662.942892 133.50548 
L 663.893348 135.429303 
L 665.331488 139.06834 
L 666.298486 142.425483 
L 667.271995 145.710789 
L 667.761161 146.440015 
L 668.251921 146.185866 
L 668.744269 145.250375 
L 669.2382 144.59216 
L 669.733713 144.698735 
L 670.230804 145.215436 
L 670.729472 145.369685 
L 671.229714 144.737612 
L 672.234894 142.718001 
L 672.739818 142.306964 
L 673.754297 141.887937 
L 674.774906 140.77907 
L 675.801593 139.782582 
L 677.872994 138.586684 
L 679.513182 137.240229 
L 679.513182 137.240229 
" clip-path="url(#p7a061e86eb)" style="fill: none; stroke: #2ca02c; stroke-width: 0.9; stroke-linecap: square"/>
   </g>
   <g id="line2d_30">
    <path d="M 85.776818 135.926146 
L 88.963878 135.906371 
L 125.267363 136.090068 
L 134.602762 136.15359 
L 138.404197 135.932696 
L 140.959231 135.608157 
L 143.530594 135.121029 
L 146.759963 134.24891 
L 148.692306 133.530601 
L 151.247614 132.582556 
L 153.140681 131.930039 
L 155.624395 130.736993 
L 159.244898 129.654332 
L 160.419963 129.494049 
L 161.577846 129.527112 
L 162.717884 129.7524 
L 163.839485 130.196759 
L 164.942119 130.884279 
L 166.02531 131.821052 
L 167.088634 133.050044 
L 168.131709 134.540406 
L 169.154189 136.303425 
L 171.136139 140.419555 
L 175.712248 150.696879 
L 176.977951 152.786958 
L 177.794446 153.973792 
L 178.589355 154.602321 
L 179.363121 155.077199 
L 179.742261 155.58389 
L 180.116344 156.435582 
L 181.208983 159.616208 
L 182.259279 161.268993 
L 182.600545 162.998051 
L 183.270713 169.757509 
L 183.925423 176.429427 
L 184.247377 178.33819 
L 184.565953 179.310513 
L 184.881331 179.654747 
L 185.193692 179.670575 
L 185.503213 179.482032 
L 185.810071 179.008992 
L 186.114451 178.106094 
L 186.41655 176.636898 
L 187.900938 166.883852 
L 188.77484 163.193733 
L 189.636429 160.455233 
L 190.202766 159.279135 
L 190.761534 158.785993 
L 191.037904 158.756216 
L 191.584536 159.016534 
L 192.12319 159.55681 
L 192.917162 160.766648 
L 193.695264 162.575667 
L 194.457518 165.062028 
L 195.447382 169.329071 
L 195.928826 170.084303 
L 197.089987 173.886666 
L 197.539023 174.145678 
L 197.981707 174.258921 
L 198.419937 174.092685 
L 198.855277 173.475763 
L 199.938716 171.073676 
L 201.89496 166.171265 
L 204.523384 159.529664 
L 205.165698 158.562296 
L 205.588507 158.220624 
L 206.008654 158.171451 
L 206.427904 158.455593 
L 206.848234 159.126576 
L 207.485968 160.142698 
L 207.91947 160.394342 
L 208.362102 160.431491 
L 208.815547 160.154639 
L 209.281 159.740084 
L 209.759219 158.954728 
L 210.250526 158.218864 
L 210.501054 158.255807 
L 211.011759 158.589775 
L 211.271907 158.368719 
L 212.071156 156.932067 
L 212.343712 156.789341 
L 212.897856 156.722644 
L 213.179382 156.465326 
L 213.751207 155.358357 
L 214.334588 154.262699 
L 215.230527 152.920868 
L 216.145497 150.945224 
L 218.910214 144.519322 
L 219.213928 144.298388 
L 220.116625 144.348154 
L 220.414446 144.568624 
L 220.710735 145.190297 
L 221.005532 146.523496 
L 223.03214 161.108737 
L 224.16726 172.475402 
L 224.449425 173.753741 
L 224.73126 174.270897 
L 225.012927 174.150299 
L 225.294577 173.53569 
L 225.858341 171.3386 
L 227.842885 161.848931 
L 228.413 160.10643 
L 228.98479 158.946406 
L 229.559327 158.373657 
L 229.848115 158.28932 
L 230.138216 158.329007 
L 230.429848 158.494948 
L 231.018435 159.211337 
L 231.916912 160.725869 
L 232.220995 160.869993 
L 232.83636 160.621891 
L 233.777423 160.90235 
L 234.09582 160.313841 
L 234.739621 157.343429 
L 235.064987 155.833121 
L 235.392635 155.013844 
L 236.054758 154.517501 
L 236.389204 153.758297 
L 237.064773 150.526988 
L 237.405871 148.924638 
L 237.749155 147.914526 
L 238.094573 147.476881 
L 238.442018 147.248745 
L 238.79128 146.864729 
L 239.847071 145.034865 
L 240.200935 145.002164 
L 240.555528 145.7689 
L 240.91075 147.518905 
L 242.694464 160.066245 
L 243.411658 163.466428 
L 244.853236 171.603504 
L 245.214764 172.04813 
L 245.576554 171.721931 
L 246.663451 169.143164 
L 247.026493 169.068573 
L 247.389991 168.805836 
L 247.75395 167.900404 
L 248.848632 164.424503 
L 249.947458 161.937784 
L 251.41605 159.23882 
L 252.151604 158.392109 
L 252.889175 158.069873 
L 253.259182 158.090057 
L 253.630279 158.221865 
L 254.002668 158.473914 
L 254.376543 158.884419 
L 255.508728 160.645153 
L 255.89 160.45151 
L 256.273322 159.518804 
L 256.658767 157.931784 
L 257.046426 155.361894 
L 257.436351 151.367938 
L 257.828561 145.552627 
L 259.816857 105.838354 
L 260.217442 100.856592 
L 260.617889 98.578849 
L 261.416971 97.821238 
L 261.815168 96.49952 
L 263.399295 88.491796 
L 264.18765 87.644234 
L 264.581195 86.272768 
L 265.367209 80.734678 
L 266.151961 75.280118 
L 267.718656 66.155 
L 268.892616 58.659215 
L 270.067411 53.447624 
L 271.24436 48.874341 
L 271.63726 47.9303 
L 272.030458 47.328078 
L 272.423978 46.973616 
L 272.817857 46.789976 
L 273.606915 46.777765 
L 274.002238 46.931314 
L 274.398209 47.220508 
L 274.794934 47.740208 
L 275.192517 48.626385 
L 275.990584 51.531057 
L 278.004089 59.667326 
L 278.816761 61.935212 
L 279.224709 62.475605 
L 280.044149 63.096045 
L 280.455797 63.837409 
L 282.113802 67.768779 
L 283.363172 70.085227 
L 283.779551 71.333809 
L 284.611362 74.937868 
L 285.02668 77.779381 
L 285.441607 82.065981 
L 285.856177 88.191552 
L 286.684491 105.905397 
L 287.098357 115.000626 
L 287.512085 121.43938 
L 288.339311 131.271925 
L 289.166565 150.707748 
L 289.580306 160.219179 
L 289.99416 166.854068 
L 290.408157 170.939632 
L 290.822338 173.751696 
L 291.236714 175.420589 
L 291.651249 175.551097 
L 292.065877 174.368601 
L 294.136443 164.877642 
L 294.961306 162.603809 
L 295.783 161.071536 
L 296.60052 160.088059 
L 297.413117 159.444363 
L 299.819568 158.094081 
L 301.791923 156.91069 
L 302.574008 156.382601 
L 302.96385 156.221353 
L 303.740661 156.226026 
L 304.897518 156.299623 
L 306.803062 156.214851 
L 307.557362 156.417534 
L 308.679924 157.050323 
L 310.88811 158.383399 
L 311.97073 158.578276 
L 313.394067 158.571197 
L 315.154495 158.539087 
L 315.857253 158.699412 
L 316.560812 159.052985 
L 317.619763 159.867256 
L 319.045158 161.007701 
L 320.128784 161.607079 
L 320.492932 161.893786 
L 320.858482 162.013601 
L 321.225419 161.35186 
L 322.707537 154.357127 
L 323.081836 151.285731 
L 323.457731 145.008291 
L 324.21453 128.874536 
L 324.595441 125.713486 
L 325.361518 123.276478 
L 326.90265 113.457497 
L 327.288652 113.091305 
L 327.674628 113.211868 
L 328.060422 113.09247 
L 328.445882 112.201071 
L 331.500026 99.483183 
L 332.251742 94.685384 
L 332.998237 87.844686 
L 333.739533 81.203238 
L 334.475669 77.341393 
L 337.006304 67.56562 
L 338.068222 65.344998 
L 338.419673 63.533782 
L 339.467572 55.698657 
L 339.81479 54.123558 
L 340.506291 52.368041 
L 341.194086 50.969614 
L 342.219475 47.748259 
L 342.899561 45.965118 
L 343.577387 44.96144 
L 344.253127 44.350231 
L 344.92689 44.075896 
L 345.59915 44.237309 
L 346.270876 44.729234 
L 346.943383 45.726867 
L 347.956768 47.84142 
L 348.296571 48.745733 
L 348.637767 50.006459 
L 348.980604 51.931842 
L 349.671989 58.60133 
L 350.37197 68.308125 
L 352.161805 94.787928 
L 354.75701 127.42016 
L 356.673195 142.891196 
L 357.454315 147.145538 
L 358.243783 149.823332 
L 359.041547 151.781592 
L 359.847539 153.076297 
L 360.253593 153.3622 
L 360.661618 153.411792 
L 361.482585 153.078097 
L 361.894805 152.73992 
L 362.307693 152.247425 
L 362.720905 151.565751 
L 363.54704 149.532473 
L 364.370893 146.710111 
L 365.190453 143.05203 
L 366.40791 136.243382 
L 368.782029 122.413548 
L 369.930556 117.093814 
L 371.414864 111.659429 
L 372.135344 109.764931 
L 372.840835 108.526638 
L 373.870418 106.976054 
L 374.537502 106.062442 
L 375.189191 105.416774 
L 375.509442 104.955898 
L 375.826143 104.225925 
L 376.139428 102.90114 
L 377.360393 95.861283 
L 377.657927 94.507056 
L 377.952527 92.633002 
L 378.533351 86.080372 
L 379.664622 70.171911 
L 382.366905 44.412883 
L 382.893453 41.46321 
L 383.414771 39.908256 
L 383.930492 39.277217 
L 384.440791 38.842779 
L 385.939661 37.254069 
L 386.670637 36.947832 
L 387.62415 36.84572 
L 388.549865 36.897639 
L 389.225629 37.105835 
L 389.8866 37.501852 
L 390.534906 38.169224 
L 391.173629 39.315607 
L 392.01687 41.419684 
L 393.068312 44.183058 
L 393.70258 45.163985 
L 394.342308 46.046145 
L 394.773135 47.107187 
L 395.208479 48.902302 
L 395.6493 51.78258 
L 396.096571 56.07562 
L 396.781756 65.765136 
L 399.48884 113.920226 
L 400.020278 121.075552 
L 401.122216 130.307227 
L 401.692328 134.261965 
L 402.869415 138.659595 
L 403.475907 140.290732 
L 404.09407 140.947412 
L 405.689142 141.941707 
L 406.016462 141.863953 
L 407.01458 141.333504 
L 407.693215 141.019105 
L 409.43442 139.933325 
L 410.145507 139.887768 
L 411.576665 140.243519 
L 412.291598 140.953758 
L 413.709756 142.991965 
L 415.101061 146.069387 
L 416.455058 149.318338 
L 417.764433 152.371776 
L 418.401011 153.710175 
L 419.637354 157.649464 
L 420.532909 160.775774 
L 421.114993 164.032851 
L 422.243295 171.460554 
L 423.588348 178.344305 
L 423.849175 178.803341 
L 424.107447 178.778181 
L 424.363221 178.366475 
L 424.867631 176.747069 
L 426.569734 169.704306 
L 427.272978 168.212395 
L 428.8613 165.714503 
L 430.83016 162.87895 
L 432.31056 161.239926 
L 433.499825 160.236734 
L 434.439573 159.770833 
L 436.967386 158.87852 
L 438.607627 158.116465 
L 439.536207 157.950715 
L 440.483183 157.986936 
L 442.654439 158.246021 
L 443.27369 158.373912 
L 443.905862 158.753169 
L 444.334906 159.295699 
L 444.770775 159.836438 
L 445.895904 159.874992 
L 446.127966 159.345564 
L 446.600102 156.666967 
L 447.329982 151.923218 
L 448.608655 147.462908 
L 449.142233 145.393552 
L 449.413714 145.076229 
L 449.688296 145.054344 
L 449.965959 144.833924 
L 450.530449 143.353916 
L 450.817228 142.648693 
L 451.106997 142.295288 
L 451.695412 141.943885 
L 452.295514 141.023607 
L 454.483687 136.919215 
L 455.77684 133.912116 
L 457.719289 129.141691 
L 458.677106 126.505937 
L 459.929455 122.613984 
L 461.14672 117.337801 
L 462.03405 112.9207 
L 465.36284 91.806988 
L 465.888423 87.47407 
L 466.923812 75.641718 
L 468.965419 51.768507 
L 469.475735 47.172046 
L 469.986758 44.094163 
L 470.496718 42.312902 
L 471.003182 41.528812 
L 471.254418 41.414574 
L 471.752579 41.572145 
L 472.245378 42.099825 
L 472.976369 43.320696 
L 474.183339 45.956398 
L 475.153017 47.990597 
L 476.382258 49.955887 
L 477.132603 51.075374 
L 477.63949 52.727634 
L 478.152768 56.040219 
L 478.673479 61.277061 
L 479.470844 72.070445 
L 480.569671 91.039881 
L 481.423619 104.912663 
L 482.907114 121.616499 
L 483.832471 129.909519 
L 485.105847 138.539529 
L 485.759108 141.851366 
L 487.097975 147.214339 
L 488.129775 149.595378 
L 489.184066 151.484891 
L 489.896 152.498511 
L 490.61135 153.205846 
L 491.684796 153.834309 
L 492.397322 154.102998 
L 493.105004 154.044297 
L 494.153598 153.605549 
L 494.841862 153.080575 
L 496.516265 151.268619 
L 497.165227 150.260088 
L 497.801423 149.080698 
L 498.11464 148.784356 
L 498.424574 148.81019 
L 499.631744 149.673045 
L 499.925585 150.196985 
L 500.216348 151.069402 
L 500.504112 152.485506 
L 501.071023 156.99316 
L 503.510086 177.50645 
L 503.773876 178.019763 
L 504.036897 177.94491 
L 504.299261 177.404683 
L 504.822354 175.287865 
L 506.643109 165.484097 
L 507.670868 162.168921 
L 508.924966 158.982468 
L 509.900873 157.063226 
L 510.620271 156.02991 
L 511.095952 155.576951 
L 511.805375 155.266866 
L 512.748809 155.190143 
L 513.699437 155.328165 
L 514.423649 155.695662 
L 515.16214 156.400363 
L 516.689141 157.921398 
L 517.747908 159.038908 
L 518.844002 160.373791 
L 519.407548 160.75806 
L 519.693499 160.639139 
L 519.982332 160.163854 
L 520.568838 158.829388 
L 521.167345 158.258463 
L 521.471071 157.674035 
L 522.087288 155.097715 
L 523.033048 150.436478 
L 523.677619 148.358957 
L 524.333248 146.663709 
L 524.999816 144.245063 
L 525.33719 141.831811 
L 526.02004 135.722383 
L 526.365457 134.856134 
L 526.713504 135.292023 
L 527.064162 135.304807 
L 527.417403 134.143067 
L 528.131498 131.204749 
L 528.492268 131.030153 
L 528.855467 131.855247 
L 529.58904 134.406603 
L 529.959374 135.024901 
L 530.332044 135.346217 
L 530.707029 135.944828 
L 531.084311 137.201039 
L 532.614714 144.077497 
L 533.77619 148.56142 
L 534.551458 152.80482 
L 536.092261 162.063241 
L 537.605737 168.436255 
L 538.348522 171.222412 
L 538.716189 171.739982 
L 539.0814 171.543929 
L 539.444204 170.647488 
L 540.162505 168.473349 
L 540.517906 168.170238 
L 540.870713 168.516451 
L 541.220871 169.032756 
L 541.568325 169.193962 
L 541.913029 168.747292 
L 542.593928 166.75233 
L 542.929953 166.347991 
L 543.262996 166.741191 
L 546.739688 176.183631 
L 547.039831 176.695086 
L 547.337537 176.890805 
L 547.632854 176.743186 
L 548.216494 175.707669 
L 549.075472 173.321756 
L 550.742644 168.004667 
L 551.553724 166.44056 
L 554.660146 161.439758 
L 556.639664 157.353878 
L 557.371138 156.273867 
L 557.857306 155.905142 
L 558.10001 155.945603 
L 558.583938 156.4687 
L 559.541392 158.231642 
L 562.292177 163.998377 
L 562.949709 166.000242 
L 563.596882 167.787135 
L 564.448068 169.130827 
L 564.870937 169.388111 
L 565.293443 169.259246 
L 565.716919 168.889231 
L 566.142937 168.093938 
L 568.344717 162.201801 
L 569.026953 161.153883 
L 569.484346 160.727631 
L 569.942942 160.623496 
L 570.403157 160.861958 
L 571.802967 161.773693 
L 572.040366 161.719372 
L 572.279267 161.495851 
L 573.252773 160.1182 
L 573.752132 159.951755 
L 574.005299 159.712434 
L 574.518978 158.547936 
L 575.042898 157.309819 
L 575.308849 157.11909 
L 575.848951 157.293905 
L 576.123159 157.127242 
L 576.680008 156.296648 
L 576.962676 156.1002 
L 577.8276 156.239048 
L 578.121503 155.96075 
L 579.32475 153.877202 
L 579.632405 153.117842 
L 580.255798 150.13063 
L 580.888879 146.831735 
L 581.850167 142.413789 
L 583.460307 131.806908 
L 584.41973 127.406572 
L 587.814955 109.950861 
L 588.403922 104.629007 
L 589.268958 96.793363 
L 590.38769 89.427653 
L 591.466975 81.237452 
L 591.730482 80.260416 
L 591.991474 79.836877 
L 592.250033 79.658437 
L 592.506272 79.264814 
L 592.760319 78.259037 
L 594.728641 64.955224 
L 596.894253 43.996351 
L 597.378988 41.891911 
L 597.863833 40.666868 
L 598.347243 40.053196 
L 598.827711 39.955424 
L 599.303458 40.26795 
L 599.772837 40.913779 
L 600.463511 42.334522 
L 601.14196 44.318111 
L 601.814914 47.034593 
L 602.939942 52.755162 
L 603.625234 55.949747 
L 604.32332 58.174375 
L 605.765923 61.347184 
L 606.512205 64.50715 
L 607.276223 68.485798 
L 607.79614 73.180342 
L 608.325359 81.533862 
L 609.41547 100.909266 
L 610.2647 116.019811 
L 611.44115 139.531134 
L 612.666425 158.020336 
L 613.296786 163.998387 
L 613.938635 167.13016 
L 614.26378 168.072165 
L 614.591672 168.571025 
L 614.922185 168.522383 
L 615.255144 167.910901 
L 616.266832 164.454465 
L 616.950402 162.386485 
L 617.640261 160.780559 
L 618.335921 159.586304 
L 619.037224 158.703194 
L 619.744209 158.059128 
L 620.456802 157.628241 
L 621.535752 157.262755 
L 622.261868 157.200141 
L 622.994063 157.425545 
L 623.733249 158.092965 
L 624.856479 159.662763 
L 626.767318 162.67125 
L 627.542162 164.051422 
L 628.319477 164.931563 
L 629.096972 165.322689 
L 629.872653 165.517443 
L 630.259426 165.465983 
L 630.64546 165.264533 
L 631.030806 164.849896 
L 632.183303 163.026334 
L 632.566442 162.708879 
L 633.33141 162.361136 
L 633.713309 161.991406 
L 634.857328 159.620648 
L 635.23844 160.167076 
L 636.000969 162.937144 
L 636.764686 164.094762 
L 637.147389 165.231777 
L 638.300299 169.781263 
L 638.686479 170.990298 
L 639.073537 171.376625 
L 639.461281 170.730974 
L 641.406043 164.239664 
L 641.796735 162.424475 
L 642.188559 161.176837 
L 642.581695 161.352773 
L 643.372394 162.842717 
L 643.77006 163.005123 
L 644.169306 162.075717 
L 644.570154 159.56288 
L 645.37669 152.770848 
L 645.782402 151.504967 
L 646.189761 151.908649 
L 646.598775 152.65458 
L 647.009454 152.621511 
L 647.421806 151.487134 
L 648.251572 147.813121 
L 648.669004 146.580538 
L 649.088145 145.994053 
L 649.509001 145.645648 
L 649.93158 145.058485 
L 650.355885 144.005279 
L 651.639212 139.895524 
L 652.503478 138.211998 
L 653.374741 136.419823 
L 654.253013 134.421964 
L 655.138291 133.075028 
L 656.929831 131.258285 
L 657.836052 130.709814 
L 658.749199 130.541859 
L 659.669229 130.607961 
L 660.596098 131.066448 
L 661.529759 131.799821 
L 662.470169 132.81273 
L 662.942892 133.477611 
L 663.893348 135.425557 
L 665.331488 139.07451 
L 666.298486 142.394618 
L 666.784432 144.191682 
L 667.271995 145.562616 
L 667.761161 146.223272 
L 668.251921 145.930757 
L 668.744269 144.996073 
L 669.2382 144.342821 
L 669.733713 144.431508 
L 670.230804 144.915643 
L 670.729472 145.056238 
L 671.229714 144.451873 
L 672.234894 142.529299 
L 672.739818 142.14316 
L 673.754297 141.755776 
L 674.774906 140.689698 
L 675.801593 139.724507 
L 677.872994 138.559355 
L 679.513182 137.231527 
L 679.513182 137.231527 
" clip-path="url(#p7a061e86eb)" style="fill: none; stroke: #d62728; stroke-opacity: 0.8; stroke-width: 0.9; stroke-linecap: square"/>
   </g>
   <g id="patch_3">
    <path d="M 56.09 246.04 
L 56.09 26.88 
" style="fill: none; stroke: #000000; stroke-width: 0.8; stroke-linejoin: miter; stroke-linecap: square"/>
   </g>
   <g id="patch_4">
    <path d="M 709.2 246.04 
L 709.2 26.88 
" style="fill: none; stroke: #000000; stroke-width: 0.8; stroke-linejoin: miter; stroke-linecap: square"/>
   </g>
   <g id="patch_5">
    <path d="M 56.09 246.04 
L 709.2 246.04 
" style="fill: none; stroke: #000000; stroke-width: 0.8; stroke-linejoin: miter; stroke-linecap: square"/>
   </g>
   <g id="patch_6">
    <path d="M 56.09 26.88 
L 709.2 26.88 
" style="fill: none; stroke: #000000; stroke-width: 0.8; stroke-linejoin: miter; stroke-linecap: square"/>
   </g>
   <g id="text_17">
    <!-- steering-link loads over one Ring Knutstorp lap -->
    <g transform="translate(241.40875 20.88) scale(0.12 -0.12)">
     <defs>
      <path id="DejaVuSans-67" d="M 2906 1791 
Q 2906 2416 2648 2759 
Q 2391 3103 1925 3103 
Q 1463 3103 1205 2759 
Q 947 2416 947 1791 
Q 947 1169 1205 825 
Q 1463 481 1925 481 
Q 2391 481 2648 825 
Q 2906 1169 2906 1791 
z
M 3481 434 
Q 3481 -459 3084 -895 
Q 2688 -1331 1869 -1331 
Q 1566 -1331 1297 -1286 
Q 1028 -1241 775 -1147 
L 775 -588 
Q 1028 -725 1275 -790 
Q 1522 -856 1778 -856 
Q 2344 -856 2625 -561 
Q 2906 -266 2906 331 
L 2906 616 
Q 2728 306 2450 153 
Q 2172 0 1784 0 
Q 1141 0 747 490 
Q 353 981 353 1791 
Q 353 2603 747 3093 
Q 1141 3584 1784 3584 
Q 2172 3584 2450 3431 
Q 2728 3278 2906 2969 
L 2906 3500 
L 3481 3500 
L 3481 434 
z
" transform="scale(0.015625)"/>
      <path id="DejaVuSans-6c" d="M 603 4863 
L 1178 4863 
L 1178 0 
L 603 0 
L 603 4863 
z
" transform="scale(0.015625)"/>
      <path id="DejaVuSans-76" d="M 191 3500 
L 800 3500 
L 1894 563 
L 2988 3500 
L 3597 3500 
L 2284 0 
L 1503 0 
L 191 3500 
z
" transform="scale(0.015625)"/>
      <path id="DejaVuSans-52" d="M 2841 2188 
Q 3044 2119 3236 1894 
Q 3428 1669 3622 1275 
L 4263 0 
L 3584 0 
L 2988 1197 
Q 2756 1666 2539 1819 
Q 2322 1972 1947 1972 
L 1259 1972 
L 1259 0 
L 628 0 
L 628 4666 
L 2053 4666 
Q 2853 4666 3247 4331 
Q 3641 3997 3641 3322 
Q 3641 2881 3436 2590 
Q 3231 2300 2841 2188 
z
M 1259 4147 
L 1259 2491 
L 2053 2491 
Q 2509 2491 2742 2702 
Q 2975 2913 2975 3322 
Q 2975 3731 2742 3939 
Q 2509 4147 2053 4147 
L 1259 4147 
z
" transform="scale(0.015625)"/>
      <path id="DejaVuSans-4b" d="M 628 4666 
L 1259 4666 
L 1259 2694 
L 3353 4666 
L 4166 4666 
L 1850 2491 
L 4331 0 
L 3500 0 
L 1259 2247 
L 1259 0 
L 628 0 
L 628 4666 
z
" transform="scale(0.015625)"/>
      <path id="DejaVuSans-75" d="M 544 1381 
L 544 3500 
L 1119 3500 
L 1119 1403 
Q 1119 906 1312 657 
Q 1506 409 1894 409 
Q 2359 409 2629 706 
Q 2900 1003 2900 1516 
L 2900 3500 
L 3475 3500 
L 3475 0 
L 2900 0 
L 2900 538 
Q 2691 219 2414 64 
Q 2138 -91 1772 -91 
Q 1169 -91 856 284 
Q 544 659 544 1381 
z
M 1991 3584 
L 1991 3584 
z
" transform="scale(0.015625)"/>
      <path id="DejaVuSans-70" d="M 1159 525 
L 1159 -1331 
L 581 -1331 
L 581 3500 
L 1159 3500 
L 1159 2969 
Q 1341 3281 1617 3432 
Q 1894 3584 2278 3584 
Q 2916 3584 3314 3078 
Q 3713 2572 3713 1747 
Q 3713 922 3314 415 
Q 2916 -91 2278 -91 
Q 1894 -91 1617 61 
Q 1341 213 1159 525 
z
M 3116 1747 
Q 3116 2381 2855 2742 
Q 2594 3103 2138 3103 
Q 1681 3103 1420 2742 
Q 1159 2381 1159 1747 
Q 1159 1113 1420 752 
Q 1681 391 2138 391 
Q 2594 391 2855 752 
Q 3116 1113 3116 1747 
z
" transform="scale(0.015625)"/>
     </defs>
     <use xlink:href="#DejaVuSans-73"/>
     <use xlink:href="#DejaVuSans-74" transform="translate(52.099609 0)"/>
     <use xlink:href="#DejaVuSans-65" transform="translate(91.308594 0)"/>
     <use xlink:href="#DejaVuSans-65" transform="translate(152.832031 0)"/>
     <use xlink:href="#DejaVuSans-72" transform="translate(214.355469 0)"/>
     <use xlink:href="#DejaVuSans-69" transform="translate(255.46875 0)"/>
     <use xlink:href="#DejaVuSans-6e" transform="translate(283.251953 0)"/>
     <use xlink:href="#DejaVuSans-67" transform="translate(346.630859 0)"/>
     <use xlink:href="#DejaVuSans-2d" transform="translate(410.107422 0)"/>
     <use xlink:href="#DejaVuSans-6c" transform="translate(446.191406 0)"/>
     <use xlink:href="#DejaVuSans-69" transform="translate(473.974609 0)"/>
     <use xlink:href="#DejaVuSans-6e" transform="translate(501.757812 0)"/>
     <use xlink:href="#DejaVuSans-6b" transform="translate(565.136719 0)"/>
     <use xlink:href="#DejaVuSans-20" transform="translate(623.046875 0)"/>
     <use xlink:href="#DejaVuSans-6c" transform="translate(654.833984 0)"/>
     <use xlink:href="#DejaVuSans-6f" transform="translate(682.617188 0)"/>
     <use xlink:href="#DejaVuSans-61" transform="translate(743.798828 0)"/>
     <use xlink:href="#DejaVuSans-64" transform="translate(805.078125 0)"/>
     <use xlink:href="#DejaVuSans-73" transform="translate(868.554688 0)"/>
     <use xlink:href="#DejaVuSans-20" transform="translate(920.654297 0)"/>
     <use xlink:href="#DejaVuSans-6f" transform="translate(952.441406 0)"/>
     <use xlink:href="#DejaVuSans-76" transform="translate(1013.623047 0)"/>
     <use xlink:href="#DejaVuSans-65" transform="translate(1072.802734 0)"/>
     <use xlink:href="#DejaVuSans-72" transform="translate(1134.326172 0)"/>
     <use xlink:href="#DejaVuSans-20" transform="translate(1175.439453 0)"/>
     <use xlink:href="#DejaVuSans-6f" transform="translate(1207.226562 0)"/>
     <use xlink:href="#DejaVuSans-6e" transform="translate(1268.408203 0)"/>
     <use xlink:href="#DejaVuSans-65" transform="translate(1331.787109 0)"/>
     <use xlink:href="#DejaVuSans-20" transform="translate(1393.310547 0)"/>
     <use xlink:href="#DejaVuSans-52" transform="translate(1425.097656 0)"/>
     <use xlink:href="#DejaVuSans-69" transform="translate(1494.580078 0)"/>
     <use xlink:href="#DejaVuSans-6e" transform="translate(1522.363281 0)"/>
     <use xlink:href="#DejaVuSans-67" transform="translate(1585.742188 0)"/>
     <use xlink:href="#DejaVuSans-20" transform="translate(1649.21875 0)"/>
     <use xlink:href="#DejaVuSans-4b" transform="translate(1681.005859 0)"/>
     <use xlink:href="#DejaVuSans-6e" transform="translate(1746.582031 0)"/>
     <use xlink:href="#DejaVuSans-75" transform="translate(1809.960938 0)"/>
     <use xlink:href="#DejaVuSans-74" transform="translate(1873.339844 0)"/>
     <use xlink:href="#DejaVuSans-73" transform="translate(1912.548828 0)"/>
     <use xlink:href="#DejaVuSans-74" transform="translate(1964.648438 0)"/>
     <use xlink:href="#DejaVuSans-6f" transform="translate(2003.857422 0)"/>
     <use xlink:href="#DejaVuSans-72" transform="translate(2065.039062 0)"/>
     <use xlink:href="#DejaVuSans-70" transform="translate(2106.152344 0)"/>
     <use xlink:href="#DejaVuSans-20" transform="translate(2169.628906 0)"/>
     <use xlink:href="#DejaVuSans-6c" transform="translate(2201.416016 0)"/>
     <use xlink:href="#DejaVuSans-61" transform="translate(2229.199219 0)"/>
     <use xlink:href="#DejaVuSans-70" transform="translate(2290.478516 0)"/>
    </g>
   </g>
   <g id="legend_1">
    <g id="patch_7">
     <path d="M 630.755 56.765 
L 703.6 56.765 
Q 705.2 56.765 705.2 55.165 
L 705.2 32.48 
Q 705.2 30.88 703.6 30.88 
L 630.755 30.88 
Q 629.155 30.88 629.155 32.48 
L 629.155 55.165 
Q 629.155 56.765 630.755 56.765 
z
" style="fill: #ffffff; opacity: 0.8; stroke: #cccccc; stroke-linejoin: miter"/>
    </g>
    <g id="line2d_31">
     <path d="M 632.355 37.35875 
L 640.355 37.35875 
L 648.355 37.35875 
" style="fill: none; stroke: #2ca02c; stroke-width: 0.9; stroke-linecap: square"/>
    </g>
    <g id="text_18">
     <!-- tie rod left -->
     <g transform="translate(654.755 40.15875) scale(0.08 -0.08)">
      <use xlink:href="#DejaVuSans-74"/>
      <use xlink:href="#DejaVuSans-69" transform="translate(39.208984 0)"/>
      <use xlink:href="#DejaVuSans-65" transform="translate(66.992188 0)"/>
      <use xlink:href="#DejaVuSans-20" transform="translate(128.515625 0)"/>
      <use xlink:href="#DejaVuSans-72" transform="translate(160.302734 0)"/>
      <use xlink:href="#DejaVuSans-6f" transform="translate(199.166016 0)"/>
      <use xlink:href="#DejaVuSans-64" transform="translate(260.347656 0)"/>
      <use xlink:href="#DejaVuSans-20" transform="translate(323.824219 0)"/>
      <use xlink:href="#DejaVuSans-6c" transform="translate(355.611328 0)"/>
      <use xlink:href="#DejaVuSans-65" transform="translate(383.394531 0)"/>
      <use xlink:href="#DejaVuSans-66" transform="translate(444.917969 0)"/>
      <use xlink:href="#DejaVuSans-74" transform="translate(478.373047 0)"/>
     </g>
    </g>
    <g id="line2d_32">
     <path d="M 632.355 49.10125 
L 640.355 49.10125 
L 648.355 49.10125 
" style="fill: none; stroke: #d62728; stroke-opacity: 0.8; stroke-width: 0.9; stroke-linecap: square"/>
    </g>
    <g id="text_19">
     <!-- tie rod right -->
     <g transform="translate(654.755 51.90125) scale(0.08 -0.08)">
      <defs>
       <path id="DejaVuSans-68" d="M 3513 2113 
L 3513 0 
L 2938 0 
L 2938 2094 
Q 2938 2591 2744 2837 
Q 2550 3084 2163 3084 
Q 1697 3084 1428 2787 
Q 1159 2491 1159 1978 
L 1159 0 
L 581 0 
L 581 4863 
L 1159 4863 
L 1159 2956 
Q 1366 3272 1645 3428 
Q 1925 3584 2291 3584 
Q 2894 3584 3203 3211 
Q 3513 2838 3513 2113 
z
" transform="scale(0.015625)"/>
      </defs>
      <use xlink:href="#DejaVuSans-74"/>
      <use xlink:href="#DejaVuSans-69" transform="translate(39.208984 0)"/>
      <use xlink:href="#DejaVuSans-65" transform="translate(66.992188 0)"/>
      <use xlink:href="#DejaVuSans-20" transform="translate(128.515625 0)"/>
      <use xlink:href="#DejaVuSans-72" transform="translate(160.302734 0)"/>
      <use xlink:href="#DejaVuSans-6f" transform="translate(199.166016 0)"/>
      <use xlink:href="#DejaVuSans-64" transform="translate(260.347656 0)"/>
      <use xlink:href="#DejaVuSans-20" transform="translate(323.824219 0)"/>
      <use xlink:href="#DejaVuSans-72" transform="translate(355.611328 0)"/>
      <use xlink:href="#DejaVuSans-69" transform="translate(396.724609 0)"/>
      <use xlink:href="#DejaVuSans-67" transform="translate(424.507812 0)"/>
      <use xlink:href="#DejaVuSans-68" transform="translate(487.984375 0)"/>
      <use xlink:href="#DejaVuSans-74" transform="translate(551.363281 0)"/>
     </g>
    </g>
   </g>
  </g>
 </g>
 <defs>
  <clipPath id="p7a061e86eb">
   <rect x="56.09" y="26.88" width="653.11" height="219.16"/>
  </clipPath>
 </defs>
</svg>
