<?xml version="1.0" encoding="utf-8" standalone="no"?>
<!DOCTYPE svg PUBLIC "-//W3C//DTD SVG 1.1//EN"
  "http://www.w3.org/Graphics/SVG/1.1/DTD/svg11.dtd">
<svg xmlns:xlink="http://www.w3.org/1999/xlink" width="720pt" height="288pt" viewBox="0 0 720 288" xmlns="http://www.w3.org/2000/svg" version="1.1">
 <metadata>
  <rdf:RDF xmlns:dc="http://purl.org/dc/elements/1.1/" xmlns:cc="http://creativecommons.org/ns#" xmlns:rdf="http://www.w3.org/1999/02/22-rdf-syntax-ns#">
   <cc:Work>
    <dc:type rdf:resource="http://purl.org/dc/dcmitype/StillImage"/>
    <dc:date>2026-07-08T14:50:24.533764</dc:date>
    <dc:format>image/svg+xml</dc:format>
    <dc:creator>
     <cc:Agent>
      <dc:title>Matplotlib v3.10.8, https://matplotlib.org/</dc:title>
     </cc:Agent>
    </dc:creator>
   </cc:Work>
  </rdf:RDF>
 </metadata>
 <defs>
  <style type="text/css">*{stroke-linejoin: round; stroke-linecap: butt}</style>
 </defs>
 <g id="figure_1">
  <g id="patch_1">
   <path d="M 0 288 
L 720 288 
L 720 0 
L 0 0 
z
" style="fill: #ffffff"/>
  </g>
  <g id="axes_1">
   <g id="patch_2">
    <path d="M 46.64 246.04 
L 709.2 246.04 
L 709.2 26.88 
L 46.64 26.88 
z
" style="fill: #ffffff"/>
   </g>
   <g id="matplotlib.axis_1">
    <g id="xtick_1">
     <g id="line2d_1">
      <path d="M 76.756364 246.04 
L 76.756364 26.88 
" clip-path="url(#pd9d1123bdb)" style="fill: none; stroke: #b0b0b0; stroke-opacity: 0.3; stroke-width: 0.8; stroke-linecap: square"/>
     </g>
     <g id="line2d_2">
      <defs>
       <path id="m50a1e0fe26" d="M 0 0 
L 0 3.5 
" style="stroke: #000000; stroke-width: 0.8"/>
      </defs>
      <g>
       <use xlink:href="#m50a1e0fe26" x="76.756364" y="246.04" style="stroke: #000000; stroke-width: 0.8"/>
      </g>
     </g>
     <g id="text_1">
      <!-- 0.0 -->
      <g transform="translate(68.804801 260.638438) scale(0.1 -0.1)">
       <defs>
        <path id="DejaVuSans-30" d="M 2034 4250 
Q 1547 4250 1301 3770 
Q 1056 3291 1056 2328 
Q 1056 1369 1301 889 
Q 1547 409 2034 409 
Q 2525 409 2770 889 
Q 3016 1369 3016 2328 
Q 3016 3291 2770 3770 
Q 2525 4250 2034 4250 
z
M 2034 4750 
Q 2819 4750 3233 4129 
Q 3647 3509 3647 2328 
Q 3647 1150 3233 529 
Q 2819 -91 2034 -91 
Q 1250 -91 836 529 
Q 422 1150 422 2328 
Q 422 3509 836 4129 
Q 1250 4750 2034 4750 
z
" transform="scale(0.015625)"/>
        <path id="DejaVuSans-2e" d="M 684 794 
L 1344 794 
L 1344 0 
L 684 0 
L 684 794 
z
" transform="scale(0.015625)"/>
       </defs>
       <use xlink:href="#DejaVuSans-30"/>
       <use xlink:href="#DejaVuSans-2e" transform="translate(63.623047 0)"/>
       <use xlink:href="#DejaVuSans-30" transform="translate(95.410156 0)"/>
      </g>
     </g>
    </g>
    <g id="xtick_2">
     <g id="line2d_3">
      <path d="M 151.885745 246.04 
L 151.885745 26.88 
" clip-path="url(#pd9d1123bdb)" style="fill: none; stroke: #b0b0b0; stroke-opacity: 0.3; stroke-width: 0.8; stroke-linecap: square"/>
     </g>
     <g id="line2d_4">
      <g>
       <use xlink:href="#m50a1e0fe26" x="151.885745" y="246.04" style="stroke: #000000; stroke-width: 0.8"/>
      </g>
     </g>
     <g id="text_2">
      <!-- 0.5 -->
      <g transform="translate(143.934182 260.638438) scale(0.1 -0.1)">
       <defs>
        <path id="DejaVuSans-35" d="M 691 4666 
L 3169 4666 
L 3169 4134 
L 1269 4134 
L 1269 2991 
Q 1406 3038 1543 3061 
Q 1681 3084 1819 3084 
Q 2600 3084 3056 2656 
Q 3513 2228 3513 1497 
Q 3513 744 3044 326 
Q 2575 -91 1722 -91 
Q 1428 -91 1123 -41 
Q 819 9 494 109 
L 494 744 
Q 775 591 1075 516 
Q 1375 441 1709 441 
Q 2250 441 2565 725 
Q 2881 1009 2881 1497 
Q 2881 1984 2565 2268 
Q 2250 2553 1709 2553 
Q 1456 2553 1204 2497 
Q 953 2441 691 2322 
L 691 4666 
z
" transform="scale(0.015625)"/>
       </defs>
       <use xlink:href="#DejaVuSans-30"/>
       <use xlink:href="#DejaVuSans-2e" transform="translate(63.623047 0)"/>
       <use xlink:href="#DejaVuSans-35" transform="translate(95.410156 0)"/>
      </g>
     </g>
    </g>
    <g id="xtick_3">
     <g id="line2d_5">
      <path d="M 227.015125 246.04 
L 227.015125 26.88 
" clip-path="url(#pd9d1123bdb)" style="fill: none; stroke: #b0b0b0; stroke-opacity: 0.3; stroke-width: 0.8; stroke-linecap: square"/>
     </g>
     <g id="line2d_6">
      <g>
       <use xlink:href="#m50a1e0fe26" x="227.015125" y="246.04" style="stroke: #000000; stroke-width: 0.8"/>
      </g>
     </g>
     <g id="text_3">
      <!-- 1.0 -->
      <g transform="translate(219.063563 260.638438) scale(0.1 -0.1)">
       <defs>
        <path id="DejaVuSans-31" d="M 794 531 
L 1825 531 
L 1825 4091 
L 703 3866 
L 703 4441 
L 1819 4666 
L 2450 4666 
L 2450 531 
L 3481 531 
L 3481 0 
L 794 0 
L 794 531 
z
" transform="scale(0.015625)"/>
       </defs>
       <use xlink:href="#DejaVuSans-31"/>
       <use xlink:href="#DejaVuSans-2e" transform="translate(63.623047 0)"/>
       <use xlink:href="#DejaVuSans-30" transform="translate(95.410156 0)"/>
      </g>
     </g>
    </g>
    <g id="xtick_4">
     <g id="line2d_7">
      <path d="M 302.144506 246.04 
L 302.144506 26.88 
" clip-path="url(#pd9d1123bdb)" style="fill: none; stroke: #b0b0b0; stroke-opacity: 0.3; stroke-width: 0.8; stroke-linecap: square"/>
     </g>
     <g id="line2d_8">
      <g>
       <use xlink:href="#m50a1e0fe26" x="302.144506" y="246.04" style="stroke: #000000; stroke-width: 0.8"/>
      </g>
     </g>
     <g id="text_4">
      <!-- 1.5 -->
      <g transform="translate(294.192944 260.638438) scale(0.1 -0.1)">
       <use xlink:href="#DejaVuSans-31"/>
       <use xlink:href="#DejaVuSans-2e" transform="translate(63.623047 0)"/>
       <use xlink:href="#DejaVuSans-35" transform="translate(95.410156 0)"/>
      </g>
     </g>
    </g>
    <g id="xtick_5">
     <g id="line2d_9">
      <path d="M 377.273887 246.04 
L 377.273887 26.88 
" clip-path="url(#pd9d1123bdb)" style="fill: none; stroke: #b0b0b0; stroke-opacity: 0.3; stroke-width: 0.8; stroke-linecap: square"/>
     </g>
     <g id="line2d_10">
      <g>
       <use xlink:href="#m50a1e0fe26" x="377.273887" y="246.04" style="stroke: #000000; stroke-width: 0.8"/>
      </g>
     </g>
     <g id="text_5">
      <!-- 2.0 -->
      <g transform="translate(369.322325 260.638438) scale(0.1 -0.1)">
       <defs>
        <path id="DejaVuSans-32" d="M 1228 531 
L 3431 531 
L 3431 0 
L 469 0 
L 469 531 
Q 828 903 1448 1529 
Q 2069 2156 2228 2338 
Q 2531 2678 2651 2914 
Q 2772 3150 2772 3378 
Q 2772 3750 2511 3984 
Q 2250 4219 1831 4219 
Q 1534 4219 1204 4116 
Q 875 4013 500 3803 
L 500 4441 
Q 881 4594 1212 4672 
Q 1544 4750 1819 4750 
Q 2544 4750 2975 4387 
Q 3406 4025 3406 3419 
Q 3406 3131 3298 2873 
Q 3191 2616 2906 2266 
Q 2828 2175 2409 1742 
Q 1991 1309 1228 531 
z
" transform="scale(0.015625)"/>
       </defs>
       <use xlink:href="#DejaVuSans-32"/>
       <use xlink:href="#DejaVuSans-2e" transform="translate(63.623047 0)"/>
       <use xlink:href="#DejaVuSans-30" transform="translate(95.410156 0)"/>
      </g>
     </g>
    </g>
    <g id="xtick_6">
     <g id="line2d_11">
      <path d="M 452.403268 246.04 
L 452.403268 26.88 
" clip-path="url(#pd9d1123bdb)" style="fill: none; stroke: #b0b0b0; stroke-opacity: 0.3; stroke-width: 0.8; stroke-linecap: square"/>
     </g>
     <g id="line2d_12">
      <g>
       <use xlink:href="#m50a1e0fe26" x="452.403268" y="246.04" style="stroke: #000000; stroke-width: 0.8"/>
      </g>
     </g>
     <g id="text_6">
      <!-- 2.5 -->
      <g transform="translate(444.451706 260.638438) scale(0.1 -0.1)">
       <use xlink:href="#DejaVuSans-32"/>
       <use xlink:href="#DejaVuSans-2e" transform="translate(63.623047 0)"/>
       <use xlink:href="#DejaVuSans-35" transform="translate(95.410156 0)"/>
      </g>
     </g>
    </g>
    <g id="xtick_7">
     <g id="line2d_13">
      <path d="M 527.532649 246.04 
L 527.532649 26.88 
" clip-path="url(#pd9d1123bdb)" style="fill: none; stroke: #b0b0b0; stroke-opacity: 0.3; stroke-width: 0.8; stroke-linecap: square"/>
     </g>
     <g id="line2d_14">
      <g>
       <use xlink:href="#m50a1e0fe26" x="527.532649" y="246.04" style="stroke: #000000; stroke-width: 0.8"/>
      </g>
     </g>
     <g id="text_7">
      <!-- 3.0 -->
      <g transform="translate(519.581087 260.638438) scale(0.1 -0.1)">
       <defs>
        <path id="DejaVuSans-33" d="M 2597 2516 
Q 3050 2419 3304 2112 
Q 3559 1806 3559 1356 
Q 3559 666 3084 287 
Q 2609 -91 1734 -91 
Q 1441 -91 1130 -33 
Q 819 25 488 141 
L 488 750 
Q 750 597 1062 519 
Q 1375 441 1716 441 
Q 2309 441 2620 675 
Q 2931 909 2931 1356 
Q 2931 1769 2642 2001 
Q 2353 2234 1838 2234 
L 1294 2234 
L 1294 2753 
L 1863 2753 
Q 2328 2753 2575 2939 
Q 2822 3125 2822 3475 
Q 2822 3834 2567 4026 
Q 2313 4219 1838 4219 
Q 1578 4219 1281 4162 
Q 984 4106 628 3988 
L 628 4550 
Q 988 4650 1302 4700 
Q 1616 4750 1894 4750 
Q 2613 4750 3031 4423 
Q 3450 4097 3450 3541 
Q 3450 3153 3228 2886 
Q 3006 2619 2597 2516 
z
" transform="scale(0.015625)"/>
       </defs>
       <use xlink:href="#DejaVuSans-33"/>
       <use xlink:href="#DejaVuSans-2e" transform="translate(63.623047 0)"/>
       <use xlink:href="#DejaVuSans-30" transform="translate(95.410156 0)"/>
      </g>
     </g>
    </g>
    <g id="xtick_8">
     <g id="line2d_15">
      <path d="M 602.66203 246.04 
L 602.66203 26.88 
" clip-path="url(#pd9d1123bdb)" style="fill: none; stroke: #b0b0b0; stroke-opacity: 0.3; stroke-width: 0.8; stroke-linecap: square"/>
     </g>
     <g id="line2d_16">
      <g>
       <use xlink:href="#m50a1e0fe26" x="602.66203" y="246.04" style="stroke: #000000; stroke-width: 0.8"/>
      </g>
     </g>
     <g id="text_8">
      <!-- 3.5 -->
      <g transform="translate(594.710467 260.638438) scale(0.1 -0.1)">
       <use xlink:href="#DejaVuSans-33"/>
       <use xlink:href="#DejaVuSans-2e" transform="translate(63.623047 0)"/>
       <use xlink:href="#DejaVuSans-35" transform="translate(95.410156 0)"/>
      </g>
     </g>
    </g>
    <g id="xtick_9">
     <g id="line2d_17">
      <path d="M 677.791411 246.04 
L 677.791411 26.88 
" clip-path="url(#pd9d1123bdb)" style="fill: none; stroke: #b0b0b0; stroke-opacity: 0.3; stroke-width: 0.8; stroke-linecap: square"/>
     </g>
     <g id="line2d_18">
      <g>
       <use xlink:href="#m50a1e0fe26" x="677.791411" y="246.04" style="stroke: #000000; stroke-width: 0.8"/>
      </g>
     </g>
     <g id="text_9">
      <!-- 4.0 -->
      <g transform="translate(669.839848 260.638438) scale(0.1 -0.1)">
       <defs>
        <path id="DejaVuSans-34" d="M 2419 4116 
L 825 1625 
L 2419 1625 
L 2419 4116 
z
M 2253 4666 
L 3047 4666 
L 3047 1625 
L 3713 1625 
L 3713 1100 
L 3047 1100 
L 3047 0 
L 2419 0 
L 2419 1100 
L 313 1100 
L 313 1709 
L 2253 4666 
z
" transform="scale(0.015625)"/>
       </defs>
       <use xlink:href="#DejaVuSans-34"/>
       <use xlink:href="#DejaVuSans-2e" transform="translate(63.623047 0)"/>
       <use xlink:href="#DejaVuSans-30" transform="translate(95.410156 0)"/>
      </g>
     </g>
    </g>
    <g id="text_10">
     <!-- distance s [km] -->
     <g transform="translate(339.283281 274.316562) scale(0.1 -0.1)">
      <defs>
       <path id="DejaVuSans-64" d="M 2906 2969 
L 2906 4863 
L 3481 4863 
L 3481 0 
L 2906 0 
L 2906 525 
Q 2725 213 2448 61 
Q 2172 -91 1784 -91 
Q 1150 -91 751 415 
Q 353 922 353 1747 
Q 353 2572 751 3078 
Q 1150 3584 1784 3584 
Q 2172 3584 2448 3432 
Q 2725 3281 2906 2969 
z
M 947 1747 
Q 947 1113 1208 752 
Q 1469 391 1925 391 
Q 2381 391 2643 752 
Q 2906 1113 2906 1747 
Q 2906 2381 2643 2742 
Q 2381 3103 1925 3103 
Q 1469 3103 1208 2742 
Q 947 2381 947 1747 
z
" transform="scale(0.015625)"/>
       <path id="DejaVuSans-69" d="M 603 3500 
L 1178 3500 
L 1178 0 
L 603 0 
L 603 3500 
z
M 603 4863 
L 1178 4863 
L 1178 4134 
L 603 4134 
L 603 4863 
z
" transform="scale(0.015625)"/>
       <path id="DejaVuSans-73" d="M 2834 3397 
L 2834 2853 
Q 2591 2978 2328 3040 
Q 2066 3103 1784 3103 
Q 1356 3103 1142 2972 
Q 928 2841 928 2578 
Q 928 2378 1081 2264 
Q 1234 2150 1697 2047 
L 1894 2003 
Q 2506 1872 2764 1633 
Q 3022 1394 3022 966 
Q 3022 478 2636 193 
Q 2250 -91 1575 -91 
Q 1294 -91 989 -36 
Q 684 19 347 128 
L 347 722 
Q 666 556 975 473 
Q 1284 391 1588 391 
Q 1994 391 2212 530 
Q 2431 669 2431 922 
Q 2431 1156 2273 1281 
Q 2116 1406 1581 1522 
L 1381 1569 
Q 847 1681 609 1914 
Q 372 2147 372 2553 
Q 372 3047 722 3315 
Q 1072 3584 1716 3584 
Q 2034 3584 2315 3537 
Q 2597 3491 2834 3397 
z
" transform="scale(0.015625)"/>
       <path id="DejaVuSans-74" d="M 1172 4494 
L 1172 3500 
L 2356 3500 
L 2356 3053 
L 1172 3053 
L 1172 1153 
Q 1172 725 1289 603 
Q 1406 481 1766 481 
L 2356 481 
L 2356 0 
L 1766 0 
Q 1100 0 847 248 
Q 594 497 594 1153 
L 594 3053 
L 172 3053 
L 172 3500 
L 594 3500 
L 594 4494 
L 1172 4494 
z
" transform="scale(0.015625)"/>
       <path id="DejaVuSans-61" d="M 2194 1759 
Q 1497 1759 1228 1600 
Q 959 1441 959 1056 
Q 959 750 1161 570 
Q 1363 391 1709 391 
Q 2188 391 2477 730 
Q 2766 1069 2766 1631 
L 2766 1759 
L 2194 1759 
z
M 3341 1997 
L 3341 0 
L 2766 0 
L 2766 531 
Q 2569 213 2275 61 
Q 1981 -91 1556 -91 
Q 1019 -91 701 211 
Q 384 513 384 1019 
Q 384 1609 779 1909 
Q 1175 2209 1959 2209 
L 2766 2209 
L 2766 2266 
Q 2766 2663 2505 2880 
Q 2244 3097 1772 3097 
Q 1472 3097 1187 3025 
Q 903 2953 641 2809 
L 641 3341 
Q 956 3463 1253 3523 
Q 1550 3584 1831 3584 
Q 2591 3584 2966 3190 
Q 3341 2797 3341 1997 
z
" transform="scale(0.015625)"/>
       <path id="DejaVuSans-6e" d="M 3513 2113 
L 3513 0 
L 2938 0 
L 2938 2094 
Q 2938 2591 2744 2837 
Q 2550 3084 2163 3084 
Q 1697 3084 1428 2787 
Q 1159 2491 1159 1978 
L 1159 0 
L 581 0 
L 581 3500 
L 1159 3500 
L 1159 2956 
Q 1366 3272 1645 3428 
Q 1925 3584 2291 3584 
Q 2894 3584 3203 3211 
Q 3513 2838 3513 2113 
z
" transform="scale(0.015625)"/>
       <path id="DejaVuSans-63" d="M 3122 3366 
L 3122 2828 
Q 2878 2963 2633 3030 
Q 2388 3097 2138 3097 
Q 1578 3097 1268 2742 
Q 959 2388 959 1747 
Q 959 1106 1268 751 
Q 1578 397 2138 397 
Q 2388 397 2633 464 
Q 2878 531 3122 666 
L 3122 134 
Q 2881 22 2623 -34 
Q 2366 -91 2075 -91 
Q 1284 -91 818 406 
Q 353 903 353 1747 
Q 353 2603 823 3093 
Q 1294 3584 2113 3584 
Q 2378 3584 2631 3529 
Q 2884 3475 3122 3366 
z
" transform="scale(0.015625)"/>
       <path id="DejaVuSans-65" d="M 3597 1894 
L 3597 1613 
L 953 1613 
Q 991 1019 1311 708 
Q 1631 397 2203 397 
Q 2534 397 2845 478 
Q 3156 559 3463 722 
L 3463 178 
Q 3153 47 2828 -22 
Q 2503 -91 2169 -91 
Q 1331 -91 842 396 
Q 353 884 353 1716 
Q 353 2575 817 3079 
Q 1281 3584 2069 3584 
Q 2775 3584 3186 3129 
Q 3597 2675 3597 1894 
z
M 3022 2063 
Q 3016 2534 2758 2815 
Q 2500 3097 2075 3097 
Q 1594 3097 1305 2825 
Q 1016 2553 972 2059 
L 3022 2063 
z
" transform="scale(0.015625)"/>
       <path id="DejaVuSans-20" transform="scale(0.015625)"/>
       <path id="DejaVuSans-5b" d="M 550 4863 
L 1875 4863 
L 1875 4416 
L 1125 4416 
L 1125 -397 
L 1875 -397 
L 1875 -844 
L 550 -844 
L 550 4863 
z
" transform="scale(0.015625)"/>
       <path id="DejaVuSans-6b" d="M 581 4863 
L 1159 4863 
L 1159 1991 
L 2875 3500 
L 3609 3500 
L 1753 1863 
L 3688 0 
L 2938 0 
L 1159 1709 
L 1159 0 
L 581 0 
L 581 4863 
z
" transform="scale(0.015625)"/>
       <path id="DejaVuSans-6d" d="M 3328 2828 
Q 3544 3216 3844 3400 
Q 4144 3584 4550 3584 
Q 5097 3584 5394 3201 
Q 5691 2819 5691 2113 
L 5691 0 
L 5113 0 
L 5113 2094 
Q 5113 2597 4934 2840 
Q 4756 3084 4391 3084 
Q 3944 3084 3684 2787 
Q 3425 2491 3425 1978 
L 3425 0 
L 2847 0 
L 2847 2094 
Q 2847 2600 2669 2842 
Q 2491 3084 2119 3084 
Q 1678 3084 1418 2786 
Q 1159 2488 1159 1978 
L 1159 0 
L 581 0 
L 581 3500 
L 1159 3500 
L 1159 2956 
Q 1356 3278 1631 3431 
Q 1906 3584 2284 3584 
Q 2666 3584 2933 3390 
Q 3200 3197 3328 2828 
z
" transform="scale(0.015625)"/>
       <path id="DejaVuSans-5d" d="M 1947 4863 
L 1947 -844 
L 622 -844 
L 622 -397 
L 1369 -397 
L 1369 4416 
L 622 4416 
L 622 4863 
L 1947 4863 
z
" transform="scale(0.015625)"/>
      </defs>
      <use xlink:href="#DejaVuSans-64"/>
      <use xlink:href="#DejaVuSans-69" transform="translate(63.476562 0)"/>
      <use xlink:href="#DejaVuSans-73" transform="translate(91.259766 0)"/>
      <use xlink:href="#DejaVuSans-74" transform="translate(143.359375 0)"/>
      <use xlink:href="#DejaVuSans-61" transform="translate(182.568359 0)"/>
      <use xlink:href="#DejaVuSans-6e" transform="translate(243.847656 0)"/>
      <use xlink:href="#DejaVuSans-63" transform="translate(307.226562 0)"/>
      <use xlink:href="#DejaVuSans-65" transform="translate(362.207031 0)"/>
      <use xlink:href="#DejaVuSans-20" transform="translate(423.730469 0)"/>
      <use xlink:href="#DejaVuSans-73" transform="translate(455.517578 0)"/>
      <use xlink:href="#DejaVuSans-20" transform="translate(507.617188 0)"/>
      <use xlink:href="#DejaVuSans-5b" transform="translate(539.404297 0)"/>
      <use xlink:href="#DejaVuSans-6b" transform="translate(578.417969 0)"/>
      <use xlink:href="#DejaVuSans-6d" transform="translate(636.328125 0)"/>
      <use xlink:href="#DejaVuSans-5d" transform="translate(733.740234 0)"/>
     </g>
    </g>
   </g>
   <g id="matplotlib.axis_2">
    <g id="ytick_1">
     <g id="line2d_19">
      <path d="M 46.64 231.749964 
L 709.2 231.749964 
" clip-path="url(#pd9d1123bdb)" style="fill: none; stroke: #b0b0b0; stroke-opacity: 0.3; stroke-width: 0.8; stroke-linecap: square"/>
     </g>
     <g id="line2d_20">
      <defs>
       <path id="m61a583f587" d="M 0 0 
L -3.5 0 
" style="stroke: #000000; stroke-width: 0.8"/>
      </defs>
      <g>
       <use xlink:href="#m61a583f587" x="46.64" y="231.749964" style="stroke: #000000; stroke-width: 0.8"/>
      </g>
     </g>
     <g id="text_11">
      <!-- −2 -->
      <g transform="translate(24.897813 235.549183) scale(0.1 -0.1)">
       <defs>
        <path id="DejaVuSans-2212" d="M 678 2272 
L 4684 2272 
L 4684 1741 
L 678 1741 
L 678 2272 
z
" transform="scale(0.015625)"/>
       </defs>
       <use xlink:href="#DejaVuSans-2212"/>
       <use xlink:href="#DejaVuSans-32" transform="translate(83.789062 0)"/>
      </g>
     </g>
    </g>
    <g id="ytick_2">
     <g id="line2d_21">
      <path d="M 46.64 184.45643 
L 709.2 184.45643 
" clip-path="url(#pd9d1123bdb)" style="fill: none; stroke: #b0b0b0; stroke-opacity: 0.3; stroke-width: 0.8; stroke-linecap: square"/>
     </g>
     <g id="line2d_22">
      <g>
       <use xlink:href="#m61a583f587" x="46.64" y="184.45643" style="stroke: #000000; stroke-width: 0.8"/>
      </g>
     </g>
     <g id="text_12">
      <!-- −1 -->
      <g transform="translate(24.897813 188.255648) scale(0.1 -0.1)">
       <use xlink:href="#DejaVuSans-2212"/>
       <use xlink:href="#DejaVuSans-31" transform="translate(83.789062 0)"/>
      </g>
     </g>
    </g>
    <g id="ytick_3">
     <g id="line2d_23">
      <path d="M 46.64 137.162895 
L 709.2 137.162895 
" clip-path="url(#pd9d1123bdb)" style="fill: none; stroke: #b0b0b0; stroke-opacity: 0.3; stroke-width: 0.8; stroke-linecap: square"/>
     </g>
     <g id="line2d_24">
      <g>
       <use xlink:href="#m61a583f587" x="46.64" y="137.162895" style="stroke: #000000; stroke-width: 0.8"/>
      </g>
     </g>
     <g id="text_13">
      <!-- 0 -->
      <g transform="translate(33.2775 140.962114) scale(0.1 -0.1)">
       <use xlink:href="#DejaVuSans-30"/>
      </g>
     </g>
    </g>
    <g id="ytick_4">
     <g id="line2d_25">
      <path d="M 46.64 89.86936 
L 709.2 89.86936 
" clip-path="url(#pd9d1123bdb)" style="fill: none; stroke: #b0b0b0; stroke-opacity: 0.3; stroke-width: 0.8; stroke-linecap: square"/>
     </g>
     <g id="line2d_26">
      <g>
       <use xlink:href="#m61a583f587" x="46.64" y="89.86936" style="stroke: #000000; stroke-width: 0.8"/>
      </g>
     </g>
     <g id="text_14">
      <!-- 1 -->
      <g transform="translate(33.2775 93.668579) scale(0.1 -0.1)">
       <use xlink:href="#DejaVuSans-31"/>
      </g>
     </g>
    </g>
    <g id="ytick_5">
     <g id="line2d_27">
      <path d="M 46.64 42.575825 
L 709.2 42.575825 
" clip-path="url(#pd9d1123bdb)" style="fill: none; stroke: #b0b0b0; stroke-opacity: 0.3; stroke-width: 0.8; stroke-linecap: square"/>
     </g>
     <g id="line2d_28">
      <g>
       <use xlink:href="#m61a583f587" x="46.64" y="42.575825" style="stroke: #000000; stroke-width: 0.8"/>
      </g>
     </g>
     <g id="text_15">
      <!-- 2 -->
      <g transform="translate(33.2775 46.375044) scale(0.1 -0.1)">
       <use xlink:href="#DejaVuSans-32"/>
      </g>
     </g>
    </g>
    <g id="text_16">
     <!-- tie-rod force [kN] -->
     <g transform="translate(18.818125 179.170156) rotate(-90) scale(0.1 -0.1)">
      <defs>
       <path id="DejaVuSans-2d" d="M 313 2009 
L 1997 2009 
L 1997 1497 
L 313 1497 
L 313 2009 
z
" transform="scale(0.015625)"/>
       <path id="DejaVuSans-72" d="M 2631 2963 
Q 2534 3019 2420 3045 
Q 2306 3072 2169 3072 
Q 1681 3072 1420 2755 
Q 1159 2438 1159 1844 
L 1159 0 
L 581 0 
L 581 3500 
L 1159 3500 
L 1159 2956 
Q 1341 3275 1631 3429 
Q 1922 3584 2338 3584 
Q 2397 3584 2469 3576 
Q 2541 3569 2628 3553 
L 2631 2963 
z
" transform="scale(0.015625)"/>
       <path id="DejaVuSans-6f" d="M 1959 3097 
Q 1497 3097 1228 2736 
Q 959 2375 959 1747 
Q 959 1119 1226 758 
Q 1494 397 1959 397 
Q 2419 397 2687 759 
Q 2956 1122 2956 1747 
Q 2956 2369 2687 2733 
Q 2419 3097 1959 3097 
z
M 1959 3584 
Q 2709 3584 3137 3096 
Q 3566 2609 3566 1747 
Q 3566 888 3137 398 
Q 2709 -91 1959 -91 
Q 1206 -91 779 398 
Q 353 888 353 1747 
Q 353 2609 779 3096 
Q 1206 3584 1959 3584 
z
" transform="scale(0.015625)"/>
       <path id="DejaVuSans-66" d="M 2375 4863 
L 2375 4384 
L 1825 4384 
Q 1516 4384 1395 4259 
Q 1275 4134 1275 3809 
L 1275 3500 
L 2222 3500 
L 2222 3053 
L 1275 3053 
L 1275 0 
L 697 0 
L 697 3053 
L 147 3053 
L 147 3500 
L 697 3500 
L 697 3744 
Q 697 4328 969 4595 
Q 1241 4863 1831 4863 
L 2375 4863 
z
" transform="scale(0.015625)"/>
       <path id="DejaVuSans-4e" d="M 628 4666 
L 1478 4666 
L 3547 763 
L 3547 4666 
L 4159 4666 
L 4159 0 
L 3309 0 
L 1241 3903 
L 1241 0 
L 628 0 
L 628 4666 
z
" transform="scale(0.015625)"/>
      </defs>
      <use xlink:href="#DejaVuSans-74"/>
      <use xlink:href="#DejaVuSans-69" transform="translate(39.208984 0)"/>
      <use xlink:href="#DejaVuSans-65" transform="translate(66.992188 0)"/>
      <use xlink:href="#DejaVuSans-2d" transform="translate(128.515625 0)"/>
      <use xlink:href="#DejaVuSans-72" transform="translate(164.599609 0)"/>
      <use xlink:href="#DejaVuSans-6f" transform="translate(203.462891 0)"/>
      <use xlink:href="#DejaVuSans-64" transform="translate(264.644531 0)"/>
      <use xlink:href="#DejaVuSans-20" transform="translate(328.121094 0)"/>
      <use xlink:href="#DejaVuSans-66" transform="translate(359.908203 0)"/>
      <use xlink:href="#DejaVuSans-6f" transform="translate(395.113281 0)"/>
      <use xlink:href="#DejaVuSans-72" transform="translate(456.294922 0)"/>
      <use xlink:href="#DejaVuSans-63" transform="translate(495.158203 0)"/>
      <use xlink:href="#DejaVuSans-65" transform="translate(550.138672 0)"/>
      <use xlink:href="#DejaVuSans-20" transform="translate(611.662109 0)"/>
      <use xlink:href="#DejaVuSans-5b" transform="translate(643.449219 0)"/>
      <use xlink:href="#DejaVuSans-6b" transform="translate(682.462891 0)"/>
      <use xlink:href="#DejaVuSans-4e" transform="translate(740.373047 0)"/>
      <use xlink:href="#DejaVuSans-5d" transform="translate(815.177734 0)"/>
     </g>
    </g>
   </g>
   <g id="line2d_29">
    <path d="M 76.756364 137.162895 
L 77.117563 133.250771 
L 77.479166 132.61161 
L 78.203582 140.083796 
L 78.566393 141.137833 
L 78.929606 138.271273 
L 79.293218 133.833684 
L 79.65723 131.863956 
L 80.021639 133.979929 
L 80.751648 142.563137 
L 81.117246 142.221669 
L 81.849622 133.893064 
L 82.216398 133.168695 
L 82.583565 136.694471 
L 82.951121 141.661923 
L 83.319065 143.842056 
L 83.687395 141.677196 
L 84.42521 132.860265 
L 84.794692 133.619576 
L 85.534802 142.696397 
L 85.905426 143.245147 
L 86.276426 139.339223 
L 86.647803 133.796914 
L 87.019556 131.4714 
L 87.391682 133.930003 
L 87.764181 139.381944 
L 88.137052 142.904015 
L 88.510292 141.682993 
L 89.257877 131.376584 
L 89.632219 130.839932 
L 90.006924 135.028623 
L 90.381994 140.785762 
L 90.757426 142.939394 
L 91.133217 139.846834 
L 91.509368 133.655749 
L 91.885877 129.959121 
L 92.262741 131.387022 
L 93.017534 142.438963 
L 93.39546 142.801229 
L 94.152363 131.573511 
L 94.531338 129.49227 
L 94.910658 132.958643 
L 95.290324 139.782021 
L 95.670335 143.858014 
L 96.050688 142.111571 
L 96.81242 129.891268 
L 97.193793 129.752949 
L 97.95755 142.300385 
L 98.339933 144.609432 
L 98.722648 140.561613 
L 99.105696 132.868703 
L 99.489076 128.626375 
L 99.872783 130.72095 
L 100.641181 144.430498 
L 101.025869 144.592328 
L 101.796218 130.4361 
L 102.181876 128.107925 
L 102.567852 132.686561 
L 102.954147 141.40904 
L 103.340761 146.338294 
L 103.727691 144.136322 
L 104.502496 128.849764 
L 104.890368 128.933697 
L 105.667043 145.403438 
L 106.055845 148.460561 
L 106.444949 143.879791 
L 106.834327 134.295157 
L 107.223769 128.810853 
L 107.613003 131.840956 
L 108.390685 150.317317 
L 108.779134 151.2748 
L 109.167333 144.447794 
L 109.555307 134.151763 
L 109.943077 130.438238 
L 110.330664 136.773283 
L 110.718092 148.164795 
L 111.105376 155.069116 
L 111.492525 154.373751 
L 111.879563 146.412014 
L 112.266521 136.108778 
L 112.653424 133.449835 
L 113.427139 148.347698 
L 113.81398 150.810873 
L 114.20085 147.303515 
L 114.587834 142.131208 
L 114.975069 143.353163 
L 115.362636 154.218566 
L 115.750522 169.085225 
L 116.138467 178.943862 
L 116.526038 181.136967 
L 116.913004 172.548812 
L 117.68581 132.652253 
L 118.072152 134.302174 
L 118.845486 181.234792 
L 119.232527 192.293523 
L 119.619748 196.062416 
L 120.007202 192.734876 
L 120.395006 174.40634 
L 120.78324 134.811019 
L 121.171853 107.775408 
L 121.560605 107.301814 
L 122.337972 169.744737 
L 122.726521 180.265744 
L 123.11497 177.661285 
L 123.503434 149.1721 
L 123.892112 106.902102 
L 124.281016 97.994294 
L 124.670067 101.712329 
L 125.059318 122.503692 
L 125.448884 161.410519 
L 125.838723 173.361127 
L 126.228738 173.81014 
L 126.618957 149.082099 
L 127.009482 107.977235 
L 127.400237 99.666157 
L 127.791078 101.733237 
L 128.182016 118.919939 
L 128.573203 161.084705 
L 128.96463 174.858586 
L 129.356176 177.196861 
L 129.747841 158.832796 
L 130.139761 112.551096 
L 130.53192 99.682608 
L 130.924194 101.073274 
L 131.316582 118.530538 
L 131.709218 161.800517 
L 132.102094 176.185648 
L 132.495079 179.191597 
L 132.888162 164.126203 
L 133.28148 117.171161 
L 133.675047 100.062956 
L 134.068747 100.622876 
L 134.46257 119.604668 
L 134.856639 163.631943 
L 135.250934 178.16401 
L 135.645315 181.579942 
L 136.039759 169.422224 
L 136.434402 123.285104 
L 136.8293 100.895708 
L 137.224346 99.658986 
L 137.619512 115.661106 
L 138.014909 160.165958 
L 138.410537 177.269311 
L 138.806268 181.631323 
L 139.202079 173.980092 
L 139.994454 109.912173 
L 140.390985 108.878967 
L 140.787582 135.523324 
L 141.184283 170.396497 
L 141.581107 183.072557 
L 141.978034 185.420753 
L 142.375109 173.745549 
L 143.170007 112.606681 
L 143.567798 113.074052 
L 144.36405 172.462769 
L 144.76249 182.381659 
L 145.161032 181.191955 
L 145.559697 161.338469 
L 145.958588 120.342813 
L 146.357712 103.975335 
L 146.757007 108.988545 
L 147.556249 170.035961 
L 147.956163 177.789848 
L 148.356177 171.481511 
L 149.156788 105.985905 
L 149.557409 101.396544 
L 149.958176 112.050241 
L 150.359159 149.982442 
L 150.76038 170.772884 
L 151.161737 174.763506 
L 151.563202 160.368353 
L 151.964874 118.057994 
L 152.366782 101.993039 
L 152.768834 102.705508 
L 153.171024 118.700665 
L 153.573447 157.238067 
L 153.976092 171.473093 
L 154.378882 171.18048 
L 154.781873 147.540256 
L 155.185198 111.930915 
L 155.588855 104.505528 
L 155.992728 114.327091 
L 156.396738 153.542259 
L 156.800745 173.94842 
L 157.204438 178.786114 
L 157.607582 166.718929 
L 158.010063 126.247848 
L 158.411678 104.06995 
L 158.812122 104.252888 
L 159.211199 130.049518 
L 159.60881 167.400183 
L 160.004757 179.993287 
L 160.398787 176.223074 
L 161.180473 104.016532 
L 161.567721 94.073548 
L 161.95226 99.707757 
L 162.712976 165.024223 
L 163.089005 175.50809 
L 163.461962 165.746367 
L 163.83181 123.845413 
L 164.198485 97.060587 
L 164.561793 91.687535 
L 164.921577 97.312759 
L 165.277842 123.39661 
L 165.630645 161.88577 
L 165.979914 174.721281 
L 166.325541 168.931203 
L 167.005773 102.271125 
L 167.3402 93.746335 
L 167.670653 99.788725 
L 168.638255 180.598698 
L 168.952701 178.629386 
L 169.263001 156.405985 
L 169.569177 121.27528 
L 169.871166 107.300007 
L 170.168908 115.909495 
L 170.751672 178.288264 
L 171.036503 190.635891 
L 171.316801 191.889313 
L 171.592586 181.223458 
L 172.131345 138.079181 
L 172.394708 133.071752 
L 172.654189 148.685636 
L 173.161235 187.306705 
L 173.408541 195.32524 
L 173.651761 197.126102 
L 173.890982 193.708472 
L 174.357616 174.637613 
L 174.808729 158.040999 
L 175.028663 159.155569 
L 175.871907 187.473194 
L 176.074091 186.421377 
L 176.470431 173.653582 
L 176.665686 167.839627 
L 176.859854 168.629641 
L 177.835312 205.258308 
L 179.276938 231.864955 
L 179.673358 234.588824 
L 180.039169 235.619026 
L 180.21141 235.671 
L 180.696121 235.051595 
L 181.000905 234.381426 
L 181.298172 232.985942 
L 181.741159 228.702022 
L 182.802222 212.650624 
L 182.958766 201.910647 
L 183.437929 115.569585 
L 183.600834 117.51182 
L 183.931434 161.110554 
L 184.09912 164.103496 
L 184.268369 149.595236 
L 184.611683 109.218119 
L 184.785701 110.285382 
L 184.961237 116.561113 
L 185.31689 142.625177 
L 185.496977 142.673821 
L 185.86154 121.467981 
L 186.045942 119.410629 
L 186.231704 123.374006 
L 186.797068 151.905886 
L 186.988146 148.26816 
L 187.374141 135.418809 
L 187.569036 140.915307 
L 187.962691 158.586499 
L 188.161533 160.934103 
L 188.361739 158.287726 
L 188.76629 147.469549 
L 188.970646 147.523844 
L 189.383511 156.253893 
L 189.591994 157.922472 
L 189.801788 155.823801 
L 190.438668 142.385707 
L 190.653408 143.644628 
L 190.869351 146.465365 
L 191.086478 147.763478 
L 191.30478 145.936648 
L 191.744889 136.596844 
L 191.966692 134.76346 
L 192.189654 136.240221 
L 192.413768 138.822696 
L 192.639026 139.621478 
L 192.86542 137.546488 
L 193.321599 131.395282 
L 193.551374 131.2262 
L 194.014258 134.889409 
L 194.247352 135.215906 
L 194.953147 130.034035 
L 195.190559 130.507 
L 195.668557 133.645878 
L 195.909128 133.760537 
L 196.637038 130.323275 
L 196.881714 131.041407 
L 197.374085 133.695777 
L 197.621766 133.649094 
L 198.120086 131.495314 
L 198.37071 131.296358 
L 198.622301 132.152225 
L 199.128361 134.415312 
L 199.38282 134.27282 
L 199.894564 132.757663 
L 200.151836 132.938126 
L 200.929193 136.138857 
L 201.190144 136.017102 
L 201.452003 135.506775 
L 201.714765 135.368328 
L 201.978424 136.105752 
L 202.50842 138.990446 
L 202.77475 139.770907 
L 203.041954 139.850265 
L 203.309909 139.789452 
L 203.578325 140.346921 
L 204.115365 143.396035 
L 204.651051 145.998458 
L 205.44826 147.854492 
L 205.973347 151.234089 
L 207.503125 163.795005 
L 208.235874 171.319467 
L 208.475091 171.521635 
L 208.945814 168.25759 
L 209.177187 168.330983 
L 210.074938 176.148825 
L 210.507208 176.748436 
L 210.719498 177.740429 
L 211.342844 181.754057 
L 211.546626 181.380222 
L 211.949147 178.617772 
L 212.148221 179.169378 
L 212.542798 186.234047 
L 212.933613 192.541743 
L 213.128126 193.700849 
L 213.516842 194.593346 
L 213.711698 196.627874 
L 214.898026 222.303845 
L 215.295151 225.770423 
L 215.685413 227.800999 
L 216.0656 228.771867 
L 216.251879 228.950148 
L 216.435882 228.953877 
L 216.617886 228.795455 
L 216.976816 228.031356 
L 217.505871 225.927005 
L 218.897196 219.37066 
L 219.246468 217.914775 
L 219.59786 215.531172 
L 219.951943 211.380035 
L 220.489439 202.082306 
L 221.036798 188.791056 
L 221.408353 173.763907 
L 221.977055 146.983908 
L 222.169711 145.402201 
L 222.559473 147.320377 
L 222.756498 144.942478 
L 223.15473 133.584126 
L 223.355886 131.60855 
L 223.558374 133.939595 
L 223.967313 141.492675 
L 224.173753 141.015334 
L 224.590536 135.813579 
L 224.800863 136.623901 
L 225.22535 143.923526 
L 225.4395 145.554868 
L 225.654911 144.834798 
L 226.089485 141.412476 
L 226.308629 142.084991 
L 226.750558 146.455703 
L 226.973289 146.996648 
L 227.197156 145.949875 
L 227.648241 142.854926 
L 227.875437 142.956481 
L 228.333084 145.021551 
L 228.563516 144.84366 
L 229.261233 140.201932 
L 229.495944 140.059846 
L 229.968549 140.963553 
L 230.20643 140.269962 
L 230.926334 136.121904 
L 231.168377 136.163647 
L 231.411449 136.637088 
L 231.655543 136.722282 
L 231.900656 135.974446 
L 232.393914 133.69906 
L 232.64205 133.429853 
L 233.392419 134.429253 
L 234.151598 132.701708 
L 234.406588 132.8587 
L 235.17726 134.440136 
L 235.69574 134.399776 
L 235.956376 134.745172 
L 236.743813 136.450523 
L 237.008114 136.375837 
L 237.273314 136.092864 
L 237.539406 136.019876 
L 237.806385 136.319391 
L 238.342977 137.084901 
L 238.61258 136.999121 
L 239.154378 136.425571 
L 239.426563 136.395933 
L 240.24821 136.757427 
L 241.077395 136.313721 
L 241.355444 136.406536 
L 241.913997 136.799787 
L 242.194492 136.820694 
L 242.757898 136.581646 
L 243.0408 136.591736 
L 243.894253 137.116503 
L 244.467137 136.985404 
L 244.75474 136.916065 
L 245.332252 137.160108 
L 245.91281 137.413677 
L 246.789291 137.170503 
L 247.968307 137.546236 
L 248.860221 137.29412 
L 249.758586 137.581896 
L 250.966273 137.303832 
L 251.574284 137.512881 
L 252.185038 137.411389 
L 252.798506 137.24302 
L 254.033485 137.458986 
L 254.654945 137.268928 
L 255.279016 137.397125 
L 255.905676 137.54818 
L 256.850465 137.364742 
L 258.119014 137.668674 
L 259.076946 137.532031 
L 260.040381 137.783038 
L 261.658125 137.620064 
L 262.309365 137.699432 
L 262.96294 137.322486 
L 263.947634 136.837949 
L 264.277012 136.694425 
L 264.60696 136.861072 
L 265.600221 139.052455 
L 265.932437 139.319483 
L 266.265208 139.374896 
L 266.598526 138.896194 
L 267.266778 137.316396 
L 267.601709 137.486474 
L 268.273185 138.968839 
L 268.609731 138.741972 
L 269.622577 135.312403 
L 269.961251 135.274293 
L 270.30045 135.741641 
L 270.640172 135.992012 
L 270.980414 135.50736 
L 271.662444 133.446355 
L 272.004226 133.143203 
L 272.346512 133.595648 
L 272.689201 134.342186 
L 273.032035 134.690608 
L 273.374731 134.330841 
L 273.717024 133.57948 
L 274.058666 133.131394 
L 274.399426 133.498135 
L 275.414313 136.632995 
L 275.7495 136.723622 
L 276.082838 136.563254 
L 276.414168 136.971627 
L 276.743342 138.297825 
L 277.394707 142.136758 
L 277.716691 143.361849 
L 278.666951 145.44854 
L 279.287006 149.084386 
L 279.896182 152.540475 
L 281.081537 156.340302 
L 281.658584 159.370676 
L 281.943521 160.174671 
L 282.784836 161.105616 
L 283.060966 162.22751 
L 283.334985 164.961884 
L 284.144149 179.469161 
L 284.673429 183.349434 
L 284.935397 185.235799 
L 285.454404 191.935062 
L 286.473095 211.005942 
L 287.219471 225.571685 
L 287.706907 230.508453 
L 288.185339 233.289571 
L 288.654516 234.910126 
L 289.114319 235.812124 
L 289.340739 236.032047 
L 289.564898 236.078182 
L 289.786847 235.961359 
L 290.224468 235.371141 
L 290.867207 233.969838 
L 291.497075 231.923301 
L 292.932712 225.99837 
L 293.335337 225.382086 
L 293.535733 225.454039 
L 293.735625 225.806749 
L 294.13362 227.155864 
L 295.11508 230.805249 
L 295.499243 231.43468 
L 295.689256 231.529541 
L 295.877978 231.489074 
L 296.251982 231.052501 
L 296.622143 230.207549 
L 297.172414 228.263658 
L 297.720026 225.666987 
L 298.08559 222.565715 
L 298.269046 219.253792 
L 298.638265 206.071936 
L 299.011775 191.899201 
L 299.200498 189.268005 
L 299.390591 189.491827 
L 299.774627 192.16493 
L 299.968333 192.38857 
L 300.162963 191.172867 
L 300.358365 188.072297 
L 301.14609 165.641237 
L 301.344218 166.568058 
L 301.940227 180.052696 
L 302.139237 180.470415 
L 302.338369 178.350908 
L 302.737061 172.44597 
L 302.936672 173.13795 
L 303.336484 182.566822 
L 303.736995 191.611932 
L 304.338705 199.406963 
L 305.941658 218.126071 
L 306.340093 219.851303 
L 306.737649 220.738275 
L 307.134827 221.092795 
L 307.532197 221.113699 
L 308.129531 220.805483 
L 309.129797 219.967489 
L 309.531379 219.392048 
L 309.934048 218.253008 
L 310.33822 216.350812 
L 310.94851 211.93845 
L 311.565457 207.557574 
L 313.037194 202.268473 
L 313.251004 202.254464 
L 313.896333 202.865444 
L 314.112489 202.770737 
L 314.546211 202.036451 
L 314.763862 201.348949 
L 314.982161 200.133077 
L 315.201251 197.913065 
L 315.642437 189.016526 
L 316.539902 164.049873 
L 317.690422 145.776978 
L 318.158354 136.150692 
L 318.393879 135.897988 
L 318.868044 139.355013 
L 319.106685 138.405285 
L 319.587084 133.274485 
L 319.828839 133.180008 
L 320.560268 139.752191 
L 320.806111 139.045081 
L 321.300808 136.099002 
L 321.549651 136.897759 
L 322.050291 141.18401 
L 322.302073 141.663893 
L 322.554821 140.507068 
L 322.808528 138.774499 
L 323.063191 137.944953 
L 323.318803 138.695569 
L 323.832848 141.250482 
L 324.091269 140.796778 
L 324.610881 137.436249 
L 324.872064 136.806379 
L 325.134159 137.443277 
L 325.397161 138.491281 
L 325.661065 138.765375 
L 325.925865 137.768224 
L 326.45814 134.769606 
L 326.725608 134.614091 
L 327.263179 136.128387 
L 327.533273 136.048851 
L 328.348735 133.134535 
L 328.622267 133.453583 
L 329.17187 134.980111 
L 329.447931 134.82191 
L 330.002549 133.229831 
L 330.281096 133.108172 
L 330.560462 133.753797 
L 330.840643 134.690932 
L 331.121634 135.236106 
L 331.403431 135.04635 
L 331.969423 133.972752 
L 332.25361 134.198155 
L 332.824345 135.895234 
L 333.110884 136.257211 
L 333.398198 135.961113 
L 333.686285 135.425897 
L 333.975139 135.238824 
L 334.264757 135.690641 
L 334.846269 137.223931 
L 335.138155 137.329092 
L 335.724169 136.476711 
L 336.018289 136.500381 
L 336.905057 138.270417 
L 337.202103 138.141789 
L 337.79836 137.374125 
L 338.097563 137.594896 
L 338.698101 138.850873 
L 338.999429 139.044474 
L 339.907603 138.222215 
L 340.211714 138.595685 
L 340.821993 139.688918 
L 341.128154 139.701146 
L 341.742503 139.030049 
L 342.050684 139.081264 
L 342.97921 140.383801 
L 343.290035 140.23574 
L 343.913639 139.606452 
L 344.226412 139.737589 
L 344.853882 140.550439 
L 345.168571 140.601535 
L 346.116423 139.473277 
L 346.433624 139.519864 
L 346.751447 139.76277 
L 347.069886 139.818456 
L 347.388941 139.485045 
L 348.348783 137.506483 
L 348.988319 137.13539 
L 349.307231 136.639034 
L 349.942298 134.52067 
L 350.572472 132.544449 
L 351.19647 131.254789 
L 351.813204 129.057686 
L 352.723188 125.34984 
L 353.319526 124.165936 
L 353.614672 123.649788 
L 354.199209 121.937042 
L 354.776416 119.119072 
L 355.628834 113.332418 
L 355.909224 112.669894 
L 356.738499 111.894176 
L 357.28121 110.539893 
L 357.815823 109.191186 
L 358.080054 108.801662 
L 358.342143 109.111642 
L 358.859988 112.256574 
L 359.87225 119.37094 
L 360.61112 123.394704 
L 361.569998 127.264799 
L 362.498459 130.046533 
L 363.174817 131.557426 
L 363.83511 132.489804 
L 364.481223 133.029889 
L 364.905313 133.082668 
L 365.53271 132.758473 
L 366.150763 132.420247 
L 367.754648 132.079025 
L 368.145841 132.374829 
L 369.490562 133.816944 
L 369.868171 133.923411 
L 370.244053 133.820471 
L 370.619351 133.525667 
L 370.99552 132.99832 
L 371.373646 132.121059 
L 372.139087 129.486861 
L 372.920325 126.89272 
L 373.517267 125.698269 
L 374.326185 124.860726 
L 374.735336 124.524029 
L 375.147057 124.562887 
L 375.560983 124.928877 
L 376.185367 125.896542 
L 377.022783 127.820336 
L 378.07378 130.270901 
L 378.91566 131.540733 
L 379.966367 132.610871 
L 381.014381 133.453628 
L 382.061223 133.967703 
L 382.689286 134.058925 
L 384.995204 134.068754 
L 386.258327 134.172458 
L 386.680903 134.055274 
L 387.104713 133.749966 
L 387.530462 133.188242 
L 387.959212 132.312249 
L 388.391942 130.885616 
L 389.272141 127.265969 
L 389.495534 127.230103 
L 390.173306 127.554438 
L 390.401695 128.836589 
L 390.631312 132.154348 
L 391.094208 141.41916 
L 391.327464 142.4977 
L 392.034218 138.668408 
L 392.750927 143.883126 
L 392.991954 142.353614 
L 393.477124 136.290955 
L 393.721252 135.607659 
L 394.212558 137.957201 
L 394.459723 137.62803 
L 395.207191 131.355272 
L 395.458313 131.631356 
L 395.963468 134.14502 
L 396.217487 133.998649 
L 396.728377 131.389554 
L 396.985233 131.102381 
L 397.24302 132.124074 
L 397.761371 135.134728 
L 398.021925 135.244741 
L 398.545767 133.871635 
L 398.809045 134.242684 
L 399.604253 138.481416 
L 399.871103 138.410628 
L 400.138837 137.735161 
L 400.407448 137.380027 
L 400.676931 137.894028 
L 401.2185 140.093293 
L 401.490578 140.39479 
L 401.763515 139.845158 
L 402.037306 138.957505 
L 402.311948 138.500534 
L 402.587438 138.902601 
L 403.14094 140.612662 
L 403.418943 140.625491 
L 404.257886 138.493268 
L 404.539162 138.923903 
L 404.821243 139.735911 
L 405.104126 140.195207 
L 405.387806 139.886088 
L 405.95754 138.218728 
L 406.243586 138.06479 
L 406.818014 139.154696 
L 407.106388 139.280543 
L 407.39553 138.742139 
L 407.976102 137.311493 
L 408.267525 137.398556 
L 408.852625 138.406713 
L 409.146294 138.315194 
L 409.735851 136.989976 
L 410.031733 136.725764 
L 410.328344 137.048891 
L 410.625682 137.616924 
L 410.923742 137.921869 
L 411.222522 137.682091 
L 411.822225 136.593426 
L 412.123141 136.591743 
L 412.727085 137.5754 
L 413.030107 137.73318 
L 413.333823 137.393708 
L 413.63823 136.855032 
L 413.943326 136.553692 
L 414.249106 136.740135 
L 414.862707 137.679934 
L 415.170522 137.675465 
L 415.788162 136.790033 
L 416.097982 136.661366 
L 416.408464 136.987983 
L 416.719604 137.486327 
L 417.0314 137.746341 
L 417.343849 137.550107 
L 417.970691 136.681436 
L 418.285079 136.708502 
L 419.232073 138.189017 
L 419.549005 138.061765 
L 420.184751 137.301819 
L 420.503559 137.45535 
L 421.143031 138.225907 
L 421.463688 138.156311 
L 422.106832 137.435345 
L 422.429313 137.360526 
L 423.07608 137.869267 
L 423.40036 137.896405 
L 424.376756 136.813808 
L 424.703397 136.867251 
L 425.358427 137.378648 
L 425.686811 137.306135 
L 426.345302 136.548721 
L 426.675404 136.400046 
L 427.006074 136.584319 
L 427.337309 136.908657 
L 427.669107 137.066776 
L 428.001464 136.897214 
L 428.667849 136.234457 
L 429.001872 136.271659 
L 429.671565 136.920101 
L 430.00723 136.986391 
L 431.017471 136.323338 
L 431.355292 136.529231 
L 432.032531 137.242158 
L 432.371944 137.310812 
L 433.052346 137.154804 
L 434.076863 137.808849 
L 434.419407 137.196776 
L 435.106049 135.625031 
L 435.450139 135.453066 
L 435.794733 135.829664 
L 436.485404 138.101429 
L 436.831476 138.182619 
L 437.52509 136.435335 
L 437.872634 136.419979 
L 438.220667 137.403185 
L 438.918195 140.07157 
L 439.267683 140.332882 
L 439.968094 139.436682 
L 440.319008 139.740836 
L 441.37266 142.800961 
L 441.723238 142.539083 
L 442.421931 141.12828 
L 442.769605 141.322513 
L 443.460609 142.890307 
L 443.803574 142.825496 
L 444.14462 141.776568 
L 444.820338 139.074592 
L 445.154718 138.663333 
L 445.486597 138.767251 
L 445.815851 138.663242 
L 446.142368 137.618192 
L 447.419219 130.31547 
L 448.039192 128.870001 
L 448.34439 127.427201 
L 449.532403 119.905568 
L 450.106417 118.458973 
L 450.666961 117.030288 
L 451.483426 114.469919 
L 452.272643 113.570325 
L 452.529877 112.469028 
L 453.285251 107.452307 
L 453.532111 106.58772 
L 453.776823 106.523854 
L 454.019595 107.293071 
L 454.737835 110.774024 
L 454.974325 111.651287 
L 455.443447 115.112747 
L 456.138983 120.794031 
L 456.823404 124.659986 
L 457.49095 127.085696 
L 460.522 135.030191 
L 460.896169 135.613084 
L 461.081606 135.709404 
L 461.26611 135.641739 
L 461.632845 134.969456 
L 462.722954 131.724821 
L 462.904115 131.719525 
L 463.085282 131.932203 
L 463.447737 132.836903 
L 464.174074 135.015204 
L 464.538581 135.56672 
L 464.721317 135.646671 
L 465.087983 135.446972 
L 465.641786 134.556236 
L 466.201769 133.404002 
L 466.57974 132.125158 
L 467.547163 126.801722 
L 467.944331 124.441734 
L 468.14515 124.820122 
L 468.347459 127.827053 
L 468.756533 138.609296 
L 468.963259 138.101948 
L 469.380898 130.143094 
L 469.591742 130.705599 
L 470.01736 140.635371 
L 470.232076 141.896047 
L 470.448009 137.922284 
L 470.88341 127.696063 
L 471.102837 127.652856 
L 471.545042 132.043969 
L 471.76779 130.993494 
L 472.216603 123.783694 
L 472.442702 122.485449 
L 472.669952 123.400858 
L 473.127968 127.617781 
L 473.358736 127.985265 
L 474.05785 124.346287 
L 474.293076 125.32527 
L 475.004995 131.21732 
L 475.244334 130.607232 
L 475.48468 129.357073 
L 475.726031 128.980499 
L 475.968385 130.228301 
L 476.456124 135.421787 
L 476.701528 136.704275 
L 476.947958 136.3517 
L 477.195409 135.498257 
L 477.443873 135.6658 
L 477.693342 137.59133 
L 478.195268 142.467882 
L 478.447711 143.059395 
L 478.95553 141.588994 
L 479.210897 141.963187 
L 479.982765 146.990843 
L 480.241951 146.957941 
L 480.502065 146.252227 
L 480.763086 146.12981 
L 481.024993 147.44307 
L 481.815877 153.558098 
L 482.614265 155.429694 
L 483.150604 159.385228 
L 483.689982 163.265859 
L 485.045093 169.975817 
L 485.587804 176.325113 
L 486.673075 189.44657 
L 488.559106 209.368711 
L 490.399202 222.400989 
L 490.915061 224.784524 
L 491.427366 226.047483 
L 492.190671 226.911867 
L 492.443602 226.944484 
L 492.946559 226.534973 
L 493.445307 226.179168 
L 494.67614 226.106305 
L 495.164431 225.73032 
L 495.651654 225.107948 
L 496.13825 224.191543 
L 497.351051 221.43269 
L 497.834713 221.142141 
L 498.559711 220.986493 
L 499.043379 220.39212 
L 499.527403 219.267977 
L 500.011853 217.381159 
L 500.982628 212.903136 
L 501.46942 211.835964 
L 501.957271 211.155607 
L 502.201598 211.001812 
L 502.691028 211.257211 
L 503.427061 211.752124 
L 503.919169 212.414862 
L 504.658995 213.772517 
L 505.152585 214.062604 
L 505.645947 214.990541 
L 506.631244 216.877333 
L 507.123682 217.413486 
L 507.369938 217.513261 
L 507.616246 217.390131 
L 508.602165 216.109699 
L 508.848639 215.984208 
L 509.095041 216.006727 
L 509.587719 216.512445 
L 510.573792 218.049097 
L 511.808922 218.801483 
L 513.540264 219.82801 
L 516.756741 220.854421 
L 517.498075 220.560164 
L 517.993061 220.18003 
L 518.736604 219.310374 
L 518.984403 219.313015 
L 519.970769 220.048062 
L 520.459687 220.043834 
L 520.702977 219.85428 
L 520.945499 219.312816 
L 521.187273 218.156769 
L 522.148002 211.904325 
L 522.6253 210.853332 
L 522.863337 210.517424 
L 523.338459 210.355815 
L 523.57565 209.992529 
L 523.812666 209.118719 
L 524.286273 205.329693 
L 524.759489 200.222795 
L 524.996101 199.278543 
L 525.232791 199.611631 
L 525.706509 201.926779 
L 527.130945 211.548505 
L 527.606867 212.337395 
L 528.082493 212.823041 
L 528.794463 213.023399 
L 529.0313 213.283668 
L 529.504194 214.551158 
L 529.976179 215.708652 
L 530.211905 215.800033 
L 530.447508 215.593805 
L 530.918563 214.503518 
L 531.62569 211.457613 
L 532.098086 209.849617 
L 532.334747 209.970389 
L 532.809214 211.762716 
L 533.523907 214.247349 
L 534.002165 215.352608 
L 534.481586 215.936109 
L 534.721717 215.825098 
L 534.962165 215.282929 
L 535.202972 214.258039 
L 535.685861 210.640886 
L 536.170775 206.375396 
L 536.41411 205.027981 
L 536.658089 204.357035 
L 537.148117 204.067199 
L 537.394207 203.476918 
L 537.641028 201.986726 
L 537.888591 199.159448 
L 538.136907 194.405064 
L 538.635888 178.291785 
L 539.138086 162.338309 
L 539.390154 160.328792 
L 539.894756 162.645974 
L 540.1467 159.865317 
L 540.398067 151.416192 
L 540.898311 127.23997 
L 541.146831 124.340488 
L 541.639845 130.307419 
L 541.884064 129.35661 
L 542.606185 112.434601 
L 542.843075 111.634193 
L 543.077949 113.143165 
L 543.541558 117.161802 
L 543.770246 116.71145 
L 544.443267 110.985465 
L 544.663039 110.893166 
L 544.880424 111.810336 
L 545.307847 114.634573 
L 545.517846 115.066296 
L 545.725352 114.268065 
L 546.33302 109.468586 
L 546.530837 108.791831 
L 546.726511 108.708354 
L 546.920253 108.857574 
L 547.112312 108.843897 
L 547.492441 108.304561 
L 547.680945 108.418346 
L 547.868587 109.068654 
L 548.241713 111.588563 
L 549.348426 120.404443 
L 550.076595 124.400546 
L 551.66551 131.306319 
L 552.16516 132.771209 
L 552.489029 133.210183 
L 552.806711 133.214559 
L 553.274903 132.747432 
L 553.737737 132.393282 
L 554.044987 132.51198 
L 554.505253 133.19177 
L 555.272591 134.467403 
L 555.734106 134.734213 
L 556.042869 134.695477 
L 556.353494 134.47185 
L 556.667179 133.961484 
L 556.985274 132.766325 
L 557.309081 130.828198 
L 557.47344 130.460106 
L 557.63953 130.548919 
L 557.807361 129.974903 
L 558.148197 126.942144 
L 558.32117 127.526627 
L 558.495826 131.893468 
L 558.850074 144.54013 
L 559.029571 143.672851 
L 559.393171 132.869167 
L 559.577251 132.588621 
L 559.949845 141.387495 
L 560.138312 141.943933 
L 560.712251 127.581712 
L 560.906386 127.815018 
L 561.298832 132.813007 
L 561.497126 132.188363 
L 562.100161 124.352623 
L 562.303848 124.907408 
L 562.715153 128.737981 
L 562.922741 129.104574 
L 563.553058 125.624295 
L 563.765622 126.313251 
L 564.410509 131.321812 
L 564.627841 131.041104 
L 564.846343 130.175615 
L 565.066004 129.889623 
L 565.286815 130.8718 
L 565.956112 136.400075 
L 566.181488 136.178225 
L 566.407994 135.483523 
L 566.635623 135.553378 
L 567.094232 138.872718 
L 567.325205 140.379292 
L 567.557285 140.772112 
L 568.02474 139.660301 
L 568.260103 139.802274 
L 568.972651 142.766586 
L 569.212301 142.593463 
L 569.694758 141.211508 
L 569.93755 141.241739 
L 570.426227 142.575859 
L 570.672098 142.759416 
L 570.918982 142.276682 
L 571.415758 140.841367 
L 571.665636 140.801648 
L 572.168341 141.583431 
L 572.421154 141.471294 
L 573.185364 139.556193 
L 573.442002 139.578365 
L 573.958098 140.053409 
L 574.217544 139.778979 
L 574.739202 138.440503 
L 575.001403 138.127397 
L 575.264512 138.230626 
L 575.528524 138.472835 
L 575.793434 138.490354 
L 576.059235 138.097208 
L 576.593494 136.967426 
L 576.861941 136.823337 
L 577.401446 137.120948 
L 577.672495 137.004863 
L 578.490764 135.704795 
L 578.765212 135.680317 
L 579.316619 135.902985 
L 579.593568 135.693238 
L 580.149936 134.816643 
L 580.429346 134.595319 
L 581.555053 134.552422 
L 582.122681 134.059447 
L 582.40767 134.070921 
L 583.267284 134.567266 
L 584.133784 134.556719 
L 584.715224 135.31214 
L 585.299651 136.107836 
L 585.88695 136.680731 
L 586.181259 137.17579 
L 587.64778 141.04529 
L 588.227672 142.915274 
L 589.648208 148.149616 
L 591.286091 153.725895 
L 591.815848 154.6755 
L 592.853549 157.752943 
L 593.108748 158.068599 
L 593.362376 158.581414 
L 593.614527 159.870999 
L 594.114802 165.036673 
L 595.102821 180.312428 
L 595.835561 193.597509 
L 597.265994 222.059583 
L 597.727967 227.398241 
L 598.18152 230.685323 
L 598.626992 232.713117 
L 599.065091 233.793277 
L 599.281643 234.02699 
L 599.496677 234.09475 
L 599.710283 234.022261 
L 600.133403 233.526105 
L 600.55128 232.620396 
L 601.1691 230.568259 
L 602.581166 224.826019 
L 602.98055 224.155126 
L 603.379095 223.936992 
L 603.777121 223.981803 
L 604.174663 224.383351 
L 605.553644 226.38874 
L 605.748321 226.505525 
L 605.942328 226.488184 
L 606.135667 226.232106 
L 606.328388 225.591285 
L 606.520577 224.340523 
L 606.903837 218.767036 
L 607.477702 206.308797 
L 607.669056 204.223669 
L 608.052258 203.011189 
L 608.244227 202.319974 
L 608.62922 199.125236 
L 609.796545 186.902847 
L 609.993276 187.616471 
L 610.388555 193.620236 
L 610.984912 203.497355 
L 611.383884 206.198981 
L 612.184202 209.155613 
L 613.189515 213.924341 
L 613.795208 215.70758 
L 614.200155 216.29139 
L 614.606348 216.410178 
L 615.014051 216.115282 
L 615.423418 215.376453 
L 616.040594 214.07553 
L 616.454345 213.775057 
L 617.078841 213.728303 
L 617.498019 213.234774 
L 618.131366 211.820813 
L 618.985065 209.681326 
L 619.200206 209.434743 
L 619.416035 209.411818 
L 619.849657 209.852016 
L 620.285674 210.272645 
L 620.723807 210.358612 
L 621.163825 210.059281 
L 621.605653 209.132109 
L 622.049404 207.430285 
L 622.719283 203.610687 
L 623.169405 199.871089 
L 623.623103 193.641185 
L 624.081084 182.96587 
L 625.011762 156.028487 
L 625.247457 154.110963 
L 625.484295 153.140815 
L 625.722239 150.895024 
L 626.201324 139.979354 
L 626.442451 134.644879 
L 626.684622 132.919854 
L 626.927827 134.334127 
L 627.172061 136.680517 
L 627.417316 137.388129 
L 627.663584 135.526498 
L 628.159139 130.95048 
L 628.408412 131.75743 
L 628.90992 137.174858 
L 629.162143 138.025983 
L 629.92463 134.032385 
L 630.180717 135.414071 
L 630.695734 139.759663 
L 630.954645 139.728288 
L 631.475227 136.586931 
L 631.736885 136.315711 
L 632.527285 140.087905 
L 632.792546 139.189589 
L 633.325757 135.791111 
L 633.593714 135.511185 
L 634.132317 136.635481 
L 634.402946 136.060104 
L 635.220024 131.2987 
L 635.494056 131.966923 
L 636.044554 134.435981 
L 636.321018 133.845585 
L 636.876388 130.928906 
L 637.155295 131.028479 
L 637.996901 135.012476 
L 638.279054 134.545913 
L 638.562007 133.458083 
L 638.845758 132.904082 
L 639.130301 133.541299 
L 639.701749 136.632533 
L 639.988644 137.084878 
L 640.853968 135.1136 
L 641.143941 136.060767 
L 641.726162 138.571276 
L 642.018401 138.421982 
L 642.605117 136.703744 
L 642.899588 136.830846 
L 643.490736 138.545254 
L 643.787409 138.788296 
L 644.084814 138.321116 
L 644.382955 138.090923 
L 644.681837 139.111563 
L 645.58293 147.173418 
L 645.884731 147.083533 
L 646.490332 144.067872 
L 646.794097 143.840635 
L 647.709275 147.812682 
L 648.015663 147.465189 
L 648.938868 143.177023 
L 649.247944 142.95909 
L 649.557682 143.280044 
L 649.868081 143.306669 
L 650.179136 142.492482 
L 650.803203 139.658602 
L 651.11621 139.115356 
L 651.429861 139.482933 
L 651.744154 140.149377 
L 652.059086 140.325264 
L 652.374653 139.654324 
L 653.007681 137.682217 
L 653.325138 137.805519 
L 653.961921 139.413791 
L 654.281241 139.427968 
L 654.601175 138.715374 
L 655.24288 136.81276 
L 655.564645 136.844596 
L 655.887017 137.882496 
L 657.508006 146.236817 
L 657.833989 146.704676 
L 658.160523 145.900854 
L 658.487594 144.286984 
L 658.815206 143.475553 
L 659.143366 144.471356 
L 659.80138 148.003144 
L 660.131249 147.949548 
L 660.461688 146.515174 
L 661.124269 142.337757 
L 661.456408 141.345432 
L 661.789111 141.41895 
L 662.122373 141.817989 
L 662.456191 141.575174 
L 662.790557 140.316506 
L 663.460913 137.338599 
L 663.796897 137.288797 
L 664.470466 138.949117 
L 664.80805 138.73062 
L 665.48481 136.406357 
L 665.823983 136.223103 
L 666.163683 137.227073 
L 666.503906 138.679184 
L 666.844649 139.466634 
L 667.185911 139.122975 
L 667.527688 138.092269 
L 667.869979 137.44433 
L 668.212782 138.05788 
L 668.89991 140.737057 
L 669.244229 140.633365 
L 670.280194 136.633068 
L 670.626527 138.350476 
L 671.668704 150.559047 
L 672.017153 151.265772 
L 672.366083 150.986178 
L 672.715438 150.196265 
L 673.41528 146.147067 
L 673.765788 146.949301 
L 674.468127 153.681708 
L 674.81999 155.366756 
L 675.172318 154.087321 
L 676.232066 142.334988 
L 676.586233 143.165078 
L 676.940856 145.990961 
L 677.295929 147.676358 
L 677.651451 146.169631 
L 678.36384 136.591303 
L 678.720708 134.806452 
L 679.083636 137.127913 
L 679.083636 137.127913 
" clip-path="url(#pd9d1123bdb)" style="fill: none; stroke: #2ca02c; stroke-width: 0.9; stroke-linecap: square"/>
   </g>
   <g id="line2d_30">
    <path d="M 76.756364 137.162895 
L 77.117563 133.24224 
L 77.479166 132.577503 
L 78.203582 140.110403 
L 78.566393 141.158403 
L 78.929606 138.272099 
L 79.293218 133.816134 
L 79.65723 131.814127 
L 80.021639 133.94412 
L 80.751648 142.574037 
L 81.117246 142.19507 
L 81.849622 133.912929 
L 82.216398 133.177854 
L 82.583565 136.693401 
L 82.951121 141.637077 
L 83.319065 143.757641 
L 83.687395 141.602337 
L 84.42521 132.906999 
L 84.794692 133.637241 
L 85.534802 142.648703 
L 85.905426 143.160116 
L 86.276426 139.308118 
L 86.647803 133.832292 
L 87.019556 131.492158 
L 87.391682 133.92274 
L 87.764181 139.384057 
L 88.137052 142.885654 
L 88.510292 141.648834 
L 89.257877 131.379873 
L 89.632219 130.793984 
L 90.006924 135.00688 
L 90.381994 140.812128 
L 90.757426 142.947499 
L 91.133217 139.838953 
L 91.509368 133.654102 
L 91.885877 129.904302 
L 92.262741 131.30684 
L 93.017534 142.483434 
L 93.39546 142.807438 
L 94.152363 131.55565 
L 94.531338 129.405724 
L 94.910658 132.895709 
L 95.290324 139.812087 
L 95.670335 143.891846 
L 96.050688 142.10041 
L 96.81242 129.85857 
L 97.193793 129.659079 
L 97.95755 142.346959 
L 98.339933 144.612542 
L 98.722648 140.543562 
L 99.105696 132.875669 
L 99.489076 128.568322 
L 99.872783 130.630851 
L 100.641181 144.47332 
L 101.025869 144.565372 
L 101.796218 130.439914 
L 102.181876 128.021041 
L 102.567852 132.622791 
L 102.954147 141.450782 
L 103.340761 146.343071 
L 103.727691 144.074738 
L 104.502496 128.860628 
L 104.890368 128.864711 
L 105.667043 145.417481 
L 106.055845 148.320094 
L 106.444949 143.746509 
L 106.834327 134.341241 
L 107.223769 128.893235 
L 107.613003 131.851369 
L 108.390685 150.064038 
L 108.779134 150.792015 
L 109.167333 144.201468 
L 109.555307 134.24144 
L 109.943077 130.60336 
L 110.330664 136.774253 
L 110.718092 147.824885 
L 111.105376 154.089521 
L 111.492525 153.169755 
L 111.879563 145.843611 
L 112.266521 136.177393 
L 112.653424 133.626012 
L 113.427139 147.681587 
L 113.81398 149.826813 
L 114.20085 146.6108 
L 114.587834 141.858574 
L 114.975069 143.029272 
L 115.750522 164.270275 
L 116.138467 167.934435 
L 116.526038 165.758751 
L 116.913004 160.059541 
L 117.68581 133.937394 
L 118.072152 134.937568 
L 118.458686 152.302397 
L 118.845486 160.783901 
L 119.232527 160.47736 
L 119.619748 159.325133 
L 120.007202 158.595944 
L 120.395006 155.733304 
L 121.171853 117.426927 
L 121.560605 114.317821 
L 122.337972 163.456258 
L 122.726521 168.813186 
L 123.11497 167.043255 
L 123.503434 147.504239 
L 123.892112 110.628696 
L 124.281016 99.10372 
L 124.670067 98.017628 
L 125.059318 121.062779 
L 125.448884 163.759809 
L 125.838723 174.909363 
L 126.228738 172.284926 
L 126.618957 148.414995 
L 127.009482 108.479646 
L 127.400237 96.806767 
L 127.791078 95.74367 
L 128.182016 116.690828 
L 128.573203 163.180371 
L 128.96463 175.51128 
L 129.356176 173.938515 
L 129.747841 157.012174 
L 130.139761 113.913181 
L 130.53192 99.315593 
L 130.924194 97.192779 
L 131.316582 116.774008 
L 131.709218 163.226174 
L 132.102094 175.174921 
L 132.495079 173.841144 
L 132.888162 160.784442 
L 133.28148 118.886176 
L 133.675047 102.181144 
L 134.068747 99.467972 
L 134.46257 118.669744 
L 134.856639 163.908386 
L 135.250934 174.39447 
L 135.645315 173.131826 
L 136.039759 163.657992 
L 136.434402 124.777617 
L 136.8293 105.028226 
L 137.224346 100.8469 
L 137.619512 115.131069 
L 138.014909 159.917927 
L 138.410537 173.139282 
L 138.806268 172.916611 
L 139.202079 166.58427 
L 139.994454 113.300958 
L 140.390985 111.178729 
L 141.184283 165.28793 
L 141.581107 168.921866 
L 141.978034 166.556699 
L 142.375109 160.924885 
L 143.170007 118.260139 
L 143.567798 117.075738 
L 144.36405 164.631357 
L 144.76249 167.709992 
L 145.161032 165.90379 
L 145.559697 155.402196 
L 145.958588 123.398724 
L 146.357712 109.623368 
L 146.757007 111.24537 
L 147.556249 166.614588 
L 147.956163 170.273817 
L 148.356177 164.971241 
L 149.156788 109.194766 
L 149.557409 102.132486 
L 149.958176 110.904527 
L 150.359159 150.294828 
L 150.76038 170.283242 
L 151.161737 171.33511 
L 151.563202 158.242068 
L 151.964874 119.154733 
L 152.366782 102.228824 
L 152.768834 99.652247 
L 153.171024 117.040815 
L 153.573447 158.49136 
L 153.976092 171.808654 
L 154.378882 169.164447 
L 154.781873 146.976558 
L 155.185198 112.550935 
L 155.588855 103.072149 
L 155.992728 112.708907 
L 156.396738 154.048991 
L 156.800745 171.971578 
L 157.204438 171.889169 
L 157.607582 161.879491 
L 158.010063 127.344398 
L 158.411678 107.77883 
L 158.812122 105.936497 
L 159.211199 129.922551 
L 159.60881 165.882971 
L 160.004757 174.921556 
L 160.398787 171.212218 
L 160.790743 142.839524 
L 161.180473 105.775119 
L 161.567721 93.994512 
L 161.95226 97.601046 
L 162.712976 165.993463 
L 163.089005 176.188064 
L 163.461962 165.575724 
L 163.83181 123.658729 
L 164.198485 95.14549 
L 164.561793 85.98319 
L 164.921577 92.103882 
L 165.979914 176.51189 
L 166.325541 169.286758 
L 167.005773 101.185898 
L 167.3402 90.352719 
L 167.670653 97.102489 
L 168.319693 167.802508 
L 168.638255 181.080527 
L 168.952701 177.822976 
L 169.263001 156.190896 
L 169.569177 121.253785 
L 169.871166 107.620458 
L 170.168908 115.972229 
L 170.751672 176.505516 
L 171.036503 184.421975 
L 171.316801 183.260552 
L 171.592586 175.696451 
L 172.131345 138.69478 
L 172.394708 133.486033 
L 173.161235 176.663282 
L 173.408541 177.447957 
L 173.890982 173.233368 
L 174.126257 170.195458 
L 174.808729 155.977728 
L 175.028663 156.799897 
L 175.6665 169.6056 
L 175.871907 169.966005 
L 176.074091 169.144696 
L 176.273438 167.326831 
L 176.665686 161.455365 
L 176.859854 162.053177 
L 177.247331 168.843079 
L 177.441793 169.289018 
L 177.63756 167.925382 
L 179.478649 148.585729 
L 180.53902 140.444574 
L 181.000905 138.349369 
L 181.15012 138.065771 
L 181.889674 138.065771 
L 182.189321 139.813886 
L 182.647108 142.21826 
L 183.116868 143.230713 
L 183.600834 127.335854 
L 184.09912 154.700618 
L 184.268369 146.775085 
L 184.611683 109.388149 
L 184.785701 105.487766 
L 184.961237 110.689988 
L 185.31689 143.923953 
L 185.496977 143.882572 
L 185.86154 116.83978 
L 186.045942 113.054937 
L 186.231704 118.883987 
L 186.607283 149.833671 
L 186.797068 153.495345 
L 186.988146 148.670023 
L 187.374141 135.417926 
L 187.569036 140.824071 
L 187.962691 155.464751 
L 188.161533 156.066975 
L 188.361739 153.381408 
L 188.76629 145.254548 
L 188.970646 145.28961 
L 189.383511 151.193905 
L 189.591994 152.086115 
L 189.801788 150.693852 
L 190.438668 141.453712 
L 190.653408 142.565794 
L 190.869351 144.956891 
L 191.086478 146.113849 
L 191.30478 144.711976 
L 191.966692 134.929864 
L 192.189654 136.281452 
L 192.413768 138.751545 
L 192.639026 139.540576 
L 192.86542 137.538563 
L 193.321599 131.370772 
L 193.551374 131.11113 
L 194.014258 134.817859 
L 194.247352 135.151607 
L 194.953147 129.599377 
L 195.190559 130.057384 
L 195.668557 133.41928 
L 195.909128 133.546368 
L 196.637038 129.800642 
L 196.881714 130.569107 
L 197.374085 133.460912 
L 197.621766 133.420949 
L 198.120086 131.108918 
L 198.37071 130.888815 
L 198.622301 131.813947 
L 199.128361 134.259087 
L 199.38282 134.117287 
L 199.894564 132.523001 
L 200.151836 132.71827 
L 200.929193 136.101868 
L 201.190144 135.979591 
L 201.452003 135.456944 
L 201.714765 135.319558 
L 201.978424 136.081359 
L 202.50842 139.011974 
L 202.77475 139.783062 
L 203.041954 139.844289 
L 203.309909 139.768689 
L 203.578325 140.305518 
L 204.115365 143.237248 
L 204.651051 145.662246 
L 205.183625 146.610814 
L 205.44826 147.345186 
L 205.973347 150.42086 
L 207.994168 163.92096 
L 208.235874 164.829002 
L 208.475091 164.550094 
L 208.945814 162.119148 
L 209.177187 162.036071 
L 209.854705 165.000346 
L 210.074938 165.02292 
L 210.507208 164.620026 
L 210.719498 164.684049 
L 211.137164 164.93253 
L 211.342844 164.679212 
L 211.748671 163.163501 
L 211.949147 162.389716 
L 212.148221 162.191114 
L 212.542798 162.663694 
L 212.738591 162.316491 
L 213.32243 159.708276 
L 213.907312 156.837495 
L 215.876817 143.811856 
L 216.435882 141.333474 
L 216.798122 140.302533 
L 217.154193 139.81979 
L 217.330474 139.784317 
L 217.680578 140.056961 
L 218.549386 141.132902 
L 218.897196 141.054966 
L 219.59786 140.433628 
L 219.774532 140.437871 
L 219.951943 140.588024 
L 220.309303 141.400162 
L 220.670674 142.925261 
L 221.408353 146.928961 
L 221.596367 146.583213 
L 221.977055 142.717484 
L 222.169711 142.442157 
L 222.559473 144.750756 
L 222.756498 143.399328 
L 223.355886 131.960734 
L 223.558374 134.041786 
L 223.967313 141.438729 
L 224.173753 140.966643 
L 224.590536 135.818312 
L 224.800863 136.62671 
L 225.22535 143.75819 
L 225.4395 145.210259 
L 225.654911 144.421766 
L 226.089485 141.150452 
L 226.308629 141.756616 
L 226.750558 145.618908 
L 226.973289 146.016503 
L 227.197156 145.045022 
L 227.648241 142.308269 
L 227.875437 142.410266 
L 228.333084 144.251446 
L 228.563516 144.095852 
L 229.261233 139.977405 
L 229.495944 139.86476 
L 229.968549 140.741257 
L 230.20643 140.10746 
L 230.926334 136.148956 
L 231.168377 136.181064 
L 231.411449 136.642423 
L 231.655543 136.724994 
L 231.900656 135.976081 
L 232.393914 133.654887 
L 232.64205 133.355996 
L 233.392419 134.34518 
L 234.151598 132.512331 
L 234.406588 132.664751 
L 235.17726 134.322052 
L 235.69574 134.285386 
L 235.956376 134.650476 
L 236.743813 136.431792 
L 237.008114 136.358381 
L 237.273314 136.073038 
L 237.539406 136.002235 
L 237.806385 136.308782 
L 238.342977 137.084417 
L 238.61258 136.998231 
L 239.154378 136.421675 
L 239.426563 136.391664 
L 240.24821 136.755209 
L 241.077395 136.308141 
L 241.355444 136.401425 
L 241.913997 136.797583 
L 242.194492 136.818735 
L 242.757898 136.57842 
L 243.0408 136.588645 
L 243.894253 137.116387 
L 244.467137 136.984919 
L 244.75474 136.915458 
L 245.332252 137.160078 
L 245.91281 137.413796 
L 246.789291 137.170515 
L 247.968307 137.545523 
L 248.860221 137.293879 
L 249.758586 137.580832 
L 250.966273 137.30354 
L 251.574284 137.512076 
L 252.185038 137.410823 
L 252.798506 137.242894 
L 254.033485 137.458397 
L 254.654945 137.268761 
L 255.279016 137.396723 
L 255.905676 137.547368 
L 256.850465 137.364315 
L 258.119014 137.66712 
L 259.076946 137.530799 
L 260.040381 137.780479 
L 261.658125 137.61813 
L 262.309365 137.697123 
L 262.96294 137.321936 
L 263.947634 136.838489 
L 264.277012 136.694766 
L 264.60696 136.861013 
L 265.600221 139.04937 
L 265.932437 139.310956 
L 266.265208 139.360332 
L 266.598526 138.880788 
L 267.266778 137.315982 
L 267.601709 137.48291 
L 268.273185 138.943138 
L 268.609731 138.720241 
L 269.622577 135.319872 
L 269.961251 135.273777 
L 270.30045 135.736606 
L 270.640172 135.985111 
L 270.980414 135.492565 
L 271.662444 133.380297 
L 272.004226 133.053917 
L 272.346512 133.506228 
L 272.689201 134.270085 
L 273.032035 134.629381 
L 273.374731 134.262329 
L 273.717024 133.494113 
L 274.058666 133.039089 
L 274.399426 133.422836 
L 275.414313 136.628447 
L 275.7495 136.720296 
L 276.082838 136.559803 
L 276.414168 136.970736 
L 276.743342 138.29933 
L 277.394707 142.133821 
L 277.716691 143.350419 
L 278.666951 145.413511 
L 279.287006 148.964694 
L 279.896182 152.238705 
L 281.081537 155.519444 
L 281.658584 157.875692 
L 281.943521 158.349722 
L 282.784836 158.436782 
L 283.060966 159.052678 
L 283.334985 160.763029 
L 283.876571 166.281815 
L 284.144149 167.340761 
L 284.409722 167.198286 
L 284.935397 165.691091 
L 285.454404 163.587364 
L 285.966922 160.02996 
L 286.972574 152.450712 
L 287.706907 148.304114 
L 288.421094 145.536858 
L 289.564898 142.308731 
L 290.654593 139.690383 
L 291.07839 139.050256 
L 291.497075 138.854486 
L 291.704803 138.965449 
L 291.911592 139.236084 
L 292.322614 140.411919 
L 293.134386 143.202744 
L 293.535733 143.622454 
L 293.934942 143.456782 
L 294.331635 142.933731 
L 296.065514 140.059298 
L 296.437486 139.908806 
L 296.806088 140.093063 
L 297.355065 140.814206 
L 297.902645 141.456402 
L 298.269046 141.796346 
L 298.638265 142.704151 
L 299.200498 145.506011 
L 300.554439 153.303953 
L 300.751124 153.092215 
L 301.14609 151.697756 
L 301.344218 152.5592 
L 301.741356 156.062182 
L 301.940227 156.726293 
L 302.139237 156.764352 
L 302.338369 156.369138 
L 302.737061 155.114904 
L 302.936672 155.36591 
L 303.336484 156.669927 
L 303.536662 156.373621 
L 303.937461 154.503805 
L 305.941658 143.666738 
L 306.538955 141.930668 
L 307.134827 141.044967 
L 307.731096 140.664421 
L 308.528961 140.480856 
L 309.129797 140.561755 
L 309.732555 140.859031 
L 310.33822 141.409825 
L 310.94851 142.304711 
L 312.612039 145.421507 
L 313.037194 145.844444 
L 313.465523 145.946711 
L 314.982161 145.64631 
L 315.201251 145.834093 
L 315.642437 146.688912 
L 316.088466 147.68207 
L 316.539902 147.949139 
L 316.996619 148.202886 
L 317.226775 147.882272 
L 317.458049 146.549184 
L 318.393879 136.012298 
L 318.868044 139.248028 
L 319.106685 138.366348 
L 319.587084 133.292276 
L 319.828839 133.150991 
L 320.560268 139.775222 
L 320.806111 139.05183 
L 321.300808 136.097325 
L 321.549651 136.898372 
L 322.050291 141.137068 
L 322.302073 141.577545 
L 322.554821 140.428146 
L 322.808528 138.736351 
L 323.063191 137.92833 
L 323.318803 138.658713 
L 323.832848 141.124375 
L 324.091269 140.679565 
L 324.610881 137.430376 
L 324.872064 136.814426 
L 325.134159 137.43759 
L 325.397161 138.467926 
L 325.661065 138.740136 
L 325.925865 137.760544 
L 326.45814 134.777087 
L 326.725608 134.607126 
L 327.263179 136.119168 
L 327.533273 136.036741 
L 328.348735 133.03399 
L 328.622267 133.347313 
L 329.17187 134.914932 
L 329.447931 134.750285 
L 330.002549 133.09039 
L 330.281096 132.95628 
L 330.560462 133.62588 
L 330.840643 134.60281 
L 331.121634 135.171872 
L 331.403431 134.978144 
L 331.969423 133.869551 
L 332.25361 134.104232 
L 332.824345 135.862157 
L 333.110884 136.236335 
L 333.398198 135.935392 
L 333.686285 135.390574 
L 333.975139 135.201551 
L 334.264757 135.664481 
L 334.846269 137.224605 
L 335.138155 137.330558 
L 335.724169 136.471888 
L 336.018289 136.496396 
L 336.905057 138.271058 
L 337.202103 138.140388 
L 337.79836 137.3736 
L 338.097563 137.593334 
L 338.698101 138.838885 
L 338.999429 139.027486 
L 339.907603 138.210407 
L 340.211714 138.578318 
L 340.821993 139.649476 
L 341.128154 139.657448 
L 341.742503 138.995741 
L 342.050684 139.045052 
L 342.97921 140.308081 
L 343.290035 140.159889 
L 343.913639 139.544947 
L 344.226412 139.671644 
L 344.853882 140.455874 
L 345.168571 140.502209 
L 346.116423 139.409622 
L 346.433624 139.45619 
L 346.751447 139.693098 
L 347.069886 139.748306 
L 347.388941 139.426197 
L 348.348783 137.501214 
L 348.988319 137.134985 
L 349.307231 136.641541 
L 349.942298 134.519842 
L 350.572472 132.516676 
L 351.19647 131.195281 
L 351.813204 128.940558 
L 352.723188 125.053691 
L 353.319526 123.738542 
L 353.614672 123.140242 
L 354.199209 121.133042 
L 354.776416 117.674287 
L 355.628834 109.518643 
L 356.187644 107.201171 
L 356.738499 105.100139 
L 357.010879 103.282524 
L 357.549523 97.291208 
L 358.080054 87.816435 
L 358.859988 71.210542 
L 359.87225 55.798977 
L 360.366747 50.943219 
L 362.038062 42.479401 
L 362.725795 40.428409 
L 363.174817 39.908162 
L 363.396613 39.892827 
L 363.83511 40.227059 
L 364.267272 41.040692 
L 365.945732 44.963506 
L 366.354826 45.591106 
L 366.557917 45.726568 
L 366.760003 45.691554 
L 367.161011 45.267198 
L 368.145841 43.898069 
L 368.53388 43.759873 
L 368.918983 43.922561 
L 369.300817 44.373078 
L 369.679642 45.199971 
L 370.056264 46.559399 
L 370.431689 48.568697 
L 370.807242 51.52663 
L 371.184292 56.422612 
L 372.139087 71.442451 
L 372.527625 74.279639 
L 373.517267 78.745692 
L 374.326185 85.612917 
L 374.530412 85.158276 
L 374.940902 81.287562 
L 375.560983 75.651236 
L 377.022783 66.725127 
L 377.86338 60.314046 
L 378.494722 57.23832 
L 379.126025 55.31262 
L 379.756473 53.986023 
L 380.385785 53.153841 
L 380.804901 52.877172 
L 381.223806 52.79516 
L 381.851883 52.991137 
L 383.108124 53.596731 
L 383.736644 53.676742 
L 384.785222 53.504521 
L 385.626028 53.334275 
L 386.047386 53.532937 
L 386.469491 54.107222 
L 386.892618 55.432777 
L 387.317287 57.855793 
L 387.744388 61.406294 
L 388.175033 67.631729 
L 388.610029 79.452955 
L 389.720214 116.298258 
L 390.401695 125.215784 
L 391.094208 141.967162 
L 391.327464 142.909864 
L 391.797495 138.95938 
L 392.034218 138.669749 
L 392.750927 143.56382 
L 392.991954 142.082297 
L 393.477124 136.328674 
L 393.721252 135.658315 
L 394.212558 137.93872 
L 394.459723 137.621335 
L 395.207191 131.247749 
L 395.458313 131.46438 
L 395.963468 134.025317 
L 396.217487 133.861631 
L 396.728377 131.060017 
L 396.985233 130.723815 
L 397.24302 131.80632 
L 397.761371 135.028479 
L 398.021925 135.151641 
L 398.545767 133.724993 
L 398.809045 134.123181 
L 399.604253 138.507898 
L 399.871103 138.426452 
L 400.138837 137.738958 
L 400.407448 137.380896 
L 400.676931 137.894361 
L 401.2185 140.062458 
L 401.490578 140.343771 
L 401.763515 139.793731 
L 402.037306 138.921171 
L 402.311948 138.47335 
L 402.587438 138.865328 
L 403.14094 140.524948 
L 403.418943 140.532242 
L 404.257886 138.462148 
L 404.539162 138.883063 
L 404.821243 139.674236 
L 405.104126 140.11953 
L 405.387806 139.817763 
L 405.95754 138.196301 
L 406.243586 138.047256 
L 406.818014 139.117557 
L 407.106388 139.241566 
L 407.39553 138.714752 
L 407.976102 137.309889 
L 408.267525 137.396045 
L 408.852625 138.394562 
L 409.146294 138.304478 
L 409.735851 136.991088 
L 410.031733 136.727904 
L 410.328344 137.049197 
L 410.625682 137.615471 
L 410.923742 137.919453 
L 411.222522 137.68049 
L 411.822225 136.594231 
L 412.123141 136.591933 
L 412.727085 137.575389 
L 413.030107 137.732903 
L 413.333823 137.393534 
L 413.63823 136.855123 
L 413.943326 136.553487 
L 414.249106 136.739767 
L 414.862707 137.680066 
L 415.170522 137.675265 
L 415.788162 136.790128 
L 416.097982 136.661245 
L 416.408464 136.987893 
L 416.719604 137.486368 
L 417.0314 137.746059 
L 417.343849 137.549732 
L 417.970691 136.681636 
L 418.285079 136.708425 
L 419.232073 138.187778 
L 419.549005 138.059782 
L 420.184751 137.301538 
L 420.503559 137.454549 
L 421.143031 138.220345 
L 421.463688 138.150163 
L 422.106832 137.433764 
L 422.429313 137.359452 
L 423.07608 137.865448 
L 423.40036 137.892565 
L 424.376756 136.814763 
L 424.703397 136.867738 
L 425.358427 137.378485 
L 425.686811 137.306072 
L 426.675404 136.398711 
L 427.006074 136.582911 
L 427.337309 136.908025 
L 427.669107 137.066601 
L 428.001464 136.896494 
L 428.667849 136.23066 
L 429.001872 136.267475 
L 429.671565 136.919072 
L 430.00723 136.985708 
L 431.017471 136.319249 
L 431.355292 136.526144 
L 432.032531 137.242426 
L 432.371944 137.311222 
L 433.052346 137.154794 
L 434.076863 137.808081 
L 434.419407 137.196828 
L 435.106049 135.625784 
L 435.450139 135.450485 
L 435.794733 135.825096 
L 436.485404 138.106487 
L 436.831476 138.187159 
L 437.52509 136.431418 
L 437.872634 136.416404 
L 438.220667 137.403943 
L 438.918195 140.059443 
L 439.267683 140.304766 
L 439.968094 139.402663 
L 440.319008 139.694889 
L 441.37266 142.643865 
L 441.723238 142.387031 
L 442.421931 141.034451 
L 442.769605 141.23215 
L 443.460609 142.77799 
L 443.803574 142.726686 
L 444.14462 141.712894 
L 444.820338 139.063454 
L 445.154718 138.657182 
L 445.486597 138.7622 
L 445.815851 138.660357 
L 446.142368 137.617736 
L 447.419219 130.3152 
L 448.039192 128.872209 
L 448.34439 127.422728 
L 449.532403 119.644558 
L 450.942274 115.171541 
L 451.483426 112.930358 
L 452.272643 111.021788 
L 452.529877 109.210401 
L 453.036038 102.729209 
L 453.776823 92.390712 
L 454.019595 90.734532 
L 454.499958 90.468102 
L 454.737835 88.124245 
L 455.209498 77.125841 
L 456.138983 55.66447 
L 456.823404 45.446113 
L 457.270671 41.905751 
L 457.924226 38.873963 
L 458.347599 37.725652 
L 458.761331 37.088721 
L 459.165946 36.841818 
L 459.365051 36.893952 
L 459.757388 37.330045 
L 460.333046 38.582652 
L 460.896169 40.440445 
L 461.449815 43.252616 
L 462.904115 52.804906 
L 463.26648 53.335363 
L 463.629087 53.259964 
L 464.174074 52.985651 
L 464.538581 53.02475 
L 464.904434 53.39484 
L 465.272018 54.136074 
L 465.641786 55.290301 
L 466.014286 57.608591 
L 466.201769 60.146082 
L 466.57974 71.586439 
L 467.155943 98.570594 
L 467.350815 102.850388 
L 467.547163 104.055897 
L 467.745 104.491153 
L 467.944331 106.631214 
L 468.14515 112.161649 
L 468.756533 139.030972 
L 468.963259 138.271441 
L 469.380898 129.177971 
L 469.591742 130.001577 
L 470.01736 140.809452 
L 470.232076 142.027347 
L 470.448009 137.931428 
L 470.88341 127.405536 
L 471.102837 127.201978 
L 471.545042 131.720582 
L 471.76779 130.540229 
L 472.442702 119.767526 
L 472.669952 120.446313 
L 473.127968 125.496262 
L 473.358736 125.913601 
L 474.05785 120.796366 
L 474.293076 122.129334 
L 475.004995 130.118744 
L 475.244334 129.483938 
L 475.48468 128.077569 
L 475.726031 127.717204 
L 475.968385 129.273983 
L 476.456124 135.266169 
L 476.701528 136.672636 
L 476.947958 136.30122 
L 477.195409 135.411789 
L 477.443873 135.603542 
L 478.447711 142.983361 
L 478.95553 141.442105 
L 479.210897 141.764972 
L 479.982765 146.214105 
L 480.241951 146.090033 
L 480.502065 145.397073 
L 480.763086 145.242874 
L 481.024993 146.336903 
L 481.551402 149.998188 
L 481.815877 150.978043 
L 482.081183 151.217694 
L 482.347314 151.246971 
L 482.614265 151.676329 
L 483.689982 155.11456 
L 485.045093 156.590206 
L 485.587804 157.677646 
L 485.859172 157.799829 
L 486.130513 157.492075 
L 486.673075 155.889745 
L 488.024064 151.387403 
L 489.61707 147.638872 
L 491.427366 143.916311 
L 491.936912 143.229663 
L 492.946559 142.762098 
L 495.164431 141.986751 
L 497.351051 141.577699 
L 499.285339 142.469037 
L 500.49683 143.182253 
L 501.71321 144.293534 
L 502.446186 144.930359 
L 502.936121 145.080007 
L 503.427061 144.940022 
L 504.16564 144.492491 
L 506.877455 143.825903 
L 509.341381 143.171304 
L 510.820668 142.728348 
L 511.808922 142.231814 
L 513.292688 141.382989 
L 514.035579 141.275435 
L 514.778719 141.424733 
L 515.768602 141.749969 
L 516.26282 141.740998 
L 517.250829 141.398605 
L 517.993061 141.217293 
L 518.488683 141.344098 
L 518.736604 141.592503 
L 519.231883 142.559194 
L 520.459687 145.302492 
L 520.945499 146.014735 
L 521.668786 146.602204 
L 523.338459 147.736994 
L 524.286273 148.732827 
L 524.996101 149.504099 
L 525.232791 149.592845 
L 525.706509 149.420409 
L 526.180721 148.868182 
L 526.893146 147.422456 
L 527.368884 146.366966 
L 527.844762 145.917981 
L 528.794463 145.4893 
L 529.740284 145.452817 
L 530.918563 145.427894 
L 533.047053 144.842749 
L 533.762876 144.359113 
L 534.481586 143.508818 
L 535.202972 142.680604 
L 535.444187 142.588361 
L 535.685861 142.637991 
L 536.170775 143.191144 
L 536.902749 144.776665 
L 538.385998 148.440886 
L 538.635888 148.657873 
L 539.138086 147.70202 
L 539.390154 148.278308 
L 539.894756 151.827967 
L 540.1467 151.803966 
L 540.398067 147.792221 
L 540.898311 128.326122 
L 541.146831 125.184942 
L 541.394058 127.268864 
L 541.639845 130.34207 
L 541.884064 129.322212 
L 542.606185 109.720322 
L 542.843075 107.879145 
L 543.077949 109.261488 
L 543.541558 114.108694 
L 543.770246 113.340747 
L 544.443267 103.521141 
L 544.663039 102.861446 
L 544.880424 104.208925 
L 545.307847 109.005136 
L 545.517846 109.821491 
L 545.725352 108.666465 
L 546.530837 98.154346 
L 547.112312 96.285733 
L 547.492441 90.919146 
L 548.981331 63.036219 
L 549.71362 51.366659 
L 550.257148 46.441436 
L 550.794397 44.058199 
L 551.147684 43.256359 
L 551.494874 43.038527 
L 551.834064 43.357898 
L 552.16516 44.094344 
L 552.648562 45.825834 
L 554.198453 52.295704 
L 555.426295 55.822037 
L 556.197878 58.852475 
L 556.509872 61.15805 
L 556.667179 63.62364 
L 556.985274 74.823299 
L 557.807361 119.462415 
L 558.148197 118.097907 
L 558.32117 121.48925 
L 558.850074 145.827385 
L 559.029571 144.283968 
L 559.393171 132.738457 
L 559.577251 132.500492 
L 559.949845 141.359814 
L 560.138312 141.861218 
L 560.712251 127.414375 
L 560.906386 127.417255 
L 561.298832 132.527917 
L 561.497126 131.818411 
L 562.100161 122.238347 
L 562.303848 122.592957 
L 562.715153 127.115735 
L 562.922741 127.549855 
L 563.553058 122.937373 
L 563.765622 123.792826 
L 564.410509 130.300435 
L 564.627841 130.038605 
L 564.846343 129.076966 
L 565.066004 128.805364 
L 565.286815 130.023237 
L 565.956112 136.344194 
L 566.181488 136.115909 
L 566.407994 135.394413 
L 566.635623 135.484381 
L 567.094232 138.908332 
L 567.325205 140.408677 
L 567.557285 140.763599 
L 568.02474 139.617243 
L 568.260103 139.743229 
L 568.972651 142.523119 
L 569.212301 142.329632 
L 569.694758 141.002563 
L 569.93755 141.027277 
L 570.426227 142.264576 
L 570.672098 142.426822 
L 570.918982 141.972723 
L 571.415758 140.639216 
L 571.665636 140.608451 
L 572.168341 141.353796 
L 572.421154 141.252141 
L 573.185364 139.457196 
L 573.442002 139.484858 
L 573.958098 139.951283 
L 574.217544 139.691982 
L 574.739202 138.406355 
L 575.001403 138.104744 
L 575.264512 138.208036 
L 575.528524 138.447542 
L 575.793434 138.467071 
L 576.059235 138.082839 
L 576.593494 136.96929 
L 576.861941 136.825741 
L 577.401446 137.120996 
L 577.672495 137.00517 
L 578.490764 135.698143 
L 578.765212 135.670178 
L 579.316619 135.890456 
L 579.593568 135.676338 
L 580.149936 134.779409 
L 580.429346 134.548549 
L 581.555053 134.48794 
L 582.122681 133.9712 
L 582.40767 133.978502 
L 583.267284 134.487086 
L 584.133784 134.477727 
L 584.715224 135.261625 
L 585.299651 136.084211 
L 585.88695 136.672785 
L 586.181259 137.175449 
L 587.938409 141.832358 
L 591.018283 152.347939 
L 591.551927 153.203239 
L 591.815848 153.567691 
L 592.853549 155.71191 
L 593.108748 155.822444 
L 593.362376 156.077474 
L 593.614527 156.902022 
L 594.363154 161.82207 
L 594.857041 164.218867 
L 595.102821 164.399814 
L 595.34788 163.995618 
L 595.835561 161.802895 
L 596.558092 156.282738 
L 597.498031 149.817214 
L 598.18152 146.41364 
L 599.065091 143.217483 
L 599.710283 141.482631 
L 600.342981 140.348061 
L 600.758346 140.045959 
L 600.964254 140.072701 
L 601.372965 140.473095 
L 602.581166 142.262047 
L 602.780984 142.255952 
L 603.179908 141.856297 
L 604.174663 140.143778 
L 604.373078 140.093367 
L 604.76875 140.329008 
L 605.162396 140.900119 
L 606.71235 143.707849 
L 607.095164 144.31786 
L 607.669056 146.011048 
L 609.405033 151.493073 
L 609.796545 151.771112 
L 610.190632 151.800819 
L 610.388555 151.556947 
L 610.78578 150.440609 
L 612.384823 145.087029 
L 612.988019 143.818644 
L 613.593108 143.203663 
L 615.628712 142.034154 
L 616.040594 142.056635 
L 616.661963 142.377377 
L 617.919615 143.164391 
L 618.770616 143.311704 
L 620.067384 143.57209 
L 621.163825 143.739011 
L 622.049404 143.838152 
L 622.495355 144.145438 
L 622.943939 144.748019 
L 623.395765 145.736066 
L 624.311884 148.329485 
L 624.54394 148.207477 
L 625.011762 146.941565 
L 625.247457 147.031861 
L 625.484295 147.373265 
L 625.722239 146.751556 
L 625.961252 144.126325 
L 626.442451 134.950237 
L 626.684622 133.280801 
L 626.927827 134.478328 
L 627.172061 136.694939 
L 627.417316 137.390282 
L 627.663584 135.530812 
L 628.159139 130.771072 
L 628.408412 131.549469 
L 628.90992 137.177602 
L 629.162143 138.052669 
L 629.92463 133.954377 
L 630.180717 135.376348 
L 630.695734 139.782924 
L 630.954645 139.732961 
L 631.475227 136.58922 
L 631.736885 136.31939 
L 632.527285 140.053553 
L 632.792546 139.161881 
L 633.325757 135.805473 
L 633.593714 135.522196 
L 634.132317 136.635707 
L 634.402946 136.058814 
L 635.220024 131.148316 
L 635.494056 131.789448 
L 636.044554 134.327846 
L 636.321018 133.69955 
L 636.876388 130.566825 
L 637.155295 130.648188 
L 637.996901 134.905838 
L 638.279054 134.422347 
L 638.562007 133.28578 
L 638.845758 132.70914 
L 639.130301 133.385315 
L 639.701749 136.616962 
L 639.988644 137.083356 
L 640.853968 135.075234 
L 641.143941 136.043217 
L 641.726162 138.58255 
L 642.018401 138.426848 
L 642.605117 136.703627 
L 642.899588 136.831084 
L 643.490736 138.540045 
L 643.787409 138.778673 
L 644.084814 138.312935 
L 644.382955 138.084066 
L 644.681837 139.094357 
L 645.58293 146.788419 
L 645.884731 146.565322 
L 646.490332 143.602268 
L 646.794097 143.342849 
L 647.709275 146.662395 
L 648.015663 146.317511 
L 648.938868 142.623979 
L 649.247944 142.464868 
L 649.557682 142.790713 
L 649.868081 142.848346 
L 650.179136 142.131967 
L 650.803203 139.533144 
L 651.11621 139.030905 
L 651.429861 139.393455 
L 651.744154 140.043917 
L 652.059086 140.222507 
L 652.374653 139.581922 
L 653.007681 137.671959 
L 653.325138 137.794335 
L 653.961921 139.377603 
L 654.281241 139.391816 
L 654.601175 138.692018 
L 655.24288 136.8169 
L 655.564645 136.847394 
L 655.887017 137.876198 
L 657.508006 145.901763 
L 657.833989 146.230505 
L 658.160523 145.374373 
L 658.487594 143.812435 
L 658.815206 143.01959 
L 659.143366 143.87402 
L 659.80138 146.879849 
L 660.131249 146.791384 
L 660.461688 145.543572 
L 661.124269 141.901822 
L 661.456408 141.031499 
L 661.789111 141.128431 
L 662.122373 141.527328 
L 662.456191 141.328688 
L 662.790557 140.166589 
L 663.460913 137.333626 
L 663.796897 137.285847 
L 664.470466 138.922062 
L 664.80805 138.71067 
L 665.48481 136.411607 
L 665.823983 136.227186 
L 666.163683 137.226893 
L 666.503906 138.673718 
L 666.844649 139.453956 
L 667.185911 139.10881 
L 667.527688 138.085231 
L 667.869979 137.442724 
L 668.212782 138.050842 
L 668.89991 140.685647 
L 669.244229 140.572232 
L 670.280194 136.641592 
L 670.626527 138.332242 
L 671.668704 149.919485 
L 672.017153 150.342134 
L 672.366083 149.85278 
L 672.715438 148.931021 
L 673.41528 145.145283 
L 673.765788 145.732405 
L 674.468127 150.923361 
L 674.81999 152.059198 
L 675.172318 151.027255 
L 676.232066 141.736428 
L 676.586233 142.523776 
L 676.940856 145.064758 
L 677.295929 146.596402 
L 677.651451 145.331687 
L 678.36384 136.624316 
L 678.720708 134.91077 
L 679.083636 137.124324 
L 679.083636 137.124324 
" clip-path="url(#pd9d1123bdb)" style="fill: none; stroke: #d62728; stroke-opacity: 0.8; stroke-width: 0.9; stroke-linecap: square"/>
   </g>
   <g id="patch_3">
    <path d="M 46.64 246.04 
L 46.64 26.88 
" style="fill: none; stroke: #000000; stroke-width: 0.8; stroke-linejoin: miter; stroke-linecap: square"/>
   </g>
   <g id="patch_4">
    <path d="M 709.2 246.04 
L 709.2 26.88 
" style="fill: none; stroke: #000000; stroke-width: 0.8; stroke-linejoin: miter; stroke-linecap: square"/>
   </g>
   <g id="patch_5">
    <path d="M 46.64 246.04 
L 709.2 246.04 
" style="fill: none; stroke: #000000; stroke-width: 0.8; stroke-linejoin: miter; stroke-linecap: square"/>
   </g>
   <g id="patch_6">
    <path d="M 46.64 26.88 
L 709.2 26.88 
" style="fill: none; stroke: #000000; stroke-width: 0.8; stroke-linejoin: miter; stroke-linecap: square"/>
   </g>
   <g id="text_17">
    <!-- steering-link loads over one Anderstorp Raceway lap -->
    <g transform="translate(219.311875 20.88) scale(0.12 -0.12)">
     <defs>
      <path id="DejaVuSans-67" d="M 2906 1791 
Q 2906 2416 2648 2759 
Q 2391 3103 1925 3103 
Q 1463 3103 1205 2759 
Q 947 2416 947 1791 
Q 947 1169 1205 825 
Q 1463 481 1925 481 
Q 2391 481 2648 825 
Q 2906 1169 2906 1791 
z
M 3481 434 
Q 3481 -459 3084 -895 
Q 2688 -1331 1869 -1331 
Q 1566 -1331 1297 -1286 
Q 1028 -1241 775 -1147 
L 775 -588 
Q 1028 -725 1275 -790 
Q 1522 -856 1778 -856 
Q 2344 -856 2625 -561 
Q 2906 -266 2906 331 
L 2906 616 
Q 2728 306 2450 153 
Q 2172 0 1784 0 
Q 1141 0 747 490 
Q 353 981 353 1791 
Q 353 2603 747 3093 
Q 1141 3584 1784 3584 
Q 2172 3584 2450 3431 
Q 2728 3278 2906 2969 
L 2906 3500 
L 3481 3500 
L 3481 434 
z
" transform="scale(0.015625)"/>
      <path id="DejaVuSans-6c" d="M 603 4863 
L 1178 4863 
L 1178 0 
L 603 0 
L 603 4863 
z
" transform="scale(0.015625)"/>
      <path id="DejaVuSans-76" d="M 191 3500 
L 800 3500 
L 1894 563 
L 2988 3500 
L 3597 3500 
L 2284 0 
L 1503 0 
L 191 3500 
z
" transform="scale(0.015625)"/>
      <path id="DejaVuSans-41" d="M 2188 4044 
L 1331 1722 
L 3047 1722 
L 2188 4044 
z
M 1831 4666 
L 2547 4666 
L 4325 0 
L 3669 0 
L 3244 1197 
L 1141 1197 
L 716 0 
L 50 0 
L 1831 4666 
z
" transform="scale(0.015625)"/>
      <path id="DejaVuSans-70" d="M 1159 525 
L 1159 -1331 
L 581 -1331 
L 581 3500 
L 1159 3500 
L 1159 2969 
Q 1341 3281 1617 3432 
Q 1894 3584 2278 3584 
Q 2916 3584 3314 3078 
Q 3713 2572 3713 1747 
Q 3713 922 3314 415 
Q 2916 -91 2278 -91 
Q 1894 -91 1617 61 
Q 1341 213 1159 525 
z
M 3116 1747 
Q 3116 2381 2855 2742 
Q 2594 3103 2138 3103 
Q 1681 3103 1420 2742 
Q 1159 2381 1159 1747 
Q 1159 1113 1420 752 
Q 1681 391 2138 391 
Q 2594 391 2855 752 
Q 3116 1113 3116 1747 
z
" transform="scale(0.015625)"/>
      <path id="DejaVuSans-52" d="M 2841 2188 
Q 3044 2119 3236 1894 
Q 3428 1669 3622 1275 
L 4263 0 
L 3584 0 
L 2988 1197 
Q 2756 1666 2539 1819 
Q 2322 1972 1947 1972 
L 1259 1972 
L 1259 0 
L 628 0 
L 628 4666 
L 2053 4666 
Q 2853 4666 3247 4331 
Q 3641 3997 3641 3322 
Q 3641 2881 3436 2590 
Q 3231 2300 2841 2188 
z
M 1259 4147 
L 1259 2491 
L 2053 2491 
Q 2509 2491 2742 2702 
Q 2975 2913 2975 3322 
Q 2975 3731 2742 3939 
Q 2509 4147 2053 4147 
L 1259 4147 
z
" transform="scale(0.015625)"/>
      <path id="DejaVuSans-77" d="M 269 3500 
L 844 3500 
L 1563 769 
L 2278 3500 
L 2956 3500 
L 3675 769 
L 4391 3500 
L 4966 3500 
L 4050 0 
L 3372 0 
L 2619 2869 
L 1863 0 
L 1184 0 
L 269 3500 
z
" transform="scale(0.015625)"/>
      <path id="DejaVuSans-79" d="M 2059 -325 
Q 1816 -950 1584 -1140 
Q 1353 -1331 966 -1331 
L 506 -1331 
L 506 -850 
L 844 -850 
Q 1081 -850 1212 -737 
Q 1344 -625 1503 -206 
L 1606 56 
L 191 3500 
L 800 3500 
L 1894 763 
L 2988 3500 
L 3597 3500 
L 2059 -325 
z
" transform="scale(0.015625)"/>
     </defs>
     <use xlink:href="#DejaVuSans-73"/>
     <use xlink:href="#DejaVuSans-74" transform="translate(52.099609 0)"/>
     <use xlink:href="#DejaVuSans-65" transform="translate(91.308594 0)"/>
     <use xlink:href="#DejaVuSans-65" transform="translate(152.832031 0)"/>
     <use xlink:href="#DejaVuSans-72" transform="translate(214.355469 0)"/>
     <use xlink:href="#DejaVuSans-69" transform="translate(255.46875 0)"/>
     <use xlink:href="#DejaVuSans-6e" transform="translate(283.251953 0)"/>
     <use xlink:href="#DejaVuSans-67" transform="translate(346.630859 0)"/>
     <use xlink:href="#DejaVuSans-2d" transform="translate(410.107422 0)"/>
     <use xlink:href="#DejaVuSans-6c" transform="translate(446.191406 0)"/>
     <use xlink:href="#DejaVuSans-69" transform="translate(473.974609 0)"/>
     <use xlink:href="#DejaVuSans-6e" transform="translate(501.757812 0)"/>
     <use xlink:href="#DejaVuSans-6b" transform="translate(565.136719 0)"/>
     <use xlink:href="#DejaVuSans-20" transform="translate(623.046875 0)"/>
     <use xlink:href="#DejaVuSans-6c" transform="translate(654.833984 0)"/>
     <use xlink:href="#DejaVuSans-6f" transform="translate(682.617188 0)"/>
     <use xlink:href="#DejaVuSans-61" transform="translate(743.798828 0)"/>
     <use xlink:href="#DejaVuSans-64" transform="translate(805.078125 0)"/>
     <use xlink:href="#DejaVuSans-73" transform="translate(868.554688 0)"/>
     <use xlink:href="#DejaVuSans-20" transform="translate(920.654297 0)"/>
     <use xlink:href="#DejaVuSans-6f" transform="translate(952.441406 0)"/>
     <use xlink:href="#DejaVuSans-76" transform="translate(1013.623047 0)"/>
     <use xlink:href="#DejaVuSans-65" transform="translate(1072.802734 0)"/>
     <use xlink:href="#DejaVuSans-72" transform="translate(1134.326172 0)"/>
     <use xlink:href="#DejaVuSans-20" transform="translate(1175.439453 0)"/>
     <use xlink:href="#DejaVuSans-6f" transform="translate(1207.226562 0)"/>
     <use xlink:href="#DejaVuSans-6e" transform="translate(1268.408203 0)"/>
     <use xlink:href="#DejaVuSans-65" transform="translate(1331.787109 0)"/>
     <use xlink:href="#DejaVuSans-20" transform="translate(1393.310547 0)"/>
     <use xlink:href="#DejaVuSans-41" transform="translate(1425.097656 0)"/>
     <use xlink:href="#DejaVuSans-6e" transform="translate(1493.505859 0)"/>
     <use xlink:href="#DejaVuSans-64" transform="translate(1556.884766 0)"/>
     <use xlink:href="#DejaVuSans-65" transform="translate(1620.361328 0)"/>
     <use xlink:href="#DejaVuSans-72" transform="translate(1681.884766 0)"/>
     <use xlink:href="#DejaVuSans-73" transform="translate(1722.998047 0)"/>
     <use xlink:href="#DejaVuSans-74" transform="translate(1775.097656 0)"/>
     <use xlink:href="#DejaVuSans-6f" transform="translate(1814.306641 0)"/>
     <use xlink:href="#DejaVuSans-72" transform="translate(1875.488281 0)"/>
     <use xlink:href="#DejaVuSans-70" transform="translate(1916.601562 0)"/>
     <use xlink:href="#DejaVuSans-20" transform="translate(1980.078125 0)"/>
     <use xlink:href="#DejaVuSans-52" transform="translate(2011.865234 0)"/>
     <use xlink:href="#DejaVuSans-61" transform="translate(2079.097656 0)"/>
     <use xlink:href="#DejaVuSans-63" transform="translate(2140.376953 0)"/>
     <use xlink:href="#DejaVuSans-65" transform="translate(2195.357422 0)"/>
     <use xlink:href="#DejaVuSans-77" transform="translate(2256.880859 0)"/>
     <use xlink:href="#DejaVuSans-61" transform="translate(2338.667969 0)"/>
     <use xlink:href="#DejaVuSans-79" transform="translate(2399.947266 0)"/>
     <use xlink:href="#DejaVuSans-20" transform="translate(2459.126953 0)"/>
     <use xlink:href="#DejaVuSans-6c" transform="translate(2490.914062 0)"/>
     <use xlink:href="#DejaVuSans-61" transform="translate(2518.697266 0)"/>
     <use xlink:href="#DejaVuSans-70" transform="translate(2579.976562 0)"/>
    </g>
   </g>
   <g id="legend_1">
    <g id="patch_7">
     <path d="M 630.755 56.765 
L 703.6 56.765 
Q 705.2 56.765 705.2 55.165 
L 705.2 32.48 
Q 705.2 30.88 703.6 30.88 
L 630.755 30.88 
Q 629.155 30.88 629.155 32.48 
L 629.155 55.165 
Q 629.155 56.765 630.755 56.765 
z
" style="fill: #ffffff; opacity: 0.8; stroke: #cccccc; stroke-linejoin: miter"/>
    </g>
    <g id="line2d_31">
     <path d="M 632.355 37.35875 
L 640.355 37.35875 
L 648.355 37.35875 
" style="fill: none; stroke: #2ca02c; stroke-width: 0.9; stroke-linecap: square"/>
    </g>
    <g id="text_18">
     <!-- tie rod left -->
     <g transform="translate(654.755 40.15875) scale(0.08 -0.08)">
      <use xlink:href="#DejaVuSans-74"/>
      <use xlink:href="#DejaVuSans-69" transform="translate(39.208984 0)"/>
      <use xlink:href="#DejaVuSans-65" transform="translate(66.992188 0)"/>
      <use xlink:href="#DejaVuSans-20" transform="translate(128.515625 0)"/>
      <use xlink:href="#DejaVuSans-72" transform="translate(160.302734 0)"/>
      <use xlink:href="#DejaVuSans-6f" transform="translate(199.166016 0)"/>
      <use xlink:href="#DejaVuSans-64" transform="translate(260.347656 0)"/>
      <use xlink:href="#DejaVuSans-20" transform="translate(323.824219 0)"/>
      <use xlink:href="#DejaVuSans-6c" transform="translate(355.611328 0)"/>
      <use xlink:href="#DejaVuSans-65" transform="translate(383.394531 0)"/>
      <use xlink:href="#DejaVuSans-66" transform="translate(444.917969 0)"/>
      <use xlink:href="#DejaVuSans-74" transform="translate(478.373047 0)"/>
     </g>
    </g>
    <g id="line2d_32">
     <path d="M 632.355 49.10125 
L 640.355 49.10125 
L 648.355 49.10125 
" style="fill: none; stroke: #d62728; stroke-opacity: 0.8; stroke-width: 0.9; stroke-linecap: square"/>
    </g>
    <g id="text_19">
     <!-- tie rod right -->
     <g transform="translate(654.755 51.90125) scale(0.08 -0.08)">
      <defs>
       <path id="DejaVuSans-68" d="M 3513 2113 
L 3513 0 
L 2938 0 
L 2938 2094 
Q 2938 2591 2744 2837 
Q 2550 3084 2163 3084 
Q 1697 3084 1428 2787 
Q 1159 2491 1159 1978 
L 1159 0 
L 581 0 
L 581 4863 
L 1159 4863 
L 1159 2956 
Q 1366 3272 1645 3428 
Q 1925 3584 2291 3584 
Q 2894 3584 3203 3211 
Q 3513 2838 3513 2113 
z
" transform="scale(0.015625)"/>
      </defs>
      <use xlink:href="#DejaVuSans-74"/>
      <use xlink:href="#DejaVuSans-69" transform="translate(39.208984 0)"/>
      <use xlink:href="#DejaVuSans-65" transform="translate(66.992188 0)"/>
      <use xlink:href="#DejaVuSans-20" transform="translate(128.515625 0)"/>
      <use xlink:href="#DejaVuSans-72" transform="translate(160.302734 0)"/>
      <use xlink:href="#DejaVuSans-6f" transform="translate(199.166016 0)"/>
      <use xlink:href="#DejaVuSans-64" transform="translate(260.347656 0)"/>
      <use xlink:href="#DejaVuSans-20" transform="translate(323.824219 0)"/>
      <use xlink:href="#DejaVuSans-72" transform="translate(355.611328 0)"/>
      <use xlink:href="#DejaVuSans-69" transform="translate(396.724609 0)"/>
      <use xlink:href="#DejaVuSans-67" transform="translate(424.507812 0)"/>
      <use xlink:href="#DejaVuSans-68" transform="translate(487.984375 0)"/>
      <use xlink:href="#DejaVuSans-74" transform="translate(551.363281 0)"/>
     </g>
    </g>
   </g>
  </g>
 </g>
 <defs>
  <clipPath id="pd9d1123bdb">
   <rect x="46.64" y="26.88" width="662.56" height="219.16"/>
  </clipPath>
 </defs>
</svg>
