<?xml version="1.0" encoding="utf-8" standalone="no"?>
<!DOCTYPE svg PUBLIC "-//W3C//DTD SVG 1.1//EN"
  "http://www.w3.org/Graphics/SVG/1.1/DTD/svg11.dtd">
<svg xmlns:xlink="http://www.w3.org/1999/xlink" width="720pt" height="288pt" viewBox="0 0 720 288" xmlns="http://www.w3.org/2000/svg" version="1.1">
 <metadata>
  <rdf:RDF xmlns:dc="http://purl.org/dc/elements/1.1/" xmlns:cc="http://creativecommons.org/ns#" xmlns:rdf="http://www.w3.org/1999/02/22-rdf-syntax-ns#">
   <cc:Work>
    <dc:type rdf:resource="http://purl.org/dc/dcmitype/StillImage"/>
    <dc:date>2026-07-08T14:49:39.388721</dc:date>
    <dc:format>image/svg+xml</dc:format>
    <dc:creator>
     <cc:Agent>
      <dc:title>Matplotlib v3.10.8, https://matplotlib.org/</dc:title>
     </cc:Agent>
    </dc:creator>
   </cc:Work>
  </rdf:RDF>
 </metadata>
 <defs>
  <style type="text/css">*{stroke-linejoin: round; stroke-linecap: butt}</style>
 </defs>
 <g id="figure_1">
  <g id="patch_1">
   <path d="M 0 288 
L 720 288 
L 720 0 
L 0 0 
z
" style="fill: #ffffff"/>
  </g>
  <g id="axes_1">
   <g id="patch_2">
    <path d="M 46.64 246.04 
L 709.2 246.04 
L 709.2 26.88 
L 46.64 26.88 
z
" style="fill: #ffffff"/>
   </g>
   <g id="matplotlib.axis_1">
    <g id="xtick_1">
     <g id="line2d_1">
      <path d="M 76.756364 246.04 
L 76.756364 26.88 
" clip-path="url(#p5327f78128)" style="fill: none; stroke: #b0b0b0; stroke-opacity: 0.3; stroke-width: 0.8; stroke-linecap: square"/>
     </g>
     <g id="line2d_2">
      <defs>
       <path id="m6beee1714c" d="M 0 0 
L 0 3.5 
" style="stroke: #000000; stroke-width: 0.8"/>
      </defs>
      <g>
       <use xlink:href="#m6beee1714c" x="76.756364" y="246.04" style="stroke: #000000; stroke-width: 0.8"/>
      </g>
     </g>
     <g id="text_1">
      <!-- 0.0 -->
      <g transform="translate(68.804801 260.638438) scale(0.1 -0.1)">
       <defs>
        <path id="DejaVuSans-30" d="M 2034 4250 
Q 1547 4250 1301 3770 
Q 1056 3291 1056 2328 
Q 1056 1369 1301 889 
Q 1547 409 2034 409 
Q 2525 409 2770 889 
Q 3016 1369 3016 2328 
Q 3016 3291 2770 3770 
Q 2525 4250 2034 4250 
z
M 2034 4750 
Q 2819 4750 3233 4129 
Q 3647 3509 3647 2328 
Q 3647 1150 3233 529 
Q 2819 -91 2034 -91 
Q 1250 -91 836 529 
Q 422 1150 422 2328 
Q 422 3509 836 4129 
Q 1250 4750 2034 4750 
z
" transform="scale(0.015625)"/>
        <path id="DejaVuSans-2e" d="M 684 794 
L 1344 794 
L 1344 0 
L 684 0 
L 684 794 
z
" transform="scale(0.015625)"/>
       </defs>
       <use xlink:href="#DejaVuSans-30"/>
       <use xlink:href="#DejaVuSans-2e" transform="translate(63.623047 0)"/>
       <use xlink:href="#DejaVuSans-30" transform="translate(95.410156 0)"/>
      </g>
     </g>
    </g>
    <g id="xtick_2">
     <g id="line2d_3">
      <path d="M 223.579509 246.04 
L 223.579509 26.88 
" clip-path="url(#p5327f78128)" style="fill: none; stroke: #b0b0b0; stroke-opacity: 0.3; stroke-width: 0.8; stroke-linecap: square"/>
     </g>
     <g id="line2d_4">
      <g>
       <use xlink:href="#m6beee1714c" x="223.579509" y="246.04" style="stroke: #000000; stroke-width: 0.8"/>
      </g>
     </g>
     <g id="text_2">
      <!-- 0.5 -->
      <g transform="translate(215.627947 260.638438) scale(0.1 -0.1)">
       <defs>
        <path id="DejaVuSans-35" d="M 691 4666 
L 3169 4666 
L 3169 4134 
L 1269 4134 
L 1269 2991 
Q 1406 3038 1543 3061 
Q 1681 3084 1819 3084 
Q 2600 3084 3056 2656 
Q 3513 2228 3513 1497 
Q 3513 744 3044 326 
Q 2575 -91 1722 -91 
Q 1428 -91 1123 -41 
Q 819 9 494 109 
L 494 744 
Q 775 591 1075 516 
Q 1375 441 1709 441 
Q 2250 441 2565 725 
Q 2881 1009 2881 1497 
Q 2881 1984 2565 2268 
Q 2250 2553 1709 2553 
Q 1456 2553 1204 2497 
Q 953 2441 691 2322 
L 691 4666 
z
" transform="scale(0.015625)"/>
       </defs>
       <use xlink:href="#DejaVuSans-30"/>
       <use xlink:href="#DejaVuSans-2e" transform="translate(63.623047 0)"/>
       <use xlink:href="#DejaVuSans-35" transform="translate(95.410156 0)"/>
      </g>
     </g>
    </g>
    <g id="xtick_3">
     <g id="line2d_5">
      <path d="M 370.402655 246.04 
L 370.402655 26.88 
" clip-path="url(#p5327f78128)" style="fill: none; stroke: #b0b0b0; stroke-opacity: 0.3; stroke-width: 0.8; stroke-linecap: square"/>
     </g>
     <g id="line2d_6">
      <g>
       <use xlink:href="#m6beee1714c" x="370.402655" y="246.04" style="stroke: #000000; stroke-width: 0.8"/>
      </g>
     </g>
     <g id="text_3">
      <!-- 1.0 -->
      <g transform="translate(362.451092 260.638438) scale(0.1 -0.1)">
       <defs>
        <path id="DejaVuSans-31" d="M 794 531 
L 1825 531 
L 1825 4091 
L 703 3866 
L 703 4441 
L 1819 4666 
L 2450 4666 
L 2450 531 
L 3481 531 
L 3481 0 
L 794 0 
L 794 531 
z
" transform="scale(0.015625)"/>
       </defs>
       <use xlink:href="#DejaVuSans-31"/>
       <use xlink:href="#DejaVuSans-2e" transform="translate(63.623047 0)"/>
       <use xlink:href="#DejaVuSans-30" transform="translate(95.410156 0)"/>
      </g>
     </g>
    </g>
    <g id="xtick_4">
     <g id="line2d_7">
      <path d="M 517.225801 246.04 
L 517.225801 26.88 
" clip-path="url(#p5327f78128)" style="fill: none; stroke: #b0b0b0; stroke-opacity: 0.3; stroke-width: 0.8; stroke-linecap: square"/>
     </g>
     <g id="line2d_8">
      <g>
       <use xlink:href="#m6beee1714c" x="517.225801" y="246.04" style="stroke: #000000; stroke-width: 0.8"/>
      </g>
     </g>
     <g id="text_4">
      <!-- 1.5 -->
      <g transform="translate(509.274238 260.638438) scale(0.1 -0.1)">
       <use xlink:href="#DejaVuSans-31"/>
       <use xlink:href="#DejaVuSans-2e" transform="translate(63.623047 0)"/>
       <use xlink:href="#DejaVuSans-35" transform="translate(95.410156 0)"/>
      </g>
     </g>
    </g>
    <g id="xtick_5">
     <g id="line2d_9">
      <path d="M 664.048946 246.04 
L 664.048946 26.88 
" clip-path="url(#p5327f78128)" style="fill: none; stroke: #b0b0b0; stroke-opacity: 0.3; stroke-width: 0.8; stroke-linecap: square"/>
     </g>
     <g id="line2d_10">
      <g>
       <use xlink:href="#m6beee1714c" x="664.048946" y="246.04" style="stroke: #000000; stroke-width: 0.8"/>
      </g>
     </g>
     <g id="text_5">
      <!-- 2.0 -->
      <g transform="translate(656.097384 260.638438) scale(0.1 -0.1)">
       <defs>
        <path id="DejaVuSans-32" d="M 1228 531 
L 3431 531 
L 3431 0 
L 469 0 
L 469 531 
Q 828 903 1448 1529 
Q 2069 2156 2228 2338 
Q 2531 2678 2651 2914 
Q 2772 3150 2772 3378 
Q 2772 3750 2511 3984 
Q 2250 4219 1831 4219 
Q 1534 4219 1204 4116 
Q 875 4013 500 3803 
L 500 4441 
Q 881 4594 1212 4672 
Q 1544 4750 1819 4750 
Q 2544 4750 2975 4387 
Q 3406 4025 3406 3419 
Q 3406 3131 3298 2873 
Q 3191 2616 2906 2266 
Q 2828 2175 2409 1742 
Q 1991 1309 1228 531 
z
" transform="scale(0.015625)"/>
       </defs>
       <use xlink:href="#DejaVuSans-32"/>
       <use xlink:href="#DejaVuSans-2e" transform="translate(63.623047 0)"/>
       <use xlink:href="#DejaVuSans-30" transform="translate(95.410156 0)"/>
      </g>
     </g>
    </g>
    <g id="text_6">
     <!-- distance s [km] -->
     <g transform="translate(339.283281 274.316562) scale(0.1 -0.1)">
      <defs>
       <path id="DejaVuSans-64" d="M 2906 2969 
L 2906 4863 
L 3481 4863 
L 3481 0 
L 2906 0 
L 2906 525 
Q 2725 213 2448 61 
Q 2172 -91 1784 -91 
Q 1150 -91 751 415 
Q 353 922 353 1747 
Q 353 2572 751 3078 
Q 1150 3584 1784 3584 
Q 2172 3584 2448 3432 
Q 2725 3281 2906 2969 
z
M 947 1747 
Q 947 1113 1208 752 
Q 1469 391 1925 391 
Q 2381 391 2643 752 
Q 2906 1113 2906 1747 
Q 2906 2381 2643 2742 
Q 2381 3103 1925 3103 
Q 1469 3103 1208 2742 
Q 947 2381 947 1747 
z
" transform="scale(0.015625)"/>
       <path id="DejaVuSans-69" d="M 603 3500 
L 1178 3500 
L 1178 0 
L 603 0 
L 603 3500 
z
M 603 4863 
L 1178 4863 
L 1178 4134 
L 603 4134 
L 603 4863 
z
" transform="scale(0.015625)"/>
       <path id="DejaVuSans-73" d="M 2834 3397 
L 2834 2853 
Q 2591 2978 2328 3040 
Q 2066 3103 1784 3103 
Q 1356 3103 1142 2972 
Q 928 2841 928 2578 
Q 928 2378 1081 2264 
Q 1234 2150 1697 2047 
L 1894 2003 
Q 2506 1872 2764 1633 
Q 3022 1394 3022 966 
Q 3022 478 2636 193 
Q 2250 -91 1575 -91 
Q 1294 -91 989 -36 
Q 684 19 347 128 
L 347 722 
Q 666 556 975 473 
Q 1284 391 1588 391 
Q 1994 391 2212 530 
Q 2431 669 2431 922 
Q 2431 1156 2273 1281 
Q 2116 1406 1581 1522 
L 1381 1569 
Q 847 1681 609 1914 
Q 372 2147 372 2553 
Q 372 3047 722 3315 
Q 1072 3584 1716 3584 
Q 2034 3584 2315 3537 
Q 2597 3491 2834 3397 
z
" transform="scale(0.015625)"/>
       <path id="DejaVuSans-74" d="M 1172 4494 
L 1172 3500 
L 2356 3500 
L 2356 3053 
L 1172 3053 
L 1172 1153 
Q 1172 725 1289 603 
Q 1406 481 1766 481 
L 2356 481 
L 2356 0 
L 1766 0 
Q 1100 0 847 248 
Q 594 497 594 1153 
L 594 3053 
L 172 3053 
L 172 3500 
L 594 3500 
L 594 4494 
L 1172 4494 
z
" transform="scale(0.015625)"/>
       <path id="DejaVuSans-61" d="M 2194 1759 
Q 1497 1759 1228 1600 
Q 959 1441 959 1056 
Q 959 750 1161 570 
Q 1363 391 1709 391 
Q 2188 391 2477 730 
Q 2766 1069 2766 1631 
L 2766 1759 
L 2194 1759 
z
M 3341 1997 
L 3341 0 
L 2766 0 
L 2766 531 
Q 2569 213 2275 61 
Q 1981 -91 1556 -91 
Q 1019 -91 701 211 
Q 384 513 384 1019 
Q 384 1609 779 1909 
Q 1175 2209 1959 2209 
L 2766 2209 
L 2766 2266 
Q 2766 2663 2505 2880 
Q 2244 3097 1772 3097 
Q 1472 3097 1187 3025 
Q 903 2953 641 2809 
L 641 3341 
Q 956 3463 1253 3523 
Q 1550 3584 1831 3584 
Q 2591 3584 2966 3190 
Q 3341 2797 3341 1997 
z
" transform="scale(0.015625)"/>
       <path id="DejaVuSans-6e" d="M 3513 2113 
L 3513 0 
L 2938 0 
L 2938 2094 
Q 2938 2591 2744 2837 
Q 2550 3084 2163 3084 
Q 1697 3084 1428 2787 
Q 1159 2491 1159 1978 
L 1159 0 
L 581 0 
L 581 3500 
L 1159 3500 
L 1159 2956 
Q 1366 3272 1645 3428 
Q 1925 3584 2291 3584 
Q 2894 3584 3203 3211 
Q 3513 2838 3513 2113 
z
" transform="scale(0.015625)"/>
       <path id="DejaVuSans-63" d="M 3122 3366 
L 3122 2828 
Q 2878 2963 2633 3030 
Q 2388 3097 2138 3097 
Q 1578 3097 1268 2742 
Q 959 2388 959 1747 
Q 959 1106 1268 751 
Q 1578 397 2138 397 
Q 2388 397 2633 464 
Q 2878 531 3122 666 
L 3122 134 
Q 2881 22 2623 -34 
Q 2366 -91 2075 -91 
Q 1284 -91 818 406 
Q 353 903 353 1747 
Q 353 2603 823 3093 
Q 1294 3584 2113 3584 
Q 2378 3584 2631 3529 
Q 2884 3475 3122 3366 
z
" transform="scale(0.015625)"/>
       <path id="DejaVuSans-65" d="M 3597 1894 
L 3597 1613 
L 953 1613 
Q 991 1019 1311 708 
Q 1631 397 2203 397 
Q 2534 397 2845 478 
Q 3156 559 3463 722 
L 3463 178 
Q 3153 47 2828 -22 
Q 2503 -91 2169 -91 
Q 1331 -91 842 396 
Q 353 884 353 1716 
Q 353 2575 817 3079 
Q 1281 3584 2069 3584 
Q 2775 3584 3186 3129 
Q 3597 2675 3597 1894 
z
M 3022 2063 
Q 3016 2534 2758 2815 
Q 2500 3097 2075 3097 
Q 1594 3097 1305 2825 
Q 1016 2553 972 2059 
L 3022 2063 
z
" transform="scale(0.015625)"/>
       <path id="DejaVuSans-20" transform="scale(0.015625)"/>
       <path id="DejaVuSans-5b" d="M 550 4863 
L 1875 4863 
L 1875 4416 
L 1125 4416 
L 1125 -397 
L 1875 -397 
L 1875 -844 
L 550 -844 
L 550 4863 
z
" transform="scale(0.015625)"/>
       <path id="DejaVuSans-6b" d="M 581 4863 
L 1159 4863 
L 1159 1991 
L 2875 3500 
L 3609 3500 
L 1753 1863 
L 3688 0 
L 2938 0 
L 1159 1709 
L 1159 0 
L 581 0 
L 581 4863 
z
" transform="scale(0.015625)"/>
       <path id="DejaVuSans-6d" d="M 3328 2828 
Q 3544 3216 3844 3400 
Q 4144 3584 4550 3584 
Q 5097 3584 5394 3201 
Q 5691 2819 5691 2113 
L 5691 0 
L 5113 0 
L 5113 2094 
Q 5113 2597 4934 2840 
Q 4756 3084 4391 3084 
Q 3944 3084 3684 2787 
Q 3425 2491 3425 1978 
L 3425 0 
L 2847 0 
L 2847 2094 
Q 2847 2600 2669 2842 
Q 2491 3084 2119 3084 
Q 1678 3084 1418 2786 
Q 1159 2488 1159 1978 
L 1159 0 
L 581 0 
L 581 3500 
L 1159 3500 
L 1159 2956 
Q 1356 3278 1631 3431 
Q 1906 3584 2284 3584 
Q 2666 3584 2933 3390 
Q 3200 3197 3328 2828 
z
" transform="scale(0.015625)"/>
       <path id="DejaVuSans-5d" d="M 1947 4863 
L 1947 -844 
L 622 -844 
L 622 -397 
L 1369 -397 
L 1369 4416 
L 622 4416 
L 622 4863 
L 1947 4863 
z
" transform="scale(0.015625)"/>
      </defs>
      <use xlink:href="#DejaVuSans-64"/>
      <use xlink:href="#DejaVuSans-69" transform="translate(63.476562 0)"/>
      <use xlink:href="#DejaVuSans-73" transform="translate(91.259766 0)"/>
      <use xlink:href="#DejaVuSans-74" transform="translate(143.359375 0)"/>
      <use xlink:href="#DejaVuSans-61" transform="translate(182.568359 0)"/>
      <use xlink:href="#DejaVuSans-6e" transform="translate(243.847656 0)"/>
      <use xlink:href="#DejaVuSans-63" transform="translate(307.226562 0)"/>
      <use xlink:href="#DejaVuSans-65" transform="translate(362.207031 0)"/>
      <use xlink:href="#DejaVuSans-20" transform="translate(423.730469 0)"/>
      <use xlink:href="#DejaVuSans-73" transform="translate(455.517578 0)"/>
      <use xlink:href="#DejaVuSans-20" transform="translate(507.617188 0)"/>
      <use xlink:href="#DejaVuSans-5b" transform="translate(539.404297 0)"/>
      <use xlink:href="#DejaVuSans-6b" transform="translate(578.417969 0)"/>
      <use xlink:href="#DejaVuSans-6d" transform="translate(636.328125 0)"/>
      <use xlink:href="#DejaVuSans-5d" transform="translate(733.740234 0)"/>
     </g>
    </g>
   </g>
   <g id="matplotlib.axis_2">
    <g id="ytick_1">
     <g id="line2d_11">
      <path d="M 46.64 226.609716 
L 709.2 226.609716 
" clip-path="url(#p5327f78128)" style="fill: none; stroke: #b0b0b0; stroke-opacity: 0.3; stroke-width: 0.8; stroke-linecap: square"/>
     </g>
     <g id="line2d_12">
      <defs>
       <path id="m3b5efb922f" d="M 0 0 
L -3.5 0 
" style="stroke: #000000; stroke-width: 0.8"/>
      </defs>
      <g>
       <use xlink:href="#m3b5efb922f" x="46.64" y="226.609716" style="stroke: #000000; stroke-width: 0.8"/>
      </g>
     </g>
     <g id="text_7">
      <!-- −2 -->
      <g transform="translate(24.897813 230.408934) scale(0.1 -0.1)">
       <defs>
        <path id="DejaVuSans-2212" d="M 678 2272 
L 4684 2272 
L 4684 1741 
L 678 1741 
L 678 2272 
z
" transform="scale(0.015625)"/>
       </defs>
       <use xlink:href="#DejaVuSans-2212"/>
       <use xlink:href="#DejaVuSans-32" transform="translate(83.789062 0)"/>
      </g>
     </g>
    </g>
    <g id="ytick_2">
     <g id="line2d_13">
      <path d="M 46.64 180.031789 
L 709.2 180.031789 
" clip-path="url(#p5327f78128)" style="fill: none; stroke: #b0b0b0; stroke-opacity: 0.3; stroke-width: 0.8; stroke-linecap: square"/>
     </g>
     <g id="line2d_14">
      <g>
       <use xlink:href="#m3b5efb922f" x="46.64" y="180.031789" style="stroke: #000000; stroke-width: 0.8"/>
      </g>
     </g>
     <g id="text_8">
      <!-- −1 -->
      <g transform="translate(24.897813 183.831008) scale(0.1 -0.1)">
       <use xlink:href="#DejaVuSans-2212"/>
       <use xlink:href="#DejaVuSans-31" transform="translate(83.789062 0)"/>
      </g>
     </g>
    </g>
    <g id="ytick_3">
     <g id="line2d_15">
      <path d="M 46.64 133.453863 
L 709.2 133.453863 
" clip-path="url(#p5327f78128)" style="fill: none; stroke: #b0b0b0; stroke-opacity: 0.3; stroke-width: 0.8; stroke-linecap: square"/>
     </g>
     <g id="line2d_16">
      <g>
       <use xlink:href="#m3b5efb922f" x="46.64" y="133.453863" style="stroke: #000000; stroke-width: 0.8"/>
      </g>
     </g>
     <g id="text_9">
      <!-- 0 -->
      <g transform="translate(33.2775 137.253082) scale(0.1 -0.1)">
       <use xlink:href="#DejaVuSans-30"/>
      </g>
     </g>
    </g>
    <g id="ytick_4">
     <g id="line2d_17">
      <path d="M 46.64 86.875936 
L 709.2 86.875936 
" clip-path="url(#p5327f78128)" style="fill: none; stroke: #b0b0b0; stroke-opacity: 0.3; stroke-width: 0.8; stroke-linecap: square"/>
     </g>
     <g id="line2d_18">
      <g>
       <use xlink:href="#m3b5efb922f" x="46.64" y="86.875936" style="stroke: #000000; stroke-width: 0.8"/>
      </g>
     </g>
     <g id="text_10">
      <!-- 1 -->
      <g transform="translate(33.2775 90.675155) scale(0.1 -0.1)">
       <use xlink:href="#DejaVuSans-31"/>
      </g>
     </g>
    </g>
    <g id="ytick_5">
     <g id="line2d_19">
      <path d="M 46.64 40.29801 
L 709.2 40.29801 
" clip-path="url(#p5327f78128)" style="fill: none; stroke: #b0b0b0; stroke-opacity: 0.3; stroke-width: 0.8; stroke-linecap: square"/>
     </g>
     <g id="line2d_20">
      <g>
       <use xlink:href="#m3b5efb922f" x="46.64" y="40.29801" style="stroke: #000000; stroke-width: 0.8"/>
      </g>
     </g>
     <g id="text_11">
      <!-- 2 -->
      <g transform="translate(33.2775 44.097229) scale(0.1 -0.1)">
       <use xlink:href="#DejaVuSans-32"/>
      </g>
     </g>
    </g>
    <g id="text_12">
     <!-- tie-rod force [kN] -->
     <g transform="translate(18.818125 179.170156) rotate(-90) scale(0.1 -0.1)">
      <defs>
       <path id="DejaVuSans-2d" d="M 313 2009 
L 1997 2009 
L 1997 1497 
L 313 1497 
L 313 2009 
z
" transform="scale(0.015625)"/>
       <path id="DejaVuSans-72" d="M 2631 2963 
Q 2534 3019 2420 3045 
Q 2306 3072 2169 3072 
Q 1681 3072 1420 2755 
Q 1159 2438 1159 1844 
L 1159 0 
L 581 0 
L 581 3500 
L 1159 3500 
L 1159 2956 
Q 1341 3275 1631 3429 
Q 1922 3584 2338 3584 
Q 2397 3584 2469 3576 
Q 2541 3569 2628 3553 
L 2631 2963 
z
" transform="scale(0.015625)"/>
       <path id="DejaVuSans-6f" d="M 1959 3097 
Q 1497 3097 1228 2736 
Q 959 2375 959 1747 
Q 959 1119 1226 758 
Q 1494 397 1959 397 
Q 2419 397 2687 759 
Q 2956 1122 2956 1747 
Q 2956 2369 2687 2733 
Q 2419 3097 1959 3097 
z
M 1959 3584 
Q 2709 3584 3137 3096 
Q 3566 2609 3566 1747 
Q 3566 888 3137 398 
Q 2709 -91 1959 -91 
Q 1206 -91 779 398 
Q 353 888 353 1747 
Q 353 2609 779 3096 
Q 1206 3584 1959 3584 
z
" transform="scale(0.015625)"/>
       <path id="DejaVuSans-66" d="M 2375 4863 
L 2375 4384 
L 1825 4384 
Q 1516 4384 1395 4259 
Q 1275 4134 1275 3809 
L 1275 3500 
L 2222 3500 
L 2222 3053 
L 1275 3053 
L 1275 0 
L 697 0 
L 697 3053 
L 147 3053 
L 147 3500 
L 697 3500 
L 697 3744 
Q 697 4328 969 4595 
Q 1241 4863 1831 4863 
L 2375 4863 
z
" transform="scale(0.015625)"/>
       <path id="DejaVuSans-4e" d="M 628 4666 
L 1478 4666 
L 3547 763 
L 3547 4666 
L 4159 4666 
L 4159 0 
L 3309 0 
L 1241 3903 
L 1241 0 
L 628 0 
L 628 4666 
z
" transform="scale(0.015625)"/>
      </defs>
      <use xlink:href="#DejaVuSans-74"/>
      <use xlink:href="#DejaVuSans-69" transform="translate(39.208984 0)"/>
      <use xlink:href="#DejaVuSans-65" transform="translate(66.992188 0)"/>
      <use xlink:href="#DejaVuSans-2d" transform="translate(128.515625 0)"/>
      <use xlink:href="#DejaVuSans-72" transform="translate(164.599609 0)"/>
      <use xlink:href="#DejaVuSans-6f" transform="translate(203.462891 0)"/>
      <use xlink:href="#DejaVuSans-64" transform="translate(264.644531 0)"/>
      <use xlink:href="#DejaVuSans-20" transform="translate(328.121094 0)"/>
      <use xlink:href="#DejaVuSans-66" transform="translate(359.908203 0)"/>
      <use xlink:href="#DejaVuSans-6f" transform="translate(395.113281 0)"/>
      <use xlink:href="#DejaVuSans-72" transform="translate(456.294922 0)"/>
      <use xlink:href="#DejaVuSans-63" transform="translate(495.158203 0)"/>
      <use xlink:href="#DejaVuSans-65" transform="translate(550.138672 0)"/>
      <use xlink:href="#DejaVuSans-20" transform="translate(611.662109 0)"/>
      <use xlink:href="#DejaVuSans-5b" transform="translate(643.449219 0)"/>
      <use xlink:href="#DejaVuSans-6b" transform="translate(682.462891 0)"/>
      <use xlink:href="#DejaVuSans-4e" transform="translate(740.373047 0)"/>
      <use xlink:href="#DejaVuSans-5d" transform="translate(815.177734 0)"/>
     </g>
    </g>
   </g>
   <g id="line2d_21">
    <path d="M 76.756364 133.453863 
L 77.363208 133.262524 
L 77.971272 133.217404 
L 79.802759 133.648846 
L 81.645115 133.207937 
L 82.261632 133.291458 
L 83.498242 133.685866 
L 84.118326 133.705778 
L 85.98565 133.304108 
L 88.491756 133.696872 
L 89.751735 133.354719 
L 90.383441 133.336034 
L 92.285371 133.709206 
L 94.837006 133.327597 
L 96.119484 133.620083 
L 96.762373 133.634223 
L 98.697583 133.246724 
L 99.993133 133.466754 
L 100.642517 133.596703 
L 101.292968 133.586207 
L 103.25068 133.242274 
L 105.875636 133.576144 
L 107.194323 133.29147 
L 107.855204 133.284378 
L 109.843946 133.66509 
L 111.174813 133.447782 
L 111.841746 133.329378 
L 112.509673 133.356906 
L 114.519374 133.720583 
L 116.537872 133.37964 
L 117.888369 133.621154 
L 118.565055 133.76206 
L 119.242694 133.751999 
L 120.600814 133.456869 
L 121.281288 133.425721 
L 123.328317 133.791404 
L 124.697635 133.544944 
L 125.383673 133.415688 
L 126.070625 133.42167 
L 128.136924 133.717254 
L 130.211311 133.266512 
L 131.598678 133.44117 
L 132.293684 133.517494 
L 132.989566 133.45198 
L 135.082433 132.918719 
L 137.183057 133.060235 
L 138.587734 132.600826 
L 139.291341 132.359885 
L 139.995787 132.261143 
L 141.407187 132.328196 
L 142.114133 132.236036 
L 144.239913 131.521023 
L 146.373027 131.375616 
L 149.220512 130.432524 
L 151.341507 130.276781 
L 153.436692 129.653325 
L 154.12762 129.708182 
L 156.173558 130.190625 
L 157.512364 130.287283 
L 158.173465 130.501814 
L 158.828727 130.943828 
L 161.387281 133.16152 
L 162.62647 134.340126 
L 163.837224 136.226034 
L 165.018583 138.128697 
L 167.290557 141.319309 
L 168.914348 144.070352 
L 169.959388 145.359491 
L 170.975278 146.3548 
L 171.963191 148.075153 
L 172.447173 148.906597 
L 172.924778 149.434832 
L 173.396198 149.628766 
L 173.861633 149.680822 
L 174.321255 149.865807 
L 174.775201 150.779252 
L 175.223646 153.489021 
L 176.538287 168.078223 
L 176.967207 170.385919 
L 177.392043 171.377404 
L 177.813142 172.739675 
L 178.230787 176.157854 
L 178.645157 182.232635 
L 179.868982 204.72469 
L 180.668626 215.200954 
L 181.452455 222.677692 
L 182.215396 227.882613 
L 182.954189 231.113262 
L 183.669117 233.205888 
L 184.362119 234.585507 
L 185.035831 235.455762 
L 185.692651 235.92817 
L 186.333698 236.078182 
L 186.648268 236.021888 
L 186.958786 235.825707 
L 187.26512 235.346499 
L 187.567006 234.261108 
L 187.86422 232.022366 
L 188.15666 227.896647 
L 188.444378 221.233952 
L 189.554242 184.079192 
L 189.823525 180.828007 
L 190.09048 180.369703 
L 190.355777 180.313428 
L 190.620159 178.312994 
L 190.884397 172.884684 
L 191.683411 147.458192 
L 191.953628 150.316839 
L 192.500954 167.317654 
L 192.777841 172.642204 
L 193.056652 175.0186 
L 193.337259 175.344195 
L 193.619557 174.933303 
L 193.903416 175.43878 
L 194.188647 178.040079 
L 194.762103 188.71858 
L 195.336903 200.160753 
L 195.909426 207.779585 
L 196.475258 212.028789 
L 197.029431 214.268402 
L 197.569154 215.279276 
L 197.833721 215.445495 
L 198.095244 215.426976 
L 198.354232 215.249434 
L 198.86696 214.516437 
L 199.632309 212.841744 
L 200.408099 210.848856 
L 200.67147 209.934364 
L 200.937898 208.481645 
L 201.207696 205.755303 
L 201.481114 200.494062 
L 201.758322 191.317755 
L 202.613417 150.676769 
L 202.906169 146.045177 
L 203.202589 148.231857 
L 203.502572 151.526355 
L 203.806079 150.606585 
L 204.113076 143.026015 
L 204.737412 121.074848 
L 205.054653 120.183293 
L 205.375222 125.138441 
L 205.699089 132.164785 
L 206.026213 135.30097 
L 206.35655 132.06463 
L 206.690064 126.418825 
L 207.026716 123.469504 
L 207.366465 124.806005 
L 208.055135 135.94384 
L 208.404001 138.406261 
L 208.75585 136.804026 
L 209.110658 133.436029 
L 209.468384 132.139687 
L 209.828789 134.741816 
L 210.555237 143.342525 
L 210.920098 144.516868 
L 211.285436 143.065633 
L 211.650868 140.708721 
L 212.016115 139.959886 
L 212.381036 141.871083 
L 213.109659 147.325018 
L 213.473325 147.879115 
L 214.199301 146.28087 
L 214.561558 146.715498 
L 214.923325 148.580481 
L 215.64555 153.212414 
L 216.366613 157.105874 
L 217.087579 164.027189 
L 217.809598 171.836399 
L 219.259176 185.017077 
L 220.712798 203.940088 
L 221.437566 208.948373 
L 222.160616 211.52126 
L 222.522088 212.208863 
L 222.884062 212.562964 
L 223.246992 212.58694 
L 223.611271 212.236957 
L 223.977195 211.40521 
L 224.345047 209.884894 
L 224.715086 207.329477 
L 225.087486 203.258397 
L 225.462342 197.201637 
L 226.219641 179.405497 
L 226.986866 161.002323 
L 227.374105 154.961486 
L 228.550262 143.438983 
L 229.748265 126.517293 
L 230.15255 125.496992 
L 230.559296 126.711406 
L 230.968464 128.384832 
L 231.380009 128.897624 
L 231.793888 127.86931 
L 232.210064 126.422199 
L 232.628503 126.044074 
L 233.049171 127.444067 
L 233.897085 133.90889 
L 234.753631 139.887014 
L 235.618844 144.771768 
L 236.054741 147.775185 
L 236.492841 151.702633 
L 238.264868 171.043956 
L 238.711917 174.550581 
L 239.160229 177.007068 
L 239.609703 178.651199 
L 240.060301 181.139782 
L 240.964541 191.183041 
L 241.871806 200.055752 
L 242.780552 205.306514 
L 243.688965 208.663222 
L 244.595574 211.004009 
L 245.50029 212.719329 
L 246.404756 213.847123 
L 246.857733 214.060436 
L 247.311664 213.835663 
L 247.766879 212.821113 
L 248.223712 210.342966 
L 248.682421 205.324896 
L 249.14315 196.640934 
L 250.07107 169.419483 
L 250.538538 155.152119 
L 251.008443 144.322012 
L 251.480745 138.019764 
L 251.955362 133.298115 
L 252.432166 125.27193 
L 252.91099 114.224871 
L 253.391576 106.317726 
L 253.8734 105.180663 
L 254.356063 108.09961 
L 255.323689 115.032921 
L 255.80888 117.520436 
L 256.295219 119.308303 
L 257.271628 121.669887 
L 257.761652 122.45463 
L 258.252749 122.968658 
L 258.744776 123.232377 
L 259.73116 123.284168 
L 260.720485 123.238695 
L 261.71326 123.462687 
L 263.711273 124.3128 
L 265.220174 125.275892 
L 266.734143 126.153027 
L 269.263853 127.348112 
L 269.771594 127.364706 
L 270.280266 127.175632 
L 270.789947 126.757308 
L 271.812428 125.383428 
L 274.387632 121.300776 
L 275.426415 120.137999 
L 275.947963 120.049033 
L 276.470997 120.42473 
L 276.99543 120.460283 
L 277.5211 119.434369 
L 278.047813 118.072451 
L 278.575386 117.267057 
L 279.103718 117.045333 
L 279.632809 117.150069 
L 280.162784 117.885829 
L 280.693852 120.930653 
L 281.759769 133.531957 
L 282.294735 130.693737 
L 282.83115 124.036986 
L 283.369082 121.707215 
L 283.90855 128.831547 
L 284.449563 147.047083 
L 284.992109 161.464716 
L 285.535927 170.364446 
L 286.080598 175.301917 
L 286.625673 177.384178 
L 287.170606 178.24039 
L 287.714858 180.311358 
L 288.257986 185.178334 
L 289.877053 206.375301 
L 290.412409 211.451884 
L 290.94532 215.080428 
L 291.475697 217.615302 
L 292.003493 219.388573 
L 292.528705 220.637536 
L 293.051363 221.50424 
L 293.571493 222.069769 
L 296.133161 223.726644 
L 297.138813 224.096529 
L 298.629213 224.428387 
L 299.121179 224.671934 
L 300.096182 225.538662 
L 301.533579 227.336039 
L 302.474984 228.565908 
L 302.941281 229.014961 
L 303.404762 229.266831 
L 303.865582 229.339798 
L 304.779752 229.18238 
L 305.682586 228.763459 
L 306.572878 228.105398 
L 307.451541 227.156521 
L 308.322718 225.877963 
L 309.190709 224.258487 
L 311.797607 218.585049 
L 312.23269 217.347967 
L 312.668186 215.450138 
L 313.104459 212.511927 
L 313.542101 208.302278 
L 314.423783 196.344253 
L 316.680452 159.297798 
L 317.603541 142.395083 
L 318.068874 131.353889 
L 318.536523 123.371004 
L 319.006381 120.390944 
L 319.952492 120.109665 
L 320.428665 118.582016 
L 320.906837 116.348223 
L 321.386728 114.7553 
L 321.867842 114.311132 
L 322.349692 114.751019 
L 323.313923 116.542163 
L 323.795667 116.907144 
L 324.276822 116.522774 
L 325.714718 113.942437 
L 326.667464 113.603823 
L 327.142099 113.044153 
L 328.088298 110.381022 
L 328.559871 109.649555 
L 329.030376 109.550767 
L 329.499678 109.885011 
L 330.433936 111.353449 
L 331.823671 113.686377 
L 332.742478 115.304801 
L 334.564083 119.389127 
L 338.132568 126.83805 
L 339.439991 128.990604 
L 340.301988 129.961209 
L 341.158043 130.501916 
L 342.010479 130.65999 
L 342.861956 130.510209 
L 345.006653 129.836203 
L 345.44043 129.7293 
L 345.876038 129.470451 
L 346.313452 128.843634 
L 346.75266 127.764385 
L 347.19363 127.615102 
L 347.636368 129.921073 
L 348.080941 130.621408 
L 348.975766 120.858233 
L 349.426073 119.639946 
L 349.878392 127.671555 
L 350.33285 147.392044 
L 350.789524 159.249751 
L 351.248385 163.52669 
L 351.709396 160.321523 
L 352.637853 141.118133 
L 353.10524 142.4812 
L 354.046107 162.247329 
L 354.519455 166.829207 
L 354.994651 165.476164 
L 355.471678 157.782558 
L 356.43132 134.952061 
L 356.913965 134.261931 
L 357.884878 148.485901 
L 358.373051 148.967918 
L 358.862565 141.559703 
L 359.352826 128.623303 
L 359.843267 120.612047 
L 360.333354 120.531063 
L 361.310522 132.810383 
L 361.796696 133.051315 
L 362.762183 118.337273 
L 363.240767 114.256413 
L 363.716121 114.867574 
L 364.656009 123.948216 
L 365.120087 125.499665 
L 365.580007 122.208204 
L 366.035601 116.979181 
L 366.486702 113.474456 
L 366.933162 113.211523 
L 367.374881 115.956387 
L 367.811809 120.082816 
L 368.243949 122.762607 
L 368.671407 122.012266 
L 369.513045 115.557002 
L 369.927501 114.31584 
L 370.337764 115.369224 
L 371.145826 119.959688 
L 371.543641 119.705593 
L 372.712235 111.636854 
L 373.093509 110.640989 
L 373.47084 109.994067 
L 373.844514 108.570629 
L 374.582223 104.180483 
L 374.946838 103.196019 
L 375.30894 103.40256 
L 375.668718 104.372524 
L 376.381867 107.092078 
L 377.086904 110.665488 
L 378.128446 116.421981 
L 378.80925 119.268934 
L 379.477069 121.355492 
L 380.453038 123.519552 
L 381.396549 125.041105 
L 382.895413 126.933312 
L 383.751202 127.713362 
L 384.577931 128.148374 
L 385.644902 128.387414 
L 386.944262 128.62373 
L 387.714999 129.059833 
L 389.778753 130.603144 
L 390.839685 130.942036 
L 391.658445 131.061965 
L 392.217637 130.91017 
L 392.501772 130.582365 
L 392.789233 129.882504 
L 393.080237 128.861784 
L 393.374943 128.677551 
L 393.673448 130.381299 
L 393.975792 131.174533 
L 394.59194 124.410914 
L 394.905625 123.720406 
L 395.222971 129.604244 
L 395.543948 142.285952 
L 395.868504 150.436457 
L 396.19654 152.290154 
L 396.527963 147.85481 
L 396.862697 139.781983 
L 397.200669 135.21329 
L 397.541814 138.536366 
L 397.886082 145.598168 
L 398.233425 150.324833 
L 398.583788 150.037755 
L 398.93713 144.473611 
L 399.293425 135.987848 
L 399.652647 130.265915 
L 400.014763 130.813089 
L 400.747571 138.558637 
L 401.118213 137.351726 
L 401.867844 125.954541 
L 402.246775 123.697415 
L 402.628407 125.160259 
L 403.012714 128.549538 
L 403.399677 130.877237 
L 403.78927 130.10913 
L 404.57623 124.58161 
L 404.973529 124.107872 
L 405.373334 126.019202 
L 406.180405 131.813433 
L 406.587644 131.997905 
L 407.409288 129.170574 
L 407.823023 129.913133 
L 409.068845 138.816163 
L 409.483868 139.036089 
L 409.897991 138.377847 
L 410.310812 138.449183 
L 410.721969 140.104259 
L 411.538002 145.576247 
L 411.942339 147.068197 
L 412.343943 147.234181 
L 412.742661 146.797901 
L 413.138383 146.744387 
L 413.53104 147.643291 
L 414.690076 152.18857 
L 415.069866 152.464307 
L 415.819046 152.153387 
L 416.188261 152.600105 
L 416.553766 153.666223 
L 418.663005 162.983232 
L 419.00009 165.615188 
L 420.625531 181.701276 
L 421.25111 186.544574 
L 421.865031 192.986463 
L 423.356532 211.644861 
L 423.936857 216.62264 
L 424.508056 219.935519 
L 425.070447 222.078135 
L 425.900081 224.184984 
L 426.715599 225.532298 
L 427.51586 226.471831 
L 428.037109 226.864813 
L 428.544654 226.938177 
L 429.038726 226.599267 
L 429.520603 225.880851 
L 430.224306 224.212456 
L 431.137481 221.224386 
L 432.040249 218.383044 
L 432.946543 216.251848 
L 434.791969 212.202919 
L 435.499084 210.130977 
L 436.217326 207.292924 
L 436.948859 203.117573 
L 438.204069 195.211455 
L 438.981105 191.366626 
L 440.043465 188.038277 
L 440.313454 186.083867 
L 440.859302 178.685225 
L 441.413942 169.821821 
L 441.694907 167.243406 
L 442.553956 163.110153 
L 442.846156 160.053977 
L 443.742126 145.880317 
L 444.047456 143.827139 
L 444.356157 144.185028 
L 444.668231 145.23334 
L 444.983672 145.085592 
L 445.302459 143.040588 
L 445.949916 137.323503 
L 446.27851 136.756626 
L 447.283353 139.897507 
L 447.624537 138.953535 
L 448.316066 135.825674 
L 448.666346 135.950239 
L 449.375786 138.182897 
L 449.734889 138.092919 
L 450.829394 134.783987 
L 451.19987 134.764868 
L 451.573119 135.251346 
L 451.949042 135.512395 
L 452.327333 134.931849 
L 453.471174 131.028563 
L 453.853591 130.868851 
L 454.235762 131.00401 
L 454.617265 130.689333 
L 454.997726 129.575687 
L 455.754192 126.515732 
L 456.129602 125.59655 
L 456.873665 124.715126 
L 457.241992 123.934113 
L 457.970607 121.193883 
L 458.688056 118.277087 
L 459.394461 116.195383 
L 460.090724 114.3438 
L 461.11852 111.027668 
L 461.794272 109.854075 
L 462.463774 108.790461 
L 463.128724 107.772472 
L 463.460227 107.833677 
L 463.791466 108.410386 
L 464.453975 110.782255 
L 467.43148 124.548164 
L 468.388495 127.369742 
L 469.009009 128.61103 
L 469.617594 129.414383 
L 470.217128 129.837052 
L 470.81099 129.975305 
L 472.287561 130.044536 
L 473.177968 130.401332 
L 474.382512 131.000898 
L 474.995979 131.069459 
L 475.30617 130.96889 
L 475.618958 130.689597 
L 475.934578 130.109301 
L 476.575105 128.11474 
L 476.900216 128.402335 
L 477.228573 130.126452 
L 477.560153 130.32215 
L 478.232863 125.404763 
L 478.573937 127.354855 
L 479.265514 147.169986 
L 479.616006 152.566352 
L 479.969586 152.458466 
L 480.685858 141.743574 
L 481.048462 140.267651 
L 481.413984 144.31483 
L 481.782382 149.765962 
L 482.153607 152.56532 
L 482.527612 151.056107 
L 483.666026 134.961328 
L 484.050886 136.059814 
L 484.438401 139.604102 
L 484.828545 141.675638 
L 485.221294 140.112043 
L 486.01454 130.115112 
L 486.415005 128.533787 
L 486.818005 130.586003 
L 487.223521 134.124274 
L 487.631533 135.901408 
L 488.041989 134.60595 
L 488.454501 131.521021 
L 488.868378 129.502171 
L 489.282967 130.195204 
L 490.112006 136.639873 
L 490.525449 138.071362 
L 490.93758 137.351458 
L 491.348006 135.808358 
L 491.756373 135.43593 
L 492.162358 137.208453 
L 492.966092 142.720044 
L 493.363395 143.59721 
L 493.757421 142.907533 
L 494.148049 141.722093 
L 494.535202 141.441809 
L 494.918838 142.689642 
L 495.675453 146.517394 
L 496.048401 147.046165 
L 496.417788 146.48297 
L 496.783657 145.685619 
L 497.146089 145.648831 
L 497.505232 146.844351 
L 499.602742 159.164976 
L 500.286837 166.501217 
L 502.324551 192.161623 
L 503.674754 211.767661 
L 504.341115 217.938777 
L 504.99662 221.747385 
L 505.638652 223.733144 
L 505.954194 224.191066 
L 506.266089 224.3609 
L 506.574464 224.284117 
L 506.8795 223.993691 
L 507.480482 222.874767 
L 508.071144 221.190281 
L 509.805525 215.504728 
L 510.381006 214.278374 
L 510.960018 213.45284 
L 511.840652 212.631903 
L 512.738661 212.072924 
L 513.651051 211.543599 
L 513.958188 210.980722 
L 514.267005 209.522667 
L 514.577803 205.99127 
L 514.890959 198.656102 
L 515.525595 170.49798 
L 515.84761 155.94028 
L 516.173043 148.683882 
L 516.502047 149.759697 
L 516.834699 153.34683 
L 517.171006 153.329028 
L 517.510945 146.814756 
L 518.201618 123.064805 
L 518.552252 120.374529 
L 518.906262 124.462661 
L 519.26351 131.990956 
L 519.623864 136.830148 
L 519.987214 135.248559 
L 520.353478 129.643008 
L 520.722577 125.999309 
L 521.094424 127.141455 
L 522.225937 143.175822 
L 522.608438 141.856288 
L 523.381587 133.538076 
L 523.772241 135.243663 
L 524.561786 145.666313 
L 524.960697 146.970811 
L 525.362326 144.54949 
L 525.766616 140.25212 
L 526.173507 137.552974 
L 526.582942 138.807428 
L 527.409333 145.691478 
L 527.826229 146.063595 
L 528.245547 143.672889 
L 528.667262 140.16312 
L 529.091351 138.140348 
L 529.517789 139.069835 
L 530.377585 144.073609 
L 530.810878 144.27012 
L 531.246386 142.43973 
L 531.684044 140.113183 
L 532.12378 139.407035 
L 532.565473 141.246568 
L 533.452587 147.309927 
L 533.896657 148.481422 
L 534.783058 148.216873 
L 535.224541 149.537958 
L 536.102761 155.320635 
L 536.539263 157.083194 
L 536.973994 156.702027 
L 537.837736 152.386987 
L 538.266443 151.923681 
L 538.692841 153.569012 
L 539.116844 155.883414 
L 539.538396 157.081385 
L 539.957408 156.251303 
L 540.787001 152.171953 
L 541.197291 151.965221 
L 541.604466 153.611508 
L 542.409147 158.379482 
L 542.806527 159.847526 
L 543.591363 161.267561 
L 543.978875 162.763017 
L 544.363132 165.707294 
L 545.496475 177.867134 
L 546.23631 182.786389 
L 546.964378 187.539315 
L 547.681252 195.539282 
L 548.736768 209.681345 
L 549.4269 215.950263 
L 550.105676 219.832787 
L 550.773104 222.436186 
L 551.429447 224.161678 
L 552.075292 225.197534 
L 552.711421 225.658324 
L 553.02607 225.691582 
L 553.338567 225.594152 
L 553.957525 225.02405 
L 555.774077 222.564899 
L 556.071185 222.518571 
L 556.366407 222.661217 
L 556.950516 223.43826 
L 558.368417 226.021159 
L 558.644261 226.072889 
L 558.917572 225.525509 
L 559.188493 223.879691 
L 559.457258 220.376799 
L 559.724173 214.146171 
L 560.25382 193.283241 
L 560.779942 175.105899 
L 561.0423 173.663266 
L 561.566637 178.752293 
L 561.829058 178.767675 
L 562.092057 174.682444 
L 562.88895 145.769416 
L 563.158756 147.054802 
L 563.985008 173.339456 
L 564.266523 176.931495 
L 564.551106 178.303181 
L 564.838603 178.528427 
L 565.128784 179.022996 
L 565.421273 181.037619 
L 566.0109 189.501661 
L 566.602154 198.309017 
L 567.190314 204.0254 
L 567.772647 206.948316 
L 568.061622 207.691213 
L 568.349479 208.102009 
L 568.636559 208.241165 
L 568.923236 208.140845 
L 569.209893 207.812086 
L 569.4969 207.235473 
L 569.78462 206.355052 
L 570.073416 205.078736 
L 570.655604 200.774861 
L 571.246008 193.123451 
L 572.151014 175.690883 
L 573.082333 158.292607 
L 573.718621 150.243609 
L 575.028645 136.980657 
L 575.363937 135.271552 
L 575.702319 134.809292 
L 576.043769 134.909444 
L 576.388255 134.715373 
L 577.439603 132.135552 
L 577.795891 132.129693 
L 578.516991 132.614575 
L 578.881741 132.425923 
L 579.619512 131.474011 
L 580.36788 130.950306 
L 580.745452 130.679051 
L 582.267082 129.159036 
L 582.647972 128.835913 
L 583.02824 128.284886 
L 584.536253 125.039584 
L 585.278286 124.034001 
L 585.645481 123.245704 
L 586.009927 121.89144 
L 587.438806 114.410848 
L 588.479111 111.063347 
L 589.158258 108.161844 
L 589.493838 107.206866 
L 589.826808 106.803333 
L 590.1572 106.939786 
L 590.810586 107.695241 
L 591.774103 107.985889 
L 592.091349 108.378024 
L 592.720903 109.762427 
L 593.658651 112.644833 
L 597.094035 125.540889 
L 597.995433 127.901706 
L 598.576815 128.960539 
L 599.143652 129.577322 
L 599.699708 129.806662 
L 600.522182 129.75226 
L 601.340621 129.766332 
L 601.888617 129.983235 
L 603.564572 130.926241 
L 603.850417 130.916105 
L 604.138626 130.764284 
L 604.429404 130.410771 
L 604.72294 129.798128 
L 605.621695 126.747873 
L 606.237128 124.827894 
L 606.549944 124.241907 
L 606.866205 124.425096 
L 607.185921 125.983486 
L 608.16571 135.243226 
L 608.835732 136.970827 
L 609.175644 138.670097 
L 610.214711 147.35739 
L 610.567478 149.022941 
L 611.64528 151.953576 
L 612.380465 156.497732 
L 613.50874 164.628064 
L 614.277081 168.981027 
L 614.665509 170.397829 
L 615.449846 172.173137 
L 615.845408 173.457596 
L 616.64254 177.295069 
L 617.447012 181.247862 
L 617.851871 182.447333 
L 618.258454 182.985087 
L 618.666719 183.049123 
L 619.900757 182.501537 
L 620.314898 182.162261 
L 620.73038 181.375457 
L 621.147202 179.533937 
L 621.565455 176.301739 
L 622.406897 168.248431 
L 622.830355 165.164929 
L 623.255783 163.095701 
L 624.112878 160.838027 
L 624.544641 159.077846 
L 625.85313 151.462107 
L 626.29371 150.527234 
L 626.736472 150.391204 
L 627.628452 150.938298 
L 628.077618 151.009307 
L 628.982146 150.510682 
L 629.437482 150.514872 
L 629.894834 151.226856 
L 630.815254 154.454357 
L 631.278153 156.072959 
L 631.742749 157.209779 
L 632.208997 158.0012 
L 632.676869 158.511809 
L 633.617443 158.472239 
L 634.090159 159.352846 
L 635.04047 162.61325 
L 635.518058 163.830942 
L 635.997251 165.57168 
L 636.477996 168.433261 
L 636.960202 172.252801 
L 638.899145 191.503122 
L 639.385252 193.675052 
L 639.871962 194.271234 
L 640.359835 192.470273 
L 640.849429 187.462634 
L 641.834456 175.016601 
L 642.330053 172.676571 
L 642.827519 174.413997 
L 643.326745 177.789425 
L 643.827633 179.622705 
L 644.330062 178.103891 
L 644.834013 171.620126 
L 645.339526 158.355629 
L 645.846676 139.546986 
L 646.355528 125.585972 
L 646.866105 126.06498 
L 647.892482 146.30713 
L 648.408256 145.653733 
L 649.444995 119.927272 
L 649.965998 114.705914 
L 650.488734 117.481632 
L 651.539393 135.662059 
L 652.067289 136.658906 
L 653.128141 120.076821 
L 653.661073 117.161279 
L 654.195644 120.159803 
L 655.269699 137.204638 
L 655.809172 138.612817 
L 656.89296 124.461519 
L 657.437257 122.053752 
L 657.983136 126.240948 
L 658.530599 135.533354 
L 659.07964 142.113926 
L 659.630246 141.81267 
L 660.736124 127.963093 
L 661.291385 126.708071 
L 661.848179 132.217616 
L 662.406502 140.345791 
L 662.966337 144.32 
L 663.527667 142.415675 
L 664.654799 130.942536 
L 665.220594 131.891143 
L 666.356589 145.176016 
L 666.926758 147.533845 
L 667.498363 144.486994 
L 668.645908 131.585242 
L 669.221844 132.47495 
L 670.378016 144.599517 
L 670.958233 145.46462 
L 671.539852 140.83321 
L 672.12287 133.270157 
L 672.707285 128.808343 
L 673.293088 130.414431 
L 673.880274 136.185426 
L 674.468835 140.5092 
L 675.05876 139.914763 
L 676.242686 128.193017 
L 676.836678 126.249987 
L 677.432011 129.32794 
L 678.028682 135.07773 
L 678.626685 138.309524 
L 679.083636 137.396899 
L 679.083636 137.396899 
" clip-path="url(#p5327f78128)" style="fill: none; stroke: #2ca02c; stroke-width: 0.9; stroke-linecap: square"/>
   </g>
   <g id="line2d_22">
    <path d="M 76.756364 133.453863 
L 77.363208 133.262509 
L 77.971272 133.217331 
L 79.802759 133.648897 
L 81.645115 133.207838 
L 82.261632 133.291377 
L 83.498242 133.685897 
L 84.118326 133.705727 
L 85.98565 133.304144 
L 88.491756 133.696677 
L 89.751735 133.354784 
L 90.383441 133.33609 
L 92.285371 133.709029 
L 94.837006 133.32762 
L 96.119484 133.620047 
L 96.762373 133.634163 
L 98.697583 133.246716 
L 99.993133 133.466752 
L 100.642517 133.596722 
L 101.292968 133.586207 
L 103.25068 133.242206 
L 105.875636 133.576146 
L 107.194323 133.291451 
L 107.855204 133.284335 
L 109.843946 133.665072 
L 111.174813 133.447777 
L 111.841746 133.329401 
L 112.509673 133.356914 
L 114.519374 133.720436 
L 116.537872 133.37968 
L 117.888369 133.621052 
L 118.565055 133.761797 
L 119.242694 133.75168 
L 120.600814 133.456843 
L 121.281288 133.425734 
L 123.328317 133.790989 
L 124.697635 133.544846 
L 125.383673 133.415718 
L 126.070625 133.421685 
L 128.136924 133.716966 
L 130.211311 133.266618 
L 131.598678 133.441166 
L 132.293684 133.517491 
L 132.989566 133.451982 
L 135.082433 132.918016 
L 137.183057 133.05927 
L 138.587734 132.597609 
L 139.291341 132.354723 
L 139.995787 132.254359 
L 141.407187 132.320028 
L 142.114133 132.226218 
L 144.239913 131.498432 
L 146.373027 131.344579 
L 149.220512 130.38437 
L 151.341507 130.235847 
L 153.436692 129.617178 
L 154.12762 129.677939 
L 156.173558 130.17888 
L 157.512364 130.28303 
L 158.173465 130.501053 
L 158.828727 130.945944 
L 161.387281 133.162222 
L 162.010358 133.680335 
L 162.62647 134.337906 
L 163.837224 136.226149 
L 165.018583 138.139247 
L 167.290557 141.367575 
L 168.914348 144.139006 
L 169.959388 145.425737 
L 170.975278 146.400211 
L 172.924778 149.274446 
L 173.396198 149.4118 
L 173.861633 149.409752 
L 174.321255 149.526644 
L 174.775201 150.305937 
L 175.223646 152.667547 
L 176.104926 160.762004 
L 176.538287 163.241295 
L 176.967207 163.874137 
L 177.813142 162.972206 
L 178.645157 163.085676 
L 179.056314 161.880831 
L 181.452455 147.049154 
L 182.215396 144.711024 
L 182.954189 143.401024 
L 183.669117 142.754606 
L 184.362119 142.490457 
L 186.648268 141.960829 
L 187.26512 141.858153 
L 187.86422 142.039103 
L 188.15666 142.313388 
L 188.444378 142.774475 
L 189.006698 144.413824 
L 189.823525 148.332428 
L 190.620159 153.368513 
L 190.884397 153.982475 
L 191.149249 152.308348 
L 191.683411 144.560208 
L 191.953628 147.031667 
L 192.500954 157.699639 
L 192.777841 159.500317 
L 193.056652 159.430644 
L 194.762103 153.370711 
L 196.193516 145.102176 
L 197.029431 141.460711 
L 197.833721 138.886485 
L 198.354232 137.754027 
L 198.86696 137.05858 
L 199.376835 136.715683 
L 200.147412 136.563221 
L 200.937898 136.576008 
L 201.207696 136.705269 
L 201.481114 137.037222 
L 202.32447 138.973383 
L 202.613417 138.385365 
L 202.906169 138.255645 
L 203.806079 143.297131 
L 204.113076 139.894822 
L 204.737412 123.145158 
L 205.054653 121.316433 
L 205.375222 125.267939 
L 205.699089 132.115835 
L 206.026213 135.361023 
L 206.35655 132.023441 
L 206.690064 125.936224 
L 207.026716 122.463744 
L 207.366465 123.802072 
L 208.055135 136.163724 
L 208.404001 138.733644 
L 208.75585 136.93885 
L 209.110658 133.419866 
L 209.468384 132.105109 
L 209.828789 134.75326 
L 210.555237 143.013109 
L 210.920098 143.916207 
L 211.285436 142.443314 
L 211.650868 140.23571 
L 212.016115 139.546454 
L 212.381036 141.292334 
L 213.109659 146.031472 
L 213.473325 146.410383 
L 214.199301 144.92962 
L 214.561558 145.265098 
L 217.087579 155.383175 
L 217.448401 156.360359 
L 217.809598 156.459521 
L 218.171248 155.809811 
L 218.896063 153.462371 
L 219.622609 150.314951 
L 221.075454 143.621358 
L 221.799217 141.11906 
L 222.522088 139.295791 
L 223.246992 138.103328 
L 223.611271 137.736733 
L 223.977195 137.53064 
L 224.345047 137.500632 
L 224.715086 137.673942 
L 225.087486 138.091101 
L 225.462342 138.801215 
L 226.602045 141.817185 
L 226.986866 142.163219 
L 227.763761 142.12421 
L 228.155816 141.725587 
L 228.550262 140.117121 
L 228.947132 136.437211 
L 229.748265 127.332784 
L 230.15255 126.004404 
L 230.559296 126.83283 
L 230.968464 128.31529 
L 231.380009 128.731726 
L 231.793888 127.542136 
L 232.210064 125.861718 
L 232.628503 125.34441 
L 233.049171 126.861314 
L 233.897085 133.944411 
L 234.753631 140.121501 
L 236.054741 146.922959 
L 237.375255 154.968393 
L 237.81925 155.836337 
L 238.264868 155.458109 
L 238.711917 154.287228 
L 240.060301 149.563103 
L 242.326102 142.909883 
L 243.234914 141.077422 
L 244.142541 139.67961 
L 245.048106 138.592759 
L 245.952393 137.77136 
L 246.857733 137.219903 
L 247.311664 137.075153 
L 247.766879 137.057395 
L 248.223712 137.224308 
L 248.682421 137.6673 
L 249.14315 138.503139 
L 250.07107 140.632713 
L 250.538538 140.18629 
L 251.480745 135.918113 
L 251.955362 133.135544 
L 252.432166 126.97636 
L 253.8734 97.880072 
L 254.356063 92.676788 
L 254.839471 90.121562 
L 255.80888 88.407934 
L 256.295219 86.510135 
L 257.271628 79.166057 
L 258.252749 71.89719 
L 258.744776 69.258173 
L 259.237606 67.48885 
L 259.73116 66.533958 
L 260.225432 66.244503 
L 260.720485 66.519595 
L 261.216401 67.328293 
L 262.710095 71.10585 
L 263.210146 71.360181 
L 263.711273 70.302693 
L 264.716432 65.171787 
L 265.220174 62.65908 
L 265.724466 60.756406 
L 266.229159 59.39289 
L 266.734143 58.395692 
L 267.239366 57.649398 
L 267.744837 57.135778 
L 268.250637 56.951234 
L 268.756918 57.38581 
L 269.263853 58.875339 
L 269.771594 61.712221 
L 271.300665 74.704835 
L 271.812428 77.101486 
L 272.325238 77.342424 
L 273.354088 74.39911 
L 273.87024 73.742023 
L 274.387632 74.730132 
L 274.906329 77.732397 
L 275.426415 83.102237 
L 276.470997 97.710057 
L 276.99543 101.148132 
L 277.5211 99.153636 
L 278.575386 89.003732 
L 279.103718 86.563795 
L 279.632809 88.019223 
L 280.162784 94.844609 
L 280.693852 108.21394 
L 281.226162 124.544229 
L 281.759769 133.582923 
L 282.294735 129.687459 
L 282.83115 120.932298 
L 283.369082 118.38061 
L 283.90855 128.038865 
L 284.449563 148.690747 
L 284.992109 162.223443 
L 285.535927 165.378996 
L 286.080598 163.168031 
L 287.170606 156.282094 
L 288.257986 151.423513 
L 289.877053 144.996004 
L 290.94532 141.869363 
L 291.475697 140.743131 
L 292.003493 139.888609 
L 293.051363 138.816195 
L 294.089123 138.24 
L 294.604264 138.110659 
L 295.626363 138.267597 
L 296.637265 138.372088 
L 297.637925 138.201367 
L 299.121179 137.857947 
L 300.096182 137.967062 
L 301.533579 138.460718 
L 302.474984 138.816296 
L 302.941281 138.869839 
L 303.404762 138.77975 
L 304.323901 138.274313 
L 306.129266 136.84152 
L 307.451541 135.87433 
L 308.322718 135.474724 
L 309.190709 135.401586 
L 310.058821 135.692526 
L 310.928121 136.309967 
L 312.23269 137.324742 
L 313.542101 138.29265 
L 313.981705 138.794142 
L 314.868786 140.313533 
L 315.768462 142.169806 
L 316.223007 142.827383 
L 316.680452 142.989305 
L 317.140677 142.077185 
L 317.603541 138.765638 
L 318.536523 125.411722 
L 319.006381 121.970292 
L 319.952492 119.603761 
L 320.428665 116.797168 
L 321.386728 108.477436 
L 321.867842 105.897621 
L 322.349692 105.296388 
L 322.831837 106.319121 
L 323.313923 107.885115 
L 323.795667 108.762569 
L 324.276822 108.379246 
L 325.236516 105.458773 
L 325.714718 104.593598 
L 326.191697 104.542187 
L 326.667464 104.680459 
L 327.142099 103.831149 
L 327.615699 101.159223 
L 328.559871 94.285221 
L 329.499678 89.862463 
L 329.967568 88.49092 
L 330.898743 86.65641 
L 331.361994 85.132058 
L 331.823671 82.895676 
L 332.2838 80.015716 
L 333.19984 72.026893 
L 334.110715 63.38572 
L 335.01598 58.164388 
L 336.362133 53.107457 
L 337.251005 50.457159 
L 338.132568 48.531568 
L 339.006212 47.24852 
L 339.439991 46.894506 
L 339.871855 46.734629 
L 340.301988 46.740018 
L 341.158043 47.129783 
L 342.010479 47.926305 
L 343.288308 49.290992 
L 344.144426 49.860351 
L 344.574689 50.101107 
L 345.006653 50.594986 
L 345.44043 52.135913 
L 345.876038 56.566218 
L 346.313452 66.615829 
L 346.75266 83.909766 
L 347.636368 123.247615 
L 348.080941 127.039628 
L 348.975766 110.347182 
L 349.426073 111.300084 
L 349.878392 125.909288 
L 350.33285 150.101354 
L 350.789524 160.666999 
L 351.248385 160.458939 
L 351.709396 155.186618 
L 352.637853 139.727229 
L 353.10524 140.638392 
L 353.574676 147.324824 
L 354.046107 152.033795 
L 354.519455 153.125245 
L 354.994651 151.977318 
L 355.471678 148.486411 
L 356.43132 134.663509 
L 356.913965 134.114916 
L 357.884878 145.442132 
L 358.373051 146.041145 
L 358.862565 140.422317 
L 359.352826 129.079002 
L 359.843267 121.410924 
L 360.333354 120.785332 
L 361.310522 132.811142 
L 361.796696 133.071689 
L 363.240767 112.81131 
L 363.716121 113.281125 
L 364.656009 123.481306 
L 365.120087 125.204189 
L 365.580007 121.681208 
L 366.035601 115.875832 
L 366.486702 111.770379 
L 366.933162 111.401428 
L 367.374881 114.642063 
L 367.811809 119.386461 
L 368.243949 122.375671 
L 368.671407 121.581841 
L 369.513045 114.311226 
L 369.927501 112.779034 
L 370.337764 113.948728 
L 371.145826 119.194363 
L 371.543641 118.921943 
L 371.93732 115.921416 
L 372.712235 109.231119 
L 373.47084 106.658977 
L 373.844514 104.330465 
L 374.582223 95.230099 
L 375.30894 86.939958 
L 376.381867 78.639196 
L 377.086904 68.966523 
L 378.128446 52.14406 
L 378.80925 45.543035 
L 379.477069 41.884989 
L 380.131249 39.594176 
L 380.771207 38.168103 
L 381.396549 37.33802 
L 382.007193 36.922829 
L 382.603034 36.853904 
L 383.184164 37.146357 
L 383.751202 37.735994 
L 384.305287 38.6114 
L 384.847947 39.814283 
L 385.644902 42.283865 
L 387.458442 48.505302 
L 388.484572 51.090571 
L 390.04122 54.329201 
L 391.110144 56.1815 
L 391.658445 57.066526 
L 391.936596 57.871222 
L 392.217637 59.717518 
L 392.501772 64.119023 
L 392.789233 73.318211 
L 393.673448 123.714396 
L 393.975792 128.148986 
L 394.59194 116.69146 
L 394.905625 117.633962 
L 395.222971 128.181579 
L 395.543948 144.378885 
L 395.868504 152.374881 
L 396.19654 152.135529 
L 396.527963 146.669384 
L 396.862697 139.103848 
L 397.200669 135.05471 
L 397.541814 137.936728 
L 397.886082 143.660356 
L 398.233425 147.00068 
L 398.583788 146.510941 
L 398.93713 142.309085 
L 399.652647 130.710456 
L 400.014763 131.094534 
L 400.747571 138.138763 
L 401.118213 137.091024 
L 401.867844 126.108632 
L 402.246775 123.571216 
L 402.628407 124.817891 
L 403.012714 128.278174 
L 403.399677 130.729606 
L 403.78927 129.894992 
L 404.57623 123.669489 
L 404.973529 122.995481 
L 405.373334 125.117384 
L 406.180405 131.667012 
L 406.587644 131.879975 
L 407.409288 128.842693 
L 407.823023 129.681272 
L 409.068845 138.899149 
L 409.483868 139.040076 
L 409.897991 138.333795 
L 410.310812 138.375692 
L 410.721969 139.965968 
L 411.538002 145.098275 
L 411.942339 146.41398 
L 412.343943 146.504077 
L 412.742661 146.067416 
L 413.138383 145.996334 
L 413.53104 146.784232 
L 414.30695 149.708421 
L 414.690076 150.593502 
L 415.069866 150.761376 
L 415.819046 150.42278 
L 416.188261 150.767735 
L 416.553766 151.610238 
L 417.97633 156.247759 
L 418.321746 156.922194 
L 418.663005 157.909619 
L 419.98674 163.273689 
L 420.307891 163.330069 
L 420.625531 162.899477 
L 421.25111 161.243367 
L 421.865031 158.706408 
L 423.356532 151.253275 
L 423.936857 149.404544 
L 424.790316 147.562674 
L 425.900081 145.935467 
L 429.038726 141.712106 
L 429.757486 141.174759 
L 430.454752 140.908646 
L 432.492533 140.415287 
L 435.026571 138.903084 
L 435.737156 138.798594 
L 436.459584 138.925522 
L 437.196068 139.367101 
L 438.204069 140.317714 
L 439.77527 141.902442 
L 441.135451 142.951519 
L 441.694907 143.570234 
L 442.553956 145.003346 
L 442.846156 144.919008 
L 443.141521 144.136283 
L 443.742126 140.981801 
L 444.047456 140.262631 
L 444.356157 140.877277 
L 444.668231 141.914305 
L 444.983672 142.117912 
L 445.302459 140.89786 
L 445.949916 136.720855 
L 446.27851 136.32104 
L 447.283353 139.227114 
L 447.624537 138.426223 
L 448.316066 135.649787 
L 448.666346 135.78307 
L 449.375786 137.874685 
L 449.734889 137.793687 
L 450.829394 134.719987 
L 451.19987 134.707753 
L 451.573119 135.177842 
L 451.949042 135.434588 
L 452.327333 134.883486 
L 453.471174 131.050967 
L 453.853591 130.873112 
L 454.235762 130.994561 
L 454.617265 130.668109 
L 454.997726 129.53088 
L 455.754192 126.366737 
L 456.129602 125.391911 
L 456.873665 124.434634 
L 457.241992 123.599601 
L 457.970607 120.63489 
L 459.042595 115.950163 
L 460.090724 112.162513 
L 462.129715 101.668123 
L 462.796682 96.348304 
L 464.785501 74.618915 
L 466.776803 51.810221 
L 467.43148 48.08739 
L 468.073106 46.250751 
L 468.388495 45.806991 
L 468.70039 45.604179 
L 469.009009 45.609156 
L 469.314636 45.796433 
L 469.918279 46.621677 
L 470.81099 48.625815 
L 472.287561 52.285347 
L 473.177968 53.868197 
L 473.777043 54.61317 
L 474.688156 55.466827 
L 474.995979 56.1083 
L 475.30617 57.581295 
L 475.618958 60.892131 
L 475.934578 67.602391 
L 476.253244 79.166022 
L 477.228573 124.436494 
L 477.560153 126.749134 
L 477.894927 122.744837 
L 478.232863 120.312298 
L 478.573937 124.856843 
L 479.265514 149.013449 
L 479.616006 152.828006 
L 479.969586 150.895812 
L 480.685858 140.557974 
L 481.048462 139.245695 
L 482.153607 147.838559 
L 482.527612 146.619676 
L 482.904365 142.80096 
L 483.283844 137.786446 
L 483.666026 134.745558 
L 484.050886 135.700776 
L 484.438401 138.78206 
L 484.828545 140.634773 
L 485.221294 139.373482 
L 486.01454 130.331636 
L 486.415005 128.738525 
L 486.818005 130.643584 
L 487.223521 134.113383 
L 487.631533 135.88534 
L 488.041989 134.60385 
L 488.454501 131.513245 
L 488.868378 129.455257 
L 489.282967 130.143215 
L 490.112006 136.668015 
L 490.525449 138.079998 
L 490.93758 137.336187 
L 491.348006 135.792221 
L 491.756373 135.422517 
L 492.162358 137.176581 
L 492.966092 142.545377 
L 493.363395 143.361468 
L 493.757421 142.676315 
L 494.148049 141.530468 
L 494.535202 141.262811 
L 494.918838 142.459606 
L 495.675453 146.047248 
L 496.048401 146.508903 
L 496.417788 145.961328 
L 496.783657 145.205788 
L 497.146089 145.158817 
L 497.505232 146.23959 
L 498.564864 151.907363 
L 499.602742 155.699222 
L 500.627532 160.889683 
L 500.967629 161.363782 
L 501.307292 161.086998 
L 501.646627 160.2289 
L 501.985709 158.849735 
L 502.663094 154.8382 
L 503.674754 148.758119 
L 504.670418 143.933733 
L 505.638652 140.393805 
L 506.266089 138.71179 
L 506.8795 137.558309 
L 507.480482 136.937936 
L 508.071144 136.807749 
L 508.653672 137.011846 
L 509.518235 137.378465 
L 510.092996 137.346159 
L 510.669902 137.040482 
L 512.43759 135.736098 
L 513.041289 135.6236 
L 513.651051 135.694334 
L 514.267005 135.981013 
L 514.577803 136.328641 
L 514.890959 136.97495 
L 515.525595 138.970446 
L 515.84761 138.927085 
L 516.173043 138.689824 
L 516.502047 140.25265 
L 516.834699 142.869479 
L 517.171006 144.204925 
L 517.510945 141.994032 
L 518.201618 124.955693 
L 518.552252 121.746827 
L 518.906262 124.76412 
L 519.26351 131.973151 
L 519.623864 136.901563 
L 519.987214 135.309387 
L 520.353478 129.487825 
L 520.722577 125.540276 
L 521.094424 126.699858 
L 521.846117 140.146227 
L 522.225937 143.285422 
L 522.608438 141.704331 
L 523.381587 133.538916 
L 523.772241 135.180068 
L 524.561786 144.583724 
L 524.960697 145.449091 
L 525.362326 143.203771 
L 525.766616 139.470615 
L 526.173507 137.126558 
L 526.582942 138.244528 
L 527.409333 144.077102 
L 527.826229 144.293135 
L 528.245547 142.272181 
L 528.667262 139.327759 
L 529.091351 137.616185 
L 529.517789 138.458182 
L 530.377585 142.783066 
L 530.810878 142.920711 
L 531.246386 141.358104 
L 531.684044 139.373121 
L 532.12378 138.7847 
L 532.565473 140.419253 
L 533.452587 145.605499 
L 533.896657 146.542869 
L 534.783058 146.318748 
L 535.224541 147.405721 
L 536.102761 151.760638 
L 536.539263 152.873429 
L 536.973994 152.45642 
L 537.837736 149.318435 
L 538.266443 149.038535 
L 538.692841 150.319174 
L 539.116844 152.021965 
L 539.538396 152.874139 
L 539.957408 152.324346 
L 540.787001 149.534464 
L 541.197291 149.500138 
L 541.604466 150.874174 
L 542.409147 154.484435 
L 542.806527 155.469682 
L 543.591363 156.208171 
L 543.978875 156.995767 
L 545.12191 161.420307 
L 545.496475 161.736869 
L 545.86791 161.29068 
L 546.601772 159.358973 
L 547.324181 156.935383 
L 549.4269 148.1067 
L 550.440798 145.246722 
L 552.394525 140.75425 
L 553.338567 138.925373 
L 553.957525 138.007996 
L 554.569316 137.486002 
L 554.87282 137.442911 
L 555.174799 137.562185 
L 555.774077 138.253174 
L 557.525271 141.296867 
L 558.089971 141.685319 
L 558.644261 141.737365 
L 559.457258 141.543129 
L 559.724173 141.672898 
L 559.98958 142.085027 
L 560.779942 144.503479 
L 561.304465 147.342639 
L 561.829058 150.611082 
L 562.092057 151.572064 
L 562.356047 150.755288 
L 562.88895 142.432671 
L 563.158756 143.790389 
L 563.7066 155.482645 
L 563.985008 157.479447 
L 564.266523 157.36295 
L 564.838603 154.901701 
L 567.48227 142.51115 
L 568.061622 140.827083 
L 568.636559 139.626209 
L 569.209893 138.81504 
L 569.78462 138.370393 
L 570.073416 138.300176 
L 570.363634 138.34938 
L 570.655604 138.537302 
L 570.949641 138.885635 
L 571.544922 140.11217 
L 572.458422 142.375499 
L 572.768844 142.769335 
L 573.082333 142.855151 
L 573.398919 142.662294 
L 573.718621 142.230097 
L 574.041445 141.427083 
L 574.367392 140.057132 
L 575.028645 136.23316 
L 575.363937 134.972057 
L 575.702319 134.634994 
L 576.043769 134.765923 
L 576.388255 134.622824 
L 577.439603 132.164341 
L 577.795891 132.144411 
L 578.516991 132.613682 
L 578.881741 132.421061 
L 579.992446 131.125874 
L 580.745452 130.616588 
L 582.267082 129.02325 
L 582.647972 128.685414 
L 583.02824 128.111486 
L 584.90848 124.174169 
L 585.278286 123.63353 
L 585.645481 122.792946 
L 586.009927 121.333797 
L 586.730239 116.832659 
L 587.438806 112.681452 
L 588.135332 109.844231 
L 588.820043 105.396409 
L 589.493838 100.294237 
L 589.826808 98.368427 
L 590.1572 97.168237 
L 590.810586 95.449152 
L 591.133839 93.758778 
L 592.091349 85.54769 
L 593.970956 68.950203 
L 595.224373 54.503127 
L 595.852558 49.734065 
L 596.477251 46.885646 
L 597.094035 45.357474 
L 597.398128 44.979581 
L 597.698707 44.82413 
L 597.995433 44.869358 
L 598.288126 45.094382 
L 598.861835 46.004628 
L 599.422771 47.395395 
L 601.340621 52.895706 
L 602.164143 54.339269 
L 602.99917 55.576532 
L 603.280885 56.185223 
L 603.564572 57.094663 
L 603.850417 58.552497 
L 604.138626 60.937443 
L 604.429404 64.725512 
L 605.019408 77.31642 
L 605.927728 97.949724 
L 606.866205 112.492873 
L 607.835697 132.446434 
L 608.16571 135.71705 
L 608.499074 136.730853 
L 608.835732 137.359765 
L 609.175644 138.984201 
L 610.214711 146.157121 
L 610.567478 146.986609 
L 611.282724 147.240743 
L 611.64528 147.661709 
L 613.129265 151.03422 
L 613.50874 151.305142 
L 613.891414 151.26758 
L 614.277081 150.940779 
L 616.243015 148.181177 
L 618.666719 146.01545 
L 619.487971 145.664693 
L 620.314898 145.511046 
L 621.985302 145.541048 
L 622.830355 145.672438 
L 623.255783 145.953101 
L 624.112878 146.86424 
L 624.544641 146.975939 
L 624.978592 146.577149 
L 625.85313 145.231713 
L 626.29371 145.119724 
L 626.736472 145.374085 
L 627.628452 146.165186 
L 628.077618 146.339261 
L 629.437482 146.183822 
L 629.894834 146.665403 
L 631.278153 149.431094 
L 631.742749 149.870322 
L 632.208997 150.047464 
L 632.676869 150.026035 
L 633.617443 149.434486 
L 634.090159 149.603304 
L 635.04047 150.430768 
L 635.518058 150.576908 
L 635.997251 150.876026 
L 636.960202 151.810274 
L 637.443695 151.90113 
L 637.92821 151.286916 
L 638.899145 148.492913 
L 639.871962 145.611183 
L 640.359835 144.489314 
L 640.849429 143.735232 
L 641.340922 143.312343 
L 641.834456 143.180318 
L 642.330053 143.511242 
L 643.326745 145.568248 
L 644.330062 147.677359 
L 644.834013 148.099626 
L 645.339526 145.839426 
L 646.355528 127.763657 
L 646.866105 127.510958 
L 647.892482 144.459979 
L 648.408256 144.219622 
L 648.925749 133.96539 
L 649.444995 120.451582 
L 649.965998 114.307099 
L 650.488734 116.311781 
L 651.539393 135.863931 
L 652.067289 136.913615 
L 653.128141 118.5073 
L 653.661073 114.61625 
L 654.195644 118.023309 
L 655.269699 137.600423 
L 655.809172 139.026406 
L 656.89296 123.806246 
L 657.437257 121.117793 
L 657.983136 125.713582 
L 658.530599 135.639574 
L 659.07964 142.423443 
L 659.630246 141.911174 
L 660.736124 127.957042 
L 661.291385 126.669779 
L 661.848179 132.208279 
L 662.406502 140.301212 
L 662.966337 144.053097 
L 663.527667 142.083126 
L 664.654799 131.026421 
L 665.220594 131.936361 
L 666.356589 144.576915 
L 666.926758 146.514112 
L 667.498363 143.598423 
L 668.645908 131.72006 
L 669.221844 132.534431 
L 670.378016 143.745367 
L 670.958233 144.437569 
L 671.539852 140.260452 
L 672.12287 133.284752 
L 672.707285 129.040842 
L 673.293088 130.514991 
L 673.880274 136.101061 
L 674.468835 140.280933 
L 675.05876 139.70166 
L 676.242686 128.279966 
L 676.836678 126.269979 
L 677.432011 129.297485 
L 678.028682 135.089802 
L 678.626685 138.332419 
L 679.083636 137.402522 
L 679.083636 137.402522 
" clip-path="url(#p5327f78128)" style="fill: none; stroke: #d62728; stroke-opacity: 0.8; stroke-width: 0.9; stroke-linecap: square"/>
   </g>
   <g id="patch_3">
    <path d="M 46.64 246.04 
L 46.64 26.88 
" style="fill: none; stroke: #000000; stroke-width: 0.8; stroke-linejoin: miter; stroke-linecap: square"/>
   </g>
   <g id="patch_4">
    <path d="M 709.2 246.04 
L 709.2 26.88 
" style="fill: none; stroke: #000000; stroke-width: 0.8; stroke-linejoin: miter; stroke-linecap: square"/>
   </g>
   <g id="patch_5">
    <path d="M 46.64 246.04 
L 709.2 246.04 
" style="fill: none; stroke: #000000; stroke-width: 0.8; stroke-linejoin: miter; stroke-linecap: square"/>
   </g>
   <g id="patch_6">
    <path d="M 46.64 26.88 
L 709.2 26.88 
" style="fill: none; stroke: #000000; stroke-width: 0.8; stroke-linejoin: miter; stroke-linecap: square"/>
   </g>
   <g id="text_13">
    <!-- steering-link loads over one Ring Knutstorp lap -->
    <g transform="translate(236.68375 20.88) scale(0.12 -0.12)">
     <defs>
      <path id="DejaVuSans-67" d="M 2906 1791 
Q 2906 2416 2648 2759 
Q 2391 3103 1925 3103 
Q 1463 3103 1205 2759 
Q 947 2416 947 1791 
Q 947 1169 1205 825 
Q 1463 481 1925 481 
Q 2391 481 2648 825 
Q 2906 1169 2906 1791 
z
M 3481 434 
Q 3481 -459 3084 -895 
Q 2688 -1331 1869 -1331 
Q 1566 -1331 1297 -1286 
Q 1028 -1241 775 -1147 
L 775 -588 
Q 1028 -725 1275 -790 
Q 1522 -856 1778 -856 
Q 2344 -856 2625 -561 
Q 2906 -266 2906 331 
L 2906 616 
Q 2728 306 2450 153 
Q 2172 0 1784 0 
Q 1141 0 747 490 
Q 353 981 353 1791 
Q 353 2603 747 3093 
Q 1141 3584 1784 3584 
Q 2172 3584 2450 3431 
Q 2728 3278 2906 2969 
L 2906 3500 
L 3481 3500 
L 3481 434 
z
" transform="scale(0.015625)"/>
      <path id="DejaVuSans-6c" d="M 603 4863 
L 1178 4863 
L 1178 0 
L 603 0 
L 603 4863 
z
" transform="scale(0.015625)"/>
      <path id="DejaVuSans-76" d="M 191 3500 
L 800 3500 
L 1894 563 
L 2988 3500 
L 3597 3500 
L 2284 0 
L 1503 0 
L 191 3500 
z
" transform="scale(0.015625)"/>
      <path id="DejaVuSans-52" d="M 2841 2188 
Q 3044 2119 3236 1894 
Q 3428 1669 3622 1275 
L 4263 0 
L 3584 0 
L 2988 1197 
Q 2756 1666 2539 1819 
Q 2322 1972 1947 1972 
L 1259 1972 
L 1259 0 
L 628 0 
L 628 4666 
L 2053 4666 
Q 2853 4666 3247 4331 
Q 3641 3997 3641 3322 
Q 3641 2881 3436 2590 
Q 3231 2300 2841 2188 
z
M 1259 4147 
L 1259 2491 
L 2053 2491 
Q 2509 2491 2742 2702 
Q 2975 2913 2975 3322 
Q 2975 3731 2742 3939 
Q 2509 4147 2053 4147 
L 1259 4147 
z
" transform="scale(0.015625)"/>
      <path id="DejaVuSans-4b" d="M 628 4666 
L 1259 4666 
L 1259 2694 
L 3353 4666 
L 4166 4666 
L 1850 2491 
L 4331 0 
L 3500 0 
L 1259 2247 
L 1259 0 
L 628 0 
L 628 4666 
z
" transform="scale(0.015625)"/>
      <path id="DejaVuSans-75" d="M 544 1381 
L 544 3500 
L 1119 3500 
L 1119 1403 
Q 1119 906 1312 657 
Q 1506 409 1894 409 
Q 2359 409 2629 706 
Q 2900 1003 2900 1516 
L 2900 3500 
L 3475 3500 
L 3475 0 
L 2900 0 
L 2900 538 
Q 2691 219 2414 64 
Q 2138 -91 1772 -91 
Q 1169 -91 856 284 
Q 544 659 544 1381 
z
M 1991 3584 
L 1991 3584 
z
" transform="scale(0.015625)"/>
      <path id="DejaVuSans-70" d="M 1159 525 
L 1159 -1331 
L 581 -1331 
L 581 3500 
L 1159 3500 
L 1159 2969 
Q 1341 3281 1617 3432 
Q 1894 3584 2278 3584 
Q 2916 3584 3314 3078 
Q 3713 2572 3713 1747 
Q 3713 922 3314 415 
Q 2916 -91 2278 -91 
Q 1894 -91 1617 61 
Q 1341 213 1159 525 
z
M 3116 1747 
Q 3116 2381 2855 2742 
Q 2594 3103 2138 3103 
Q 1681 3103 1420 2742 
Q 1159 2381 1159 1747 
Q 1159 1113 1420 752 
Q 1681 391 2138 391 
Q 2594 391 2855 752 
Q 3116 1113 3116 1747 
z
" transform="scale(0.015625)"/>
     </defs>
     <use xlink:href="#DejaVuSans-73"/>
     <use xlink:href="#DejaVuSans-74" transform="translate(52.099609 0)"/>
     <use xlink:href="#DejaVuSans-65" transform="translate(91.308594 0)"/>
     <use xlink:href="#DejaVuSans-65" transform="translate(152.832031 0)"/>
     <use xlink:href="#DejaVuSans-72" transform="translate(214.355469 0)"/>
     <use xlink:href="#DejaVuSans-69" transform="translate(255.46875 0)"/>
     <use xlink:href="#DejaVuSans-6e" transform="translate(283.251953 0)"/>
     <use xlink:href="#DejaVuSans-67" transform="translate(346.630859 0)"/>
     <use xlink:href="#DejaVuSans-2d" transform="translate(410.107422 0)"/>
     <use xlink:href="#DejaVuSans-6c" transform="translate(446.191406 0)"/>
     <use xlink:href="#DejaVuSans-69" transform="translate(473.974609 0)"/>
     <use xlink:href="#DejaVuSans-6e" transform="translate(501.757812 0)"/>
     <use xlink:href="#DejaVuSans-6b" transform="translate(565.136719 0)"/>
     <use xlink:href="#DejaVuSans-20" transform="translate(623.046875 0)"/>
     <use xlink:href="#DejaVuSans-6c" transform="translate(654.833984 0)"/>
     <use xlink:href="#DejaVuSans-6f" transform="translate(682.617188 0)"/>
     <use xlink:href="#DejaVuSans-61" transform="translate(743.798828 0)"/>
     <use xlink:href="#DejaVuSans-64" transform="translate(805.078125 0)"/>
     <use xlink:href="#DejaVuSans-73" transform="translate(868.554688 0)"/>
     <use xlink:href="#DejaVuSans-20" transform="translate(920.654297 0)"/>
     <use xlink:href="#DejaVuSans-6f" transform="translate(952.441406 0)"/>
     <use xlink:href="#DejaVuSans-76" transform="translate(1013.623047 0)"/>
     <use xlink:href="#DejaVuSans-65" transform="translate(1072.802734 0)"/>
     <use xlink:href="#DejaVuSans-72" transform="translate(1134.326172 0)"/>
     <use xlink:href="#DejaVuSans-20" transform="translate(1175.439453 0)"/>
     <use xlink:href="#DejaVuSans-6f" transform="translate(1207.226562 0)"/>
     <use xlink:href="#DejaVuSans-6e" transform="translate(1268.408203 0)"/>
     <use xlink:href="#DejaVuSans-65" transform="translate(1331.787109 0)"/>
     <use xlink:href="#DejaVuSans-20" transform="translate(1393.310547 0)"/>
     <use xlink:href="#DejaVuSans-52" transform="translate(1425.097656 0)"/>
     <use xlink:href="#DejaVuSans-69" transform="translate(1494.580078 0)"/>
     <use xlink:href="#DejaVuSans-6e" transform="translate(1522.363281 0)"/>
     <use xlink:href="#DejaVuSans-67" transform="translate(1585.742188 0)"/>
     <use xlink:href="#DejaVuSans-20" transform="translate(1649.21875 0)"/>
     <use xlink:href="#DejaVuSans-4b" transform="translate(1681.005859 0)"/>
     <use xlink:href="#DejaVuSans-6e" transform="translate(1746.582031 0)"/>
     <use xlink:href="#DejaVuSans-75" transform="translate(1809.960938 0)"/>
     <use xlink:href="#DejaVuSans-74" transform="translate(1873.339844 0)"/>
     <use xlink:href="#DejaVuSans-73" transform="translate(1912.548828 0)"/>
     <use xlink:href="#DejaVuSans-74" transform="translate(1964.648438 0)"/>
     <use xlink:href="#DejaVuSans-6f" transform="translate(2003.857422 0)"/>
     <use xlink:href="#DejaVuSans-72" transform="translate(2065.039062 0)"/>
     <use xlink:href="#DejaVuSans-70" transform="translate(2106.152344 0)"/>
     <use xlink:href="#DejaVuSans-20" transform="translate(2169.628906 0)"/>
     <use xlink:href="#DejaVuSans-6c" transform="translate(2201.416016 0)"/>
     <use xlink:href="#DejaVuSans-61" transform="translate(2229.199219 0)"/>
     <use xlink:href="#DejaVuSans-70" transform="translate(2290.478516 0)"/>
    </g>
   </g>
   <g id="legend_1">
    <g id="patch_7">
     <path d="M 630.755 56.765 
L 703.6 56.765 
Q 705.2 56.765 705.2 55.165 
L 705.2 32.48 
Q 705.2 30.88 703.6 30.88 
L 630.755 30.88 
Q 629.155 30.88 629.155 32.48 
L 629.155 55.165 
Q 629.155 56.765 630.755 56.765 
z
" style="fill: #ffffff; opacity: 0.8; stroke: #cccccc; stroke-linejoin: miter"/>
    </g>
    <g id="line2d_23">
     <path d="M 632.355 37.35875 
L 640.355 37.35875 
L 648.355 37.35875 
" style="fill: none; stroke: #2ca02c; stroke-width: 0.9; stroke-linecap: square"/>
    </g>
    <g id="text_14">
     <!-- tie rod left -->
     <g transform="translate(654.755 40.15875) scale(0.08 -0.08)">
      <use xlink:href="#DejaVuSans-74"/>
      <use xlink:href="#DejaVuSans-69" transform="translate(39.208984 0)"/>
      <use xlink:href="#DejaVuSans-65" transform="translate(66.992188 0)"/>
      <use xlink:href="#DejaVuSans-20" transform="translate(128.515625 0)"/>
      <use xlink:href="#DejaVuSans-72" transform="translate(160.302734 0)"/>
      <use xlink:href="#DejaVuSans-6f" transform="translate(199.166016 0)"/>
      <use xlink:href="#DejaVuSans-64" transform="translate(260.347656 0)"/>
      <use xlink:href="#DejaVuSans-20" transform="translate(323.824219 0)"/>
      <use xlink:href="#DejaVuSans-6c" transform="translate(355.611328 0)"/>
      <use xlink:href="#DejaVuSans-65" transform="translate(383.394531 0)"/>
      <use xlink:href="#DejaVuSans-66" transform="translate(444.917969 0)"/>
      <use xlink:href="#DejaVuSans-74" transform="translate(478.373047 0)"/>
     </g>
    </g>
    <g id="line2d_24">
     <path d="M 632.355 49.10125 
L 640.355 49.10125 
L 648.355 49.10125 
" style="fill: none; stroke: #d62728; stroke-opacity: 0.8; stroke-width: 0.9; stroke-linecap: square"/>
    </g>
    <g id="text_15">
     <!-- tie rod right -->
     <g transform="translate(654.755 51.90125) scale(0.08 -0.08)">
      <defs>
       <path id="DejaVuSans-68" d="M 3513 2113 
L 3513 0 
L 2938 0 
L 2938 2094 
Q 2938 2591 2744 2837 
Q 2550 3084 2163 3084 
Q 1697 3084 1428 2787 
Q 1159 2491 1159 1978 
L 1159 0 
L 581 0 
L 581 4863 
L 1159 4863 
L 1159 2956 
Q 1366 3272 1645 3428 
Q 1925 3584 2291 3584 
Q 2894 3584 3203 3211 
Q 3513 2838 3513 2113 
z
" transform="scale(0.015625)"/>
      </defs>
      <use xlink:href="#DejaVuSans-74"/>
      <use xlink:href="#DejaVuSans-69" transform="translate(39.208984 0)"/>
      <use xlink:href="#DejaVuSans-65" transform="translate(66.992188 0)"/>
      <use xlink:href="#DejaVuSans-20" transform="translate(128.515625 0)"/>
      <use xlink:href="#DejaVuSans-72" transform="translate(160.302734 0)"/>
      <use xlink:href="#DejaVuSans-6f" transform="translate(199.166016 0)"/>
      <use xlink:href="#DejaVuSans-64" transform="translate(260.347656 0)"/>
      <use xlink:href="#DejaVuSans-20" transform="translate(323.824219 0)"/>
      <use xlink:href="#DejaVuSans-72" transform="translate(355.611328 0)"/>
      <use xlink:href="#DejaVuSans-69" transform="translate(396.724609 0)"/>
      <use xlink:href="#DejaVuSans-67" transform="translate(424.507812 0)"/>
      <use xlink:href="#DejaVuSans-68" transform="translate(487.984375 0)"/>
      <use xlink:href="#DejaVuSans-74" transform="translate(551.363281 0)"/>
     </g>
    </g>
   </g>
  </g>
 </g>
 <defs>
  <clipPath id="p5327f78128">
   <rect x="46.64" y="26.88" width="662.56" height="219.16"/>
  </clipPath>
 </defs>
</svg>
