<?xml version="1.0" encoding="utf-8" standalone="no"?>
<!DOCTYPE svg PUBLIC "-//W3C//DTD SVG 1.1//EN"
  "http://www.w3.org/Graphics/SVG/1.1/DTD/svg11.dtd">
<svg xmlns:xlink="http://www.w3.org/1999/xlink" width="720pt" height="288pt" viewBox="0 0 720 288" xmlns="http://www.w3.org/2000/svg" version="1.1">
 <metadata>
  <rdf:RDF xmlns:dc="http://purl.org/dc/elements/1.1/" xmlns:cc="http://creativecommons.org/ns#" xmlns:rdf="http://www.w3.org/1999/02/22-rdf-syntax-ns#">
   <cc:Work>
    <dc:type rdf:resource="http://purl.org/dc/dcmitype/StillImage"/>
    <dc:date>2026-07-08T14:50:44.842806</dc:date>
    <dc:format>image/svg+xml</dc:format>
    <dc:creator>
     <cc:Agent>
      <dc:title>Matplotlib v3.10.8, https://matplotlib.org/</dc:title>
     </cc:Agent>
    </dc:creator>
   </cc:Work>
  </rdf:RDF>
 </metadata>
 <defs>
  <style type="text/css">*{stroke-linejoin: round; stroke-linecap: butt}</style>
 </defs>
 <g id="figure_1">
  <g id="patch_1">
   <path d="M 0 288 
L 720 288 
L 720 0 
L 0 0 
z
" style="fill: #ffffff"/>
  </g>
  <g id="axes_1">
   <g id="patch_2">
    <path d="M 56.09 246.04 
L 709.2 246.04 
L 709.2 26.88 
L 56.09 26.88 
z
" style="fill: #ffffff"/>
   </g>
   <g id="matplotlib.axis_1">
    <g id="xtick_1">
     <g id="line2d_1">
      <path d="M 85.776818 246.04 
L 85.776818 26.88 
" clip-path="url(#p3ac298fb55)" style="fill: none; stroke: #b0b0b0; stroke-opacity: 0.3; stroke-width: 0.8; stroke-linecap: square"/>
     </g>
     <g id="line2d_2">
      <defs>
       <path id="me8cd3e7bbf" d="M 0 0 
L 0 3.5 
" style="stroke: #000000; stroke-width: 0.8"/>
      </defs>
      <g>
       <use xlink:href="#me8cd3e7bbf" x="85.776818" y="246.04" style="stroke: #000000; stroke-width: 0.8"/>
      </g>
     </g>
     <g id="text_1">
      <!-- 0.0 -->
      <g transform="translate(77.825256 260.638438) scale(0.1 -0.1)">
       <defs>
        <path id="DejaVuSans-30" d="M 2034 4250 
Q 1547 4250 1301 3770 
Q 1056 3291 1056 2328 
Q 1056 1369 1301 889 
Q 1547 409 2034 409 
Q 2525 409 2770 889 
Q 3016 1369 3016 2328 
Q 3016 3291 2770 3770 
Q 2525 4250 2034 4250 
z
M 2034 4750 
Q 2819 4750 3233 4129 
Q 3647 3509 3647 2328 
Q 3647 1150 3233 529 
Q 2819 -91 2034 -91 
Q 1250 -91 836 529 
Q 422 1150 422 2328 
Q 422 3509 836 4129 
Q 1250 4750 2034 4750 
z
" transform="scale(0.015625)"/>
        <path id="DejaVuSans-2e" d="M 684 794 
L 1344 794 
L 1344 0 
L 684 0 
L 684 794 
z
" transform="scale(0.015625)"/>
       </defs>
       <use xlink:href="#DejaVuSans-30"/>
       <use xlink:href="#DejaVuSans-2e" transform="translate(63.623047 0)"/>
       <use xlink:href="#DejaVuSans-30" transform="translate(95.410156 0)"/>
      </g>
     </g>
    </g>
    <g id="xtick_2">
     <g id="line2d_3">
      <path d="M 230.456472 246.04 
L 230.456472 26.88 
" clip-path="url(#p3ac298fb55)" style="fill: none; stroke: #b0b0b0; stroke-opacity: 0.3; stroke-width: 0.8; stroke-linecap: square"/>
     </g>
     <g id="line2d_4">
      <g>
       <use xlink:href="#me8cd3e7bbf" x="230.456472" y="246.04" style="stroke: #000000; stroke-width: 0.8"/>
      </g>
     </g>
     <g id="text_2">
      <!-- 0.5 -->
      <g transform="translate(222.50491 260.638438) scale(0.1 -0.1)">
       <defs>
        <path id="DejaVuSans-35" d="M 691 4666 
L 3169 4666 
L 3169 4134 
L 1269 4134 
L 1269 2991 
Q 1406 3038 1543 3061 
Q 1681 3084 1819 3084 
Q 2600 3084 3056 2656 
Q 3513 2228 3513 1497 
Q 3513 744 3044 326 
Q 2575 -91 1722 -91 
Q 1428 -91 1123 -41 
Q 819 9 494 109 
L 494 744 
Q 775 591 1075 516 
Q 1375 441 1709 441 
Q 2250 441 2565 725 
Q 2881 1009 2881 1497 
Q 2881 1984 2565 2268 
Q 2250 2553 1709 2553 
Q 1456 2553 1204 2497 
Q 953 2441 691 2322 
L 691 4666 
z
" transform="scale(0.015625)"/>
       </defs>
       <use xlink:href="#DejaVuSans-30"/>
       <use xlink:href="#DejaVuSans-2e" transform="translate(63.623047 0)"/>
       <use xlink:href="#DejaVuSans-35" transform="translate(95.410156 0)"/>
      </g>
     </g>
    </g>
    <g id="xtick_3">
     <g id="line2d_5">
      <path d="M 375.136126 246.04 
L 375.136126 26.88 
" clip-path="url(#p3ac298fb55)" style="fill: none; stroke: #b0b0b0; stroke-opacity: 0.3; stroke-width: 0.8; stroke-linecap: square"/>
     </g>
     <g id="line2d_6">
      <g>
       <use xlink:href="#me8cd3e7bbf" x="375.136126" y="246.04" style="stroke: #000000; stroke-width: 0.8"/>
      </g>
     </g>
     <g id="text_3">
      <!-- 1.0 -->
      <g transform="translate(367.184563 260.638438) scale(0.1 -0.1)">
       <defs>
        <path id="DejaVuSans-31" d="M 794 531 
L 1825 531 
L 1825 4091 
L 703 3866 
L 703 4441 
L 1819 4666 
L 2450 4666 
L 2450 531 
L 3481 531 
L 3481 0 
L 794 0 
L 794 531 
z
" transform="scale(0.015625)"/>
       </defs>
       <use xlink:href="#DejaVuSans-31"/>
       <use xlink:href="#DejaVuSans-2e" transform="translate(63.623047 0)"/>
       <use xlink:href="#DejaVuSans-30" transform="translate(95.410156 0)"/>
      </g>
     </g>
    </g>
    <g id="xtick_4">
     <g id="line2d_7">
      <path d="M 519.81578 246.04 
L 519.81578 26.88 
" clip-path="url(#p3ac298fb55)" style="fill: none; stroke: #b0b0b0; stroke-opacity: 0.3; stroke-width: 0.8; stroke-linecap: square"/>
     </g>
     <g id="line2d_8">
      <g>
       <use xlink:href="#me8cd3e7bbf" x="519.81578" y="246.04" style="stroke: #000000; stroke-width: 0.8"/>
      </g>
     </g>
     <g id="text_4">
      <!-- 1.5 -->
      <g transform="translate(511.864217 260.638438) scale(0.1 -0.1)">
       <use xlink:href="#DejaVuSans-31"/>
       <use xlink:href="#DejaVuSans-2e" transform="translate(63.623047 0)"/>
       <use xlink:href="#DejaVuSans-35" transform="translate(95.410156 0)"/>
      </g>
     </g>
    </g>
    <g id="xtick_5">
     <g id="line2d_9">
      <path d="M 664.495434 246.04 
L 664.495434 26.88 
" clip-path="url(#p3ac298fb55)" style="fill: none; stroke: #b0b0b0; stroke-opacity: 0.3; stroke-width: 0.8; stroke-linecap: square"/>
     </g>
     <g id="line2d_10">
      <g>
       <use xlink:href="#me8cd3e7bbf" x="664.495434" y="246.04" style="stroke: #000000; stroke-width: 0.8"/>
      </g>
     </g>
     <g id="text_5">
      <!-- 2.0 -->
      <g transform="translate(656.543871 260.638438) scale(0.1 -0.1)">
       <defs>
        <path id="DejaVuSans-32" d="M 1228 531 
L 3431 531 
L 3431 0 
L 469 0 
L 469 531 
Q 828 903 1448 1529 
Q 2069 2156 2228 2338 
Q 2531 2678 2651 2914 
Q 2772 3150 2772 3378 
Q 2772 3750 2511 3984 
Q 2250 4219 1831 4219 
Q 1534 4219 1204 4116 
Q 875 4013 500 3803 
L 500 4441 
Q 881 4594 1212 4672 
Q 1544 4750 1819 4750 
Q 2544 4750 2975 4387 
Q 3406 4025 3406 3419 
Q 3406 3131 3298 2873 
Q 3191 2616 2906 2266 
Q 2828 2175 2409 1742 
Q 1991 1309 1228 531 
z
" transform="scale(0.015625)"/>
       </defs>
       <use xlink:href="#DejaVuSans-32"/>
       <use xlink:href="#DejaVuSans-2e" transform="translate(63.623047 0)"/>
       <use xlink:href="#DejaVuSans-30" transform="translate(95.410156 0)"/>
      </g>
     </g>
    </g>
    <g id="text_6">
     <!-- distance s [km] -->
     <g transform="translate(344.008281 274.316562) scale(0.1 -0.1)">
      <defs>
       <path id="DejaVuSans-64" d="M 2906 2969 
L 2906 4863 
L 3481 4863 
L 3481 0 
L 2906 0 
L 2906 525 
Q 2725 213 2448 61 
Q 2172 -91 1784 -91 
Q 1150 -91 751 415 
Q 353 922 353 1747 
Q 353 2572 751 3078 
Q 1150 3584 1784 3584 
Q 2172 3584 2448 3432 
Q 2725 3281 2906 2969 
z
M 947 1747 
Q 947 1113 1208 752 
Q 1469 391 1925 391 
Q 2381 391 2643 752 
Q 2906 1113 2906 1747 
Q 2906 2381 2643 2742 
Q 2381 3103 1925 3103 
Q 1469 3103 1208 2742 
Q 947 2381 947 1747 
z
" transform="scale(0.015625)"/>
       <path id="DejaVuSans-69" d="M 603 3500 
L 1178 3500 
L 1178 0 
L 603 0 
L 603 3500 
z
M 603 4863 
L 1178 4863 
L 1178 4134 
L 603 4134 
L 603 4863 
z
" transform="scale(0.015625)"/>
       <path id="DejaVuSans-73" d="M 2834 3397 
L 2834 2853 
Q 2591 2978 2328 3040 
Q 2066 3103 1784 3103 
Q 1356 3103 1142 2972 
Q 928 2841 928 2578 
Q 928 2378 1081 2264 
Q 1234 2150 1697 2047 
L 1894 2003 
Q 2506 1872 2764 1633 
Q 3022 1394 3022 966 
Q 3022 478 2636 193 
Q 2250 -91 1575 -91 
Q 1294 -91 989 -36 
Q 684 19 347 128 
L 347 722 
Q 666 556 975 473 
Q 1284 391 1588 391 
Q 1994 391 2212 530 
Q 2431 669 2431 922 
Q 2431 1156 2273 1281 
Q 2116 1406 1581 1522 
L 1381 1569 
Q 847 1681 609 1914 
Q 372 2147 372 2553 
Q 372 3047 722 3315 
Q 1072 3584 1716 3584 
Q 2034 3584 2315 3537 
Q 2597 3491 2834 3397 
z
" transform="scale(0.015625)"/>
       <path id="DejaVuSans-74" d="M 1172 4494 
L 1172 3500 
L 2356 3500 
L 2356 3053 
L 1172 3053 
L 1172 1153 
Q 1172 725 1289 603 
Q 1406 481 1766 481 
L 2356 481 
L 2356 0 
L 1766 0 
Q 1100 0 847 248 
Q 594 497 594 1153 
L 594 3053 
L 172 3053 
L 172 3500 
L 594 3500 
L 594 4494 
L 1172 4494 
z
" transform="scale(0.015625)"/>
       <path id="DejaVuSans-61" d="M 2194 1759 
Q 1497 1759 1228 1600 
Q 959 1441 959 1056 
Q 959 750 1161 570 
Q 1363 391 1709 391 
Q 2188 391 2477 730 
Q 2766 1069 2766 1631 
L 2766 1759 
L 2194 1759 
z
M 3341 1997 
L 3341 0 
L 2766 0 
L 2766 531 
Q 2569 213 2275 61 
Q 1981 -91 1556 -91 
Q 1019 -91 701 211 
Q 384 513 384 1019 
Q 384 1609 779 1909 
Q 1175 2209 1959 2209 
L 2766 2209 
L 2766 2266 
Q 2766 2663 2505 2880 
Q 2244 3097 1772 3097 
Q 1472 3097 1187 3025 
Q 903 2953 641 2809 
L 641 3341 
Q 956 3463 1253 3523 
Q 1550 3584 1831 3584 
Q 2591 3584 2966 3190 
Q 3341 2797 3341 1997 
z
" transform="scale(0.015625)"/>
       <path id="DejaVuSans-6e" d="M 3513 2113 
L 3513 0 
L 2938 0 
L 2938 2094 
Q 2938 2591 2744 2837 
Q 2550 3084 2163 3084 
Q 1697 3084 1428 2787 
Q 1159 2491 1159 1978 
L 1159 0 
L 581 0 
L 581 3500 
L 1159 3500 
L 1159 2956 
Q 1366 3272 1645 3428 
Q 1925 3584 2291 3584 
Q 2894 3584 3203 3211 
Q 3513 2838 3513 2113 
z
" transform="scale(0.015625)"/>
       <path id="DejaVuSans-63" d="M 3122 3366 
L 3122 2828 
Q 2878 2963 2633 3030 
Q 2388 3097 2138 3097 
Q 1578 3097 1268 2742 
Q 959 2388 959 1747 
Q 959 1106 1268 751 
Q 1578 397 2138 397 
Q 2388 397 2633 464 
Q 2878 531 3122 666 
L 3122 134 
Q 2881 22 2623 -34 
Q 2366 -91 2075 -91 
Q 1284 -91 818 406 
Q 353 903 353 1747 
Q 353 2603 823 3093 
Q 1294 3584 2113 3584 
Q 2378 3584 2631 3529 
Q 2884 3475 3122 3366 
z
" transform="scale(0.015625)"/>
       <path id="DejaVuSans-65" d="M 3597 1894 
L 3597 1613 
L 953 1613 
Q 991 1019 1311 708 
Q 1631 397 2203 397 
Q 2534 397 2845 478 
Q 3156 559 3463 722 
L 3463 178 
Q 3153 47 2828 -22 
Q 2503 -91 2169 -91 
Q 1331 -91 842 396 
Q 353 884 353 1716 
Q 353 2575 817 3079 
Q 1281 3584 2069 3584 
Q 2775 3584 3186 3129 
Q 3597 2675 3597 1894 
z
M 3022 2063 
Q 3016 2534 2758 2815 
Q 2500 3097 2075 3097 
Q 1594 3097 1305 2825 
Q 1016 2553 972 2059 
L 3022 2063 
z
" transform="scale(0.015625)"/>
       <path id="DejaVuSans-20" transform="scale(0.015625)"/>
       <path id="DejaVuSans-5b" d="M 550 4863 
L 1875 4863 
L 1875 4416 
L 1125 4416 
L 1125 -397 
L 1875 -397 
L 1875 -844 
L 550 -844 
L 550 4863 
z
" transform="scale(0.015625)"/>
       <path id="DejaVuSans-6b" d="M 581 4863 
L 1159 4863 
L 1159 1991 
L 2875 3500 
L 3609 3500 
L 1753 1863 
L 3688 0 
L 2938 0 
L 1159 1709 
L 1159 0 
L 581 0 
L 581 4863 
z
" transform="scale(0.015625)"/>
       <path id="DejaVuSans-6d" d="M 3328 2828 
Q 3544 3216 3844 3400 
Q 4144 3584 4550 3584 
Q 5097 3584 5394 3201 
Q 5691 2819 5691 2113 
L 5691 0 
L 5113 0 
L 5113 2094 
Q 5113 2597 4934 2840 
Q 4756 3084 4391 3084 
Q 3944 3084 3684 2787 
Q 3425 2491 3425 1978 
L 3425 0 
L 2847 0 
L 2847 2094 
Q 2847 2600 2669 2842 
Q 2491 3084 2119 3084 
Q 1678 3084 1418 2786 
Q 1159 2488 1159 1978 
L 1159 0 
L 581 0 
L 581 3500 
L 1159 3500 
L 1159 2956 
Q 1356 3278 1631 3431 
Q 1906 3584 2284 3584 
Q 2666 3584 2933 3390 
Q 3200 3197 3328 2828 
z
" transform="scale(0.015625)"/>
       <path id="DejaVuSans-5d" d="M 1947 4863 
L 1947 -844 
L 622 -844 
L 622 -397 
L 1369 -397 
L 1369 4416 
L 622 4416 
L 622 4863 
L 1947 4863 
z
" transform="scale(0.015625)"/>
      </defs>
      <use xlink:href="#DejaVuSans-64"/>
      <use xlink:href="#DejaVuSans-69" transform="translate(63.476562 0)"/>
      <use xlink:href="#DejaVuSans-73" transform="translate(91.259766 0)"/>
      <use xlink:href="#DejaVuSans-74" transform="translate(143.359375 0)"/>
      <use xlink:href="#DejaVuSans-61" transform="translate(182.568359 0)"/>
      <use xlink:href="#DejaVuSans-6e" transform="translate(243.847656 0)"/>
      <use xlink:href="#DejaVuSans-63" transform="translate(307.226562 0)"/>
      <use xlink:href="#DejaVuSans-65" transform="translate(362.207031 0)"/>
      <use xlink:href="#DejaVuSans-20" transform="translate(423.730469 0)"/>
      <use xlink:href="#DejaVuSans-73" transform="translate(455.517578 0)"/>
      <use xlink:href="#DejaVuSans-20" transform="translate(507.617188 0)"/>
      <use xlink:href="#DejaVuSans-5b" transform="translate(539.404297 0)"/>
      <use xlink:href="#DejaVuSans-6b" transform="translate(578.417969 0)"/>
      <use xlink:href="#DejaVuSans-6d" transform="translate(636.328125 0)"/>
      <use xlink:href="#DejaVuSans-5d" transform="translate(733.740234 0)"/>
     </g>
    </g>
   </g>
   <g id="matplotlib.axis_2">
    <g id="ytick_1">
     <g id="line2d_11">
      <path d="M 56.09 236.501433 
L 709.2 236.501433 
" clip-path="url(#p3ac298fb55)" style="fill: none; stroke: #b0b0b0; stroke-opacity: 0.3; stroke-width: 0.8; stroke-linecap: square"/>
     </g>
     <g id="line2d_12">
      <defs>
       <path id="m37f62f0e4b" d="M 0 0 
L -3.5 0 
" style="stroke: #000000; stroke-width: 0.8"/>
      </defs>
      <g>
       <use xlink:href="#m37f62f0e4b" x="56.09" y="236.501433" style="stroke: #000000; stroke-width: 0.8"/>
      </g>
     </g>
     <g id="text_7">
      <!-- −2.0 -->
      <g transform="translate(24.807188 240.300652) scale(0.1 -0.1)">
       <defs>
        <path id="DejaVuSans-2212" d="M 678 2272 
L 4684 2272 
L 4684 1741 
L 678 1741 
L 678 2272 
z
" transform="scale(0.015625)"/>
       </defs>
       <use xlink:href="#DejaVuSans-2212"/>
       <use xlink:href="#DejaVuSans-32" transform="translate(83.789062 0)"/>
       <use xlink:href="#DejaVuSans-2e" transform="translate(147.412109 0)"/>
       <use xlink:href="#DejaVuSans-30" transform="translate(179.199219 0)"/>
      </g>
     </g>
    </g>
    <g id="ytick_2">
     <g id="line2d_13">
      <path d="M 56.09 211.278975 
L 709.2 211.278975 
" clip-path="url(#p3ac298fb55)" style="fill: none; stroke: #b0b0b0; stroke-opacity: 0.3; stroke-width: 0.8; stroke-linecap: square"/>
     </g>
     <g id="line2d_14">
      <g>
       <use xlink:href="#m37f62f0e4b" x="56.09" y="211.278975" style="stroke: #000000; stroke-width: 0.8"/>
      </g>
     </g>
     <g id="text_8">
      <!-- −1.5 -->
      <g transform="translate(24.807188 215.078194) scale(0.1 -0.1)">
       <use xlink:href="#DejaVuSans-2212"/>
       <use xlink:href="#DejaVuSans-31" transform="translate(83.789062 0)"/>
       <use xlink:href="#DejaVuSans-2e" transform="translate(147.412109 0)"/>
       <use xlink:href="#DejaVuSans-35" transform="translate(179.199219 0)"/>
      </g>
     </g>
    </g>
    <g id="ytick_3">
     <g id="line2d_15">
      <path d="M 56.09 186.056516 
L 709.2 186.056516 
" clip-path="url(#p3ac298fb55)" style="fill: none; stroke: #b0b0b0; stroke-opacity: 0.3; stroke-width: 0.8; stroke-linecap: square"/>
     </g>
     <g id="line2d_16">
      <g>
       <use xlink:href="#m37f62f0e4b" x="56.09" y="186.056516" style="stroke: #000000; stroke-width: 0.8"/>
      </g>
     </g>
     <g id="text_9">
      <!-- −1.0 -->
      <g transform="translate(24.807188 189.855735) scale(0.1 -0.1)">
       <use xlink:href="#DejaVuSans-2212"/>
       <use xlink:href="#DejaVuSans-31" transform="translate(83.789062 0)"/>
       <use xlink:href="#DejaVuSans-2e" transform="translate(147.412109 0)"/>
       <use xlink:href="#DejaVuSans-30" transform="translate(179.199219 0)"/>
      </g>
     </g>
    </g>
    <g id="ytick_4">
     <g id="line2d_17">
      <path d="M 56.09 160.834058 
L 709.2 160.834058 
" clip-path="url(#p3ac298fb55)" style="fill: none; stroke: #b0b0b0; stroke-opacity: 0.3; stroke-width: 0.8; stroke-linecap: square"/>
     </g>
     <g id="line2d_18">
      <g>
       <use xlink:href="#m37f62f0e4b" x="56.09" y="160.834058" style="stroke: #000000; stroke-width: 0.8"/>
      </g>
     </g>
     <g id="text_10">
      <!-- −0.5 -->
      <g transform="translate(24.807188 164.633277) scale(0.1 -0.1)">
       <use xlink:href="#DejaVuSans-2212"/>
       <use xlink:href="#DejaVuSans-30" transform="translate(83.789062 0)"/>
       <use xlink:href="#DejaVuSans-2e" transform="translate(147.412109 0)"/>
       <use xlink:href="#DejaVuSans-35" transform="translate(179.199219 0)"/>
      </g>
     </g>
    </g>
    <g id="ytick_5">
     <g id="line2d_19">
      <path d="M 56.09 135.6116 
L 709.2 135.6116 
" clip-path="url(#p3ac298fb55)" style="fill: none; stroke: #b0b0b0; stroke-opacity: 0.3; stroke-width: 0.8; stroke-linecap: square"/>
     </g>
     <g id="line2d_20">
      <g>
       <use xlink:href="#m37f62f0e4b" x="56.09" y="135.6116" style="stroke: #000000; stroke-width: 0.8"/>
      </g>
     </g>
     <g id="text_11">
      <!-- 0.0 -->
      <g transform="translate(33.186875 139.410818) scale(0.1 -0.1)">
       <use xlink:href="#DejaVuSans-30"/>
       <use xlink:href="#DejaVuSans-2e" transform="translate(63.623047 0)"/>
       <use xlink:href="#DejaVuSans-30" transform="translate(95.410156 0)"/>
      </g>
     </g>
    </g>
    <g id="ytick_6">
     <g id="line2d_21">
      <path d="M 56.09 110.389141 
L 709.2 110.389141 
" clip-path="url(#p3ac298fb55)" style="fill: none; stroke: #b0b0b0; stroke-opacity: 0.3; stroke-width: 0.8; stroke-linecap: square"/>
     </g>
     <g id="line2d_22">
      <g>
       <use xlink:href="#m37f62f0e4b" x="56.09" y="110.389141" style="stroke: #000000; stroke-width: 0.8"/>
      </g>
     </g>
     <g id="text_12">
      <!-- 0.5 -->
      <g transform="translate(33.186875 114.18836) scale(0.1 -0.1)">
       <use xlink:href="#DejaVuSans-30"/>
       <use xlink:href="#DejaVuSans-2e" transform="translate(63.623047 0)"/>
       <use xlink:href="#DejaVuSans-35" transform="translate(95.410156 0)"/>
      </g>
     </g>
    </g>
    <g id="ytick_7">
     <g id="line2d_23">
      <path d="M 56.09 85.166683 
L 709.2 85.166683 
" clip-path="url(#p3ac298fb55)" style="fill: none; stroke: #b0b0b0; stroke-opacity: 0.3; stroke-width: 0.8; stroke-linecap: square"/>
     </g>
     <g id="line2d_24">
      <g>
       <use xlink:href="#m37f62f0e4b" x="56.09" y="85.166683" style="stroke: #000000; stroke-width: 0.8"/>
      </g>
     </g>
     <g id="text_13">
      <!-- 1.0 -->
      <g transform="translate(33.186875 88.965901) scale(0.1 -0.1)">
       <use xlink:href="#DejaVuSans-31"/>
       <use xlink:href="#DejaVuSans-2e" transform="translate(63.623047 0)"/>
       <use xlink:href="#DejaVuSans-30" transform="translate(95.410156 0)"/>
      </g>
     </g>
    </g>
    <g id="ytick_8">
     <g id="line2d_25">
      <path d="M 56.09 59.944224 
L 709.2 59.944224 
" clip-path="url(#p3ac298fb55)" style="fill: none; stroke: #b0b0b0; stroke-opacity: 0.3; stroke-width: 0.8; stroke-linecap: square"/>
     </g>
     <g id="line2d_26">
      <g>
       <use xlink:href="#m37f62f0e4b" x="56.09" y="59.944224" style="stroke: #000000; stroke-width: 0.8"/>
      </g>
     </g>
     <g id="text_14">
      <!-- 1.5 -->
      <g transform="translate(33.186875 63.743443) scale(0.1 -0.1)">
       <use xlink:href="#DejaVuSans-31"/>
       <use xlink:href="#DejaVuSans-2e" transform="translate(63.623047 0)"/>
       <use xlink:href="#DejaVuSans-35" transform="translate(95.410156 0)"/>
      </g>
     </g>
    </g>
    <g id="ytick_9">
     <g id="line2d_27">
      <path d="M 56.09 34.721766 
L 709.2 34.721766 
" clip-path="url(#p3ac298fb55)" style="fill: none; stroke: #b0b0b0; stroke-opacity: 0.3; stroke-width: 0.8; stroke-linecap: square"/>
     </g>
     <g id="line2d_28">
      <g>
       <use xlink:href="#m37f62f0e4b" x="56.09" y="34.721766" style="stroke: #000000; stroke-width: 0.8"/>
      </g>
     </g>
     <g id="text_15">
      <!-- 2.0 -->
      <g transform="translate(33.186875 38.520984) scale(0.1 -0.1)">
       <use xlink:href="#DejaVuSans-32"/>
       <use xlink:href="#DejaVuSans-2e" transform="translate(63.623047 0)"/>
       <use xlink:href="#DejaVuSans-30" transform="translate(95.410156 0)"/>
      </g>
     </g>
    </g>
    <g id="text_16">
     <!-- tie-rod force [kN] -->
     <g transform="translate(18.7275 179.170156) rotate(-90) scale(0.1 -0.1)">
      <defs>
       <path id="DejaVuSans-2d" d="M 313 2009 
L 1997 2009 
L 1997 1497 
L 313 1497 
L 313 2009 
z
" transform="scale(0.015625)"/>
       <path id="DejaVuSans-72" d="M 2631 2963 
Q 2534 3019 2420 3045 
Q 2306 3072 2169 3072 
Q 1681 3072 1420 2755 
Q 1159 2438 1159 1844 
L 1159 0 
L 581 0 
L 581 3500 
L 1159 3500 
L 1159 2956 
Q 1341 3275 1631 3429 
Q 1922 3584 2338 3584 
Q 2397 3584 2469 3576 
Q 2541 3569 2628 3553 
L 2631 2963 
z
" transform="scale(0.015625)"/>
       <path id="DejaVuSans-6f" d="M 1959 3097 
Q 1497 3097 1228 2736 
Q 959 2375 959 1747 
Q 959 1119 1226 758 
Q 1494 397 1959 397 
Q 2419 397 2687 759 
Q 2956 1122 2956 1747 
Q 2956 2369 2687 2733 
Q 2419 3097 1959 3097 
z
M 1959 3584 
Q 2709 3584 3137 3096 
Q 3566 2609 3566 1747 
Q 3566 888 3137 398 
Q 2709 -91 1959 -91 
Q 1206 -91 779 398 
Q 353 888 353 1747 
Q 353 2609 779 3096 
Q 1206 3584 1959 3584 
z
" transform="scale(0.015625)"/>
       <path id="DejaVuSans-66" d="M 2375 4863 
L 2375 4384 
L 1825 4384 
Q 1516 4384 1395 4259 
Q 1275 4134 1275 3809 
L 1275 3500 
L 2222 3500 
L 2222 3053 
L 1275 3053 
L 1275 0 
L 697 0 
L 697 3053 
L 147 3053 
L 147 3500 
L 697 3500 
L 697 3744 
Q 697 4328 969 4595 
Q 1241 4863 1831 4863 
L 2375 4863 
z
" transform="scale(0.015625)"/>
       <path id="DejaVuSans-4e" d="M 628 4666 
L 1478 4666 
L 3547 763 
L 3547 4666 
L 4159 4666 
L 4159 0 
L 3309 0 
L 1241 3903 
L 1241 0 
L 628 0 
L 628 4666 
z
" transform="scale(0.015625)"/>
      </defs>
      <use xlink:href="#DejaVuSans-74"/>
      <use xlink:href="#DejaVuSans-69" transform="translate(39.208984 0)"/>
      <use xlink:href="#DejaVuSans-65" transform="translate(66.992188 0)"/>
      <use xlink:href="#DejaVuSans-2d" transform="translate(128.515625 0)"/>
      <use xlink:href="#DejaVuSans-72" transform="translate(164.599609 0)"/>
      <use xlink:href="#DejaVuSans-6f" transform="translate(203.462891 0)"/>
      <use xlink:href="#DejaVuSans-64" transform="translate(264.644531 0)"/>
      <use xlink:href="#DejaVuSans-20" transform="translate(328.121094 0)"/>
      <use xlink:href="#DejaVuSans-66" transform="translate(359.908203 0)"/>
      <use xlink:href="#DejaVuSans-6f" transform="translate(395.113281 0)"/>
      <use xlink:href="#DejaVuSans-72" transform="translate(456.294922 0)"/>
      <use xlink:href="#DejaVuSans-63" transform="translate(495.158203 0)"/>
      <use xlink:href="#DejaVuSans-65" transform="translate(550.138672 0)"/>
      <use xlink:href="#DejaVuSans-20" transform="translate(611.662109 0)"/>
      <use xlink:href="#DejaVuSans-5b" transform="translate(643.449219 0)"/>
      <use xlink:href="#DejaVuSans-6b" transform="translate(682.462891 0)"/>
      <use xlink:href="#DejaVuSans-4e" transform="translate(740.373047 0)"/>
      <use xlink:href="#DejaVuSans-5d" transform="translate(815.177734 0)"/>
     </g>
    </g>
   </g>
   <g id="line2d_29">
    <path d="M 85.776818 135.6116 
L 86.333953 150.54371 
L 86.892458 152.32482 
L 87.452324 138.075049 
L 88.013572 120.781146 
L 88.576177 116.2336 
L 89.140123 123.707943 
L 89.705434 139.878618 
L 90.272117 148.529497 
L 90.840153 143.403092 
L 91.409545 126.218536 
L 91.980278 114.573314 
L 92.552297 112.752666 
L 93.125575 118.514604 
L 94.275998 139.924377 
L 94.853163 137.153733 
L 95.431619 125.031104 
L 96.01133 116.438881 
L 96.592241 114.959822 
L 97.174327 120.024168 
L 98.342177 141.776295 
L 98.927983 141.516339 
L 100.101782 121.753775 
L 100.688637 120.071755 
L 101.274788 127.536078 
L 101.859834 142.001973 
L 102.443406 150.543435 
L 103.025144 149.510895 
L 104.181775 130.388031 
L 104.756016 130.400839 
L 105.894908 153.490436 
L 106.459051 159.921567 
L 107.019309 158.852673 
L 108.127267 144.055059 
L 108.674564 142.908945 
L 109.217153 150.024304 
L 109.754848 159.832283 
L 110.287455 166.67964 
L 110.814771 168.214117 
L 111.336595 164.616711 
L 111.85277 158.429696 
L 112.36319 154.212395 
L 112.867726 155.694427 
L 114.344693 175.446638 
L 114.824509 177.619075 
L 115.298091 175.740048 
L 116.227283 166.147465 
L 116.683427 165.440669 
L 117.13427 169.37243 
L 118.020757 180.964548 
L 118.45667 184.15377 
L 118.887972 184.903044 
L 119.314991 184.31985 
L 119.738089 183.994378 
L 120.157622 184.948567 
L 121.398192 190.503548 
L 121.806816 191.703077 
L 122.213621 193.898268 
L 122.619033 198.379782 
L 123.830565 216.303338 
L 124.636015 223.087684 
L 125.837411 229.871823 
L 126.626302 233.061853 
L 127.400052 234.905755 
L 128.157433 235.819891 
L 128.530247 236.022283 
L 128.899497 236.078182 
L 129.265533 235.993435 
L 129.628725 235.768884 
L 130.34799 234.904853 
L 131.059908 233.476881 
L 132.11862 230.476214 
L 133.170023 227.54834 
L 133.868111 226.281448 
L 134.564672 225.613652 
L 136.306751 224.661319 
L 137.007811 223.764285 
L 137.713339 222.27756 
L 138.424065 220.135378 
L 139.140441 217.447426 
L 139.86325 213.940583 
L 140.59334 208.867607 
L 142.454967 193.822316 
L 143.214433 190.410009 
L 143.596926 189.311818 
L 143.981026 188.554981 
L 144.366558 188.10969 
L 145.530492 187.372384 
L 146.311784 186.660803 
L 146.703832 187.020719 
L 147.096706 188.494158 
L 147.884668 193.994513 
L 148.675224 199.350736 
L 152.251772 217.355884 
L 153.444118 221.131141 
L 154.237504 222.850912 
L 155.029705 223.899191 
L 155.820994 224.461913 
L 156.611895 224.6657 
L 157.798105 224.605148 
L 160.175494 224.29767 
L 162.97317 224.359335 
L 163.374865 224.191379 
L 163.776936 223.83742 
L 164.179421 223.221535 
L 164.98591 221.246548 
L 165.795412 218.840855 
L 166.609504 215.387597 
L 167.429161 211.273237 
L 168.255041 208.734436 
L 169.087631 206.435217 
L 170.349994 202.075056 
L 170.774502 201.928364 
L 171.628927 203.245284 
L 172.058754 203.535877 
L 172.923405 203.610934 
L 173.358096 204.032295 
L 175.110898 206.614966 
L 175.994798 207.140324 
L 176.438448 207.818114 
L 177.328945 209.798739 
L 177.775718 210.468131 
L 178.672221 211.099588 
L 179.572734 211.463202 
L 180.024525 211.495145 
L 180.477318 211.373036 
L 181.841569 210.379238 
L 182.298175 210.557581 
L 183.21398 211.882114 
L 183.67318 212.304432 
L 184.133253 212.485627 
L 184.59424 212.448446 
L 185.056216 212.153745 
L 185.51923 211.508035 
L 185.98328 210.43736 
L 186.448379 208.913983 
L 187.85027 202.837293 
L 188.319821 201.878062 
L 188.790529 201.691966 
L 189.262386 201.674336 
L 189.735402 201.538406 
L 190.209703 200.899162 
L 190.685475 199.201855 
L 191.162841 195.911485 
L 191.641901 190.637737 
L 192.605531 174.379469 
L 193.090253 166.717523 
L 193.576789 164.316537 
L 194.064927 167.124073 
L 194.554614 171.244655 
L 195.045857 173.129836 
L 195.538635 171.372332 
L 196.033056 165.694001 
L 197.027583 147.045852 
L 197.527889 141.952008 
L 198.030249 144.330724 
L 198.534661 150.048042 
L 199.041055 153.682064 
L 199.549334 152.5165 
L 200.05942 146.211746 
L 200.571258 137.719917 
L 201.084828 132.942983 
L 201.600111 134.891773 
L 202.117085 140.701243 
L 202.63573 144.606762 
L 203.156029 143.636808 
L 204.201568 132.120687 
L 204.726806 130.540499 
L 205.253683 134.110074 
L 205.782185 139.718863 
L 206.312297 142.457843 
L 206.844005 140.540826 
L 207.912192 130.995734 
L 208.448668 131.027095 
L 209.526342 139.07564 
L 210.067515 139.928887 
L 210.610233 136.596692 
L 211.154493 131.475352 
L 211.700294 128.628376 
L 212.247629 129.455039 
L 213.346871 135.351105 
L 213.898761 134.499995 
L 215.007041 126.574855 
L 215.563415 124.892656 
L 216.121265 125.911043 
L 216.680581 128.318305 
L 217.241353 129.789413 
L 217.803571 128.682069 
L 218.932259 122.979437 
L 219.498676 122.045936 
L 220.066423 122.877029 
L 220.635446 123.978727 
L 221.20569 123.33604 
L 221.777068 120.564769 
L 222.349295 117.11043 
L 222.922022 114.437496 
L 223.49495 113.231784 
L 224.067811 113.406857 
L 224.640313 114.119033 
L 225.212141 114.058694 
L 226.35243 111.211478 
L 226.920169 110.858674 
L 227.485813 111.553914 
L 229.168148 114.764558 
L 229.723647 115.50321 
L 230.826103 116.442955 
L 231.91553 117.29911 
L 233.522098 118.748562 
L 236.634506 120.969984 
L 237.642164 121.561739 
L 238.634932 121.960592 
L 242.918616 123.016057 
L 244.285597 123.163812 
L 245.184589 123.486753 
L 246.075745 124.153868 
L 247.400426 125.669639 
L 249.150595 127.606867 
L 250.021459 128.452864 
L 250.889688 128.98575 
L 251.754019 129.06041 
L 253.039949 128.967176 
L 253.465873 129.0998 
L 254.315147 129.724336 
L 255.163673 130.537484 
L 255.588768 130.778887 
L 256.014936 130.753044 
L 256.442445 130.377719 
L 256.871449 129.655926 
L 257.734203 127.527513 
L 259.040581 123.256359 
L 259.479442 121.813806 
L 259.92017 120.95435 
L 260.362899 122.30956 
L 261.254793 134.41772 
L 261.704048 133.05856 
L 262.155488 125.385892 
L 262.609064 119.597194 
L 263.064718 118.539363 
L 263.522431 122.639136 
L 264.444083 139.428435 
L 264.907984 138.214281 
L 265.841717 122.564985 
L 266.311479 122.226676 
L 266.783158 128.629688 
L 267.256759 138.580086 
L 267.732277 143.406072 
L 268.2097 140.780951 
L 268.689026 132.941578 
L 269.170255 127.698398 
L 269.653379 129.367117 
L 270.62526 146.281152 
L 271.113787 149.570004 
L 271.603641 147.105586 
L 272.094642 141.331447 
L 272.586719 137.823369 
L 273.079802 140.634094 
L 274.068696 153.684625 
L 274.564385 156.062068 
L 275.060875 154.501625 
L 275.558182 150.947233 
L 276.056346 148.928562 
L 276.555429 151.381673 
L 277.556559 163.72443 
L 278.058695 168.141101 
L 278.561938 170.573876 
L 279.066339 172.220303 
L 279.571909 174.628478 
L 280.585941 182.493261 
L 281.60074 193.078129 
L 283.112055 209.138539 
L 284.106158 216.551565 
L 285.087977 222.150301 
L 286.057826 226.446275 
L 287.016876 229.244694 
L 287.966484 231.091218 
L 288.907864 232.326442 
L 289.375859 232.663246 
L 289.842265 232.821167 
L 290.307249 232.822303 
L 291.233434 232.451861 
L 293.522572 230.964983 
L 293.974377 230.870048 
L 294.424016 230.930884 
L 295.317544 231.394283 
L 296.204148 231.873718 
L 296.64516 231.988977 
L 297.084686 231.97864 
L 297.522542 231.829487 
L 297.958544 231.524183 
L 298.392608 231.028758 
L 300.53679 227.759466 
L 302.225879 225.567818 
L 303.062553 224.360749 
L 303.479276 223.432414 
L 303.895092 222.066456 
L 305.552235 214.464656 
L 305.965713 213.370399 
L 306.792518 211.98441 
L 307.206043 211.542741 
L 307.619773 211.553066 
L 308.033782 212.279564 
L 309.277751 216.096756 
L 309.693051 216.727183 
L 310.940828 217.718732 
L 311.773826 219.235122 
L 312.607027 220.674933 
L 313.856473 222.122817 
L 314.689119 223.37356 
L 315.520631 224.12921 
L 316.349897 224.408123 
L 317.175617 224.416442 
L 318.817958 224.147333 
L 319.227855 224.004954 
L 319.637925 223.744648 
L 320.048356 223.28782 
L 320.459294 222.542971 
L 320.870848 221.432072 
L 321.28313 219.888176 
L 322.110397 215.383245 
L 323.360153 205.929768 
L 324.200946 197.915952 
L 324.624117 192.177941 
L 325.476711 175.936555 
L 326.338428 158.161376 
L 326.772955 151.956288 
L 327.649659 144.793001 
L 328.091839 140.896229 
L 329.433103 124.041955 
L 329.884761 122.506653 
L 330.33852 123.139484 
L 330.794319 124.160888 
L 331.252092 124.242735 
L 331.711809 123.31107 
L 332.637223 120.451011 
L 333.102957 119.672708 
L 333.5707 119.783653 
L 334.512226 121.183597 
L 334.985986 121.245793 
L 335.939173 120.605235 
L 336.418506 120.422417 
L 336.899691 120.083668 
L 337.867655 118.851597 
L 338.843198 117.050776 
L 339.333776 116.1278 
L 339.826056 115.610668 
L 340.319726 115.391138 
L 340.814269 115.446143 
L 341.309202 115.711388 
L 341.804151 115.847174 
L 342.29878 115.653544 
L 343.777903 114.343963 
L 344.757953 114.044529 
L 346.217085 113.898584 
L 346.700541 113.98228 
L 347.182572 114.203368 
L 347.663192 114.579821 
L 348.620202 115.759657 
L 350.517719 118.940045 
L 352.862379 122.643945 
L 356.546678 128.081131 
L 358.351452 130.508064 
L 359.247577 131.428717 
L 360.14195 132.047552 
L 361.035894 132.31357 
L 361.929839 132.216487 
L 362.822953 131.830171 
L 364.60393 130.909457 
L 367.261592 129.969433 
L 368.143704 129.323599 
L 369.023046 128.323198 
L 370.334169 126.223539 
L 372.487629 122.659836 
L 373.755825 120.922481 
L 374.590925 120.207452 
L 375.830359 119.585906 
L 377.057523 119.271309 
L 379.89468 118.906385 
L 381.112311 119.114029 
L 381.520542 119.333753 
L 381.930218 119.696746 
L 382.753888 120.927144 
L 383.9935 123.65904 
L 386.440877 129.437076 
L 387.246834 130.619157 
L 388.050139 131.222638 
L 388.451155 131.315338 
L 388.851796 131.273865 
L 389.252179 131.098777 
L 389.65254 130.777717 
L 390.05321 130.279694 
L 390.454535 129.555816 
L 391.26041 127.368178 
L 391.665548 126.820438 
L 392.072487 127.811389 
L 392.481327 129.254943 
L 392.891762 128.574491 
L 393.303227 126.149501 
L 393.715204 125.291144 
L 394.127247 130.049621 
L 394.949817 153.740598 
L 395.35953 159.519349 
L 395.767759 159.862874 
L 396.579032 153.491764 
L 396.981857 154.844572 
L 398.178381 169.437743 
L 398.573217 169.665176 
L 398.966185 167.516922 
L 399.357447 164.597553 
L 399.747206 162.822055 
L 400.135692 163.431846 
L 401.68302 172.939966 
L 402.847367 178.191648 
L 403.629826 181.661597 
L 404.023049 184.553712 
L 404.812886 193.767772 
L 405.998511 210.744812 
L 406.781298 218.456174 
L 407.552217 223.575753 
L 408.308761 227.33772 
L 409.051424 230.120609 
L 409.782266 231.857555 
L 410.144006 232.359111 
L 410.50377 232.658066 
L 410.861849 232.758563 
L 411.21846 232.6624 
L 411.573769 232.385102 
L 412.281053 231.390972 
L 414.728134 226.902524 
L 415.418827 226.264058 
L 416.106365 225.980778 
L 417.475815 225.662638 
L 418.159938 225.273561 
L 418.845135 224.640119 
L 419.876947 223.33224 
L 421.612755 220.823957 
L 422.313979 219.360788 
L 422.666361 218.184787 
L 423.020089 216.433987 
L 423.375319 213.873937 
L 424.090968 205.995257 
L 427.041294 166.554684 
L 428.576331 149.934851 
L 428.966591 147.797548 
L 429.359447 147.315052 
L 429.754887 147.604358 
L 430.152899 147.400121 
L 430.553479 146.083267 
L 431.362307 142.301515 
L 431.770512 141.815714 
L 432.181208 142.588614 
L 433.009867 145.324686 
L 433.427681 145.876437 
L 433.847694 145.659777 
L 434.26982 145.270624 
L 434.694022 145.473238 
L 435.120314 146.485377 
L 435.979175 148.928021 
L 436.411873 149.076478 
L 436.846908 148.096723 
L 437.724157 145.294392 
L 438.166348 145.270869 
L 438.610901 145.921501 
L 439.05779 146.137612 
L 439.506959 145.222142 
L 440.867455 139.790095 
L 441.325131 139.436149 
L 441.784859 139.533023 
L 442.246619 139.254186 
L 442.710392 138.177178 
L 443.643927 135.158947 
L 444.113663 134.618497 
L 444.585361 134.89586 
L 445.059008 135.398931 
L 445.534593 135.482921 
L 446.012104 134.957539 
L 446.491529 134.204551 
L 446.972855 133.851695 
L 447.456071 134.319377 
L 448.428125 136.414108 
L 448.916941 137.020462 
L 449.89982 137.384111 
L 450.39319 138.146438 
L 452.368956 143.722364 
L 452.861419 144.604895 
L 453.352502 145.730842 
L 453.841799 147.451282 
L 455.773514 156.143455 
L 457.186919 160.959353 
L 458.563333 166.385248 
L 461.186776 178.321296 
L 461.606587 179.687292 
L 462.021523 180.172092 
L 463.237785 180.039069 
L 463.634126 180.460994 
L 464.02617 181.652322 
L 465.178359 186.407406 
L 465.928995 187.813408 
L 466.30004 188.415939 
L 466.668841 189.289425 
L 467.03595 190.64452 
L 467.767067 194.731879 
L 468.49697 200.367635 
L 469.595692 211.907207 
L 470.331234 219.043122 
L 471.064397 224.614403 
L 471.790274 228.986059 
L 472.504816 231.961302 
L 473.205266 233.507086 
L 473.550186 233.867642 
L 473.891741 234.00161 
L 474.23012 233.933443 
L 474.565553 233.682939 
L 475.228604 232.708679 
L 475.882964 231.24287 
L 477.813089 226.205006 
L 478.451099 225.175027 
L 479.089144 224.575386 
L 480.049456 223.840349 
L 480.693684 222.876074 
L 481.342461 221.305728 
L 481.996836 219.109814 
L 482.657736 216.2941 
L 483.326085 212.025131 
L 484.002781 204.794414 
L 484.688716 194.070752 
L 485.736458 176.933393 
L 486.090909 173.792698 
L 486.447951 172.703294 
L 487.169692 172.924019 
L 487.534302 172.164233 
L 488.270717 168.917914 
L 488.642429 167.206923 
L 489.016421 166.060271 
L 489.392646 166.093429 
L 489.77106 167.372212 
L 490.534319 171.274746 
L 490.919132 172.432204 
L 491.306049 172.713916 
L 491.695018 172.527747 
L 492.08593 172.830252 
L 492.478701 174.217085 
L 493.269778 178.35443 
L 493.668083 179.744618 
L 494.068256 180.429948 
L 494.470378 180.479903 
L 494.874606 179.777816 
L 496.100641 175.552298 
L 496.513705 175.480421 
L 496.928959 175.870292 
L 497.346395 175.960816 
L 497.765991 175.180697 
L 498.187749 173.32094 
L 498.611718 170.416793 
L 500.331553 156.115911 
L 500.767569 155.051917 
L 501.205884 154.624736 
L 501.646318 153.99815 
L 502.088744 152.668657 
L 503.427738 145.491152 
L 503.877955 144.935523 
L 504.784319 147.102826 
L 505.240639 146.965565 
L 505.699158 145.012989 
L 506.159904 142.233258 
L 506.622901 140.160231 
L 507.08813 139.79273 
L 508.025049 142.089545 
L 508.496641 141.816215 
L 508.970246 139.960865 
L 509.44582 137.498705 
L 509.923336 135.827535 
L 510.402768 135.865251 
L 510.884096 137.044211 
L 511.367305 137.900622 
L 511.852379 137.491626 
L 512.828064 134.304569 
L 513.318649 133.801433 
L 513.811039 134.729863 
L 514.305215 136.402661 
L 514.801166 137.638775 
L 515.298874 137.852912 
L 516.299559 136.818119 
L 516.802546 137.184159 
L 517.813836 139.733163 
L 518.322148 139.944774 
L 518.832233 139.011888 
L 519.34408 137.748413 
L 519.85768 137.055493 
L 520.373015 137.295637 
L 520.890063 138.091313 
L 521.408806 138.577726 
L 521.929225 138.178239 
L 522.975037 135.599215 
L 523.500409 134.875238 
L 524.027412 135.109451 
L 524.556038 135.786405 
L 525.086277 136.108127 
L 525.618119 135.622512 
L 526.686584 133.81328 
L 527.223189 133.822957 
L 527.761365 134.745841 
L 528.301103 136.085918 
L 528.842397 137.046015 
L 529.38524 137.223978 
L 529.929625 137.008638 
L 530.475541 137.193689 
L 531.571924 139.294952 
L 532.122368 139.768569 
L 532.674302 139.301147 
L 533.227719 138.534746 
L 533.782616 138.309528 
L 534.338987 138.853841 
L 534.896827 139.68346 
L 535.456129 140.122877 
L 536.016883 139.802722 
L 537.142716 138.074903 
L 537.707779 137.75013 
L 538.274264 138.017294 
L 538.842162 138.526174 
L 539.411466 138.72165 
L 539.982169 138.300999 
L 541.127739 136.720518 
L 541.702593 136.719208 
L 542.278814 137.468379 
L 544.015604 141.607837 
L 546.349863 145.149047 
L 546.936648 144.827325 
L 547.524717 144.03676 
L 548.114075 143.901565 
L 548.704734 144.750254 
L 549.296703 145.885984 
L 549.889978 146.446092 
L 550.484544 146.320337 
L 551.080384 145.673224 
L 552.275842 143.815262 
L 552.875442 143.408327 
L 553.476278 143.549463 
L 554.078341 143.892225 
L 554.681623 143.883491 
L 555.286117 143.328478 
L 557.106803 140.739886 
L 557.716082 140.812172 
L 558.326553 141.559412 
L 558.938224 143.420486 
L 561.397272 154.074982 
L 562.015051 155.046263 
L 562.633896 154.753582 
L 563.87456 151.272553 
L 564.496382 151.063304 
L 565.119244 152.38437 
L 565.743179 154.221974 
L 566.368196 155.638954 
L 566.994274 156.390644 
L 567.621387 156.596876 
L 568.249515 156.311876 
L 568.878637 156.159615 
L 569.508729 156.988874 
L 570.139769 158.516394 
L 570.771736 159.568626 
L 571.404655 158.359663 
L 572.673514 151.11202 
L 573.309542 149.859058 
L 573.946697 151.228105 
L 575.224304 155.585626 
L 575.864599 156.457016 
L 576.50583 155.320152 
L 577.791062 148.9644 
L 578.435061 148.080287 
L 579.726027 151.530224 
L 580.373109 151.361535 
L 581.021297 149.259605 
L 581.670585 146.618528 
L 582.320965 145.051357 
L 582.972417 145.314901 
L 584.278346 148.68071 
L 584.932747 148.840653 
L 586.244263 145.910927 
L 586.901349 146.132099 
L 587.559335 148.224972 
L 588.218229 151.045465 
L 588.878052 153.15175 
L 589.538848 153.089197 
L 590.200644 150.742731 
L 590.863453 147.664008 
L 591.527258 146.373504 
L 592.192022 148.293288 
L 593.524257 155.116269 
L 594.191639 156.477999 
L 594.859842 156.394822 
L 595.528908 155.625875 
L 596.198888 155.0674 
L 596.86982 155.616827 
L 599.562909 162.444223 
L 600.238353 164.605951 
L 600.914572 167.603816 
L 601.591476 171.230599 
L 602.268934 174.209935 
L 602.946822 176.009116 
L 603.625051 176.82246 
L 604.303588 176.77369 
L 604.982472 175.662474 
L 605.661796 174.273012 
L 606.341687 173.320516 
L 607.022292 172.882004 
L 607.703711 172.603983 
L 608.385944 172.458034 
L 609.752494 173.451575 
L 610.436674 172.884852 
L 611.121405 170.677476 
L 611.806722 166.916861 
L 613.86727 151.55025 
L 614.555926 149.855636 
L 615.245499 151.191785 
L 615.935963 152.901163 
L 616.627272 152.377058 
L 617.31939 148.569343 
L 618.706046 136.35282 
L 619.400603 134.235417 
L 620.095984 136.3145 
L 620.79219 139.351065 
L 621.489215 139.544743 
L 622.187059 135.6354 
L 622.885727 130.022541 
L 623.585219 126.7086 
L 624.285534 127.321866 
L 625.688327 134.861272 
L 626.390028 135.215514 
L 627.09124 131.65317 
L 627.79149 127.515118 
L 628.49033 125.789998 
L 629.187326 126.589969 
L 629.882066 127.873067 
L 630.574174 127.419859 
L 631.263285 124.312504 
L 631.949035 119.655748 
L 632.631123 116.052533 
L 633.309355 115.690455 
L 633.983597 118.919882 
L 634.653679 123.241431 
L 635.319408 124.426316 
L 635.980607 120.604983 
L 636.637066 114.513478 
L 637.288521 109.795078 
L 637.934748 108.145493 
L 638.575591 109.687698 
L 639.840749 117.533404 
L 640.464925 118.35532 
L 641.083415 114.805243 
L 641.696226 109.357721 
L 642.303451 105.323007 
L 642.905215 103.825422 
L 643.501723 104.447829 
L 644.093249 106.492943 
L 644.68007 109.079996 
L 645.262459 110.923158 
L 645.840673 111.198401 
L 646.414877 109.908622 
L 646.985187 108.023601 
L 647.551742 106.822992 
L 648.114725 106.506478 
L 648.674407 106.764075 
L 649.78546 107.783041 
L 650.888341 109.086889 
L 651.437624 109.954912 
L 651.9858 111.059358 
L 653.07918 113.995119 
L 656.84708 125.551271 
L 657.89223 128.129252 
L 658.92254 130.208064 
L 659.940964 131.794405 
L 660.950714 132.853061 
L 661.453491 133.165505 
L 661.955529 133.322736 
L 662.457292 133.321421 
L 662.959259 133.165417 
L 663.461858 132.861935 
L 664.469654 131.883863 
L 665.479737 130.640918 
L 665.985219 129.906907 
L 666.491173 128.970025 
L 667.5053 126.744703 
L 668.013872 127.099802 
L 668.5238 127.121413 
L 669.035374 124.578233 
L 669.548732 121.13893 
L 670.063919 119.162995 
L 670.580966 120.869686 
L 671.099874 131.504737 
L 671.62066 148.18332 
L 672.143305 155.737687 
L 672.667735 153.93195 
L 673.721811 133.263724 
L 674.251371 134.947679 
L 675.315432 158.32371 
L 675.849901 162.538132 
L 676.385953 158.752619 
L 677.462794 134.715626 
L 678.003565 131.168519 
L 678.545882 138.623877 
L 679.089744 148.513879 
L 679.513182 152.150154 
L 679.513182 152.150154 
" clip-path="url(#p3ac298fb55)" style="fill: none; stroke: #2ca02c; stroke-width: 0.9; stroke-linecap: square"/>
   </g>
   <g id="line2d_30">
    <path d="M 85.776818 135.6116 
L 86.333953 150.375044 
L 86.892458 151.677846 
L 87.452324 137.982811 
L 88.013572 121.352121 
L 88.576177 116.479023 
L 89.140123 123.550412 
L 89.705434 139.890067 
L 90.272117 148.593202 
L 90.840153 143.41447 
L 91.409545 126.052041 
L 91.980278 113.069022 
L 92.552297 109.644969 
L 93.125575 115.858035 
L 93.700133 129.710705 
L 94.275998 140.450057 
L 94.853163 137.312219 
L 95.431619 123.752765 
L 96.01133 112.978834 
L 96.592241 110.315868 
L 97.174327 116.761211 
L 98.342177 142.565856 
L 98.927983 142.060355 
L 100.101782 120.458606 
L 100.688637 118.55619 
L 101.274788 126.969828 
L 101.859834 142.292996 
L 102.443406 150.950857 
L 103.025144 149.546643 
L 104.181775 130.42783 
L 104.756016 130.44417 
L 105.894908 153.04233 
L 106.459051 158.763498 
L 107.019309 157.525271 
L 108.127267 143.871013 
L 108.674564 142.803863 
L 109.217153 149.521925 
L 109.754848 158.23226 
L 110.287455 163.646535 
L 110.814771 164.519374 
L 111.336595 161.59482 
L 111.85277 156.641134 
L 112.36319 153.139515 
L 112.867726 154.436932 
L 113.858591 165.130223 
L 114.344693 168.422474 
L 114.824509 169.153585 
L 115.298091 167.638738 
L 116.227283 161.352416 
L 116.683427 160.752127 
L 117.13427 162.977818 
L 117.579999 165.835034 
L 118.020757 167.491016 
L 118.45667 167.646643 
L 118.887972 166.884411 
L 119.738089 164.96234 
L 120.987349 163.304608 
L 122.619033 159.643439 
L 123.427232 156.652306 
L 124.636015 152.155581 
L 127.400052 143.255722 
L 128.530247 140.487012 
L 129.265533 139.23863 
L 129.989431 138.503173 
L 130.34799 138.347523 
L 130.704718 138.337445 
L 131.059908 138.466513 
L 131.766674 139.075756 
L 133.170023 140.569489 
L 133.519292 140.721725 
L 133.868111 140.729347 
L 134.216545 140.596954 
L 134.912626 140.007407 
L 136.306751 138.524389 
L 137.007811 138.149868 
L 137.359948 138.124855 
L 137.713339 138.217369 
L 138.424065 138.741117 
L 139.140441 139.614234 
L 140.59334 141.869371 
L 142.078281 144.734781 
L 144.753378 150.242062 
L 145.530492 151.168567 
L 146.311784 151.585286 
L 147.096706 151.76983 
L 147.490336 151.703524 
L 147.884668 151.4289 
L 148.675224 150.394797 
L 150.660082 147.075725 
L 152.649484 143.491832 
L 153.840966 141.789419 
L 155.029705 140.474773 
L 156.216461 139.626225 
L 157.402732 139.132151 
L 158.589186 138.963564 
L 163.374865 139.063218 
L 164.179421 139.241994 
L 164.98591 139.608402 
L 165.795412 140.145722 
L 166.609504 140.926696 
L 167.841286 142.644326 
L 169.506574 144.826364 
L 170.349994 145.736895 
L 170.774502 146.054283 
L 171.200834 146.223438 
L 172.058754 146.208991 
L 173.358096 145.860332 
L 175.994798 144.787453 
L 177.328945 144.400667 
L 179.572734 143.669073 
L 180.9311 143.376136 
L 182.298175 143.418603 
L 186.448379 143.763406 
L 187.381857 144.213141 
L 189.262386 145.717036 
L 191.162841 147.37684 
L 192.122758 148.211217 
L 192.605531 148.101209 
L 193.090253 147.64026 
L 193.576789 148.090903 
L 195.045857 153.427554 
L 195.538635 153.648303 
L 196.033056 152.32835 
L 196.529321 148.835855 
L 197.027583 143.650288 
L 197.527889 140.431105 
L 198.030249 142.373704 
L 198.534661 146.780012 
L 199.041055 149.593045 
L 199.549334 148.977713 
L 200.05942 144.399375 
L 200.571258 137.465254 
L 201.084828 133.210378 
L 201.600111 134.937712 
L 202.117085 140.353017 
L 202.63573 144.006067 
L 203.156029 143.141996 
L 204.201568 132.249164 
L 204.726806 130.662815 
L 205.253683 134.128779 
L 205.782185 139.656255 
L 206.312297 142.318197 
L 206.844005 140.426822 
L 207.912192 131.055706 
L 208.448668 131.049095 
L 209.526342 139.061986 
L 210.067515 139.896724 
L 210.610233 136.588963 
L 211.154493 131.483207 
L 211.700294 128.570518 
L 212.247629 129.345315 
L 213.346871 135.349225 
L 213.898761 134.47961 
L 215.007041 126.173409 
L 215.563415 124.235227 
L 216.121265 125.206507 
L 216.680581 127.766871 
L 217.241353 129.346351 
L 217.803571 128.102872 
L 218.932259 121.42667 
L 219.498676 120.107075 
L 220.066423 120.922423 
L 220.635446 122.140445 
L 221.20569 121.252965 
L 221.777068 117.582971 
L 222.922022 107.9474 
L 223.49495 104.926699 
L 224.067811 104.053797 
L 224.640313 104.329729 
L 225.212141 103.229873 
L 225.782963 98.806627 
L 227.485813 78.80231 
L 228.049116 74.608765 
L 228.609933 72.512395 
L 229.168148 71.999488 
L 229.723647 72.215234 
L 230.276348 72.022469 
L 230.826103 70.581962 
L 231.372596 67.026413 
L 232.99037 50.058901 
L 233.522098 46.252556 
L 234.050052 43.573924 
L 234.574357 41.754139 
L 235.094995 40.587154 
L 235.611887 39.971184 
L 236.125057 39.866026 
L 236.634506 40.242726 
L 237.642164 41.883661 
L 238.634932 43.441545 
L 239.125762 43.801383 
L 239.612857 43.659485 
L 240.096173 43.045849 
L 241.992137 39.726832 
L 242.918616 38.715557 
L 243.37706 38.398169 
L 243.832639 38.263729 
L 244.285597 38.326893 
L 244.736172 38.560925 
L 245.184589 38.939893 
L 245.631058 39.469648 
L 246.075745 40.216254 
L 246.9603 42.493184 
L 248.277187 47.225227 
L 248.714235 47.861485 
L 249.150595 47.489109 
L 250.889688 43.413698 
L 251.322464 43.165736 
L 251.754019 43.248749 
L 252.612771 43.868265 
L 254.315147 45.185142 
L 254.739279 46.01061 
L 255.163673 47.83084 
L 255.588768 51.344454 
L 256.014936 56.974835 
L 256.871449 71.612753 
L 257.302022 76.75933 
L 257.734203 78.964163 
L 258.168012 79.206732 
L 258.603463 79.221555 
L 259.040581 80.386037 
L 259.479442 83.98065 
L 259.92017 91.760096 
L 260.362899 105.235272 
L 260.807749 122.22903 
L 261.254793 133.955119 
L 261.704048 132.144861 
L 262.609064 113.594117 
L 263.064718 112.49656 
L 263.522431 118.999723 
L 264.444083 139.983655 
L 264.907984 138.491225 
L 265.841717 121.015735 
L 266.311479 120.491065 
L 266.783158 127.858686 
L 267.256759 138.839519 
L 267.732277 143.933481 
L 268.2097 140.989284 
L 268.689026 132.837029 
L 269.170255 127.403022 
L 269.653379 129.148416 
L 270.62526 146.30899 
L 271.113787 149.202854 
L 271.603641 146.578859 
L 272.094642 141.0524 
L 272.586719 137.734862 
L 273.079802 140.378526 
L 274.068696 151.784384 
L 274.564385 153.351949 
L 275.060875 151.759534 
L 275.558182 148.736395 
L 276.056346 147.02899 
L 276.555429 148.906748 
L 277.556559 157.005869 
L 278.058695 158.795894 
L 278.561938 159.062267 
L 279.571909 158.538239 
L 280.078533 158.297489 
L 280.585941 157.762855 
L 281.093585 156.948874 
L 282.106667 154.556881 
L 284.598605 148.604158 
L 286.057826 145.524397 
L 287.016876 143.856756 
L 287.966484 142.561015 
L 288.907864 141.579889 
L 289.842265 140.91325 
L 290.770946 140.561923 
L 291.694694 140.53179 
L 292.61245 140.812115 
L 296.204148 142.375732 
L 297.958544 142.39402 
L 299.683773 142.845733 
L 300.53679 142.983175 
L 301.384156 143.454825 
L 305.138566 146.457538 
L 305.965713 146.897828 
L 307.206043 147.236754 
L 308.033782 147.361637 
L 308.86277 147.246807 
L 309.693051 146.882617 
L 310.524609 146.346752 
L 311.357257 145.556607 
L 314.689119 141.669199 
L 315.935626 140.756623 
L 317.58708 139.974988 
L 319.227855 139.340611 
L 320.048356 139.214973 
L 320.870848 139.325932 
L 321.696264 139.802999 
L 322.525666 140.763987 
L 323.360153 142.246047 
L 324.200946 144.199346 
L 325.04933 146.405795 
L 325.476711 147.092482 
L 325.906377 146.953033 
L 326.338428 145.917113 
L 327.649659 141.998658 
L 328.091839 139.651815 
L 328.536526 135.109169 
L 329.433103 124.804904 
L 329.884761 122.613002 
L 330.33852 122.580501 
L 330.794319 123.155897 
L 331.252092 122.808864 
L 331.711809 121.271565 
L 332.637223 116.644336 
L 333.102957 115.069473 
L 333.5707 114.815252 
L 334.512226 116.440209 
L 334.985986 116.418498 
L 335.939173 115.183258 
L 336.418506 114.761796 
L 336.899691 114.094469 
L 337.382739 113.056537 
L 337.867655 111.701757 
L 338.354466 110.00029 
L 340.319726 100.769123 
L 340.814269 99.591969 
L 341.804151 98.849432 
L 342.29878 97.678992 
L 343.285899 93.200529 
L 343.777903 90.995077 
L 344.268628 89.450337 
L 345.732183 86.710445 
L 346.217085 85.213645 
L 347.182572 81.213094 
L 349.096598 72.435415 
L 350.045307 69.369268 
L 350.988917 66.783986 
L 351.927871 63.034155 
L 354.255181 51.484348 
L 355.176737 48.380405 
L 356.091721 46.079953 
L 357.000003 44.457497 
L 357.902192 43.333032 
L 358.799831 42.616913 
L 359.694891 42.293685 
L 360.588913 42.326207 
L 361.482903 42.640288 
L 364.159462 44.118461 
L 365.491519 45.052981 
L 366.377437 45.898568 
L 367.261592 47.139368 
L 368.143704 48.429265 
L 369.023046 49.286694 
L 369.898414 49.696636 
L 370.768405 50.09676 
L 371.200983 50.461804 
L 371.63178 50.991897 
L 372.487629 52.730593 
L 373.755825 55.568723 
L 374.590925 57.406301 
L 376.649588 63.103427 
L 377.46451 64.752816 
L 377.870679 65.998936 
L 378.68113 69.198356 
L 379.49017 71.2517 
L 380.299605 72.426949 
L 380.705379 72.251044 
L 381.112311 71.160699 
L 381.520542 69.239883 
L 382.341389 63.00691 
L 383.167233 57.24625 
L 383.9935 53.804322 
L 385.223755 50.206221 
L 386.036407 48.655975 
L 386.440877 48.286781 
L 386.844296 48.161449 
L 387.648724 48.342576 
L 388.050139 48.613611 
L 388.451155 49.060804 
L 388.851796 49.774206 
L 389.252179 50.963102 
L 389.65254 53.009505 
L 390.05321 56.515448 
L 390.454535 62.228644 
L 390.856832 71.045186 
L 391.665548 98.639306 
L 392.072487 113.024305 
L 392.481327 121.695132 
L 392.891762 122.763476 
L 393.303227 120.465607 
L 393.715204 121.023153 
L 394.127247 128.738095 
L 394.949817 155.108733 
L 395.35953 159.498483 
L 395.767759 158.389058 
L 396.579032 151.683032 
L 396.981857 152.535513 
L 397.781562 159.740395 
L 398.178381 161.057978 
L 398.573217 160.508047 
L 399.747206 155.857167 
L 400.135692 156.145489 
L 400.909962 158.782433 
L 401.296435 159.607602 
L 402.070144 160.474065 
L 402.458165 160.604128 
L 402.847367 160.48819 
L 404.023049 159.701673 
L 404.417482 159.287735 
L 404.812886 158.494435 
L 405.604114 155.712503 
L 407.168459 149.7637 
L 408.308761 146.12298 
L 409.418186 143.204516 
L 410.144006 141.714455 
L 410.861849 140.65094 
L 411.573769 140.029797 
L 412.281053 139.838579 
L 412.984701 139.965594 
L 414.033613 140.280714 
L 414.728134 140.291208 
L 415.418827 140.063801 
L 416.791679 139.233179 
L 417.817805 138.629683 
L 418.845135 138.322396 
L 419.876947 138.339748 
L 420.915687 138.624321 
L 422.666361 139.328373 
L 423.375319 139.910506 
L 424.090968 141.033707 
L 424.81457 142.828149 
L 426.289188 147.070549 
L 426.663974 147.783491 
L 427.041294 148.174229 
L 427.421171 148.140834 
L 427.803626 147.549626 
L 428.966591 144.250405 
L 429.359447 144.335505 
L 429.754887 144.879743 
L 430.152899 145.000696 
L 430.553479 144.197021 
L 431.362307 141.38839 
L 431.770512 141.058833 
L 432.181208 141.792291 
L 433.009867 144.238328 
L 433.427681 144.716441 
L 433.847694 144.519364 
L 434.26982 144.170836 
L 434.694022 144.326272 
L 435.120314 145.152858 
L 435.548691 146.247674 
L 435.979175 147.025254 
L 436.411873 147.038781 
L 436.846908 146.165887 
L 437.284335 144.827021 
L 437.724157 143.850992 
L 438.166348 143.847493 
L 438.610901 144.403275 
L 439.05779 144.608459 
L 439.506959 143.89217 
L 440.867455 139.384239 
L 441.325131 139.108121 
L 441.784859 139.234691 
L 442.246619 139.012378 
L 442.710392 138.034267 
L 443.643927 135.173535 
L 444.113663 134.641947 
L 444.585361 134.906696 
L 445.059008 135.40076 
L 445.534593 135.483831 
L 446.012104 134.95853 
L 446.491529 134.200196 
L 446.972855 133.839309 
L 447.456071 134.307271 
L 448.428125 136.420874 
L 448.916941 137.028184 
L 449.89982 137.381193 
L 450.39319 138.132088 
L 452.368956 143.468666 
L 452.861419 144.271212 
L 453.352502 145.299162 
L 453.841799 146.869153 
L 455.29509 152.968033 
L 456.248443 155.496347 
L 459.4578 163.464719 
L 461.186776 166.053754 
L 461.606587 166.08132 
L 462.021523 165.738086 
L 463.237785 164.277441 
L 463.634126 163.942195 
L 464.798067 163.56192 
L 465.55523 162.852143 
L 466.668841 161.789913 
L 467.401869 161.119772 
L 468.131972 159.961672 
L 468.862429 158.010418 
L 471.428509 148.758649 
L 472.856839 143.819179 
L 473.891741 141.024086 
L 474.565553 139.760729 
L 475.228604 139.049501 
L 475.556743 138.913401 
L 475.882964 138.916263 
L 476.530638 139.249552 
L 477.813089 140.18925 
L 478.451099 140.214986 
L 479.089144 139.847788 
L 480.693684 138.418269 
L 481.342461 138.228273 
L 481.996836 138.450942 
L 482.657736 139.090525 
L 483.326085 140.107739 
L 484.002781 141.544907 
L 486.090909 147.208147 
L 487.169692 150.487953 
L 487.534302 151.149815 
L 487.901328 151.447665 
L 488.270717 151.45425 
L 489.016421 151.151338 
L 489.392646 151.322988 
L 490.534319 152.804481 
L 490.919132 152.883072 
L 492.08593 152.337862 
L 493.269778 152.592144 
L 494.068256 152.034824 
L 495.689762 150.51292 
L 496.100641 150.418797 
L 496.513705 150.567202 
L 497.346395 151.103202 
L 497.765991 151.254091 
L 498.187749 151.234489 
L 498.611718 150.972876 
L 499.038009 150.38832 
L 500.331553 147.868575 
L 500.767569 147.84997 
L 501.205884 148.110845 
L 501.646318 148.208049 
L 502.088744 147.804365 
L 502.533126 146.660018 
L 503.427738 143.615101 
L 503.877955 143.358594 
L 504.784319 145.364579 
L 505.240639 145.324818 
L 505.699158 143.760907 
L 506.622901 139.688672 
L 507.08813 139.397865 
L 508.025049 141.528991 
L 508.496641 141.316587 
L 508.970246 139.654364 
L 509.44582 137.390128 
L 509.923336 135.818687 
L 510.402768 135.855562 
L 510.884096 136.998574 
L 511.367305 137.838377 
L 511.852379 137.448789 
L 512.828064 134.320288 
L 513.318649 133.81297 
L 513.811039 134.731686 
L 514.305215 136.401881 
L 514.801166 137.63514 
L 515.298874 137.844491 
L 516.299559 136.809804 
L 516.802546 137.17077 
L 517.813836 139.655703 
L 518.322148 139.837101 
L 518.832233 138.915325 
L 519.34408 137.686695 
L 519.85768 137.014604 
L 520.373015 137.246437 
L 520.890063 138.016979 
L 521.408806 138.48931 
L 521.929225 138.106182 
L 522.975037 135.599197 
L 523.500409 134.885895 
L 524.027412 135.114215 
L 524.556038 135.785014 
L 525.086277 136.105683 
L 525.618119 135.622638 
L 526.686584 133.808082 
L 527.223189 133.812497 
L 527.761365 134.739694 
L 528.301103 136.089503 
L 528.842397 137.053911 
L 529.38524 137.228393 
L 529.929625 137.00865 
L 530.475541 137.189651 
L 531.571924 139.249246 
L 532.122368 139.689771 
L 532.674302 139.212472 
L 533.227719 138.455847 
L 533.782616 138.230448 
L 534.338987 138.749416 
L 534.896827 139.540311 
L 535.456129 139.954631 
L 536.016883 139.644639 
L 537.142716 137.992391 
L 537.707779 137.683824 
L 538.274264 137.946504 
L 538.842162 138.442879 
L 539.411466 138.634962 
L 539.982169 138.229567 
L 541.127739 136.696833 
L 541.702593 136.697636 
L 542.278814 137.433422 
L 544.015604 141.446743 
L 545.764357 143.95514 
L 546.349863 144.563062 
L 546.936648 144.172854 
L 547.524717 143.380657 
L 548.114075 143.201881 
L 548.704734 143.906142 
L 549.296703 144.853602 
L 549.889978 145.296874 
L 550.484544 145.163491 
L 551.080384 144.600773 
L 552.275842 143.016113 
L 552.875442 142.68424 
L 553.476278 142.836862 
L 554.078341 143.165841 
L 554.681623 143.176808 
L 555.286117 142.695905 
L 557.106803 140.395004 
L 557.716082 140.479601 
L 558.326553 141.188794 
L 558.938224 142.922271 
L 560.780652 150.468452 
L 561.397272 151.843085 
L 562.015051 152.253635 
L 562.633896 151.616613 
L 563.87456 148.370232 
L 564.496382 148.027281 
L 565.119244 148.835846 
L 565.743179 150.008864 
L 566.368196 150.904823 
L 566.994274 151.403751 
L 567.621387 151.593375 
L 568.878637 151.462943 
L 569.508729 152.066648 
L 570.139769 153.032018 
L 570.771736 153.54489 
L 571.404655 152.552513 
L 572.673514 147.542934 
L 573.309542 146.692231 
L 573.946697 147.72624 
L 575.224304 150.924459 
L 575.864599 151.632206 
L 576.50583 150.982453 
L 577.791062 146.609232 
L 578.435061 146.046374 
L 579.726027 148.867408 
L 580.373109 148.725346 
L 581.021297 147.083741 
L 581.670585 145.001582 
L 582.320965 143.766845 
L 582.972417 144.047881 
L 584.278346 146.973951 
L 584.932747 147.150028 
L 586.244263 144.767348 
L 586.901349 145.000491 
L 587.559335 146.808362 
L 588.218229 149.129044 
L 588.878052 150.710522 
L 589.538848 150.470662 
L 590.200644 148.458785 
L 590.863453 145.912144 
L 591.527258 144.837096 
L 592.192022 146.382087 
L 592.857704 149.259187 
L 593.524257 151.548736 
L 594.191639 152.432272 
L 594.859842 152.269749 
L 595.528908 151.63459 
L 596.198888 151.154604 
L 596.86982 151.44278 
L 598.214552 153.361161 
L 600.238353 155.494749 
L 601.591476 157.378683 
L 602.268934 157.617348 
L 602.946822 157.228004 
L 604.303588 155.623476 
L 605.661796 153.763282 
L 606.341687 153.199871 
L 607.022292 152.941268 
L 607.703711 152.891984 
L 608.385944 153.049893 
L 610.436674 154.403153 
L 611.121405 154.219227 
L 611.806722 153.37984 
L 612.492728 151.711064 
L 613.86727 146.938 
L 614.555926 146.1899 
L 615.245499 147.437171 
L 615.935963 148.941984 
L 616.627272 148.869476 
L 617.31939 146.287153 
L 618.706046 136.281714 
L 619.400603 134.330535 
L 620.095984 136.269036 
L 620.79219 139.17585 
L 621.489215 139.403002 
L 622.187059 135.636051 
L 622.885727 130.089217 
L 623.585219 126.664536 
L 624.285534 127.152836 
L 625.688327 134.849369 
L 626.390028 135.21063 
L 627.09124 131.541449 
L 627.79149 127.234582 
L 628.49033 125.405132 
L 629.187326 126.244815 
L 629.882066 127.607787 
L 630.574174 127.152887 
L 631.263285 123.892689 
L 631.949035 118.868895 
L 632.631123 114.767948 
L 633.309355 114.19281 
L 633.983597 117.793903 
L 634.653679 122.626132 
L 635.319408 123.949627 
L 635.980607 119.758448 
L 637.288521 106.828762 
L 637.934748 104.485144 
L 638.575591 106.40419 
L 639.840749 116.244741 
L 640.464925 117.267092 
L 641.083415 113.086841 
L 642.303451 100.024888 
L 642.905215 96.905049 
L 643.501723 96.986774 
L 644.093249 99.574519 
L 644.68007 103.1528 
L 645.262459 105.561956 
L 645.840673 105.502915 
L 646.414877 102.719993 
L 647.551742 93.959369 
L 648.114725 90.886834 
L 648.674407 88.937898 
L 649.78546 86.058925 
L 650.337723 84.3284 
L 650.888341 82.114347 
L 651.9858 75.977857 
L 653.07918 67.586898 
L 655.249275 49.181156 
L 655.785661 45.78011 
L 656.318394 43.118102 
L 656.84708 41.128505 
L 657.371651 39.66493 
L 657.89223 38.592701 
L 658.409074 37.820461 
L 658.92254 37.290716 
L 659.433037 36.972082 
L 659.940964 36.841818 
L 660.446707 36.881667 
L 660.950714 37.080042 
L 661.453491 37.428722 
L 662.457292 38.552745 
L 663.461858 40.177563 
L 664.469654 42.313588 
L 664.974552 43.909542 
L 665.479737 46.55783 
L 665.985219 51.455531 
L 666.491173 60.379749 
L 666.997805 74.536535 
L 668.013872 107.862525 
L 668.5238 114.191052 
L 669.035374 110.91677 
L 669.548732 105.281165 
L 670.063919 104.195813 
L 670.580966 111.673628 
L 671.62066 151.129281 
L 672.143305 158.36371 
L 672.667735 154.395405 
L 673.721811 133.431351 
L 674.251371 135.042885 
L 674.782578 146.185742 
L 675.315432 154.922696 
L 675.849901 157.103465 
L 676.385953 153.828428 
L 676.923583 145.407619 
L 677.462794 134.877256 
L 678.003565 131.713132 
L 678.545882 138.291768 
L 679.089744 146.97848 
L 679.513182 150.050445 
L 679.513182 150.050445 
" clip-path="url(#p3ac298fb55)" style="fill: none; stroke: #d62728; stroke-opacity: 0.8; stroke-width: 0.9; stroke-linecap: square"/>
   </g>
   <g id="patch_3">
    <path d="M 56.09 246.04 
L 56.09 26.88 
" style="fill: none; stroke: #000000; stroke-width: 0.8; stroke-linejoin: miter; stroke-linecap: square"/>
   </g>
   <g id="patch_4">
    <path d="M 709.2 246.04 
L 709.2 26.88 
" style="fill: none; stroke: #000000; stroke-width: 0.8; stroke-linejoin: miter; stroke-linecap: square"/>
   </g>
   <g id="patch_5">
    <path d="M 56.09 246.04 
L 709.2 246.04 
" style="fill: none; stroke: #000000; stroke-width: 0.8; stroke-linejoin: miter; stroke-linecap: square"/>
   </g>
   <g id="patch_6">
    <path d="M 56.09 26.88 
L 709.2 26.88 
" style="fill: none; stroke: #000000; stroke-width: 0.8; stroke-linejoin: miter; stroke-linecap: square"/>
   </g>
   <g id="text_17">
    <!-- steering-link loads over one Kinnekulle Ring lap -->
    <g transform="translate(239.711875 20.88) scale(0.12 -0.12)">
     <defs>
      <path id="DejaVuSans-67" d="M 2906 1791 
Q 2906 2416 2648 2759 
Q 2391 3103 1925 3103 
Q 1463 3103 1205 2759 
Q 947 2416 947 1791 
Q 947 1169 1205 825 
Q 1463 481 1925 481 
Q 2391 481 2648 825 
Q 2906 1169 2906 1791 
z
M 3481 434 
Q 3481 -459 3084 -895 
Q 2688 -1331 1869 -1331 
Q 1566 -1331 1297 -1286 
Q 1028 -1241 775 -1147 
L 775 -588 
Q 1028 -725 1275 -790 
Q 1522 -856 1778 -856 
Q 2344 -856 2625 -561 
Q 2906 -266 2906 331 
L 2906 616 
Q 2728 306 2450 153 
Q 2172 0 1784 0 
Q 1141 0 747 490 
Q 353 981 353 1791 
Q 353 2603 747 3093 
Q 1141 3584 1784 3584 
Q 2172 3584 2450 3431 
Q 2728 3278 2906 2969 
L 2906 3500 
L 3481 3500 
L 3481 434 
z
" transform="scale(0.015625)"/>
      <path id="DejaVuSans-6c" d="M 603 4863 
L 1178 4863 
L 1178 0 
L 603 0 
L 603 4863 
z
" transform="scale(0.015625)"/>
      <path id="DejaVuSans-76" d="M 191 3500 
L 800 3500 
L 1894 563 
L 2988 3500 
L 3597 3500 
L 2284 0 
L 1503 0 
L 191 3500 
z
" transform="scale(0.015625)"/>
      <path id="DejaVuSans-4b" d="M 628 4666 
L 1259 4666 
L 1259 2694 
L 3353 4666 
L 4166 4666 
L 1850 2491 
L 4331 0 
L 3500 0 
L 1259 2247 
L 1259 0 
L 628 0 
L 628 4666 
z
" transform="scale(0.015625)"/>
      <path id="DejaVuSans-75" d="M 544 1381 
L 544 3500 
L 1119 3500 
L 1119 1403 
Q 1119 906 1312 657 
Q 1506 409 1894 409 
Q 2359 409 2629 706 
Q 2900 1003 2900 1516 
L 2900 3500 
L 3475 3500 
L 3475 0 
L 2900 0 
L 2900 538 
Q 2691 219 2414 64 
Q 2138 -91 1772 -91 
Q 1169 -91 856 284 
Q 544 659 544 1381 
z
M 1991 3584 
L 1991 3584 
z
" transform="scale(0.015625)"/>
      <path id="DejaVuSans-52" d="M 2841 2188 
Q 3044 2119 3236 1894 
Q 3428 1669 3622 1275 
L 4263 0 
L 3584 0 
L 2988 1197 
Q 2756 1666 2539 1819 
Q 2322 1972 1947 1972 
L 1259 1972 
L 1259 0 
L 628 0 
L 628 4666 
L 2053 4666 
Q 2853 4666 3247 4331 
Q 3641 3997 3641 3322 
Q 3641 2881 3436 2590 
Q 3231 2300 2841 2188 
z
M 1259 4147 
L 1259 2491 
L 2053 2491 
Q 2509 2491 2742 2702 
Q 2975 2913 2975 3322 
Q 2975 3731 2742 3939 
Q 2509 4147 2053 4147 
L 1259 4147 
z
" transform="scale(0.015625)"/>
      <path id="DejaVuSans-70" d="M 1159 525 
L 1159 -1331 
L 581 -1331 
L 581 3500 
L 1159 3500 
L 1159 2969 
Q 1341 3281 1617 3432 
Q 1894 3584 2278 3584 
Q 2916 3584 3314 3078 
Q 3713 2572 3713 1747 
Q 3713 922 3314 415 
Q 2916 -91 2278 -91 
Q 1894 -91 1617 61 
Q 1341 213 1159 525 
z
M 3116 1747 
Q 3116 2381 2855 2742 
Q 2594 3103 2138 3103 
Q 1681 3103 1420 2742 
Q 1159 2381 1159 1747 
Q 1159 1113 1420 752 
Q 1681 391 2138 391 
Q 2594 391 2855 752 
Q 3116 1113 3116 1747 
z
" transform="scale(0.015625)"/>
     </defs>
     <use xlink:href="#DejaVuSans-73"/>
     <use xlink:href="#DejaVuSans-74" transform="translate(52.099609 0)"/>
     <use xlink:href="#DejaVuSans-65" transform="translate(91.308594 0)"/>
     <use xlink:href="#DejaVuSans-65" transform="translate(152.832031 0)"/>
     <use xlink:href="#DejaVuSans-72" transform="translate(214.355469 0)"/>
     <use xlink:href="#DejaVuSans-69" transform="translate(255.46875 0)"/>
     <use xlink:href="#DejaVuSans-6e" transform="translate(283.251953 0)"/>
     <use xlink:href="#DejaVuSans-67" transform="translate(346.630859 0)"/>
     <use xlink:href="#DejaVuSans-2d" transform="translate(410.107422 0)"/>
     <use xlink:href="#DejaVuSans-6c" transform="translate(446.191406 0)"/>
     <use xlink:href="#DejaVuSans-69" transform="translate(473.974609 0)"/>
     <use xlink:href="#DejaVuSans-6e" transform="translate(501.757812 0)"/>
     <use xlink:href="#DejaVuSans-6b" transform="translate(565.136719 0)"/>
     <use xlink:href="#DejaVuSans-20" transform="translate(623.046875 0)"/>
     <use xlink:href="#DejaVuSans-6c" transform="translate(654.833984 0)"/>
     <use xlink:href="#DejaVuSans-6f" transform="translate(682.617188 0)"/>
     <use xlink:href="#DejaVuSans-61" transform="translate(743.798828 0)"/>
     <use xlink:href="#DejaVuSans-64" transform="translate(805.078125 0)"/>
     <use xlink:href="#DejaVuSans-73" transform="translate(868.554688 0)"/>
     <use xlink:href="#DejaVuSans-20" transform="translate(920.654297 0)"/>
     <use xlink:href="#DejaVuSans-6f" transform="translate(952.441406 0)"/>
     <use xlink:href="#DejaVuSans-76" transform="translate(1013.623047 0)"/>
     <use xlink:href="#DejaVuSans-65" transform="translate(1072.802734 0)"/>
     <use xlink:href="#DejaVuSans-72" transform="translate(1134.326172 0)"/>
     <use xlink:href="#DejaVuSans-20" transform="translate(1175.439453 0)"/>
     <use xlink:href="#DejaVuSans-6f" transform="translate(1207.226562 0)"/>
     <use xlink:href="#DejaVuSans-6e" transform="translate(1268.408203 0)"/>
     <use xlink:href="#DejaVuSans-65" transform="translate(1331.787109 0)"/>
     <use xlink:href="#DejaVuSans-20" transform="translate(1393.310547 0)"/>
     <use xlink:href="#DejaVuSans-4b" transform="translate(1425.097656 0)"/>
     <use xlink:href="#DejaVuSans-69" transform="translate(1490.673828 0)"/>
     <use xlink:href="#DejaVuSans-6e" transform="translate(1518.457031 0)"/>
     <use xlink:href="#DejaVuSans-6e" transform="translate(1581.835938 0)"/>
     <use xlink:href="#DejaVuSans-65" transform="translate(1645.214844 0)"/>
     <use xlink:href="#DejaVuSans-6b" transform="translate(1706.738281 0)"/>
     <use xlink:href="#DejaVuSans-75" transform="translate(1761.523438 0)"/>
     <use xlink:href="#DejaVuSans-6c" transform="translate(1824.902344 0)"/>
     <use xlink:href="#DejaVuSans-6c" transform="translate(1852.685547 0)"/>
     <use xlink:href="#DejaVuSans-65" transform="translate(1880.46875 0)"/>
     <use xlink:href="#DejaVuSans-20" transform="translate(1941.992188 0)"/>
     <use xlink:href="#DejaVuSans-52" transform="translate(1973.779297 0)"/>
     <use xlink:href="#DejaVuSans-69" transform="translate(2043.261719 0)"/>
     <use xlink:href="#DejaVuSans-6e" transform="translate(2071.044922 0)"/>
     <use xlink:href="#DejaVuSans-67" transform="translate(2134.423828 0)"/>
     <use xlink:href="#DejaVuSans-20" transform="translate(2197.900391 0)"/>
     <use xlink:href="#DejaVuSans-6c" transform="translate(2229.6875 0)"/>
     <use xlink:href="#DejaVuSans-61" transform="translate(2257.470703 0)"/>
     <use xlink:href="#DejaVuSans-70" transform="translate(2318.75 0)"/>
    </g>
   </g>
   <g id="legend_1">
    <g id="patch_7">
     <path d="M 61.69 56.765 
L 134.535 56.765 
Q 136.135 56.765 136.135 55.165 
L 136.135 32.48 
Q 136.135 30.88 134.535 30.88 
L 61.69 30.88 
Q 60.09 30.88 60.09 32.48 
L 60.09 55.165 
Q 60.09 56.765 61.69 56.765 
z
" style="fill: #ffffff; opacity: 0.8; stroke: #cccccc; stroke-linejoin: miter"/>
    </g>
    <g id="line2d_31">
     <path d="M 63.29 37.35875 
L 71.29 37.35875 
L 79.29 37.35875 
" style="fill: none; stroke: #2ca02c; stroke-width: 0.9; stroke-linecap: square"/>
    </g>
    <g id="text_18">
     <!-- tie rod left -->
     <g transform="translate(85.69 40.15875) scale(0.08 -0.08)">
      <use xlink:href="#DejaVuSans-74"/>
      <use xlink:href="#DejaVuSans-69" transform="translate(39.208984 0)"/>
      <use xlink:href="#DejaVuSans-65" transform="translate(66.992188 0)"/>
      <use xlink:href="#DejaVuSans-20" transform="translate(128.515625 0)"/>
      <use xlink:href="#DejaVuSans-72" transform="translate(160.302734 0)"/>
      <use xlink:href="#DejaVuSans-6f" transform="translate(199.166016 0)"/>
      <use xlink:href="#DejaVuSans-64" transform="translate(260.347656 0)"/>
      <use xlink:href="#DejaVuSans-20" transform="translate(323.824219 0)"/>
      <use xlink:href="#DejaVuSans-6c" transform="translate(355.611328 0)"/>
      <use xlink:href="#DejaVuSans-65" transform="translate(383.394531 0)"/>
      <use xlink:href="#DejaVuSans-66" transform="translate(444.917969 0)"/>
      <use xlink:href="#DejaVuSans-74" transform="translate(478.373047 0)"/>
     </g>
    </g>
    <g id="line2d_32">
     <path d="M 63.29 49.10125 
L 71.29 49.10125 
L 79.29 49.10125 
" style="fill: none; stroke: #d62728; stroke-opacity: 0.8; stroke-width: 0.9; stroke-linecap: square"/>
    </g>
    <g id="text_19">
     <!-- tie rod right -->
     <g transform="translate(85.69 51.90125) scale(0.08 -0.08)">
      <defs>
       <path id="DejaVuSans-68" d="M 3513 2113 
L 3513 0 
L 2938 0 
L 2938 2094 
Q 2938 2591 2744 2837 
Q 2550 3084 2163 3084 
Q 1697 3084 1428 2787 
Q 1159 2491 1159 1978 
L 1159 0 
L 581 0 
L 581 4863 
L 1159 4863 
L 1159 2956 
Q 1366 3272 1645 3428 
Q 1925 3584 2291 3584 
Q 2894 3584 3203 3211 
Q 3513 2838 3513 2113 
z
" transform="scale(0.015625)"/>
      </defs>
      <use xlink:href="#DejaVuSans-74"/>
      <use xlink:href="#DejaVuSans-69" transform="translate(39.208984 0)"/>
      <use xlink:href="#DejaVuSans-65" transform="translate(66.992188 0)"/>
      <use xlink:href="#DejaVuSans-20" transform="translate(128.515625 0)"/>
      <use xlink:href="#DejaVuSans-72" transform="translate(160.302734 0)"/>
      <use xlink:href="#DejaVuSans-6f" transform="translate(199.166016 0)"/>
      <use xlink:href="#DejaVuSans-64" transform="translate(260.347656 0)"/>
      <use xlink:href="#DejaVuSans-20" transform="translate(323.824219 0)"/>
      <use xlink:href="#DejaVuSans-72" transform="translate(355.611328 0)"/>
      <use xlink:href="#DejaVuSans-69" transform="translate(396.724609 0)"/>
      <use xlink:href="#DejaVuSans-67" transform="translate(424.507812 0)"/>
      <use xlink:href="#DejaVuSans-68" transform="translate(487.984375 0)"/>
      <use xlink:href="#DejaVuSans-74" transform="translate(551.363281 0)"/>
     </g>
    </g>
   </g>
  </g>
 </g>
 <defs>
  <clipPath id="p3ac298fb55">
   <rect x="56.09" y="26.88" width="653.11" height="219.16"/>
  </clipPath>
 </defs>
</svg>
