<?xml version="1.0" encoding="utf-8" standalone="no"?>
<!DOCTYPE svg PUBLIC "-//W3C//DTD SVG 1.1//EN"
  "http://www.w3.org/Graphics/SVG/1.1/DTD/svg11.dtd">
<svg xmlns:xlink="http://www.w3.org/1999/xlink" width="720pt" height="288pt" viewBox="0 0 720 288" xmlns="http://www.w3.org/2000/svg" version="1.1">
 <metadata>
  <rdf:RDF xmlns:dc="http://purl.org/dc/elements/1.1/" xmlns:cc="http://creativecommons.org/ns#" xmlns:rdf="http://www.w3.org/1999/02/22-rdf-syntax-ns#">
   <cc:Work>
    <dc:type rdf:resource="http://purl.org/dc/dcmitype/StillImage"/>
    <dc:date>2026-07-08T14:50:03.183363</dc:date>
    <dc:format>image/svg+xml</dc:format>
    <dc:creator>
     <cc:Agent>
      <dc:title>Matplotlib v3.10.8, https://matplotlib.org/</dc:title>
     </cc:Agent>
    </dc:creator>
   </cc:Work>
  </rdf:RDF>
 </metadata>
 <defs>
  <style type="text/css">*{stroke-linejoin: round; stroke-linecap: butt}</style>
 </defs>
 <g id="figure_1">
  <g id="patch_1">
   <path d="M 0 288 
L 720 288 
L 720 0 
L 0 0 
z
" style="fill: #ffffff"/>
  </g>
  <g id="axes_1">
   <g id="patch_2">
    <path d="M 46.64 246.04 
L 709.2 246.04 
L 709.2 28.37625 
L 46.64 28.37625 
z
" style="fill: #ffffff"/>
   </g>
   <g id="matplotlib.axis_1">
    <g id="xtick_1">
     <g id="line2d_1">
      <path d="M 76.756364 246.04 
L 76.756364 28.37625 
" clip-path="url(#p19afbad66e)" style="fill: none; stroke: #b0b0b0; stroke-opacity: 0.3; stroke-width: 0.8; stroke-linecap: square"/>
     </g>
     <g id="line2d_2">
      <defs>
       <path id="m2efe85ee5b" d="M 0 0 
L 0 3.5 
" style="stroke: #000000; stroke-width: 0.8"/>
      </defs>
      <g>
       <use xlink:href="#m2efe85ee5b" x="76.756364" y="246.04" style="stroke: #000000; stroke-width: 0.8"/>
      </g>
     </g>
     <g id="text_1">
      <!-- 0.0 -->
      <g transform="translate(68.804801 260.638438) scale(0.1 -0.1)">
       <defs>
        <path id="DejaVuSans-30" d="M 2034 4250 
Q 1547 4250 1301 3770 
Q 1056 3291 1056 2328 
Q 1056 1369 1301 889 
Q 1547 409 2034 409 
Q 2525 409 2770 889 
Q 3016 1369 3016 2328 
Q 3016 3291 2770 3770 
Q 2525 4250 2034 4250 
z
M 2034 4750 
Q 2819 4750 3233 4129 
Q 3647 3509 3647 2328 
Q 3647 1150 3233 529 
Q 2819 -91 2034 -91 
Q 1250 -91 836 529 
Q 422 1150 422 2328 
Q 422 3509 836 4129 
Q 1250 4750 2034 4750 
z
" transform="scale(0.015625)"/>
        <path id="DejaVuSans-2e" d="M 684 794 
L 1344 794 
L 1344 0 
L 684 0 
L 684 794 
z
" transform="scale(0.015625)"/>
       </defs>
       <use xlink:href="#DejaVuSans-30"/>
       <use xlink:href="#DejaVuSans-2e" transform="translate(63.623047 0)"/>
       <use xlink:href="#DejaVuSans-30" transform="translate(95.410156 0)"/>
      </g>
     </g>
    </g>
    <g id="xtick_2">
     <g id="line2d_3">
      <path d="M 206.200031 246.04 
L 206.200031 28.37625 
" clip-path="url(#p19afbad66e)" style="fill: none; stroke: #b0b0b0; stroke-opacity: 0.3; stroke-width: 0.8; stroke-linecap: square"/>
     </g>
     <g id="line2d_4">
      <g>
       <use xlink:href="#m2efe85ee5b" x="206.200031" y="246.04" style="stroke: #000000; stroke-width: 0.8"/>
      </g>
     </g>
     <g id="text_2">
      <!-- 0.5 -->
      <g transform="translate(198.248468 260.638438) scale(0.1 -0.1)">
       <defs>
        <path id="DejaVuSans-35" d="M 691 4666 
L 3169 4666 
L 3169 4134 
L 1269 4134 
L 1269 2991 
Q 1406 3038 1543 3061 
Q 1681 3084 1819 3084 
Q 2600 3084 3056 2656 
Q 3513 2228 3513 1497 
Q 3513 744 3044 326 
Q 2575 -91 1722 -91 
Q 1428 -91 1123 -41 
Q 819 9 494 109 
L 494 744 
Q 775 591 1075 516 
Q 1375 441 1709 441 
Q 2250 441 2565 725 
Q 2881 1009 2881 1497 
Q 2881 1984 2565 2268 
Q 2250 2553 1709 2553 
Q 1456 2553 1204 2497 
Q 953 2441 691 2322 
L 691 4666 
z
" transform="scale(0.015625)"/>
       </defs>
       <use xlink:href="#DejaVuSans-30"/>
       <use xlink:href="#DejaVuSans-2e" transform="translate(63.623047 0)"/>
       <use xlink:href="#DejaVuSans-35" transform="translate(95.410156 0)"/>
      </g>
     </g>
    </g>
    <g id="xtick_3">
     <g id="line2d_5">
      <path d="M 335.643698 246.04 
L 335.643698 28.37625 
" clip-path="url(#p19afbad66e)" style="fill: none; stroke: #b0b0b0; stroke-opacity: 0.3; stroke-width: 0.8; stroke-linecap: square"/>
     </g>
     <g id="line2d_6">
      <g>
       <use xlink:href="#m2efe85ee5b" x="335.643698" y="246.04" style="stroke: #000000; stroke-width: 0.8"/>
      </g>
     </g>
     <g id="text_3">
      <!-- 1.0 -->
      <g transform="translate(327.692136 260.638438) scale(0.1 -0.1)">
       <defs>
        <path id="DejaVuSans-31" d="M 794 531 
L 1825 531 
L 1825 4091 
L 703 3866 
L 703 4441 
L 1819 4666 
L 2450 4666 
L 2450 531 
L 3481 531 
L 3481 0 
L 794 0 
L 794 531 
z
" transform="scale(0.015625)"/>
       </defs>
       <use xlink:href="#DejaVuSans-31"/>
       <use xlink:href="#DejaVuSans-2e" transform="translate(63.623047 0)"/>
       <use xlink:href="#DejaVuSans-30" transform="translate(95.410156 0)"/>
      </g>
     </g>
    </g>
    <g id="xtick_4">
     <g id="line2d_7">
      <path d="M 465.087365 246.04 
L 465.087365 28.37625 
" clip-path="url(#p19afbad66e)" style="fill: none; stroke: #b0b0b0; stroke-opacity: 0.3; stroke-width: 0.8; stroke-linecap: square"/>
     </g>
     <g id="line2d_8">
      <g>
       <use xlink:href="#m2efe85ee5b" x="465.087365" y="246.04" style="stroke: #000000; stroke-width: 0.8"/>
      </g>
     </g>
     <g id="text_4">
      <!-- 1.5 -->
      <g transform="translate(457.135803 260.638438) scale(0.1 -0.1)">
       <use xlink:href="#DejaVuSans-31"/>
       <use xlink:href="#DejaVuSans-2e" transform="translate(63.623047 0)"/>
       <use xlink:href="#DejaVuSans-35" transform="translate(95.410156 0)"/>
      </g>
     </g>
    </g>
    <g id="xtick_5">
     <g id="line2d_9">
      <path d="M 594.531033 246.04 
L 594.531033 28.37625 
" clip-path="url(#p19afbad66e)" style="fill: none; stroke: #b0b0b0; stroke-opacity: 0.3; stroke-width: 0.8; stroke-linecap: square"/>
     </g>
     <g id="line2d_10">
      <g>
       <use xlink:href="#m2efe85ee5b" x="594.531033" y="246.04" style="stroke: #000000; stroke-width: 0.8"/>
      </g>
     </g>
     <g id="text_5">
      <!-- 2.0 -->
      <g transform="translate(586.57947 260.638438) scale(0.1 -0.1)">
       <defs>
        <path id="DejaVuSans-32" d="M 1228 531 
L 3431 531 
L 3431 0 
L 469 0 
L 469 531 
Q 828 903 1448 1529 
Q 2069 2156 2228 2338 
Q 2531 2678 2651 2914 
Q 2772 3150 2772 3378 
Q 2772 3750 2511 3984 
Q 2250 4219 1831 4219 
Q 1534 4219 1204 4116 
Q 875 4013 500 3803 
L 500 4441 
Q 881 4594 1212 4672 
Q 1544 4750 1819 4750 
Q 2544 4750 2975 4387 
Q 3406 4025 3406 3419 
Q 3406 3131 3298 2873 
Q 3191 2616 2906 2266 
Q 2828 2175 2409 1742 
Q 1991 1309 1228 531 
z
" transform="scale(0.015625)"/>
       </defs>
       <use xlink:href="#DejaVuSans-32"/>
       <use xlink:href="#DejaVuSans-2e" transform="translate(63.623047 0)"/>
       <use xlink:href="#DejaVuSans-30" transform="translate(95.410156 0)"/>
      </g>
     </g>
    </g>
    <g id="text_6">
     <!-- distance s [km] -->
     <g transform="translate(339.283281 274.316562) scale(0.1 -0.1)">
      <defs>
       <path id="DejaVuSans-64" d="M 2906 2969 
L 2906 4863 
L 3481 4863 
L 3481 0 
L 2906 0 
L 2906 525 
Q 2725 213 2448 61 
Q 2172 -91 1784 -91 
Q 1150 -91 751 415 
Q 353 922 353 1747 
Q 353 2572 751 3078 
Q 1150 3584 1784 3584 
Q 2172 3584 2448 3432 
Q 2725 3281 2906 2969 
z
M 947 1747 
Q 947 1113 1208 752 
Q 1469 391 1925 391 
Q 2381 391 2643 752 
Q 2906 1113 2906 1747 
Q 2906 2381 2643 2742 
Q 2381 3103 1925 3103 
Q 1469 3103 1208 2742 
Q 947 2381 947 1747 
z
" transform="scale(0.015625)"/>
       <path id="DejaVuSans-69" d="M 603 3500 
L 1178 3500 
L 1178 0 
L 603 0 
L 603 3500 
z
M 603 4863 
L 1178 4863 
L 1178 4134 
L 603 4134 
L 603 4863 
z
" transform="scale(0.015625)"/>
       <path id="DejaVuSans-73" d="M 2834 3397 
L 2834 2853 
Q 2591 2978 2328 3040 
Q 2066 3103 1784 3103 
Q 1356 3103 1142 2972 
Q 928 2841 928 2578 
Q 928 2378 1081 2264 
Q 1234 2150 1697 2047 
L 1894 2003 
Q 2506 1872 2764 1633 
Q 3022 1394 3022 966 
Q 3022 478 2636 193 
Q 2250 -91 1575 -91 
Q 1294 -91 989 -36 
Q 684 19 347 128 
L 347 722 
Q 666 556 975 473 
Q 1284 391 1588 391 
Q 1994 391 2212 530 
Q 2431 669 2431 922 
Q 2431 1156 2273 1281 
Q 2116 1406 1581 1522 
L 1381 1569 
Q 847 1681 609 1914 
Q 372 2147 372 2553 
Q 372 3047 722 3315 
Q 1072 3584 1716 3584 
Q 2034 3584 2315 3537 
Q 2597 3491 2834 3397 
z
" transform="scale(0.015625)"/>
       <path id="DejaVuSans-74" d="M 1172 4494 
L 1172 3500 
L 2356 3500 
L 2356 3053 
L 1172 3053 
L 1172 1153 
Q 1172 725 1289 603 
Q 1406 481 1766 481 
L 2356 481 
L 2356 0 
L 1766 0 
Q 1100 0 847 248 
Q 594 497 594 1153 
L 594 3053 
L 172 3053 
L 172 3500 
L 594 3500 
L 594 4494 
L 1172 4494 
z
" transform="scale(0.015625)"/>
       <path id="DejaVuSans-61" d="M 2194 1759 
Q 1497 1759 1228 1600 
Q 959 1441 959 1056 
Q 959 750 1161 570 
Q 1363 391 1709 391 
Q 2188 391 2477 730 
Q 2766 1069 2766 1631 
L 2766 1759 
L 2194 1759 
z
M 3341 1997 
L 3341 0 
L 2766 0 
L 2766 531 
Q 2569 213 2275 61 
Q 1981 -91 1556 -91 
Q 1019 -91 701 211 
Q 384 513 384 1019 
Q 384 1609 779 1909 
Q 1175 2209 1959 2209 
L 2766 2209 
L 2766 2266 
Q 2766 2663 2505 2880 
Q 2244 3097 1772 3097 
Q 1472 3097 1187 3025 
Q 903 2953 641 2809 
L 641 3341 
Q 956 3463 1253 3523 
Q 1550 3584 1831 3584 
Q 2591 3584 2966 3190 
Q 3341 2797 3341 1997 
z
" transform="scale(0.015625)"/>
       <path id="DejaVuSans-6e" d="M 3513 2113 
L 3513 0 
L 2938 0 
L 2938 2094 
Q 2938 2591 2744 2837 
Q 2550 3084 2163 3084 
Q 1697 3084 1428 2787 
Q 1159 2491 1159 1978 
L 1159 0 
L 581 0 
L 581 3500 
L 1159 3500 
L 1159 2956 
Q 1366 3272 1645 3428 
Q 1925 3584 2291 3584 
Q 2894 3584 3203 3211 
Q 3513 2838 3513 2113 
z
" transform="scale(0.015625)"/>
       <path id="DejaVuSans-63" d="M 3122 3366 
L 3122 2828 
Q 2878 2963 2633 3030 
Q 2388 3097 2138 3097 
Q 1578 3097 1268 2742 
Q 959 2388 959 1747 
Q 959 1106 1268 751 
Q 1578 397 2138 397 
Q 2388 397 2633 464 
Q 2878 531 3122 666 
L 3122 134 
Q 2881 22 2623 -34 
Q 2366 -91 2075 -91 
Q 1284 -91 818 406 
Q 353 903 353 1747 
Q 353 2603 823 3093 
Q 1294 3584 2113 3584 
Q 2378 3584 2631 3529 
Q 2884 3475 3122 3366 
z
" transform="scale(0.015625)"/>
       <path id="DejaVuSans-65" d="M 3597 1894 
L 3597 1613 
L 953 1613 
Q 991 1019 1311 708 
Q 1631 397 2203 397 
Q 2534 397 2845 478 
Q 3156 559 3463 722 
L 3463 178 
Q 3153 47 2828 -22 
Q 2503 -91 2169 -91 
Q 1331 -91 842 396 
Q 353 884 353 1716 
Q 353 2575 817 3079 
Q 1281 3584 2069 3584 
Q 2775 3584 3186 3129 
Q 3597 2675 3597 1894 
z
M 3022 2063 
Q 3016 2534 2758 2815 
Q 2500 3097 2075 3097 
Q 1594 3097 1305 2825 
Q 1016 2553 972 2059 
L 3022 2063 
z
" transform="scale(0.015625)"/>
       <path id="DejaVuSans-20" transform="scale(0.015625)"/>
       <path id="DejaVuSans-5b" d="M 550 4863 
L 1875 4863 
L 1875 4416 
L 1125 4416 
L 1125 -397 
L 1875 -397 
L 1875 -844 
L 550 -844 
L 550 4863 
z
" transform="scale(0.015625)"/>
       <path id="DejaVuSans-6b" d="M 581 4863 
L 1159 4863 
L 1159 1991 
L 2875 3500 
L 3609 3500 
L 1753 1863 
L 3688 0 
L 2938 0 
L 1159 1709 
L 1159 0 
L 581 0 
L 581 4863 
z
" transform="scale(0.015625)"/>
       <path id="DejaVuSans-6d" d="M 3328 2828 
Q 3544 3216 3844 3400 
Q 4144 3584 4550 3584 
Q 5097 3584 5394 3201 
Q 5691 2819 5691 2113 
L 5691 0 
L 5113 0 
L 5113 2094 
Q 5113 2597 4934 2840 
Q 4756 3084 4391 3084 
Q 3944 3084 3684 2787 
Q 3425 2491 3425 1978 
L 3425 0 
L 2847 0 
L 2847 2094 
Q 2847 2600 2669 2842 
Q 2491 3084 2119 3084 
Q 1678 3084 1418 2786 
Q 1159 2488 1159 1978 
L 1159 0 
L 581 0 
L 581 3500 
L 1159 3500 
L 1159 2956 
Q 1356 3278 1631 3431 
Q 1906 3584 2284 3584 
Q 2666 3584 2933 3390 
Q 3200 3197 3328 2828 
z
" transform="scale(0.015625)"/>
       <path id="DejaVuSans-5d" d="M 1947 4863 
L 1947 -844 
L 622 -844 
L 622 -397 
L 1369 -397 
L 1369 4416 
L 622 4416 
L 622 4863 
L 1947 4863 
z
" transform="scale(0.015625)"/>
      </defs>
      <use xlink:href="#DejaVuSans-64"/>
      <use xlink:href="#DejaVuSans-69" transform="translate(63.476562 0)"/>
      <use xlink:href="#DejaVuSans-73" transform="translate(91.259766 0)"/>
      <use xlink:href="#DejaVuSans-74" transform="translate(143.359375 0)"/>
      <use xlink:href="#DejaVuSans-61" transform="translate(182.568359 0)"/>
      <use xlink:href="#DejaVuSans-6e" transform="translate(243.847656 0)"/>
      <use xlink:href="#DejaVuSans-63" transform="translate(307.226562 0)"/>
      <use xlink:href="#DejaVuSans-65" transform="translate(362.207031 0)"/>
      <use xlink:href="#DejaVuSans-20" transform="translate(423.730469 0)"/>
      <use xlink:href="#DejaVuSans-73" transform="translate(455.517578 0)"/>
      <use xlink:href="#DejaVuSans-20" transform="translate(507.617188 0)"/>
      <use xlink:href="#DejaVuSans-5b" transform="translate(539.404297 0)"/>
      <use xlink:href="#DejaVuSans-6b" transform="translate(578.417969 0)"/>
      <use xlink:href="#DejaVuSans-6d" transform="translate(636.328125 0)"/>
      <use xlink:href="#DejaVuSans-5d" transform="translate(733.740234 0)"/>
     </g>
    </g>
   </g>
   <g id="matplotlib.axis_2">
    <g id="ytick_1">
     <g id="line2d_11">
      <path d="M 46.64 229.415797 
L 709.2 229.415797 
" clip-path="url(#p19afbad66e)" style="fill: none; stroke: #b0b0b0; stroke-opacity: 0.3; stroke-width: 0.8; stroke-linecap: square"/>
     </g>
     <g id="line2d_12">
      <defs>
       <path id="m82e73e4f47" d="M 0 0 
L -3.5 0 
" style="stroke: #000000; stroke-width: 0.8"/>
      </defs>
      <g>
       <use xlink:href="#m82e73e4f47" x="46.64" y="229.415797" style="stroke: #000000; stroke-width: 0.8"/>
      </g>
     </g>
     <g id="text_7">
      <!-- −2 -->
      <g transform="translate(24.897813 233.215016) scale(0.1 -0.1)">
       <defs>
        <path id="DejaVuSans-2212" d="M 678 2272 
L 4684 2272 
L 4684 1741 
L 678 1741 
L 678 2272 
z
" transform="scale(0.015625)"/>
       </defs>
       <use xlink:href="#DejaVuSans-2212"/>
       <use xlink:href="#DejaVuSans-32" transform="translate(83.789062 0)"/>
      </g>
     </g>
    </g>
    <g id="ytick_2">
     <g id="line2d_13">
      <path d="M 46.64 182.577586 
L 709.2 182.577586 
" clip-path="url(#p19afbad66e)" style="fill: none; stroke: #b0b0b0; stroke-opacity: 0.3; stroke-width: 0.8; stroke-linecap: square"/>
     </g>
     <g id="line2d_14">
      <g>
       <use xlink:href="#m82e73e4f47" x="46.64" y="182.577586" style="stroke: #000000; stroke-width: 0.8"/>
      </g>
     </g>
     <g id="text_8">
      <!-- −1 -->
      <g transform="translate(24.897813 186.376805) scale(0.1 -0.1)">
       <use xlink:href="#DejaVuSans-2212"/>
       <use xlink:href="#DejaVuSans-31" transform="translate(83.789062 0)"/>
      </g>
     </g>
    </g>
    <g id="ytick_3">
     <g id="line2d_15">
      <path d="M 46.64 135.739375 
L 709.2 135.739375 
" clip-path="url(#p19afbad66e)" style="fill: none; stroke: #b0b0b0; stroke-opacity: 0.3; stroke-width: 0.8; stroke-linecap: square"/>
     </g>
     <g id="line2d_16">
      <g>
       <use xlink:href="#m82e73e4f47" x="46.64" y="135.739375" style="stroke: #000000; stroke-width: 0.8"/>
      </g>
     </g>
     <g id="text_9">
      <!-- 0 -->
      <g transform="translate(33.2775 139.538594) scale(0.1 -0.1)">
       <use xlink:href="#DejaVuSans-30"/>
      </g>
     </g>
    </g>
    <g id="ytick_4">
     <g id="line2d_17">
      <path d="M 46.64 88.901164 
L 709.2 88.901164 
" clip-path="url(#p19afbad66e)" style="fill: none; stroke: #b0b0b0; stroke-opacity: 0.3; stroke-width: 0.8; stroke-linecap: square"/>
     </g>
     <g id="line2d_18">
      <g>
       <use xlink:href="#m82e73e4f47" x="46.64" y="88.901164" style="stroke: #000000; stroke-width: 0.8"/>
      </g>
     </g>
     <g id="text_10">
      <!-- 1 -->
      <g transform="translate(33.2775 92.700382) scale(0.1 -0.1)">
       <use xlink:href="#DejaVuSans-31"/>
      </g>
     </g>
    </g>
    <g id="ytick_5">
     <g id="line2d_19">
      <path d="M 46.64 42.062952 
L 709.2 42.062952 
" clip-path="url(#p19afbad66e)" style="fill: none; stroke: #b0b0b0; stroke-opacity: 0.3; stroke-width: 0.8; stroke-linecap: square"/>
     </g>
     <g id="line2d_20">
      <g>
       <use xlink:href="#m82e73e4f47" x="46.64" y="42.062952" style="stroke: #000000; stroke-width: 0.8"/>
      </g>
     </g>
     <g id="text_11">
      <!-- 2 -->
      <g transform="translate(33.2775 45.862171) scale(0.1 -0.1)">
       <use xlink:href="#DejaVuSans-32"/>
      </g>
     </g>
    </g>
    <g id="text_12">
     <!-- tie-rod force [kN] -->
     <g transform="translate(18.818125 179.918281) rotate(-90) scale(0.1 -0.1)">
      <defs>
       <path id="DejaVuSans-2d" d="M 313 2009 
L 1997 2009 
L 1997 1497 
L 313 1497 
L 313 2009 
z
" transform="scale(0.015625)"/>
       <path id="DejaVuSans-72" d="M 2631 2963 
Q 2534 3019 2420 3045 
Q 2306 3072 2169 3072 
Q 1681 3072 1420 2755 
Q 1159 2438 1159 1844 
L 1159 0 
L 581 0 
L 581 3500 
L 1159 3500 
L 1159 2956 
Q 1341 3275 1631 3429 
Q 1922 3584 2338 3584 
Q 2397 3584 2469 3576 
Q 2541 3569 2628 3553 
L 2631 2963 
z
" transform="scale(0.015625)"/>
       <path id="DejaVuSans-6f" d="M 1959 3097 
Q 1497 3097 1228 2736 
Q 959 2375 959 1747 
Q 959 1119 1226 758 
Q 1494 397 1959 397 
Q 2419 397 2687 759 
Q 2956 1122 2956 1747 
Q 2956 2369 2687 2733 
Q 2419 3097 1959 3097 
z
M 1959 3584 
Q 2709 3584 3137 3096 
Q 3566 2609 3566 1747 
Q 3566 888 3137 398 
Q 2709 -91 1959 -91 
Q 1206 -91 779 398 
Q 353 888 353 1747 
Q 353 2609 779 3096 
Q 1206 3584 1959 3584 
z
" transform="scale(0.015625)"/>
       <path id="DejaVuSans-66" d="M 2375 4863 
L 2375 4384 
L 1825 4384 
Q 1516 4384 1395 4259 
Q 1275 4134 1275 3809 
L 1275 3500 
L 2222 3500 
L 2222 3053 
L 1275 3053 
L 1275 0 
L 697 0 
L 697 3053 
L 147 3053 
L 147 3500 
L 697 3500 
L 697 3744 
Q 697 4328 969 4595 
Q 1241 4863 1831 4863 
L 2375 4863 
z
" transform="scale(0.015625)"/>
       <path id="DejaVuSans-4e" d="M 628 4666 
L 1478 4666 
L 3547 763 
L 3547 4666 
L 4159 4666 
L 4159 0 
L 3309 0 
L 1241 3903 
L 1241 0 
L 628 0 
L 628 4666 
z
" transform="scale(0.015625)"/>
      </defs>
      <use xlink:href="#DejaVuSans-74"/>
      <use xlink:href="#DejaVuSans-69" transform="translate(39.208984 0)"/>
      <use xlink:href="#DejaVuSans-65" transform="translate(66.992188 0)"/>
      <use xlink:href="#DejaVuSans-2d" transform="translate(128.515625 0)"/>
      <use xlink:href="#DejaVuSans-72" transform="translate(164.599609 0)"/>
      <use xlink:href="#DejaVuSans-6f" transform="translate(203.462891 0)"/>
      <use xlink:href="#DejaVuSans-64" transform="translate(264.644531 0)"/>
      <use xlink:href="#DejaVuSans-20" transform="translate(328.121094 0)"/>
      <use xlink:href="#DejaVuSans-66" transform="translate(359.908203 0)"/>
      <use xlink:href="#DejaVuSans-6f" transform="translate(395.113281 0)"/>
      <use xlink:href="#DejaVuSans-72" transform="translate(456.294922 0)"/>
      <use xlink:href="#DejaVuSans-63" transform="translate(495.158203 0)"/>
      <use xlink:href="#DejaVuSans-65" transform="translate(550.138672 0)"/>
      <use xlink:href="#DejaVuSans-20" transform="translate(611.662109 0)"/>
      <use xlink:href="#DejaVuSans-5b" transform="translate(643.449219 0)"/>
      <use xlink:href="#DejaVuSans-6b" transform="translate(682.462891 0)"/>
      <use xlink:href="#DejaVuSans-4e" transform="translate(740.373047 0)"/>
      <use xlink:href="#DejaVuSans-5d" transform="translate(815.177734 0)"/>
     </g>
    </g>
   </g>
   <g id="line2d_21">
    <path d="M 76.756364 135.739375 
L 77.358927 135.398797 
L 77.96227 135.372019 
L 79.171294 136.073811 
L 79.77697 136.144832 
L 81.598635 135.347025 
L 82.207395 135.595213 
L 82.816921 136.042386 
L 83.42721 136.346491 
L 84.038261 136.252577 
L 85.262638 135.481637 
L 85.875959 135.484108 
L 87.720425 136.547054 
L 88.33674 136.274952 
L 88.953796 135.790807 
L 89.571593 135.503856 
L 90.190126 135.636966 
L 91.429395 136.49154 
L 92.050125 136.506008 
L 93.916664 135.435402 
L 94.540285 135.693489 
L 95.164623 136.1509 
L 95.789674 136.416065 
L 96.415437 136.226599 
L 97.669085 135.263381 
L 98.296965 135.227924 
L 99.554825 136.007935 
L 100.184799 136.076916 
L 100.815466 135.685709 
L 101.446823 135.078229 
L 102.078868 134.708833 
L 102.711597 134.802619 
L 103.9791 135.47595 
L 104.613868 135.28053 
L 105.885424 134.016435 
L 106.522206 133.751572 
L 107.159654 133.951337 
L 107.797766 134.297167 
L 108.436538 134.337397 
L 109.075968 133.852985 
L 110.35679 132.464189 
L 110.998175 132.331859 
L 112.282662 132.819819 
L 112.925131 132.61357 
L 114.847675 130.569532 
L 115.485443 130.583111 
L 116.121012 130.911079 
L 116.754024 131.107718 
L 117.384144 130.833513 
L 118.634466 129.514439 
L 119.254095 129.322974 
L 119.869686 129.684049 
L 121.0878 130.854737 
L 121.689887 130.924394 
L 122.879125 130.502942 
L 123.465911 130.854324 
L 124.047254 131.776595 
L 125.192994 134.281137 
L 125.757108 135.084677 
L 126.867159 136.027984 
L 127.412852 137.081425 
L 127.952169 138.692395 
L 129.011245 142.477999 
L 129.530796 143.860228 
L 131.048296 146.953009 
L 132.024725 150.324256 
L 132.972073 153.53833 
L 133.889742 155.392614 
L 134.337407 156.077272 
L 134.777644 156.97004 
L 136.053883 160.30166 
L 136.464481 160.956773 
L 136.867659 161.371184 
L 138.032805 162.148052 
L 138.406615 162.795544 
L 139.133015 164.433889 
L 139.485848 164.650783 
L 139.831954 164.075366 
L 140.171519 163.187159 
L 140.504779 162.892367 
L 140.831974 163.660467 
L 141.469098 166.004048 
L 141.779502 166.144263 
L 142.084928 165.701039 
L 142.385885 165.725043 
L 142.682943 167.014191 
L 142.976703 169.648252 
L 143.557556 178.986908 
L 145.316964 217.142345 
L 145.929267 225.873459 
L 146.54299 230.781587 
L 147.12714 233.349591 
L 147.666496 234.590897 
L 147.920519 234.801497 
L 148.16548 234.753718 
L 148.632151 234.130341 
L 149.073616 233.218793 
L 149.496301 231.694128 
L 149.906314 229.204541 
L 150.505875 223.310026 
L 151.095994 216.99156 
L 151.489102 214.625154 
L 151.885281 213.795264 
L 152.287357 213.739602 
L 152.698297 213.777501 
L 153.120548 213.531263 
L 153.555269 212.89296 
L 154.690642 210.787541 
L 155.161655 210.389383 
L 155.400448 210.35447 
L 155.641349 210.448056 
L 155.88432 210.695801 
L 156.376433 211.394783 
L 156.625646 209.554296 
L 156.877166 198.651183 
L 157.131257 168.537799 
L 157.388168 122.29136 
L 157.648099 100.879444 
L 157.911158 99.862076 
L 158.177486 111.511737 
L 158.447253 132.48979 
L 158.720471 141.378166 
L 159.277246 112.990762 
L 159.560877 112.857291 
L 160.137851 119.000606 
L 160.72672 122.556398 
L 161.32677 124.865627 
L 161.630817 125.661116 
L 161.937445 125.621836 
L 162.87205 122.977532 
L 163.188295 123.05031 
L 163.506861 125.037778 
L 164.476812 140.298822 
L 164.804965 137.899752 
L 165.135544 133.948695 
L 165.46854 134.045744 
L 166.482015 151.38203 
L 166.824644 151.786697 
L 167.866629 143.661362 
L 168.218573 146.010988 
L 168.572781 149.819503 
L 168.929225 152.216924 
L 169.287876 151.754289 
L 170.376849 142.022012 
L 170.744121 142.498035 
L 171.484964 146.311926 
L 171.858482 145.706606 
L 172.990771 137.977569 
L 173.371072 138.844409 
L 173.751909 141.076736 
L 174.132767 142.573311 
L 174.513174 142.155884 
L 175.270965 138.315816 
L 175.64762 138.004677 
L 176.022347 139.542567 
L 176.394855 141.71617 
L 176.764891 143.028383 
L 177.13225 142.790658 
L 177.858388 140.234173 
L 178.216984 140.280151 
L 179.273854 144.398193 
L 179.619465 144.344248 
L 180.300191 142.686236 
L 180.635383 142.868596 
L 180.96726 144.128337 
L 181.621641 147.377003 
L 182.264629 149.803234 
L 182.582315 152.278566 
L 184.451935 172.171368 
L 185.066918 183.437879 
L 185.679076 194.98493 
L 186.589717 206.757919 
L 187.780912 220.237767 
L 188.361871 224.012021 
L 188.647732 224.944994 
L 188.930353 225.430647 
L 189.209802 225.580226 
L 189.486292 225.464677 
L 189.76016 225.13046 
L 190.301634 223.945093 
L 192.716306 217.255259 
L 193.265211 216.58793 
L 194.105014 215.95202 
L 194.389123 215.324512 
L 194.67516 213.548668 
L 194.963094 209.139667 
L 195.252946 200.102246 
L 196.133962 152.767369 
L 196.431022 148.304214 
L 197.028918 158.637917 
L 197.329206 158.622792 
L 197.630129 150.338714 
L 198.234071 123.346479 
L 198.537333 123.585006 
L 199.146459 145.315755 
L 199.451999 149.267741 
L 199.757927 145.656823 
L 200.06414 138.540013 
L 200.370615 135.626203 
L 200.677372 141.333979 
L 201.291746 159.986386 
L 201.599357 164.879594 
L 201.907257 166.434 
L 202.21548 166.173368 
L 202.524069 166.382251 
L 202.833045 168.887944 
L 203.452127 179.860624 
L 204.383157 196.319825 
L 205.00482 204.969571 
L 205.626193 211.209102 
L 206.245816 215.510262 
L 206.862647 218.49071 
L 207.475711 220.220808 
L 207.780563 220.639917 
L 208.084209 220.823288 
L 208.386627 220.819948 
L 208.987895 220.390901 
L 209.585052 219.566859 
L 211.069749 217.18777 
L 211.665217 216.556302 
L 212.564279 216.04939 
L 212.86576 215.85418 
L 213.168243 215.464406 
L 213.471777 214.627486 
L 213.77647 213.036768 
L 214.082216 210.371965 
L 214.388788 205.861211 
L 214.696079 198.741263 
L 215.312649 176.101381 
L 215.931672 151.998692 
L 216.242192 145.613282 
L 216.865157 141.663971 
L 217.177468 136.799522 
L 217.803536 118.976665 
L 218.117191 114.109915 
L 218.431177 113.190811 
L 219.060197 116.060592 
L 219.37546 115.7683 
L 220.008154 112.647414 
L 220.325723 112.819947 
L 220.963394 115.474358 
L 222.572011 123.03601 
L 223.534327 126.650154 
L 224.168589 128.13654 
L 224.795339 128.790112 
L 225.721119 129.331513 
L 226.933121 129.75411 
L 228.417174 130.210876 
L 230.45203 131.185805 
L 231.316863 131.238425 
L 233.902149 130.887617 
L 235.927832 131.090455 
L 238.597952 130.697843 
L 238.900642 130.490768 
L 239.511515 129.638538 
L 240.130776 128.189659 
L 241.396215 124.427977 
L 242.042137 122.627805 
L 242.368338 122.015082 
L 242.696726 121.801293 
L 243.02733 122.120885 
L 243.360155 122.739394 
L 243.695199 123.035089 
L 244.032456 122.522613 
L 244.713634 120.637749 
L 245.057525 120.342709 
L 245.403529 120.511323 
L 246.101638 121.170374 
L 246.453682 121.047369 
L 247.521453 119.563277 
L 247.881274 119.488766 
L 248.24319 119.870425 
L 248.607297 120.95432 
L 249.342304 124.062823 
L 249.713255 124.359866 
L 250.462126 123.040782 
L 250.839961 123.238735 
L 251.219926 124.618403 
L 251.985958 129.396232 
L 252.371971 130.773799 
L 252.759958 130.820652 
L 253.149894 130.321264 
L 253.54176 130.418005 
L 253.935544 131.75507 
L 254.728832 135.956846 
L 255.128319 136.539762 
L 255.529689 135.776779 
L 255.932928 134.731945 
L 256.338025 134.588702 
L 256.744968 135.667934 
L 257.153746 137.178006 
L 257.56435 138.02331 
L 257.976769 137.712275 
L 258.807003 135.663846 
L 259.224792 135.697647 
L 260.065661 137.609278 
L 260.488719 137.903744 
L 260.913512 137.332269 
L 261.34003 136.404705 
L 261.768259 135.902762 
L 262.198189 136.248283 
L 263.063114 137.951378 
L 263.498089 138.080292 
L 264.373016 137.045942 
L 264.812946 137.027696 
L 265.254509 137.679012 
L 265.697694 138.628154 
L 266.142493 139.289919 
L 266.588897 139.380837 
L 267.486479 138.923895 
L 267.937638 139.229507 
L 269.300473 141.452434 
L 269.757835 141.531356 
L 270.216721 141.381512 
L 270.677118 141.404318 
L 271.13901 141.850853 
L 272.067099 143.351422 
L 272.533152 143.898846 
L 273.000447 144.202962 
L 273.938497 144.286997 
L 274.409155 144.641444 
L 274.880864 145.559771 
L 275.827392 148.498285 
L 276.302201 150.687979 
L 279.655779 175.356977 
L 280.621975 184.813915 
L 281.589472 195.66599 
L 282.556678 203.661585 
L 283.522918 208.976333 
L 284.488274 212.738403 
L 285.452423 215.58168 
L 286.41549 217.391545 
L 287.377688 218.371775 
L 288.338622 218.839164 
L 293.577611 220.269872 
L 294.051371 220.294013 
L 294.525778 220.13773 
L 295.001082 219.580198 
L 295.477604 218.160005 
L 295.955321 215.132422 
L 296.43402 209.773313 
L 298.355889 179.314837 
L 299.322037 173.694591 
L 299.806944 169.307599 
L 300.293278 160.640588 
L 301.270513 130.4396 
L 301.761369 124.478179 
L 302.253711 128.667645 
L 302.747532 137.891349 
L 303.242814 142.62414 
L 303.739587 138.461483 
L 304.23789 127.605599 
L 304.737717 119.962306 
L 305.239012 118.553216 
L 305.741705 122.397854 
L 306.751118 136.03777 
L 307.257793 134.95144 
L 308.274958 122.438804 
L 308.785382 121.509105 
L 309.297004 125.558746 
L 309.809832 132.923333 
L 310.323876 138.287245 
L 310.839134 136.844852 
L 311.3555 130.376118 
L 311.872504 125.32995 
L 312.389616 125.24506 
L 312.906359 130.585896 
L 313.422309 138.592789 
L 313.937067 142.422724 
L 314.450254 139.83455 
L 314.961509 133.110145 
L 315.470487 128.676022 
L 315.976864 130.117102 
L 316.980674 143.868299 
L 317.47758 146.061417 
L 317.970817 142.907459 
L 318.460145 137.084656 
L 318.945332 133.869866 
L 319.42616 136.377146 
L 320.373931 148.703328 
L 320.840491 150.631697 
L 321.301927 148.539986 
L 321.758077 144.505987 
L 322.208788 142.049066 
L 322.653916 143.760712 
L 323.52691 153.627196 
L 323.954542 156.314761 
L 324.376133 155.972886 
L 325.20093 151.080811 
L 325.604049 150.790212 
L 326.000949 153.06786 
L 326.77609 159.360589 
L 327.154354 160.363406 
L 327.526447 159.443071 
L 328.25236 155.687344 
L 328.606342 155.501052 
L 328.954469 157.003222 
L 329.633732 161.107778 
L 329.965146 161.881002 
L 330.291295 161.755909 
L 330.612406 161.389799 
L 330.92873 161.568965 
L 331.240527 162.974999 
L 331.851773 169.244447 
L 333.614057 191.642003 
L 335.327452 224.910326 
L 335.888955 230.104173 
L 336.437176 233.120523 
L 336.965168 234.845161 
L 337.469693 235.762746 
L 337.950114 236.126252 
L 338.408416 236.073609 
L 338.847884 235.677723 
L 339.271219 234.952413 
L 339.680818 233.770817 
L 340.274696 231.037741 
L 342.34097 219.300348 
L 344.029363 213.874449 
L 345.231983 210.4882 
L 345.441925 208.949843 
L 345.655008 204.975694 
L 345.871417 195.340063 
L 346.314781 150.246449 
L 346.541791 128.508181 
L 346.772236 126.055093 
L 347.24246 151.519121 
L 347.481347 153.118681 
L 347.722189 141.589214 
L 347.96482 122.474999 
L 348.209206 114.043099 
L 348.455273 115.381029 
L 348.70295 124.043983 
L 348.952172 137.342767 
L 349.202849 143.587994 
L 349.454918 139.70902 
L 349.708392 130.505112 
L 349.963316 126.684722 
L 350.219738 132.28467 
L 350.737145 155.726989 
L 350.998127 160.408407 
L 351.260673 161.026741 
L 351.524853 160.186458 
L 351.79074 161.569338 
L 352.327644 174.535803 
L 352.87051 188.069307 
L 353.41734 197.245675 
L 354.238949 206.791617 
L 354.784653 211.04053 
L 355.328466 213.756069 
L 355.870992 215.140211 
L 356.142078 215.435142 
L 356.413246 215.529918 
L 356.684651 215.468925 
L 357.228591 215.037935 
L 358.598977 213.662023 
L 359.433758 213.116387 
L 359.715384 212.649992 
L 359.999163 211.5798 
L 360.285348 209.248463 
L 360.574144 204.639182 
L 360.865752 196.634785 
L 361.458132 169.894789 
L 362.063077 145.809948 
L 362.370083 143.633212 
L 362.679948 145.754111 
L 362.992564 145.799929 
L 363.307856 139.33858 
L 363.946427 118.236775 
L 364.269618 115.624274 
L 364.595165 117.310237 
L 365.252008 124.123862 
L 365.582645 124.294308 
L 366.581572 117.140647 
L 366.9167 117.176221 
L 367.928767 120.779076 
L 368.268799 119.77153 
L 368.953991 115.506742 
L 369.299467 114.521409 
L 369.646917 114.529114 
L 369.996368 115.11325 
L 370.701074 116.910738 
L 371.767053 120.904246 
L 372.838176 124.882451 
L 373.9098 127.981097 
L 374.620713 129.504428 
L 375.326462 130.641383 
L 376.02807 131.470966 
L 376.728957 132.02115 
L 377.432101 132.197524 
L 377.785122 132.092431 
L 378.139294 131.833052 
L 378.494731 131.403862 
L 379.20983 130.021253 
L 379.931178 128.027449 
L 381.026095 124.77739 
L 381.394744 124.134044 
L 381.765316 123.939484 
L 382.137847 123.924079 
L 382.888946 123.416981 
L 383.267574 123.730821 
L 383.648272 125.157116 
L 384.802836 131.868164 
L 385.191827 131.971926 
L 385.582848 131.364406 
L 385.975883 131.637784 
L 386.370908 133.557465 
L 386.76789 136.334201 
L 387.166804 138.219626 
L 387.567627 138.319634 
L 388.374913 135.762972 
L 388.781347 135.791859 
L 389.599729 138.329542 
L 390.01165 138.5086 
L 390.425374 137.298679 
L 390.840891 135.485107 
L 391.258192 134.383434 
L 391.677266 134.575417 
L 392.52069 136.344842 
L 392.945018 136.120805 
L 393.798853 133.817346 
L 394.22834 133.535003 
L 394.659527 134.268766 
L 395.092402 135.397537 
L 395.526955 136.051934 
L 395.963175 135.848787 
L 396.401052 135.105767 
L 396.840576 134.589178 
L 397.281738 134.882441 
L 398.168935 136.950377 
L 398.614948 137.399119 
L 399.062558 137.085167 
L 399.511755 136.457353 
L 399.96253 136.200214 
L 400.414874 136.651663 
L 400.868777 137.520307 
L 401.324229 138.141887 
L 401.78122 138.04865 
L 403.160672 136.18072 
L 403.622104 136.349084 
L 404.083504 136.653838 
L 404.54441 136.520292 
L 405.004385 135.747813 
L 405.919924 133.216141 
L 407.723211 129.413621 
L 409.041831 124.508034 
L 409.473738 123.540404 
L 410.744852 121.580612 
L 411.97702 118.91247 
L 412.378677 118.374209 
L 413.167882 117.856488 
L 413.937815 117.420609 
L 414.68792 116.390452 
L 415.055346 115.914956 
L 415.774757 115.447419 
L 416.126868 115.036501 
L 416.474121 114.402101 
L 416.816699 113.544357 
L 417.154809 112.289551 
L 418.144696 106.673658 
L 418.467406 106.002669 
L 418.786939 106.026355 
L 419.417534 106.783094 
L 419.729077 107.306735 
L 420.038382 108.072844 
L 420.345594 109.23656 
L 420.954223 112.831259 
L 421.855202 118.329126 
L 422.742358 122.243755 
L 423.61236 125.035312 
L 424.458652 127.016293 
L 425.272921 128.250367 
L 426.553464 129.849464 
L 427.282159 130.403555 
L 427.754611 130.493167 
L 428.218069 130.351905 
L 429.346217 129.723051 
L 429.788615 129.779799 
L 430.227755 130.101398 
L 432.192473 132.0644 
L 433.076524 132.339017 
L 434.909253 132.79361 
L 435.147195 132.654729 
L 435.38772 132.312413 
L 435.877301 130.785456 
L 437.42167 124.623486 
L 437.690272 125.098938 
L 437.962009 127.579553 
L 438.514701 134.331457 
L 438.795527 133.333184 
L 439.365848 128.202313 
L 439.655276 129.097559 
L 440.242557 136.407923 
L 440.540363 137.28489 
L 441.450285 129.652121 
L 441.759047 130.406871 
L 442.384556 134.012208 
L 442.701236 133.261713 
L 443.342328 128.587502 
L 443.666678 127.646776 
L 443.993529 128.217201 
L 444.322857 129.523015 
L 444.654635 130.301635 
L 444.988839 129.760654 
L 445.664422 127.137264 
L 446.005753 126.873305 
L 446.34941 127.58142 
L 447.043611 129.663239 
L 447.39411 129.682125 
L 448.101796 128.498889 
L 448.458939 128.704557 
L 448.818255 129.688278 
L 449.54334 131.995068 
L 449.909076 132.257594 
L 450.276921 131.995793 
L 450.646859 131.869788 
L 451.018873 132.388178 
L 452.147248 135.622998 
L 452.527443 135.780021 
L 452.909652 135.640835 
L 453.293862 135.693061 
L 453.680061 136.253303 
L 454.458371 138.084973 
L 454.85046 138.487393 
L 455.244488 138.397986 
L 455.640442 138.155982 
L 456.038308 138.172551 
L 456.438075 138.595401 
L 457.243259 139.631816 
L 457.64865 139.647372 
L 458.464968 139.00648 
L 458.875869 138.932135 
L 460.119394 139.507453 
L 460.537469 139.286095 
L 461.378896 138.403903 
L 461.802227 138.215633 
L 462.654064 138.263897 
L 463.082548 138.090513 
L 463.51273 137.653053 
L 464.378139 136.545417 
L 465.250211 136.102645 
L 465.68872 135.852541 
L 466.128864 135.39146 
L 467.458997 133.575909 
L 468.800377 132.319815 
L 471.031616 129.231001 
L 471.914295 128.29339 
L 473.651834 125.884891 
L 474.927366 124.719057 
L 475.347566 123.905871 
L 475.765453 122.516529 
L 477.006483 117.135809 
L 478.231618 113.708182 
L 479.041466 111.781298 
L 479.444648 111.331537 
L 479.846819 111.128187 
L 480.248111 111.08755 
L 480.648643 111.349562 
L 481.048498 112.078549 
L 481.447754 113.304062 
L 482.641772 118.625491 
L 484.216947 125.175539 
L 485.376889 128.992331 
L 486.139048 130.901148 
L 486.893453 132.270646 
L 487.641614 133.087599 
L 488.013791 133.290438 
L 488.384833 133.362958 
L 489.124005 133.172721 
L 489.859987 132.669855 
L 490.961103 131.836461 
L 491.697511 131.651676 
L 492.439001 131.876606 
L 493.562176 132.538432 
L 493.939135 132.436334 
L 494.317215 131.794666 
L 494.69649 130.704692 
L 495.076997 130.879776 
L 495.458761 133.114703 
L 495.841882 132.392464 
L 496.612681 122.784444 
L 497.000549 123.962005 
L 498.175788 166.652753 
L 498.571716 169.550434 
L 498.969722 165.683259 
L 499.771914 149.75743 
L 500.176013 152.452909 
L 500.989872 170.687569 
L 501.398919 175.504524 
L 501.808579 175.651882 
L 502.21837 170.587299 
L 503.036872 149.55368 
L 503.44505 144.312516 
L 503.852305 147.889091 
L 504.258588 155.243752 
L 504.663889 159.751846 
L 505.068213 158.230098 
L 505.471603 150.299773 
L 505.874145 139.185127 
L 506.275935 132.505598 
L 506.677029 135.091345 
L 507.077388 143.267744 
L 507.476822 149.100382 
L 507.875068 148.845155 
L 508.667139 135.645429 
L 509.06063 134.057401 
L 509.452322 140.685006 
L 510.230818 158.789641 
L 510.618026 162.875943 
L 511.389322 164.765613 
L 511.773719 168.162362 
L 513.298307 190.152154 
L 514.04773 195.787782 
L 515.154106 201.847777 
L 515.882141 207.576896 
L 516.962785 217.687254 
L 517.319898 219.595917 
L 517.675316 220.81868 
L 518.028918 221.584426 
L 518.730087 222.367115 
L 519.422643 222.696319 
L 520.447679 222.919333 
L 521.125474 222.869284 
L 521.801843 222.52397 
L 522.479199 221.84002 
L 523.500028 220.324008 
L 524.184527 219.027868 
L 524.528105 218.187681 
L 524.872757 217.02953 
L 525.218748 215.125427 
L 525.566307 211.58226 
L 525.915638 205.082901 
L 526.266942 194.529841 
L 527.334195 155.591149 
L 527.694675 153.373353 
L 528.422358 158.730798 
L 528.789009 156.142868 
L 529.156906 146.66818 
L 529.525659 132.163647 
L 529.894953 123.621182 
L 530.26446 124.738483 
L 531.002927 142.688662 
L 531.371396 145.251103 
L 531.739143 141.229735 
L 532.106124 134.726747 
L 532.472357 133.025321 
L 532.837862 139.194163 
L 533.566728 155.229187 
L 533.930073 157.246052 
L 534.292685 155.88271 
L 534.654592 153.945699 
L 535.01584 154.508572 
L 535.376482 158.564902 
L 536.096075 169.963237 
L 536.81351 177.481329 
L 537.88621 185.876245 
L 538.598752 193.967029 
L 540.009709 212.792083 
L 540.703619 218.704075 
L 541.388978 222.317336 
L 542.066283 224.295923 
L 542.402281 224.768021 
L 542.736752 224.909185 
L 543.069874 224.704323 
L 543.401764 224.13226 
L 544.389277 221.618269 
L 545.04072 220.83894 
L 545.687707 220.300861 
L 546.3315 219.415117 
L 547.614369 216.944705 
L 548.898262 214.45972 
L 549.220019 214.174768 
L 549.542154 214.111264 
L 550.187578 214.435329 
L 551.158573 215.019516 
L 551.807966 215.001809 
L 552.459209 214.67228 
L 553.439163 213.89767 
L 554.094205 213.307654 
L 554.750411 213.019661 
L 556.066613 212.660118 
L 556.727355 212.27845 
L 557.390729 211.627456 
L 559.062266 209.172143 
L 559.398771 209.093613 
L 559.735915 209.3528 
L 560.751825 210.562506 
L 561.433522 210.990422 
L 561.77605 211.002111 
L 562.119867 210.828068 
L 562.465033 210.417118 
L 562.811541 209.726923 
L 563.159425 208.719031 
L 563.859523 205.580875 
L 564.920773 199.668029 
L 565.635187 197.439041 
L 566.35466 196.285473 
L 566.716106 195.857801 
L 567.078336 195.658266 
L 567.440971 195.800025 
L 568.166173 196.453711 
L 568.528175 196.390539 
L 568.889443 195.803706 
L 569.609001 193.202817 
L 570.323091 190.868043 
L 571.380286 189.269211 
L 571.728632 187.764685 
L 572.419385 181.972856 
L 573.102816 175.71627 
L 573.442057 173.718983 
L 573.779802 172.66342 
L 574.116168 172.436923 
L 574.785289 172.921079 
L 575.118359 172.489626 
L 576.113764 169.006029 
L 576.444876 168.749189 
L 576.775904 170.66954 
L 578.101523 187.563302 
L 579.097809 196.1933 
L 580.090797 207.925484 
L 580.419556 210.406002 
L 580.747146 212.031028 
L 581.073887 212.949298 
L 581.400289 213.112924 
L 581.726941 212.366886 
L 582.05436 210.575043 
L 582.38297 207.718136 
L 583.045209 198.15421 
L 586.120064 137.289203 
L 586.471369 133.760258 
L 586.824678 132.351932 
L 587.180002 131.631433 
L 587.537349 130.427431 
L 588.258111 127.04786 
L 588.621517 126.351916 
L 588.98693 126.759017 
L 589.723735 129.159875 
L 590.095109 129.858842 
L 590.46845 129.880186 
L 590.843749 129.708523 
L 591.220997 130.042961 
L 591.600185 131.210216 
L 592.364353 134.490855 
L 592.749318 135.378001 
L 593.136193 135.53509 
L 593.52497 135.520268 
L 593.915641 135.981399 
L 595.098925 139.141051 
L 595.497078 139.250358 
L 596.29891 138.462609 
L 596.702569 138.509896 
L 597.515319 139.416274 
L 597.924389 139.456022 
L 598.335241 138.961076 
L 599.162256 137.53992 
L 599.578399 137.325949 
L 600.415908 137.504794 
L 600.837256 137.188486 
L 602.111563 135.219339 
L 602.539724 135.126397 
L 602.969565 135.239966 
L 603.401078 135.234313 
L 603.834254 134.915076 
L 604.705557 133.915683 
L 605.143666 133.752585 
L 606.467716 134.163499 
L 607.806157 133.500185 
L 608.255459 133.580446 
L 609.158745 134.135216 
L 609.612711 134.225423 
L 610.983795 133.948485 
L 611.905422 134.459966 
L 612.368482 134.700554 
L 612.833029 134.752977 
L 613.76655 134.556352 
L 614.235509 134.612359 
L 615.651083 135.250228 
L 616.601972 135.097726 
L 617.079545 135.033364 
L 617.558527 135.122022 
L 618.52069 135.520417 
L 619.003856 135.571684 
L 620.461607 135.342311 
L 622.424266 135.78435 
L 623.413611 135.626022 
L 624.408226 135.821672 
L 625.408059 136.131885 
L 627.42317 136.245686 
L 628.947816 136.803215 
L 630.483685 136.99634 
L 632.548679 137.857844 
L 633.588422 138.015097 
L 634.632925 138.431396 
L 635.682108 138.852049 
L 637.264368 139.101246 
L 637.793991 139.45922 
L 638.324705 139.982679 
L 638.856505 140.271142 
L 639.389387 140.262408 
L 639.923349 140.124026 
L 640.994524 139.479891 
L 641.531771 140.128684 
L 642.070178 142.812821 
L 644.236076 163.369202 
L 644.780258 166.984878 
L 645.325039 169.150104 
L 645.870159 168.917306 
L 646.961421 163.972294 
L 647.507897 163.649999 
L 648.05525 165.842458 
L 649.15308 173.830387 
L 649.703514 176.562293 
L 650.25489 176.506218 
L 650.807172 172.588478 
L 651.36035 164.518395 
L 652.469504 144.589758 
L 653.025519 142.509982 
L 654.140454 152.090767 
L 654.699362 152.304226 
L 655.259228 145.639713 
L 655.820075 133.656393 
L 656.381922 125.364593 
L 656.944772 125.212203 
L 658.073481 138.806531 
L 658.639328 139.62946 
L 659.206163 132.718156 
L 659.773985 124.376092 
L 660.342787 120.805069 
L 660.912554 123.050056 
L 662.05498 137.25919 
L 662.627632 138.155666 
L 663.775786 125.123858 
L 664.351274 122.883953 
L 664.927689 126.535374 
L 666.083315 142.015466 
L 666.662522 142.269497 
L 667.823706 129.792427 
L 668.40567 128.930468 
L 668.988534 134.892734 
L 669.572295 143.347491 
L 670.156947 147.321238 
L 670.742486 144.978024 
L 671.916239 131.632699 
L 672.504448 132.351675 
L 673.683516 146.312623 
L 674.274361 148.000598 
L 674.866068 143.366643 
L 675.45864 134.824826 
L 676.052078 129.694748 
L 676.646373 131.800755 
L 677.241524 139.36867 
L 677.837529 145.249054 
L 678.434375 145.085436 
L 679.083636 137.801912 
L 679.083636 137.801912 
" clip-path="url(#p19afbad66e)" style="fill: none; stroke: #2ca02c; stroke-width: 0.9; stroke-linecap: square"/>
   </g>
   <g id="line2d_22">
    <path d="M 76.756364 135.739375 
L 77.358927 135.398744 
L 77.96227 135.371827 
L 79.171294 136.073991 
L 79.77697 136.144896 
L 81.598635 135.346898 
L 82.207395 135.595157 
L 82.816921 136.042404 
L 83.42721 136.346148 
L 84.038261 136.251984 
L 85.262638 135.481943 
L 85.875959 135.484322 
L 87.720425 136.545487 
L 88.33674 136.273714 
L 88.953796 135.790753 
L 89.571593 135.504314 
L 90.190126 135.637106 
L 91.429395 136.489857 
L 92.050125 136.503901 
L 93.916664 135.435995 
L 94.540285 135.693509 
L 95.164623 136.150217 
L 95.789674 136.414734 
L 96.415437 136.225561 
L 97.669085 135.263967 
L 98.296965 135.228153 
L 99.554825 136.007925 
L 100.184799 136.076866 
L 100.815466 135.685707 
L 101.446823 135.077803 
L 102.078868 134.707063 
L 102.711597 134.800087 
L 103.9791 135.47518 
L 104.613868 135.278899 
L 105.885424 134.005659 
L 106.522206 133.735676 
L 107.159654 133.934627 
L 107.797766 134.282584 
L 108.436538 134.322177 
L 109.075968 133.829797 
L 110.35679 132.407844 
L 110.998175 132.264686 
L 112.282662 132.7551 
L 112.925131 132.543194 
L 114.847675 130.445127 
L 115.485443 130.463971 
L 116.121012 130.809254 
L 116.754024 131.020529 
L 117.384144 130.749473 
L 118.634466 129.420426 
L 119.254095 129.236152 
L 119.869686 129.616692 
L 121.0878 130.826745 
L 121.689887 130.905014 
L 122.879125 130.493733 
L 123.465911 130.853515 
L 124.047254 131.783681 
L 125.192994 134.288158 
L 125.757108 135.087469 
L 126.867159 136.024766 
L 127.412852 137.076663 
L 127.952169 138.688734 
L 129.011245 142.489948 
L 129.530796 143.884224 
L 131.048296 147.017553 
L 132.024725 150.382703 
L 132.972073 153.533709 
L 133.889742 155.308432 
L 134.777644 156.753781 
L 136.053883 159.60779 
L 136.464481 160.104871 
L 136.867659 160.383474 
L 138.032805 160.768816 
L 138.773313 161.742288 
L 139.133015 162.194547 
L 139.485848 162.214103 
L 139.831954 161.647914 
L 140.171519 160.858995 
L 140.504779 160.522971 
L 140.831974 160.973771 
L 141.469098 162.338343 
L 141.779502 162.252527 
L 142.084928 161.777703 
L 142.385885 161.632023 
L 142.682943 162.304492 
L 143.267928 165.517771 
L 143.846526 168.581816 
L 144.135725 168.360357 
L 144.42611 166.733336 
L 145.929267 153.705892 
L 146.840525 148.179209 
L 148.16548 141.871037 
L 149.073616 138.395124 
L 149.702597 136.820325 
L 149.906314 136.714295 
L 150.10786 136.945154 
L 150.505875 138.377488 
L 151.095994 141.076387 
L 151.292341 141.506008 
L 151.489102 141.594587 
L 151.686632 141.381629 
L 152.085394 140.369874 
L 152.907895 138.129626 
L 153.336364 137.592404 
L 153.777104 137.526494 
L 154.228905 137.825281 
L 155.161655 138.622815 
L 155.641349 138.755208 
L 156.129347 138.641551 
L 156.625646 138.482038 
L 157.131257 139.534832 
L 157.911158 118.605151 
L 158.177486 118.58604 
L 158.720471 140.709792 
L 159.560877 94.257738 
L 159.847811 87.758007 
L 160.137851 84.458118 
L 160.430853 83.871918 
L 160.72672 86.338182 
L 161.630817 104.815768 
L 161.937445 106.62993 
L 162.558131 103.076027 
L 162.87205 103.073614 
L 163.188295 106.770243 
L 163.506861 115.101527 
L 164.151087 138.297086 
L 164.476812 141.582687 
L 164.804965 138.239085 
L 165.135544 133.666867 
L 165.46854 133.884498 
L 166.482015 150.469978 
L 166.824644 150.086261 
L 167.516975 143.704743 
L 167.866629 142.544896 
L 168.218573 144.401125 
L 168.572781 147.274857 
L 168.929225 148.888142 
L 169.287876 148.391388 
L 170.376849 141.011397 
L 170.744121 141.470531 
L 171.484964 144.722158 
L 171.858482 144.279161 
L 172.990771 137.786265 
L 173.371072 138.616886 
L 173.751909 140.725018 
L 174.132767 142.164273 
L 174.513174 141.822669 
L 175.270965 138.236551 
L 175.64762 137.951109 
L 176.022347 139.459863 
L 176.394855 141.585142 
L 176.764891 142.866433 
L 177.13225 142.642577 
L 177.858388 140.1693 
L 178.216984 140.221928 
L 179.273854 144.247815 
L 179.619465 144.195709 
L 180.300191 142.590263 
L 180.635383 142.770134 
L 180.96726 143.991708 
L 181.621641 147.081849 
L 182.264629 149.285338 
L 182.897781 154.355446 
L 183.523258 159.246552 
L 184.451935 163.192892 
L 184.759768 164.096318 
L 185.066918 164.064903 
L 185.373379 162.695193 
L 187.486314 147.56836 
L 188.361871 143.22459 
L 188.930353 141.245891 
L 189.486292 140.009724 
L 190.031801 139.405957 
L 190.570082 139.274934 
L 192.174763 139.488861 
L 192.716306 139.20455 
L 194.389123 138.039237 
L 194.67516 138.08638 
L 194.963094 138.38042 
L 195.252946 139.082593 
L 195.838458 141.044957 
L 196.133962 140.581353 
L 196.431022 140.733328 
L 197.329206 149.64685 
L 197.630129 146.256214 
L 198.234071 124.853033 
L 198.537333 124.348739 
L 199.451999 148.905061 
L 199.757927 145.351702 
L 200.06414 138.428145 
L 200.370615 135.601117 
L 200.677372 141.197199 
L 201.291746 157.592993 
L 201.599357 160.379667 
L 201.907257 160.2384 
L 202.524069 158.025074 
L 202.833045 158.229435 
L 203.142404 158.917638 
L 203.452127 158.943355 
L 203.762185 157.919121 
L 205.936299 146.301075 
L 206.862647 142.871594 
L 207.475711 141.197892 
L 208.084209 140.048138 
L 208.687836 139.396133 
L 209.286914 139.129806 
L 210.476159 139.069854 
L 211.367146 138.89118 
L 213.168243 138.397695 
L 213.471777 138.421682 
L 213.77647 138.630452 
L 214.082216 139.303588 
L 214.696079 141.764124 
L 215.312649 144.820578 
L 215.621839 144.939333 
L 216.242192 141.521792 
L 216.865157 140.16211 
L 217.177468 136.54244 
L 218.117191 113.749708 
L 218.431177 110.852825 
L 218.745482 110.753891 
L 219.060197 111.223202 
L 219.37546 109.236476 
L 220.008154 97.060855 
L 220.644128 86.015778 
L 222.572011 62.601056 
L 223.214761 56.781366 
L 223.852339 52.925681 
L 224.795339 48.997457 
L 225.414323 47.428096 
L 226.026298 46.604559 
L 226.632248 46.232807 
L 227.232595 46.13372 
L 227.827439 46.26614 
L 228.417174 46.637775 
L 229.29362 47.572864 
L 230.740575 49.473895 
L 232.179841 51.310498 
L 233.041216 52.26667 
L 233.615018 53.398929 
L 235.636042 58.050129 
L 236.514279 59.779757 
L 237.104524 60.518586 
L 237.69854 61.112261 
L 237.997089 61.604961 
L 238.296833 62.52787 
L 238.597952 64.195656 
L 239.205102 70.388776 
L 240.759033 92.542805 
L 241.396215 96.977934 
L 242.368338 101.641137 
L 242.696726 104.014015 
L 243.360155 110.643276 
L 243.695199 112.56388 
L 244.032456 112.271159 
L 244.713634 108.814746 
L 245.057525 108.262773 
L 245.403529 108.803358 
L 246.101638 110.671057 
L 246.453682 110.526348 
L 246.807688 109.354268 
L 247.521453 106.379692 
L 247.881274 105.638183 
L 248.24319 106.135843 
L 248.607297 108.693239 
L 249.342304 116.277273 
L 249.713255 117.383052 
L 250.462126 115.972484 
L 250.839961 116.891971 
L 251.219926 119.784706 
L 251.985958 127.635398 
L 252.371971 129.665124 
L 252.759958 129.901518 
L 253.149894 129.455349 
L 253.54176 129.698813 
L 253.935544 131.318627 
L 254.728832 135.970101 
L 255.128319 136.576065 
L 255.529689 135.776277 
L 255.932928 134.705691 
L 256.338025 134.566593 
L 256.744968 135.667263 
L 257.153746 137.187936 
L 257.56435 138.024074 
L 257.976769 137.702662 
L 258.807003 135.664751 
L 259.224792 135.698185 
L 260.065661 137.589798 
L 260.488719 137.876886 
L 260.913512 137.311177 
L 261.34003 136.396553 
L 261.768259 135.901336 
L 262.198189 136.243118 
L 263.063114 137.922667 
L 263.498089 138.045678 
L 264.373016 137.025558 
L 264.812946 137.007472 
L 265.254509 137.645738 
L 265.697694 138.570656 
L 266.142493 139.206982 
L 266.588897 139.284252 
L 267.486479 138.826339 
L 267.937638 139.114189 
L 269.300473 141.186453 
L 269.757835 141.237152 
L 270.216721 141.076355 
L 270.677118 141.080546 
L 271.13901 141.478213 
L 272.067099 142.811232 
L 272.533152 143.279156 
L 273.000447 143.523355 
L 273.938497 143.546464 
L 274.409155 143.838158 
L 274.880864 144.618572 
L 275.827392 147.037019 
L 276.302201 148.75182 
L 277.255012 153.892399 
L 277.733064 155.666596 
L 278.212218 156.576293 
L 278.692444 157.03288 
L 279.173673 157.222835 
L 279.655779 156.924936 
L 280.138606 156.040915 
L 280.621975 154.673129 
L 283.039916 146.017802 
L 284.005721 143.696371 
L 284.970511 142.07923 
L 285.934069 141.010781 
L 286.8967 140.437668 
L 287.858388 140.274371 
L 291.205226 140.255939 
L 295.001082 139.507144 
L 295.477604 139.627461 
L 295.955321 139.926694 
L 296.43402 140.487528 
L 296.91352 141.379997 
L 297.874393 143.938134 
L 299.806944 149.220363 
L 300.293278 148.308123 
L 300.78114 142.519637 
L 301.270513 131.728723 
L 301.761369 126.532703 
L 302.253711 129.393606 
L 302.747532 137.765595 
L 303.242814 142.388695 
L 303.739587 138.436381 
L 304.23789 127.492245 
L 304.737717 119.004134 
L 305.239012 116.700877 
L 305.741705 120.741974 
L 306.751118 136.088989 
L 307.257793 134.902876 
L 308.274958 120.776521 
L 308.785382 119.443708 
L 309.297004 124.180583 
L 309.809832 132.64602 
L 310.323876 138.519593 
L 310.839134 136.916653 
L 311.872504 124.521556 
L 312.389616 124.44546 
L 312.906359 130.292186 
L 313.422309 138.705575 
L 313.937067 142.599655 
L 314.450254 139.88225 
L 314.961509 133.081695 
L 315.470487 128.606089 
L 315.976864 130.068078 
L 316.980674 143.876257 
L 317.47758 146.015217 
L 317.970817 142.862186 
L 318.460145 137.081949 
L 318.945332 133.880562 
L 319.42616 136.382115 
L 320.373931 148.579582 
L 320.840491 150.432179 
L 321.301927 148.395783 
L 321.758077 144.473029 
L 322.208788 142.069753 
L 322.653916 143.771792 
L 323.52691 153.313464 
L 323.954542 155.79497 
L 324.376133 155.450574 
L 325.20093 150.9135 
L 325.604049 150.65365 
L 326.000949 152.781407 
L 326.77609 158.354255 
L 327.154354 159.132055 
L 327.526447 158.271093 
L 328.25236 154.944054 
L 328.606342 154.746508 
L 328.954469 155.993641 
L 329.633732 159.197098 
L 329.965146 159.664297 
L 330.291295 159.416481 
L 330.612406 158.990501 
L 330.92873 158.988044 
L 331.240527 159.881996 
L 332.448955 166.123754 
L 332.743291 166.51954 
L 333.035354 166.571956 
L 333.325504 166.327321 
L 333.614057 165.619848 
L 333.901349 164.154798 
L 335.327452 154.07628 
L 336.165228 150.29485 
L 336.965168 147.780128 
L 337.950114 145.473813 
L 339.061418 143.481989 
L 339.680818 142.669885 
L 340.079078 142.388094 
L 340.468328 142.34151 
L 341.600693 142.547838 
L 341.97141 142.185738 
L 342.710737 140.86048 
L 343.45699 139.630045 
L 344.029363 139.076868 
L 345.025009 138.572083 
L 345.441925 138.486937 
L 345.655008 138.642593 
L 346.091315 139.982937 
L 346.314781 138.782574 
L 346.541791 133.450843 
L 346.772236 131.441236 
L 347.481347 147.512165 
L 347.722189 140.388182 
L 348.209206 115.012804 
L 348.455273 114.302744 
L 348.70295 122.865781 
L 348.952172 137.36114 
L 349.202849 144.220023 
L 349.454918 139.979413 
L 349.708392 130.14577 
L 349.963316 125.961433 
L 350.219738 132.065125 
L 350.737145 155.711087 
L 350.998127 158.719435 
L 351.260673 157.747938 
L 351.524853 155.849713 
L 351.79074 155.691665 
L 352.327644 158.778014 
L 352.598437 158.035551 
L 354.238949 146.00812 
L 355.05677 142.330712 
L 355.599834 140.765576 
L 356.142078 139.828546 
L 356.684651 139.379261 
L 357.501256 139.177661 
L 358.875835 138.879685 
L 359.715384 138.743835 
L 359.999163 138.791765 
L 360.285348 138.967275 
L 360.574144 139.362263 
L 360.865752 140.09165 
L 361.458132 141.866721 
L 361.759052 141.312691 
L 362.063077 139.786897 
L 362.370083 139.662446 
L 362.679948 141.507267 
L 362.992564 142.379772 
L 363.307856 138.471118 
L 363.946427 119.57194 
L 364.269618 114.915879 
L 364.595165 114.745694 
L 365.252008 121.503143 
L 365.582645 121.426184 
L 366.581572 108.636747 
L 366.9167 107.891026 
L 367.252872 109.759068 
L 367.59018 112.660835 
L 367.928767 114.102467 
L 368.268799 112.390389 
L 369.646917 94.875888 
L 370.701074 87.82538 
L 372.123709 74.796702 
L 373.195632 64.933597 
L 373.9098 60.347497 
L 374.620713 57.66605 
L 375.326462 56.203649 
L 376.02807 55.466281 
L 376.378399 55.365868 
L 376.728957 55.497624 
L 377.080101 55.967677 
L 377.432101 56.94337 
L 377.785122 58.576152 
L 378.494731 64.117498 
L 379.569684 76.251767 
L 381.026095 94.997773 
L 381.765316 106.224357 
L 382.137847 110.391008 
L 382.512378 112.688799 
L 382.888946 114.100073 
L 383.267574 116.23652 
L 384.031046 124.482218 
L 384.415902 128.632807 
L 384.802836 130.974565 
L 385.191827 131.25666 
L 385.582848 130.669616 
L 385.975883 131.109733 
L 386.370908 133.345495 
L 386.76789 136.372693 
L 387.166804 138.333155 
L 387.567627 138.385573 
L 388.374913 135.764684 
L 388.781347 135.793244 
L 389.599729 138.293725 
L 390.01165 138.459561 
L 390.425374 137.27029 
L 390.840891 135.489213 
L 391.258192 134.399496 
L 391.677266 134.583555 
L 392.52069 136.343017 
L 392.945018 136.120493 
L 393.798853 133.80808 
L 394.22834 133.515733 
L 394.659527 134.252697 
L 395.092402 135.394207 
L 395.526955 136.055376 
L 395.963175 135.849666 
L 396.401052 135.100104 
L 396.840576 134.578873 
L 397.281738 134.875192 
L 398.168935 136.955049 
L 398.614948 137.399467 
L 399.062558 137.08121 
L 399.511755 136.453996 
L 399.96253 136.197802 
L 400.414874 136.645013 
L 400.868777 137.502262 
L 401.324229 138.109957 
L 401.78122 138.012232 
L 403.160672 136.174877 
L 403.622104 136.34144 
L 404.083504 136.643491 
L 404.54441 136.512952 
L 405.004385 135.747775 
L 406.374734 132.309095 
L 407.276686 130.672256 
L 407.723211 129.354546 
L 409.041831 124.277965 
L 409.473738 123.247879 
L 410.744852 121.120212 
L 411.97702 118.144208 
L 412.378677 117.517548 
L 413.167882 116.888925 
L 413.937815 116.358966 
L 414.68792 115.141892 
L 415.055346 114.568695 
L 415.774757 113.955087 
L 416.126868 113.401874 
L 416.474121 112.535474 
L 416.816699 111.32939 
L 417.154809 109.515384 
L 417.488673 106.735648 
L 418.467406 96.873881 
L 419.417534 91.168525 
L 420.038382 84.53646 
L 420.954223 69.847451 
L 421.855202 55.234565 
L 422.448314 48.872961 
L 423.03452 44.694531 
L 423.61236 41.991502 
L 424.179735 40.338187 
L 424.733947 39.26284 
L 425.272921 38.566192 
L 425.796176 38.270057 
L 426.304477 38.433648 
L 426.799279 38.97795 
L 427.282159 39.838183 
L 427.987378 41.64 
L 430.227755 48.301016 
L 432.412191 53.334305 
L 433.525045 56.036681 
L 434.440288 58.04236 
L 434.673684 58.969562 
L 434.909253 60.551709 
L 435.147195 63.341762 
L 435.38772 68.026497 
L 435.877301 83.993617 
L 436.37921 100.7398 
L 436.634983 104.895892 
L 436.893996 106.292691 
L 437.156234 106.995003 
L 437.42167 109.167018 
L 437.690272 114.103485 
L 438.236838 129.594118 
L 438.514701 133.873268 
L 438.795527 132.69625 
L 439.079257 128.906485 
L 439.365848 126.65021 
L 439.655276 127.943878 
L 440.242557 136.474138 
L 440.540363 137.402789 
L 441.450285 129.290152 
L 441.759047 130.083957 
L 442.384556 133.923489 
L 442.701236 133.139618 
L 443.342328 128.092417 
L 443.666678 126.969984 
L 443.993529 127.510374 
L 444.322857 128.91171 
L 444.654635 129.756841 
L 444.988839 129.129617 
L 445.664422 126.021916 
L 446.005753 125.632321 
L 446.34941 126.408841 
L 447.043611 128.836777 
L 447.39411 128.875214 
L 448.101796 127.523285 
L 448.458939 127.773933 
L 449.54334 131.614935 
L 449.909076 131.936831 
L 450.276921 131.676997 
L 450.646859 131.565815 
L 451.018873 132.151958 
L 452.147248 135.618887 
L 452.527443 135.78029 
L 452.909652 135.637885 
L 453.293862 135.691904 
L 453.680061 136.25893 
L 454.458371 138.080239 
L 454.85046 138.462978 
L 455.244488 138.359285 
L 455.640442 138.110667 
L 456.038308 138.118501 
L 456.438075 138.521375 
L 457.243259 139.499133 
L 457.64865 139.501882 
L 458.464968 138.876385 
L 458.875869 138.803259 
L 460.119394 139.345829 
L 460.537469 139.134571 
L 461.378896 138.298068 
L 461.802227 138.121797 
L 462.654064 138.175783 
L 463.082548 138.012779 
L 463.51273 137.594598 
L 464.378139 136.526361 
L 465.250211 136.096382 
L 465.68872 135.850916 
L 466.128864 135.394697 
L 467.458997 133.568241 
L 468.800377 132.261204 
L 471.473941 128.578487 
L 472.352454 127.378132 
L 473.221369 126.021578 
L 474.0796 125.122703 
L 474.927366 124.236748 
L 475.347566 123.330683 
L 475.765453 121.76844 
L 477.416423 113.344001 
L 478.231618 109.445823 
L 479.846819 99.274484 
L 480.648643 92.072751 
L 481.846457 77.888837 
L 483.037938 63.484858 
L 483.825822 56.263674 
L 484.605892 51.433339 
L 485.376889 48.468896 
L 485.759018 47.533085 
L 486.139048 46.898276 
L 486.517133 46.526064 
L 486.893453 46.382163 
L 487.268212 46.439674 
L 487.641614 46.678047 
L 488.384833 47.616753 
L 489.492351 49.789943 
L 490.59396 51.836664 
L 491.328848 52.560232 
L 491.697511 52.667648 
L 492.06749 52.593546 
L 492.812007 52.049221 
L 493.186423 52.066415 
L 493.562176 53.560805 
L 493.939135 59.050661 
L 494.317215 71.440049 
L 495.458761 128.180229 
L 495.841882 127.987127 
L 496.226489 118.25324 
L 496.612681 112.453056 
L 497.000549 118.108866 
L 497.781959 160.212268 
L 498.175788 165.1674 
L 498.571716 162.66641 
L 499.771914 145.831356 
L 500.176013 147.187793 
L 500.582045 151.659329 
L 500.989872 154.301166 
L 501.398919 155.010025 
L 501.808579 154.875658 
L 502.21837 153.841092 
L 502.627904 150.710666 
L 503.036872 145.454066 
L 503.44505 142.383746 
L 503.852305 145.305746 
L 504.258588 150.836018 
L 504.663889 154.136349 
L 505.068213 153.427471 
L 505.471603 147.958453 
L 505.874145 138.86393 
L 506.275935 132.769752 
L 506.677029 135.117526 
L 507.077388 142.810984 
L 507.476822 148.217567 
L 507.875068 148.035842 
L 508.2719 142.600738 
L 508.667139 135.647157 
L 509.06063 134.098242 
L 509.452322 140.587597 
L 510.230818 157.318872 
L 510.618026 160.272283 
L 511.004125 160.430921 
L 511.389322 160.293301 
L 511.773719 161.626223 
L 512.157197 163.470765 
L 512.539409 163.900902 
L 512.919913 162.661328 
L 514.78742 152.448842 
L 515.518945 149.655989 
L 516.604073 146.494111 
L 517.319898 144.921413 
L 518.028918 143.839242 
L 519.765889 141.549442 
L 521.801843 138.415954 
L 522.479199 137.801229 
L 522.818748 137.647302 
L 523.159008 137.618217 
L 523.841857 137.89771 
L 524.872757 138.830407 
L 525.566307 139.726815 
L 525.915638 140.422759 
L 526.620391 142.541131 
L 526.976114 142.880298 
L 527.334195 142.463191 
L 527.694675 143.1541 
L 528.422358 147.99125 
L 528.789009 148.294415 
L 529.156906 143.743589 
L 529.894953 125.002537 
L 530.26446 125.320622 
L 531.002927 142.641836 
L 531.371396 145.186461 
L 531.739143 141.176392 
L 532.106124 134.698218 
L 532.472357 133.015292 
L 532.837862 139.182327 
L 533.202653 148.393488 
L 533.566728 154.230507 
L 533.930073 155.463539 
L 534.654592 151.842347 
L 535.01584 151.990707 
L 536.096075 159.797123 
L 536.455048 160.249564 
L 536.81351 159.746266 
L 537.529076 157.58231 
L 540.357741 147.407315 
L 541.388978 145.030328 
L 542.402281 143.242684 
L 543.069874 142.360089 
L 543.732346 141.822264 
L 544.389277 141.669144 
L 545.04072 141.794552 
L 545.687707 142.147745 
L 547.293865 143.29036 
L 547.934976 143.25721 
L 548.576862 142.893722 
L 550.510864 141.498003 
L 551.158573 141.315771 
L 552.133363 141.310335 
L 555.078948 141.66832 
L 557.390729 141.719362 
L 560.073759 141.931678 
L 562.811541 141.142943 
L 563.508738 141.313657 
L 564.211806 141.861141 
L 564.920773 142.809059 
L 566.716106 145.790162 
L 568.528175 149.266174 
L 570.677491 152.748812 
L 571.728632 154.443529 
L 572.419385 155.071172 
L 573.442057 155.321318 
L 573.779802 155.573937 
L 574.785289 156.79575 
L 575.118359 156.838635 
L 575.450673 156.590198 
L 576.113764 155.730888 
L 576.444876 155.565381 
L 576.775904 156.101349 
L 577.106986 157.106296 
L 577.438242 157.539314 
L 577.769748 157.125435 
L 578.433529 154.981885 
L 579.429639 150.660317 
L 580.747146 144.787838 
L 581.400289 142.759672 
L 581.726941 142.083294 
L 582.05436 141.670391 
L 582.38297 141.543192 
L 582.713165 141.721929 
L 583.045209 142.233554 
L 583.715104 144.101598 
L 584.392752 145.951694 
L 584.734409 146.218666 
L 585.077936 145.641234 
L 585.423371 143.824806 
L 586.471369 134.070087 
L 586.824678 132.736009 
L 587.180002 131.929154 
L 587.537349 130.619301 
L 588.258111 126.736714 
L 588.621517 125.705865 
L 588.98693 125.915712 
L 590.095109 129.176643 
L 590.46845 129.195834 
L 590.843749 129.00918 
L 591.220997 129.410606 
L 591.600185 130.754919 
L 592.364353 134.403548 
L 592.749318 135.357107 
L 593.136193 135.524294 
L 593.52497 135.51129 
L 593.915641 135.985938 
L 595.098925 139.119935 
L 595.497078 139.197197 
L 596.29891 138.391912 
L 596.702569 138.42801 
L 597.515319 139.281516 
L 597.924389 139.311435 
L 598.335241 138.834626 
L 599.162256 137.476893 
L 599.578399 137.274413 
L 600.415908 137.455225 
L 600.837256 137.152016 
L 602.111563 135.225761 
L 602.539724 135.131423 
L 602.969565 135.242298 
L 603.401078 135.23532 
L 603.834254 134.914395 
L 604.705557 133.901548 
L 605.143666 133.730613 
L 606.467716 134.137375 
L 607.806157 133.453304 
L 608.255459 133.533352 
L 609.158745 134.10074 
L 609.612711 134.193686 
L 610.983795 133.912312 
L 611.905422 134.436502 
L 612.368482 134.682928 
L 612.833029 134.737414 
L 613.76655 134.539571 
L 614.235509 134.59724 
L 615.651083 135.245411 
L 616.601972 135.0924 
L 617.079545 135.027868 
L 617.558527 135.117572 
L 618.52069 135.519242 
L 619.003856 135.570919 
L 620.461607 135.340822 
L 622.424266 135.784405 
L 623.413611 135.625887 
L 624.408226 135.821721 
L 625.408059 136.131701 
L 627.42317 136.244338 
L 628.947816 136.797286 
L 630.483685 136.985537 
L 632.548679 137.827027 
L 633.588422 137.975131 
L 634.632925 138.375176 
L 635.682108 138.775663 
L 637.264368 139.003946 
L 637.793991 139.344986 
L 638.324705 139.842413 
L 638.856505 140.110288 
L 639.389387 140.09282 
L 639.923349 139.952793 
L 640.994524 139.329281 
L 641.531771 139.945052 
L 642.070178 142.47476 
L 643.692807 155.655428 
L 644.236076 158.047328 
L 644.780258 158.891761 
L 645.325039 158.298399 
L 645.870159 156.457929 
L 646.961421 151.956941 
L 647.507897 151.080777 
L 648.05525 151.289239 
L 649.15308 152.681412 
L 649.703514 153.047565 
L 650.25489 153.094861 
L 650.807172 152.605336 
L 651.36035 150.793009 
L 652.469504 141.952718 
L 653.025519 140.828665 
L 654.140454 148.40586 
L 654.699362 148.924327 
L 655.259228 144.09629 
L 655.820075 133.871525 
L 656.381922 126.210641 
L 656.944772 125.658764 
L 657.508625 131.565052 
L 658.073481 138.8116 
L 658.639328 139.657971 
L 659.206163 132.676307 
L 659.773985 123.922122 
L 660.342787 119.702087 
L 660.912554 121.881814 
L 662.05498 137.379687 
L 662.627632 138.304314 
L 663.775786 124.311566 
L 664.351274 121.702781 
L 664.927689 125.734853 
L 665.505035 134.932848 
L 666.083315 142.357166 
L 666.662522 142.493826 
L 667.823706 129.656371 
L 668.40567 128.768822 
L 668.988534 134.878337 
L 669.572295 143.379259 
L 670.156947 147.122756 
L 670.742486 144.677274 
L 671.916239 131.767526 
L 672.504448 132.438284 
L 673.683516 145.874764 
L 674.274361 147.328098 
L 674.866068 142.954175 
L 675.45864 134.866921 
L 676.052078 129.914091 
L 676.646373 131.89024 
L 677.241524 139.28433 
L 677.837529 144.956103 
L 678.434375 144.738047 
L 679.083636 137.738694 
L 679.083636 137.738694 
" clip-path="url(#p19afbad66e)" style="fill: none; stroke: #d62728; stroke-opacity: 0.8; stroke-width: 0.9; stroke-linecap: square"/>
   </g>
   <g id="patch_3">
    <path d="M 46.64 246.04 
L 46.64 28.37625 
" style="fill: none; stroke: #000000; stroke-width: 0.8; stroke-linejoin: miter; stroke-linecap: square"/>
   </g>
   <g id="patch_4">
    <path d="M 709.2 246.04 
L 709.2 28.37625 
" style="fill: none; stroke: #000000; stroke-width: 0.8; stroke-linejoin: miter; stroke-linecap: square"/>
   </g>
   <g id="patch_5">
    <path d="M 46.64 246.04 
L 709.2 246.04 
" style="fill: none; stroke: #000000; stroke-width: 0.8; stroke-linejoin: miter; stroke-linecap: square"/>
   </g>
   <g id="patch_6">
    <path d="M 46.64 28.37625 
L 709.2 28.37625 
" style="fill: none; stroke: #000000; stroke-width: 0.8; stroke-linejoin: miter; stroke-linecap: square"/>
   </g>
   <g id="text_13">
    <!-- steering-link loads over one Gelleråsen Arena lap -->
    <g transform="translate(229.710625 22.37625) scale(0.12 -0.12)">
     <defs>
      <path id="DejaVuSans-67" d="M 2906 1791 
Q 2906 2416 2648 2759 
Q 2391 3103 1925 3103 
Q 1463 3103 1205 2759 
Q 947 2416 947 1791 
Q 947 1169 1205 825 
Q 1463 481 1925 481 
Q 2391 481 2648 825 
Q 2906 1169 2906 1791 
z
M 3481 434 
Q 3481 -459 3084 -895 
Q 2688 -1331 1869 -1331 
Q 1566 -1331 1297 -1286 
Q 1028 -1241 775 -1147 
L 775 -588 
Q 1028 -725 1275 -790 
Q 1522 -856 1778 -856 
Q 2344 -856 2625 -561 
Q 2906 -266 2906 331 
L 2906 616 
Q 2728 306 2450 153 
Q 2172 0 1784 0 
Q 1141 0 747 490 
Q 353 981 353 1791 
Q 353 2603 747 3093 
Q 1141 3584 1784 3584 
Q 2172 3584 2450 3431 
Q 2728 3278 2906 2969 
L 2906 3500 
L 3481 3500 
L 3481 434 
z
" transform="scale(0.015625)"/>
      <path id="DejaVuSans-6c" d="M 603 4863 
L 1178 4863 
L 1178 0 
L 603 0 
L 603 4863 
z
" transform="scale(0.015625)"/>
      <path id="DejaVuSans-76" d="M 191 3500 
L 800 3500 
L 1894 563 
L 2988 3500 
L 3597 3500 
L 2284 0 
L 1503 0 
L 191 3500 
z
" transform="scale(0.015625)"/>
      <path id="DejaVuSans-47" d="M 3809 666 
L 3809 1919 
L 2778 1919 
L 2778 2438 
L 4434 2438 
L 4434 434 
Q 4069 175 3628 42 
Q 3188 -91 2688 -91 
Q 1594 -91 976 548 
Q 359 1188 359 2328 
Q 359 3472 976 4111 
Q 1594 4750 2688 4750 
Q 3144 4750 3555 4637 
Q 3966 4525 4313 4306 
L 4313 3634 
Q 3963 3931 3569 4081 
Q 3175 4231 2741 4231 
Q 1884 4231 1454 3753 
Q 1025 3275 1025 2328 
Q 1025 1384 1454 906 
Q 1884 428 2741 428 
Q 3075 428 3337 486 
Q 3600 544 3809 666 
z
" transform="scale(0.015625)"/>
      <path id="DejaVuSans-e5" d="M 2194 1759 
Q 1497 1759 1228 1600 
Q 959 1441 959 1056 
Q 959 750 1161 570 
Q 1363 391 1709 391 
Q 2188 391 2477 730 
Q 2766 1069 2766 1631 
L 2766 1759 
L 2194 1759 
z
M 3341 1997 
L 3341 0 
L 2766 0 
L 2766 531 
Q 2569 213 2275 61 
Q 1981 -91 1556 -91 
Q 1019 -91 701 211 
Q 384 513 384 1019 
Q 384 1609 779 1909 
Q 1175 2209 1959 2209 
L 2766 2209 
L 2766 2266 
Q 2766 2663 2505 2880 
Q 2244 3097 1772 3097 
Q 1472 3097 1187 3025 
Q 903 2953 641 2809 
L 641 3341 
Q 956 3463 1253 3523 
Q 1550 3584 1831 3584 
Q 2591 3584 2966 3190 
Q 3341 2797 3341 1997 
z
M 2331 4763 
Q 2331 4959 2193 5096 
Q 2056 5234 1856 5234 
Q 1653 5234 1517 5098 
Q 1381 4963 1381 4763 
Q 1381 4559 1517 4423 
Q 1653 4288 1856 4288 
Q 2056 4288 2193 4425 
Q 2331 4563 2331 4763 
z
M 2712 4763 
Q 2712 4403 2463 4153 
Q 2215 3903 1856 3903 
Q 1497 3903 1248 4153 
Q 1000 4403 1000 4763 
Q 1000 5122 1248 5370 
Q 1497 5619 1856 5619 
Q 2215 5619 2463 5370 
Q 2712 5122 2712 4763 
z
" transform="scale(0.015625)"/>
      <path id="DejaVuSans-41" d="M 2188 4044 
L 1331 1722 
L 3047 1722 
L 2188 4044 
z
M 1831 4666 
L 2547 4666 
L 4325 0 
L 3669 0 
L 3244 1197 
L 1141 1197 
L 716 0 
L 50 0 
L 1831 4666 
z
" transform="scale(0.015625)"/>
      <path id="DejaVuSans-70" d="M 1159 525 
L 1159 -1331 
L 581 -1331 
L 581 3500 
L 1159 3500 
L 1159 2969 
Q 1341 3281 1617 3432 
Q 1894 3584 2278 3584 
Q 2916 3584 3314 3078 
Q 3713 2572 3713 1747 
Q 3713 922 3314 415 
Q 2916 -91 2278 -91 
Q 1894 -91 1617 61 
Q 1341 213 1159 525 
z
M 3116 1747 
Q 3116 2381 2855 2742 
Q 2594 3103 2138 3103 
Q 1681 3103 1420 2742 
Q 1159 2381 1159 1747 
Q 1159 1113 1420 752 
Q 1681 391 2138 391 
Q 2594 391 2855 752 
Q 3116 1113 3116 1747 
z
" transform="scale(0.015625)"/>
     </defs>
     <use xlink:href="#DejaVuSans-73"/>
     <use xlink:href="#DejaVuSans-74" transform="translate(52.099609 0)"/>
     <use xlink:href="#DejaVuSans-65" transform="translate(91.308594 0)"/>
     <use xlink:href="#DejaVuSans-65" transform="translate(152.832031 0)"/>
     <use xlink:href="#DejaVuSans-72" transform="translate(214.355469 0)"/>
     <use xlink:href="#DejaVuSans-69" transform="translate(255.46875 0)"/>
     <use xlink:href="#DejaVuSans-6e" transform="translate(283.251953 0)"/>
     <use xlink:href="#DejaVuSans-67" transform="translate(346.630859 0)"/>
     <use xlink:href="#DejaVuSans-2d" transform="translate(410.107422 0)"/>
     <use xlink:href="#DejaVuSans-6c" transform="translate(446.191406 0)"/>
     <use xlink:href="#DejaVuSans-69" transform="translate(473.974609 0)"/>
     <use xlink:href="#DejaVuSans-6e" transform="translate(501.757812 0)"/>
     <use xlink:href="#DejaVuSans-6b" transform="translate(565.136719 0)"/>
     <use xlink:href="#DejaVuSans-20" transform="translate(623.046875 0)"/>
     <use xlink:href="#DejaVuSans-6c" transform="translate(654.833984 0)"/>
     <use xlink:href="#DejaVuSans-6f" transform="translate(682.617188 0)"/>
     <use xlink:href="#DejaVuSans-61" transform="translate(743.798828 0)"/>
     <use xlink:href="#DejaVuSans-64" transform="translate(805.078125 0)"/>
     <use xlink:href="#DejaVuSans-73" transform="translate(868.554688 0)"/>
     <use xlink:href="#DejaVuSans-20" transform="translate(920.654297 0)"/>
     <use xlink:href="#DejaVuSans-6f" transform="translate(952.441406 0)"/>
     <use xlink:href="#DejaVuSans-76" transform="translate(1013.623047 0)"/>
     <use xlink:href="#DejaVuSans-65" transform="translate(1072.802734 0)"/>
     <use xlink:href="#DejaVuSans-72" transform="translate(1134.326172 0)"/>
     <use xlink:href="#DejaVuSans-20" transform="translate(1175.439453 0)"/>
     <use xlink:href="#DejaVuSans-6f" transform="translate(1207.226562 0)"/>
     <use xlink:href="#DejaVuSans-6e" transform="translate(1268.408203 0)"/>
     <use xlink:href="#DejaVuSans-65" transform="translate(1331.787109 0)"/>
     <use xlink:href="#DejaVuSans-20" transform="translate(1393.310547 0)"/>
     <use xlink:href="#DejaVuSans-47" transform="translate(1425.097656 0)"/>
     <use xlink:href="#DejaVuSans-65" transform="translate(1502.587891 0)"/>
     <use xlink:href="#DejaVuSans-6c" transform="translate(1564.111328 0)"/>
     <use xlink:href="#DejaVuSans-6c" transform="translate(1591.894531 0)"/>
     <use xlink:href="#DejaVuSans-65" transform="translate(1619.677734 0)"/>
     <use xlink:href="#DejaVuSans-72" transform="translate(1681.201172 0)"/>
     <use xlink:href="#DejaVuSans-e5" transform="translate(1722.314453 0)"/>
     <use xlink:href="#DejaVuSans-73" transform="translate(1783.59375 0)"/>
     <use xlink:href="#DejaVuSans-65" transform="translate(1835.693359 0)"/>
     <use xlink:href="#DejaVuSans-6e" transform="translate(1897.216797 0)"/>
     <use xlink:href="#DejaVuSans-20" transform="translate(1960.595703 0)"/>
     <use xlink:href="#DejaVuSans-41" transform="translate(1992.382812 0)"/>
     <use xlink:href="#DejaVuSans-72" transform="translate(2060.791016 0)"/>
     <use xlink:href="#DejaVuSans-65" transform="translate(2099.654297 0)"/>
     <use xlink:href="#DejaVuSans-6e" transform="translate(2161.177734 0)"/>
     <use xlink:href="#DejaVuSans-61" transform="translate(2224.556641 0)"/>
     <use xlink:href="#DejaVuSans-20" transform="translate(2285.835938 0)"/>
     <use xlink:href="#DejaVuSans-6c" transform="translate(2317.623047 0)"/>
     <use xlink:href="#DejaVuSans-61" transform="translate(2345.40625 0)"/>
     <use xlink:href="#DejaVuSans-70" transform="translate(2406.685547 0)"/>
    </g>
   </g>
   <g id="legend_1">
    <g id="patch_7">
     <path d="M 630.755 58.26125 
L 703.6 58.26125 
Q 705.2 58.26125 705.2 56.66125 
L 705.2 33.97625 
Q 705.2 32.37625 703.6 32.37625 
L 630.755 32.37625 
Q 629.155 32.37625 629.155 33.97625 
L 629.155 56.66125 
Q 629.155 58.26125 630.755 58.26125 
z
" style="fill: #ffffff; opacity: 0.8; stroke: #cccccc; stroke-linejoin: miter"/>
    </g>
    <g id="line2d_23">
     <path d="M 632.355 38.855 
L 640.355 38.855 
L 648.355 38.855 
" style="fill: none; stroke: #2ca02c; stroke-width: 0.9; stroke-linecap: square"/>
    </g>
    <g id="text_14">
     <!-- tie rod left -->
     <g transform="translate(654.755 41.655) scale(0.08 -0.08)">
      <use xlink:href="#DejaVuSans-74"/>
      <use xlink:href="#DejaVuSans-69" transform="translate(39.208984 0)"/>
      <use xlink:href="#DejaVuSans-65" transform="translate(66.992188 0)"/>
      <use xlink:href="#DejaVuSans-20" transform="translate(128.515625 0)"/>
      <use xlink:href="#DejaVuSans-72" transform="translate(160.302734 0)"/>
      <use xlink:href="#DejaVuSans-6f" transform="translate(199.166016 0)"/>
      <use xlink:href="#DejaVuSans-64" transform="translate(260.347656 0)"/>
      <use xlink:href="#DejaVuSans-20" transform="translate(323.824219 0)"/>
      <use xlink:href="#DejaVuSans-6c" transform="translate(355.611328 0)"/>
      <use xlink:href="#DejaVuSans-65" transform="translate(383.394531 0)"/>
      <use xlink:href="#DejaVuSans-66" transform="translate(444.917969 0)"/>
      <use xlink:href="#DejaVuSans-74" transform="translate(478.373047 0)"/>
     </g>
    </g>
    <g id="line2d_24">
     <path d="M 632.355 50.5975 
L 640.355 50.5975 
L 648.355 50.5975 
" style="fill: none; stroke: #d62728; stroke-opacity: 0.8; stroke-width: 0.9; stroke-linecap: square"/>
    </g>
    <g id="text_15">
     <!-- tie rod right -->
     <g transform="translate(654.755 53.3975) scale(0.08 -0.08)">
      <defs>
       <path id="DejaVuSans-68" d="M 3513 2113 
L 3513 0 
L 2938 0 
L 2938 2094 
Q 2938 2591 2744 2837 
Q 2550 3084 2163 3084 
Q 1697 3084 1428 2787 
Q 1159 2491 1159 1978 
L 1159 0 
L 581 0 
L 581 4863 
L 1159 4863 
L 1159 2956 
Q 1366 3272 1645 3428 
Q 1925 3584 2291 3584 
Q 2894 3584 3203 3211 
Q 3513 2838 3513 2113 
z
" transform="scale(0.015625)"/>
      </defs>
      <use xlink:href="#DejaVuSans-74"/>
      <use xlink:href="#DejaVuSans-69" transform="translate(39.208984 0)"/>
      <use xlink:href="#DejaVuSans-65" transform="translate(66.992188 0)"/>
      <use xlink:href="#DejaVuSans-20" transform="translate(128.515625 0)"/>
      <use xlink:href="#DejaVuSans-72" transform="translate(160.302734 0)"/>
      <use xlink:href="#DejaVuSans-6f" transform="translate(199.166016 0)"/>
      <use xlink:href="#DejaVuSans-64" transform="translate(260.347656 0)"/>
      <use xlink:href="#DejaVuSans-20" transform="translate(323.824219 0)"/>
      <use xlink:href="#DejaVuSans-72" transform="translate(355.611328 0)"/>
      <use xlink:href="#DejaVuSans-69" transform="translate(396.724609 0)"/>
      <use xlink:href="#DejaVuSans-67" transform="translate(424.507812 0)"/>
      <use xlink:href="#DejaVuSans-68" transform="translate(487.984375 0)"/>
      <use xlink:href="#DejaVuSans-74" transform="translate(551.363281 0)"/>
     </g>
    </g>
   </g>
  </g>
 </g>
 <defs>
  <clipPath id="p19afbad66e">
   <rect x="46.64" y="28.37625" width="662.56" height="217.66375"/>
  </clipPath>
 </defs>
</svg>
