<?xml version="1.0" encoding="utf-8" standalone="no"?>
<!DOCTYPE svg PUBLIC "-//W3C//DTD SVG 1.1//EN"
  "http://www.w3.org/Graphics/SVG/1.1/DTD/svg11.dtd">
<svg xmlns:xlink="http://www.w3.org/1999/xlink" width="676.384062pt" height="200.474688pt" viewBox="0 0 676.384062 200.474688" xmlns="http://www.w3.org/2000/svg" version="1.1">
 <metadata>
  <rdf:RDF xmlns:dc="http://purl.org/dc/elements/1.1/" xmlns:cc="http://creativecommons.org/ns#" xmlns:rdf="http://www.w3.org/1999/02/22-rdf-syntax-ns#">
   <cc:Work>
    <dc:type rdf:resource="http://purl.org/dc/dcmitype/StillImage"/>
    <dc:date>2026-07-12T19:39:21.682047</dc:date>
    <dc:format>image/svg+xml</dc:format>
    <dc:creator>
     <cc:Agent>
      <dc:title>Matplotlib v3.10.8, https://matplotlib.org/</dc:title>
     </cc:Agent>
    </dc:creator>
   </cc:Work>
  </rdf:RDF>
 </metadata>
 <defs>
  <style type="text/css">*{stroke-linejoin: round; stroke-linecap: butt}</style>
 </defs>
 <g id="figure_1">
  <g id="patch_1">
   <path d="M 0 200.474688 
L 676.384062 200.474688 
L 676.384062 0 
L 0 0 
z
" style="fill: #ffffff"/>
  </g>
  <g id="axes_1">
   <g id="patch_2">
    <path d="M 42.620313 162.918438 
L 659.640312 162.918438 
L 659.640312 20.798437 
L 42.620313 20.798437 
z
" style="fill: #ffffff"/>
   </g>
   <g id="line2d_1">
    <path d="M 102.331925 162.918438 
L 102.331925 20.798437 
" clip-path="url(#p1f51ca8889)" style="fill: none; stroke: #cccccc; stroke-width: 0.6; stroke-linecap: square"/>
   </g>
   <g id="line2d_2">
    <path d="M 162.043538 162.918438 
L 162.043538 20.798437 
" clip-path="url(#p1f51ca8889)" style="fill: none; stroke: #cccccc; stroke-width: 0.6; stroke-linecap: square"/>
   </g>
   <g id="line2d_3">
    <path d="M 281.466764 162.918438 
L 281.466764 20.798437 
" clip-path="url(#p1f51ca8889)" style="fill: none; stroke: #cccccc; stroke-width: 0.6; stroke-linecap: square"/>
   </g>
   <g id="line2d_4">
    <path d="M 380.986119 162.918438 
L 380.986119 20.798437 
" clip-path="url(#p1f51ca8889)" style="fill: none; stroke: #cccccc; stroke-width: 0.6; stroke-linecap: square"/>
   </g>
   <g id="line2d_5">
    <path d="M 480.505474 162.918438 
L 480.505474 20.798437 
" clip-path="url(#p1f51ca8889)" style="fill: none; stroke: #cccccc; stroke-width: 0.6; stroke-linecap: square"/>
   </g>
   <g id="line2d_6">
    <path d="M 540.217087 162.918438 
L 540.217087 20.798437 
" clip-path="url(#p1f51ca8889)" style="fill: none; stroke: #cccccc; stroke-width: 0.6; stroke-linecap: square"/>
   </g>
   <g id="line2d_7">
    <path d="M 599.9287 162.918438 
L 599.9287 20.798437 
" clip-path="url(#p1f51ca8889)" style="fill: none; stroke: #cccccc; stroke-width: 0.6; stroke-linecap: square"/>
   </g>
   <g id="matplotlib.axis_1">
    <g id="xtick_1">
     <g id="line2d_8">
      <path d="M 102.331925 162.918438 
L 102.331925 20.798437 
" clip-path="url(#p1f51ca8889)" style="fill: none; stroke: #b0b0b0; stroke-opacity: 0.25; stroke-width: 0.8; stroke-linecap: square"/>
     </g>
     <g id="line2d_9">
      <defs>
       <path id="m365f08e775" d="M 0 0 
L 0 3.5 
" style="stroke: #000000; stroke-width: 0.8"/>
      </defs>
      <g>
       <use xlink:href="#m365f08e775" x="102.331925" y="162.918438" style="stroke: #000000; stroke-width: 0.8"/>
      </g>
     </g>
     <g id="text_1">
      <!-- 40 -->
      <g transform="translate(95.969425 177.516875) scale(0.1 -0.1)">
       <defs>
        <path id="DejaVuSans-34" d="M 2419 4116 
L 825 1625 
L 2419 1625 
L 2419 4116 
z
M 2253 4666 
L 3047 4666 
L 3047 1625 
L 3713 1625 
L 3713 1100 
L 3047 1100 
L 3047 0 
L 2419 0 
L 2419 1100 
L 313 1100 
L 313 1709 
L 2253 4666 
z
" transform="scale(0.015625)"/>
        <path id="DejaVuSans-30" d="M 2034 4250 
Q 1547 4250 1301 3770 
Q 1056 3291 1056 2328 
Q 1056 1369 1301 889 
Q 1547 409 2034 409 
Q 2525 409 2770 889 
Q 3016 1369 3016 2328 
Q 3016 3291 2770 3770 
Q 2525 4250 2034 4250 
z
M 2034 4750 
Q 2819 4750 3233 4129 
Q 3647 3509 3647 2328 
Q 3647 1150 3233 529 
Q 2819 -91 2034 -91 
Q 1250 -91 836 529 
Q 422 1150 422 2328 
Q 422 3509 836 4129 
Q 1250 4750 2034 4750 
z
" transform="scale(0.015625)"/>
       </defs>
       <use xlink:href="#DejaVuSans-34"/>
       <use xlink:href="#DejaVuSans-30" transform="translate(63.623047 0)"/>
      </g>
     </g>
    </g>
    <g id="xtick_2">
     <g id="line2d_10">
      <path d="M 181.947409 162.918438 
L 181.947409 20.798437 
" clip-path="url(#p1f51ca8889)" style="fill: none; stroke: #b0b0b0; stroke-opacity: 0.25; stroke-width: 0.8; stroke-linecap: square"/>
     </g>
     <g id="line2d_11">
      <g>
       <use xlink:href="#m365f08e775" x="181.947409" y="162.918438" style="stroke: #000000; stroke-width: 0.8"/>
      </g>
     </g>
     <g id="text_2">
      <!-- 60 -->
      <g transform="translate(175.584909 177.516875) scale(0.1 -0.1)">
       <defs>
        <path id="DejaVuSans-36" d="M 2113 2584 
Q 1688 2584 1439 2293 
Q 1191 2003 1191 1497 
Q 1191 994 1439 701 
Q 1688 409 2113 409 
Q 2538 409 2786 701 
Q 3034 994 3034 1497 
Q 3034 2003 2786 2293 
Q 2538 2584 2113 2584 
z
M 3366 4563 
L 3366 3988 
Q 3128 4100 2886 4159 
Q 2644 4219 2406 4219 
Q 1781 4219 1451 3797 
Q 1122 3375 1075 2522 
Q 1259 2794 1537 2939 
Q 1816 3084 2150 3084 
Q 2853 3084 3261 2657 
Q 3669 2231 3669 1497 
Q 3669 778 3244 343 
Q 2819 -91 2113 -91 
Q 1303 -91 875 529 
Q 447 1150 447 2328 
Q 447 3434 972 4092 
Q 1497 4750 2381 4750 
Q 2619 4750 2861 4703 
Q 3103 4656 3366 4563 
z
" transform="scale(0.015625)"/>
       </defs>
       <use xlink:href="#DejaVuSans-36"/>
       <use xlink:href="#DejaVuSans-30" transform="translate(63.623047 0)"/>
      </g>
     </g>
    </g>
    <g id="xtick_3">
     <g id="line2d_12">
      <path d="M 261.562893 162.918438 
L 261.562893 20.798437 
" clip-path="url(#p1f51ca8889)" style="fill: none; stroke: #b0b0b0; stroke-opacity: 0.25; stroke-width: 0.8; stroke-linecap: square"/>
     </g>
     <g id="line2d_13">
      <g>
       <use xlink:href="#m365f08e775" x="261.562893" y="162.918438" style="stroke: #000000; stroke-width: 0.8"/>
      </g>
     </g>
     <g id="text_3">
      <!-- 80 -->
      <g transform="translate(255.200393 177.516875) scale(0.1 -0.1)">
       <defs>
        <path id="DejaVuSans-38" d="M 2034 2216 
Q 1584 2216 1326 1975 
Q 1069 1734 1069 1313 
Q 1069 891 1326 650 
Q 1584 409 2034 409 
Q 2484 409 2743 651 
Q 3003 894 3003 1313 
Q 3003 1734 2745 1975 
Q 2488 2216 2034 2216 
z
M 1403 2484 
Q 997 2584 770 2862 
Q 544 3141 544 3541 
Q 544 4100 942 4425 
Q 1341 4750 2034 4750 
Q 2731 4750 3128 4425 
Q 3525 4100 3525 3541 
Q 3525 3141 3298 2862 
Q 3072 2584 2669 2484 
Q 3125 2378 3379 2068 
Q 3634 1759 3634 1313 
Q 3634 634 3220 271 
Q 2806 -91 2034 -91 
Q 1263 -91 848 271 
Q 434 634 434 1313 
Q 434 1759 690 2068 
Q 947 2378 1403 2484 
z
M 1172 3481 
Q 1172 3119 1398 2916 
Q 1625 2713 2034 2713 
Q 2441 2713 2670 2916 
Q 2900 3119 2900 3481 
Q 2900 3844 2670 4047 
Q 2441 4250 2034 4250 
Q 1625 4250 1398 4047 
Q 1172 3844 1172 3481 
z
" transform="scale(0.015625)"/>
       </defs>
       <use xlink:href="#DejaVuSans-38"/>
       <use xlink:href="#DejaVuSans-30" transform="translate(63.623047 0)"/>
      </g>
     </g>
    </g>
    <g id="xtick_4">
     <g id="line2d_14">
      <path d="M 341.178377 162.918438 
L 341.178377 20.798437 
" clip-path="url(#p1f51ca8889)" style="fill: none; stroke: #b0b0b0; stroke-opacity: 0.25; stroke-width: 0.8; stroke-linecap: square"/>
     </g>
     <g id="line2d_15">
      <g>
       <use xlink:href="#m365f08e775" x="341.178377" y="162.918438" style="stroke: #000000; stroke-width: 0.8"/>
      </g>
     </g>
     <g id="text_4">
      <!-- 100 -->
      <g transform="translate(331.634627 177.516875) scale(0.1 -0.1)">
       <defs>
        <path id="DejaVuSans-31" d="M 794 531 
L 1825 531 
L 1825 4091 
L 703 3866 
L 703 4441 
L 1819 4666 
L 2450 4666 
L 2450 531 
L 3481 531 
L 3481 0 
L 794 0 
L 794 531 
z
" transform="scale(0.015625)"/>
       </defs>
       <use xlink:href="#DejaVuSans-31"/>
       <use xlink:href="#DejaVuSans-30" transform="translate(63.623047 0)"/>
       <use xlink:href="#DejaVuSans-30" transform="translate(127.246094 0)"/>
      </g>
     </g>
    </g>
    <g id="xtick_5">
     <g id="line2d_16">
      <path d="M 420.793861 162.918438 
L 420.793861 20.798437 
" clip-path="url(#p1f51ca8889)" style="fill: none; stroke: #b0b0b0; stroke-opacity: 0.25; stroke-width: 0.8; stroke-linecap: square"/>
     </g>
     <g id="line2d_17">
      <g>
       <use xlink:href="#m365f08e775" x="420.793861" y="162.918438" style="stroke: #000000; stroke-width: 0.8"/>
      </g>
     </g>
     <g id="text_5">
      <!-- 120 -->
      <g transform="translate(411.250111 177.516875) scale(0.1 -0.1)">
       <defs>
        <path id="DejaVuSans-32" d="M 1228 531 
L 3431 531 
L 3431 0 
L 469 0 
L 469 531 
Q 828 903 1448 1529 
Q 2069 2156 2228 2338 
Q 2531 2678 2651 2914 
Q 2772 3150 2772 3378 
Q 2772 3750 2511 3984 
Q 2250 4219 1831 4219 
Q 1534 4219 1204 4116 
Q 875 4013 500 3803 
L 500 4441 
Q 881 4594 1212 4672 
Q 1544 4750 1819 4750 
Q 2544 4750 2975 4387 
Q 3406 4025 3406 3419 
Q 3406 3131 3298 2873 
Q 3191 2616 2906 2266 
Q 2828 2175 2409 1742 
Q 1991 1309 1228 531 
z
" transform="scale(0.015625)"/>
       </defs>
       <use xlink:href="#DejaVuSans-31"/>
       <use xlink:href="#DejaVuSans-32" transform="translate(63.623047 0)"/>
       <use xlink:href="#DejaVuSans-30" transform="translate(127.246094 0)"/>
      </g>
     </g>
    </g>
    <g id="xtick_6">
     <g id="line2d_18">
      <path d="M 500.409345 162.918438 
L 500.409345 20.798437 
" clip-path="url(#p1f51ca8889)" style="fill: none; stroke: #b0b0b0; stroke-opacity: 0.25; stroke-width: 0.8; stroke-linecap: square"/>
     </g>
     <g id="line2d_19">
      <g>
       <use xlink:href="#m365f08e775" x="500.409345" y="162.918438" style="stroke: #000000; stroke-width: 0.8"/>
      </g>
     </g>
     <g id="text_6">
      <!-- 140 -->
      <g transform="translate(490.865595 177.516875) scale(0.1 -0.1)">
       <use xlink:href="#DejaVuSans-31"/>
       <use xlink:href="#DejaVuSans-34" transform="translate(63.623047 0)"/>
       <use xlink:href="#DejaVuSans-30" transform="translate(127.246094 0)"/>
      </g>
     </g>
    </g>
    <g id="xtick_7">
     <g id="line2d_20">
      <path d="M 580.024829 162.918438 
L 580.024829 20.798437 
" clip-path="url(#p1f51ca8889)" style="fill: none; stroke: #b0b0b0; stroke-opacity: 0.25; stroke-width: 0.8; stroke-linecap: square"/>
     </g>
     <g id="line2d_21">
      <g>
       <use xlink:href="#m365f08e775" x="580.024829" y="162.918438" style="stroke: #000000; stroke-width: 0.8"/>
      </g>
     </g>
     <g id="text_7">
      <!-- 160 -->
      <g transform="translate(570.481079 177.516875) scale(0.1 -0.1)">
       <use xlink:href="#DejaVuSans-31"/>
       <use xlink:href="#DejaVuSans-36" transform="translate(63.623047 0)"/>
       <use xlink:href="#DejaVuSans-30" transform="translate(127.246094 0)"/>
      </g>
     </g>
    </g>
    <g id="xtick_8">
     <g id="line2d_22">
      <path d="M 659.640312 162.918438 
L 659.640312 20.798437 
" clip-path="url(#p1f51ca8889)" style="fill: none; stroke: #b0b0b0; stroke-opacity: 0.25; stroke-width: 0.8; stroke-linecap: square"/>
     </g>
     <g id="line2d_23">
      <g>
       <use xlink:href="#m365f08e775" x="659.640312" y="162.918438" style="stroke: #000000; stroke-width: 0.8"/>
      </g>
     </g>
     <g id="text_8">
      <!-- 180 -->
      <g transform="translate(650.096562 177.516875) scale(0.1 -0.1)">
       <use xlink:href="#DejaVuSans-31"/>
       <use xlink:href="#DejaVuSans-38" transform="translate(63.623047 0)"/>
       <use xlink:href="#DejaVuSans-30" transform="translate(127.246094 0)"/>
      </g>
     </g>
    </g>
    <g id="text_9">
     <!-- x  [m] -->
     <g transform="translate(336.220937 191.195) scale(0.1 -0.1)">
      <defs>
       <path id="DejaVuSans-78" d="M 3513 3500 
L 2247 1797 
L 3578 0 
L 2900 0 
L 1881 1375 
L 863 0 
L 184 0 
L 1544 1831 
L 300 3500 
L 978 3500 
L 1906 2253 
L 2834 3500 
L 3513 3500 
z
" transform="scale(0.015625)"/>
       <path id="DejaVuSans-20" transform="scale(0.015625)"/>
       <path id="DejaVuSans-5b" d="M 550 4863 
L 1875 4863 
L 1875 4416 
L 1125 4416 
L 1125 -397 
L 1875 -397 
L 1875 -844 
L 550 -844 
L 550 4863 
z
" transform="scale(0.015625)"/>
       <path id="DejaVuSans-6d" d="M 3328 2828 
Q 3544 3216 3844 3400 
Q 4144 3584 4550 3584 
Q 5097 3584 5394 3201 
Q 5691 2819 5691 2113 
L 5691 0 
L 5113 0 
L 5113 2094 
Q 5113 2597 4934 2840 
Q 4756 3084 4391 3084 
Q 3944 3084 3684 2787 
Q 3425 2491 3425 1978 
L 3425 0 
L 2847 0 
L 2847 2094 
Q 2847 2600 2669 2842 
Q 2491 3084 2119 3084 
Q 1678 3084 1418 2786 
Q 1159 2488 1159 1978 
L 1159 0 
L 581 0 
L 581 3500 
L 1159 3500 
L 1159 2956 
Q 1356 3278 1631 3431 
Q 1906 3584 2284 3584 
Q 2666 3584 2933 3390 
Q 3200 3197 3328 2828 
z
" transform="scale(0.015625)"/>
       <path id="DejaVuSans-5d" d="M 1947 4863 
L 1947 -844 
L 622 -844 
L 622 -397 
L 1369 -397 
L 1369 4416 
L 622 4416 
L 622 4863 
L 1947 4863 
z
" transform="scale(0.015625)"/>
      </defs>
      <use xlink:href="#DejaVuSans-78"/>
      <use xlink:href="#DejaVuSans-20" transform="translate(59.179688 0)"/>
      <use xlink:href="#DejaVuSans-20" transform="translate(90.966797 0)"/>
      <use xlink:href="#DejaVuSans-5b" transform="translate(122.753906 0)"/>
      <use xlink:href="#DejaVuSans-6d" transform="translate(161.767578 0)"/>
      <use xlink:href="#DejaVuSans-5d" transform="translate(259.179688 0)"/>
     </g>
    </g>
   </g>
   <g id="matplotlib.axis_2">
    <g id="ytick_1">
     <g id="line2d_24">
      <path d="M 42.620313 158.181104 
L 659.640312 158.181104 
" clip-path="url(#p1f51ca8889)" style="fill: none; stroke: #b0b0b0; stroke-opacity: 0.25; stroke-width: 0.8; stroke-linecap: square"/>
     </g>
     <g id="line2d_25">
      <defs>
       <path id="mbd7194e709" d="M 0 0 
L -3.5 0 
" style="stroke: #000000; stroke-width: 0.8"/>
      </defs>
      <g>
       <use xlink:href="#mbd7194e709" x="42.620313" y="158.181104" style="stroke: #000000; stroke-width: 0.8"/>
      </g>
     </g>
     <g id="text_10">
      <!-- −1 -->
      <g transform="translate(20.878125 161.980323) scale(0.1 -0.1)">
       <defs>
        <path id="DejaVuSans-2212" d="M 678 2272 
L 4684 2272 
L 4684 1741 
L 678 1741 
L 678 2272 
z
" transform="scale(0.015625)"/>
       </defs>
       <use xlink:href="#DejaVuSans-2212"/>
       <use xlink:href="#DejaVuSans-31" transform="translate(83.789062 0)"/>
      </g>
     </g>
    </g>
    <g id="ytick_2">
     <g id="line2d_26">
      <path d="M 42.620313 134.494438 
L 659.640312 134.494438 
" clip-path="url(#p1f51ca8889)" style="fill: none; stroke: #b0b0b0; stroke-opacity: 0.25; stroke-width: 0.8; stroke-linecap: square"/>
     </g>
     <g id="line2d_27">
      <g>
       <use xlink:href="#mbd7194e709" x="42.620313" y="134.494438" style="stroke: #000000; stroke-width: 0.8"/>
      </g>
     </g>
     <g id="text_11">
      <!-- 0 -->
      <g transform="translate(29.257813 138.293656) scale(0.1 -0.1)">
       <use xlink:href="#DejaVuSans-30"/>
      </g>
     </g>
    </g>
    <g id="ytick_3">
     <g id="line2d_28">
      <path d="M 42.620313 110.807771 
L 659.640312 110.807771 
" clip-path="url(#p1f51ca8889)" style="fill: none; stroke: #b0b0b0; stroke-opacity: 0.25; stroke-width: 0.8; stroke-linecap: square"/>
     </g>
     <g id="line2d_29">
      <g>
       <use xlink:href="#mbd7194e709" x="42.620313" y="110.807771" style="stroke: #000000; stroke-width: 0.8"/>
      </g>
     </g>
     <g id="text_12">
      <!-- 1 -->
      <g transform="translate(29.257813 114.60699) scale(0.1 -0.1)">
       <use xlink:href="#DejaVuSans-31"/>
      </g>
     </g>
    </g>
    <g id="ytick_4">
     <g id="line2d_30">
      <path d="M 42.620313 87.121104 
L 659.640312 87.121104 
" clip-path="url(#p1f51ca8889)" style="fill: none; stroke: #b0b0b0; stroke-opacity: 0.25; stroke-width: 0.8; stroke-linecap: square"/>
     </g>
     <g id="line2d_31">
      <g>
       <use xlink:href="#mbd7194e709" x="42.620313" y="87.121104" style="stroke: #000000; stroke-width: 0.8"/>
      </g>
     </g>
     <g id="text_13">
      <!-- 2 -->
      <g transform="translate(29.257813 90.920323) scale(0.1 -0.1)">
       <use xlink:href="#DejaVuSans-32"/>
      </g>
     </g>
    </g>
    <g id="ytick_5">
     <g id="line2d_32">
      <path d="M 42.620313 63.434437 
L 659.640312 63.434437 
" clip-path="url(#p1f51ca8889)" style="fill: none; stroke: #b0b0b0; stroke-opacity: 0.25; stroke-width: 0.8; stroke-linecap: square"/>
     </g>
     <g id="line2d_33">
      <g>
       <use xlink:href="#mbd7194e709" x="42.620313" y="63.434437" style="stroke: #000000; stroke-width: 0.8"/>
      </g>
     </g>
     <g id="text_14">
      <!-- 3 -->
      <g transform="translate(29.257813 67.233656) scale(0.1 -0.1)">
       <defs>
        <path id="DejaVuSans-33" d="M 2597 2516 
Q 3050 2419 3304 2112 
Q 3559 1806 3559 1356 
Q 3559 666 3084 287 
Q 2609 -91 1734 -91 
Q 1441 -91 1130 -33 
Q 819 25 488 141 
L 488 750 
Q 750 597 1062 519 
Q 1375 441 1716 441 
Q 2309 441 2620 675 
Q 2931 909 2931 1356 
Q 2931 1769 2642 2001 
Q 2353 2234 1838 2234 
L 1294 2234 
L 1294 2753 
L 1863 2753 
Q 2328 2753 2575 2939 
Q 2822 3125 2822 3475 
Q 2822 3834 2567 4026 
Q 2313 4219 1838 4219 
Q 1578 4219 1281 4162 
Q 984 4106 628 3988 
L 628 4550 
Q 988 4650 1302 4700 
Q 1616 4750 1894 4750 
Q 2613 4750 3031 4423 
Q 3450 4097 3450 3541 
Q 3450 3153 3228 2886 
Q 3006 2619 2597 2516 
z
" transform="scale(0.015625)"/>
       </defs>
       <use xlink:href="#DejaVuSans-33"/>
      </g>
     </g>
    </g>
    <g id="ytick_6">
     <g id="line2d_34">
      <path d="M 42.620313 39.747771 
L 659.640312 39.747771 
" clip-path="url(#p1f51ca8889)" style="fill: none; stroke: #b0b0b0; stroke-opacity: 0.25; stroke-width: 0.8; stroke-linecap: square"/>
     </g>
     <g id="line2d_35">
      <g>
       <use xlink:href="#mbd7194e709" x="42.620313" y="39.747771" style="stroke: #000000; stroke-width: 0.8"/>
      </g>
     </g>
     <g id="text_15">
      <!-- 4 -->
      <g transform="translate(29.257813 43.54699) scale(0.1 -0.1)">
       <use xlink:href="#DejaVuSans-34"/>
      </g>
     </g>
    </g>
    <g id="text_16">
     <!-- CG y  [m] -->
     <g transform="translate(14.798438 115.7225) rotate(-90) scale(0.1 -0.1)">
      <defs>
       <path id="DejaVuSans-43" d="M 4122 4306 
L 4122 3641 
Q 3803 3938 3442 4084 
Q 3081 4231 2675 4231 
Q 1875 4231 1450 3742 
Q 1025 3253 1025 2328 
Q 1025 1406 1450 917 
Q 1875 428 2675 428 
Q 3081 428 3442 575 
Q 3803 722 4122 1019 
L 4122 359 
Q 3791 134 3420 21 
Q 3050 -91 2638 -91 
Q 1578 -91 968 557 
Q 359 1206 359 2328 
Q 359 3453 968 4101 
Q 1578 4750 2638 4750 
Q 3056 4750 3426 4639 
Q 3797 4528 4122 4306 
z
" transform="scale(0.015625)"/>
       <path id="DejaVuSans-47" d="M 3809 666 
L 3809 1919 
L 2778 1919 
L 2778 2438 
L 4434 2438 
L 4434 434 
Q 4069 175 3628 42 
Q 3188 -91 2688 -91 
Q 1594 -91 976 548 
Q 359 1188 359 2328 
Q 359 3472 976 4111 
Q 1594 4750 2688 4750 
Q 3144 4750 3555 4637 
Q 3966 4525 4313 4306 
L 4313 3634 
Q 3963 3931 3569 4081 
Q 3175 4231 2741 4231 
Q 1884 4231 1454 3753 
Q 1025 3275 1025 2328 
Q 1025 1384 1454 906 
Q 1884 428 2741 428 
Q 3075 428 3337 486 
Q 3600 544 3809 666 
z
" transform="scale(0.015625)"/>
       <path id="DejaVuSans-79" d="M 2059 -325 
Q 1816 -950 1584 -1140 
Q 1353 -1331 966 -1331 
L 506 -1331 
L 506 -850 
L 844 -850 
Q 1081 -850 1212 -737 
Q 1344 -625 1503 -206 
L 1606 56 
L 191 3500 
L 800 3500 
L 1894 763 
L 2988 3500 
L 3597 3500 
L 2059 -325 
z
" transform="scale(0.015625)"/>
      </defs>
      <use xlink:href="#DejaVuSans-43"/>
      <use xlink:href="#DejaVuSans-47" transform="translate(69.824219 0)"/>
      <use xlink:href="#DejaVuSans-20" transform="translate(147.314453 0)"/>
      <use xlink:href="#DejaVuSans-79" transform="translate(179.101562 0)"/>
      <use xlink:href="#DejaVuSans-20" transform="translate(238.28125 0)"/>
      <use xlink:href="#DejaVuSans-20" transform="translate(270.068359 0)"/>
      <use xlink:href="#DejaVuSans-5b" transform="translate(301.855469 0)"/>
      <use xlink:href="#DejaVuSans-6d" transform="translate(340.869141 0)"/>
      <use xlink:href="#DejaVuSans-5d" transform="translate(438.28125 0)"/>
     </g>
    </g>
   </g>
   <g id="line2d_36">
    <path d="M -1 134.494438 
L 164.033925 134.437629 
L 166.024312 134.267361 
L 170.005087 133.588619 
L 173.985861 132.465649 
L 177.966635 130.910753 
L 181.947409 128.940967 
L 185.928183 126.577874 
L 189.908958 123.847362 
L 193.889732 120.77935 
L 197.870506 117.407449 
L 201.85128 113.768604 
L 207.822442 107.89772 
L 213.793603 101.661057 
L 225.735925 88.709892 
L 233.697474 80.233501 
L 239.668635 74.224108 
L 243.649409 70.466575 
L 247.630183 66.956392 
L 251.610958 63.732016 
L 255.591732 60.828775 
L 259.572506 58.278478 
L 263.55328 56.109065 
L 267.534054 54.344306 
L 271.514829 53.003535 
L 275.495603 52.101443 
L 277.48599 51.818181 
L 279.476377 51.647912 
L 283.457151 51.591104 
L 382.976506 51.6729 
L 384.966893 51.917963 
L 386.95728 52.325327 
L 388.947667 52.893384 
L 390.938054 53.619893 
L 392.928442 54.501986 
L 394.918829 55.536181 
L 396.909216 56.718398 
L 398.899603 58.043971 
L 402.880377 61.103713 
L 406.861151 64.667152 
L 410.841925 68.678092 
L 414.8227 73.073278 
L 418.803474 77.783395 
L 424.774635 85.275503 
L 442.688119 108.302147 
L 446.668893 113.012264 
L 450.649667 117.407449 
L 454.630442 121.418389 
L 458.611216 124.981829 
L 462.59199 128.041571 
L 464.582377 129.367143 
L 466.572764 130.54936 
L 468.563151 131.583556 
L 470.553538 132.465649 
L 472.543925 133.192157 
L 474.534312 133.760215 
L 476.5247 134.167579 
L 478.515087 134.412642 
L 482.495861 134.494438 
L 677.384062 134.494438 
L 677.384062 134.494438 
" clip-path="url(#p1f51ca8889)" style="fill: none; stroke-dasharray: 1,1.65; stroke-dashoffset: 0; stroke: #9aa0a6"/>
   </g>
   <g id="line2d_37">
    <path d="M -1 134.098765 
L 61.748699 134.482909 
L 113.345918 134.498329 
L 124.402507 134.257084 
L 161.257918 133.229261 
L 168.627609 133.003343 
L 172.308145 132.639392 
L 175.983953 132.027452 
L 179.655305 131.143865 
L 183.323065 129.996608 
L 186.987573 128.606849 
L 190.64834 126.977746 
L 194.304323 125.08747 
L 197.954216 122.910048 
L 201.596817 120.432819 
L 205.231387 117.658027 
L 208.857847 114.599295 
L 212.476789 111.280642 
L 216.089334 107.736833 
L 223.300487 100.141896 
L 230.500462 92.108226 
L 248.498145 71.54748 
L 252.107336 67.733791 
L 255.721673 64.121161 
L 259.341426 60.737093 
L 262.966618 57.607371 
L 266.597002 54.758814 
L 270.232033 52.218833 
L 273.870863 50.013062 
L 277.51239 48.163398 
L 281.155333 46.687553 
L 284.798866 45.58409 
L 288.443489 44.786321 
L 292.088998 44.208454 
L 295.735084 43.805363 
L 299.382036 43.576329 
L 303.029864 43.53321 
L 306.678115 43.670062 
L 310.32658 43.965265 
L 317.62575 44.869922 
L 335.894397 47.463772 
L 350.526762 49.896957 
L 361.512068 51.374175 
L 368.840681 52.197828 
L 376.172974 52.802484 
L 387.175443 53.428763 
L 390.838234 53.884419 
L 394.494199 54.615322 
L 398.142121 55.68082 
L 401.782187 57.112488 
L 405.415397 58.903281 
L 409.042294 61.023501 
L 412.662408 63.454364 
L 416.274563 66.204417 
L 419.877331 69.292944 
L 423.469527 72.726887 
L 427.050642 76.494946 
L 430.620917 80.573833 
L 434.180749 84.940776 
L 437.731643 89.559729 
L 455.464536 113.61359 
L 459.024963 118.081361 
L 462.593874 122.302937 
L 466.171643 126.227296 
L 469.757909 129.803025 
L 473.351532 132.985519 
L 476.950766 135.740529 
L 480.553492 138.042611 
L 484.158354 139.888246 
L 487.766099 141.336433 
L 491.376548 142.469479 
L 494.988949 143.345352 
L 498.603287 143.978382 
L 502.21966 144.359635 
L 505.837507 144.494049 
L 509.456126 144.402142 
L 513.075378 144.111354 
L 520.31833 143.111259 
L 538.463196 140.081212 
L 549.375328 138.233341 
L 556.660091 137.207831 
L 567.600706 135.987813 
L 574.902516 135.358016 
L 582.210109 134.888391 
L 593.18121 134.431901 
L 604.162649 134.187949 
L 618.818466 134.097437 
L 644.497635 134.216075 
L 677.384062 134.416947 
L 677.384062 134.416947 
" clip-path="url(#p1f51ca8889)" style="fill: none; stroke: #2b6cb0; stroke-width: 1.8; stroke-linecap: square"/>
   </g>
   <g id="line2d_38">
    <path d="M -1 134.035053 
L 58.060089 134.47014 
L 109.656025 134.51552 
L 120.712614 134.364165 
L 168.622822 132.996693 
L 172.30335 132.628248 
L 175.979208 132.01226 
L 179.650671 131.125743 
L 183.318581 129.976893 
L 186.983246 128.586177 
L 190.644157 126.955832 
L 194.300269 125.063837 
L 197.95028 122.884667 
L 201.593 120.406093 
L 205.227709 117.63057 
L 208.854339 114.571845 
L 212.473487 111.254025 
L 216.086267 107.711838 
L 223.297917 100.121221 
L 230.498343 92.090754 
L 248.49718 71.541661 
L 252.106588 67.730292 
L 255.721131 64.11973 
L 259.341079 60.737545 
L 262.966455 57.609604 
L 266.597012 54.762772 
L 270.232203 52.224441 
L 273.871184 50.020218 
L 277.512853 48.171963 
L 281.155944 46.697057 
L 284.799667 45.593197 
L 288.444479 44.794964 
L 292.090175 44.216821 
L 295.736449 43.813622 
L 299.383587 43.584568 
L 303.031595 43.541565 
L 306.680023 43.678333 
L 310.328664 43.973187 
L 317.628181 44.876255 
L 335.897586 47.468956 
L 350.530526 49.899251 
L 361.51622 51.375775 
L 368.845069 52.198495 
L 376.17758 52.802217 
L 387.180262 53.439677 
L 390.843055 53.904407 
L 394.499047 54.645518 
L 398.147079 55.721306 
L 401.787387 57.161376 
L 405.420943 58.957861 
L 409.048231 61.081591 
L 412.66873 63.515534 
L 416.28124 66.269422 
L 419.88433 69.362259 
L 423.476834 72.800163 
L 427.058267 76.571337 
L 430.62888 80.652512 
L 434.189115 85.020672 
L 437.74052 89.638904 
L 455.476798 113.666022 
L 459.03792 118.128191 
L 462.607497 122.344173 
L 466.185896 126.262532 
L 469.772743 129.831819 
L 473.366895 133.007662 
L 476.966603 135.756028 
L 480.569782 138.051935 
L 484.175133 139.893133 
L 487.783343 141.337205 
L 491.394231 142.466551 
L 495.007047 143.339285 
L 498.621782 143.969442 
L 502.238537 144.348207 
L 505.85675 144.480512 
L 509.47572 144.386894 
L 513.09531 144.094811 
L 520.338916 143.093773 
L 538.485225 140.067063 
L 549.398094 138.222365 
L 556.6833 137.199162 
L 567.624511 135.982071 
L 574.926678 135.353928 
L 582.234597 134.885715 
L 593.206139 134.430741 
L 604.187965 134.187765 
L 618.844229 134.09792 
L 644.524023 134.216712 
L 677.384062 134.417107 
L 677.384062 134.417107 
" clip-path="url(#p1f51ca8889)" style="fill: none; stroke-dasharray: 4.44,1.92; stroke-dashoffset: 0; stroke: #dd6b20; stroke-width: 1.2"/>
   </g>
   <g id="patch_3">
    <path d="M 42.620313 162.918438 
L 42.620313 20.798437 
" style="fill: none; stroke: #000000; stroke-width: 0.8; stroke-linejoin: miter; stroke-linecap: square"/>
   </g>
   <g id="patch_4">
    <path d="M 659.640312 162.918438 
L 659.640312 20.798437 
" style="fill: none; stroke: #000000; stroke-width: 0.8; stroke-linejoin: miter; stroke-linecap: square"/>
   </g>
   <g id="patch_5">
    <path d="M 42.620313 162.918438 
L 659.640312 162.918438 
" style="fill: none; stroke: #000000; stroke-width: 0.8; stroke-linejoin: miter; stroke-linecap: square"/>
   </g>
   <g id="patch_6">
    <path d="M 42.620313 20.798437 
L 659.640312 20.798437 
" style="fill: none; stroke: #000000; stroke-width: 0.8; stroke-linejoin: miter; stroke-linecap: square"/>
   </g>
   <g id="text_17">
    <!-- ISO 3888-1 double lane change at 80 km/h — Elise, both plants -->
    <g transform="translate(192.276406 14.798437) scale(0.1 -0.1)">
     <defs>
      <path id="DejaVuSans-49" d="M 628 4666 
L 1259 4666 
L 1259 0 
L 628 0 
L 628 4666 
z
" transform="scale(0.015625)"/>
      <path id="DejaVuSans-53" d="M 3425 4513 
L 3425 3897 
Q 3066 4069 2747 4153 
Q 2428 4238 2131 4238 
Q 1616 4238 1336 4038 
Q 1056 3838 1056 3469 
Q 1056 3159 1242 3001 
Q 1428 2844 1947 2747 
L 2328 2669 
Q 3034 2534 3370 2195 
Q 3706 1856 3706 1288 
Q 3706 609 3251 259 
Q 2797 -91 1919 -91 
Q 1588 -91 1214 -16 
Q 841 59 441 206 
L 441 856 
Q 825 641 1194 531 
Q 1563 422 1919 422 
Q 2459 422 2753 634 
Q 3047 847 3047 1241 
Q 3047 1584 2836 1778 
Q 2625 1972 2144 2069 
L 1759 2144 
Q 1053 2284 737 2584 
Q 422 2884 422 3419 
Q 422 4038 858 4394 
Q 1294 4750 2059 4750 
Q 2388 4750 2728 4690 
Q 3069 4631 3425 4513 
z
" transform="scale(0.015625)"/>
      <path id="DejaVuSans-4f" d="M 2522 4238 
Q 1834 4238 1429 3725 
Q 1025 3213 1025 2328 
Q 1025 1447 1429 934 
Q 1834 422 2522 422 
Q 3209 422 3611 934 
Q 4013 1447 4013 2328 
Q 4013 3213 3611 3725 
Q 3209 4238 2522 4238 
z
M 2522 4750 
Q 3503 4750 4090 4092 
Q 4678 3434 4678 2328 
Q 4678 1225 4090 567 
Q 3503 -91 2522 -91 
Q 1538 -91 948 565 
Q 359 1222 359 2328 
Q 359 3434 948 4092 
Q 1538 4750 2522 4750 
z
" transform="scale(0.015625)"/>
      <path id="DejaVuSans-2d" d="M 313 2009 
L 1997 2009 
L 1997 1497 
L 313 1497 
L 313 2009 
z
" transform="scale(0.015625)"/>
      <path id="DejaVuSans-64" d="M 2906 2969 
L 2906 4863 
L 3481 4863 
L 3481 0 
L 2906 0 
L 2906 525 
Q 2725 213 2448 61 
Q 2172 -91 1784 -91 
Q 1150 -91 751 415 
Q 353 922 353 1747 
Q 353 2572 751 3078 
Q 1150 3584 1784 3584 
Q 2172 3584 2448 3432 
Q 2725 3281 2906 2969 
z
M 947 1747 
Q 947 1113 1208 752 
Q 1469 391 1925 391 
Q 2381 391 2643 752 
Q 2906 1113 2906 1747 
Q 2906 2381 2643 2742 
Q 2381 3103 1925 3103 
Q 1469 3103 1208 2742 
Q 947 2381 947 1747 
z
" transform="scale(0.015625)"/>
      <path id="DejaVuSans-6f" d="M 1959 3097 
Q 1497 3097 1228 2736 
Q 959 2375 959 1747 
Q 959 1119 1226 758 
Q 1494 397 1959 397 
Q 2419 397 2687 759 
Q 2956 1122 2956 1747 
Q 2956 2369 2687 2733 
Q 2419 3097 1959 3097 
z
M 1959 3584 
Q 2709 3584 3137 3096 
Q 3566 2609 3566 1747 
Q 3566 888 3137 398 
Q 2709 -91 1959 -91 
Q 1206 -91 779 398 
Q 353 888 353 1747 
Q 353 2609 779 3096 
Q 1206 3584 1959 3584 
z
" transform="scale(0.015625)"/>
      <path id="DejaVuSans-75" d="M 544 1381 
L 544 3500 
L 1119 3500 
L 1119 1403 
Q 1119 906 1312 657 
Q 1506 409 1894 409 
Q 2359 409 2629 706 
Q 2900 1003 2900 1516 
L 2900 3500 
L 3475 3500 
L 3475 0 
L 2900 0 
L 2900 538 
Q 2691 219 2414 64 
Q 2138 -91 1772 -91 
Q 1169 -91 856 284 
Q 544 659 544 1381 
z
M 1991 3584 
L 1991 3584 
z
" transform="scale(0.015625)"/>
      <path id="DejaVuSans-62" d="M 3116 1747 
Q 3116 2381 2855 2742 
Q 2594 3103 2138 3103 
Q 1681 3103 1420 2742 
Q 1159 2381 1159 1747 
Q 1159 1113 1420 752 
Q 1681 391 2138 391 
Q 2594 391 2855 752 
Q 3116 1113 3116 1747 
z
M 1159 2969 
Q 1341 3281 1617 3432 
Q 1894 3584 2278 3584 
Q 2916 3584 3314 3078 
Q 3713 2572 3713 1747 
Q 3713 922 3314 415 
Q 2916 -91 2278 -91 
Q 1894 -91 1617 61 
Q 1341 213 1159 525 
L 1159 0 
L 581 0 
L 581 4863 
L 1159 4863 
L 1159 2969 
z
" transform="scale(0.015625)"/>
      <path id="DejaVuSans-6c" d="M 603 4863 
L 1178 4863 
L 1178 0 
L 603 0 
L 603 4863 
z
" transform="scale(0.015625)"/>
      <path id="DejaVuSans-65" d="M 3597 1894 
L 3597 1613 
L 953 1613 
Q 991 1019 1311 708 
Q 1631 397 2203 397 
Q 2534 397 2845 478 
Q 3156 559 3463 722 
L 3463 178 
Q 3153 47 2828 -22 
Q 2503 -91 2169 -91 
Q 1331 -91 842 396 
Q 353 884 353 1716 
Q 353 2575 817 3079 
Q 1281 3584 2069 3584 
Q 2775 3584 3186 3129 
Q 3597 2675 3597 1894 
z
M 3022 2063 
Q 3016 2534 2758 2815 
Q 2500 3097 2075 3097 
Q 1594 3097 1305 2825 
Q 1016 2553 972 2059 
L 3022 2063 
z
" transform="scale(0.015625)"/>
      <path id="DejaVuSans-61" d="M 2194 1759 
Q 1497 1759 1228 1600 
Q 959 1441 959 1056 
Q 959 750 1161 570 
Q 1363 391 1709 391 
Q 2188 391 2477 730 
Q 2766 1069 2766 1631 
L 2766 1759 
L 2194 1759 
z
M 3341 1997 
L 3341 0 
L 2766 0 
L 2766 531 
Q 2569 213 2275 61 
Q 1981 -91 1556 -91 
Q 1019 -91 701 211 
Q 384 513 384 1019 
Q 384 1609 779 1909 
Q 1175 2209 1959 2209 
L 2766 2209 
L 2766 2266 
Q 2766 2663 2505 2880 
Q 2244 3097 1772 3097 
Q 1472 3097 1187 3025 
Q 903 2953 641 2809 
L 641 3341 
Q 956 3463 1253 3523 
Q 1550 3584 1831 3584 
Q 2591 3584 2966 3190 
Q 3341 2797 3341 1997 
z
" transform="scale(0.015625)"/>
      <path id="DejaVuSans-6e" d="M 3513 2113 
L 3513 0 
L 2938 0 
L 2938 2094 
Q 2938 2591 2744 2837 
Q 2550 3084 2163 3084 
Q 1697 3084 1428 2787 
Q 1159 2491 1159 1978 
L 1159 0 
L 581 0 
L 581 3500 
L 1159 3500 
L 1159 2956 
Q 1366 3272 1645 3428 
Q 1925 3584 2291 3584 
Q 2894 3584 3203 3211 
Q 3513 2838 3513 2113 
z
" transform="scale(0.015625)"/>
      <path id="DejaVuSans-63" d="M 3122 3366 
L 3122 2828 
Q 2878 2963 2633 3030 
Q 2388 3097 2138 3097 
Q 1578 3097 1268 2742 
Q 959 2388 959 1747 
Q 959 1106 1268 751 
Q 1578 397 2138 397 
Q 2388 397 2633 464 
Q 2878 531 3122 666 
L 3122 134 
Q 2881 22 2623 -34 
Q 2366 -91 2075 -91 
Q 1284 -91 818 406 
Q 353 903 353 1747 
Q 353 2603 823 3093 
Q 1294 3584 2113 3584 
Q 2378 3584 2631 3529 
Q 2884 3475 3122 3366 
z
" transform="scale(0.015625)"/>
      <path id="DejaVuSans-68" d="M 3513 2113 
L 3513 0 
L 2938 0 
L 2938 2094 
Q 2938 2591 2744 2837 
Q 2550 3084 2163 3084 
Q 1697 3084 1428 2787 
Q 1159 2491 1159 1978 
L 1159 0 
L 581 0 
L 581 4863 
L 1159 4863 
L 1159 2956 
Q 1366 3272 1645 3428 
Q 1925 3584 2291 3584 
Q 2894 3584 3203 3211 
Q 3513 2838 3513 2113 
z
" transform="scale(0.015625)"/>
      <path id="DejaVuSans-67" d="M 2906 1791 
Q 2906 2416 2648 2759 
Q 2391 3103 1925 3103 
Q 1463 3103 1205 2759 
Q 947 2416 947 1791 
Q 947 1169 1205 825 
Q 1463 481 1925 481 
Q 2391 481 2648 825 
Q 2906 1169 2906 1791 
z
M 3481 434 
Q 3481 -459 3084 -895 
Q 2688 -1331 1869 -1331 
Q 1566 -1331 1297 -1286 
Q 1028 -1241 775 -1147 
L 775 -588 
Q 1028 -725 1275 -790 
Q 1522 -856 1778 -856 
Q 2344 -856 2625 -561 
Q 2906 -266 2906 331 
L 2906 616 
Q 2728 306 2450 153 
Q 2172 0 1784 0 
Q 1141 0 747 490 
Q 353 981 353 1791 
Q 353 2603 747 3093 
Q 1141 3584 1784 3584 
Q 2172 3584 2450 3431 
Q 2728 3278 2906 2969 
L 2906 3500 
L 3481 3500 
L 3481 434 
z
" transform="scale(0.015625)"/>
      <path id="DejaVuSans-74" d="M 1172 4494 
L 1172 3500 
L 2356 3500 
L 2356 3053 
L 1172 3053 
L 1172 1153 
Q 1172 725 1289 603 
Q 1406 481 1766 481 
L 2356 481 
L 2356 0 
L 1766 0 
Q 1100 0 847 248 
Q 594 497 594 1153 
L 594 3053 
L 172 3053 
L 172 3500 
L 594 3500 
L 594 4494 
L 1172 4494 
z
" transform="scale(0.015625)"/>
      <path id="DejaVuSans-6b" d="M 581 4863 
L 1159 4863 
L 1159 1991 
L 2875 3500 
L 3609 3500 
L 1753 1863 
L 3688 0 
L 2938 0 
L 1159 1709 
L 1159 0 
L 581 0 
L 581 4863 
z
" transform="scale(0.015625)"/>
      <path id="DejaVuSans-2f" d="M 1625 4666 
L 2156 4666 
L 531 -594 
L 0 -594 
L 1625 4666 
z
" transform="scale(0.015625)"/>
      <path id="DejaVuSans-2014" d="M 313 1978 
L 6088 1978 
L 6088 1528 
L 313 1528 
L 313 1978 
z
" transform="scale(0.015625)"/>
      <path id="DejaVuSans-45" d="M 628 4666 
L 3578 4666 
L 3578 4134 
L 1259 4134 
L 1259 2753 
L 3481 2753 
L 3481 2222 
L 1259 2222 
L 1259 531 
L 3634 531 
L 3634 0 
L 628 0 
L 628 4666 
z
" transform="scale(0.015625)"/>
      <path id="DejaVuSans-69" d="M 603 3500 
L 1178 3500 
L 1178 0 
L 603 0 
L 603 3500 
z
M 603 4863 
L 1178 4863 
L 1178 4134 
L 603 4134 
L 603 4863 
z
" transform="scale(0.015625)"/>
      <path id="DejaVuSans-73" d="M 2834 3397 
L 2834 2853 
Q 2591 2978 2328 3040 
Q 2066 3103 1784 3103 
Q 1356 3103 1142 2972 
Q 928 2841 928 2578 
Q 928 2378 1081 2264 
Q 1234 2150 1697 2047 
L 1894 2003 
Q 2506 1872 2764 1633 
Q 3022 1394 3022 966 
Q 3022 478 2636 193 
Q 2250 -91 1575 -91 
Q 1294 -91 989 -36 
Q 684 19 347 128 
L 347 722 
Q 666 556 975 473 
Q 1284 391 1588 391 
Q 1994 391 2212 530 
Q 2431 669 2431 922 
Q 2431 1156 2273 1281 
Q 2116 1406 1581 1522 
L 1381 1569 
Q 847 1681 609 1914 
Q 372 2147 372 2553 
Q 372 3047 722 3315 
Q 1072 3584 1716 3584 
Q 2034 3584 2315 3537 
Q 2597 3491 2834 3397 
z
" transform="scale(0.015625)"/>
      <path id="DejaVuSans-2c" d="M 750 794 
L 1409 794 
L 1409 256 
L 897 -744 
L 494 -744 
L 750 256 
L 750 794 
z
" transform="scale(0.015625)"/>
      <path id="DejaVuSans-70" d="M 1159 525 
L 1159 -1331 
L 581 -1331 
L 581 3500 
L 1159 3500 
L 1159 2969 
Q 1341 3281 1617 3432 
Q 1894 3584 2278 3584 
Q 2916 3584 3314 3078 
Q 3713 2572 3713 1747 
Q 3713 922 3314 415 
Q 2916 -91 2278 -91 
Q 1894 -91 1617 61 
Q 1341 213 1159 525 
z
M 3116 1747 
Q 3116 2381 2855 2742 
Q 2594 3103 2138 3103 
Q 1681 3103 1420 2742 
Q 1159 2381 1159 1747 
Q 1159 1113 1420 752 
Q 1681 391 2138 391 
Q 2594 391 2855 752 
Q 3116 1113 3116 1747 
z
" transform="scale(0.015625)"/>
     </defs>
     <use xlink:href="#DejaVuSans-49"/>
     <use xlink:href="#DejaVuSans-53" transform="translate(29.492188 0)"/>
     <use xlink:href="#DejaVuSans-4f" transform="translate(92.96875 0)"/>
     <use xlink:href="#DejaVuSans-20" transform="translate(171.679688 0)"/>
     <use xlink:href="#DejaVuSans-33" transform="translate(203.466797 0)"/>
     <use xlink:href="#DejaVuSans-38" transform="translate(267.089844 0)"/>
     <use xlink:href="#DejaVuSans-38" transform="translate(330.712891 0)"/>
     <use xlink:href="#DejaVuSans-38" transform="translate(394.335938 0)"/>
     <use xlink:href="#DejaVuSans-2d" transform="translate(457.958984 0)"/>
     <use xlink:href="#DejaVuSans-31" transform="translate(494.042969 0)"/>
     <use xlink:href="#DejaVuSans-20" transform="translate(557.666016 0)"/>
     <use xlink:href="#DejaVuSans-64" transform="translate(589.453125 0)"/>
     <use xlink:href="#DejaVuSans-6f" transform="translate(652.929688 0)"/>
     <use xlink:href="#DejaVuSans-75" transform="translate(714.111328 0)"/>
     <use xlink:href="#DejaVuSans-62" transform="translate(777.490234 0)"/>
     <use xlink:href="#DejaVuSans-6c" transform="translate(840.966797 0)"/>
     <use xlink:href="#DejaVuSans-65" transform="translate(868.75 0)"/>
     <use xlink:href="#DejaVuSans-20" transform="translate(930.273438 0)"/>
     <use xlink:href="#DejaVuSans-6c" transform="translate(962.060547 0)"/>
     <use xlink:href="#DejaVuSans-61" transform="translate(989.84375 0)"/>
     <use xlink:href="#DejaVuSans-6e" transform="translate(1051.123047 0)"/>
     <use xlink:href="#DejaVuSans-65" transform="translate(1114.501953 0)"/>
     <use xlink:href="#DejaVuSans-20" transform="translate(1176.025391 0)"/>
     <use xlink:href="#DejaVuSans-63" transform="translate(1207.8125 0)"/>
     <use xlink:href="#DejaVuSans-68" transform="translate(1262.792969 0)"/>
     <use xlink:href="#DejaVuSans-61" transform="translate(1326.171875 0)"/>
     <use xlink:href="#DejaVuSans-6e" transform="translate(1387.451172 0)"/>
     <use xlink:href="#DejaVuSans-67" transform="translate(1450.830078 0)"/>
     <use xlink:href="#DejaVuSans-65" transform="translate(1514.306641 0)"/>
     <use xlink:href="#DejaVuSans-20" transform="translate(1575.830078 0)"/>
     <use xlink:href="#DejaVuSans-61" transform="translate(1607.617188 0)"/>
     <use xlink:href="#DejaVuSans-74" transform="translate(1668.896484 0)"/>
     <use xlink:href="#DejaVuSans-20" transform="translate(1708.105469 0)"/>
     <use xlink:href="#DejaVuSans-38" transform="translate(1739.892578 0)"/>
     <use xlink:href="#DejaVuSans-30" transform="translate(1803.515625 0)"/>
     <use xlink:href="#DejaVuSans-20" transform="translate(1867.138672 0)"/>
     <use xlink:href="#DejaVuSans-6b" transform="translate(1898.925781 0)"/>
     <use xlink:href="#DejaVuSans-6d" transform="translate(1956.835938 0)"/>
     <use xlink:href="#DejaVuSans-2f" transform="translate(2054.248047 0)"/>
     <use xlink:href="#DejaVuSans-68" transform="translate(2087.939453 0)"/>
     <use xlink:href="#DejaVuSans-20" transform="translate(2151.318359 0)"/>
     <use xlink:href="#DejaVuSans-2014" transform="translate(2183.105469 0)"/>
     <use xlink:href="#DejaVuSans-20" transform="translate(2283.105469 0)"/>
     <use xlink:href="#DejaVuSans-45" transform="translate(2314.892578 0)"/>
     <use xlink:href="#DejaVuSans-6c" transform="translate(2378.076172 0)"/>
     <use xlink:href="#DejaVuSans-69" transform="translate(2405.859375 0)"/>
     <use xlink:href="#DejaVuSans-73" transform="translate(2433.642578 0)"/>
     <use xlink:href="#DejaVuSans-65" transform="translate(2485.742188 0)"/>
     <use xlink:href="#DejaVuSans-2c" transform="translate(2547.265625 0)"/>
     <use xlink:href="#DejaVuSans-20" transform="translate(2579.052734 0)"/>
     <use xlink:href="#DejaVuSans-62" transform="translate(2610.839844 0)"/>
     <use xlink:href="#DejaVuSans-6f" transform="translate(2674.316406 0)"/>
     <use xlink:href="#DejaVuSans-74" transform="translate(2735.498047 0)"/>
     <use xlink:href="#DejaVuSans-68" transform="translate(2774.707031 0)"/>
     <use xlink:href="#DejaVuSans-20" transform="translate(2838.085938 0)"/>
     <use xlink:href="#DejaVuSans-70" transform="translate(2869.873047 0)"/>
     <use xlink:href="#DejaVuSans-6c" transform="translate(2933.349609 0)"/>
     <use xlink:href="#DejaVuSans-61" transform="translate(2961.132812 0)"/>
     <use xlink:href="#DejaVuSans-6e" transform="translate(3022.412109 0)"/>
     <use xlink:href="#DejaVuSans-74" transform="translate(3085.791016 0)"/>
     <use xlink:href="#DejaVuSans-73" transform="translate(3125 0)"/>
    </g>
   </g>
   <g id="legend_1">
    <g id="patch_7">
     <path d="M 518.160313 62.425937 
L 654.040313 62.425937 
Q 655.640313 62.425937 655.640313 60.825937 
L 655.640313 26.398437 
Q 655.640313 24.798437 654.040313 24.798437 
L 518.160313 24.798437 
Q 516.560313 24.798437 516.560313 26.398437 
L 516.560313 60.825937 
Q 516.560313 62.425937 518.160313 62.425937 
z
" style="fill: #ffffff; opacity: 0.8; stroke: #cccccc; stroke-linejoin: miter"/>
    </g>
    <g id="line2d_39">
     <path d="M 519.760313 31.277187 
L 527.760313 31.277187 
L 535.760313 31.277187 
" style="fill: none; stroke-dasharray: 1,1.65; stroke-dashoffset: 0; stroke: #9aa0a6"/>
    </g>
    <g id="text_18">
     <!-- ISO 3888-1 reference path -->
     <g transform="translate(542.160313 34.077187) scale(0.08 -0.08)">
      <defs>
       <path id="DejaVuSans-72" d="M 2631 2963 
Q 2534 3019 2420 3045 
Q 2306 3072 2169 3072 
Q 1681 3072 1420 2755 
Q 1159 2438 1159 1844 
L 1159 0 
L 581 0 
L 581 3500 
L 1159 3500 
L 1159 2956 
Q 1341 3275 1631 3429 
Q 1922 3584 2338 3584 
Q 2397 3584 2469 3576 
Q 2541 3569 2628 3553 
L 2631 2963 
z
" transform="scale(0.015625)"/>
       <path id="DejaVuSans-66" d="M 2375 4863 
L 2375 4384 
L 1825 4384 
Q 1516 4384 1395 4259 
Q 1275 4134 1275 3809 
L 1275 3500 
L 2222 3500 
L 2222 3053 
L 1275 3053 
L 1275 0 
L 697 0 
L 697 3053 
L 147 3053 
L 147 3500 
L 697 3500 
L 697 3744 
Q 697 4328 969 4595 
Q 1241 4863 1831 4863 
L 2375 4863 
z
" transform="scale(0.015625)"/>
      </defs>
      <use xlink:href="#DejaVuSans-49"/>
      <use xlink:href="#DejaVuSans-53" transform="translate(29.492188 0)"/>
      <use xlink:href="#DejaVuSans-4f" transform="translate(92.96875 0)"/>
      <use xlink:href="#DejaVuSans-20" transform="translate(171.679688 0)"/>
      <use xlink:href="#DejaVuSans-33" transform="translate(203.466797 0)"/>
      <use xlink:href="#DejaVuSans-38" transform="translate(267.089844 0)"/>
      <use xlink:href="#DejaVuSans-38" transform="translate(330.712891 0)"/>
      <use xlink:href="#DejaVuSans-38" transform="translate(394.335938 0)"/>
      <use xlink:href="#DejaVuSans-2d" transform="translate(457.958984 0)"/>
      <use xlink:href="#DejaVuSans-31" transform="translate(494.042969 0)"/>
      <use xlink:href="#DejaVuSans-20" transform="translate(557.666016 0)"/>
      <use xlink:href="#DejaVuSans-72" transform="translate(589.453125 0)"/>
      <use xlink:href="#DejaVuSans-65" transform="translate(628.316406 0)"/>
      <use xlink:href="#DejaVuSans-66" transform="translate(689.839844 0)"/>
      <use xlink:href="#DejaVuSans-65" transform="translate(725.044922 0)"/>
      <use xlink:href="#DejaVuSans-72" transform="translate(786.568359 0)"/>
      <use xlink:href="#DejaVuSans-65" transform="translate(825.431641 0)"/>
      <use xlink:href="#DejaVuSans-6e" transform="translate(886.955078 0)"/>
      <use xlink:href="#DejaVuSans-63" transform="translate(950.333984 0)"/>
      <use xlink:href="#DejaVuSans-65" transform="translate(1005.314453 0)"/>
      <use xlink:href="#DejaVuSans-20" transform="translate(1066.837891 0)"/>
      <use xlink:href="#DejaVuSans-70" transform="translate(1098.625 0)"/>
      <use xlink:href="#DejaVuSans-61" transform="translate(1162.101562 0)"/>
      <use xlink:href="#DejaVuSans-74" transform="translate(1223.380859 0)"/>
      <use xlink:href="#DejaVuSans-68" transform="translate(1262.589844 0)"/>
     </g>
    </g>
    <g id="line2d_40">
     <path d="M 519.760313 43.019687 
L 527.760313 43.019687 
L 535.760313 43.019687 
" style="fill: none; stroke: #2b6cb0; stroke-width: 1.8; stroke-linecap: square"/>
    </g>
    <g id="text_19">
     <!-- OpenModelica TrackTricycle -->
     <g transform="translate(542.160313 45.819687) scale(0.08 -0.08)">
      <defs>
       <path id="DejaVuSans-4d" d="M 628 4666 
L 1569 4666 
L 2759 1491 
L 3956 4666 
L 4897 4666 
L 4897 0 
L 4281 0 
L 4281 4097 
L 3078 897 
L 2444 897 
L 1241 4097 
L 1241 0 
L 628 0 
L 628 4666 
z
" transform="scale(0.015625)"/>
       <path id="DejaVuSans-54" d="M -19 4666 
L 3928 4666 
L 3928 4134 
L 2272 4134 
L 2272 0 
L 1638 0 
L 1638 4134 
L -19 4134 
L -19 4666 
z
" transform="scale(0.015625)"/>
      </defs>
      <use xlink:href="#DejaVuSans-4f"/>
      <use xlink:href="#DejaVuSans-70" transform="translate(78.710938 0)"/>
      <use xlink:href="#DejaVuSans-65" transform="translate(142.1875 0)"/>
      <use xlink:href="#DejaVuSans-6e" transform="translate(203.710938 0)"/>
      <use xlink:href="#DejaVuSans-4d" transform="translate(267.089844 0)"/>
      <use xlink:href="#DejaVuSans-6f" transform="translate(353.369141 0)"/>
      <use xlink:href="#DejaVuSans-64" transform="translate(414.550781 0)"/>
      <use xlink:href="#DejaVuSans-65" transform="translate(478.027344 0)"/>
      <use xlink:href="#DejaVuSans-6c" transform="translate(539.550781 0)"/>
      <use xlink:href="#DejaVuSans-69" transform="translate(567.333984 0)"/>
      <use xlink:href="#DejaVuSans-63" transform="translate(595.117188 0)"/>
      <use xlink:href="#DejaVuSans-61" transform="translate(650.097656 0)"/>
      <use xlink:href="#DejaVuSans-20" transform="translate(711.376953 0)"/>
      <use xlink:href="#DejaVuSans-54" transform="translate(743.164062 0)"/>
      <use xlink:href="#DejaVuSans-72" transform="translate(789.498047 0)"/>
      <use xlink:href="#DejaVuSans-61" transform="translate(830.611328 0)"/>
      <use xlink:href="#DejaVuSans-63" transform="translate(891.890625 0)"/>
      <use xlink:href="#DejaVuSans-6b" transform="translate(946.871094 0)"/>
      <use xlink:href="#DejaVuSans-54" transform="translate(1004.78125 0)"/>
      <use xlink:href="#DejaVuSans-72" transform="translate(1051.115234 0)"/>
      <use xlink:href="#DejaVuSans-69" transform="translate(1092.228516 0)"/>
      <use xlink:href="#DejaVuSans-63" transform="translate(1120.011719 0)"/>
      <use xlink:href="#DejaVuSans-79" transform="translate(1174.992188 0)"/>
      <use xlink:href="#DejaVuSans-63" transform="translate(1234.171875 0)"/>
      <use xlink:href="#DejaVuSans-6c" transform="translate(1289.152344 0)"/>
      <use xlink:href="#DejaVuSans-65" transform="translate(1316.935547 0)"/>
     </g>
    </g>
    <g id="line2d_41">
     <path d="M 519.760313 54.762187 
L 527.760313 54.762187 
L 535.760313 54.762187 
" style="fill: none; stroke-dasharray: 4.44,1.92; stroke-dashoffset: 0; stroke: #dd6b20; stroke-width: 1.2"/>
    </g>
    <g id="text_20">
     <!-- JavaScript port -->
     <g transform="translate(542.160313 57.562187) scale(0.08 -0.08)">
      <defs>
       <path id="DejaVuSans-4a" d="M 628 4666 
L 1259 4666 
L 1259 325 
Q 1259 -519 939 -900 
Q 619 -1281 -91 -1281 
L -331 -1281 
L -331 -750 
L -134 -750 
Q 284 -750 456 -515 
Q 628 -281 628 325 
L 628 4666 
z
" transform="scale(0.015625)"/>
       <path id="DejaVuSans-76" d="M 191 3500 
L 800 3500 
L 1894 563 
L 2988 3500 
L 3597 3500 
L 2284 0 
L 1503 0 
L 191 3500 
z
" transform="scale(0.015625)"/>
      </defs>
      <use xlink:href="#DejaVuSans-4a"/>
      <use xlink:href="#DejaVuSans-61" transform="translate(29.492188 0)"/>
      <use xlink:href="#DejaVuSans-76" transform="translate(90.771484 0)"/>
      <use xlink:href="#DejaVuSans-61" transform="translate(149.951172 0)"/>
      <use xlink:href="#DejaVuSans-53" transform="translate(211.230469 0)"/>
      <use xlink:href="#DejaVuSans-63" transform="translate(274.707031 0)"/>
      <use xlink:href="#DejaVuSans-72" transform="translate(329.6875 0)"/>
      <use xlink:href="#DejaVuSans-69" transform="translate(370.800781 0)"/>
      <use xlink:href="#DejaVuSans-70" transform="translate(398.583984 0)"/>
      <use xlink:href="#DejaVuSans-74" transform="translate(462.060547 0)"/>
      <use xlink:href="#DejaVuSans-20" transform="translate(501.269531 0)"/>
      <use xlink:href="#DejaVuSans-70" transform="translate(533.056641 0)"/>
      <use xlink:href="#DejaVuSans-6f" transform="translate(596.533203 0)"/>
      <use xlink:href="#DejaVuSans-72" transform="translate(657.714844 0)"/>
      <use xlink:href="#DejaVuSans-74" transform="translate(698.828125 0)"/>
     </g>
    </g>
   </g>
  </g>
 </g>
 <defs>
  <clipPath id="p1f51ca8889">
   <rect x="42.620313" y="20.798437" width="617.02" height="142.12"/>
  </clipPath>
 </defs>
</svg>
