<?xml version="1.0" encoding="utf-8" standalone="no"?>
<!DOCTYPE svg PUBLIC "-//W3C//DTD SVG 1.1//EN"
  "http://www.w3.org/Graphics/SVG/1.1/DTD/svg11.dtd">
<svg xmlns:xlink="http://www.w3.org/1999/xlink" width="686.00125pt" height="125.009269pt" viewBox="0 0 686.00125 125.009269" xmlns="http://www.w3.org/2000/svg" version="1.1">
 <metadata>
  <rdf:RDF xmlns:dc="http://purl.org/dc/elements/1.1/" xmlns:cc="http://creativecommons.org/ns#" xmlns:rdf="http://www.w3.org/1999/02/22-rdf-syntax-ns#">
   <cc:Work>
    <dc:type rdf:resource="http://purl.org/dc/dcmitype/StillImage"/>
    <dc:date>2026-07-13T17:21:06.801274</dc:date>
    <dc:format>image/svg+xml</dc:format>
    <dc:creator>
     <cc:Agent>
      <dc:title>Matplotlib v3.10.8, https://matplotlib.org/</dc:title>
     </cc:Agent>
    </dc:creator>
   </cc:Work>
  </rdf:RDF>
 </metadata>
 <defs>
  <style type="text/css">*{stroke-linejoin: round; stroke-linecap: butt}</style>
 </defs>
 <g id="figure_1">
  <g id="patch_1">
   <path d="M 0 125.009269 
L 686.00125 125.009269 
L 686.00125 0 
L 0 0 
z
" style="fill: #ffffff"/>
  </g>
  <g id="axes_1">
   <g id="patch_2">
    <path d="M 43.78125 87.453019 
L 678.80125 87.453019 
L 678.80125 20.798437 
L 43.78125 20.798437 
z
" style="fill: #ffffff"/>
   </g>
   <g id="FillBetweenPolyCollection_1">
    <defs>
     <path id="mb228a3ea76" d="M 79.810754 -67.415701 
L 79.810754 -47.329253 
L 147.366073 -47.329253 
L 147.366073 -67.415701 
L 147.366073 -67.415701 
L 79.810754 -67.415701 
z
"/>
    </defs>
    <g clip-path="url(#pf410f1a21c)">
     <use xlink:href="#mb228a3ea76" x="0" y="125.009269" style="fill: #1f77b4; fill-opacity: 0.1"/>
    </g>
   </g>
   <g id="FillBetweenPolyCollection_2">
    <defs>
     <path id="m0f9cfd6f13" d="M 282.476711 -99.75218 
L 282.476711 -78.044405 
L 395.06891 -78.044405 
L 395.06891 -99.75218 
L 395.06891 -99.75218 
L 282.476711 -99.75218 
z
"/>
    </defs>
    <g clip-path="url(#pf410f1a21c)">
     <use xlink:href="#m0f9cfd6f13" x="0" y="125.009269" style="fill: #1f77b4; fill-opacity: 0.1"/>
    </g>
   </g>
   <g id="FillBetweenPolyCollection_3">
    <defs>
     <path id="m69487b4590" d="M 507.661108 -69.037029 
L 507.661108 -45.707925 
L 642.771746 -45.707925 
L 642.771746 -69.037029 
L 642.771746 -69.037029 
L 507.661108 -69.037029 
z
"/>
    </defs>
    <g clip-path="url(#pf410f1a21c)">
     <use xlink:href="#m69487b4590" x="0" y="125.009269" style="fill: #1f77b4; fill-opacity: 0.1"/>
    </g>
   </g>
   <g id="matplotlib.axis_1">
    <g id="xtick_1">
     <g id="line2d_1">
      <path d="M 79.810754 87.453019 
L 79.810754 20.798437 
" clip-path="url(#pf410f1a21c)" style="fill: none; stroke: #b0b0b0; stroke-opacity: 0.3; stroke-width: 0.8; stroke-linecap: square"/>
     </g>
     <g id="line2d_2">
      <defs>
       <path id="m710fc5e40d" d="M 0 0 
L 0 3.5 
" style="stroke: #000000; stroke-width: 0.8"/>
      </defs>
      <g>
       <use xlink:href="#m710fc5e40d" x="79.810754" y="87.453019" style="stroke: #000000; stroke-width: 0.8"/>
      </g>
     </g>
     <g id="text_1">
      <!-- 40 -->
      <g transform="translate(73.448254 102.051457) scale(0.1 -0.1)">
       <defs>
        <path id="DejaVuSans-34" d="M 2419 4116 
L 825 1625 
L 2419 1625 
L 2419 4116 
z
M 2253 4666 
L 3047 4666 
L 3047 1625 
L 3713 1625 
L 3713 1100 
L 3047 1100 
L 3047 0 
L 2419 0 
L 2419 1100 
L 313 1100 
L 313 1709 
L 2253 4666 
z
" transform="scale(0.015625)"/>
        <path id="DejaVuSans-30" d="M 2034 4250 
Q 1547 4250 1301 3770 
Q 1056 3291 1056 2328 
Q 1056 1369 1301 889 
Q 1547 409 2034 409 
Q 2525 409 2770 889 
Q 3016 1369 3016 2328 
Q 3016 3291 2770 3770 
Q 2525 4250 2034 4250 
z
M 2034 4750 
Q 2819 4750 3233 4129 
Q 3647 3509 3647 2328 
Q 3647 1150 3233 529 
Q 2819 -91 2034 -91 
Q 1250 -91 836 529 
Q 422 1150 422 2328 
Q 422 3509 836 4129 
Q 1250 4750 2034 4750 
z
" transform="scale(0.015625)"/>
       </defs>
       <use xlink:href="#DejaVuSans-34"/>
       <use xlink:href="#DejaVuSans-30" transform="translate(63.623047 0)"/>
      </g>
     </g>
    </g>
    <g id="xtick_2">
     <g id="line2d_3">
      <path d="M 169.884512 87.453019 
L 169.884512 20.798437 
" clip-path="url(#pf410f1a21c)" style="fill: none; stroke: #b0b0b0; stroke-opacity: 0.3; stroke-width: 0.8; stroke-linecap: square"/>
     </g>
     <g id="line2d_4">
      <g>
       <use xlink:href="#m710fc5e40d" x="169.884512" y="87.453019" style="stroke: #000000; stroke-width: 0.8"/>
      </g>
     </g>
     <g id="text_2">
      <!-- 60 -->
      <g transform="translate(163.522012 102.051457) scale(0.1 -0.1)">
       <defs>
        <path id="DejaVuSans-36" d="M 2113 2584 
Q 1688 2584 1439 2293 
Q 1191 2003 1191 1497 
Q 1191 994 1439 701 
Q 1688 409 2113 409 
Q 2538 409 2786 701 
Q 3034 994 3034 1497 
Q 3034 2003 2786 2293 
Q 2538 2584 2113 2584 
z
M 3366 4563 
L 3366 3988 
Q 3128 4100 2886 4159 
Q 2644 4219 2406 4219 
Q 1781 4219 1451 3797 
Q 1122 3375 1075 2522 
Q 1259 2794 1537 2939 
Q 1816 3084 2150 3084 
Q 2853 3084 3261 2657 
Q 3669 2231 3669 1497 
Q 3669 778 3244 343 
Q 2819 -91 2113 -91 
Q 1303 -91 875 529 
Q 447 1150 447 2328 
Q 447 3434 972 4092 
Q 1497 4750 2381 4750 
Q 2619 4750 2861 4703 
Q 3103 4656 3366 4563 
z
" transform="scale(0.015625)"/>
       </defs>
       <use xlink:href="#DejaVuSans-36"/>
       <use xlink:href="#DejaVuSans-30" transform="translate(63.623047 0)"/>
      </g>
     </g>
    </g>
    <g id="xtick_3">
     <g id="line2d_5">
      <path d="M 259.958271 87.453019 
L 259.958271 20.798437 
" clip-path="url(#pf410f1a21c)" style="fill: none; stroke: #b0b0b0; stroke-opacity: 0.3; stroke-width: 0.8; stroke-linecap: square"/>
     </g>
     <g id="line2d_6">
      <g>
       <use xlink:href="#m710fc5e40d" x="259.958271" y="87.453019" style="stroke: #000000; stroke-width: 0.8"/>
      </g>
     </g>
     <g id="text_3">
      <!-- 80 -->
      <g transform="translate(253.595771 102.051457) scale(0.1 -0.1)">
       <defs>
        <path id="DejaVuSans-38" d="M 2034 2216 
Q 1584 2216 1326 1975 
Q 1069 1734 1069 1313 
Q 1069 891 1326 650 
Q 1584 409 2034 409 
Q 2484 409 2743 651 
Q 3003 894 3003 1313 
Q 3003 1734 2745 1975 
Q 2488 2216 2034 2216 
z
M 1403 2484 
Q 997 2584 770 2862 
Q 544 3141 544 3541 
Q 544 4100 942 4425 
Q 1341 4750 2034 4750 
Q 2731 4750 3128 4425 
Q 3525 4100 3525 3541 
Q 3525 3141 3298 2862 
Q 3072 2584 2669 2484 
Q 3125 2378 3379 2068 
Q 3634 1759 3634 1313 
Q 3634 634 3220 271 
Q 2806 -91 2034 -91 
Q 1263 -91 848 271 
Q 434 634 434 1313 
Q 434 1759 690 2068 
Q 947 2378 1403 2484 
z
M 1172 3481 
Q 1172 3119 1398 2916 
Q 1625 2713 2034 2713 
Q 2441 2713 2670 2916 
Q 2900 3119 2900 3481 
Q 2900 3844 2670 4047 
Q 2441 4250 2034 4250 
Q 1625 4250 1398 4047 
Q 1172 3844 1172 3481 
z
" transform="scale(0.015625)"/>
       </defs>
       <use xlink:href="#DejaVuSans-38"/>
       <use xlink:href="#DejaVuSans-30" transform="translate(63.623047 0)"/>
      </g>
     </g>
    </g>
    <g id="xtick_4">
     <g id="line2d_7">
      <path d="M 350.03203 87.453019 
L 350.03203 20.798437 
" clip-path="url(#pf410f1a21c)" style="fill: none; stroke: #b0b0b0; stroke-opacity: 0.3; stroke-width: 0.8; stroke-linecap: square"/>
     </g>
     <g id="line2d_8">
      <g>
       <use xlink:href="#m710fc5e40d" x="350.03203" y="87.453019" style="stroke: #000000; stroke-width: 0.8"/>
      </g>
     </g>
     <g id="text_4">
      <!-- 100 -->
      <g transform="translate(340.48828 102.051457) scale(0.1 -0.1)">
       <defs>
        <path id="DejaVuSans-31" d="M 794 531 
L 1825 531 
L 1825 4091 
L 703 3866 
L 703 4441 
L 1819 4666 
L 2450 4666 
L 2450 531 
L 3481 531 
L 3481 0 
L 794 0 
L 794 531 
z
" transform="scale(0.015625)"/>
       </defs>
       <use xlink:href="#DejaVuSans-31"/>
       <use xlink:href="#DejaVuSans-30" transform="translate(63.623047 0)"/>
       <use xlink:href="#DejaVuSans-30" transform="translate(127.246094 0)"/>
      </g>
     </g>
    </g>
    <g id="xtick_5">
     <g id="line2d_9">
      <path d="M 440.105789 87.453019 
L 440.105789 20.798437 
" clip-path="url(#pf410f1a21c)" style="fill: none; stroke: #b0b0b0; stroke-opacity: 0.3; stroke-width: 0.8; stroke-linecap: square"/>
     </g>
     <g id="line2d_10">
      <g>
       <use xlink:href="#m710fc5e40d" x="440.105789" y="87.453019" style="stroke: #000000; stroke-width: 0.8"/>
      </g>
     </g>
     <g id="text_5">
      <!-- 120 -->
      <g transform="translate(430.562039 102.051457) scale(0.1 -0.1)">
       <defs>
        <path id="DejaVuSans-32" d="M 1228 531 
L 3431 531 
L 3431 0 
L 469 0 
L 469 531 
Q 828 903 1448 1529 
Q 2069 2156 2228 2338 
Q 2531 2678 2651 2914 
Q 2772 3150 2772 3378 
Q 2772 3750 2511 3984 
Q 2250 4219 1831 4219 
Q 1534 4219 1204 4116 
Q 875 4013 500 3803 
L 500 4441 
Q 881 4594 1212 4672 
Q 1544 4750 1819 4750 
Q 2544 4750 2975 4387 
Q 3406 4025 3406 3419 
Q 3406 3131 3298 2873 
Q 3191 2616 2906 2266 
Q 2828 2175 2409 1742 
Q 1991 1309 1228 531 
z
" transform="scale(0.015625)"/>
       </defs>
       <use xlink:href="#DejaVuSans-31"/>
       <use xlink:href="#DejaVuSans-32" transform="translate(63.623047 0)"/>
       <use xlink:href="#DejaVuSans-30" transform="translate(127.246094 0)"/>
      </g>
     </g>
    </g>
    <g id="xtick_6">
     <g id="line2d_11">
      <path d="M 530.179548 87.453019 
L 530.179548 20.798437 
" clip-path="url(#pf410f1a21c)" style="fill: none; stroke: #b0b0b0; stroke-opacity: 0.3; stroke-width: 0.8; stroke-linecap: square"/>
     </g>
     <g id="line2d_12">
      <g>
       <use xlink:href="#m710fc5e40d" x="530.179548" y="87.453019" style="stroke: #000000; stroke-width: 0.8"/>
      </g>
     </g>
     <g id="text_6">
      <!-- 140 -->
      <g transform="translate(520.635798 102.051457) scale(0.1 -0.1)">
       <use xlink:href="#DejaVuSans-31"/>
       <use xlink:href="#DejaVuSans-34" transform="translate(63.623047 0)"/>
       <use xlink:href="#DejaVuSans-30" transform="translate(127.246094 0)"/>
      </g>
     </g>
    </g>
    <g id="xtick_7">
     <g id="line2d_13">
      <path d="M 620.253307 87.453019 
L 620.253307 20.798437 
" clip-path="url(#pf410f1a21c)" style="fill: none; stroke: #b0b0b0; stroke-opacity: 0.3; stroke-width: 0.8; stroke-linecap: square"/>
     </g>
     <g id="line2d_14">
      <g>
       <use xlink:href="#m710fc5e40d" x="620.253307" y="87.453019" style="stroke: #000000; stroke-width: 0.8"/>
      </g>
     </g>
     <g id="text_7">
      <!-- 160 -->
      <g transform="translate(610.709557 102.051457) scale(0.1 -0.1)">
       <use xlink:href="#DejaVuSans-31"/>
       <use xlink:href="#DejaVuSans-36" transform="translate(63.623047 0)"/>
       <use xlink:href="#DejaVuSans-30" transform="translate(127.246094 0)"/>
      </g>
     </g>
    </g>
    <g id="text_8">
     <!-- distance [m]  (axis compressed 2:1) -->
     <g transform="translate(271.088906 115.729582) scale(0.1 -0.1)">
      <defs>
       <path id="DejaVuSans-64" d="M 2906 2969 
L 2906 4863 
L 3481 4863 
L 3481 0 
L 2906 0 
L 2906 525 
Q 2725 213 2448 61 
Q 2172 -91 1784 -91 
Q 1150 -91 751 415 
Q 353 922 353 1747 
Q 353 2572 751 3078 
Q 1150 3584 1784 3584 
Q 2172 3584 2448 3432 
Q 2725 3281 2906 2969 
z
M 947 1747 
Q 947 1113 1208 752 
Q 1469 391 1925 391 
Q 2381 391 2643 752 
Q 2906 1113 2906 1747 
Q 2906 2381 2643 2742 
Q 2381 3103 1925 3103 
Q 1469 3103 1208 2742 
Q 947 2381 947 1747 
z
" transform="scale(0.015625)"/>
       <path id="DejaVuSans-69" d="M 603 3500 
L 1178 3500 
L 1178 0 
L 603 0 
L 603 3500 
z
M 603 4863 
L 1178 4863 
L 1178 4134 
L 603 4134 
L 603 4863 
z
" transform="scale(0.015625)"/>
       <path id="DejaVuSans-73" d="M 2834 3397 
L 2834 2853 
Q 2591 2978 2328 3040 
Q 2066 3103 1784 3103 
Q 1356 3103 1142 2972 
Q 928 2841 928 2578 
Q 928 2378 1081 2264 
Q 1234 2150 1697 2047 
L 1894 2003 
Q 2506 1872 2764 1633 
Q 3022 1394 3022 966 
Q 3022 478 2636 193 
Q 2250 -91 1575 -91 
Q 1294 -91 989 -36 
Q 684 19 347 128 
L 347 722 
Q 666 556 975 473 
Q 1284 391 1588 391 
Q 1994 391 2212 530 
Q 2431 669 2431 922 
Q 2431 1156 2273 1281 
Q 2116 1406 1581 1522 
L 1381 1569 
Q 847 1681 609 1914 
Q 372 2147 372 2553 
Q 372 3047 722 3315 
Q 1072 3584 1716 3584 
Q 2034 3584 2315 3537 
Q 2597 3491 2834 3397 
z
" transform="scale(0.015625)"/>
       <path id="DejaVuSans-74" d="M 1172 4494 
L 1172 3500 
L 2356 3500 
L 2356 3053 
L 1172 3053 
L 1172 1153 
Q 1172 725 1289 603 
Q 1406 481 1766 481 
L 2356 481 
L 2356 0 
L 1766 0 
Q 1100 0 847 248 
Q 594 497 594 1153 
L 594 3053 
L 172 3053 
L 172 3500 
L 594 3500 
L 594 4494 
L 1172 4494 
z
" transform="scale(0.015625)"/>
       <path id="DejaVuSans-61" d="M 2194 1759 
Q 1497 1759 1228 1600 
Q 959 1441 959 1056 
Q 959 750 1161 570 
Q 1363 391 1709 391 
Q 2188 391 2477 730 
Q 2766 1069 2766 1631 
L 2766 1759 
L 2194 1759 
z
M 3341 1997 
L 3341 0 
L 2766 0 
L 2766 531 
Q 2569 213 2275 61 
Q 1981 -91 1556 -91 
Q 1019 -91 701 211 
Q 384 513 384 1019 
Q 384 1609 779 1909 
Q 1175 2209 1959 2209 
L 2766 2209 
L 2766 2266 
Q 2766 2663 2505 2880 
Q 2244 3097 1772 3097 
Q 1472 3097 1187 3025 
Q 903 2953 641 2809 
L 641 3341 
Q 956 3463 1253 3523 
Q 1550 3584 1831 3584 
Q 2591 3584 2966 3190 
Q 3341 2797 3341 1997 
z
" transform="scale(0.015625)"/>
       <path id="DejaVuSans-6e" d="M 3513 2113 
L 3513 0 
L 2938 0 
L 2938 2094 
Q 2938 2591 2744 2837 
Q 2550 3084 2163 3084 
Q 1697 3084 1428 2787 
Q 1159 2491 1159 1978 
L 1159 0 
L 581 0 
L 581 3500 
L 1159 3500 
L 1159 2956 
Q 1366 3272 1645 3428 
Q 1925 3584 2291 3584 
Q 2894 3584 3203 3211 
Q 3513 2838 3513 2113 
z
" transform="scale(0.015625)"/>
       <path id="DejaVuSans-63" d="M 3122 3366 
L 3122 2828 
Q 2878 2963 2633 3030 
Q 2388 3097 2138 3097 
Q 1578 3097 1268 2742 
Q 959 2388 959 1747 
Q 959 1106 1268 751 
Q 1578 397 2138 397 
Q 2388 397 2633 464 
Q 2878 531 3122 666 
L 3122 134 
Q 2881 22 2623 -34 
Q 2366 -91 2075 -91 
Q 1284 -91 818 406 
Q 353 903 353 1747 
Q 353 2603 823 3093 
Q 1294 3584 2113 3584 
Q 2378 3584 2631 3529 
Q 2884 3475 3122 3366 
z
" transform="scale(0.015625)"/>
       <path id="DejaVuSans-65" d="M 3597 1894 
L 3597 1613 
L 953 1613 
Q 991 1019 1311 708 
Q 1631 397 2203 397 
Q 2534 397 2845 478 
Q 3156 559 3463 722 
L 3463 178 
Q 3153 47 2828 -22 
Q 2503 -91 2169 -91 
Q 1331 -91 842 396 
Q 353 884 353 1716 
Q 353 2575 817 3079 
Q 1281 3584 2069 3584 
Q 2775 3584 3186 3129 
Q 3597 2675 3597 1894 
z
M 3022 2063 
Q 3016 2534 2758 2815 
Q 2500 3097 2075 3097 
Q 1594 3097 1305 2825 
Q 1016 2553 972 2059 
L 3022 2063 
z
" transform="scale(0.015625)"/>
       <path id="DejaVuSans-20" transform="scale(0.015625)"/>
       <path id="DejaVuSans-5b" d="M 550 4863 
L 1875 4863 
L 1875 4416 
L 1125 4416 
L 1125 -397 
L 1875 -397 
L 1875 -844 
L 550 -844 
L 550 4863 
z
" transform="scale(0.015625)"/>
       <path id="DejaVuSans-6d" d="M 3328 2828 
Q 3544 3216 3844 3400 
Q 4144 3584 4550 3584 
Q 5097 3584 5394 3201 
Q 5691 2819 5691 2113 
L 5691 0 
L 5113 0 
L 5113 2094 
Q 5113 2597 4934 2840 
Q 4756 3084 4391 3084 
Q 3944 3084 3684 2787 
Q 3425 2491 3425 1978 
L 3425 0 
L 2847 0 
L 2847 2094 
Q 2847 2600 2669 2842 
Q 2491 3084 2119 3084 
Q 1678 3084 1418 2786 
Q 1159 2488 1159 1978 
L 1159 0 
L 581 0 
L 581 3500 
L 1159 3500 
L 1159 2956 
Q 1356 3278 1631 3431 
Q 1906 3584 2284 3584 
Q 2666 3584 2933 3390 
Q 3200 3197 3328 2828 
z
" transform="scale(0.015625)"/>
       <path id="DejaVuSans-5d" d="M 1947 4863 
L 1947 -844 
L 622 -844 
L 622 -397 
L 1369 -397 
L 1369 4416 
L 622 4416 
L 622 4863 
L 1947 4863 
z
" transform="scale(0.015625)"/>
       <path id="DejaVuSans-28" d="M 1984 4856 
Q 1566 4138 1362 3434 
Q 1159 2731 1159 2009 
Q 1159 1288 1364 580 
Q 1569 -128 1984 -844 
L 1484 -844 
Q 1016 -109 783 600 
Q 550 1309 550 2009 
Q 550 2706 781 3412 
Q 1013 4119 1484 4856 
L 1984 4856 
z
" transform="scale(0.015625)"/>
       <path id="DejaVuSans-78" d="M 3513 3500 
L 2247 1797 
L 3578 0 
L 2900 0 
L 1881 1375 
L 863 0 
L 184 0 
L 1544 1831 
L 300 3500 
L 978 3500 
L 1906 2253 
L 2834 3500 
L 3513 3500 
z
" transform="scale(0.015625)"/>
       <path id="DejaVuSans-6f" d="M 1959 3097 
Q 1497 3097 1228 2736 
Q 959 2375 959 1747 
Q 959 1119 1226 758 
Q 1494 397 1959 397 
Q 2419 397 2687 759 
Q 2956 1122 2956 1747 
Q 2956 2369 2687 2733 
Q 2419 3097 1959 3097 
z
M 1959 3584 
Q 2709 3584 3137 3096 
Q 3566 2609 3566 1747 
Q 3566 888 3137 398 
Q 2709 -91 1959 -91 
Q 1206 -91 779 398 
Q 353 888 353 1747 
Q 353 2609 779 3096 
Q 1206 3584 1959 3584 
z
" transform="scale(0.015625)"/>
       <path id="DejaVuSans-70" d="M 1159 525 
L 1159 -1331 
L 581 -1331 
L 581 3500 
L 1159 3500 
L 1159 2969 
Q 1341 3281 1617 3432 
Q 1894 3584 2278 3584 
Q 2916 3584 3314 3078 
Q 3713 2572 3713 1747 
Q 3713 922 3314 415 
Q 2916 -91 2278 -91 
Q 1894 -91 1617 61 
Q 1341 213 1159 525 
z
M 3116 1747 
Q 3116 2381 2855 2742 
Q 2594 3103 2138 3103 
Q 1681 3103 1420 2742 
Q 1159 2381 1159 1747 
Q 1159 1113 1420 752 
Q 1681 391 2138 391 
Q 2594 391 2855 752 
Q 3116 1113 3116 1747 
z
" transform="scale(0.015625)"/>
       <path id="DejaVuSans-72" d="M 2631 2963 
Q 2534 3019 2420 3045 
Q 2306 3072 2169 3072 
Q 1681 3072 1420 2755 
Q 1159 2438 1159 1844 
L 1159 0 
L 581 0 
L 581 3500 
L 1159 3500 
L 1159 2956 
Q 1341 3275 1631 3429 
Q 1922 3584 2338 3584 
Q 2397 3584 2469 3576 
Q 2541 3569 2628 3553 
L 2631 2963 
z
" transform="scale(0.015625)"/>
       <path id="DejaVuSans-3a" d="M 750 794 
L 1409 794 
L 1409 0 
L 750 0 
L 750 794 
z
M 750 3309 
L 1409 3309 
L 1409 2516 
L 750 2516 
L 750 3309 
z
" transform="scale(0.015625)"/>
       <path id="DejaVuSans-29" d="M 513 4856 
L 1013 4856 
Q 1481 4119 1714 3412 
Q 1947 2706 1947 2009 
Q 1947 1309 1714 600 
Q 1481 -109 1013 -844 
L 513 -844 
Q 928 -128 1133 580 
Q 1338 1288 1338 2009 
Q 1338 2731 1133 3434 
Q 928 4138 513 4856 
z
" transform="scale(0.015625)"/>
      </defs>
      <use xlink:href="#DejaVuSans-64"/>
      <use xlink:href="#DejaVuSans-69" transform="translate(63.476562 0)"/>
      <use xlink:href="#DejaVuSans-73" transform="translate(91.259766 0)"/>
      <use xlink:href="#DejaVuSans-74" transform="translate(143.359375 0)"/>
      <use xlink:href="#DejaVuSans-61" transform="translate(182.568359 0)"/>
      <use xlink:href="#DejaVuSans-6e" transform="translate(243.847656 0)"/>
      <use xlink:href="#DejaVuSans-63" transform="translate(307.226562 0)"/>
      <use xlink:href="#DejaVuSans-65" transform="translate(362.207031 0)"/>
      <use xlink:href="#DejaVuSans-20" transform="translate(423.730469 0)"/>
      <use xlink:href="#DejaVuSans-5b" transform="translate(455.517578 0)"/>
      <use xlink:href="#DejaVuSans-6d" transform="translate(494.53125 0)"/>
      <use xlink:href="#DejaVuSans-5d" transform="translate(591.943359 0)"/>
      <use xlink:href="#DejaVuSans-20" transform="translate(630.957031 0)"/>
      <use xlink:href="#DejaVuSans-20" transform="translate(662.744141 0)"/>
      <use xlink:href="#DejaVuSans-28" transform="translate(694.53125 0)"/>
      <use xlink:href="#DejaVuSans-61" transform="translate(733.544922 0)"/>
      <use xlink:href="#DejaVuSans-78" transform="translate(794.824219 0)"/>
      <use xlink:href="#DejaVuSans-69" transform="translate(854.003906 0)"/>
      <use xlink:href="#DejaVuSans-73" transform="translate(881.787109 0)"/>
      <use xlink:href="#DejaVuSans-20" transform="translate(933.886719 0)"/>
      <use xlink:href="#DejaVuSans-63" transform="translate(965.673828 0)"/>
      <use xlink:href="#DejaVuSans-6f" transform="translate(1020.654297 0)"/>
      <use xlink:href="#DejaVuSans-6d" transform="translate(1081.835938 0)"/>
      <use xlink:href="#DejaVuSans-70" transform="translate(1179.248047 0)"/>
      <use xlink:href="#DejaVuSans-72" transform="translate(1242.724609 0)"/>
      <use xlink:href="#DejaVuSans-65" transform="translate(1281.587891 0)"/>
      <use xlink:href="#DejaVuSans-73" transform="translate(1343.111328 0)"/>
      <use xlink:href="#DejaVuSans-73" transform="translate(1395.210938 0)"/>
      <use xlink:href="#DejaVuSans-65" transform="translate(1447.310547 0)"/>
      <use xlink:href="#DejaVuSans-64" transform="translate(1508.833984 0)"/>
      <use xlink:href="#DejaVuSans-20" transform="translate(1572.310547 0)"/>
      <use xlink:href="#DejaVuSans-32" transform="translate(1604.097656 0)"/>
      <use xlink:href="#DejaVuSans-3a" transform="translate(1667.720703 0)"/>
      <use xlink:href="#DejaVuSans-31" transform="translate(1701.412109 0)"/>
      <use xlink:href="#DejaVuSans-29" transform="translate(1765.035156 0)"/>
     </g>
    </g>
   </g>
   <g id="matplotlib.axis_2">
    <g id="ytick_1">
     <g id="line2d_15">
      <path d="M 43.78125 67.636792 
L 678.80125 67.636792 
" clip-path="url(#pf410f1a21c)" style="fill: none; stroke: #b0b0b0; stroke-opacity: 0.3; stroke-width: 0.8; stroke-linecap: square"/>
     </g>
     <g id="line2d_16">
      <defs>
       <path id="mbc457e1fee" d="M 0 0 
L -3.5 0 
" style="stroke: #000000; stroke-width: 0.8"/>
      </defs>
      <g>
       <use xlink:href="#mbc457e1fee" x="43.78125" y="67.636792" style="stroke: #000000; stroke-width: 0.8"/>
      </g>
     </g>
     <g id="text_9">
      <!-- 0.0 -->
      <g transform="translate(20.878125 71.436011) scale(0.1 -0.1)">
       <defs>
        <path id="DejaVuSans-2e" d="M 684 794 
L 1344 794 
L 1344 0 
L 684 0 
L 684 794 
z
" transform="scale(0.015625)"/>
       </defs>
       <use xlink:href="#DejaVuSans-30"/>
       <use xlink:href="#DejaVuSans-2e" transform="translate(63.623047 0)"/>
       <use xlink:href="#DejaVuSans-30" transform="translate(95.410156 0)"/>
      </g>
     </g>
    </g>
    <g id="ytick_2">
     <g id="line2d_17">
      <path d="M 43.78125 45.118352 
L 678.80125 45.118352 
" clip-path="url(#pf410f1a21c)" style="fill: none; stroke: #b0b0b0; stroke-opacity: 0.3; stroke-width: 0.8; stroke-linecap: square"/>
     </g>
     <g id="line2d_18">
      <g>
       <use xlink:href="#mbc457e1fee" x="43.78125" y="45.118352" style="stroke: #000000; stroke-width: 0.8"/>
      </g>
     </g>
     <g id="text_10">
      <!-- 2.5 -->
      <g transform="translate(20.878125 48.917571) scale(0.1 -0.1)">
       <defs>
        <path id="DejaVuSans-35" d="M 691 4666 
L 3169 4666 
L 3169 4134 
L 1269 4134 
L 1269 2991 
Q 1406 3038 1543 3061 
Q 1681 3084 1819 3084 
Q 2600 3084 3056 2656 
Q 3513 2228 3513 1497 
Q 3513 744 3044 326 
Q 2575 -91 1722 -91 
Q 1428 -91 1123 -41 
Q 819 9 494 109 
L 494 744 
Q 775 591 1075 516 
Q 1375 441 1709 441 
Q 2250 441 2565 725 
Q 2881 1009 2881 1497 
Q 2881 1984 2565 2268 
Q 2250 2553 1709 2553 
Q 1456 2553 1204 2497 
Q 953 2441 691 2322 
L 691 4666 
z
" transform="scale(0.015625)"/>
       </defs>
       <use xlink:href="#DejaVuSans-32"/>
       <use xlink:href="#DejaVuSans-2e" transform="translate(63.623047 0)"/>
       <use xlink:href="#DejaVuSans-35" transform="translate(95.410156 0)"/>
      </g>
     </g>
    </g>
    <g id="ytick_3">
     <g id="line2d_19">
      <path d="M 43.78125 22.599913 
L 678.80125 22.599913 
" clip-path="url(#pf410f1a21c)" style="fill: none; stroke: #b0b0b0; stroke-opacity: 0.3; stroke-width: 0.8; stroke-linecap: square"/>
     </g>
     <g id="line2d_20">
      <g>
       <use xlink:href="#mbc457e1fee" x="43.78125" y="22.599913" style="stroke: #000000; stroke-width: 0.8"/>
      </g>
     </g>
     <g id="text_11">
      <!-- 5.0 -->
      <g transform="translate(20.878125 26.399131) scale(0.1 -0.1)">
       <use xlink:href="#DejaVuSans-35"/>
       <use xlink:href="#DejaVuSans-2e" transform="translate(63.623047 0)"/>
       <use xlink:href="#DejaVuSans-30" transform="translate(95.410156 0)"/>
      </g>
     </g>
    </g>
    <g id="text_12">
     <!-- lateral position [m] -->
     <g transform="translate(14.798438 101.878853) rotate(-90) scale(0.1 -0.1)">
      <defs>
       <path id="DejaVuSans-6c" d="M 603 4863 
L 1178 4863 
L 1178 0 
L 603 0 
L 603 4863 
z
" transform="scale(0.015625)"/>
      </defs>
      <use xlink:href="#DejaVuSans-6c"/>
      <use xlink:href="#DejaVuSans-61" transform="translate(27.783203 0)"/>
      <use xlink:href="#DejaVuSans-74" transform="translate(89.0625 0)"/>
      <use xlink:href="#DejaVuSans-65" transform="translate(128.271484 0)"/>
      <use xlink:href="#DejaVuSans-72" transform="translate(189.794922 0)"/>
      <use xlink:href="#DejaVuSans-61" transform="translate(230.908203 0)"/>
      <use xlink:href="#DejaVuSans-6c" transform="translate(292.1875 0)"/>
      <use xlink:href="#DejaVuSans-20" transform="translate(319.970703 0)"/>
      <use xlink:href="#DejaVuSans-70" transform="translate(351.757812 0)"/>
      <use xlink:href="#DejaVuSans-6f" transform="translate(415.234375 0)"/>
      <use xlink:href="#DejaVuSans-73" transform="translate(476.416016 0)"/>
      <use xlink:href="#DejaVuSans-69" transform="translate(528.515625 0)"/>
      <use xlink:href="#DejaVuSans-74" transform="translate(556.298828 0)"/>
      <use xlink:href="#DejaVuSans-69" transform="translate(595.507812 0)"/>
      <use xlink:href="#DejaVuSans-6f" transform="translate(623.291016 0)"/>
      <use xlink:href="#DejaVuSans-6e" transform="translate(684.472656 0)"/>
      <use xlink:href="#DejaVuSans-20" transform="translate(747.851562 0)"/>
      <use xlink:href="#DejaVuSans-5b" transform="translate(779.638672 0)"/>
      <use xlink:href="#DejaVuSans-6d" transform="translate(818.652344 0)"/>
      <use xlink:href="#DejaVuSans-5d" transform="translate(916.064453 0)"/>
     </g>
    </g>
   </g>
   <g id="line2d_21">
    <path d="M 79.810754 77.680016 
L 147.366073 77.680016 
" clip-path="url(#pf410f1a21c)" style="fill: none; stroke: #000000; stroke-width: 1.6; stroke-linecap: square"/>
   </g>
   <g id="line2d_22">
    <path d="M 79.810754 57.593568 
L 147.366073 57.593568 
" clip-path="url(#pf410f1a21c)" style="fill: none; stroke: #000000; stroke-width: 1.6; stroke-linecap: square"/>
   </g>
   <g id="line2d_23">
    <path d="M 282.476711 46.964864 
L 395.06891 46.964864 
" clip-path="url(#pf410f1a21c)" style="fill: none; stroke: #000000; stroke-width: 1.6; stroke-linecap: square"/>
   </g>
   <g id="line2d_24">
    <path d="M 282.476711 25.257089 
L 395.06891 25.257089 
" clip-path="url(#pf410f1a21c)" style="fill: none; stroke: #000000; stroke-width: 1.6; stroke-linecap: square"/>
   </g>
   <g id="line2d_25">
    <path d="M 507.661108 79.301344 
L 642.771746 79.301344 
" clip-path="url(#pf410f1a21c)" style="fill: none; stroke: #000000; stroke-width: 1.6; stroke-linecap: square"/>
   </g>
   <g id="line2d_26">
    <path d="M 507.661108 55.97224 
L 642.771746 55.97224 
" clip-path="url(#pf410f1a21c)" style="fill: none; stroke: #000000; stroke-width: 1.6; stroke-linecap: square"/>
   </g>
   <g id="line2d_27">
    <path d="M -1 67.636792 
L 151.869761 67.550441 
L 156.373449 67.292335 
L 160.877137 66.8653 
L 165.380824 66.274017 
L 169.884512 65.524963 
L 176.640044 64.123964 
L 183.395576 62.421328 
L 190.151108 60.458979 
L 196.90664 58.285237 
L 205.914016 55.151177 
L 235.187988 44.717674 
L 241.94352 42.60868 
L 248.699051 40.727825 
L 255.454583 39.121424 
L 262.210115 37.829031 
L 266.713803 37.157942 
L 271.217491 36.648085 
L 275.721179 36.305044 
L 280.224867 36.132579 
L 293.735931 36.110977 
L 397.320754 36.142081 
L 401.824441 36.390181 
L 406.328129 36.882468 
L 410.831817 37.611179 
L 415.335505 38.564821 
L 419.839193 39.728355 
L 424.342881 41.083431 
L 431.098413 43.427696 
L 437.853945 46.071171 
L 446.861321 49.898268 
L 464.876073 57.676598 
L 471.631605 60.320073 
L 478.387137 62.664337 
L 482.890824 64.019414 
L 487.394512 65.182948 
L 491.8982 66.13659 
L 496.401888 66.8653 
L 500.905576 67.357588 
L 505.409264 67.605688 
L 514.41664 67.636792 
L 687.00125 67.636792 
L 687.00125 67.636792 
" clip-path="url(#pf410f1a21c)" style="fill: none; stroke-dasharray: 1,1.65; stroke-dashoffset: 0; stroke: #9aa0a6"/>
   </g>
   <g id="line2d_28">
    <path d="M -1 67.58113 
L 79.762199 67.644565 
L 104.780522 67.546533 
L 158.979036 66.93137 
L 167.291317 66.362663 
L 175.586752 65.397907 
L 183.864628 64.059586 
L 187.993971 63.231573 
L 192.115062 62.289552 
L 200.3299 60.071227 
L 208.511314 57.461625 
L 216.669723 54.573483 
L 228.885718 49.948917 
L 245.17734 43.699827 
L 253.34975 40.875806 
L 261.546389 38.398794 
L 265.65366 37.315568 
L 269.766188 36.349684 
L 273.883014 35.510891 
L 278.002891 34.807516 
L 282.12437 34.246293 
L 286.246517 33.826677 
L 294.494279 33.303562 
L 302.74533 33.063182 
L 310.999821 33.098826 
L 319.255923 33.369754 
L 348.190773 34.776188 
L 364.749991 35.666454 
L 381.328049 36.341697 
L 393.772614 36.649093 
L 402.071262 36.809787 
L 410.351409 37.261002 
L 414.478521 37.666181 
L 418.596745 38.210604 
L 422.707212 38.891593 
L 426.810539 39.697853 
L 430.906191 40.622242 
L 434.992837 41.66801 
L 439.068864 42.84249 
L 443.13293 44.148323 
L 447.18446 45.58121 
L 455.251176 48.792923 
L 463.279402 52.37553 
L 475.311079 57.922198 
L 483.358921 61.395359 
L 491.444388 64.49303 
L 495.501745 65.852779 
L 499.567426 67.062993 
L 503.639454 68.110646 
L 507.715434 68.986063 
L 511.79383 69.687906 
L 515.875488 70.238612 
L 524.04713 71.002547 
L 532.227666 71.388251 
L 540.414713 71.404414 
L 548.605459 71.122643 
L 573.232146 69.761286 
L 589.697463 68.854077 
L 606.197153 68.204681 
L 622.725645 67.786602 
L 643.419342 67.543375 
L 672.439304 67.490441 
L 687.00125 67.51664 
L 687.00125 67.51664 
" clip-path="url(#pf410f1a21c)" style="fill: none; stroke: #2b6cb0; stroke-width: 1.8; stroke-linecap: square"/>
   </g>
   <g id="line2d_29">
    <path d="M -1 67.571861 
L 75.587827 67.645817 
L 104.775516 67.547245 
L 158.973612 66.927133 
L 167.286075 66.355772 
L 175.581856 65.390046 
L 183.860042 64.050599 
L 187.989517 63.221922 
L 192.110744 62.279389 
L 200.325931 60.060788 
L 208.507845 57.45212 
L 216.666815 54.565621 
L 228.883566 49.942861 
L 245.176248 43.697614 
L 253.349136 40.875262 
L 261.546205 38.399644 
L 265.653671 37.317073 
L 269.76638 36.351817 
L 273.883377 35.513612 
L 278.003414 34.810773 
L 282.125062 34.249908 
L 286.247423 33.830141 
L 294.495611 33.306743 
L 302.747084 33.066315 
L 311.001979 33.101971 
L 319.25848 33.37251 
L 348.194551 34.777911 
L 364.754402 35.667225 
L 381.333013 36.34195 
L 393.777942 36.648905 
L 402.076714 36.813937 
L 410.356893 37.272485 
L 414.48413 37.681577 
L 418.602628 38.229195 
L 422.713487 38.912348 
L 426.817255 39.719943 
L 430.913342 40.645503 
L 435.000391 41.69273 
L 439.076782 42.868849 
L 443.141197 44.176187 
L 447.193086 45.610259 
L 455.260641 48.823305 
L 463.29014 52.404422 
L 475.324148 57.944428 
L 483.37358 61.413167 
L 491.460513 64.506429 
L 495.518528 65.863729 
L 499.584807 67.071413 
L 503.657372 68.11654 
L 507.733863 68.989609 
L 511.812813 69.689765 
L 515.894997 70.238905 
L 524.067606 71.00024 
L 532.249023 71.383905 
L 540.43688 71.398616 
L 548.628383 71.116053 
L 573.257069 69.755905 
L 589.723476 68.850352 
L 606.224086 68.202498 
L 622.75335 67.785584 
L 643.447844 67.543199 
L 672.468673 67.490675 
L 687.00125 67.516828 
L 687.00125 67.516828 
" clip-path="url(#pf410f1a21c)" style="fill: none; stroke-dasharray: 4.44,1.92; stroke-dashoffset: 0; stroke: #dd6b20; stroke-width: 1.2"/>
   </g>
   <g id="patch_3">
    <path d="M 43.78125 87.453019 
L 43.78125 20.798437 
" style="fill: none; stroke: #000000; stroke-width: 0.8; stroke-linejoin: miter; stroke-linecap: square"/>
   </g>
   <g id="patch_4">
    <path d="M 678.80125 87.453019 
L 678.80125 20.798437 
" style="fill: none; stroke: #000000; stroke-width: 0.8; stroke-linejoin: miter; stroke-linecap: square"/>
   </g>
   <g id="patch_5">
    <path d="M 43.78125 87.453019 
L 678.80125 87.453019 
" style="fill: none; stroke: #000000; stroke-width: 0.8; stroke-linejoin: miter; stroke-linecap: square"/>
   </g>
   <g id="patch_6">
    <path d="M 43.78125 20.798437 
L 678.80125 20.798437 
" style="fill: none; stroke: #000000; stroke-width: 0.8; stroke-linejoin: miter; stroke-linecap: square"/>
   </g>
   <g id="text_13">
    <!-- ISO 3888-1 double lane change at 80 km/h — CG path vs cone gates, Elise, both plants -->
    <g transform="translate(142.6725 14.798437) scale(0.1 -0.1)">
     <defs>
      <path id="DejaVuSans-49" d="M 628 4666 
L 1259 4666 
L 1259 0 
L 628 0 
L 628 4666 
z
" transform="scale(0.015625)"/>
      <path id="DejaVuSans-53" d="M 3425 4513 
L 3425 3897 
Q 3066 4069 2747 4153 
Q 2428 4238 2131 4238 
Q 1616 4238 1336 4038 
Q 1056 3838 1056 3469 
Q 1056 3159 1242 3001 
Q 1428 2844 1947 2747 
L 2328 2669 
Q 3034 2534 3370 2195 
Q 3706 1856 3706 1288 
Q 3706 609 3251 259 
Q 2797 -91 1919 -91 
Q 1588 -91 1214 -16 
Q 841 59 441 206 
L 441 856 
Q 825 641 1194 531 
Q 1563 422 1919 422 
Q 2459 422 2753 634 
Q 3047 847 3047 1241 
Q 3047 1584 2836 1778 
Q 2625 1972 2144 2069 
L 1759 2144 
Q 1053 2284 737 2584 
Q 422 2884 422 3419 
Q 422 4038 858 4394 
Q 1294 4750 2059 4750 
Q 2388 4750 2728 4690 
Q 3069 4631 3425 4513 
z
" transform="scale(0.015625)"/>
      <path id="DejaVuSans-4f" d="M 2522 4238 
Q 1834 4238 1429 3725 
Q 1025 3213 1025 2328 
Q 1025 1447 1429 934 
Q 1834 422 2522 422 
Q 3209 422 3611 934 
Q 4013 1447 4013 2328 
Q 4013 3213 3611 3725 
Q 3209 4238 2522 4238 
z
M 2522 4750 
Q 3503 4750 4090 4092 
Q 4678 3434 4678 2328 
Q 4678 1225 4090 567 
Q 3503 -91 2522 -91 
Q 1538 -91 948 565 
Q 359 1222 359 2328 
Q 359 3434 948 4092 
Q 1538 4750 2522 4750 
z
" transform="scale(0.015625)"/>
      <path id="DejaVuSans-33" d="M 2597 2516 
Q 3050 2419 3304 2112 
Q 3559 1806 3559 1356 
Q 3559 666 3084 287 
Q 2609 -91 1734 -91 
Q 1441 -91 1130 -33 
Q 819 25 488 141 
L 488 750 
Q 750 597 1062 519 
Q 1375 441 1716 441 
Q 2309 441 2620 675 
Q 2931 909 2931 1356 
Q 2931 1769 2642 2001 
Q 2353 2234 1838 2234 
L 1294 2234 
L 1294 2753 
L 1863 2753 
Q 2328 2753 2575 2939 
Q 2822 3125 2822 3475 
Q 2822 3834 2567 4026 
Q 2313 4219 1838 4219 
Q 1578 4219 1281 4162 
Q 984 4106 628 3988 
L 628 4550 
Q 988 4650 1302 4700 
Q 1616 4750 1894 4750 
Q 2613 4750 3031 4423 
Q 3450 4097 3450 3541 
Q 3450 3153 3228 2886 
Q 3006 2619 2597 2516 
z
" transform="scale(0.015625)"/>
      <path id="DejaVuSans-2d" d="M 313 2009 
L 1997 2009 
L 1997 1497 
L 313 1497 
L 313 2009 
z
" transform="scale(0.015625)"/>
      <path id="DejaVuSans-75" d="M 544 1381 
L 544 3500 
L 1119 3500 
L 1119 1403 
Q 1119 906 1312 657 
Q 1506 409 1894 409 
Q 2359 409 2629 706 
Q 2900 1003 2900 1516 
L 2900 3500 
L 3475 3500 
L 3475 0 
L 2900 0 
L 2900 538 
Q 2691 219 2414 64 
Q 2138 -91 1772 -91 
Q 1169 -91 856 284 
Q 544 659 544 1381 
z
M 1991 3584 
L 1991 3584 
z
" transform="scale(0.015625)"/>
      <path id="DejaVuSans-62" d="M 3116 1747 
Q 3116 2381 2855 2742 
Q 2594 3103 2138 3103 
Q 1681 3103 1420 2742 
Q 1159 2381 1159 1747 
Q 1159 1113 1420 752 
Q 1681 391 2138 391 
Q 2594 391 2855 752 
Q 3116 1113 3116 1747 
z
M 1159 2969 
Q 1341 3281 1617 3432 
Q 1894 3584 2278 3584 
Q 2916 3584 3314 3078 
Q 3713 2572 3713 1747 
Q 3713 922 3314 415 
Q 2916 -91 2278 -91 
Q 1894 -91 1617 61 
Q 1341 213 1159 525 
L 1159 0 
L 581 0 
L 581 4863 
L 1159 4863 
L 1159 2969 
z
" transform="scale(0.015625)"/>
      <path id="DejaVuSans-68" d="M 3513 2113 
L 3513 0 
L 2938 0 
L 2938 2094 
Q 2938 2591 2744 2837 
Q 2550 3084 2163 3084 
Q 1697 3084 1428 2787 
Q 1159 2491 1159 1978 
L 1159 0 
L 581 0 
L 581 4863 
L 1159 4863 
L 1159 2956 
Q 1366 3272 1645 3428 
Q 1925 3584 2291 3584 
Q 2894 3584 3203 3211 
Q 3513 2838 3513 2113 
z
" transform="scale(0.015625)"/>
      <path id="DejaVuSans-67" d="M 2906 1791 
Q 2906 2416 2648 2759 
Q 2391 3103 1925 3103 
Q 1463 3103 1205 2759 
Q 947 2416 947 1791 
Q 947 1169 1205 825 
Q 1463 481 1925 481 
Q 2391 481 2648 825 
Q 2906 1169 2906 1791 
z
M 3481 434 
Q 3481 -459 3084 -895 
Q 2688 -1331 1869 -1331 
Q 1566 -1331 1297 -1286 
Q 1028 -1241 775 -1147 
L 775 -588 
Q 1028 -725 1275 -790 
Q 1522 -856 1778 -856 
Q 2344 -856 2625 -561 
Q 2906 -266 2906 331 
L 2906 616 
Q 2728 306 2450 153 
Q 2172 0 1784 0 
Q 1141 0 747 490 
Q 353 981 353 1791 
Q 353 2603 747 3093 
Q 1141 3584 1784 3584 
Q 2172 3584 2450 3431 
Q 2728 3278 2906 2969 
L 2906 3500 
L 3481 3500 
L 3481 434 
z
" transform="scale(0.015625)"/>
      <path id="DejaVuSans-6b" d="M 581 4863 
L 1159 4863 
L 1159 1991 
L 2875 3500 
L 3609 3500 
L 1753 1863 
L 3688 0 
L 2938 0 
L 1159 1709 
L 1159 0 
L 581 0 
L 581 4863 
z
" transform="scale(0.015625)"/>
      <path id="DejaVuSans-2f" d="M 1625 4666 
L 2156 4666 
L 531 -594 
L 0 -594 
L 1625 4666 
z
" transform="scale(0.015625)"/>
      <path id="DejaVuSans-2014" d="M 313 1978 
L 6088 1978 
L 6088 1528 
L 313 1528 
L 313 1978 
z
" transform="scale(0.015625)"/>
      <path id="DejaVuSans-43" d="M 4122 4306 
L 4122 3641 
Q 3803 3938 3442 4084 
Q 3081 4231 2675 4231 
Q 1875 4231 1450 3742 
Q 1025 3253 1025 2328 
Q 1025 1406 1450 917 
Q 1875 428 2675 428 
Q 3081 428 3442 575 
Q 3803 722 4122 1019 
L 4122 359 
Q 3791 134 3420 21 
Q 3050 -91 2638 -91 
Q 1578 -91 968 557 
Q 359 1206 359 2328 
Q 359 3453 968 4101 
Q 1578 4750 2638 4750 
Q 3056 4750 3426 4639 
Q 3797 4528 4122 4306 
z
" transform="scale(0.015625)"/>
      <path id="DejaVuSans-47" d="M 3809 666 
L 3809 1919 
L 2778 1919 
L 2778 2438 
L 4434 2438 
L 4434 434 
Q 4069 175 3628 42 
Q 3188 -91 2688 -91 
Q 1594 -91 976 548 
Q 359 1188 359 2328 
Q 359 3472 976 4111 
Q 1594 4750 2688 4750 
Q 3144 4750 3555 4637 
Q 3966 4525 4313 4306 
L 4313 3634 
Q 3963 3931 3569 4081 
Q 3175 4231 2741 4231 
Q 1884 4231 1454 3753 
Q 1025 3275 1025 2328 
Q 1025 1384 1454 906 
Q 1884 428 2741 428 
Q 3075 428 3337 486 
Q 3600 544 3809 666 
z
" transform="scale(0.015625)"/>
      <path id="DejaVuSans-76" d="M 191 3500 
L 800 3500 
L 1894 563 
L 2988 3500 
L 3597 3500 
L 2284 0 
L 1503 0 
L 191 3500 
z
" transform="scale(0.015625)"/>
      <path id="DejaVuSans-2c" d="M 750 794 
L 1409 794 
L 1409 256 
L 897 -744 
L 494 -744 
L 750 256 
L 750 794 
z
" transform="scale(0.015625)"/>
      <path id="DejaVuSans-45" d="M 628 4666 
L 3578 4666 
L 3578 4134 
L 1259 4134 
L 1259 2753 
L 3481 2753 
L 3481 2222 
L 1259 2222 
L 1259 531 
L 3634 531 
L 3634 0 
L 628 0 
L 628 4666 
z
" transform="scale(0.015625)"/>
     </defs>
     <use xlink:href="#DejaVuSans-49"/>
     <use xlink:href="#DejaVuSans-53" transform="translate(29.492188 0)"/>
     <use xlink:href="#DejaVuSans-4f" transform="translate(92.96875 0)"/>
     <use xlink:href="#DejaVuSans-20" transform="translate(171.679688 0)"/>
     <use xlink:href="#DejaVuSans-33" transform="translate(203.466797 0)"/>
     <use xlink:href="#DejaVuSans-38" transform="translate(267.089844 0)"/>
     <use xlink:href="#DejaVuSans-38" transform="translate(330.712891 0)"/>
     <use xlink:href="#DejaVuSans-38" transform="translate(394.335938 0)"/>
     <use xlink:href="#DejaVuSans-2d" transform="translate(457.958984 0)"/>
     <use xlink:href="#DejaVuSans-31" transform="translate(494.042969 0)"/>
     <use xlink:href="#DejaVuSans-20" transform="translate(557.666016 0)"/>
     <use xlink:href="#DejaVuSans-64" transform="translate(589.453125 0)"/>
     <use xlink:href="#DejaVuSans-6f" transform="translate(652.929688 0)"/>
     <use xlink:href="#DejaVuSans-75" transform="translate(714.111328 0)"/>
     <use xlink:href="#DejaVuSans-62" transform="translate(777.490234 0)"/>
     <use xlink:href="#DejaVuSans-6c" transform="translate(840.966797 0)"/>
     <use xlink:href="#DejaVuSans-65" transform="translate(868.75 0)"/>
     <use xlink:href="#DejaVuSans-20" transform="translate(930.273438 0)"/>
     <use xlink:href="#DejaVuSans-6c" transform="translate(962.060547 0)"/>
     <use xlink:href="#DejaVuSans-61" transform="translate(989.84375 0)"/>
     <use xlink:href="#DejaVuSans-6e" transform="translate(1051.123047 0)"/>
     <use xlink:href="#DejaVuSans-65" transform="translate(1114.501953 0)"/>
     <use xlink:href="#DejaVuSans-20" transform="translate(1176.025391 0)"/>
     <use xlink:href="#DejaVuSans-63" transform="translate(1207.8125 0)"/>
     <use xlink:href="#DejaVuSans-68" transform="translate(1262.792969 0)"/>
     <use xlink:href="#DejaVuSans-61" transform="translate(1326.171875 0)"/>
     <use xlink:href="#DejaVuSans-6e" transform="translate(1387.451172 0)"/>
     <use xlink:href="#DejaVuSans-67" transform="translate(1450.830078 0)"/>
     <use xlink:href="#DejaVuSans-65" transform="translate(1514.306641 0)"/>
     <use xlink:href="#DejaVuSans-20" transform="translate(1575.830078 0)"/>
     <use xlink:href="#DejaVuSans-61" transform="translate(1607.617188 0)"/>
     <use xlink:href="#DejaVuSans-74" transform="translate(1668.896484 0)"/>
     <use xlink:href="#DejaVuSans-20" transform="translate(1708.105469 0)"/>
     <use xlink:href="#DejaVuSans-38" transform="translate(1739.892578 0)"/>
     <use xlink:href="#DejaVuSans-30" transform="translate(1803.515625 0)"/>
     <use xlink:href="#DejaVuSans-20" transform="translate(1867.138672 0)"/>
     <use xlink:href="#DejaVuSans-6b" transform="translate(1898.925781 0)"/>
     <use xlink:href="#DejaVuSans-6d" transform="translate(1956.835938 0)"/>
     <use xlink:href="#DejaVuSans-2f" transform="translate(2054.248047 0)"/>
     <use xlink:href="#DejaVuSans-68" transform="translate(2087.939453 0)"/>
     <use xlink:href="#DejaVuSans-20" transform="translate(2151.318359 0)"/>
     <use xlink:href="#DejaVuSans-2014" transform="translate(2183.105469 0)"/>
     <use xlink:href="#DejaVuSans-20" transform="translate(2283.105469 0)"/>
     <use xlink:href="#DejaVuSans-43" transform="translate(2314.892578 0)"/>
     <use xlink:href="#DejaVuSans-47" transform="translate(2384.716797 0)"/>
     <use xlink:href="#DejaVuSans-20" transform="translate(2462.207031 0)"/>
     <use xlink:href="#DejaVuSans-70" transform="translate(2493.994141 0)"/>
     <use xlink:href="#DejaVuSans-61" transform="translate(2557.470703 0)"/>
     <use xlink:href="#DejaVuSans-74" transform="translate(2618.75 0)"/>
     <use xlink:href="#DejaVuSans-68" transform="translate(2657.958984 0)"/>
     <use xlink:href="#DejaVuSans-20" transform="translate(2721.337891 0)"/>
     <use xlink:href="#DejaVuSans-76" transform="translate(2753.125 0)"/>
     <use xlink:href="#DejaVuSans-73" transform="translate(2812.304688 0)"/>
     <use xlink:href="#DejaVuSans-20" transform="translate(2864.404297 0)"/>
     <use xlink:href="#DejaVuSans-63" transform="translate(2896.191406 0)"/>
     <use xlink:href="#DejaVuSans-6f" transform="translate(2951.171875 0)"/>
     <use xlink:href="#DejaVuSans-6e" transform="translate(3012.353516 0)"/>
     <use xlink:href="#DejaVuSans-65" transform="translate(3075.732422 0)"/>
     <use xlink:href="#DejaVuSans-20" transform="translate(3137.255859 0)"/>
     <use xlink:href="#DejaVuSans-67" transform="translate(3169.042969 0)"/>
     <use xlink:href="#DejaVuSans-61" transform="translate(3232.519531 0)"/>
     <use xlink:href="#DejaVuSans-74" transform="translate(3293.798828 0)"/>
     <use xlink:href="#DejaVuSans-65" transform="translate(3333.007812 0)"/>
     <use xlink:href="#DejaVuSans-73" transform="translate(3394.53125 0)"/>
     <use xlink:href="#DejaVuSans-2c" transform="translate(3446.630859 0)"/>
     <use xlink:href="#DejaVuSans-20" transform="translate(3478.417969 0)"/>
     <use xlink:href="#DejaVuSans-45" transform="translate(3510.205078 0)"/>
     <use xlink:href="#DejaVuSans-6c" transform="translate(3573.388672 0)"/>
     <use xlink:href="#DejaVuSans-69" transform="translate(3601.171875 0)"/>
     <use xlink:href="#DejaVuSans-73" transform="translate(3628.955078 0)"/>
     <use xlink:href="#DejaVuSans-65" transform="translate(3681.054688 0)"/>
     <use xlink:href="#DejaVuSans-2c" transform="translate(3742.578125 0)"/>
     <use xlink:href="#DejaVuSans-20" transform="translate(3774.365234 0)"/>
     <use xlink:href="#DejaVuSans-62" transform="translate(3806.152344 0)"/>
     <use xlink:href="#DejaVuSans-6f" transform="translate(3869.628906 0)"/>
     <use xlink:href="#DejaVuSans-74" transform="translate(3930.810547 0)"/>
     <use xlink:href="#DejaVuSans-68" transform="translate(3970.019531 0)"/>
     <use xlink:href="#DejaVuSans-20" transform="translate(4033.398438 0)"/>
     <use xlink:href="#DejaVuSans-70" transform="translate(4065.185547 0)"/>
     <use xlink:href="#DejaVuSans-6c" transform="translate(4128.662109 0)"/>
     <use xlink:href="#DejaVuSans-61" transform="translate(4156.445312 0)"/>
     <use xlink:href="#DejaVuSans-6e" transform="translate(4217.724609 0)"/>
     <use xlink:href="#DejaVuSans-74" transform="translate(4281.103516 0)"/>
     <use xlink:href="#DejaVuSans-73" transform="translate(4320.3125 0)"/>
    </g>
   </g>
   <g id="legend_1">
    <g id="patch_7">
     <path d="M 49.38125 62.425937 
L 185.26125 62.425937 
Q 186.86125 62.425937 186.86125 60.825937 
L 186.86125 26.398437 
Q 186.86125 24.798437 185.26125 24.798437 
L 49.38125 24.798437 
Q 47.78125 24.798437 47.78125 26.398437 
L 47.78125 60.825937 
Q 47.78125 62.425937 49.38125 62.425937 
z
" style="fill: #ffffff; opacity: 0.8; stroke: #cccccc; stroke-linejoin: miter"/>
    </g>
    <g id="line2d_30">
     <path d="M 50.98125 31.277187 
L 58.98125 31.277187 
L 66.98125 31.277187 
" style="fill: none; stroke-dasharray: 1,1.65; stroke-dashoffset: 0; stroke: #9aa0a6"/>
    </g>
    <g id="text_14">
     <!-- ISO 3888-1 reference path -->
     <g transform="translate(73.38125 34.077187) scale(0.08 -0.08)">
      <defs>
       <path id="DejaVuSans-66" d="M 2375 4863 
L 2375 4384 
L 1825 4384 
Q 1516 4384 1395 4259 
Q 1275 4134 1275 3809 
L 1275 3500 
L 2222 3500 
L 2222 3053 
L 1275 3053 
L 1275 0 
L 697 0 
L 697 3053 
L 147 3053 
L 147 3500 
L 697 3500 
L 697 3744 
Q 697 4328 969 4595 
Q 1241 4863 1831 4863 
L 2375 4863 
z
" transform="scale(0.015625)"/>
      </defs>
      <use xlink:href="#DejaVuSans-49"/>
      <use xlink:href="#DejaVuSans-53" transform="translate(29.492188 0)"/>
      <use xlink:href="#DejaVuSans-4f" transform="translate(92.96875 0)"/>
      <use xlink:href="#DejaVuSans-20" transform="translate(171.679688 0)"/>
      <use xlink:href="#DejaVuSans-33" transform="translate(203.466797 0)"/>
      <use xlink:href="#DejaVuSans-38" transform="translate(267.089844 0)"/>
      <use xlink:href="#DejaVuSans-38" transform="translate(330.712891 0)"/>
      <use xlink:href="#DejaVuSans-38" transform="translate(394.335938 0)"/>
      <use xlink:href="#DejaVuSans-2d" transform="translate(457.958984 0)"/>
      <use xlink:href="#DejaVuSans-31" transform="translate(494.042969 0)"/>
      <use xlink:href="#DejaVuSans-20" transform="translate(557.666016 0)"/>
      <use xlink:href="#DejaVuSans-72" transform="translate(589.453125 0)"/>
      <use xlink:href="#DejaVuSans-65" transform="translate(628.316406 0)"/>
      <use xlink:href="#DejaVuSans-66" transform="translate(689.839844 0)"/>
      <use xlink:href="#DejaVuSans-65" transform="translate(725.044922 0)"/>
      <use xlink:href="#DejaVuSans-72" transform="translate(786.568359 0)"/>
      <use xlink:href="#DejaVuSans-65" transform="translate(825.431641 0)"/>
      <use xlink:href="#DejaVuSans-6e" transform="translate(886.955078 0)"/>
      <use xlink:href="#DejaVuSans-63" transform="translate(950.333984 0)"/>
      <use xlink:href="#DejaVuSans-65" transform="translate(1005.314453 0)"/>
      <use xlink:href="#DejaVuSans-20" transform="translate(1066.837891 0)"/>
      <use xlink:href="#DejaVuSans-70" transform="translate(1098.625 0)"/>
      <use xlink:href="#DejaVuSans-61" transform="translate(1162.101562 0)"/>
      <use xlink:href="#DejaVuSans-74" transform="translate(1223.380859 0)"/>
      <use xlink:href="#DejaVuSans-68" transform="translate(1262.589844 0)"/>
     </g>
    </g>
    <g id="line2d_31">
     <path d="M 50.98125 43.019687 
L 58.98125 43.019687 
L 66.98125 43.019687 
" style="fill: none; stroke: #2b6cb0; stroke-width: 1.8; stroke-linecap: square"/>
    </g>
    <g id="text_15">
     <!-- OpenModelica TrackTricycle -->
     <g transform="translate(73.38125 45.819687) scale(0.08 -0.08)">
      <defs>
       <path id="DejaVuSans-4d" d="M 628 4666 
L 1569 4666 
L 2759 1491 
L 3956 4666 
L 4897 4666 
L 4897 0 
L 4281 0 
L 4281 4097 
L 3078 897 
L 2444 897 
L 1241 4097 
L 1241 0 
L 628 0 
L 628 4666 
z
" transform="scale(0.015625)"/>
       <path id="DejaVuSans-54" d="M -19 4666 
L 3928 4666 
L 3928 4134 
L 2272 4134 
L 2272 0 
L 1638 0 
L 1638 4134 
L -19 4134 
L -19 4666 
z
" transform="scale(0.015625)"/>
       <path id="DejaVuSans-79" d="M 2059 -325 
Q 1816 -950 1584 -1140 
Q 1353 -1331 966 -1331 
L 506 -1331 
L 506 -850 
L 844 -850 
Q 1081 -850 1212 -737 
Q 1344 -625 1503 -206 
L 1606 56 
L 191 3500 
L 800 3500 
L 1894 763 
L 2988 3500 
L 3597 3500 
L 2059 -325 
z
" transform="scale(0.015625)"/>
      </defs>
      <use xlink:href="#DejaVuSans-4f"/>
      <use xlink:href="#DejaVuSans-70" transform="translate(78.710938 0)"/>
      <use xlink:href="#DejaVuSans-65" transform="translate(142.1875 0)"/>
      <use xlink:href="#DejaVuSans-6e" transform="translate(203.710938 0)"/>
      <use xlink:href="#DejaVuSans-4d" transform="translate(267.089844 0)"/>
      <use xlink:href="#DejaVuSans-6f" transform="translate(353.369141 0)"/>
      <use xlink:href="#DejaVuSans-64" transform="translate(414.550781 0)"/>
      <use xlink:href="#DejaVuSans-65" transform="translate(478.027344 0)"/>
      <use xlink:href="#DejaVuSans-6c" transform="translate(539.550781 0)"/>
      <use xlink:href="#DejaVuSans-69" transform="translate(567.333984 0)"/>
      <use xlink:href="#DejaVuSans-63" transform="translate(595.117188 0)"/>
      <use xlink:href="#DejaVuSans-61" transform="translate(650.097656 0)"/>
      <use xlink:href="#DejaVuSans-20" transform="translate(711.376953 0)"/>
      <use xlink:href="#DejaVuSans-54" transform="translate(743.164062 0)"/>
      <use xlink:href="#DejaVuSans-72" transform="translate(789.498047 0)"/>
      <use xlink:href="#DejaVuSans-61" transform="translate(830.611328 0)"/>
      <use xlink:href="#DejaVuSans-63" transform="translate(891.890625 0)"/>
      <use xlink:href="#DejaVuSans-6b" transform="translate(946.871094 0)"/>
      <use xlink:href="#DejaVuSans-54" transform="translate(1004.78125 0)"/>
      <use xlink:href="#DejaVuSans-72" transform="translate(1051.115234 0)"/>
      <use xlink:href="#DejaVuSans-69" transform="translate(1092.228516 0)"/>
      <use xlink:href="#DejaVuSans-63" transform="translate(1120.011719 0)"/>
      <use xlink:href="#DejaVuSans-79" transform="translate(1174.992188 0)"/>
      <use xlink:href="#DejaVuSans-63" transform="translate(1234.171875 0)"/>
      <use xlink:href="#DejaVuSans-6c" transform="translate(1289.152344 0)"/>
      <use xlink:href="#DejaVuSans-65" transform="translate(1316.935547 0)"/>
     </g>
    </g>
    <g id="line2d_32">
     <path d="M 50.98125 54.762187 
L 58.98125 54.762187 
L 66.98125 54.762187 
" style="fill: none; stroke-dasharray: 4.44,1.92; stroke-dashoffset: 0; stroke: #dd6b20; stroke-width: 1.2"/>
    </g>
    <g id="text_16">
     <!-- JavaScript port -->
     <g transform="translate(73.38125 57.562187) scale(0.08 -0.08)">
      <defs>
       <path id="DejaVuSans-4a" d="M 628 4666 
L 1259 4666 
L 1259 325 
Q 1259 -519 939 -900 
Q 619 -1281 -91 -1281 
L -331 -1281 
L -331 -750 
L -134 -750 
Q 284 -750 456 -515 
Q 628 -281 628 325 
L 628 4666 
z
" transform="scale(0.015625)"/>
      </defs>
      <use xlink:href="#DejaVuSans-4a"/>
      <use xlink:href="#DejaVuSans-61" transform="translate(29.492188 0)"/>
      <use xlink:href="#DejaVuSans-76" transform="translate(90.771484 0)"/>
      <use xlink:href="#DejaVuSans-61" transform="translate(149.951172 0)"/>
      <use xlink:href="#DejaVuSans-53" transform="translate(211.230469 0)"/>
      <use xlink:href="#DejaVuSans-63" transform="translate(274.707031 0)"/>
      <use xlink:href="#DejaVuSans-72" transform="translate(329.6875 0)"/>
      <use xlink:href="#DejaVuSans-69" transform="translate(370.800781 0)"/>
      <use xlink:href="#DejaVuSans-70" transform="translate(398.583984 0)"/>
      <use xlink:href="#DejaVuSans-74" transform="translate(462.060547 0)"/>
      <use xlink:href="#DejaVuSans-20" transform="translate(501.269531 0)"/>
      <use xlink:href="#DejaVuSans-70" transform="translate(533.056641 0)"/>
      <use xlink:href="#DejaVuSans-6f" transform="translate(596.533203 0)"/>
      <use xlink:href="#DejaVuSans-72" transform="translate(657.714844 0)"/>
      <use xlink:href="#DejaVuSans-74" transform="translate(698.828125 0)"/>
     </g>
    </g>
   </g>
  </g>
 </g>
 <defs>
  <clipPath id="pf410f1a21c">
   <rect x="43.78125" y="20.798437" width="635.02" height="66.654582"/>
  </clipPath>
 </defs>
</svg>
