<?xml version="1.0" encoding="utf-8" standalone="no"?>
<!DOCTYPE svg PUBLIC "-//W3C//DTD SVG 1.1//EN"
  "http://www.w3.org/Graphics/SVG/1.1/DTD/svg11.dtd">
<svg xmlns:xlink="http://www.w3.org/1999/xlink" width="648pt" height="273.6pt" viewBox="0 0 648 273.6" xmlns="http://www.w3.org/2000/svg" version="1.1">
 <metadata>
  <rdf:RDF xmlns:dc="http://purl.org/dc/elements/1.1/" xmlns:cc="http://creativecommons.org/ns#" xmlns:rdf="http://www.w3.org/1999/02/22-rdf-syntax-ns#">
   <cc:Work>
    <dc:type rdf:resource="http://purl.org/dc/dcmitype/StillImage"/>
    <dc:date>2026-07-03T09:36:01.750815</dc:date>
    <dc:format>image/svg+xml</dc:format>
    <dc:creator>
     <cc:Agent>
      <dc:title>Matplotlib v3.10.8, https://matplotlib.org/</dc:title>
     </cc:Agent>
    </dc:creator>
   </cc:Work>
  </rdf:RDF>
 </metadata>
 <defs>
  <style type="text/css">*{stroke-linejoin: round; stroke-linecap: butt}</style>
 </defs>
 <g id="figure_1">
  <g id="patch_1">
   <path d="M 0 273.6 
L 648 273.6 
L 648 0 
L 0 0 
z
" style="fill: #ffffff"/>
  </g>
  <g id="axes_1">
   <g id="patch_2">
    <path d="M 46.64 231.64 
L 315.495 231.64 
L 315.495 31.879927 
L 46.64 31.879927 
z
" style="fill: #ffffff"/>
   </g>
   <g id="matplotlib.axis_1">
    <g id="xtick_1">
     <g id="line2d_1">
      <path d="M 79.228485 231.64 
L 79.228485 31.879927 
" clip-path="url(#p1bfa4ab238)" style="fill: none; stroke: #b0b0b0; stroke-opacity: 0.3; stroke-width: 0.8; stroke-linecap: square"/>
     </g>
     <g id="line2d_2">
      <defs>
       <path id="m5f6d71f30d" d="M 0 0 
L 0 3.5 
" style="stroke: #000000; stroke-width: 0.8"/>
      </defs>
      <g>
       <use xlink:href="#m5f6d71f30d" x="79.228485" y="231.64" style="stroke: #000000; stroke-width: 0.8"/>
      </g>
     </g>
     <g id="text_1">
      <!-- −10 -->
      <g transform="translate(68.676141 246.238437) scale(0.1 -0.1)">
       <defs>
        <path id="DejaVuSans-2212" d="M 678 2272 
L 4684 2272 
L 4684 1741 
L 678 1741 
L 678 2272 
z
" transform="scale(0.015625)"/>
        <path id="DejaVuSans-31" d="M 794 531 
L 1825 531 
L 1825 4091 
L 703 3866 
L 703 4441 
L 1819 4666 
L 2450 4666 
L 2450 531 
L 3481 531 
L 3481 0 
L 794 0 
L 794 531 
z
" transform="scale(0.015625)"/>
        <path id="DejaVuSans-30" d="M 2034 4250 
Q 1547 4250 1301 3770 
Q 1056 3291 1056 2328 
Q 1056 1369 1301 889 
Q 1547 409 2034 409 
Q 2525 409 2770 889 
Q 3016 1369 3016 2328 
Q 3016 3291 2770 3770 
Q 2525 4250 2034 4250 
z
M 2034 4750 
Q 2819 4750 3233 4129 
Q 3647 3509 3647 2328 
Q 3647 1150 3233 529 
Q 2819 -91 2034 -91 
Q 1250 -91 836 529 
Q 422 1150 422 2328 
Q 422 3509 836 4129 
Q 1250 4750 2034 4750 
z
" transform="scale(0.015625)"/>
       </defs>
       <use xlink:href="#DejaVuSans-2212"/>
       <use xlink:href="#DejaVuSans-31" transform="translate(83.789062 0)"/>
       <use xlink:href="#DejaVuSans-30" transform="translate(147.412109 0)"/>
      </g>
     </g>
    </g>
    <g id="xtick_2">
     <g id="line2d_3">
      <path d="M 130.147992 231.64 
L 130.147992 31.879927 
" clip-path="url(#p1bfa4ab238)" style="fill: none; stroke: #b0b0b0; stroke-opacity: 0.3; stroke-width: 0.8; stroke-linecap: square"/>
     </g>
     <g id="line2d_4">
      <g>
       <use xlink:href="#m5f6d71f30d" x="130.147992" y="231.64" style="stroke: #000000; stroke-width: 0.8"/>
      </g>
     </g>
     <g id="text_2">
      <!-- −5 -->
      <g transform="translate(122.776899 246.238437) scale(0.1 -0.1)">
       <defs>
        <path id="DejaVuSans-35" d="M 691 4666 
L 3169 4666 
L 3169 4134 
L 1269 4134 
L 1269 2991 
Q 1406 3038 1543 3061 
Q 1681 3084 1819 3084 
Q 2600 3084 3056 2656 
Q 3513 2228 3513 1497 
Q 3513 744 3044 326 
Q 2575 -91 1722 -91 
Q 1428 -91 1123 -41 
Q 819 9 494 109 
L 494 744 
Q 775 591 1075 516 
Q 1375 441 1709 441 
Q 2250 441 2565 725 
Q 2881 1009 2881 1497 
Q 2881 1984 2565 2268 
Q 2250 2553 1709 2553 
Q 1456 2553 1204 2497 
Q 953 2441 691 2322 
L 691 4666 
z
" transform="scale(0.015625)"/>
       </defs>
       <use xlink:href="#DejaVuSans-2212"/>
       <use xlink:href="#DejaVuSans-35" transform="translate(83.789062 0)"/>
      </g>
     </g>
    </g>
    <g id="xtick_3">
     <g id="line2d_5">
      <path d="M 181.0675 231.64 
L 181.0675 31.879927 
" clip-path="url(#p1bfa4ab238)" style="fill: none; stroke: #b0b0b0; stroke-opacity: 0.3; stroke-width: 0.8; stroke-linecap: square"/>
     </g>
     <g id="line2d_6">
      <g>
       <use xlink:href="#m5f6d71f30d" x="181.0675" y="231.64" style="stroke: #000000; stroke-width: 0.8"/>
      </g>
     </g>
     <g id="text_3">
      <!-- 0 -->
      <g transform="translate(177.88625 246.238437) scale(0.1 -0.1)">
       <use xlink:href="#DejaVuSans-30"/>
      </g>
     </g>
    </g>
    <g id="xtick_4">
     <g id="line2d_7">
      <path d="M 231.987008 231.64 
L 231.987008 31.879927 
" clip-path="url(#p1bfa4ab238)" style="fill: none; stroke: #b0b0b0; stroke-opacity: 0.3; stroke-width: 0.8; stroke-linecap: square"/>
     </g>
     <g id="line2d_8">
      <g>
       <use xlink:href="#m5f6d71f30d" x="231.987008" y="231.64" style="stroke: #000000; stroke-width: 0.8"/>
      </g>
     </g>
     <g id="text_4">
      <!-- 5 -->
      <g transform="translate(228.805758 246.238437) scale(0.1 -0.1)">
       <use xlink:href="#DejaVuSans-35"/>
      </g>
     </g>
    </g>
    <g id="xtick_5">
     <g id="line2d_9">
      <path d="M 282.906515 231.64 
L 282.906515 31.879927 
" clip-path="url(#p1bfa4ab238)" style="fill: none; stroke: #b0b0b0; stroke-opacity: 0.3; stroke-width: 0.8; stroke-linecap: square"/>
     </g>
     <g id="line2d_10">
      <g>
       <use xlink:href="#m5f6d71f30d" x="282.906515" y="231.64" style="stroke: #000000; stroke-width: 0.8"/>
      </g>
     </g>
     <g id="text_5">
      <!-- 10 -->
      <g transform="translate(276.544015 246.238437) scale(0.1 -0.1)">
       <use xlink:href="#DejaVuSans-31"/>
       <use xlink:href="#DejaVuSans-30" transform="translate(63.623047 0)"/>
      </g>
     </g>
    </g>
    <g id="text_6">
     <!-- slip angle [deg] -->
     <g transform="translate(142.133125 259.916562) scale(0.1 -0.1)">
      <defs>
       <path id="DejaVuSans-73" d="M 2834 3397 
L 2834 2853 
Q 2591 2978 2328 3040 
Q 2066 3103 1784 3103 
Q 1356 3103 1142 2972 
Q 928 2841 928 2578 
Q 928 2378 1081 2264 
Q 1234 2150 1697 2047 
L 1894 2003 
Q 2506 1872 2764 1633 
Q 3022 1394 3022 966 
Q 3022 478 2636 193 
Q 2250 -91 1575 -91 
Q 1294 -91 989 -36 
Q 684 19 347 128 
L 347 722 
Q 666 556 975 473 
Q 1284 391 1588 391 
Q 1994 391 2212 530 
Q 2431 669 2431 922 
Q 2431 1156 2273 1281 
Q 2116 1406 1581 1522 
L 1381 1569 
Q 847 1681 609 1914 
Q 372 2147 372 2553 
Q 372 3047 722 3315 
Q 1072 3584 1716 3584 
Q 2034 3584 2315 3537 
Q 2597 3491 2834 3397 
z
" transform="scale(0.015625)"/>
       <path id="DejaVuSans-6c" d="M 603 4863 
L 1178 4863 
L 1178 0 
L 603 0 
L 603 4863 
z
" transform="scale(0.015625)"/>
       <path id="DejaVuSans-69" d="M 603 3500 
L 1178 3500 
L 1178 0 
L 603 0 
L 603 3500 
z
M 603 4863 
L 1178 4863 
L 1178 4134 
L 603 4134 
L 603 4863 
z
" transform="scale(0.015625)"/>
       <path id="DejaVuSans-70" d="M 1159 525 
L 1159 -1331 
L 581 -1331 
L 581 3500 
L 1159 3500 
L 1159 2969 
Q 1341 3281 1617 3432 
Q 1894 3584 2278 3584 
Q 2916 3584 3314 3078 
Q 3713 2572 3713 1747 
Q 3713 922 3314 415 
Q 2916 -91 2278 -91 
Q 1894 -91 1617 61 
Q 1341 213 1159 525 
z
M 3116 1747 
Q 3116 2381 2855 2742 
Q 2594 3103 2138 3103 
Q 1681 3103 1420 2742 
Q 1159 2381 1159 1747 
Q 1159 1113 1420 752 
Q 1681 391 2138 391 
Q 2594 391 2855 752 
Q 3116 1113 3116 1747 
z
" transform="scale(0.015625)"/>
       <path id="DejaVuSans-20" transform="scale(0.015625)"/>
       <path id="DejaVuSans-61" d="M 2194 1759 
Q 1497 1759 1228 1600 
Q 959 1441 959 1056 
Q 959 750 1161 570 
Q 1363 391 1709 391 
Q 2188 391 2477 730 
Q 2766 1069 2766 1631 
L 2766 1759 
L 2194 1759 
z
M 3341 1997 
L 3341 0 
L 2766 0 
L 2766 531 
Q 2569 213 2275 61 
Q 1981 -91 1556 -91 
Q 1019 -91 701 211 
Q 384 513 384 1019 
Q 384 1609 779 1909 
Q 1175 2209 1959 2209 
L 2766 2209 
L 2766 2266 
Q 2766 2663 2505 2880 
Q 2244 3097 1772 3097 
Q 1472 3097 1187 3025 
Q 903 2953 641 2809 
L 641 3341 
Q 956 3463 1253 3523 
Q 1550 3584 1831 3584 
Q 2591 3584 2966 3190 
Q 3341 2797 3341 1997 
z
" transform="scale(0.015625)"/>
       <path id="DejaVuSans-6e" d="M 3513 2113 
L 3513 0 
L 2938 0 
L 2938 2094 
Q 2938 2591 2744 2837 
Q 2550 3084 2163 3084 
Q 1697 3084 1428 2787 
Q 1159 2491 1159 1978 
L 1159 0 
L 581 0 
L 581 3500 
L 1159 3500 
L 1159 2956 
Q 1366 3272 1645 3428 
Q 1925 3584 2291 3584 
Q 2894 3584 3203 3211 
Q 3513 2838 3513 2113 
z
" transform="scale(0.015625)"/>
       <path id="DejaVuSans-67" d="M 2906 1791 
Q 2906 2416 2648 2759 
Q 2391 3103 1925 3103 
Q 1463 3103 1205 2759 
Q 947 2416 947 1791 
Q 947 1169 1205 825 
Q 1463 481 1925 481 
Q 2391 481 2648 825 
Q 2906 1169 2906 1791 
z
M 3481 434 
Q 3481 -459 3084 -895 
Q 2688 -1331 1869 -1331 
Q 1566 -1331 1297 -1286 
Q 1028 -1241 775 -1147 
L 775 -588 
Q 1028 -725 1275 -790 
Q 1522 -856 1778 -856 
Q 2344 -856 2625 -561 
Q 2906 -266 2906 331 
L 2906 616 
Q 2728 306 2450 153 
Q 2172 0 1784 0 
Q 1141 0 747 490 
Q 353 981 353 1791 
Q 353 2603 747 3093 
Q 1141 3584 1784 3584 
Q 2172 3584 2450 3431 
Q 2728 3278 2906 2969 
L 2906 3500 
L 3481 3500 
L 3481 434 
z
" transform="scale(0.015625)"/>
       <path id="DejaVuSans-65" d="M 3597 1894 
L 3597 1613 
L 953 1613 
Q 991 1019 1311 708 
Q 1631 397 2203 397 
Q 2534 397 2845 478 
Q 3156 559 3463 722 
L 3463 178 
Q 3153 47 2828 -22 
Q 2503 -91 2169 -91 
Q 1331 -91 842 396 
Q 353 884 353 1716 
Q 353 2575 817 3079 
Q 1281 3584 2069 3584 
Q 2775 3584 3186 3129 
Q 3597 2675 3597 1894 
z
M 3022 2063 
Q 3016 2534 2758 2815 
Q 2500 3097 2075 3097 
Q 1594 3097 1305 2825 
Q 1016 2553 972 2059 
L 3022 2063 
z
" transform="scale(0.015625)"/>
       <path id="DejaVuSans-5b" d="M 550 4863 
L 1875 4863 
L 1875 4416 
L 1125 4416 
L 1125 -397 
L 1875 -397 
L 1875 -844 
L 550 -844 
L 550 4863 
z
" transform="scale(0.015625)"/>
       <path id="DejaVuSans-64" d="M 2906 2969 
L 2906 4863 
L 3481 4863 
L 3481 0 
L 2906 0 
L 2906 525 
Q 2725 213 2448 61 
Q 2172 -91 1784 -91 
Q 1150 -91 751 415 
Q 353 922 353 1747 
Q 353 2572 751 3078 
Q 1150 3584 1784 3584 
Q 2172 3584 2448 3432 
Q 2725 3281 2906 2969 
z
M 947 1747 
Q 947 1113 1208 752 
Q 1469 391 1925 391 
Q 2381 391 2643 752 
Q 2906 1113 2906 1747 
Q 2906 2381 2643 2742 
Q 2381 3103 1925 3103 
Q 1469 3103 1208 2742 
Q 947 2381 947 1747 
z
" transform="scale(0.015625)"/>
       <path id="DejaVuSans-5d" d="M 1947 4863 
L 1947 -844 
L 622 -844 
L 622 -397 
L 1369 -397 
L 1369 4416 
L 622 4416 
L 622 4863 
L 1947 4863 
z
" transform="scale(0.015625)"/>
      </defs>
      <use xlink:href="#DejaVuSans-73"/>
      <use xlink:href="#DejaVuSans-6c" transform="translate(52.099609 0)"/>
      <use xlink:href="#DejaVuSans-69" transform="translate(79.882812 0)"/>
      <use xlink:href="#DejaVuSans-70" transform="translate(107.666016 0)"/>
      <use xlink:href="#DejaVuSans-20" transform="translate(171.142578 0)"/>
      <use xlink:href="#DejaVuSans-61" transform="translate(202.929688 0)"/>
      <use xlink:href="#DejaVuSans-6e" transform="translate(264.208984 0)"/>
      <use xlink:href="#DejaVuSans-67" transform="translate(327.587891 0)"/>
      <use xlink:href="#DejaVuSans-6c" transform="translate(391.064453 0)"/>
      <use xlink:href="#DejaVuSans-65" transform="translate(418.847656 0)"/>
      <use xlink:href="#DejaVuSans-20" transform="translate(480.371094 0)"/>
      <use xlink:href="#DejaVuSans-5b" transform="translate(512.158203 0)"/>
      <use xlink:href="#DejaVuSans-64" transform="translate(551.171875 0)"/>
      <use xlink:href="#DejaVuSans-65" transform="translate(614.648438 0)"/>
      <use xlink:href="#DejaVuSans-67" transform="translate(676.171875 0)"/>
      <use xlink:href="#DejaVuSans-5d" transform="translate(739.648438 0)"/>
     </g>
    </g>
   </g>
   <g id="matplotlib.axis_2">
    <g id="ytick_1">
     <g id="line2d_11">
      <path d="M 46.64 228.074683 
L 315.495 228.074683 
" clip-path="url(#p1bfa4ab238)" style="fill: none; stroke: #b0b0b0; stroke-opacity: 0.3; stroke-width: 0.8; stroke-linecap: square"/>
     </g>
     <g id="line2d_12">
      <defs>
       <path id="m1736b83bca" d="M 0 0 
L -3.5 0 
" style="stroke: #000000; stroke-width: 0.8"/>
      </defs>
      <g>
       <use xlink:href="#m1736b83bca" x="46.64" y="228.074683" style="stroke: #000000; stroke-width: 0.8"/>
      </g>
     </g>
     <g id="text_7">
      <!-- −6 -->
      <g transform="translate(24.897813 231.873902) scale(0.1 -0.1)">
       <defs>
        <path id="DejaVuSans-36" d="M 2113 2584 
Q 1688 2584 1439 2293 
Q 1191 2003 1191 1497 
Q 1191 994 1439 701 
Q 1688 409 2113 409 
Q 2538 409 2786 701 
Q 3034 994 3034 1497 
Q 3034 2003 2786 2293 
Q 2538 2584 2113 2584 
z
M 3366 4563 
L 3366 3988 
Q 3128 4100 2886 4159 
Q 2644 4219 2406 4219 
Q 1781 4219 1451 3797 
Q 1122 3375 1075 2522 
Q 1259 2794 1537 2939 
Q 1816 3084 2150 3084 
Q 2853 3084 3261 2657 
Q 3669 2231 3669 1497 
Q 3669 778 3244 343 
Q 2819 -91 2113 -91 
Q 1303 -91 875 529 
Q 447 1150 447 2328 
Q 447 3434 972 4092 
Q 1497 4750 2381 4750 
Q 2619 4750 2861 4703 
Q 3103 4656 3366 4563 
z
" transform="scale(0.015625)"/>
       </defs>
       <use xlink:href="#DejaVuSans-2212"/>
       <use xlink:href="#DejaVuSans-36" transform="translate(83.789062 0)"/>
      </g>
     </g>
    </g>
    <g id="ytick_2">
     <g id="line2d_13">
      <path d="M 46.64 195.969776 
L 315.495 195.969776 
" clip-path="url(#p1bfa4ab238)" style="fill: none; stroke: #b0b0b0; stroke-opacity: 0.3; stroke-width: 0.8; stroke-linecap: square"/>
     </g>
     <g id="line2d_14">
      <g>
       <use xlink:href="#m1736b83bca" x="46.64" y="195.969776" style="stroke: #000000; stroke-width: 0.8"/>
      </g>
     </g>
     <g id="text_8">
      <!-- −4 -->
      <g transform="translate(24.897813 199.768995) scale(0.1 -0.1)">
       <defs>
        <path id="DejaVuSans-34" d="M 2419 4116 
L 825 1625 
L 2419 1625 
L 2419 4116 
z
M 2253 4666 
L 3047 4666 
L 3047 1625 
L 3713 1625 
L 3713 1100 
L 3047 1100 
L 3047 0 
L 2419 0 
L 2419 1100 
L 313 1100 
L 313 1709 
L 2253 4666 
z
" transform="scale(0.015625)"/>
       </defs>
       <use xlink:href="#DejaVuSans-2212"/>
       <use xlink:href="#DejaVuSans-34" transform="translate(83.789062 0)"/>
      </g>
     </g>
    </g>
    <g id="ytick_3">
     <g id="line2d_15">
      <path d="M 46.64 163.86487 
L 315.495 163.86487 
" clip-path="url(#p1bfa4ab238)" style="fill: none; stroke: #b0b0b0; stroke-opacity: 0.3; stroke-width: 0.8; stroke-linecap: square"/>
     </g>
     <g id="line2d_16">
      <g>
       <use xlink:href="#m1736b83bca" x="46.64" y="163.86487" style="stroke: #000000; stroke-width: 0.8"/>
      </g>
     </g>
     <g id="text_9">
      <!-- −2 -->
      <g transform="translate(24.897813 167.664089) scale(0.1 -0.1)">
       <defs>
        <path id="DejaVuSans-32" d="M 1228 531 
L 3431 531 
L 3431 0 
L 469 0 
L 469 531 
Q 828 903 1448 1529 
Q 2069 2156 2228 2338 
Q 2531 2678 2651 2914 
Q 2772 3150 2772 3378 
Q 2772 3750 2511 3984 
Q 2250 4219 1831 4219 
Q 1534 4219 1204 4116 
Q 875 4013 500 3803 
L 500 4441 
Q 881 4594 1212 4672 
Q 1544 4750 1819 4750 
Q 2544 4750 2975 4387 
Q 3406 4025 3406 3419 
Q 3406 3131 3298 2873 
Q 3191 2616 2906 2266 
Q 2828 2175 2409 1742 
Q 1991 1309 1228 531 
z
" transform="scale(0.015625)"/>
       </defs>
       <use xlink:href="#DejaVuSans-2212"/>
       <use xlink:href="#DejaVuSans-32" transform="translate(83.789062 0)"/>
      </g>
     </g>
    </g>
    <g id="ytick_4">
     <g id="line2d_17">
      <path d="M 46.64 131.759963 
L 315.495 131.759963 
" clip-path="url(#p1bfa4ab238)" style="fill: none; stroke: #b0b0b0; stroke-opacity: 0.3; stroke-width: 0.8; stroke-linecap: square"/>
     </g>
     <g id="line2d_18">
      <g>
       <use xlink:href="#m1736b83bca" x="46.64" y="131.759963" style="stroke: #000000; stroke-width: 0.8"/>
      </g>
     </g>
     <g id="text_10">
      <!-- 0 -->
      <g transform="translate(33.2775 135.559182) scale(0.1 -0.1)">
       <use xlink:href="#DejaVuSans-30"/>
      </g>
     </g>
    </g>
    <g id="ytick_5">
     <g id="line2d_19">
      <path d="M 46.64 99.655057 
L 315.495 99.655057 
" clip-path="url(#p1bfa4ab238)" style="fill: none; stroke: #b0b0b0; stroke-opacity: 0.3; stroke-width: 0.8; stroke-linecap: square"/>
     </g>
     <g id="line2d_20">
      <g>
       <use xlink:href="#m1736b83bca" x="46.64" y="99.655057" style="stroke: #000000; stroke-width: 0.8"/>
      </g>
     </g>
     <g id="text_11">
      <!-- 2 -->
      <g transform="translate(33.2775 103.454276) scale(0.1 -0.1)">
       <use xlink:href="#DejaVuSans-32"/>
      </g>
     </g>
    </g>
    <g id="ytick_6">
     <g id="line2d_21">
      <path d="M 46.64 67.55015 
L 315.495 67.55015 
" clip-path="url(#p1bfa4ab238)" style="fill: none; stroke: #b0b0b0; stroke-opacity: 0.3; stroke-width: 0.8; stroke-linecap: square"/>
     </g>
     <g id="line2d_22">
      <g>
       <use xlink:href="#m1736b83bca" x="46.64" y="67.55015" style="stroke: #000000; stroke-width: 0.8"/>
      </g>
     </g>
     <g id="text_12">
      <!-- 4 -->
      <g transform="translate(33.2775 71.349369) scale(0.1 -0.1)">
       <use xlink:href="#DejaVuSans-34"/>
      </g>
     </g>
    </g>
    <g id="ytick_7">
     <g id="line2d_23">
      <path d="M 46.64 35.445244 
L 315.495 35.445244 
" clip-path="url(#p1bfa4ab238)" style="fill: none; stroke: #b0b0b0; stroke-opacity: 0.3; stroke-width: 0.8; stroke-linecap: square"/>
     </g>
     <g id="line2d_24">
      <g>
       <use xlink:href="#m1736b83bca" x="46.64" y="35.445244" style="stroke: #000000; stroke-width: 0.8"/>
      </g>
     </g>
     <g id="text_13">
      <!-- 6 -->
      <g transform="translate(33.2775 39.244463) scale(0.1 -0.1)">
       <use xlink:href="#DejaVuSans-36"/>
      </g>
     </g>
    </g>
    <g id="text_14">
     <!-- lateral force Fy [kN] -->
     <g transform="translate(18.818125 181.030276) rotate(-90) scale(0.1 -0.1)">
      <defs>
       <path id="DejaVuSans-74" d="M 1172 4494 
L 1172 3500 
L 2356 3500 
L 2356 3053 
L 1172 3053 
L 1172 1153 
Q 1172 725 1289 603 
Q 1406 481 1766 481 
L 2356 481 
L 2356 0 
L 1766 0 
Q 1100 0 847 248 
Q 594 497 594 1153 
L 594 3053 
L 172 3053 
L 172 3500 
L 594 3500 
L 594 4494 
L 1172 4494 
z
" transform="scale(0.015625)"/>
       <path id="DejaVuSans-72" d="M 2631 2963 
Q 2534 3019 2420 3045 
Q 2306 3072 2169 3072 
Q 1681 3072 1420 2755 
Q 1159 2438 1159 1844 
L 1159 0 
L 581 0 
L 581 3500 
L 1159 3500 
L 1159 2956 
Q 1341 3275 1631 3429 
Q 1922 3584 2338 3584 
Q 2397 3584 2469 3576 
Q 2541 3569 2628 3553 
L 2631 2963 
z
" transform="scale(0.015625)"/>
       <path id="DejaVuSans-66" d="M 2375 4863 
L 2375 4384 
L 1825 4384 
Q 1516 4384 1395 4259 
Q 1275 4134 1275 3809 
L 1275 3500 
L 2222 3500 
L 2222 3053 
L 1275 3053 
L 1275 0 
L 697 0 
L 697 3053 
L 147 3053 
L 147 3500 
L 697 3500 
L 697 3744 
Q 697 4328 969 4595 
Q 1241 4863 1831 4863 
L 2375 4863 
z
" transform="scale(0.015625)"/>
       <path id="DejaVuSans-6f" d="M 1959 3097 
Q 1497 3097 1228 2736 
Q 959 2375 959 1747 
Q 959 1119 1226 758 
Q 1494 397 1959 397 
Q 2419 397 2687 759 
Q 2956 1122 2956 1747 
Q 2956 2369 2687 2733 
Q 2419 3097 1959 3097 
z
M 1959 3584 
Q 2709 3584 3137 3096 
Q 3566 2609 3566 1747 
Q 3566 888 3137 398 
Q 2709 -91 1959 -91 
Q 1206 -91 779 398 
Q 353 888 353 1747 
Q 353 2609 779 3096 
Q 1206 3584 1959 3584 
z
" transform="scale(0.015625)"/>
       <path id="DejaVuSans-63" d="M 3122 3366 
L 3122 2828 
Q 2878 2963 2633 3030 
Q 2388 3097 2138 3097 
Q 1578 3097 1268 2742 
Q 959 2388 959 1747 
Q 959 1106 1268 751 
Q 1578 397 2138 397 
Q 2388 397 2633 464 
Q 2878 531 3122 666 
L 3122 134 
Q 2881 22 2623 -34 
Q 2366 -91 2075 -91 
Q 1284 -91 818 406 
Q 353 903 353 1747 
Q 353 2603 823 3093 
Q 1294 3584 2113 3584 
Q 2378 3584 2631 3529 
Q 2884 3475 3122 3366 
z
" transform="scale(0.015625)"/>
       <path id="DejaVuSans-46" d="M 628 4666 
L 3309 4666 
L 3309 4134 
L 1259 4134 
L 1259 2759 
L 3109 2759 
L 3109 2228 
L 1259 2228 
L 1259 0 
L 628 0 
L 628 4666 
z
" transform="scale(0.015625)"/>
       <path id="DejaVuSans-79" d="M 2059 -325 
Q 1816 -950 1584 -1140 
Q 1353 -1331 966 -1331 
L 506 -1331 
L 506 -850 
L 844 -850 
Q 1081 -850 1212 -737 
Q 1344 -625 1503 -206 
L 1606 56 
L 191 3500 
L 800 3500 
L 1894 763 
L 2988 3500 
L 3597 3500 
L 2059 -325 
z
" transform="scale(0.015625)"/>
       <path id="DejaVuSans-6b" d="M 581 4863 
L 1159 4863 
L 1159 1991 
L 2875 3500 
L 3609 3500 
L 1753 1863 
L 3688 0 
L 2938 0 
L 1159 1709 
L 1159 0 
L 581 0 
L 581 4863 
z
" transform="scale(0.015625)"/>
       <path id="DejaVuSans-4e" d="M 628 4666 
L 1478 4666 
L 3547 763 
L 3547 4666 
L 4159 4666 
L 4159 0 
L 3309 0 
L 1241 3903 
L 1241 0 
L 628 0 
L 628 4666 
z
" transform="scale(0.015625)"/>
      </defs>
      <use xlink:href="#DejaVuSans-6c"/>
      <use xlink:href="#DejaVuSans-61" transform="translate(27.783203 0)"/>
      <use xlink:href="#DejaVuSans-74" transform="translate(89.0625 0)"/>
      <use xlink:href="#DejaVuSans-65" transform="translate(128.271484 0)"/>
      <use xlink:href="#DejaVuSans-72" transform="translate(189.794922 0)"/>
      <use xlink:href="#DejaVuSans-61" transform="translate(230.908203 0)"/>
      <use xlink:href="#DejaVuSans-6c" transform="translate(292.1875 0)"/>
      <use xlink:href="#DejaVuSans-20" transform="translate(319.970703 0)"/>
      <use xlink:href="#DejaVuSans-66" transform="translate(351.757812 0)"/>
      <use xlink:href="#DejaVuSans-6f" transform="translate(386.962891 0)"/>
      <use xlink:href="#DejaVuSans-72" transform="translate(448.144531 0)"/>
      <use xlink:href="#DejaVuSans-63" transform="translate(487.007812 0)"/>
      <use xlink:href="#DejaVuSans-65" transform="translate(541.988281 0)"/>
      <use xlink:href="#DejaVuSans-20" transform="translate(603.511719 0)"/>
      <use xlink:href="#DejaVuSans-46" transform="translate(635.298828 0)"/>
      <use xlink:href="#DejaVuSans-79" transform="translate(683.693359 0)"/>
      <use xlink:href="#DejaVuSans-20" transform="translate(742.873047 0)"/>
      <use xlink:href="#DejaVuSans-5b" transform="translate(774.660156 0)"/>
      <use xlink:href="#DejaVuSans-6b" transform="translate(813.673828 0)"/>
      <use xlink:href="#DejaVuSans-4e" transform="translate(871.583984 0)"/>
      <use xlink:href="#DejaVuSans-5d" transform="translate(946.388672 0)"/>
     </g>
    </g>
   </g>
   <g id="line2d_25">
    <path d="M 58.860682 162.259625 
L 130.530846 162.162489 
L 135.43137 161.887848 
L 139.719328 161.413555 
L 143.394721 160.778072 
L 146.457549 160.053888 
L 149.520377 159.126049 
L 152.583204 157.96955 
L 155.646032 156.559417 
L 158.708859 154.8707 
L 161.771687 152.878455 
L 164.834514 150.557733 
L 167.284776 148.447872 
L 169.735038 146.099005 
L 172.1853 143.498314 
L 174.635562 140.632957 
L 177.085824 137.490065 
L 180.148652 133.151511 
L 184.43661 126.86046 
L 187.499438 122.88697 
L 190.562265 119.34713 
L 193.625093 116.215812 
L 196.68792 113.467953 
L 199.750748 111.078539 
L 202.813575 109.022595 
L 205.876403 107.275168 
L 208.93923 105.811314 
L 212.002058 104.606085 
L 215.064886 103.634514 
L 218.127713 102.871601 
L 221.803106 102.196267 
L 225.478499 101.741934 
L 229.766458 101.433081 
L 235.279547 101.278945 
L 248.143423 101.260302 
L 303.274318 101.260302 
L 303.274318 101.260302 
" clip-path="url(#p1bfa4ab238)" style="fill: none; stroke: #1f77b4; stroke-width: 1.3; stroke-linecap: square"/>
   </g>
   <g id="line2d_26">
    <path d="M 58.860682 192.759286 
L 98.064874 192.651765 
L 104.190529 192.364146 
L 109.091053 191.928596 
L 113.379012 191.353708 
L 117.66697 190.562207 
L 121.954929 189.52024 
L 125.630322 188.402277 
L 129.305715 187.054515 
L 132.981108 185.455964 
L 136.656501 183.585698 
L 140.331894 181.422836 
L 143.394721 179.381897 
L 146.457549 177.111225 
L 149.520377 174.598761 
L 152.583204 171.832435 
L 155.646032 168.800163 
L 158.708859 165.489842 
L 161.771687 161.889339 
L 164.834514 157.986487 
L 167.897342 153.769077 
L 170.960169 149.224852 
L 174.022997 144.341501 
L 177.69839 138.016408 
L 181.373783 131.176595 
L 185.049176 124.413275 
L 188.724569 118.174032 
L 192.399962 112.437381 
L 196.075355 107.181972 
L 199.138182 103.154764 
L 202.20101 99.434783 
L 205.263837 96.009847 
L 208.326665 92.86781 
L 211.389492 89.996557 
L 214.45232 87.383996 
L 217.515148 85.018055 
L 220.577975 82.88667 
L 224.253368 80.621642 
L 227.928761 78.656162 
L 231.604154 76.969362 
L 235.279547 75.540333 
L 238.95494 74.348107 
L 242.630333 73.371642 
L 246.918292 72.47693 
L 251.20625 71.813369 
L 256.106774 71.294431 
L 261.619864 70.954637 
L 268.358084 70.786196 
L 281.834526 70.760641 
L 303.274318 70.760641 
L 303.274318 70.760641 
" clip-path="url(#p1bfa4ab238)" style="fill: none; stroke: #ff7f0e; stroke-width: 1.3; stroke-linecap: square"/>
   </g>
   <g id="line2d_27">
    <path d="M 58.860682 222.559997 
L 65.598902 221.955437 
L 71.724557 221.172266 
L 77.237647 220.246808 
L 82.750737 219.08595 
L 87.651261 217.836172 
L 92.551785 216.363167 
L 97.452309 214.649699 
L 102.352833 212.678666 
L 106.640791 210.729372 
L 110.92875 208.55855 
L 115.216708 206.154909 
L 119.504667 203.507185 
L 123.792625 200.604125 
L 128.080584 197.43447 
L 132.368542 193.98695 
L 136.656501 190.250265 
L 140.944459 186.213074 
L 145.232418 181.863986 
L 149.520377 177.191541 
L 153.808335 172.184204 
L 158.096294 166.830349 
L 162.384252 161.118249 
L 166.672211 155.036061 
L 170.960169 148.571813 
L 175.248128 141.713397 
L 179.536086 134.448548 
L 186.886872 121.80653 
L 191.174831 114.948114 
L 195.462789 108.483866 
L 199.750748 102.401677 
L 204.038706 96.689577 
L 208.326665 91.335723 
L 212.614623 86.328386 
L 216.902582 81.655941 
L 221.190541 77.306852 
L 225.478499 73.269662 
L 229.766458 69.532976 
L 234.054416 66.085456 
L 238.342375 62.915802 
L 242.630333 60.012741 
L 246.918292 57.365018 
L 251.20625 54.961377 
L 255.494209 52.790554 
L 259.782167 50.841261 
L 264.682691 48.870228 
L 269.583215 47.156759 
L 274.483739 45.683755 
L 279.384263 44.433977 
L 284.897353 43.273119 
L 290.410443 42.347661 
L 296.536098 41.564489 
L 302.661753 41.004971 
L 303.274318 40.95993 
L 303.274318 40.95993 
" clip-path="url(#p1bfa4ab238)" style="fill: none; stroke: #2ca02c; stroke-width: 1.3; stroke-linecap: square"/>
   </g>
   <g id="line2d_28">
    <defs>
     <path id="m3328283d7d" d="M 0 -5 
L -1.12257 -1.545085 
L -4.755283 -1.545085 
L -1.816356 0.59017 
L -2.938926 4.045085 
L -0 1.90983 
L 2.938926 4.045085 
L 1.816356 0.59017 
L 4.755283 -1.545085 
L 1.12257 -1.545085 
z
" style="stroke: #000000; stroke-linejoin: bevel"/>
    </defs>
    <g clip-path="url(#p1bfa4ab238)">
     <use xlink:href="#m3328283d7d" x="185.866367" y="122.970224" style="stroke: #000000; stroke-linejoin: bevel"/>
    </g>
   </g>
   <g id="line2d_29">
    <path d="M 46.64 131.759963 
L 315.495 131.759963 
" clip-path="url(#p1bfa4ab238)" style="fill: none; stroke: #000000; stroke-width: 0.4; stroke-linecap: square"/>
   </g>
   <g id="patch_3">
    <path d="M 46.64 231.64 
L 46.64 31.879927 
" style="fill: none; stroke: #000000; stroke-width: 0.8; stroke-linejoin: miter; stroke-linecap: square"/>
   </g>
   <g id="patch_4">
    <path d="M 315.495 231.64 
L 315.495 31.879927 
" style="fill: none; stroke: #000000; stroke-width: 0.8; stroke-linejoin: miter; stroke-linecap: square"/>
   </g>
   <g id="patch_5">
    <path d="M 46.64 231.64 
L 315.495 231.64 
" style="fill: none; stroke: #000000; stroke-width: 0.8; stroke-linejoin: miter; stroke-linecap: square"/>
   </g>
   <g id="patch_6">
    <path d="M 46.64 31.879927 
L 315.495 31.879927 
" style="fill: none; stroke: #000000; stroke-width: 0.8; stroke-linejoin: miter; stroke-linecap: square"/>
   </g>
   <g id="legend_1">
    <g id="patch_7">
     <path d="M 52.24 85.249927 
L 165.6775 85.249927 
Q 167.2775 85.249927 167.2775 83.649927 
L 167.2775 37.479927 
Q 167.2775 35.879927 165.6775 35.879927 
L 52.24 35.879927 
Q 50.64 35.879927 50.64 37.479927 
L 50.64 83.649927 
Q 50.64 85.249927 52.24 85.249927 
z
" style="fill: #ffffff; opacity: 0.8; stroke: #cccccc; stroke-linejoin: miter"/>
    </g>
    <g id="line2d_30">
     <path d="M 53.84 42.358677 
L 61.84 42.358677 
L 69.84 42.358677 
" style="fill: none; stroke: #1f77b4; stroke-width: 1.3; stroke-linecap: square"/>
    </g>
    <g id="text_15">
     <!-- Fz = 2 kN -->
     <g transform="translate(76.24 45.158677) scale(0.08 -0.08)">
      <defs>
       <path id="DejaVuSans-7a" d="M 353 3500 
L 3084 3500 
L 3084 2975 
L 922 459 
L 3084 459 
L 3084 0 
L 275 0 
L 275 525 
L 2438 3041 
L 353 3041 
L 353 3500 
z
" transform="scale(0.015625)"/>
       <path id="DejaVuSans-3d" d="M 678 2906 
L 4684 2906 
L 4684 2381 
L 678 2381 
L 678 2906 
z
M 678 1631 
L 4684 1631 
L 4684 1100 
L 678 1100 
L 678 1631 
z
" transform="scale(0.015625)"/>
      </defs>
      <use xlink:href="#DejaVuSans-46"/>
      <use xlink:href="#DejaVuSans-7a" transform="translate(57.519531 0)"/>
      <use xlink:href="#DejaVuSans-20" transform="translate(110.009766 0)"/>
      <use xlink:href="#DejaVuSans-3d" transform="translate(141.796875 0)"/>
      <use xlink:href="#DejaVuSans-20" transform="translate(225.585938 0)"/>
      <use xlink:href="#DejaVuSans-32" transform="translate(257.373047 0)"/>
      <use xlink:href="#DejaVuSans-20" transform="translate(320.996094 0)"/>
      <use xlink:href="#DejaVuSans-6b" transform="translate(352.783203 0)"/>
      <use xlink:href="#DejaVuSans-4e" transform="translate(410.693359 0)"/>
     </g>
    </g>
    <g id="line2d_31">
     <path d="M 53.84 54.101177 
L 61.84 54.101177 
L 69.84 54.101177 
" style="fill: none; stroke: #ff7f0e; stroke-width: 1.3; stroke-linecap: square"/>
    </g>
    <g id="text_16">
     <!-- Fz = 4 kN -->
     <g transform="translate(76.24 56.901177) scale(0.08 -0.08)">
      <use xlink:href="#DejaVuSans-46"/>
      <use xlink:href="#DejaVuSans-7a" transform="translate(57.519531 0)"/>
      <use xlink:href="#DejaVuSans-20" transform="translate(110.009766 0)"/>
      <use xlink:href="#DejaVuSans-3d" transform="translate(141.796875 0)"/>
      <use xlink:href="#DejaVuSans-20" transform="translate(225.585938 0)"/>
      <use xlink:href="#DejaVuSans-34" transform="translate(257.373047 0)"/>
      <use xlink:href="#DejaVuSans-20" transform="translate(320.996094 0)"/>
      <use xlink:href="#DejaVuSans-6b" transform="translate(352.783203 0)"/>
      <use xlink:href="#DejaVuSans-4e" transform="translate(410.693359 0)"/>
     </g>
    </g>
    <g id="line2d_32">
     <path d="M 53.84 65.843677 
L 61.84 65.843677 
L 69.84 65.843677 
" style="fill: none; stroke: #2ca02c; stroke-width: 1.3; stroke-linecap: square"/>
    </g>
    <g id="text_17">
     <!-- Fz = 6 kN -->
     <g transform="translate(76.24 68.643677) scale(0.08 -0.08)">
      <use xlink:href="#DejaVuSans-46"/>
      <use xlink:href="#DejaVuSans-7a" transform="translate(57.519531 0)"/>
      <use xlink:href="#DejaVuSans-20" transform="translate(110.009766 0)"/>
      <use xlink:href="#DejaVuSans-3d" transform="translate(141.796875 0)"/>
      <use xlink:href="#DejaVuSans-20" transform="translate(225.585938 0)"/>
      <use xlink:href="#DejaVuSans-36" transform="translate(257.373047 0)"/>
      <use xlink:href="#DejaVuSans-20" transform="translate(320.996094 0)"/>
      <use xlink:href="#DejaVuSans-6b" transform="translate(352.783203 0)"/>
      <use xlink:href="#DejaVuSans-4e" transform="translate(410.693359 0)"/>
     </g>
    </g>
    <g id="line2d_33">
     <g>
      <use xlink:href="#m3328283d7d" x="61.84" y="77.586177" style="stroke: #000000; stroke-linejoin: bevel"/>
     </g>
    </g>
    <g id="text_18">
     <!-- Modelica steady state -->
     <g transform="translate(76.24 80.386177) scale(0.08 -0.08)">
      <defs>
       <path id="DejaVuSans-4d" d="M 628 4666 
L 1569 4666 
L 2759 1491 
L 3956 4666 
L 4897 4666 
L 4897 0 
L 4281 0 
L 4281 4097 
L 3078 897 
L 2444 897 
L 1241 4097 
L 1241 0 
L 628 0 
L 628 4666 
z
" transform="scale(0.015625)"/>
      </defs>
      <use xlink:href="#DejaVuSans-4d"/>
      <use xlink:href="#DejaVuSans-6f" transform="translate(86.279297 0)"/>
      <use xlink:href="#DejaVuSans-64" transform="translate(147.460938 0)"/>
      <use xlink:href="#DejaVuSans-65" transform="translate(210.9375 0)"/>
      <use xlink:href="#DejaVuSans-6c" transform="translate(272.460938 0)"/>
      <use xlink:href="#DejaVuSans-69" transform="translate(300.244141 0)"/>
      <use xlink:href="#DejaVuSans-63" transform="translate(328.027344 0)"/>
      <use xlink:href="#DejaVuSans-61" transform="translate(383.007812 0)"/>
      <use xlink:href="#DejaVuSans-20" transform="translate(444.287109 0)"/>
      <use xlink:href="#DejaVuSans-73" transform="translate(476.074219 0)"/>
      <use xlink:href="#DejaVuSans-74" transform="translate(528.173828 0)"/>
      <use xlink:href="#DejaVuSans-65" transform="translate(567.382812 0)"/>
      <use xlink:href="#DejaVuSans-61" transform="translate(628.90625 0)"/>
      <use xlink:href="#DejaVuSans-64" transform="translate(690.185547 0)"/>
      <use xlink:href="#DejaVuSans-79" transform="translate(753.662109 0)"/>
      <use xlink:href="#DejaVuSans-20" transform="translate(812.841797 0)"/>
      <use xlink:href="#DejaVuSans-73" transform="translate(844.628906 0)"/>
      <use xlink:href="#DejaVuSans-74" transform="translate(896.728516 0)"/>
      <use xlink:href="#DejaVuSans-61" transform="translate(935.9375 0)"/>
      <use xlink:href="#DejaVuSans-74" transform="translate(997.216797 0)"/>
      <use xlink:href="#DejaVuSans-65" transform="translate(1036.425781 0)"/>
     </g>
    </g>
   </g>
  </g>
  <g id="axes_2">
   <g id="patch_8">
    <path d="M 368.345 231.64 
L 637.2 231.64 
L 637.2 31.879927 
L 368.345 31.879927 
z
" style="fill: #ffffff"/>
   </g>
   <g id="matplotlib.axis_3">
    <g id="xtick_6">
     <g id="line2d_34">
      <path d="M 400.933485 231.64 
L 400.933485 31.879927 
" clip-path="url(#p97f953b412)" style="fill: none; stroke: #b0b0b0; stroke-opacity: 0.3; stroke-width: 0.8; stroke-linecap: square"/>
     </g>
     <g id="line2d_35">
      <g>
       <use xlink:href="#m5f6d71f30d" x="400.933485" y="231.64" style="stroke: #000000; stroke-width: 0.8"/>
      </g>
     </g>
     <g id="text_19">
      <!-- −10 -->
      <g transform="translate(390.381141 246.238437) scale(0.1 -0.1)">
       <use xlink:href="#DejaVuSans-2212"/>
       <use xlink:href="#DejaVuSans-31" transform="translate(83.789062 0)"/>
       <use xlink:href="#DejaVuSans-30" transform="translate(147.412109 0)"/>
      </g>
     </g>
    </g>
    <g id="xtick_7">
     <g id="line2d_36">
      <path d="M 451.852992 231.64 
L 451.852992 31.879927 
" clip-path="url(#p97f953b412)" style="fill: none; stroke: #b0b0b0; stroke-opacity: 0.3; stroke-width: 0.8; stroke-linecap: square"/>
     </g>
     <g id="line2d_37">
      <g>
       <use xlink:href="#m5f6d71f30d" x="451.852992" y="231.64" style="stroke: #000000; stroke-width: 0.8"/>
      </g>
     </g>
     <g id="text_20">
      <!-- −5 -->
      <g transform="translate(444.481899 246.238437) scale(0.1 -0.1)">
       <use xlink:href="#DejaVuSans-2212"/>
       <use xlink:href="#DejaVuSans-35" transform="translate(83.789062 0)"/>
      </g>
     </g>
    </g>
    <g id="xtick_8">
     <g id="line2d_38">
      <path d="M 502.7725 231.64 
L 502.7725 31.879927 
" clip-path="url(#p97f953b412)" style="fill: none; stroke: #b0b0b0; stroke-opacity: 0.3; stroke-width: 0.8; stroke-linecap: square"/>
     </g>
     <g id="line2d_39">
      <g>
       <use xlink:href="#m5f6d71f30d" x="502.7725" y="231.64" style="stroke: #000000; stroke-width: 0.8"/>
      </g>
     </g>
     <g id="text_21">
      <!-- 0 -->
      <g transform="translate(499.59125 246.238437) scale(0.1 -0.1)">
       <use xlink:href="#DejaVuSans-30"/>
      </g>
     </g>
    </g>
    <g id="xtick_9">
     <g id="line2d_40">
      <path d="M 553.692008 231.64 
L 553.692008 31.879927 
" clip-path="url(#p97f953b412)" style="fill: none; stroke: #b0b0b0; stroke-opacity: 0.3; stroke-width: 0.8; stroke-linecap: square"/>
     </g>
     <g id="line2d_41">
      <g>
       <use xlink:href="#m5f6d71f30d" x="553.692008" y="231.64" style="stroke: #000000; stroke-width: 0.8"/>
      </g>
     </g>
     <g id="text_22">
      <!-- 5 -->
      <g transform="translate(550.510758 246.238437) scale(0.1 -0.1)">
       <use xlink:href="#DejaVuSans-35"/>
      </g>
     </g>
    </g>
    <g id="xtick_10">
     <g id="line2d_42">
      <path d="M 604.611515 231.64 
L 604.611515 31.879927 
" clip-path="url(#p97f953b412)" style="fill: none; stroke: #b0b0b0; stroke-opacity: 0.3; stroke-width: 0.8; stroke-linecap: square"/>
     </g>
     <g id="line2d_43">
      <g>
       <use xlink:href="#m5f6d71f30d" x="604.611515" y="231.64" style="stroke: #000000; stroke-width: 0.8"/>
      </g>
     </g>
     <g id="text_23">
      <!-- 10 -->
      <g transform="translate(598.249015 246.238437) scale(0.1 -0.1)">
       <use xlink:href="#DejaVuSans-31"/>
       <use xlink:href="#DejaVuSans-30" transform="translate(63.623047 0)"/>
      </g>
     </g>
    </g>
    <g id="text_24">
     <!-- slip angle [deg] -->
     <g transform="translate(463.838125 259.916562) scale(0.1 -0.1)">
      <use xlink:href="#DejaVuSans-73"/>
      <use xlink:href="#DejaVuSans-6c" transform="translate(52.099609 0)"/>
      <use xlink:href="#DejaVuSans-69" transform="translate(79.882812 0)"/>
      <use xlink:href="#DejaVuSans-70" transform="translate(107.666016 0)"/>
      <use xlink:href="#DejaVuSans-20" transform="translate(171.142578 0)"/>
      <use xlink:href="#DejaVuSans-61" transform="translate(202.929688 0)"/>
      <use xlink:href="#DejaVuSans-6e" transform="translate(264.208984 0)"/>
      <use xlink:href="#DejaVuSans-67" transform="translate(327.587891 0)"/>
      <use xlink:href="#DejaVuSans-6c" transform="translate(391.064453 0)"/>
      <use xlink:href="#DejaVuSans-65" transform="translate(418.847656 0)"/>
      <use xlink:href="#DejaVuSans-20" transform="translate(480.371094 0)"/>
      <use xlink:href="#DejaVuSans-5b" transform="translate(512.158203 0)"/>
      <use xlink:href="#DejaVuSans-64" transform="translate(551.171875 0)"/>
      <use xlink:href="#DejaVuSans-65" transform="translate(614.648438 0)"/>
      <use xlink:href="#DejaVuSans-67" transform="translate(676.171875 0)"/>
      <use xlink:href="#DejaVuSans-5d" transform="translate(739.648438 0)"/>
     </g>
    </g>
   </g>
   <g id="matplotlib.axis_4">
    <g id="ytick_8">
     <g id="line2d_44">
      <path d="M 368.345 213.977524 
L 637.2 213.977524 
" clip-path="url(#p97f953b412)" style="fill: none; stroke: #b0b0b0; stroke-opacity: 0.3; stroke-width: 0.8; stroke-linecap: square"/>
     </g>
     <g id="line2d_45">
      <g>
       <use xlink:href="#m1736b83bca" x="368.345" y="213.977524" style="stroke: #000000; stroke-width: 0.8"/>
      </g>
     </g>
     <g id="text_25">
      <!-- −40 -->
      <g transform="translate(340.240312 217.776742) scale(0.1 -0.1)">
       <use xlink:href="#DejaVuSans-2212"/>
       <use xlink:href="#DejaVuSans-34" transform="translate(83.789062 0)"/>
       <use xlink:href="#DejaVuSans-30" transform="translate(147.412109 0)"/>
      </g>
     </g>
    </g>
    <g id="ytick_9">
     <g id="line2d_46">
      <path d="M 368.345 172.868743 
L 637.2 172.868743 
" clip-path="url(#p97f953b412)" style="fill: none; stroke: #b0b0b0; stroke-opacity: 0.3; stroke-width: 0.8; stroke-linecap: square"/>
     </g>
     <g id="line2d_47">
      <g>
       <use xlink:href="#m1736b83bca" x="368.345" y="172.868743" style="stroke: #000000; stroke-width: 0.8"/>
      </g>
     </g>
     <g id="text_26">
      <!-- −20 -->
      <g transform="translate(340.240312 176.667962) scale(0.1 -0.1)">
       <use xlink:href="#DejaVuSans-2212"/>
       <use xlink:href="#DejaVuSans-32" transform="translate(83.789062 0)"/>
       <use xlink:href="#DejaVuSans-30" transform="translate(147.412109 0)"/>
      </g>
     </g>
    </g>
    <g id="ytick_10">
     <g id="line2d_48">
      <path d="M 368.345 131.759963 
L 637.2 131.759963 
" clip-path="url(#p97f953b412)" style="fill: none; stroke: #b0b0b0; stroke-opacity: 0.3; stroke-width: 0.8; stroke-linecap: square"/>
     </g>
     <g id="line2d_49">
      <g>
       <use xlink:href="#m1736b83bca" x="368.345" y="131.759963" style="stroke: #000000; stroke-width: 0.8"/>
      </g>
     </g>
     <g id="text_27">
      <!-- 0 -->
      <g transform="translate(354.9825 135.559182) scale(0.1 -0.1)">
       <use xlink:href="#DejaVuSans-30"/>
      </g>
     </g>
    </g>
    <g id="ytick_11">
     <g id="line2d_50">
      <path d="M 368.345 90.651183 
L 637.2 90.651183 
" clip-path="url(#p97f953b412)" style="fill: none; stroke: #b0b0b0; stroke-opacity: 0.3; stroke-width: 0.8; stroke-linecap: square"/>
     </g>
     <g id="line2d_51">
      <g>
       <use xlink:href="#m1736b83bca" x="368.345" y="90.651183" style="stroke: #000000; stroke-width: 0.8"/>
      </g>
     </g>
     <g id="text_28">
      <!-- 20 -->
      <g transform="translate(348.62 94.450402) scale(0.1 -0.1)">
       <use xlink:href="#DejaVuSans-32"/>
       <use xlink:href="#DejaVuSans-30" transform="translate(63.623047 0)"/>
      </g>
     </g>
    </g>
    <g id="ytick_12">
     <g id="line2d_52">
      <path d="M 368.345 49.542403 
L 637.2 49.542403 
" clip-path="url(#p97f953b412)" style="fill: none; stroke: #b0b0b0; stroke-opacity: 0.3; stroke-width: 0.8; stroke-linecap: square"/>
     </g>
     <g id="line2d_53">
      <g>
       <use xlink:href="#m1736b83bca" x="368.345" y="49.542403" style="stroke: #000000; stroke-width: 0.8"/>
      </g>
     </g>
     <g id="text_29">
      <!-- 40 -->
      <g transform="translate(348.62 53.341622) scale(0.1 -0.1)">
       <use xlink:href="#DejaVuSans-34"/>
       <use xlink:href="#DejaVuSans-30" transform="translate(63.623047 0)"/>
      </g>
     </g>
    </g>
    <g id="text_30">
     <!-- aligning moment Mz [N.m] -->
     <g transform="translate(334.160625 198.489651) rotate(-90) scale(0.1 -0.1)">
      <defs>
       <path id="DejaVuSans-6d" d="M 3328 2828 
Q 3544 3216 3844 3400 
Q 4144 3584 4550 3584 
Q 5097 3584 5394 3201 
Q 5691 2819 5691 2113 
L 5691 0 
L 5113 0 
L 5113 2094 
Q 5113 2597 4934 2840 
Q 4756 3084 4391 3084 
Q 3944 3084 3684 2787 
Q 3425 2491 3425 1978 
L 3425 0 
L 2847 0 
L 2847 2094 
Q 2847 2600 2669 2842 
Q 2491 3084 2119 3084 
Q 1678 3084 1418 2786 
Q 1159 2488 1159 1978 
L 1159 0 
L 581 0 
L 581 3500 
L 1159 3500 
L 1159 2956 
Q 1356 3278 1631 3431 
Q 1906 3584 2284 3584 
Q 2666 3584 2933 3390 
Q 3200 3197 3328 2828 
z
" transform="scale(0.015625)"/>
       <path id="DejaVuSans-2e" d="M 684 794 
L 1344 794 
L 1344 0 
L 684 0 
L 684 794 
z
" transform="scale(0.015625)"/>
      </defs>
      <use xlink:href="#DejaVuSans-61"/>
      <use xlink:href="#DejaVuSans-6c" transform="translate(61.279297 0)"/>
      <use xlink:href="#DejaVuSans-69" transform="translate(89.0625 0)"/>
      <use xlink:href="#DejaVuSans-67" transform="translate(116.845703 0)"/>
      <use xlink:href="#DejaVuSans-6e" transform="translate(180.322266 0)"/>
      <use xlink:href="#DejaVuSans-69" transform="translate(243.701172 0)"/>
      <use xlink:href="#DejaVuSans-6e" transform="translate(271.484375 0)"/>
      <use xlink:href="#DejaVuSans-67" transform="translate(334.863281 0)"/>
      <use xlink:href="#DejaVuSans-20" transform="translate(398.339844 0)"/>
      <use xlink:href="#DejaVuSans-6d" transform="translate(430.126953 0)"/>
      <use xlink:href="#DejaVuSans-6f" transform="translate(527.539062 0)"/>
      <use xlink:href="#DejaVuSans-6d" transform="translate(588.720703 0)"/>
      <use xlink:href="#DejaVuSans-65" transform="translate(686.132812 0)"/>
      <use xlink:href="#DejaVuSans-6e" transform="translate(747.65625 0)"/>
      <use xlink:href="#DejaVuSans-74" transform="translate(811.035156 0)"/>
      <use xlink:href="#DejaVuSans-20" transform="translate(850.244141 0)"/>
      <use xlink:href="#DejaVuSans-4d" transform="translate(882.03125 0)"/>
      <use xlink:href="#DejaVuSans-7a" transform="translate(968.310547 0)"/>
      <use xlink:href="#DejaVuSans-20" transform="translate(1020.800781 0)"/>
      <use xlink:href="#DejaVuSans-5b" transform="translate(1052.587891 0)"/>
      <use xlink:href="#DejaVuSans-4e" transform="translate(1091.601562 0)"/>
      <use xlink:href="#DejaVuSans-2e" transform="translate(1166.40625 0)"/>
      <use xlink:href="#DejaVuSans-6d" transform="translate(1198.193359 0)"/>
      <use xlink:href="#DejaVuSans-5d" transform="translate(1295.605469 0)"/>
     </g>
    </g>
   </g>
   <g id="line2d_54">
    <path d="M 380.565682 131.759963 
L 448.560453 131.667284 
L 451.62328 131.394208 
L 454.073542 130.988665 
L 456.523804 130.387769 
L 458.974066 129.577352 
L 461.424328 128.555065 
L 464.487156 126.994686 
L 467.549983 125.16277 
L 471.837942 122.284922 
L 478.576163 117.719606 
L 481.026425 116.314495 
L 482.864121 115.444261 
L 484.701818 114.783352 
L 486.539514 114.382448 
L 487.764645 114.286289 
L 488.989776 114.346727 
L 490.214907 114.581459 
L 491.440038 115.008901 
L 492.665169 115.648186 
L 493.8903 116.519166 
L 495.115431 117.642414 
L 496.340562 119.039223 
L 497.565693 120.731611 
L 498.790824 122.74232 
L 500.015955 125.094816 
L 501.241086 127.813297 
L 503.078783 132.597239 
L 504.916479 137.113159 
L 506.14161 139.645578 
L 507.366741 141.824201 
L 508.591872 143.672861 
L 509.817003 145.214662 
L 511.042134 146.471984 
L 512.267265 147.466481 
L 513.492396 148.219087 
L 514.717527 148.750014 
L 515.942658 149.078755 
L 517.167789 149.224082 
L 518.39292 149.204054 
L 520.230617 148.901705 
L 522.068313 148.321655 
L 523.90601 147.515789 
L 526.356272 146.172932 
L 529.419099 144.207882 
L 539.832713 137.228838 
L 542.895541 135.552978 
L 545.345803 134.427547 
L 547.796065 133.510754 
L 550.246327 132.806127 
L 552.696589 132.305421 
L 555.759416 131.934528 
L 559.434809 131.773022 
L 569.848423 131.759963 
L 624.979318 131.759963 
L 624.979318 131.759963 
" clip-path="url(#p97f953b412)" style="fill: none; stroke: #1f77b4; stroke-width: 1.3; stroke-linecap: square"/>
   </g>
   <g id="line2d_55">
    <path d="M 380.565682 131.759963 
L 414.256785 131.656646 
L 417.319612 131.40158 
L 420.38244 130.915056 
L 422.832702 130.321981 
L 425.282964 129.523758 
L 427.733226 128.504097 
L 430.183488 127.252106 
L 432.63375 125.762233 
L 435.084012 124.034201 
L 437.534274 122.072957 
L 440.597101 119.309353 
L 443.659929 116.228559 
L 447.335322 112.174893 
L 451.62328 107.080709 
L 463.262025 92.969814 
L 466.324852 89.696936 
L 468.775114 87.37688 
L 471.225377 85.401026 
L 473.063073 84.191865 
L 474.90077 83.254972 
L 476.738466 82.626671 
L 477.963597 82.397878 
L 479.188728 82.334637 
L 480.413859 82.448854 
L 481.63899 82.752745 
L 482.864121 83.258831 
L 484.089252 83.979943 
L 485.314383 84.929219 
L 486.539514 86.120106 
L 487.764645 87.566364 
L 488.989776 89.282059 
L 490.214907 91.281574 
L 491.440038 93.579602 
L 493.277735 97.619269 
L 495.115431 102.416408 
L 496.953128 108.024602 
L 498.790824 114.499043 
L 500.628521 121.896546 
L 502.466217 130.275558 
L 504.916479 141.623381 
L 506.754176 149.020884 
L 508.591872 155.495325 
L 510.429569 161.103519 
L 512.267265 165.900658 
L 514.104962 169.940325 
L 515.942658 173.274498 
L 517.167789 175.130287 
L 518.39292 176.709485 
L 519.618051 178.026318 
L 520.843182 179.0947 
L 522.068313 179.928232 
L 523.293444 180.540208 
L 524.518575 180.943612 
L 525.743706 181.15112 
L 526.968837 181.1751 
L 528.193968 181.027614 
L 529.419099 180.720416 
L 531.256796 179.985119 
L 533.094492 178.953511 
L 534.932189 177.661399 
L 537.382451 175.592355 
L 539.832713 173.197894 
L 542.895541 169.856572 
L 547.183499 164.758654 
L 558.822244 150.645949 
L 562.497637 146.65174 
L 565.560464 143.631306 
L 568.623292 140.93526 
L 571.073554 139.031572 
L 573.523816 137.362819 
L 575.974078 135.932648 
L 578.42434 134.739468 
L 580.874602 133.776397 
L 583.324864 133.0312 
L 585.775126 132.486228 
L 588.837953 132.050807 
L 591.900781 131.834264 
L 596.801305 131.760064 
L 624.979318 131.759963 
L 624.979318 131.759963 
" clip-path="url(#p97f953b412)" style="fill: none; stroke: #ff7f0e; stroke-width: 1.3; stroke-linecap: square"/>
   </g>
   <g id="line2d_56">
    <path d="M 380.565682 126.478528 
L 383.628509 124.816124 
L 386.691337 122.886389 
L 389.754164 120.686918 
L 392.816992 118.219013 
L 395.879819 115.487607 
L 399.555212 111.874304 
L 403.230605 107.915277 
L 406.905999 103.638914 
L 411.193957 98.296275 
L 416.094481 91.808351 
L 422.220136 83.305609 
L 435.696577 64.468573 
L 439.984536 58.908894 
L 443.659929 54.497786 
L 446.722756 51.147723 
L 449.785584 48.159014 
L 452.235846 46.071271 
L 454.686108 44.2901 
L 456.523804 43.176723 
L 458.361501 42.271177 
L 460.199197 41.589294 
L 462.036894 41.147302 
L 463.87459 40.961823 
L 465.712287 41.049879 
L 467.549983 41.428892 
L 469.38768 42.116685 
L 471.225377 43.131485 
L 473.063073 44.491923 
L 474.90077 46.217039 
L 476.738466 48.326285 
L 478.576163 50.839524 
L 480.413859 53.777035 
L 482.251556 57.159517 
L 484.089252 61.008089 
L 485.926949 65.344297 
L 487.764645 70.190113 
L 489.602342 75.567943 
L 491.440038 81.500629 
L 493.8903 90.314289 
L 496.340562 100.212211 
L 498.790824 111.252232 
L 501.241086 123.493623 
L 506.754176 152.267695 
L 509.204438 163.307715 
L 511.6547 173.205638 
L 514.104962 182.019298 
L 516.555224 189.805107 
L 518.39292 195.003083 
L 520.230617 199.676562 
L 522.068313 203.847804 
L 523.90601 207.53864 
L 525.743706 210.770472 
L 527.581403 213.56428 
L 529.419099 215.940622 
L 531.256796 217.919638 
L 533.094492 219.521054 
L 534.932189 220.764184 
L 536.769886 221.667931 
L 538.607582 222.250792 
L 540.445279 222.53086 
L 542.282975 222.525822 
L 544.120672 222.252966 
L 545.958368 221.729183 
L 547.796065 220.970962 
L 549.633761 219.9944 
L 552.084023 218.379753 
L 554.534285 216.440935 
L 556.984547 214.212834 
L 560.047375 211.072046 
L 563.110202 207.594746 
L 566.785595 203.062047 
L 571.073554 197.40075 
L 577.199209 188.887962 
L 590.063084 170.881995 
L 594.963608 164.439371 
L 599.251567 159.147663 
L 602.92696 154.921922 
L 606.602353 151.018733 
L 610.277746 147.465316 
L 613.340574 144.786044 
L 616.403401 142.371545 
L 619.466229 140.226035 
L 622.529056 138.350078 
L 624.979318 137.041398 
L 624.979318 137.041398 
" clip-path="url(#p97f953b412)" style="fill: none; stroke: #2ca02c; stroke-width: 1.3; stroke-linecap: square"/>
   </g>
   <g id="line2d_57">
    <g clip-path="url(#p97f953b412)">
     <use xlink:href="#m3328283d7d" x="507.571367" y="152.718235" style="stroke: #000000; stroke-linejoin: bevel"/>
    </g>
   </g>
   <g id="line2d_58">
    <path d="M 368.345 131.759963 
L 637.2 131.759963 
" clip-path="url(#p97f953b412)" style="fill: none; stroke: #000000; stroke-width: 0.4; stroke-linecap: square"/>
   </g>
   <g id="patch_9">
    <path d="M 368.345 231.64 
L 368.345 31.879927 
" style="fill: none; stroke: #000000; stroke-width: 0.8; stroke-linejoin: miter; stroke-linecap: square"/>
   </g>
   <g id="patch_10">
    <path d="M 637.2 231.64 
L 637.2 31.879927 
" style="fill: none; stroke: #000000; stroke-width: 0.8; stroke-linejoin: miter; stroke-linecap: square"/>
   </g>
   <g id="patch_11">
    <path d="M 368.345 231.64 
L 637.2 231.64 
" style="fill: none; stroke: #000000; stroke-width: 0.8; stroke-linejoin: miter; stroke-linecap: square"/>
   </g>
   <g id="patch_12">
    <path d="M 368.345 31.879927 
L 637.2 31.879927 
" style="fill: none; stroke: #000000; stroke-width: 0.8; stroke-linejoin: miter; stroke-linecap: square"/>
   </g>
  </g>
  <g id="text_31">
   <!-- Brush tire model (front): saturation and aligning-moment collapse -->
   <g transform="translate(158.898438 13.070437) scale(0.1 -0.1)">
    <defs>
     <path id="DejaVuSans-42" d="M 1259 2228 
L 1259 519 
L 2272 519 
Q 2781 519 3026 730 
Q 3272 941 3272 1375 
Q 3272 1813 3026 2020 
Q 2781 2228 2272 2228 
L 1259 2228 
z
M 1259 4147 
L 1259 2741 
L 2194 2741 
Q 2656 2741 2882 2914 
Q 3109 3088 3109 3444 
Q 3109 3797 2882 3972 
Q 2656 4147 2194 4147 
L 1259 4147 
z
M 628 4666 
L 2241 4666 
Q 2963 4666 3353 4366 
Q 3744 4066 3744 3513 
Q 3744 3084 3544 2831 
Q 3344 2578 2956 2516 
Q 3422 2416 3680 2098 
Q 3938 1781 3938 1306 
Q 3938 681 3513 340 
Q 3088 0 2303 0 
L 628 0 
L 628 4666 
z
" transform="scale(0.015625)"/>
     <path id="DejaVuSans-75" d="M 544 1381 
L 544 3500 
L 1119 3500 
L 1119 1403 
Q 1119 906 1312 657 
Q 1506 409 1894 409 
Q 2359 409 2629 706 
Q 2900 1003 2900 1516 
L 2900 3500 
L 3475 3500 
L 3475 0 
L 2900 0 
L 2900 538 
Q 2691 219 2414 64 
Q 2138 -91 1772 -91 
Q 1169 -91 856 284 
Q 544 659 544 1381 
z
M 1991 3584 
L 1991 3584 
z
" transform="scale(0.015625)"/>
     <path id="DejaVuSans-68" d="M 3513 2113 
L 3513 0 
L 2938 0 
L 2938 2094 
Q 2938 2591 2744 2837 
Q 2550 3084 2163 3084 
Q 1697 3084 1428 2787 
Q 1159 2491 1159 1978 
L 1159 0 
L 581 0 
L 581 4863 
L 1159 4863 
L 1159 2956 
Q 1366 3272 1645 3428 
Q 1925 3584 2291 3584 
Q 2894 3584 3203 3211 
Q 3513 2838 3513 2113 
z
" transform="scale(0.015625)"/>
     <path id="DejaVuSans-28" d="M 1984 4856 
Q 1566 4138 1362 3434 
Q 1159 2731 1159 2009 
Q 1159 1288 1364 580 
Q 1569 -128 1984 -844 
L 1484 -844 
Q 1016 -109 783 600 
Q 550 1309 550 2009 
Q 550 2706 781 3412 
Q 1013 4119 1484 4856 
L 1984 4856 
z
" transform="scale(0.015625)"/>
     <path id="DejaVuSans-29" d="M 513 4856 
L 1013 4856 
Q 1481 4119 1714 3412 
Q 1947 2706 1947 2009 
Q 1947 1309 1714 600 
Q 1481 -109 1013 -844 
L 513 -844 
Q 928 -128 1133 580 
Q 1338 1288 1338 2009 
Q 1338 2731 1133 3434 
Q 928 4138 513 4856 
z
" transform="scale(0.015625)"/>
     <path id="DejaVuSans-3a" d="M 750 794 
L 1409 794 
L 1409 0 
L 750 0 
L 750 794 
z
M 750 3309 
L 1409 3309 
L 1409 2516 
L 750 2516 
L 750 3309 
z
" transform="scale(0.015625)"/>
     <path id="DejaVuSans-2d" d="M 313 2009 
L 1997 2009 
L 1997 1497 
L 313 1497 
L 313 2009 
z
" transform="scale(0.015625)"/>
    </defs>
    <use xlink:href="#DejaVuSans-42"/>
    <use xlink:href="#DejaVuSans-72" transform="translate(68.603516 0)"/>
    <use xlink:href="#DejaVuSans-75" transform="translate(109.716797 0)"/>
    <use xlink:href="#DejaVuSans-73" transform="translate(173.095703 0)"/>
    <use xlink:href="#DejaVuSans-68" transform="translate(225.195312 0)"/>
    <use xlink:href="#DejaVuSans-20" transform="translate(288.574219 0)"/>
    <use xlink:href="#DejaVuSans-74" transform="translate(320.361328 0)"/>
    <use xlink:href="#DejaVuSans-69" transform="translate(359.570312 0)"/>
    <use xlink:href="#DejaVuSans-72" transform="translate(387.353516 0)"/>
    <use xlink:href="#DejaVuSans-65" transform="translate(426.216797 0)"/>
    <use xlink:href="#DejaVuSans-20" transform="translate(487.740234 0)"/>
    <use xlink:href="#DejaVuSans-6d" transform="translate(519.527344 0)"/>
    <use xlink:href="#DejaVuSans-6f" transform="translate(616.939453 0)"/>
    <use xlink:href="#DejaVuSans-64" transform="translate(678.121094 0)"/>
    <use xlink:href="#DejaVuSans-65" transform="translate(741.597656 0)"/>
    <use xlink:href="#DejaVuSans-6c" transform="translate(803.121094 0)"/>
    <use xlink:href="#DejaVuSans-20" transform="translate(830.904297 0)"/>
    <use xlink:href="#DejaVuSans-28" transform="translate(862.691406 0)"/>
    <use xlink:href="#DejaVuSans-66" transform="translate(901.705078 0)"/>
    <use xlink:href="#DejaVuSans-72" transform="translate(936.910156 0)"/>
    <use xlink:href="#DejaVuSans-6f" transform="translate(975.773438 0)"/>
    <use xlink:href="#DejaVuSans-6e" transform="translate(1036.955078 0)"/>
    <use xlink:href="#DejaVuSans-74" transform="translate(1100.333984 0)"/>
    <use xlink:href="#DejaVuSans-29" transform="translate(1139.542969 0)"/>
    <use xlink:href="#DejaVuSans-3a" transform="translate(1178.556641 0)"/>
    <use xlink:href="#DejaVuSans-20" transform="translate(1212.248047 0)"/>
    <use xlink:href="#DejaVuSans-73" transform="translate(1244.035156 0)"/>
    <use xlink:href="#DejaVuSans-61" transform="translate(1296.134766 0)"/>
    <use xlink:href="#DejaVuSans-74" transform="translate(1357.414062 0)"/>
    <use xlink:href="#DejaVuSans-75" transform="translate(1396.623047 0)"/>
    <use xlink:href="#DejaVuSans-72" transform="translate(1460.001953 0)"/>
    <use xlink:href="#DejaVuSans-61" transform="translate(1501.115234 0)"/>
    <use xlink:href="#DejaVuSans-74" transform="translate(1562.394531 0)"/>
    <use xlink:href="#DejaVuSans-69" transform="translate(1601.603516 0)"/>
    <use xlink:href="#DejaVuSans-6f" transform="translate(1629.386719 0)"/>
    <use xlink:href="#DejaVuSans-6e" transform="translate(1690.568359 0)"/>
    <use xlink:href="#DejaVuSans-20" transform="translate(1753.947266 0)"/>
    <use xlink:href="#DejaVuSans-61" transform="translate(1785.734375 0)"/>
    <use xlink:href="#DejaVuSans-6e" transform="translate(1847.013672 0)"/>
    <use xlink:href="#DejaVuSans-64" transform="translate(1910.392578 0)"/>
    <use xlink:href="#DejaVuSans-20" transform="translate(1973.869141 0)"/>
    <use xlink:href="#DejaVuSans-61" transform="translate(2005.65625 0)"/>
    <use xlink:href="#DejaVuSans-6c" transform="translate(2066.935547 0)"/>
    <use xlink:href="#DejaVuSans-69" transform="translate(2094.71875 0)"/>
    <use xlink:href="#DejaVuSans-67" transform="translate(2122.501953 0)"/>
    <use xlink:href="#DejaVuSans-6e" transform="translate(2185.978516 0)"/>
    <use xlink:href="#DejaVuSans-69" transform="translate(2249.357422 0)"/>
    <use xlink:href="#DejaVuSans-6e" transform="translate(2277.140625 0)"/>
    <use xlink:href="#DejaVuSans-67" transform="translate(2340.519531 0)"/>
    <use xlink:href="#DejaVuSans-2d" transform="translate(2403.996094 0)"/>
    <use xlink:href="#DejaVuSans-6d" transform="translate(2440.080078 0)"/>
    <use xlink:href="#DejaVuSans-6f" transform="translate(2537.492188 0)"/>
    <use xlink:href="#DejaVuSans-6d" transform="translate(2598.673828 0)"/>
    <use xlink:href="#DejaVuSans-65" transform="translate(2696.085938 0)"/>
    <use xlink:href="#DejaVuSans-6e" transform="translate(2757.609375 0)"/>
    <use xlink:href="#DejaVuSans-74" transform="translate(2820.988281 0)"/>
    <use xlink:href="#DejaVuSans-20" transform="translate(2860.197266 0)"/>
    <use xlink:href="#DejaVuSans-63" transform="translate(2891.984375 0)"/>
    <use xlink:href="#DejaVuSans-6f" transform="translate(2946.964844 0)"/>
    <use xlink:href="#DejaVuSans-6c" transform="translate(3008.146484 0)"/>
    <use xlink:href="#DejaVuSans-6c" transform="translate(3035.929688 0)"/>
    <use xlink:href="#DejaVuSans-61" transform="translate(3063.712891 0)"/>
    <use xlink:href="#DejaVuSans-70" transform="translate(3124.992188 0)"/>
    <use xlink:href="#DejaVuSans-73" transform="translate(3188.46875 0)"/>
    <use xlink:href="#DejaVuSans-65" transform="translate(3240.568359 0)"/>
   </g>
  </g>
 </g>
 <defs>
  <clipPath id="p1bfa4ab238">
   <rect x="46.64" y="31.879927" width="268.855" height="199.760073"/>
  </clipPath>
  <clipPath id="p97f953b412">
   <rect x="368.345" y="31.879927" width="268.855" height="199.760073"/>
  </clipPath>
 </defs>
</svg>
