<?xml version="1.0" encoding="utf-8" standalone="no"?>
<!DOCTYPE svg PUBLIC "-//W3C//DTD SVG 1.1//EN"
  "http://www.w3.org/Graphics/SVG/1.1/DTD/svg11.dtd">
<svg xmlns:xlink="http://www.w3.org/1999/xlink" width="720pt" height="288pt" viewBox="0 0 720 288" xmlns="http://www.w3.org/2000/svg" version="1.1">
 <metadata>
  <rdf:RDF xmlns:dc="http://purl.org/dc/elements/1.1/" xmlns:cc="http://creativecommons.org/ns#" xmlns:rdf="http://www.w3.org/1999/02/22-rdf-syntax-ns#">
   <cc:Work>
    <dc:type rdf:resource="http://purl.org/dc/dcmitype/StillImage"/>
    <dc:date>2026-07-08T14:49:47.335069</dc:date>
    <dc:format>image/svg+xml</dc:format>
    <dc:creator>
     <cc:Agent>
      <dc:title>Matplotlib v3.10.8, https://matplotlib.org/</dc:title>
     </cc:Agent>
    </dc:creator>
   </cc:Work>
  </rdf:RDF>
 </metadata>
 <defs>
  <style type="text/css">*{stroke-linejoin: round; stroke-linecap: butt}</style>
 </defs>
 <g id="figure_1">
  <g id="patch_1">
   <path d="M 0 288 
L 720 288 
L 720 0 
L 0 0 
z
" style="fill: #ffffff"/>
  </g>
  <g id="axes_1">
   <g id="patch_2">
    <path d="M 56.09 246.04 
L 709.2 246.04 
L 709.2 28.37625 
L 56.09 28.37625 
z
" style="fill: #ffffff"/>
   </g>
   <g id="matplotlib.axis_1">
    <g id="xtick_1">
     <g id="line2d_1">
      <path d="M 85.776818 246.04 
L 85.776818 28.37625 
" clip-path="url(#p468c14aa88)" style="fill: none; stroke: #b0b0b0; stroke-opacity: 0.3; stroke-width: 0.8; stroke-linecap: square"/>
     </g>
     <g id="line2d_2">
      <defs>
       <path id="me1fae62116" d="M 0 0 
L 0 3.5 
" style="stroke: #000000; stroke-width: 0.8"/>
      </defs>
      <g>
       <use xlink:href="#me1fae62116" x="85.776818" y="246.04" style="stroke: #000000; stroke-width: 0.8"/>
      </g>
     </g>
     <g id="text_1">
      <!-- 0.0 -->
      <g transform="translate(77.825256 260.638438) scale(0.1 -0.1)">
       <defs>
        <path id="DejaVuSans-30" d="M 2034 4250 
Q 1547 4250 1301 3770 
Q 1056 3291 1056 2328 
Q 1056 1369 1301 889 
Q 1547 409 2034 409 
Q 2525 409 2770 889 
Q 3016 1369 3016 2328 
Q 3016 3291 2770 3770 
Q 2525 4250 2034 4250 
z
M 2034 4750 
Q 2819 4750 3233 4129 
Q 3647 3509 3647 2328 
Q 3647 1150 3233 529 
Q 2819 -91 2034 -91 
Q 1250 -91 836 529 
Q 422 1150 422 2328 
Q 422 3509 836 4129 
Q 1250 4750 2034 4750 
z
" transform="scale(0.015625)"/>
        <path id="DejaVuSans-2e" d="M 684 794 
L 1344 794 
L 1344 0 
L 684 0 
L 684 794 
z
" transform="scale(0.015625)"/>
       </defs>
       <use xlink:href="#DejaVuSans-30"/>
       <use xlink:href="#DejaVuSans-2e" transform="translate(63.623047 0)"/>
       <use xlink:href="#DejaVuSans-30" transform="translate(95.410156 0)"/>
      </g>
     </g>
    </g>
    <g id="xtick_2">
     <g id="line2d_3">
      <path d="M 213.374249 246.04 
L 213.374249 28.37625 
" clip-path="url(#p468c14aa88)" style="fill: none; stroke: #b0b0b0; stroke-opacity: 0.3; stroke-width: 0.8; stroke-linecap: square"/>
     </g>
     <g id="line2d_4">
      <g>
       <use xlink:href="#me1fae62116" x="213.374249" y="246.04" style="stroke: #000000; stroke-width: 0.8"/>
      </g>
     </g>
     <g id="text_2">
      <!-- 0.5 -->
      <g transform="translate(205.422686 260.638438) scale(0.1 -0.1)">
       <defs>
        <path id="DejaVuSans-35" d="M 691 4666 
L 3169 4666 
L 3169 4134 
L 1269 4134 
L 1269 2991 
Q 1406 3038 1543 3061 
Q 1681 3084 1819 3084 
Q 2600 3084 3056 2656 
Q 3513 2228 3513 1497 
Q 3513 744 3044 326 
Q 2575 -91 1722 -91 
Q 1428 -91 1123 -41 
Q 819 9 494 109 
L 494 744 
Q 775 591 1075 516 
Q 1375 441 1709 441 
Q 2250 441 2565 725 
Q 2881 1009 2881 1497 
Q 2881 1984 2565 2268 
Q 2250 2553 1709 2553 
Q 1456 2553 1204 2497 
Q 953 2441 691 2322 
L 691 4666 
z
" transform="scale(0.015625)"/>
       </defs>
       <use xlink:href="#DejaVuSans-30"/>
       <use xlink:href="#DejaVuSans-2e" transform="translate(63.623047 0)"/>
       <use xlink:href="#DejaVuSans-35" transform="translate(95.410156 0)"/>
      </g>
     </g>
    </g>
    <g id="xtick_3">
     <g id="line2d_5">
      <path d="M 340.971679 246.04 
L 340.971679 28.37625 
" clip-path="url(#p468c14aa88)" style="fill: none; stroke: #b0b0b0; stroke-opacity: 0.3; stroke-width: 0.8; stroke-linecap: square"/>
     </g>
     <g id="line2d_6">
      <g>
       <use xlink:href="#me1fae62116" x="340.971679" y="246.04" style="stroke: #000000; stroke-width: 0.8"/>
      </g>
     </g>
     <g id="text_3">
      <!-- 1.0 -->
      <g transform="translate(333.020117 260.638438) scale(0.1 -0.1)">
       <defs>
        <path id="DejaVuSans-31" d="M 794 531 
L 1825 531 
L 1825 4091 
L 703 3866 
L 703 4441 
L 1819 4666 
L 2450 4666 
L 2450 531 
L 3481 531 
L 3481 0 
L 794 0 
L 794 531 
z
" transform="scale(0.015625)"/>
       </defs>
       <use xlink:href="#DejaVuSans-31"/>
       <use xlink:href="#DejaVuSans-2e" transform="translate(63.623047 0)"/>
       <use xlink:href="#DejaVuSans-30" transform="translate(95.410156 0)"/>
      </g>
     </g>
    </g>
    <g id="xtick_4">
     <g id="line2d_7">
      <path d="M 468.56911 246.04 
L 468.56911 28.37625 
" clip-path="url(#p468c14aa88)" style="fill: none; stroke: #b0b0b0; stroke-opacity: 0.3; stroke-width: 0.8; stroke-linecap: square"/>
     </g>
     <g id="line2d_8">
      <g>
       <use xlink:href="#me1fae62116" x="468.56911" y="246.04" style="stroke: #000000; stroke-width: 0.8"/>
      </g>
     </g>
     <g id="text_4">
      <!-- 1.5 -->
      <g transform="translate(460.617547 260.638438) scale(0.1 -0.1)">
       <use xlink:href="#DejaVuSans-31"/>
       <use xlink:href="#DejaVuSans-2e" transform="translate(63.623047 0)"/>
       <use xlink:href="#DejaVuSans-35" transform="translate(95.410156 0)"/>
      </g>
     </g>
    </g>
    <g id="xtick_5">
     <g id="line2d_9">
      <path d="M 596.16654 246.04 
L 596.16654 28.37625 
" clip-path="url(#p468c14aa88)" style="fill: none; stroke: #b0b0b0; stroke-opacity: 0.3; stroke-width: 0.8; stroke-linecap: square"/>
     </g>
     <g id="line2d_10">
      <g>
       <use xlink:href="#me1fae62116" x="596.16654" y="246.04" style="stroke: #000000; stroke-width: 0.8"/>
      </g>
     </g>
     <g id="text_5">
      <!-- 2.0 -->
      <g transform="translate(588.214978 260.638438) scale(0.1 -0.1)">
       <defs>
        <path id="DejaVuSans-32" d="M 1228 531 
L 3431 531 
L 3431 0 
L 469 0 
L 469 531 
Q 828 903 1448 1529 
Q 2069 2156 2228 2338 
Q 2531 2678 2651 2914 
Q 2772 3150 2772 3378 
Q 2772 3750 2511 3984 
Q 2250 4219 1831 4219 
Q 1534 4219 1204 4116 
Q 875 4013 500 3803 
L 500 4441 
Q 881 4594 1212 4672 
Q 1544 4750 1819 4750 
Q 2544 4750 2975 4387 
Q 3406 4025 3406 3419 
Q 3406 3131 3298 2873 
Q 3191 2616 2906 2266 
Q 2828 2175 2409 1742 
Q 1991 1309 1228 531 
z
" transform="scale(0.015625)"/>
       </defs>
       <use xlink:href="#DejaVuSans-32"/>
       <use xlink:href="#DejaVuSans-2e" transform="translate(63.623047 0)"/>
       <use xlink:href="#DejaVuSans-30" transform="translate(95.410156 0)"/>
      </g>
     </g>
    </g>
    <g id="text_6">
     <!-- distance s [km] -->
     <g transform="translate(344.008281 274.316562) scale(0.1 -0.1)">
      <defs>
       <path id="DejaVuSans-64" d="M 2906 2969 
L 2906 4863 
L 3481 4863 
L 3481 0 
L 2906 0 
L 2906 525 
Q 2725 213 2448 61 
Q 2172 -91 1784 -91 
Q 1150 -91 751 415 
Q 353 922 353 1747 
Q 353 2572 751 3078 
Q 1150 3584 1784 3584 
Q 2172 3584 2448 3432 
Q 2725 3281 2906 2969 
z
M 947 1747 
Q 947 1113 1208 752 
Q 1469 391 1925 391 
Q 2381 391 2643 752 
Q 2906 1113 2906 1747 
Q 2906 2381 2643 2742 
Q 2381 3103 1925 3103 
Q 1469 3103 1208 2742 
Q 947 2381 947 1747 
z
" transform="scale(0.015625)"/>
       <path id="DejaVuSans-69" d="M 603 3500 
L 1178 3500 
L 1178 0 
L 603 0 
L 603 3500 
z
M 603 4863 
L 1178 4863 
L 1178 4134 
L 603 4134 
L 603 4863 
z
" transform="scale(0.015625)"/>
       <path id="DejaVuSans-73" d="M 2834 3397 
L 2834 2853 
Q 2591 2978 2328 3040 
Q 2066 3103 1784 3103 
Q 1356 3103 1142 2972 
Q 928 2841 928 2578 
Q 928 2378 1081 2264 
Q 1234 2150 1697 2047 
L 1894 2003 
Q 2506 1872 2764 1633 
Q 3022 1394 3022 966 
Q 3022 478 2636 193 
Q 2250 -91 1575 -91 
Q 1294 -91 989 -36 
Q 684 19 347 128 
L 347 722 
Q 666 556 975 473 
Q 1284 391 1588 391 
Q 1994 391 2212 530 
Q 2431 669 2431 922 
Q 2431 1156 2273 1281 
Q 2116 1406 1581 1522 
L 1381 1569 
Q 847 1681 609 1914 
Q 372 2147 372 2553 
Q 372 3047 722 3315 
Q 1072 3584 1716 3584 
Q 2034 3584 2315 3537 
Q 2597 3491 2834 3397 
z
" transform="scale(0.015625)"/>
       <path id="DejaVuSans-74" d="M 1172 4494 
L 1172 3500 
L 2356 3500 
L 2356 3053 
L 1172 3053 
L 1172 1153 
Q 1172 725 1289 603 
Q 1406 481 1766 481 
L 2356 481 
L 2356 0 
L 1766 0 
Q 1100 0 847 248 
Q 594 497 594 1153 
L 594 3053 
L 172 3053 
L 172 3500 
L 594 3500 
L 594 4494 
L 1172 4494 
z
" transform="scale(0.015625)"/>
       <path id="DejaVuSans-61" d="M 2194 1759 
Q 1497 1759 1228 1600 
Q 959 1441 959 1056 
Q 959 750 1161 570 
Q 1363 391 1709 391 
Q 2188 391 2477 730 
Q 2766 1069 2766 1631 
L 2766 1759 
L 2194 1759 
z
M 3341 1997 
L 3341 0 
L 2766 0 
L 2766 531 
Q 2569 213 2275 61 
Q 1981 -91 1556 -91 
Q 1019 -91 701 211 
Q 384 513 384 1019 
Q 384 1609 779 1909 
Q 1175 2209 1959 2209 
L 2766 2209 
L 2766 2266 
Q 2766 2663 2505 2880 
Q 2244 3097 1772 3097 
Q 1472 3097 1187 3025 
Q 903 2953 641 2809 
L 641 3341 
Q 956 3463 1253 3523 
Q 1550 3584 1831 3584 
Q 2591 3584 2966 3190 
Q 3341 2797 3341 1997 
z
" transform="scale(0.015625)"/>
       <path id="DejaVuSans-6e" d="M 3513 2113 
L 3513 0 
L 2938 0 
L 2938 2094 
Q 2938 2591 2744 2837 
Q 2550 3084 2163 3084 
Q 1697 3084 1428 2787 
Q 1159 2491 1159 1978 
L 1159 0 
L 581 0 
L 581 3500 
L 1159 3500 
L 1159 2956 
Q 1366 3272 1645 3428 
Q 1925 3584 2291 3584 
Q 2894 3584 3203 3211 
Q 3513 2838 3513 2113 
z
" transform="scale(0.015625)"/>
       <path id="DejaVuSans-63" d="M 3122 3366 
L 3122 2828 
Q 2878 2963 2633 3030 
Q 2388 3097 2138 3097 
Q 1578 3097 1268 2742 
Q 959 2388 959 1747 
Q 959 1106 1268 751 
Q 1578 397 2138 397 
Q 2388 397 2633 464 
Q 2878 531 3122 666 
L 3122 134 
Q 2881 22 2623 -34 
Q 2366 -91 2075 -91 
Q 1284 -91 818 406 
Q 353 903 353 1747 
Q 353 2603 823 3093 
Q 1294 3584 2113 3584 
Q 2378 3584 2631 3529 
Q 2884 3475 3122 3366 
z
" transform="scale(0.015625)"/>
       <path id="DejaVuSans-65" d="M 3597 1894 
L 3597 1613 
L 953 1613 
Q 991 1019 1311 708 
Q 1631 397 2203 397 
Q 2534 397 2845 478 
Q 3156 559 3463 722 
L 3463 178 
Q 3153 47 2828 -22 
Q 2503 -91 2169 -91 
Q 1331 -91 842 396 
Q 353 884 353 1716 
Q 353 2575 817 3079 
Q 1281 3584 2069 3584 
Q 2775 3584 3186 3129 
Q 3597 2675 3597 1894 
z
M 3022 2063 
Q 3016 2534 2758 2815 
Q 2500 3097 2075 3097 
Q 1594 3097 1305 2825 
Q 1016 2553 972 2059 
L 3022 2063 
z
" transform="scale(0.015625)"/>
       <path id="DejaVuSans-20" transform="scale(0.015625)"/>
       <path id="DejaVuSans-5b" d="M 550 4863 
L 1875 4863 
L 1875 4416 
L 1125 4416 
L 1125 -397 
L 1875 -397 
L 1875 -844 
L 550 -844 
L 550 4863 
z
" transform="scale(0.015625)"/>
       <path id="DejaVuSans-6b" d="M 581 4863 
L 1159 4863 
L 1159 1991 
L 2875 3500 
L 3609 3500 
L 1753 1863 
L 3688 0 
L 2938 0 
L 1159 1709 
L 1159 0 
L 581 0 
L 581 4863 
z
" transform="scale(0.015625)"/>
       <path id="DejaVuSans-6d" d="M 3328 2828 
Q 3544 3216 3844 3400 
Q 4144 3584 4550 3584 
Q 5097 3584 5394 3201 
Q 5691 2819 5691 2113 
L 5691 0 
L 5113 0 
L 5113 2094 
Q 5113 2597 4934 2840 
Q 4756 3084 4391 3084 
Q 3944 3084 3684 2787 
Q 3425 2491 3425 1978 
L 3425 0 
L 2847 0 
L 2847 2094 
Q 2847 2600 2669 2842 
Q 2491 3084 2119 3084 
Q 1678 3084 1418 2786 
Q 1159 2488 1159 1978 
L 1159 0 
L 581 0 
L 581 3500 
L 1159 3500 
L 1159 2956 
Q 1356 3278 1631 3431 
Q 1906 3584 2284 3584 
Q 2666 3584 2933 3390 
Q 3200 3197 3328 2828 
z
" transform="scale(0.015625)"/>
       <path id="DejaVuSans-5d" d="M 1947 4863 
L 1947 -844 
L 622 -844 
L 622 -397 
L 1369 -397 
L 1369 4416 
L 622 4416 
L 622 4863 
L 1947 4863 
z
" transform="scale(0.015625)"/>
      </defs>
      <use xlink:href="#DejaVuSans-64"/>
      <use xlink:href="#DejaVuSans-69" transform="translate(63.476562 0)"/>
      <use xlink:href="#DejaVuSans-73" transform="translate(91.259766 0)"/>
      <use xlink:href="#DejaVuSans-74" transform="translate(143.359375 0)"/>
      <use xlink:href="#DejaVuSans-61" transform="translate(182.568359 0)"/>
      <use xlink:href="#DejaVuSans-6e" transform="translate(243.847656 0)"/>
      <use xlink:href="#DejaVuSans-63" transform="translate(307.226562 0)"/>
      <use xlink:href="#DejaVuSans-65" transform="translate(362.207031 0)"/>
      <use xlink:href="#DejaVuSans-20" transform="translate(423.730469 0)"/>
      <use xlink:href="#DejaVuSans-73" transform="translate(455.517578 0)"/>
      <use xlink:href="#DejaVuSans-20" transform="translate(507.617188 0)"/>
      <use xlink:href="#DejaVuSans-5b" transform="translate(539.404297 0)"/>
      <use xlink:href="#DejaVuSans-6b" transform="translate(578.417969 0)"/>
      <use xlink:href="#DejaVuSans-6d" transform="translate(636.328125 0)"/>
      <use xlink:href="#DejaVuSans-5d" transform="translate(733.740234 0)"/>
     </g>
    </g>
   </g>
   <g id="matplotlib.axis_2">
    <g id="ytick_1">
     <g id="line2d_11">
      <path d="M 56.09 243.653859 
L 709.2 243.653859 
" clip-path="url(#p468c14aa88)" style="fill: none; stroke: #b0b0b0; stroke-opacity: 0.3; stroke-width: 0.8; stroke-linecap: square"/>
     </g>
     <g id="line2d_12">
      <defs>
       <path id="m679ceb3b32" d="M 0 0 
L -3.5 0 
" style="stroke: #000000; stroke-width: 0.8"/>
      </defs>
      <g>
       <use xlink:href="#m679ceb3b32" x="56.09" y="243.653859" style="stroke: #000000; stroke-width: 0.8"/>
      </g>
     </g>
     <g id="text_7">
      <!-- −2.0 -->
      <g transform="translate(24.807188 247.453077) scale(0.1 -0.1)">
       <defs>
        <path id="DejaVuSans-2212" d="M 678 2272 
L 4684 2272 
L 4684 1741 
L 678 1741 
L 678 2272 
z
" transform="scale(0.015625)"/>
       </defs>
       <use xlink:href="#DejaVuSans-2212"/>
       <use xlink:href="#DejaVuSans-32" transform="translate(83.789062 0)"/>
       <use xlink:href="#DejaVuSans-2e" transform="translate(147.412109 0)"/>
       <use xlink:href="#DejaVuSans-30" transform="translate(179.199219 0)"/>
      </g>
     </g>
    </g>
    <g id="ytick_2">
     <g id="line2d_13">
      <path d="M 56.09 216.829235 
L 709.2 216.829235 
" clip-path="url(#p468c14aa88)" style="fill: none; stroke: #b0b0b0; stroke-opacity: 0.3; stroke-width: 0.8; stroke-linecap: square"/>
     </g>
     <g id="line2d_14">
      <g>
       <use xlink:href="#m679ceb3b32" x="56.09" y="216.829235" style="stroke: #000000; stroke-width: 0.8"/>
      </g>
     </g>
     <g id="text_8">
      <!-- −1.5 -->
      <g transform="translate(24.807188 220.628454) scale(0.1 -0.1)">
       <use xlink:href="#DejaVuSans-2212"/>
       <use xlink:href="#DejaVuSans-31" transform="translate(83.789062 0)"/>
       <use xlink:href="#DejaVuSans-2e" transform="translate(147.412109 0)"/>
       <use xlink:href="#DejaVuSans-35" transform="translate(179.199219 0)"/>
      </g>
     </g>
    </g>
    <g id="ytick_3">
     <g id="line2d_15">
      <path d="M 56.09 190.004611 
L 709.2 190.004611 
" clip-path="url(#p468c14aa88)" style="fill: none; stroke: #b0b0b0; stroke-opacity: 0.3; stroke-width: 0.8; stroke-linecap: square"/>
     </g>
     <g id="line2d_16">
      <g>
       <use xlink:href="#m679ceb3b32" x="56.09" y="190.004611" style="stroke: #000000; stroke-width: 0.8"/>
      </g>
     </g>
     <g id="text_9">
      <!-- −1.0 -->
      <g transform="translate(24.807188 193.80383) scale(0.1 -0.1)">
       <use xlink:href="#DejaVuSans-2212"/>
       <use xlink:href="#DejaVuSans-31" transform="translate(83.789062 0)"/>
       <use xlink:href="#DejaVuSans-2e" transform="translate(147.412109 0)"/>
       <use xlink:href="#DejaVuSans-30" transform="translate(179.199219 0)"/>
      </g>
     </g>
    </g>
    <g id="ytick_4">
     <g id="line2d_17">
      <path d="M 56.09 163.179987 
L 709.2 163.179987 
" clip-path="url(#p468c14aa88)" style="fill: none; stroke: #b0b0b0; stroke-opacity: 0.3; stroke-width: 0.8; stroke-linecap: square"/>
     </g>
     <g id="line2d_18">
      <g>
       <use xlink:href="#m679ceb3b32" x="56.09" y="163.179987" style="stroke: #000000; stroke-width: 0.8"/>
      </g>
     </g>
     <g id="text_10">
      <!-- −0.5 -->
      <g transform="translate(24.807188 166.979206) scale(0.1 -0.1)">
       <use xlink:href="#DejaVuSans-2212"/>
       <use xlink:href="#DejaVuSans-30" transform="translate(83.789062 0)"/>
       <use xlink:href="#DejaVuSans-2e" transform="translate(147.412109 0)"/>
       <use xlink:href="#DejaVuSans-35" transform="translate(179.199219 0)"/>
      </g>
     </g>
    </g>
    <g id="ytick_5">
     <g id="line2d_19">
      <path d="M 56.09 136.355363 
L 709.2 136.355363 
" clip-path="url(#p468c14aa88)" style="fill: none; stroke: #b0b0b0; stroke-opacity: 0.3; stroke-width: 0.8; stroke-linecap: square"/>
     </g>
     <g id="line2d_20">
      <g>
       <use xlink:href="#m679ceb3b32" x="56.09" y="136.355363" style="stroke: #000000; stroke-width: 0.8"/>
      </g>
     </g>
     <g id="text_11">
      <!-- 0.0 -->
      <g transform="translate(33.186875 140.154582) scale(0.1 -0.1)">
       <use xlink:href="#DejaVuSans-30"/>
       <use xlink:href="#DejaVuSans-2e" transform="translate(63.623047 0)"/>
       <use xlink:href="#DejaVuSans-30" transform="translate(95.410156 0)"/>
      </g>
     </g>
    </g>
    <g id="ytick_6">
     <g id="line2d_21">
      <path d="M 56.09 109.53074 
L 709.2 109.53074 
" clip-path="url(#p468c14aa88)" style="fill: none; stroke: #b0b0b0; stroke-opacity: 0.3; stroke-width: 0.8; stroke-linecap: square"/>
     </g>
     <g id="line2d_22">
      <g>
       <use xlink:href="#m679ceb3b32" x="56.09" y="109.53074" style="stroke: #000000; stroke-width: 0.8"/>
      </g>
     </g>
     <g id="text_12">
      <!-- 0.5 -->
      <g transform="translate(33.186875 113.329958) scale(0.1 -0.1)">
       <use xlink:href="#DejaVuSans-30"/>
       <use xlink:href="#DejaVuSans-2e" transform="translate(63.623047 0)"/>
       <use xlink:href="#DejaVuSans-35" transform="translate(95.410156 0)"/>
      </g>
     </g>
    </g>
    <g id="ytick_7">
     <g id="line2d_23">
      <path d="M 56.09 82.706116 
L 709.2 82.706116 
" clip-path="url(#p468c14aa88)" style="fill: none; stroke: #b0b0b0; stroke-opacity: 0.3; stroke-width: 0.8; stroke-linecap: square"/>
     </g>
     <g id="line2d_24">
      <g>
       <use xlink:href="#m679ceb3b32" x="56.09" y="82.706116" style="stroke: #000000; stroke-width: 0.8"/>
      </g>
     </g>
     <g id="text_13">
      <!-- 1.0 -->
      <g transform="translate(33.186875 86.505335) scale(0.1 -0.1)">
       <use xlink:href="#DejaVuSans-31"/>
       <use xlink:href="#DejaVuSans-2e" transform="translate(63.623047 0)"/>
       <use xlink:href="#DejaVuSans-30" transform="translate(95.410156 0)"/>
      </g>
     </g>
    </g>
    <g id="ytick_8">
     <g id="line2d_25">
      <path d="M 56.09 55.881492 
L 709.2 55.881492 
" clip-path="url(#p468c14aa88)" style="fill: none; stroke: #b0b0b0; stroke-opacity: 0.3; stroke-width: 0.8; stroke-linecap: square"/>
     </g>
     <g id="line2d_26">
      <g>
       <use xlink:href="#m679ceb3b32" x="56.09" y="55.881492" style="stroke: #000000; stroke-width: 0.8"/>
      </g>
     </g>
     <g id="text_14">
      <!-- 1.5 -->
      <g transform="translate(33.186875 59.680711) scale(0.1 -0.1)">
       <use xlink:href="#DejaVuSans-31"/>
       <use xlink:href="#DejaVuSans-2e" transform="translate(63.623047 0)"/>
       <use xlink:href="#DejaVuSans-35" transform="translate(95.410156 0)"/>
      </g>
     </g>
    </g>
    <g id="ytick_9">
     <g id="line2d_27">
      <path d="M 56.09 29.056868 
L 709.2 29.056868 
" clip-path="url(#p468c14aa88)" style="fill: none; stroke: #b0b0b0; stroke-opacity: 0.3; stroke-width: 0.8; stroke-linecap: square"/>
     </g>
     <g id="line2d_28">
      <g>
       <use xlink:href="#m679ceb3b32" x="56.09" y="29.056868" style="stroke: #000000; stroke-width: 0.8"/>
      </g>
     </g>
     <g id="text_15">
      <!-- 2.0 -->
      <g transform="translate(33.186875 32.856087) scale(0.1 -0.1)">
       <use xlink:href="#DejaVuSans-32"/>
       <use xlink:href="#DejaVuSans-2e" transform="translate(63.623047 0)"/>
       <use xlink:href="#DejaVuSans-30" transform="translate(95.410156 0)"/>
      </g>
     </g>
    </g>
    <g id="text_16">
     <!-- tie-rod force [kN] -->
     <g transform="translate(18.7275 179.918281) rotate(-90) scale(0.1 -0.1)">
      <defs>
       <path id="DejaVuSans-2d" d="M 313 2009 
L 1997 2009 
L 1997 1497 
L 313 1497 
L 313 2009 
z
" transform="scale(0.015625)"/>
       <path id="DejaVuSans-72" d="M 2631 2963 
Q 2534 3019 2420 3045 
Q 2306 3072 2169 3072 
Q 1681 3072 1420 2755 
Q 1159 2438 1159 1844 
L 1159 0 
L 581 0 
L 581 3500 
L 1159 3500 
L 1159 2956 
Q 1341 3275 1631 3429 
Q 1922 3584 2338 3584 
Q 2397 3584 2469 3576 
Q 2541 3569 2628 3553 
L 2631 2963 
z
" transform="scale(0.015625)"/>
       <path id="DejaVuSans-6f" d="M 1959 3097 
Q 1497 3097 1228 2736 
Q 959 2375 959 1747 
Q 959 1119 1226 758 
Q 1494 397 1959 397 
Q 2419 397 2687 759 
Q 2956 1122 2956 1747 
Q 2956 2369 2687 2733 
Q 2419 3097 1959 3097 
z
M 1959 3584 
Q 2709 3584 3137 3096 
Q 3566 2609 3566 1747 
Q 3566 888 3137 398 
Q 2709 -91 1959 -91 
Q 1206 -91 779 398 
Q 353 888 353 1747 
Q 353 2609 779 3096 
Q 1206 3584 1959 3584 
z
" transform="scale(0.015625)"/>
       <path id="DejaVuSans-66" d="M 2375 4863 
L 2375 4384 
L 1825 4384 
Q 1516 4384 1395 4259 
Q 1275 4134 1275 3809 
L 1275 3500 
L 2222 3500 
L 2222 3053 
L 1275 3053 
L 1275 0 
L 697 0 
L 697 3053 
L 147 3053 
L 147 3500 
L 697 3500 
L 697 3744 
Q 697 4328 969 4595 
Q 1241 4863 1831 4863 
L 2375 4863 
z
" transform="scale(0.015625)"/>
       <path id="DejaVuSans-4e" d="M 628 4666 
L 1478 4666 
L 3547 763 
L 3547 4666 
L 4159 4666 
L 4159 0 
L 3309 0 
L 1241 3903 
L 1241 0 
L 628 0 
L 628 4666 
z
" transform="scale(0.015625)"/>
      </defs>
      <use xlink:href="#DejaVuSans-74"/>
      <use xlink:href="#DejaVuSans-69" transform="translate(39.208984 0)"/>
      <use xlink:href="#DejaVuSans-65" transform="translate(66.992188 0)"/>
      <use xlink:href="#DejaVuSans-2d" transform="translate(128.515625 0)"/>
      <use xlink:href="#DejaVuSans-72" transform="translate(164.599609 0)"/>
      <use xlink:href="#DejaVuSans-6f" transform="translate(203.462891 0)"/>
      <use xlink:href="#DejaVuSans-64" transform="translate(264.644531 0)"/>
      <use xlink:href="#DejaVuSans-20" transform="translate(328.121094 0)"/>
      <use xlink:href="#DejaVuSans-66" transform="translate(359.908203 0)"/>
      <use xlink:href="#DejaVuSans-6f" transform="translate(395.113281 0)"/>
      <use xlink:href="#DejaVuSans-72" transform="translate(456.294922 0)"/>
      <use xlink:href="#DejaVuSans-63" transform="translate(495.158203 0)"/>
      <use xlink:href="#DejaVuSans-65" transform="translate(550.138672 0)"/>
      <use xlink:href="#DejaVuSans-20" transform="translate(611.662109 0)"/>
      <use xlink:href="#DejaVuSans-5b" transform="translate(643.449219 0)"/>
      <use xlink:href="#DejaVuSans-6b" transform="translate(682.462891 0)"/>
      <use xlink:href="#DejaVuSans-4e" transform="translate(740.373047 0)"/>
      <use xlink:href="#DejaVuSans-5d" transform="translate(815.177734 0)"/>
     </g>
    </g>
   </g>
   <g id="line2d_29">
    <path d="M 85.776818 136.355363 
L 86.300222 136.135539 
L 86.824642 136.07462 
L 88.403982 136.446234 
L 90.523867 136.316233 
L 92.659717 136.620831 
L 94.271978 136.56517 
L 98.068028 136.946097 
L 102.463779 136.88227 
L 108.042322 136.093744 
L 110.299211 135.535667 
L 112.570207 134.651963 
L 114.278483 133.859929 
L 116.549187 132.508451 
L 119.355929 130.589479 
L 123.187134 128.000181 
L 124.783808 127.215986 
L 125.831 126.864997 
L 126.863552 126.734106 
L 127.880833 126.867133 
L 128.882284 127.241824 
L 129.867412 127.936867 
L 130.835786 129.028253 
L 131.787031 130.496696 
L 132.720825 132.326261 
L 133.636891 134.664192 
L 134.977236 138.870653 
L 136.700327 145.296807 
L 142.13749 166.45733 
L 143.517794 170.278965 
L 144.178659 171.73477 
L 144.819884 172.636645 
L 145.133112 172.836612 
L 145.74477 172.880017 
L 146.043203 172.870441 
L 146.336711 172.991017 
L 146.908993 173.423739 
L 147.187797 173.267592 
L 147.461739 172.571692 
L 148.254865 169.211183 
L 148.509914 169.162196 
L 149.006576 170.112329 
L 149.48617 170.342892 
L 149.719956 170.702736 
L 149.949982 171.548281 
L 150.399754 175.548084 
L 151.052527 184.624011 
L 151.476465 192.908831 
L 152.941944 227.482697 
L 153.373832 231.974616 
L 153.81628 233.671323 
L 154.268268 234.147633 
L 154.720531 234.159206 
L 155.367816 234.098607 
L 155.969304 234.096913 
L 156.349302 233.753157 
L 156.895409 232.780922 
L 157.420404 231.440727 
L 157.932615 229.369348 
L 158.772881 225.719673 
L 159.106564 225.09115 
L 159.440374 224.945365 
L 160.11279 224.95946 
L 160.282722 224.74565 
L 160.625835 223.649511 
L 160.974275 221.159645 
L 161.329097 216.595727 
L 162.825271 190.335736 
L 164.044748 163.7374 
L 165.830144 134.259783 
L 166.306678 129.246455 
L 166.795112 125.85033 
L 167.295132 123.508755 
L 167.806387 121.93136 
L 168.328566 120.949814 
L 168.86139 120.526728 
L 169.131708 120.545135 
L 169.679996 120.90927 
L 170.238282 121.707707 
L 171.093966 123.738164 
L 171.676298 125.705321 
L 172.868691 130.816221 
L 176.330828 147.763951 
L 177.31989 151.096572 
L 178.324363 153.979469 
L 178.998245 155.443633 
L 180.00922 156.981312 
L 181.014117 158.276787 
L 181.346679 158.468309 
L 181.677708 158.500123 
L 182.659843 158.183386 
L 183.30392 157.710153 
L 183.938199 156.786609 
L 184.869322 155.078132 
L 185.475536 153.418733 
L 186.361985 150.83091 
L 187.5009 148.70415 
L 187.778022 148.528814 
L 188.052111 148.764069 
L 188.32315 149.358833 
L 188.856067 151.372892 
L 189.37706 154.168912 
L 189.633322 156.241421 
L 190.138105 163.395575 
L 191.122234 179.42982 
L 192.082537 192.567839 
L 193.261176 213.666642 
L 193.959968 220.430205 
L 194.653142 225.480473 
L 195.33986 229.003418 
L 195.793224 230.015899 
L 196.018313 230.13401 
L 196.464985 229.90937 
L 196.907126 229.346838 
L 197.564094 228.036608 
L 199.094131 224.32201 
L 199.53706 222.713214 
L 199.985177 220.360815 
L 200.4398 217.019664 
L 201.136516 209.812428 
L 202.342027 196.352611 
L 203.59107 184.576295 
L 205.349304 174.263089 
L 205.847138 173.069735 
L 206.094926 172.676688 
L 206.588197 171.199882 
L 207.078723 169.782578 
L 207.323113 169.806601 
L 207.810302 170.710548 
L 208.053111 171.300458 
L 208.295412 172.224247 
L 208.778663 175.804623 
L 211.669588 201.738245 
L 212.396193 210.005934 
L 213.125572 214.818738 
L 214.834943 223.318802 
L 215.324153 224.078319 
L 215.568741 224.143328 
L 215.81329 224.063492 
L 216.302264 223.579293 
L 217.280901 222.435887 
L 217.771702 221.917787 
L 218.017765 221.479725 
L 218.51192 219.862312 
L 219.009909 218.011431 
L 219.512822 217.07912 
L 220.534938 215.957815 
L 220.793054 215.827028 
L 221.051426 215.540426 
L 221.30975 214.839351 
L 221.56783 213.440733 
L 221.825519 211.030179 
L 222.339309 202.32047 
L 223.10518 182.008333 
L 223.612467 169.391576 
L 224.368522 157.544502 
L 224.869611 140.593867 
L 225.368713 124.327366 
L 226.11423 114.305197 
L 226.857838 98.717598 
L 227.10591 96.688489 
L 227.354354 96.385589 
L 227.603292 97.133323 
L 228.10298 100.000054 
L 229.108434 106.691093 
L 229.860889 109.882861 
L 230.605142 111.950615 
L 231.3395 113.159668 
L 232.065711 113.820588 
L 232.545782 113.890768 
L 233.729806 113.618376 
L 234.428956 113.829284 
L 236.029894 114.685969 
L 237.601922 115.570867 
L 238.27275 115.450912 
L 239.611112 115.036439 
L 241.391293 114.684644 
L 242.512679 115.122466 
L 243.654441 115.526067 
L 244.587508 115.649416 
L 245.061648 115.430514 
L 245.300894 115.147691 
L 245.784199 114.096712 
L 247.023436 111.197045 
L 247.276906 110.858743 
L 247.532293 110.719435 
L 248.048848 110.717171 
L 248.310018 110.452277 
L 249.105007 108.541091 
L 249.3738 108.437366 
L 250.191481 109.516838 
L 250.467796 109.538649 
L 251.026089 109.238331 
L 251.308093 109.303073 
L 251.877849 109.706074 
L 252.165586 109.667763 
L 252.746755 109.453368 
L 253.632733 109.741652 
L 254.535811 109.559969 
L 254.840766 110.031832 
L 255.147763 111.349889 
L 255.768021 115.2948 
L 256.081323 116.115941 
L 256.396771 116.210854 
L 256.714379 116.512595 
L 257.034146 117.658377 
L 258.006043 123.010274 
L 258.334071 123.396249 
L 258.664093 123.346311 
L 258.996096 123.642786 
L 260.34362 127.024082 
L 261.028916 127.21703 
L 261.374409 127.551384 
L 263.129924 130.444944 
L 263.845037 131.413261 
L 266.03364 135.191177 
L 268.666956 139.31043 
L 271.383447 142.863264 
L 274.575254 146.51564 
L 276.177037 148.004886 
L 277.764869 149.089094 
L 278.551392 149.600689 
L 278.942661 150.008387 
L 279.721401 151.441706 
L 280.880742 153.956475 
L 281.265036 155.121925 
L 281.64835 156.648998 
L 282.030759 158.855307 
L 282.793262 166.015481 
L 283.932908 177.618274 
L 286.206057 198.368232 
L 286.963135 205.012422 
L 287.719885 211.860325 
L 288.098057 214.260585 
L 288.476075 215.924263 
L 289.231685 217.956882 
L 289.986682 219.179926 
L 290.740813 220.367038 
L 291.870157 222.261159 
L 292.246139 222.695073 
L 292.621913 222.937471 
L 292.997504 222.983132 
L 293.748309 222.639714 
L 294.123606 222.430388 
L 294.498854 222.431681 
L 294.874062 222.773769 
L 296.000031 224.227727 
L 296.751515 224.729903 
L 297.504156 224.9234 
L 298.635909 224.911997 
L 299.772194 224.652311 
L 300.152724 224.401292 
L 300.534435 223.925361 
L 300.917506 223.046027 
L 301.302113 221.447729 
L 301.688305 218.840572 
L 303.640303 201.781717 
L 304.429844 196.942892 
L 304.826627 192.963607 
L 305.624481 180.748494 
L 306.832821 160.137029 
L 307.238686 156.997006 
L 308.054904 154.215608 
L 308.465268 151.409199 
L 310.960587 130.023349 
L 311.80516 123.506907 
L 312.229729 121.266242 
L 313.083292 118.273377 
L 313.94259 116.257712 
L 314.374102 115.676378 
L 315.239187 115.109656 
L 315.672107 114.967963 
L 316.104891 115.024646 
L 316.537269 115.341033 
L 316.968992 115.930897 
L 317.829556 117.827939 
L 318.684899 120.347154 
L 319.53355 123.505137 
L 320.374227 127.368178 
L 322.027321 136.460494 
L 324.031559 147.412628 
L 325.196547 152.819096 
L 326.701656 158.949932 
L 327.791867 162.727635 
L 328.847026 165.824369 
L 329.530211 167.425093 
L 330.196702 168.483691 
L 331.164384 169.609339 
L 331.478268 169.836477 
L 331.787776 169.89057 
L 332.092895 169.737595 
L 332.689939 168.910682 
L 333.269385 168.301724 
L 333.831368 167.988643 
L 334.642194 166.906621 
L 334.904114 166.899052 
L 335.161956 167.183488 
L 335.415781 167.858404 
L 335.91176 170.069643 
L 336.392991 172.73764 
L 336.860703 177.224549 
L 337.981312 193.619324 
L 338.843022 208.274641 
L 339.906474 227.416425 
L 340.333877 231.220662 
L 340.762555 233.267869 
L 341.190943 234.405788 
L 341.826256 235.26274 
L 342.642381 235.903689 
L 343.412192 236.146193 
L 343.780544 235.957025 
L 345.678108 233.823783 
L 346.32978 232.818894 
L 346.96602 231.352108 
L 347.90095 228.365798 
L 349.145302 223.926708 
L 349.461704 221.307402 
L 349.782285 216.103091 
L 350.273593 202.235647 
L 350.954122 184.127789 
L 352.044901 163.176185 
L 352.427337 159.217463 
L 353.403612 152.871097 
L 353.600709 152.244459 
L 353.798125 152.264184 
L 354.19378 153.679612 
L 354.789242 155.901398 
L 355.187728 159.258396 
L 358.260146 200.888925 
L 358.903905 205.921913 
L 359.337182 208.082299 
L 359.9911 209.808086 
L 360.870322 211.721551 
L 361.091587 211.814648 
L 361.313544 211.637788 
L 361.759876 210.986592 
L 361.984466 210.973915 
L 362.210139 211.367147 
L 362.893997 213.381423 
L 363.124254 213.718112 
L 363.355682 213.825946 
L 363.588287 213.763231 
L 363.822085 213.54381 
L 364.057108 213.119255 
L 364.293425 212.372982 
L 364.770408 209.414515 
L 365.254195 204.244935 
L 366.247235 189.951869 
L 367.546744 166.621486 
L 368.624656 156.210099 
L 369.443216 144.479015 
L 370.538834 134.502778 
L 371.905884 117.004153 
L 373.542097 100.461563 
L 373.815586 99.199544 
L 374.089494 98.671057 
L 374.36379 98.755012 
L 374.638426 99.355007 
L 375.188745 101.697724 
L 376.290254 107.721789 
L 377.115051 110.85137 
L 377.93977 113.266186 
L 378.76482 115.028603 
L 379.588922 116.225813 
L 380.137435 116.733565 
L 380.686393 116.960389 
L 381.237711 116.859305 
L 381.793036 116.481713 
L 382.636273 115.497872 
L 385.852513 111.180314 
L 387.385258 109.91567 
L 387.697492 110.079412 
L 388.011712 110.811014 
L 388.327954 112.309633 
L 390.26879 126.114722 
L 391.266678 138.718737 
L 391.603251 140.977749 
L 393.315035 147.942759 
L 393.663093 148.797264 
L 394.013023 149.099518 
L 394.718461 148.892997 
L 396.151322 148.475719 
L 396.878566 147.319926 
L 399.10256 142.971927 
L 401.003223 138.660374 
L 402.553997 135.552753 
L 403.734177 133.702974 
L 404.924431 132.198113 
L 408.869642 127.953962 
L 409.641859 126.771289 
L 410.783391 124.44921 
L 411.901438 121.095349 
L 412.99278 117.565063 
L 414.402585 114.646849 
L 415.087184 113.742104 
L 415.75778 113.252077 
L 417.055902 112.463972 
L 417.990936 111.695662 
L 418.595723 111.26328 
L 418.892535 110.78647 
L 419.475036 109.167136 
L 421.397456 100.691869 
L 422.168253 94.718299 
L 422.418983 93.860426 
L 422.66692 93.583048 
L 422.912254 93.619674 
L 423.395832 94.116471 
L 423.871013 95.279224 
L 424.339032 97.32164 
L 425.712836 104.64175 
L 426.613355 107.459886 
L 427.726468 110.016687 
L 429.24333 113.012521 
L 429.871015 113.855304 
L 430.483607 114.218382 
L 431.858152 114.687048 
L 432.801291 114.651119 
L 433.902691 114.562793 
L 434.445462 114.745792 
L 435.166016 115.266556 
L 436.616689 116.336884 
L 437.169172 116.56167 
L 437.728813 116.544959 
L 438.106774 116.349137 
L 438.682587 115.776738 
L 439.470145 114.69842 
L 440.28486 113.131279 
L 440.916498 112.118612 
L 441.348424 111.88442 
L 441.567837 111.957254 
L 441.789638 112.209134 
L 442.240654 113.372596 
L 442.936511 116.56882 
L 443.656191 121.329022 
L 444.399812 125.921944 
L 445.428172 131.572174 
L 445.691724 132.293068 
L 445.957805 132.575393 
L 446.226391 132.636417 
L 446.497465 132.857536 
L 447.046996 133.687029 
L 447.325406 133.707763 
L 448.462897 132.361132 
L 449.04572 131.973157 
L 450.848937 130.034345 
L 452.095429 129.064678 
L 453.376205 128.740288 
L 454.029132 128.747501 
L 454.690254 128.983667 
L 455.697037 129.589725 
L 456.378126 130.247264 
L 457.763572 131.967906 
L 459.179369 134.235861 
L 462.099078 139.0927 
L 463.223381 140.525011 
L 464.3633 141.578815 
L 465.131789 141.957899 
L 465.90702 142.103515 
L 466.688903 141.957065 
L 467.476679 141.484461 
L 468.26808 140.70457 
L 469.060616 139.568022 
L 470.246797 137.273452 
L 471.424298 134.381065 
L 475.228218 124.497553 
L 476.321067 121.729799 
L 478.768405 114.362297 
L 480.755147 103.369796 
L 481.717783 99.049763 
L 482.034883 98.161779 
L 482.350255 97.660412 
L 482.664009 97.430304 
L 483.287165 97.376654 
L 483.596844 97.575498 
L 483.905438 98.049574 
L 484.519879 99.931809 
L 486.954252 109.744895 
L 487.856526 112.179118 
L 488.750956 113.906494 
L 489.638582 115.131121 
L 490.522008 115.993824 
L 491.404537 116.547315 
L 493.176593 117.289353 
L 494.070314 117.530567 
L 494.671405 117.537573 
L 495.278433 117.302702 
L 495.892725 116.637227 
L 496.514885 115.424279 
L 497.463258 113.070297 
L 497.783306 112.518431 
L 498.105241 112.385817 
L 498.429014 113.019141 
L 498.754613 114.744983 
L 499.411341 121.284039 
L 502.11375 152.234077 
L 502.805457 157.521759 
L 504.193227 165.793819 
L 504.884966 168.735873 
L 505.572796 170.448689 
L 505.914747 170.897243 
L 506.255161 171.125154 
L 506.593894 171.133592 
L 506.930819 170.930422 
L 507.265832 170.540943 
L 507.929883 169.214519 
L 508.585969 167.037686 
L 509.5561 163.3932 
L 510.194305 162.063819 
L 510.826321 161.404406 
L 511.452674 160.454633 
L 511.763775 160.974477 
L 512.073439 162.85545 
L 512.688317 169.472275 
L 513.599622 179.444807 
L 514.200172 185.770163 
L 515.092314 197.882257 
L 515.38743 200.504485 
L 515.681254 201.835646 
L 515.973659 202.106711 
L 516.553723 201.644562 
L 516.841209 201.90245 
L 517.126996 202.570258 
L 517.97503 205.496104 
L 518.533619 206.177633 
L 518.811422 207.500539 
L 519.916621 216.510373 
L 520.741641 219.755502 
L 522.110457 224.975917 
L 522.654417 225.728626 
L 522.925724 225.792668 
L 523.196776 225.667622 
L 523.73885 224.872315 
L 524.827998 222.281606 
L 525.654215 219.764997 
L 526.491676 216.139713 
L 527.917385 208.851849 
L 528.499864 204.141756 
L 530.293458 186.471577 
L 531.208704 177.087132 
L 532.125188 171.069674 
L 533.036903 166.069632 
L 533.639811 164.06158 
L 534.237754 162.801917 
L 534.534666 162.603934 
L 534.830129 162.634448 
L 535.707679 162.999333 
L 536.285629 162.407676 
L 536.572638 162.678607 
L 536.858408 163.798819 
L 537.70879 168.463093 
L 538.270395 170.999398 
L 538.828181 175.737176 
L 540.761132 198.320675 
L 541.587023 207.47699 
L 542.411129 216.94765 
L 542.957029 220.965062 
L 543.228455 221.970748 
L 543.498771 222.373352 
L 543.767953 222.336754 
L 544.568754 221.629827 
L 545.360029 221.403517 
L 545.882854 220.406361 
L 546.142945 219.870585 
L 546.40216 219.600543 
L 546.660504 219.688298 
L 547.174616 220.743288 
L 547.939709 222.579738 
L 549.452084 225.675689 
L 550.202731 227.104464 
L 550.702288 227.581321 
L 551.201618 227.788041 
L 551.70109 227.779207 
L 552.451287 227.485132 
L 553.706187 226.688126 
L 554.970155 225.706191 
L 555.732171 225.705055 
L 557.510878 225.531177 
L 558.019153 225.109889 
L 558.782138 224.086407 
L 560.572041 221.122509 
L 561.346381 220.20274 
L 561.60575 220.189054 
L 562.38845 220.496914 
L 562.651152 220.410095 
L 562.914875 220.193159 
L 563.179702 219.823219 
L 563.713019 218.428221 
L 564.25164 216.059633 
L 565.620483 208.824617 
L 566.735447 201.161625 
L 567.016549 200.284448 
L 567.298519 200.065303 
L 567.581355 200.236297 
L 568.435242 201.263464 
L 568.721773 201.694824 
L 569.009259 202.455564 
L 569.586601 205.389272 
L 570.16565 208.528905 
L 570.455212 209.499825 
L 570.74452 209.898931 
L 571.033399 209.651568 
L 571.321692 208.733092 
L 572.748958 202.334993 
L 573.310654 199.658236 
L 574.140379 193.094594 
L 574.684053 189.693312 
L 576.273043 183.493141 
L 576.532669 183.276519 
L 576.791031 183.837331 
L 577.559219 186.666844 
L 577.81321 186.899219 
L 578.066313 186.698987 
L 578.318655 186.729091 
L 578.570385 187.876576 
L 579.072687 194.721137 
L 579.574578 202.013445 
L 580.077183 206.18878 
L 580.834226 210.915216 
L 581.850488 218.434113 
L 582.105081 218.934282 
L 582.359739 218.638239 
L 582.614548 217.481119 
L 582.869653 215.328175 
L 583.381607 207.0871 
L 584.419433 184.87025 
L 586.305061 157.979185 
L 586.582439 156.28213 
L 587.143248 154.648794 
L 587.712155 151.480493 
L 588.289159 148.671832 
L 589.169882 146.838723 
L 590.678342 141.239339 
L 591.60771 138.816266 
L 592.555193 136.090402 
L 593.520661 134.474011 
L 594.174217 133.458568 
L 594.835635 132.820011 
L 595.504854 132.482425 
L 596.181805 132.320439 
L 596.866419 132.348724 
L 597.907546 132.752511 
L 599.321835 133.69596 
L 602.984311 136.567738 
L 604.117294 137.168687 
L 605.265623 137.528674 
L 606.429049 137.64979 
L 607.607327 137.516838 
L 609.201059 137.045601 
L 611.639202 135.901951 
L 614.132859 134.691809 
L 616.252128 133.954953 
L 617.973867 133.675774 
L 619.280231 133.665332 
L 621.041783 133.917068 
L 622.377516 134.300595 
L 624.177593 135.043573 
L 625.99914 136.014755 
L 628.770894 137.773616 
L 635.365726 142.289929 
L 636.767747 142.730299 
L 638.622286 143.151507 
L 639.083593 143.655368 
L 640.003949 145.40004 
L 641.838243 149.083476 
L 642.296012 150.472888 
L 642.753656 152.751728 
L 643.211292 156.236666 
L 644.126984 166.844569 
L 645.50259 184.000592 
L 645.961556 187.906277 
L 646.420522 189.92368 
L 646.879399 189.337 
L 648.25627 181.698454 
L 648.715809 180.234608 
L 649.175915 179.707249 
L 649.636692 180.257398 
L 650.09819 181.261957 
L 650.560424 181.630746 
L 651.023415 180.01624 
L 651.487179 175.791938 
L 652.883303 158.206691 
L 653.350364 155.878805 
L 653.818299 155.572116 
L 654.287123 155.596818 
L 654.75685 154.509829 
L 655.227495 151.878744 
L 656.171602 144.754182 
L 656.645094 142.310316 
L 657.119563 140.963123 
L 657.595021 140.009799 
L 658.071479 138.675163 
L 659.987516 130.769409 
L 660.469118 129.848096 
L 662.892972 126.589938 
L 663.380937 126.341627 
L 663.869973 126.362101 
L 664.851265 126.723919 
L 665.836861 127.306423 
L 666.331277 127.815233 
L 666.826777 128.663358 
L 667.323361 129.874445 
L 668.819619 134.33346 
L 669.320528 135.460823 
L 669.822504 136.285839 
L 670.82964 137.405847 
L 672.856653 140.379804 
L 673.87655 141.241027 
L 675.414368 141.954081 
L 676.961698 142.533948 
L 677.998501 142.698268 
L 679.039475 142.552772 
L 679.513182 142.418033 
L 679.513182 142.418033 
" clip-path="url(#p468c14aa88)" style="fill: none; stroke: #2ca02c; stroke-width: 0.9; stroke-linecap: square"/>
   </g>
   <g id="line2d_30">
    <path d="M 85.776818 136.355363 
L 86.300222 136.135535 
L 86.824642 136.0746 
L 88.403982 136.44624 
L 90.523867 136.316234 
L 92.659717 136.62079 
L 94.271978 136.565115 
L 98.068028 136.945594 
L 102.463779 136.881686 
L 108.042322 136.093779 
L 110.299211 135.535141 
L 112.570207 134.648625 
L 114.278483 133.853124 
L 116.549187 132.496439 
L 119.355929 130.57323 
L 123.187134 127.986799 
L 124.783808 127.208342 
L 125.831 126.862797 
L 126.863552 126.738919 
L 127.880833 126.880147 
L 128.882284 127.262944 
L 129.867412 127.96488 
L 130.835786 129.060022 
L 131.787031 130.526843 
L 132.720825 132.348524 
L 133.636891 134.673097 
L 134.977236 138.864497 
L 136.700327 145.312967 
L 141.051405 162.249534 
L 142.13749 165.547549 
L 143.18002 167.955349 
L 144.178659 169.705444 
L 144.819884 170.309982 
L 145.441408 170.407259 
L 146.043203 170.312865 
L 146.625304 170.560264 
L 146.908993 170.680741 
L 147.187797 170.544343 
L 147.461739 169.990057 
L 148.254865 167.3125 
L 148.509914 167.284925 
L 149.006576 168.056219 
L 149.48617 168.170591 
L 149.719956 168.4084 
L 149.949982 169.020407 
L 150.399754 171.905301 
L 151.476465 180.383613 
L 151.68618 181.47798 
L 151.894905 181.639837 
L 152.103044 180.718939 
L 152.519763 176.499094 
L 152.941944 172.270328 
L 153.593727 168.045986 
L 154.268268 164.994084 
L 155.367816 161.272172 
L 156.534182 157.821052 
L 157.072367 156.717871 
L 157.592147 156.146809 
L 158.101723 155.999127 
L 159.273385 156.010542 
L 160.11279 155.825625 
L 160.625835 155.992927 
L 160.974275 156.324433 
L 161.509148 157.277447 
L 162.825271 160.482678 
L 163.022136 160.417895 
L 163.221445 159.975762 
L 163.627716 158.140135 
L 164.257499 153.92188 
L 164.69178 149.156459 
L 166.066908 131.757286 
L 166.549426 127.474029 
L 167.295132 123.052932 
L 167.806387 121.020079 
L 168.328566 119.626615 
L 168.86139 118.906567 
L 169.131708 118.840985 
L 169.404587 118.934713 
L 169.957904 119.534356 
L 170.521102 120.776631 
L 171.093966 122.507769 
L 171.676298 124.822809 
L 173.17246 132.172018 
L 175.041528 142.079819 
L 176.005317 146.256107 
L 176.98815 149.449727 
L 178.324363 152.804629 
L 178.998245 154.086195 
L 180.680214 156.431708 
L 181.346679 157.015005 
L 182.007023 157.092723 
L 182.983044 156.907536 
L 183.622344 156.377996 
L 184.561779 155.083756 
L 185.173929 153.85096 
L 186.651305 150.097972 
L 187.778022 148.451108 
L 188.052111 148.684712 
L 188.32315 149.268895 
L 188.856067 151.231803 
L 189.37706 153.916086 
L 189.633322 155.875136 
L 190.138105 162.411876 
L 190.878855 172.285976 
L 191.36415 175.411192 
L 191.844183 177.127162 
L 192.082537 177.678984 
L 192.319918 177.868644 
L 192.556404 177.399387 
L 193.026968 174.536182 
L 193.959968 167.905588 
L 194.653142 164.619463 
L 195.793224 160.278064 
L 196.686585 157.748738 
L 197.345676 156.503007 
L 197.782199 155.983429 
L 198.218161 155.72224 
L 198.654984 155.649366 
L 199.315033 155.804309 
L 199.985177 156.247501 
L 200.669939 157.013696 
L 201.373093 158.209085 
L 202.342027 160.358893 
L 203.59107 163.854343 
L 204.094603 164.843677 
L 204.346312 165.100823 
L 204.59776 165.145064 
L 205.349304 164.820575 
L 205.847138 165.027813 
L 206.094926 165.14351 
L 206.341935 165.055718 
L 207.078723 164.150112 
L 207.323113 164.296268 
L 208.053111 165.563129 
L 208.295412 166.223812 
L 209.501235 171.036515 
L 209.98234 172.019014 
L 210.463597 172.488943 
L 210.704408 172.467819 
L 211.186567 172.035364 
L 211.669588 171.088203 
L 212.153665 169.268516 
L 213.125572 165.169614 
L 214.101455 162.15717 
L 215.324153 159.042413 
L 216.057794 157.744618 
L 216.791298 156.968813 
L 217.526116 156.530629 
L 218.017765 156.375195 
L 218.51192 156.436107 
L 220.277506 157.254772 
L 220.793054 158.266265 
L 221.825519 161.462764 
L 222.595266 164.442374 
L 222.850555 164.719478 
L 223.10518 164.106735 
L 224.11713 157.740293 
L 224.368522 154.838388 
L 224.619335 149.143128 
L 225.368713 124.666928 
L 226.11423 114.038468 
L 227.354354 82.860797 
L 229.3599 51.474519 
L 229.860889 47.402077 
L 230.358153 45.04108 
L 230.850989 43.709889 
L 231.3395 43.032516 
L 233.494879 40.939155 
L 234.428956 40.615124 
L 235.348681 40.531183 
L 236.029894 40.680288 
L 236.480647 40.993745 
L 238.719367 43.297504 
L 239.388386 43.684862 
L 239.833703 43.892592 
L 240.278593 44.471463 
L 241.168448 46.025406 
L 242.062253 47.375246 
L 242.966436 49.29909 
L 244.352436 53.100204 
L 244.587508 53.987543 
L 244.823885 55.409016 
L 245.300894 61.070781 
L 246.27439 76.229838 
L 248.048848 93.366803 
L 248.310018 94.243469 
L 248.573109 93.801324 
L 249.105007 91.638168 
L 249.3738 91.596505 
L 250.191481 95.037732 
L 250.467796 95.290242 
L 251.026089 94.781018 
L 251.308093 95.023848 
L 251.877849 96.326529 
L 252.165586 96.463415 
L 252.455222 96.294314 
L 252.746755 96.297866 
L 253.632733 97.326518 
L 253.931841 97.287665 
L 254.232853 97.124883 
L 254.535811 97.149387 
L 254.840766 98.207033 
L 255.147763 101.029626 
L 255.768021 108.698208 
L 256.081323 110.419171 
L 256.396771 110.973579 
L 256.714379 111.785502 
L 257.034146 113.723621 
L 257.680024 119.470401 
L 258.006043 121.314684 
L 258.334071 121.945069 
L 258.664093 122.029163 
L 258.996096 122.479027 
L 260.00384 125.96229 
L 260.34362 126.478224 
L 261.028916 126.751235 
L 261.374409 127.131826 
L 263.129924 130.260726 
L 263.845037 131.28577 
L 265.66442 134.59418 
L 269.050005 139.818806 
L 270.598997 141.852963 
L 273.77262 145.440319 
L 275.777546 147.394576 
L 276.973194 148.288691 
L 278.551392 149.312294 
L 278.942661 149.705418 
L 279.721401 151.066372 
L 280.880742 153.38854 
L 281.64835 155.805659 
L 282.030759 157.74165 
L 282.793262 163.658344 
L 283.55343 169.117231 
L 284.312108 172.199072 
L 284.691109 173.064817 
L 285.069975 173.377781 
L 285.448746 173.099663 
L 285.827436 172.306527 
L 286.584624 169.974075 
L 288.476075 163.480788 
L 289.231685 161.991147 
L 289.986682 161.171831 
L 290.740813 160.788185 
L 291.870157 160.493433 
L 294.498854 159.970602 
L 295.249283 159.55347 
L 299.014031 156.774768 
L 300.152724 156.320575 
L 300.917506 156.308279 
L 301.302113 156.453192 
L 301.688305 156.737792 
L 302.465166 157.761396 
L 303.640303 160.162795 
L 304.429844 161.788153 
L 304.826627 162.407856 
L 305.224822 162.573871 
L 305.624481 161.916871 
L 306.025682 160.170589 
L 306.832821 154.572828 
L 307.238686 152.97811 
L 307.646047 152.461005 
L 308.054904 151.692319 
L 308.465268 149.696835 
L 309.290596 143.375457 
L 310.540655 133.226804 
L 312.229729 120.99107 
L 313.083292 117.362426 
L 313.94259 114.559317 
L 314.374102 113.642046 
L 314.806416 113.069673 
L 315.239187 112.695612 
L 315.672107 112.494937 
L 316.104891 112.596152 
L 316.537269 113.06246 
L 316.968992 113.88866 
L 317.829556 116.388441 
L 319.110145 121.207576 
L 320.374227 127.223323 
L 324.811537 151.072742 
L 326.330761 157.19858 
L 327.432275 160.890835 
L 328.499301 163.795279 
L 329.530211 165.891303 
L 330.196702 166.722232 
L 331.164384 167.581357 
L 331.478268 167.746738 
L 331.787776 167.772541 
L 332.092895 167.633069 
L 333.269385 166.446883 
L 333.831368 166.190303 
L 334.642194 165.275752 
L 334.904114 165.264055 
L 335.161956 165.4939 
L 335.665679 166.846232 
L 336.392991 169.734128 
L 336.860703 172.761847 
L 337.540324 177.761596 
L 337.981312 179.363071 
L 338.19889 179.583121 
L 338.414858 179.397981 
L 338.629475 178.792044 
L 339.055845 176.231541 
L 339.906474 169.582691 
L 340.548127 166.806115 
L 341.190943 165.21948 
L 342.239623 163.500469 
L 343.412192 162.046088 
L 344.140274 161.444273 
L 346.1684 160.043964 
L 346.808226 159.258368 
L 348.365514 157.029855 
L 348.831951 156.793355 
L 349.145302 156.79981 
L 349.461704 156.982381 
L 349.782285 157.433566 
L 350.108236 158.333881 
L 350.609767 159.705877 
L 350.954122 159.916986 
L 351.12968 159.766717 
L 351.307637 159.357853 
L 351.671091 157.665301 
L 352.235253 154.833277 
L 353.600709 150.768345 
L 353.798125 150.932994 
L 354.59048 153.712272 
L 354.98831 155.598109 
L 355.387546 159.590313 
L 355.989825 165.541604 
L 356.597338 169.003957 
L 357.006185 170.756268 
L 357.212094 171.263483 
L 357.419145 171.341004 
L 357.627428 170.985451 
L 358.047913 169.380458 
L 359.337182 163.702333 
L 359.9911 162.030286 
L 360.64968 160.954567 
L 361.313544 160.211302 
L 363.124254 158.604614 
L 363.822085 158.058313 
L 364.293425 157.927198 
L 364.770408 158.073827 
L 365.254195 158.641189 
L 366.247235 160.177822 
L 366.501717 160.215713 
L 366.758951 159.846749 
L 367.813924 156.674501 
L 368.082859 156.193006 
L 368.353208 155.149757 
L 368.624656 153.093645 
L 369.716927 141.925697 
L 370.26485 137.817612 
L 371.086371 126.94791 
L 372.178554 113.466191 
L 372.723607 106.226683 
L 374.638426 76.667984 
L 376.015093 58.932393 
L 376.840183 52.888467 
L 377.38992 50.009346 
L 377.93977 48.219726 
L 378.489817 47.399127 
L 378.76482 47.256414 
L 379.314419 47.31847 
L 380.137435 47.744931 
L 380.411739 48.010472 
L 380.686393 48.490431 
L 381.237711 50.342182 
L 381.793036 53.347261 
L 382.636273 58.346298 
L 384.072849 65.443373 
L 384.954776 71.904326 
L 386.155373 81.185214 
L 386.766583 84.112709 
L 387.07497 85.117876 
L 387.385258 86.579394 
L 387.697492 89.212117 
L 388.327954 98.853734 
L 388.966613 109.833183 
L 389.613592 117.551983 
L 390.26879 124.724542 
L 391.266678 138.824039 
L 391.603251 141.127676 
L 393.315035 147.666391 
L 393.663093 148.391915 
L 394.013023 148.596493 
L 396.151322 147.82761 
L 396.878566 146.762198 
L 399.10256 142.751913 
L 401.388419 137.830145 
L 402.945828 134.890533 
L 404.130224 133.150123 
L 405.321985 131.75611 
L 408.480629 128.424757 
L 409.641859 126.695045 
L 410.783391 124.342026 
L 411.901438 120.907547 
L 412.99278 117.225673 
L 414.402585 114.094216 
L 415.087184 113.099439 
L 415.75778 112.552923 
L 417.055902 111.677955 
L 417.990936 110.816136 
L 418.595723 110.318949 
L 418.892535 109.773458 
L 419.475036 107.897322 
L 421.133766 99.211456 
L 421.657666 93.433285 
L 422.418983 83.123883 
L 423.871013 68.964928 
L 425.938818 44.769396 
L 426.389038 42.472736 
L 427.060413 40.522145 
L 427.726468 39.225613 
L 428.384598 38.613088 
L 429.030923 38.309897 
L 429.871015 38.280892 
L 430.883703 38.377893 
L 431.472503 38.642441 
L 432.238785 39.302047 
L 434.084029 41.380868 
L 434.985914 42.851594 
L 436.251545 45.531859 
L 437.541367 48.478628 
L 437.917255 49.945054 
L 438.489363 53.726627 
L 439.470145 62.121485 
L 440.078377 69.21199 
L 443.656191 117.966202 
L 444.149286 122.725818 
L 445.16718 129.961905 
L 445.691724 132.101608 
L 445.957805 132.427705 
L 446.226391 132.514146 
L 446.497465 132.760286 
L 447.046996 133.633765 
L 447.325406 133.66176 
L 448.462897 132.301685 
L 449.04572 131.904104 
L 450.848937 129.887309 
L 452.095429 128.855002 
L 453.052853 128.550824 
L 453.701637 128.471004 
L 454.358676 128.58872 
L 455.359448 129.131392 
L 456.036601 129.690929 
L 457.414334 131.375472 
L 458.467725 133.001223 
L 462.472094 139.599937 
L 463.601632 140.877034 
L 464.3633 141.512073 
L 465.131789 141.871013 
L 465.90702 142.003307 
L 466.688903 141.854597 
L 467.476679 141.396733 
L 468.26808 140.644051 
L 469.060616 139.536512 
L 470.246797 137.269921 
L 471.424298 134.3827 
L 478.084254 116.430673 
L 478.42783 115.337733 
L 478.768405 113.754426 
L 479.44095 109.065441 
L 483.287165 80.09916 
L 484.519879 67.349689 
L 485.741247 54.944835 
L 486.348936 50.32125 
L 486.954252 47.036818 
L 487.556612 45.043504 
L 488.155541 43.960146 
L 488.750956 43.426517 
L 489.343324 43.273862 
L 489.933364 43.4813 
L 490.522008 44.004401 
L 491.404537 45.207455 
L 492.58424 46.921447 
L 493.473662 47.856321 
L 494.070314 48.165817 
L 494.370223 48.285596 
L 494.671405 48.527889 
L 494.974074 49.074062 
L 495.278433 50.240225 
L 495.584626 52.415917 
L 496.202793 60.136149 
L 498.429014 96.709489 
L 499.742503 122.977256 
L 501.086172 140.479574 
L 501.769557 148.942931 
L 502.459167 154.605235 
L 503.499383 159.85611 
L 504.193227 162.58907 
L 504.884966 164.52039 
L 505.572796 165.602175 
L 506.255161 166.066493 
L 506.593894 166.110296 
L 506.930819 166.029141 
L 507.598863 165.515786 
L 508.258903 164.400773 
L 509.876013 160.333433 
L 510.511049 159.738622 
L 510.826321 159.491432 
L 511.452674 158.74566 
L 511.763775 159.223031 
L 512.073439 160.844585 
L 513.599622 172.607958 
L 514.498642 176.33467 
L 514.796023 176.877823 
L 515.092314 176.652571 
L 515.681254 174.720113 
L 516.553723 171.77404 
L 517.126996 170.565886 
L 517.97503 169.296677 
L 519.088504 168.008995 
L 519.916621 166.014984 
L 523.196776 157.79026 
L 523.73885 157.182858 
L 524.282122 156.908987 
L 524.827998 156.881358 
L 525.377672 157.04502 
L 526.211144 157.549708 
L 527.917385 158.959312 
L 528.793985 160.085659 
L 530.597927 162.752737 
L 531.208704 162.960808 
L 531.81996 162.927869 
L 532.125188 162.688888 
L 533.939445 160.160492 
L 534.237754 159.98412 
L 534.534666 160.004383 
L 535.124115 160.413734 
L 535.416623 160.659695 
L 535.707679 160.728493 
L 536.285629 160.295239 
L 536.572638 160.531612 
L 536.858408 161.45222 
L 537.70879 164.961744 
L 538.270395 166.558295 
L 538.828181 169.334942 
L 539.382759 172.478306 
L 539.65912 173.406933 
L 539.935022 173.728164 
L 540.210574 173.52403 
L 540.485897 172.892307 
L 541.036392 170.798069 
L 542.136932 165.983598 
L 542.684549 164.418852 
L 543.228455 163.385411 
L 543.767953 162.837627 
L 544.302926 162.696508 
L 545.097258 162.840801 
L 545.882854 163.167638 
L 546.660504 163.575419 
L 547.174616 163.634524 
L 547.685449 163.442476 
L 548.193247 163.036976 
L 548.950058 162.098648 
L 551.70109 158.086059 
L 552.451287 157.499353 
L 553.203378 157.208102 
L 554.2105 157.057668 
L 554.716538 157.078758 
L 555.224041 157.35385 
L 556.240411 158.146754 
L 557.002701 158.476807 
L 559.802613 159.14699 
L 560.829552 159.168102 
L 561.60575 159.031771 
L 562.38845 158.612492 
L 563.445721 158.027659 
L 563.981652 158.013089 
L 564.52296 158.357052 
L 565.069364 159.038115 
L 565.897705 160.548276 
L 567.298519 163.364059 
L 567.865073 163.924518 
L 568.435242 164.067733 
L 569.876035 163.8692 
L 570.455212 164.058745 
L 571.033399 164.536385 
L 571.609237 165.398151 
L 572.748958 167.757648 
L 573.865652 169.989119 
L 574.684053 170.856476 
L 575.220274 171.189068 
L 575.485785 171.185526 
L 576.532669 170.63447 
L 577.559219 171.922536 
L 577.81321 171.80743 
L 578.318655 171.240654 
L 578.570385 171.339396 
L 579.072687 172.147086 
L 579.323606 171.905851 
L 579.825735 170.032798 
L 581.341625 163.300581 
L 582.105081 160.706049 
L 582.614548 159.609025 
L 582.869653 159.326218 
L 583.125255 159.25779 
L 583.381607 159.46674 
L 584.157701 160.53035 
L 584.682948 160.748058 
L 584.948349 160.50925 
L 585.215691 159.904808 
L 585.485012 158.905024 
L 586.582439 152.997856 
L 587.143248 152.228525 
L 587.426689 151.266919 
L 588.289159 147.659544 
L 589.169882 146.185495 
L 589.76718 143.993909 
L 590.372595 141.836312 
L 591.921531 137.787986 
L 592.555193 136.092673 
L 593.520661 134.477913 
L 594.174217 133.451337 
L 594.835635 132.796838 
L 595.504854 132.444829 
L 596.181805 132.272349 
L 596.866419 132.295799 
L 597.907546 132.704104 
L 599.321835 133.665813 
L 602.610104 136.337761 
L 604.117294 137.168672 
L 605.265623 137.526607 
L 606.429049 137.646039 
L 607.607327 137.513007 
L 609.201059 137.043697 
L 611.639202 135.902196 
L 614.132859 134.687485 
L 616.252128 133.942438 
L 617.973867 133.657876 
L 619.280231 133.645872 
L 621.041783 133.899678 
L 622.377516 134.28733 
L 624.177593 135.037205 
L 625.99914 136.013885 
L 628.770894 137.772353 
L 635.365726 142.250103 
L 636.767747 142.688216 
L 638.622286 143.102427 
L 639.083593 143.598172 
L 640.003949 145.307463 
L 641.838243 148.835191 
L 642.296012 150.140237 
L 642.753656 152.262776 
L 643.211292 155.444035 
L 644.585219 168.549812 
L 645.043772 171.829271 
L 645.50259 173.516981 
L 645.961556 173.649864 
L 646.420522 172.602013 
L 648.25627 165.709025 
L 648.715809 164.879888 
L 649.175915 164.586579 
L 649.636692 164.866692 
L 650.560424 165.912338 
L 651.023415 165.715019 
L 651.487179 164.347721 
L 651.951732 161.595997 
L 652.883303 154.808634 
L 653.350364 153.298542 
L 653.818299 153.27914 
L 654.287123 153.484221 
L 654.75685 152.728106 
L 655.227495 150.591224 
L 656.171602 144.323214 
L 656.645094 142.070885 
L 657.119563 140.81356 
L 657.595021 139.913806 
L 658.071479 138.6279 
L 659.987516 130.780462 
L 660.469118 129.830292 
L 662.892972 126.357912 
L 663.380937 126.071942 
L 663.869973 126.069589 
L 664.851265 126.41773 
L 665.836861 127.016937 
L 666.331277 127.54941 
L 666.826777 128.43765 
L 667.323361 129.701869 
L 668.819619 134.301249 
L 669.320528 135.449125 
L 669.822504 136.284511 
L 670.82964 137.410163 
L 672.856653 140.362611 
L 673.87655 141.20304 
L 675.414368 141.888884 
L 676.961698 142.443177 
L 677.998501 142.595795 
L 679.039475 142.448419 
L 679.513182 142.315663 
L 679.513182 142.315663 
" clip-path="url(#p468c14aa88)" style="fill: none; stroke: #d62728; stroke-opacity: 0.8; stroke-width: 0.9; stroke-linecap: square"/>
   </g>
   <g id="patch_3">
    <path d="M 56.09 246.04 
L 56.09 28.37625 
" style="fill: none; stroke: #000000; stroke-width: 0.8; stroke-linejoin: miter; stroke-linecap: square"/>
   </g>
   <g id="patch_4">
    <path d="M 709.2 246.04 
L 709.2 28.37625 
" style="fill: none; stroke: #000000; stroke-width: 0.8; stroke-linejoin: miter; stroke-linecap: square"/>
   </g>
   <g id="patch_5">
    <path d="M 56.09 246.04 
L 709.2 246.04 
" style="fill: none; stroke: #000000; stroke-width: 0.8; stroke-linejoin: miter; stroke-linecap: square"/>
   </g>
   <g id="patch_6">
    <path d="M 56.09 28.37625 
L 709.2 28.37625 
" style="fill: none; stroke: #000000; stroke-width: 0.8; stroke-linejoin: miter; stroke-linecap: square"/>
   </g>
   <g id="text_17">
    <!-- steering-link loads over one Gelleråsen Arena lap -->
    <g transform="translate(234.435625 22.37625) scale(0.12 -0.12)">
     <defs>
      <path id="DejaVuSans-67" d="M 2906 1791 
Q 2906 2416 2648 2759 
Q 2391 3103 1925 3103 
Q 1463 3103 1205 2759 
Q 947 2416 947 1791 
Q 947 1169 1205 825 
Q 1463 481 1925 481 
Q 2391 481 2648 825 
Q 2906 1169 2906 1791 
z
M 3481 434 
Q 3481 -459 3084 -895 
Q 2688 -1331 1869 -1331 
Q 1566 -1331 1297 -1286 
Q 1028 -1241 775 -1147 
L 775 -588 
Q 1028 -725 1275 -790 
Q 1522 -856 1778 -856 
Q 2344 -856 2625 -561 
Q 2906 -266 2906 331 
L 2906 616 
Q 2728 306 2450 153 
Q 2172 0 1784 0 
Q 1141 0 747 490 
Q 353 981 353 1791 
Q 353 2603 747 3093 
Q 1141 3584 1784 3584 
Q 2172 3584 2450 3431 
Q 2728 3278 2906 2969 
L 2906 3500 
L 3481 3500 
L 3481 434 
z
" transform="scale(0.015625)"/>
      <path id="DejaVuSans-6c" d="M 603 4863 
L 1178 4863 
L 1178 0 
L 603 0 
L 603 4863 
z
" transform="scale(0.015625)"/>
      <path id="DejaVuSans-76" d="M 191 3500 
L 800 3500 
L 1894 563 
L 2988 3500 
L 3597 3500 
L 2284 0 
L 1503 0 
L 191 3500 
z
" transform="scale(0.015625)"/>
      <path id="DejaVuSans-47" d="M 3809 666 
L 3809 1919 
L 2778 1919 
L 2778 2438 
L 4434 2438 
L 4434 434 
Q 4069 175 3628 42 
Q 3188 -91 2688 -91 
Q 1594 -91 976 548 
Q 359 1188 359 2328 
Q 359 3472 976 4111 
Q 1594 4750 2688 4750 
Q 3144 4750 3555 4637 
Q 3966 4525 4313 4306 
L 4313 3634 
Q 3963 3931 3569 4081 
Q 3175 4231 2741 4231 
Q 1884 4231 1454 3753 
Q 1025 3275 1025 2328 
Q 1025 1384 1454 906 
Q 1884 428 2741 428 
Q 3075 428 3337 486 
Q 3600 544 3809 666 
z
" transform="scale(0.015625)"/>
      <path id="DejaVuSans-e5" d="M 2194 1759 
Q 1497 1759 1228 1600 
Q 959 1441 959 1056 
Q 959 750 1161 570 
Q 1363 391 1709 391 
Q 2188 391 2477 730 
Q 2766 1069 2766 1631 
L 2766 1759 
L 2194 1759 
z
M 3341 1997 
L 3341 0 
L 2766 0 
L 2766 531 
Q 2569 213 2275 61 
Q 1981 -91 1556 -91 
Q 1019 -91 701 211 
Q 384 513 384 1019 
Q 384 1609 779 1909 
Q 1175 2209 1959 2209 
L 2766 2209 
L 2766 2266 
Q 2766 2663 2505 2880 
Q 2244 3097 1772 3097 
Q 1472 3097 1187 3025 
Q 903 2953 641 2809 
L 641 3341 
Q 956 3463 1253 3523 
Q 1550 3584 1831 3584 
Q 2591 3584 2966 3190 
Q 3341 2797 3341 1997 
z
M 2331 4763 
Q 2331 4959 2193 5096 
Q 2056 5234 1856 5234 
Q 1653 5234 1517 5098 
Q 1381 4963 1381 4763 
Q 1381 4559 1517 4423 
Q 1653 4288 1856 4288 
Q 2056 4288 2193 4425 
Q 2331 4563 2331 4763 
z
M 2712 4763 
Q 2712 4403 2463 4153 
Q 2215 3903 1856 3903 
Q 1497 3903 1248 4153 
Q 1000 4403 1000 4763 
Q 1000 5122 1248 5370 
Q 1497 5619 1856 5619 
Q 2215 5619 2463 5370 
Q 2712 5122 2712 4763 
z
" transform="scale(0.015625)"/>
      <path id="DejaVuSans-41" d="M 2188 4044 
L 1331 1722 
L 3047 1722 
L 2188 4044 
z
M 1831 4666 
L 2547 4666 
L 4325 0 
L 3669 0 
L 3244 1197 
L 1141 1197 
L 716 0 
L 50 0 
L 1831 4666 
z
" transform="scale(0.015625)"/>
      <path id="DejaVuSans-70" d="M 1159 525 
L 1159 -1331 
L 581 -1331 
L 581 3500 
L 1159 3500 
L 1159 2969 
Q 1341 3281 1617 3432 
Q 1894 3584 2278 3584 
Q 2916 3584 3314 3078 
Q 3713 2572 3713 1747 
Q 3713 922 3314 415 
Q 2916 -91 2278 -91 
Q 1894 -91 1617 61 
Q 1341 213 1159 525 
z
M 3116 1747 
Q 3116 2381 2855 2742 
Q 2594 3103 2138 3103 
Q 1681 3103 1420 2742 
Q 1159 2381 1159 1747 
Q 1159 1113 1420 752 
Q 1681 391 2138 391 
Q 2594 391 2855 752 
Q 3116 1113 3116 1747 
z
" transform="scale(0.015625)"/>
     </defs>
     <use xlink:href="#DejaVuSans-73"/>
     <use xlink:href="#DejaVuSans-74" transform="translate(52.099609 0)"/>
     <use xlink:href="#DejaVuSans-65" transform="translate(91.308594 0)"/>
     <use xlink:href="#DejaVuSans-65" transform="translate(152.832031 0)"/>
     <use xlink:href="#DejaVuSans-72" transform="translate(214.355469 0)"/>
     <use xlink:href="#DejaVuSans-69" transform="translate(255.46875 0)"/>
     <use xlink:href="#DejaVuSans-6e" transform="translate(283.251953 0)"/>
     <use xlink:href="#DejaVuSans-67" transform="translate(346.630859 0)"/>
     <use xlink:href="#DejaVuSans-2d" transform="translate(410.107422 0)"/>
     <use xlink:href="#DejaVuSans-6c" transform="translate(446.191406 0)"/>
     <use xlink:href="#DejaVuSans-69" transform="translate(473.974609 0)"/>
     <use xlink:href="#DejaVuSans-6e" transform="translate(501.757812 0)"/>
     <use xlink:href="#DejaVuSans-6b" transform="translate(565.136719 0)"/>
     <use xlink:href="#DejaVuSans-20" transform="translate(623.046875 0)"/>
     <use xlink:href="#DejaVuSans-6c" transform="translate(654.833984 0)"/>
     <use xlink:href="#DejaVuSans-6f" transform="translate(682.617188 0)"/>
     <use xlink:href="#DejaVuSans-61" transform="translate(743.798828 0)"/>
     <use xlink:href="#DejaVuSans-64" transform="translate(805.078125 0)"/>
     <use xlink:href="#DejaVuSans-73" transform="translate(868.554688 0)"/>
     <use xlink:href="#DejaVuSans-20" transform="translate(920.654297 0)"/>
     <use xlink:href="#DejaVuSans-6f" transform="translate(952.441406 0)"/>
     <use xlink:href="#DejaVuSans-76" transform="translate(1013.623047 0)"/>
     <use xlink:href="#DejaVuSans-65" transform="translate(1072.802734 0)"/>
     <use xlink:href="#DejaVuSans-72" transform="translate(1134.326172 0)"/>
     <use xlink:href="#DejaVuSans-20" transform="translate(1175.439453 0)"/>
     <use xlink:href="#DejaVuSans-6f" transform="translate(1207.226562 0)"/>
     <use xlink:href="#DejaVuSans-6e" transform="translate(1268.408203 0)"/>
     <use xlink:href="#DejaVuSans-65" transform="translate(1331.787109 0)"/>
     <use xlink:href="#DejaVuSans-20" transform="translate(1393.310547 0)"/>
     <use xlink:href="#DejaVuSans-47" transform="translate(1425.097656 0)"/>
     <use xlink:href="#DejaVuSans-65" transform="translate(1502.587891 0)"/>
     <use xlink:href="#DejaVuSans-6c" transform="translate(1564.111328 0)"/>
     <use xlink:href="#DejaVuSans-6c" transform="translate(1591.894531 0)"/>
     <use xlink:href="#DejaVuSans-65" transform="translate(1619.677734 0)"/>
     <use xlink:href="#DejaVuSans-72" transform="translate(1681.201172 0)"/>
     <use xlink:href="#DejaVuSans-e5" transform="translate(1722.314453 0)"/>
     <use xlink:href="#DejaVuSans-73" transform="translate(1783.59375 0)"/>
     <use xlink:href="#DejaVuSans-65" transform="translate(1835.693359 0)"/>
     <use xlink:href="#DejaVuSans-6e" transform="translate(1897.216797 0)"/>
     <use xlink:href="#DejaVuSans-20" transform="translate(1960.595703 0)"/>
     <use xlink:href="#DejaVuSans-41" transform="translate(1992.382812 0)"/>
     <use xlink:href="#DejaVuSans-72" transform="translate(2060.791016 0)"/>
     <use xlink:href="#DejaVuSans-65" transform="translate(2099.654297 0)"/>
     <use xlink:href="#DejaVuSans-6e" transform="translate(2161.177734 0)"/>
     <use xlink:href="#DejaVuSans-61" transform="translate(2224.556641 0)"/>
     <use xlink:href="#DejaVuSans-20" transform="translate(2285.835938 0)"/>
     <use xlink:href="#DejaVuSans-6c" transform="translate(2317.623047 0)"/>
     <use xlink:href="#DejaVuSans-61" transform="translate(2345.40625 0)"/>
     <use xlink:href="#DejaVuSans-70" transform="translate(2406.685547 0)"/>
    </g>
   </g>
   <g id="legend_1">
    <g id="patch_7">
     <path d="M 630.755 58.26125 
L 703.6 58.26125 
Q 705.2 58.26125 705.2 56.66125 
L 705.2 33.97625 
Q 705.2 32.37625 703.6 32.37625 
L 630.755 32.37625 
Q 629.155 32.37625 629.155 33.97625 
L 629.155 56.66125 
Q 629.155 58.26125 630.755 58.26125 
z
" style="fill: #ffffff; opacity: 0.8; stroke: #cccccc; stroke-linejoin: miter"/>
    </g>
    <g id="line2d_31">
     <path d="M 632.355 38.855 
L 640.355 38.855 
L 648.355 38.855 
" style="fill: none; stroke: #2ca02c; stroke-width: 0.9; stroke-linecap: square"/>
    </g>
    <g id="text_18">
     <!-- tie rod left -->
     <g transform="translate(654.755 41.655) scale(0.08 -0.08)">
      <use xlink:href="#DejaVuSans-74"/>
      <use xlink:href="#DejaVuSans-69" transform="translate(39.208984 0)"/>
      <use xlink:href="#DejaVuSans-65" transform="translate(66.992188 0)"/>
      <use xlink:href="#DejaVuSans-20" transform="translate(128.515625 0)"/>
      <use xlink:href="#DejaVuSans-72" transform="translate(160.302734 0)"/>
      <use xlink:href="#DejaVuSans-6f" transform="translate(199.166016 0)"/>
      <use xlink:href="#DejaVuSans-64" transform="translate(260.347656 0)"/>
      <use xlink:href="#DejaVuSans-20" transform="translate(323.824219 0)"/>
      <use xlink:href="#DejaVuSans-6c" transform="translate(355.611328 0)"/>
      <use xlink:href="#DejaVuSans-65" transform="translate(383.394531 0)"/>
      <use xlink:href="#DejaVuSans-66" transform="translate(444.917969 0)"/>
      <use xlink:href="#DejaVuSans-74" transform="translate(478.373047 0)"/>
     </g>
    </g>
    <g id="line2d_32">
     <path d="M 632.355 50.5975 
L 640.355 50.5975 
L 648.355 50.5975 
" style="fill: none; stroke: #d62728; stroke-opacity: 0.8; stroke-width: 0.9; stroke-linecap: square"/>
    </g>
    <g id="text_19">
     <!-- tie rod right -->
     <g transform="translate(654.755 53.3975) scale(0.08 -0.08)">
      <defs>
       <path id="DejaVuSans-68" d="M 3513 2113 
L 3513 0 
L 2938 0 
L 2938 2094 
Q 2938 2591 2744 2837 
Q 2550 3084 2163 3084 
Q 1697 3084 1428 2787 
Q 1159 2491 1159 1978 
L 1159 0 
L 581 0 
L 581 4863 
L 1159 4863 
L 1159 2956 
Q 1366 3272 1645 3428 
Q 1925 3584 2291 3584 
Q 2894 3584 3203 3211 
Q 3513 2838 3513 2113 
z
" transform="scale(0.015625)"/>
      </defs>
      <use xlink:href="#DejaVuSans-74"/>
      <use xlink:href="#DejaVuSans-69" transform="translate(39.208984 0)"/>
      <use xlink:href="#DejaVuSans-65" transform="translate(66.992188 0)"/>
      <use xlink:href="#DejaVuSans-20" transform="translate(128.515625 0)"/>
      <use xlink:href="#DejaVuSans-72" transform="translate(160.302734 0)"/>
      <use xlink:href="#DejaVuSans-6f" transform="translate(199.166016 0)"/>
      <use xlink:href="#DejaVuSans-64" transform="translate(260.347656 0)"/>
      <use xlink:href="#DejaVuSans-20" transform="translate(323.824219 0)"/>
      <use xlink:href="#DejaVuSans-72" transform="translate(355.611328 0)"/>
      <use xlink:href="#DejaVuSans-69" transform="translate(396.724609 0)"/>
      <use xlink:href="#DejaVuSans-67" transform="translate(424.507812 0)"/>
      <use xlink:href="#DejaVuSans-68" transform="translate(487.984375 0)"/>
      <use xlink:href="#DejaVuSans-74" transform="translate(551.363281 0)"/>
     </g>
    </g>
   </g>
  </g>
 </g>
 <defs>
  <clipPath id="p468c14aa88">
   <rect x="56.09" y="28.37625" width="653.11" height="217.66375"/>
  </clipPath>
 </defs>
</svg>
